<?xml version="1.0" encoding="UTF-8"?>
<svg width="24px" height="24px" viewBox="0 0 24 24" version="1.1" xmlns="http://www.w3.org/2000/svg" xmlns:xlink="http://www.w3.org/1999/xlink">
    <title>AF</title>
    <defs>
        <circle id="path-1" cx="12" cy="12" r="12"></circle>
        <path d="M12,0 C18.627417,-1.21743675e-15 24,5.372583 24,12 C24,18.627417 18.627417,24 12,24 C5.372583,24 8.11624501e-16,18.627417 0,12 C-8.11624501e-16,5.372583 5.372583,1.21743675e-15 12,0 Z" id="path-3"></path>
        <linearGradient x1="50%" y1="0%" x2="50%" y2="100%" id="linearGradient-5">
            <stop stop-color="#000000" stop-opacity="0" offset="0%"></stop>
            <stop stop-color="#000000" offset="100%"></stop>
        </linearGradient>
        <linearGradient x1="50%" y1="0%" x2="50%" y2="100%" id="linearGradient-6">
            <stop stop-color="#FFFFFF" offset="0%"></stop>
            <stop stop-color="#FFFFFF" stop-opacity="0" offset="100%"></stop>
        </linearGradient>
    </defs>
    <g id="AF" stroke="none" stroke-width="1" fill="none" fill-rule="evenodd">
        <mask id="mask-2" fill="white">
            <use xlink:href="#path-1"></use>
        </mask>
        <g id="Mask"></g>
        <g id="Group" mask="url(#mask-2)">
            <g>
                <mask id="mask-4" fill="white">
                    <use xlink:href="#path-3"></use>
                </mask>
                <g id="Mask" fill-rule="nonzero"></g>
            </g>
        </g>
        <polygon id="Rectangle" fill="#2E2E2E" mask="url(#mask-2)" points="0 0 8 0 8 24 0 24"></polygon>
        <rect id="Rectangle" fill="#F12339" mask="url(#mask-2)" x="8" y="0" width="8" height="24"></rect>
        <polygon id="Rectangle" fill="#18A454" mask="url(#mask-2)" points="16 0 24 0 24 24 16 24"></polygon>
        <path d="M12,6 C15.3137085,6 18,8.6862915 18,12 C18,15.3137085 15.3137085,18 12,18 C8.6862915,18 6,15.3137085 6,12 C6,8.6862915 8.6862915,6 12,6 Z M12,7 C9.51471863,7 7.5,9.01471863 7.5,11.5 C7.5,13.9852814 9.51471863,16 12,16 C14.4852814,16 16.5,13.9852814 16.5,11.5 C16.5,9.01471863 14.4852814,7 12,7 Z" id="Combined-Shape" fill="#FFFFFF" mask="url(#mask-2)"></path>
        <g id="Group" mask="url(#mask-2)">
            <g>
                <path d="M12,0.25 C15.2446729,0.25 18.1821729,1.56516355 20.3085047,3.69149532 C22.4348365,5.81782709 23.75,8.75532709 23.75,12 C23.75,15.2446729 22.4348365,18.1821729 20.3085047,20.3085047 C18.1821729,22.4348365 15.2446729,23.75 12,23.75 C8.75532709,23.75 5.81782709,22.4348365 3.69149532,20.3085047 C1.56516355,18.1821729 0.25,15.2446729 0.25,12 C0.25,8.75532709 1.56516355,5.81782709 3.69149532,3.69149532 C5.81782709,1.56516355 8.75532709,0.25 12,0.25 Z" id="Mask" stroke-opacity="0.15" stroke="#000000" stroke-width="0.5" fill-rule="nonzero"></path>
                <rect id="Dark" fill="url(#linearGradient-5)" style="mix-blend-mode: normal;" opacity="0.100000001" x="0" y="12" width="24" height="12"></rect>
                <rect id="Light" fill="url(#linearGradient-6)" opacity="0.100000001" style="mix-blend-mode: normal;" x="0" y="0" width="24" height="12"></rect>
            </g>
        </g>
        <path d="M12.2080126,8.36132495 C12.2990035,8.49781131 12.3925672,8.61207635 12.4965999,8.71773745 L12.6044148,8.82103491 L12.9629853,9.1276157 C13.1554713,9.30807138 13.25,9.49187711 13.25,9.75 C13.25,9.93564822 13.2087349,10.1033284 13.1286496,10.2506718 L13.5,10.25 L13.5,9 C13.5,8.86192881 13.6119288,8.75 13.75,8.75 C13.8683467,8.75 13.9674868,8.83223341 13.9933973,8.94267729 L14,9 L13.9994988,10.25 L14.25,10.25 C14.3880712,10.25 14.5,10.3619288 14.5,10.5 C14.5,10.6183467 14.4177666,10.7174868 14.3073227,10.7433973 L14.25,10.75 L13.75,10.75 L13.75,13.397 L14.6767767,14.3232233 C14.8027697,14.4492163 14.7565816,14.6467576 14.6190308,14.7207344 L14.5633245,14.7423025 L14.5,14.75 L9.5,14.75 C9.29954641,14.75 9.18915227,14.5318788 9.28388908,14.3734434 L9.3232233,14.3232233 L10.25,13.396 L10.25,10.75 L9.75,10.75 C9.61192881,10.75 9.5,10.6380712 9.5,10.5 C9.5,10.3816533 9.58223341,10.2825132 9.69267729,10.2566027 L9.75,10.25 L9.99949881,10.25 L10,9 C10,8.86192881 10.1119288,8.75 10.25,8.75 C10.3683467,8.75 10.4674868,8.83223341 10.4933973,8.94267729 L10.5,9 L10.5,10.25 L10.8713504,10.2506718 C10.7912651,10.1033284 10.75,9.93564822 10.75,9.75 C10.75,9.53489759 10.8156449,9.37140432 10.9489189,9.21845126 L11.0370147,9.1276157 L11.3955852,8.82103491 C11.5447711,8.68578401 11.6706662,8.54330676 11.7919874,8.36132495 C11.8909429,8.21289168 12.1090571,8.21289168 12.2080126,8.36132495 Z M12,11 C11.4477153,11 11,11.4477153 11,12 L11,12 L11,14 L13,14 L13,12 C13,11.4477153 12.5522847,11 12,11 Z M11.999,8.914 L11.9820374,8.93625241 L11.8606404,9.06758219 L11.8606404,9.06758219 L11.7314148,9.19146509 L11.3789853,9.4923843 C11.280161,9.58503207 11.25,9.64367845 11.25,9.75 C11.25,9.95153723 11.3310843,10.1019547 11.5125916,10.2199883 L11.5664988,10.25 L12.433,10.25 L12.4874084,10.2199883 C12.6084133,10.1412992 12.6847857,10.0482173 12.7222557,9.93519123 L12.7431534,9.84659538 L12.75,9.75 C12.75,9.66494276 12.730697,9.61039763 12.6723777,9.54454621 L12.6210147,9.4923843 L12.2685852,9.19146509 L12.1393596,9.06758219 L12.1393596,9.06758219 L12.0179626,8.93625241 L11.999,8.914 Z" id="Combined-Shape" fill="#FFFFFF" mask="url(#mask-2)"></path>
    </g>
</svg>