<?xml version="1.0" encoding="UTF-8"?>
<svg width="24px" height="24px" viewBox="0 0 24 24" version="1.1" xmlns="http://www.w3.org/2000/svg" xmlns:xlink="http://www.w3.org/1999/xlink">
    <title>AI</title>
    <defs>
        <circle id="path-1" cx="12" cy="12" r="12"></circle>
        <path d="M12,0 C18.627417,-1.21743675e-15 24,5.372583 24,12 C24,18.627417 18.627417,24 12,24 C5.372583,24 8.11624501e-16,18.627417 0,12 C-8.11624501e-16,5.372583 5.372583,1.21743675e-15 12,0 Z" id="path-3"></path>
        <rect id="path-5" x="0" y="0" width="12" height="12"></rect>
        <linearGradient x1="50%" y1="0%" x2="50%" y2="100%" id="linearGradient-7">
            <stop stop-color="#000000" stop-opacity="0" offset="0%"></stop>
            <stop stop-color="#000000" offset="100%"></stop>
        </linearGradient>
        <linearGradient x1="50%" y1="0%" x2="50%" y2="100%" id="linearGradient-8">
            <stop stop-color="#FFFFFF" offset="0%"></stop>
            <stop stop-color="#FFFFFF" stop-opacity="0" offset="100%"></stop>
        </linearGradient>
    </defs>
    <g id="AI" stroke="none" stroke-width="1" fill="none" fill-rule="evenodd">
        <mask id="mask-2" fill="white">
            <use xlink:href="#path-1"></use>
        </mask>
        <g id="Mask"></g>
        <g id="Group" mask="url(#mask-2)">
            <g>
                <mask id="mask-4" fill="white">
                    <use xlink:href="#path-3"></use>
                </mask>
                <g id="Mask" fill-rule="nonzero"></g>
            </g>
        </g>
        <rect id="Rectangle" fill="#0956BA" mask="url(#mask-2)" x="0" y="0" width="24" height="24"></rect>
        <g id="Group" mask="url(#mask-2)">
            <mask id="mask-6" fill="white">
                <use xlink:href="#path-5"></use>
            </mask>
            <g id="Mask"></g>
            <path d="M12,3.10840763e-15 L11.9994954,0.662495392 L7.41149539,5.90549539 L11.9994954,9.92049539 L12,12 L11.3364954,11.9994954 L6.09349539,7.41149539 L2.07949539,11.9994954 L-1.1057843e-13,12 L-0.000504607869,11.3384954 L4.58749539,6.09349539 L-0.000504607869,2.07949539 L-1.1057843e-13,3.10840763e-15 L0.661495392,-0.000504607869 L5.90549539,4.58749539 L9.92049539,-0.000504607869 L12,3.10840763e-15 Z" id="Combined-Shape" fill="#FFFFFF" fill-rule="nonzero" mask="url(#mask-6)"></path>
            <path d="M11.9137477,-0.000252303934 L6.7047477,5.9517477 L11.9997477,10.5847477 L11.9997477,11.9137477 L6.0467477,6.7047477 L1.4147477,11.9997477 L0.0857476961,11.9997477 L5.2937477,6.0467477 L-0.000252303934,1.4137477 L-0.000252303934,0.0847476961 L5.9527477,5.2937477 L10.5857477,-0.000252303934 L11.9137477,-0.000252303934 Z" id="Combined-Shape" fill="#F12339" fill-rule="nonzero" mask="url(#mask-6)"></path>
            <path d="M8,0 L8,4 L12,4 L12,8 L8,8 L8,12 L4,12 L4,8 L0,8 L0,4 L4,4 L4,0 L8,0 Z" id="Combined-Shape" fill="#FFFFFF" mask="url(#mask-6)"></path>
            <path d="M7,0 L7,5 L12,5 L12,7 L7,7 L7,12 L5,12 L5,7 L0,7 L0,5 L5,5 L5,0 L7,0 Z" id="Combined-Shape" fill="#F12339" mask="url(#mask-6)"></path>
        </g>
        <path d="M20.5,8 C20.7761424,8 21,8.22385763 21,8.5 L21,8.5 L21,11.0845241 C21,12.1280844 20.7118669,13.1329629 20.1880478,14.0009195 L15.811075,14.0010584 C15.2889085,13.1347821 15,12.1298407 15,11.0845241 L15,11.0845241 L15,8.5 C15,8.22385763 15.2238576,8 15.5,8 L15.5,8 Z" id="Combined-Shape" fill="#FFFFFF" mask="url(#mask-2)"></path>
        <path d="M18.6761089,10.6791216 C18.9152552,10.5410504 19.2210504,10.622988 19.3591216,10.8621343 C19.4971928,11.1012806 19.4152552,11.4070758 19.1761089,11.545147 C18.9369626,11.6832182 18.6311674,11.6012806 18.4930962,11.3621343 C18.355025,11.122988 18.4369626,10.8171928 18.6761089,10.6791216 Z M16.9440581,11.6791216 C17.1832044,11.5410504 17.4889996,11.622988 17.6270708,11.8621343 C17.765142,12.1012806 17.6832044,12.4070758 17.4440581,12.545147 C17.2049118,12.6832182 16.8991166,12.6012806 16.7610454,12.3621343 C16.6229742,12.122988 16.7049118,11.8171928 16.9440581,11.6791216 Z M16.8100835,9.44707079 C17.0492298,9.3089996 17.355025,9.39093718 17.4930962,9.63008349 C17.6311674,9.8692298 17.5492298,10.175025 17.3100835,10.3130962 C17.0709372,10.4511674 16.765142,10.3692298 16.6270708,10.1300835 C16.4889996,9.89093718 16.5709372,9.58514197 16.8100835,9.44707079 Z" id="Shape" fill="#FF7F0E" mask="url(#mask-2)"></path>
        <path d="M20.1878403,14.0012633 C19.7608953,14.7085883 19.1774196,15.3249655 18.4658016,15.7972201 L18.4658016,15.7972201 L18.2669406,15.9227797 C18.1073432,16.0235486 17.9046019,16.0258563 17.7427521,15.9287465 C16.937607,15.4456594 16.2803278,14.7794469 15.8112473,14.0013442 Z" id="Combined-Shape" fill="#2BB8FF" mask="url(#mask-2)"></path>
        <g id="Group" mask="url(#mask-2)">
            <g>
                <path d="M12,0.25 C15.2446729,0.25 18.1821729,1.56516355 20.3085047,3.69149532 C22.4348365,5.81782709 23.75,8.75532709 23.75,12 C23.75,15.2446729 22.4348365,18.1821729 20.3085047,20.3085047 C18.1821729,22.4348365 15.2446729,23.75 12,23.75 C8.75532709,23.75 5.81782709,22.4348365 3.69149532,20.3085047 C1.56516355,18.1821729 0.25,15.2446729 0.25,12 C0.25,8.75532709 1.56516355,5.81782709 3.69149532,3.69149532 C5.81782709,1.56516355 8.75532709,0.25 12,0.25 Z" id="Mask" stroke-opacity="0.15" stroke="#000000" stroke-width="0.5" fill-rule="nonzero"></path>
                <rect id="Dark" fill="url(#linearGradient-7)" style="mix-blend-mode: normal;" opacity="0.100000001" x="0" y="12" width="24" height="12"></rect>
                <rect id="Light" fill="url(#linearGradient-8)" opacity="0.100000001" style="mix-blend-mode: normal;" x="0" y="0" width="24" height="12"></rect>
            </g>
        </g>
    </g>
</svg>