<?xml version="1.0" encoding="UTF-8"?>
<svg width="24px" height="24px" viewBox="0 0 24 24" version="1.1" xmlns="http://www.w3.org/2000/svg" xmlns:xlink="http://www.w3.org/1999/xlink">
    <title>AL</title>
    <defs>
        <circle id="path-1" cx="12" cy="12" r="12"></circle>
        <path d="M12,0 C18.627417,-1.21743675e-15 24,5.372583 24,12 C24,18.627417 18.627417,24 12,24 C5.372583,24 8.11624501e-16,18.627417 0,12 C-8.11624501e-16,5.372583 5.372583,1.21743675e-15 12,0 Z" id="path-3"></path>
        <linearGradient x1="50%" y1="0%" x2="50%" y2="100%" id="linearGradient-5">
            <stop stop-color="#000000" stop-opacity="0" offset="0%"></stop>
            <stop stop-color="#000000" offset="100%"></stop>
        </linearGradient>
        <linearGradient x1="50%" y1="0%" x2="50%" y2="100%" id="linearGradient-6">
            <stop stop-color="#FFFFFF" offset="0%"></stop>
            <stop stop-color="#FFFFFF" stop-opacity="0" offset="100%"></stop>
        </linearGradient>
    </defs>
    <g id="AL" stroke="none" stroke-width="1" fill="none" fill-rule="evenodd">
        <mask id="mask-2" fill="white">
            <use xlink:href="#path-1"></use>
        </mask>
        <g id="Mask"></g>
        <g id="Group" mask="url(#mask-2)">
            <g>
                <mask id="mask-4" fill="white">
                    <use xlink:href="#path-3"></use>
                </mask>
                <g id="Mask" fill-rule="nonzero"></g>
            </g>
        </g>
        <polygon id="Rectangle" fill="#F12339" mask="url(#mask-2)" points="0 0 24 0 24 24 0 24"></polygon>
        <path d="M10.2416731,5 C10.7098854,5 11.1421287,5.24695499 11.3962445,5.67620182 L11.3962445,5.67620182 L11.4595725,5.80304035 C11.5983054,6.1267505 11.7778716,6.62933194 11.999768,7.31419429 C12.2221284,6.62933194 12.4016946,6.1267505 12.5404275,5.80304035 L12.6037555,5.67620182 C12.8578713,5.24695499 13.2901146,5 13.7583269,5 L15.5,5 C16.0896289,5 16.1932919,5.84206523 15.6212678,5.98507125 L14.6596768,6.225469 L14.5166316,6.26889468 C14.0966561,6.4196151 13.7626818,6.7510977 13.6108674,7.17617815 L12.96,9 L13.662,9 L14.1333983,7.82021311 C14.4471622,7.03580334 15.1358706,6.46292393 15.9642997,6.29723812 L17.4019419,6.00970966 L17.4856941,5.99954207 C17.9219486,5.98139131 18.182785,6.52432182 17.8535534,6.85355339 L17.207,7.5 L17.5,7.5 L17.586032,7.50695512 C17.9728055,7.57081573 18.147537,8.05956979 17.8535534,8.35355339 L17.207,9 L17.5,9 L17.586032,9.00695512 C17.9728055,9.07081573 18.147537,9.55956979 17.8535534,9.85355339 L17.207,10.5 L17.5,10.5 C17.785463,10.5 18.0129896,10.7385985 17.9994361,11.0237396 L17.9925695,11.1681996 L17.9720366,11.3230129 C17.8067809,12.2903521 16.9813174,13 16,13 L14.435,12.999 L14.7015742,13.4009735 C14.7705695,13.5044665 14.8756623,13.5785274 14.9963316,13.6086947 L16.6212678,14.0149287 C17.1932919,14.1579348 17.0896289,15 16.5,15 L15,15 C14.527864,15 14.0832816,14.7777088 13.8,14.4 L13.1408327,13.5211103 C13.131463,13.5086173 13.1200372,13.4978087 13.1070438,13.4891464 C13.0437458,13.4469477 12.9582238,13.4640521 12.9160251,13.5273501 L12.8084839,13.688662 C12.6908922,13.8650495 12.6973142,14.096419 12.824509,14.2660121 L13.9,15.7 C14.0219749,15.8626332 14.0333391,16.0829269 13.9287465,16.2572479 L12.4478677,18.7282623 C12.416985,18.7899034 12.3739363,18.8422203 12.322978,18.8840342 C12.2295189,18.9651444 12.1143951,19.0020397 12.0002801,19.0008367 C11.8862758,19.0022543 11.7707542,18.9653809 11.6767243,18.8839531 C11.6260637,18.8422203 11.583015,18.7899034 11.5521323,18.7282623 L10.0712535,16.2572479 C9.96666094,16.0829269 9.97802512,15.8626332 10.1,15.7 L10.1,15.7 L11.175491,14.2660121 C11.3026858,14.096419 11.3091078,13.8650495 11.1915161,13.688662 L11.1915161,13.688662 L11.0839749,13.5273501 C11.0417762,13.4640521 10.9562542,13.4469477 10.8929562,13.4891464 C10.8799628,13.4978087 10.868537,13.5086173 10.8591673,13.5211103 L10.8591673,13.5211103 L10.2,14.4 C9.91671843,14.7777088 9.47213596,15 9,15 L9,15 L7.5,15 C6.91037108,15 6.80670811,14.1579348 7.37873219,14.0149287 L7.37873219,14.0149287 L9.00366843,13.6086947 C9.12433768,13.5785274 9.22943048,13.5044665 9.29842576,13.4009735 L9.29842576,13.4009735 L9.565,12.999 L8,13 C7.01868258,13 6.19321906,12.2903521 6.02796343,11.3230129 L6.02796343,11.3230129 L6.00743046,11.1681996 L6.00056388,11.0237396 C5.98701035,10.7385985 6.21453698,10.5 6.5,10.5 L6.5,10.5 L6.793,10.5 L6.14644661,9.85355339 C5.85246301,9.55956979 6.02719453,9.07081573 6.41396798,9.00695512 L6.41396798,9.00695512 L6.5,9 L6.793,9 L6.14644661,8.35355339 C5.85246301,8.05956979 6.02719453,7.57081573 6.41396798,7.50695512 L6.41396798,7.50695512 L6.5,7.5 L6.793,7.5 L6.14644661,6.85355339 C5.81721504,6.52432182 6.07805141,5.98139131 6.5143059,5.99954207 L6.5143059,5.99954207 L6.59805807,6.00970966 L8.03570034,6.29723812 C8.86412939,6.46292393 9.55283782,7.03580334 9.86660173,7.82021311 L9.86660173,7.82021311 L10.338,9 L11.04,9 L10.3891326,7.17617815 C10.2373182,6.7510977 9.90334391,6.4196151 9.48336835,6.26889468 L9.48336835,6.26889468 L9.34032317,6.225469 L8.37873219,5.98507125 C7.80670811,5.84206523 7.91037108,5 8.5,5 L8.5,5 Z" id="Combined-Shape" fill="#2E2E2E" mask="url(#mask-2)"></path>
        <g id="Group" mask="url(#mask-2)">
            <g>
                <path d="M12,0.25 C15.2446729,0.25 18.1821729,1.56516355 20.3085047,3.69149532 C22.4348365,5.81782709 23.75,8.75532709 23.75,12 C23.75,15.2446729 22.4348365,18.1821729 20.3085047,20.3085047 C18.1821729,22.4348365 15.2446729,23.75 12,23.75 C8.75532709,23.75 5.81782709,22.4348365 3.69149532,20.3085047 C1.56516355,18.1821729 0.25,15.2446729 0.25,12 C0.25,8.75532709 1.56516355,5.81782709 3.69149532,3.69149532 C5.81782709,1.56516355 8.75532709,0.25 12,0.25 Z" id="Mask" stroke-opacity="0.15" stroke="#000000" stroke-width="0.5" fill-rule="nonzero"></path>
                <rect id="Dark" fill="url(#linearGradient-5)" style="mix-blend-mode: normal;" opacity="0.100000001" x="0" y="12" width="24" height="12"></rect>
                <rect id="Light" fill="url(#linearGradient-6)" opacity="0.100000001" style="mix-blend-mode: normal;" x="0" y="0" width="24" height="12"></rect>
            </g>
        </g>
    </g>
</svg>