<?xml version="1.0" encoding="UTF-8"?>
<svg width="24px" height="24px" viewBox="0 0 24 24" version="1.1" xmlns="http://www.w3.org/2000/svg" xmlns:xlink="http://www.w3.org/1999/xlink">
    <title>AO</title>
    <defs>
        <circle id="path-1" cx="12" cy="12" r="12"></circle>
        <path d="M12,0 C18.627417,-1.21743675e-15 24,5.372583 24,12 C24,18.627417 18.627417,24 12,24 C5.372583,24 8.11624501e-16,18.627417 0,12 C-8.11624501e-16,5.372583 5.372583,1.21743675e-15 12,0 Z" id="path-3"></path>
        <linearGradient x1="50%" y1="0%" x2="50%" y2="100%" id="linearGradient-5">
            <stop stop-color="#000000" stop-opacity="0" offset="0%"></stop>
            <stop stop-color="#000000" offset="100%"></stop>
        </linearGradient>
        <linearGradient x1="50%" y1="0%" x2="50%" y2="100%" id="linearGradient-6">
            <stop stop-color="#FFFFFF" offset="0%"></stop>
            <stop stop-color="#FFFFFF" stop-opacity="0" offset="100%"></stop>
        </linearGradient>
    </defs>
    <g id="AO" stroke="none" stroke-width="1" fill="none" fill-rule="evenodd">
        <mask id="mask-2" fill="white">
            <use xlink:href="#path-1"></use>
        </mask>
        <g id="Mask"></g>
        <g id="Group" mask="url(#mask-2)">
            <g>
                <mask id="mask-4" fill="white">
                    <use xlink:href="#path-3"></use>
                </mask>
                <g id="Mask" fill-rule="nonzero"></g>
            </g>
        </g>
        <polygon id="Rectangle" fill="#F12339" mask="url(#mask-2)" points="0 0 24 0 24 12 0 12"></polygon>
        <polygon id="Rectangle" fill="#2E2E2E" mask="url(#mask-2)" points="0 12 24 12 24 24 0 24"></polygon>
        <path d="M12.1433751,5.72578637 C12.2491479,5.47070456 12.5416783,5.34966568 12.7967601,5.45543846 C13.5248242,5.75733914 14.1859286,6.20064722 14.7426407,6.75735931 C15.8602727,7.87499128 16.5,9.38747661 16.5,11 C16.5,14.3137085 13.8137085,17 10.5,17 C9.70215279,17 8.92520439,16.8439329 8.20323988,16.5445615 C7.83985876,16.3938811 7.4925561,16.2077375 7.16607268,15.9891735 C6.93660344,15.8355555 6.87511382,15.525002 7.02873178,15.2955327 C7.18234974,15.0660635 7.49290328,15.0045739 7.72237252,15.1581918 C7.99442657,15.3403181 8.28371196,15.4953663 8.58627702,15.6208286 C9.18734295,15.8700679 9.8341836,16 10.5,16 C13.2614237,16 15.5,13.7614237 15.5,11 C15.5,9.65541916 14.9674886,8.39642077 14.0355339,7.46446609 C13.5712432,7.00017542 13.0201411,6.63063008 12.413723,6.37917141 C12.1586412,6.27339862 12.0376023,5.98086818 12.1433751,5.72578637 Z" id="Path" fill="#FFD400" mask="url(#mask-2)"></path>
        <path d="M11.0575085,8.00142195 L10.173689,8.0064975 L10.1263732,8.01310952 C9.99390557,8.05098174 9.94963935,8.24190094 10.0714546,8.33535236 L10.7836516,8.88194495 L10.514876,9.76169477 L10.5065186,9.80641326 C10.4965616,9.95204647 10.6586097,10.0580768 10.7825291,9.96493825 L11.5,9.42526188 L12.2174709,9.96493825 L12.2555804,9.98706431 C12.3850242,10.0419647 12.5315833,9.91365291 12.485124,9.76169477 L12.2156516,8.88194495 L12.9285454,8.33535236 L12.9631062,8.30093561 C13.0489759,8.18891746 12.9774175,8.00726651 12.826311,8.0064975 L11.9417947,8.00142195 L11.6654188,7.12496941 C11.6127585,6.95834353 11.3872415,6.95834353 11.3345812,7.12496941 L11.0575085,8.00142195 Z" id="Path" fill="#FFD400" mask="url(#mask-2)"></path>
        <g id="Group" mask="url(#mask-2)">
            <g>
                <path d="M12,0.25 C15.2446729,0.25 18.1821729,1.56516355 20.3085047,3.69149532 C22.4348365,5.81782709 23.75,8.75532709 23.75,12 C23.75,15.2446729 22.4348365,18.1821729 20.3085047,20.3085047 C18.1821729,22.4348365 15.2446729,23.75 12,23.75 C8.75532709,23.75 5.81782709,22.4348365 3.69149532,20.3085047 C1.56516355,18.1821729 0.25,15.2446729 0.25,12 C0.25,8.75532709 1.56516355,5.81782709 3.69149532,3.69149532 C5.81782709,1.56516355 8.75532709,0.25 12,0.25 Z" id="Mask" stroke-opacity="0.15" stroke="#000000" stroke-width="0.5" fill-rule="nonzero"></path>
                <rect id="Dark" fill="url(#linearGradient-5)" style="mix-blend-mode: normal;" opacity="0.100000001" x="0" y="12" width="24" height="12"></rect>
                <rect id="Light" fill="url(#linearGradient-6)" opacity="0.100000001" style="mix-blend-mode: normal;" x="0" y="0" width="24" height="12"></rect>
            </g>
        </g>
        <path d="M9.1,12.2 C9.24727593,12.0036321 9.51126515,11.9464384 9.72326609,12.0525192 L9.8,12.1 L17.8,18.1 C18.0209139,18.2656854 18.0656854,18.5790861 17.9,18.8 C17.7527241,18.9963679 17.4887348,19.0535616 17.2767339,18.9474808 L17.2,18.9 L9.2,12.9 C8.9790861,12.7343146 8.93431458,12.4209139 9.1,12.2 Z" id="Path" fill="#FFD400" mask="url(#mask-2)"></path>
    </g>
</svg>