<?xml version="1.0" encoding="UTF-8"?>
<svg width="24px" height="24px" viewBox="0 0 24 24" version="1.1" xmlns="http://www.w3.org/2000/svg" xmlns:xlink="http://www.w3.org/1999/xlink">
    <title>AS</title>
    <defs>
        <circle id="path-1" cx="12" cy="12" r="12"></circle>
        <path d="M12,0 C18.627417,-1.21743675e-15 24,5.372583 24,12 C24,18.627417 18.627417,24 12,24 C5.372583,24 8.11624501e-16,18.627417 0,12 C-8.11624501e-16,5.372583 5.372583,1.21743675e-15 12,0 Z" id="path-3"></path>
        <linearGradient x1="50%" y1="0%" x2="50%" y2="100%" id="linearGradient-5">
            <stop stop-color="#000000" stop-opacity="0" offset="0%"></stop>
            <stop stop-color="#000000" offset="100%"></stop>
        </linearGradient>
        <linearGradient x1="50%" y1="0%" x2="50%" y2="100%" id="linearGradient-6">
            <stop stop-color="#FFFFFF" offset="0%"></stop>
            <stop stop-color="#FFFFFF" stop-opacity="0" offset="100%"></stop>
        </linearGradient>
    </defs>
    <g id="AS" stroke="none" stroke-width="1" fill="none" fill-rule="evenodd">
        <mask id="mask-2" fill="white">
            <use xlink:href="#path-1"></use>
        </mask>
        <g id="Mask"></g>
        <g id="Group" mask="url(#mask-2)">
            <g>
                <mask id="mask-4" fill="white">
                    <use xlink:href="#path-3"></use>
                </mask>
                <g id="Mask" fill-rule="nonzero"></g>
            </g>
        </g>
        <polygon id="Rectangle" fill="#0956BA" mask="url(#mask-2)" points="0 0 24 0 24 24 0 24"></polygon>
        <path d="M0,5.5067062e-14 L24,12 L0,24 L0,5.5067062e-14 Z" id="Combined-Shape" fill="#F12339" mask="url(#mask-2)" transform="translate(12.000000, 12.000000) scale(-1, 1) translate(-12.000000, -12.000000) "></path>
        <path d="M2.237,1.118 L24,11.999 L2.237,22.881 L2.237,1.118 Z" id="Combined-Shape" fill="#FFFFFF" mask="url(#mask-2)" transform="translate(13.118500, 11.999500) scale(-1, 1) translate(-13.118500, -11.999500) "></path>
        <g id="Group" mask="url(#mask-2)">
            <g>
                <path d="M12,0.25 C15.2446729,0.25 18.1821729,1.56516355 20.3085047,3.69149532 C22.4348365,5.81782709 23.75,8.75532709 23.75,12 C23.75,15.2446729 22.4348365,18.1821729 20.3085047,20.3085047 C18.1821729,22.4348365 15.2446729,23.75 12,23.75 C8.75532709,23.75 5.81782709,22.4348365 3.69149532,20.3085047 C1.56516355,18.1821729 0.25,15.2446729 0.25,12 C0.25,8.75532709 1.56516355,5.81782709 3.69149532,3.69149532 C5.81782709,1.56516355 8.75532709,0.25 12,0.25 Z" id="Mask" stroke-opacity="0.15" stroke="#000000" stroke-width="0.5" fill-rule="nonzero"></path>
                <rect id="Dark" fill="url(#linearGradient-5)" style="mix-blend-mode: normal;" opacity="0.100000001" x="0" y="12" width="24" height="12"></rect>
                <rect id="Light" fill="url(#linearGradient-6)" opacity="0.100000001" style="mix-blend-mode: normal;" x="0" y="0" width="24" height="12"></rect>
            </g>
        </g>
        <path d="M21.7519305,8.06587843 C22.1583645,7.83363045 22.6325293,8.23725595 22.4681646,8.67556172 L22.4681646,8.67556172 L20.9681646,12.6755617 C20.8404805,13.0160525 20.403582,13.1106888 20.1464466,12.8535534 L20.1464466,12.8535534 L18.1464466,10.8535534 C17.9133229,10.6204297 17.9656823,10.2294488 18.2519305,10.0658784 L18.2519305,10.0658784 Z" id="Combined-Shape" fill="#AE6624" mask="url(#mask-2)"></path>
        <path d="M21.5,13 C21.7761424,13 22,13.2238576 22,13.5 C22,13.7454599 21.8231248,13.9496084 21.5898756,13.9919443 L21.5,14 L19.259,14 L20.6755617,14.5318354 C20.905393,14.6180221 21.0344381,14.8553168 20.9921793,15.08858 L20.9681646,15.1755617 C20.8819779,15.405393 20.6446832,15.5344381 20.41142,15.4921793 L20.3244383,15.4681646 L16.3244383,13.9681646 C15.8338908,13.7842093 15.9291547,13.0889099 16.4061415,13.0077465 L16.5,13 L21.5,13 Z" id="Path" fill="#FFD400" mask="url(#mask-2)"></path>
    </g>
</svg>