<?xml version="1.0" encoding="UTF-8"?>
<svg width="24px" height="24px" viewBox="0 0 24 24" version="1.1" xmlns="http://www.w3.org/2000/svg" xmlns:xlink="http://www.w3.org/1999/xlink">
    <title>BA</title>
    <defs>
        <circle id="path-1" cx="12" cy="12" r="12"></circle>
        <path d="M12,0 C18.627417,-1.21743675e-15 24,5.372583 24,12 C24,18.627417 18.627417,24 12,24 C5.372583,24 8.11624501e-16,18.627417 0,12 C-8.11624501e-16,5.372583 5.372583,1.21743675e-15 12,0 Z" id="path-3"></path>
        <linearGradient x1="50%" y1="0%" x2="50%" y2="100%" id="linearGradient-5">
            <stop stop-color="#000000" stop-opacity="0" offset="0%"></stop>
            <stop stop-color="#000000" offset="100%"></stop>
        </linearGradient>
        <linearGradient x1="50%" y1="0%" x2="50%" y2="100%" id="linearGradient-6">
            <stop stop-color="#FFFFFF" offset="0%"></stop>
            <stop stop-color="#FFFFFF" stop-opacity="0" offset="100%"></stop>
        </linearGradient>
    </defs>
    <g id="BA" stroke="none" stroke-width="1" fill="none" fill-rule="evenodd">
        <mask id="mask-2" fill="white">
            <use xlink:href="#path-1"></use>
        </mask>
        <g id="Mask"></g>
        <g id="Group" mask="url(#mask-2)">
            <g>
                <mask id="mask-4" fill="white">
                    <use xlink:href="#path-3"></use>
                </mask>
                <g id="Mask" fill-rule="nonzero"></g>
            </g>
        </g>
        <polygon id="Rectangle" fill="#FFD400" mask="url(#mask-2)" transform="translate(12.000000, 12.000000) scale(-1, -1) translate(-12.000000, -12.000000) " points="0 0 24 24 0 24"></polygon>
        <polygon id="Rectangle" fill="#0956BA" mask="url(#mask-2)" points="0 0 24 24 0 24"></polygon>
        <path d="M17.75,19.5 C18.1642136,19.5 18.5,19.8357864 18.5,20.25 C18.5,20.6642136 18.1642136,21 17.75,21 C17.3357864,21 17,20.6642136 17,20.25 C17,19.8357864 17.3357864,19.5 17.75,19.5 Z M15.75,17.5 C16.1642136,17.5 16.5,17.8357864 16.5,18.25 C16.5,18.6642136 16.1642136,19 15.75,19 C15.3357864,19 15,18.6642136 15,18.25 C15,17.8357864 15.3357864,17.5 15.75,17.5 Z M13.75,15.5 C14.1642136,15.5 14.5,15.8357864 14.5,16.25 C14.5,16.6642136 14.1642136,17 13.75,17 C13.3357864,17 13,16.6642136 13,16.25 C13,15.8357864 13.3357864,15.5 13.75,15.5 Z M11.75,13.5 C12.1642136,13.5 12.5,13.8357864 12.5,14.25 C12.5,14.6642136 12.1642136,15 11.75,15 C11.3357864,15 11,14.6642136 11,14.25 C11,13.8357864 11.3357864,13.5 11.75,13.5 Z M9.75,11.5 C10.1642136,11.5 10.5,11.8357864 10.5,12.25 C10.5,12.6642136 10.1642136,13 9.75,13 C9.33578644,13 9,12.6642136 9,12.25 C9,11.8357864 9.33578644,11.5 9.75,11.5 Z M7.75,9.5 C8.16421356,9.5 8.5,9.83578644 8.5,10.25 C8.5,10.6642136 8.16421356,11 7.75,11 C7.33578644,11 7,10.6642136 7,10.25 C7,9.83578644 7.33578644,9.5 7.75,9.5 Z M5.75,7.5 C6.16421356,7.5 6.5,7.83578644 6.5,8.25 C6.5,8.66421356 6.16421356,9 5.75,9 C5.33578644,9 5,8.66421356 5,8.25 C5,7.83578644 5.33578644,7.5 5.75,7.5 Z M3.75,5.5 C4.16421356,5.5 4.5,5.83578644 4.5,6.25 C4.5,6.66421356 4.16421356,7 3.75,7 C3.33578644,7 3,6.66421356 3,6.25 C3,5.83578644 3.33578644,5.5 3.75,5.5 Z" id="Combined-Shape" fill="#FFFFFF" mask="url(#mask-2)"></path>
        <g id="Group" mask="url(#mask-2)">
            <g>
                <path d="M12,0.25 C15.2446729,0.25 18.1821729,1.56516355 20.3085047,3.69149532 C22.4348365,5.81782709 23.75,8.75532709 23.75,12 C23.75,15.2446729 22.4348365,18.1821729 20.3085047,20.3085047 C18.1821729,22.4348365 15.2446729,23.75 12,23.75 C8.75532709,23.75 5.81782709,22.4348365 3.69149532,20.3085047 C1.56516355,18.1821729 0.25,15.2446729 0.25,12 C0.25,8.75532709 1.56516355,5.81782709 3.69149532,3.69149532 C5.81782709,1.56516355 8.75532709,0.25 12,0.25 Z" id="Mask" stroke-opacity="0.15" stroke="#000000" stroke-width="0.5" fill-rule="nonzero"></path>
                <rect id="Dark" fill="url(#linearGradient-5)" style="mix-blend-mode: normal;" opacity="0.100000001" x="0" y="12" width="24" height="12"></rect>
                <rect id="Light" fill="url(#linearGradient-6)" opacity="0.100000001" style="mix-blend-mode: normal;" x="0" y="0" width="24" height="12"></rect>
            </g>
        </g>
    </g>
</svg>