<?xml version="1.0" encoding="UTF-8"?>
<svg width="24px" height="24px" viewBox="0 0 24 24" version="1.1" xmlns="http://www.w3.org/2000/svg" xmlns:xlink="http://www.w3.org/1999/xlink">
    <title>BI</title>
    <defs>
        <circle id="path-1" cx="12" cy="12" r="12"></circle>
        <path d="M12,0 C18.627417,-1.21743675e-15 24,5.372583 24,12 C24,18.627417 18.627417,24 12,24 C5.372583,24 8.11624501e-16,18.627417 0,12 C-8.11624501e-16,5.372583 5.372583,1.21743675e-15 12,0 Z" id="path-3"></path>
        <linearGradient x1="50%" y1="0%" x2="50%" y2="100%" id="linearGradient-5">
            <stop stop-color="#000000" stop-opacity="0" offset="0%"></stop>
            <stop stop-color="#000000" offset="100%"></stop>
        </linearGradient>
        <linearGradient x1="50%" y1="0%" x2="50%" y2="100%" id="linearGradient-6">
            <stop stop-color="#FFFFFF" offset="0%"></stop>
            <stop stop-color="#FFFFFF" stop-opacity="0" offset="100%"></stop>
        </linearGradient>
    </defs>
    <g id="BI" stroke="none" stroke-width="1" fill="none" fill-rule="evenodd">
        <mask id="mask-2" fill="white">
            <use xlink:href="#path-1"></use>
        </mask>
        <g id="Mask"></g>
        <g id="Group" mask="url(#mask-2)">
            <g>
                <mask id="mask-4" fill="white">
                    <use xlink:href="#path-3"></use>
                </mask>
                <g id="Mask" fill-rule="nonzero"></g>
            </g>
        </g>
        <polygon id="Path-16" fill="#F12339" mask="url(#mask-2)" points="0 0 12 12 24 0"></polygon>
        <polygon id="Path-16" fill="#18A454" mask="url(#mask-2)" transform="translate(18.000000, 12.000000) rotate(90.000000) translate(-18.000000, -12.000000) " points="6 6 18 18 30 6"></polygon>
        <polygon id="Path-16" fill="#F12339" mask="url(#mask-2)" transform="translate(12.000000, 18.000000) rotate(180.000000) translate(-12.000000, -18.000000) " points="0 12 12 24 24 12"></polygon>
        <polygon id="Path-16" fill="#18A454" mask="url(#mask-2)" transform="translate(6.000000, 12.000000) rotate(270.000000) translate(-6.000000, -12.000000) " points="-6 6 6 18 18 6"></polygon>
        <path d="M24,-2.77999845e-13 L23.9993398,2.12133983 L14.1213398,11.9993398 L23.9993398,21.8773398 L24,24 L21.8783398,23.9993398 L11.9993398,14.1213398 L2.12133983,23.9993398 L-1.64313008e-13,24 L-0.00066017178,21.8793398 L9.87833983,11.9993398 L-0.00066017178,2.11933983 L-1.64313008e-13,-2.77999845e-13 L2.12033983,-0.00066017178 L11.9993398,9.87833983 L21.8793398,-0.00066017178 L24,-2.77999845e-13 Z" id="Combined-Shape" fill="#FFFFFF" mask="url(#mask-2)"></path>
        <circle id="Oval" fill="#FFFFFF" mask="url(#mask-2)" cx="12" cy="12" r="7"></circle>
        <path d="M11.4394247,7.747 L10.741418,7.75000198 L10.6823704,7.7575591 C10.5328052,7.79628137 10.4504425,7.97633106 10.5322988,8.12413651 L10.8788864,8.75 L10.5322988,9.37586349 L10.509111,9.43246298 C10.4667936,9.58561743 10.576568,9.74931967 10.741418,9.74999802 L11.4394247,9.752 L11.7908808,10.3758615 L11.8318292,10.4301721 C11.939966,10.5387933 12.1274223,10.5206897 12.2091192,10.3758615 L12.5605015,9.752 L13.258582,9.74999802 L13.3176296,9.7424409 C13.4671948,9.70371863 13.5495575,9.52366894 13.4677012,9.37586349 L13.1210399,8.75 L13.4677012,8.12413651 L13.490889,8.06753702 C13.5332064,7.91438257 13.423432,7.75068033 13.258582,7.75000198 L12.5605015,7.747 L12.2091192,7.12413849 C12.1157513,6.9586205 11.8842487,6.9586205 11.7908808,7.12413849 L11.4394247,7.747 Z" id="Path" fill="#18A454" mask="url(#mask-2)"></path>
        <path d="M11.9999631,7.746 L12.2120106,8.1224194 L12.2506911,8.17406367 C12.2952031,8.2196602 12.3558312,8.24629118 12.4201657,8.24655591 L12.8412547,8.248 L12.6321763,8.62586349 L12.6082174,8.68628714 C12.5922448,8.7489036 12.6002311,8.81645387 12.6321763,8.87413651 L12.8412547,9.251 L12.4201657,9.25344409 L12.3575263,9.26222347 C12.2970416,9.2792434 12.2443998,9.32016268 12.2120106,9.3775806 L11.9999631,9.753 L11.7879894,9.3775806 L11.7493089,9.32593633 C11.7047969,9.2803398 11.6441688,9.25370882 11.5798343,9.25344409 L11.1586715,9.251 L11.3678237,8.87413651 L11.3917826,8.81371286 C11.4077552,8.7510964 11.3997689,8.68354613 11.3678237,8.62586349 L11.1586715,8.248 L11.5798343,8.24655591 C11.6656136,8.24620294 11.7448038,8.19897662 11.7879894,8.1224194 L11.9999631,7.746 Z" id="Path" fill="#F12339" mask="url(#mask-2)"></path>
        <path d="M8.43942473,12.747 L7.74141802,12.750002 L7.68237043,12.7575591 C7.53280521,12.7962814 7.45044255,12.9763311 7.5322988,13.1241365 L7.87888636,13.75 L7.5322988,14.3758635 L7.50911098,14.432463 C7.46679358,14.5856174 7.57656805,14.7493197 7.74141802,14.749998 L8.43942473,14.752 L8.79088078,15.3758615 L8.83182923,15.4301721 C8.939966,15.5387933 9.12742228,15.5206897 9.20911922,15.3758615 L9.56050149,14.752 L10.258582,14.749998 L10.3176296,14.7424409 C10.4671948,14.7037186 10.5495575,14.5236689 10.4677012,14.3758635 L10.1210399,13.75 L10.4677012,13.1241365 L10.490889,13.067537 C10.5332064,12.9143826 10.423432,12.7506803 10.258582,12.750002 L9.56050149,12.747 L9.20911922,12.1241385 C9.11575128,11.9586205 8.88424872,11.9586205 8.79088078,12.1241385 L8.43942473,12.747 Z" id="Path" fill="#18A454" mask="url(#mask-2)"></path>
        <path d="M8.99996311,12.746 L9.21201065,13.1224194 L9.25069108,13.1740637 C9.29520314,13.2196602 9.35583125,13.2462912 9.4201657,13.2465559 L9.84125473,13.248 L9.63217635,13.6258635 L9.60821739,13.6862871 C9.59224476,13.7489036 9.60023108,13.8164539 9.63217635,13.8741365 L9.84125473,14.251 L9.4201657,14.2534441 L9.35752631,14.2622235 C9.29704162,14.2792434 9.24439983,14.3201627 9.21201065,14.3775806 L8.99996311,14.753 L8.78798935,14.3775806 L8.74930892,14.3259363 C8.70479686,14.2803398 8.64416875,14.2537088 8.5798343,14.2534441 L8.15867149,14.251 L8.36782365,13.8741365 L8.39178261,13.8137129 C8.40775524,13.7510964 8.39976892,13.6835461 8.36782365,13.6258635 L8.15867149,13.248 L8.5798343,13.2465559 C8.66561357,13.2462029 8.74480378,13.1989766 8.78798935,13.1224194 L8.99996311,12.746 Z" id="Path" fill="#F12339" mask="url(#mask-2)"></path>
        <path d="M14.4394247,12.747 L13.741418,12.750002 L13.6823704,12.7575591 C13.5328052,12.7962814 13.4504425,12.9763311 13.5322988,13.1241365 L13.8788864,13.75 L13.5322988,14.3758635 L13.509111,14.432463 C13.4667936,14.5856174 13.576568,14.7493197 13.741418,14.749998 L14.4394247,14.752 L14.7908808,15.3758615 L14.8318292,15.4301721 C14.939966,15.5387933 15.1274223,15.5206897 15.2091192,15.3758615 L15.5605015,14.752 L16.258582,14.749998 L16.3176296,14.7424409 C16.4671948,14.7037186 16.5495575,14.5236689 16.4677012,14.3758635 L16.1210399,13.75 L16.4677012,13.1241365 L16.490889,13.067537 C16.5332064,12.9143826 16.423432,12.7506803 16.258582,12.750002 L15.5605015,12.747 L15.2091192,12.1241385 C15.1157513,11.9586205 14.8842487,11.9586205 14.7908808,12.1241385 L14.4394247,12.747 Z" id="Path" fill="#18A454" mask="url(#mask-2)"></path>
        <path d="M14.9999631,12.746 L15.2120106,13.1224194 L15.2506911,13.1740637 C15.2952031,13.2196602 15.3558312,13.2462912 15.4201657,13.2465559 L15.8412547,13.248 L15.6321763,13.6258635 L15.6082174,13.6862871 C15.5922448,13.7489036 15.6002311,13.8164539 15.6321763,13.8741365 L15.8412547,14.251 L15.4201657,14.2534441 L15.3575263,14.2622235 C15.2970416,14.2792434 15.2443998,14.3201627 15.2120106,14.3775806 L14.9999631,14.753 L14.7879894,14.3775806 L14.7493089,14.3259363 C14.7047969,14.2803398 14.6441688,14.2537088 14.5798343,14.2534441 L14.1586715,14.251 L14.3678237,13.8741365 L14.3917826,13.8137129 C14.4077552,13.7510964 14.3997689,13.6835461 14.3678237,13.6258635 L14.1586715,13.248 L14.5798343,13.2465559 C14.6656136,13.2462029 14.7448038,13.1989766 14.7879894,13.1224194 L14.9999631,12.746 Z" id="Path" fill="#F12339" mask="url(#mask-2)"></path>
        <g id="Group" mask="url(#mask-2)">
            <g>
                <path d="M12,0.25 C15.2446729,0.25 18.1821729,1.56516355 20.3085047,3.69149532 C22.4348365,5.81782709 23.75,8.75532709 23.75,12 C23.75,15.2446729 22.4348365,18.1821729 20.3085047,20.3085047 C18.1821729,22.4348365 15.2446729,23.75 12,23.75 C8.75532709,23.75 5.81782709,22.4348365 3.69149532,20.3085047 C1.56516355,18.1821729 0.25,15.2446729 0.25,12 C0.25,8.75532709 1.56516355,5.81782709 3.69149532,3.69149532 C5.81782709,1.56516355 8.75532709,0.25 12,0.25 Z" id="Mask" stroke-opacity="0.15" stroke="#000000" stroke-width="0.5" fill-rule="nonzero"></path>
                <rect id="Dark" fill="url(#linearGradient-5)" style="mix-blend-mode: normal;" opacity="0.100000001" x="0" y="12" width="24" height="12"></rect>
                <rect id="Light" fill="url(#linearGradient-6)" opacity="0.100000001" style="mix-blend-mode: normal;" x="0" y="0" width="24" height="12"></rect>
            </g>
        </g>
    </g>
</svg>