<?xml version="1.0" encoding="UTF-8"?>
<svg width="24px" height="24px" viewBox="0 0 24 24" version="1.1" xmlns="http://www.w3.org/2000/svg" xmlns:xlink="http://www.w3.org/1999/xlink">
    <title>BN</title>
    <defs>
        <circle id="path-1" cx="12" cy="12" r="12"></circle>
        <path d="M12,0 C18.627417,-1.21743675e-15 24,5.372583 24,12 C24,18.627417 18.627417,24 12,24 C5.372583,24 8.11624501e-16,18.627417 0,12 C-8.11624501e-16,5.372583 5.372583,1.21743675e-15 12,0 Z" id="path-3"></path>
        <linearGradient x1="50%" y1="0%" x2="50%" y2="100%" id="linearGradient-5">
            <stop stop-color="#000000" stop-opacity="0" offset="0%"></stop>
            <stop stop-color="#000000" offset="100%"></stop>
        </linearGradient>
        <linearGradient x1="50%" y1="0%" x2="50%" y2="100%" id="linearGradient-6">
            <stop stop-color="#FFFFFF" offset="0%"></stop>
            <stop stop-color="#FFFFFF" stop-opacity="0" offset="100%"></stop>
        </linearGradient>
    </defs>
    <g id="BN" stroke="none" stroke-width="1" fill="none" fill-rule="evenodd">
        <mask id="mask-2" fill="white">
            <use xlink:href="#path-1"></use>
        </mask>
        <g id="Mask"></g>
        <g id="Group" mask="url(#mask-2)">
            <g>
                <mask id="mask-4" fill="white">
                    <use xlink:href="#path-3"></use>
                </mask>
                <g id="Mask" fill-rule="nonzero"></g>
            </g>
        </g>
        <rect id="Rectangle" fill="#FFD400" mask="url(#mask-2)" x="0" y="0" width="24" height="24"></rect>
        <g id="Group" mask="url(#mask-2)">
            <g>
                <path d="M12,0.25 C15.2446729,0.25 18.1821729,1.56516355 20.3085047,3.69149532 C22.4348365,5.81782709 23.75,8.75532709 23.75,12 C23.75,15.2446729 22.4348365,18.1821729 20.3085047,20.3085047 C18.1821729,22.4348365 15.2446729,23.75 12,23.75 C8.75532709,23.75 5.81782709,22.4348365 3.69149532,20.3085047 C1.56516355,18.1821729 0.25,15.2446729 0.25,12 C0.25,8.75532709 1.56516355,5.81782709 3.69149532,3.69149532 C5.81782709,1.56516355 8.75532709,0.25 12,0.25 Z" id="Mask" stroke-opacity="0.15" stroke="#000000" stroke-width="0.5" fill-rule="nonzero"></path>
                <rect id="Dark" fill="url(#linearGradient-5)" style="mix-blend-mode: normal;" opacity="0.100000001" x="0" y="12" width="24" height="12"></rect>
                <rect id="Light" fill="url(#linearGradient-6)" opacity="0.100000001" style="mix-blend-mode: normal;" x="0" y="0" width="24" height="12"></rect>
            </g>
        </g>
        <path d="M-0.000384615385,7.396 L23.9996154,17.396 L23.9996154,22.27 L-0.000384615385,12.27 L-0.000384615385,7.396 Z" id="Combined-Shape" fill="#2E2E2E" mask="url(#mask-2)"></path>
        <path d="M-0.000291671612,1.662 L23.9997083,11.651 L23.9997083,17.392 L-0.000291671612,7.402 L-0.000291671612,1.662 Z" id="Combined-Shape" fill="#FFFFFF" mask="url(#mask-2)"></path>
        <path d="M16.3762883,16.4207477 C16.5581294,16.628566 16.5370706,16.9444473 16.3292523,17.1262883 C14.9106966,18.3675246 13.4650385,19 11.9999931,19 C10.5349615,19 9.08930339,18.3675246 7.6707477,17.1262883 C7.46292938,16.9444473 7.44187063,16.628566 7.62371165,16.4207477 C7.80555268,16.2129294 8.12143399,16.1918706 8.3292523,16.3737117 C9.57736328,17.4658088 10.7983718,18 11.9999931,18 C13.2016282,18 14.4226367,17.4658088 15.6707477,16.3737117 C15.878566,16.1918706 16.1944473,16.2129294 16.3762883,16.4207477 Z M15.8844431,10.7267592 C16.2756933,11.3938744 16.5,12.1707424 16.5,13 C16.5,15.4852814 14.4852814,17.5 12,17.5 C9.51471863,17.5 7.5,15.4852814 7.5,13 C7.5,12.1707424 7.72430669,11.3938744 8.11555693,10.7267592 C8.04045406,11.0544821 8,11.3972215 8,11.75 C8,14.0972102 9.790861,16 12,16 C14.209139,16 16,14.0972102 16,11.75 C16,11.4654897 15.973688,11.1875089 15.9235084,10.918655 L15.8844431,10.7267592 Z M19.6856953,10.0357617 C19.9135991,10.1269232 20.0374564,10.3669665 19.9901378,10.5992561 L19.9642383,10.6856953 L19.6204542,11.5451558 C19.5069282,11.8289706 19.3301799,12.0822125 19.1045962,12.2861085 L18.9635008,12.4023744 L18.5,12.75 L18.5,15.5 C18.5,15.7454599 18.3231248,15.9496084 18.0898756,15.9919443 L18,16 C17.7545401,16 17.5503916,15.8231248 17.5080557,15.5898756 L17.5,15.5 L17.5,12.5 C17.5,12.3740971 17.5474221,12.2540722 17.6308533,12.1627517 L17.7,12.1 L18.3635008,11.6023744 C18.4735449,11.5198414 18.564976,11.4158026 18.63255,11.297101 L18.6919775,11.1737651 L19.0357617,10.3143047 C19.1383184,10.0579129 19.4293036,9.93320495 19.6856953,10.0357617 Z M4.41443766,10.0357617 C4.67082942,9.93320495 4.96181465,10.0579129 5.06437135,10.3143047 L5.06437135,10.3143047 L5.40815552,11.1737651 L5.46758299,11.297101 C5.53515704,11.4158026 5.62658815,11.5198414 5.73663221,11.6023744 L5.73663221,11.6023744 L6.400133,12.1 L6.46927972,12.1627517 C6.55271087,12.2540722 6.600133,12.3740971 6.600133,12.5 L6.600133,12.5 L6.600133,15.5 L6.59207733,15.5898756 C6.54974137,15.8231248 6.34559289,16 6.100133,16 L6.100133,16 L6.01025737,15.9919443 C5.77700816,15.9496084 5.600133,15.7454599 5.600133,15.5 L5.600133,15.5 L5.601133,12.75 L5.13663221,12.4023744 L4.99553684,12.2861085 C4.76995314,12.0822125 4.59320476,11.8289706 4.47967882,11.5451558 L4.47967882,11.5451558 L4.13589466,10.6856953 L4.10999519,10.5992561 C4.06267656,10.3669665 4.18653388,10.1269232 4.41443766,10.0357617 Z M12,5.2 C12.1420161,5.2 12.2609842,5.2986801 12.2920768,5.43121275 L12.3,5.5 L12.2999767,8.47024132 C12.5814825,8.32368288 12.8989752,8.25 13.2489453,8.25 C13.4661123,8.25 13.6684005,8.31181031 13.8960089,8.43078739 L13.9629902,8.46696722 L14.3192079,8.68189838 C14.8467334,9.00514806 15.1891613,9.10700583 15.6999163,9.00485483 C15.9585995,8.9531182 16.1106664,9.28537677 15.9024305,9.44733805 C14.618065,10.446289 13.4767222,10.8118347 12.4998166,10.5138383 L12.5,15 C12.5,15.2761424 12.2761424,15.5 12,15.5 C11.7545401,15.5 11.5503916,15.3231248 11.5080557,15.0898756 L11.5,15 L11.5011202,10.5132298 C10.5237743,10.8123313 9.38175314,10.4469678 8.09651485,9.44733805 C7.88827891,9.28537677 8.04034586,8.9531182 8.29902903,9.00485483 C8.80978405,9.10700583 9.15221188,9.00514806 9.67973741,8.68189838 L9.67973741,8.68189838 L10.0359552,8.46696722 L10.1029364,8.43078739 C10.3305448,8.31181031 10.5328331,8.25 10.75,8.25 C11.1007965,8.25 11.418962,8.32403126 11.7009621,8.47128073 L11.7,5.5 C11.7,5.33431458 11.8343146,5.2 12,5.2 Z" id="Combined-Shape" fill="#F12339" mask="url(#mask-2)"></path>
    </g>
</svg>