<?xml version="1.0" encoding="UTF-8"?>
<svg width="24px" height="24px" viewBox="0 0 24 24" version="1.1" xmlns="http://www.w3.org/2000/svg" xmlns:xlink="http://www.w3.org/1999/xlink">
    <title>BT</title>
    <defs>
        <circle id="path-1" cx="12" cy="12" r="12"></circle>
        <path d="M12,0 C18.627417,-1.21743675e-15 24,5.372583 24,12 C24,18.627417 18.627417,24 12,24 C5.372583,24 8.11624501e-16,18.627417 0,12 C-8.11624501e-16,5.372583 5.372583,1.21743675e-15 12,0 Z" id="path-3"></path>
        <linearGradient x1="50%" y1="0%" x2="50%" y2="100%" id="linearGradient-5">
            <stop stop-color="#000000" stop-opacity="0" offset="0%"></stop>
            <stop stop-color="#000000" offset="100%"></stop>
        </linearGradient>
        <linearGradient x1="50%" y1="0%" x2="50%" y2="100%" id="linearGradient-6">
            <stop stop-color="#FFFFFF" offset="0%"></stop>
            <stop stop-color="#FFFFFF" stop-opacity="0" offset="100%"></stop>
        </linearGradient>
    </defs>
    <g id="BT" stroke="none" stroke-width="1" fill="none" fill-rule="evenodd">
        <mask id="mask-2" fill="white">
            <use xlink:href="#path-1"></use>
        </mask>
        <g id="Mask"></g>
        <g id="Group" mask="url(#mask-2)">
            <g>
                <mask id="mask-4" fill="white">
                    <use xlink:href="#path-3"></use>
                </mask>
                <g id="Mask" fill-rule="nonzero"></g>
            </g>
        </g>
        <polygon id="Rectangle" fill="#FFD400" mask="url(#mask-2)" points="0 0 24 0 0 24"></polygon>
        <polygon id="Rectangle" fill="#FF7F0E" mask="url(#mask-2)" transform="translate(12.000000, 12.000000) rotate(-180.000000) translate(-12.000000, -12.000000) " points="-2.48689958e-14 -8.8817842e-14 24 -8.8817842e-14 -2.48689958e-14 24"></polygon>
        <g id="Group" mask="url(#mask-2)">
            <g>
                <path d="M12,0.25 C15.2446729,0.25 18.1821729,1.56516355 20.3085047,3.69149532 C22.4348365,5.81782709 23.75,8.75532709 23.75,12 C23.75,15.2446729 22.4348365,18.1821729 20.3085047,20.3085047 C18.1821729,22.4348365 15.2446729,23.75 12,23.75 C8.75532709,23.75 5.81782709,22.4348365 3.69149532,20.3085047 C1.56516355,18.1821729 0.25,15.2446729 0.25,12 C0.25,8.75532709 1.56516355,5.81782709 3.69149532,3.69149532 C5.81782709,1.56516355 8.75532709,0.25 12,0.25 Z" id="Mask" stroke-opacity="0.15" stroke="#000000" stroke-width="0.5" fill-rule="nonzero"></path>
                <rect id="Dark" fill="url(#linearGradient-5)" style="mix-blend-mode: normal;" opacity="0.100000001" x="0" y="12" width="24" height="12"></rect>
                <rect id="Light" fill="url(#linearGradient-6)" opacity="0.100000001" style="mix-blend-mode: normal;" x="0" y="0" width="24" height="12"></rect>
            </g>
        </g>
        <path d="M16.718918,5.41830963 L16.9149843,5.48896075 L18.3713907,6.07152331 C18.8841742,6.27663672 19.1335901,6.85860716 18.9284767,7.37139068 C18.7380142,7.8475468 18.2226087,8.09661554 17.7393879,7.96554215 L17.6286093,7.92847669 L16.1722029,7.34591413 C15.8886748,7.23250287 15.5713583,7.25560747 15.3094207,7.40343463 L15.2008122,7.47439082 C14.8877622,7.70917836 14.7600736,8.11794327 14.8838175,8.48917497 L15.1832526,9.38736608 L15.8111456,9.85835921 C16.2243515,10.1682636 16.7644924,10.2417541 17.2410851,10.0616547 L17.381966,10 L18.0592123,9.66022072 C18.193983,9.28743754 18.5446948,9.01529006 18.9651005,9.00060917 C19.5170488,8.98133471 19.9801164,9.41315219 19.9993908,9.9651005 C20.0186653,10.5170488 19.5868478,10.9801164 19.0348995,10.9993908 C18.7314776,11.0099866 18.4549157,10.8842615 18.2641749,10.677198 L17.8291796,10.8944272 C17.068143,11.2749455 16.1726191,11.2397612 15.4491651,10.8165165 L15.4284992,10.9565235 L15.2112043,12.0429979 C15.190094,12.1485494 15.1604969,12.2522244 15.1227013,12.3530125 C15.0819284,12.4617404 15.0327009,12.5648292 14.9760454,12.6618124 L14.8071465,13.3329668 C14.6729704,13.8696712 14.8456213,14.4321745 15.2472165,14.8011142 L15.3623603,14.8967702 L16.2567252,15.6827504 C16.5269103,15.2174245 16.9452303,14.9478993 17.3374266,15.0384449 C17.8755563,15.1626819 18.1607256,15.9177565 17.9743701,16.7249511 C17.7880145,17.5321456 17.2007031,18.0857921 16.6625734,17.9615551 C16.2343434,17.8626904 15.9663025,17.3643433 15.9685917,16.7581469 L14.7623603,15.6967702 C14.0921523,15.1941142 13.7272102,14.3976927 13.7648989,13.5817421 C13.4250049,13.674732 13.0560821,13.6767727 12.696256,13.57267 L12.5477961,13.523424 L11.7741552,13.2333087 C11.2440199,13.0345079 10.6531005,13.3031076 10.4542998,13.8332429 L10.4353838,13.8884101 L10.4353838,13.8884101 L10.4196355,13.9445637 C10.3582371,14.1901571 10.2837794,14.4313947 10.1968283,14.667342 L10.2651904,14.6253803 C10.9897491,14.2237509 11.7941766,14.2897464 12.0619296,14.7727856 C12.3296825,15.2558247 11.9593683,15.9729903 11.2348096,16.3746197 C10.8088108,16.6107547 10.3552032,16.6852428 9.99929175,16.6083641 L10,17.419 L10.4743416,18.8418861 L10.495408,18.9686736 C10.9755404,19.0185758 11.3527657,19.2530355 11.4488887,19.6117714 C11.5918306,20.1452375 11.0590182,20.7515131 10.258819,20.9659258 C9.45861989,21.1803385 8.69405307,20.9216947 8.55111126,20.3882286 C8.42316558,19.9107288 8.83662388,19.3748951 9.49863288,19.113959 L9.5,19.083 L9.02565835,17.6581139 L9,17.5 L9.00141339,16.7338359 C8.84430725,16.9219566 8.67701299,17.102192 8.50005741,17.2736723 L8.27918486,17.4786795 L5.15257684,19.9249372 C4.91656073,20.1095962 4.57958385,20.0878981 4.36919904,19.8744953 C4.16723963,19.6696387 4.16958824,19.3398492 4.37444481,19.1378898 C4.37562899,19.1367224 4.37681876,19.1355606 4.37801407,19.1344046 L6.80496155,16.7871879 C7.48861162,16.1794989 8.13662753,14.5938285 8.40568835,13.7232324 L8.47935049,13.4594924 C9.0115169,11.7793759 10.8049266,10.8487784 12.4850431,11.3809448 C12.5202385,11.3920927 12.5552377,11.4038505 12.5900249,11.416213 L13.250043,11.6507656 L13.4673379,10.5642912 L12.7792408,8.5 C12.5251612,7.73776134 12.752923,6.90359461 13.3443498,6.37581307 L13.4766074,6.26754447 L14.0008122,5.87439082 C14.7825573,5.28808202 15.7968085,5.12174226 16.718918,5.41830963 Z" id="Combined-Shape" fill="#FFFFFF" mask="url(#mask-2)"></path>
    </g>
</svg>