<?xml version="1.0" encoding="UTF-8"?>
<svg width="24px" height="24px" viewBox="0 0 24 24" version="1.1" xmlns="http://www.w3.org/2000/svg" xmlns:xlink="http://www.w3.org/1999/xlink">
    <title>BY</title>
    <defs>
        <circle id="path-1" cx="12" cy="12" r="12"></circle>
        <path d="M12,0 C18.627417,-1.21743675e-15 24,5.372583 24,12 C24,18.627417 18.627417,24 12,24 C5.372583,24 8.11624501e-16,18.627417 0,12 C-8.11624501e-16,5.372583 5.372583,1.21743675e-15 12,0 Z" id="path-3"></path>
        <linearGradient x1="50%" y1="0%" x2="50%" y2="100%" id="linearGradient-5">
            <stop stop-color="#000000" stop-opacity="0" offset="0%"></stop>
            <stop stop-color="#000000" offset="100%"></stop>
        </linearGradient>
        <linearGradient x1="50%" y1="0%" x2="50%" y2="100%" id="linearGradient-6">
            <stop stop-color="#FFFFFF" offset="0%"></stop>
            <stop stop-color="#FFFFFF" stop-opacity="0" offset="100%"></stop>
        </linearGradient>
    </defs>
    <g id="BY" stroke="none" stroke-width="1" fill="none" fill-rule="evenodd">
        <mask id="mask-2" fill="white">
            <use xlink:href="#path-1"></use>
        </mask>
        <g id="Mask"></g>
        <g id="Group" mask="url(#mask-2)">
            <g>
                <mask id="mask-4" fill="white">
                    <use xlink:href="#path-3"></use>
                </mask>
                <g id="Mask" fill-rule="nonzero"></g>
            </g>
        </g>
        <polygon id="Rectangle" fill="#18A454" mask="url(#mask-2)" points="0 16 24 16 24 24 0 24"></polygon>
        <polygon id="Rectangle" fill="#F12339" mask="url(#mask-2)" points="0 0 24 0 24 16 0 16"></polygon>
        <g id="Group" mask="url(#mask-2)">
            <rect id="Rectangle" fill="#F12339" x="0" y="0" width="6" height="24"></rect>
            <path d="M6,17 L6,22 L4.5,20.125 L3,22 L1.5,20.125 L0,22 L0,17 L1.5,18.875 L3,17 L4.5,18.875 L6,17 Z M4.5,14 L6,16 L3,16 L4.5,14 Z M1.5,14 L3,16 L0,16 L1.5,14 Z M6,9.5 L6,14.5 L4.5,12.625 L3,14.5 L1.5,12.625 L0,14.5 L0,9.5 L1.5,11.375 L3,9.5 L4.5,11.375 L6,9.5 Z M6,8 L4.5,10 L3,8 L6,8 Z M3,8 L1.5,10 L0,8 L3,8 Z M6,2 L6,7 L4.5,5.125 L3,7 L1.71,5.387 L0.5,7 L0.258,6.677 L0,7 L0,2 L1.5,3.875 L3,2 L4.5,3.875 L6,2 Z" id="Combined-Shape" fill="#FFFFFF"></path>
        </g>
        <g id="Group" mask="url(#mask-2)">
            <g>
                <path d="M12,0.25 C15.2446729,0.25 18.1821729,1.56516355 20.3085047,3.69149532 C22.4348365,5.81782709 23.75,8.75532709 23.75,12 C23.75,15.2446729 22.4348365,18.1821729 20.3085047,20.3085047 C18.1821729,22.4348365 15.2446729,23.75 12,23.75 C8.75532709,23.75 5.81782709,22.4348365 3.69149532,20.3085047 C1.56516355,18.1821729 0.25,15.2446729 0.25,12 C0.25,8.75532709 1.56516355,5.81782709 3.69149532,3.69149532 C5.81782709,1.56516355 8.75532709,0.25 12,0.25 Z" id="Mask" stroke-opacity="0.15" stroke="#000000" stroke-width="0.5" fill-rule="nonzero"></path>
                <rect id="Dark" fill="url(#linearGradient-5)" style="mix-blend-mode: normal;" opacity="0.100000001" x="0" y="12" width="24" height="12"></rect>
                <rect id="Light" fill="url(#linearGradient-6)" opacity="0.100000001" style="mix-blend-mode: normal;" x="0" y="0" width="24" height="12"></rect>
            </g>
        </g>
    </g>
</svg>