<?xml version="1.0" encoding="UTF-8"?>
<svg width="24px" height="24px" viewBox="0 0 24 24" version="1.1" xmlns="http://www.w3.org/2000/svg" xmlns:xlink="http://www.w3.org/1999/xlink">
    <title>CA</title>
    <defs>
        <circle id="path-1" cx="12" cy="12" r="12"></circle>
        <path d="M12,0 C18.627417,-1.21743675e-15 24,5.372583 24,12 C24,18.627417 18.627417,24 12,24 C5.372583,24 8.11624501e-16,18.627417 0,12 C-8.11624501e-16,5.372583 5.372583,1.21743675e-15 12,0 Z" id="path-3"></path>
        <linearGradient x1="50%" y1="0%" x2="50%" y2="100%" id="linearGradient-5">
            <stop stop-color="#000000" stop-opacity="0" offset="0%"></stop>
            <stop stop-color="#000000" offset="100%"></stop>
        </linearGradient>
        <linearGradient x1="50%" y1="0%" x2="50%" y2="100%" id="linearGradient-6">
            <stop stop-color="#FFFFFF" offset="0%"></stop>
            <stop stop-color="#FFFFFF" stop-opacity="0" offset="100%"></stop>
        </linearGradient>
    </defs>
    <g id="CA" stroke="none" stroke-width="1" fill="none" fill-rule="evenodd">
        <mask id="mask-2" fill="white">
            <use xlink:href="#path-1"></use>
        </mask>
        <g id="Mask"></g>
        <g id="Group" mask="url(#mask-2)">
            <g>
                <mask id="mask-4" fill="white">
                    <use xlink:href="#path-3"></use>
                </mask>
                <g id="Mask" fill-rule="nonzero"></g>
            </g>
        </g>
        <rect id="Rectangle" fill="#FFFFFF" mask="url(#mask-2)" x="6" y="0" width="12" height="24"></rect>
        <rect id="Rectangle" fill="#F12339" mask="url(#mask-2)" x="0" y="0" width="6" height="24"></rect>
        <rect id="Rectangle" fill="#F12339" mask="url(#mask-2)" x="18" y="0" width="6" height="24"></rect>
        <path d="M12.0270282,6.49956331 C12.0451101,6.50042934 12.0632081,6.50229468 12.0812402,6.50519321 C12.083704,6.50665605 12.0863922,6.50713707 12.0890759,6.50763955 C12.1360386,6.5148848 12.1822216,6.5301885 12.2264529,6.55306595 C12.2710861,6.57670845 12.3123878,6.60566579 12.3487045,6.64036306 L12.3533071,6.64644661 L13.8533071,8.14644661 L13.9142238,8.22031947 C13.9851491,8.32542402 14.0141878,8.45477669 13.9929507,8.58219949 L13.6837537,10.442 L14.2224036,10.0839749 C14.3045374,10.029219 14.4010412,10 14.4997537,10 L16.4997537,10 C16.8250393,10 17.0637183,10.3056944 16.9848249,10.6212678 L16.4848249,12.6212678 L16.4570766,12.7021302 C16.4226403,12.7800414 16.3686549,12.8483241 16.2997537,12.9 L14.6347537,14.15 L14.9469673,14.7763932 C15.1525776,15.1876138 14.7409335,15.6349884 14.3140584,15.4642383 L12.4997537,14.7375164 L12.5,17 C12.5,17.2761424 12.2761424,17.5 12,17.5 C11.7545401,17.5 11.5503916,17.3231248 11.5080557,17.0898756 L11.5,17 L11.4997537,14.7375164 L9.68569534,15.4642383 C9.28549993,15.6243165 8.89869114,15.241121 9.02132095,14.853761 L9.0527864,14.7763932 L9.365,14.15 L7.7,12.9 C7.65406584,12.8655494 7.61476095,12.823718 7.58345814,12.7765735 L7.54267708,12.7021302 L7.51492875,12.6212678 L7.01492875,10.6212678 C6.94320753,10.3343829 7.1339428,10.0556625 7.41360655,10.007357 L7.5,10 L9.5,10 C9.56580833,10 9.63063504,10.0129862 9.69087673,10.0378677 L9.7773501,10.0839749 L10.316,10.442 L10.006803,8.58219949 C9.99087519,8.48663239 10.0032275,8.38997974 10.0403207,8.30328537 L10.0855299,8.22031947 L10.1464466,8.14644661 L11.6464466,6.64644661 C11.6873659,6.60566579 11.7286676,6.57670845 11.7731867,6.5542232 C11.8374547,6.51988406 11.9057143,6.50263519 11.9737269,6.49951637 L12.0270282,6.49956331 Z" id="Combined-Shape" fill="#F12339" mask="url(#mask-2)"></path>
        <g id="Group" mask="url(#mask-2)">
            <g>
                <path d="M12,0.25 C15.2446729,0.25 18.1821729,1.56516355 20.3085047,3.69149532 C22.4348365,5.81782709 23.75,8.75532709 23.75,12 C23.75,15.2446729 22.4348365,18.1821729 20.3085047,20.3085047 C18.1821729,22.4348365 15.2446729,23.75 12,23.75 C8.75532709,23.75 5.81782709,22.4348365 3.69149532,20.3085047 C1.56516355,18.1821729 0.25,15.2446729 0.25,12 C0.25,8.75532709 1.56516355,5.81782709 3.69149532,3.69149532 C5.81782709,1.56516355 8.75532709,0.25 12,0.25 Z" id="Mask" stroke-opacity="0.15" stroke="#000000" stroke-width="0.5" fill-rule="nonzero"></path>
                <rect id="Dark" fill="url(#linearGradient-5)" style="mix-blend-mode: normal;" opacity="0.100000001" x="0" y="12" width="24" height="12"></rect>
                <rect id="Light" fill="url(#linearGradient-6)" opacity="0.100000001" style="mix-blend-mode: normal;" x="0" y="0" width="24" height="12"></rect>
            </g>
        </g>
    </g>
</svg>