<?xml version="1.0" encoding="UTF-8"?>
<svg width="24px" height="24px" viewBox="0 0 24 24" version="1.1" xmlns="http://www.w3.org/2000/svg" xmlns:xlink="http://www.w3.org/1999/xlink">
    <title>CD</title>
    <defs>
        <circle id="path-1" cx="12" cy="12" r="12"></circle>
        <path d="M12,0 C18.627417,-1.21743675e-15 24,5.372583 24,12 C24,18.627417 18.627417,24 12,24 C5.372583,24 8.11624501e-16,18.627417 0,12 C-8.11624501e-16,5.372583 5.372583,1.21743675e-15 12,0 Z" id="path-3"></path>
        <linearGradient x1="50%" y1="0%" x2="50%" y2="100%" id="linearGradient-5">
            <stop stop-color="#000000" stop-opacity="0" offset="0%"></stop>
            <stop stop-color="#000000" offset="100%"></stop>
        </linearGradient>
        <linearGradient x1="50%" y1="0%" x2="50%" y2="100%" id="linearGradient-6">
            <stop stop-color="#FFFFFF" offset="0%"></stop>
            <stop stop-color="#FFFFFF" stop-opacity="0" offset="100%"></stop>
        </linearGradient>
    </defs>
    <g id="CD" stroke="none" stroke-width="1" fill="none" fill-rule="evenodd">
        <mask id="mask-2" fill="white">
            <use xlink:href="#path-1"></use>
        </mask>
        <g id="Mask"></g>
        <g id="Group" mask="url(#mask-2)">
            <g>
                <mask id="mask-4" fill="white">
                    <use xlink:href="#path-3"></use>
                </mask>
                <g id="Mask" fill-rule="nonzero"></g>
            </g>
        </g>
        <polygon id="Rectangle" fill="#0956BA" mask="url(#mask-2)" points="0 0 24 0 24 24 0 24"></polygon>
        <path d="M5.0936483,5.9700626 L3.39051207,5.97860918 L3.32237932,5.98465999 C2.99523972,6.04242604 2.87536032,6.49873474 3.16065425,6.71743726 L4.53354331,7.76913555 L4.01533,9.46460698 L3.99978593,9.53415087 C3.95129824,9.87693888 4.3297859,10.1370184 4.61710559,9.92122785 L5.99921664,8.88261362 L7.38289441,9.92122785 L7.4414204,9.95815752 C7.73859295,10.1122461 8.0923906,9.8166754 7.98467,9.46460698 L7.46567332,7.76913555 L8.83934575,6.71743726 L8.89106087,6.67071716 C9.1232113,6.42316115 8.96338261,5.98040887 8.60948793,5.97860918 L6.90556834,5.9700626 L6.37191777,4.28076492 C6.25351954,3.90641169 5.74648046,3.90641169 5.62808223,4.28076492 L5.0936483,5.9700626 Z" id="Path" fill="#FFD400" mask="url(#mask-2)"></path>
        <path d="M24,-1.58096084e-13 L23.9995353,6.38504498 L1.58353534,23.999045 L1.13686675e-13,24 L-0.000464655796,17.613045 L22.4185353,-0.000955016467 L24,-1.58096084e-13 Z" id="Combined-Shape" fill="#FFD400" mask="url(#mask-2)"></path>
        <path d="M23.9993569,0.0283633224 L23.9993569,5.11536332 L-0.000643103864,23.9723633 L-0.000643103864,18.8853633 L23.9993569,0.0283633224 Z" id="Combined-Shape" fill="#F12339" mask="url(#mask-2)"></path>
        <g id="Group" mask="url(#mask-2)">
            <g>
                <path d="M12,0.25 C15.2446729,0.25 18.1821729,1.56516355 20.3085047,3.69149532 C22.4348365,5.81782709 23.75,8.75532709 23.75,12 C23.75,15.2446729 22.4348365,18.1821729 20.3085047,20.3085047 C18.1821729,22.4348365 15.2446729,23.75 12,23.75 C8.75532709,23.75 5.81782709,22.4348365 3.69149532,20.3085047 C1.56516355,18.1821729 0.25,15.2446729 0.25,12 C0.25,8.75532709 1.56516355,5.81782709 3.69149532,3.69149532 C5.81782709,1.56516355 8.75532709,0.25 12,0.25 Z" id="Mask" stroke-opacity="0.15" stroke="#000000" stroke-width="0.5" fill-rule="nonzero"></path>
                <rect id="Dark" fill="url(#linearGradient-5)" style="mix-blend-mode: normal;" opacity="0.100000001" x="0" y="12" width="24" height="12"></rect>
                <rect id="Light" fill="url(#linearGradient-6)" opacity="0.100000001" style="mix-blend-mode: normal;" x="0" y="0" width="24" height="12"></rect>
            </g>
        </g>
    </g>
</svg>