<?xml version="1.0" encoding="UTF-8"?>
<svg width="24px" height="24px" viewBox="0 0 24 24" version="1.1" xmlns="http://www.w3.org/2000/svg" xmlns:xlink="http://www.w3.org/1999/xlink">
    <title>CK</title>
    <defs>
        <circle id="path-1" cx="12" cy="12" r="12"></circle>
        <path d="M12,0 C18.627417,-1.21743675e-15 24,5.372583 24,12 C24,18.627417 18.627417,24 12,24 C5.372583,24 8.11624501e-16,18.627417 0,12 C-8.11624501e-16,5.372583 5.372583,1.21743675e-15 12,0 Z" id="path-3"></path>
        <rect id="path-5" x="0" y="0" width="12" height="12"></rect>
        <linearGradient x1="50%" y1="0%" x2="50%" y2="100%" id="linearGradient-7">
            <stop stop-color="#000000" stop-opacity="0" offset="0%"></stop>
            <stop stop-color="#000000" offset="100%"></stop>
        </linearGradient>
        <linearGradient x1="50%" y1="0%" x2="50%" y2="100%" id="linearGradient-8">
            <stop stop-color="#FFFFFF" offset="0%"></stop>
            <stop stop-color="#FFFFFF" stop-opacity="0" offset="100%"></stop>
        </linearGradient>
    </defs>
    <g id="CK" stroke="none" stroke-width="1" fill="none" fill-rule="evenodd">
        <mask id="mask-2" fill="white">
            <use xlink:href="#path-1"></use>
        </mask>
        <g id="Mask"></g>
        <g id="Group" mask="url(#mask-2)">
            <g>
                <mask id="mask-4" fill="white">
                    <use xlink:href="#path-3"></use>
                </mask>
                <g id="Mask" fill-rule="nonzero"></g>
            </g>
        </g>
        <rect id="Rectangle" fill="#0956BA" mask="url(#mask-2)" x="0" y="0" width="24" height="24"></rect>
        <g id="Group" mask="url(#mask-2)">
            <mask id="mask-6" fill="white">
                <use xlink:href="#path-5"></use>
            </mask>
            <g id="Mask"></g>
            <path d="M12,3.10840763e-15 L11.9994954,0.662495392 L7.41149539,5.90549539 L11.9994954,9.92049539 L12,12 L11.3364954,11.9994954 L6.09349539,7.41149539 L2.07949539,11.9994954 L-1.1057843e-13,12 L-0.000504607869,11.3384954 L4.58749539,6.09349539 L-0.000504607869,2.07949539 L-1.1057843e-13,3.10840763e-15 L0.661495392,-0.000504607869 L5.90549539,4.58749539 L9.92049539,-0.000504607869 L12,3.10840763e-15 Z" id="Combined-Shape" fill="#FFFFFF" fill-rule="nonzero" mask="url(#mask-6)"></path>
            <path d="M11.9137477,-0.000252303934 L6.7047477,5.9517477 L11.9997477,10.5847477 L11.9997477,11.9137477 L6.0467477,6.7047477 L1.4147477,11.9997477 L0.0857476961,11.9997477 L5.2937477,6.0467477 L-0.000252303934,1.4137477 L-0.000252303934,0.0847476961 L5.9527477,5.2937477 L10.5857477,-0.000252303934 L11.9137477,-0.000252303934 Z" id="Combined-Shape" fill="#F12339" fill-rule="nonzero" mask="url(#mask-6)"></path>
            <path d="M8,0 L8,4 L12,4 L12,8 L8,8 L8,12 L4,12 L4,8 L0,8 L0,4 L4,4 L4,0 L8,0 Z" id="Combined-Shape" fill="#FFFFFF" mask="url(#mask-6)"></path>
            <path d="M7,0 L7,5 L12,5 L12,7 L7,7 L7,12 L5,12 L5,7 L0,7 L0,5 L5,5 L5,0 L7,0 Z" id="Combined-Shape" fill="#F12339" mask="url(#mask-6)"></path>
        </g>
        <path d="M18.2521845,12.1009092 C18.4964842,12.0487246 18.7366238,12.205445 18.7885513,12.4509539 C18.8404788,12.6964628 18.6845303,12.937791 18.4402306,12.9899756 C18.1959309,13.0421601 17.9557913,12.8854397 17.9038638,12.6399308 C17.8519363,12.3944219 18.0078848,12.1530937 18.2521845,12.1009092 Z M16.6667888,12.0910868 L16.7478155,12.1009092 C16.9921152,12.1530937 17.1480637,12.3944219 17.0961362,12.6399308 C17.0442087,12.8854397 16.8040691,13.0421601 16.5597694,12.9899756 C16.3154697,12.937791 16.1595212,12.6964628 16.2114487,12.4509539 C16.2633762,12.205445 16.5035158,12.0487246 16.7478155,12.1009092 Z M19.6264939,11.4859985 C19.828552,11.3384681 20.1113604,11.3834823 20.2581642,11.5865405 C20.4049679,11.7895986 20.3601755,12.0738069 20.1581174,12.2213373 C19.9560594,12.3688677 19.673251,12.3238535 19.5264472,12.1207953 C19.3796434,11.9177371 19.4244359,11.6335289 19.6264939,11.4859985 Z M14.7418358,11.5865405 C14.8886396,11.3834823 15.171448,11.3384681 15.3735061,11.4859985 C15.5755641,11.6335289 15.6203566,11.9177371 15.4735528,12.1207953 C15.326749,12.3238535 15.0439406,12.3688677 14.8418826,12.2213373 C14.6398245,12.0738069 14.5950321,11.7895986 14.7418358,11.5865405 Z M20.6331133,10.3625009 C20.757992,10.1451339 21.0345691,10.0706585 21.2508654,10.1961554 C21.4671617,10.3216522 21.5412703,10.5995983 21.4163916,10.8169652 C21.2915128,11.0343322 21.0149358,11.1088076 20.7986395,10.9833107 C20.5823431,10.8578138 20.5082345,10.5798678 20.6331133,10.3625009 Z M13.7491346,10.1961554 C13.9654309,10.0706585 14.242008,10.1451339 14.3668867,10.3625009 C14.4917655,10.5798678 14.4176569,10.8578138 14.2013605,10.9833107 C13.9850642,11.1088076 13.7084872,11.0343322 13.5836084,10.8169652 C13.4587297,10.5995983 13.5328383,10.3216522 13.7491346,10.1961554 Z M21.5134035,8.5189518 L21.5950079,8.52020886 C21.8433972,8.54644485 22.0235928,8.77006931 21.9974861,9.01968807 C21.9713793,9.26930683 21.7488563,9.45039434 21.500467,9.42415835 C21.2520777,9.39792236 21.0718821,9.17429791 21.0979889,8.92467915 C21.1240956,8.67506039 21.3466187,8.49397288 21.5950079,8.52020886 Z M13.4049921,8.52020886 C13.6533813,8.49397288 13.8759044,8.67506039 13.9020111,8.92467915 C13.9281179,9.17429791 13.7479223,9.39792236 13.499533,9.42415835 C13.2511437,9.45039434 13.0286207,9.26930683 13.0025139,9.01968807 C12.9764072,8.77006931 13.1566028,8.54644485 13.4049921,8.52020886 Z M21.2310864,6.84848733 C21.4686199,6.770926 21.723745,6.90156218 21.8009243,7.1402714 C21.8781037,7.37898063 21.7481109,7.63536856 21.5105774,7.71292989 C21.2730439,7.79049122 21.0179188,7.65985504 20.9407395,7.42114582 C20.8635602,7.1824366 20.9935529,6.92604866 21.2310864,6.84848733 Z M13.1990757,7.1402714 C13.276255,6.90156218 13.5313801,6.770926 13.7689136,6.84848733 C14.0064471,6.92604866 14.1364398,7.1824366 14.0592605,7.42114582 C13.9820812,7.65985504 13.7269561,7.79049122 13.4894226,7.71292989 C13.2518891,7.63536856 13.1218963,7.37898063 13.1990757,7.1402714 Z M20.2220261,5.47004661 C20.4076321,5.30209902 20.6935733,5.31715874 20.8606937,5.50368343 C21.0278141,5.69020812 21.0128286,5.97756468 20.8272226,6.14551226 C20.6416166,6.31345985 20.3556754,6.29840013 20.188555,6.11187544 C20.0214346,5.92535075 20.0364201,5.63799419 20.2220261,5.47004661 Z M14.1393063,5.50368343 C14.3064267,5.31715874 14.5923679,5.30209902 14.7779739,5.47004661 C14.9635799,5.63799419 14.9785654,5.92535075 14.811445,6.11187544 C14.6443246,6.29840013 14.3583834,6.31345985 14.1727774,6.14551226 C13.9871714,5.97756468 13.9721859,5.69020812 14.1393063,5.50368343 Z M18.7423028,4.62323161 C18.8438883,4.39393743 19.1112038,4.29081672 19.3393686,4.39290507 C19.5675335,4.49499342 19.6701463,4.76363203 19.5685607,4.99292621 C19.4669752,5.22222039 19.1996597,5.3253411 18.9714949,5.22325275 C18.7433301,5.1211644 18.6407173,4.85252579 18.7423028,4.62323161 Z M15.6606314,4.39290507 C15.8887962,4.29081672 16.1561117,4.39393743 16.2576972,4.62323161 C16.3592827,4.85252579 16.2566699,5.1211644 16.0285051,5.22325275 C15.8003403,5.3253411 15.5330248,5.22222039 15.4314393,4.99292621 C15.3298537,4.76363203 15.4324665,4.49499342 15.6606314,4.39290507 Z M17.5,4 C17.7497575,4 17.9522259,4.20347062 17.9522259,4.45446435 C17.9522259,4.70545808 17.7497575,4.90892869 17.5,4.90892869 C17.2502425,4.90892869 17.0477741,4.70545808 17.0477741,4.45446435 C17.0477741,4.20347062 17.2502425,4 17.5,4 Z" id="Combined-Shape" fill="#FFFFFF" mask="url(#mask-2)"></path>
        <g id="Group" mask="url(#mask-2)">
            <g>
                <path d="M12,0.25 C15.2446729,0.25 18.1821729,1.56516355 20.3085047,3.69149532 C22.4348365,5.81782709 23.75,8.75532709 23.75,12 C23.75,15.2446729 22.4348365,18.1821729 20.3085047,20.3085047 C18.1821729,22.4348365 15.2446729,23.75 12,23.75 C8.75532709,23.75 5.81782709,22.4348365 3.69149532,20.3085047 C1.56516355,18.1821729 0.25,15.2446729 0.25,12 C0.25,8.75532709 1.56516355,5.81782709 3.69149532,3.69149532 C5.81782709,1.56516355 8.75532709,0.25 12,0.25 Z" id="Mask" stroke-opacity="0.15" stroke="#000000" stroke-width="0.5" fill-rule="nonzero"></path>
                <rect id="Dark" fill="url(#linearGradient-7)" style="mix-blend-mode: normal;" opacity="0.100000001" x="0" y="12" width="24" height="12"></rect>
                <rect id="Light" fill="url(#linearGradient-8)" opacity="0.100000001" style="mix-blend-mode: normal;" x="0" y="0" width="24" height="12"></rect>
            </g>
        </g>
    </g>
</svg>