<?xml version="1.0" encoding="UTF-8"?>
<svg width="24px" height="24px" viewBox="0 0 24 24" version="1.1" xmlns="http://www.w3.org/2000/svg" xmlns:xlink="http://www.w3.org/1999/xlink">
    <title>CV</title>
    <defs>
        <circle id="path-1" cx="12" cy="12" r="12"></circle>
        <path d="M12,0 C18.627417,-1.21743675e-15 24,5.372583 24,12 C24,18.627417 18.627417,24 12,24 C5.372583,24 8.11624501e-16,18.627417 0,12 C-8.11624501e-16,5.372583 5.372583,1.21743675e-15 12,0 Z" id="path-3"></path>
        <linearGradient x1="50%" y1="0%" x2="50%" y2="100%" id="linearGradient-5">
            <stop stop-color="#000000" stop-opacity="0" offset="0%"></stop>
            <stop stop-color="#000000" offset="100%"></stop>
        </linearGradient>
        <linearGradient x1="50%" y1="0%" x2="50%" y2="100%" id="linearGradient-6">
            <stop stop-color="#FFFFFF" offset="0%"></stop>
            <stop stop-color="#FFFFFF" stop-opacity="0" offset="100%"></stop>
        </linearGradient>
    </defs>
    <g id="CV" stroke="none" stroke-width="1" fill="none" fill-rule="evenodd">
        <mask id="mask-2" fill="white">
            <use xlink:href="#path-1"></use>
        </mask>
        <g id="Mask"></g>
        <g id="Group" mask="url(#mask-2)">
            <g>
                <mask id="mask-4" fill="white">
                    <use xlink:href="#path-3"></use>
                </mask>
                <g id="Mask" fill-rule="nonzero"></g>
            </g>
        </g>
        <polygon id="Rectangle" fill="#0956BA" mask="url(#mask-2)" points="0 0 24 0 24 12 0 12"></polygon>
        <polygon id="Rectangle" fill="#FFFFFF" mask="url(#mask-2)" points="0 16 24 16 24 18 0 18"></polygon>
        <polygon id="Rectangle" fill="#F12339" mask="url(#mask-2)" points="0 14 24 14 24 16 0 16"></polygon>
        <polygon id="Rectangle" fill="#FFFFFF" mask="url(#mask-2)" points="0 12 24 12 24 14 0 14"></polygon>
        <polygon id="Rectangle" fill="#0956BA" mask="url(#mask-2)" points="0 18 24 18 24 24 0 24"></polygon>
        <path d="M10,20 C10.5522847,20 11,20.4477153 11,21 C11,21.5522847 10.5522847,22 10,22 C9.44771525,22 9,21.5522847 9,21 C9,20.4477153 9.44771525,20 10,20 Z M12.9389263,19.045085 C13.385734,18.7204601 14.0111037,18.819509 14.3357285,19.2663167 C14.6603533,19.7131245 14.5613045,20.3384941 14.1144968,20.663119 C13.667689,20.9877438 13.0423194,20.888695 12.7176945,20.4418872 C12.3930697,19.9950795 12.4921185,19.3697098 12.9389263,19.045085 Z M5.66427149,19.2663167 C5.98889632,18.819509 6.61426599,18.7204601 7.06107374,19.045085 C7.50788149,19.3697098 7.60693031,19.9950795 7.28230548,20.4418872 C6.95768065,20.888695 6.33231098,20.9877438 5.88550323,20.663119 C5.43869549,20.3384941 5.33964666,19.7131245 5.66427149,19.2663167 Z M14.7552826,16.545085 C14.925948,16.019831 15.4901021,15.7323801 16.0153561,15.9030454 C16.5406101,16.0737108 16.828061,16.637865 16.6573956,17.163119 C16.4867302,17.688373 15.9225761,17.9758239 15.3973221,17.8051585 C14.8720681,17.6344931 14.5846172,17.070339 14.7552826,16.545085 Z M3.98464391,15.9030454 C4.50989792,15.7323801 5.07405205,16.019831 5.24471742,16.545085 C5.41538279,17.070339 5.12793191,17.6344931 4.6026779,17.8051585 C4.07742389,17.9758239 3.51326976,17.688373 3.34260439,17.163119 C3.17193901,16.637865 3.4593899,16.0737108 3.98464391,15.9030454 Z M15.3973221,12.1948415 C15.9225761,12.0241761 16.4867302,12.311627 16.6573956,12.836881 C16.828061,13.362135 16.5406101,13.9262892 16.0153561,14.0969546 C15.4901021,14.2676199 14.925948,13.980169 14.7552826,13.454915 C14.5846172,12.929661 14.8720681,12.3655069 15.3973221,12.1948415 Z M3.34260439,12.836881 C3.51326976,12.311627 4.07742389,12.0241761 4.6026779,12.1948415 C5.12793191,12.3655069 5.41538279,12.929661 5.24471742,13.454915 C5.07405205,13.980169 4.50989792,14.2676199 3.98464391,14.0969546 C3.4593899,13.9262892 3.17193901,13.362135 3.34260439,12.836881 Z M12.7176945,9.55811278 C13.0423194,9.11130503 13.667689,9.01225621 14.1144968,9.33688104 C14.5613045,9.66150587 14.6603533,10.2868755 14.3357285,10.7336833 C14.0111037,11.180491 13.385734,11.2795399 12.9389263,10.954915 C12.4921185,10.6302902 12.3930697,10.0049205 12.7176945,9.55811278 Z M5.88550323,9.33688104 C6.33231098,9.01225621 6.95768065,9.11130503 7.28230548,9.55811278 C7.60693031,10.0049205 7.50788149,10.6302902 7.06107374,10.954915 C6.61426599,11.2795399 5.98889632,11.180491 5.66427149,10.7336833 C5.33964666,10.2868755 5.43869549,9.66150587 5.88550323,9.33688104 Z M10,8 C10.5522847,8 11,8.44771525 11,9 C11,9.55228475 10.5522847,10 10,10 C9.44771525,10 9,9.55228475 9,9 C9,8.44771525 9.44771525,8 10,8 Z" id="Combined-Shape" fill="#FFD400" mask="url(#mask-2)"></path>
        <g id="Group" mask="url(#mask-2)">
            <g>
                <path d="M12,0.25 C15.2446729,0.25 18.1821729,1.56516355 20.3085047,3.69149532 C22.4348365,5.81782709 23.75,8.75532709 23.75,12 C23.75,15.2446729 22.4348365,18.1821729 20.3085047,20.3085047 C18.1821729,22.4348365 15.2446729,23.75 12,23.75 C8.75532709,23.75 5.81782709,22.4348365 3.69149532,20.3085047 C1.56516355,18.1821729 0.25,15.2446729 0.25,12 C0.25,8.75532709 1.56516355,5.81782709 3.69149532,3.69149532 C5.81782709,1.56516355 8.75532709,0.25 12,0.25 Z" id="Mask" stroke-opacity="0.15" stroke="#000000" stroke-width="0.5" fill-rule="nonzero"></path>
                <rect id="Dark" fill="url(#linearGradient-5)" style="mix-blend-mode: normal;" opacity="0.100000001" x="0" y="12" width="24" height="12"></rect>
                <rect id="Light" fill="url(#linearGradient-6)" opacity="0.100000001" style="mix-blend-mode: normal;" x="0" y="0" width="24" height="12"></rect>
            </g>
        </g>
    </g>
</svg>