<?xml version="1.0" encoding="UTF-8"?>
<svg width="24px" height="24px" viewBox="0 0 24 24" version="1.1" xmlns="http://www.w3.org/2000/svg" xmlns:xlink="http://www.w3.org/1999/xlink">
    <title>CW</title>
    <defs>
        <circle id="path-1" cx="12" cy="12" r="12"></circle>
        <path d="M12,0 C18.627417,-1.21743675e-15 24,5.372583 24,12 C24,18.627417 18.627417,24 12,24 C5.372583,24 8.11624501e-16,18.627417 0,12 C-8.11624501e-16,5.372583 5.372583,1.21743675e-15 12,0 Z" id="path-3"></path>
        <linearGradient x1="50%" y1="0%" x2="50%" y2="100%" id="linearGradient-5">
            <stop stop-color="#000000" stop-opacity="0" offset="0%"></stop>
            <stop stop-color="#000000" offset="100%"></stop>
        </linearGradient>
        <linearGradient x1="50%" y1="0%" x2="50%" y2="100%" id="linearGradient-6">
            <stop stop-color="#FFFFFF" offset="0%"></stop>
            <stop stop-color="#FFFFFF" stop-opacity="0" offset="100%"></stop>
        </linearGradient>
    </defs>
    <g id="CW" stroke="none" stroke-width="1" fill="none" fill-rule="evenodd">
        <mask id="mask-2" fill="white">
            <use xlink:href="#path-1"></use>
        </mask>
        <g id="Mask"></g>
        <g id="Group" mask="url(#mask-2)">
            <g>
                <mask id="mask-4" fill="white">
                    <use xlink:href="#path-3"></use>
                </mask>
                <g id="Mask" fill-rule="nonzero"></g>
            </g>
        </g>
        <polygon id="Rectangle" fill="#0956BA" mask="url(#mask-2)" points="0 0 24 0 24 24 0 24"></polygon>
        <path d="M10.8048486,6.74000033 L9.20077503,6.74839415 L9.14608057,6.75605135 C8.99295517,6.79991013 8.94178582,7.02100837 9.0825976,7.12923187 L10.375514,8.1232289 L9.88778573,9.7240253 L9.87812506,9.77581255 C9.86661537,9.94446635 10.0539342,10.0672571 10.1971782,9.95939596 L11.5,8.97762557 L12.8028218,9.95939596 L12.8468743,9.98501953 C12.9965043,10.0485982 13.1659187,9.90000383 13.1122143,9.7240253 L12.6236805,8.1232289 L13.9174024,7.12923187 L13.9573527,7.08937479 C14.0566135,6.95964967 13.9738958,6.74928472 13.799225,6.74839415 L12.1943459,6.74000033 L11.6912151,5.14472361 C11.6303427,4.9517588 11.3696573,4.9517588 11.3087849,5.14472361 L10.8048486,6.74000033 Z" id="Path" fill="#FFFFFF" mask="url(#mask-2)"></path>
        <path d="M6.41001133,3.33522926 L5.23158531,3.34199666 L5.16849762,3.3508127 C4.9918741,3.40130899 4.93285246,3.65586792 5.09527276,3.78046981 L6.04486874,4.50925994 L5.68650128,5.6822597 L5.67535812,5.74188435 C5.66208219,5.93606197 5.87814632,6.0774357 6.04337217,5.953251 L7,5.2336825 L7.95662783,5.953251 L8.00744056,5.98275241 C8.18003227,6.05595297 8.37544445,5.88487055 8.31349872,5.6822597 L7.95420214,4.50925994 L8.90472724,3.78046981 L8.95080823,3.73458081 C9.06530118,3.58522328 8.96988999,3.34302201 8.76841469,3.34199666 L7.58905955,3.33522926 L7.22055834,2.16662587 C7.15034465,1.94445804 6.84965535,1.94445804 6.77944166,2.16662587 L6.41001133,3.33522926 Z" id="Path" fill="#FFFFFF" mask="url(#mask-2)"></path>
        <rect id="Rectangle" fill="#FFD400" mask="url(#mask-2)" x="0" y="15" width="24" height="3"></rect>
        <g id="Group" mask="url(#mask-2)">
            <g>
                <path d="M12,0.25 C15.2446729,0.25 18.1821729,1.56516355 20.3085047,3.69149532 C22.4348365,5.81782709 23.75,8.75532709 23.75,12 C23.75,15.2446729 22.4348365,18.1821729 20.3085047,20.3085047 C18.1821729,22.4348365 15.2446729,23.75 12,23.75 C8.75532709,23.75 5.81782709,22.4348365 3.69149532,20.3085047 C1.56516355,18.1821729 0.25,15.2446729 0.25,12 C0.25,8.75532709 1.56516355,5.81782709 3.69149532,3.69149532 C5.81782709,1.56516355 8.75532709,0.25 12,0.25 Z" id="Mask" stroke-opacity="0.15" stroke="#000000" stroke-width="0.5" fill-rule="nonzero"></path>
                <rect id="Dark" fill="url(#linearGradient-5)" style="mix-blend-mode: normal;" opacity="0.100000001" x="0" y="12" width="24" height="12"></rect>
                <rect id="Light" fill="url(#linearGradient-6)" opacity="0.100000001" style="mix-blend-mode: normal;" x="0" y="0" width="24" height="12"></rect>
            </g>
        </g>
    </g>
</svg>