<?xml version="1.0" encoding="UTF-8"?>
<svg width="24px" height="24px" viewBox="0 0 24 24" version="1.1" xmlns="http://www.w3.org/2000/svg" xmlns:xlink="http://www.w3.org/1999/xlink">
    <title>CY</title>
    <defs>
        <circle id="path-1" cx="12" cy="12" r="12"></circle>
        <path d="M12,0 C18.627417,-1.21743675e-15 24,5.372583 24,12 C24,18.627417 18.627417,24 12,24 C5.372583,24 8.11624501e-16,18.627417 0,12 C-8.11624501e-16,5.372583 5.372583,1.21743675e-15 12,0 Z" id="path-3"></path>
        <linearGradient x1="50%" y1="0%" x2="50%" y2="100%" id="linearGradient-5">
            <stop stop-color="#000000" stop-opacity="0" offset="0%"></stop>
            <stop stop-color="#000000" offset="100%"></stop>
        </linearGradient>
        <linearGradient x1="50%" y1="0%" x2="50%" y2="100%" id="linearGradient-6">
            <stop stop-color="#FFFFFF" offset="0%"></stop>
            <stop stop-color="#FFFFFF" stop-opacity="0" offset="100%"></stop>
        </linearGradient>
    </defs>
    <g id="CY" stroke="none" stroke-width="1" fill="none" fill-rule="evenodd">
        <mask id="mask-2" fill="white">
            <use xlink:href="#path-1"></use>
        </mask>
        <g id="Mask"></g>
        <g id="Group" mask="url(#mask-2)">
            <g>
                <mask id="mask-4" fill="white">
                    <use xlink:href="#path-3"></use>
                </mask>
                <g id="Mask" fill-rule="nonzero"></g>
            </g>
        </g>
        <rect id="Rectangle" fill="#FFFFFF" mask="url(#mask-2)" x="0" y="0" width="24" height="24"></rect>
        <g id="Group" mask="url(#mask-2)">
            <g>
                <path d="M12,0.25 C15.2446729,0.25 18.1821729,1.56516355 20.3085047,3.69149532 C22.4348365,5.81782709 23.75,8.75532709 23.75,12 C23.75,15.2446729 22.4348365,18.1821729 20.3085047,20.3085047 C18.1821729,22.4348365 15.2446729,23.75 12,23.75 C8.75532709,23.75 5.81782709,22.4348365 3.69149532,20.3085047 C1.56516355,18.1821729 0.25,15.2446729 0.25,12 C0.25,8.75532709 1.56516355,5.81782709 3.69149532,3.69149532 C5.81782709,1.56516355 8.75532709,0.25 12,0.25 Z" id="Mask" stroke-opacity="0.15" stroke="#000000" stroke-width="0.5" fill-rule="nonzero"></path>
                <rect id="Dark" fill="url(#linearGradient-5)" style="mix-blend-mode: normal;" opacity="0.100000001" x="0" y="12" width="24" height="12"></rect>
                <rect id="Light" fill="url(#linearGradient-6)" opacity="0.100000001" style="mix-blend-mode: normal;" x="0" y="0" width="24" height="12"></rect>
            </g>
        </g>
        <path d="M19.4341216,6.75193053 C19.5559038,6.9650494 19.5036191,7.23005457 19.3221066,7.38253649 L19.2480695,7.43412157 L16.2727921,9.13454916 C15.9103304,9.50264667 15.884056,10.0776364 16.1939689,10.4757287 L16.278451,10.5713443 L16.8535534,11.1464466 C17.147537,11.4404302 16.9728055,11.9291843 16.586032,11.9930449 L16.5,12 L14.297,12 L14.2155785,12.127078 C13.9069246,12.5686333 13.4634455,12.8988126 12.952326,13.067995 L12.7576168,13.1237947 L12.5776074,13.160629 L10.5,13.5 L8.73606798,13.5 C7.84832097,13.5 7.03200473,13.0297799 6.58449617,12.2731288 L6.5,12.118034 L6.0527864,11.2236068 C5.81247628,10.7429866 6.38621894,10.2950444 6.7882986,10.5902439 L6.85355339,10.6464466 L7.063,10.856 L8.2226499,10.0839749 C8.29967873,10.0326223 8.38834417,10.0043336 8.47856941,10.0004582 L8.56894136,10.0047706 L8.65811388,10.0256584 L9.20943058,10.2094306 C9.44229428,10.2870518 9.69189937,10.1838107 9.80582267,9.9759189 L9.84188612,9.89320282 L10.0256584,9.34188612 C10.0839929,9.16688234 10.232704,9.0407034 10.4095315,9.00822378 L10.5,9 L14.369,9 L16.0072209,8.0908978 C16.0711212,8.05540578 16.1340375,8.03443716 16.1945995,8.02566343 L18.7519305,6.56587843 C18.9916893,6.42887344 19.2971166,6.51217181 19.4341216,6.75193053 Z" id="Path" fill="#FF7F0E" mask="url(#mask-2)"></path>
        <path d="M11.6464466,14.1464466 C11.8417088,13.9511845 12.1582912,13.9511845 12.3535534,14.1464466 C12.9841852,14.7770784 13.6081739,15.24507 14.2236068,15.5527864 C14.8670227,15.8744944 15.6790267,16.1992959 16.6581139,16.5256584 C16.9200855,16.6129822 17.0616655,16.8961422 16.9743416,17.1581139 C16.8870178,17.4200855 16.6038578,17.5616655 16.3418861,17.4743416 C15.3209733,17.1340374 14.4663106,16.7921723 13.7763932,16.4472136 C13.0584927,16.0882634 12.3491481,15.5562549 11.6464466,14.8535534 C11.4511845,14.6582912 11.4511845,14.3417088 11.6464466,14.1464466 Z" id="Path" fill="#18A454" mask="url(#mask-2)" transform="translate(14.250068, 15.750068) scale(-1, 1) translate(-14.250068, -15.750068) "></path>
        <path d="M7.14644661,14.1464466 C7.34170876,13.9511845 7.65829124,13.9511845 7.85355339,14.1464466 C8.48418521,14.7770784 9.10817394,15.24507 9.7236068,15.5527864 C10.3670227,15.8744944 11.1790267,16.1992959 12.1581139,16.5256584 C12.4200855,16.6129822 12.5616655,16.8961422 12.4743416,17.1581139 C12.3870178,17.4200855 12.1038578,17.5616655 11.8418861,17.4743416 C10.8209733,17.1340374 9.9663106,16.7921723 9.2763932,16.4472136 C8.55849273,16.0882634 7.84914812,15.5562549 7.14644661,14.8535534 C6.95118446,14.6582912 6.95118446,14.3417088 7.14644661,14.1464466 Z" id="Path" fill="#18A454" mask="url(#mask-2)"></path>
    </g>
</svg>