<?xml version="1.0" encoding="UTF-8"?>
<svg width="24px" height="24px" viewBox="0 0 24 24" version="1.1" xmlns="http://www.w3.org/2000/svg" xmlns:xlink="http://www.w3.org/1999/xlink">
    <title>EC</title>
    <defs>
        <circle id="path-1" cx="12" cy="12" r="12"></circle>
        <path d="M12,0 C18.627417,-1.21743675e-15 24,5.372583 24,12 C24,18.627417 18.627417,24 12,24 C5.372583,24 8.11624501e-16,18.627417 0,12 C-8.11624501e-16,5.372583 5.372583,1.21743675e-15 12,0 Z" id="path-3"></path>
        <linearGradient x1="50%" y1="0%" x2="50%" y2="100%" id="linearGradient-5">
            <stop stop-color="#000000" stop-opacity="0" offset="0%"></stop>
            <stop stop-color="#000000" offset="100%"></stop>
        </linearGradient>
        <linearGradient x1="50%" y1="0%" x2="50%" y2="100%" id="linearGradient-6">
            <stop stop-color="#FFFFFF" offset="0%"></stop>
            <stop stop-color="#FFFFFF" stop-opacity="0" offset="100%"></stop>
        </linearGradient>
    </defs>
    <g id="EC" stroke="none" stroke-width="1" fill="none" fill-rule="evenodd">
        <mask id="mask-2" fill="white">
            <use xlink:href="#path-1"></use>
        </mask>
        <g id="Mask"></g>
        <g id="Group" mask="url(#mask-2)">
            <g>
                <mask id="mask-4" fill="white">
                    <use xlink:href="#path-3"></use>
                </mask>
                <g id="Mask" fill-rule="nonzero"></g>
            </g>
        </g>
        <polygon id="Rectangle" fill="#FFD400" mask="url(#mask-2)" points="0 0 24 0 24 12 0 12"></polygon>
        <polygon id="Rectangle" fill="#0956BA" mask="url(#mask-2)" points="0 12 24 12 24 18 0 18"></polygon>
        <path d="M9,9 L15,9 L15,14.5 C15,15.8807119 13.8807119,17 12.5,17 L11.5,17 C10.1192881,17 9,15.8807119 9,14.5 L9,9 L9,9 Z" id="Rectangle" fill="#FFD400" mask="url(#mask-2)"></path>
        <ellipse id="Oval" fill="#2BB8FF" mask="url(#mask-2)" cx="12" cy="13" rx="2" ry="3"></ellipse>
        <polygon id="Rectangle" fill="#F12339" mask="url(#mask-2)" points="0 18 24 18 24 24 0 24"></polygon>
        <path d="M13.7233122,7.05278685 L15.7233122,8.05278685 C16.1617471,8.27200427 16.0556746,8.92565255 15.5704161,8.99497519 L12.4997054,9.433 L12.5004495,10.0946868 C12.3405042,10.0328763 12.1728117,10 12,10 C11.8275446,10 11.6601873,10.0327409 11.5005399,10.0943048 L11.4997054,9.433 L8.42928932,8.99497519 C7.97638143,8.93027406 7.85378662,8.35656037 8.19591735,8.10212089 L8.2763932,8.05278685 L10.2763932,7.05278685 C10.3653495,7.00830869 10.4648249,6.99170013 10.5620761,7.00386682 L10.6581139,7.02565879 L11.9997054,7.472 L13.3415915,7.02565879 C13.4673948,6.98372438 13.6047038,6.99348264 13.7233122,7.05278685 Z" id="Combined-Shape" fill="#2E2E2E" mask="url(#mask-2)"></path>
        <g id="Group" mask="url(#mask-2)">
            <g>
                <path d="M12,0.25 C15.2446729,0.25 18.1821729,1.56516355 20.3085047,3.69149532 C22.4348365,5.81782709 23.75,8.75532709 23.75,12 C23.75,15.2446729 22.4348365,18.1821729 20.3085047,20.3085047 C18.1821729,22.4348365 15.2446729,23.75 12,23.75 C8.75532709,23.75 5.81782709,22.4348365 3.69149532,20.3085047 C1.56516355,18.1821729 0.25,15.2446729 0.25,12 C0.25,8.75532709 1.56516355,5.81782709 3.69149532,3.69149532 C5.81782709,1.56516355 8.75532709,0.25 12,0.25 Z" id="Mask" stroke-opacity="0.15" stroke="#000000" stroke-width="0.5" fill-rule="nonzero"></path>
                <rect id="Dark" fill="url(#linearGradient-5)" style="mix-blend-mode: normal;" opacity="0.100000001" x="0" y="12" width="24" height="12"></rect>
                <rect id="Light" fill="url(#linearGradient-6)" opacity="0.100000001" style="mix-blend-mode: normal;" x="0" y="0" width="24" height="12"></rect>
            </g>
        </g>
    </g>
</svg>