<?xml version="1.0" encoding="UTF-8"?>
<svg width="24px" height="24px" viewBox="0 0 24 24" version="1.1" xmlns="http://www.w3.org/2000/svg" xmlns:xlink="http://www.w3.org/1999/xlink">
    <title>EH</title>
    <defs>
        <circle id="path-1" cx="12" cy="12" r="12"></circle>
        <path d="M12,0 C18.627417,-1.21743675e-15 24,5.372583 24,12 C24,18.627417 18.627417,24 12,24 C5.372583,24 8.11624501e-16,18.627417 0,12 C-8.11624501e-16,5.372583 5.372583,1.21743675e-15 12,0 Z" id="path-3"></path>
        <linearGradient x1="50%" y1="0%" x2="50%" y2="100%" id="linearGradient-5">
            <stop stop-color="#000000" stop-opacity="0" offset="0%"></stop>
            <stop stop-color="#000000" offset="100%"></stop>
        </linearGradient>
        <linearGradient x1="50%" y1="0%" x2="50%" y2="100%" id="linearGradient-6">
            <stop stop-color="#FFFFFF" offset="0%"></stop>
            <stop stop-color="#FFFFFF" stop-opacity="0" offset="100%"></stop>
        </linearGradient>
    </defs>
    <g id="EH" stroke="none" stroke-width="1" fill="none" fill-rule="evenodd">
        <mask id="mask-2" fill="white">
            <use xlink:href="#path-1"></use>
        </mask>
        <g id="Mask"></g>
        <g id="Group" mask="url(#mask-2)">
            <g>
                <mask id="mask-4" fill="white">
                    <use xlink:href="#path-3"></use>
                </mask>
                <g id="Mask" fill-rule="nonzero"></g>
            </g>
        </g>
        <polygon id="Rectangle" fill="#2E2E2E" mask="url(#mask-2)" points="0 0 24 0 24 8 0 8"></polygon>
        <polygon id="Rectangle" fill="#FFFFFF" mask="url(#mask-2)" points="0 8 24 8 24 16 0 16"></polygon>
        <path d="M17,9 C17.2594247,9 17.5111584,9.0329289 17.7512495,9.09483501 C16.4559576,9.42769512 15.5,10.6022096 15.5,12 C15.5,13.3977904 16.4559576,14.5723049 17.7497523,14.9054231 C17.5111584,14.9670711 17.2594247,15 17,15 C15.3431458,15 14,13.6568542 14,12 C14,10.3431458 15.3431458,9 17,9 Z" id="Combined-Shape" fill="#F12339" mask="url(#mask-2)"></path>
        <path d="M17.9438788,11.3920003 L16.66062,11.3987153 L16.6168645,11.4048411 C16.4943641,11.4399281 16.4534287,11.6168067 16.5660781,11.7033855 L17.6004112,12.4985831 L17.2102286,13.7792202 L17.2025001,13.82065 C17.1932923,13.9555731 17.3431473,14.0538057 17.4577426,13.9675168 L18.5,13.1821005 L19.5422574,13.9675168 L19.5774994,13.9880156 C19.6972034,14.0388786 19.832735,13.9200031 19.7897714,13.7792202 L19.3989444,12.4985831 L20.4339219,11.7033855 L20.4658822,11.6714998 C20.5452908,11.5677197 20.4791167,11.3994278 20.33938,11.3987153 L19.0554768,11.3920003 L18.6529721,10.1157789 C18.6042742,9.96140704 18.3957258,9.96140704 18.3470279,10.1157789 L17.9438788,11.3920003 Z" id="Path" fill="#F12339" mask="url(#mask-2)"></path>
        <polygon id="Rectangle" fill="#18A454" mask="url(#mask-2)" points="0 16 24 16 24 24 0 24"></polygon>
        <polygon id="Rectangle" fill="#F12339" mask="url(#mask-2)" points="0 -1.66533454e-14 13 12 0 24"></polygon>
        <g id="Group" mask="url(#mask-2)">
            <g>
                <path d="M12,0.25 C15.2446729,0.25 18.1821729,1.56516355 20.3085047,3.69149532 C22.4348365,5.81782709 23.75,8.75532709 23.75,12 C23.75,15.2446729 22.4348365,18.1821729 20.3085047,20.3085047 C18.1821729,22.4348365 15.2446729,23.75 12,23.75 C8.75532709,23.75 5.81782709,22.4348365 3.69149532,20.3085047 C1.56516355,18.1821729 0.25,15.2446729 0.25,12 C0.25,8.75532709 1.56516355,5.81782709 3.69149532,3.69149532 C5.81782709,1.56516355 8.75532709,0.25 12,0.25 Z" id="Mask" stroke-opacity="0.15" stroke="#000000" stroke-width="0.5" fill-rule="nonzero"></path>
                <rect id="Dark" fill="url(#linearGradient-5)" style="mix-blend-mode: normal;" opacity="0.100000001" x="0" y="12" width="24" height="12"></rect>
                <rect id="Light" fill="url(#linearGradient-6)" opacity="0.100000001" style="mix-blend-mode: normal;" x="0" y="0" width="24" height="12"></rect>
            </g>
        </g>
    </g>
</svg>