<?xml version="1.0" encoding="UTF-8"?>
<svg width="24px" height="24px" viewBox="0 0 24 24" version="1.1" xmlns="http://www.w3.org/2000/svg" xmlns:xlink="http://www.w3.org/1999/xlink">
    <title>ER</title>
    <defs>
        <circle id="path-1" cx="12" cy="12" r="12"></circle>
        <path d="M12,0 C18.627417,-1.21743675e-15 24,5.372583 24,12 C24,18.627417 18.627417,24 12,24 C5.372583,24 8.11624501e-16,18.627417 0,12 C-8.11624501e-16,5.372583 5.372583,1.21743675e-15 12,0 Z" id="path-3"></path>
        <linearGradient x1="50%" y1="0%" x2="50%" y2="100%" id="linearGradient-5">
            <stop stop-color="#000000" stop-opacity="0" offset="0%"></stop>
            <stop stop-color="#000000" offset="100%"></stop>
        </linearGradient>
        <linearGradient x1="50%" y1="0%" x2="50%" y2="100%" id="linearGradient-6">
            <stop stop-color="#FFFFFF" offset="0%"></stop>
            <stop stop-color="#FFFFFF" stop-opacity="0" offset="100%"></stop>
        </linearGradient>
    </defs>
    <g id="ER" stroke="none" stroke-width="1" fill="none" fill-rule="evenodd">
        <mask id="mask-2" fill="white">
            <use xlink:href="#path-1"></use>
        </mask>
        <g id="Mask"></g>
        <g id="Group" mask="url(#mask-2)">
            <g>
                <mask id="mask-4" fill="white">
                    <use xlink:href="#path-3"></use>
                </mask>
                <g id="Mask" fill-rule="nonzero"></g>
            </g>
        </g>
        <polygon id="Rectangle" fill="#18A454" mask="url(#mask-2)" points="0 0 24 0 24 12 0 12"></polygon>
        <polygon id="Rectangle" fill="#0956BA" mask="url(#mask-2)" points="0 12 24 12 24 24 0 24"></polygon>
        <polygon id="Rectangle" fill="#F12339" mask="url(#mask-2)" points="0 0 24 12 0 24"></polygon>
        <path d="M7,7 C9.76142375,7 12,9.23857625 12,12 C12,14.7614237 9.76142375,17 7,17 C4.23857625,17 2,14.7614237 2,12 C2,9.23857625 4.23857625,7 7,7 Z M7,8 C4.790861,8 3,9.790861 3,12 C3,14.209139 4.790861,16 7,16 C9.209139,16 11,14.209139 11,12 C11,9.790861 9.209139,8 7,8 Z" id="Oval" fill="#FFD400" mask="url(#mask-2)"></path>
        <path d="M7,9 C7.24545989,9 7.44960837,9.17687516 7.49194433,9.41012437 L7.5,9.5 L7.49994686,11.564 L8.2226499,11.0839749 L8.30189943,11.0408235 C8.51945827,10.9466658 8.7798685,11.0184149 8.91602515,11.2226499 C9.06920138,11.4524142 9.00711444,11.7628489 8.7773501,11.9160251 L8.7773501,11.9160251 L7.49994686,12.767 L7.49994686,13.564 L8.2226499,13.0839749 L8.30189943,13.0408235 C8.51945827,12.9466658 8.7798685,13.0184149 8.91602515,13.2226499 C9.06920138,13.4524142 9.00711444,13.7628489 8.7773501,13.9160251 L8.7773501,13.9160251 L7.49994686,14.767 L7.5,17.5 C7.5,17.7761424 7.27614237,18 7,18 C6.75454011,18 6.55039163,17.8231248 6.50805567,17.5898756 L6.5,17.5 L6.49994686,13.768 L5.2226499,12.9160251 C4.99288556,12.7628489 4.93079862,12.4524142 5.08397485,12.2226499 C5.2201315,12.0184149 5.48054173,11.9466658 5.69810057,12.0408235 L5.7773501,12.0839749 L6.49994686,12.565 L6.49994686,11.768 L5.2226499,10.9160251 C4.99288556,10.7628489 4.93079862,10.4524142 5.08397485,10.2226499 C5.2201315,10.0184149 5.48054173,9.94666581 5.69810057,10.0408235 L5.7773501,10.0839749 L6.49994686,10.565 L6.5,9.5 C6.5,9.22385763 6.72385763,9 7,9 Z" id="Combined-Shape" fill="#FFD400" mask="url(#mask-2)"></path>
        <g id="Group" mask="url(#mask-2)">
            <g>
                <path d="M12,0.25 C15.2446729,0.25 18.1821729,1.56516355 20.3085047,3.69149532 C22.4348365,5.81782709 23.75,8.75532709 23.75,12 C23.75,15.2446729 22.4348365,18.1821729 20.3085047,20.3085047 C18.1821729,22.4348365 15.2446729,23.75 12,23.75 C8.75532709,23.75 5.81782709,22.4348365 3.69149532,20.3085047 C1.56516355,18.1821729 0.25,15.2446729 0.25,12 C0.25,8.75532709 1.56516355,5.81782709 3.69149532,3.69149532 C5.81782709,1.56516355 8.75532709,0.25 12,0.25 Z" id="Mask" stroke-opacity="0.15" stroke="#000000" stroke-width="0.5" fill-rule="nonzero"></path>
                <rect id="Dark" fill="url(#linearGradient-5)" style="mix-blend-mode: normal;" opacity="0.100000001" x="0" y="12" width="24" height="12"></rect>
                <rect id="Light" fill="url(#linearGradient-6)" opacity="0.100000001" style="mix-blend-mode: normal;" x="0" y="0" width="24" height="12"></rect>
            </g>
        </g>
    </g>
</svg>