<?xml version="1.0" encoding="UTF-8"?>
<svg width="24px" height="24px" viewBox="0 0 24 24" version="1.1" xmlns="http://www.w3.org/2000/svg" xmlns:xlink="http://www.w3.org/1999/xlink">
    <title>FM</title>
    <defs>
        <circle id="path-1" cx="12" cy="12" r="12"></circle>
        <path d="M12,0 C18.627417,-1.21743675e-15 24,5.372583 24,12 C24,18.627417 18.627417,24 12,24 C5.372583,24 8.11624501e-16,18.627417 0,12 C-8.11624501e-16,5.372583 5.372583,1.21743675e-15 12,0 Z" id="path-3"></path>
        <linearGradient x1="50%" y1="0%" x2="50%" y2="100%" id="linearGradient-5">
            <stop stop-color="#000000" stop-opacity="0" offset="0%"></stop>
            <stop stop-color="#000000" offset="100%"></stop>
        </linearGradient>
        <linearGradient x1="50%" y1="0%" x2="50%" y2="100%" id="linearGradient-6">
            <stop stop-color="#FFFFFF" offset="0%"></stop>
            <stop stop-color="#FFFFFF" stop-opacity="0" offset="100%"></stop>
        </linearGradient>
    </defs>
    <g id="FM" stroke="none" stroke-width="1" fill="none" fill-rule="evenodd">
        <mask id="mask-2" fill="white">
            <use xlink:href="#path-1"></use>
        </mask>
        <g id="Mask"></g>
        <g id="Group" mask="url(#mask-2)">
            <g>
                <mask id="mask-4" fill="white">
                    <use xlink:href="#path-3"></use>
                </mask>
                <g id="Mask" fill-rule="nonzero"></g>
            </g>
        </g>
        <rect id="Rectangle" fill="#2BB8FF" mask="url(#mask-2)" x="0" y="0" width="24" height="24"></rect>
        <g id="Group" mask="url(#mask-2)">
            <g>
                <path d="M12,0.25 C15.2446729,0.25 18.1821729,1.56516355 20.3085047,3.69149532 C22.4348365,5.81782709 23.75,8.75532709 23.75,12 C23.75,15.2446729 22.4348365,18.1821729 20.3085047,20.3085047 C18.1821729,22.4348365 15.2446729,23.75 12,23.75 C8.75532709,23.75 5.81782709,22.4348365 3.69149532,20.3085047 C1.56516355,18.1821729 0.25,15.2446729 0.25,12 C0.25,8.75532709 1.56516355,5.81782709 3.69149532,3.69149532 C5.81782709,1.56516355 8.75532709,0.25 12,0.25 Z" id="Mask" stroke-opacity="0.15" stroke="#000000" stroke-width="0.5" fill-rule="nonzero"></path>
                <rect id="Dark" fill="url(#linearGradient-5)" style="mix-blend-mode: normal;" opacity="0.100000001" x="0" y="12" width="24" height="12"></rect>
                <rect id="Light" fill="url(#linearGradient-6)" opacity="0.100000001" style="mix-blend-mode: normal;" x="0" y="0" width="24" height="12"></rect>
            </g>
        </g>
        <path d="M11.4100113,4.33522926 L10.2315853,4.34199666 L10.1684976,4.3508127 C9.9918741,4.40130899 9.93285246,4.65586792 10.0952728,4.78046981 L11.0448687,5.50925994 L10.6865013,6.6822597 L10.6753581,6.74188435 C10.6620822,6.93606197 10.8781463,7.0774357 11.0433722,6.953251 L12,6.2336825 L12.9566278,6.953251 L13.0074406,6.98275241 C13.1800323,7.05595297 13.3754444,6.88487055 13.3134987,6.6822597 L12.9542021,5.50925994 L13.9047272,4.78046981 L13.9508082,4.73458081 C14.0653012,4.58522328 13.96989,4.34302201 13.7684147,4.34199666 L12.5890596,4.33522926 L12.2205583,3.16662587 C12.1503447,2.94445804 11.8496553,2.94445804 11.7794417,3.16662587 L11.4100113,4.33522926 Z" id="Path" fill="#FFFFFF" mask="url(#mask-2)"></path>
        <path d="M18.4100113,11.3352293 L17.2315853,11.3419967 L17.1684976,11.3508127 C16.9918741,11.401309 16.9328525,11.6558679 17.0952728,11.7804698 L18.0448687,12.5092599 L17.6865013,13.6822597 L17.6753581,13.7418843 C17.6620822,13.936062 17.8781463,14.0774357 18.0433722,13.953251 L19,13.2336825 L19.9566278,13.953251 L20.0074406,13.9827524 C20.1800323,14.055953 20.3754444,13.8848706 20.3134987,13.6822597 L19.9542021,12.5092599 L20.9047272,11.7804698 L20.9508082,11.7345808 C21.0653012,11.5852233 20.96989,11.343022 20.7684147,11.3419967 L19.5890596,11.3352293 L19.2205583,10.1666259 C19.1503447,9.94445804 18.8496553,9.94445804 18.7794417,10.1666259 L18.4100113,11.3352293 Z" id="Path" fill="#FFFFFF" mask="url(#mask-2)" transform="translate(19.000000, 12.000000) rotate(-345.000000) translate(-19.000000, -12.000000) "></path>
        <path d="M4.41001133,11.3352293 L3.23158531,11.3419967 L3.16849762,11.3508127 C2.9918741,11.401309 2.93285246,11.6558679 3.09527276,11.7804698 L4.04486874,12.5092599 L3.68650128,13.6822597 L3.67535812,13.7418843 C3.66208219,13.936062 3.87814632,14.0774357 4.04337217,13.953251 L5,13.2336825 L5.95662783,13.953251 L6.00744056,13.9827524 C6.18003227,14.055953 6.37544445,13.8848706 6.31349872,13.6822597 L5.95420214,12.5092599 L6.90472724,11.7804698 L6.95080823,11.7345808 C7.06530118,11.5852233 6.96988999,11.343022 6.76841469,11.3419967 L5.58905955,11.3352293 L5.22055834,10.1666259 C5.15034465,9.94445804 4.84965535,9.94445804 4.77944166,10.1666259 L4.41001133,11.3352293 Z" id="Path" fill="#FFFFFF" mask="url(#mask-2)" transform="translate(5.000000, 12.000000) rotate(-15.000000) translate(-5.000000, -12.000000) "></path>
        <path d="M11.4100113,18.3352293 L10.2315853,18.3419967 L10.1684976,18.3508127 C9.9918741,18.401309 9.93285246,18.6558679 10.0952728,18.7804698 L11.0448687,19.5092599 L10.6865013,20.6822597 L10.6753581,20.7418843 C10.6620822,20.936062 10.8781463,21.0774357 11.0433722,20.953251 L12,20.2336825 L12.9566278,20.953251 L13.0074406,20.9827524 C13.1800323,21.055953 13.3754444,20.8848706 13.3134987,20.6822597 L12.9542021,19.5092599 L13.9047272,18.7804698 L13.9508082,18.7345808 C14.0653012,18.5852233 13.96989,18.343022 13.7684147,18.3419967 L12.5890596,18.3352293 L12.2205583,17.1666259 C12.1503447,16.944458 11.8496553,16.944458 11.7794417,17.1666259 L11.4100113,18.3352293 Z" id="Path" fill="#FFFFFF" mask="url(#mask-2)" transform="translate(12.000000, 19.000000) scale(1, -1) translate(-12.000000, -19.000000) "></path>
    </g>
</svg>