<?xml version="1.0" encoding="UTF-8"?>
<svg width="24px" height="24px" viewBox="0 0 24 24" version="1.1" xmlns="http://www.w3.org/2000/svg" xmlns:xlink="http://www.w3.org/1999/xlink">
    <title>GB</title>
    <defs>
        <circle id="path-1" cx="12" cy="12" r="12"></circle>
        <path d="M12,0 C18.627417,-1.21743675e-15 24,5.372583 24,12 C24,18.627417 18.627417,24 12,24 C5.372583,24 8.11624501e-16,18.627417 0,12 C-8.11624501e-16,5.372583 5.372583,1.21743675e-15 12,0 Z" id="path-3"></path>
        <linearGradient x1="50%" y1="0%" x2="50%" y2="100%" id="linearGradient-5">
            <stop stop-color="#000000" stop-opacity="0" offset="0%"></stop>
            <stop stop-color="#000000" offset="100%"></stop>
        </linearGradient>
        <linearGradient x1="50%" y1="0%" x2="50%" y2="100%" id="linearGradient-6">
            <stop stop-color="#FFFFFF" offset="0%"></stop>
            <stop stop-color="#FFFFFF" stop-opacity="0" offset="100%"></stop>
        </linearGradient>
    </defs>
    <g id="GB" stroke="none" stroke-width="1" fill="none" fill-rule="evenodd">
        <mask id="mask-2" fill="white">
            <use xlink:href="#path-1"></use>
        </mask>
        <g id="Mask"></g>
        <g id="Group" mask="url(#mask-2)">
            <g>
                <mask id="mask-4" fill="white">
                    <use xlink:href="#path-3"></use>
                </mask>
                <g id="Mask" fill-rule="nonzero"></g>
            </g>
        </g>
        <rect id="Rectangle" fill="#0956BA" mask="url(#mask-2)" x="0" y="0" width="24" height="24"></rect>
        <path d="M24,7.2830793e-14 L23.9997948,2.29357985 L15.041,12 L23.9997948,21.7055798 L24,24 L22.0347948,23.9995798 L12,13.128 L1.96379483,23.9995798 L-1.60316123e-13,24 L-0.000205166941,21.7055798 L8.958,12 L-0.000205166941,2.29357985 L-1.60316123e-13,7.2830793e-14 L1.96279483,-0.0004201541 L11.999,10.871 L22.0357948,-0.0004201541 L24,7.2830793e-14 Z M11.999,11.077 L10.999,11.999 L12,12.922 L12.999,12 L11.999,11.077 Z" id="Combined-Shape" fill="#FFFFFF" mask="url(#mask-2)"></path>
        <path d="M0.602598278,-0.000140051367 L11.3674017,11.6608599 L10.999,11.999 L11.3674017,12.3391401 L0.603598278,23.9998599 L3.8191672e-14,24 L-0.000401722314,23.1808599 L10.319,12 L-0.000401722314,0.819859949 L3.8191672e-14,1.02141602e-14 L0.602598278,-0.000140051367 Z M24,1.02141602e-14 L23.9995983,0.820859949 L13.68,12 L23.9995983,23.1798599 L24,24 L23.3965983,23.9998599 L12.6325983,12.3391401 L12.999,11.999 L12.6325983,11.6608599 L23.3975983,-0.000140051367 L24,1.02141602e-14 Z" id="Combined-Shape" fill="#F12339" mask="url(#mask-2)"></path>
        <path d="M14,0 L14,10 L24,10 L24,14 L14,14 L14,24 L10,24 L10,14 L0,14 L0,10 L10,10 L10,0 L14,0 Z" id="Combined-Shape" fill="#FFFFFF" mask="url(#mask-2)"></path>
        <path d="M13,0 L13,11 L24,11 L24,13 L13,13 L13,24 L11,24 L11,13 L0,13 L0,11 L11,11 L11,0 L13,0 Z" id="Combined-Shape" fill="#F12339" mask="url(#mask-2)"></path>
        <g id="Group" mask="url(#mask-2)">
            <g>
                <path d="M12,0.25 C15.2446729,0.25 18.1821729,1.56516355 20.3085047,3.69149532 C22.4348365,5.81782709 23.75,8.75532709 23.75,12 C23.75,15.2446729 22.4348365,18.1821729 20.3085047,20.3085047 C18.1821729,22.4348365 15.2446729,23.75 12,23.75 C8.75532709,23.75 5.81782709,22.4348365 3.69149532,20.3085047 C1.56516355,18.1821729 0.25,15.2446729 0.25,12 C0.25,8.75532709 1.56516355,5.81782709 3.69149532,3.69149532 C5.81782709,1.56516355 8.75532709,0.25 12,0.25 Z" id="Mask" stroke-opacity="0.15" stroke="#000000" stroke-width="0.5" fill-rule="nonzero"></path>
                <rect id="Dark" fill="url(#linearGradient-5)" style="mix-blend-mode: normal;" opacity="0.100000001" x="0" y="12" width="24" height="12"></rect>
                <rect id="Light" fill="url(#linearGradient-6)" opacity="0.100000001" style="mix-blend-mode: normal;" x="0" y="0" width="24" height="12"></rect>
            </g>
        </g>
    </g>
</svg>