<?xml version="1.0" encoding="UTF-8"?>
<svg width="24px" height="24px" viewBox="0 0 24 24" version="1.1" xmlns="http://www.w3.org/2000/svg" xmlns:xlink="http://www.w3.org/1999/xlink">
    <title>GD</title>
    <defs>
        <circle id="path-1" cx="12" cy="12" r="12"></circle>
        <path d="M12,0 C18.627417,-1.21743675e-15 24,5.372583 24,12 C24,18.627417 18.627417,24 12,24 C5.372583,24 8.11624501e-16,18.627417 0,12 C-8.11624501e-16,5.372583 5.372583,1.21743675e-15 12,0 Z" id="path-3"></path>
        <linearGradient x1="50%" y1="0%" x2="50%" y2="100%" id="linearGradient-5">
            <stop stop-color="#000000" stop-opacity="0" offset="0%"></stop>
            <stop stop-color="#000000" offset="100%"></stop>
        </linearGradient>
        <linearGradient x1="50%" y1="0%" x2="50%" y2="100%" id="linearGradient-6">
            <stop stop-color="#FFFFFF" offset="0%"></stop>
            <stop stop-color="#FFFFFF" stop-opacity="0" offset="100%"></stop>
        </linearGradient>
    </defs>
    <g id="GD" stroke="none" stroke-width="1" fill="none" fill-rule="evenodd">
        <mask id="mask-2" fill="white">
            <use xlink:href="#path-1"></use>
        </mask>
        <g id="Mask"></g>
        <g id="Group" mask="url(#mask-2)">
            <g>
                <mask id="mask-4" fill="white">
                    <use xlink:href="#path-3"></use>
                </mask>
                <g id="Mask" fill-rule="nonzero"></g>
            </g>
        </g>
        <polygon id="Rectangle" fill="#F12339" mask="url(#mask-2)" points="0 0 24 0 24 24 0 24"></polygon>
        <circle id="Oval" fill="#FFD400" mask="url(#mask-2)" transform="translate(17.250000, 2.906733) rotate(30.000000) translate(-17.250000, -2.906733) " cx="17.25" cy="2.90673326" r="1"></circle>
        <circle id="Oval" fill="#FFD400" mask="url(#mask-2)" transform="translate(17.250000, 21.093267) rotate(150.000000) translate(-17.250000, -21.093267) " cx="17.25" cy="21.0932667" r="1"></circle>
        <circle id="Oval" fill="#FFD400" mask="url(#mask-2)" transform="translate(12.000000, 22.500000) rotate(180.000000) translate(-12.000000, -22.500000) " cx="12" cy="22.5" r="1"></circle>
        <circle id="Oval" fill="#FFD400" mask="url(#mask-2)" transform="translate(6.750000, 21.093267) rotate(210.000000) translate(-6.750000, -21.093267) " cx="6.75" cy="21.0932667" r="1"></circle>
        <circle id="Oval" fill="#FFD400" mask="url(#mask-2)" transform="translate(6.750000, 2.906733) rotate(330.000000) translate(-6.750000, -2.906733) " cx="6.75" cy="2.90673326" r="1"></circle>
        <circle id="Oval" fill="#FFD400" mask="url(#mask-2)" cx="12" cy="1.5" r="1"></circle>
        <path d="M12,3 C14.4852814,3 16.7352814,4.00735931 18.363961,5.63603897 L12,12 L5.63603897,5.63603897 C7.26471863,4.00735931 9.51471863,3 12,3 Z" id="Combined-Shape" fill="#FFD400" mask="url(#mask-2)"></path>
        <path d="M18.363961,5.63603897 C19.9926407,7.26471863 21,9.51471863 21,12 C21,14.4847771 19.9930495,16.7343682 18.3649524,18.3629695 L12,12 Z" id="Combined-Shape" fill="#18A454" mask="url(#mask-2)"></path>
        <path d="M12,12 L18.363961,18.363961 C16.7352814,19.9926407 14.4852814,21 12,21 C9.51471863,21 7.26471863,19.9926407 5.63603897,18.363961 L12,12 Z" id="Combined-Shape" fill="#FFD400" mask="url(#mask-2)"></path>
        <path d="M5.63603897,5.63603897 L12,12 L5.63603897,18.363961 C4.00735931,16.7352814 3,14.4852814 3,12 C3,9.51471863 4.00735931,7.26471863 5.63603897,5.63603897 Z" id="Combined-Shape" fill="#18A454" mask="url(#mask-2)"></path>
        <circle id="Oval" fill="#F12339" mask="url(#mask-2)" cx="12" cy="12" r="3"></circle>
        <path d="M11.3048486,10.9900003 L9.70077503,10.9983941 L9.64608057,11.0060514 C9.49295517,11.0499101 9.44178582,11.2710084 9.5825976,11.3792319 L10.875514,12.3732289 L10.3877857,13.9740253 L10.3781251,14.0258125 C10.3666154,14.1944663 10.5539342,14.3172571 10.6971782,14.209396 L12,13.2276256 L13.3028218,14.209396 L13.3468743,14.2350195 C13.4965043,14.2985982 13.6659187,14.1500038 13.6122143,13.9740253 L13.1236805,12.3732289 L14.4174024,11.3792319 L14.4573527,11.3393748 C14.5566135,11.2096497 14.4738958,10.9992847 14.299225,10.9983941 L12.6943459,10.9900003 L12.1912151,9.39472361 C12.1303427,9.2017588 11.8696573,9.2017588 11.8087849,9.39472361 L11.3048486,10.9900003 Z" id="Path" fill="#FFD400" mask="url(#mask-2)"></path>
        <g id="Group" mask="url(#mask-2)">
            <g>
                <path d="M12,0.25 C15.2446729,0.25 18.1821729,1.56516355 20.3085047,3.69149532 C22.4348365,5.81782709 23.75,8.75532709 23.75,12 C23.75,15.2446729 22.4348365,18.1821729 20.3085047,20.3085047 C18.1821729,22.4348365 15.2446729,23.75 12,23.75 C8.75532709,23.75 5.81782709,22.4348365 3.69149532,20.3085047 C1.56516355,18.1821729 0.25,15.2446729 0.25,12 C0.25,8.75532709 1.56516355,5.81782709 3.69149532,3.69149532 C5.81782709,1.56516355 8.75532709,0.25 12,0.25 Z" id="Mask" stroke-opacity="0.15" stroke="#000000" stroke-width="0.5" fill-rule="nonzero"></path>
                <rect id="Dark" fill="url(#linearGradient-5)" style="mix-blend-mode: normal;" opacity="0.100000001" x="0" y="12" width="24" height="12"></rect>
                <rect id="Light" fill="url(#linearGradient-6)" opacity="0.100000001" style="mix-blend-mode: normal;" x="0" y="0" width="24" height="12"></rect>
            </g>
        </g>
    </g>
</svg>