<?xml version="1.0" encoding="UTF-8"?>
<svg width="24px" height="24px" viewBox="0 0 24 24" version="1.1" xmlns="http://www.w3.org/2000/svg" xmlns:xlink="http://www.w3.org/1999/xlink">
    <title>GI</title>
    <defs>
        <circle id="path-1" cx="12" cy="12" r="12"></circle>
        <path d="M12,0 C18.627417,-1.21743675e-15 24,5.372583 24,12 C24,18.627417 18.627417,24 12,24 C5.372583,24 8.11624501e-16,18.627417 0,12 C-8.11624501e-16,5.372583 5.372583,1.21743675e-15 12,0 Z" id="path-3"></path>
        <linearGradient x1="50%" y1="0%" x2="50%" y2="100%" id="linearGradient-5">
            <stop stop-color="#000000" stop-opacity="0" offset="0%"></stop>
            <stop stop-color="#000000" offset="100%"></stop>
        </linearGradient>
        <linearGradient x1="50%" y1="0%" x2="50%" y2="100%" id="linearGradient-6">
            <stop stop-color="#FFFFFF" offset="0%"></stop>
            <stop stop-color="#FFFFFF" stop-opacity="0" offset="100%"></stop>
        </linearGradient>
    </defs>
    <g id="GI" stroke="none" stroke-width="1" fill="none" fill-rule="evenodd">
        <mask id="mask-2" fill="white">
            <use xlink:href="#path-1"></use>
        </mask>
        <g id="Mask"></g>
        <g id="Group" mask="url(#mask-2)">
            <g>
                <mask id="mask-4" fill="white">
                    <use xlink:href="#path-3"></use>
                </mask>
                <g id="Mask" fill-rule="nonzero"></g>
            </g>
        </g>
        <polygon id="Rectangle" fill="#F12339" mask="url(#mask-2)" points="0 16 24 16 24 24 0 24"></polygon>
        <polygon id="Rectangle" fill="#FFFFFF" mask="url(#mask-2)" points="0 0 24 0 24 16 0 16"></polygon>
        <path d="M10,3 L9.91396798,3.00695512 C9.52719453,3.07081573 9.35246301,3.55956979 9.64644661,3.85355339 L10.5,4.707 L10.5,9 L9.5,9 L9.5,6.706 L9.85355339,6.35355339 C10.1685358,6.03857096 9.94545243,5.5 9.5,5.5 L7.5,5.5 L7.41396798,5.50695512 C7.02719453,5.57081573 6.85246301,6.05956979 7.14644661,6.35355339 L7.5,6.707 L7.5,9 L6,9 L5.91396798,9.00695512 C5.52719453,9.07081573 5.35246301,9.55956979 5.64644661,9.85355339 L6.5,10.707 L6.5,13.792 L5.64644661,14.6464466 C5.33146418,14.961429 5.55454757,15.5 6,15.5 L18,15.5 L18.086032,15.4930449 C18.4728055,15.4291843 18.647537,14.9404302 18.3535534,14.6464466 L17.5,13.793 L17.5,10.706 L18.3535534,9.85355339 L18.4094692,9.78780155 C18.6378031,9.46915515 18.4157556,9 18,9 L16.5,9 L16.5,6.706 L16.8535534,6.35355339 C17.1685358,6.03857096 16.9454524,5.5 16.5,5.5 L14.5,5.5 L14.413968,5.50695512 C14.0271945,5.57081573 13.852463,6.05956979 14.1464466,6.35355339 L14.5,6.707 L14.5,9 L13.5,9 L13.5,4.706 L14.3535534,3.85355339 C14.6685358,3.53857096 14.4454524,3 14,3 L10,3 Z" id="Path" fill="#F12339" mask="url(#mask-2)"></path>
        <path d="M12,12 C12.5522847,12 13,12.4477153 13,13 L13,15 L13,15 L11,15 L11,13 C11,12.4477153 11.4477153,12 12,12 Z" id="Rectangle" fill="#2E2E2E" mask="url(#mask-2)"></path>
        <path d="M12,6 C12.5522847,6 13,6.44771525 13,7 L13,9 L13,9 L11,9 L11,7 C11,6.44771525 11.4477153,6 12,6 Z" id="Rectangle" fill="#2E2E2E" mask="url(#mask-2)"></path>
        <path d="M15.5,13 C16.0522847,13 16.5,13.4477153 16.5,14 L16.5,15 L16.5,15 L14.5,15 L14.5,14 C14.5,13.4477153 14.9477153,13 15.5,13 Z" id="Rectangle" fill="#2E2E2E" mask="url(#mask-2)"></path>
        <path d="M8.5,13 C9.05228475,13 9.5,13.4477153 9.5,14 L9.5,15 L9.5,15 L7.5,15 L7.5,14 C7.5,13.4477153 7.94771525,13 8.5,13 Z" id="Rectangle" fill="#2E2E2E" mask="url(#mask-2)"></path>
        <g id="Group" mask="url(#mask-2)">
            <g>
                <path d="M12,0.25 C15.2446729,0.25 18.1821729,1.56516355 20.3085047,3.69149532 C22.4348365,5.81782709 23.75,8.75532709 23.75,12 C23.75,15.2446729 22.4348365,18.1821729 20.3085047,20.3085047 C18.1821729,22.4348365 15.2446729,23.75 12,23.75 C8.75532709,23.75 5.81782709,22.4348365 3.69149532,20.3085047 C1.56516355,18.1821729 0.25,15.2446729 0.25,12 C0.25,8.75532709 1.56516355,5.81782709 3.69149532,3.69149532 C5.81782709,1.56516355 8.75532709,0.25 12,0.25 Z" id="Mask" stroke-opacity="0.15" stroke="#000000" stroke-width="0.5" fill-rule="nonzero"></path>
                <rect id="Dark" fill="url(#linearGradient-5)" style="mix-blend-mode: normal;" opacity="0.100000001" x="0" y="12" width="24" height="12"></rect>
                <rect id="Light" fill="url(#linearGradient-6)" opacity="0.100000001" style="mix-blend-mode: normal;" x="0" y="0" width="24" height="12"></rect>
            </g>
        </g>
    </g>
</svg>