<?xml version="1.0" encoding="UTF-8"?>
<svg width="24px" height="24px" viewBox="0 0 24 24" version="1.1" xmlns="http://www.w3.org/2000/svg" xmlns:xlink="http://www.w3.org/1999/xlink">
    <title>HK</title>
    <defs>
        <circle id="path-1" cx="12" cy="12" r="12"></circle>
        <path d="M12,0 C18.627417,-1.21743675e-15 24,5.372583 24,12 C24,18.627417 18.627417,24 12,24 C5.372583,24 8.11624501e-16,18.627417 0,12 C-8.11624501e-16,5.372583 5.372583,1.21743675e-15 12,0 Z" id="path-3"></path>
        <linearGradient x1="50%" y1="0%" x2="50%" y2="100%" id="linearGradient-5">
            <stop stop-color="#000000" stop-opacity="0" offset="0%"></stop>
            <stop stop-color="#000000" offset="100%"></stop>
        </linearGradient>
        <linearGradient x1="50%" y1="0%" x2="50%" y2="100%" id="linearGradient-6">
            <stop stop-color="#FFFFFF" offset="0%"></stop>
            <stop stop-color="#FFFFFF" stop-opacity="0" offset="100%"></stop>
        </linearGradient>
    </defs>
    <g id="HK" stroke="none" stroke-width="1" fill="none" fill-rule="evenodd">
        <mask id="mask-2" fill="white">
            <use xlink:href="#path-1"></use>
        </mask>
        <g id="Mask"></g>
        <g id="Group" mask="url(#mask-2)">
            <g>
                <mask id="mask-4" fill="white">
                    <use xlink:href="#path-3"></use>
                </mask>
                <g id="Mask" fill-rule="nonzero"></g>
            </g>
        </g>
        <g id="Group" mask="url(#mask-2)">
            <polygon id="Rectangle" fill="#F12339" points="0 0 24 0 24 24 0 24"></polygon>
            <path d="M13.6813448,5.008908 C12.8667012,5.4275856 12.7486348,6.2088168 13.2138632,6.9325164 C13.7348408,7.7427484 13.1659044,9.0464588 12.4616324,9.3632124 C11.3042384,9.8841896 11.072516,11.273212 11.9985624,11.996536 C7.7880404,10.2170856 9.6544928,4.733262 13.6813448,5.008908 Z M11.5,7 C11.2238576,7 11,7.22385763 11,7.5 C11,7.77614237 11.2238576,8 11.5,8 C11.7761424,8 12,7.77614237 12,7.5 C12,7.22385763 11.7761424,7 11.5,7 Z" id="Combined-Shape" fill="#FFFFFF"></path>
        </g>
        <path d="M14.7490243,18.6441819 C15.1619923,17.8266291 14.7983138,17.1252021 13.9965562,16.8131712 C13.098834,16.4639027 12.7928115,15.0747664 13.1763964,14.4045467 C13.8065251,13.3027682 13.1775456,12.0428224 12.0031991,12.0019574 C16.4555177,10.9666803 18.1688366,16.50026 14.7490243,18.6441819 Z M11.999127,12.0036474 C14.3595761,15.9181358 9.62627376,19.2575691 6.53050271,16.6676426 C7.43565574,16.8077608 7.99036965,16.2451291 8.03937192,15.3861895 C8.0941346,14.4244751 9.32071557,13.7041636 10.0766667,13.8618653 C11.3192408,14.120685 12.3231551,13.1331453 11.999127,12.0036474 Z M9.35496636,15.6405765 C9.19265395,15.8639803 9.24217836,16.1766652 9.46558224,16.3389776 C9.68898611,16.50129 10.0016709,16.4517656 10.1639834,16.2283617 C10.3262958,16.0049579 10.2767714,15.692273 10.0533675,15.5299606 C9.82996361,15.3676482 9.51727878,15.4171726 9.35496636,15.6405765 Z M14.7556495,14.9421754 C14.5322456,15.1044878 14.4827212,15.4171726 14.6450336,15.6405765 C14.8073461,15.8639803 15.1200309,15.9135048 15.3434348,15.7511923 C15.5668386,15.5888799 15.616363,15.2761951 15.4540506,15.0527912 C15.2917382,14.8293873 14.9790534,14.7798629 14.7556495,14.9421754 Z M5.87064051,8.24057983 C6.01708786,9.14473043 6.72359836,9.49843197 7.55564106,9.27960894 C8.48720841,9.03450526 9.55129967,9.9784646 9.63491823,10.7461493 C9.77274257,12.0078872 11.0221752,12.6574999 11.9962613,12.0002968 C9.00278055,15.4548608 4.36411989,11.9851644 5.87064051,8.24057983 Z M19.1684877,11.4386877 C18.5185629,10.7932941 17.7390834,10.92242 17.1945677,11.588514 C16.5849822,12.3343686 15.1692689,12.1961466 14.6503863,11.6242263 C13.7972531,10.68447 12.4046081,10.8933205 12.0028502,11.9975623 C12.3940853,7.44323753 18.1862769,7.52374456 19.1684877,11.4386877 Z M13.6813448,5.008908 C12.8667012,5.4275856 12.7486348,6.2088168 13.2138632,6.9325164 C13.7348408,7.7427484 13.1659044,9.0464588 12.4616324,9.3632124 C11.3042384,9.8841896 11.072516,11.273212 11.9985624,11.996536 C7.7880404,10.2170856 9.6544928,4.733262 13.6813448,5.008908 Z M7.09020892,10.9304433 C7.00487623,11.1930703 7.14860168,11.4751474 7.41122868,11.56048 C7.67385569,11.6458127 7.95593275,11.5020873 8.04126544,11.2394603 C8.12659812,10.9768333 7.98287268,10.6947562 7.72024568,10.6094235 C7.45761867,10.5240908 7.17554161,10.6678163 7.09020892,10.9304433 Z M15.9707373,9.65836701 C15.7081103,9.7436997 15.5643849,10.0257768 15.6497176,10.2884038 C15.7350503,10.5510308 16.0171273,10.6947562 16.2797543,10.6094235 C16.5423813,10.5240908 16.6861068,10.2420138 16.6007741,9.97938677 C16.5154414,9.71675976 16.2333643,9.57303432 15.9707373,9.65836701 Z M11.5,7 C11.2238576,7 11,7.22385763 11,7.5 C11,7.77614237 11.2238576,8 11.5,8 C11.7761424,8 12,7.77614237 12,7.5 C12,7.22385763 11.7761424,7 11.5,7 Z" id="Combined-Shape" fill="#FFFFFF" mask="url(#mask-2)"></path>
        <g id="Group" mask="url(#mask-2)">
            <g>
                <path d="M12,0.25 C15.2446729,0.25 18.1821729,1.56516355 20.3085047,3.69149532 C22.4348365,5.81782709 23.75,8.75532709 23.75,12 C23.75,15.2446729 22.4348365,18.1821729 20.3085047,20.3085047 C18.1821729,22.4348365 15.2446729,23.75 12,23.75 C8.75532709,23.75 5.81782709,22.4348365 3.69149532,20.3085047 C1.56516355,18.1821729 0.25,15.2446729 0.25,12 C0.25,8.75532709 1.56516355,5.81782709 3.69149532,3.69149532 C5.81782709,1.56516355 8.75532709,0.25 12,0.25 Z" id="Mask" stroke-opacity="0.15" stroke="#000000" stroke-width="0.5" fill-rule="nonzero"></path>
                <rect id="Dark" fill="url(#linearGradient-5)" style="mix-blend-mode: normal;" opacity="0.100000001" x="0" y="12" width="24" height="12"></rect>
                <rect id="Light" fill="url(#linearGradient-6)" opacity="0.100000001" style="mix-blend-mode: normal;" x="0" y="0" width="24" height="12"></rect>
            </g>
        </g>
    </g>
</svg>