<?xml version="1.0" encoding="UTF-8"?>
<svg width="24px" height="24px" viewBox="0 0 24 24" version="1.1" xmlns="http://www.w3.org/2000/svg" xmlns:xlink="http://www.w3.org/1999/xlink">
    <title>HR</title>
    <defs>
        <circle id="path-1" cx="12" cy="12" r="12"></circle>
        <path d="M12,0 C18.627417,-1.21743675e-15 24,5.372583 24,12 C24,18.627417 18.627417,24 12,24 C5.372583,24 8.11624501e-16,18.627417 0,12 C-8.11624501e-16,5.372583 5.372583,1.21743675e-15 12,0 Z" id="path-3"></path>
        <path d="M0.5,0.5 L6.5,0.5 L6.5,5.5 C6.5,7.15685425 5.15685425,8.5 3.5,8.5 C1.84314575,8.5 0.5,7.15685425 0.5,5.5 L0.5,0.5 L0.5,0.5 Z" id="path-5"></path>
        <linearGradient x1="50%" y1="0%" x2="50%" y2="100%" id="linearGradient-7">
            <stop stop-color="#000000" stop-opacity="0" offset="0%"></stop>
            <stop stop-color="#000000" offset="100%"></stop>
        </linearGradient>
        <linearGradient x1="50%" y1="0%" x2="50%" y2="100%" id="linearGradient-8">
            <stop stop-color="#FFFFFF" offset="0%"></stop>
            <stop stop-color="#FFFFFF" stop-opacity="0" offset="100%"></stop>
        </linearGradient>
    </defs>
    <g id="HR" stroke="none" stroke-width="1" fill="none" fill-rule="evenodd">
        <mask id="mask-2" fill="white">
            <use xlink:href="#path-1"></use>
        </mask>
        <g id="Mask"></g>
        <g id="Group" mask="url(#mask-2)">
            <g>
                <mask id="mask-4" fill="white">
                    <use xlink:href="#path-3"></use>
                </mask>
                <g id="Mask" fill-rule="nonzero"></g>
            </g>
        </g>
        <polygon id="Rectangle" fill="#F12339" mask="url(#mask-2)" points="0 0 24 0 24 8 0 8"></polygon>
        <polygon id="Rectangle" fill="#FFFFFF" mask="url(#mask-2)" points="0 8 24 8 24 16 0 16"></polygon>
        <polygon id="Rectangle" fill="#0956BA" mask="url(#mask-2)" points="0 16 24 16 24 24 0 24"></polygon>
        <g id="Group" mask="url(#mask-2)">
            <g transform="translate(8.500000, 7.500000)">
                <mask id="mask-6" fill="white">
                    <use xlink:href="#path-5"></use>
                </mask>
                <path stroke="#FFFFFF" stroke-width="1" d="M7,0 L7,5.5 C7,6.46649831 6.60824916,7.34149831 5.97487373,7.97487373 C5.34149831,8.60824916 4.46649831,9 3.5,9 C2.53350169,9 1.65850169,8.60824916 1.02512627,7.97487373 C0.391750844,7.34149831 2.40548322e-16,6.46649831 0,5.5 L0,5.5 L-0,-0 L7,0 Z"></path>
                <rect id="Rectangle" stroke="none" fill="#F12339" fill-rule="evenodd" mask="url(#mask-6)" x="0.5" y="0.5" width="2" height="2"></rect>
                <rect id="Rectangle" stroke="none" fill="#F12339" fill-rule="evenodd" mask="url(#mask-6)" x="4.5" y="0.5" width="2" height="2"></rect>
                <rect id="Rectangle" stroke="none" fill="#F12339" fill-rule="evenodd" mask="url(#mask-6)" x="2.5" y="2.5" width="2" height="2"></rect>
                <rect id="Rectangle" stroke="none" fill="#F12339" fill-rule="evenodd" mask="url(#mask-6)" x="0.5" y="4.5" width="2" height="2"></rect>
                <rect id="Rectangle" stroke="none" fill="#F12339" fill-rule="evenodd" mask="url(#mask-6)" x="4.5" y="4.5" width="2" height="2"></rect>
                <rect id="Rectangle" stroke="none" fill="#F12339" fill-rule="evenodd" mask="url(#mask-6)" x="2.5" y="6.5" width="2" height="2"></rect>
            </g>
        </g>
        <g id="Group" mask="url(#mask-2)">
            <g>
                <path d="M12,0.25 C15.2446729,0.25 18.1821729,1.56516355 20.3085047,3.69149532 C22.4348365,5.81782709 23.75,8.75532709 23.75,12 C23.75,15.2446729 22.4348365,18.1821729 20.3085047,20.3085047 C18.1821729,22.4348365 15.2446729,23.75 12,23.75 C8.75532709,23.75 5.81782709,22.4348365 3.69149532,20.3085047 C1.56516355,18.1821729 0.25,15.2446729 0.25,12 C0.25,8.75532709 1.56516355,5.81782709 3.69149532,3.69149532 C5.81782709,1.56516355 8.75532709,0.25 12,0.25 Z" id="Mask" stroke-opacity="0.15" stroke="#000000" stroke-width="0.5" fill-rule="nonzero"></path>
                <rect id="Dark" fill="url(#linearGradient-7)" style="mix-blend-mode: normal;" opacity="0.100000001" x="0" y="12" width="24" height="12"></rect>
                <rect id="Light" fill="url(#linearGradient-8)" opacity="0.100000001" style="mix-blend-mode: normal;" x="0" y="0" width="24" height="12"></rect>
            </g>
        </g>
    </g>
</svg>