<?xml version="1.0" encoding="UTF-8"?>
<svg width="24px" height="24px" viewBox="0 0 24 24" version="1.1" xmlns="http://www.w3.org/2000/svg" xmlns:xlink="http://www.w3.org/1999/xlink">
    <title>HT</title>
    <defs>
        <circle id="path-1" cx="12" cy="12" r="12"></circle>
        <path d="M12,0 C18.627417,-1.21743675e-15 24,5.372583 24,12 C24,18.627417 18.627417,24 12,24 C5.372583,24 8.11624501e-16,18.627417 0,12 C-8.11624501e-16,5.372583 5.372583,1.21743675e-15 12,0 Z" id="path-3"></path>
        <linearGradient x1="50%" y1="0%" x2="50%" y2="100%" id="linearGradient-5">
            <stop stop-color="#000000" stop-opacity="0" offset="0%"></stop>
            <stop stop-color="#000000" offset="100%"></stop>
        </linearGradient>
        <linearGradient x1="50%" y1="0%" x2="50%" y2="100%" id="linearGradient-6">
            <stop stop-color="#FFFFFF" offset="0%"></stop>
            <stop stop-color="#FFFFFF" stop-opacity="0" offset="100%"></stop>
        </linearGradient>
    </defs>
    <g id="HT" stroke="none" stroke-width="1" fill="none" fill-rule="evenodd">
        <mask id="mask-2" fill="white">
            <use xlink:href="#path-1"></use>
        </mask>
        <g id="Mask"></g>
        <g id="Group" mask="url(#mask-2)">
            <g>
                <mask id="mask-4" fill="white">
                    <use xlink:href="#path-3"></use>
                </mask>
                <g id="Mask" fill-rule="nonzero"></g>
            </g>
        </g>
        <polygon id="Rectangle" fill="#0956BA" mask="url(#mask-2)" points="0 0 24 0 24 12 0 12"></polygon>
        <polygon id="Rectangle" fill="#F12339" mask="url(#mask-2)" points="0 12 24 12 24 24 0 24"></polygon>
        <rect id="Rectangle" fill="#FFFFFF" mask="url(#mask-2)" x="8" y="9" width="8" height="6" rx="0.5"></rect>
        <path d="M9.58397485,11.2226499 C9.7201315,11.0184149 9.98054173,10.9466658 10.1981006,11.0408235 L10.2773501,11.0839749 L11.7773501,12.0839749 C12.0071144,12.2371511 12.0692014,12.5475858 11.9160251,12.7773501 C11.7798685,12.9815851 11.5194583,13.0533342 11.3018994,12.9591765 L11.2226499,12.9160251 L9.7226499,11.9160251 C9.49288556,11.7628489 9.43079862,11.4524142 9.58397485,11.2226499 Z" id="Path-18" fill="#0956BA" mask="url(#mask-2)"></path>
        <path d="M13.7226499,11.0839749 C13.9524142,10.9307986 14.2628489,10.9928856 14.4160251,11.2226499 C14.5521818,11.4268849 14.518254,11.6948594 14.3476627,11.8594684 L14.2773501,11.9160251 L12.7773501,12.9160251 C12.5475858,13.0692014 12.2371511,13.0071144 12.0839749,12.7773501 C11.9478182,12.5731151 11.981746,12.3051406 12.1523373,12.1405316 L12.2226499,12.0839749 L13.7226499,11.0839749 Z" id="Path-18" fill="#0956BA" mask="url(#mask-2)"></path>
        <rect id="Rectangle" fill="#F12339" mask="url(#mask-2)" x="11" y="12" width="2" height="1" rx="0.5"></rect>
        <g id="Group" mask="url(#mask-2)">
            <g>
                <path d="M12,0.25 C15.2446729,0.25 18.1821729,1.56516355 20.3085047,3.69149532 C22.4348365,5.81782709 23.75,8.75532709 23.75,12 C23.75,15.2446729 22.4348365,18.1821729 20.3085047,20.3085047 C18.1821729,22.4348365 15.2446729,23.75 12,23.75 C8.75532709,23.75 5.81782709,22.4348365 3.69149532,20.3085047 C1.56516355,18.1821729 0.25,15.2446729 0.25,12 C0.25,8.75532709 1.56516355,5.81782709 3.69149532,3.69149532 C5.81782709,1.56516355 8.75532709,0.25 12,0.25 Z" id="Mask" stroke-opacity="0.15" stroke="#000000" stroke-width="0.5" fill-rule="nonzero"></path>
                <rect id="Dark" fill="url(#linearGradient-5)" style="mix-blend-mode: normal;" opacity="0.100000001" x="0" y="12" width="24" height="12"></rect>
                <rect id="Light" fill="url(#linearGradient-6)" opacity="0.100000001" style="mix-blend-mode: normal;" x="0" y="0" width="24" height="12"></rect>
            </g>
        </g>
        <path d="M13.5,13 L10.5,13 C10.4223775,13 10.3458209,13.0180725 10.2763932,13.0527864 L8.2763932,14.0527864 C7.80448249,14.2887418 7.97238779,15 8.5,15 L15.5,15 C16.0276122,15 16.1955175,14.2887418 15.7236068,14.0527864 L13.7236068,13.0527864 C13.6541791,13.0180725 13.5776225,13 13.5,13 Z" id="Path-17" fill="#18A454" mask="url(#mask-2)"></path>
        <rect id="Rectangle" fill="#FFD400" mask="url(#mask-2)" x="10" y="13" width="4" height="1" rx="0.5"></rect>
        <polygon id="Path" fill="#FFD400" mask="url(#mask-2)" points="12.25 10 12.25 13.5 11.75 13.5 11.75 10"></polygon>
        <ellipse id="Oval" fill="#18A454" mask="url(#mask-2)" cx="12" cy="10" rx="1.5" ry="1"></ellipse>
    </g>
</svg>