<?xml version="1.0" encoding="UTF-8"?>
<svg width="24px" height="24px" viewBox="0 0 24 24" version="1.1" xmlns="http://www.w3.org/2000/svg" xmlns:xlink="http://www.w3.org/1999/xlink">
    <title>IL</title>
    <defs>
        <circle id="path-1" cx="12" cy="12" r="12"></circle>
        <path d="M12,0 C18.627417,-1.21743675e-15 24,5.372583 24,12 C24,18.627417 18.627417,24 12,24 C5.372583,24 8.11624501e-16,18.627417 0,12 C-8.11624501e-16,5.372583 5.372583,1.21743675e-15 12,0 Z" id="path-3"></path>
        <linearGradient x1="50%" y1="0%" x2="50%" y2="100%" id="linearGradient-5">
            <stop stop-color="#000000" stop-opacity="0" offset="0%"></stop>
            <stop stop-color="#000000" offset="100%"></stop>
        </linearGradient>
        <linearGradient x1="50%" y1="0%" x2="50%" y2="100%" id="linearGradient-6">
            <stop stop-color="#FFFFFF" offset="0%"></stop>
            <stop stop-color="#FFFFFF" stop-opacity="0" offset="100%"></stop>
        </linearGradient>
    </defs>
    <g id="IL" stroke="none" stroke-width="1" fill="none" fill-rule="evenodd">
        <mask id="mask-2" fill="white">
            <use xlink:href="#path-1"></use>
        </mask>
        <g id="Mask"></g>
        <g id="Group" mask="url(#mask-2)">
            <g>
                <mask id="mask-4" fill="white">
                    <use xlink:href="#path-3"></use>
                </mask>
                <g id="Mask" fill-rule="nonzero"></g>
            </g>
        </g>
        <polygon id="Rectangle" fill="#0956BA" mask="url(#mask-2)" points="0 2 24 2 24 6 0 6"></polygon>
        <polygon id="Rectangle" fill="#0956BA" mask="url(#mask-2)" points="0 18 24 18 24 22 0 22"></polygon>
        <rect id="Rectangle" fill="#FFFFFF" mask="url(#mask-2)" x="0" y="0" width="24" height="2"></rect>
        <rect id="Rectangle" fill="#FFFFFF" mask="url(#mask-2)" x="0" y="6" width="24" height="12"></rect>
        <rect id="Rectangle" fill="#FFFFFF" mask="url(#mask-2)" x="1" y="22" width="24" height="2"></rect>
        <g id="Group" mask="url(#mask-2)">
            <g>
                <path d="M12,0.25 C15.2446729,0.25 18.1821729,1.56516355 20.3085047,3.69149532 C22.4348365,5.81782709 23.75,8.75532709 23.75,12 C23.75,15.2446729 22.4348365,18.1821729 20.3085047,20.3085047 C18.1821729,22.4348365 15.2446729,23.75 12,23.75 C8.75532709,23.75 5.81782709,22.4348365 3.69149532,20.3085047 C1.56516355,18.1821729 0.25,15.2446729 0.25,12 C0.25,8.75532709 1.56516355,5.81782709 3.69149532,3.69149532 C5.81782709,1.56516355 8.75532709,0.25 12,0.25 Z" id="Mask" stroke-opacity="0.15" stroke="#000000" stroke-width="0.5" fill-rule="nonzero"></path>
                <rect id="Dark" fill="url(#linearGradient-5)" style="mix-blend-mode: normal;" opacity="0.100000001" x="0" y="12" width="24" height="12"></rect>
                <rect id="Light" fill="url(#linearGradient-6)" opacity="0.100000001" style="mix-blend-mode: normal;" x="0" y="0" width="24" height="12"></rect>
            </g>
        </g>
        <path d="M11.5658784,7.25193053 C11.7578255,6.91602316 12.2421745,6.91602316 12.4341216,7.25193053 L12.4341216,7.25193053 L13.4322612,9 L16,9 C16.3839113,9 16.6245949,9.41474109 16.4341216,9.74806947 L15.1462612,12 L16.4341216,14.2519305 C16.6099431,14.5596183 16.4183884,14.9366754 16.0859214,14.9928636 L16,15 L13.4322612,15 L12.4341216,16.7480695 C12.2421745,17.0839768 11.7578255,17.0839768 11.5658784,16.7480695 L10.5662612,15 L8,15 C7.64562031,15 7.41328081,14.6466111 7.52944566,14.3300718 L7.56587843,14.2519305 L8.85226118,12 L7.56587843,9.74806947 C7.37540507,9.41474109 7.61608867,9 8,9 L10.5662612,9 Z M12.2802612,15 L11.7182612,15 L12,15.492 L12.2802612,15 Z M9.42726118,13.007 L8.861,14 L9.99526118,14 L9.42726118,13.007 Z M12.8512612,10 L11.1462612,10 L10.0032612,12 L11.1462612,14 L12.8512612,14 L13.9942612,12 L12.8512612,10 Z M14.5702612,13.008 L14.0032612,14 L15.138,14 L14.5702612,13.008 Z M9.99426118,10 L8.861,10 L9.42726118,10.992 L9.99426118,10 Z M15.138,10 L14.0042612,10 L14.5702612,10.992 L15.138,10 Z M12,8.508 L11.7182612,9 L12.2802612,9 L12,8.508 Z" id="Combined-Shape" fill="#0956BA" mask="url(#mask-2)"></path>
    </g>
</svg>