<?xml version="1.0" encoding="UTF-8"?>
<svg width="24px" height="24px" viewBox="0 0 24 24" version="1.1" xmlns="http://www.w3.org/2000/svg" xmlns:xlink="http://www.w3.org/1999/xlink">
    <title>IM</title>
    <defs>
        <circle id="path-1" cx="12" cy="12" r="12"></circle>
        <path d="M12,0 C18.627417,-1.21743675e-15 24,5.372583 24,12 C24,18.627417 18.627417,24 12,24 C5.372583,24 8.11624501e-16,18.627417 0,12 C-8.11624501e-16,5.372583 5.372583,1.21743675e-15 12,0 Z" id="path-3"></path>
        <linearGradient x1="50%" y1="0%" x2="50%" y2="100%" id="linearGradient-5">
            <stop stop-color="#000000" stop-opacity="0" offset="0%"></stop>
            <stop stop-color="#000000" offset="100%"></stop>
        </linearGradient>
        <linearGradient x1="50%" y1="0%" x2="50%" y2="100%" id="linearGradient-6">
            <stop stop-color="#FFFFFF" offset="0%"></stop>
            <stop stop-color="#FFFFFF" stop-opacity="0" offset="100%"></stop>
        </linearGradient>
    </defs>
    <g id="IM" stroke="none" stroke-width="1" fill="none" fill-rule="evenodd">
        <mask id="mask-2" fill="white">
            <use xlink:href="#path-1"></use>
        </mask>
        <g id="Mask"></g>
        <g id="Group" mask="url(#mask-2)">
            <g>
                <mask id="mask-4" fill="white">
                    <use xlink:href="#path-3"></use>
                </mask>
                <g id="Mask" fill-rule="nonzero"></g>
            </g>
        </g>
        <polygon id="Rectangle" fill="#F12339" mask="url(#mask-2)" points="0 0 24 0 24 24 0 24"></polygon>
        <path d="M19.5442286,7.0669873 C19.6669586,7.2795618 19.6158544,7.54479715 19.4350227,7.69808577 L19.3612159,7.75 L18.7053235,8.12867966 C18.4366894,8.28377566 18.1511434,8.4010886 17.8565279,8.47958599 L17.0154731,12.7335447 C16.8646005,13.4965549 16.1555374,14.0176672 15.3822848,13.9338316 C14.7003308,13.8598946 14.2033443,13.7967676 13.8850395,13.7431709 L13.7740386,13.7235164 L13.6526478,13.6994013 C13.3533652,13.6368776 12.9416741,13.5305441 12.4145015,13.3799077 L12.3454557,13.3615338 C12.3203663,13.3854915 12.2924767,13.4071115 12.2619758,13.425874 C11.5570578,13.8595033 11.0707795,14.1836888 10.8123475,14.3904344 C10.704282,14.4768868 10.5849131,14.5839054 10.4546453,14.7113015 L10.3207594,14.8454831 L10.202,14.969 L10.5183974,15.2699485 C10.7250244,15.4710157 10.9109689,15.6599096 11.0763282,15.8367952 L11.2348292,16.0096842 L11.3796283,16.1746043 C11.612078,16.4457957 11.9024447,16.8188634 12.2519316,17.2950616 L12.4053348,17.5054643 L12.6015639,17.7807108 C12.6858082,17.6562505 12.7783391,17.5368246 12.8787973,17.4233009 L13.0251263,17.267767 L13.1464466,17.1464466 C13.3417088,16.9511845 13.6582912,16.9511845 13.8535534,17.1464466 C14.0271197,17.320013 14.0464049,17.5894374 13.9114088,17.7843055 L13.8535534,17.8535534 L13.732233,17.9748737 C13.3102762,18.3968306 13.0547329,18.9540929 13.0078438,19.5446829 L13,19.7426407 L13,20.5 C13,20.7761424 12.7761424,21 12.5,21 C12.2545401,21 12.0503916,20.8231248 12.0080557,20.5898756 L12,20.5 L12,19.7426407 C12,19.4324487 12.041177,19.1265021 12.120504,18.8321089 L8.85699505,15.9767548 C8.27164523,15.4645902 8.17488024,14.5899673 8.6341103,13.9622287 C9.03911868,13.4086078 9.34228152,13.0097683 9.54784996,12.7609066 L9.6203717,12.6746043 L9.70195139,12.5815343 C9.90573986,12.3536098 10.2036729,12.0502416 10.5977141,11.669015 L10.6484838,11.6197723 C10.6400758,11.5856444 10.6351809,11.5502202 10.634169,11.5139407 C10.611094,10.6866491 10.5734803,10.1034271 10.5236493,9.77624558 C10.5028121,9.63943188 10.4698158,9.48254614 10.4246214,9.30603284 L10.3753596,9.12299347 L10.3277706,8.95838632 L9.90894285,9.08192026 C9.63150002,9.16033091 9.37494083,9.22691663 9.13907377,9.28167909 L8.91009701,9.33250054 L8.69487246,9.37544019 C8.34378897,9.44115189 7.87551953,9.50608296 7.28837634,9.57064833 L7.02946064,9.59829802 L6.69297564,9.63061418 C6.7586393,9.76580206 6.81579966,9.90564915 6.86388499,10.0494104 L6.92541686,10.2539019 L6.96982319,10.4196286 C7.0412941,10.6863616 6.88300285,10.9605301 6.6162698,11.032001 C6.37917376,11.0955307 6.1362028,10.9775199 6.03494007,10.7631759 L6.00389737,10.6784476 L5.95949104,10.512721 C5.80504411,9.93631718 5.4502124,9.43637902 4.96219103,9.1004769 L4.79467647,8.99470506 L4.13878407,8.6160254 C3.89963776,8.47795422 3.81770018,8.17215901 3.95577137,7.9330127 C4.07850131,7.7204382 4.33375393,7.63207801 4.55692165,7.7120386 L4.63878407,7.75 L5.29467647,8.12867966 C5.56331064,8.28377566 5.80767961,8.47240928 6.02296809,8.68830507 L10.1275318,7.28970048 C10.8637543,7.03885497 11.6695824,7.39236545 11.9836049,8.10393965 C12.2605505,8.73149767 12.4543742,9.19346411 12.5671105,9.49592246 L12.6055897,9.60187928 L12.6454008,9.71906435 C12.740895,10.0095126 12.854653,10.4192143 12.9877844,10.9510773 L13.005295,11.019739 C13.0389682,11.0295155 13.0720091,11.0429645 13.1038552,11.0601853 C13.8318482,11.4538476 14.3557402,11.7128841 14.6640032,11.83332 C14.7929059,11.8836813 14.9452711,11.9335485 15.1207333,11.9826657 L15.3038809,12.0315234 L15.4702294,12.0726137 L15.5726598,11.6481313 C15.6434756,11.3686534 15.7140902,11.1131738 15.7845981,10.8815257 L15.8550738,10.6578152 L15.9254992,10.4499555 C16.044133,10.1130524 16.2220357,9.67505366 16.4596921,9.13429006 L16.5652046,8.89623764 L16.7054605,8.588675 C16.5555525,8.57794746 16.4058612,8.55752624 16.2573177,8.52728875 L16.0494569,8.47833114 L15.8837302,8.43392481 C15.6169971,8.3624539 15.4587059,8.08828542 15.5301768,7.82155237 C15.5937065,7.58445633 15.8173923,7.4330427 16.0536511,7.45251863 L16.1425492,7.46799898 L16.3082759,7.51240531 C16.8846797,7.66685224 17.4950547,7.60952803 18.0299651,7.3548402 L18.2053235,7.26265425 L18.8612159,6.8839746 C19.1003622,6.74590341 19.4061574,6.82784099 19.5442286,7.0669873 Z" id="Combined-Shape" fill="#FFFFFF" mask="url(#mask-2)"></path>
        <g id="Group" mask="url(#mask-2)">
            <g>
                <path d="M12,0.25 C15.2446729,0.25 18.1821729,1.56516355 20.3085047,3.69149532 C22.4348365,5.81782709 23.75,8.75532709 23.75,12 C23.75,15.2446729 22.4348365,18.1821729 20.3085047,20.3085047 C18.1821729,22.4348365 15.2446729,23.75 12,23.75 C8.75532709,23.75 5.81782709,22.4348365 3.69149532,20.3085047 C1.56516355,18.1821729 0.25,15.2446729 0.25,12 C0.25,8.75532709 1.56516355,5.81782709 3.69149532,3.69149532 C5.81782709,1.56516355 8.75532709,0.25 12,0.25 Z" id="Mask" stroke-opacity="0.15" stroke="#000000" stroke-width="0.5" fill-rule="nonzero"></path>
                <rect id="Dark" fill="url(#linearGradient-5)" style="mix-blend-mode: normal;" opacity="0.100000001" x="0" y="12" width="24" height="12"></rect>
                <rect id="Light" fill="url(#linearGradient-6)" opacity="0.100000001" style="mix-blend-mode: normal;" x="0" y="0" width="24" height="12"></rect>
            </g>
        </g>
    </g>
</svg>