<?xml version="1.0" encoding="UTF-8"?>
<svg width="24px" height="24px" viewBox="0 0 24 24" version="1.1" xmlns="http://www.w3.org/2000/svg" xmlns:xlink="http://www.w3.org/1999/xlink">
    <title>IQ</title>
    <defs>
        <circle id="path-1" cx="12" cy="12" r="12"></circle>
        <path d="M12,0 C18.627417,-1.21743675e-15 24,5.372583 24,12 C24,18.627417 18.627417,24 12,24 C5.372583,24 8.11624501e-16,18.627417 0,12 C-8.11624501e-16,5.372583 5.372583,1.21743675e-15 12,0 Z" id="path-3"></path>
        <linearGradient x1="50%" y1="0%" x2="50%" y2="100%" id="linearGradient-5">
            <stop stop-color="#000000" stop-opacity="0" offset="0%"></stop>
            <stop stop-color="#000000" offset="100%"></stop>
        </linearGradient>
        <linearGradient x1="50%" y1="0%" x2="50%" y2="100%" id="linearGradient-6">
            <stop stop-color="#FFFFFF" offset="0%"></stop>
            <stop stop-color="#FFFFFF" stop-opacity="0" offset="100%"></stop>
        </linearGradient>
    </defs>
    <g id="IQ" stroke="none" stroke-width="1" fill="none" fill-rule="evenodd">
        <mask id="mask-2" fill="white">
            <use xlink:href="#path-1"></use>
        </mask>
        <g id="Mask"></g>
        <g id="Group" mask="url(#mask-2)">
            <g>
                <mask id="mask-4" fill="white">
                    <use xlink:href="#path-3"></use>
                </mask>
                <g id="Mask" fill-rule="nonzero"></g>
            </g>
        </g>
        <polygon id="Rectangle" fill="#F12339" mask="url(#mask-2)" points="0 0 24 0 24 8 0 8"></polygon>
        <polygon id="Rectangle" fill="#FFFFFF" mask="url(#mask-2)" points="0 8 24 8 24 16 0 16"></polygon>
        <polygon id="Rectangle" fill="#2E2E2E" mask="url(#mask-2)" points="0 16 24 16 24 24 0 24"></polygon>
        <g id="Group" mask="url(#mask-2)">
            <g>
                <path d="M12,0.25 C15.2446729,0.25 18.1821729,1.56516355 20.3085047,3.69149532 C22.4348365,5.81782709 23.75,8.75532709 23.75,12 C23.75,15.2446729 22.4348365,18.1821729 20.3085047,20.3085047 C18.1821729,22.4348365 15.2446729,23.75 12,23.75 C8.75532709,23.75 5.81782709,22.4348365 3.69149532,20.3085047 C1.56516355,18.1821729 0.25,15.2446729 0.25,12 C0.25,8.75532709 1.56516355,5.81782709 3.69149532,3.69149532 C5.81782709,1.56516355 8.75532709,0.25 12,0.25 Z" id="Mask" stroke-opacity="0.15" stroke="#000000" stroke-width="0.5" fill-rule="nonzero"></path>
                <rect id="Dark" fill="url(#linearGradient-5)" style="mix-blend-mode: normal;" opacity="0.100000001" x="0" y="12" width="24" height="12"></rect>
                <rect id="Light" fill="url(#linearGradient-6)" opacity="0.100000001" style="mix-blend-mode: normal;" x="0" y="0" width="24" height="12"></rect>
            </g>
        </g>
        <path d="M11.5,13.5 C11.5,13.7454599 11.3231248,13.9496084 11.0898756,13.9919443 L11,14 L5.809,14 L5.4472136,14.7236068 C5.3374406,14.9431528 5.08794067,15.0466478 4.86038302,14.980202 L4.7763932,14.9472136 C4.5568472,14.8374406 4.45335223,14.5879407 4.51979801,14.360383 L4.5527864,14.2763932 L5.0527864,13.2763932 C5.12336641,13.1352332 5.25535999,13.0374001 5.4069957,13.0087102 L5.5,13 L10.5,13 L10.4998905,12.56 L10,12.75 L7.5,12.75 C7.29954641,12.75 7.18915227,12.5318788 7.28388908,12.3734434 L7.3232233,12.3232233 L9.8232233,9.8232233 C9.92085438,9.72559223 10.0791456,9.72559223 10.1767767,9.8232233 C10.2581359,9.90458253 10.2716958,10.0280669 10.2174563,10.1234678 L10.1767767,10.1767767 L8.098,12.254 L9.90715233,12.2678808 L10.8143047,11.9050199 C10.8733648,11.8813958 10.9363903,11.8692582 11,11.8692582 C11.2454599,11.8692582 11.4496084,12.0461334 11.4919443,12.2793826 L11.5,12.3692582 L11.5,13.5 Z M18.5,10 C18.7454599,10 18.9496084,10.1768752 18.9919443,10.4101244 L19,10.5 L19,13 L19.0898756,13.0080557 C19.2939687,13.0450996 19.4549004,13.2060313 19.4919443,13.4101244 L19.5,13.5 C19.5,13.7454599 19.3231248,13.9496084 19.0898756,13.9919443 L19,14 L18.5,14 C18.2545401,14 18.0503916,13.8231248 18.0080557,13.5898756 L18,13.5 L18,10.5 C18,10.2238576 18.2238576,10 18.5,10 Z M12.5,10 C12.7454599,10 12.9496084,10.1768752 12.9919443,10.4101244 L13,10.5 L13,13 L13.0898756,13.0080557 C13.2939687,13.0450996 13.4549004,13.2060313 13.4919443,13.4101244 L13.5,13.5 C13.5,13.7454599 13.3231248,13.9496084 13.0898756,13.9919443 L13,14 L12.5,14 C12.2545401,14 12.0503916,13.8231248 12.0080557,13.5898756 L12,13.5 L12,10.5 C12,10.2238576 12.2238576,10 12.5,10 Z M16.6464466,10.6464466 C16.961429,10.3314642 17.5,10.5545476 17.5,11 L17.5,11 L17.5,13.5 C17.5,13.7761424 17.2761424,14 17,14 L17,14 L14.5,14 C14.0545476,14 13.8314642,13.461429 14.1464466,13.1464466 L14.1464466,13.1464466 Z" id="Combined-Shape" fill="#18A454" mask="url(#mask-2)"></path>
    </g>
</svg>