<?xml version="1.0" encoding="UTF-8"?>
<svg width="24px" height="24px" viewBox="0 0 24 24" version="1.1" xmlns="http://www.w3.org/2000/svg" xmlns:xlink="http://www.w3.org/1999/xlink">
    <title>IR</title>
    <defs>
        <circle id="path-1" cx="12" cy="12" r="12"></circle>
        <path d="M12,0 C18.627417,-1.21743675e-15 24,5.372583 24,12 C24,18.627417 18.627417,24 12,24 C5.372583,24 8.11624501e-16,18.627417 0,12 C-8.11624501e-16,5.372583 5.372583,1.21743675e-15 12,0 Z" id="path-3"></path>
        <linearGradient x1="50%" y1="0%" x2="50%" y2="100%" id="linearGradient-5">
            <stop stop-color="#000000" stop-opacity="0" offset="0%"></stop>
            <stop stop-color="#000000" offset="100%"></stop>
        </linearGradient>
        <linearGradient x1="50%" y1="0%" x2="50%" y2="100%" id="linearGradient-6">
            <stop stop-color="#FFFFFF" offset="0%"></stop>
            <stop stop-color="#FFFFFF" stop-opacity="0" offset="100%"></stop>
        </linearGradient>
    </defs>
    <g id="IR" stroke="none" stroke-width="1" fill="none" fill-rule="evenodd">
        <mask id="mask-2" fill="white">
            <use xlink:href="#path-1"></use>
        </mask>
        <g id="Mask"></g>
        <g id="Group" mask="url(#mask-2)">
            <g>
                <mask id="mask-4" fill="white">
                    <use xlink:href="#path-3"></use>
                </mask>
                <g id="Mask" fill-rule="nonzero"></g>
            </g>
        </g>
        <polygon id="Rectangle" fill="#18A454" mask="url(#mask-2)" points="0 0 24 0 24 8 0 8"></polygon>
        <path d="M2.25,6.5 C2.52614237,6.5 2.75,6.72385763 2.75,7 C2.75,7.27614237 2.52614237,7.5 2.25,7.5 C1.97385763,7.5 1.75,7.27614237 1.75,7 C1.75,6.72385763 1.97385763,6.5 2.25,6.5 Z M3.75,6.5 C4.02614237,6.5 4.25,6.72385763 4.25,7 C4.25,7.27614237 4.02614237,7.5 3.75,7.5 C3.47385763,7.5 3.25,7.27614237 3.25,7 C3.25,6.72385763 3.47385763,6.5 3.75,6.5 Z M5.25,6.5 C5.52614237,6.5 5.75,6.72385763 5.75,7 C5.75,7.27614237 5.52614237,7.5 5.25,7.5 C4.97385763,7.5 4.75,7.27614237 4.75,7 C4.75,6.72385763 4.97385763,6.5 5.25,6.5 Z M6.75,6.5 C7.02614237,6.5 7.25,6.72385763 7.25,7 C7.25,7.27614237 7.02614237,7.5 6.75,7.5 C6.47385763,7.5 6.25,7.27614237 6.25,7 C6.25,6.72385763 6.47385763,6.5 6.75,6.5 Z M8.25,6.5 C8.52614237,6.5 8.75,6.72385763 8.75,7 C8.75,7.27614237 8.52614237,7.5 8.25,7.5 C7.97385763,7.5 7.75,7.27614237 7.75,7 C7.75,6.72385763 7.97385763,6.5 8.25,6.5 Z M9.75,6.5 C10.0261424,6.5 10.25,6.72385763 10.25,7 C10.25,7.27614237 10.0261424,7.5 9.75,7.5 C9.47385763,7.5 9.25,7.27614237 9.25,7 C9.25,6.72385763 9.47385763,6.5 9.75,6.5 Z M11.25,6.5 C11.5261424,6.5 11.75,6.72385763 11.75,7 C11.75,7.27614237 11.5261424,7.5 11.25,7.5 C10.9738576,7.5 10.75,7.27614237 10.75,7 C10.75,6.72385763 10.9738576,6.5 11.25,6.5 Z M17.25,6.5 C17.5261424,6.5 17.75,6.72385763 17.75,7 C17.75,7.27614237 17.5261424,7.5 17.25,7.5 C16.9738576,7.5 16.75,7.27614237 16.75,7 C16.75,6.72385763 16.9738576,6.5 17.25,6.5 Z M12.75,6.5 C13.0261424,6.5 13.25,6.72385763 13.25,7 C13.25,7.27614237 13.0261424,7.5 12.75,7.5 C12.4738576,7.5 12.25,7.27614237 12.25,7 C12.25,6.72385763 12.4738576,6.5 12.75,6.5 Z M18.75,6.5 C19.0261424,6.5 19.25,6.72385763 19.25,7 C19.25,7.27614237 19.0261424,7.5 18.75,7.5 C18.4738576,7.5 18.25,7.27614237 18.25,7 C18.25,6.72385763 18.4738576,6.5 18.75,6.5 Z M14.25,6.5 C14.5261424,6.5 14.75,6.72385763 14.75,7 C14.75,7.27614237 14.5261424,7.5 14.25,7.5 C13.9738576,7.5 13.75,7.27614237 13.75,7 C13.75,6.72385763 13.9738576,6.5 14.25,6.5 Z M20.25,6.5 C20.5261424,6.5 20.75,6.72385763 20.75,7 C20.75,7.27614237 20.5261424,7.5 20.25,7.5 C19.9738576,7.5 19.75,7.27614237 19.75,7 C19.75,6.72385763 19.9738576,6.5 20.25,6.5 Z M15.75,6.5 C16.0261424,6.5 16.25,6.72385763 16.25,7 C16.25,7.27614237 16.0261424,7.5 15.75,7.5 C15.4738576,7.5 15.25,7.27614237 15.25,7 C15.25,6.72385763 15.4738576,6.5 15.75,6.5 Z M21.75,6.5 C22.0261424,6.5 22.25,6.72385763 22.25,7 C22.25,7.27614237 22.0261424,7.5 21.75,7.5 C21.4738576,7.5 21.25,7.27614237 21.25,7 C21.25,6.72385763 21.4738576,6.5 21.75,6.5 Z" id="Combined-Shape" fill="#FFFFFF" mask="url(#mask-2)"></path>
        <polygon id="Rectangle" fill="#FFFFFF" mask="url(#mask-2)" points="0 8 24 8 24 16 0 16"></polygon>
        <path d="M12,9 C13.6568542,9 15,10.3431458 15,12 C15,13.6568542 13.6568542,15 12,15 C10.3431458,15 9,13.6568542 9,12 C9,10.3431458 10.3431458,9 12,9 Z M12,10 C10.8954305,10 10,10.8954305 10,12 C10,13.1045695 10.8954305,14 12,14 C13.1045695,14 14,13.1045695 14,12 C14,10.8954305 13.1045695,10 12,10 Z" id="Oval" fill="#F12339" mask="url(#mask-2)"></path>
        <polygon id="Rectangle" fill="#F12339" mask="url(#mask-2)" points="0 16 24 16 24 24 0 24"></polygon>
        <path d="M2.25,16.5 C2.52614237,16.5 2.75,16.7238576 2.75,17 C2.75,17.2761424 2.52614237,17.5 2.25,17.5 C1.97385763,17.5 1.75,17.2761424 1.75,17 C1.75,16.7238576 1.97385763,16.5 2.25,16.5 Z M3.75,16.5 C4.02614237,16.5 4.25,16.7238576 4.25,17 C4.25,17.2761424 4.02614237,17.5 3.75,17.5 C3.47385763,17.5 3.25,17.2761424 3.25,17 C3.25,16.7238576 3.47385763,16.5 3.75,16.5 Z M5.25,16.5 C5.52614237,16.5 5.75,16.7238576 5.75,17 C5.75,17.2761424 5.52614237,17.5 5.25,17.5 C4.97385763,17.5 4.75,17.2761424 4.75,17 C4.75,16.7238576 4.97385763,16.5 5.25,16.5 Z M6.75,16.5 C7.02614237,16.5 7.25,16.7238576 7.25,17 C7.25,17.2761424 7.02614237,17.5 6.75,17.5 C6.47385763,17.5 6.25,17.2761424 6.25,17 C6.25,16.7238576 6.47385763,16.5 6.75,16.5 Z M8.25,16.5 C8.52614237,16.5 8.75,16.7238576 8.75,17 C8.75,17.2761424 8.52614237,17.5 8.25,17.5 C7.97385763,17.5 7.75,17.2761424 7.75,17 C7.75,16.7238576 7.97385763,16.5 8.25,16.5 Z M9.75,16.5 C10.0261424,16.5 10.25,16.7238576 10.25,17 C10.25,17.2761424 10.0261424,17.5 9.75,17.5 C9.47385763,17.5 9.25,17.2761424 9.25,17 C9.25,16.7238576 9.47385763,16.5 9.75,16.5 Z M11.25,16.5 C11.5261424,16.5 11.75,16.7238576 11.75,17 C11.75,17.2761424 11.5261424,17.5 11.25,17.5 C10.9738576,17.5 10.75,17.2761424 10.75,17 C10.75,16.7238576 10.9738576,16.5 11.25,16.5 Z M17.25,16.5 C17.5261424,16.5 17.75,16.7238576 17.75,17 C17.75,17.2761424 17.5261424,17.5 17.25,17.5 C16.9738576,17.5 16.75,17.2761424 16.75,17 C16.75,16.7238576 16.9738576,16.5 17.25,16.5 Z M12.75,16.5 C13.0261424,16.5 13.25,16.7238576 13.25,17 C13.25,17.2761424 13.0261424,17.5 12.75,17.5 C12.4738576,17.5 12.25,17.2761424 12.25,17 C12.25,16.7238576 12.4738576,16.5 12.75,16.5 Z M18.75,16.5 C19.0261424,16.5 19.25,16.7238576 19.25,17 C19.25,17.2761424 19.0261424,17.5 18.75,17.5 C18.4738576,17.5 18.25,17.2761424 18.25,17 C18.25,16.7238576 18.4738576,16.5 18.75,16.5 Z M14.25,16.5 C14.5261424,16.5 14.75,16.7238576 14.75,17 C14.75,17.2761424 14.5261424,17.5 14.25,17.5 C13.9738576,17.5 13.75,17.2761424 13.75,17 C13.75,16.7238576 13.9738576,16.5 14.25,16.5 Z M20.25,16.5 C20.5261424,16.5 20.75,16.7238576 20.75,17 C20.75,17.2761424 20.5261424,17.5 20.25,17.5 C19.9738576,17.5 19.75,17.2761424 19.75,17 C19.75,16.7238576 19.9738576,16.5 20.25,16.5 Z M15.75,16.5 C16.0261424,16.5 16.25,16.7238576 16.25,17 C16.25,17.2761424 16.0261424,17.5 15.75,17.5 C15.4738576,17.5 15.25,17.2761424 15.25,17 C15.25,16.7238576 15.4738576,16.5 15.75,16.5 Z M21.75,16.5 C22.0261424,16.5 22.25,16.7238576 22.25,17 C22.25,17.2761424 22.0261424,17.5 21.75,17.5 C21.4738576,17.5 21.25,17.2761424 21.25,17 C21.25,16.7238576 21.4738576,16.5 21.75,16.5 Z" id="Combined-Shape" fill="#FFFFFF" mask="url(#mask-2)"></path>
        <g id="Group" mask="url(#mask-2)">
            <g>
                <path d="M12,0.25 C15.2446729,0.25 18.1821729,1.56516355 20.3085047,3.69149532 C22.4348365,5.81782709 23.75,8.75532709 23.75,12 C23.75,15.2446729 22.4348365,18.1821729 20.3085047,20.3085047 C18.1821729,22.4348365 15.2446729,23.75 12,23.75 C8.75532709,23.75 5.81782709,22.4348365 3.69149532,20.3085047 C1.56516355,18.1821729 0.25,15.2446729 0.25,12 C0.25,8.75532709 1.56516355,5.81782709 3.69149532,3.69149532 C5.81782709,1.56516355 8.75532709,0.25 12,0.25 Z" id="Mask" stroke-opacity="0.15" stroke="#000000" stroke-width="0.5" fill-rule="nonzero"></path>
                <rect id="Dark" fill="url(#linearGradient-5)" style="mix-blend-mode: normal;" opacity="0.100000001" x="0" y="12" width="24" height="12"></rect>
                <rect id="Light" fill="url(#linearGradient-6)" opacity="0.100000001" style="mix-blend-mode: normal;" x="0" y="0" width="24" height="12"></rect>
            </g>
        </g>
    </g>
</svg>