<?xml version="1.0" encoding="UTF-8"?>
<svg width="24px" height="24px" viewBox="0 0 24 24" version="1.1" xmlns="http://www.w3.org/2000/svg" xmlns:xlink="http://www.w3.org/1999/xlink">
    <title>JE</title>
    <defs>
        <circle id="path-1" cx="12" cy="12" r="12"></circle>
        <path d="M12,0 C18.627417,-1.21743675e-15 24,5.372583 24,12 C24,18.627417 18.627417,24 12,24 C5.372583,24 8.11624501e-16,18.627417 0,12 C-8.11624501e-16,5.372583 5.372583,1.21743675e-15 12,0 Z" id="path-3"></path>
        <linearGradient x1="50%" y1="0%" x2="50%" y2="100%" id="linearGradient-5">
            <stop stop-color="#000000" stop-opacity="0" offset="0%"></stop>
            <stop stop-color="#000000" offset="100%"></stop>
        </linearGradient>
        <linearGradient x1="50%" y1="0%" x2="50%" y2="100%" id="linearGradient-6">
            <stop stop-color="#FFFFFF" offset="0%"></stop>
            <stop stop-color="#FFFFFF" stop-opacity="0" offset="100%"></stop>
        </linearGradient>
    </defs>
    <g id="JE" stroke="none" stroke-width="1" fill="none" fill-rule="evenodd">
        <mask id="mask-2" fill="white">
            <use xlink:href="#path-1"></use>
        </mask>
        <g id="Mask"></g>
        <g id="Group" mask="url(#mask-2)">
            <g>
                <mask id="mask-4" fill="white">
                    <use xlink:href="#path-3"></use>
                </mask>
                <g id="Mask" fill-rule="nonzero"></g>
            </g>
        </g>
        <rect id="Rectangle" fill="#FFFFFF" mask="url(#mask-2)" x="0" y="0" width="24" height="24"></rect>
        <path d="M24,-1.01474344e-13 L23.9998932,1.41489322 L13.4138932,11.9998932 L23.9998932,22.5848932 L24,24 L22.5848932,23.9998932 L11.9998932,13.4138932 L1.41489322,23.9998932 L3.03535056e-13,24 L-0.000106781186,22.5848932 L10.5858932,11.9998932 L-0.000106781186,1.41489322 L3.03535056e-13,-1.01474344e-13 L1.41489322,-0.000106781187 L11.9998932,10.5858932 L22.5848932,-0.000106781187 L24,-1.01474344e-13 Z" id="Combined-Shape" fill="#F12339" mask="url(#mask-2)"></path>
        <path d="M10.5,3 L13.5,3 C13.7761424,3 14,3.22385763 14,3.5 L14,5.76393202 C14,7.1343422 13.2257321,8.38713394 12,9 L12,9 L12,9 C10.7742679,8.38713394 10,7.1343422 10,5.76393202 L10,3.5 C10,3.22385763 10.2238576,3 10.5,3 Z" id="Rectangle" fill="#F12339" mask="url(#mask-2)"></path>
        <g id="Group" mask="url(#mask-2)">
            <g>
                <path d="M12,0.25 C15.2446729,0.25 18.1821729,1.56516355 20.3085047,3.69149532 C22.4348365,5.81782709 23.75,8.75532709 23.75,12 C23.75,15.2446729 22.4348365,18.1821729 20.3085047,20.3085047 C18.1821729,22.4348365 15.2446729,23.75 12,23.75 C8.75532709,23.75 5.81782709,22.4348365 3.69149532,20.3085047 C1.56516355,18.1821729 0.25,15.2446729 0.25,12 C0.25,8.75532709 1.56516355,5.81782709 3.69149532,3.69149532 C5.81782709,1.56516355 8.75532709,0.25 12,0.25 Z" id="Mask" stroke-opacity="0.15" stroke="#000000" stroke-width="0.5" fill-rule="nonzero"></path>
                <rect id="Dark" fill="url(#linearGradient-5)" style="mix-blend-mode: normal;" opacity="0.100000001" x="0" y="12" width="24" height="12"></rect>
                <rect id="Light" fill="url(#linearGradient-6)" opacity="0.100000001" style="mix-blend-mode: normal;" x="0" y="0" width="24" height="12"></rect>
            </g>
        </g>
        <path d="M14,1 L10,1 C9.62830899,1 9.38656113,1.39115625 9.5527864,1.7236068 L10.0527864,2.7236068 C10.1374824,2.89299881 10.310614,3 10.5,3 L13.5,3 C13.689386,3 13.8625176,2.89299881 13.9472136,2.7236068 L14.4472136,1.7236068 C14.6134389,1.39115625 14.371691,1 14,1 Z" id="Path-47" fill="#FFD400" mask="url(#mask-2)"></path>
    </g>
</svg>