<?xml version="1.0" encoding="UTF-8"?>
<svg width="24px" height="24px" viewBox="0 0 24 24" version="1.1" xmlns="http://www.w3.org/2000/svg" xmlns:xlink="http://www.w3.org/1999/xlink">
    <title>KE</title>
    <defs>
        <circle id="path-1" cx="12" cy="12" r="12"></circle>
        <path d="M12,0 C18.627417,-1.21743675e-15 24,5.372583 24,12 C24,18.627417 18.627417,24 12,24 C5.372583,24 8.11624501e-16,18.627417 0,12 C-8.11624501e-16,5.372583 5.372583,1.21743675e-15 12,0 Z" id="path-3"></path>
        <path d="M3.5,14 C5,14 7,10 7,7 C7,4 5,0 3.5,0 C2,0 0,4 0,7 C0,10 2,14 3.5,14 Z" id="path-5"></path>
        <linearGradient x1="50%" y1="0%" x2="50%" y2="100%" id="linearGradient-7">
            <stop stop-color="#000000" stop-opacity="0" offset="0%"></stop>
            <stop stop-color="#000000" offset="100%"></stop>
        </linearGradient>
        <linearGradient x1="50%" y1="0%" x2="50%" y2="100%" id="linearGradient-8">
            <stop stop-color="#FFFFFF" offset="0%"></stop>
            <stop stop-color="#FFFFFF" stop-opacity="0" offset="100%"></stop>
        </linearGradient>
    </defs>
    <g id="KE" stroke="none" stroke-width="1" fill="none" fill-rule="evenodd">
        <mask id="mask-2" fill="white">
            <use xlink:href="#path-1"></use>
        </mask>
        <g id="Mask"></g>
        <g id="Group" mask="url(#mask-2)">
            <g>
                <mask id="mask-4" fill="white">
                    <use xlink:href="#path-3"></use>
                </mask>
                <g id="Mask" fill-rule="nonzero"></g>
            </g>
        </g>
        <polygon id="Rectangle" fill="#2E2E2E" mask="url(#mask-2)" points="0 0 24 0 24 7 0 7"></polygon>
        <polygon id="Rectangle" fill="#FFFFFF" mask="url(#mask-2)" points="0 7 24 7 24 8 0 8"></polygon>
        <polygon id="Rectangle" fill="#FFFFFF" mask="url(#mask-2)" points="0 16 24 16 24 17 0 17"></polygon>
        <polygon id="Rectangle" fill="#F12339" mask="url(#mask-2)" points="0 8 24 8 24 16 0 16"></polygon>
        <polygon id="Rectangle" fill="#18A454" mask="url(#mask-2)" points="0 17 24 17 24 24 0 24"></polygon>
        <path d="M7.25193053,4.06587843 C7.4650494,3.94409622 7.73005457,3.99638085 7.88253649,4.17789336 L7.93412157,4.25193053 L15.9341216,18.2519305 C16.0711266,18.4916893 15.9878282,18.7971166 15.7480695,18.9341216 C15.5349506,19.0559038 15.2699454,19.0036191 15.1174635,18.8221066 L15.0658784,18.7480695 L7.06587843,4.74806947 C6.92887344,4.50831075 7.01217181,4.20288341 7.25193053,4.06587843 Z" id="Path" fill="#FFFFFF" mask="url(#mask-2)"></path>
        <path d="M8.25193053,4.06587843 C8.4650494,3.94409622 8.73005457,3.99638085 8.88253649,4.17789336 L8.93412157,4.25193053 L16.9341216,18.2519305 C17.0711266,18.4916893 16.9878282,18.7971166 16.7480695,18.9341216 C16.5349506,19.0559038 16.2699454,19.0036191 16.1174635,18.8221066 L16.0658784,18.7480695 L8.06587843,4.74806947 C7.92887344,4.50831075 8.01217181,4.20288341 8.25193053,4.06587843 Z" id="Path" fill="#FFFFFF" mask="url(#mask-2)" transform="translate(12.500000, 11.500000) scale(-1, 1) translate(-12.500000, -11.500000) "></path>
        <g id="Oval-2" mask="url(#mask-2)">
            <g transform="translate(8.500000, 5.000000)">
                <mask id="mask-6" fill="white">
                    <use xlink:href="#path-5"></use>
                </mask>
                <use id="Mask" stroke="none" fill="#F12339" fill-rule="evenodd" xlink:href="#path-5"></use>
                <ellipse id="Oval" stroke="none" fill="#2E2E2E" fill-rule="evenodd" mask="url(#mask-6)" cx="0.5" cy="7" rx="1" ry="4"></ellipse>
                <ellipse id="Oval" stroke="none" fill="#2E2E2E" fill-rule="evenodd" mask="url(#mask-6)" cx="6.5" cy="7" rx="1" ry="4"></ellipse>
            </g>
        </g>
        <ellipse id="Oval" fill="#FFFFFF" mask="url(#mask-2)" cx="12" cy="8.125" rx="1" ry="2.625"></ellipse>
        <ellipse id="Oval" fill="#FFFFFF" mask="url(#mask-2)" cx="12" cy="15.875" rx="1" ry="2.625"></ellipse>
        <ellipse id="Oval" fill="#FFFFFF" mask="url(#mask-2)" cx="12" cy="12" rx="1" ry="1"></ellipse>
        <g id="Group" mask="url(#mask-2)">
            <g>
                <path d="M12,0.25 C15.2446729,0.25 18.1821729,1.56516355 20.3085047,3.69149532 C22.4348365,5.81782709 23.75,8.75532709 23.75,12 C23.75,15.2446729 22.4348365,18.1821729 20.3085047,20.3085047 C18.1821729,22.4348365 15.2446729,23.75 12,23.75 C8.75532709,23.75 5.81782709,22.4348365 3.69149532,20.3085047 C1.56516355,18.1821729 0.25,15.2446729 0.25,12 C0.25,8.75532709 1.56516355,5.81782709 3.69149532,3.69149532 C5.81782709,1.56516355 8.75532709,0.25 12,0.25 Z" id="Mask" stroke-opacity="0.15" stroke="#000000" stroke-width="0.5" fill-rule="nonzero"></path>
                <rect id="Dark" fill="url(#linearGradient-7)" style="mix-blend-mode: normal;" opacity="0.100000001" x="0" y="12" width="24" height="12"></rect>
                <rect id="Light" fill="url(#linearGradient-8)" opacity="0.100000001" style="mix-blend-mode: normal;" x="0" y="0" width="24" height="12"></rect>
            </g>
        </g>
    </g>
</svg>