<?xml version="1.0" encoding="UTF-8"?>
<svg width="24px" height="24px" viewBox="0 0 24 24" version="1.1" xmlns="http://www.w3.org/2000/svg" xmlns:xlink="http://www.w3.org/1999/xlink">
    <title>KG</title>
    <defs>
        <circle id="path-1" cx="12" cy="12" r="12"></circle>
        <path d="M12,0 C18.627417,-1.21743675e-15 24,5.372583 24,12 C24,18.627417 18.627417,24 12,24 C5.372583,24 8.11624501e-16,18.627417 0,12 C-8.11624501e-16,5.372583 5.372583,1.21743675e-15 12,0 Z" id="path-3"></path>
        <linearGradient x1="50%" y1="0%" x2="50%" y2="100%" id="linearGradient-5">
            <stop stop-color="#000000" stop-opacity="0" offset="0%"></stop>
            <stop stop-color="#000000" offset="100%"></stop>
        </linearGradient>
        <linearGradient x1="50%" y1="0%" x2="50%" y2="100%" id="linearGradient-6">
            <stop stop-color="#FFFFFF" offset="0%"></stop>
            <stop stop-color="#FFFFFF" stop-opacity="0" offset="100%"></stop>
        </linearGradient>
    </defs>
    <g id="KG" stroke="none" stroke-width="1" fill="none" fill-rule="evenodd">
        <mask id="mask-2" fill="white">
            <use xlink:href="#path-1"></use>
        </mask>
        <g id="Mask"></g>
        <g id="Group" mask="url(#mask-2)">
            <g>
                <mask id="mask-4" fill="white">
                    <use xlink:href="#path-3"></use>
                </mask>
                <g id="Mask" fill-rule="nonzero"></g>
            </g>
        </g>
        <rect id="Rectangle" fill="#F12339" mask="url(#mask-2)" x="0" y="0" width="24" height="24"></rect>
        <path d="M12,5 C8.13400675,5 5,8.13400675 5,12 C5,15.8659932 8.13400675,19 12,19 C15.8659932,19 19,15.8659932 19,12 C19,8.13400675 15.8659932,5 12,5 Z M12,7 C14.7614237,7 17,9.23857625 17,12 C17,14.7614237 14.7614237,17 12,17 C9.23857625,17 7,14.7614237 7,12 C7,9.23857625 9.23857625,7 12,7 Z" id="Oval" fill="#FFD400" mask="url(#mask-2)"></path>
        <g id="Group" mask="url(#mask-2)">
            <g>
                <path d="M12,0.25 C15.2446729,0.25 18.1821729,1.56516355 20.3085047,3.69149532 C22.4348365,5.81782709 23.75,8.75532709 23.75,12 C23.75,15.2446729 22.4348365,18.1821729 20.3085047,20.3085047 C18.1821729,22.4348365 15.2446729,23.75 12,23.75 C8.75532709,23.75 5.81782709,22.4348365 3.69149532,20.3085047 C1.56516355,18.1821729 0.25,15.2446729 0.25,12 C0.25,8.75532709 1.56516355,5.81782709 3.69149532,3.69149532 C5.81782709,1.56516355 8.75532709,0.25 12,0.25 Z" id="Mask" stroke-opacity="0.15" stroke="#000000" stroke-width="0.5" fill-rule="nonzero"></path>
                <rect id="Dark" fill="url(#linearGradient-5)" style="mix-blend-mode: normal;" opacity="0.100000001" x="0" y="12" width="24" height="12"></rect>
                <rect id="Light" fill="url(#linearGradient-6)" opacity="0.100000001" style="mix-blend-mode: normal;" x="0" y="0" width="24" height="12"></rect>
            </g>
        </g>
        <path d="M14.3819453,15.2130192 L14.3321526,15.2501508 C13.6756219,15.7220794 12.8702669,16 12,16 C11.1080217,16 10.2842344,15.7080393 9.61898915,15.2144688 C9.92009833,13.5876954 10.7837201,12.1596785 12.0000149,11.1378737 C13.2167548,12.1604639 14.0799847,13.5881423 14.3819453,15.2130192 Z M11.1677606,10.5366724 L11.0942305,10.6026781 C10.0013592,11.6049952 9.18793146,12.9071279 8.78426335,14.3787599 C8.29136878,13.7140945 8,12.8910737 8,12 C8,11.1080217 8.2919607,10.2842344 8.78553121,9.61898915 C9.64596343,9.77768458 10.4498359,10.0941697 11.1677606,10.5366724 Z M15.2144688,9.61898915 C15.7080393,10.2842344 16,11.1080217 16,12 C16,12.8910737 15.7086312,13.7140945 15.2159699,14.3789863 C14.8031926,12.8747692 13.9626709,11.5478139 12.8332745,10.5369967 C13.5155763,10.1154883 14.2767791,9.80847192 15.0892558,9.64221512 Z M12,8 C12.8910737,8 13.7140945,8.29136878 14.3789863,8.78403009 C13.5194077,9.01998333 12.7178534,9.39542799 12.0000456,9.88464872 C11.2828956,9.39577884 10.4809938,9.02009346 9.62124014,8.78426335 C10.2859055,8.29136878 11.1089263,8 12,8 Z" id="Combined-Shape" fill="#FFD400" mask="url(#mask-2)"></path>
    </g>
</svg>