<?xml version="1.0" encoding="UTF-8"?>
<svg width="24px" height="24px" viewBox="0 0 24 24" version="1.1" xmlns="http://www.w3.org/2000/svg" xmlns:xlink="http://www.w3.org/1999/xlink">
    <title>KH</title>
    <defs>
        <circle id="path-1" cx="12" cy="12" r="12"></circle>
        <path d="M12,0 C18.627417,-1.21743675e-15 24,5.372583 24,12 C24,18.627417 18.627417,24 12,24 C5.372583,24 8.11624501e-16,18.627417 0,12 C-8.11624501e-16,5.372583 5.372583,1.21743675e-15 12,0 Z" id="path-3"></path>
        <linearGradient x1="50%" y1="0%" x2="50%" y2="100%" id="linearGradient-5">
            <stop stop-color="#000000" stop-opacity="0" offset="0%"></stop>
            <stop stop-color="#000000" offset="100%"></stop>
        </linearGradient>
        <linearGradient x1="50%" y1="0%" x2="50%" y2="100%" id="linearGradient-6">
            <stop stop-color="#FFFFFF" offset="0%"></stop>
            <stop stop-color="#FFFFFF" stop-opacity="0" offset="100%"></stop>
        </linearGradient>
    </defs>
    <g id="KH" stroke="none" stroke-width="1" fill="none" fill-rule="evenodd">
        <mask id="mask-2" fill="white">
            <use xlink:href="#path-1"></use>
        </mask>
        <g id="Mask"></g>
        <g id="Group" mask="url(#mask-2)">
            <g>
                <mask id="mask-4" fill="white">
                    <use xlink:href="#path-3"></use>
                </mask>
                <g id="Mask" fill-rule="nonzero"></g>
            </g>
        </g>
        <polygon id="Rectangle" fill="#0956BA" mask="url(#mask-2)" points="0 0 24 0 24 6 0 6"></polygon>
        <polygon id="Rectangle" fill="#F12339" mask="url(#mask-2)" points="0 6 24 6 24 18 0 18"></polygon>
        <path d="M11.4472136,7.48753882 L11.2848665,7.83014273 C10.8717221,8.75184313 10.6172652,9.73652679 10.5320311,10.7425173 L10.516,11 L8.472,11 L8.46811452,10.9513521 C8.4045554,10.4063921 8.24661079,9.87518759 8,9.38196601 L7.9472136,9.2763932 C7.76295146,8.90786893 7.23704854,8.90786893 7.0527864,9.2763932 L7,9.38196601 L6.88421189,9.63139309 C6.70358229,10.0520656 6.58494634,10.4966125 6.53191512,10.9510963 L6.527,11 L6,11 L5.91665838,11.0067388 C5.59353105,11.0598305 5.39934769,11.4167294 5.5527864,11.7236068 L6,12.619 L6,14.292 L4.14644661,16.1464466 C3.83146418,16.461429 4.05454757,17 4.5,17 L19.5,17 L19.586032,16.9930449 C19.9728055,16.9291843 20.147537,16.4404302 19.8535534,16.1464466 L18,14.293 L18,12.617 L18.4472136,11.7236068 L18.4784577,11.6460501 C18.575478,11.3332929 18.3430994,11 18,11 L17.472,11 L17.4681145,10.9513521 C17.4045554,10.4063921 17.2466108,9.87518759 17,9.38196601 L16.9472136,9.2763932 C16.7629515,8.90786893 16.2370485,8.90786893 16.0527864,9.2763932 L16,9.38196601 L15.8842119,9.63139309 C15.7035823,10.0520656 15.5849463,10.4966125 15.5319151,10.9510963 L15.527,11 L13.484,11 L13.473094,10.8056577 C13.3836055,9.65275619 13.0718822,8.52573035 12.5527864,7.48753882 L12.4472136,7.2763932 C12.2629515,6.90786893 11.7370485,6.90786893 11.5527864,7.2763932 L11.4472136,7.48753882 Z" id="Path" fill="#FFFFFF" mask="url(#mask-2)"></path>
        <polygon id="Rectangle" fill="#0956BA" mask="url(#mask-2)" points="0 18 24 18 24 24 0 24"></polygon>
        <g id="Group" mask="url(#mask-2)">
            <g>
                <path d="M12,0.25 C15.2446729,0.25 18.1821729,1.56516355 20.3085047,3.69149532 C22.4348365,5.81782709 23.75,8.75532709 23.75,12 C23.75,15.2446729 22.4348365,18.1821729 20.3085047,20.3085047 C18.1821729,22.4348365 15.2446729,23.75 12,23.75 C8.75532709,23.75 5.81782709,22.4348365 3.69149532,20.3085047 C1.56516355,18.1821729 0.25,15.2446729 0.25,12 C0.25,8.75532709 1.56516355,5.81782709 3.69149532,3.69149532 C5.81782709,1.56516355 8.75532709,0.25 12,0.25 Z" id="Mask" stroke-opacity="0.15" stroke="#000000" stroke-width="0.5" fill-rule="nonzero"></path>
                <rect id="Dark" fill="url(#linearGradient-5)" style="mix-blend-mode: normal;" opacity="0.100000001" x="0" y="12" width="24" height="12"></rect>
                <rect id="Light" fill="url(#linearGradient-6)" opacity="0.100000001" style="mix-blend-mode: normal;" x="0" y="0" width="24" height="12"></rect>
            </g>
        </g>
    </g>
</svg>