<?xml version="1.0" encoding="UTF-8"?>
<svg width="24px" height="24px" viewBox="0 0 24 24" version="1.1" xmlns="http://www.w3.org/2000/svg" xmlns:xlink="http://www.w3.org/1999/xlink">
    <title>KI</title>
    <defs>
        <circle id="path-1" cx="12" cy="12" r="12"></circle>
        <path d="M12,0 C18.627417,-1.21743675e-15 24,5.372583 24,12 C24,18.627417 18.627417,24 12,24 C5.372583,24 8.11624501e-16,18.627417 0,12 C-8.11624501e-16,5.372583 5.372583,1.21743675e-15 12,0 Z" id="path-3"></path>
        <linearGradient x1="50%" y1="0%" x2="50%" y2="100%" id="linearGradient-5">
            <stop stop-color="#000000" stop-opacity="0" offset="0%"></stop>
            <stop stop-color="#000000" offset="100%"></stop>
        </linearGradient>
        <linearGradient x1="50%" y1="0%" x2="50%" y2="100%" id="linearGradient-6">
            <stop stop-color="#FFFFFF" offset="0%"></stop>
            <stop stop-color="#FFFFFF" stop-opacity="0" offset="100%"></stop>
        </linearGradient>
    </defs>
    <g id="KI" stroke="none" stroke-width="1" fill="none" fill-rule="evenodd">
        <mask id="mask-2" fill="white">
            <use xlink:href="#path-1"></use>
        </mask>
        <g id="Mask"></g>
        <g id="Group" mask="url(#mask-2)">
            <g>
                <mask id="mask-4" fill="white">
                    <use xlink:href="#path-3"></use>
                </mask>
                <g id="Mask" fill-rule="nonzero"></g>
            </g>
        </g>
        <polygon id="Rectangle" fill="#F12339" mask="url(#mask-2)" points="0 0 24 0 24 14 0 14"></polygon>
        <circle id="Oval" fill="#FFD400" mask="url(#mask-2)" cx="12" cy="12" r="6"></circle>
        <polygon id="Rectangle" fill="#0956BA" mask="url(#mask-2)" points="0 14 24 14 24 24 0 24"></polygon>
        <path d="M17,19.5 C18.0792702,19.5 18.705041,19.6266373 19.5955707,19.9639314 L19.8713907,20.0715233 C20.7006601,20.4032311 21.1038639,20.5 22,20.5 C22.6656731,20.5 23.3321014,20.4421861 23.9997499,20.3262415 L23.99994,22.3518057 C23.3340444,22.4505353 22.6673,22.5 22,22.5 C20.9207298,22.5 20.294959,22.3733627 19.4044293,22.0360686 L19.1286093,21.9284767 C18.2993399,21.5967689 17.8961361,21.5 17,21.5 C16.1934775,21.5 15.7862302,21.5783828 15.1083085,21.8358744 L14.8713907,21.9284767 C13.8256601,22.3467689 13.1871972,22.5 12,22.5 C10.9207298,22.5 10.294959,22.3733627 9.40442927,22.0360686 L9.12860932,21.9284767 C8.29933986,21.5967689 7.89613609,21.5 7,21.5 C6.19347752,21.5 5.78623022,21.5783828 5.10830854,21.8358744 L4.87139068,21.9284767 C3.82566014,22.3467689 3.18719724,22.5 2,22.5 C1.33254675,22.5 0.665649322,22.4505126 -0.000398808592,22.3517377 L-0.000516784858,20.3261083 C0.667388274,20.4421418 1.33407206,20.5 2,20.5 C2.80652248,20.5 3.21376978,20.4216172 3.89169146,20.1641256 L4.12860932,20.0715233 C5.17433986,19.6532311 5.81280276,19.5 7,19.5 C8.07927022,19.5 8.70504098,19.6266373 9.59557073,19.9639314 L9.87139068,20.0715233 C10.7006601,20.4032311 11.1038639,20.5 12,20.5 C12.8065225,20.5 13.2137698,20.4216172 13.8916915,20.1641256 L14.1286093,20.0715233 C15.1743399,19.6532311 15.8128028,19.5 17,19.5 Z M17,15.75 C18.0792702,15.75 18.705041,15.8766373 19.5955707,16.2139314 L19.8713907,16.3215233 C20.7006601,16.6532311 21.1038639,16.75 22,16.75 C22.6656731,16.75 23.3321014,16.6921861 23.9997499,16.5762415 L23.99994,18.6018057 C23.3340444,18.7005353 22.6673,18.75 22,18.75 C20.9207298,18.75 20.294959,18.6233627 19.4044293,18.2860686 L19.1286093,18.1784767 C18.2993399,17.8467689 17.8961361,17.75 17,17.75 C16.1934775,17.75 15.7862302,17.8283828 15.1083085,18.0858744 L14.8713907,18.1784767 C13.8256601,18.5967689 13.1871972,18.75 12,18.75 C10.9207298,18.75 10.294959,18.6233627 9.40442927,18.2860686 L9.12860932,18.1784767 C8.29933986,17.8467689 7.89613609,17.75 7,17.75 C6.19347752,17.75 5.78623022,17.8283828 5.10830854,18.0858744 L4.87139068,18.1784767 C3.82566014,18.5967689 3.18719724,18.75 2,18.75 C1.33254675,18.75 0.665649322,18.7005126 -0.000398808592,18.6017377 L-0.000516784858,16.5761083 C0.667388274,16.6921418 1.33407206,16.75 2,16.75 C2.80652248,16.75 3.21376978,16.6716172 3.89169146,16.4141256 L4.12860932,16.3215233 C5.17433986,15.9032311 5.81280276,15.75 7,15.75 C8.07927022,15.75 8.70504098,15.8766373 9.59557073,16.2139314 L9.87139068,16.3215233 C10.7006601,16.6532311 11.1038639,16.75 12,16.75 C12.8065225,16.75 13.2137698,16.6716172 13.8916915,16.4141256 L14.1286093,16.3215233 C15.1743399,15.9032311 15.8128028,15.75 17,15.75 Z M17,12 C18.0792702,12 18.705041,12.1266373 19.5955707,12.4639314 L19.8713907,12.5715233 C20.7006601,12.9032311 21.1038639,13 22,13 C22.6656731,13 23.3321014,12.9421861 23.9997499,12.8262415 L23.99994,14.8518057 C23.3340444,14.9505353 22.6673,15 22,15 C20.9207298,15 20.294959,14.8733627 19.4044293,14.5360686 L19.1286093,14.4284767 C18.2993399,14.0967689 17.8961361,14 17,14 C16.1934775,14 15.7862302,14.0783828 15.1083085,14.3358744 L14.8713907,14.4284767 C13.8256601,14.8467689 13.1871972,15 12,15 C10.9207298,15 10.294959,14.8733627 9.40442927,14.5360686 L9.12860932,14.4284767 C8.29933986,14.0967689 7.89613609,14 7,14 C6.19347752,14 5.78623022,14.0783828 5.10830854,14.3358744 L4.87139068,14.4284767 C3.82566014,14.8467689 3.18719724,15 2,15 C1.33254675,15 0.665649322,14.9505126 -0.000398808592,14.8517377 L-0.000516784858,12.8261083 C0.667388274,12.9421418 1.33407206,13 2,13 C2.80652248,13 3.21376978,12.9216172 3.89169146,12.6641256 L4.12860932,12.5715233 C5.17433986,12.1532311 5.81280276,12 7,12 C8.07927022,12 8.70504098,12.1266373 9.59557073,12.4639314 L9.87139068,12.5715233 C10.7006601,12.9032311 11.1038639,13 12,13 C12.8065225,13 13.2137698,12.9216172 13.8916915,12.6641256 L14.1286093,12.5715233 C15.1743399,12.1532311 15.8128028,12 17,12 Z" id="Combined-Shape" fill="#FFFFFF" mask="url(#mask-2)"></path>
        <g id="Group" mask="url(#mask-2)">
            <g>
                <path d="M12,0.25 C15.2446729,0.25 18.1821729,1.56516355 20.3085047,3.69149532 C22.4348365,5.81782709 23.75,8.75532709 23.75,12 C23.75,15.2446729 22.4348365,18.1821729 20.3085047,20.3085047 C18.1821729,22.4348365 15.2446729,23.75 12,23.75 C8.75532709,23.75 5.81782709,22.4348365 3.69149532,20.3085047 C1.56516355,18.1821729 0.25,15.2446729 0.25,12 C0.25,8.75532709 1.56516355,5.81782709 3.69149532,3.69149532 C5.81782709,1.56516355 8.75532709,0.25 12,0.25 Z" id="Mask" stroke-opacity="0.15" stroke="#000000" stroke-width="0.5" fill-rule="nonzero"></path>
                <rect id="Dark" fill="url(#linearGradient-5)" style="mix-blend-mode: normal;" opacity="0.100000001" x="0" y="12" width="24" height="12"></rect>
                <rect id="Light" fill="url(#linearGradient-6)" opacity="0.100000001" style="mix-blend-mode: normal;" x="0" y="0" width="24" height="12"></rect>
            </g>
        </g>
    </g>
</svg>