<?xml version="1.0" encoding="UTF-8"?>
<svg width="24px" height="24px" viewBox="0 0 24 24" version="1.1" xmlns="http://www.w3.org/2000/svg" xmlns:xlink="http://www.w3.org/1999/xlink">
    <title>KM</title>
    <defs>
        <circle id="path-1" cx="12" cy="12" r="12"></circle>
        <path d="M12,0 C18.627417,-1.21743675e-15 24,5.372583 24,12 C24,18.627417 18.627417,24 12,24 C5.372583,24 8.11624501e-16,18.627417 0,12 C-8.11624501e-16,5.372583 5.372583,1.21743675e-15 12,0 Z" id="path-3"></path>
        <linearGradient x1="50%" y1="0%" x2="50%" y2="100%" id="linearGradient-5">
            <stop stop-color="#000000" stop-opacity="0" offset="0%"></stop>
            <stop stop-color="#000000" offset="100%"></stop>
        </linearGradient>
        <linearGradient x1="50%" y1="0%" x2="50%" y2="100%" id="linearGradient-6">
            <stop stop-color="#FFFFFF" offset="0%"></stop>
            <stop stop-color="#FFFFFF" stop-opacity="0" offset="100%"></stop>
        </linearGradient>
    </defs>
    <g id="KM" stroke="none" stroke-width="1" fill="none" fill-rule="evenodd">
        <mask id="mask-2" fill="white">
            <use xlink:href="#path-1"></use>
        </mask>
        <g id="Mask"></g>
        <g id="Group" mask="url(#mask-2)">
            <g>
                <mask id="mask-4" fill="white">
                    <use xlink:href="#path-3"></use>
                </mask>
                <g id="Mask" fill-rule="nonzero"></g>
            </g>
        </g>
        <polygon id="Rectangle" fill="#F12339" mask="url(#mask-2)" points="0 12 24 12 24 18 0 18"></polygon>
        <polygon id="Rectangle" fill="#0956BA" mask="url(#mask-2)" points="0 18 24 18 24 24 0 24"></polygon>
        <polygon id="Rectangle" fill="#FFD400" mask="url(#mask-2)" points="0 0 24 0 24 6 0 6"></polygon>
        <polygon id="Rectangle" fill="#FFFFFF" mask="url(#mask-2)" points="0 6 24 6 24 12 0 12"></polygon>
        <polygon id="Rectangle" fill="#18A454" mask="url(#mask-2)" points="0 -1.66533454e-14 13 12 0 24"></polygon>
        <path d="M6,7 C6.34288501,7 6.67770871,7.0345146 7.0011864,7.10025909 C4.71766536,7.56339924 3,9.5811085 3,12 C3,14.4188915 4.71766536,16.4366008 6.99981203,16.8999437 C6.67770871,16.9654854 6.34288501,17 6,17 C3.23857625,17 1,14.7614237 1,12 C1,9.23857625 3.23857625,7 6,7 Z" id="Combined-Shape" fill="#FFFFFF" mask="url(#mask-2)"></path>
        <path d="M6.77875425,8.25071097 L6.33684449,8.25324875 L6.31318661,8.25655476 C6.24695279,8.27549087 6.22481967,8.37095047 6.28572729,8.41767618 L6.64182578,8.69097248 L6.50743798,9.13084739 L6.5032593,9.15320663 C6.49828082,9.22602324 6.57930487,9.27903839 6.64126456,9.23246913 L7,8.96263094 L7.35873544,9.23246913 L7.37779021,9.24353215 C7.4425121,9.27098236 7.51579167,9.20682646 7.49256202,9.13084739 L7.3578258,8.69097248 L7.71427271,8.41767618 L7.73155308,8.4004678 C7.77448794,8.34445873 7.73870875,8.25363325 7.66315551,8.25324875 L7.22089733,8.25071097 L7.08270938,7.8124847 C7.05637925,7.72917177 6.94362075,7.72917177 6.91729062,7.8124847 L6.77875425,8.25071097 Z" id="Path" fill="#FFFFFF" mask="url(#mask-2)"></path>
        <path d="M6.77875425,15.000711 L6.33684449,15.0032487 L6.31318661,15.0065548 C6.24695279,15.0254909 6.22481967,15.1209505 6.28572729,15.1676762 L6.64182578,15.4409725 L6.50743798,15.8808474 L6.5032593,15.9032066 C6.49828082,15.9760232 6.57930487,16.0290384 6.64126456,15.9824691 L7,15.7126309 L7.35873544,15.9824691 L7.37779021,15.9935322 C7.4425121,16.0209824 7.51579167,15.9568265 7.49256202,15.8808474 L7.3578258,15.4409725 L7.71427271,15.1676762 L7.73155308,15.1504678 C7.77448794,15.0944587 7.73870875,15.0036333 7.66315551,15.0032487 L7.22089733,15.000711 L7.08270938,14.5624847 C7.05637925,14.4791718 6.94362075,14.4791718 6.91729062,14.5624847 L6.77875425,15.000711 Z" id="Path" fill="#FFFFFF" mask="url(#mask-2)"></path>
        <path d="M6.77875425,10.500711 L6.33684449,10.5032487 L6.31318661,10.5065548 C6.24695279,10.5254909 6.22481967,10.6209505 6.28572729,10.6676762 L6.64182578,10.9409725 L6.50743798,11.3808474 L6.5032593,11.4032066 C6.49828082,11.4760232 6.57930487,11.5290384 6.64126456,11.4824691 L7,11.2126309 L7.35873544,11.4824691 L7.37779021,11.4935322 C7.4425121,11.5209824 7.51579167,11.4568265 7.49256202,11.3808474 L7.3578258,10.9409725 L7.71427271,10.6676762 L7.73155308,10.6504678 C7.77448794,10.5944587 7.73870875,10.5036333 7.66315551,10.5032487 L7.22089733,10.500711 L7.08270938,10.0624847 C7.05637925,9.97917177 6.94362075,9.97917177 6.91729062,10.0624847 L6.77875425,10.500711 Z" id="Path" fill="#FFFFFF" mask="url(#mask-2)"></path>
        <path d="M6.77875425,12.750711 L6.33684449,12.7532487 L6.31318661,12.7565548 C6.24695279,12.7754909 6.22481967,12.8709505 6.28572729,12.9176762 L6.64182578,13.1909725 L6.50743798,13.6308474 L6.5032593,13.6532066 C6.49828082,13.7260232 6.57930487,13.7790384 6.64126456,13.7324691 L7,13.4626309 L7.35873544,13.7324691 L7.37779021,13.7435322 C7.4425121,13.7709824 7.51579167,13.7068265 7.49256202,13.6308474 L7.3578258,13.1909725 L7.71427271,12.9176762 L7.73155308,12.9004678 C7.77448794,12.8444587 7.73870875,12.7536333 7.66315551,12.7532487 L7.22089733,12.750711 L7.08270938,12.3124847 C7.05637925,12.2291718 6.94362075,12.2291718 6.91729062,12.3124847 L6.77875425,12.750711 Z" id="Path" fill="#FFFFFF" mask="url(#mask-2)"></path>
        <g id="Group" mask="url(#mask-2)">
            <g>
                <path d="M12,0.25 C15.2446729,0.25 18.1821729,1.56516355 20.3085047,3.69149532 C22.4348365,5.81782709 23.75,8.75532709 23.75,12 C23.75,15.2446729 22.4348365,18.1821729 20.3085047,20.3085047 C18.1821729,22.4348365 15.2446729,23.75 12,23.75 C8.75532709,23.75 5.81782709,22.4348365 3.69149532,20.3085047 C1.56516355,18.1821729 0.25,15.2446729 0.25,12 C0.25,8.75532709 1.56516355,5.81782709 3.69149532,3.69149532 C5.81782709,1.56516355 8.75532709,0.25 12,0.25 Z" id="Mask" stroke-opacity="0.15" stroke="#000000" stroke-width="0.5" fill-rule="nonzero"></path>
                <rect id="Dark" fill="url(#linearGradient-5)" style="mix-blend-mode: normal;" opacity="0.100000001" x="0" y="12" width="24" height="12"></rect>
                <rect id="Light" fill="url(#linearGradient-6)" opacity="0.100000001" style="mix-blend-mode: normal;" x="0" y="0" width="24" height="12"></rect>
            </g>
        </g>
    </g>
</svg>