<?xml version="1.0" encoding="UTF-8"?>
<svg width="24px" height="24px" viewBox="0 0 24 24" version="1.1" xmlns="http://www.w3.org/2000/svg" xmlns:xlink="http://www.w3.org/1999/xlink">
    <title>KN</title>
    <defs>
        <circle id="path-1" cx="12" cy="12" r="12"></circle>
        <path d="M12,0 C18.627417,-1.21743675e-15 24,5.372583 24,12 C24,18.627417 18.627417,24 12,24 C5.372583,24 8.11624501e-16,18.627417 0,12 C-8.11624501e-16,5.372583 5.372583,1.21743675e-15 12,0 Z" id="path-3"></path>
        <linearGradient x1="50%" y1="0%" x2="50%" y2="100%" id="linearGradient-5">
            <stop stop-color="#000000" stop-opacity="0" offset="0%"></stop>
            <stop stop-color="#000000" offset="100%"></stop>
        </linearGradient>
        <linearGradient x1="50%" y1="0%" x2="50%" y2="100%" id="linearGradient-6">
            <stop stop-color="#FFFFFF" offset="0%"></stop>
            <stop stop-color="#FFFFFF" stop-opacity="0" offset="100%"></stop>
        </linearGradient>
    </defs>
    <g id="KN" stroke="none" stroke-width="1" fill="none" fill-rule="evenodd">
        <mask id="mask-2" fill="white">
            <use xlink:href="#path-1"></use>
        </mask>
        <g id="Mask"></g>
        <g id="Group" mask="url(#mask-2)">
            <g>
                <mask id="mask-4" fill="white">
                    <use xlink:href="#path-3"></use>
                </mask>
                <g id="Mask" fill-rule="nonzero"></g>
            </g>
        </g>
        <polygon id="Path-16" fill="#18A454" mask="url(#mask-2)" points="0 0 0 24 24 0"></polygon>
        <polygon id="Path-16" fill="#F12339" mask="url(#mask-2)" transform="translate(12.000000, 12.000000) rotate(90.000000) translate(-12.000000, -12.000000) " points="0 -3.55271368e-14 24 24 24 -3.55271368e-14"></polygon>
        <path d="M24,1.56319321e-13 L23.9997962,6.00979618 L6.00979618,23.9997962 L4.9737856e-14,24 L-0.000203820043,17.9897962 L17.9897962,-0.000203820043 L24,1.56319321e-13 Z" id="Combined-Shape" fill="#FFD400" mask="url(#mask-2)"></path>
        <path d="M24,-4.88498131e-14 L23.9996797,4.24167966 L4.24167966,23.9996797 L-3.82804899e-13,24 L-0.00032034356,19.7566797 L19.7566797,-0.00032034356 L24,-4.88498131e-14 Z" id="Combined-Shape" fill="#2E2E2E" mask="url(#mask-2)"></path>
        <path d="M6.41001133,16.3352293 L5.23158531,16.3419967 L5.16849762,16.3508127 C4.9918741,16.401309 4.93285246,16.6558679 5.09527276,16.7804698 L6.04486874,17.5092599 L5.68650128,18.6822597 L5.67535812,18.7418843 C5.66208219,18.936062 5.87814632,19.0774357 6.04337217,18.953251 L7,18.2336825 L7.95662783,18.953251 L8.00744056,18.9827524 C8.18003227,19.055953 8.37544445,18.8848706 8.31349872,18.6822597 L7.95420214,17.5092599 L8.90472724,16.7804698 L8.95080823,16.7345808 C9.06530118,16.5852233 8.96988999,16.343022 8.76841469,16.3419967 L7.58905955,16.3352293 L7.22055834,15.1666259 C7.15034465,14.944458 6.84965535,14.944458 6.77944166,15.1666259 L6.41001133,16.3352293 Z" id="Path" fill="#FFFFFF" mask="url(#mask-2)" transform="translate(7.000000, 17.000000) rotate(-45.000000) translate(-7.000000, -17.000000) "></path>
        <path d="M16.4100113,6.33522926 L15.2315853,6.34199666 L15.1684976,6.3508127 C14.9918741,6.40130899 14.9328525,6.65586792 15.0952728,6.78046981 L16.0448687,7.50925994 L15.6865013,8.6822597 L15.6753581,8.74188435 C15.6620822,8.93606197 15.8781463,9.0774357 16.0433722,8.953251 L17,8.2336825 L17.9566278,8.953251 L18.0074406,8.98275241 C18.1800323,9.05595297 18.3754444,8.88487055 18.3134987,8.6822597 L17.9542021,7.50925994 L18.9047272,6.78046981 L18.9508082,6.73458081 C19.0653012,6.58522328 18.96989,6.34302201 18.7684147,6.34199666 L17.5890596,6.33522926 L17.2205583,5.16662587 C17.1503447,4.94445804 16.8496553,4.94445804 16.7794417,5.16662587 L16.4100113,6.33522926 Z" id="Path" fill="#FFFFFF" mask="url(#mask-2)" transform="translate(17.000000, 7.000000) rotate(-45.000000) translate(-17.000000, -7.000000) "></path>
        <g id="Group" mask="url(#mask-2)">
            <g>
                <path d="M12,0.25 C15.2446729,0.25 18.1821729,1.56516355 20.3085047,3.69149532 C22.4348365,5.81782709 23.75,8.75532709 23.75,12 C23.75,15.2446729 22.4348365,18.1821729 20.3085047,20.3085047 C18.1821729,22.4348365 15.2446729,23.75 12,23.75 C8.75532709,23.75 5.81782709,22.4348365 3.69149532,20.3085047 C1.56516355,18.1821729 0.25,15.2446729 0.25,12 C0.25,8.75532709 1.56516355,5.81782709 3.69149532,3.69149532 C5.81782709,1.56516355 8.75532709,0.25 12,0.25 Z" id="Mask" stroke-opacity="0.15" stroke="#000000" stroke-width="0.5" fill-rule="nonzero"></path>
                <rect id="Dark" fill="url(#linearGradient-5)" style="mix-blend-mode: normal;" opacity="0.100000001" x="0" y="12" width="24" height="12"></rect>
                <rect id="Light" fill="url(#linearGradient-6)" opacity="0.100000001" style="mix-blend-mode: normal;" x="0" y="0" width="24" height="12"></rect>
            </g>
        </g>
    </g>
</svg>