<?xml version="1.0" encoding="UTF-8"?>
<svg width="24px" height="24px" viewBox="0 0 24 24" version="1.1" xmlns="http://www.w3.org/2000/svg" xmlns:xlink="http://www.w3.org/1999/xlink">
    <title>KR</title>
    <defs>
        <circle id="path-1" cx="12" cy="12" r="12"></circle>
        <path d="M12,0 C18.627417,-1.21743675e-15 24,5.372583 24,12 C24,18.627417 18.627417,24 12,24 C5.372583,24 8.11624501e-16,18.627417 0,12 C-8.11624501e-16,5.372583 5.372583,1.21743675e-15 12,0 Z" id="path-3"></path>
        <linearGradient x1="50%" y1="0%" x2="50%" y2="100%" id="linearGradient-5">
            <stop stop-color="#000000" stop-opacity="0" offset="0%"></stop>
            <stop stop-color="#000000" offset="100%"></stop>
        </linearGradient>
        <linearGradient x1="50%" y1="0%" x2="50%" y2="100%" id="linearGradient-6">
            <stop stop-color="#FFFFFF" offset="0%"></stop>
            <stop stop-color="#FFFFFF" stop-opacity="0" offset="100%"></stop>
        </linearGradient>
    </defs>
    <g id="KR" stroke="none" stroke-width="1" fill="none" fill-rule="evenodd">
        <mask id="mask-2" fill="white">
            <use xlink:href="#path-1"></use>
        </mask>
        <g id="Mask"></g>
        <g id="Group" mask="url(#mask-2)">
            <g>
                <mask id="mask-4" fill="white">
                    <use xlink:href="#path-3"></use>
                </mask>
                <g id="Mask" fill-rule="nonzero"></g>
            </g>
        </g>
        <rect id="Rectangle" fill="#FFFFFF" mask="url(#mask-2)" x="0" y="0" width="24" height="24"></rect>
        <g id="Group" mask="url(#mask-2)">
            <g transform="translate(12.000000, 12.000000) rotate(-330.000000) translate(-12.000000, -12.000000) translate(8.000000, 8.000000)" id="Combined-Shape">
                <path d="M4,0 C6.14219539,0 7.89107888,1.68396847 7.99510469,3.80035966 L8,4 C8,2.8954305 7.1045695,2 6,2 C4.9456382,2 4.08183488,2.81587779 4.00548574,3.85073766 L4,4 C4,5.1045695 3.1045695,6 2,6 C0.8954305,6 0,5.1045695 0,4 L0,4 C0,1.790861 1.790861,0 4,0 Z" fill="#F12339"></path>
                <path d="M6,2 C7.1045695,2 8,2.8954305 8,4 C8,6.209139 6.209139,8 4,8 C1.85780461,8 0.108921124,6.31603153 0.00489530723,4.19964034 L0,4 C0,5.1045695 0.8954305,6 2,6 C3.1045695,6 4,5.1045695 4,4 C4,2.8954305 4.8954305,2 6,2 Z" fill="#0956BA"></path>
            </g>
        </g>
        <g id="Group-2" mask="url(#mask-2)" fill="#2E2E2E">
            <g transform="translate(12.000000, 12.000000) rotate(56.000000) translate(-12.000000, -12.000000) translate(10.000000, 3.000000)" id="Rectangle">
                <rect x="0" y="0.5" width="4" height="2.5" rx="0.5"></rect>
                <rect x="0" y="15" width="4" height="2.5" rx="0.5"></rect>
            </g>
        </g>
        <g id="Group-2" mask="url(#mask-2)" fill="#2E2E2E">
            <g transform="translate(12.000000, 12.000000) scale(-1, 1) rotate(56.000000) translate(-12.000000, -12.000000) translate(10.000000, 3.000000)" id="Rectangle">
                <rect x="0" y="0.5" width="4" height="2.5" rx="0.5"></rect>
                <rect x="0" y="15" width="4" height="2.5" rx="0.5"></rect>
            </g>
        </g>
        <g id="Group" mask="url(#mask-2)">
            <g>
                <path d="M12,0.25 C15.2446729,0.25 18.1821729,1.56516355 20.3085047,3.69149532 C22.4348365,5.81782709 23.75,8.75532709 23.75,12 C23.75,15.2446729 22.4348365,18.1821729 20.3085047,20.3085047 C18.1821729,22.4348365 15.2446729,23.75 12,23.75 C8.75532709,23.75 5.81782709,22.4348365 3.69149532,20.3085047 C1.56516355,18.1821729 0.25,15.2446729 0.25,12 C0.25,8.75532709 1.56516355,5.81782709 3.69149532,3.69149532 C5.81782709,1.56516355 8.75532709,0.25 12,0.25 Z" id="Mask" stroke-opacity="0.15" stroke="#000000" stroke-width="0.5" fill-rule="nonzero"></path>
                <rect id="Dark" fill="url(#linearGradient-5)" style="mix-blend-mode: normal;" opacity="0.100000001" x="0" y="12" width="24" height="12"></rect>
                <rect id="Light" fill="url(#linearGradient-6)" opacity="0.100000001" style="mix-blend-mode: normal;" x="0" y="0" width="24" height="12"></rect>
            </g>
        </g>
    </g>
</svg>