<?xml version="1.0" encoding="UTF-8"?>
<svg width="24px" height="24px" viewBox="0 0 24 24" version="1.1" xmlns="http://www.w3.org/2000/svg" xmlns:xlink="http://www.w3.org/1999/xlink">
    <title>LK</title>
    <defs>
        <circle id="path-1" cx="12" cy="12" r="12"></circle>
        <path d="M12,0 C18.627417,-1.21743675e-15 24,5.372583 24,12 C24,18.627417 18.627417,24 12,24 C5.372583,24 8.11624501e-16,18.627417 0,12 C-8.11624501e-16,5.372583 5.372583,1.21743675e-15 12,0 Z" id="path-3"></path>
        <linearGradient x1="50%" y1="0%" x2="50%" y2="100%" id="linearGradient-5">
            <stop stop-color="#000000" stop-opacity="0" offset="0%"></stop>
            <stop stop-color="#000000" offset="100%"></stop>
        </linearGradient>
        <linearGradient x1="50%" y1="0%" x2="50%" y2="100%" id="linearGradient-6">
            <stop stop-color="#FFFFFF" offset="0%"></stop>
            <stop stop-color="#FFFFFF" stop-opacity="0" offset="100%"></stop>
        </linearGradient>
    </defs>
    <g id="LK" stroke="none" stroke-width="1" fill="none" fill-rule="evenodd">
        <mask id="mask-2" fill="white">
            <use xlink:href="#path-1"></use>
        </mask>
        <g id="Mask"></g>
        <g id="Group" mask="url(#mask-2)">
            <g>
                <mask id="mask-4" fill="white">
                    <use xlink:href="#path-3"></use>
                </mask>
                <g id="Mask" fill-rule="nonzero"></g>
            </g>
        </g>
        <polygon id="Rectangle" fill="#FFD400" mask="url(#mask-2)" points="0 0 24 0 24 24 0 24"></polygon>
        <path d="M12,2 C17.5228475,2 22,6.4771525 22,12 C22,17.5228475 17.5228475,22 12,22 C11.3149627,22 10.6460135,21.9311182 9.99970097,21.7999031 L9.99970097,2.20009693 C10.6460135,2.06888176 11.3149627,2 12,2 Z" id="Combined-Shape" fill="#B92C56" mask="url(#mask-2)"></path>
        <path d="M5.00029777,4.8582753 L5.00029777,19.1417247 C3.14876093,17.3267806 2,14.7975441 2,12 C2,9.20245593 3.14876093,6.67321936 5.00029777,4.8582753 Z" id="Combined-Shape" fill="#18A454" mask="url(#mask-2)"></path>
        <path d="M7.99958719,2.83226775 L7.99958719,21.1677323 C6.87741851,20.6773753 5.86263655,19.9870207 5.00029777,19.1417247 L5.00029777,4.8582753 C5.86263655,4.01297933 6.87741851,3.32262466 7.99958719,2.83226775 Z" id="Combined-Shape" fill="#FF7F0E" mask="url(#mask-2)"></path>
        <path d="M12.5,8 C12.7454599,8 12.9496084,8.17687516 12.9919443,8.41012437 L13,8.5 L13,12.69 L13.609,12.995 L13.945,11.652 L13.6464466,11.3535534 C13.5714321,11.2785388 13.522715,11.1821427 13.5062287,11.0786894 L13.5,11 L13.5,10 C13.5,9.79924541 13.6195513,9.62103255 13.7985527,9.54233774 L13.8787322,9.51492875 L15.8787322,9.01492875 C16.1656171,8.94320753 16.4443375,9.1339428 16.492643,9.41360655 L16.5,9.5 L16.5,11.5 L18.22,11.5 L18.9606806,11.3529129 C19.1289075,11.3192675 19.25,11.1715584 19.25,11 C19.25,10.8816533 19.1677666,10.7825132 19.0573227,10.7566027 L19,10.75 L17.75,10.75 C17.1977153,10.75 16.75,10.3022847 16.75,9.75 C16.75,9.31338057 17.10395,8.95943058 17.5405694,8.95943058 C17.5972175,8.95943058 17.6536185,8.96551898 17.7088099,8.97753955 L17.7905694,9 L20.0790569,9.76282918 C20.2100428,9.80649112 20.2808328,9.94807111 20.2371708,10.0790569 C20.2007859,10.1882118 20.0964023,10.255564 19.9868164,10.2497153 L19.9209431,10.2371708 L17.6324555,9.47434165 C17.6028272,9.46446554 17.5718004,9.45943058 17.5405694,9.45943058 C17.3800924,9.45943058 17.25,9.58952294 17.25,9.75 C17.25,9.99545989 17.4268752,10.1996084 17.6601244,10.2419443 L17.75,10.25 L19,10.25 C19.4142136,10.25 19.75,10.5857864 19.75,11 C19.75,11.1882789 19.6889576,11.3645355 19.5839975,11.5078807 L19.6724498,11.5304371 C19.8599158,11.5992379 19.9926059,11.7767891 19.9997874,11.9815352 L19.9949747,12.0707107 L19.4949747,15.5707107 C19.4641842,15.7862445 19.2988189,15.9532688 19.0912652,15.9916571 L19,16 L18,16 C17.7545401,16 17.5503916,15.8231248 17.5080557,15.5898756 L17.5,15.5 L17.5,14.583 L17.193,13.661 L15.499,14.338 L15.5,15.5 C15.5,15.7454599 15.3231248,15.9496084 15.0898756,15.9919443 L15,16 L14,16 C13.7238576,16 13.5,15.7761424 13.5,15.5 C13.5,15.2545401 13.6768752,15.0503916 13.9101244,15.0080557 L14,15 L14.5,15 L14.5,14.207 L14.293,14 L13.5,14 C13.4482516,14 13.3969771,13.9919678 13.3479726,13.9763273 L13.2763932,13.9472136 L13,13.809 L13,14.5 C13,14.7761424 12.7761424,15 12.5,15 C12.2545401,15 12.0503916,14.8231248 12.0080557,14.5898756 L12,14.5 L12,8.5 C12,8.22385763 12.2238576,8 12.5,8 Z" id="Path" fill="#FFD400" mask="url(#mask-2)"></path>
        <g id="Group" mask="url(#mask-2)">
            <g>
                <path d="M12,0.25 C15.2446729,0.25 18.1821729,1.56516355 20.3085047,3.69149532 C22.4348365,5.81782709 23.75,8.75532709 23.75,12 C23.75,15.2446729 22.4348365,18.1821729 20.3085047,20.3085047 C18.1821729,22.4348365 15.2446729,23.75 12,23.75 C8.75532709,23.75 5.81782709,22.4348365 3.69149532,20.3085047 C1.56516355,18.1821729 0.25,15.2446729 0.25,12 C0.25,8.75532709 1.56516355,5.81782709 3.69149532,3.69149532 C5.81782709,1.56516355 8.75532709,0.25 12,0.25 Z" id="Mask" stroke-opacity="0.15" stroke="#000000" stroke-width="0.5" fill-rule="nonzero"></path>
                <rect id="Dark" fill="url(#linearGradient-5)" style="mix-blend-mode: normal;" opacity="0.100000001" x="0" y="12" width="24" height="12"></rect>
                <rect id="Light" fill="url(#linearGradient-6)" opacity="0.100000001" style="mix-blend-mode: normal;" x="0" y="0" width="24" height="12"></rect>
            </g>
        </g>
    </g>
</svg>