<?xml version="1.0" encoding="UTF-8"?>
<svg width="24px" height="24px" viewBox="0 0 24 24" version="1.1" xmlns="http://www.w3.org/2000/svg" xmlns:xlink="http://www.w3.org/1999/xlink">
    <title>LY</title>
    <defs>
        <circle id="path-1" cx="12" cy="12" r="12"></circle>
        <path d="M12,0 C18.627417,-1.21743675e-15 24,5.372583 24,12 C24,18.627417 18.627417,24 12,24 C5.372583,24 8.11624501e-16,18.627417 0,12 C-8.11624501e-16,5.372583 5.372583,1.21743675e-15 12,0 Z" id="path-3"></path>
        <linearGradient x1="50%" y1="0%" x2="50%" y2="100%" id="linearGradient-5">
            <stop stop-color="#000000" stop-opacity="0" offset="0%"></stop>
            <stop stop-color="#000000" offset="100%"></stop>
        </linearGradient>
        <linearGradient x1="50%" y1="0%" x2="50%" y2="100%" id="linearGradient-6">
            <stop stop-color="#FFFFFF" offset="0%"></stop>
            <stop stop-color="#FFFFFF" stop-opacity="0" offset="100%"></stop>
        </linearGradient>
    </defs>
    <g id="LY" stroke="none" stroke-width="1" fill="none" fill-rule="evenodd">
        <mask id="mask-2" fill="white">
            <use xlink:href="#path-1"></use>
        </mask>
        <g id="Mask"></g>
        <g id="Group" mask="url(#mask-2)">
            <g>
                <mask id="mask-4" fill="white">
                    <use xlink:href="#path-3"></use>
                </mask>
                <g id="Mask" fill-rule="nonzero"></g>
            </g>
        </g>
        <polygon id="Rectangle" fill="#F12339" mask="url(#mask-2)" points="0 0 24 0 24 6 0 6"></polygon>
        <polygon id="Rectangle" fill="#2E2E2E" mask="url(#mask-2)" points="0 6 24 6 24 18 0 18"></polygon>
        <path d="M15.1933686,11.14149 L13.9101098,11.1482051 L13.8663542,11.1543308 C13.7438539,11.1894178 13.7029184,11.3662964 13.8155678,11.4528752 L14.8499009,12.2480729 L14.4597183,13.52871 L14.4519898,13.5701398 C14.442782,13.7050628 14.5926371,13.8032954 14.7072323,13.7170065 L15.7494897,12.9315902 L16.7917471,13.7170065 L16.8269892,13.7375054 C16.9466932,13.7883683 17.0822247,13.6694928 17.0392612,13.52871 L16.6484341,12.2480729 L17.6834117,11.4528752 L17.7153719,11.4209896 C17.7947805,11.3172095 17.7286064,11.1489175 17.5888697,11.1482051 L16.3049665,11.14149 L15.9024618,9.86526863 C15.8537639,9.71089678 15.6452156,9.71089678 15.5965177,9.86526863 L15.1933686,11.14149 Z" id="Path" fill="#FFFFFF" mask="url(#mask-2)" transform="translate(15.749490, 11.749490) rotate(-15.000000) translate(-15.749490, -11.749490) "></path>
        <path d="M13,9 C13.4802301,9 13.9341056,9.11283746 14.3365599,9.3134458 C14.1475514,9.27162904 13.9513016,9.25 13.75,9.25 C12.2312169,9.25 11,10.4812169 11,12 C11,13.5187831 12.2312169,14.75 13.75,14.75 C13.9513016,14.75 14.1475514,14.728371 14.3365523,14.68731 C13.9341056,14.8871625 13.4802301,15 13,15 C11.3431458,15 10,13.6568542 10,12 C10,10.3431458 11.3431458,9 13,9 Z" id="Combined-Shape" fill="#FFFFFF" mask="url(#mask-2)"></path>
        <polygon id="Rectangle" fill="#18A454" mask="url(#mask-2)" points="0 18 24 18 24 24 0 24"></polygon>
        <g id="Group" mask="url(#mask-2)">
            <g>
                <path d="M12,0.25 C15.2446729,0.25 18.1821729,1.56516355 20.3085047,3.69149532 C22.4348365,5.81782709 23.75,8.75532709 23.75,12 C23.75,15.2446729 22.4348365,18.1821729 20.3085047,20.3085047 C18.1821729,22.4348365 15.2446729,23.75 12,23.75 C8.75532709,23.75 5.81782709,22.4348365 3.69149532,20.3085047 C1.56516355,18.1821729 0.25,15.2446729 0.25,12 C0.25,8.75532709 1.56516355,5.81782709 3.69149532,3.69149532 C5.81782709,1.56516355 8.75532709,0.25 12,0.25 Z" id="Mask" stroke-opacity="0.15" stroke="#000000" stroke-width="0.5" fill-rule="nonzero"></path>
                <rect id="Dark" fill="url(#linearGradient-5)" style="mix-blend-mode: normal;" opacity="0.100000001" x="0" y="12" width="24" height="12"></rect>
                <rect id="Light" fill="url(#linearGradient-6)" opacity="0.100000001" style="mix-blend-mode: normal;" x="0" y="0" width="24" height="12"></rect>
            </g>
        </g>
    </g>
</svg>