<?xml version="1.0" encoding="UTF-8"?>
<svg width="24px" height="24px" viewBox="0 0 24 24" version="1.1" xmlns="http://www.w3.org/2000/svg" xmlns:xlink="http://www.w3.org/1999/xlink">
    <title>MA</title>
    <defs>
        <circle id="path-1" cx="12" cy="12" r="12"></circle>
        <path d="M12,0 C18.627417,-1.21743675e-15 24,5.372583 24,12 C24,18.627417 18.627417,24 12,24 C5.372583,24 8.11624501e-16,18.627417 0,12 C-8.11624501e-16,5.372583 5.372583,1.21743675e-15 12,0 Z" id="path-3"></path>
        <linearGradient x1="50%" y1="0%" x2="50%" y2="100%" id="linearGradient-5">
            <stop stop-color="#000000" stop-opacity="0" offset="0%"></stop>
            <stop stop-color="#000000" offset="100%"></stop>
        </linearGradient>
        <linearGradient x1="50%" y1="0%" x2="50%" y2="100%" id="linearGradient-6">
            <stop stop-color="#FFFFFF" offset="0%"></stop>
            <stop stop-color="#FFFFFF" stop-opacity="0" offset="100%"></stop>
        </linearGradient>
    </defs>
    <g id="MA" stroke="none" stroke-width="1" fill="none" fill-rule="evenodd">
        <mask id="mask-2" fill="white">
            <use xlink:href="#path-1"></use>
        </mask>
        <g id="Mask"></g>
        <g id="Group" mask="url(#mask-2)">
            <g>
                <mask id="mask-4" fill="white">
                    <use xlink:href="#path-3"></use>
                </mask>
                <g id="Mask" fill-rule="nonzero"></g>
            </g>
        </g>
        <polygon id="Rectangle" fill="#F12339" mask="url(#mask-2)" points="0 0 24 0 24 24 0 24"></polygon>
        <path d="M11.5256394,7.84194304 C11.6674257,7.41641392 12.238652,7.38804532 12.4376969,7.75683722 L12.4743606,7.84194304 L13.193,10 L16,10 C16.4475539,10 16.6564665,10.5318701 16.3690796,10.8382302 L16.3049086,10.8962711 L14.067,12.618 L14.9743571,15.3419326 C15.1211309,15.7823977 14.6477492,16.1512497 14.2655687,15.9423756 L14.1951523,15.8963179 L12,14.207 L9.80484772,15.8963179 C9.4368461,16.1793847 8.93318351,15.8530935 9.00521656,15.423557 L9.02564286,15.3419326 L9.932,12.618 L7.69509143,10.8962711 C7.34038611,10.623345 7.49915754,10.0744171 7.91374745,10.0068672 L8,10 L10.806,10 L11.5256394,7.84194304 Z M13.227,13.263 L12.82,13.577 L13.508,14.106 L13.227,13.263 Z M10.772,13.263 L10.491,14.106 L11.179,13.577 L10.772,13.263 Z M11.107,12.259 L12,12.946 L12.892,12.259 L12.472,11 L11.527,11 L11.107,12.259 Z M14.529,11 L13.527,11 L13.732,11.614 L14.529,11 Z M10.472,11 L9.47,11 L10.267,11.614 L10.472,11 Z" id="Path-9" fill="#2E2E2E" mask="url(#mask-2)"></path>
        <g id="Group" mask="url(#mask-2)">
            <g>
                <path d="M12,0.25 C15.2446729,0.25 18.1821729,1.56516355 20.3085047,3.69149532 C22.4348365,5.81782709 23.75,8.75532709 23.75,12 C23.75,15.2446729 22.4348365,18.1821729 20.3085047,20.3085047 C18.1821729,22.4348365 15.2446729,23.75 12,23.75 C8.75532709,23.75 5.81782709,22.4348365 3.69149532,20.3085047 C1.56516355,18.1821729 0.25,15.2446729 0.25,12 C0.25,8.75532709 1.56516355,5.81782709 3.69149532,3.69149532 C5.81782709,1.56516355 8.75532709,0.25 12,0.25 Z" id="Mask" stroke-opacity="0.15" stroke="#000000" stroke-width="0.5" fill-rule="nonzero"></path>
                <rect id="Dark" fill="url(#linearGradient-5)" style="mix-blend-mode: normal;" opacity="0.100000001" x="0" y="12" width="24" height="12"></rect>
                <rect id="Light" fill="url(#linearGradient-6)" opacity="0.100000001" style="mix-blend-mode: normal;" x="0" y="0" width="24" height="12"></rect>
            </g>
        </g>
    </g>
</svg>