<?xml version="1.0" encoding="UTF-8"?>
<svg width="24px" height="24px" viewBox="0 0 24 24" version="1.1" xmlns="http://www.w3.org/2000/svg" xmlns:xlink="http://www.w3.org/1999/xlink">
    <title>MD</title>
    <defs>
        <circle id="path-1" cx="12" cy="12" r="12"></circle>
        <path d="M12,0 C18.627417,-1.21743675e-15 24,5.372583 24,12 C24,18.627417 18.627417,24 12,24 C5.372583,24 8.11624501e-16,18.627417 0,12 C-8.11624501e-16,5.372583 5.372583,1.21743675e-15 12,0 Z" id="path-3"></path>
        <linearGradient x1="50%" y1="0%" x2="50%" y2="100%" id="linearGradient-5">
            <stop stop-color="#000000" stop-opacity="0" offset="0%"></stop>
            <stop stop-color="#000000" offset="100%"></stop>
        </linearGradient>
        <linearGradient x1="50%" y1="0%" x2="50%" y2="100%" id="linearGradient-6">
            <stop stop-color="#FFFFFF" offset="0%"></stop>
            <stop stop-color="#FFFFFF" stop-opacity="0" offset="100%"></stop>
        </linearGradient>
    </defs>
    <g id="MD" stroke="none" stroke-width="1" fill="none" fill-rule="evenodd">
        <mask id="mask-2" fill="white">
            <use xlink:href="#path-1"></use>
        </mask>
        <g id="Mask"></g>
        <g id="Group" mask="url(#mask-2)">
            <g>
                <mask id="mask-4" fill="white">
                    <use xlink:href="#path-3"></use>
                </mask>
                <g id="Mask" fill-rule="nonzero"></g>
            </g>
        </g>
        <polygon id="Rectangle" fill="#0956BA" mask="url(#mask-2)" points="0 0 8 0 8 24 0 24"></polygon>
        <rect id="Rectangle" fill="#FFD400" mask="url(#mask-2)" x="8" y="0" width="8" height="24"></rect>
        <path d="M10.375,9 C10.5821068,9 10.75,9.16789322 10.75,9.375 L10.75,9.625 C10.75,9.83210678 10.9178932,10 11.125,10 C11.3321068,10 11.5,9.83210678 11.5,9.625 L11.5,9.5 C11.5,9.22385763 11.7238576,9 12,9 C12.2761424,9 12.5,9.22385763 12.5,9.5 L12.5,9.625 C12.5,9.83210678 12.6678932,10 12.875,10 C13.0821068,10 13.25,9.83210678 13.25,9.625 L13.25,9.375 C13.25,9.16789322 13.4178932,9 13.625,9 C13.8321068,9 14,9.16789322 14,9.375 L14,12.6676192 C14,13.3701449 13.6314023,14.0211586 13.0289915,14.3826051 L12,15 L12,15 L10.9710085,14.3826051 C10.3685977,14.0211586 10,13.3701449 10,12.6676192 L10,9.375 C10,9.16789322 10.1678932,9 10.375,9 Z" id="Rectangle" fill="#AE6624" mask="url(#mask-2)"></path>
        <g id="Group" mask="url(#mask-2)">
            <g transform="translate(11.000000, 10.500000)" id="Rectangle">
                <rect fill="#F12339" x="0" y="0" width="2" height="1.5"></rect>
                <polygon fill="#0956BA" points="0 1.5 2 1.5 2 2.5 1 3 0 2.5"></polygon>
            </g>
        </g>
        <polygon id="Rectangle" fill="#F12339" mask="url(#mask-2)" points="16 0 24 0 24 24 16 24"></polygon>
        <g id="Group" mask="url(#mask-2)">
            <g>
                <path d="M12,0.25 C15.2446729,0.25 18.1821729,1.56516355 20.3085047,3.69149532 C22.4348365,5.81782709 23.75,8.75532709 23.75,12 C23.75,15.2446729 22.4348365,18.1821729 20.3085047,20.3085047 C18.1821729,22.4348365 15.2446729,23.75 12,23.75 C8.75532709,23.75 5.81782709,22.4348365 3.69149532,20.3085047 C1.56516355,18.1821729 0.25,15.2446729 0.25,12 C0.25,8.75532709 1.56516355,5.81782709 3.69149532,3.69149532 C5.81782709,1.56516355 8.75532709,0.25 12,0.25 Z" id="Mask" stroke-opacity="0.15" stroke="#000000" stroke-width="0.5" fill-rule="nonzero"></path>
                <rect id="Dark" fill="url(#linearGradient-5)" style="mix-blend-mode: normal;" opacity="0.100000001" x="0" y="12" width="24" height="12"></rect>
                <rect id="Light" fill="url(#linearGradient-6)" opacity="0.100000001" style="mix-blend-mode: normal;" x="0" y="0" width="24" height="12"></rect>
            </g>
        </g>
    </g>
</svg>