<?xml version="1.0" encoding="UTF-8"?>
<svg width="24px" height="24px" viewBox="0 0 24 24" version="1.1" xmlns="http://www.w3.org/2000/svg" xmlns:xlink="http://www.w3.org/1999/xlink">
    <title>ME</title>
    <defs>
        <circle id="path-1" cx="12" cy="12" r="12"></circle>
        <path d="M12,0 C18.627417,-1.21743675e-15 24,5.372583 24,12 C24,18.627417 18.627417,24 12,24 C5.372583,24 8.11624501e-16,18.627417 0,12 C-8.11624501e-16,5.372583 5.372583,1.21743675e-15 12,0 Z" id="path-3"></path>
        <linearGradient x1="50%" y1="0%" x2="50%" y2="100%" id="linearGradient-5">
            <stop stop-color="#000000" stop-opacity="0" offset="0%"></stop>
            <stop stop-color="#000000" offset="100%"></stop>
        </linearGradient>
        <linearGradient x1="50%" y1="0%" x2="50%" y2="100%" id="linearGradient-6">
            <stop stop-color="#FFFFFF" offset="0%"></stop>
            <stop stop-color="#FFFFFF" stop-opacity="0" offset="100%"></stop>
        </linearGradient>
    </defs>
    <g id="ME" stroke="none" stroke-width="1" fill="none" fill-rule="evenodd">
        <mask id="mask-2" fill="white">
            <use xlink:href="#path-1"></use>
        </mask>
        <g id="Mask"></g>
        <g id="Group" mask="url(#mask-2)">
            <g>
                <mask id="mask-4" fill="white">
                    <use xlink:href="#path-3"></use>
                </mask>
                <g id="Mask" fill-rule="nonzero"></g>
            </g>
        </g>
        <polygon id="Rectangle" fill="#FFD400" mask="url(#mask-2)" points="0 0 24 0 24 24 0 24"></polygon>
        <circle id="Oval" fill="#F12339" mask="url(#mask-2)" cx="12" cy="12" r="11"></circle>
        <path d="M12.0926264,18.99 L12.0338708,18.9991961 L12.0338708,18.9991961 L12.0187245,19.0000489 L12.0187245,19.0000489 L12.0030539,19.000378 C11.9864236,19.0003612 11.9759526,18.9999751 11.9655455,18.9992608 L11.9086264,18.991 L11.8746264,18.982 L11.8466264,18.975 L11.8516264,18.976 L11.8746264,18.982 L11.9040765,18.9908646 L11.9040765,18.9908646 L11.8764308,18.9848584 L11.8764308,18.9848584 L11.8516264,18.976 L11.8456264,18.975 L11.8466264,18.975 L11.8436264,18.974 L11.8363055,18.9727195 L10.3418861,18.4743416 C10.0575513,18.3795634 9.92590083,18.0625838 10.0417127,17.7996368 L10.0839749,17.7226499 L11,16.347 L10.9996264,15.499968 L7.8,17.9 C7.5790861,18.0656854 7.26568542,18.0209139 7.1,17.8 C6.95272407,17.6036321 6.97173511,17.3341882 7.1329329,17.1603699 L7.2,17.1 L9.95395209,15.0360165 C8.1197629,14.771211 6.54617949,13.4624532 5.99942786,11.6205605 L5.93879549,11.397007 L5.89179911,11.1861177 C5.73965135,10.4253789 5.77250616,9.6406744 5.98569808,8.89765207 L6.07408925,8.62110077 L6.52850483,7.33358994 C6.66486753,6.94722896 7.16999328,6.88879015 7.39944912,7.19839448 L7.4472136,7.2763932 L8.9472136,10.2763932 C8.97035617,10.3226783 8.9861026,10.3721319 8.99402883,10.4229573 L9,10.5 L9,11.5 C9,11.7761424 9.22385763,12 9.5,12 C9.74545989,12 9.94960837,11.8231248 9.99194433,11.5898756 L10,11.5 L10,11 C10,10.7545401 10.1768752,10.5503916 10.4101244,10.5080557 L10.5,10.5 L10.9673015,10.5002238 C10.9104555,10.1538591 10.7803724,9.82194638 10.5839749,9.5273501 C10.3887398,9.23449752 10.0748889,9.04560006 9.72945876,9.00723832 L9.59861218,9 L9.5,9 C9.22385763,9 9,8.77614237 9,8.5 C9,8.25454011 9.17687516,8.05039163 9.41012437,8.00805567 L9.5,8 L9.59861218,8 C10.328926,8 11.0109199,8.36499208 11.4160251,8.9726499 C11.7222529,9.43199151 11.9136256,9.9559644 11.9768245,10.5005802 L12.0231755,10.5005802 C12.0863744,9.9559644 12.2777471,9.43199151 12.5839749,8.9726499 C12.9579181,8.41173499 13.5677903,8.05758852 14.2338156,8.00642347 L14.4013878,8 L14.5,8 L14.5898756,8.00805567 C14.8231248,8.05039163 15,8.25454011 15,8.5 C15,8.74545989 14.8231248,8.94960837 14.5898756,8.99194433 L14.5,9 L14.4013878,9 L14.2705412,9.00723832 C13.9251111,9.04560006 13.6112602,9.23449752 13.4160251,9.5273501 C13.2196276,9.82194638 13.0895445,10.1538591 13.0326985,10.5002238 L13.5,10.500032 C13.7761424,10.500032 14,10.7238896 14,11.000032 L14,11.500032 C14,11.7761744 14.2238576,12.000032 14.5,12.000032 C14.7761424,12.000032 15,11.7761744 15,11.500032 L15,10.500032 C15,10.4224095 15.0180725,10.3458529 15.0527864,10.2764252 L16.5527864,7.27642522 C16.750113,6.88177196 17.324643,6.9175409 17.4714952,7.33362196 L17.9259108,8.62113279 C18.2163895,9.44415583 18.2793671,10.3303186 18.1082009,11.1861497 L18.0612045,11.397039 C17.5793272,13.3559641 15.9538539,14.7604355 14.0464866,15.0359852 L16.8,17.1 L16.8670671,17.1603699 C17.0282649,17.3341882 17.0472759,17.6036321 16.9,17.8 C16.7527241,17.9963679 16.4887348,18.0535616 16.2767339,17.9474808 L16.2,17.9 L12.9996264,15.499968 L13,16.347032 L13.9160251,17.7226819 C14.0989024,17.9969978 13.9708822,18.3701176 13.6581139,18.4743737 L12.1605167,18.9737846 L12.1516264,18.975 L12.1186264,18.984 L12.1516264,18.976 L12.122439,18.9851155 C12.1095694,18.9883919 12.096532,18.9911611 12.0833539,18.9934034 L12.0926264,18.99 L12.0958506,18.9908845 L12.1146264,18.985 L12.0926264,18.99 Z M11.9999965,5 C12.6472686,5 13.2669449,5.30983816 13.8535534,5.89644661 C14.0111871,6.05408036 14.043053,6.29336775 13.9419341,6.48400454 L13.8904344,6.56234752 L12.8904344,7.81234752 C12.8145255,7.90723362 12.7074036,7.97039955 12.5898208,7.99187047 L12.4999965,8 L11.4999965,8 C11.3784858,8 11.2622435,7.95581129 11.1720254,7.87740871 L11.1095656,7.81234752 L10.1095656,6.56234752 C9.95040916,6.36340198 9.96629376,6.07659946 10.1464466,5.89644661 C10.7330551,5.30983816 11.3527314,5 11.9999965,5 Z" id="Combined-Shape" fill="#FFD400" mask="url(#mask-2)"></path>
        <g id="Group" mask="url(#mask-2)">
            <g>
                <path d="M12,0.25 C15.2446729,0.25 18.1821729,1.56516355 20.3085047,3.69149532 C22.4348365,5.81782709 23.75,8.75532709 23.75,12 C23.75,15.2446729 22.4348365,18.1821729 20.3085047,20.3085047 C18.1821729,22.4348365 15.2446729,23.75 12,23.75 C8.75532709,23.75 5.81782709,22.4348365 3.69149532,20.3085047 C1.56516355,18.1821729 0.25,15.2446729 0.25,12 C0.25,8.75532709 1.56516355,5.81782709 3.69149532,3.69149532 C5.81782709,1.56516355 8.75532709,0.25 12,0.25 Z" id="Mask" stroke-opacity="0.15" stroke="#000000" stroke-width="0.5" fill-rule="nonzero"></path>
                <rect id="Dark" fill="url(#linearGradient-5)" style="mix-blend-mode: normal;" opacity="0.100000001" x="0" y="12" width="24" height="12"></rect>
                <rect id="Light" fill="url(#linearGradient-6)" opacity="0.100000001" style="mix-blend-mode: normal;" x="0" y="0" width="24" height="12"></rect>
            </g>
        </g>
    </g>
</svg>