<?xml version="1.0" encoding="UTF-8"?>
<svg width="24px" height="24px" viewBox="0 0 24 24" version="1.1" xmlns="http://www.w3.org/2000/svg" xmlns:xlink="http://www.w3.org/1999/xlink">
    <title>MR</title>
    <defs>
        <circle id="path-1" cx="12" cy="12" r="12"></circle>
        <path d="M12,0 C18.627417,-1.21743675e-15 24,5.372583 24,12 C24,18.627417 18.627417,24 12,24 C5.372583,24 8.11624501e-16,18.627417 0,12 C-8.11624501e-16,5.372583 5.372583,1.21743675e-15 12,0 Z" id="path-3"></path>
        <linearGradient x1="50%" y1="0%" x2="50%" y2="100%" id="linearGradient-5">
            <stop stop-color="#000000" stop-opacity="0" offset="0%"></stop>
            <stop stop-color="#000000" offset="100%"></stop>
        </linearGradient>
        <linearGradient x1="50%" y1="0%" x2="50%" y2="100%" id="linearGradient-6">
            <stop stop-color="#FFFFFF" offset="0%"></stop>
            <stop stop-color="#FFFFFF" stop-opacity="0" offset="100%"></stop>
        </linearGradient>
    </defs>
    <g id="MR" stroke="none" stroke-width="1" fill="none" fill-rule="evenodd">
        <mask id="mask-2" fill="white">
            <use xlink:href="#path-1"></use>
        </mask>
        <g id="Mask"></g>
        <g id="Group" mask="url(#mask-2)">
            <g>
                <mask id="mask-4" fill="white">
                    <use xlink:href="#path-3"></use>
                </mask>
                <g id="Mask" fill-rule="nonzero"></g>
            </g>
        </g>
        <polygon id="Rectangle" fill="#F12339" mask="url(#mask-2)" points="0 0 24 0 24 3.5 0 3.5"></polygon>
        <polygon id="Rectangle" fill="#F12339" mask="url(#mask-2)" points="0 20.5 24 20.5 24 24 0 24"></polygon>
        <polygon id="Rectangle" fill="#18A454" mask="url(#mask-2)" points="0 3.5 24 3.5 24 20.5 0 20.5"></polygon>
        <g id="Group" mask="url(#mask-2)">
            <g>
                <path d="M12,0.25 C15.2446729,0.25 18.1821729,1.56516355 20.3085047,3.69149532 C22.4348365,5.81782709 23.75,8.75532709 23.75,12 C23.75,15.2446729 22.4348365,18.1821729 20.3085047,20.3085047 C18.1821729,22.4348365 15.2446729,23.75 12,23.75 C8.75532709,23.75 5.81782709,22.4348365 3.69149532,20.3085047 C1.56516355,18.1821729 0.25,15.2446729 0.25,12 C0.25,8.75532709 1.56516355,5.81782709 3.69149532,3.69149532 C5.81782709,1.56516355 8.75532709,0.25 12,0.25 Z" id="Mask" stroke-opacity="0.15" stroke="#000000" stroke-width="0.5" fill-rule="nonzero"></path>
                <rect id="Dark" fill="url(#linearGradient-5)" style="mix-blend-mode: normal;" opacity="0.100000001" x="0" y="12" width="24" height="12"></rect>
                <rect id="Light" fill="url(#linearGradient-6)" opacity="0.100000001" style="mix-blend-mode: normal;" x="0" y="0" width="24" height="12"></rect>
            </g>
        </g>
        <path d="M19.9029193,8.25001785 C19.966824,8.65729845 20,9.07477489 20,9.5 C20,13.918278 16.418278,17.5 12,17.5 C7.581722,17.5 4,13.918278 4,9.5 C4,9.07477489 4.03317597,8.65729845 4.09708072,8.25001785 C4.69717478,12.0745281 8.00694711,15 12,15 C15.9180956,15 19.1783228,12.1833308 19.8662734,8.46440061 Z" id="Combined-Shape" fill="#FFD400" mask="url(#mask-2)"></path>
        <path d="M11.3048486,6.74000033 L9.70077503,6.74839415 L9.64608057,6.75605135 C9.49295517,6.79991013 9.44178582,7.02100837 9.5825976,7.12923187 L10.875514,8.1232289 L10.3877857,9.7240253 L10.3781251,9.77581255 C10.3666154,9.94446635 10.5539342,10.0672571 10.6971782,9.95939596 L12,8.97762557 L13.3028218,9.95939596 L13.3468743,9.98501953 C13.4965043,10.0485982 13.6659187,9.90000383 13.6122143,9.7240253 L13.1236805,8.1232289 L14.4174024,7.12923187 L14.4573527,7.08937479 C14.5566135,6.95964967 14.4738958,6.74928472 14.299225,6.74839415 L12.6943459,6.74000033 L12.1912151,5.14472361 C12.1303427,4.9517588 11.8696573,4.9517588 11.8087849,5.14472361 L11.3048486,6.74000033 Z" id="Path" fill="#FFD400" mask="url(#mask-2)"></path>
    </g>
</svg>