<?xml version="1.0" encoding="UTF-8"?>
<svg width="24px" height="24px" viewBox="0 0 24 24" version="1.1" xmlns="http://www.w3.org/2000/svg" xmlns:xlink="http://www.w3.org/1999/xlink">
    <title>MZ</title>
    <defs>
        <circle id="path-1" cx="12" cy="12" r="12"></circle>
        <path d="M12,0 C18.627417,-1.21743675e-15 24,5.372583 24,12 C24,18.627417 18.627417,24 12,24 C5.372583,24 8.11624501e-16,18.627417 0,12 C-8.11624501e-16,5.372583 5.372583,1.21743675e-15 12,0 Z" id="path-3"></path>
        <linearGradient x1="50%" y1="0%" x2="50%" y2="100%" id="linearGradient-5">
            <stop stop-color="#000000" stop-opacity="0" offset="0%"></stop>
            <stop stop-color="#000000" offset="100%"></stop>
        </linearGradient>
        <linearGradient x1="50%" y1="0%" x2="50%" y2="100%" id="linearGradient-6">
            <stop stop-color="#FFFFFF" offset="0%"></stop>
            <stop stop-color="#FFFFFF" stop-opacity="0" offset="100%"></stop>
        </linearGradient>
    </defs>
    <g id="MZ" stroke="none" stroke-width="1" fill="none" fill-rule="evenodd">
        <mask id="mask-2" fill="white">
            <use xlink:href="#path-1"></use>
        </mask>
        <g id="Mask"></g>
        <g id="Group" mask="url(#mask-2)">
            <g>
                <mask id="mask-4" fill="white">
                    <use xlink:href="#path-3"></use>
                </mask>
                <g id="Mask" fill-rule="nonzero"></g>
            </g>
        </g>
        <polygon id="Rectangle" fill="#FFFFFF" mask="url(#mask-2)" points="0 8 24 8 24 17 0 17"></polygon>
        <polygon id="Rectangle" fill="#2E2E2E" mask="url(#mask-2)" points="0 9 24 9 24 16 0 16"></polygon>
        <polygon id="Rectangle" fill="#FFD400" mask="url(#mask-2)" points="0 17 24 17 24 24 0 24"></polygon>
        <polygon id="Rectangle" fill="#18A454" mask="url(#mask-2)" points="0 0 24 0 24 8 0 8"></polygon>
        <polygon id="Rectangle" fill="#F12339" mask="url(#mask-2)" points="0 -1.66533454e-14 13 12 0 24"></polygon>
        <path d="M4.023,10.657 L1.67008489,10.6684435 L1.60218412,10.6775221 C1.41208566,10.7295225 1.34856115,10.9916636 1.5233728,11.1199769 L3.42,12.512 L2.70461414,14.7554639 L2.69262085,14.8168645 C2.67833207,15.0168258 2.91088014,15.1624105 3.08871137,15.0345268 L5,13.66 L6.91128863,15.0345268 L6.96597795,15.064907 C7.15173701,15.1402879 7.36205754,14.9641096 7.29538586,14.7554639 L6.579,12.512 L8.4766272,11.1199769 L8.52622379,11.072721 C8.64945163,10.9189148 8.54676134,10.6694994 8.32991511,10.6684435 L5.976,10.657 L5.23738514,8.42158894 C5.16181473,8.19280369 4.83818527,8.19280369 4.76261486,8.42158894 L4.023,10.657 Z" id="Path" fill="#FFD400" mask="url(#mask-2)"></path>
        <g id="Group" mask="url(#mask-2)">
            <g>
                <path d="M12,0.25 C15.2446729,0.25 18.1821729,1.56516355 20.3085047,3.69149532 C22.4348365,5.81782709 23.75,8.75532709 23.75,12 C23.75,15.2446729 22.4348365,18.1821729 20.3085047,20.3085047 C18.1821729,22.4348365 15.2446729,23.75 12,23.75 C8.75532709,23.75 5.81782709,22.4348365 3.69149532,20.3085047 C1.56516355,18.1821729 0.25,15.2446729 0.25,12 C0.25,8.75532709 1.56516355,5.81782709 3.69149532,3.69149532 C5.81782709,1.56516355 8.75532709,0.25 12,0.25 Z" id="Mask" stroke-opacity="0.15" stroke="#000000" stroke-width="0.5" fill-rule="nonzero"></path>
                <rect id="Dark" fill="url(#linearGradient-5)" style="mix-blend-mode: normal;" opacity="0.100000001" x="0" y="12" width="24" height="12"></rect>
                <rect id="Light" fill="url(#linearGradient-6)" opacity="0.100000001" style="mix-blend-mode: normal;" x="0" y="0" width="24" height="12"></rect>
            </g>
        </g>
    </g>
</svg>