<?xml version="1.0" encoding="UTF-8"?>
<svg width="24px" height="24px" viewBox="0 0 24 24" version="1.1" xmlns="http://www.w3.org/2000/svg" xmlns:xlink="http://www.w3.org/1999/xlink">
    <title>NP</title>
    <defs>
        <circle id="path-1" cx="12" cy="12" r="12"></circle>
        <path d="M12,0 C18.627417,-1.21743675e-15 24,5.372583 24,12 C24,18.627417 18.627417,24 12,24 C5.372583,24 8.11624501e-16,18.627417 0,12 C-8.11624501e-16,5.372583 5.372583,1.21743675e-15 12,0 Z" id="path-3"></path>
        <linearGradient x1="50%" y1="0%" x2="50%" y2="100%" id="linearGradient-5">
            <stop stop-color="#000000" stop-opacity="0" offset="0%"></stop>
            <stop stop-color="#000000" offset="100%"></stop>
        </linearGradient>
        <linearGradient x1="50%" y1="0%" x2="50%" y2="100%" id="linearGradient-6">
            <stop stop-color="#FFFFFF" offset="0%"></stop>
            <stop stop-color="#FFFFFF" stop-opacity="0" offset="100%"></stop>
        </linearGradient>
    </defs>
    <g id="NP" stroke="none" stroke-width="1" fill="none" fill-rule="evenodd">
        <mask id="mask-2" fill="white">
            <use xlink:href="#path-1"></use>
        </mask>
        <g id="Mask"></g>
        <g id="Group" mask="url(#mask-2)">
            <g>
                <mask id="mask-4" fill="white">
                    <use xlink:href="#path-3"></use>
                </mask>
                <g id="Mask" fill-rule="nonzero"></g>
            </g>
        </g>
        <polygon id="Rectangle" fill="#FFFFFF" mask="url(#mask-2)" points="0 0 24 0 24 24 0 24"></polygon>
        <path d="M3.85428202,3.18815247 L17.7691946,12.0786519 C18.1640159,12.3308988 18.0211893,12.9199614 17.5900073,12.9926088 L17.5,13 L8.707,13 L16.8535534,21.1464466 C17.1265382,21.4194314 16.9953757,21.860356 16.665573,21.9730828 L16.586032,21.9930449 L16.5,22 L5.36422644,22 C2.13093813,19.850018 -1.10134124e-13,16.1738626 -1.10134124e-13,12 C-1.10134124e-13,8.51684326 1.48402281,5.38029861 3.85428202,3.18815247 Z" id="Path" fill="#0956BA" mask="url(#mask-2)"></path>
        <path d="M3.99,4.461 L3.82263163,4.64213755 C2.02331663,6.63902821 1,9.23650815 1,12 C1,15.5034545 2.64942349,18.7254016 5.37674182,20.783569 L5.673,20.999 L15.295,21.003 L7.14648419,12.8537926 C6.95123033,12.6585222 6.95124376,12.3419397 7.14651419,12.1466858 C7.24030696,12.052901 7.36752048,12.0002263 7.50015785,12.0002542 L15.792,12.002 L15.792,12.002 L3.99,4.461 Z" id="Path" fill="#F12339" mask="url(#mask-2)"></path>
        <circle id="Oval" fill="#FFFFFF" mask="url(#mask-2)" cx="6" cy="16.5" r="2.5"></circle>
        <path d="M4.5,8.5 C5.32842712,8.5 6,9.17157288 6,10 C6,10.2062296 5.95838148,10.4027387 5.88308517,10.5815866 C6.38556619,10.2483309 6.75974045,9.73765984 6.91755248,9.13915054 L6.94988142,8.99946074 C6.98274654,9.16118287 7,9.32857655 7,9.5 C7,10.8807119 5.88071187,12 4.5,12 C3.11928813,12 2,10.8807119 2,9.5 C2,9.32857655 2.01725346,9.16118287 2.05011858,8.99946074 C2.18371613,9.65889495 2.57690378,10.2241043 3.11840134,10.5838606 C3.04193381,10.4042245 3,10.2070093 3,10 C3,9.17157288 3.67157288,8.5 4.5,8.5 Z" id="Combined-Shape" fill="#FFFFFF" mask="url(#mask-2)"></path>
        <g id="Group" mask="url(#mask-2)">
            <g>
                <path d="M12,0.25 C15.2446729,0.25 18.1821729,1.56516355 20.3085047,3.69149532 C22.4348365,5.81782709 23.75,8.75532709 23.75,12 C23.75,15.2446729 22.4348365,18.1821729 20.3085047,20.3085047 C18.1821729,22.4348365 15.2446729,23.75 12,23.75 C8.75532709,23.75 5.81782709,22.4348365 3.69149532,20.3085047 C1.56516355,18.1821729 0.25,15.2446729 0.25,12 C0.25,8.75532709 1.56516355,5.81782709 3.69149532,3.69149532 C5.81782709,1.56516355 8.75532709,0.25 12,0.25 Z" id="Mask" stroke-opacity="0.15" stroke="#000000" stroke-width="0.5" fill-rule="nonzero"></path>
                <rect id="Dark" fill="url(#linearGradient-5)" style="mix-blend-mode: normal;" opacity="0.100000001" x="0" y="12" width="24" height="12"></rect>
                <rect id="Light" fill="url(#linearGradient-6)" opacity="0.100000001" style="mix-blend-mode: normal;" x="0" y="0" width="24" height="12"></rect>
            </g>
        </g>
    </g>
</svg>