<?xml version="1.0" encoding="UTF-8"?>
<svg width="24px" height="24px" viewBox="0 0 24 24" version="1.1" xmlns="http://www.w3.org/2000/svg" xmlns:xlink="http://www.w3.org/1999/xlink">
    <title>NZ</title>
    <defs>
        <circle id="path-1" cx="12" cy="12" r="12"></circle>
        <path d="M12,0 C18.627417,-1.21743675e-15 24,5.372583 24,12 C24,18.627417 18.627417,24 12,24 C5.372583,24 8.11624501e-16,18.627417 0,12 C-8.11624501e-16,5.372583 5.372583,1.21743675e-15 12,0 Z" id="path-3"></path>
        <rect id="path-5" x="0" y="0" width="12" height="12"></rect>
        <linearGradient x1="50%" y1="0%" x2="50%" y2="100%" id="linearGradient-7">
            <stop stop-color="#000000" stop-opacity="0" offset="0%"></stop>
            <stop stop-color="#000000" offset="100%"></stop>
        </linearGradient>
        <linearGradient x1="50%" y1="0%" x2="50%" y2="100%" id="linearGradient-8">
            <stop stop-color="#FFFFFF" offset="0%"></stop>
            <stop stop-color="#FFFFFF" stop-opacity="0" offset="100%"></stop>
        </linearGradient>
    </defs>
    <g id="NZ" stroke="none" stroke-width="1" fill="none" fill-rule="evenodd">
        <mask id="mask-2" fill="white">
            <use xlink:href="#path-1"></use>
        </mask>
        <g id="Mask"></g>
        <g id="Group" mask="url(#mask-2)">
            <g>
                <mask id="mask-4" fill="white">
                    <use xlink:href="#path-3"></use>
                </mask>
                <g id="Mask" fill-rule="nonzero"></g>
            </g>
        </g>
        <rect id="Rectangle" fill="#0956BA" mask="url(#mask-2)" x="0" y="0" width="24" height="24"></rect>
        <path d="M15,9.75 C14.3096441,9.75 13.75,10.3096441 13.75,11 C13.75,11.6903559 14.3096441,12.25 15,12.25 C15.6903559,12.25 16.25,11.6903559 16.25,11 C16.25,10.3096441 15.6903559,9.75 15,9.75 Z" id="Path" fill="#FFFFFF" fill-rule="nonzero" mask="url(#mask-2)"></path>
        <path d="M15,10.25 C15.4142136,10.25 15.75,10.5857864 15.75,11 C15.75,11.4142136 15.4142136,11.75 15,11.75 C14.5857864,11.75 14.25,11.4142136 14.25,11 C14.25,10.5857864 14.5857864,10.25 15,10.25 Z" id="Path" fill="#F12339" mask="url(#mask-2)"></path>
        <path d="M21,8.75 C20.3096441,8.75 19.75,9.30964406 19.75,10 C19.75,10.6903559 20.3096441,11.25 21,11.25 C21.6903559,11.25 22.25,10.6903559 22.25,10 C22.25,9.30964406 21.6903559,8.75 21,8.75 Z" id="Path" fill="#FFFFFF" fill-rule="nonzero" mask="url(#mask-2)"></path>
        <path d="M21,9.25 C21.4142136,9.25 21.75,9.58578644 21.75,10 C21.75,10.4142136 21.4142136,10.75 21,10.75 C20.5857864,10.75 20.25,10.4142136 20.25,10 C20.25,9.58578644 20.5857864,9.25 21,9.25 Z" id="Path" fill="#F12339" mask="url(#mask-2)"></path>
        <path d="M18,4.75 C17.3096441,4.75 16.75,5.30964406 16.75,6 C16.75,6.69035594 17.3096441,7.25 18,7.25 C18.6903559,7.25 19.25,6.69035594 19.25,6 C19.25,5.30964406 18.6903559,4.75 18,4.75 Z" id="Path" fill="#FFFFFF" fill-rule="nonzero" mask="url(#mask-2)"></path>
        <path d="M18,5.25 C18.4142136,5.25 18.75,5.58578644 18.75,6 C18.75,6.41421356 18.4142136,6.75 18,6.75 C17.5857864,6.75 17.25,6.41421356 17.25,6 C17.25,5.58578644 17.5857864,5.25 18,5.25 Z" id="Path" fill="#F12339" mask="url(#mask-2)"></path>
        <path d="M18,16.75 C17.3096441,16.75 16.75,17.3096441 16.75,18 C16.75,18.6903559 17.3096441,19.25 18,19.25 C18.6903559,19.25 19.25,18.6903559 19.25,18 C19.25,17.3096441 18.6903559,16.75 18,16.75 Z" id="Path" fill="#FFFFFF" fill-rule="nonzero" mask="url(#mask-2)"></path>
        <path d="M18,17.25 C18.4142136,17.25 18.75,17.5857864 18.75,18 C18.75,18.4142136 18.4142136,18.75 18,18.75 C17.5857864,18.75 17.25,18.4142136 17.25,18 C17.25,17.5857864 17.5857864,17.25 18,17.25 Z" id="Path" fill="#F12339" mask="url(#mask-2)"></path>
        <g id="Group" mask="url(#mask-2)">
            <mask id="mask-6" fill="white">
                <use xlink:href="#path-5"></use>
            </mask>
            <g id="Mask"></g>
            <path d="M12,3.10840763e-15 L11.9994954,0.662495392 L7.41149539,5.90549539 L11.9994954,9.92049539 L12,12 L11.3364954,11.9994954 L6.09349539,7.41149539 L2.07949539,11.9994954 L-1.1057843e-13,12 L-0.000504607869,11.3384954 L4.58749539,6.09349539 L-0.000504607869,2.07949539 L-1.1057843e-13,3.10840763e-15 L0.661495392,-0.000504607869 L5.90549539,4.58749539 L9.92049539,-0.000504607869 L12,3.10840763e-15 Z" id="Combined-Shape" fill="#FFFFFF" fill-rule="nonzero" mask="url(#mask-6)"></path>
            <path d="M11.9137477,-0.000252303934 L6.7047477,5.9517477 L11.9997477,10.5847477 L11.9997477,11.9137477 L6.0467477,6.7047477 L1.4147477,11.9997477 L0.0857476961,11.9997477 L5.2937477,6.0467477 L-0.000252303934,1.4137477 L-0.000252303934,0.0847476961 L5.9527477,5.2937477 L10.5857477,-0.000252303934 L11.9137477,-0.000252303934 Z" id="Combined-Shape" fill="#F12339" fill-rule="nonzero" mask="url(#mask-6)"></path>
            <path d="M8,0 L8,4 L12,4 L12,8 L8,8 L8,12 L4,12 L4,8 L0,8 L0,4 L4,4 L4,0 L8,0 Z" id="Combined-Shape" fill="#FFFFFF" mask="url(#mask-6)"></path>
            <path d="M7,0 L7,5 L12,5 L12,7 L7,7 L7,12 L5,12 L5,7 L0,7 L0,5 L5,5 L5,0 L7,0 Z" id="Combined-Shape" fill="#F12339" mask="url(#mask-6)"></path>
        </g>
        <g id="Group" mask="url(#mask-2)">
            <g>
                <path d="M12,0.25 C15.2446729,0.25 18.1821729,1.56516355 20.3085047,3.69149532 C22.4348365,5.81782709 23.75,8.75532709 23.75,12 C23.75,15.2446729 22.4348365,18.1821729 20.3085047,20.3085047 C18.1821729,22.4348365 15.2446729,23.75 12,23.75 C8.75532709,23.75 5.81782709,22.4348365 3.69149532,20.3085047 C1.56516355,18.1821729 0.25,15.2446729 0.25,12 C0.25,8.75532709 1.56516355,5.81782709 3.69149532,3.69149532 C5.81782709,1.56516355 8.75532709,0.25 12,0.25 Z" id="Mask" stroke-opacity="0.15" stroke="#000000" stroke-width="0.5" fill-rule="nonzero"></path>
                <rect id="Dark" fill="url(#linearGradient-7)" style="mix-blend-mode: normal;" opacity="0.100000001" x="0" y="12" width="24" height="12"></rect>
                <rect id="Light" fill="url(#linearGradient-8)" opacity="0.100000001" style="mix-blend-mode: normal;" x="0" y="0" width="24" height="12"></rect>
            </g>
        </g>
    </g>
</svg>