<?xml version="1.0" encoding="UTF-8"?>
<svg width="24px" height="24px" viewBox="0 0 24 24" version="1.1" xmlns="http://www.w3.org/2000/svg" xmlns:xlink="http://www.w3.org/1999/xlink">
    <title>PK</title>
    <defs>
        <circle id="path-1" cx="12" cy="12" r="12"></circle>
        <path d="M12,0 C18.627417,-1.21743675e-15 24,5.372583 24,12 C24,18.627417 18.627417,24 12,24 C5.372583,24 8.11624501e-16,18.627417 0,12 C-8.11624501e-16,5.372583 5.372583,1.21743675e-15 12,0 Z" id="path-3"></path>
        <linearGradient x1="50%" y1="0%" x2="50%" y2="100%" id="linearGradient-5">
            <stop stop-color="#000000" stop-opacity="0" offset="0%"></stop>
            <stop stop-color="#000000" offset="100%"></stop>
        </linearGradient>
        <linearGradient x1="50%" y1="0%" x2="50%" y2="100%" id="linearGradient-6">
            <stop stop-color="#FFFFFF" offset="0%"></stop>
            <stop stop-color="#FFFFFF" stop-opacity="0" offset="100%"></stop>
        </linearGradient>
    </defs>
    <g id="PK" stroke="none" stroke-width="1" fill="none" fill-rule="evenodd">
        <mask id="mask-2" fill="white">
            <use xlink:href="#path-1"></use>
        </mask>
        <g id="Mask"></g>
        <g id="Group" mask="url(#mask-2)">
            <g>
                <mask id="mask-4" fill="white">
                    <use xlink:href="#path-3"></use>
                </mask>
                <g id="Mask" fill-rule="nonzero"></g>
            </g>
        </g>
        <polygon id="Rectangle" fill="#FFFFFF" mask="url(#mask-2)" points="0 0 7 0 7 24 0 24"></polygon>
        <polygon id="Rectangle" fill="#18A454" mask="url(#mask-2)" points="7 -1.13686838e-13 24 -1.13686838e-13 24 24 7 24"></polygon>
        <path d="M18.4100113,8.33522926 L17.2315853,8.34199666 L17.1684976,8.3508127 C16.9918741,8.40130899 16.9328525,8.65586792 17.0952728,8.78046981 L18.0448687,9.50925994 L17.6865013,10.6822597 L17.6753581,10.7418843 C17.6620822,10.936062 17.8781463,11.0774357 18.0433722,10.953251 L19,10.2336825 L19.9566278,10.953251 L20.0074406,10.9827524 C20.1800323,11.055953 20.3754444,10.8848706 20.3134987,10.6822597 L19.9542021,9.50925994 L20.9047272,8.78046981 L20.9508082,8.73458081 C21.0653012,8.58522328 20.96989,8.34302201 20.7684147,8.34199666 L19.5890596,8.33522926 L19.2205583,7.16662587 C19.1503447,6.94445804 18.8496553,6.94445804 18.7794417,7.16662587 L18.4100113,8.33522926 Z" id="Path" fill="#FFFFFF" mask="url(#mask-2)" transform="translate(19.000000, 9.000000) rotate(-30.000000) translate(-19.000000, -9.000000) "></path>
        <path d="M11.7777778,10.5 C11.7777778,14.0898509 14.4640693,17 17.7777778,17 C19.7397928,17 21.4818535,15.979786 22.5766,14.4023314 C21.5970521,17.0847697 19.022189,19 16,19 C12.1340068,19 9,15.8659932 9,12 C9,8.72416305 11.2502061,5.97388989 14.2892482,5.21055066 C12.7685788,6.39033137 11.7777778,8.31981645 11.7777778,10.5 Z" id="Combined-Shape" fill="#FFFFFF" mask="url(#mask-2)"></path>
        <g id="Group" mask="url(#mask-2)">
            <g>
                <path d="M12,0.25 C15.2446729,0.25 18.1821729,1.56516355 20.3085047,3.69149532 C22.4348365,5.81782709 23.75,8.75532709 23.75,12 C23.75,15.2446729 22.4348365,18.1821729 20.3085047,20.3085047 C18.1821729,22.4348365 15.2446729,23.75 12,23.75 C8.75532709,23.75 5.81782709,22.4348365 3.69149532,20.3085047 C1.56516355,18.1821729 0.25,15.2446729 0.25,12 C0.25,8.75532709 1.56516355,5.81782709 3.69149532,3.69149532 C5.81782709,1.56516355 8.75532709,0.25 12,0.25 Z" id="Mask" stroke-opacity="0.15" stroke="#000000" stroke-width="0.5" fill-rule="nonzero"></path>
                <rect id="Dark" fill="url(#linearGradient-5)" style="mix-blend-mode: normal;" opacity="0.100000001" x="0" y="12" width="24" height="12"></rect>
                <rect id="Light" fill="url(#linearGradient-6)" opacity="0.100000001" style="mix-blend-mode: normal;" x="0" y="0" width="24" height="12"></rect>
            </g>
        </g>
    </g>
</svg>