<?xml version="1.0" encoding="UTF-8"?>
<svg width="24px" height="24px" viewBox="0 0 24 24" version="1.1" xmlns="http://www.w3.org/2000/svg" xmlns:xlink="http://www.w3.org/1999/xlink">
    <title>PM</title>
    <defs>
        <circle id="path-1" cx="12" cy="12" r="12"></circle>
        <path d="M12,0 C18.627417,-1.21743675e-15 24,5.372583 24,12 C24,18.627417 18.627417,24 12,24 C5.372583,24 8.11624501e-16,18.627417 0,12 C-8.11624501e-16,5.372583 5.372583,1.21743675e-15 12,0 Z" id="path-3"></path>
        <linearGradient x1="50%" y1="0%" x2="50%" y2="100%" id="linearGradient-5">
            <stop stop-color="#000000" stop-opacity="0" offset="0%"></stop>
            <stop stop-color="#000000" offset="100%"></stop>
        </linearGradient>
        <linearGradient x1="50%" y1="0%" x2="50%" y2="100%" id="linearGradient-6">
            <stop stop-color="#FFFFFF" offset="0%"></stop>
            <stop stop-color="#FFFFFF" stop-opacity="0" offset="100%"></stop>
        </linearGradient>
    </defs>
    <g id="PM" stroke="none" stroke-width="1" fill="none" fill-rule="evenodd">
        <mask id="mask-2" fill="white">
            <use xlink:href="#path-1"></use>
        </mask>
        <g id="Mask"></g>
        <g id="Group" mask="url(#mask-2)">
            <g>
                <mask id="mask-4" fill="white">
                    <use xlink:href="#path-3"></use>
                </mask>
                <g id="Mask" fill-rule="nonzero"></g>
            </g>
        </g>
        <polygon id="Rectangle" fill="#F12339" mask="url(#mask-2)" points="0 0 8 0 8 8 0 8"></polygon>
        <path d="M8,-8.19344592e-14 L7.99966991,1.06066991 L5.05966991,3.99966991 L7.99966991,6.93966991 L8,8 L6.93966991,7.99966991 L3.99966991,5.05966991 L1.06066991,7.99966991 L6.07291994e-13,8 L-0.000330085889,6.94066991 L2.93966991,3.99966991 L-0.000330085889,1.05966991 L6.07291994e-13,-8.19344592e-14 L1.05966991,-0.00033008589 L3.99966991,2.93966991 L6.94066991,-0.00033008589 L8,-8.19344592e-14 Z" id="Combined-Shape" fill="#18A454" mask="url(#mask-2)"></path>
        <path d="M4.75,0 L4.75,3.25 L8,3.25 L8,4.75 L4.75,4.75 L4.75,8 L3.25,8 L3.25,4.75 L0,4.75 L0,3.25 L3.25,3.25 L3.25,0 L4.75,0 Z" id="Combined-Shape" fill="#FFFFFF" mask="url(#mask-2)"></path>
        <polygon id="Rectangle" fill="#FFFFFF" mask="url(#mask-2)" points="0 8 8 8 8 16 0 16"></polygon>
        <polygon id="Rectangle" fill="#F12339" mask="url(#mask-2)" points="0 16 8 16 8 24 0 24"></polygon>
        <polygon id="Rectangle" fill="#2BB8FF" mask="url(#mask-2)" points="8 0 24 0 24 24 8 24"></polygon>
        <g id="Group" mask="url(#mask-2)">
            <g>
                <path d="M12,0.25 C15.2446729,0.25 18.1821729,1.56516355 20.3085047,3.69149532 C22.4348365,5.81782709 23.75,8.75532709 23.75,12 C23.75,15.2446729 22.4348365,18.1821729 20.3085047,20.3085047 C18.1821729,22.4348365 15.2446729,23.75 12,23.75 C8.75532709,23.75 5.81782709,22.4348365 3.69149532,20.3085047 C1.56516355,18.1821729 0.25,15.2446729 0.25,12 C0.25,8.75532709 1.56516355,5.81782709 3.69149532,3.69149532 C5.81782709,1.56516355 8.75532709,0.25 12,0.25 Z" id="Mask" stroke-opacity="0.15" stroke="#000000" stroke-width="0.5" fill-rule="nonzero"></path>
                <rect id="Dark" fill="url(#linearGradient-5)" style="mix-blend-mode: normal;" opacity="0.100000001" x="0" y="12" width="24" height="12"></rect>
                <rect id="Light" fill="url(#linearGradient-6)" opacity="0.100000001" style="mix-blend-mode: normal;" x="0" y="0" width="24" height="12"></rect>
            </g>
        </g>
        <path d="M12.606,12.0010398 L12.6738898,12.2204219 C13.1766247,13.7159949 14.313298,14.5010398 16,14.5010398 C17.4964059,14.5010398 19.0375043,13.4902947 20.6546643,11.5024482 L21.5,11.5010398 C21.8825925,11.5010398 22.1127127,11.9066242 21.945702,12.2284755 L21.945702,12.2284755 L21.9,12.3010398 L18.9,16.3010398 C18.8055728,16.4269427 18.6573787,16.5010398 18.5,16.5010398 L18.5,16.5010398 L14.8166538,16.5010398 C13.5333914,16.5010398 12.2788414,16.1211926 11.2111026,15.4093667 L11.2111026,15.4093667 L9.7226499,14.417065 C9.31103131,14.1426526 9.50529602,13.5010398 10,13.5010398 L10,13.5010398 L11.423,13.5010398 L11.2080786,12.001 L12.606,12.0010398 Z M17.3244383,8.03287522 C17.3973043,8.00555048 17.4712541,7.9963244 17.5421836,8.00235288 C16.6686805,9.29404757 16.1614915,10.2442995 16.0128044,10.8886101 C15.859656,11.5522532 15.9574704,12.4114962 16.293215,13.4824076 C16.1943275,13.4948356 16.096583,13.5010398 16,13.5010398 C14.63822,13.5010398 13.850889,12.8965132 13.5325833,11.5938377 L13.5325833,11.5938377 L13.499,11.442695 L13.4987656,11.2434137 C13.5116828,10.6125332 13.6496508,10.1348387 13.9,9.80103981 C14.0585516,9.58963772 14.3431488,9.32040636 14.7507332,8.99808371 Z M20.3418861,8.02669816 C20.7511713,7.89026978 21.1295189,8.30145785 20.9595725,8.69799946 L20.9595725,8.69799946 L20.2029879,10.4605258 C19.1455244,11.8406933 18.1565082,12.7446665 17.24715,13.1839922 C16.9621761,12.2729081 16.880018,11.5779059 16.9871956,11.1134696 C17.0970573,10.6374022 17.5253241,9.82940968 18.266362,8.71820922 Z M13.3418861,8.52669816 C13.4752684,8.48223739 13.6104468,8.49699332 13.7233037,8.55358291 C13.452792,8.79142933 13.245844,9.0065812 13.1,9.20103981 C12.7474342,9.67112759 12.5534061,10.273438 12.5081452,11.0008063 L12.5081452,11.0008063 L11.1023768,11.0015644 C11.1027633,10.5398981 11.194505,10.0819043 11.3732508,9.65439478 L11.3732508,9.65439478 L11.4718834,9.43923896 L11.5527864,9.27743301 C11.6120906,9.15882459 11.7160829,9.06863257 11.8418861,9.02669816 L11.8418861,9.02669816 Z" id="Combined-Shape" fill="#FFD400" mask="url(#mask-2)"></path>
    </g>
</svg>