<?xml version="1.0" encoding="UTF-8"?>
<svg width="24px" height="24px" viewBox="0 0 24 24" version="1.1" xmlns="http://www.w3.org/2000/svg" xmlns:xlink="http://www.w3.org/1999/xlink">
    <title>PN</title>
    <defs>
        <circle id="path-1" cx="12" cy="12" r="12"></circle>
        <path d="M12,0 C18.627417,-1.21743675e-15 24,5.372583 24,12 C24,18.627417 18.627417,24 12,24 C5.372583,24 8.11624501e-16,18.627417 0,12 C-8.11624501e-16,5.372583 5.372583,1.21743675e-15 12,0 Z" id="path-3"></path>
        <rect id="path-5" x="0" y="0" width="12" height="12"></rect>
        <linearGradient x1="50%" y1="0%" x2="50%" y2="100%" id="linearGradient-7">
            <stop stop-color="#000000" stop-opacity="0" offset="0%"></stop>
            <stop stop-color="#000000" offset="100%"></stop>
        </linearGradient>
        <linearGradient x1="50%" y1="0%" x2="50%" y2="100%" id="linearGradient-8">
            <stop stop-color="#FFFFFF" offset="0%"></stop>
            <stop stop-color="#FFFFFF" stop-opacity="0" offset="100%"></stop>
        </linearGradient>
    </defs>
    <g id="PN" stroke="none" stroke-width="1" fill="none" fill-rule="evenodd">
        <mask id="mask-2" fill="white">
            <use xlink:href="#path-1"></use>
        </mask>
        <g id="Mask"></g>
        <g id="Group" mask="url(#mask-2)">
            <g>
                <mask id="mask-4" fill="white">
                    <use xlink:href="#path-3"></use>
                </mask>
                <g id="Mask" fill-rule="nonzero"></g>
            </g>
        </g>
        <rect id="Rectangle" fill="#0956BA" mask="url(#mask-2)" x="0" y="0" width="24" height="24"></rect>
        <path d="M20.5,11 L15.5,11 C15.2238576,11 15,11.2238576 15,11.5 L15,14.0845241 C15,16.0689082 16.0411567,17.9077892 17.7427521,18.9287465 C17.9046019,19.0258563 18.1073432,19.0235486 18.2669406,18.9227797 L18.4658016,18.7972201 C20.0507232,17.7454107 21,15.9786875 21,14.0845241 L21,11.5 C21,11.2238576 20.7761424,11 20.5,11 Z" id="Path" fill="#2BB8FF" mask="url(#mask-2)"></path>
        <path d="M18,11 L20.5935914,16.1875403 C20.1722977,17.2362683 19.4388425,18.1514761 18.4658016,18.7972201 L18.4658016,18.7972201 L18.2669406,18.9227797 C18.1073432,19.0235486 17.9046019,19.0258563 17.7427521,18.9287465 C16.6691715,18.2845981 15.85849,17.3148608 15.4063255,16.1884138 L18,11 Z" id="Combined-Shape" fill="#18A454" mask="url(#mask-2)"></path>
        <g id="Group" mask="url(#mask-2)">
            <mask id="mask-6" fill="white">
                <use xlink:href="#path-5"></use>
            </mask>
            <use id="Mask" fill="#0956BA" xlink:href="#path-5"></use>
            <path d="M12,3.10840763e-15 L11.9994954,0.662495392 L7.41149539,5.90549539 L11.9994954,9.92049539 L12,12 L11.3364954,11.9994954 L6.09349539,7.41149539 L2.07949539,11.9994954 L-1.1057843e-13,12 L-0.000504607869,11.3384954 L4.58749539,6.09349539 L-0.000504607869,2.07949539 L-1.1057843e-13,3.10840763e-15 L0.661495392,-0.000504607869 L5.90549539,4.58749539 L9.92049539,-0.000504607869 L12,3.10840763e-15 Z" id="Combined-Shape" fill="#FFFFFF" fill-rule="nonzero" mask="url(#mask-6)"></path>
            <path d="M11.9137477,-0.000252303934 L6.7047477,5.9517477 L11.9997477,10.5847477 L11.9997477,11.9137477 L6.0467477,6.7047477 L1.4147477,11.9997477 L0.0857476961,11.9997477 L5.2937477,6.0467477 L-0.000252303934,1.4137477 L-0.000252303934,0.0847476961 L5.9527477,5.2937477 L10.5857477,-0.000252303934 L11.9137477,-0.000252303934 Z" id="Combined-Shape" fill="#F12339" fill-rule="nonzero" mask="url(#mask-6)"></path>
            <path d="M8,0 L8,4 L12,4 L12,8 L8,8 L8,12 L4,12 L4,8 L0,8 L0,4 L4,4 L4,0 L8,0 Z" id="Combined-Shape" fill="#FFFFFF" mask="url(#mask-6)"></path>
            <path d="M7,0 L7,5 L12,5 L12,7 L7,7 L7,12 L5,12 L5,7 L0,7 L0,5 L5,5 L5,0 L7,0 Z" id="Combined-Shape" fill="#F12339" mask="url(#mask-6)"></path>
        </g>
        <path d="M13.5,6 C13.7454599,6 13.9496084,6.17687516 13.9919443,6.41012437 L14,6.5 L14,7.5 C14,8.27969612 14.5948881,8.92044868 15.35554,8.99313342 L15.5,9 L18.5,9 C20.3685634,9 21.8951264,10.4642776 21.9948211,12.3079648 L22,12.5 L22,14.5 C22,15.9486675 21.4615006,17.3846658 20.4,18.8 C20.2343146,19.0209139 19.9209139,19.0656854 19.7,18.9 C19.4790861,18.7343146 19.4343146,18.4209139 19.6,18.2 C20.4714637,17.0380484 20.9316377,15.8939144 20.9929306,14.7611967 L21,14.5 L21,12.5 C21,11.1745166 19.9684641,10.0899613 18.6643757,10.0053177 L18.5,10 L15.5,10 C14.1745166,10 13.0899613,8.96846406 13.0053177,7.66437569 L13,7.5 L13,6.5 C13,6.22385763 13.2238576,6 13.5,6 Z" id="Path" fill="#FFD400" mask="url(#mask-2)" transform="translate(17.500000, 12.500015) scale(-1, 1) translate(-17.500000, -12.500015) "></path>
        <path d="M14.5,6 C14.7454599,6 14.9496084,6.17687516 14.9919443,6.41012437 L15,6.5 L15,7.5 C15,8.27969612 15.5948881,8.92044868 16.35554,8.99313342 L16.5,9 L19.5,9 C21.3685634,9 22.8951264,10.4642776 22.9948211,12.3079648 L23,12.5 L23,14.5 C23,15.9486675 22.4615006,17.3846658 21.4,18.8 C21.2343146,19.0209139 20.9209139,19.0656854 20.7,18.9 C20.4790861,18.7343146 20.4343146,18.4209139 20.6,18.2 C21.4714637,17.0380484 21.9316377,15.8939144 21.9929306,14.7611967 L22,14.5 L22,12.5 C22,11.1745166 20.9684641,10.0899613 19.6643757,10.0053177 L19.5,10 L16.5,10 C15.1745166,10 14.0899613,8.96846406 14.0053177,7.66437569 L14,7.5 L14,6.5 C14,6.22385763 14.2238576,6 14.5,6 Z" id="Path" fill="#18A454" mask="url(#mask-2)"></path>
        <g id="Group" mask="url(#mask-2)">
            <g>
                <path d="M12,0.25 C15.2446729,0.25 18.1821729,1.56516355 20.3085047,3.69149532 C22.4348365,5.81782709 23.75,8.75532709 23.75,12 C23.75,15.2446729 22.4348365,18.1821729 20.3085047,20.3085047 C18.1821729,22.4348365 15.2446729,23.75 12,23.75 C8.75532709,23.75 5.81782709,22.4348365 3.69149532,20.3085047 C1.56516355,18.1821729 0.25,15.2446729 0.25,12 C0.25,8.75532709 1.56516355,5.81782709 3.69149532,3.69149532 C5.81782709,1.56516355 8.75532709,0.25 12,0.25 Z" id="Mask" stroke-opacity="0.15" stroke="#000000" stroke-width="0.5" fill-rule="nonzero"></path>
                <rect id="Dark" fill="url(#linearGradient-7)" style="mix-blend-mode: normal;" opacity="0.100000001" x="0" y="12" width="24" height="12"></rect>
                <rect id="Light" fill="url(#linearGradient-8)" opacity="0.100000001" style="mix-blend-mode: normal;" x="0" y="0" width="24" height="12"></rect>
            </g>
        </g>
    </g>
</svg>