<?xml version="1.0" encoding="UTF-8"?>
<svg width="24px" height="24px" viewBox="0 0 24 24" version="1.1" xmlns="http://www.w3.org/2000/svg" xmlns:xlink="http://www.w3.org/1999/xlink">
    <title>RS</title>
    <defs>
        <circle id="path-1" cx="12" cy="12" r="12"></circle>
        <path d="M12,0 C18.627417,-1.21743675e-15 24,5.372583 24,12 C24,18.627417 18.627417,24 12,24 C5.372583,24 8.11624501e-16,18.627417 0,12 C-8.11624501e-16,5.372583 5.372583,1.21743675e-15 12,0 Z" id="path-3"></path>
        <path d="M-4.54747351e-13,0 L7,0 L7,7.5 C7,9.43299662 5.43299662,11 3.5,11 C1.56700338,11 -4.53178359e-13,9.43299662 -4.54747351e-13,7.5 L-4.54747351e-13,0 L-4.54747351e-13,0 Z" id="path-5"></path>
        <linearGradient x1="50%" y1="0%" x2="50%" y2="100%" id="linearGradient-7">
            <stop stop-color="#000000" stop-opacity="0" offset="0%"></stop>
            <stop stop-color="#000000" offset="100%"></stop>
        </linearGradient>
        <linearGradient x1="50%" y1="0%" x2="50%" y2="100%" id="linearGradient-8">
            <stop stop-color="#FFFFFF" offset="0%"></stop>
            <stop stop-color="#FFFFFF" stop-opacity="0" offset="100%"></stop>
        </linearGradient>
    </defs>
    <g id="RS" stroke="none" stroke-width="1" fill="none" fill-rule="evenodd">
        <mask id="mask-2" fill="white">
            <use xlink:href="#path-1"></use>
        </mask>
        <g id="Mask"></g>
        <g id="Group" mask="url(#mask-2)">
            <g>
                <mask id="mask-4" fill="white">
                    <use xlink:href="#path-3"></use>
                </mask>
                <g id="Mask" fill-rule="nonzero"></g>
            </g>
        </g>
        <polygon id="Rectangle" fill="#0956BA" mask="url(#mask-2)" points="0 8 24 8 24 16 0 16"></polygon>
        <polygon id="Rectangle" fill="#F12339" mask="url(#mask-2)" points="0 0 24 0 24 8 0 8"></polygon>
        <polygon id="Rectangle" fill="#FFFFFF" mask="url(#mask-2)" points="0 16 24 16 24 24 0 24"></polygon>
        <g id="Group" mask="url(#mask-2)">
            <g transform="translate(5.000000, 7.000000)">
                <mask id="mask-6" fill="white">
                    <use xlink:href="#path-5"></use>
                </mask>
                <use id="Mask" stroke="none" fill="#F12339" fill-rule="evenodd" xlink:href="#path-5"></use>
                <path d="M1.25,1 L5.75,1 C5.88807119,1 6,1.11192881 6,1.25 L6,7.5 C6,8.88071187 4.88071187,10 3.5,10 C2.11928813,10 1,8.88071187 1,7.5 L1,1.25 C1,1.11192881 1.11192881,1 1.25,1 Z" id="Rectangle" stroke="none" fill="#FFFFFF" fill-rule="evenodd" mask="url(#mask-6)"></path>
            </g>
        </g>
        <path d="M8.5,3.5 C8.77614237,3.5 9,3.72385763 9,4 L8.99990714,4.691 L10.7236068,5.5527864 C10.9303541,5.65616005 11.0359878,5.88506309 10.9890797,6.10422882 L10.9642383,6.18569534 L10.2379071,8 L6.76090714,8 L6.03576165,6.18569534 C5.94991451,5.97107748 6.02303777,5.72981397 6.20370311,5.59717152 L6.2763932,5.5527864 L7.99990714,4.69 L8,4 C8,3.72385763 8.22385763,3.5 8.5,3.5 Z" id="Combined-Shape" fill="#FFD400" mask="url(#mask-2)"></path>
        <g id="Group" mask="url(#mask-2)">
            <g>
                <path d="M12,0.25 C15.2446729,0.25 18.1821729,1.56516355 20.3085047,3.69149532 C22.4348365,5.81782709 23.75,8.75532709 23.75,12 C23.75,15.2446729 22.4348365,18.1821729 20.3085047,20.3085047 C18.1821729,22.4348365 15.2446729,23.75 12,23.75 C8.75532709,23.75 5.81782709,22.4348365 3.69149532,20.3085047 C1.56516355,18.1821729 0.25,15.2446729 0.25,12 C0.25,8.75532709 1.56516355,5.81782709 3.69149532,3.69149532 C5.81782709,1.56516355 8.75532709,0.25 12,0.25 Z" id="Mask" stroke-opacity="0.15" stroke="#000000" stroke-width="0.5" fill-rule="nonzero"></path>
                <rect id="Dark" fill="url(#linearGradient-7)" style="mix-blend-mode: normal;" opacity="0.100000001" x="0" y="12" width="24" height="12"></rect>
                <rect id="Light" fill="url(#linearGradient-8)" opacity="0.100000001" style="mix-blend-mode: normal;" x="0" y="0" width="24" height="12"></rect>
            </g>
        </g>
    </g>
</svg>