<?xml version="1.0" encoding="UTF-8"?>
<svg width="24px" height="24px" viewBox="0 0 24 24" version="1.1" xmlns="http://www.w3.org/2000/svg" xmlns:xlink="http://www.w3.org/1999/xlink">
    <title>SA</title>
    <defs>
        <circle id="path-1" cx="12" cy="12" r="12"></circle>
        <path d="M12,0 C18.627417,-1.21743675e-15 24,5.372583 24,12 C24,18.627417 18.627417,24 12,24 C5.372583,24 8.11624501e-16,18.627417 0,12 C-8.11624501e-16,5.372583 5.372583,1.21743675e-15 12,0 Z" id="path-3"></path>
        <linearGradient x1="50%" y1="0%" x2="50%" y2="100%" id="linearGradient-5">
            <stop stop-color="#000000" stop-opacity="0" offset="0%"></stop>
            <stop stop-color="#000000" offset="100%"></stop>
        </linearGradient>
        <linearGradient x1="50%" y1="0%" x2="50%" y2="100%" id="linearGradient-6">
            <stop stop-color="#FFFFFF" offset="0%"></stop>
            <stop stop-color="#FFFFFF" stop-opacity="0" offset="100%"></stop>
        </linearGradient>
    </defs>
    <g id="SA" stroke="none" stroke-width="1" fill="none" fill-rule="evenodd">
        <mask id="mask-2" fill="white">
            <use xlink:href="#path-1"></use>
        </mask>
        <g id="Mask"></g>
        <g id="Group" mask="url(#mask-2)">
            <g>
                <mask id="mask-4" fill="white">
                    <use xlink:href="#path-3"></use>
                </mask>
                <g id="Mask" fill-rule="nonzero"></g>
            </g>
        </g>
        <rect id="Rectangle" fill="#18A454" mask="url(#mask-2)" x="0" y="0" width="24" height="24"></rect>
        <path d="M15.5,14 C15.7761424,14 16,14.2238576 16,14.5 L16,15 L16.5,15 C16.7761424,15 17,15.2238576 17,15.5 C17,15.7761424 16.7761424,16 16.5,16 L16,16 L16,16.5 C16,16.7761424 15.7761424,17 15.5,17 C15.2238576,17 15,16.7761424 15,16.5 L15,16 L9.41421356,16 C8.50870783,16 7.64028925,15.6402892 7,15 L15,15 L15,14.5 C15,14.2238576 15.2238576,14 15.5,14 Z" id="Combined-Shape" fill="#FFFFFF" mask="url(#mask-2)"></path>
        <path d="M8.5,8 C8.74545989,8 8.94960837,8.17687516 8.99194433,8.41012437 L9,8.5 L9,10.5 C9,11.2796961 8.40511192,11.9204487 7.64446001,11.9931334 L7.5,12 L6.5,12 C6.25454011,12 6.05039163,11.8231248 6.00805567,11.5898756 L6,11.5 L6,10.5 C6,10.2545401 6.17687516,10.0503916 6.41012437,10.0080557 L6.5,10 L7,10 L7,9.707 L6.14644661,8.85355339 C5.87346184,8.58056862 6.00462428,8.13964402 6.33442703,8.02691718 L6.41396798,8.00695512 L6.5,8 L8.5,8 Z M13.5,8 C13.812839,8 14.0414029,8.28094547 13.9941971,8.57715163 L13.9743416,8.65811388 L13.527,9.999 L13.9743416,11.3418861 C14.0633772,11.6089927 13.9149382,11.8833022 13.6686245,11.9711304 L13.5830864,11.993234 L13.5,12 L10.5,12 C10.187161,12 9.95859709,11.7190545 10.0058029,11.4228484 L10.0256584,11.3418861 L10.472,10 L10.0256584,8.65811388 C9.93662282,8.3910073 10.0850618,8.11669782 10.3313755,8.02886964 L10.4169136,8.00676598 L10.5,8 L13.5,8 Z M17.5,8 C17.7454599,8 17.9496084,8.17687516 17.9919443,8.41012437 L18,8.5 L18,10.5 C18,11.3284271 17.3284271,12 16.5,12 L15.5,12 L15.5,12 C15.2042858,12 14.9801474,11.74736 15.0011126,11.4643305 L15.0149287,11.3787322 L15.469,9.557 L15.0527864,8.7236068 C14.9121343,8.44230249 15.0635812,8.11896629 15.3386894,8.02613631 L15.4166584,8.00673884 L15.5,8 L17.5,8 Z" id="Shape" fill="#FFFFFF" mask="url(#mask-2)"></path>
        <g id="Group" mask="url(#mask-2)">
            <g>
                <path d="M12,0.25 C15.2446729,0.25 18.1821729,1.56516355 20.3085047,3.69149532 C22.4348365,5.81782709 23.75,8.75532709 23.75,12 C23.75,15.2446729 22.4348365,18.1821729 20.3085047,20.3085047 C18.1821729,22.4348365 15.2446729,23.75 12,23.75 C8.75532709,23.75 5.81782709,22.4348365 3.69149532,20.3085047 C1.56516355,18.1821729 0.25,15.2446729 0.25,12 C0.25,8.75532709 1.56516355,5.81782709 3.69149532,3.69149532 C5.81782709,1.56516355 8.75532709,0.25 12,0.25 Z" id="Mask" stroke-opacity="0.15" stroke="#000000" stroke-width="0.5" fill-rule="nonzero"></path>
                <rect id="Dark" fill="url(#linearGradient-5)" style="mix-blend-mode: normal;" opacity="0.100000001" x="0" y="12" width="24" height="12"></rect>
                <rect id="Light" fill="url(#linearGradient-6)" opacity="0.100000001" style="mix-blend-mode: normal;" x="0" y="0" width="24" height="12"></rect>
            </g>
        </g>
    </g>
</svg>