<?xml version="1.0" encoding="UTF-8"?>
<svg width="24px" height="24px" viewBox="0 0 24 24" version="1.1" xmlns="http://www.w3.org/2000/svg" xmlns:xlink="http://www.w3.org/1999/xlink">
    <title>SB</title>
    <defs>
        <circle id="path-1" cx="12" cy="12" r="12"></circle>
        <path d="M12,0 C18.627417,-1.21743675e-15 24,5.372583 24,12 C24,18.627417 18.627417,24 12,24 C5.372583,24 8.11624501e-16,18.627417 0,12 C-8.11624501e-16,5.372583 5.372583,1.21743675e-15 12,0 Z" id="path-3"></path>
        <linearGradient x1="50%" y1="0%" x2="50%" y2="100%" id="linearGradient-5">
            <stop stop-color="#000000" stop-opacity="0" offset="0%"></stop>
            <stop stop-color="#000000" offset="100%"></stop>
        </linearGradient>
        <linearGradient x1="50%" y1="0%" x2="50%" y2="100%" id="linearGradient-6">
            <stop stop-color="#FFFFFF" offset="0%"></stop>
            <stop stop-color="#FFFFFF" stop-opacity="0" offset="100%"></stop>
        </linearGradient>
    </defs>
    <g id="SB" stroke="none" stroke-width="1" fill="none" fill-rule="evenodd">
        <mask id="mask-2" fill="white">
            <use xlink:href="#path-1"></use>
        </mask>
        <g id="Mask"></g>
        <g id="Group" mask="url(#mask-2)">
            <g>
                <mask id="mask-4" fill="white">
                    <use xlink:href="#path-3"></use>
                </mask>
                <g id="Mask" fill-rule="nonzero"></g>
            </g>
        </g>
        <polygon id="Rectangle" fill="#18A454" mask="url(#mask-2)" transform="translate(12.000000, 12.000000) scale(-1, 1) translate(-12.000000, -12.000000) " points="0 0 24 24 0 24"></polygon>
        <polygon id="Rectangle" fill="#0956BA" mask="url(#mask-2)" transform="translate(12.000000, 12.000000) scale(1, -1) translate(-12.000000, -12.000000) " points="0 0 24 24 0 24"></polygon>
        <path d="M4.63125708,3.83451829 L3.89474082,3.83874792 L3.85531101,3.84425794 C3.74492131,3.87581812 3.70803279,4.03491745 3.80954548,4.11279363 L4.40304296,4.56828746 L4.1790633,5.30141231 L4.17209883,5.33867772 C4.16380137,5.46003873 4.29884145,5.54839731 4.4021076,5.47078188 L5,5.02105156 L5.5978924,5.47078188 L5.62965035,5.48922026 C5.73752017,5.5349706 5.85965278,5.42804409 5.8209367,5.30141231 L5.59637634,4.56828746 L6.19045452,4.11279363 L6.21925514,4.08411301 C6.29081324,3.99076455 6.23118124,3.83938875 6.10525918,3.83874792 L5.36816222,3.83451829 L5.13784896,3.10414117 C5.09396541,2.96528628 4.90603459,2.96528628 4.86215104,3.10414117 L4.63125708,3.83451829 Z" id="Path" fill="#FFFFFF" mask="url(#mask-2)"></path>
        <path d="M4.63125708,8.83451829 L3.89474082,8.83874792 L3.85531101,8.84425794 C3.74492131,8.87581812 3.70803279,9.03491745 3.80954548,9.11279363 L4.40304296,9.56828746 L4.1790633,10.3014123 L4.17209883,10.3386777 C4.16380137,10.4600387 4.29884145,10.5483973 4.4021076,10.4707819 L5,10.0210516 L5.5978924,10.4707819 L5.62965035,10.4892203 C5.73752017,10.5349706 5.85965278,10.4280441 5.8209367,10.3014123 L5.59637634,9.56828746 L6.19045452,9.11279363 L6.21925514,9.08411301 C6.29081324,8.99076455 6.23118124,8.83938875 6.10525918,8.83874792 L5.36816222,8.83451829 L5.13784896,8.10414117 C5.09396541,7.96528628 4.90603459,7.96528628 4.86215104,8.10414117 L4.63125708,8.83451829 Z" id="Path" fill="#FFFFFF" mask="url(#mask-2)"></path>
        <path d="M9.63125708,3.83451829 L8.89474082,3.83874792 L8.85531101,3.84425794 C8.74492131,3.87581812 8.70803279,4.03491745 8.80954548,4.11279363 L9.40304296,4.56828746 L9.1790633,5.30141231 L9.17209883,5.33867772 C9.16380137,5.46003873 9.29884145,5.54839731 9.4021076,5.47078188 L10,5.02105156 L10.5978924,5.47078188 L10.6296503,5.48922026 C10.7375202,5.5349706 10.8596528,5.42804409 10.8209367,5.30141231 L10.5963763,4.56828746 L11.1904545,4.11279363 L11.2192551,4.08411301 C11.2908132,3.99076455 11.2311812,3.83938875 11.1052592,3.83874792 L10.3681622,3.83451829 L10.137849,3.10414117 C10.0939654,2.96528628 9.90603459,2.96528628 9.86215104,3.10414117 L9.63125708,3.83451829 Z" id="Path" fill="#FFFFFF" mask="url(#mask-2)"></path>
        <path d="M9.63125708,8.83451829 L8.89474082,8.83874792 L8.85531101,8.84425794 C8.74492131,8.87581812 8.70803279,9.03491745 8.80954548,9.11279363 L9.40304296,9.56828746 L9.1790633,10.3014123 L9.17209883,10.3386777 C9.16380137,10.4600387 9.29884145,10.5483973 9.4021076,10.4707819 L10,10.0210516 L10.5978924,10.4707819 L10.6296503,10.4892203 C10.7375202,10.5349706 10.8596528,10.4280441 10.8209367,10.3014123 L10.5963763,9.56828746 L11.1904545,9.11279363 L11.2192551,9.08411301 C11.2908132,8.99076455 11.2311812,8.83938875 11.1052592,8.83874792 L10.3681622,8.83451829 L10.137849,8.10414117 C10.0939654,7.96528628 9.90603459,7.96528628 9.86215104,8.10414117 L9.63125708,8.83451829 Z" id="Path" fill="#FFFFFF" mask="url(#mask-2)"></path>
        <path d="M7.13125708,6.33451829 L6.39474082,6.33874792 L6.35531101,6.34425794 C6.24492131,6.37581812 6.20803279,6.53491745 6.30954548,6.61279363 L6.90304296,7.06828746 L6.6790633,7.80141231 L6.67209883,7.83867772 C6.66380137,7.96003873 6.79884145,8.04839731 6.9021076,7.97078188 L7.5,7.52105156 L8.0978924,7.97078188 L8.12965035,7.98922026 C8.23752017,8.0349706 8.35965278,7.92804409 8.3209367,7.80141231 L8.09637634,7.06828746 L8.69045452,6.61279363 L8.71925514,6.58411301 C8.79081324,6.49076455 8.73118124,6.33938875 8.60525918,6.33874792 L7.86816222,6.33451829 L7.63784896,5.60414117 C7.59396541,5.46528628 7.40603459,5.46528628 7.36215104,5.60414117 L7.13125708,6.33451829 Z" id="Path" fill="#FFFFFF" mask="url(#mask-2)"></path>
        <g id="Group" mask="url(#mask-2)">
            <g>
                <path d="M12,0.25 C15.2446729,0.25 18.1821729,1.56516355 20.3085047,3.69149532 C22.4348365,5.81782709 23.75,8.75532709 23.75,12 C23.75,15.2446729 22.4348365,18.1821729 20.3085047,20.3085047 C18.1821729,22.4348365 15.2446729,23.75 12,23.75 C8.75532709,23.75 5.81782709,22.4348365 3.69149532,20.3085047 C1.56516355,18.1821729 0.25,15.2446729 0.25,12 C0.25,8.75532709 1.56516355,5.81782709 3.69149532,3.69149532 C5.81782709,1.56516355 8.75532709,0.25 12,0.25 Z" id="Mask" stroke-opacity="0.15" stroke="#000000" stroke-width="0.5" fill-rule="nonzero"></path>
                <rect id="Dark" fill="url(#linearGradient-5)" style="mix-blend-mode: normal;" opacity="0.100000001" x="0" y="12" width="24" height="12"></rect>
                <rect id="Light" fill="url(#linearGradient-6)" opacity="0.100000001" style="mix-blend-mode: normal;" x="0" y="0" width="24" height="12"></rect>
            </g>
        </g>
        <line x1="-1" y1="25" x2="25" y2="-1" id="Path-55" stroke="#FCD116" stroke-width="2" mask="url(#mask-2)"></line>
    </g>
</svg>