<?xml version="1.0" encoding="UTF-8"?>
<svg width="24px" height="24px" viewBox="0 0 24 24" version="1.1" xmlns="http://www.w3.org/2000/svg" xmlns:xlink="http://www.w3.org/1999/xlink">
    <title>SG</title>
    <defs>
        <circle id="path-1" cx="12" cy="12" r="12"></circle>
        <path d="M12,0 C18.627417,-1.21743675e-15 24,5.372583 24,12 C24,18.627417 18.627417,24 12,24 C5.372583,24 8.11624501e-16,18.627417 0,12 C-8.11624501e-16,5.372583 5.372583,1.21743675e-15 12,0 Z" id="path-3"></path>
        <linearGradient x1="50%" y1="0%" x2="50%" y2="100%" id="linearGradient-5">
            <stop stop-color="#000000" stop-opacity="0" offset="0%"></stop>
            <stop stop-color="#000000" offset="100%"></stop>
        </linearGradient>
        <linearGradient x1="50%" y1="0%" x2="50%" y2="100%" id="linearGradient-6">
            <stop stop-color="#FFFFFF" offset="0%"></stop>
            <stop stop-color="#FFFFFF" stop-opacity="0" offset="100%"></stop>
        </linearGradient>
    </defs>
    <g id="SG" stroke="none" stroke-width="1" fill="none" fill-rule="evenodd">
        <mask id="mask-2" fill="white">
            <use xlink:href="#path-1"></use>
        </mask>
        <g id="Mask"></g>
        <g id="Group" mask="url(#mask-2)">
            <g>
                <mask id="mask-4" fill="white">
                    <use xlink:href="#path-3"></use>
                </mask>
                <g id="Mask" fill-rule="nonzero"></g>
            </g>
        </g>
        <rect id="Rectangle" fill="#F12339" mask="url(#mask-2)" x="0" y="0" width="24" height="12"></rect>
        <g id="Group" mask="url(#mask-2)" fill="#FFFFFF">
            <g transform="translate(4.500000, 2.500000)">
                <path d="M4,0 C4.48335553,0 4.94668699,0.0857332277 5.37561734,0.24282264 C3.47817665,0.44426888 2,2.04951111 2,4 C2,5.95048889 3.47817665,7.55573112 5.37540526,7.75660199 C4.94668699,7.91426677 4.48335553,8 4,8 C1.790861,8 -3.73034936e-14,6.209139 -3.73034936e-14,4 C-3.73034936e-14,1.790861 1.790861,0 4,0 Z" id="Combined-Shape"></path>
                <path d="M6.85096012,1.26398101 L6.32588186,1.26310343 L6.28669487,1.27062931 C6.21623853,1.29972116 6.19554121,1.40580603 6.26515918,1.45842796 L6.69074015,1.77929411 L6.52756139,2.30248806 L6.52211866,2.33879404 C6.52323583,2.42052023 6.61569243,2.47724766 6.68653542,2.42320526 L7.11111111,2.09866738 L7.5356868,2.42320526 L7.56704206,2.43983452 C7.6417552,2.46397883 7.7219458,2.38960632 7.69466083,2.30248806 L7.53065619,1.77929411 L7.95706304,1.45842796 L7.98453351,1.42826571 C8.02517295,1.36144658 7.98225648,1.26290716 7.89634036,1.26310343 L7.37043622,1.26398101 L7.20936246,0.741445597 C7.17859637,0.641740357 7.04362586,0.641740357 7.01285976,0.741445597 L6.85096012,1.26398101 Z" id="Path"></path>
                <path d="M4.6287379,3.04175879 L4.10365964,3.04088121 L4.06447264,3.04840708 C3.99401631,3.07749893 3.97331899,3.18358381 4.04293696,3.23620574 L4.46851793,3.55707189 L4.30533917,4.08026584 L4.29989644,4.11657182 C4.30101361,4.19829801 4.39347021,4.25502544 4.4643132,4.20098304 L4.88888889,3.87644516 L5.31346458,4.20098304 L5.34481983,4.2176123 C5.41953298,4.24175661 5.49972358,4.1673841 5.47243861,4.08026584 L5.30843397,3.55707189 L5.73484082,3.23620574 L5.76231129,3.20604349 C5.80295073,3.13922436 5.76003425,3.04068494 5.67411814,3.04088121 L5.148214,3.04175879 L4.98714024,2.51922337 C4.95637414,2.41951813 4.82140363,2.41951813 4.79063754,2.51922337 L4.6287379,3.04175879 Z" id="Path"></path>
                <path d="M9.07318235,3.04175879 L8.54810408,3.04088121 L8.50891709,3.04840708 C8.43846075,3.07749893 8.41776343,3.18358381 8.48738141,3.23620574 L8.91296237,3.55707189 L8.74978361,4.08026584 L8.74434088,4.11657182 C8.74545805,4.19829801 8.83791465,4.25502544 8.90875764,4.20098304 L9.33333333,3.87644516 L9.75790902,4.20098304 L9.78926428,4.2176123 C9.86397742,4.24175661 9.94416803,4.1673841 9.91688305,4.08026584 L9.75287842,3.55707189 L10.1792853,3.23620574 L10.2067557,3.20604349 C10.2473952,3.13922436 10.2044787,3.04068494 10.1185626,3.04088121 L9.59265844,3.04175879 L9.43158469,2.51922337 C9.40081859,2.41951813 9.26584808,2.41951813 9.23508198,2.51922337 L9.07318235,3.04175879 Z" id="Path"></path>
                <path d="M8.40651568,5.70842546 L7.88143742,5.70754787 L7.84225042,5.71507375 C7.77179408,5.7441656 7.75109676,5.85025048 7.82071474,5.9028724 L8.24629571,6.22373855 L8.08311695,6.74693251 L8.07767422,6.78323849 C8.07879139,6.86496468 8.17124798,6.92169211 8.24209098,6.86764971 L8.66666667,6.54311183 L9.09124236,6.86764971 L9.12259761,6.88427897 C9.19731076,6.90842328 9.27750136,6.83405076 9.25021639,6.74693251 L9.08621175,6.22373855 L9.51261859,5.9028724 L9.54008907,5.87271016 C9.58072851,5.80589102 9.53781203,5.70735161 9.45189592,5.70754787 L8.92599178,5.70842546 L8.76491802,5.18589004 C8.73415192,5.0861848 8.59918141,5.0861848 8.56841531,5.18589004 L8.40651568,5.70842546 Z" id="Path"></path>
                <path d="M5.29540457,5.70842546 L4.7703263,5.70754787 L4.73113931,5.71507375 C4.66068297,5.7441656 4.63998565,5.85025048 4.70960363,5.9028724 L5.1351846,6.22373855 L4.97200584,6.74693251 L4.9665631,6.78323849 C4.96768028,6.86496468 5.06013687,6.92169211 5.13097987,6.86764971 L5.55555556,6.54311183 L5.98013125,6.86764971 L6.0114865,6.88427897 C6.08619965,6.90842328 6.16639025,6.83405076 6.13910528,6.74693251 L5.97510064,6.22373855 L6.40150748,5.9028724 L6.42897796,5.87271016 C6.4696174,5.80589102 6.42670092,5.70735161 6.34078481,5.70754787 L5.81488067,5.70842546 L5.65380691,5.18589004 C5.62304081,5.0861848 5.4880703,5.0861848 5.4573042,5.18589004 L5.29540457,5.70842546 Z" id="Path"></path>
            </g>
        </g>
        <rect id="Rectangle" fill="#FFFFFF" mask="url(#mask-2)" x="0" y="12" width="24" height="12"></rect>
        <g id="Group" mask="url(#mask-2)">
            <g>
                <path d="M12,0.25 C15.2446729,0.25 18.1821729,1.56516355 20.3085047,3.69149532 C22.4348365,5.81782709 23.75,8.75532709 23.75,12 C23.75,15.2446729 22.4348365,18.1821729 20.3085047,20.3085047 C18.1821729,22.4348365 15.2446729,23.75 12,23.75 C8.75532709,23.75 5.81782709,22.4348365 3.69149532,20.3085047 C1.56516355,18.1821729 0.25,15.2446729 0.25,12 C0.25,8.75532709 1.56516355,5.81782709 3.69149532,3.69149532 C5.81782709,1.56516355 8.75532709,0.25 12,0.25 Z" id="Mask" stroke-opacity="0.15" stroke="#000000" stroke-width="0.5" fill-rule="nonzero"></path>
                <rect id="Dark" fill="url(#linearGradient-5)" style="mix-blend-mode: normal;" opacity="0.100000001" x="0" y="12" width="24" height="12"></rect>
                <rect id="Light" fill="url(#linearGradient-6)" opacity="0.100000001" style="mix-blend-mode: normal;" x="0" y="0" width="24" height="12"></rect>
            </g>
        </g>
    </g>
</svg>