<?xml version="1.0" encoding="UTF-8"?>
<svg width="24px" height="24px" viewBox="0 0 24 24" version="1.1" xmlns="http://www.w3.org/2000/svg" xmlns:xlink="http://www.w3.org/1999/xlink">
    <title>SM</title>
    <defs>
        <circle id="path-1" cx="12" cy="12" r="12"></circle>
        <path d="M12,0 C18.627417,-1.21743675e-15 24,5.372583 24,12 C24,18.627417 18.627417,24 12,24 C5.372583,24 8.11624501e-16,18.627417 0,12 C-8.11624501e-16,5.372583 5.372583,1.21743675e-15 12,0 Z" id="path-3"></path>
        <linearGradient x1="50%" y1="0%" x2="50%" y2="100%" id="linearGradient-5">
            <stop stop-color="#000000" stop-opacity="0" offset="0%"></stop>
            <stop stop-color="#000000" offset="100%"></stop>
        </linearGradient>
        <linearGradient x1="50%" y1="0%" x2="50%" y2="100%" id="linearGradient-6">
            <stop stop-color="#FFFFFF" offset="0%"></stop>
            <stop stop-color="#FFFFFF" stop-opacity="0" offset="100%"></stop>
        </linearGradient>
    </defs>
    <g id="SM" stroke="none" stroke-width="1" fill="none" fill-rule="evenodd">
        <mask id="mask-2" fill="white">
            <use xlink:href="#path-1"></use>
        </mask>
        <g id="Mask"></g>
        <g id="Group" mask="url(#mask-2)">
            <g>
                <mask id="mask-4" fill="white">
                    <use xlink:href="#path-3"></use>
                </mask>
                <g id="Mask" fill-rule="nonzero"></g>
            </g>
        </g>
        <polygon id="Rectangle" fill="#FFFFFF" mask="url(#mask-2)" points="0 0 24 0 24 12 0 12"></polygon>
        <polygon id="Rectangle" fill="#2BB8FF" mask="url(#mask-2)" points="0 12 24 12 24 24 0 24"></polygon>
        <path d="M12,4 C12.2454599,4 12.4496084,4.17687516 12.4919443,4.41012437 L12.5,4.5 L12.5,5.191 L14.2236068,6.0527864 C14.4431528,6.1625594 14.5466478,6.41205933 14.480202,6.63961698 L14.4472136,6.7236068 L13.6850021,8.24771094 C14.83868,8.64817068 15.5,9.5433853 15.5,11 C15.5,13.3644849 13.8802999,16 12,16 C10.1197001,16 8.5,13.3644849 8.5,11 C8.5,9.5433853 9.16132003,8.64817068 10.3149979,8.24771094 L9.5527864,6.7236068 C9.42929178,6.47661755 9.52940395,6.17628103 9.7763932,6.0527864 L9.7763932,6.0527864 L11.5,5.19 L11.5,4.5 C11.5,4.22385763 11.7238576,4 12,4 Z" id="Combined-Shape" fill="#FFD400" mask="url(#mask-2)"></path>
        <path d="M12,9 C13.6806274,9 14.5,9.5786171 14.5,11 C14.5,12.8829955 13.1989593,15 12,15 C10.8010407,15 9.5,12.8829955 9.5,11 C9.5,9.5786171 10.3193726,9 12,9 Z" id="Path" fill="#2BB8FF" mask="url(#mask-2)"></path>
        <path d="M12,15 C11.2296972,15 10.4172577,14.1261521 9.93478736,13.0019416 L14.0652126,13.0019416 C13.5827423,14.1261521 12.7703028,15 12,15 Z" id="Combined-Shape" fill="#18A454" mask="url(#mask-2)"></path>
        <path d="M17.2672941,9.01197991 C17.7739862,8.93283636 18.2511698,9.24902293 18.3849948,9.73148892 L18.4140534,9.87225904 L18.4337896,9.99752814 C18.448558,10.1083903 18.4608751,10.2197828 18.4707215,10.3316354 C18.4902014,10.5529238 18.5,10.7758851 18.5,11 C18.5,14.0126125 16.7282844,16.5991175 14.2262689,17.5797835 C13.9927752,17.6713015 13.5840189,17.3113737 13,16.5 L11,16.5 C10.7353892,17.4181436 10.3898525,17.8016557 9.96338979,17.6505361 C7.36172096,16.7286192 5.5,14.0881867 5.5,11 C5.5,10.7758851 5.50979857,10.5529238 5.52927854,10.3316354 L5.5458987,10.1642104 L5.57664599,9.92696596 L5.59036047,9.84567468 C5.67559199,9.30000625 6.18703745,8.92674839 6.73270588,9.01197991 C7.27837431,9.09721143 7.65163217,9.60865689 7.56640065,10.1543253 L7.54869718,10.2616228 C7.53785722,10.3429955 7.52881074,10.4248096 7.52157404,10.5070169 C7.50722691,10.6699972 7.5,10.8344418 7.5,11 C7.5,13.7799121 9.53508061,16 12,16 C14.4649194,16 16.5,13.7799121 16.5,11 C16.5,10.8344418 16.4927731,10.6699972 16.478426,10.5070169 L16.4662156,10.3840069 L16.4335994,10.1543253 C16.3483678,9.60865689 16.7216257,9.09721143 17.2672941,9.01197991 Z" id="Path" fill="#18A454" mask="url(#mask-2)"></path>
        <rect id="Rectangle" fill="#FFFFFF" mask="url(#mask-2)" x="10" y="16" width="4" height="1" rx="0.5"></rect>
        <rect id="Rectangle" fill="#FFFFFF" mask="url(#mask-2)" x="10" y="16" width="1" height="2" rx="0.5"></rect>
        <rect id="Rectangle" fill="#FFFFFF" mask="url(#mask-2)" x="13" y="16" width="1" height="2" rx="0.5"></rect>
        <rect id="Rectangle" fill="#FFFFFF" mask="url(#mask-2)" x="8" y="17" width="3" height="1" rx="0.5"></rect>
        <rect id="Rectangle" fill="#FFFFFF" mask="url(#mask-2)" x="13" y="17" width="3" height="1" rx="0.5"></rect>
        <g id="Group" mask="url(#mask-2)">
            <g>
                <path d="M12,0.25 C15.2446729,0.25 18.1821729,1.56516355 20.3085047,3.69149532 C22.4348365,5.81782709 23.75,8.75532709 23.75,12 C23.75,15.2446729 22.4348365,18.1821729 20.3085047,20.3085047 C18.1821729,22.4348365 15.2446729,23.75 12,23.75 C8.75532709,23.75 5.81782709,22.4348365 3.69149532,20.3085047 C1.56516355,18.1821729 0.25,15.2446729 0.25,12 C0.25,8.75532709 1.56516355,5.81782709 3.69149532,3.69149532 C5.81782709,1.56516355 8.75532709,0.25 12,0.25 Z" id="Mask" stroke-opacity="0.15" stroke="#000000" stroke-width="0.5" fill-rule="nonzero"></path>
                <rect id="Dark" fill="url(#linearGradient-5)" style="mix-blend-mode: normal;" opacity="0.100000001" x="0" y="12" width="24" height="12"></rect>
                <rect id="Light" fill="url(#linearGradient-6)" opacity="0.100000001" style="mix-blend-mode: normal;" x="0" y="0" width="24" height="12"></rect>
            </g>
        </g>
    </g>
</svg>