<?xml version="1.0" encoding="UTF-8"?>
<svg width="24px" height="24px" viewBox="0 0 24 24" version="1.1" xmlns="http://www.w3.org/2000/svg" xmlns:xlink="http://www.w3.org/1999/xlink">
    <title>SR</title>
    <defs>
        <circle id="path-1" cx="12" cy="12" r="12"></circle>
        <path d="M12,0 C18.627417,-1.21743675e-15 24,5.372583 24,12 C24,18.627417 18.627417,24 12,24 C5.372583,24 8.11624501e-16,18.627417 0,12 C-8.11624501e-16,5.372583 5.372583,1.21743675e-15 12,0 Z" id="path-3"></path>
        <linearGradient x1="50%" y1="0%" x2="50%" y2="100%" id="linearGradient-5">
            <stop stop-color="#000000" stop-opacity="0" offset="0%"></stop>
            <stop stop-color="#000000" offset="100%"></stop>
        </linearGradient>
        <linearGradient x1="50%" y1="0%" x2="50%" y2="100%" id="linearGradient-6">
            <stop stop-color="#FFFFFF" offset="0%"></stop>
            <stop stop-color="#FFFFFF" stop-opacity="0" offset="100%"></stop>
        </linearGradient>
    </defs>
    <g id="SR" stroke="none" stroke-width="1" fill="none" fill-rule="evenodd">
        <mask id="mask-2" fill="white">
            <use xlink:href="#path-1"></use>
        </mask>
        <g id="Mask"></g>
        <g id="Group" mask="url(#mask-2)">
            <g>
                <mask id="mask-4" fill="white">
                    <use xlink:href="#path-3"></use>
                </mask>
                <g id="Mask" fill-rule="nonzero"></g>
            </g>
        </g>
        <rect id="Rectangle" fill="#18A454" mask="url(#mask-2)" x="0" y="0" width="24" height="5"></rect>
        <rect id="Rectangle" fill="#18A454" mask="url(#mask-2)" x="0" y="19" width="24" height="5"></rect>
        <rect id="Rectangle" fill="#FFFFFF" mask="url(#mask-2)" x="0" y="5" width="24" height="2"></rect>
        <rect id="Rectangle" fill="#FFFFFF" mask="url(#mask-2)" x="0" y="17" width="24" height="2"></rect>
        <rect id="Rectangle" fill="#F12339" mask="url(#mask-2)" x="0" y="7" width="24" height="10"></rect>
        <path d="M10.8707951,10.7542239 L8.35778579,10.7681818 L8.28685109,10.7753516 C7.99358026,10.8347342 7.88829494,11.2476371 8.14719086,11.4465221 L10.1731761,13.0026721 L9.40823807,15.5084395 L9.39283342,15.581261 C9.35616994,15.8915226 9.69884853,16.1239138 9.95958276,15.9276769 L12,14.3908009 L14.0404172,15.9276769 L14.1018314,15.9655132 C14.3724429,16.0978828 14.6895152,15.8286056 14.5917619,15.5084395 L13.825867,13.0026721 L15.8528091,11.4465221 L15.9061698,11.3970848 C16.1100804,11.1686321 15.9633633,10.7698184 15.6422142,10.7681818 L13.128248,10.7542239 L12.3407498,8.25777874 C12.2322737,7.91407375 11.7677263,7.91407375 11.6592502,8.25777874 L10.8707951,10.7542239 Z" id="Path" fill="#FFD400" mask="url(#mask-2)"></path>
        <g id="Group" mask="url(#mask-2)">
            <g>
                <path d="M12,0.25 C15.2446729,0.25 18.1821729,1.56516355 20.3085047,3.69149532 C22.4348365,5.81782709 23.75,8.75532709 23.75,12 C23.75,15.2446729 22.4348365,18.1821729 20.3085047,20.3085047 C18.1821729,22.4348365 15.2446729,23.75 12,23.75 C8.75532709,23.75 5.81782709,22.4348365 3.69149532,20.3085047 C1.56516355,18.1821729 0.25,15.2446729 0.25,12 C0.25,8.75532709 1.56516355,5.81782709 3.69149532,3.69149532 C5.81782709,1.56516355 8.75532709,0.25 12,0.25 Z" id="Mask" stroke-opacity="0.15" stroke="#000000" stroke-width="0.5" fill-rule="nonzero"></path>
                <rect id="Dark" fill="url(#linearGradient-5)" style="mix-blend-mode: normal;" opacity="0.100000001" x="0" y="12" width="24" height="12"></rect>
                <rect id="Light" fill="url(#linearGradient-6)" opacity="0.100000001" style="mix-blend-mode: normal;" x="0" y="0" width="24" height="12"></rect>
            </g>
        </g>
    </g>
</svg>