<?xml version="1.0" encoding="UTF-8"?>
<svg width="24px" height="24px" viewBox="0 0 24 24" version="1.1" xmlns="http://www.w3.org/2000/svg" xmlns:xlink="http://www.w3.org/1999/xlink">
    <title>SS</title>
    <defs>
        <circle id="path-1" cx="12" cy="12" r="12"></circle>
        <path d="M12,0 C18.627417,-1.21743675e-15 24,5.372583 24,12 C24,18.627417 18.627417,24 12,24 C5.372583,24 8.11624501e-16,18.627417 0,12 C-8.11624501e-16,5.372583 5.372583,1.21743675e-15 12,0 Z" id="path-3"></path>
        <linearGradient x1="50%" y1="0%" x2="50%" y2="100%" id="linearGradient-5">
            <stop stop-color="#000000" stop-opacity="0" offset="0%"></stop>
            <stop stop-color="#000000" offset="100%"></stop>
        </linearGradient>
        <linearGradient x1="50%" y1="0%" x2="50%" y2="100%" id="linearGradient-6">
            <stop stop-color="#FFFFFF" offset="0%"></stop>
            <stop stop-color="#FFFFFF" stop-opacity="0" offset="100%"></stop>
        </linearGradient>
    </defs>
    <g id="SS" stroke="none" stroke-width="1" fill="none" fill-rule="evenodd">
        <mask id="mask-2" fill="white">
            <use xlink:href="#path-1"></use>
        </mask>
        <g id="Mask"></g>
        <g id="Group" mask="url(#mask-2)">
            <g>
                <mask id="mask-4" fill="white">
                    <use xlink:href="#path-3"></use>
                </mask>
                <g id="Mask" fill-rule="nonzero"></g>
            </g>
        </g>
        <polygon id="Rectangle" fill="#FFFFFF" mask="url(#mask-2)" points="0 8 24 8 24 17 0 17"></polygon>
        <polygon id="Rectangle" fill="#F12339" mask="url(#mask-2)" points="0 9 24 9 24 16 0 16"></polygon>
        <polygon id="Rectangle" fill="#18A454" mask="url(#mask-2)" points="0 17 24 17 24 24 0 24"></polygon>
        <polygon id="Rectangle" fill="#2E2E2E" mask="url(#mask-2)" points="0 0 24 0 24 8 0 8"></polygon>
        <polygon id="Rectangle" fill="#0956BA" mask="url(#mask-2)" points="0 -1.66533454e-14 13 12 0 24"></polygon>
        <path d="M4.18109471,11.1136691 L2.20892008,11.123718 L2.15200677,11.1316903 C1.99266938,11.1773536 1.93942418,11.4075487 2.08594843,11.520225 L3.67567006,12.7426081 L3.07604543,14.7126706 L3.06599285,14.7665886 C3.05401624,14.9421815 3.24893419,15.0700243 3.39798939,14.9577253 L5,13.7507063 L6.60201061,14.9577253 L6.64785029,14.9844032 C6.80355047,15.0505977 6.97983767,14.8958896 6.92395457,14.7126706 L6.32349176,12.7426081 L7.91405157,11.520225 L7.95562262,11.478728 C8.05891016,11.3436655 7.97283685,11.1246452 7.79107992,11.123718 L5.8180671,11.1136691 L5.19897231,9.15067813 C5.13563044,8.94977396 4.86436956,8.94977396 4.80102769,9.15067813 L4.18109471,11.1136691 Z" id="Path" fill="#FFD400" mask="url(#mask-2)" transform="translate(5.000000, 12.000000) rotate(-15.000000) translate(-5.000000, -12.000000) "></path>
        <g id="Group" mask="url(#mask-2)">
            <g>
                <path d="M12,0.25 C15.2446729,0.25 18.1821729,1.56516355 20.3085047,3.69149532 C22.4348365,5.81782709 23.75,8.75532709 23.75,12 C23.75,15.2446729 22.4348365,18.1821729 20.3085047,20.3085047 C18.1821729,22.4348365 15.2446729,23.75 12,23.75 C8.75532709,23.75 5.81782709,22.4348365 3.69149532,20.3085047 C1.56516355,18.1821729 0.25,15.2446729 0.25,12 C0.25,8.75532709 1.56516355,5.81782709 3.69149532,3.69149532 C5.81782709,1.56516355 8.75532709,0.25 12,0.25 Z" id="Mask" stroke-opacity="0.15" stroke="#000000" stroke-width="0.5" fill-rule="nonzero"></path>
                <rect id="Dark" fill="url(#linearGradient-5)" style="mix-blend-mode: normal;" opacity="0.100000001" x="0" y="12" width="24" height="12"></rect>
                <rect id="Light" fill="url(#linearGradient-6)" opacity="0.100000001" style="mix-blend-mode: normal;" x="0" y="0" width="24" height="12"></rect>
            </g>
        </g>
    </g>
</svg>