<?xml version="1.0" encoding="UTF-8"?>
<svg width="24px" height="24px" viewBox="0 0 24 24" version="1.1" xmlns="http://www.w3.org/2000/svg" xmlns:xlink="http://www.w3.org/1999/xlink">
    <title>ST</title>
    <defs>
        <circle id="path-1" cx="12" cy="12" r="12"></circle>
        <path d="M12,0 C18.627417,-1.21743675e-15 24,5.372583 24,12 C24,18.627417 18.627417,24 12,24 C5.372583,24 8.11624501e-16,18.627417 0,12 C-8.11624501e-16,5.372583 5.372583,1.21743675e-15 12,0 Z" id="path-3"></path>
        <linearGradient x1="50%" y1="0%" x2="50%" y2="100%" id="linearGradient-5">
            <stop stop-color="#000000" stop-opacity="0" offset="0%"></stop>
            <stop stop-color="#000000" offset="100%"></stop>
        </linearGradient>
        <linearGradient x1="50%" y1="0%" x2="50%" y2="100%" id="linearGradient-6">
            <stop stop-color="#FFFFFF" offset="0%"></stop>
            <stop stop-color="#FFFFFF" stop-opacity="0" offset="100%"></stop>
        </linearGradient>
    </defs>
    <g id="ST" stroke="none" stroke-width="1" fill="none" fill-rule="evenodd">
        <mask id="mask-2" fill="white">
            <use xlink:href="#path-1"></use>
        </mask>
        <g id="Mask"></g>
        <g id="Group" mask="url(#mask-2)">
            <g>
                <mask id="mask-4" fill="white">
                    <use xlink:href="#path-3"></use>
                </mask>
                <g id="Mask" fill-rule="nonzero"></g>
            </g>
        </g>
        <polygon id="Rectangle" fill="#18A454" mask="url(#mask-2)" points="0 0 24 0 24 7 0 7"></polygon>
        <polygon id="Rectangle" fill="#FFD400" mask="url(#mask-2)" points="0 7 24 7 24 17 0 17"></polygon>
        <path d="M12.4540631,11.4091127 L11.1392801,11.415812 L11.1013378,11.4211269 C10.9951129,11.4515691 10.9596161,11.6050325 11.057299,11.68015 L12.1171134,12.4950721 L11.7173636,13.8084471 L11.7106619,13.8443924 C11.7026775,13.9614543 11.8326228,14.0466829 11.9319929,13.9718169 L13,13.1671375 L14.0680071,13.9718169 L14.0985669,13.9896021 C14.202367,14.0337318 14.3198918,13.9305931 14.2826364,13.8084471 L13.8823278,12.4950721 L14.942701,11.68015 L14.9704151,11.6524853 C15.0392734,11.5624436 14.9818912,11.4164302 14.8607199,11.415812 L13.5453781,11.4091127 L13.1326482,10.1004521 C13.0904203,9.96651597 12.9095797,9.96651597 12.8673518,10.1004521 L12.4540631,11.4091127 Z" id="Path" fill="#2E2E2E" mask="url(#mask-2)"></path>
        <path d="M19.4540631,11.4091127 L18.1392801,11.415812 L18.1013378,11.4211269 C17.9951129,11.4515691 17.9596161,11.6050325 18.057299,11.68015 L19.1171134,12.4950721 L18.7173636,13.8084471 L18.7106619,13.8443924 C18.7026775,13.9614543 18.8326228,14.0466829 18.9319929,13.9718169 L20,13.1671375 L21.0680071,13.9718169 L21.0985669,13.9896021 C21.202367,14.0337318 21.3198918,13.9305931 21.2826364,13.8084471 L20.8823278,12.4950721 L21.942701,11.68015 L21.9704151,11.6524853 C22.0392734,11.5624436 21.9818912,11.4164302 21.8607199,11.415812 L20.5453781,11.4091127 L20.1326482,10.1004521 C20.0904203,9.96651597 19.9095797,9.96651597 19.8673518,10.1004521 L19.4540631,11.4091127 Z" id="Path" fill="#2E2E2E" mask="url(#mask-2)"></path>
        <polygon id="Rectangle" fill="#18A454" mask="url(#mask-2)" points="0 17 24 17 24 24 0 24"></polygon>
        <polygon id="Rectangle" fill="#F12339" mask="url(#mask-2)" points="0 -1.66533454e-14 9 12 0 24"></polygon>
        <g id="Group" mask="url(#mask-2)">
            <g>
                <path d="M12,0.25 C15.2446729,0.25 18.1821729,1.56516355 20.3085047,3.69149532 C22.4348365,5.81782709 23.75,8.75532709 23.75,12 C23.75,15.2446729 22.4348365,18.1821729 20.3085047,20.3085047 C18.1821729,22.4348365 15.2446729,23.75 12,23.75 C8.75532709,23.75 5.81782709,22.4348365 3.69149532,20.3085047 C1.56516355,18.1821729 0.25,15.2446729 0.25,12 C0.25,8.75532709 1.56516355,5.81782709 3.69149532,3.69149532 C5.81782709,1.56516355 8.75532709,0.25 12,0.25 Z" id="Mask" stroke-opacity="0.15" stroke="#000000" stroke-width="0.5" fill-rule="nonzero"></path>
                <rect id="Dark" fill="url(#linearGradient-5)" style="mix-blend-mode: normal;" opacity="0.100000001" x="0" y="12" width="24" height="12"></rect>
                <rect id="Light" fill="url(#linearGradient-6)" opacity="0.100000001" style="mix-blend-mode: normal;" x="0" y="0" width="24" height="12"></rect>
            </g>
        </g>
    </g>
</svg>