<?xml version="1.0" encoding="UTF-8"?>
<svg width="24px" height="24px" viewBox="0 0 24 24" version="1.1" xmlns="http://www.w3.org/2000/svg" xmlns:xlink="http://www.w3.org/1999/xlink">
    <title>SY</title>
    <defs>
        <circle id="path-1" cx="12" cy="12" r="12"></circle>
        <path d="M12,0 C18.627417,-1.21743675e-15 24,5.372583 24,12 C24,18.627417 18.627417,24 12,24 C5.372583,24 8.11624501e-16,18.627417 0,12 C-8.11624501e-16,5.372583 5.372583,1.21743675e-15 12,0 Z" id="path-3"></path>
        <linearGradient x1="50%" y1="0%" x2="50%" y2="100%" id="linearGradient-5">
            <stop stop-color="#000000" stop-opacity="0" offset="0%"></stop>
            <stop stop-color="#000000" offset="100%"></stop>
        </linearGradient>
        <linearGradient x1="50%" y1="0%" x2="50%" y2="100%" id="linearGradient-6">
            <stop stop-color="#FFFFFF" offset="0%"></stop>
            <stop stop-color="#FFFFFF" stop-opacity="0" offset="100%"></stop>
        </linearGradient>
    </defs>
    <g id="SY" stroke="none" stroke-width="1" fill="none" fill-rule="evenodd">
        <mask id="mask-2" fill="white">
            <use xlink:href="#path-1"></use>
        </mask>
        <g id="Mask"></g>
        <g id="Group" mask="url(#mask-2)">
            <g>
                <mask id="mask-4" fill="white">
                    <use xlink:href="#path-3"></use>
                </mask>
                <g id="Mask" fill-rule="nonzero"></g>
            </g>
        </g>
        <polygon id="Rectangle" fill="#F12339" mask="url(#mask-2)" points="0 0 24 0 24 8 0 8"></polygon>
        <polygon id="Rectangle" fill="#FFFFFF" mask="url(#mask-2)" points="0 8 24 8 24 16 0 16"></polygon>
        <polygon id="Rectangle" fill="#2E2E2E" mask="url(#mask-2)" points="0 16 24 16 24 24 0 24"></polygon>
        <g id="Group" mask="url(#mask-2)">
            <g>
                <path d="M12,0.25 C15.2446729,0.25 18.1821729,1.56516355 20.3085047,3.69149532 C22.4348365,5.81782709 23.75,8.75532709 23.75,12 C23.75,15.2446729 22.4348365,18.1821729 20.3085047,20.3085047 C18.1821729,22.4348365 15.2446729,23.75 12,23.75 C8.75532709,23.75 5.81782709,22.4348365 3.69149532,20.3085047 C1.56516355,18.1821729 0.25,15.2446729 0.25,12 C0.25,8.75532709 1.56516355,5.81782709 3.69149532,3.69149532 C5.81782709,1.56516355 8.75532709,0.25 12,0.25 Z" id="Mask" stroke-opacity="0.15" stroke="#000000" stroke-width="0.5" fill-rule="nonzero"></path>
                <rect id="Dark" fill="url(#linearGradient-5)" style="mix-blend-mode: normal;" opacity="0.100000001" x="0" y="12" width="24" height="12"></rect>
                <rect id="Light" fill="url(#linearGradient-6)" opacity="0.100000001" style="mix-blend-mode: normal;" x="0" y="0" width="24" height="12"></rect>
            </g>
        </g>
        <path d="M7.45406314,11.4091127 L6.13928005,11.415812 L6.10133785,11.4211269 C5.99511292,11.4515691 5.95961612,11.6050325 6.05729895,11.68015 L7.11711337,12.4950721 L6.71736362,13.8084471 L6.7106619,13.8443924 C6.70267749,13.9614543 6.83262279,14.0466829 6.93199293,13.9718169 L8,13.1671375 L9.06800707,13.9718169 L9.09856686,13.9896021 C9.20236698,14.0337318 9.31989178,13.9305931 9.28263638,13.8084471 L8.88232784,12.4950721 L9.94270105,11.68015 L9.97041508,11.6524853 C10.0392734,11.5624436 9.98189124,11.4164302 9.86071995,11.415812 L8.54537807,11.4091127 L8.13264821,10.1004521 C8.09042029,9.96651597 7.90957971,9.96651597 7.86735179,10.1004521 L7.45406314,11.4091127 Z" id="Path" fill="#18A454" mask="url(#mask-2)"></path>
        <path d="M15.4540631,11.4091127 L14.1392801,11.415812 L14.1013378,11.4211269 C13.9951129,11.4515691 13.9596161,11.6050325 14.057299,11.68015 L15.1171134,12.4950721 L14.7173636,13.8084471 L14.7106619,13.8443924 C14.7026775,13.9614543 14.8326228,14.0466829 14.9319929,13.9718169 L16,13.1671375 L17.0680071,13.9718169 L17.0985669,13.9896021 C17.202367,14.0337318 17.3198918,13.9305931 17.2826364,13.8084471 L16.8823278,12.4950721 L17.942701,11.68015 L17.9704151,11.6524853 C18.0392734,11.5624436 17.9818912,11.4164302 17.8607199,11.415812 L16.5453781,11.4091127 L16.1326482,10.1004521 C16.0904203,9.96651597 15.9095797,9.96651597 15.8673518,10.1004521 L15.4540631,11.4091127 Z" id="Path" fill="#18A454" mask="url(#mask-2)"></path>
    </g>
</svg>