<?xml version="1.0" encoding="UTF-8"?>
<svg width="24px" height="24px" viewBox="0 0 24 24" version="1.1" xmlns="http://www.w3.org/2000/svg" xmlns:xlink="http://www.w3.org/1999/xlink">
    <title>TR</title>
    <defs>
        <circle id="path-1" cx="12" cy="12" r="12"></circle>
        <path d="M12,0 C18.627417,-1.21743675e-15 24,5.372583 24,12 C24,18.627417 18.627417,24 12,24 C5.372583,24 8.11624501e-16,18.627417 0,12 C-8.11624501e-16,5.372583 5.372583,1.21743675e-15 12,0 Z" id="path-3"></path>
        <linearGradient x1="50%" y1="0%" x2="50%" y2="100%" id="linearGradient-5">
            <stop stop-color="#000000" stop-opacity="0" offset="0%"></stop>
            <stop stop-color="#000000" offset="100%"></stop>
        </linearGradient>
        <linearGradient x1="50%" y1="0%" x2="50%" y2="100%" id="linearGradient-6">
            <stop stop-color="#FFFFFF" offset="0%"></stop>
            <stop stop-color="#FFFFFF" stop-opacity="0" offset="100%"></stop>
        </linearGradient>
    </defs>
    <g id="TR" stroke="none" stroke-width="1" fill="none" fill-rule="evenodd">
        <mask id="mask-2" fill="white">
            <use xlink:href="#path-1"></use>
        </mask>
        <g id="Mask"></g>
        <g id="Group" mask="url(#mask-2)">
            <g>
                <mask id="mask-4" fill="white">
                    <use xlink:href="#path-3"></use>
                </mask>
                <g id="Mask" fill-rule="nonzero"></g>
            </g>
        </g>
        <rect id="Rectangle" fill="#F12339" mask="url(#mask-2)" x="0" y="0" width="24" height="24"></rect>
        <path d="M13.4100113,11.3352293 L12.2315853,11.3419967 L12.1684976,11.3508127 C11.9918741,11.401309 11.9328525,11.6558679 12.0952728,11.7804698 L13.0448687,12.5092599 L12.6865013,13.6822597 L12.6753581,13.7418843 C12.6620822,13.936062 12.8781463,14.0774357 13.0433722,13.953251 L14,13.2336825 L14.9566278,13.953251 L15.0074406,13.9827524 C15.1800323,14.055953 15.3754444,13.8848706 15.3134987,13.6822597 L14.9542021,12.5092599 L15.9047272,11.7804698 L15.9508082,11.7345808 C16.0653012,11.5852233 15.96989,11.343022 15.7684147,11.3419967 L14.5890596,11.3352293 L14.2205583,10.1666259 C14.1503447,9.94445804 13.8496553,9.94445804 13.7794417,10.1666259 L13.4100113,11.3352293 Z" id="Path" fill="#FFFFFF" mask="url(#mask-2)"></path>
        <path d="M8,8 C9.45351305,8 10.7259518,8.77527122 11.4263617,9.93485909 C10.8792297,9.35895849 10.1065345,9 9.25,9 C7.59314575,9 6.25,10.3431458 6.25,12 C6.25,13.6568542 7.59314575,15 9.25,15 C10.1065345,15 10.8792297,14.6410415 11.4258589,14.0653514 C10.7259518,15.2247288 9.45351305,16 8,16 C5.790861,16 4,14.209139 4,12 C4,9.790861 5.790861,8 8,8 Z" id="Combined-Shape" fill="#FFFFFF" mask="url(#mask-2)"></path>
        <g id="Group" mask="url(#mask-2)">
            <g>
                <path d="M12,0.25 C15.2446729,0.25 18.1821729,1.56516355 20.3085047,3.69149532 C22.4348365,5.81782709 23.75,8.75532709 23.75,12 C23.75,15.2446729 22.4348365,18.1821729 20.3085047,20.3085047 C18.1821729,22.4348365 15.2446729,23.75 12,23.75 C8.75532709,23.75 5.81782709,22.4348365 3.69149532,20.3085047 C1.56516355,18.1821729 0.25,15.2446729 0.25,12 C0.25,8.75532709 1.56516355,5.81782709 3.69149532,3.69149532 C5.81782709,1.56516355 8.75532709,0.25 12,0.25 Z" id="Mask" stroke-opacity="0.15" stroke="#000000" stroke-width="0.5" fill-rule="nonzero"></path>
                <rect id="Dark" fill="url(#linearGradient-5)" style="mix-blend-mode: normal;" opacity="0.100000001" x="0" y="12" width="24" height="12"></rect>
                <rect id="Light" fill="url(#linearGradient-6)" opacity="0.100000001" style="mix-blend-mode: normal;" x="0" y="0" width="24" height="12"></rect>
            </g>
        </g>
    </g>
</svg>