<?xml version="1.0" encoding="UTF-8"?>
<svg width="24px" height="24px" viewBox="0 0 24 24" version="1.1" xmlns="http://www.w3.org/2000/svg" xmlns:xlink="http://www.w3.org/1999/xlink">
    <title>TW</title>
    <defs>
        <circle id="path-1" cx="12" cy="12" r="12"></circle>
        <path d="M12,0 C18.627417,-1.21743675e-15 24,5.372583 24,12 C24,18.627417 18.627417,24 12,24 C5.372583,24 8.11624501e-16,18.627417 0,12 C-8.11624501e-16,5.372583 5.372583,1.21743675e-15 12,0 Z" id="path-3"></path>
        <linearGradient x1="50%" y1="0%" x2="50%" y2="100%" id="linearGradient-5">
            <stop stop-color="#000000" stop-opacity="0" offset="0%"></stop>
            <stop stop-color="#000000" offset="100%"></stop>
        </linearGradient>
        <linearGradient x1="50%" y1="0%" x2="50%" y2="100%" id="linearGradient-6">
            <stop stop-color="#FFFFFF" offset="0%"></stop>
            <stop stop-color="#FFFFFF" stop-opacity="0" offset="100%"></stop>
        </linearGradient>
    </defs>
    <g id="TW" stroke="none" stroke-width="1" fill="none" fill-rule="evenodd">
        <mask id="mask-2" fill="white">
            <use xlink:href="#path-1"></use>
        </mask>
        <g id="Mask"></g>
        <g id="Group" mask="url(#mask-2)">
            <g>
                <mask id="mask-4" fill="white">
                    <use xlink:href="#path-3"></use>
                </mask>
                <g id="Mask" fill-rule="nonzero"></g>
            </g>
        </g>
        <polygon id="Rectangle" fill="#F12339" mask="url(#mask-2)" points="0 0 24 0 24 24 0 24"></polygon>
        <rect id="Rectangle" fill="#0956BA" mask="url(#mask-2)" x="0" y="0" width="12" height="12"></rect>
        <path d="M6.43680373,5.3698263 L6.11640914,4.09086389 L6.09894288,4.05111094 C6.04525937,3.97160504 5.91012364,3.98485602 5.88359086,4.09086389 L5.56332742,5.36933685 L4.64624521,4.42240966 L4.61124252,4.39671572 C4.52499828,4.35470334 4.4145928,4.4337469 4.44461867,4.53881879 L4.80614057,5.80649888 L3.53881879,5.44461867 L3.4956586,5.43986842 C3.39996271,5.44660675 3.34387053,5.57026322 3.42240966,5.64624521 L4.3698263,6.56319627 L3.09086389,6.88359086 L3.05111094,6.90105712 C2.97160504,6.95474063 2.98485602,7.08987636 3.09086389,7.11640914 L4.36958531,7.43574529 L3.42240966,8.35375479 L3.39671572,8.38875748 C3.35470334,8.47500172 3.4337469,8.5854072 3.53881879,8.55538133 L4.80674747,8.19293168 L4.44461867,9.46118121 L4.43986842,9.5043414 C4.44660675,9.60003729 4.57026322,9.65612947 4.64624521,9.57759034 L5.56344474,8.62924641 L5.88359086,9.90913611 L5.90105712,9.94888906 C5.95474063,10.028395 6.08987636,10.015144 6.11640914,9.90913611 L6.43599388,8.62948694 L7.35375479,9.57759034 L7.38875748,9.60328428 C7.47500172,9.64529666 7.5854072,9.5662531 7.55538133,9.46118121 L7.19318015,8.19232524 L8.46118121,8.55538133 L8.5043414,8.56013158 C8.60003729,8.55339325 8.65612947,8.42973678 8.57759034,8.35375479 L7.62924641,7.43655526 L8.90913611,7.11640914 L8.94888906,7.09894288 C9.02839496,7.04525937 9.01514398,6.91012364 8.90913611,6.88359086 L7.62973541,6.56307883 L8.57759034,5.64624521 L8.60328428,5.61124252 C8.64529666,5.52499828 8.5662531,5.4145928 8.46118121,5.44461867 L7.19257383,5.80589211 L7.55538133,4.53881879 C7.58969662,4.41873663 7.44059135,4.33265066 7.35375479,4.42240966 L6.43680373,5.3698263 Z" id="Path" fill="#FFFFFF" mask="url(#mask-2)"></path>
        <g id="Group" mask="url(#mask-2)">
            <g>
                <path d="M12,0.25 C15.2446729,0.25 18.1821729,1.56516355 20.3085047,3.69149532 C22.4348365,5.81782709 23.75,8.75532709 23.75,12 C23.75,15.2446729 22.4348365,18.1821729 20.3085047,20.3085047 C18.1821729,22.4348365 15.2446729,23.75 12,23.75 C8.75532709,23.75 5.81782709,22.4348365 3.69149532,20.3085047 C1.56516355,18.1821729 0.25,15.2446729 0.25,12 C0.25,8.75532709 1.56516355,5.81782709 3.69149532,3.69149532 C5.81782709,1.56516355 8.75532709,0.25 12,0.25 Z" id="Mask" stroke-opacity="0.15" stroke="#000000" stroke-width="0.5" fill-rule="nonzero"></path>
                <rect id="Dark" fill="url(#linearGradient-5)" style="mix-blend-mode: normal;" opacity="0.100000001" x="0" y="12" width="24" height="12"></rect>
                <rect id="Light" fill="url(#linearGradient-6)" opacity="0.100000001" style="mix-blend-mode: normal;" x="0" y="0" width="24" height="12"></rect>
            </g>
        </g>
    </g>
</svg>