<?xml version="1.0" encoding="UTF-8"?>
<svg width="24px" height="24px" viewBox="0 0 24 24" version="1.1" xmlns="http://www.w3.org/2000/svg" xmlns:xlink="http://www.w3.org/1999/xlink">
    <title>US</title>
    <defs>
        <circle id="path-1" cx="12" cy="12" r="12"></circle>
        <path d="M12,0 C18.627417,-1.21743675e-15 24,5.372583 24,12 C24,18.627417 18.627417,24 12,24 C5.372583,24 8.11624501e-16,18.627417 0,12 C-8.11624501e-16,5.372583 5.372583,1.21743675e-15 12,0 Z" id="path-3"></path>
        <linearGradient x1="50%" y1="0%" x2="50%" y2="100%" id="linearGradient-5">
            <stop stop-color="#000000" stop-opacity="0" offset="0%"></stop>
            <stop stop-color="#000000" offset="100%"></stop>
        </linearGradient>
        <linearGradient x1="50%" y1="0%" x2="50%" y2="100%" id="linearGradient-6">
            <stop stop-color="#FFFFFF" offset="0%"></stop>
            <stop stop-color="#FFFFFF" stop-opacity="0" offset="100%"></stop>
        </linearGradient>
    </defs>
    <g id="US" stroke="none" stroke-width="1" fill="none" fill-rule="evenodd">
        <mask id="mask-2" fill="white">
            <use xlink:href="#path-1"></use>
        </mask>
        <g id="Mask"></g>
        <g id="Group" mask="url(#mask-2)">
            <g>
                <mask id="mask-4" fill="white">
                    <use xlink:href="#path-3"></use>
                </mask>
                <g id="Mask" fill-rule="nonzero"></g>
            </g>
        </g>
        <rect id="Rectangle" fill="#0956BA" mask="url(#mask-2)" x="0" y="0" width="13" height="13"></rect>
        <path d="M10.5,9 C10.7761424,9 11,9.22385763 11,9.5 C11,9.77614237 10.7761424,10 10.5,10 C10.2238576,10 10,9.77614237 10,9.5 C10,9.22385763 10.2238576,9 10.5,9 Z M8.5,9 C8.77614237,9 9,9.22385763 9,9.5 C9,9.77614237 8.77614237,10 8.5,10 C8.22385763,10 8,9.77614237 8,9.5 C8,9.22385763 8.22385763,9 8.5,9 Z M6.5,9 C6.77614237,9 7,9.22385763 7,9.5 C7,9.77614237 6.77614237,10 6.5,10 C6.22385763,10 6,9.77614237 6,9.5 C6,9.22385763 6.22385763,9 6.5,9 Z M4.5,9 C4.77614237,9 5,9.22385763 5,9.5 C5,9.77614237 4.77614237,10 4.5,10 C4.22385763,10 4,9.77614237 4,9.5 C4,9.22385763 4.22385763,9 4.5,9 Z M2.5,9 C2.77614237,9 3,9.22385763 3,9.5 C3,9.77614237 2.77614237,10 2.5,10 C2.22385763,10 2,9.77614237 2,9.5 C2,9.22385763 2.22385763,9 2.5,9 Z" id="Combined-Shape" fill="#FFFFFF" mask="url(#mask-2)"></path>
        <path d="M11.5,7 C11.7761424,7 12,7.22385763 12,7.5 C12,7.77614237 11.7761424,8 11.5,8 C11.2238576,8 11,7.77614237 11,7.5 C11,7.22385763 11.2238576,7 11.5,7 Z M9.5,7 C9.77614237,7 10,7.22385763 10,7.5 C10,7.77614237 9.77614237,8 9.5,8 C9.22385763,8 9,7.77614237 9,7.5 C9,7.22385763 9.22385763,7 9.5,7 Z M7.5,7 C7.77614237,7 8,7.22385763 8,7.5 C8,7.77614237 7.77614237,8 7.5,8 C7.22385763,8 7,7.77614237 7,7.5 C7,7.22385763 7.22385763,7 7.5,7 Z M5.5,7 C5.77614237,7 6,7.22385763 6,7.5 C6,7.77614237 5.77614237,8 5.5,8 C5.22385763,8 5,7.77614237 5,7.5 C5,7.22385763 5.22385763,7 5.5,7 Z M3.5,7 C3.77614237,7 4,7.22385763 4,7.5 C4,7.77614237 3.77614237,8 3.5,8 C3.22385763,8 3,7.77614237 3,7.5 C3,7.22385763 3.22385763,7 3.5,7 Z" id="Combined-Shape" fill="#FFFFFF" mask="url(#mask-2)"></path>
        <path d="M10.5,5 C10.7761424,5 11,5.22385763 11,5.5 C11,5.77614237 10.7761424,6 10.5,6 C10.2238576,6 10,5.77614237 10,5.5 C10,5.22385763 10.2238576,5 10.5,5 Z M8.5,5 C8.77614237,5 9,5.22385763 9,5.5 C9,5.77614237 8.77614237,6 8.5,6 C8.22385763,6 8,5.77614237 8,5.5 C8,5.22385763 8.22385763,5 8.5,5 Z M6.5,5 C6.77614237,5 7,5.22385763 7,5.5 C7,5.77614237 6.77614237,6 6.5,6 C6.22385763,6 6,5.77614237 6,5.5 C6,5.22385763 6.22385763,5 6.5,5 Z M4.5,5 C4.77614237,5 5,5.22385763 5,5.5 C5,5.77614237 4.77614237,6 4.5,6 C4.22385763,6 4,5.77614237 4,5.5 C4,5.22385763 4.22385763,5 4.5,5 Z M0.5,5 C0.776142375,5 1,5.22385763 1,5.5 C1,5.77614237 0.776142375,6 0.5,6 C0.223857625,6 0,5.77614237 0,5.5 C0,5.22385763 0.223857625,5 0.5,5 Z" id="Combined-Shape" fill="#FFFFFF" mask="url(#mask-2)"></path>
        <path d="M11.5,3 C11.7761424,3 12,3.22385763 12,3.5 C12,3.77614237 11.7761424,4 11.5,4 C11.2238576,4 11,3.77614237 11,3.5 C11,3.22385763 11.2238576,3 11.5,3 Z M9.5,3 C9.77614237,3 10,3.22385763 10,3.5 C10,3.77614237 9.77614237,4 9.5,4 C9.22385763,4 9,3.77614237 9,3.5 C9,3.22385763 9.22385763,3 9.5,3 Z M7.5,3 C7.77614237,3 8,3.22385763 8,3.5 C8,3.77614237 7.77614237,4 7.5,4 C7.22385763,4 7,3.77614237 7,3.5 C7,3.22385763 7.22385763,3 7.5,3 Z M5.5,3 C5.77614237,3 6,3.22385763 6,3.5 C6,3.77614237 5.77614237,4 5.5,4 C5.22385763,4 5,3.77614237 5,3.5 C5,3.22385763 5.22385763,3 5.5,3 Z" id="Combined-Shape" fill="#FFFFFF" mask="url(#mask-2)"></path>
        <path d="M10.5,1 C10.7761424,1 11,1.22385763 11,1.5 C11,1.77614237 10.7761424,2 10.5,2 C10.2238576,2 10,1.77614237 10,1.5 C10,1.22385763 10.2238576,1 10.5,1 Z M8.5,1 C8.77614237,1 9,1.22385763 9,1.5 C9,1.77614237 8.77614237,2 8.5,2 C8.22385763,2 8,1.77614237 8,1.5 C8,1.22385763 8.22385763,1 8.5,1 Z M2.5,1 C2.77614237,1 3,1.22385763 3,1.5 C3,1.77614237 2.77614237,2 2.5,2 C2.22385763,2 2,1.77614237 2,1.5 C2,1.22385763 2.22385763,1 2.5,1 Z M0.5,1 C0.776142375,1 1,1.22385763 1,1.5 C1,1.77614237 0.776142375,2 0.5,2 C0.223857625,2 0,1.77614237 0,1.5 C0,1.22385763 0.223857625,1 0.5,1 Z" id="Combined-Shape" fill="#FFFFFF" mask="url(#mask-2)"></path>
        <path d="M9.5,11 C9.77614237,11 10,11.2238576 10,11.5 C10,11.7761424 9.77614237,12 9.5,12 C9.22385763,12 9,11.7761424 9,11.5 C9,11.2238576 9.22385763,11 9.5,11 Z M11.5,11 C11.7761424,11 12,11.2238576 12,11.5 C12,11.7761424 11.7761424,12 11.5,12 C11.2238576,12 11,11.7761424 11,11.5 C11,11.2238576 11.2238576,11 11.5,11 Z M7.5,11 C7.77614237,11 8,11.2238576 8,11.5 C8,11.7761424 7.77614237,12 7.5,12 C7.22385763,12 7,11.7761424 7,11.5 C7,11.2238576 7.22385763,11 7.5,11 Z M5.5,11 C5.77614237,11 6,11.2238576 6,11.5 C6,11.7761424 5.77614237,12 5.5,12 C5.22385763,12 5,11.7761424 5,11.5 C5,11.2238576 5.22385763,11 5.5,11 Z M3.5,11 C3.77614237,11 4,11.2238576 4,11.5 C4,11.7761424 3.77614237,12 3.5,12 C3.22385763,12 3,11.7761424 3,11.5 C3,11.2238576 3.22385763,11 3.5,11 Z M1.5,11 C1.77614237,11 2,11.2238576 2,11.5 C2,11.7761424 1.77614237,12 1.5,12 C1.22385763,12 1,11.7761424 1,11.5 C1,11.2238576 1.22385763,11 1.5,11 Z" id="Combined-Shape" fill="#FFFFFF" mask="url(#mask-2)"></path>
        <polygon id="Rectangle" fill="#FFFFFF" mask="url(#mask-2)" points="13 1.84615385 24 1.84615385 24 3.69230769 13 3.69230769"></polygon>
        <polygon id="Rectangle" fill="#FFFFFF" mask="url(#mask-2)" points="13 5.53846154 24 5.53846154 24 7.38461538 13 7.38461538"></polygon>
        <polygon id="Rectangle" fill="#F12339" mask="url(#mask-2)" points="13 -1.74305015e-14 24 -1.74305015e-14 24 1.84615385 13 1.84615385"></polygon>
        <polygon id="Rectangle" fill="#F12339" mask="url(#mask-2)" points="13 3.69230769 24 3.69230769 24 5.53846154 13 5.53846154"></polygon>
        <polygon id="Rectangle" fill="#FFFFFF" mask="url(#mask-2)" points="13 9.23076923 24 9.23076923 24 11.0769231 13 11.0769231"></polygon>
        <polygon id="Rectangle" fill="#F12339" mask="url(#mask-2)" points="13 7.38461538 24 7.38461538 24 9.23076923 13 9.23076923"></polygon>
        <polygon id="Rectangle" fill="#FFFFFF" mask="url(#mask-2)" points="0 12.9230769 24 12.9230769 24 14.7692308 0 14.7692308"></polygon>
        <polygon id="Rectangle" fill="#F12339" mask="url(#mask-2)" points="13 11.0769231 24 11.0769231 24 12.9230769 13 12.9230769"></polygon>
        <polygon id="Rectangle" fill="#FFFFFF" mask="url(#mask-2)" points="0 16.6153846 24 16.6153846 24 18.4615385 0 18.4615385"></polygon>
        <polygon id="Rectangle" fill="#F12339" mask="url(#mask-2)" points="0 14.7692308 24 14.7692308 24 16.6153846 0 16.6153846"></polygon>
        <polygon id="Rectangle" fill="#FFFFFF" mask="url(#mask-2)" points="0 20.3076923 24 20.3076923 24 22.1538462 0 22.1538462"></polygon>
        <polygon id="Rectangle" fill="#F12339" mask="url(#mask-2)" points="0 18.4615385 24 18.4615385 24 20.3076923 0 20.3076923"></polygon>
        <polygon id="Rectangle" fill="#F12339" mask="url(#mask-2)" points="0 22.1538462 23 22.1538462 23 24 0 24"></polygon>
        <g id="Group" mask="url(#mask-2)">
            <g>
                <path d="M12,0.25 C15.2446729,0.25 18.1821729,1.56516355 20.3085047,3.69149532 C22.4348365,5.81782709 23.75,8.75532709 23.75,12 C23.75,15.2446729 22.4348365,18.1821729 20.3085047,20.3085047 C18.1821729,22.4348365 15.2446729,23.75 12,23.75 C8.75532709,23.75 5.81782709,22.4348365 3.69149532,20.3085047 C1.56516355,18.1821729 0.25,15.2446729 0.25,12 C0.25,8.75532709 1.56516355,5.81782709 3.69149532,3.69149532 C5.81782709,1.56516355 8.75532709,0.25 12,0.25 Z" id="Mask" stroke-opacity="0.15" stroke="#000000" stroke-width="0.5" fill-rule="nonzero"></path>
                <rect id="Dark" fill="url(#linearGradient-5)" style="mix-blend-mode: normal;" opacity="0.100000001" x="0" y="12" width="24" height="12"></rect>
                <rect id="Light" fill="url(#linearGradient-6)" opacity="0.100000001" style="mix-blend-mode: normal;" x="0" y="0" width="24" height="12"></rect>
            </g>
        </g>
    </g>
</svg>