<?xml version="1.0" encoding="UTF-8"?>
<svg width="24px" height="24px" viewBox="0 0 24 24" version="1.1" xmlns="http://www.w3.org/2000/svg" xmlns:xlink="http://www.w3.org/1999/xlink">
    <title>UY</title>
    <defs>
        <circle id="path-1" cx="12" cy="12" r="12"></circle>
        <path d="M12,0 C18.627417,-1.21743675e-15 24,5.372583 24,12 C24,18.627417 18.627417,24 12,24 C5.372583,24 8.11624501e-16,18.627417 0,12 C-8.11624501e-16,5.372583 5.372583,1.21743675e-15 12,0 Z" id="path-3"></path>
        <linearGradient x1="50%" y1="0%" x2="50%" y2="100%" id="linearGradient-5">
            <stop stop-color="#000000" stop-opacity="0" offset="0%"></stop>
            <stop stop-color="#000000" offset="100%"></stop>
        </linearGradient>
        <linearGradient x1="50%" y1="0%" x2="50%" y2="100%" id="linearGradient-6">
            <stop stop-color="#FFFFFF" offset="0%"></stop>
            <stop stop-color="#FFFFFF" stop-opacity="0" offset="100%"></stop>
        </linearGradient>
    </defs>
    <g id="UY" stroke="none" stroke-width="1" fill="none" fill-rule="evenodd">
        <mask id="mask-2" fill="white">
            <use xlink:href="#path-1"></use>
        </mask>
        <g id="Mask"></g>
        <g id="Group" mask="url(#mask-2)">
            <g>
                <mask id="mask-4" fill="white">
                    <use xlink:href="#path-3"></use>
                </mask>
                <g id="Mask" fill-rule="nonzero"></g>
            </g>
        </g>
        <rect id="Rectangle" fill="#FFFFFF" mask="url(#mask-2)" x="0" y="0" width="12" height="10.67"></rect>
        <polygon id="Rectangle" fill="#0956BA" mask="url(#mask-2)" points="12 2.66666667 24 2.66666667 24 5.33333333 12 5.33333333"></polygon>
        <polygon id="Rectangle" fill="#FFFFFF" mask="url(#mask-2)" points="12 -7.59392549e-14 24 -7.59392549e-14 24 2.66666667 12 2.66666667"></polygon>
        <polygon id="Rectangle" fill="#0956BA" mask="url(#mask-2)" points="12 8 24 8 24 10.6666667 12 10.6666667"></polygon>
        <polygon id="Rectangle" fill="#0956BA" mask="url(#mask-2)" points="0 13.3333333 24 13.3333333 24 16 0 16"></polygon>
        <polygon id="Rectangle" fill="#FFFFFF" mask="url(#mask-2)" points="12 5.33333333 24 5.33333333 24 8 12 8"></polygon>
        <polygon id="Rectangle" fill="#FFFFFF" mask="url(#mask-2)" points="0 10.6666667 24 10.6666667 24 13.3333333 0 13.3333333"></polygon>
        <polygon id="Rectangle" fill="#0956BA" mask="url(#mask-2)" points="0 18.6666667 24 18.6666667 24 21.3333333 0 21.3333333"></polygon>
        <polygon id="Rectangle" fill="#FFFFFF" mask="url(#mask-2)" points="0 21.3333333 24 21.3333333 24 24 0 24"></polygon>
        <polygon id="Rectangle" fill="#FFFFFF" mask="url(#mask-2)" points="0 16 24 16 24 18.6666667 0 18.6666667"></polygon>
        <path d="M8.62130014,3.82522676 L6.55797081,5.3229393 L6.15688727,2.79847946 C6.12324617,2.62505863 5.87020445,2.62719962 5.84198066,2.80490245 L5.44202249,5.32292313 L3.37335762,3.82148552 C3.22694273,3.72264632 3.04952913,3.90308775 3.15522676,4.04869986 L4.6529393,6.11202919 L2.12847946,6.51311273 C1.95505863,6.54675383 1.95719962,6.79979555 2.13490245,6.82801934 L4.65293538,7.22794794 L3.15148552,9.29664238 C3.05264632,9.44305727 3.23308775,9.62047087 3.37869986,9.51477324 L5.44204143,8.01703114 L5.84311273,10.5415205 C5.87675383,10.7149414 6.12979555,10.7128004 6.15801934,10.5350975 L6.55796019,8.01703506 L8.62664238,9.51851448 C8.77305727,9.61735368 8.95047087,9.43691225 8.84477324,9.29130014 L7.34703114,7.22795857 L9.87152054,6.82688727 C10.0449414,6.79324617 10.0428004,6.54020445 9.86509755,6.51198066 L7.34704731,6.11201025 L8.84477324,4.04869986 C8.95175987,3.901312 8.768688,3.71824013 8.62130014,3.82522676 Z" id="Mask" fill="#AE6624" mask="url(#mask-2)" transform="translate(6.000000, 6.670000) rotate(22.500000) translate(-6.000000, -6.670000) "></path>
        <path d="M8.62130014,3.82522676 L6.55797081,5.3229393 L6.15688727,2.79847946 C6.12324617,2.62505863 5.87020445,2.62719962 5.84198066,2.80490245 L5.44202249,5.32292313 L3.37335762,3.82148552 C3.22694273,3.72264632 3.04952913,3.90308775 3.15522676,4.04869986 L4.6529393,6.11202919 L2.12847946,6.51311273 C1.95505863,6.54675383 1.95719962,6.79979555 2.13490245,6.82801934 L4.65293538,7.22794794 L3.15148552,9.29664238 C3.05264632,9.44305727 3.23308775,9.62047087 3.37869986,9.51477324 L5.44204143,8.01703114 L5.84311273,10.5415205 C5.87675383,10.7149414 6.12979555,10.7128004 6.15801934,10.5350975 L6.55796019,8.01703506 L8.62664238,9.51851448 C8.77305727,9.61735368 8.95047087,9.43691225 8.84477324,9.29130014 L7.34703114,7.22795857 L9.87152054,6.82688727 C10.0449414,6.79324617 10.0428004,6.54020445 9.86509755,6.51198066 L7.34704731,6.11201025 L8.84477324,4.04869986 C8.95175987,3.901312 8.768688,3.71824013 8.62130014,3.82522676 Z" id="Mask" fill="#FFD400" mask="url(#mask-2)"></path>
        <g id="Group" mask="url(#mask-2)">
            <g>
                <path d="M12,0.25 C15.2446729,0.25 18.1821729,1.56516355 20.3085047,3.69149532 C22.4348365,5.81782709 23.75,8.75532709 23.75,12 C23.75,15.2446729 22.4348365,18.1821729 20.3085047,20.3085047 C18.1821729,22.4348365 15.2446729,23.75 12,23.75 C8.75532709,23.75 5.81782709,22.4348365 3.69149532,20.3085047 C1.56516355,18.1821729 0.25,15.2446729 0.25,12 C0.25,8.75532709 1.56516355,5.81782709 3.69149532,3.69149532 C5.81782709,1.56516355 8.75532709,0.25 12,0.25 Z" id="Mask" stroke-opacity="0.15" stroke="#000000" stroke-width="0.5" fill-rule="nonzero"></path>
                <rect id="Dark" fill="url(#linearGradient-5)" style="mix-blend-mode: normal;" opacity="0.100000001" x="0" y="12" width="24" height="12"></rect>
                <rect id="Light" fill="url(#linearGradient-6)" opacity="0.100000001" style="mix-blend-mode: normal;" x="0" y="0" width="24" height="12"></rect>
            </g>
        </g>
    </g>
</svg>