<?xml version="1.0" encoding="UTF-8"?>
<svg width="24px" height="24px" viewBox="0 0 24 24" version="1.1" xmlns="http://www.w3.org/2000/svg" xmlns:xlink="http://www.w3.org/1999/xlink">
    <title>VA</title>
    <defs>
        <circle id="path-1" cx="12" cy="12" r="12"></circle>
        <path d="M12,0 C18.627417,-1.21743675e-15 24,5.372583 24,12 C24,18.627417 18.627417,24 12,24 C5.372583,24 8.11624501e-16,18.627417 0,12 C-8.11624501e-16,5.372583 5.372583,1.21743675e-15 12,0 Z" id="path-3"></path>
        <linearGradient x1="50%" y1="0%" x2="50%" y2="100%" id="linearGradient-5">
            <stop stop-color="#000000" stop-opacity="0" offset="0%"></stop>
            <stop stop-color="#000000" offset="100%"></stop>
        </linearGradient>
        <linearGradient x1="50%" y1="0%" x2="50%" y2="100%" id="linearGradient-6">
            <stop stop-color="#FFFFFF" offset="0%"></stop>
            <stop stop-color="#FFFFFF" stop-opacity="0" offset="100%"></stop>
        </linearGradient>
    </defs>
    <g id="VA" stroke="none" stroke-width="1" fill="none" fill-rule="evenodd">
        <mask id="mask-2" fill="white">
            <use xlink:href="#path-1"></use>
        </mask>
        <g id="Mask"></g>
        <g id="Group" mask="url(#mask-2)">
            <g>
                <mask id="mask-4" fill="white">
                    <use xlink:href="#path-3"></use>
                </mask>
                <g id="Mask" fill-rule="nonzero"></g>
            </g>
        </g>
        <rect id="Rectangle" fill="#FFD400" mask="url(#mask-2)" x="0" y="0" width="12" height="24"></rect>
        <polygon id="Rectangle" fill="#FFFFFF" mask="url(#mask-2)" points="12 0 24 0 24 24 12 24"></polygon>
        <path d="M18,11.75 C18.1183467,11.75 18.2174868,11.8322334 18.2433973,11.9426773 L18.25,12 L18.25,17 C18.25,17.1380712 18.1380712,17.25 18,17.25 C17.8816533,17.25 17.7825132,17.1677666 17.7566027,17.0573227 L17.75,17 L17.75,12 C17.75,11.8619288 17.8619288,11.75 18,11.75 Z" id="Path" fill="#F12339" mask="url(#mask-2)"></path>
        <path d="M20.8232233,13.8232233 C20.9208544,13.7255922 21.0791456,13.7255922 21.1767767,13.8232233 C21.2744078,13.9208544 21.2744078,14.0791456 21.1767767,14.1767767 C20.1334725,15.2200809 19.0736343,15.75 18,15.75 C16.9263657,15.75 15.8665275,15.2200809 14.8232233,14.1767767 C14.7255922,14.0791456 14.7255922,13.9208544 14.8232233,13.8232233 C14.9208544,13.7255922 15.0791456,13.7255922 15.1767767,13.8232233 C16.1334725,14.7799191 17.0736343,15.25 18,15.25 C18.9263657,15.25 19.8665275,14.7799191 20.8232233,13.8232233 Z" id="Path" fill="#F12339" mask="url(#mask-2)"></path>
        <path d="M20.7807611,9.08618849 L20.8535534,9.14644661 L21.8535534,10.1464466 C22.0488155,10.3417088 22.0488155,10.6582912 21.8535534,10.8535534 C21.679987,11.0271197 21.4105626,11.0464049 21.2156945,10.9114088 L21.1464466,10.8535534 L20.466,10.173 L15.9871069,13.8389964 C15.9955905,13.8914108 16,13.9451905 16,14 C16,14.5522847 15.5522847,15 15,15 C14.4477153,15 14,14.5522847 14,14 C14,13.4477153 14.4477153,13 15,13 C15.1245348,13 15.2437527,13.0227645 15.3537194,13.0643591 L20.1833811,9.11302135 C20.3573406,8.97069086 20.6009046,8.96396291 20.7807611,9.08618849 Z" id="Combined-Shape" fill="#FFD400" mask="url(#mask-2)"></path>
        <path d="M15.2192238,9.08618849 C15.3990803,8.96396291 15.6426443,8.97069086 15.8166038,9.11302135 L15.8166038,9.11302135 L20.6462806,13.0643591 C20.7562473,13.0227645 20.8754652,13 21,13 C21.5522847,13 22,13.4477153 22,14 C22,14.5522847 21.5522847,15 21,15 C20.4477153,15 20,14.5522847 20,14 C20,13.9451905 20.0044095,13.8914108 20.0128931,13.8389964 L15.5339849,10.173 L14.8535383,10.8535534 L14.7842904,10.9114088 C14.5894223,11.0464049 14.3199979,11.0271197 14.1464315,10.8535534 C13.9511694,10.6582912 13.9511694,10.3417088 14.1464315,10.1464466 L14.1464315,10.1464466 L15.1464315,9.14644661 Z" id="Combined-Shape" fill="#CCCCCC" mask="url(#mask-2)"></path>
        <g id="Group" mask="url(#mask-2)">
            <g>
                <path d="M12,0.25 C15.2446729,0.25 18.1821729,1.56516355 20.3085047,3.69149532 C22.4348365,5.81782709 23.75,8.75532709 23.75,12 C23.75,15.2446729 22.4348365,18.1821729 20.3085047,20.3085047 C18.1821729,22.4348365 15.2446729,23.75 12,23.75 C8.75532709,23.75 5.81782709,22.4348365 3.69149532,20.3085047 C1.56516355,18.1821729 0.25,15.2446729 0.25,12 C0.25,8.75532709 1.56516355,5.81782709 3.69149532,3.69149532 C5.81782709,1.56516355 8.75532709,0.25 12,0.25 Z" id="Mask" stroke-opacity="0.15" stroke="#000000" stroke-width="0.5" fill-rule="nonzero"></path>
                <rect id="Dark" fill="url(#linearGradient-5)" style="mix-blend-mode: normal;" opacity="0.100000001" x="0" y="12" width="24" height="12"></rect>
                <rect id="Light" fill="url(#linearGradient-6)" opacity="0.100000001" style="mix-blend-mode: normal;" x="0" y="0" width="24" height="12"></rect>
            </g>
        </g>
    </g>
</svg>