<?xml version="1.0" encoding="UTF-8"?>
<svg width="24px" height="24px" viewBox="0 0 24 24" version="1.1" xmlns="http://www.w3.org/2000/svg" xmlns:xlink="http://www.w3.org/1999/xlink">
    <title>VC</title>
    <defs>
        <circle id="path-1" cx="12" cy="12" r="12"></circle>
        <path d="M12,0 C18.627417,-1.21743675e-15 24,5.372583 24,12 C24,18.627417 18.627417,24 12,24 C5.372583,24 8.11624501e-16,18.627417 0,12 C-8.11624501e-16,5.372583 5.372583,1.21743675e-15 12,0 Z" id="path-3"></path>
        <linearGradient x1="50%" y1="0%" x2="50%" y2="100%" id="linearGradient-5">
            <stop stop-color="#000000" stop-opacity="0" offset="0%"></stop>
            <stop stop-color="#000000" offset="100%"></stop>
        </linearGradient>
        <linearGradient x1="50%" y1="0%" x2="50%" y2="100%" id="linearGradient-6">
            <stop stop-color="#FFFFFF" offset="0%"></stop>
            <stop stop-color="#FFFFFF" stop-opacity="0" offset="100%"></stop>
        </linearGradient>
    </defs>
    <g id="VC" stroke="none" stroke-width="1" fill="none" fill-rule="evenodd">
        <mask id="mask-2" fill="white">
            <use xlink:href="#path-1"></use>
        </mask>
        <g id="Mask"></g>
        <g id="Group" mask="url(#mask-2)">
            <g>
                <mask id="mask-4" fill="white">
                    <use xlink:href="#path-3"></use>
                </mask>
                <g id="Mask" fill-rule="nonzero"></g>
            </g>
        </g>
        <polygon id="Rectangle" fill="#0956BA" mask="url(#mask-2)" points="0 0 6 0 6 24 0 24"></polygon>
        <rect id="Rectangle" fill="#FFD400" mask="url(#mask-2)" x="6" y="0" width="12" height="24"></rect>
        <polygon id="Rectangle" fill="#18A454" mask="url(#mask-2)" points="18 0 24 0 24 24 18 24"></polygon>
        <path d="M11.6,13.7 C11.8,13.4333333 12.2,13.4333333 12.4,13.7 L12.4,13.7 L13.9,15.7 C14.0333333,15.8777778 14.0333333,16.1222222 13.9,16.3 L13.9,16.3 L12.4,18.3 C12.2,18.5666667 11.8,18.5666667 11.6,18.3 L11.6,18.3 L10.1,16.3 C9.96666667,16.1222222 9.96666667,15.8777778 10.1,15.7 L10.1,15.7 Z M9.1,10.2 C9.3,9.93333333 9.7,9.93333333 9.9,10.2 L9.9,10.2 L11.4,12.2 C11.5333333,12.3777778 11.5333333,12.6222222 11.4,12.8 L11.4,12.8 L9.9,14.8 C9.7,15.0666667 9.3,15.0666667 9.1,14.8 L9.1,14.8 L7.6,12.8 C7.46666667,12.6222222 7.46666667,12.3777778 7.6,12.2 L7.6,12.2 Z M14.1,10.2 C14.3,9.93333333 14.7,9.93333333 14.9,10.2 L14.9,10.2 L16.4,12.2 C16.5333333,12.3777778 16.5333333,12.6222222 16.4,12.8 L16.4,12.8 L14.9,14.8 C14.7,15.0666667 14.3,15.0666667 14.1,14.8 L14.1,14.8 L12.6,12.8 C12.4666667,12.6222222 12.4666667,12.3777778 12.6,12.2 L12.6,12.2 Z" id="Combined-Shape" fill="#18A454" mask="url(#mask-2)"></path>
        <g id="Group" mask="url(#mask-2)">
            <g>
                <path d="M12,0.25 C15.2446729,0.25 18.1821729,1.56516355 20.3085047,3.69149532 C22.4348365,5.81782709 23.75,8.75532709 23.75,12 C23.75,15.2446729 22.4348365,18.1821729 20.3085047,20.3085047 C18.1821729,22.4348365 15.2446729,23.75 12,23.75 C8.75532709,23.75 5.81782709,22.4348365 3.69149532,20.3085047 C1.56516355,18.1821729 0.25,15.2446729 0.25,12 C0.25,8.75532709 1.56516355,5.81782709 3.69149532,3.69149532 C5.81782709,1.56516355 8.75532709,0.25 12,0.25 Z" id="Mask" stroke-opacity="0.15" stroke="#000000" stroke-width="0.5" fill-rule="nonzero"></path>
                <rect id="Dark" fill="url(#linearGradient-5)" style="mix-blend-mode: normal;" opacity="0.100000001" x="0" y="12" width="24" height="12"></rect>
                <rect id="Light" fill="url(#linearGradient-6)" opacity="0.100000001" style="mix-blend-mode: normal;" x="0" y="0" width="24" height="12"></rect>
            </g>
        </g>
    </g>
</svg>