<?xml version="1.0" encoding="UTF-8"?>
<svg width="24px" height="24px" viewBox="0 0 24 24" version="1.1" xmlns="http://www.w3.org/2000/svg" xmlns:xlink="http://www.w3.org/1999/xlink">
    <title>VU</title>
    <defs>
        <circle id="path-1" cx="12" cy="12" r="12"></circle>
        <path d="M12,0 C18.627417,-1.21743675e-15 24,5.372583 24,12 C24,18.627417 18.627417,24 12,24 C5.372583,24 8.11624501e-16,18.627417 0,12 C-8.11624501e-16,5.372583 5.372583,1.21743675e-15 12,0 Z" id="path-3"></path>
        <linearGradient x1="50%" y1="0%" x2="50%" y2="100%" id="linearGradient-5">
            <stop stop-color="#000000" stop-opacity="0" offset="0%"></stop>
            <stop stop-color="#000000" offset="100%"></stop>
        </linearGradient>
        <linearGradient x1="50%" y1="0%" x2="50%" y2="100%" id="linearGradient-6">
            <stop stop-color="#FFFFFF" offset="0%"></stop>
            <stop stop-color="#FFFFFF" stop-opacity="0" offset="100%"></stop>
        </linearGradient>
    </defs>
    <g id="VU" stroke="none" stroke-width="1" fill="none" fill-rule="evenodd">
        <mask id="mask-2" fill="white">
            <use xlink:href="#path-1"></use>
        </mask>
        <g id="Mask"></g>
        <g id="Group" mask="url(#mask-2)">
            <g>
                <mask id="mask-4" fill="white">
                    <use xlink:href="#path-3"></use>
                </mask>
                <g id="Mask" fill-rule="nonzero"></g>
            </g>
        </g>
        <polygon id="Rectangle" fill="#F12339" mask="url(#mask-2)" points="0 0 24 0 24 12 0 12"></polygon>
        <polygon id="Rectangle" fill="#18A454" mask="url(#mask-2)" points="0 12 24 12 24 24 0 24"></polygon>
        <polygon id="Path" fill="#2E2E2E" mask="url(#mask-2)" points="-0.000999999998 0.00824172207 15.586 10 23.9993322 10 23.9993322 14 15.5853322 14 -0.000999999998 23.9912417 -0.000999999998 19.2392417 -0.000999999998 4.75924172"></polygon>
        <path d="M4,9 C5.65685425,9 7,10.3431458 7,12 C7,13.6568542 5.65685425,15 4,15 C2.34314575,15 1,13.6568542 1,12 C1,10.3431458 2.34314575,9 4,9 Z M4,10 C2.8954305,10 2,10.8954305 2,12 C2,13.1045695 2.8954305,14 4,14 C5.1045695,14 6,13.1045695 6,12 C6,10.8954305 5.1045695,10 4,10 Z" id="Oval" fill="#FFD400" mask="url(#mask-2)"></path>
        <path d="M-0.000833057361,1.79006043 L15.146,11.5 L24,11.5 L24,12.5 L15.146,12.5 L-0.000833057361,22.2090604 L-0.000833057361,21.0200604 L14.0731669,11.9990604 L-0.000833057361,2.97806043 L-0.000833057361,1.79006043 Z" id="Combined-Shape" fill="#FFD400" mask="url(#mask-2)"></path>
        <g id="Group" mask="url(#mask-2)">
            <g>
                <path d="M12,0.25 C15.2446729,0.25 18.1821729,1.56516355 20.3085047,3.69149532 C22.4348365,5.81782709 23.75,8.75532709 23.75,12 C23.75,15.2446729 22.4348365,18.1821729 20.3085047,20.3085047 C18.1821729,22.4348365 15.2446729,23.75 12,23.75 C8.75532709,23.75 5.81782709,22.4348365 3.69149532,20.3085047 C1.56516355,18.1821729 0.25,15.2446729 0.25,12 C0.25,8.75532709 1.56516355,5.81782709 3.69149532,3.69149532 C5.81782709,1.56516355 8.75532709,0.25 12,0.25 Z" id="Mask" stroke-opacity="0.15" stroke="#000000" stroke-width="0.5" fill-rule="nonzero"></path>
                <rect id="Dark" fill="url(#linearGradient-5)" style="mix-blend-mode: normal;" opacity="0.100000001" x="0" y="12" width="24" height="12"></rect>
                <rect id="Light" fill="url(#linearGradient-6)" opacity="0.100000001" style="mix-blend-mode: normal;" x="0" y="0" width="24" height="12"></rect>
            </g>
        </g>
    </g>
</svg>