<?xml version="1.0" encoding="UTF-8"?>
<svg width="24px" height="24px" viewBox="0 0 24 24" version="1.1" xmlns="http://www.w3.org/2000/svg" xmlns:xlink="http://www.w3.org/1999/xlink">
    <title>ZM</title>
    <defs>
        <circle id="path-1" cx="12" cy="12" r="12"></circle>
        <path d="M12,0 C18.627417,-1.21743675e-15 24,5.372583 24,12 C24,18.627417 18.627417,24 12,24 C5.372583,24 8.11624501e-16,18.627417 0,12 C-8.11624501e-16,5.372583 5.372583,1.21743675e-15 12,0 Z" id="path-3"></path>
        <linearGradient x1="50%" y1="0%" x2="50%" y2="100%" id="linearGradient-5">
            <stop stop-color="#000000" stop-opacity="0" offset="0%"></stop>
            <stop stop-color="#000000" offset="100%"></stop>
        </linearGradient>
        <linearGradient x1="50%" y1="0%" x2="50%" y2="100%" id="linearGradient-6">
            <stop stop-color="#FFFFFF" offset="0%"></stop>
            <stop stop-color="#FFFFFF" stop-opacity="0" offset="100%"></stop>
        </linearGradient>
    </defs>
    <g id="ZM" stroke="none" stroke-width="1" fill="none" fill-rule="evenodd">
        <mask id="mask-2" fill="white">
            <use xlink:href="#path-1"></use>
        </mask>
        <g id="Mask"></g>
        <g id="Group" mask="url(#mask-2)">
            <g>
                <mask id="mask-4" fill="white">
                    <use xlink:href="#path-3"></use>
                </mask>
                <g id="Mask" fill-rule="nonzero"></g>
            </g>
        </g>
        <polygon id="Rectangle" fill="#18A454" mask="url(#mask-2)" points="0 -6.32827124e-15 24 -5.32907052e-15 24 24 0 24"></polygon>
        <rect id="Rectangle" fill="#FF7F0E" mask="url(#mask-2)" x="20" y="9" width="4" height="15"></rect>
        <rect id="Rectangle" fill="#2E2E2E" mask="url(#mask-2)" x="16" y="9" width="4" height="15"></rect>
        <rect id="Rectangle" fill="#F12339" mask="url(#mask-2)" x="12" y="9" width="4" height="15"></rect>
        <g id="Group" mask="url(#mask-2)">
            <g>
                <path d="M12,0.25 C15.2446729,0.25 18.1821729,1.56516355 20.3085047,3.69149532 C22.4348365,5.81782709 23.75,8.75532709 23.75,12 C23.75,15.2446729 22.4348365,18.1821729 20.3085047,20.3085047 C18.1821729,22.4348365 15.2446729,23.75 12,23.75 C8.75532709,23.75 5.81782709,22.4348365 3.69149532,20.3085047 C1.56516355,18.1821729 0.25,15.2446729 0.25,12 C0.25,8.75532709 1.56516355,5.81782709 3.69149532,3.69149532 C5.81782709,1.56516355 8.75532709,0.25 12,0.25 Z" id="Mask" stroke-opacity="0.15" stroke="#000000" stroke-width="0.5" fill-rule="nonzero"></path>
                <rect id="Dark" fill="url(#linearGradient-5)" style="mix-blend-mode: normal;" opacity="0.100000001" x="0" y="12" width="24" height="12"></rect>
                <rect id="Light" fill="url(#linearGradient-6)" opacity="0.100000001" style="mix-blend-mode: normal;" x="0" y="0" width="24" height="12"></rect>
            </g>
        </g>
        <path d="M18.0001095,4.5 C18.2455694,4.5 18.4497179,4.67687516 18.4920539,4.91012437 L18.5001095,5 L18.5,5.42789047 L18.664324,5.40462266 C19.4420728,5.2736513 20.1999928,5.0441716 20.9197687,4.72172896 L21.2763932,4.5527864 C21.5233825,4.42929178 21.823719,4.52940395 21.9472136,4.7763932 C22.0707082,5.02338245 21.970596,5.32371897 21.7236068,5.4472136 L21.7236068,5.4472136 L21.3728447,5.61439297 C20.547697,5.98872258 19.676708,6.25243683 18.7825029,6.39868533 L18.7825029,6.39868533 L18.5,6.439 L18.5001095,7.5 L18.4920539,7.58987563 L18.4920539,7.58987563 L18.4687187,7.6744662 C18.3979258,7.86457996 18.2147774,8 18,8 L18.0001095,8 C17.7546496,8 17.5505012,7.82312484 17.5081652,7.58987563 L17.5001095,7.5 L17.5001095,6.439 L17.2176066,6.39868533 C16.3234015,6.25243683 15.4524125,5.98872258 14.6272649,5.61439297 L14.2765027,5.4472136 C14.0295135,5.32371897 13.9294013,5.02338245 14.0528959,4.7763932 C14.1763906,4.52940395 14.4767271,4.42929178 14.7237163,4.5527864 C15.5480275,4.96494202 16.4284119,5.25182274 17.3357855,5.40462266 L17.5,5.42789047 L17.5001095,5 C17.5001095,4.72385763 17.7239672,4.5 18.0001095,4.5 Z" id="Combined-Shape" fill="#FFD400" mask="url(#mask-2)"></path>
    </g>
</svg>