<?xml version="1.0" encoding="UTF-8"?>
<svg width="1627px" height="395px" viewBox="0 0 1627 395" version="1.1" xmlns="http://www.w3.org/2000/svg" xmlns:xlink="http://www.w3.org/1999/xlink">
    <!-- Generator: Sketch 63.1 (92452) - https://sketch.com -->
    <title>Path</title>
    <desc>Created with Sketch.</desc>
    <g id="👀-Teaser-Page" stroke="none" stroke-width="1" fill="none" fill-rule="evenodd">
        <g id="Group-2" fill="#FFFFFF">
            <path d="M1413.98246,0 C1491.04078,0 1555.03461,57.8271429 1561.45614,133.973571 C1598.38683,143.994342 1623.15091,173.532284 1626.58898,210.999671 L1627,211 L1627,395 L0,395 L0,211 L0.102384105,211.000472 C1.82491181,174.301694 25.1574701,145.098185 60.6194797,135.435 C66.5585504,64.71 125.744461,11 197.013309,11 C257.223198,11 297.97751,43.595 319.890633,85.21 C355.166606,85.097901 385.359879,98.6553651 405.481025,121.055582 C420.689552,114.012167 438.127156,110.149953 457.02316,110.21 C478.936283,68.595 519.690595,36 579.900484,36 C633.4563,36 680.188944,66.3297592 702.630655,111.41788 C720.852095,90.6977991 748.470104,78.1258315 780.800898,78.2285714 C800.652508,40.5285714 837.572791,11 892.118335,11 C956.682448,11 1010.30035,59.6571429 1015.68069,123.728571 C1020.99975,125.177983 1026.01758,127.112665 1030.69521,129.483089 C1051.92397,106.547162 1082.22294,91 1121.80183,91 C1148.40426,91 1173.14836,99.260511 1193.42557,113.456181 C1215.04282,92.3581325 1245.71496,79.7865284 1281.12328,79.8985714 C1304.8165,35.0935714 1348.88146,0 1413.98246,0 Z" id="Path"></path>
        </g>
    </g>
</svg>