<?xml version="1.0" encoding="UTF-8"?>
<svg width="1680px" height="200px" viewBox="0 0 1680 200" version="1.1" xmlns="http://www.w3.org/2000/svg" xmlns:xlink="http://www.w3.org/1999/xlink">
    <!-- Generator: Sketch 63.1 (92452) - https://sketch.com -->
    <title>Path</title>
    <desc>Created with Sketch.</desc>
    <g id="👀-Teaser-Page" stroke="none" stroke-width="1" fill="none" fill-rule="evenodd">
        <g id="Group-2" fill="#FFFFFF">
            <path d="M1416.59802,12.5091259 C1493.65634,12.5091259 1555.03461,46.8271429 1561.45614,122.973571 C1624.22946,95.2648006 1680,143.301699 1680,182 C1680,187 1680,194 1680,200 L0,200 C0,193 0,187 0,180 C0,152.816275 34.4688996,119.837957 74.9777671,145.586721 C116.859236,101.151721 124.316099,59.6938609 194.396931,59.6938609 C264.477762,59.6938609 267.793327,87.6553651 305.257698,95.2648006 C354.414091,74.5466009 385.359879,87.6553651 405.481025,110.055582 C420.689552,103.012167 438.127156,99.1499528 457.02316,99.21 C478.936283,57.595 519.690595,25 579.900484,25 C633.4563,25 680.188944,55.3297592 702.630655,100.41788 C720.852095,79.6977991 748.470104,67.1258315 780.800898,67.2285714 C800.652508,29.5285714 837.572791,0 892.118335,0 C956.682448,0 1010.30035,48.6571429 1015.68069,112.728571 C1020.99975,114.177983 1026.01758,116.112665 1030.69521,118.483089 C1051.92397,95.5471621 1082.22294,80 1121.80183,80 C1148.40426,80 1173.14836,88.260511 1193.42557,102.456181 C1215.04282,81.3581325 1248.41574,67.2285714 1284.26329,87.814702 C1307.95651,43.009702 1351.49702,12.5091259 1416.59802,12.5091259 Z" id="Path"></path>
        </g>
    </g>
</svg>