<?xml version="1.0" encoding="UTF-8"?>
<svg width="184px" height="20px" viewBox="0 0 184 20" version="1.1" xmlns="http://www.w3.org/2000/svg" xmlns:xlink="http://www.w3.org/1999/xlink">
    <!-- Generator: Sketch 63.1 (92452) - https://sketch.com -->
    <title>Logo</title>
    <desc>Created with Sketch.</desc>
    <g id="🔗-Sharable-URLs" stroke="none" stroke-width="1" fill="none" fill-rule="evenodd">
        <g id="Flight-URL-–-Desktop" transform="translate(-208.000000, -60.000000)" fill="#FFFFFF" fill-rule="nonzero">
            <g id="Group-2" transform="translate(0.000000, 38.000000)">
                <path d="M231.437438,22 C232.741901,22 233.95642,22.5033707 234.861953,23.4270306 C235.61612,24.1956595 236.11128,25.2564181 236.240965,26.3232138 L236.263122,26.551801 L236.283953,27.0080426 L236.267392,27.008 L236.267641,37.0862839 L236.270413,37.1720909 C236.248924,38.4548604 235.749907,39.6540182 234.859498,40.5576776 C233.950374,41.4866724 232.732756,42 231.437438,42 C230.308912,42 229.236844,41.6080285 228.370321,40.8820089 L228.187837,40.7213414 L228.017285,40.5556473 L213.729586,26.0209149 C213.492081,25.7794735 213.175449,25.6468552 212.835351,25.6468552 C212.496563,25.6468552 212.181831,25.7787824 211.946458,26.0191398 C211.765539,26.2027504 211.646109,26.4293525 211.598216,26.6696886 L211.580277,26.7908657 L211.573369,26.9295295 L211.573369,37.0812686 C211.573369,37.4247692 211.703516,37.7446408 211.941778,37.9856355 C212.183801,38.233292 212.497563,38.3666423 212.835195,38.3666423 C213.087758,38.3666423 213.329023,38.2918167 213.529783,38.1559272 L213.626652,38.0829575 L213.728282,37.9893033 L217.024498,34.6428853 C217.722404,33.9341743 218.853037,33.9340066 219.550295,34.643144 C220.1691,35.2723319 220.242651,36.2542659 219.746032,36.9726102 L219.65247,37.0965151 L219.549144,37.2108945 L216.255825,40.5502393 C215.347232,41.4765212 214.132104,41.9847557 212.835195,41.9847557 C211.549029,41.9847557 210.330846,41.461487 209.414075,40.5238581 C208.631126,39.7318988 208.153169,38.7235179 208.03044,37.596338 L208.009596,37.3530166 L208,37.1074662 L208,26.8061483 C208.02332,25.5338911 208.520541,24.3629866 209.417579,23.4520979 C210.325203,22.5254594 211.540879,22.0138151 212.835351,22.0138151 C213.966159,22.0138151 215.039163,22.4043008 215.904714,23.1276182 L216.08696,23.2876882 L216.257377,23.4529251 L230.546698,37.9888303 C230.786366,38.233146 231.102524,38.3669599 231.439001,38.3669599 C231.77857,38.3669599 232.096152,38.2335429 232.333521,37.9910224 C232.514125,37.8077325 232.633845,37.5827584 232.68191,37.3457195 L232.699922,37.2263317 L232.706922,37.0888907 L232.706922,26.9219073 C232.706922,26.5843599 232.574537,26.2640597 232.334495,26.0194938 C232.099405,25.779564 231.779978,25.6466964 231.437438,25.6466964 C231.204452,25.6466964 230.981583,25.709515 230.792184,25.8244325 L230.682748,25.8995491 L230.590891,25.9767505 L227.249951,29.3670199 C226.551936,30.0752995 225.421504,30.074126 224.724174,29.3649145 C224.105408,28.7354455 224.031876,27.7507545 224.528573,27.0316999 L224.62215,26.9076917 L224.725326,26.7934313 L228.018196,23.4461266 C228.932548,22.5156436 230.148679,22 231.437438,22 Z M340.421439,23.8520519 C341.165779,24.090631 341.624421,24.8446185 341.526798,25.6315574 L341.503741,25.7706729 L341.469368,25.9052615 L337.509967,39.0670647 C337.338426,39.6375901 336.88154,40.0625652 336.315427,40.1865923 L336.182927,40.209801 L336.045708,40.2210806 L335.989126,40.2222222 C335.435518,40.2222222 334.92566,39.9255869 334.634143,39.4402733 L334.565914,39.3150765 L334.508798,39.1836581 L329.907985,27.1716889 C329.585536,26.32957 329.985479,25.3767702 330.802765,25.0430913 C331.528446,24.7470369 332.345418,25.0383798 332.747864,25.7157646 L332.814478,25.8392695 L332.869408,25.966351 L335.8079,33.64 L338.42831,24.933029 C338.688671,24.0675529 339.581339,23.5829165 340.421439,23.8520519 Z M353.509899,23.7777778 C354.026835,23.7777778 354.50251,24.0131484 354.806443,24.4248736 L354.884978,24.5414903 L354.953945,24.667734 L361.381949,37.8508757 C361.778044,38.6637838 361.453376,39.6412015 360.654848,40.0456295 C360.427075,40.1607543 360.182813,40.2202468 359.938953,40.2202468 C359.430415,40.2202468 358.951928,39.9802137 358.644271,39.5616625 L358.564705,39.4431324 L358.493935,39.3134195 L356.939715,36.1351111 L349.392638,36.1351111 L347.60625,39.3866406 C347.218298,40.0945081 346.391391,40.3907017 345.663954,40.1273395 L345.536725,40.0750252 L345.412218,40.0109132 C344.725319,39.6196116 344.423271,38.7908753 344.676121,38.0418994 L344.726536,37.9106605 L344.791364,37.7785512 L352.023277,24.5970718 C352.255833,24.1729896 352.661004,23.8894565 353.138792,23.8039551 L353.284208,23.7843032 L353.430718,23.7777778 L353.509899,23.7777778 Z M375.555942,24.0255167 C376.251787,24.450453 376.520903,25.3036361 376.212442,26.043083 L376.151981,26.1722827 L376.0815,26.2935111 L371.524061,33.3946667 L371.524341,38.5809797 C371.524341,39.402333 370.921699,40.0776235 370.128921,40.201788 L369.995102,40.2173096 L369.865098,40.2222222 C369.045036,40.2222222 368.360566,39.6382226 368.228185,38.8468672 L368.211305,38.7131193 L368.205856,38.5809797 L368.205087,33.8124444 L368.164626,33.7663617 L363.134295,26.3263249 C362.621691,25.5671845 362.836753,24.5446549 363.610801,24.0465584 C364.286621,23.6113055 365.174287,23.7172424 365.730262,24.2815877 L365.830488,24.3927542 L365.91927,24.5119627 L369.696233,30.104 L373.259462,24.5449224 C373.749526,23.7800511 374.77611,23.5491791 375.555942,24.0255167 Z M260.22086,24.3526852 L260.316265,24.4752915 L260.390792,24.5903145 L266.496706,34.966509 C266.958824,35.7516461 266.690031,36.7593965 265.899563,37.214899 C265.207765,37.6133458 264.336316,37.4588709 263.819221,36.8640166 L263.726549,36.7473482 L263.645803,36.6234998 L259.809922,30.1066667 L258.255869,38.8661559 C258.132311,39.5618624 257.580635,40.0856125 256.906655,40.1992187 L256.770319,40.2164008 L256.631265,40.2222222 C256.535586,40.2222222 256.440025,40.2141025 256.345089,40.1976486 C255.546809,40.0588653 254.975068,39.3675593 254.979044,38.568413 L254.985121,38.4342997 L255.003495,38.2959379 L257.339215,25.1337592 C257.459624,24.4543269 257.994466,23.923617 258.676427,23.8030432 C259.256964,23.7008613 259.843705,23.9137514 260.22086,24.3526852 Z M281.730028,23.7777778 C282.482269,23.7777778 283.104503,24.359132 283.23009,25.1406826 L283.247022,25.2806038 L283.252493,25.419032 L283.252493,38.580968 C283.252493,39.4864401 282.577975,40.2222222 281.730028,40.2222222 C280.977788,40.2222222 280.355554,39.640868 280.229967,38.8593174 L280.213034,38.7193962 L280.207563,38.580968 L280.207563,25.419032 C280.207563,24.5135599 280.882081,23.7777778 281.730028,23.7777778 Z M290.529136,23.7777778 C291.329161,23.7777778 291.995987,24.3593549 292.128021,25.1470518 L292.145006,25.2801788 L292.150909,25.4193372 L292.150561,36.9617778 L299.018931,36.9622533 C299.833435,36.9622533 300.507659,37.5517138 300.63168,38.332318 L300.647186,38.4641202 L300.652094,38.5922378 C300.652094,39.3981939 300.071734,40.0672219 299.289389,40.1993374 L299.157192,40.2163167 L299.018931,40.2222222 L290.531477,40.2222222 C289.730806,40.2222222 289.062668,39.6427683 288.930317,38.8562164 L288.913289,38.7232707 L288.907364,38.584104 L288.907364,25.4193372 C288.907364,24.5101794 289.629722,23.7777778 290.529136,23.7777778 Z M315.543626,23.7777778 C316.449066,23.7777778 317.181715,24.5036202 317.181715,25.4117647 C317.181715,26.2197296 316.59958,26.8903811 315.814917,27.0228108 L315.68233,27.0398301 L315.543626,27.0457516 L307.819771,27.0453333 L307.819771,30.3653333 L314.123345,30.3660131 C314.940188,30.3660131 315.61654,30.9569366 315.740955,31.7394465 L315.75651,31.8715703 L315.761434,32 C315.761434,32.8079226 315.179216,33.4786067 314.394604,33.6110449 L314.262027,33.6280654 L314.123345,33.6339869 L307.819771,33.6337778 L307.819771,36.9537778 L315.543626,36.9542484 C316.360565,36.9542484 317.03684,37.5451315 317.161239,38.32767 L317.176792,38.4597992 L317.181715,38.5882353 C317.181715,39.3962002 316.59958,40.0668517 315.814917,40.1992814 L315.68233,40.2163007 L315.543626,40.2222222 L306.208538,40.2222222 C305.404164,40.2222222 304.725222,39.6401661 304.590427,38.8528663 L304.573071,38.7198138 L304.567005,38.5800784 L304.567005,25.3778824 C304.567005,24.573669 305.147876,23.9266291 305.93693,23.7996596 L306.070302,23.7833757 L306.208538,23.7777778 L315.543626,23.7777778 Z M324.050991,24.6749663 L324.107228,24.8033242 L324.151713,24.9341474 L326.711388,33.6266667 L327.214959,32.2856088 C327.49879,31.5281866 328.260067,31.1154609 328.994656,31.2814415 L329.12391,31.3167872 L329.245292,31.3616143 C329.953094,31.6567968 330.346394,32.4387657 330.19934,33.2124285 L330.167734,33.3487702 L330.122446,33.4879189 L327.988481,39.182148 C327.753429,39.809266 327.177028,40.2222222 326.535113,40.2222222 L326.475664,40.2209593 C325.9059,40.1982957 325.398861,39.8524803 325.141316,39.3213772 L325.086396,39.1955886 L325.042343,39.0659856 L321.166769,25.9041699 C320.912574,25.0409851 321.370498,24.1224819 322.194002,23.8524778 C322.926483,23.6126519 323.706177,23.9680062 324.050991,24.6749663 Z M389.293263,23.7777778 C390.21471,23.7777778 390.962043,24.5025102 390.962043,25.4117647 C390.962043,26.2235398 390.36414,26.8949246 389.562611,27.0240159 L389.427205,27.040441 L389.293263,27.0457516 L384.396518,27.0457516 C383.477745,27.0457516 382.723008,27.8003272 382.723008,28.7043137 C382.723008,29.5205814 383.338735,30.2219853 384.13496,30.3460757 L384.269261,30.3613326 L384.396518,30.3660131 L386.987972,30.3660131 C389.748861,30.3660131 392,32.5751895 392,35.2916078 C392,37.8709989 389.970363,40.0047522 387.384623,40.2067301 L387.184648,40.2184316 L386.987972,40.2222222 L381.054069,40.2222222 C380.13273,40.2222222 379.385289,39.4974403 379.385289,38.5882353 C379.385289,37.7765026 379.983278,37.1050849 380.784752,36.9759853 L380.920148,36.9595591 L381.054069,36.9542484 L386.987972,36.9542484 C387.906778,36.9542484 388.662281,36.1973131 388.662281,35.2916078 C388.662281,34.4782058 388.046039,33.7778355 387.249628,33.6539026 L387.1153,33.638664 L386.987972,33.6339869 L384.396518,33.6339869 C381.635526,33.6339869 379.385289,31.4237638 379.385289,28.7043137 C379.385289,26.126341 381.41426,23.9949909 383.999901,23.7932508 L384.19987,23.7815633 L384.396518,23.7777778 L389.293263,23.7777778 Z M271.645914,23.8032387 C272.242351,23.9065329 272.732631,24.312467 272.93809,24.8687943 L272.980366,24.9997779 L273.010786,25.1336322 L275.396746,38.2957222 C275.559435,39.1925046 274.941741,40.0428021 274.025432,40.1978 C273.929035,40.2141428 273.831876,40.2222222 273.734787,40.2222222 C273.027086,40.2222222 272.393903,39.7887248 272.150588,39.1366628 L272.107216,39.0034022 L272.075965,38.8663343 L270.484577,30.0906667 L269.427797,31.8421567 C269.007292,32.538986 268.14079,32.8212918 267.388823,32.5498707 L267.257426,32.4961965 L267.129092,32.4308563 C266.412798,32.0270971 266.109829,31.181738 266.396577,30.4333045 L266.453337,30.3023438 L266.520578,30.1790264 L269.896817,24.587303 C270.254648,23.9948823 270.953365,23.6831712 271.645914,23.8032387 Z M353.388457,28.8693333 L351.195237,32.8693333 L355.337212,32.8693333 L353.388457,28.8693333 Z" id="Logo"></path>
            </g>
        </g>
    </g>
</svg>