<?xml version="1.0" encoding="UTF-8"?>
<svg width="27px" height="30px" viewBox="0 0 27 30" version="1.1" xmlns="http://www.w3.org/2000/svg" xmlns:xlink="http://www.w3.org/1999/xlink">
    <!-- Generator: Sketch 63.1 (92452) - https://sketch.com -->
    <title>Group 28</title>
    <desc>Created with Sketch.</desc>
    <g id="🔗-Sharable-URLs" stroke="none" stroke-width="1" fill="none" fill-rule="evenodd">
        <g id="Flight-URL-–-Desktop" transform="translate(-846.000000, -1192.000000)" fill="#A8AFB3">
            <g id="Group-14" transform="translate(360.000000, 696.000000)">
                <g id="Group-13" transform="translate(0.000000, 411.000000)">
                    <g id="Group-27" transform="translate(32.000000, 42.000000)">
                        <g id="Group-8" transform="translate(442.000000, 30.000000)">
                            <g id="Group-28" transform="translate(12.000000, 13.000000)">
                                <path d="M2.05347594,25.3094276 C3.18757938,25.3094276 4.10695187,26.2288001 4.10695187,27.3629036 C4.10695187,28.497007 3.18757938,29.4163795 2.05347594,29.4163795 C0.919372492,29.4163795 0,28.497007 0,27.3629036 C0,26.2288001 0.919372492,25.3094276 2.05347594,25.3094276 Z M7.52941176,25.3094276 C8.66351521,25.3094276 9.5828877,26.2288001 9.5828877,27.3629036 C9.5828877,28.497007 8.66351521,29.4163795 7.52941176,29.4163795 C6.39530832,29.4163795 5.47593583,28.497007 5.47593583,27.3629036 C5.47593583,26.2288001 6.39530832,25.3094276 7.52941176,25.3094276 Z M13.0053476,25.3094276 C14.139451,25.3094276 15.0588235,26.2288001 15.0588235,27.3629036 C15.0588235,28.497007 14.139451,29.4163795 13.0053476,29.4163795 C11.8712442,29.4163795 10.9518717,28.497007 10.9518717,27.3629036 C10.9518717,26.2288001 11.8712442,25.3094276 13.0053476,25.3094276 Z M18.4812834,25.3094276 C19.6153869,25.3094276 20.5347594,26.2288001 20.5347594,27.3629036 C20.5347594,28.497007 19.6153869,29.4163795 18.4812834,29.4163795 C17.34718,29.4163795 16.4278075,28.497007 16.4278075,27.3629036 C16.4278075,26.2288001 17.34718,25.3094276 18.4812834,25.3094276 Z M23.9572193,25.3094276 C25.0913227,25.3094276 26.0106952,26.2288001 26.0106952,27.3629036 C26.0106952,28.497007 25.0913227,29.4163795 23.9572193,29.4163795 C22.8231158,29.4163795 21.9037433,28.497007 21.9037433,27.3629036 C21.9037433,26.2288001 22.8231158,25.3094276 23.9572193,25.3094276 Z M8.68234759,13.0006684 L8.68234759,13.6938503 C8.68234759,14.7506684 9.31871123,15.3756684 10.386893,15.3756684 L10.386893,15.3756684 L16.1596203,15.3756684 C17.2278021,15.3756684 17.8528021,14.7506684 17.8528021,13.6938503 L17.8528021,13.6938503 L17.8528021,13.0006684 L26.2278021,13.0006684 L26.2278021,19.5006684 C26.2278021,21.8870321 24.9096203,23.171123 22.5232567,23.171123 L22.5232567,23.171123 L4.04598395,23.171123 C1.65962032,23.171123 0.3414385,21.8870321 0.3414385,19.5006684 L0.3414385,19.5006684 L0.3414385,13.0006684 L8.68234759,13.0006684 Z M16.8300749,0.375668449 C19.1028021,0.375668449 20.3414385,1.53475936 20.3414385,3.87566845 L20.3414385,3.87566845 L20.3414385,4.75066845 L22.5232567,4.75066845 C24.9096203,4.75066845 26.2278021,6.03475936 26.2278021,8.42112299 L26.2278021,8.42112299 L26.2278021,11.2506684 L0.3414385,11.2506684 L0.3414385,8.42112299 C0.3414385,6.03475936 1.73916577,4.75066845 4.04598395,4.75066845 L4.04598395,4.75066845 L6.23916577,4.75066845 L6.23916577,3.87566845 C6.23916577,1.53475936 7.54598395,0.375668449 9.73916577,0.375668449 L9.73916577,0.375668449 Z M16.7732567,2.52339572 L9.79598395,2.52339572 C9.03462032,2.52339572 8.63689305,2.90975936 8.63689305,3.68248663 L8.63689305,3.68248663 L8.63689305,4.75066845 L17.9323476,4.75066845 L17.9323476,3.68248663 C17.9323476,2.90975936 17.5346203,2.52339572 16.7732567,2.52339572 L16.7732567,2.52339572 Z" id="Combined-Shape"></path>
                            </g>
                        </g>
                    </g>
                </g>
            </g>
        </g>
    </g>
</svg>