<?xml version="1.0" encoding="UTF-8"?>
<svg width="20px" height="20px" viewBox="0 0 20 20" version="1.1" xmlns="http://www.w3.org/2000/svg" xmlns:xlink="http://www.w3.org/1999/xlink">
    <title>Group 12</title>
    <g id="🛬-Landing-Page" stroke="none" stroke-width="1" fill="none" fill-rule="evenodd">
        <g id="Landing-–-Desktop" transform="translate(-1212.000000, -8414.000000)">
            <g id="Group-10" transform="translate(0.000000, 952.000000)">
                <g id="Group-18" transform="translate(0.000000, 7424.000000)">
                    <g id="Group-26" transform="translate(1108.000000, 38.000000)">
                        <g id="Group-12" transform="translate(104.000000, 0.000000)">
                            <rect id="Rectangle" x="0" y="0" width="20" height="20"></rect>
                            <path d="M12.2146484,3.90625 C9.93042969,3.90625 8.4375,5.290625 8.4375,7.796875 L8.4375,7.796875 L8.4375,10 L5.8984375,10 L5.8984375,12.890625 L8.4375,12.890625 L8.4375,19.8785156 C3.65685547,19.1283203 0,14.9912891 0,10 C0,4.47714844 4.47714844,4.61852778e-14 10,4.61852778e-14 C15.5228516,4.61852778e-14 20,4.47714844 20,10 C20,14.9912891 16.3431445,19.1283203 11.5625,19.8785156 L11.5625,19.8785156 L11.5625,12.890625 L13.8925781,12.890625 L14.3359375,10 L11.5625,10 L11.5625,8.12416016 C11.5625,7.33333984 11.9499023,6.5625 13.1921484,6.5625 L14.453125,6.5625 L14.453125,4.1015625 C14.453125,4.1015625 13.3087305,3.90625 12.2146484,3.90625 Z" id="Combined-Shape" fill="#616466"></path>
                        </g>
                    </g>
                </g>
            </g>
        </g>
    </g>
</svg>