<svg width="16" height="15" viewBox="0 0 16 15" fill="none" xmlns="http://www.w3.org/2000/svg">
<path d="M8 15C3.85786 15 0.5 11.6421 0.5 7.5C0.5 3.35786 3.85786 0 8 0C12.1421 0 15.5 3.35786 15.5 7.5C15.5 11.6421 12.1421 15 8 15ZM6.28252 13.2506C5.56057 11.7194 5.11799 10.0307 5.02048 8.25H2.04642C2.3435 10.6324 4.03729 12.581 6.28252 13.2506ZM6.52302 8.25C6.63582 10.0791 7.15835 11.7973 8 13.314C8.84165 11.7973 9.36418 10.0791 9.47698 8.25H6.52302ZM13.9536 8.25H10.9795C10.882 10.0307 10.4394 11.7194 9.7175 13.2506C11.9627 12.581 13.6565 10.6324 13.9536 8.25ZM2.04642 6.75H5.02048C5.11799 4.96933 5.56057 3.28055 6.28252 1.74942C4.03729 2.419 2.3435 4.36762 2.04642 6.75ZM6.52302 6.75H9.47698C9.36418 4.92091 8.84165 3.20269 8 1.68599C7.15835 3.20269 6.63582 4.92091 6.52302 6.75ZM9.7175 1.74942C10.4394 3.28055 10.882 4.96933 10.9795 6.75H13.9536C13.6565 4.36762 11.9627 2.419 9.7175 1.74942Z" fill="#0099FF"/>
</svg>
