<svg width="42" height="45" viewBox="0 0 42 45" fill="none" xmlns="http://www.w3.org/2000/svg">
<g filter="url(#filter0_dddii_29_19558)">
<rect x="1" y="1" width="40" height="40" rx="10" fill="white"/>
<path d="M23 23.252V25.3414C22.3744 25.1203 21.7013 25 21 25C17.6863 25 15 27.6863 15 31H13C13 26.5817 16.5817 23 21 23C21.6906 23 22.3608 23.0875 23 23.252ZM21 22C17.685 22 15 19.315 15 16C15 12.685 17.685 10 21 10C24.315 10 27 12.685 27 16C27 19.315 24.315 22 21 22ZM21 20C23.21 20 25 18.21 25 16C25 13.79 23.21 12 21 12C18.79 12 17 13.79 17 16C17 18.21 18.79 20 21 20ZM27 26V23H29V26H32V28H29V31H27V28H24V26H27Z" fill="#0099FF"/>
</g>
<defs>
<filter id="filter0_dddii_29_19558" x="0" y="0" width="42" height="45" filterUnits="userSpaceOnUse" color-interpolation-filters="sRGB">
<feFlood flood-opacity="0" result="BackgroundImageFix"/>
<feColorMatrix in="SourceAlpha" type="matrix" values="0 0 0 0 0 0 0 0 0 0 0 0 0 0 0 0 0 0 127 0" result="hardAlpha"/>
<feMorphology radius="1" operator="dilate" in="SourceAlpha" result="effect1_dropShadow_29_19558"/>
<feOffset/>
<feComposite in2="hardAlpha" operator="out"/>
<feColorMatrix type="matrix" values="0 0 0 0 0 0 0 0 0 0 0 0 0 0 0 0 0 0 0.08 0"/>
<feBlend mode="normal" in2="BackgroundImageFix" result="effect1_dropShadow_29_19558"/>
<feColorMatrix in="SourceAlpha" type="matrix" values="0 0 0 0 0 0 0 0 0 0 0 0 0 0 0 0 0 0 127 0" result="hardAlpha"/>
<feOffset dy="2"/>
<feComposite in2="hardAlpha" operator="out"/>
<feColorMatrix type="matrix" values="0 0 0 0 0.00392157 0 0 0 0 0.027451 0 0 0 0 0.152941 0 0 0 0.05 0"/>
<feBlend mode="normal" in2="effect1_dropShadow_29_19558" result="effect2_dropShadow_29_19558"/>
<feColorMatrix in="SourceAlpha" type="matrix" values="0 0 0 0 0 0 0 0 0 0 0 0 0 0 0 0 0 0 127 0" result="hardAlpha"/>
<feOffset dy="4"/>
<feComposite in2="hardAlpha" operator="out"/>
<feColorMatrix type="matrix" values="0 0 0 0 0.00392157 0 0 0 0 0.027451 0 0 0 0 0.152941 0 0 0 0.02 0"/>
<feBlend mode="normal" in2="effect2_dropShadow_29_19558" result="effect3_dropShadow_29_19558"/>
<feBlend mode="normal" in="SourceGraphic" in2="effect3_dropShadow_29_19558" result="shape"/>
<feColorMatrix in="SourceAlpha" type="matrix" values="0 0 0 0 0 0 0 0 0 0 0 0 0 0 0 0 0 0 127 0" result="hardAlpha"/>
<feMorphology radius="1" operator="erode" in="SourceAlpha" result="effect4_innerShadow_29_19558"/>
<feOffset/>
<feComposite in2="hardAlpha" operator="arithmetic" k2="-1" k3="1"/>
<feColorMatrix type="matrix" values="0 0 0 0 1 0 0 0 0 1 0 0 0 0 1 0 0 0 0.04 0"/>
<feBlend mode="normal" in2="shape" result="effect4_innerShadow_29_19558"/>
<feColorMatrix in="SourceAlpha" type="matrix" values="0 0 0 0 0 0 0 0 0 0 0 0 0 0 0 0 0 0 127 0" result="hardAlpha"/>
<feMorphology radius="1" operator="erode" in="SourceAlpha" result="effect5_innerShadow_29_19558"/>
<feOffset/>
<feComposite in2="hardAlpha" operator="arithmetic" k2="-1" k3="1"/>
<feColorMatrix type="matrix" values="0 0 0 0 1 0 0 0 0 1 0 0 0 0 1 0 0 0 0.8 0"/>
<feBlend mode="normal" in2="effect4_innerShadow_29_19558" result="effect5_innerShadow_29_19558"/>
</filter>
</defs>
</svg>
