<?xml version="1.0" encoding="UTF-8"?>
<svg width="20px" height="20px" viewBox="0 0 20 20" version="1.1" xmlns="http://www.w3.org/2000/svg" xmlns:xlink="http://www.w3.org/1999/xlink">
    <title>Group 17</title>
    <g id="🛬-Landing-Page" stroke="none" stroke-width="1" fill="none" fill-rule="evenodd">
        <g id="Landing-–-Desktop" transform="translate(-1108.000000, -8414.000000)">
            <g id="Group-10" transform="translate(0.000000, 952.000000)">
                <g id="Group-18" transform="translate(0.000000, 7424.000000)">
                    <g id="Group-17" transform="translate(1108.000000, 38.000000)">
                        <rect id="Rectangle" x="0" y="0" width="20" height="20"></rect>
                        <path d="M10.0000199,0 C12.7158369,0 13.0563809,0.0115115714 14.1229872,0.0601777143 C15.1873706,0.108724779 15.9143063,0.27778605 16.55038,0.5250069 C17.2079684,0.780524014 17.7656443,1.12245729 18.3216134,1.67838664 C18.8775427,2.23435568 19.219476,2.79203161 19.4750328,3.44962002 C19.7222139,4.0856937 19.8912752,4.81262938 19.9398223,5.87701279 C19.9884884,6.94361914 20,7.28416307 20,10.0000199 C20,12.7158369 19.9884884,13.0563809 19.9398223,14.1229872 C19.8912752,15.1873706 19.7222139,15.9143063 19.4750328,16.55038 C19.219476,17.2079684 18.8775427,17.7656443 18.3216134,18.3216134 C17.7656443,18.8775427 17.2079684,19.219476 16.55038,19.4750328 C15.9143063,19.7222139 15.1873706,19.8912752 14.1229872,19.9398223 C13.0563809,19.9884884 12.7158369,20 10.0000199,20 C7.28416307,20 6.94361914,19.9884884 5.87701279,19.9398223 C4.81262938,19.8912752 4.0856937,19.7222139 3.44962002,19.4750328 C2.79203161,19.219476 2.23435568,18.8775427 1.67838664,18.3216134 C1.12245729,17.7656443 0.780524014,17.2079684 0.5250069,16.55038 C0.27778605,15.9143063 0.108724779,15.1873706 0.0601777143,14.1229872 C0.0115115714,13.0563809 0,12.7158369 0,10.0000199 C0,7.28416307 0.0115115714,6.94361914 0.0601777143,5.87701279 C0.108724779,4.81262938 0.27778605,4.0856937 0.5250069,3.44962002 C0.780524014,2.79203161 1.12245729,2.23435568 1.67838664,1.67838664 C2.23435568,1.12245729 2.79203161,0.780524014 3.44962002,0.5250069 C4.0856937,0.27778605 4.81262938,0.108724779 5.87701279,0.0601777143 C6.94361914,0.0115115714 7.28416307,0 10.0000199,0 Z M10.0000199,1.80179859 C7.32989179,1.80179859 7.0136015,1.81200021 5.95914186,1.86011063 C4.98415174,1.9045691 4.45465931,2.06747764 4.10228624,2.2044256 C3.635512,2.38583204 3.30239103,2.60252739 2.95247906,2.95247906 C2.60252739,3.30239103 2.38583204,3.635512 2.2044256,4.10228624 C2.06747764,4.45465931 1.9045691,4.98415174 1.86011063,5.95914186 C1.81200021,7.0136015 1.80179859,7.32989179 1.80179859,10.0000199 C1.80179859,12.6701082 1.81200021,12.9863985 1.86011063,14.0408581 C1.9045691,15.0158483 2.06747764,15.5453407 2.2044256,15.8977138 C2.38583204,16.364488 2.60256708,16.697609 2.95247906,17.0475209 C3.30239103,17.3974726 3.635512,17.6141679 4.10228624,17.7955744 C4.45465931,17.9325224 4.98415174,18.0954309 5.95914186,18.1398894 C7.01348243,18.1879998 7.32969329,18.1982014 10.0000199,18.1982014 C12.6703067,18.1982014 12.9865573,18.1879998 14.0408581,18.1398894 C15.0158483,18.0954309 15.5453407,17.9325224 15.8977138,17.7955744 C16.364488,17.6141679 16.697609,17.3974726 17.0475209,17.0475209 C17.3974726,16.697609 17.6141679,16.364488 17.7955744,15.8977138 C17.9325224,15.5453407 18.0954309,15.0158483 18.1398894,14.0408581 C18.1879998,12.9863985 18.1982014,12.6701082 18.1982014,10.0000199 C18.1982014,7.32989179 18.1879998,7.0136015 18.1398894,5.95914186 C18.0954309,4.98415174 17.9325224,4.45465931 17.7955744,4.10228624 C17.6141679,3.635512 17.3974726,3.30239103 17.0475209,2.95247906 C16.697609,2.60252739 16.364488,2.38583204 15.8977138,2.2044256 C15.5453407,2.06747764 15.0158483,1.9045691 14.0408581,1.86011063 C12.9863985,1.81200021 12.6701082,1.80179859 10.0000199,1.80179859 Z M10.0000199,13.3333334 C11.8409578,13.3333334 13.3333334,11.8409578 13.3333334,10.0000199 C13.3333334,8.15904221 11.8409578,6.66666664 10.0000199,6.66666664 C8.15904221,6.66666664 6.66666664,8.15904221 6.66666664,10.0000199 C6.66666664,11.8409578 8.15904221,13.3333334 10.0000199,13.3333334 Z M10.0000199,4.86486809 C12.8360733,4.86486809 15.1351319,7.16392671 15.1351319,10.0000199 C15.1351319,12.8360733 12.8360733,15.1351319 10.0000199,15.1351319 C7.16392671,15.1351319 4.86486809,12.8360733 4.86486809,10.0000199 C4.86486809,7.16392671 7.16392671,4.86486809 10.0000199,4.86486809 Z M16.5380348,4.66198662 C16.5380348,5.32473539 16.0007621,5.86196836 15.3380134,5.86196836 C14.6753043,5.86196836 14.1380316,5.32473539 14.1380316,4.66198662 C14.1380316,3.99923786 14.6753043,3.46196519 15.3380134,3.46196519 C16.0007621,3.46196519 16.5380348,3.99923786 16.5380348,4.66198662 Z" id="Combined-Shape" fill="#616466"></path>
                    </g>
                </g>
            </g>
        </g>
    </g>
</svg>