<?xml version="1.0" encoding="UTF-8"?>
<svg xmlns="http://www.w3.org/2000/svg" xmlns:xlink="http://www.w3.org/1999/xlink" width="41pt" height="41pt" viewBox="0 0 41 41" version="1.1">
<defs>
<clipPath id="clip1">
  <path d="M -315 -129 L 357 -129 C 370.253906 -129 381 -118.253906 381 -105 L 381 450 C 381 463.253906 370.253906 474 357 474 L -315 474 C -328.253906 474 -339 463.253906 -339 450 L -339 -105 C -339 -118.253906 -328.253906 -129 -315 -129 Z M -315 -129 "/>
</clipPath>
<clipPath id="clip2">
  <path d="M 0 2 L 41 2 L 41 39 L 0 39 Z M 0 2 "/>
</clipPath>
<clipPath id="clip3">
  <path d="M 12.035156 38.148438 C 12.546875 38.148438 13.003906 37.9375 13.371094 37.515625 L 25.0625 24.757813 C 25.660156 24.105469 26.011719 23.929688 26.976563 23.929688 L 34.007813 23.929688 C 37.332031 23.929688 40.109375 22.453125 40.125 20.414063 C 40.109375 18.394531 37.332031 16.898438 34.007813 16.898438 L 26.976563 16.898438 C 26.011719 16.898438 25.660156 16.738281 25.0625 16.089844 L 13.371094 3.3125 C 13.003906 2.90625 12.546875 2.675781 12.035156 2.675781 L 10.015625 2.675781 C 9.558594 2.675781 9.3125 3.101563 9.523438 3.574219 L 15.550781 16.898438 L 6.710938 17.898438 L 3.5625 12.117188 C 3.316406 11.695313 2.949219 11.5 2.386719 11.5 L 1.628906 11.5 C 1.171875 11.5 0.875 11.800781 0.875 12.257813 L 0.875 28.585938 C 0.875 29.042969 1.171875 29.324219 1.628906 29.324219 L 2.386719 29.324219 C 2.949219 29.324219 3.316406 29.132813 3.5625 28.710938 L 6.710938 22.925781 L 15.550781 23.929688 L 9.523438 37.273438 C 9.3125 37.746094 9.558594 38.148438 10.015625 38.148438 Z M 12.035156 38.148438 "/>
</clipPath>
</defs>
<g id="surface1">
<rect x="0" y="0" width="41" height="41" style="fill:rgb(93.333435%,93.725586%,94.117737%);fill-opacity:1;stroke:none;"/>
<g clip-path="url(#clip1)" clip-rule="evenodd">
<rect x="0" y="0" width="41" height="41" style="fill:rgb(100%,100%,100%);fill-opacity:1;stroke:none;"/>
</g>
<g clip-path="url(#clip2)" clip-rule="nonzero">
<g clip-path="url(#clip3)" clip-rule="nonzero">
<rect x="0" y="0" width="41" height="41" style="fill:rgb(65.882874%,68.62793%,70.196533%);fill-opacity:1;stroke:none;"/>
</g>
</g>
</g>
</svg>
