<?xml version="1.0" encoding="UTF-8"?>
<svg width="18px" height="18px" viewBox="0 0 18 18" version="1.1" xmlns="http://www.w3.org/2000/svg" xmlns:xlink="http://www.w3.org/1999/xlink">
    <!-- Generator: Sketch 63.1 (92452) - https://sketch.com -->
    <title>Icon / Send</title>
    <desc>Created with Sketch.</desc>
    <g id="👀-Teaser-Page" stroke="none" stroke-width="1" fill="none" fill-rule="evenodd">
        <g id="Teaser-–-Desktop" transform="translate(-949.000000, -378.000000)" fill="#FFFFFF" fill-rule="nonzero">
            <g id="Group-3" transform="translate(448.000000, 208.000000)">
                <g id="Group" transform="translate(288.000000, 155.000000)">
                    <g id="Icon-/-Send" transform="translate(212.000000, 14.000000)">
                        <path d="M11.7570406,19 C12.3756563,19 12.8138425,18.4673031 13.1317422,17.6424821 L18.7594272,2.94176611 C18.9140811,2.54653938 19,2.19427208 19,1.90214797 C19,1.34367542 18.6563246,1 18.097852,1 C17.8057279,1 17.4534606,1.08591885 17.0582339,1.24057279 L2.28019093,6.9026253 C1.55847255,7.17756563 1,7.61575179 1,8.24295943 C1,9.03341289 1.60143198,9.29976134 2.42625298,9.54892601 L7.06587112,10.9579952 C7.61575179,11.1298329 7.92505967,11.1126492 8.29451074,10.7689737 L17.7198091,1.96229117 C17.8315036,1.85918854 17.9603819,1.87637232 18.0463007,1.95369928 C18.1322196,2.03961814 18.1408115,2.16849642 18.0377088,2.28019093 L9.26539379,11.7398568 C8.93031026,12.0921241 8.90453461,12.3842482 9.06778043,12.9599045 L10.4338902,17.49642 C10.6916468,18.3642005 10.9579952,19 11.7570406,19 Z" ></path>
                    </g>
                </g>
            </g>
        </g>
    </g>
</svg>