<?xml version="1.0" encoding="UTF-8"?>
<svg width="20px" height="20px" viewBox="0 0 20 20" version="1.1" xmlns="http://www.w3.org/2000/svg" xmlns:xlink="http://www.w3.org/1999/xlink">
    <title>Group 16</title>
    <g id="🛬-Landing-Page" stroke="none" stroke-width="1" fill="none" fill-rule="evenodd">
        <g id="Landing-–-Desktop" transform="translate(-1160.000000, -8414.000000)">
            <g id="Group-10" transform="translate(0.000000, 952.000000)">
                <g id="Group-18" transform="translate(0.000000, 7424.000000)">
                    <g id="Group-26" transform="translate(1108.000000, 38.000000)">
                        <g id="Group-16" transform="translate(52.000000, 0.000000)">
                            <rect id="Rectangle" x="0" y="0" width="20" height="20"></rect>
                            <path d="M20,3.894265 C19.2643383,4.21560097 18.4729662,4.4328719 17.6430255,4.52990552 C18.4908221,4.02997143 19.1414899,3.2389365 19.4471823,2.29531971 C18.6543818,2.75798726 17.7765874,3.09479235 16.8416542,3.27549989 C16.0931362,2.49079323 15.0267838,2 13.8475823,2 C11.5813156,2 9.74501821,3.80848165 9.74501821,6.03955175 C9.74501821,6.35596572 9.78144418,6.66464513 9.85072495,6.96066799 C6.44025427,6.79121072 3.41689879,5.18312459 1.39347189,2.7404087 C1.04063995,3.33597012 0.838511535,4.03067458 0.838511535,4.77038014 C0.838511535,6.17174247 1.51774873,7.4078664 2.61909864,8.13210283 C1.94700379,8.11100857 1.42989786,7.92959789 0.715663167,7.62654362 C0.715663167,7.64341903 0.715663167,7.66029444 0.715663167,7.67716985 C0.715663167,9.6340145 2.17484465,11.2667106 4.0511392,11.6386728 C3.70687808,11.7314876 3.36690236,11.7807075 2.99264338,11.7807075 C2.72837654,11.7807075 2.48196557,11.7546913 2.23198343,11.7075808 C2.75408899,13.3121512 4.27469466,14.4800703 6.07028069,14.513118 C4.66609528,15.5959569 2.90050711,16.2421446 0.977787301,16.2421446 C0.645668167,16.2421446 0.320691379,16.2231597 0,16.1851901 C1.8155846,17.3313118 3.97257339,18 6.29097922,18 C13.8368688,18 17.9637169,11.8453966 17.9637169,6.50714129 C17.9637169,6.33205889 17.9608599,6.15767963 17.9530034,5.98470666 C18.7550889,5.41586465 19.449325,4.70498791 20,3.894265 Z" id="Path" fill="#616466"></path>
                        </g>
                    </g>
                </g>
            </g>
        </g>
    </g>
</svg>