<?xml version="1.0" encoding="UTF-8"?>
<svg width="28px" height="28px" viewBox="0 0 28 28" version="1.1" xmlns="http://www.w3.org/2000/svg" xmlns:xlink="http://www.w3.org/1999/xlink">
    <title>2B</title>
    <defs>
        <linearGradient x1="50.0086176%" y1="99.987006%" x2="50.0086176%" y2="0.000426314023%" id="linearGradient-1">
            <stop stop-color="#420507" offset="0%"></stop>
            <stop stop-color="#F22435" offset="63.1373%"></stop>
            <stop stop-color="#5D0E12" offset="70.1961%"></stop>
            <stop stop-color="#78181E" offset="100%"></stop>
        </linearGradient>
    </defs>
    <g id="2B" stroke="none" stroke-width="1" fill="none" fill-rule="evenodd">
        <path d="M28,4.5 C19.6251346,6.39279913 11.059246,8.28559827 2.64416517,10.1783974 L19.8764811,9.40687602 C22.1587074,7.51407688 24.843088,5.86816459 28,4.5 Z M1.37737882,10.4561451 L0.412208259,10.682458 L16.438061,12.7295615 C17.2021544,11.8551705 18.0265709,11.0219274 18.9213645,10.2195452 L1.37737882,10.4561451 Z M0,10.8573362 C2.02082585,11.2585273 3.70987433,11.8860314 5.08725314,12.7089875 L14.4976661,15.1881429 C14.9098743,14.6017867 15.3421903,14.0257174 15.8046679,13.470222 L0,10.8573362 Z M6.01220826,13.3262047 C9.08868941,15.6201949 10.3253142,19.1280455 10.2348294,23.5 C11.2,20.8151056 12.4366248,18.2536546 14.0050269,15.8979426 L6.01220826,13.3262047 Z" id="Shape" fill="url(#linearGradient-1)"></path>
    </g>
</svg>