<?xml version="1.0" encoding="UTF-8"?>
<svg width="28px" height="28px" viewBox="0 0 28 28" version="1.1" xmlns="http://www.w3.org/2000/svg" xmlns:xlink="http://www.w3.org/1999/xlink">
    <title>2L</title>
    <g id="2L" stroke="none" stroke-width="1" fill="none" fill-rule="evenodd">
        <path d="M4.69677419,0 C2.11716129,0 0,2.08342158 0,4.65569875 L0,23.3218833 C0,25.8912679 2.11716129,28 4.69677419,28 L23.332129,28 C25.9189677,28 28,25.8912679 28,23.3218833 L28,4.65569875 C28,2.08342158 25.9189677,0 23.332129,0 L4.69677419,0 Z M9.91380645,5.03969627 L11.835871,5.1756502 L17.435871,13.0168651 C17.6887742,13.0168651 22.7612903,13.0175883 22.7612903,13.0168651 L24.0763871,13.1304011 C24.8206452,13.2439371 25.947871,14.0459206 25.9912258,14.0791859 L26.2658065,14.2823937 L25.9912258,14.4863245 C25.947871,14.5253751 24.8206452,15.3439913 24.0763871,15.4582505 L22.7612903,15.5710633 L17.435871,15.5710633 C17.2913548,15.7771637 11.835871,23.4130014 11.835871,23.4130014 L9.91380645,23.5482321 C9.91380645,23.5482321 12.3778065,16.2956688 12.580129,15.7062941 C11.6190968,15.6686898 9.856,15.5500917 9.84877419,15.5479222 C9.84877419,15.5479222 6.14916129,15.1848963 5.91793548,15.1639247 C5.76619355,15.3273587 3.72851613,17.446215 3.72851613,17.4469382 L2.21832258,17.2885663 C2.21832258,17.2885663 3.30219355,14.4263023 3.36722581,14.2599757 C3.30219355,14.092926 2.21832258,11.3000852 2.21832258,11.3000852 L3.72851613,11.1417134 C3.72851613,11.1417134 5.78787097,13.280095 5.9396129,13.4464217 C6.53935484,13.3784447 9.84877419,13.0190346 9.87045161,13.0168651 C9.87045161,13.0168651 12.0092903,12.9047754 12.580129,12.8816343 C12.3778065,12.2922596 10.0294194,5.40127586 10.0294194,5.40127586 L9.91380645,5.03969627 L9.91380645,5.03969627 Z" id="plane" fill="#EE2722" fill-rule="nonzero"></path>
    </g>
</svg>