<?xml version="1.0" encoding="UTF-8"?>
<svg width="28px" height="28px" viewBox="0 0 28 28" version="1.1" xmlns="http://www.w3.org/2000/svg" xmlns:xlink="http://www.w3.org/1999/xlink">
    <title>2M</title>
    <g id="2M" stroke="none" stroke-width="1" fill="none" fill-rule="evenodd">
        <path d="M14.0029344,10.4964708 C13.0456109,11.0437536 12.1567375,11.5509685 12.0276601,11.6236827 C11.8985828,11.6963969 11.3353363,12.0167368 10.7760012,12.3355762 C10.2166661,12.6544156 9.40699922,13.1157229 8.97674146,13.3607126 C8.5464837,13.6057428 8.02724081,13.9017094 7.82286837,14.0184253 C7.61849594,14.1351411 7.24886541,14.3457811 7.00146719,14.4865052 C6.75406898,14.6272292 6.40203991,14.8286634 6.21918036,14.9341861 C6.03632081,15.0397089 5.78990045,15.1809197 5.67157957,15.2479562 C5.22481556,15.5010973 4.64103401,15.8328736 4.26346326,16.0481774 C4.04833438,16.1708547 3.69630531,16.3715994 3.48117643,16.4942767 C3.26604755,16.6169541 2.91401847,16.8176988 2.69888959,16.9403761 C1.92532525,17.3815278 1.5,17.6243275 1.15387309,17.8223957 C0.960257093,17.9331905 0.621409549,18.1238372 0.400922004,18.2460278 C0.180395345,18.3682185 0,18.4757285 0,18.4849749 C0,18.4941808 4.94158861,18.5009128 10.9813515,18.4998989 L21.962703,18.498074 L23.683734,16.4075307 C24.6303011,15.2577299 25.5455767,14.1487268 25.7176798,13.943075 C26.51616,12.988909 27.9877197,11.1924263 28,11.1568195 C28.0074334,11.1350012 27.4617883,11.4980044 26.7873788,11.9634888 C26.1130084,12.4289732 25.3324035,12.9655091 25.052736,13.1557502 C24.7730684,13.3459913 24.1420759,13.7780588 23.650565,14.1159182 C22.9729873,14.581646 22.7270754,14.7301565 22.6335922,14.7302376 C22.1634378,14.7305621 15.6672105,14.8528338 15.0394644,14.8732328 C13.9260356,14.9093262 13.5376693,14.8086295 13.2811966,14.4173192 C13.1999952,14.2933847 13.1815332,14.2170611 13.1815332,14.0051639 C13.1815332,13.6157192 13.347378,13.2959471 13.9122673,12.5960577 C14.4705463,11.9042792 15.3589113,10.8076453 15.952667,10.0772185 C16.1925944,9.78206289 16.3889092,9.53111172 16.3889092,9.51959425 C16.3889092,9.50807677 16.2437168,9.49927645 16.0662159,9.5 L15.7435226,9.50146639 L14.0029344,10.4964708" id="Path" fill="#1F7B29"></path>
    </g>
</svg>