<?xml version="1.0" encoding="UTF-8"?>
<svg width="28px" height="28px" viewBox="0 0 28 28" version="1.1" xmlns="http://www.w3.org/2000/svg" xmlns:xlink="http://www.w3.org/1999/xlink">
    <title>2N</title>
    <g id="2N" stroke="none" stroke-width="1" fill="none" fill-rule="evenodd">
        <path d="M17.2857121,9.80415856 C18.7576853,12.732701 18.6928038,15.6532264 17.0928329,18.5800355 L15.9783704,17.9473524 C17.4313647,15.4842221 17.497129,12.9545734 16.1747806,10.3605729 L17.2857121,9.80415856 M18.7144309,5.74372025 L28,5.74372025 C21.4231265,7.01125302 15.4924206,9.58965303 10.2030271,13.4832537 C12.7364983,17.3723043 17.9106938,20.3740819 25.7370895,22.4888032 L13.3244049,22.4888032 C9.97218996,21.733917 7.66867323,19.7491991 6.41650291,16.5294491 C5.37928038,17.3649374 4.38398815,18.3191621 3.43548127,19.3847563 C5.12858154,21.1172678 7.31513486,21.911155 9.99249305,21.7607844 C10.662936,22.159028 11.2684974,22.4541357 11.8069704,22.6422072 C8.23186296,23.538797 5.18022193,22.7492433 2.6352751,20.2856796 L2.20670358,20.8793616 L0.000729893862,20.8793616 L1.44489673,18.8864101 C-0.0901926017,16.2586088 -0.401359328,13.6791254 0.507865492,11.1462266 C1.47490996,8.25235177 3.64557394,6.29103439 7.0260366,5.26400784 C9.63674774,4.64345846 12.1234335,5.11710404 14.4803562,6.68234453 C14.047371,6.86131582 13.6567574,7.0840549 13.3089568,7.35186186 C11.6626419,6.47520588 9.98763792,6.1107631 8.29409631,6.25983362 C8.00852911,7.73190501 8.20405654,9.31317925 8.88023737,11.0114565 C12.0104425,8.48245773 15.2880657,6.72741232 18.7144309,5.74372025 M1.36809816,12.7166672 C1.07679309,14.4844962 1.37471871,16.1810401 2.26408188,17.8138823 C3.33352448,16.345711 4.53184752,15.0053764 5.85552002,13.7896283 C5.5266984,12.0280827 5.68338521,9.68932224 6.3233736,6.77638027 C3.64204301,7.86927518 1.99219717,9.85052643 1.36809816,12.7166672" id="Shape" fill="#EE3224"></path>
    </g>
</svg>