<?xml version="1.0" encoding="UTF-8"?>
<svg width="28px" height="28px" viewBox="0 0 28 28" version="1.1" xmlns="http://www.w3.org/2000/svg" xmlns:xlink="http://www.w3.org/1999/xlink">
    <title>2W</title>
    <g id="2W" stroke="none" stroke-width="1" fill="none" fill-rule="evenodd">
        <path d="M24.1110214,12.3813063 L23.4331698,12.4985543 L23.1100081,13.1937851 L23.781554,13.0781885 L24.1110214,12.3813063 Z M28,12.6868115 C26.3347527,13.3136753 25.8806868,13.4272902 25.3484945,13.5257124 C24.7295372,13.6401861 24.164745,13.7745423 23.7153452,14.6635131 L23.540365,15.0350735 L23.1683348,15.8260849 L23.1620292,15.8310364 C22.9980837,15.9538991 22.8641529,16.0265598 22.7490127,16.0440644 C22.7193764,16.0484875 22.6939649,16.0506726 22.6701928,16.0490159 C22.611866,16.0485403 22.5657721,16.0030415 22.5614212,15.9334193 C22.558899,15.9173018 22.5586468,15.8997312 22.5598474,15.8805752 C22.5697471,15.743907 22.66307,15.5125157 22.823106,15.1853438 L23.4410543,13.8724969 L22.744286,13.9864421 L22.1184557,15.327363 C22.0102516,15.5648314 21.9425926,15.7692722 21.9072182,15.9416762 L21.9040654,15.9532359 L21.8961834,15.9598414 C21.6812257,16.1346895 21.5151363,16.2372071 21.3759718,16.2587411 C21.3465877,16.2629687 21.3206717,16.2653493 21.2971518,16.2636926 C21.2389512,16.263217 21.1919745,16.2159347 21.1883803,16.1464447 C21.1861759,16.1309877 21.1871848,16.1148042 21.1883803,16.0969033 C21.198217,15.9604993 21.2917921,15.7293061 21.4547917,15.400021 L22.1026917,14.0557974 L21.4090761,14.1697426 L21.380701,14.2291923 L21.3570525,14.2209433 C21.3199125,14.208657 21.2770345,14.201391 21.2277878,14.197824 C21.2272833,14.197824 21.2265872,14.197824 21.2262139,14.197824 C21.2047748,14.1963021 21.1819486,14.194981 21.1584287,14.1945212 C20.5162038,14.1803194 19.6308982,14.6331937 19.1122629,15.5288366 C18.9513441,15.8063344 18.8725872,16.0605148 18.8584627,16.2736088 C18.8336187,16.6790556 19.0306685,16.9339625 19.3487228,16.9589314 C19.3936817,16.9622342 19.4408475,16.9605167 19.4905987,16.9539799 C19.8183635,16.9106477 20.0953053,16.7749703 20.3828405,16.5345295 C20.4205479,16.502823 20.4571834,16.4699935 20.4931884,16.4370981 L20.5278692,16.4057218 L20.5389039,16.4536119 C20.5733325,16.6014434 20.66407,16.6787279 20.8336905,16.6930619 C20.890504,16.6972207 20.9572802,16.6925229 21.0307404,16.6798509 C21.2322042,16.6447095 21.4228854,16.5607534 21.6234664,16.4271898 C21.7133842,16.3656263 21.7643334,16.3255308 21.8678082,16.2356297 L21.9009126,16.2059049 L21.9135238,16.2504921 C21.9603113,16.4067787 22.0496616,16.4577733 22.2020048,16.4552632 C22.2595749,16.4543385 22.3062994,16.4571762 22.4069367,16.4337953 C22.5667835,16.3965402 22.8747488,16.2454059 23.0311906,16.1299414 L22.9413359,16.3215015 L23.6475626,16.1712259 C23.6838828,16.087534 23.864349,15.6742927 24.0668847,15.2530583 C24.2133006,14.9497328 24.3463487,14.6525506 24.5082764,14.4884695 C24.8057744,14.1885789 25.1115958,14.0638667 25.4162822,13.9831473 C26.544101,13.6840494 27.2410585,13.2488778 28,12.6868115 L28,12.6868115 Z M20.8699452,14.6090175 C20.8772597,14.6088062 20.8846372,14.6084891 20.8920148,14.6090175 C20.9953635,14.6175387 21.0911455,14.6985884 21.0922174,14.8038803 C21.0922679,14.8096271 21.0926714,14.8147134 21.0922174,14.8203941 C21.0820024,14.9571944 20.9744289,15.1893124 20.7674793,15.5403962 C20.3917919,16.1730068 20.1302358,16.4613377 19.8673555,16.4932423 C19.8529157,16.4948276 19.8382867,16.4943679 19.8232163,16.4932423 C19.706752,16.483268 19.5668308,16.4048605 19.5363117,16.2769116 C19.5279883,16.2384014 19.5266011,16.1937481 19.5300061,16.1431498 C19.541167,15.9780119 19.6141228,15.7504517 19.7711952,15.5106714 C19.9548141,15.2303987 20.0102403,15.1622958 20.1889409,14.9888349 C20.571123,14.6144341 20.7360143,14.6121882 20.8699452,14.6090175 Z" id="path22" fill="#FAB20B" fill-rule="nonzero"></path>
        <path d="M23.8824435,10.0000095 C23.8223668,10.0002281 23.7600993,10.0046248 23.6980048,10.0115764 C22.569051,10.1409785 21.8562665,11.2372304 21.6786378,12.0691955 C21.6144469,12.3698127 21.6008268,12.6473766 21.7448466,12.8833257 C21.8146495,12.9987902 21.9918998,13.2752972 22.7474363,13.2053448 C22.7563902,13.2045521 22.7655334,13.2046208 22.7742351,13.203696 L23.0863621,12.5216762 C23.0785431,12.522601 23.070535,12.5243131 23.0627161,12.524979 C22.6279453,12.566858 22.4544783,12.3956429 22.5267405,12.0592899 C22.5401083,11.9964054 22.5580793,11.9376162 22.5771852,11.8743354 C23.2638646,11.7872746 23.5015225,11.7586067 24.279696,11.6877295 C24.2962167,11.6767643 24.3122329,11.6657991 24.3285644,11.6547019 C24.4128072,11.4601033 24.5094089,11.2358459 24.568177,10.9644251 C24.6192524,10.7276834 24.6842631,10.3016274 24.342752,10.1024049 C24.2277854,10.0305702 24.0626731,9.99937258 23.8824435,10.0000095 L23.8824435,10.0000095 Z M21.2798089,10.2972644 C21.2439649,10.2972123 21.2086818,10.3000236 21.177343,10.3038706 C20.8328052,10.3460138 20.4793766,10.5686859 20.1637185,10.8372663 C20.1230474,10.5655152 19.9563905,10.4544104 19.679764,10.4888251 C19.4917312,10.5122087 19.2359131,10.6190199 19.0428989,10.7513945 C18.9485041,10.820224 18.858271,10.8929508 18.767029,10.9726794 C18.8114204,10.8530535 18.8565055,10.7338899 18.901023,10.61433 C18.8930779,10.6018456 18.8914385,10.5759546 18.877377,10.5779997 C18.5097607,10.6319667 18.0407505,10.6864649 18.0245452,10.6853393 C18.0099162,10.6984183 17.9963591,10.7102421 17.9819824,10.7233211 C17.7958412,11.3131278 17.7044101,11.597033 17.4696527,12.2310307 C17.3879953,12.4425395 17.305392,12.6539821 17.2237345,12.8651606 C17.0898037,13.2030989 16.9568817,13.5405749 16.8233292,13.8774563 C16.8296348,13.8900068 16.8345532,13.9029536 16.8406696,13.9154381 C17.1252411,13.8785132 17.4103171,13.8419847 17.6950778,13.8047956 C17.708887,13.7938305 17.7236421,13.7826671 17.7376406,13.771768 C17.8983071,13.3274148 18.0588476,12.8818725 18.2200186,12.4358018 C18.3334563,12.1359113 18.4464526,11.8348978 18.5605208,11.5341485 C18.6882722,11.4219868 18.8354448,11.3188086 18.9814193,11.301304 C19.0492675,11.2931792 19.2401379,11.282214 19.1831984,11.5869927 C19.1666146,11.6749121 19.1282766,11.7943399 18.9404329,12.3086456 C18.8894837,12.4442569 18.8399217,12.5793398 18.7890986,12.714885 C18.6607167,13.0480013 18.5500535,13.3488167 18.4217977,13.6809421 C18.4279772,13.6938229 18.4330847,13.7061752 18.4391381,13.7189239 C18.7187282,13.6822632 18.9997055,13.6463953 19.2793587,13.6099328 C19.2932941,13.5990337 19.3064728,13.5880685 19.3203451,13.5769052 C19.4380705,13.2476201 19.5380773,12.9507681 19.656118,12.6207564 C19.7298935,12.4261578 19.8043626,12.2311629 19.8783903,12.0361679 C19.9933413,11.7231985 20.0165459,11.6517267 20.1022389,11.3591023 C20.2042004,11.2779204 20.3679567,11.1358357 20.560971,11.1130467 C20.7589667,11.0896631 20.7948456,11.2479974 20.7659029,11.4020381 C20.7478689,11.4970255 20.5910487,11.9277714 20.5404778,12.0609386 C20.4840427,12.2063261 20.4279229,12.3499961 20.3718031,12.4952515 C20.2338998,12.8483825 20.1011039,13.1340712 19.9635158,13.4860793 C19.9713348,13.4986959 19.9794059,13.5113785 19.9871618,13.5240611 C20.27022,13.4877307 20.5520801,13.4527875 20.8352644,13.4167214 C20.8491367,13.4055581 20.8637657,13.3930736 20.8778272,13.3820424 C21.0320621,12.9524195 21.18182,12.5893801 21.3365593,12.15837 C21.4086953,11.9657531 21.4802638,11.7733343 21.5525259,11.5803871 C21.6304,11.3849959 21.7102289,11.1833955 21.746423,10.992496 C21.8553918,10.4177498 21.5307166,10.2976355 21.2798089,10.2972644 Z M12.1619176,10.483871 C12.1578164,10.4875067 11.4740402,10.5813685 11.3421902,10.5928621 C11.319427,10.5947116 11.286257,10.6297896 11.2854398,10.6291924 C11.1699844,10.9704335 11.0472144,11.257113 10.7305474,12.1170855 C10.5788978,12.512624 10.4277527,12.9071717 10.2765445,13.3011248 C10.1020687,13.7473937 9.92727757,14.1910864 9.75318007,14.6354396 C9.75822455,14.6461406 9.76389958,14.6577002 9.76894406,14.6684672 C10.0647396,14.6373552 10.3604089,14.6049221 10.6564566,14.5726872 C10.6706442,14.5620523 10.6849579,14.5519459 10.6990194,14.541311 C10.9647372,13.7653607 11.0284237,13.590975 11.2996274,12.8734175 C11.4386658,12.5013946 11.57638,12.130759 11.7157967,11.7570848 C11.8762741,11.344372 12.037319,10.9297435 12.1981748,10.5152472 C12.1952086,10.5015738 12.1684754,10.4962233 12.1619176,10.483871 Z M23.6002681,10.5779997 C23.8207037,10.5750245 23.8784826,10.7436333 23.8398807,10.9214866 C23.8214684,11.0076887 23.7864724,11.0946173 23.7516024,11.1824046 C23.4296387,11.2195276 23.1074858,11.2566507 22.7852699,11.2946984 C22.8587931,11.1473954 22.9506657,10.9644886 23.133654,10.7992845 C23.3177774,10.6285319 23.4627431,10.5911446 23.5545525,10.5813024 C23.5707267,10.5795374 23.5855725,10.5782005 23.6002681,10.5779997 Z M16.3756319,10.8785508 C16.2936465,10.8773512 16.2084393,10.8828945 16.1234081,10.8934132 C14.7216742,11.0709695 14.2007058,12.5083304 14.1024647,13.0451609 C14.0224467,13.483239 14.0764226,13.7930378 14.2711394,13.9914015 C14.4829443,14.211035 14.8474077,14.2312479 15.1255476,14.2027781 C15.5323215,14.1614936 15.8974155,14.0318273 16.2542492,13.7205753 C16.5855452,13.4353489 16.8221311,13.0421885 16.9809691,12.6389215 C17.0605457,12.4373872 17.1242322,12.231361 17.1606786,12.0345166 C17.2271395,11.6765635 17.2240498,11.3498545 16.9998859,11.1097439 C16.8447208,10.945564 16.6215885,10.8821521 16.3756319,10.8785508 Z M13.8202893,11.1642264 C13.7531266,11.1645037 13.6853182,11.1690271 13.6153574,11.1774505 C12.4582175,11.3186765 11.7675026,12.3788623 11.6227892,13.1805741 C11.4665996,14.0455007 11.8735627,14.4995641 12.6316845,14.4273658 C12.829428,14.4082758 13.0520155,14.3506757 13.1834241,14.2919526 C13.2400484,14.2693618 13.2927631,14.2412222 13.3505224,14.2126864 C13.3637011,14.1979561 13.3768167,14.1826313 13.3899324,14.1680992 C13.4770126,13.9575813 13.556274,13.7671442 13.6500382,13.532318 C13.5363483,13.5758483 13.4164159,13.6212943 13.3363348,13.6479145 C13.2139432,13.6885385 13.1671557,13.6956064 13.0352426,13.710667 C12.7623995,13.7384102 12.4518489,13.5925603 12.5544409,13.0269958 C12.6506013,12.4962423 13.0675903,11.9068979 13.5727946,11.8479107 C13.7232461,11.8305381 13.8575553,11.8458022 13.9621652,11.9172686 C14.0151952,11.9535329 14.0446424,11.9881458 14.0551727,12.0130486 C14.06564,12.0100788 14.0903579,12.0067734 14.1150759,11.9998376 C14.2164698,11.7710885 14.3130716,11.5834917 14.4145917,11.3541481 C14.4134566,11.340871 14.4123872,11.3275939 14.4114389,11.314515 C14.3026043,11.247469 14.2288919,11.1946909 14.0220683,11.1741477 C13.9547246,11.1680046 13.8874519,11.1639668 13.8202893,11.1642264 Z M16.0587757,11.5176211 C16.3213922,11.5198859 16.3253647,11.797296 16.2873536,12.0031403 C16.2534295,12.1869059 16.1948505,12.3623485 16.1407485,12.5134167 C15.9413655,13.052427 15.7960215,13.2185558 15.7214264,13.3077303 C15.6074212,13.4417563 15.4487093,13.5630997 15.2879167,13.580208 C15.1110447,13.5988355 14.9827889,13.5193711 14.9584493,13.3374552 C14.9499367,13.2980202 14.9482342,13.2241705 14.9742133,13.0831427 C15.0239014,12.8127127 15.258974,12.12957 15.5164945,11.8165344 C15.5898916,11.7329086 15.7504951,11.551521 16.0036018,11.5209375 C16.0234684,11.5185436 16.0412679,11.5174867 16.0587757,11.5176211 Z M9.29602438,11.6200116 C9.23443839,11.6198089 9.17022775,11.623471 9.10685652,11.6299285 C7.95532864,11.7492242 7.27136068,12.8298871 7.12374668,13.662777 C7.0704644,13.9635923 7.07077968,14.2428736 7.22778901,14.4835127 C7.30402366,14.6006946 7.49577683,14.8859869 8.2666359,14.8269997 C8.80822351,14.7849225 9.08888557,14.6310139 9.23927402,14.5446137 C9.25314633,14.5335165 9.26077611,14.5236742 9.2723784,14.5082834 C9.32212955,14.3971785 9.48487697,13.9944401 9.52144943,13.9121353 C9.4501962,13.942851 9.18107338,14.0258823 9.05956455,14.0591081 C8.83281533,14.1212 8.69510112,14.1430642 8.5551169,14.1614936 C8.11145519,14.1992111 7.93250238,14.007585 7.99234248,13.6710339 C8.00350339,13.6080833 8.01983488,13.5509455 8.03648165,13.4877307 C8.73602444,13.4107764 8.97834848,13.3825709 9.77367326,13.3143358 C9.78994169,13.3034367 9.80621013,13.2924055 9.82254162,13.2813082 C9.90079406,13.0862473 9.98957685,12.8616596 10.0385083,12.5893801 C10.0811341,12.3520439 10.1308852,11.9263182 9.77209686,11.7257086 C9.65121859,11.6532296 9.48078237,11.6206581 9.29602438,11.6200116 Z M7.63449993,11.6959837 C7.40478708,11.7237269 7.10104654,11.7469783 6.87152286,11.7735986 C6.858155,11.7856867 6.84844438,11.7972463 6.83684208,11.8066262 C6.61614623,12.2298418 6.50680721,12.4307816 6.19997692,12.9873627 C5.99977426,13.3441928 5.80058049,13.7000981 5.60094533,14.054154 C5.69067396,13.5652134 5.78071787,13.0753482 5.87050955,12.5860774 C5.91370288,12.3618861 5.95651787,12.1366379 5.99977426,11.9123145 C5.99132476,11.8995658 5.98060525,11.8784942 5.97455188,11.8726813 C5.697484,11.9031328 5.16251727,11.9564393 4.95935098,11.9816724 C4.93803806,11.9972614 4.9346961,12.0034706 4.91836461,12.0163514 C4.75839164,12.3141942 4.5938156,12.6188408 4.43441014,12.914702 C4.20022032,13.3292643 3.96621966,13.7427037 3.73291262,14.1532367 C3.79968888,13.75499 3.86633903,13.3560827 3.93311529,12.9576378 C3.9809117,12.6617766 4.02870812,12.4031045 4.07656759,12.1071773 C4.06773975,12.0964103 4.06055137,12.0870965 4.0513452,12.0774524 C3.6596416,12.1267296 3.60919684,12.1267296 3.23319417,12.1633242 C3.216106,12.182216 3.20734123,12.1917279 3.1922078,12.2079114 C3.15904036,12.5236552 3.12461181,12.8217623 3.09131827,13.1376382 C3.0536108,13.4803325 3.01716446,13.8219039 2.97939394,14.1647964 C2.94055147,14.4926283 2.89994344,14.8375685 2.86116403,15.1655325 C2.87169437,15.1764316 2.88228777,15.1889821 2.892692,15.1985601 C3.25898406,15.1706188 3.52861132,15.1420169 3.82749656,15.1192939 C3.84363888,15.1068755 3.86015954,15.0937305 3.87636492,15.0813121 C4.04579628,14.7665592 4.83323906,13.3676424 5.0775809,12.9361699 C4.99144646,13.4473049 4.76053555,14.8067868 4.73077314,14.993789 C4.74130348,15.0047542 4.75170771,15.0158514 4.76230111,15.0268166 C5.06869001,15.0015175 5.47218507,14.9553449 5.77907841,14.9277338 C5.79749075,14.9128714 5.81577698,14.8982072 5.83425237,14.8831466 C5.83425237,14.8831466 7.3081223,12.3334163 7.65972231,11.7356168 C7.65120976,11.7227361 7.64294943,11.7088645 7.63449993,11.6959837 Z M9.03118937,12.1979985 C9.25707245,12.196978 9.32158172,12.3647925 9.28971879,12.5431415 C9.27420702,12.6294756 9.24286821,12.7177914 9.21089884,12.8057109 C8.8822512,12.8406541 8.55391883,12.8750028 8.22564952,12.9080964 C8.29501108,12.7613218 8.3810194,12.5794058 8.56142249,12.4159853 C8.74302365,12.2468179 8.89032236,12.2087701 8.9838974,12.1996545 C9.00040646,12.1980322 9.0161306,12.1980692 9.03118937,12.1979985 L9.03118937,12.1979985 Z" id="path24" fill="#702090" fill-rule="nonzero"></path>
        <path d="M1.77635684e-15,14.4114079 C1.77635684e-15,14.4114079 1.21626768,17.255943 6.60342154,17.1100932 C9.9740777,17.0188049 13.7502467,15.5830954 15.6746514,15.0029321 C17.36329,14.4939108 19.8763851,14.3845895 19.8763851,14.3845895 C19.8763851,14.3845895 17.2944959,14.7129498 14.6673956,15.7983692 C11.2655267,17.2038915 8.29937455,18.060297 5.96819584,17.9966859 C0.537432475,17.8485902 1.77635684e-15,14.4114079 1.77635684e-15,14.4114079 L1.77635684e-15,14.4114079" id="path40" fill="#FAB20B" fill-rule="nonzero"></path>
    </g>
</svg>