<?xml version="1.0" encoding="UTF-8"?>
<svg width="28px" height="28px" viewBox="0 0 28 28" version="1.1" xmlns="http://www.w3.org/2000/svg" xmlns:xlink="http://www.w3.org/1999/xlink">
    <title>3H</title>
    <g id="3H" stroke="none" stroke-width="1" fill="none" fill-rule="evenodd">
        <g id="Group-13" fill="#F05123">
            <path d="M14,0 C17.8659932,0 21.3659932,1.56700338 23.8994949,4.10050506 C23.9506873,4.15169747 23.9914183,4.20125042 24.0220895,4.24924117 L24.048386,4.27650181 C24.6250712,4.86737274 25.4134282,5.81521834 25.3616164,5.85537756 C25.354456,5.86095054 25.2270205,5.90742581 25.0784077,5.958731 C24.2457708,6.24599276 23.7313679,6.79991315 23.7341375,7.40632087 C23.7361978,7.86056936 23.9089264,8.19670446 24.4061375,8.71411339 C24.7594982,9.08182871 24.8610953,9.23091435 24.962456,9.53050422 C25.06331,9.82864174 25.0435513,10.2103739 24.9141568,10.4631508 C24.6398987,10.9989337 24.1018866,11.2235416 23.0856454,11.2265476 C22.367035,11.2286417 21.7926128,11.1283281 20.759889,10.8203281 C19.6234741,10.4813896 17.9563088,9.79520386 17.6801255,9.55272859 C17.5316478,9.42235464 17.5162461,9.23098191 17.6439855,9.10324246 C17.7847624,8.96246562 17.9292207,8.96114837 18.369047,9.09658866 C19.1562557,9.33899638 19.7306441,9.4451532 19.967918,9.3920579 C20.173544,9.34602171 20.3133076,9.18595899 20.2873679,9.02616647 C20.2768637,8.9613848 20.2425476,8.87995175 20.2111025,8.8452304 C20.1445645,8.77166707 19.9615344,8.71458625 19.7916092,8.71431604 C19.6190157,8.71401206 19.522316,8.63443667 19.522316,8.49264656 C19.522316,8.2437877 19.6720434,8.19930519 20.1978287,8.29191797 C20.6380603,8.36946683 20.7863691,8.36102292 20.8708758,8.25358263 C21.0123281,8.07379493 20.9239035,7.90349819 20.6890953,7.90349819 C20.6120869,7.90349819 20.5308565,7.88525935 20.5085645,7.86296743 C20.4481399,7.80254282 20.4583064,7.58205549 20.5240338,7.52764294 C20.6093172,7.45705187 20.8887431,7.47853317 21.2110977,7.58053559 C21.5504077,7.68787455 21.6751074,7.67679614 21.8001448,7.52821713 C21.8988372,7.41091435 21.906538,7.34103257 21.8386152,7.17847045 C21.7803185,7.03901086 21.7165163,7.005269 21.1773221,6.82902774 C19.3024704,6.2161351 17.6833341,6.13004101 16.3266007,6.57101568 C15.90731,6.70730036 15.1488106,7.09859107 14.8106152,7.35305669 C14.6434258,7.47883715 14.1874548,7.89468275 13.7973462,8.27709047 C12.8299783,9.22540893 12.4182195,9.51800724 11.8214717,9.68117732 C11.4931387,9.77095296 10.8189433,9.76294813 10.4197829,9.66452593 C9.80114837,9.51202895 9.12330519,9.20092159 8.27503016,8.68027021 C8.04282268,8.53773703 7.76427503,8.38804343 7.6560579,8.34758022 C7.36585766,8.23916043 7.03070205,8.19994692 6.7615778,8.24290953 C6.4628661,8.2906345 6.2970953,8.3682509 6.00399035,8.59758745 C5.57797829,8.93091918 5.23944511,9.0559228 4.61037394,9.11215923 C4.46176116,9.12543305 4.34016888,9.15150784 4.34016888,9.17008444 C4.34016888,9.18866104 4.46936068,9.22382147 4.62726176,9.24820748 C6.32408203,9.51030639 6.95284922,9.63375633 7.76069481,9.86346441 C8.75893366,10.1473148 9.26948613,10.4201544 9.81293607,10.960193 C10.3700314,11.5138094 10.6056164,11.9231701 11.1054958,13.2062726 C11.7497998,14.8600965 12.0426007,15.4089843 12.5798022,15.9700651 C13.1427407,16.5579976 13.8101472,16.8791363 14.8443908,17.0596333 C15.3913534,17.1550832 16.2370277,17.1719035 16.3950302,17.0904704 C16.6118022,16.9787407 16.6844198,16.75876 16.5605308,16.5891049 C16.4684584,16.4630205 16.2977226,16.3870929 15.9809409,16.3313969 C15.8307407,16.3049843 15.6731435,16.2656357 15.6307551,16.2438842 C15.5220314,16.1881882 15.4370856,16.0738914 15.4362075,15.9820893 C15.4332014,15.6678408 15.7717008,15.5715127 16.1109771,15.7901086 C16.332579,15.9328782 16.47062,15.9424029 16.6106538,15.8245597 C16.7316381,15.72276 16.7680145,15.5707358 16.7062726,15.4249264 C16.6129505,15.2044053 16.4335682,15.1235464 15.8604294,15.0435995 C15.6568975,15.0151942 15.459006,14.9759807 15.4206707,14.9564584 C15.222813,14.8555368 15.1705621,14.6005645 15.3156285,14.4440145 C15.4298914,14.3207334 15.6250133,14.3243812 15.9536164,14.455971 C16.2634741,14.580029 16.4617708,14.5875947 16.6179493,14.4813028 C16.8957539,14.2922268 16.9535103,14.0247913 16.7668323,13.7920434 C16.6243667,13.6144174 16.4247189,13.5540265 15.7878118,13.4957973 C15.3909481,13.4595223 15.2284536,13.4302726 15.1129409,13.3743402 C14.9402799,13.2907793 14.844222,13.1437877 14.8769505,13.0133462 C14.9697322,12.6437057 15.3838552,12.534813 16.8033776,12.506813 C17.7861134,12.4874258 18.3605356,12.5339011 18.9741375,12.6824801 C20.2477829,12.9908854 20.8106876,13.5583498 20.7019638,14.4242557 C20.6169843,15.101187 20.1488203,15.829187 19.0839083,16.9404391 C18.3932304,17.6611435 18.21807,17.9822147 18.2461037,18.4759469 C18.27076,18.90993 18.477737,19.2479566 18.885544,19.5202557 C19.2361689,19.7544222 19.4779686,19.8099493 20.1302774,19.8062002 C20.7380362,19.8026876 21.0377949,19.762427 21.8778963,19.5715609 C23.1095923,19.2917298 23.3363281,19.3323619 24.0516285,19.9613993 C24.3173414,20.1950929 24.5211435,20.3420507 24.7177177,20.4417226 L24.7177177,20.4417226 L25.0009602,20.5853366 L24.8877105,20.6323522 C24.7946924,20.6709916 24.6355416,20.6740989 23.9975875,20.6497129 C22.6986104,20.6000627 22.1286128,20.6119855 21.6962171,20.697877 C20.9078263,20.8544608 20.2878408,21.0715368 19.1676719,21.5831025 C17.6503016,22.2760772 17.1416405,22.4270205 16.3236622,22.4270205 C15.447117,22.4270205 14.6869626,22.1708661 13.7026731,21.5437539 C12.7645549,20.9460941 12.118123,20.7285115 11.2810615,20.7287141 C10.8981472,20.7287817 10.7721303,20.7428323 10.4944946,20.8163281 C9.43127141,21.0978818 8.64429916,21.929269 8.42293366,23.004854 L8.42293366,23.004854 L8.36311701,23.2955947 L8.19241496,23.2472618 C7.90849698,23.1669433 7.25331725,23.1521158 6.92177563,23.2185187 C6.61337033,23.2802943 6.21937756,23.4362702 5.92059831,23.6148758 C5.6704222,23.764468 5.2333655,24.1771725 5.04368154,24.4429867 L5.04368154,24.4429867 L4.89077925,24.6572593 L4.66613752,24.4574427 C4.34108082,24.1683571 3.60240772,23.404994 3.30599276,23.0518697 C2.57924246,22.1860989 1.83817129,21.047117 1.41283474,20.1422002 L1.41283474,20.1422002 L1.28347407,19.8669964 C0.459155367,18.0781487 1.09452723e-14,16.0926951 1.09452723e-14,14 C1.09452723e-14,6.2680135 6.2680135,0 14,0 Z M22.8685694,19.8477443 C22.8300651,19.8966852 22.7985525,19.9478215 22.7985525,19.9613993 C22.7985525,20.0164873 22.9424367,20.1640531 22.9961399,20.1640531 C23.174509,20.1640531 23.2715464,19.931778 23.1420844,19.8146441 C23.0523764,19.7334475 22.9485838,19.7460121 22.8685694,19.8477443 Z" id="Combined-Shape"></path>
        </g>
    </g>
</svg>