<?xml version="1.0" encoding="UTF-8"?>
<svg width="28px" height="28px" viewBox="0 0 28 28" version="1.1" xmlns="http://www.w3.org/2000/svg" xmlns:xlink="http://www.w3.org/1999/xlink">
    <title>3U</title>
    <g id="3U" stroke="none" stroke-width="1" fill="none" fill-rule="evenodd">
        <path d="M13.0160204,0.0332798569 C16.8197683,-0.225076202 20.4721645,1.02695797 23.3478754,3.57474762 C25.3871698,5.37927128 26.912641,7.88334379 27.5817819,10.5225512 C27.8924571,11.7547144 28,12.6291526 28,14.0004267 C28,15.1332176 27.964166,15.5624947 27.7968707,16.4846278 C27.4344148,18.4560849 26.7334067,20.1771282 25.6141975,21.8306166 C24.2838872,23.7941267 22.4238241,25.4356752 20.3088567,26.5008993 C16.999003,28.1702884 13.1394899,28.460438 9.61853615,27.2958464 C7.95365484,26.747334 6.61138433,26.023947 5.19742616,24.9110199 C4.63582854,24.4658477 3.42898618,23.2495876 2.99085726,22.6851759 C1.36181941,20.5785787 0.465641677,18.4640311 0.0713295594,15.7890462 C0.0235311006,15.4619811 0.00499600922,15.1495278 0.000675747563,14.4086301 L-2.58469461e-14,13.7342324 C0.00368530485,12.5565982 0.038140424,12.2457198 0.242600408,11.2181328 C0.672757496,9.06780141 1.64062479,7.00890519 3.07050879,5.2163082 C3.50466033,4.67177171 4.60794477,3.56680407 5.13768429,3.14548038 C5.95418887,2.49362992 6.87027891,1.89742366 7.69475684,1.48802551 C9.30786925,0.677185253 11.2196986,0.156495684 13.0160189,0.0332798569 Z M12.0123089,19.4656652 C11.9923871,19.4656652 11.669765,20.0698127 11.2953644,20.8130924 C10.9209726,21.5523869 10.4987771,22.3314292 10.3553884,22.542088 C9.69819488,23.5278188 8.90159958,24.3108373 7.85805624,24.9984587 C7.61908042,25.1534756 7.42788967,25.2965666 7.42788967,25.3124654 C7.42788967,25.3601592 8.66660152,25.9643211 9.20032561,26.1749758 C12.5261101,27.4747087 16.1625641,27.3753417 19.4445527,25.8927702 C19.647685,25.801355 19.8149603,25.7139105 19.8149603,25.6980117 C19.8149603,25.6542851 19.464465,25.562879 18.3810902,25.3283616 C16.1267286,24.8354983 15.0353923,24.4817443 14.0476142,23.9133738 C12.892551,23.2495906 12.2990842,22.4864457 12.0640869,21.3695514 C11.988412,21.0078474 11.9645056,20.0539222 12.0202717,19.6723462 C12.0401916,19.5491277 12.0362043,19.4656652 12.0123089,19.4656652 Z M13.2948266,17.2358366 C13.2072032,17.148402 12.4902689,17.8439745 11.3113001,19.1675604 C10.2558087,20.3520142 9.74997479,20.7892394 8.76617484,21.353648 C7.55137014,22.0492175 6.00995602,22.5142632 4.55218066,22.629531 C4.3570224,22.6454298 4.20168534,22.6692756 4.20168534,22.6812026 C4.20168534,22.6931195 4.44065927,22.9475034 4.7353992,23.2376631 L4.7353992,23.2376631 L5.2691233,23.7702711 L5.72317729,23.7464268 C6.93799109,23.6788518 8.12093807,23.1740614 9.24014759,22.2400068 C10.0168325,21.5921342 10.6580911,20.8528355 11.5861281,19.5292495 C11.9525576,19.0125408 12.1477238,18.8138076 12.275179,18.8376518 C12.3338635,18.8479886 12.344683,18.9001155 12.3465249,19.4649497 L12.3468792,20.6779491 L12.4703456,21.0038715 C12.6495815,21.4808397 12.8248384,21.7471465 13.2032164,22.1287226 C13.5895748,22.5102854 13.9878738,22.7646765 14.5693811,23.0071277 C15.6527457,23.4522952 16.7878996,23.5953919 19.2772607,23.5993682 C20.3526606,23.5993682 21.4679042,23.6550075 22.1569558,23.7424535 L22.1569558,23.7424535 L22.6468639,23.8020733 L22.8340685,23.6470594 C23.0770396,23.4443498 23.7182967,22.7805738 23.7182967,22.7289037 C23.7182967,22.6692782 23.431521,22.5738913 23.0810067,22.5222196 C22.6667747,22.4625984 22.0494141,22.4904144 20.750968,22.6255618 C16.4493429,23.0667561 13.9360837,22.5937596 13.0120427,21.1668361 C12.7093218,20.6978212 12.5818769,20.0777677 12.6495811,19.4179665 C12.7093218,18.8336827 12.7889836,18.5514782 13.131526,17.7446071 C13.251006,17.458427 13.3147374,17.255719 13.2948266,17.2358366 Z M14.4140425,15.912264 C14.338368,15.8844351 14.3781968,15.8725163 14.1113391,15.9838051 C13.7210063,16.1427938 13.1554222,16.5124439 12.2234093,17.2199465 C10.6461419,18.4203052 9.1764181,19.1715314 7.76644527,19.4974636 C6.35647092,19.8273578 4.75133262,19.7677407 2.512895,19.3066728 C1.91943813,19.1874317 1.94731127,19.1675608 2.14646475,19.5928517 C2.24205121,19.7955654 2.40933671,20.121492 2.52086645,20.3202237 C2.71602585,20.6699931 2.72398782,20.6779498 2.9111936,20.7256395 C3.59626941,20.90053 5.12174708,20.9680979 6.03385026,20.8607824 C7.04154825,20.7455203 8.04127402,20.4712643 8.79406353,20.1055916 C9.26006559,19.8830058 10.1602196,19.3225663 10.7496994,18.8932975 C11.1639318,18.5912224 11.9844271,17.9194942 12.5460323,17.4186786 C13.2629654,16.7827262 13.6134634,16.5998933 13.7249909,16.8065804 C13.7847316,16.9218454 13.7289781,17.1285336 13.4780451,17.6810167 C12.9164471,18.9211268 13.0239828,20.0857214 13.7608366,20.8170679 C14.0874354,21.1390155 14.3702367,21.3099324 14.8681068,21.4768676 C15.6049534,21.7272741 16.5807826,21.7948449 17.6641559,21.6676528 C18.2894895,21.5961128 19.3887908,21.3854528 20.6314876,21.0953018 C22.7527575,20.5997831 23.5286035,20.4415911 24.1954033,20.3758061 L24.375483,20.3599718 C24.6622633,20.3401008 25.0725096,20.3758766 25.2995373,20.443443 C25.3712288,20.4633166 25.4070802,20.4275453 25.5464728,20.1731629 C25.8412249,19.6445256 26.1200273,18.9847187 26.0722369,18.9370276 C26.0084968,18.8734315 25.3433431,18.8932994 24.9729385,18.9688241 C24.4033683,19.0840888 23.6824437,19.3066762 22.256528,19.8074861 C20.2291927,20.5149902 19.4086997,20.7534665 18.3412686,20.9522097 C16.5051066,21.2900618 15.0473411,21.1429918 14.226847,20.5388356 C13.4501617,19.9625026 13.2669428,18.9092013 13.7249912,17.6690968 C13.836513,17.3630397 14.159136,16.6952904 14.374213,16.3256403 C14.4897288,16.1229235 14.5096396,15.948036 14.4140444,15.9122677 Z M0.963518152,14.7794708 C0.891819489,14.7198507 0.891819489,14.727806 0.915716009,14.9742319 C0.967495153,15.5307 1.06707644,16.2302443 1.09893569,16.2898626 C1.17461249,16.4369314 2.36154443,17.1046776 3.12627101,17.4306129 C4.29726953,17.9314212 5.36471925,18.1619567 6.55164094,18.1659342 C7.49561172,18.1698976 8.21652301,18.0586115 9.18040534,17.7684593 C9.92123805,17.5458704 10.4669197,17.3113647 12.0879854,16.5243744 C13.9560051,15.6181343 14.095408,15.5585161 14.4618382,15.5386409 C14.732682,15.5227504 14.7486139,15.5267165 14.8282772,15.6300587 C14.9796274,15.8208481 14.9517463,15.9321383 14.5414985,16.7787541 C14.0794746,17.7326827 13.959981,18.2653004 14.095408,18.7859824 C14.2746408,19.4855366 14.7366666,19.9227492 15.5133519,20.1294389 C15.8558784,20.2168834 16.7082367,20.2168834 17.2260274,20.1254672 C18.9068535,19.8313341 20.7509683,19.0761331 23.1407569,17.7128072 C25.0008215,16.651565 25.5982539,16.4250039 26.4585855,16.452823 C26.86086,16.4647501 26.8648446,16.4647501 26.884758,16.3653887 C26.9245997,16.1706246 27.0201862,15.5068429 27.0440785,15.2445196 L27.0440785,15.2445196 L27.0719611,14.9782041 L26.9007017,14.9344862 C26.6218963,14.8589687 25.9846048,14.9066702 25.6301207,15.0298788 C25.0048061,15.2484842 24.4352389,15.5664596 22.9416133,16.5323209 C21.1731726,17.6690949 20.3566498,18.1460549 19.2095554,18.710465 C17.9230524,19.3424403 17.277808,19.5411732 16.3696989,19.5729727 C15.5651325,19.6007986 15.142937,19.4895114 14.8123438,19.1596146 C14.5614195,18.9092009 14.4976927,18.7184116 14.5016701,18.2136284 C14.5056546,17.6849881 14.5972637,17.3868832 15.0314069,16.4568035 C15.3540283,15.7771196 15.461564,15.4114529 15.3978459,15.2445192 C15.2903026,14.9623049 14.8123438,14.9424313 14.0396427,15.1928476 C13.7887196,15.2763104 13.0797484,15.5386409 12.466361,15.7771215 C9.87344197,16.7946533 8.57101316,17.1205768 7.11323819,17.1205768 C6.11748903,17.1205768 5.19742388,16.961587 4.10608788,16.5998933 C3.12627138,16.2779431 2.18629582,15.7651948 1.37376558,15.1173206 C1.18655942,14.9662854 1.00334885,14.8152421 0.963518152,14.7794708 Z M15.4894455,1.00311332 C14.9955601,0.947464204 13.7050725,0.899770368 13.3426181,0.927592088 C11.5781559,1.06273535 10.2558079,1.36878714 8.8338855,1.97692007 C5.65546283,3.3402434 3.10237486,5.95560581 1.8118854,9.17115269 C1.62070375,9.65606185 1.35384568,10.4748604 1.29011847,10.7848844 L1.29011847,10.7848844 L1.24232543,11.0273367 L1.48927232,11.5400838 C1.95926048,12.5099067 2.40536047,13.1379174 3.11033835,13.821564 C3.64007672,14.3343025 4.10608788,14.6681783 4.69955423,14.9623026 C5.84266862,15.5346665 6.94595192,15.7691722 8.4754176,15.7691722 C10.1442945,15.7691722 11.7653601,15.4710689 13.9599813,14.7675513 C14.3861626,14.6284321 14.5096404,14.6045822 14.8362392,14.6006047 C15.1588621,14.5966345 15.2425096,14.60856 15.405809,14.692024 C15.6925847,14.8311406 15.8080835,15.0060266 15.8240271,15.3399069 C15.8439379,15.6936552 15.8041163,15.8526465 15.4655512,16.6634867 C15.1070811,17.5220239 15.063265,17.6730599 15.0592804,18.0148898 C15.055305,18.3646663 15.142937,18.5316016 15.3938526,18.6627711 C15.5531735,18.7462367 15.6169102,18.7541848 15.9713916,18.7382784 C16.2979919,18.726354 16.445375,18.6985379 16.7918846,18.5792912 C17.6840675,18.2772248 18.2456658,17.9393637 19.9344634,16.6674642 C20.5159707,16.2302417 21.5634914,15.4432498 22.2684852,14.9146126 C24.5905752,13.1657357 25.8969875,12.3787443 26.7174831,12.2237289 C27.0161963,12.1680855 27.0002727,12.2595002 26.86086,11.5162286 C26.1558847,7.79192676 23.742178,4.46906098 20.3845294,2.58902176 C18.878972,1.74638119 17.2061166,1.20184698 15.4894463,1.00311256 Z M5.90639849,5.57005685 C6.54765863,5.46671427 7.32831976,5.44684102 7.59518618,5.5303077 C7.8540819,5.60582893 8.32008471,5.91983032 8.65864031,6.24575271 C8.82193971,6.40077452 9.26803969,6.89363442 9.6543815,7.34277983 C11.0842738,9.00023016 11.8928176,9.687858 13.1713601,10.3238115 C13.9878757,10.7252627 13.9321105,10.7173089 14.0794765,10.4589495 C14.147189,10.3436874 14.3025253,10.1052061 14.4260031,9.93827391 C15.2026694,8.85714297 16.2024039,8.09399655 17.3773795,7.68460257 C17.9748334,7.47791401 18.3412709,7.41829198 19.297192,7.38252217 C20.8425911,7.32290696 21.7148617,7.06056966 22.7982175,6.33717542 C23.0491418,6.16625743 23.2682121,6.03112099 23.2881244,6.03112099 C23.3478739,6.03112099 23.3199928,6.57565672 23.240331,6.88170737 C23.1965237,7.05262309 23.1128758,7.28315856 23.0531264,7.39445226 C22.9177168,7.65280567 22.4795905,8.09002667 22.2525616,8.20131544 L22.2525616,8.20131544 L22.0812802,8.28478439 L21.7865486,8.13772316 C21.3603799,7.92308462 21.033761,7.85154651 20.4243711,7.82769429 C19.9902089,7.81576724 19.8587854,7.82371798 19.6675962,7.88334076 C19.3290383,7.99065738 18.6638817,8.3364587 18.2934771,8.60276247 C17.8632999,8.90881237 17.1065455,9.64016984 16.4055344,10.4271571 C16.0908761,10.7809077 15.744365,11.1346503 15.6328349,11.2181302 C15.5213059,11.2976202 15.4137702,11.400962 15.3898737,11.4407081 C15.318175,11.5758502 15.4974181,11.6950875 16.0152,11.8580509 C16.7401062,12.0806376 16.8277197,12.1680836 16.5011209,12.3350158 L16.5011209,12.3350158 L16.2979915,12.4383622 L16.0829217,12.3310455 C15.8997013,12.2356545 15.8359657,12.2237285 15.6408067,12.2436082 C15.5173202,12.2555224 15.282338,12.3230974 15.1230175,12.390671 C14.5614191,12.6291515 13.9918493,12.6847953 13.3625399,12.5655528 C12.9841506,12.4940086 12.5300879,12.3389906 12.3269585,12.2118102 C12.2512829,12.1641088 12.0919627,12.092565 11.976464,12.0567922 C11.7334956,11.973324 11.7255317,11.9057561 11.9525587,11.8699791 C12.0362058,11.8580521 12.1995037,11.7904786 12.3070481,11.7189431 C12.5659427,11.55598 12.8367865,11.4764806 13.1514376,11.4764806 C13.2988123,11.4764806 13.4023706,11.4605825 13.4023706,11.4367367 C13.4023706,11.2578778 12.9961085,10.8484744 12.6814487,10.7014109 C12.5579807,10.6457652 12.0481539,10.4947333 11.5462974,10.3675347 C10.0845458,9.98993952 9.1525322,9.64811225 8.64270462,9.30232077 C8.30017088,9.07178 7.88992459,8.61866509 7.56730241,8.12579913 C6.67909689,6.75452015 6.5954494,6.6432291 6.28478477,6.34512162 C6.05376333,6.12651244 5.87851472,5.99932636 5.65148925,5.88803191 C5.48021802,5.8045694 5.32886441,5.73302032 5.32089372,5.72507525 C5.26912368,5.6853261 5.42046705,5.6455743 5.90639697,5.5700595 Z" id="Combined-Shape" fill="#D7000F" fill-rule="nonzero"></path>
    </g>
</svg>