<?xml version="1.0" encoding="UTF-8"?>
<svg width="28px" height="28px" viewBox="0 0 28 28" version="1.1" xmlns="http://www.w3.org/2000/svg" xmlns:xlink="http://www.w3.org/1999/xlink">
    <title>3V</title>
    <g id="3V" stroke="none" stroke-width="1" fill="none" fill-rule="evenodd">
        <path d="M28,15.9492891 L27.7417867,17.2203791 C27.7417867,17.2203791 27.6691643,17.7919431 27.2818444,18.0052133 C26.9025937,18.2184834 26.2731988,18.2099526 26.2731988,18.2099526 L19.5193084,18.2099526 L19.9227666,16.2137441 C19.2530259,17.7663507 17.5100865,18.5 14.4195965,18.5 C12.918732,18.5 11.3694524,18.3635071 10.514121,17.6725118 L10.6190202,18.2014218 L7.27838617,18.2014218 L7.14121037,17.2374408 L3.86512968,17.2374408 L3.33256484,18.2014218 L0,18.2014218 L4.39769452,10.9161137 C4.39769452,10.9161137 4.83342939,10.1654028 5.17233429,9.98625592 C5.55965418,9.78151659 6.26974063,9.79004739 6.26974063,9.79004739 L8.94063401,9.79004739 L10.1268012,15.6677725 L13.7256484,15.6677725 C13.6772334,15.9492891 13.7417867,16.1369668 13.9354467,16.2649289 C14.145245,16.3843602 14.4760807,16.4440758 14.9682997,16.4440758 C15.9527378,16.4440758 16.2755043,16.1625592 16.356196,15.7616114 C16.404611,15.514218 16.307781,15.2668246 15.9043228,15.1985782 L12.426513,14.635545 C10.9417867,14.3881517 10.4899135,13.4412322 10.7319885,12.263981 C11.1677233,10.0886256 13.2979827,9.5 15.8881844,9.5 C19.4305476,9.5 20.6974063,10.4810427 20.4472622,12.2554502 L16.7919308,12.2554502 C16.8645533,11.914218 16.7112392,11.7009479 16.4449568,11.5815166 C16.1948127,11.4535545 15.8478386,11.4023697 15.5008646,11.4023697 C14.5648415,11.4023697 14.1936599,11.649763 14.1210375,11.9995261 C14.0726225,12.2383886 14.145245,12.3919431 14.443804,12.4345972 L18.0829971,13.0232227 C19.3659942,13.2279621 20.1487032,13.8080569 20.2051873,14.8317536 L21.221902,9.79004739 L24.3688761,9.79004739 L23.1342939,15.9407583 L28,15.9407583 L28,15.9492891 Z M8.52103746,13.9530806 C8.52103746,13.9530806 7.48818444,13.4327014 6.22939481,13.5094787 C4.32507205,13.62891 3.67146974,14.8829384 3.67146974,14.8829384 C3.67146974,14.8829384 4.47838617,14.285782 5.95504323,14.3625592 C6.97982709,14.4137441 7.56887608,14.8146919 7.56887608,14.8146919 C7.56887608,14.8146919 7.70605187,14.3625592 7.9481268,14.1748815 C8.19020173,13.9872038 8.52103746,13.9530806 8.52103746,13.9530806" id="Shape" fill="#00539B" fill-rule="nonzero"></path>
    </g>
</svg>