<?xml version="1.0" encoding="UTF-8"?>
<svg width="28px" height="28px" viewBox="0 0 28 28" version="1.1" xmlns="http://www.w3.org/2000/svg" xmlns:xlink="http://www.w3.org/1999/xlink">
    <title>4I</title>
    <g id="4I" stroke="none" stroke-width="1" fill="none" fill-rule="evenodd">
        <path d="M16.4208399,4.57491381 C17.4927954,4.39727932 18.136145,4.53555996 18.3115296,4.98962815 C18.4871661,5.48324154 18.1751894,6.15448943 17.33687,6.96401794 C13.7890637,10.5376922 10.8846071,13.8545777 8.62324817,16.8952209 C8.27241605,17.3489702 8.19439038,17.7246496 8.40881928,18.0008282 C8.58420384,18.217689 8.85713624,18.2971621 9.22755349,18.2377167 C12.5999122,17.4284433 16.1088631,17.0726641 19.7541543,17.1321094 L19.7541543,17.1321094 L23.2044757,17.408288 C24.0427951,17.5664688 24.3935642,17.7439119 24.257287,17.922248 L24.257287,17.922248 L20.5338442,18.1783989 C17.5512989,18.4946329 14.8806673,19.1852707 12.5024274,20.232198 L12.5024274,20.232198 L6.67386598,22.9958972 C5.15334159,23.6478828 4.06173795,23.6671451 3.39899208,23.0553426 C2.97007133,22.680301 2.93102702,21.9103177 3.26239994,20.7645274 C3.59377287,19.7183655 4.13963766,18.5934959 4.93891269,17.3489702 C6.34249305,15.0790757 7.97989852,12.8870598 9.85144396,10.7548719 C11.1963319,9.15565122 11.8787259,8.26696851 11.8787259,8.06968899 C11.8787259,7.16136125 10.7089706,7.06281717 8.36977495,7.7734189 L8.36977495,7.7734189 L4.4515514,9.2937405 C3.61342098,9.62936444 3.1454559,9.72809988 3.08701537,9.59001059 C3.02857484,9.47137499 3.16491508,9.33328571 3.49647694,9.17529625 C6.32303387,7.83280049 7.86301746,7.1220074 8.07744634,7.02327196 C10.8261036,5.89776453 13.59422,5.0685272 16.4208399,4.57491381 Z M4.97795702,10.2809673 C5.46531831,10.103269 5.95261662,10.0637238 6.43997792,10.1229778 C6.92733921,10.1821681 7.14176811,10.3797027 7.08332758,10.6757815 C6.98577974,11.0114054 6.26440443,12.3342561 4.8998684,14.6245611 C3.39899211,17.0726641 2.26828117,18.7507838 1.46900614,19.6589202 C1.02068916,20.1921426 0.650271909,20.3703511 0.338358169,20.2121703 C-0.0124739537,20.0740172 -0.090562589,19.7183656 0.104470087,19.1658808 C0.162910619,18.8696745 0.981644834,16.5203069 2.56060977,12.1565579 C2.69720191,11.7221985 2.87258648,11.3865746 3.12605969,11.1298497 C3.41838829,10.8337709 4.04227876,10.5376922 4.97795702,10.2809673 Z M7.66798478,5.08842737 C8.03840203,5.20680784 8.23343472,5.42405131 8.2137866,5.72013005 C8.19439039,5.99649997 7.96050231,6.29277006 7.53164453,6.5888488 C7.08332757,6.88492755 6.59596628,7.0824622 6.05016447,7.20090645 L6.05016447,7.20090645 L4.62693599,7.24045166 C4.23712253,7.1220074 4.06173796,6.92447275 4.08113417,6.64810282 C4.12017848,6.35202409 4.35406656,6.03604519 4.76352813,5.73996644 C5.17273781,5.44369635 5.6600991,5.22651667 6.22554903,5.12771745 L6.22554903,5.12771745 Z" id="Combined-Shape" fill="#F38F1F" fill-rule="nonzero"></path>
        <path d="M17.5124435,9.74780871 C18.2140447,9.74780871 18.7404504,9.98488856 19.0718233,10.438893 L19.0718233,10.438893 L19.1108676,10.1229778 C19.1108676,9.96498839 19.2083525,9.88608934 19.383737,9.88608934 L19.383737,9.88608934 L20.2221194,9.88608934 C20.3778558,9.88608934 20.4559445,9.98488855 20.4754037,10.162523 L20.4754037,10.162523 L20.4754037,14.4865356 C20.4559445,14.585271 20.4947999,14.7032688 20.5728885,14.8221595 L20.5728885,14.8221595 L20.7092288,14.9007396 L20.8067766,14.9007396 C20.9433058,14.8814773 21.0017463,14.960185 21.0212055,15.0983381 L21.0212055,15.0983381 L21.0212055,15.6908783 C21.0212055,15.8490591 20.9433058,15.9277668 20.7873174,15.9277668 L20.7873174,15.9277668 L20.2024713,15.9277668 C19.6372103,15.9076115 19.2862522,15.6514606 19.1693081,15.1577834 C18.7794947,15.769586 18.1751894,16.0657923 17.3759143,16.0657923 C16.5765763,16.0657923 15.9528748,15.7503236 15.5045578,15.1376281 C15.0950963,14.585271 14.8806674,13.8742228 14.8806674,13.0253404 C14.8806674,11.9789234 15.1535998,11.1693949 15.6994016,10.577046 C16.1867628,10.0241786 16.7910052,9.74780871 17.5124435,9.74780871 Z M23.0874687,9.88608934 C23.3019606,9.88608934 23.3994454,9.98488855 23.3994454,10.2020682 L23.3994454,10.2020682 L23.3994454,15.6121705 C23.3994454,15.8290313 23.3019606,15.9277667 23.0874687,15.9277667 L23.0874687,15.9277667 L22.2299421,15.9277667 C22.0155132,15.9277667 21.8983802,15.8290313 21.8983802,15.6121705 L21.8983802,15.6121705 L21.8983802,10.2020682 C21.8983802,9.98488856 22.0155132,9.88608934 22.2299421,9.88608934 L22.2299421,9.88608934 Z M27.5127017,9.74780868 L27.8634708,9.78735389 L28,9.94534334 L28,10.0637238 L27.8634708,10.91267 L27.6881492,11.0904958 L27.6295827,11.0904958 L27.317732,11.0509506 C26.869352,11.0509506 26.4598904,11.2484853 26.1285175,11.6432994 L26.1285175,11.6432994 L26.1285175,15.6114051 C26.1285175,15.8290313 26.0312846,15.9277667 25.8167927,15.9277667 L25.8167927,15.9277667 L24.9200328,15.9277667 C24.7445853,15.9277667 24.6471004,15.8290313 24.6471004,15.6114051 L24.6471004,15.6114051 L24.6471004,10.2018769 C24.6471004,9.98488854 24.7445853,9.88608931 24.9590771,9.88608931 L24.9590771,9.88608931 L25.7387041,9.88608931 C25.9531959,9.88608931 26.0506808,9.96498836 26.0506808,10.1229778 L26.0506808,10.1229778 L26.0506808,10.5376922 C26.4598905,10.0045336 26.9473147,9.74780868 27.5127017,9.74780868 L27.5127017,9.74780868 Z M17.7853759,10.9522152 C16.8690939,10.9522152 16.4208399,11.6037542 16.4208399,12.926605 C16.4208399,14.1902017 16.8495087,14.8221595 17.7072873,14.8221595 C18.3115296,14.8221595 18.7600355,14.5458533 19.0133198,13.9927308 L19.0133198,13.9927308 L19.0133198,11.6234631 C18.7404504,11.1693949 18.3311777,10.9522152 17.7853759,10.9522152 Z M22.6392147,7.8129641 C23.1850795,7.8129641 23.457886,8.06968899 23.457886,8.56330238 C23.457886,9.09620585 23.1850795,9.37263956 22.6392147,9.37263956 C22.0934129,9.37263956 21.8204805,9.11610601 21.8204805,8.60284759 C21.8204805,8.06968899 22.0934129,7.8129641 22.6392147,7.8129641 Z" id="Combined-Shape" fill="#197FB0" fill-rule="nonzero"></path>
    </g>
</svg>