<?xml version="1.0" encoding="UTF-8"?>
<svg width="28px" height="28px" viewBox="0 0 28 28" version="1.1" xmlns="http://www.w3.org/2000/svg" xmlns:xlink="http://www.w3.org/1999/xlink">
    <title>4N</title>
    <g id="4N" stroke="none" stroke-width="1" fill="none" fill-rule="evenodd">
        <path d="M11.8375191,16.5365008 L11.8685454,16.5725075 C12.9336166,15.8164255 14.1447648,15.3143345 15.3251888,15.2041791 L15.4493537,14.9285229 C15.9903534,13.7208148 16.5687149,12.344701 17.1448645,10.9238419 L17.2777648,10.5952133 C17.9828339,8.86043861 18.5805173,7.33430597 19.0708152,6.01681535 L19.5373872,4.78788001 C20.2513651,2.89671278 20.823402,1.33367969 21.116344,0.52713414 L21.2679829,0.111621771 C21.0325697,0.778737692 20.1596126,3.26536469 19.1751246,6.22978995 L17.4227207,11.706953 C17.0401834,12.9622209 16.6913446,14.1643876 16.4122372,15.2209636 C17.4554407,15.3544618 18.307957,15.8353219 18.8499504,16.6147467 L19.0731162,16.4747101 C19.8229381,16.0006149 20.4763189,15.5519403 20.8730671,15.2732368 L21.2713721,14.9893083 L21.0307872,15.1717069 C20.6543842,15.4599241 19.8925148,16.0552247 19.0635756,16.7710658 L18.9845468,16.8395038 C19.5182305,17.76332 19.5944397,18.9682493 19.1986325,20.2225318 L19.2913721,20.2333227 C20.4774748,20.3684961 21.5,20.3772608 21.5,20.3772608 L21.3305041,20.3793539 C20.9778767,20.3858215 20.1133718,20.4122355 19.1019768,20.5199849 C18.5992361,21.8681941 17.6187932,23.0915753 16.4291848,23.9952722 L16.467112,24.0834267 C16.8028126,24.8563863 17.153419,25.474155 17.2785124,25.6875298 L17.3259833,25.7674233 L17.2091173,25.6053976 C17.0217392,25.3499904 16.624889,24.8259 16.1297949,24.2680347 L16.0985436,24.2329234 C14.9101379,25.0509193 13.5502887,25.5545664 12.2586669,25.5545664 L12.2504665,25.5540106 L12.2063842,25.6470474 C11.6161638,26.8983082 11.2254413,27.9511213 11.2073711,28 L11.2897117,27.7401338 C11.4177837,27.3287332 11.6727137,26.479636 11.9011284,25.5365591 C10.7539435,25.4524142 9.81647083,24.9645512 9.23183515,24.1341059 L8.97293751,24.2931336 C7.72288124,25.0666415 6.71977141,25.7677633 6.71977141,25.7677633 L7.01519484,25.5425783 C7.42764523,25.2243316 8.22094437,24.5987413 9.06553051,23.8605514 C8.56071231,22.9611894 8.48308161,21.8002778 8.84652448,20.5893461 L8.66139369,20.5651759 C7.49694844,20.4177785 6.5,20.3771496 6.5,20.3771496 L6.72724354,20.3732064 C7.11943796,20.3636501 7.97694494,20.3312161 8.96428259,20.2219761 C9.45751086,18.895998 10.4130245,17.6911799 11.5747514,16.7907064 L11.5167145,16.6548574 C11.2127269,15.9533988 10.8983668,15.3809109 10.7531319,15.1267991 L10.6716775,14.9869613 C10.6990958,15.0296943 11.1683408,15.7571053 11.8375191,16.5365008 Z M11.0732134,23.0883517 C10.6596933,23.3016598 10.2304283,23.5426457 9.81001983,23.7890782 C10.2961411,24.4446753 11.0838193,24.8219382 12.0536563,24.8686237 C12.1368633,24.481579 12.2100111,24.0924224 12.2630405,23.7233851 C11.7861037,23.6262348 11.380784,23.4091475 11.0732134,23.0883517 Z M15.0117139,23.1534891 C14.4315611,23.48729 13.807126,23.7071563 13.1946089,23.7651796 C12.9830379,24.1212118 12.7813074,24.4930281 12.5920416,24.8615097 C13.6254046,24.7871464 14.6899291,24.379538 15.6419439,23.74406 C15.4386827,23.5366432 15.227221,23.3368962 15.0117139,23.1534891 Z M9.51119631,20.6899421 C9.18022713,21.7135763 9.20023617,22.6601794 9.57319153,23.4085917 C9.93750911,23.0764581 10.2986559,22.7317638 10.6324679,22.3887369 C10.462227,21.9474482 10.4249424,21.4367982 10.5245503,20.8983594 C10.2030936,20.8174379 9.85889436,20.7485213 9.51119631,20.6899421 Z M18.3413054,20.6139116 C17.9717395,20.6660436 17.5953946,20.7306252 17.2264848,20.8087677 C16.9242718,21.4470246 16.4627518,22.0299258 15.9137607,22.5092298 C15.9866898,22.7936776 16.0751451,23.0775696 16.1744249,23.3532361 C17.1009636,22.6161617 17.8755212,21.6646677 18.3413054,20.6139116 Z M12.3519331,22.5060063 C12.0866767,22.6047127 11.7963816,22.7323196 11.4918725,22.878823 C11.7162361,23.0731234 11.995816,23.2077331 12.3176007,23.2788728 C12.3455915,22.9993159 12.3592588,22.7377662 12.3519331,22.5060063 Z M14.0596991,22.4988923 C13.8699959,22.7334311 13.6828075,22.9938693 13.5010861,23.2723146 C13.8868341,23.1957283 14.2721448,23.0524484 14.642148,22.858148 C14.4462125,22.7143123 14.2514797,22.5943752 14.0596991,22.4988923 Z M10.9448494,21.0156288 C10.879902,21.3797753 10.8909453,21.7211349 10.9722935,22.027925 C11.2082471,21.7684873 11.4215675,21.514385 11.6029609,21.2707314 C11.4122737,21.176249 11.1892221,21.0916594 10.9448494,21.0156288 Z M16.6594527,20.9434886 C16.3349345,21.0291898 16.0246304,21.1290077 15.7394743,21.2424978 C15.7384902,21.4927096 15.7609047,21.752592 15.8069365,22.0175875 C16.1407485,21.6984591 16.4320276,21.3348683 16.6594527,20.9434886 Z M14.63023,18.7420472 C13.7475362,18.7420472 12.7653439,19.4698956 12.4366708,20.3675902 C12.1077791,21.264729 12.5566157,21.9920217 13.4394189,21.9920217 C14.3221127,21.9920217 15.304305,21.264729 15.6335248,20.3675902 C15.9623072,19.4698956 15.5132519,18.7420472 14.63023,18.7420472 Z M18.4761204,17.2912412 C18.1143176,17.618484 17.7536082,17.9599547 17.4197962,18.3013143 C17.6147476,18.776839 17.6514856,19.3379537 17.5256364,19.9285246 C17.8466557,20.0093349 18.1880121,20.0761396 18.5312272,20.1303836 C18.8975129,19.0568405 18.8779412,18.0656639 18.4761204,17.2912412 Z M11.8272152,17.4356326 C10.9293233,18.1667046 10.1803511,19.098524 9.72637548,20.1254928 C10.0974721,20.0716934 10.475129,20.0055556 10.8437108,19.9257457 C11.1326938,19.3146109 11.5691751,18.7544966 12.0874421,18.2871975 C12.0162624,18.0006377 11.926495,17.714078 11.8272152,17.4356326 Z M17.0850001,18.6545675 C16.8165729,18.9454624 16.575043,19.2325779 16.3746246,19.5061324 C16.5840088,19.6217345 16.8318803,19.7222194 17.1056652,19.8090321 C17.1930271,19.3905304 17.1869041,18.9992618 17.0850001,18.6545675 Z M12.1914234,18.7870653 C11.8886637,19.0882976 11.6235166,19.4253221 11.4124923,19.7873567 C11.7094571,19.7075468 11.9927545,19.6158433 12.2548401,19.5121349 C12.2546214,19.278263 12.2329723,19.0356098 12.1914234,18.7870653 Z M15.8855512,17.4904324 C15.8340525,17.7677662 15.797096,18.0141987 15.7747908,18.2263952 C16.0346896,18.131357 16.3113173,18.0108641 16.5981135,17.8746982 C16.40185,17.6994054 16.1613042,17.5696865 15.8855512,17.4904324 Z M14.1774572,17.5642399 C13.8846473,17.6549431 13.5951176,17.7792153 13.3158658,17.9355004 C13.4757195,18.0473232 13.6374318,18.1401383 13.7991442,18.2215044 L13.87128,18.1023551 C13.968576,17.9395732 14.0703925,17.7609413 14.1774572,17.5642399 Z M16.2433085,15.8794508 C16.1370309,16.3045108 16.0466076,16.6968909 15.971929,17.0534788 C16.3871986,17.1668578 16.7440811,17.373163 17.018194,17.6672814 C17.4341196,17.4535287 17.8601044,17.2125428 18.2754833,16.9655545 C17.8278494,16.3495289 17.1198793,15.9712655 16.2433085,15.8794508 Z M14.9906114,15.9315829 C14.0732571,16.0873122 13.1503266,16.4900299 12.3185847,17.066484 C12.5180191,17.2715666 12.7274033,17.4692017 12.9428011,17.6488295 C13.4241114,17.3569343 13.9380048,17.1430704 14.4535382,17.0350269 C14.6248724,16.6985582 14.8046258,16.3288539 14.9906114,15.9315829 Z" id="Combined-Shape" fill="#0062AC"></path>
    </g>
</svg>