<?xml version="1.0" encoding="UTF-8"?>
<svg width="28px" height="28px" viewBox="0 0 28 28" version="1.1" xmlns="http://www.w3.org/2000/svg" xmlns:xlink="http://www.w3.org/1999/xlink">
    <title>4O</title>
    <g id="4O" stroke="none" stroke-width="1" fill="none" fill-rule="evenodd">
        <path d="M26.2763478,12.2769228 L18.1595071,12.2769228 L23.8990761,6.5373537 C24.5710761,5.86420499 24.5710761,4.77349733 23.8990761,4.10034862 C23.2270761,3.42777428 22.1352198,3.42777428 21.4632198,4.10034862 L15.7230764,9.83991772 L15.7230764,1.72250252 C15.7230764,0.771364085 14.9517123,-1.77635684e-15 14.0005739,-1.77635684e-15 C13.0482867,-1.77635684e-15 12.2769227,0.771364085 12.2769227,1.72250252 L12.2769227,9.83876901 L6.53792798,4.09919991 C5.86477929,3.42662556 4.77292291,3.42662556 4.10092294,4.09919991 C3.4283486,4.77234861 3.4283486,5.86420499 4.10092294,6.53620498 L9.83991761,12.2757741 L1.72365122,12.2757741 C0.771364076,12.2757741 -2.11386464e-13,13.0471382 -2.11386464e-13,13.9982766 C-2.11386464e-13,14.9505638 0.771364076,15.7219278 1.72365122,15.7219278 L9.83991761,15.7219278 L4.09977422,21.4609226 C3.42777424,22.1340713 3.42777424,23.224779 4.09977422,23.8979277 C4.43577421,24.234502 4.87688188,24.4022148 5.31798956,24.4022148 C5.75909724,24.4022148 6.20020492,24.234502 6.53735362,23.8979277 L12.2769227,18.1583586 L12.2769227,26.2757738 C12.2769227,27.2269122 13.0482867,28 14.0005739,28 C14.9517123,28 15.7230764,27.2269122 15.7230764,26.2757738 L15.7230764,18.1595073 L21.4620711,23.8990764 C21.7986454,24.2356507 22.2397531,24.4033635 22.6808608,24.4033635 C23.1219684,24.4033635 23.5625018,24.2356507 23.8996505,23.8990764 C24.5716504,23.2259277 24.5716504,22.1346456 23.8996505,21.4620713 L18.1606558,15.7225022 L26.2763478,15.7236509 C27.228635,15.7236509 28,14.9505638 28,14 C28.0005734,13.0482869 27.228635,12.2769228 26.2763478,12.2769228 Z" id="Path" fill="#7D98CF" fill-rule="nonzero"></path>
        <path d="M23.942153,12.2091484 L18.4495583,12.2091484 L21.842871,8.81641005 C22.514871,8.14326135 22.514871,7.05312804 21.842871,6.37997934 C21.1697224,5.70683064 20.0790147,5.70683064 19.4064404,6.37997934 L19.4052916,6.37997934 L13.5755483,12.2085741 L4.03659473,12.2085741 C3.08430759,12.2085741 2.31409223,12.9799382 2.31409223,13.9310766 C2.31409223,14.882215 3.08430759,15.6547278 4.03659473,15.6547278 L13.3268508,15.6547278 L19.5569224,21.8865226 C19.8934968,22.2225226 20.3346044,22.3908097 20.7762865,22.3908097 C21.2173941,22.3908097 21.6573531,22.2230969 21.9933531,21.8865226 C22.6665018,21.2122252 22.6665018,20.1226662 21.9945018,19.4500919 L18.2002866,15.6564509 L23.942153,15.6564509 C24.8944402,15.6564509 25.6658042,14.8833638 25.6658042,13.9327997 C25.6658042,12.9805125 24.8944402,12.2091484 23.942153,12.2091484 Z" id="Path" fill="#121586" fill-rule="nonzero"></path>
    </g>
</svg>