<?xml version="1.0" encoding="UTF-8"?>
<svg width="28px" height="28px" viewBox="0 0 28 28" version="1.1" xmlns="http://www.w3.org/2000/svg" xmlns:xlink="http://www.w3.org/1999/xlink">
    <title>4U</title>
    <g id="4U" stroke="none" stroke-width="1" fill="none" fill-rule="evenodd">
        <path d="M9.25043023,11.3630743 C9.07000255,11.5861742 8.87877081,11.8612585 8.58706137,12.3702727 C8.32128167,12.8316345 5.85039473,17.1171013 5.35881032,17.9715954 C4.86830631,18.8260895 4.22978677,19.8679442 1.73945254,19.8679442 C1.21437556,19.8679442 0.612589809,19.8679442 -7.28306304e-14,19.8072957 C0.471056714,19.2798703 0.920505321,18.5585863 1.43477825,17.6672699 C2.83822474,15.2304996 4.86182388,11.7161352 4.99795495,11.4811223 C5.08762859,11.325169 5.38798126,10.7858305 5.5781326,10.5204933 C6.28903929,10.0775426 8.21972357,10.0591314 9.25043023,11.3630743" id="path64" fill="#FAB20B" fill-rule="nonzero" transform="translate(4.625215, 15.058282) scale(-1, 1) rotate(-180.000000) translate(-4.625215, -15.058282) "></path>
        <path d="M18.9170326,19.8676193 C16.4266984,19.8676193 15.7892592,18.8246816 15.2976748,17.9701875 C14.8060904,17.1156934 10.1787145,9.08301538 9.91401517,8.62165353 C9.62122533,8.11263929 9.431074,7.83755499 9.25064631,7.61445513 C10.281353,6.31051226 12.2109569,6.32892341 12.922944,6.77187411 C13.1120149,7.03721132 13.413448,7.57546681 13.5031216,7.73250312 C13.6381723,7.96751608 17.8182604,15.2290916 19.2217069,17.666945 C19.7359798,18.5571784 20.1854284,19.2784624 20.6554047,19.8058878 C20.0449757,19.8676193 19.44319,19.8676193 18.9170326,19.8676193" id="path68" fill="#760B39" fill-rule="nonzero" transform="translate(14.953026, 13.183810) scale(-1, 1) rotate(-180.000000) translate(-14.953026, -13.183810) "></path>
        <path d="M9.25043023,21.5 C8.21972357,20.1960571 6.28903929,20.2144683 5.5781326,20.657419 C6.40032103,19.5040144 7.7378628,18.7534891 9.25043023,18.7534891 C10.7619173,18.7534891 12.1005394,19.5040144 12.9227279,20.657419 C12.2118212,20.2144683 10.2811369,20.1960571 9.25043023,21.5" id="path72" fill="#A90650" fill-rule="nonzero" transform="translate(9.250430, 20.126745) scale(-1, 1) rotate(-180.000000) translate(-9.250430, -20.126745) "></path>
        <path d="M16.5945933,11.3630743 C16.4141657,11.5861742 16.2229339,11.8612585 15.9301441,12.3702727 C15.6654448,12.8316345 13.1934774,17.1171013 12.7029734,17.9715954 C12.2135498,18.8260895 11.5750303,19.8679442 9.08361565,19.8679442 C8.55853867,19.8679442 7.95675292,19.8679442 7.34416311,19.8072957 C7.81413942,19.2798703 8.26466843,18.5585863 8.77894136,17.6672699 C10.1823879,15.2304996 12.205987,11.7161352 12.3421181,11.4811223 C12.4317917,11.325169 12.7321444,10.7858305 12.9222957,10.5204933 C13.6332024,10.0775426 15.5638867,10.0591314 16.5945933,11.3630743" id="path76" fill="#FAB20B" fill-rule="nonzero" transform="translate(11.969378, 15.058282) scale(-1, 1) rotate(-180.000000) translate(-11.969378, -15.058282) "></path>
        <path d="M26.2605475,19.8676193 C23.7712936,19.8676193 23.1327741,18.8246816 22.6411897,17.9701875 C22.1506857,17.1156934 17.5222293,9.08301538 17.2586104,8.62165353 C16.966901,8.11263929 16.7756693,7.83755499 16.5952416,7.61445513 C17.6259482,6.31051226 19.5544717,6.32892341 20.2664588,6.77187411 C20.4555297,7.03721132 20.7569628,7.57546681 20.8477169,7.73250312 C20.9827675,7.96751608 25.1628557,15.2290916 26.5663022,17.666945 C27.0794947,18.5571784 27.5300237,19.2784624 28,19.8058878 C27.3884906,19.8676193 26.7877852,19.8676193 26.2605475,19.8676193" id="path80" fill="#760B39" fill-rule="nonzero" transform="translate(22.297621, 13.183810) scale(-1, 1) rotate(-180.000000) translate(-22.297621, -13.183810) "></path>
        <path d="M16.5945933,21.5 C15.5638867,20.1960571 13.6332024,20.2144683 12.9222957,20.657419 C13.7444841,19.5040144 15.0820259,18.7534891 16.5945933,18.7534891 C18.105,18.7534891 19.4447025,19.5040144 20.266891,20.657419 C19.5549039,20.2144683 17.6253,20.1960571 16.5945933,21.5" id="path84" fill="#A90650" fill-rule="nonzero" transform="translate(16.594593, 20.126745) scale(-1, 1) rotate(-180.000000) translate(-16.594593, -20.126745) "></path>
        <path d="M14.9725809,16.0363277 C14.2724782,17.2492978 13.3800634,18.7969178 12.9208912,19.5950954 C12.1970196,18.3377219 11.4439771,17.03053 10.8713623,16.0363277 C11.6481737,14.6879815 12.2683264,13.6103875 12.3417939,13.4847585 C12.4314676,13.3277221 12.7318203,12.7883836 12.923052,12.5241294 C13.1121229,12.7883836 13.413556,13.3277221 13.5032296,13.4847585 C13.5529283,13.5713992 14.1590357,14.624084 14.9725809,16.0363277" id="path88" fill="#A90650" fill-rule="nonzero" transform="translate(12.921972, 16.059612) scale(-1, 1) rotate(-180.000000) translate(-12.921972, -16.059612) "></path>
    </g>
</svg>