<?xml version="1.0" encoding="UTF-8"?>
<svg width="28px" height="28px" viewBox="0 0 28 28" version="1.1" xmlns="http://www.w3.org/2000/svg" xmlns:xlink="http://www.w3.org/1999/xlink">
    <title>5J</title>
    <g id="5J" stroke="none" stroke-width="1" fill="none" fill-rule="evenodd">
        <path d="M14.8555036,13.1756115 C13.9345806,14.5688934 12.864177,15.8729274 11.5924991,16.9536211 C10.9362267,17.5050134 10.2272865,17.9976436 9.46021488,18.3780513 C8.98401858,18.6126582 8.48618693,18.8088266 7.96715701,18.9206073 C7.47194782,19.0180287 6.9607853,19.0480726 6.4598941,18.9789276 C6.05931227,18.9329782 5.66419391,18.8194303 5.30797548,18.6272383 C4.97186263,18.4467545 4.67683509,18.1880684 4.45632932,17.8743756 C4.15824224,17.4530995 4.002424,16.9458892 3.93292862,16.4371326 C4.62329306,16.684994 5.35714673,16.7996465 6.08881502,16.7963329 C6.8148013,16.7996465 7.53838365,16.6962605 8.24382727,16.5274849 C9.08782457,16.3271192 9.90647134,16.0284483 10.699112,15.6756544 C11.4843223,15.3233024 12.2448377,14.9159436 12.9795656,14.4663909 C13.6253481,14.0680895 14.2564885,13.6434997 14.8555036,13.1756115 Z M0.0457769257,10.070495 C0.738545289,10.5321977 1.45141923,10.9684957 2.21149758,11.3082559 C3.16760534,11.7430076 4.18140737,12.0432248 5.21444082,12.2210577 C7.02350597,12.5325413 8.87649743,12.4927775 10.6925558,12.2623679 C12.630996,12.0164946 14.5357812,11.5479437 16.4016665,10.9696003 C15.7543542,11.4602423 15.0720757,11.9020631 14.3782146,12.3217928 C12.7809137,13.2765675 11.0878927,14.0797977 9.31007864,14.6254464 C8.003653,15.0222015 6.64587072,15.2702839 5.27934688,15.2711675 C4.30116669,15.2652029 3.3162118,15.1366331 2.38763995,14.8185221 C1.90379479,14.6420147 1.45994225,14.3517384 1.1109356,13.9691216 C0.701830751,13.5235454 0.415326232,12.9714903 0.246614189,12.390275 C0.148053138,12.0810005 0.0890476311,11.7606804 0.0459954647,11.4392558 C-0.00623533621,10.9855058 -0.0237184495,10.5235822 0.0457769257,10.070495 Z M3.80683167,6 C4.46638211,6.84454045 5.26776432,7.57398657 6.16311826,8.15520183 C7.4881197,9.02050785 9.01373987,9.54251911 10.5684257,9.78066052 C11.6510675,9.94744787 12.7531593,9.98168898 13.8445426,9.892883 C14.0812203,9.87233834 14.3176794,9.84649182 14.5521716,9.80761159 C13.751445,10.2313177 12.9013286,10.5593697 12.0245505,10.7811637 C10.4167597,11.1863134 8.72504997,11.2377855 7.0938755,10.9479511 C6.69591613,10.8754924 6.30014216,10.7866865 5.9157322,10.6590003 C5.45833025,10.5001657 5.01316648,10.2907426 4.62853799,9.99118813 C4.24500219,9.69781912 3.92571684,9.31188866 3.73318405,8.86454511 C3.51508221,8.36970582 3.45083177,7.81477891 3.5015328,7.27818755 C3.53606195,6.83990133 3.64008647,6.40603331 3.80683167,6 Z" id="Combined-Shape" fill="#06A7E0" fill-rule="nonzero"></path>
        <path d="M25.4279793,10.743388 C26.0086372,10.792872 26.5899507,10.9011181 27.1301789,11.1273303 C27.4044453,11.246401 27.6749964,11.4098747 27.8426158,11.6667935 C27.9772357,11.8700311 28.0200694,12.1245198 27.9916593,12.3648703 C27.9427066,12.7386507 27.7704979,13.0870264 27.5451843,13.38393 C27.5080327,13.1705306 27.4188688,12.9571311 27.2560573,12.8108884 C27.0587167,12.6233355 26.7835762,12.5499932 26.5204553,12.5252513 C26.0796623,12.4876965 25.6375581,12.5608179 25.2094404,12.6622157 C24.6939071,12.7832746 24.1947642,12.9637584 23.6997736,13.1515323 C22.8514055,13.4877579 22.0242357,13.8796529 21.2228535,14.3179392 C20.0099625,15.1037174 18.8206737,15.9270505 17.6606692,16.7908101 C16.8223539,17.4164284 16.0019588,18.0676722 15.2128148,18.7558081 C14.6787056,19.2225918 14.160987,19.7090365 13.6723339,20.2244204 C13.3117447,20.6105718 12.9577117,21.0093151 12.6764521,21.4597514 C12.9120371,20.6669039 13.1838995,19.8828929 13.5331247,19.133344 C13.7555973,18.6778267 13.9922749,18.2156822 14.3506787,17.8525055 C13.7947157,18.258097 13.285083,18.7231134 12.7861586,19.1969662 C12.5798579,19.4088192 12.3648156,19.6118359 12.1628856,19.8281072 C11.2253537,20.809833 10.3610323,21.8613665 9.54959729,22.9515593 C9.29193991,23.2952958 9.04302409,23.6456597 8.79957174,24 C9.03799769,23.3162823 9.28931745,22.6360992 9.58915284,21.9771235 C10.2677162,20.4833274 11.210056,19.1240657 12.288327,17.8982339 C12.6696774,17.4606104 13.0696036,17.0395552 13.4824236,16.6319756 C14.0106322,16.1039997 14.5598205,15.5981149 15.1249621,15.1107866 C15.775771,14.550116 16.4385995,14.0020373 17.1357387,13.5007916 C18.196308,12.740418 19.3351143,12.0863023 20.5429789,11.5963231 C22.0873934,10.9749021 23.7607459,10.6137136 25.4279793,10.743388 Z M22.7840955,8.11411249 C23.2762451,8.1737583 23.7712358,8.26676158 24.2257967,8.47353371 C24.4404019,8.57360612 24.6475768,8.70151324 24.8071102,8.88045066 C24.9629285,9.04458708 25.061271,9.26284655 25.0809395,9.48972153 C25.1045417,9.71306194 25.0536221,9.9352978 24.9852195,10.1464881 C24.6976222,9.87410562 24.3208611,9.72101472 23.9441001,9.62381414 C23.648854,9.55113462 23.3461776,9.51446349 23.0430641,9.50253433 C22.6840047,9.9459015 22.1114327,10.2202722 21.5410461,10.1608473 C21.2381512,10.1312453 20.9512096,9.98699083 20.7361673,9.77094046 C20.6747579,9.71151557 20.6166265,9.64855611 20.5582766,9.58603846 C21.05436,9.78353236 21.6441965,9.73802482 22.0895788,9.43537757 C21.3139842,9.32205054 20.529211,9.28847216 19.746186,9.27897301 C18.600168,9.27499662 17.4539313,9.34524613 16.3166548,9.48817516 C15.9479797,9.53103177 15.5814899,9.5911194 15.214126,9.64347517 C15.9567212,9.23059364 16.755481,8.92993459 17.5642935,8.67875947 C18.4476278,8.41764338 19.350412,8.20888305 20.2687126,8.12537892 C21.1041868,8.04032842 21.9484027,8.02751562 22.7840955,8.11411249 Z" id="Combined-Shape" fill="#039482" fill-rule="nonzero"></path>
    </g>
</svg>