<?xml version="1.0" encoding="UTF-8"?>
<svg width="28px" height="28px" viewBox="0 0 28 28" version="1.1" xmlns="http://www.w3.org/2000/svg" xmlns:xlink="http://www.w3.org/1999/xlink">
    <title>5N</title>
    <g id="5N" stroke="none" stroke-width="1" fill="none" fill-rule="evenodd">
        <path d="M8.47968937,10.6238887 L6.82909126,16.8135355 C6.69154142,17.2707634 7.00120137,17.7279207 7.48228021,17.7983179 L13.0886459,18.5016531 C13.2261957,18.5016531 13.1916355,18.7127031 13.0886459,18.7127031 L7.20718053,19.3457119 C6.58855184,19.4160383 6.03835247,19.8731956 5.86624237,20.5062751 L4.00897389,27.5399807 C3.93985337,27.8564851 4.28407358,28.1378616 4.55917326,27.9268115 L18.5222103,18.8884839 C18.7288806,18.747831 18.7634409,18.4664545 18.5567705,18.2906737 L9.064449,10.4480372 C8.85846984,10.2721857 8.54880989,10.3777108 8.47968937,10.6238887 Z" id="Path" fill="#FF585D" fill-rule="nonzero"></path>
        <path d="M19.5203106,17.3409485 L21.1709087,11.1512311 C21.3084586,10.6940738 20.9987986,10.2368458 20.5177198,10.1665194 L14.9113541,9.46318413 C14.7738043,9.46318413 14.8083645,9.25213409 14.9113541,9.25213409 L20.7928195,8.65432389 C21.4114482,8.58392676 21.9616475,8.12676947 22.1337576,7.4937607 L23.9910261,0.460024713 C24.0601466,0.143507607 23.7159264,-0.137840616 23.4408267,0.0731705514 L9.47709853,9.11148118 C9.27111937,9.25213409 9.23655911,9.53351059 9.44322947,9.70936206 L18.935551,17.5871265 C19.1415302,17.6925808 19.4511901,17.6222544 19.5203106,17.3409485 Z" id="Path" fill="#330072" fill-rule="nonzero"></path>
    </g>
</svg>