<?xml version="1.0" encoding="UTF-8"?>
<svg width="28px" height="28px" viewBox="0 0 28 28" version="1.1" xmlns="http://www.w3.org/2000/svg" xmlns:xlink="http://www.w3.org/1999/xlink">
    <title>5O</title>
    <g id="5O" stroke="none" stroke-width="1" fill="none" fill-rule="evenodd">
        <path d="M29,15.9492891 L28.7417867,17.2203791 C28.7417867,17.2203791 28.6691643,17.7919431 28.2818444,18.0052133 C27.9025937,18.2184834 27.2731988,18.2099526 27.2731988,18.2099526 L20.5193084,18.2099526 L20.9227666,16.2137441 C20.2530259,17.7663507 18.5100865,18.5 15.4195965,18.5 C13.918732,18.5 12.3694524,18.3635071 11.514121,17.6725118 L11.6190202,18.2014218 L8.27838617,18.2014218 L8.14121037,17.2374408 L4.86512968,17.2374408 L4.33256484,18.2014218 L1,18.2014218 L5.39769452,10.9161137 C5.39769452,10.9161137 5.83342939,10.1654028 6.17233429,9.98625592 C6.55965418,9.78151659 7.26974063,9.79004739 7.26974063,9.79004739 L9.94063401,9.79004739 L11.1268012,15.6677725 L14.7256484,15.6677725 C14.6772334,15.9492891 14.7417867,16.1369668 14.9354467,16.2649289 C15.145245,16.3843602 15.4760807,16.4440758 15.9682997,16.4440758 C16.9527378,16.4440758 17.2755043,16.1625592 17.356196,15.7616114 C17.404611,15.514218 17.307781,15.2668246 16.9043228,15.1985782 L13.426513,14.635545 C11.9417867,14.3881517 11.4899135,13.4412322 11.7319885,12.263981 C12.1677233,10.0886256 14.2979827,9.5 16.8881844,9.5 C20.4305476,9.5 21.6974063,10.4810427 21.4472622,12.2554502 L17.7919308,12.2554502 C17.8645533,11.914218 17.7112392,11.7009479 17.4449568,11.5815166 C17.1948127,11.4535545 16.8478386,11.4023697 16.5008646,11.4023697 C15.5648415,11.4023697 15.1936599,11.649763 15.1210375,11.9995261 C15.0726225,12.2383886 15.145245,12.3919431 15.443804,12.4345972 L19.0829971,13.0232227 C20.3659942,13.2279621 21.1487032,13.8080569 21.2051873,14.8317536 L22.221902,9.79004739 L25.3688761,9.79004739 L24.1342939,15.9407583 L29,15.9407583 L29,15.9492891 Z M9.52103746,13.9530806 C9.52103746,13.9530806 8.48818444,13.4327014 7.22939481,13.5094787 C5.32507205,13.62891 4.67146974,14.8829384 4.67146974,14.8829384 C4.67146974,14.8829384 5.47838617,14.285782 6.95504323,14.3625592 C7.97982709,14.4137441 8.56887608,14.8146919 8.56887608,14.8146919 C8.56887608,14.8146919 8.70605187,14.3625592 8.9481268,14.1748815 C9.19020173,13.9872038 9.52103746,13.9530806 9.52103746,13.9530806" id="Shape" fill="#00539B" fill-rule="nonzero"></path>
    </g>
</svg>