<?xml version="1.0" encoding="UTF-8"?>
<svg width="28px" height="28px" viewBox="0 0 28 28" version="1.1" xmlns="http://www.w3.org/2000/svg" xmlns:xlink="http://www.w3.org/1999/xlink">
    <title>5X</title>
    <g id="5X" stroke="none" stroke-width="1" fill="none" fill-rule="evenodd">
        <polygon id="Path" fill="#301506" transform="translate(13.866051, 14.765774) scale(-1, 1) rotate(-180.000000) translate(-13.866051, -14.765774) " points="2.62351075 21.1801106 2.7273648 9.62387503 5.37567547 6.41660927 13.3209002 2.29300647 23.0833807 6.9766281 25.1085904 11.7111605 24.9008823 27.0349103 17.5270627 27.238542 9.84178049 26.0167401 2.83152915 22.0458697"></polygon>
        <path d="M13.9990399,-5.32907052e-15 C9.37112648,-5.32907052e-15 5.33428958,0.878627466 2,2.61085747 L2,16.4595141 C2,19.3735175 3.11681606,21.8102566 5.22914166,23.5078191 C7.1904196,25.0850782 13.255979,27.6843186 13.999274,28 C14.7041632,27.6992417 20.8416166,25.0598237 22.7717482,23.5078191 C24.8829029,21.811175 26,19.3737012 26,16.4595141 L26,2.61085747 C22.6652421,0.87839788 18.6284052,-5.32907052e-15 13.9986183,-5.32907052e-15 L13.9990399,-5.32907052e-15 Z M20.8516864,2.68170786 C22.2317704,2.6993975 23.5868905,2.78297846 24.8968134,2.9023267 L24.8968134,16.4594085 C24.8968134,19.064664 23.9325437,21.1691455 22.0720111,22.6715595 C20.4098778,24.0134925 15.3978116,26.2149972 13.999274,26.8193607 C12.5820019,26.206824 7.55738348,23.9775392 5.92513187,22.6721105 C4.0756058,21.1954102 3.10206256,19.0409707 3.10206256,16.4599595 L3.10206256,8.53830749 C8.41706722,3.75969445 14.8711353,2.60533362 20.851218,2.68201551 L20.8516864,2.68170786 Z M14.3119076,8.99441777 C13.1732189,8.99441777 12.2544743,9.24395072 11.4980651,9.72262017 L11.4980651,23.0611356 L13.5865041,23.0611356 L13.5865041,18.7518892 C13.7949264,18.8121556 14.0974433,18.8684778 14.5259972,18.8684778 C16.8426235,18.8684778 18.1741381,16.8211174 18.1741381,13.8318095 C18.1741381,10.8483332 16.8030936,8.99441777 14.3119544,8.99441777 L14.3119076,8.99441777 Z M21.4479149,8.99441777 C20.0744349,9.03344747 18.6381003,10.0088686 18.6468189,11.6624423 C18.6503715,12.7512332 18.9582464,13.5654846 20.6794686,14.5555993 C21.5980258,15.0841992 21.9681278,15.4325278 21.9839585,16.074819 C22.0015222,16.7888329 21.498311,17.2193535 20.7325344,17.2164607 C20.0662853,17.211295 19.2698309,16.8488009 18.7365038,16.3832914 L18.7365038,18.2675076 C19.3904348,18.6497691 20.2064201,18.902452 21.0307423,18.902452 C23.0938896,18.902452 24.0151633,17.4736894 24.0549743,16.1644495 C24.0941999,14.9711508 23.757853,14.0682331 22.0131845,13.0632412 C21.2345279,12.6155476 20.6196116,12.3213096 20.640126,11.5763014 C20.660617,10.8490633 21.2764465,10.5935795 21.8677572,10.5987681 C22.5972355,10.6050817 23.302874,11.0011551 23.7384533,11.4391005 L23.7384533,9.65980531 C23.3713724,9.38257963 22.5941911,8.95993388 21.4478681,8.99437185 L21.4479149,8.99441777 Z M4.16848256,9.20158283 L4.16848256,15.6355144 C4.16848256,17.8045557 5.21509072,18.9026219 7.28057984,18.9026219 C8.55865392,18.9026219 9.62910185,18.6126266 10.4264931,18.0811155 L10.4264931,9.20158283 L8.34264404,9.20158283 L8.34264404,16.9161937 C8.11548707,17.0688687 7.77854538,17.1664062 7.35467516,17.1664062 C6.39803989,17.1664062 6.25509493,16.3063753 6.25509493,15.7261184 L6.25509493,9.20172977 L4.16848256,9.20172977 L4.16848256,9.20158283 Z M14.3259585,10.642789 C15.5372438,10.642789 16.0393309,11.5908894 16.0393309,13.8839073 C16.0393309,16.1212276 15.4651156,17.2021666 14.2637597,17.2021666 C13.9809844,17.2021666 13.7352099,17.1335065 13.5858952,17.0784058 L13.5858952,10.7909504 C13.755092,10.7082992 14.0425884,10.6429727 14.3259585,10.6429727 L14.3259585,10.642789 Z" id="Shape" fill="#FAB80A" fill-rule="nonzero" transform="translate(14.000000, 14.000000) rotate(-360.000000) translate(-14.000000, -14.000000) "></path>
    </g>
</svg>