<?xml version="1.0" encoding="UTF-8"?>
<svg width="28px" height="28px" viewBox="0 0 28 28" version="1.1" xmlns="http://www.w3.org/2000/svg" xmlns:xlink="http://www.w3.org/1999/xlink">
    <title>5Y</title>
    <g id="5Y" stroke="none" stroke-width="1" fill="none" fill-rule="evenodd">
        <path d="M23.5524112,3.53025889 C23.6128833,3.55317559 23.6278046,3.63571132 23.6270461,3.94314845 C23.6260008,4.35020668 23.5262597,5.41601442 23.4348685,5.99577462 C23.4047706,6.18669741 23.3982812,6.35862757 23.4204444,6.37784153 C23.4426106,6.39705579 23.6435128,6.48371379 23.8668918,6.57041499 C25.145705,7.06676663 25.9153038,7.54306615 26.2190753,8.02616817 C26.3105144,8.17158256 26.3249205,8.17857721 26.379941,8.10426932 C26.4131776,8.05937953 26.5293212,7.77516243 26.6380378,7.47267674 C27.0636718,6.28842351 27.3581169,5.12425575 27.4807141,4.14092638 C27.5196994,3.82823568 27.5690204,3.55502341 27.5903206,3.53378806 C27.6116177,3.51255271 27.7125086,3.50193555 27.8145223,3.51019437 L28,3.52521043 L27.9934748,3.97349052 C27.978782,4.98134685 27.5769343,6.63051328 26.9873855,8.10238611 C25.9221426,10.7618723 24.2856318,12.9765488 22.25522,14.5063885 C21.9704655,14.7209388 21.770289,14.9126643 21.6903026,15.0474566 C21.556223,15.2734039 21.482811,15.3147229 21.1225617,15.3670113 C20.9039564,15.3987411 20.8497347,15.4372063 20.3790516,15.8944812 C19.8130069,16.4444006 19.2672649,16.8704439 18.9505207,17.0096865 C18.7900134,17.0802478 18.6856285,17.0947491 18.5068357,17.071325 L18.2730404,17.0406974 L17.8327658,17.4850683 C17.5136131,17.8071885 17.3399135,17.9456466 17.2013648,17.9883497 C16.9695479,18.0598032 16.8430028,18.1621099 16.8430028,18.2780743 C16.8430028,18.4446974 16.6535787,18.8548825 16.508245,19.0029609 C16.3731186,19.1406434 16.3662052,19.1631739 16.4201939,19.2898676 C16.5126603,19.5068632 16.4874032,20.4318891 16.371839,21.0607804 C16.3164452,21.3622414 16.1922279,21.8718651 16.0958047,22.1932775 C15.9157636,22.7934051 15.9065851,22.8568278 15.9616713,23.1198591 C15.9838658,23.2258361 15.9699584,23.309259 15.9166998,23.3895262 C15.7771865,23.599799 15.8158523,23.7163238 16.078675,23.8776693 C16.3621916,24.0517214 16.4539472,24.2084896 16.3738831,24.3820316 L16.3194554,24.5 L15.6075574,24.5 C14.8083773,24.5 14.7546603,24.4800383 14.8073545,24.2026443 C14.8237391,24.1163873 14.9333262,23.8878868 15.0508823,23.6948624 C15.2984343,23.2883844 15.3259087,23.131566 15.1495752,23.131566 C14.999977,23.131566 14.9929815,23.1179849 14.9282658,22.7020238 C14.86193,22.2756342 14.8199061,22.1818227 14.7526834,22.3100397 C14.6213407,22.5605368 14.3511686,23.4485915 14.3021402,23.7909743 C14.2674612,24.0331708 14.2083882,24.2355546 14.1453927,24.3280227 C14.0466804,24.4729115 14.0346305,24.4767263 13.6336951,24.4899579 C13.2247891,24.5034506 13.2225583,24.5028902 13.0961566,24.3545361 C12.9172563,24.1445522 12.8466202,23.9954239 12.7257372,23.5724407 C12.5691375,23.0244861 12.5803766,22.1049604 12.7514064,21.4723074 C12.8835942,20.9833282 13.071237,20.5219875 13.159957,20.4678356 C13.2808444,20.3940522 13.0779548,19.842305 12.8455361,19.6127752 C12.7840785,19.5520805 12.7337929,19.4713547 12.7337929,19.4333821 C12.7337929,19.395411 12.6533481,19.3254336 12.555024,19.277879 C12.4181238,19.2116663 12.3580578,19.1421696 12.2985563,18.981156 C12.2402627,18.8234071 12.1864606,18.7598575 12.083127,18.7266936 C11.8649472,18.6566719 11.7016447,18.5232334 11.5561154,18.2960601 C11.4187582,18.0816421 11.3781812,18.054912 10.8101774,17.8046758 C10.6195154,17.7206808 10.3819976,17.5641087 10.2302999,17.4224241 C10.0016516,17.2088673 9.93990728,17.1771206 9.66959334,17.1341284 C9.26192971,17.069293 8.76476218,16.8023171 8.46062335,16.4849204 C7.79982326,15.7953122 7.78324753,15.7816515 7.56691186,15.7483503 C7.23539716,15.6973195 7.20860662,15.6830869 7.07844059,15.4888377 C6.99976221,15.371428 6.77839007,15.1896839 6.46736173,14.9871529 C3.82308031,13.2652801 1.79678668,10.4788504 0.654357039,6.99347741 C0.275301143,5.83703436 0.0191768457,4.62351273 0.00700299046,3.92629783 L-2.13162821e-14,3.52520512 L0.209564116,3.51038179 C0.324823783,3.5022287 0.437277774,3.51348436 0.459461874,3.53539317 C0.481647467,3.55730212 0.522509692,3.84001881 0.550270801,4.16365226 C0.633315218,5.13176341 0.814283541,5.98660552 1.15434069,7.0170711 C1.38774484,7.72435327 1.59834223,8.2204681 1.66486766,8.219765 C1.69526721,8.21944059 1.76827152,8.14578994 1.82710111,8.05608998 C2.08674184,7.66021147 2.95045096,7.0949897 3.93770986,6.67487915 C4.2685586,6.53409236 4.55943356,6.39978057 4.58410828,6.37640866 C4.61198884,6.34999655 4.59772603,6.11494885 4.54643697,5.75533886 C4.50105042,5.43712237 4.4390538,4.81958808 4.4086647,4.38304054 C4.36117427,3.70083875 4.36310943,3.58325783 4.42243178,3.54618713 C4.50462658,3.49483164 5.13709218,3.48807293 5.21434457,3.53772437 C5.24607155,3.55811507 5.29059056,3.86388972 5.322437,4.28020302 C5.41573505,5.49973427 5.48207979,6.00970861 5.5508181,6.03575781 C5.58559863,6.04893784 5.92051329,5.97435347 6.2950792,5.87001436 C7.3932377,5.56410979 8.27666718,5.37068313 9.58020144,5.15073583 C9.90869993,5.09530791 10.1882223,5.03941107 10.2013622,5.02652036 C10.2145022,5.01362936 10.225253,4.67056046 10.225253,4.26414398 L10.225253,3.52520497 L11.2764482,3.52520497 L11.3142061,4.04426613 C11.3349761,4.32974977 11.3633584,4.63513822 11.3772823,4.72290734 L11.4025976,4.88248723 L11.7934451,4.85194491 C13.4897933,4.71938716 14.7616573,4.72554437 16.1446763,4.87300935 C16.473342,4.90805394 16.6321919,4.90836184 16.6669635,4.87402683 C16.6944469,4.84688509 16.734225,4.55375076 16.7553639,4.22261702 C16.7764983,3.89148328 16.8044685,3.59307192 16.8175233,3.5594807 C16.8353697,3.5135488 16.9688237,3.50172866 17.355783,3.51180774 L17.8703087,3.52521043 L17.8703087,5.07656877 L18.2286707,5.13916519 C19.3786364,5.34003345 20.6832218,5.61357662 21.4614646,5.81701084 C22.4028815,6.06309951 22.4605823,6.07372286 22.5014161,6.0084754 C22.5359861,5.9532352 22.6596165,4.78574824 22.6994231,4.13864634 C22.7169828,3.85316271 22.7529624,3.59304228 22.7793766,3.56060096 C22.8293323,3.49925295 23.4104088,3.47644522 23.5524112,3.53025889 Z M13.4480949,20.614146 C13.3237478,20.7369496 13.2410617,21.3757694 13.2383053,22.235 C13.2354832,23.1188077 13.2720586,23.4512296 13.3575055,23.31785 C13.3815785,23.2802726 13.4016034,23.1838924 13.4020051,23.1036694 C13.4027517,22.953907 13.4475365,22.7972317 13.6617026,22.1950898 C13.8400623,21.6936147 13.8331623,21.2740025 13.6399141,20.8705961 C13.5452349,20.6729429 13.4786707,20.5839519 13.4480949,20.614146 Z M15.1706544,19.4475206 C15.1706544,19.5278217 15.1363711,19.8003288 15.0944666,20.0530925 C15.0063394,20.5847114 15.0268228,20.9472048 15.1697659,21.3856271 C15.224767,21.554322 15.2828217,21.8462939 15.2987807,22.0344536 C15.3147353,22.2226133 15.3433953,22.3765621 15.3624646,22.3765621 C15.381534,22.3765621 15.410524,22.2756991 15.4268832,22.152422 C15.4432484,22.029145 15.4706944,21.5457177 15.4878824,21.0781394 C15.5160347,20.3122057 15.5105488,20.2117143 15.4325169,20.0636108 C15.3848787,19.9731983 15.3333462,19.7735205 15.3180039,19.6198799 C15.2882553,19.3219668 15.1706544,19.1844082 15.1706544,19.4475206 Z M9.26761124,16.5644396 C9.38188093,16.6635228 9.50344179,16.7168386 9.66180942,16.7373342 C9.95268438,16.7749794 10.0630554,16.8199372 10.4163854,17.0447069 C10.5740646,17.145014 10.8428361,17.2858624 11.0136554,17.3577022 C11.1844746,17.4295435 11.427444,17.5501707 11.5535934,17.6257634 C11.7705831,17.7557971 11.9096559,17.7688134 11.7869199,17.6476023 C11.755823,17.6168936 11.7303793,17.5535446 11.7303793,17.5068291 C11.7303793,17.379404 12.0546924,17.3929836 12.2608566,17.5290396 C12.397076,17.6189404 12.4475916,17.707051 12.5746667,18.0764191 C12.807396,18.7528885 12.9591219,18.8685167 13.7049777,18.9378232 C13.9699372,18.9624432 14.1957485,18.9914988 14.2067756,19.0023903 C14.2178102,19.0132876 14.2147492,19.0532686 14.1999966,19.0912485 C14.1827952,19.1355236 14.0735097,19.1709347 13.8954606,19.1899291 C13.3881499,19.2440501 13.3190951,19.3862213 13.7458907,19.4978872 C14.1107361,19.5933473 14.1171194,19.6596913 13.7730441,19.7801223 C13.5413228,19.8612271 13.6264502,19.9228228 13.9702686,19.9228228 C14.1941344,19.9228228 14.3166375,19.9016991 14.354576,19.8565555 C14.3852026,19.8201048 14.3972719,19.7391666 14.3813935,19.6766905 C14.3581865,19.5853741 14.3775709,19.5518298 14.4802058,19.5056466 C14.6088861,19.4477433 14.6191457,19.3729513 14.527753,19.1589049 C14.5005847,19.0952742 14.5329642,19.0687726 14.6883663,19.0274482 C14.8346169,18.988557 14.8904691,18.9463096 14.9130399,18.8575103 C14.9763177,18.6085172 14.5796542,18.4324125 14.4428406,18.6487592 C14.3667827,18.7690325 14.3004231,18.7680209 14.1875629,18.6448663 C14.1380328,18.5908175 14.025646,18.5169427 13.9378085,18.4806999 C13.7358208,18.3973537 13.7807653,18.3184505 14.0302181,18.3184505 C14.2652494,18.3184505 14.2692655,18.2109697 14.0667332,18.1309372 L13.9916061,18.1054614 C13.7365853,18.0311885 13.4924034,17.880938 13.4094486,17.7472488 C13.3737229,17.6896699 13.3331085,17.5185891 13.3191951,17.3670689 C13.3052787,17.2155503 13.2700084,17.0894567 13.2408094,17.0868629 C13.2116089,17.0842676 13.0909603,17.0765702 12.9727009,17.0697604 C12.8544414,17.0629477 12.6286017,17.041361 12.4708373,17.02179 C12.2190805,16.9905608 12.1466436,17.001731 11.8787039,17.113102 C11.5259039,17.2597471 11.4400822,17.2499852 11.1098591,17.0256564 C10.9372242,16.9083811 10.770017,16.848111 10.4435791,16.7854948 C10.1639552,16.731856 9.87583216,16.6364387 9.63960591,16.5192394 C9.11311392,16.2580346 8.93868272,16.2792288 9.26761124,16.5644396 Z M16.5003072,16.9100444 L16.1031705,16.9736073 L16.0994376,17.3157158 C16.0961376,17.6162463 16.1062614,17.6578243 16.1825342,17.6578243 C16.2302875,17.6578243 16.3572476,17.5794106 16.4646652,17.4835716 C16.6767169,17.2943768 16.963181,16.9114011 16.9226144,16.8713375 C16.9087727,16.8576679 16.7187363,16.875083 16.5003072,16.9100444 Z M13.2474451,13.9206628 C12.541669,13.9433057 12.4948849,13.950524 12.4948849,14.0367749 C12.4948849,14.184403 12.6258841,14.6602325 12.8597989,15.3622713 C13.0114189,15.817317 13.0624019,16.0309296 13.0276019,16.0652995 C12.8680218,16.222894 12.3757609,15.5318636 12.0371566,14.6749258 C11.911161,14.3560646 11.7852192,14.0694611 11.7572804,14.0380301 C11.6591086,13.927573 9.98528636,14.2095907 9.47269882,14.4229536 C9.37414927,14.4639746 9.29351782,14.5271084 9.29351782,14.5632511 C9.29351782,14.6387934 10.0488643,15.354079 10.3766072,15.5888981 C10.6667669,15.7967886 10.8703106,15.9868188 10.8703106,16.0498244 C10.8703106,16.28262 9.87076283,15.7729939 9.24095359,15.2190849 C8.72628904,14.7664475 8.78431979,14.7950082 8.64342529,14.9249929 C8.47821146,15.077417 8.37438653,15.2833895 8.40879973,15.3904595 C8.45709647,15.5407475 9.3886032,15.9285981 10.3947941,16.2173664 C11.2642519,16.4668937 11.4767173,16.4945243 11.8567378,16.4074876 C12.2417768,16.3193015 12.5296042,16.3502583 12.7470045,16.5032385 C12.9398854,16.6389618 12.9641151,16.6403228 13.1399365,16.5253278 C13.2187761,16.4737638 13.3332085,16.4314348 13.3942256,16.431264 C13.4552472,16.4310723 13.5950084,16.3791554 13.704806,16.3158469 C14.1017039,16.0870047 14.6403458,16.115126 14.9825487,16.3825557 C15.1078559,16.4804805 15.1873929,16.5090803 15.2838117,16.4908786 C15.3584226,16.4767932 15.4953975,16.5020326 15.6020087,16.5495094 C15.7880747,16.6323688 15.7901488,16.6321609 15.9458018,16.5151274 C16.3596666,16.2039402 16.7238669,16.1201761 16.9894325,16.2750974 C17.1114906,16.346304 17.1546718,16.3482156 17.3790541,16.2923476 C18.011233,16.1349485 19.2300744,15.6864943 19.4994671,15.5121751 C19.5641245,15.4703379 19.6142056,15.3919035 19.6140284,15.3327588 C19.61358,15.2063419 19.4760302,14.9899666 19.3331348,14.8911251 C19.2345465,14.822929 19.2130925,14.8333677 18.9081698,15.097894 C18.4155983,15.525214 18.0949658,15.7473684 17.7044274,15.9319268 C17.3579869,16.0956451 17.1296999,16.1455987 17.1296999,16.0576886 C17.1296999,16.0340643 17.3070891,15.8708936 17.5238981,15.6950867 C17.9778337,15.327 18.7064926,14.640302 18.7064926,14.5805982 C18.7064926,14.5189153 18.3463777,14.3815778 17.8942055,14.2708163 C17.3419323,14.1355348 16.3688212,14.0009573 16.3209157,14.0532368 C16.2997813,14.0763043 16.2229724,14.2544352 16.1502354,14.4490832 C15.8796332,15.1732084 15.4690131,15.8875181 15.2370768,16.0375986 C15.0027737,16.1892089 15.0062439,16.0587287 15.2568763,15.2923325 C15.5252998,14.471551 15.6324546,14.0401211 15.5806638,13.9887156 C15.5268139,13.9352673 14.0944411,13.8934895 13.2474451,13.9206628 Z M21.8256037,11.2888596 C21.7673967,11.2897864 21.657838,11.4421689 21.4778492,11.7725428 C21.1414384,12.3900256 20.4410423,13.4290492 20.0433411,13.9006015 C19.8730908,14.1024659 19.6831201,14.3291022 19.6211862,14.4042382 L19.5085695,14.5408489 L19.653945,14.7360702 C19.733903,14.8434418 19.8262693,15.0351377 19.8592102,15.1620608 C19.8966038,15.3061578 19.94535,15.3928307 19.9889895,15.3928307 C20.0274298,15.3928307 20.2330057,15.2939359 20.4458249,15.1730645 C21.3902715,14.6366686 22.1599181,14.0620844 22.9232187,13.3235443 C23.3245557,12.9352262 23.4368708,12.7987627 23.4368708,12.6994492 C23.4368708,12.4999377 23.0843009,12.0253757 22.7537956,11.7800168 C22.4230558,11.5344902 21.9550112,11.2868262 21.8256037,11.2888596 Z M6.20800322,11.3347088 C6.09608826,11.3347088 5.71340992,11.5406289 5.3956384,11.7718424 C4.93170895,12.1094048 4.56047878,12.6162694 4.65263456,12.7863238 C4.71079969,12.8936519 5.48355654,13.5933166 5.98109289,13.9891282 C6.62481553,14.5012372 7.91489479,15.3178724 8.02499404,15.28294 C8.05000174,15.2750052 8.11087549,15.1956202 8.16027718,15.1065285 C8.2096744,15.0174364 8.31400552,14.8647372 8.39212395,14.7671957 C8.47668693,14.6616092 8.5195948,14.566141 8.49816475,14.5312588 C8.47837421,14.499035 8.33167426,14.3240292 8.17217032,14.1423578 C7.61516082,13.5079291 7.00867348,12.6205743 6.40639689,11.5588489 C6.33646404,11.4355718 6.2471886,11.3347088 6.20800322,11.3347088 Z M10.6348772,10.3437739 C10.0996173,10.3437739 8.57878276,10.5789337 7.69581168,10.798228 C7.12966694,10.938835 6.90443792,11.0261562 6.90443792,11.105044 C6.90443792,11.1917292 7.40228485,12.1415261 7.67757852,12.5800522 C8.18038428,13.3809867 8.88177483,14.2579896 9.02067594,14.2594402 C9.06771244,14.2599225 9.18779208,14.2192175 9.28752123,14.168973 C9.60274241,14.01016 10.3005867,13.8043094 10.8942014,13.6950333 C11.2095599,13.6369806 11.4968617,13.5809205 11.5326501,13.5704558 C11.6128993,13.5469904 11.6017095,13.479311 11.3814841,12.6559554 C11.2877694,12.3055891 11.1441708,11.6897938 11.0623791,11.2875214 C10.9805815,10.885249 10.9035008,10.5083399 10.8910776,10.4499455 C10.8713812,10.35736 10.8385985,10.3437739 10.6348772,10.3437739 Z M17.2453075,10.3554358 C17.2292827,10.3712629 17.1453827,10.7307887 17.0588592,11.1543818 C16.9723372,11.5779748 16.8108399,12.2696536 16.6999716,12.6914455 C16.5891049,13.1132374 16.5096052,13.4872003 16.5233141,13.5224746 C16.538216,13.5608253 16.6607907,13.5991854 16.828204,13.6178905 C17.2960037,13.6701576 18.0848167,13.8635469 18.539257,14.037382 C18.7757759,14.1278557 19.0033746,14.2044131 19.0450253,14.2075094 C19.0869491,14.2106238 19.2697048,14.0287928 19.4543523,13.8002493 C20.0698883,13.0383817 20.4773458,12.4111567 20.9105204,11.5586917 L21.0131447,11.3524425 C21.1230966,11.1234134 21.1297555,11.0651177 21.083866,11.0198015 C21.0013233,10.9382829 20.0726939,10.7092504 19.3037626,10.5807654 C18.5755292,10.4590801 17.2835671,10.3176548 17.2453075,10.3554358 Z M12.2081878,10.2431176 C11.905802,10.2722048 11.8972446,10.2767268 11.8837747,10.414555 C11.8690968,10.564666 12.0959638,12.1916524 12.2345872,12.9304954 C12.2799618,13.1723284 12.3428662,13.3956538 12.3743782,13.4267739 C12.4169217,13.4687896 12.5781996,13.4736245 13.0008188,13.4455532 C13.3138495,13.4247614 13.9892469,13.4204952 14.5017045,13.4360744 C15.0141696,13.4516517 15.4764566,13.473818 15.5290164,13.4853326 C15.6979676,13.5223449 15.7557699,13.4297628 15.844896,12.9793556 C15.9753069,12.3203225 16.1733512,10.9289139 16.1864538,10.5797108 L16.1979513,10.2729928 L15.7201353,10.2431449 C15.1008335,10.2044583 12.6102894,10.2044394 12.2081878,10.2431176 Z M23.2713897,7.04678986 C23.2560951,7.06189262 23.1690654,7.36644615 23.0779832,7.72357586 C22.8718057,8.53203057 22.5566293,9.46883407 22.2433925,10.2042743 C22.1114093,10.514151 22.0034229,10.786283 22.0034229,10.8090116 C22.0034229,10.8317405 22.2239111,10.958548 22.4933948,11.0908063 C23.1013634,11.3891839 23.5110234,11.7083069 23.6996696,12.03049 C23.7785093,12.1651363 23.8571384,12.2760116 23.8744024,12.2768851 C23.8916665,12.2777495 23.9898906,12.1775934 24.0926777,12.0543163 C24.3921638,11.6951374 24.8390218,11.0634998 25.1359038,10.5797108 C25.51064,9.96905184 26.0648587,8.90429136 26.0648587,8.79501144 C26.0648587,8.65101443 25.7587325,8.29618526 25.4095341,8.03543724 C24.911296,7.66339441 23.3690926,6.95030214 23.2713897,7.04678986 Z M3.14692292,7.66054385 C2.69677697,7.91439454 2.18162863,8.37744561 2.02715669,8.66707274 L1.91126243,8.8843631 L2.15017042,9.34171304 C2.72687489,10.4457199 3.99544198,12.2346113 4.19839431,12.2300607 C4.22818614,12.2293884 4.32552771,12.122613 4.41471206,11.9927849 C4.62053577,11.6931663 5.06024145,11.3470309 5.58572405,11.0709644 C5.81170264,10.9522476 5.99658756,10.8288097 5.99658756,10.7966586 C5.99658756,10.7645069 5.90931447,10.537975 5.80264803,10.2932542 C5.52748276,9.66195682 5.12053585,8.45041145 4.92653361,7.68491333 C4.8354574,7.32554502 4.74814549,7.01888324 4.73251195,7.00344265 C4.67430351,6.94595795 3.69275601,7.35273203 3.14692292,7.66054385 Z M10.1295868,5.86097296 C9.42802302,5.86097296 5.81102325,6.54554739 5.64356368,6.71002401 C5.49361009,6.85730186 6.49941273,10.5797108 6.68915793,10.5797108 C6.70484075,10.5797108 6.98008217,10.5057036 7.30081614,10.4152501 C7.62154415,10.324797 8.09897787,10.2072428 8.36177666,10.1540188 C8.94434036,10.0360343 10.3337904,9.82471272 10.5269819,9.82471272 C10.7648148,9.82471272 10.7726883,9.77027029 10.6532149,8.95174623 C10.5926099,8.5364973 10.4964673,7.71897598 10.4395744,7.13503217 C10.3056814,5.76076555 10.330059,5.86097296 10.1295868,5.86097296 Z M17.8129484,5.91601468 C17.7787995,5.94400343 17.7505844,6.04393199 17.75025,6.13807819 C17.7489061,6.49332128 17.4496649,9.03437752 17.3406512,9.61539571 C17.3082615,9.78803113 17.3595625,9.84202496 17.646339,9.87958927 L17.7508607,9.89164242 C18.5196143,9.97094729 20.0983527,10.2752375 20.8088829,10.4810542 C21.3151529,10.6277031 21.3330904,10.6194599 21.5184456,10.1550244 C21.7500759,9.57462198 22.0806768,8.4057312 22.2568042,7.54441851 C22.4037909,6.82561834 22.4062561,6.79498341 22.3220171,6.73402204 C22.0261968,6.51995694 17.9731884,5.78468395 17.8129484,5.91601468 Z M12.6647395,5.66792675 C12.0354603,5.69599365 11.5023999,5.73693371 11.4801471,5.7589046 C11.4112132,5.82698611 11.7434715,9.63265921 11.8225978,9.68128197 C11.8453896,9.6952863 12.3123786,9.68730721 12.8603484,9.66354984 C13.5326489,9.63440278 14.2447665,9.63783935 15.0500596,9.67411686 C15.706425,9.70368654 16.2589191,9.71250674 16.2778167,9.6937182 C16.3161181,9.65564463 16.4189158,8.67023341 16.5299647,7.27659431 C16.5702879,6.77050968 16.6163016,6.23459894 16.6322083,6.08568147 C16.6597589,5.82780496 16.6553869,5.81276427 16.5403094,5.7695573 C16.2953914,5.67759588 13.8724821,5.61405911 12.6647395,5.66792675 Z" id="Combined-Shape" fill="#FBB920" fill-rule="nonzero"></path>
    </g>
</svg>