<?xml version="1.0" encoding="UTF-8"?>
<svg width="28px" height="28px" viewBox="0 0 28 28" version="1.1" xmlns="http://www.w3.org/2000/svg" xmlns:xlink="http://www.w3.org/1999/xlink">
    <title>6A</title>
    <g id="6A" stroke="none" stroke-width="1" fill="none" fill-rule="evenodd">
        <path d="M14.4600186,0.0266487592 L14.2161509,0.801961096 L14.6326528,0.762872036 C14.8810255,0.740644924 15.2096416,0.713052647 15.5306155,0.691591986 L15.7215797,0.679543359 C16.4132632,0.638737446 17.0517207,0.647206598 17.2676958,0.761411825 C17.4995365,0.883829562 17.5525067,1.29188869 17.4711321,1.41404978 C17.3808013,1.55006949 16.2912015,1.94478329 16.2912015,1.94478329 L16.7411226,2.00122784 C17.0725268,2.04525845 17.5216146,2.11027112 17.8547984,2.17877577 L18.0184504,2.2142549 C18.5674819,2.33751365 19.2084016,2.51606606 19.2084016,2.51606606 L19.1677144,3.45460205 L18.1505327,3.2913784 C17.9064091,3.25057249 17.0235722,3.2913784 17.0235722,3.2913784 L17.308291,3.3762547 C17.562548,3.45460205 17.9389589,3.57701978 18.2319072,3.69943752 C18.7201544,3.90346708 19.8593979,4.67877942 19.8593979,4.67877942 L19.4525252,5.89063803 L19.1664404,5.742971 C18.5856114,5.45072638 17.2266052,4.80540781 16.0877651,4.55661833 C14.5946192,4.22991438 13.7683351,4.71958533 13.7683351,4.71958533 L13.9220257,4.85629748 C14.2886875,5.1878975 15.2440397,6.08398322 16.0470779,7.11507204 C17.0421469,8.39247452 17.3363412,9.82608111 17.5657089,10.3729026 L17.580911,10.4080322 C17.8127516,10.9261903 17.8657219,10.8977031 18.19122,10.8160913 C18.5167181,10.7344795 18.353969,9.97148592 18.4353436,9.80826227 C18.5167181,9.64529526 19.0049653,10.0122918 19.2897761,10.5304499 C19.574587,11.048608 19.6559615,12.1218805 19.2490889,12.203749 C18.8422162,12.2853608 18.801529,11.7956899 18.353969,11.8364958 C17.9064091,11.8773017 17.9064091,12.652614 18.0284709,13.3871204 C18.1505327,14.1216269 18.8422162,14.3256564 18.8422162,14.7745215 C18.8422162,15.2236431 18.2725945,15.2644491 17.7843473,15.305255 C17.2961001,15.3458042 17.145634,15.6599328 17.145634,16.1087978 C17.145634,16.5576628 18.5167181,16.7211431 18.5980926,16.5171136 C18.6794672,16.3128274 18.353969,16.1087978 18.353969,15.9458308 C18.353969,15.7823505 18.801529,15.8231564 19.0863398,15.7823505 L19.1458058,15.772117 C19.3595945,15.7271089 19.2960357,15.626372 19.3711507,15.2236431 C19.4525252,14.7870969 19.1270271,14.3664623 19.1270271,14.080821 C19.1270271,13.8163382 19.3363237,13.9716693 19.4965261,14.1257048 L19.5338997,14.1624328 C19.681551,14.310258 21.1322184,16.5930793 21.6452873,17.657626 L21.639347,17.6576051 L21.6452873,17.6594225 L21.6452873,17.6594225 C21.6985134,17.767725 21.7415038,17.8649919 21.7719552,17.9453205 C22.0974534,18.8022447 22.0409006,19.7163998 21.8126425,19.7815866 C21.5497402,19.8569206 21.4948485,19.827946 21.2639478,19.8230426 L21.1316681,19.8226071 C20.8968692,19.8248609 20.7916892,19.8507792 20.7547736,20.1488398 C20.7140863,20.4752871 21.0395845,20.8710274 20.8768354,21.075057 C20.7140863,21.2790866 20.5513373,20.9526393 20.4697068,21.2382807 C20.3883323,21.5241787 20.7547736,21.4423102 20.7547736,21.6463398 C20.7547736,21.8503693 20.2665264,22.013593 19.9814597,22.2178792 C19.6969047,22.4219088 19.737592,24.1357571 19.574587,24.4213985 C19.4118379,24.7070399 18.3946563,24.176563 17.5118194,24.3397866 C16.6289825,24.5030103 14.9485217,28 14.9485217,28 L14.5930839,27.5932241 L14.7450854,27.551135 L14.9075785,27.0617207 L14.3297682,27.2934674 L14.0697791,26.998587 L14.7857726,26.7758226 L15.1110149,26.2453458 L14.0938332,26.5309872 L14.0127146,26.8168852 L13.7534427,26.5525196 C12.8057184,25.5780926 11.6865768,24.3501779 11.3393821,24.0949512 C10.7290731,23.6460861 9.95575919,23.7685039 9.95575919,23.7685039 L9.95933682,23.6779053 C9.96589581,23.5770408 9.98447962,23.410852 10.0371337,23.2788329 C10.1581719,22.9757399 10.6883859,22.013593 10.8511349,21.4831161 C11.013884,20.9526393 11.013884,20.6957417 11.013884,20.6957417 L10.9009916,20.4997676 C10.8285993,20.3715338 10.7326112,20.1967424 10.6476986,20.026422 C10.5448289,19.8203394 10.6044524,18.6852164 10.6108498,17.6614756 L10.6125029,17.6592077 L10.6108498,17.6594225 L10.6113813,17.4513797 C10.6104805,16.9366887 10.5915673,16.4689406 10.5256368,16.1904096 C10.3222005,15.3334855 6.34687551,8.17602577 6.18412645,7.40071343 L6.14517581,7.21386009 C5.99352969,6.47398009 5.8562512,5.57184268 6.30618825,4.22991438 C6.79443543,2.7732203 9.10132662,1.29188869 9.38613748,0.965441387 C9.67120423,0.638737446 9.54888654,0.189872409 9.54888654,0.189872409 L9.56303183,0.217265267 C9.61111872,0.303222166 9.78644217,0.563926607 10.1591955,0.597931534 C10.5866561,0.636882632 12.8933886,0.229666605 13.4914695,0.0860947879 L13.5648988,0.0674546716 C14.0127146,-0.0549630658 14.4600186,0.0266487592 14.4600186,0.0266487592 Z M15.5995179,25.1561615 L13.9717714,25.5642207 L13.8497096,25.9597044 L13.4021497,26.1637339 L14.9485217,25.9188985 L15.5995179,25.1561615 Z M16.4946378,23.7685039 L13.8090224,24.5030103 L13.4835242,25.0334872 L12.832528,25.3601911 L15.7215797,24.7889083 L16.4946378,23.7685039 Z M17.0642595,22.013593 L13.0766516,23.0748034 L12.5070299,23.8090531 L11.786942,24.0949512 L16.1691397,23.1972211 L17.0642595,22.013593 Z M17.0642595,20.5568989 L12.2751892,21.7279516 L11.7462548,22.5443265 L10.6883859,23.0337408 L16.7387614,21.564728 L17.0642595,20.5568989 Z M16.9421977,19.0470801 L12.2751892,20.1080339 L11.9090038,20.8710274 L11.0952585,21.2382807 L16.2098269,20.1899023 L16.9421977,19.0470801 Z M16.1691397,18.4757974 L16.4946378,17.4553929 L11.8683166,18.4757974 L11.7055675,19.2105604 L10.7697604,19.7815866 L16.1691397,18.4757974 Z M14.7448295,14.4072683 L11.3800694,15.305255 L11.2986948,15.8639623 L10.8511349,16.3946958 L14.3786441,15.3866102 L14.7448295,14.4072683 Z M13.8903969,13.1014791 L10.8511349,13.7951796 L10.5663241,14.4480742 L9.95575919,14.815584 L13.4835242,14.080821 L13.8903969,13.1014791 Z M12.832528,11.7548839 L10.1591955,12.3261667 L9.87464056,13.1014791 L9.42708064,13.4687323 L12.3158765,12.7342258 L12.832528,11.7548839 Z M11.7462548,10.2856145 L9.14201388,10.8977031 L8.97926482,11.4689859 L8.45033037,11.8773017 L11.2986948,11.1833445 L11.7462548,10.2856145 Z M10.7290731,8.58408489 L8.69470986,9.15536767 L8.49101763,9.72690708 L7.67727233,10.2571273 L10.3628877,9.52287752 L10.7290731,8.58408489 Z M10.0371337,7.03346022 L7.71795959,7.52313117 L7.51426737,8.09441394 L6.8351227,8.58408489 L9.71189149,7.97173957 L10.0371337,7.03346022 Z M9.79301013,5.72741438 L7.55521053,6.17653606 L7.39246147,6.58433854 L6.46893731,7.07426613 L9.46751201,6.46217745 L9.79301013,5.72741438 Z M9.63051696,4.55661833 L7.51426737,4.96442081 L7.31108694,5.40122372 L6.38756278,5.84983212 L9.26407568,5.23774343 L9.63051696,4.55661833 Z M9.95575919,3.08734884 L7.39246147,3.82185526 L7.24199535,4.22991438 L6.30618825,4.80119716 L9.67120423,3.82185526 L9.95575919,3.08734884 Z M10.2405701,2.02613847 L8.12483225,2.59767789 L7.88070865,2.9649311 L6.79443543,3.57701978 L9.99644646,2.67928971 L10.2405701,2.02613847 Z M11.0952585,0.965441387 L9.34545021,1.45511234 L9.10132662,1.86317146 L8.32826857,2.27123059 L10.8104477,1.61807935 L11.0952585,0.965441387 Z M15.1926453,16.9251727 L15.6806366,15.7823505 L11.5835057,16.8433042 L11.5021312,17.5370047 L10.7697604,18.0269323 L12.2439701,17.6594225 L15.1926453,16.9251727 Z" id="Shape" fill="#1A3374"></path>
    </g>
</svg>