<?xml version="1.0" encoding="UTF-8"?>
<svg width="28px" height="28px" viewBox="0 0 28 28" version="1.1" xmlns="http://www.w3.org/2000/svg" xmlns:xlink="http://www.w3.org/1999/xlink">
    <title>6E</title>
    <g id="6E" stroke="none" stroke-width="1" fill="none" fill-rule="evenodd">
        <rect id="Rectangle" fill="#001B94" fill-rule="nonzero" x="0" y="0" width="28" height="28"></rect>
        <path d="M9.53125,22.9353493 C10.1007936,22.9353493 10.5625,23.3975371 10.5625,23.9676747 C10.5625,24.5378122 10.1007936,25 9.53125,25 C8.96170635,25 8.5,24.5378122 8.5,23.9676747 C8.5,23.3975371 8.96170635,22.9353493 9.53125,22.9353493 Z M9.53125,20.1824818 C10.1007936,20.1824818 10.5625,20.6446695 10.5625,21.2148071 C10.5625,21.7849446 10.1007936,22.2471324 9.53125,22.2471324 C8.96170635,22.2471324 8.5,21.7849446 8.5,21.2148071 C8.5,20.6446695 8.96170635,20.1824818 9.53125,20.1824818 Z M20.0729167,17.8884254 C20.6424603,17.8884254 21.1041667,18.3506132 21.1041667,18.9207508 C21.1041667,19.4908883 20.6424603,19.9530761 20.0729167,19.9530761 C19.503373,19.9530761 19.0416667,19.4908883 19.0416667,18.9207508 C19.0416667,18.3506132 19.503373,17.8884254 20.0729167,17.8884254 Z M4.03125,17.4296142 C4.60079365,17.4296142 5.0625,17.891802 5.0625,18.4619395 C5.0625,19.0320771 4.60079365,19.4942649 4.03125,19.4942649 C3.46170635,19.4942649 3,19.0320771 3,18.4619395 C3,17.891802 3.46170635,17.4296142 4.03125,17.4296142 Z M6.78125,17.4296142 C7.35079365,17.4296142 7.8125,17.891802 7.8125,18.4619395 C7.8125,19.0320771 7.35079365,19.4942649 6.78125,19.4942649 C6.21170635,19.4942649 5.75,19.0320771 5.75,18.4619395 C5.75,17.891802 6.21170635,17.4296142 6.78125,17.4296142 Z M9.53125,17.4296142 C10.1007936,17.4296142 10.5625,17.891802 10.5625,18.4619395 C10.5625,19.0320771 10.1007936,19.4942649 9.53125,19.4942649 C8.96170635,19.4942649 8.5,19.0320771 8.5,18.4619395 C8.5,17.891802 8.96170635,17.4296142 9.53125,17.4296142 Z M11.59375,15.3879041 C12.1632936,15.3879041 12.625,15.8500919 12.625,16.4202294 C12.625,16.9903669 12.1632936,17.4525547 11.59375,17.4525547 C11.0242064,17.4525547 10.5625,16.9903669 10.5625,16.4202294 C10.5625,15.8500919 11.0242064,15.3879041 11.59375,15.3879041 Z M20.0729167,15.0667362 C20.6424603,15.0667362 21.1041667,15.528924 21.1041667,16.0990615 C21.1041667,16.6691991 20.6424603,17.1313869 20.0729167,17.1313869 C19.503373,17.1313869 19.0416667,16.6691991 19.0416667,16.0990615 C19.0416667,15.528924 19.503373,15.0667362 20.0729167,15.0667362 Z M13.4270833,13.5755996 C13.996627,13.5755996 14.4583333,14.0377874 14.4583333,14.6079249 C14.4583333,15.1780625 13.996627,15.6402503 13.4270833,15.6402503 C12.8575397,15.6402503 12.3958333,15.1780625 12.3958333,14.6079249 C12.3958333,14.0377874 12.8575397,13.5755996 13.4270833,13.5755996 Z M20.0729167,12.3138686 C20.6424603,12.3138686 21.1041667,12.7760564 21.1041667,13.346194 C21.1041667,13.9163315 20.6424603,14.3785193 20.0729167,14.3785193 C19.503373,14.3785193 19.0416667,13.9163315 19.0416667,13.346194 C19.0416667,12.7760564 19.503373,12.3138686 20.0729167,12.3138686 Z M15.4895833,11.5109489 C16.059127,11.5109489 16.5208333,11.9731367 16.5208333,12.5432742 C16.5208333,13.1134118 16.059127,13.5755996 15.4895833,13.5755996 C14.9200397,13.5755996 14.4583333,13.1134118 14.4583333,12.5432742 C14.4583333,11.9731367 14.9200397,11.5109489 15.4895833,11.5109489 Z M20.0729167,9.56100104 C20.6424603,9.56100104 21.1041667,10.0231888 21.1041667,10.5933264 C21.1041667,11.1634639 20.6424603,11.6256517 20.0729167,11.6256517 C19.503373,11.6256517 19.0416667,11.1634639 19.0416667,10.5933264 C19.0416667,10.0231888 19.503373,9.56100104 20.0729167,9.56100104 Z M17.3229167,9.53806048 C17.8924603,9.53806048 18.3541667,10.0002483 18.3541667,10.5703858 C18.3541667,11.1405234 17.8924603,11.6027112 17.3229167,11.6027112 C16.753373,11.6027112 16.2916667,11.1405234 16.2916667,10.5703858 C16.2916667,10.0002483 16.753373,9.53806048 17.3229167,9.53806048 Z M9.07291667,6.87695516 C9.64246031,6.87695516 10.1041667,7.33914296 10.1041667,7.9092805 C10.1041667,8.47941804 9.64246031,8.94160584 9.07291667,8.94160584 C8.50337302,8.94160584 8.04166667,8.47941804 8.04166667,7.9092805 C8.04166667,7.33914296 8.50337302,6.87695516 9.07291667,6.87695516 Z M11.8229167,6.87695516 C12.3924603,6.87695516 12.8541667,7.33914296 12.8541667,7.9092805 C12.8541667,8.47941804 12.3924603,8.94160584 11.8229167,8.94160584 C11.253373,8.94160584 10.7916667,8.47941804 10.7916667,7.9092805 C10.7916667,7.33914296 11.253373,6.87695516 11.8229167,6.87695516 Z M14.5729167,6.87695516 C15.1424603,6.87695516 15.6041667,7.33914296 15.6041667,7.9092805 C15.6041667,8.47941804 15.1424603,8.94160584 14.5729167,8.94160584 C14.003373,8.94160584 13.5416667,8.47941804 13.5416667,7.9092805 C13.5416667,7.33914296 14.003373,6.87695516 14.5729167,6.87695516 Z M17.3229167,6.87695516 C17.8924603,6.87695516 18.3541667,7.33914296 18.3541667,7.9092805 C18.3541667,8.47941804 17.8924603,8.94160584 17.3229167,8.94160584 C16.753373,8.94160584 16.2916667,8.47941804 16.2916667,7.9092805 C16.2916667,7.33914296 16.753373,6.87695516 17.3229167,6.87695516 Z M20.0729167,6.87695516 C20.6424603,6.87695516 21.1041667,7.33914296 21.1041667,7.9092805 C21.1041667,8.47941804 20.6424603,8.94160584 20.0729167,8.94160584 C19.503373,8.94160584 19.0416667,8.47941804 19.0416667,7.9092805 C19.0416667,7.33914296 19.503373,6.87695516 20.0729167,6.87695516 Z M21.90625,4.94994786 C22.4757936,4.94994786 22.9375,5.41213566 22.9375,5.9822732 C22.9375,6.55241074 22.4757936,7.01459854 21.90625,7.01459854 C21.3367064,7.01459854 20.875,6.55241074 20.875,5.9822732 C20.875,5.41213566 21.3367064,4.94994786 21.90625,4.94994786 Z M23.96875,3 C24.5382936,3 25,3.4621878 25,4.03232534 C25,4.60246288 24.5382936,5.06465068 23.96875,5.06465068 C23.3992064,5.06465068 22.9375,4.60246288 22.9375,4.03232534 C22.9375,3.4621878 23.3992064,3 23.96875,3 Z" id="Combined-Shape" fill="#FFFFFF" fill-rule="nonzero"></path>
    </g>
</svg>