<?xml version="1.0" encoding="UTF-8"?>
<svg width="28px" height="28px" viewBox="0 0 28 28" version="1.1" xmlns="http://www.w3.org/2000/svg" xmlns:xlink="http://www.w3.org/1999/xlink">
    <title>6H</title>
    <g id="6H" stroke="none" stroke-width="1" fill="none" fill-rule="evenodd">
        <path d="M14.0069432,-1.42108547e-14 C14.0069432,-1.42108547e-14 15.1100872,1.80664612 16.1424407,3.60741327 C16.757404,3.36961106 18.8822281,3.33501091 19.690655,4.55755285 C20.9694539,6.46787875 19.8436135,9.63343957 19.9128386,10.1383419 C19.9963646,10.6568793 20.4411462,10.3701371 20.4411462,10.3701371 L20.4411462,10.3701371 L26.5,7.20477979 L20.2881878,17.4251353 L26.4305676,21.2449741 L13.8543993,21.2449741 L13.8543993,28 L8.39287106,19.2534476 C12.28357,17.5612819 15.7993343,13.7406301 16.7031984,12.5674087 C17.592345,11.3937804 19.2458734,8.96491708 19.0931223,7.2049833 C18.995917,6.00388141 18.7183948,4.70774146 17.592345,4.55775635 C17.2901124,4.51698226 16.9920001,4.55282284 16.7181043,4.62663545 C17.3406649,5.74670381 17.8391186,6.71868155 17.8976422,7.05459118 C18.2731987,9.11510569 16.55024,11.4619554 12.8118777,14.6954878 C9.61529501,17.4658368 1.5,21.4635392 1.5,21.4635392 C1.5,21.4635392 7.26682336,11.8305077 7.48900689,11.0252281 C7.71181221,10.220152 1.87493471,7.13640124 1.87493471,7.13640124 L14.0069432,7.13640124 L14.0069432,-1.42108547e-14 Z" id="Combined-Shape" fill="#FF7D11"></path>
    </g>
</svg>