<?xml version="1.0" encoding="UTF-8"?>
<svg width="28px" height="28px" viewBox="0 0 28 28" version="1.1" xmlns="http://www.w3.org/2000/svg" xmlns:xlink="http://www.w3.org/1999/xlink">
    <title>6O</title>
    <g id="6O" stroke="none" stroke-width="1" fill="none" fill-rule="evenodd">
        <path d="M12.2540564,0.0189693804 C10.3361412,0.251596278 7.82487966,1.19353351 6.24665565,2.27220629 C2.43208219,4.87942603 0.197833216,8.857783 0.0135782518,13.3708961 C-0.113627409,16.4848861 0.650446754,19.1898461 2.41124533,21.8590885 C3.67405979,23.7735541 5.74858752,25.5595202 7.92704748,26.60777 C13.1881022,29.1391843 19.4381516,28.1603528 23.6487934,24.1454378 C25.8431331,22.0532244 27.2208023,19.5496279 27.8129724,16.5784243 C27.9687447,15.7965021 28,15.3596544 28,13.9591867 C28,12.2190232 27.9325323,11.6714087 27.5391525,10.2193395 C26.400519,6.01659169 23.166941,2.44970195 19.0596433,0.86585567 C17.3369896,0.201507539 16.4220163,0.0360298068 14.3125364,0.00728761064 C13.3421101,-0.00590690632 12.4157941,-0.000696332739 12.2540564,0.0189693804 M13.6085363,2.33834695 C12.6022336,2.44020526 11.8272369,2.87108608 11.3753795,3.58006025 C10.969817,4.21633852 10.8673971,4.71277172 10.8724383,6.01726402 C10.8784877,7.60497622 11.0251859,8.37235924 11.956459,11.6900659 C12.2029725,12.5682997 12.5420756,13.8163161 12.7099467,14.4634357 C13.2520411,16.5531278 13.290186,16.6064942 14.2403636,16.6064942 L14.9402468,16.6064942 L15.1869283,16.1177088 C15.6567659,15.186781 16.2396938,13.2985363 16.7354934,11.1017753 C16.8085064,10.7782155 16.9818388,10.0218419 17.1206392,9.42094515 C17.5624982,7.50858061 17.6526513,6.82582738 17.608793,5.72311874 C17.5620781,4.54805036 17.3798396,3.92925273 16.9123546,3.35869492 C16.2426345,2.54113912 15.0979516,2.18766053 13.6085363,2.33834695 M13.4341116,17.6176816 C12.436799,17.8267769 11.5482078,18.5308767 11.1041643,19.4639055 C10.3242945,21.1026309 10.5466943,22.6817709 11.7047363,23.7290961 C13.1414714,25.0282938 15.4193265,25.0498085 16.6871821,23.7762434 C17.4677241,22.9920521 17.9134481,21.5516647 17.7167582,20.4486199 C17.4302514,18.8421664 16.08619,17.6920584 14.3598394,17.5762492 C14.0565287,17.5559111 13.6399596,17.5745683 13.4341116,17.6176816" id="Shape" fill="#00AA9A"></path>
    </g>
</svg>