<?xml version="1.0" encoding="UTF-8"?>
<svg width="28px" height="28px" viewBox="0 0 28 28" version="1.1" xmlns="http://www.w3.org/2000/svg" xmlns:xlink="http://www.w3.org/1999/xlink">
    <title>7C</title>
    <g id="7C" stroke="none" stroke-width="1" fill="none" fill-rule="evenodd">
        <path d="M9.27710625,15.9800399 C9.54394521,15.9525878 10.518002,15.9857523 10.7447617,16.0299896 C11.7279262,16.2218291 12.2650881,16.6189364 12.3250288,17.1982722 C12.3591552,17.5279405 12.2711507,17.8680048 11.8880515,18.886763 C11.7077905,19.3661993 11.6439543,19.5433382 11.3612318,20.3487067 C11.1772948,20.8727594 10.9396718,21.4739431 10.8085155,21.7471371 L10.8085155,21.7471371 L10.7155457,21.9408175 L9.73570056,21.9512677 C9.19681041,21.9570343 8.74211156,21.9575216 8.72529525,21.9523777 C8.70847894,21.9472338 8.66181572,21.8767086 8.62157179,21.7956249 C8.55120663,21.6537893 8.50841144,21.6222221 8.45275027,21.6710889 C8.41703275,21.7024395 8.14012595,21.7967619 7.89174928,21.8621974 C7.61577519,21.9349156 7.11822629,22.0001887 6.84151153,21.9999996 C6.57834857,21.9998097 6.1264753,21.9375146 5.93030326,21.8743532 C5.29605667,21.6701414 4.98387127,21.2643978 4.98387127,20.6442088 C4.98387127,19.969576 5.49494455,19.3626257 6.40214762,18.9598331 C6.89445685,18.7412725 7.14650952,18.6858811 8.27580864,18.5482147 C9.1151155,18.4458787 9.42148514,18.3471704 9.7930077,18.0594112 C9.96550522,17.9257787 10.0589414,17.7741155 10.0589414,17.6276504 C10.0589414,17.5478121 10.0356235,17.5075274 9.9278674,17.4011845 C9.72897952,17.2049051 9.4654325,17.1612363 9.02220057,17.2511187 C8.71544687,17.3133325 8.57323518,17.3992353 8.25498713,17.7145278 L8.25498713,17.7145278 L7.97355392,17.993353 L6.81818787,17.9932584 C6.13567285,17.9923547 5.97145248,17.9846715 5.97145248,17.9575083 C5.97145248,17.871768 6.32925864,17.3942538 6.57376729,17.1536829 C7.14947227,16.5872068 7.90124103,16.2241574 8.86561408,16.046802 C9.03158259,16.0162907 9.21675406,15.9862396 9.27710625,15.9800399 Z M18.6810656,16.0445654 C19.2663006,16.0463649 19.3053205,16.0547073 19.2902744,16.0914725 C19.236945,16.2217479 19.0020379,16.9115688 19.0020379,16.9379108 C19.0020379,16.9777082 19.1297102,16.8880423 19.3998136,16.6585442 C19.6819052,16.4188396 19.9241644,16.2801986 20.2373648,16.1791891 C20.5287836,16.0851915 20.8395424,16.0446361 21.2703473,16.0443113 L21.2703473,16.0443113 L21.5772382,16.0440947 L21.5252804,16.2268376 C21.4014762,16.6622532 21.2054139,17.1841671 21.0167584,17.5804892 L21.0167584,17.5804892 L20.8975628,17.8309148 L20.6287487,17.831375 C19.8222789,17.8327828 19.1865235,18.0038302 18.7747022,18.3301685 C18.4611726,18.5785907 18.2171303,18.9911837 17.864893,19.8682145 C17.6331406,20.4453033 17.3320106,21.2773658 17.2147902,21.6645102 L17.2147902,21.6645102 L17.1238779,21.9648042 L16.4924294,21.9824288 C15.7783259,22.0023545 14.8871162,22.0059011 14.8871162,21.9887909 C14.8871162,21.9738196 15.2073942,21.1202069 15.258721,20.9984595 C15.2806673,20.9463439 15.4511896,20.4955779 15.637623,19.9967573 C15.9520305,19.1555711 16.2957362,18.2420458 16.8720172,16.7157225 C16.9996072,16.3778239 17.1120543,16.0884945 17.1219027,16.072738 C17.1320071,16.0566069 17.3819772,16.0474698 17.8893235,16.0448722 Z M15.4696171,16.0445738 C16.0558471,16.0463964 16.0975341,16.0547965 16.0871645,16.0914725 C16.0797851,16.1175167 15.7122403,17.107388 15.27038,18.2911563 C14.8285197,19.4749246 14.4451187,20.5043766 14.4183717,20.5788275 C14.3916247,20.6532783 14.3433156,20.7811984 14.3110271,20.8630943 C14.2787387,20.9449902 14.2302101,21.0729103 14.2032162,21.1473611 C14.1762223,21.221812 14.0962008,21.4361762 14.0254241,21.6237653 L14.0254241,21.6237653 L13.8967642,21.9647772 L12.8116868,21.9841615 C12.214886,21.9948012 11.7202176,21.9972107 11.7124266,21.9895219 C11.7011518,21.978422 12.0147088,21.116173 12.3090903,20.3487067 C12.3347948,20.2817009 12.5134922,19.8065692 12.7062077,19.2928585 C12.8989232,18.7791477 13.0779223,18.304016 13.1039834,18.2370102 C13.1300446,18.1700045 13.3064376,17.7004769 13.4959709,17.1936156 C13.6855042,16.6867814 13.8528443,16.2421068 13.8678226,16.20545 C13.8828009,16.1688201 13.9018668,16.1175167 13.9101515,16.0914725 C13.9217184,16.0551755 13.9758907,16.0465301 14.5597766,16.0446092 Z M9.38340839,19.458031 C9.34003712,19.45952 9.20578094,19.4779568 9.08507657,19.4989655 C8.10322882,19.6699316 7.65165731,19.8222716 7.43935478,20.0542063 C7.34408063,20.158275 7.33771622,20.1756559 7.34973179,20.299136 C7.36473754,20.4530732 7.46730882,20.597914 7.61766806,20.6775087 C7.74940042,20.7472217 8.07524735,20.7452995 8.31100493,20.6734206 C8.70636661,20.5529186 8.96865172,20.3952182 9.16092829,20.1624172 C9.2585068,20.0443246 9.41086864,19.708998 9.4462021,19.5346748 C9.46107068,19.4611986 9.4564071,19.4554862 9.38340839,19.458031 Z M7.02853911,6.00151318 C7.46900105,6.00476934 7.78686942,6.01292008 7.79279913,6.02241647 C7.80909422,6.04840658 7.56721912,6.77085043 7.39697109,7.2047499 C6.92754082,8.40094473 6.16161673,10.2509803 5.91477629,10.7848605 C5.88558778,10.8479948 5.86172124,10.9061206 5.86172124,10.9140801 C5.86172124,10.9699047 5.4203273,11.8184006 5.29317622,12.0070184 C4.99270464,12.4527217 4.52269828,12.8730305 4.07935662,13.0925116 C3.47940103,13.3895298 2.85486565,13.5116021 1.77423234,13.5430339 C1.2806612,13.5574097 0.0311240776,13.5206716 0.000975417943,13.4909183 C-0.00511466618,13.4849081 0.0179563282,13.4056383 0.0522199096,13.314727 C0.0865109237,13.2238428 0.219450328,12.8695381 0.347698721,12.527362 L0.347698721,12.527362 L0.580822752,11.9052779 L0.772907297,11.8909834 C0.87852362,11.8831322 1.17482542,11.8634501 1.4313222,11.8472875 C2.79731161,11.761114 3.0710362,11.5522727 3.66624591,10.1421738 C3.92115159,9.53822863 3.9663883,9.43085699 4.27061818,8.70730315 C4.54044731,8.06556401 4.60134815,7.92107524 4.83543233,7.36718809 C5.06718472,6.81885091 5.2138131,6.46741589 5.30420421,6.24365728 C5.3433234,6.1468712 5.38751766,6.05246754 5.40241368,6.03384129 C5.41776325,6.01468261 5.56911848,6.00542423 6.00642639,6.00184883 Z M27.428908,6.00177131 C27.8671662,6.00523941 28,6.01438661 28,6.03422031 C28,6.05303607 27.9745149,6.13528394 27.9433512,6.21696327 C27.9121876,6.29864261 27.8708738,6.41421738 27.8515336,6.47377805 C27.8321935,6.53333872 27.7830613,6.66735023 27.742351,6.7715814 C27.610893,7.10823454 27.5006405,7.40335766 27.2669678,8.04401388 C27.0156559,8.73310375 26.2734337,10.7202643 26.1742915,10.9694986 C25.7056568,12.1475003 25.2605595,12.7269174 24.5571822,13.0746434 C23.9691324,13.3653807 23.4121915,13.4788167 22.3445339,13.5253011 C20.9198932,13.5873524 20.0401229,13.4277028 19.6279449,13.0323553 C19.2862692,12.7046633 19.221034,12.1763602 19.4248598,11.3875333 C19.5684157,10.8318322 19.6979534,10.4678353 20.2966745,8.93742392 C20.7676136,7.7335945 21.0737364,6.94863902 21.2406101,6.51693246 C21.3235121,6.30243283 21.4033965,6.10466434 21.4181553,6.07748302 C21.4427625,6.03208154 21.4980396,6.02745205 22.0958006,6.02079209 C22.4537439,6.01681235 22.9767779,6.00955678 23.258074,6.00471071 C23.53937,5.99986463 23.7758683,6.00601021 23.7836043,6.01838259 C23.7946323,6.03598006 23.4779754,6.91144068 23.13416,7.81389311 C22.8429058,8.5783543 21.9684849,10.9372817 21.9198466,11.0897299 C21.842102,11.3333601 21.8324456,11.6260737 21.8985038,11.7353134 C21.994985,11.8948007 22.0569283,11.9155927 22.4311393,11.9140225 C22.8173658,11.9124252 22.9619642,11.871572 23.1901503,11.6996312 C23.5736336,11.4106536 23.7939191,11.0112452 24.1984982,9.8714435 C24.3557156,9.42850164 24.8975411,7.95862554 24.9968478,7.70560098 C25.0172853,7.6534854 25.158674,7.27113298 25.310981,6.85591389 C25.4633154,6.44069481 25.6002874,6.07824106 25.6153206,6.0504912 C25.6341425,6.01578508 25.6695773,6.00487356 26.1105063,6.00148955 Z M19.500239,6.00137411 C19.9459038,6.00433008 20.2637657,6.01172471 20.2636181,6.02030477 C20.2611765,6.17213033 19.9853396,6.89162322 19.397619,8.27922438 C19.2521702,8.62261871 19.0652431,9.08835607 18.7150632,9.97973563 C18.3236519,10.9760773 18.0118505,11.6370654 17.7444081,12.037286 C17.5676859,12.3017625 17.1382252,12.7402644 16.9170345,12.8820729 C16.371149,13.2321001 15.7012946,13.4237501 14.7499521,13.5021265 C14.3787587,13.5327191 12.517662,13.5253011 12.4850992,13.4931112 C12.4741535,13.4823091 12.5033146,13.3726633 12.5498681,13.2494539 C12.6896657,12.879528 12.8247174,12.5291759 12.9571905,12.192956 L12.9571905,12.192956 L13.082531,11.8748478 L13.4704584,11.87455 C13.9382427,11.8741981 14.5317241,11.8145291 14.7829264,11.742569 C15.1470695,11.6382566 15.4468004,11.4303087 15.6461546,11.1436594 C15.7777224,10.9544731 15.9627293,10.5771833 16.1637843,10.0880278 C16.3982526,9.51749069 16.4914967,9.29365087 16.6824291,8.84266831 C16.8694386,8.40099887 16.932534,8.25131208 17.2188503,7.57023583 C17.3409263,7.27987756 17.452084,7.01794598 17.4659102,6.98816565 C17.5015728,6.91122409 17.8385026,6.10433946 17.858748,6.04737781 C17.870061,6.01550683 17.9163454,6.00495921 18.3603367,6.0015586 Z M13.028765,6.00158767 C13.9840652,6.00491165 14.1189975,6.0147464 14.1189975,6.04236929 C14.1189975,6.0656521 14.0947468,6.14180854 14.0651194,6.21157574 C14.0168925,6.32509296 13.9271598,6.55204619 13.6217503,7.33315729 L13.6217503,7.33315729 L13.529192,7.56988388 L12.1395555,7.57004632 L10.749919,7.57023583 L10.7088247,7.68529621 C10.68622,7.74856589 10.5914122,8.01355672 10.4981681,8.27413465 C10.404924,8.53471257 10.3126126,8.79664415 10.2930804,8.85620482 C10.2735483,8.91576549 10.2485844,8.9858305 10.2376113,9.01187475 C10.2206496,9.0521513 10.2792156,9.05830609 11.2281291,9.05913428 L11.9157457,9.05984682 C12.5505214,9.0621991 12.9393866,9.07138515 12.9393866,9.08472828 C12.9393866,9.10811938 12.5547511,10.1675683 12.449848,10.4331006 L12.4044467,10.5480798 L9.59914002,10.5482693 L9.48238598,10.8528409 C9.41816577,11.0203688 9.30744694,11.3096983 9.23636852,11.4958254 L9.23636852,11.4958254 L9.10715998,11.8342383 L9.23326862,11.8521606 C9.3026462,11.8620423 9.98517454,11.8711659 10.7500013,11.8724654 L10.9116863,11.8729043 C11.6019831,11.8754615 12.1477873,11.8863558 12.155302,11.8983472 C12.1633946,11.9112611 12.1388697,11.9996004 12.100793,12.0946267 C12.0076311,12.3270216 11.6982164,13.1244036 11.6292778,13.3097185 L11.6292778,13.3097185 L11.5738635,13.4586202 L8.86868655,13.4655238 C6.42615133,13.4717506 6.16348216,13.4682853 6.16348216,13.4299228 C6.16348216,13.4065587 6.1875133,13.3303482 6.21692128,13.260581 C6.24630182,13.1908138 6.35691091,12.9022694 6.46269183,12.6193562 C6.56850019,12.336443 6.76727834,11.8064884 6.9044424,11.4416793 C7.04160645,11.0768702 7.32778554,10.3154412 7.54041726,9.74961486 C7.75302155,9.1837885 7.95451555,8.64774248 7.98817561,8.55840148 C8.02180823,8.46906047 8.22321994,7.93301445 8.43571449,7.36718809 C8.84026616,6.28997924 8.93024578,6.05528313 8.95183541,6.02081916 C8.95720538,6.01223024 9.61416292,6.00481392 10.5402711,6.00164257 Z" id="Combined-Shape" fill="#F15A22"></path>
        <path d="M15.3651878,14.1692602 L14.7322031,14.1770301 L14.668751,14.3322128 C14.633829,14.417574 14.5891684,14.523944 14.5694716,14.5686145 C14.5498023,14.613285 14.4518946,14.8447594 14.3519569,15.0830021 C14.2520192,15.3212447 14.153892,15.5527192 14.1339483,15.5973897 C14.1140047,15.6420602 14.0886842,15.7078747 14.0777111,15.7436653 L14.0577674,15.8087488 L14.1501063,15.7540342 C14.2481237,15.6959626 14.4678057,15.5775722 14.8048177,15.4012456 C14.9179781,15.3420368 15.07846,15.2571629 15.1614443,15.2126007 C15.2444285,15.1680655 15.4234276,15.0734994 15.5592201,15.0024598 C15.6950125,14.9314202 15.8987011,14.82348 16.0118614,14.7625927 C16.330905,14.5908956 16.5789251,14.460566 16.855393,14.3192718 C16.9949437,14.2479344 17.1091465,14.1804684 17.1091465,14.1692873 C17.1091465,14.1501466 16.9200247,14.1501466 15.3651878,14.1692602" id="Path" fill="#05AAE2"></path>
    </g>
</svg>