<?xml version="1.0" encoding="UTF-8"?>
<svg width="28px" height="28px" viewBox="0 0 28 28" version="1.1" xmlns="http://www.w3.org/2000/svg" xmlns:xlink="http://www.w3.org/1999/xlink">
    <title>7G</title>
    <g id="7G" stroke="none" stroke-width="1" fill="none" fill-rule="evenodd">
        <path d="M14.1797312,9.03775983 C13.5623002,10.5872624 13.0874315,12.2771915 12.1231515,13.4857944 C14.3600576,14.1174414 16.5926701,13.4621933 18.2928443,12.5152902 C19.3864367,11.9063366 20.6142351,11.3397742 21.9948446,11.2213149 C24.0960212,11.0411296 26.1810394,11.569431 28,12.5960786 C27.0620811,12.3912029 26.1288712,11.9031595 24.9562418,11.7874234 C19.5316765,11.2514063 17.0177714,14.2487452 15.8251057,18.4998922 C17.325702,18.4647175 19.6678216,17.8991989 21.1721112,17.205826 C21.9830722,16.8321572 23.3362589,15.9080836 23.2286909,17.5294333 C22.8787487,18.0352229 22.2678272,17.7714807 21.7479461,17.8529045 C20.724296,18.0131196 19.8225255,18.6306059 19.8559501,19.9555804 C19.5458496,19.3225718 19.9202601,18.2641082 20.349424,17.8529045 C18.9201087,18.3078156 17.3827638,18.6563402 15.7427908,18.9041517 C15.1255445,20.4458023 14.7238958,22.278518 13.5217198,23.6758389 C12.3390723,25.0504211 9.83823226,26.4547316 7.76323217,25.8595301 C5.78638208,25.2921962 6.11785764,22.6682538 7.35202703,21.3305256 C8.7558122,19.8088451 11.7834121,18.9676931 13.932925,18.8233633 C14.8817853,16.8179511 15.7523473,14.7353362 17.3058504,13.3240815 C15.770029,13.9015821 13.7904551,14.2617711 12.0410213,13.8092656 C10.7077324,15.0924843 8.60715603,16.9655941 5.13081759,16.720642 C3.09275071,16.5770838 0.297783839,15.7821808 0.0306643945,14.2136158 C-0.296656183,12.2925322 2.06568429,11.6772698 3.8147488,11.5447406 C6.62259613,11.3321946 8.52160948,12.3276615 10.5602765,13.0813988 C11.5337898,12.1246467 12.0602265,10.7280974 12.4521802,9.19947271 C10.0290846,9.18690059 6.33373226,9.17196836 4.39058372,8.14808937 C4.02171328,7.95374344 3.49310671,7.58769956 3.56789646,7.09679681 C4.52571311,8.49189377 7.91184217,8.9602847 10.1489329,8.95697147 C10.9717587,8.95560987 11.7596825,8.82684775 12.5344951,8.79507705 C13.0689648,7.06479917 13.7441963,5.41794209 14.920242,4.18532958 C16.0235755,3.02855828 17.5646137,2.05070143 19.5268752,2.00177455 C20.4008073,1.97998892 21.8291992,2.13421299 21.6657697,3.86185844 C21.5043254,5.56590279 19.9169822,6.91406988 18.6218269,7.66295074 C17.2525281,8.45467666 15.6536432,8.80388207 14.1797312,9.03775983 Z M18.7041418,7.01596306 C19.5642239,6.4458151 20.5279037,5.32961953 20.8430363,4.5088915 C20.9808895,4.14988255 21.0994451,3.59366832 21.0075276,3.21491615 C20.6986736,1.94190947 18.5271394,2.72219793 17.7992781,3.13403702 C15.873165,4.22395368 14.7519651,6.44704054 14.2619999,8.63340956 C15.6460719,8.21035995 17.3910276,7.88638955 18.7041418,7.01596306 Z M3.97905542,11.8683933 C2.75518116,12.0130408 1.30462932,12.6803617 1.42895574,14.0518122 C1.54238686,15.3020347 3.51245048,15.9740759 4.96641864,16.073609 C7.78243744,16.2666387 9.40823736,14.6321268 10.4779155,13.3240815 C8.90626886,12.7322841 6.31568115,11.5923059 3.97905542,11.8683933 Z M8.09216857,21.0878882 C7.45262387,21.6591709 6.68473625,22.6225494 6.61147,23.5139445 C6.44804054,25.5085546 8.38532593,25.5494027 9.65541287,25.0507388 C12.0259248,24.1196757 13.3208493,21.4878814 13.9328788,19.1468344 C13.9282622,19.0974991 13.9205523,19.0512046 13.8507024,19.0660461 C13.8005656,19.0705848 13.7532911,19.0781643 13.768526,19.1468344 C11.8664657,19.2702863 9.46239068,19.86458 8.09216857,21.0878882 Z" id="Shape" fill="#000000"></path>
    </g>
</svg>