<?xml version="1.0" encoding="UTF-8"?>
<svg width="28px" height="28px" viewBox="0 0 28 28" version="1.1" xmlns="http://www.w3.org/2000/svg" xmlns:xlink="http://www.w3.org/1999/xlink">
    <title>7I</title>
    <g id="7I" stroke="none" stroke-width="1" fill="none" fill-rule="evenodd">
        <path d="M1.84842534,17.6376276 C7.42737765,18.5465927 9.74630647,16.2390514 13.2078616,13.3367867 C16.7094073,10.4009445 19.290906,8.51129713 25.7100117,10.5744891 C20.366355,9.31569746 16.841043,12.2792776 14.3169869,14.4906486 C12.4013844,16.1689766 8.23394253,19.6655997 1.84842534,17.6376276 Z" id="Path" fill="#CF152D" fill-rule="nonzero"></path>
        <path d="M4.13841359,18.3850922 C9.7173659,19.2940572 12.0362947,16.9865159 15.4978498,14.0842512 C18.9993955,11.148409 21.5808942,9.25876168 28,11.3219536 C22.6563433,10.063162 19.1310312,13.0267422 16.6069752,15.2381131 C14.6913726,16.9164411 10.5239308,20.4130642 4.13841359,18.3850922 Z" id="Path" fill="#008EC8" fill-rule="nonzero"></path>
        <path d="M-3.37507799e-14,16.9731944 C4.87359173,17.8429249 7.8205309,15.3516197 11.292259,12.462494 C14.5948164,9.71424787 16.660296,7.93901957 23.0240639,9.71023318 C17.648134,8.75655894 14.8737859,11.3336328 12.3497299,13.5450037 C10.4341273,15.2233317 6.24309451,18.9407634 -3.37507799e-14,16.9731944 Z" id="Path" fill="#FAD665" fill-rule="nonzero"></path>
    </g>
</svg>