<?xml version="1.0" encoding="UTF-8"?>
<svg width="28px" height="28px" viewBox="0 0 28 28" version="1.1" xmlns="http://www.w3.org/2000/svg" xmlns:xlink="http://www.w3.org/1999/xlink">
    <title>7W</title>
    <g id="7W" stroke="none" stroke-width="1" fill="none" fill-rule="evenodd">
        <path d="M10.5420354,19.9128568 C10.7257758,19.8040982 10.9095163,19.8040982 11.0198359,19.8766349 C11.4976363,20.2030036 12.0121473,20.5655942 12.5634627,20.9282777 C12.7839136,21.0733511 12.9677482,21.1821097 13.1881991,21.3271831 C13.3352291,21.3997198 13.3719396,21.617237 13.3352291,21.8348471 C12.0856623,25.1710709 10.6890654,27.9634088 9.54972398,27.9996307 C8.44709301,28.0359455 7.93258209,25.388681 7.74884164,22.3425111 C7.71203707,22.1249939 7.82235665,21.9073838 8.0060971,21.7986252 C8.22664212,21.617237 8.48389758,21.4722565 8.70434847,21.2908683 C9.32917896,20.855741 9.95400946,20.3842989 10.5420354,19.9128568 Z M4.14754761,11.2095673 C4.29457762,11.1370306 4.44160763,11.1733454 4.47831807,11.282104 C4.55183308,11.4271774 4.58863765,11.6084727 4.66215265,11.7535461 C4.84589311,12.1886734 5.02963356,12.6238936 5.21337401,13.022799 C5.28688902,13.1315576 5.25017858,13.276631 5.139859,13.4217044 C4.73566766,13.9655904 4.33138219,14.5095692 3.92709672,15.0897699 C3.7800667,15.30738 3.63303669,15.4886753 3.48600668,15.7062854 C3.37578123,15.8875807 3.19204078,15.9601174 3.0082062,15.9601174 C1.13390298,15.6337487 -0.225983451,15.1260847 0.0312720078,14.2195153 C0.251817028,13.3491677 2.0158948,12.2612101 4.14754761,11.2095673 Z M22.2662199,7.25685583 C25.2802411,7.29312418 27.962927,7.6920203 27.9996374,8.77993149 C28.0363479,9.90409244 25.2802411,11.4271774 22.0459573,12.768967 C21.8247534,12.8415037 21.6044908,12.8052233 21.4943594,12.6601155 C21.3475177,12.4788202 21.2006759,12.2612101 21.0528929,12.0799148 C20.6490781,11.5722508 20.2819737,11.0645868 19.913928,10.5931447 C19.8405071,10.4480713 19.8405071,10.2667759 19.9506384,10.1217025 C20.392105,9.50518703 20.8326302,8.88871796 21.2740968,8.23597125 C21.457649,8.01838901 21.6044908,7.76454771 21.7513325,7.54696548 C21.8614638,7.36565159 22.0826678,7.25685583 22.2662199,7.25685583 Z M13.8862622,0.0403884303 C14.7316377,-0.249721126 15.3196637,1.05576672 15.7239491,2.90522038 C15.7239491,3.01400685 15.6504341,3.19533003 15.5034041,3.3041165 C15.2829532,3.44917133 15.0991186,3.6304945 14.8786677,3.77554004 C14.3273523,4.21070451 13.7760368,4.64586899 13.2615259,5.0447744 C13.1144958,5.15356087 12.9674658,5.18982922 12.8572404,5.15356087 C12.4529549,5.00850605 12.011959,4.82719216 11.570869,4.68213734 C11.3871285,4.64586899 11.2400985,4.57334157 11.0930685,4.53708251 C10.9461326,4.50081416 10.909328,4.35575934 11.056358,4.21070451 C12.011959,2.07115049 13.0409808,0.294234466 13.8862622,0.0403884303 Z" id="Combined-Shape" fill="#FE4138" fill-rule="nonzero"></path>
        <path d="M19.3642127,13.8931466 C17.5629538,14.5821059 16.239872,14.8359379 15.9091015,14.2919591 C15.6151356,13.8206099 16.1296465,12.7326522 17.1219579,11.4271774 C17.2689879,11.2095673 18.7759044,9.21508667 19.3642127,8.38102607 C21.826636,4.82719216 24.1412762,0.98323931 23.1124426,0.439287433 C22.2304508,0.00412384187 19.2164297,1.96236402 16.2766765,4.17444545 C16.1296465,4.28323192 16.0561315,4.4645551 16.0561315,4.57334157 C16.239872,5.80630758 16.166357,6.85795042 15.5783311,7.32938324 C15.0270156,7.76454771 14.1817342,7.61949289 13.2261332,7.14806007 C13.0791032,7.07553265 11.7928259,6.49531336 11.3150254,6.27773112 C8.8893126,5.2986157 6.24314888,4.50081416 5.28754792,5.47993887 C4.47897698,6.31399947 4.99358202,8.23597125 5.80215297,10.2304612 C5.83886341,10.3392198 5.98589342,10.3755346 6.13292343,10.3029979 C7.4560053,9.72279713 8.48502713,9.43265033 8.70557215,9.86787053 C8.8893126,10.2304612 8.41151213,11.1008087 7.56623074,12.2249882 C7.38249029,12.4425983 5.69183339,14.6546426 5.03029246,15.6337487 C2.67809464,18.9337506 0.32599094,22.5601212 0.877212296,23.5030055 C1.39181734,24.4095749 4.33204109,22.6326579 7.38249029,20.4205208 C7.5295203,20.3117622 7.63974575,20.0941521 7.63974575,19.9128568 C7.60303531,18.2810132 7.78677576,17.0480751 8.41151213,16.6128549 C8.96282761,16.1777275 9.80820312,16.4677815 10.76371,17.1568337 C10.91074,17.2655923 12.3808518,18.2810132 13.0056823,18.6799186 C16.386902,20.8194262 20.9813546,23.2128587 22.414003,21.6897737 C23.6273301,20.4205208 21.9000569,16.9755384 19.9515797,13.9293685 C19.7680275,13.8568318 19.5844753,13.8206099 19.3642127,13.8931466 Z" id="Path" fill="#18B6E1" fill-rule="nonzero"></path>
    </g>
</svg>