<?xml version="1.0" encoding="UTF-8"?>
<svg width="28px" height="28px" viewBox="0 0 28 28" version="1.1" xmlns="http://www.w3.org/2000/svg" xmlns:xlink="http://www.w3.org/1999/xlink">
    <title>8Q</title>
    <g id="8Q" stroke="none" stroke-width="1" fill="none" fill-rule="evenodd">
        <path d="M15.9773132,27 C9.34776841,27 3.95582534,21.528418 3.95582534,14.803802 C3.95582534,8.0777095 9.34776841,2.60470969 15.9773132,2.60470969 C22.6068579,2.60470969 28,8.0777095 28,14.803802 C28,21.528418 22.6068579,27 15.9773132,27 M15.9773132,3.78171044 C9.98863118,3.78171044 5.11602833,8.72651296 5.11602833,14.803802 C5.11602833,20.8796649 9.98863118,25.8229992 15.9773132,25.8229992 C21.9676076,25.8229992 26.8398053,20.8796649 26.8398053,14.803802 C26.8398053,8.72651296 21.9676076,3.78171044 15.9773132,3.78171044" id="path4220" fill="#1D4A94" fill-rule="nonzero"></path>
        <polyline id="path4232" fill="#DB1F26" fill-rule="nonzero" points="-1.77635684e-14 16.5176244 23.5360556 16.5176244 10.6687887 1 4.99130564 1 10.9430992 15.4482849"></polyline>
    </g>
</svg>