<?xml version="1.0" encoding="UTF-8"?>
<svg width="28px" height="28px" viewBox="0 0 28 28" version="1.1" xmlns="http://www.w3.org/2000/svg" xmlns:xlink="http://www.w3.org/1999/xlink">
    <title>9C</title>
    <g id="9C" stroke="none" stroke-width="1" fill="none" fill-rule="evenodd">
        <path d="M6.8190702,7.61914296 C6.8190702,12.8857443 12.6926277,16.6530806 9.42584623,21.7551239 C7.07105855,25.4327351 2.12158422,20.9081341 4.99206021,18.0585253 C5.39667718,17.6568101 6.06310514,17.1523392 6.6826867,17.101706 C6.51116839,16.6318593 5.32905212,13.4695158 5.24971546,13.1336983 C2.87641589,13.1858207 -3.09914594,18.7770705 2.00257922,25.2108424 C2.90777276,26.3526964 4.77596225,27.3910501 6.81944799,27.3910501 C15.1724651,27.3910501 14.0220835,17.3705089 20.8775267,17.3705089 C23.6093524,17.3705089 25.0000108,21.0276434 22.1042226,22.9509619 C20.4921772,23.8701785 19.3561518,22.7402382 18.5571182,22.2126846 L15.690798,25.2391375 C16.8419352,26.9331171 22.8711437,29.6818318 26.6785479,24.5001156 C28.7537683,21.6758233 28.2932378,17.958748 25.9376946,15.0741426 C22.8473427,11.2900527 16.1245051,14.4077199 12.1920512,10.3950358 C9.94304571,8.10015872 11.3420155,4.79485073 13.984682,4.79485073 C15.4954787,4.79485073 17.1490814,6.49218111 16.7108408,8.35555872 C16.6602164,8.57037768 16.5978805,8.66308118 16.5778574,8.89725991 C17.3047324,9.07633776 20.1468738,9.83881475 20.6723848,9.83881475 C22.7925626,0.871147087 11.0469587,-3.18993644 7.49947652,4.72560233 C7.16701813,5.46760264 6.8190702,6.56217411 6.8190702,7.61951526 L6.8190702,7.61914296 Z" id="Path" fill="#009846"></path>
    </g>
</svg>