<?xml version="1.0" encoding="UTF-8"?>
<svg width="28px" height="28px" viewBox="0 0 28 28" version="1.1" xmlns="http://www.w3.org/2000/svg" xmlns:xlink="http://www.w3.org/1999/xlink">
    <title>9K</title>
    <g id="9K" stroke="none" stroke-width="1" fill="none" fill-rule="evenodd">
        <path d="M23.8683758,0.0155940185 C23.9026406,0.00392422283 24.0284066,-0.0311113884 23.9941418,0.068121211 C24.0055377,0.377672375 23.9141135,0.850653126 23.9484554,1.15435628 C23.9198115,1.20106169 23.9369311,1.34125658 23.896994,1.37044418 C23.8912447,1.39963178 23.9026406,1.42884561 23.9141135,1.4521852 C23.8055185,1.63318504 23.8626778,1.89018279 23.7997435,2.09457467 C23.6340661,2.38073379 23.6054992,2.71939389 23.5083001,3.03476683 C23.3711381,3.23915872 23.399705,3.5312183 23.2339762,3.71221814 C23.1997114,3.92827982 23.0624725,4.13851971 22.9767462,4.35458139 C22.8738491,4.49477628 22.8281627,4.68749837 22.7366872,4.8509804 C22.6223941,5.23055034 22.3823351,5.58678068 22.3137028,5.97219863 C22.0393789,6.49781147 21.8565306,7.06422926 21.4793096,7.55483272 C21.4849306,7.5606545 21.4963522,7.57235052 21.4907056,7.58399409 C21.3192018,7.77089439 21.2792134,8.00447388 21.1877378,8.22638356 C20.7133177,8.9622363 20.1303795,9.54619811 19.490205,10.1885876 C19.2787898,10.2586588 19.0443773,10.4513547 19.0901151,10.4572289 C18.3699893,10.9769675 17.7241424,11.69525 17.186865,12.3493093 C16.7810002,13.0500739 16.1179567,13.6749718 16.2494463,14.609316 C16.2894861,14.6852352 16.30658,14.79619 16.2951841,14.8721355 C16.3466198,14.9013231 16.3408705,14.9538503 16.3637907,14.9888859 C16.3751867,15.3159549 16.5809809,15.5612042 16.6209693,15.8824251 C16.7696042,16.1626838 16.9010682,16.5013963 17.0724949,16.8050733 C17.1582211,16.9511162 17.2953831,17.1087764 17.3754883,17.2313748 C17.6097724,17.3423559 17.8498828,17.4824983 18.0384547,17.6635768 C18.0784945,17.7219783 18.1527478,17.7978975 18.1870126,17.8737643 C18.1527478,17.9438355 18.0670216,17.9438355 17.9926913,17.9438355 C17.6212453,17.7686575 17.3297249,17.5234082 16.9582019,17.3481777 C16.8382108,17.2956243 16.7238408,17.3656955 16.6209693,17.4124271 C16.3523178,17.3890351 16.0894669,17.3540781 15.8779747,17.1963392 C15.7979464,17.1788476 15.694998,17.126268 15.7179182,17.0152869 C15.7807242,16.9627335 15.8551058,16.9861255 15.9236611,16.9686077 C15.9064902,16.9511162 15.9236611,16.9102063 15.940832,16.8868667 C15.9179374,16.8576267 15.8951456,16.8284653 15.8608038,16.8226173 C15.7693026,16.8109475 15.7465107,16.8926885 15.683602,16.9160543 C15.5864542,17.0912324 15.6150467,16.7992777 15.4892807,16.8693227 C15.4721098,16.8284653 15.5235456,16.8167955 15.5407165,16.7875554 C15.620796,16.7116624 15.6893513,16.8635271 15.7465107,16.7875554 C15.7864735,16.664957 15.6493116,16.7817337 15.6664825,16.7233847 C15.7465107,16.7174842 15.7350378,16.635717 15.815066,16.5889853 C15.809368,16.553976 15.8265133,16.5130923 15.7979464,16.4897527 C15.7636046,16.5306364 15.7465107,16.4547171 15.7179182,16.5072968 C15.6092718,16.4780567 15.6722574,16.6824486 15.5235456,16.670805 C15.4492923,16.553976 15.4492923,16.7817337 15.3463438,16.7233847 C15.3463438,16.6999664 15.3463438,16.6824486 15.3292243,16.670805 C15.312079,16.647413 15.2949081,16.5889853 15.3463438,16.5889853 C15.3349479,16.553976 15.3064324,16.5306364 15.2663926,16.5423062 C15.2435237,16.5306364 15.2263528,16.553976 15.2321021,16.5714675 C15.1863644,16.5889853 15.1406266,16.548128 15.1177577,16.5423062 C15.1006382,16.5189141 15.1177577,16.4780567 15.1349286,16.4547171 C15.1520996,16.4372256 15.1748914,16.320344 15.1177577,16.3554321 C15.0206356,16.4196815 14.9349094,16.3320925 14.9749492,16.2445035 C14.9406074,16.145166 14.8662771,16.2211114 14.7977218,16.174406 C14.8205393,15.9466746 15.0263336,16.1510664 15.1349286,16.1101566 C15.1691935,16.010924 15.0377295,16.0634512 15.0377295,15.9816839 C14.946254,15.9641137 14.883448,15.7831138 14.7805766,15.8940425 C14.7233402,15.9116127 14.6890754,15.8765247 14.6833774,15.8298455 C14.5633094,15.7247649 14.5862553,15.9408265 14.5404918,15.99338 C14.5233466,16.0166671 14.4376204,16.0342374 14.4547913,15.9816839 C14.4661872,15.8999167 14.391857,15.8882731 14.3290253,15.8940425 C14.3347233,15.8298455 14.4033299,15.7948361 14.4547913,15.7305604 C14.4775832,15.7013466 14.4947541,15.6371496 14.4433184,15.6137576 C14.3633671,15.6137576 14.3061564,15.7072208 14.2661166,15.765596 C14.1461,15.8415153 14.1746925,15.6254536 14.0717954,15.6487932 C13.9859921,15.6546936 13.8717761,15.6605154 13.8603545,15.5495606 C13.8260383,15.5378121 13.757483,15.5319903 13.7288392,15.5845962 C13.6260191,15.5845962 13.6030732,15.4619453 13.5688597,15.3860261 C13.523122,15.4151875 13.4431707,15.3918741 13.4259228,15.4502231 C13.4202248,15.5378121 13.517347,15.5845962 13.5688597,15.6312754 C13.5573868,15.7831138 13.7517594,15.7422564 13.7974458,15.8648811 C13.9060409,15.7948361 13.9746732,15.9816839 14.0375049,16.0284156 C14.0375049,16.1335224 14.1517979,16.0867908 14.1975613,16.145166 C14.2432991,16.1918976 14.2432991,16.232755 14.2146553,16.2911827 C13.757483,16.7583941 13.2373252,17.2489188 12.9401068,17.8270851 C12.5057264,18.3935291 12.3285247,19.0709804 12.0541752,19.7074694 C11.9798706,19.9877543 11.836985,20.2388778 11.7798513,20.5309112 C11.7398629,20.636018 11.6941251,20.7469991 11.6655583,20.8579277 C11.5626611,21.2550155 11.3797615,21.5937542 11.1339788,21.9149227 C11.0539762,21.9908944 11.0311073,22.1368849 10.9396062,22.160172 C10.6539377,22.510633 10.2765884,22.7325165 10.0194098,23.053685 C9.27066578,23.9004663 8.49902725,24.6946943 7.58460582,25.3429318 C7.15022549,25.6115731 6.86442869,25.9560812 6.45291723,26.2364447 C6.06999828,26.5868533 5.62406801,26.9196654 5.22397816,27.2058507 C5.05830071,27.3576368 4.94393066,27.4803138 4.78959782,27.5853682 C4.65243589,27.6613661 4.52102326,27.7839908 4.4009809,27.8657318 C4.36099245,28 4.18954004,27.9533208 4.08089362,28 C3.97229854,28 4.00656335,27.8657318 4.00086538,27.8190002 C4.08659159,27.7781428 4.02373426,27.6262781 4.11515844,27.5853682 C4.28668785,27.5211712 4.30378176,27.3168056 4.4695362,27.1941285 C4.41242818,27.2058507 4.36669042,27.1824062 4.29238582,27.1941285 C4.11515844,27.1708151 4.29238582,27.048138 4.25809534,26.9605752 C4.44094369,26.8261759 4.51527396,26.6043449 4.67538177,26.4641762 C4.70387161,26.3415254 4.86392809,26.3064897 4.93830969,26.2188483 C4.93253472,26.1780695 5.02973386,26.1312592 5.08111826,26.1021241 C5.26971591,26.0612142 5.41835078,25.8743926 5.56698565,25.7574849 C5.49837902,25.7341715 5.40695484,25.7341715 5.33834821,25.7574849 C5.21833152,25.7283497 5.12115804,25.8626179 5.00109002,25.8859837 C4.97822114,25.979447 4.8868483,26.0320266 4.80676873,26.0553925 C4.80107076,26.2364447 4.62392037,26.0495707 4.56670968,26.1196157 C4.51527396,26.1430339 4.49240508,26.1196157 4.45241663,26.1021241 C4.45241663,26.067036 4.44094369,26.0261262 4.48098347,26.002839 C4.44671866,25.8802144 4.60674947,25.8859837 4.59527653,25.7750289 C4.77250391,25.7224755 4.7439114,25.4888435 4.94965429,25.512288 C5.03535483,25.2553427 5.36121709,25.4538342 5.48690608,25.2144329 C5.71556918,25.2144329 5.81276833,25.033433 5.96702417,24.916604 C6.30420536,25.0625682 6.3843106,24.5370603 6.71007018,24.6537844 C6.85300708,24.6772027 6.9672488,24.4786064 7.06449928,24.420205 C7.17304303,24.443597 7.13305458,24.3092763 7.21308282,24.2917848 C7.45883983,24.3325635 7.59600176,24.104832 7.72746572,23.9763331 C7.59030379,23.9062881 7.49887962,24.034787 7.37311363,24.0406875 C7.25874357,24.0640008 7.21308282,24.2041433 7.09878976,24.1749295 C6.99019468,24.2858843 6.84155981,24.2975541 6.71007018,24.356008 C6.64723852,24.4494712 6.53286847,24.420205 6.47001114,24.5195162 C6.41862675,24.5603736 6.35566675,24.5195162 6.30998033,24.5019722 C6.17851637,24.6071053 6.04705241,24.5661954 5.92128641,24.6713285 C5.83556021,24.7122383 5.70417325,24.7181125 5.61267207,24.7822833 C5.4641142,24.7414259 5.37838799,24.8582025 5.24114906,24.8991124 C5.16119783,25.0801122 4.8868483,24.9633356 4.7439114,24.998345 C4.72104252,24.9691574 4.68107973,24.9867014 4.66390883,24.9516134 C4.74963503,24.8057016 4.93253472,24.7238819 4.94965429,24.5370603 C5.02973386,24.542882 5.01826093,24.443597 5.06399868,24.420205 C5.16119783,24.4085614 5.16119783,24.525338 5.22397816,24.5720959 C5.38978393,24.6071053 5.49837902,24.507794 5.62984298,24.4727846 C5.80704469,24.6421146 5.87559999,24.3501075 6.06422331,24.4026872 C6.16142246,24.1808299 6.41287744,24.2742407 6.53286847,24.0756969 C6.59007916,24.034787 6.68158034,24.0932409 6.72724109,24.0231434 C6.88729757,24.0640008 6.98441971,23.8887441 7.13305458,23.9413237 C7.20735918,23.7194665 7.48170871,23.8420911 7.59600176,23.6435473 C7.69882188,23.6669131 7.68172797,23.544236 7.72746572,23.4975044 C7.73886166,23.3573619 7.52169716,23.4916826 7.43597095,23.4508252 C7.28163812,23.5792716 7.05297501,23.5909676 6.87012666,23.6961007 C6.76728088,23.6727349 6.6700304,23.8186991 6.58432986,23.6961007 C6.44139296,23.8186991 6.27571551,23.8712787 6.09848813,23.9121886 C5.97272214,24.0231434 5.80129539,24.0231434 5.66413346,24.0932409 C5.60127613,24.1107325 5.56698565,24.2041433 5.49837902,24.2041433 C5.42977238,24.3267941 5.26401794,24.2449745 5.19546264,24.3384639 C5.13825195,24.3384639 5.09256553,24.443597 5.04682777,24.3384639 C5.17829173,24.2158655 5.08681622,23.9238322 5.33834821,23.9238322 C5.37838799,23.8946446 5.40117987,23.8596352 5.40117987,23.8128773 C5.48120811,23.8304214 5.56123635,23.8245996 5.62984298,23.8596352 C5.75560897,23.8596352 5.85273112,23.8011813 5.96702417,23.7778679 C6.07569625,23.6669131 6.16712043,23.6201815 6.32137627,23.6318775 C6.35002011,23.4799603 6.50435295,23.6494215 6.58432986,23.5500578 C6.68158034,23.526692 6.79579639,23.526692 6.88729757,23.4799603 C7.00151362,23.3923713 7.14445052,23.3807802 7.29308539,23.3632362 C7.48740668,23.2113715 7.77320348,23.2113715 7.92178701,23.0186756 C7.91608905,22.9836138 7.93325995,22.9310604 7.90466744,22.9019252 C7.80171899,22.9135426 7.68172797,22.8785069 7.59600176,22.9369346 C7.36164069,22.8785069 7.21878079,23.2464071 7.01868453,23.0712028 C6.8129673,23.1880057 6.55581434,23.1762834 6.32137627,23.2171933 C6.20716021,23.386602 6.03565647,23.3047823 5.8870216,23.3515401 C5.80129539,23.3573619 5.69270031,23.4099153 5.62984298,23.3632362 C5.59557816,23.2814165 5.68700234,23.2464071 5.70987122,23.1821839 C5.92706138,23.1237562 6.12708064,23.1821839 6.32137627,23.0712028 C6.45291723,22.9077208 6.72154312,23.0478632 6.84155981,22.8901767 C6.92156238,22.9135426 7.03023446,22.8025615 7.11593501,22.8901767 C7.178741,22.8084357 7.2531226,22.9077208 7.31020496,22.8025615 C7.35594272,22.7266947 7.51597353,22.7734001 7.55031534,22.6916329 C7.73316369,22.6273834 7.93325995,22.7617041 8.06464692,22.57483 C8.16754403,22.3178847 7.90466744,22.5281508 7.84175878,22.3938039 C7.75603257,22.1251364 8.11610831,22.2945451 8.11610831,22.1310106 C8.34474575,22.0025118 7.95043086,22.008386 8.08181782,21.850752 C8.13897718,21.8448515 8.17901697,21.7923243 8.2418743,21.7981723 C8.29908499,21.8215119 8.29331002,21.8857614 8.35616735,21.8799133 C8.41330104,21.8564951 8.39050917,21.7923243 8.41907601,21.7514145 C8.48193334,21.7455927 8.51055152,21.8332342 8.56765955,21.850752 C8.69912351,21.8857614 8.55053998,21.6988348 8.59627773,21.6346641 C8.53331773,21.6229418 8.43047195,21.6988348 8.40760308,21.5996022 C8.19041291,21.61712 8.03615707,21.7338704 7.82466487,21.6696735 C7.57313289,21.6404596 7.86462765,21.9791722 7.58460582,21.8799133 C7.47601074,21.9499846 7.38450956,21.9032792 7.27591448,21.9616544 C7.13305458,21.9441628 7.01868453,22.0025118 6.87012666,21.9791722 C6.80157136,22.0550652 6.71007018,21.984994 6.63011894,21.9791722 C6.57860622,21.8448515 6.78440045,21.9149227 6.77300451,21.7806545 C7.03023446,21.7514145 7.36164069,21.8682436 7.59600176,21.6813433 C7.60177673,21.6521819 7.59600176,21.6229418 7.56743492,21.5996022 C7.43027299,21.6287636 7.31590293,21.5353528 7.178741,21.61712 C7.11593501,21.5528706 6.95585286,21.5528706 7.01868453,21.4010321 C7.07014592,21.2199798 7.2531226,21.3893623 7.35594272,21.3075689 C7.44741823,21.4010321 7.59600176,21.3309609 7.71029482,21.3368614 C7.90466744,21.4711034 8.16754403,21.3718445 8.37333826,21.3368614 C8.47051174,21.0097924 8.08751579,21.2842293 7.98469568,21.1382913 C7.88749653,20.9747306 7.68750294,21.0739632 7.56743492,20.9747306 C7.52169716,20.9397212 7.57313289,20.9046593 7.59600176,20.8754717 C7.77320348,20.8754717 7.95043086,20.8579277 8.06464692,20.9922484 C8.173319,20.9688826 8.22470339,21.0798636 8.33904778,21.0389538 C8.48193334,21.1557829 8.64196415,21.0331582 8.79054769,21.027284 C8.76195517,20.8579277 8.64773912,20.787804 8.55053998,20.6769017 C8.45334083,20.6710536 8.40760308,20.6418398 8.3104296,20.6301438 C8.22470339,20.7761605 8.16189739,20.5600726 8.04747601,20.6301438 C7.97894637,20.46084 7.81324326,20.6126522 7.72746572,20.5309112 C7.69882188,20.4783578 7.59030379,20.5133934 7.63029225,20.4141083 C7.91039108,20.2797877 8.16754403,20.5133934 8.45334083,20.5133934 C8.47623537,20.4900014 8.49902725,20.4666618 8.51619816,20.449144 C8.56765955,20.4082866 8.63626618,20.3849207 8.58480479,20.2973317 C8.52197313,20.2564219 8.46476244,20.3089491 8.40760308,20.3148233 C8.35616735,20.3089491 8.35046938,20.2564219 8.35616735,20.2155907 C8.32187687,20.145467 8.26474318,20.2155907 8.21335878,20.1980204 C8.13897718,20.1162532 8.04747601,20.0929398 7.93895792,20.0520562 C7.93895792,19.9936286 7.86462765,19.9176831 7.93895792,19.8710301 C8.12758124,19.8710301 8.27044114,19.9936286 8.45334083,20.0170206 C8.51619816,19.9936286 8.46476244,19.9411014 8.47051174,19.9060395 C8.41907601,19.8476119 8.38478553,19.7133699 8.27613911,19.7542011 C8.25332157,19.7834411 8.21335878,19.8009327 8.21335878,19.8359683 C8.08751579,19.9001915 8.17901697,19.7367095 8.16189739,19.6899516 C8.12185761,19.6491205 8.06464692,19.6315764 8.00181525,19.6373982 C7.91039108,19.6257809 7.91039108,19.4972558 7.93895792,19.4272108 C7.99609162,19.4213103 8.03615707,19.3687569 8.0989374,19.3746311 C8.2418743,19.4913815 8.45906447,19.4272108 8.59627773,19.555631 C8.65908373,19.6023626 8.72199239,19.5498092 8.69339988,19.47389 C8.52197313,19.4680419 8.41330104,19.2636501 8.25904521,19.2461323 C8.20758382,19.176061 8.07619685,19.1585695 8.0989374,19.0475622 C8.11610831,18.9950087 8.19041291,19.0067048 8.23045269,18.9658474 C8.38478553,18.9716167 8.51619816,19.076776 8.6133973,19.1935788 C8.66483303,19.2811679 8.75055924,19.2286407 8.80776993,19.1935788 C8.87632523,18.8899019 8.51619816,18.9774909 8.41907601,18.7964386 C8.39050917,18.7672773 8.42477398,18.6621704 8.33904778,18.697206 C8.3161789,18.6329566 8.23045269,18.5570636 8.3104296,18.4870186 C8.36186532,18.5102795 8.42477398,18.522028 8.47051174,18.5687072 C8.63626618,18.5570636 8.74486127,18.8665099 8.88772117,18.7147501 C8.86492929,18.603769 8.80199496,18.522028 8.69339988,18.4694484 C8.59627773,18.4169474 8.53331773,18.2709045 8.41907601,18.2533867 C8.39050917,18.1774674 8.40760308,18.0781562 8.47051174,18.0256552 C8.50480222,18.0314245 8.54484201,18.0080849 8.56765955,18.0372988 C8.73343966,18.0372988 8.7391633,18.3643153 8.93918256,18.2709045 C8.93345892,18.2358689 8.89341914,18.2183773 8.87062726,18.1890848 C8.670531,18.1657976 8.76773014,17.9322182 8.56765955,17.9087999 C8.60769934,17.8387287 8.57335752,17.6927382 8.63056821,17.628515 C8.69912351,17.5467478 8.77342811,17.6401586 8.84203474,17.6635768 C8.9677494,17.5234082 8.66483303,17.4766765 8.79054769,17.2956243 C8.80199496,17.2430971 8.86492929,17.2664367 8.88772117,17.213857 C9.21928139,17.2547669 8.83628544,17.0737146 8.93918256,16.9335721 C8.94493186,16.8518049 9.03065807,16.8985365 9.08209379,16.8868667 C9.16207069,16.7817337 9.15642406,16.6824486 9.13347818,16.553976 C9.13920182,16.4663869 9.2535462,16.5072968 9.31070556,16.4722349 C9.31640353,16.4372256 9.35074535,16.3671543 9.29358599,16.3437361 C9.2535462,16.2619951 9.29358599,16.1802016 9.35636632,16.145166 C9.5221721,16.1393442 9.41357701,15.9174345 9.5335937,15.9116127 C9.6765306,15.9057909 9.69370151,15.7539262 9.68222857,15.6487932 C9.66505766,15.602114 9.75078387,15.578722 9.69370151,15.5319903 C9.73936226,15.4502231 9.86512826,15.3626341 9.92228762,15.2691708 C10.0137118,15.1991258 10.1337798,15.0764749 10.1337798,14.9422329 C10.1166089,14.6618694 10.3967077,14.5918244 10.5853054,14.4457815 C10.6595587,14.1479788 10.7853247,13.8851593 11.0653721,13.750891 C11.0196857,13.6223922 11.1454004,13.5464729 11.1510984,13.4413399 C11.0482526,13.3537509 11.0311073,13.1844208 10.8768258,13.1610812 C10.8768258,12.8631999 10.5509636,13.0559482 10.5052258,12.7814326 C10.4824339,12.7873068 10.4480921,12.763941 10.4366705,12.7989504 C10.4309726,12.8281905 10.4537901,12.845682 10.470961,12.8631999 C10.6081229,13.2136084 10.2995086,12.7989504 10.2594688,13.0266819 C10.1565717,13.1085016 10.1908622,12.9449671 10.1795176,12.9099315 C10.1223069,12.9274493 10.1166089,12.9916725 10.0823184,13.0266819 C10.0308827,13.0442521 9.99089425,13.0092165 9.98514495,12.9625111 C9.89364377,12.9683329 9.89941874,13.073466 9.85937895,13.1260194 C9.7450859,13.1318412 9.64793809,13.0617699 9.56793552,13.0092165 C9.51647413,13.2019124 9.44216952,13.0384304 9.32787647,13.1260194 C9.21350642,13.003421 9.16207069,13.2194302 9.03635604,13.1610812 C8.85920565,13.0384304 8.670531,13.1201714 8.48763131,13.0266819 C8.36764029,13.0209125 8.33904778,12.9216013 8.35616735,12.8281905 C8.29331002,12.7756108 8.28191408,12.676352 8.2418743,12.6003803 C8.19041291,12.5186655 8.26474318,12.4486205 8.3104296,12.3843711 C8.20188585,12.2967558 8.21335878,12.1624352 8.14472649,12.0573283 C8.16189739,11.9872571 8.25332157,12.0047749 8.23045269,11.9229815 C8.28191408,11.8704018 8.3161789,11.940473 8.32187687,11.9872571 C8.35616735,11.9989007 8.36764029,11.9755611 8.39050917,11.9580695 C8.35616735,11.8821503 8.3104296,11.8062048 8.23045269,11.788687 C8.23045269,11.6543664 8.33334981,11.6018392 8.40760308,11.4966799 C8.53331773,11.374029 8.64196415,11.5025279 8.76195517,11.5609556 C8.81916587,11.5959912 8.88772117,11.5609556 8.93918256,11.5258675 C8.89341914,11.4499745 8.77912608,11.4966799 8.76195517,11.3974211 C8.7391633,11.3214756 8.56765955,11.3390196 8.51619816,11.2455302 C8.57335752,11.0937441 8.40190511,11.0119769 8.48763131,10.8660389 C8.48193334,10.7725494 8.55053998,10.7550578 8.6133973,10.7666752 C8.69912351,10.825129 8.7391633,10.7258178 8.74486127,10.6557466 C8.91066704,10.6148892 8.68200394,10.4629982 8.82486384,10.3871577 C8.7562572,10.2936944 8.80199496,10.2527846 8.79054769,10.1593738 C8.87632523,10.0892501 8.94493186,10.0776065 9.05347561,10.1068466 C9.15064909,10.0659629 9.16782,10.0075353 9.24215026,9.94328586 C9.2535462,9.84402703 9.12208224,9.89655423 9.13347818,9.79732163 C9.19633551,9.77395581 9.20785978,9.6103951 9.31070556,9.69803658 C9.45926343,9.58705551 9.65366172,9.57535949 9.82508847,9.51698429 C9.77940205,9.41772547 9.95085446,9.38266363 9.8879458,9.28343103 C9.91658965,9.26006522 9.93945852,9.23082517 9.96797404,9.21915537 C10.0080138,9.18996777 10.105136,9.19581578 10.099438,9.25416476 C10.1451758,9.30097506 10.2194804,9.30671817 10.2137824,9.21915537 C10.2880357,9.19581578 10.3395484,9.13156634 10.4081037,9.11989655 C10.4767103,9.09650451 10.5395163,9.14905792 10.5338183,9.21915537 C10.590952,9.21915537 10.6367668,9.30671817 10.6995984,9.25416476 C10.7053221,9.18409353 10.6309918,9.18409353 10.602425,9.15493216 C10.6081229,9.0789867 10.5738581,8.99139767 10.6309918,8.93884426 C10.602425,8.65268513 10.9053413,8.83373742 10.9853439,8.64104156 C11.0253837,8.64104156 11.0368566,8.71111278 11.0825431,8.69359498 C11.1968361,8.83958543 11.22548,8.67020294 11.2768643,8.59430993 C11.3511689,8.61767575 11.4083283,8.54170406 11.471237,8.59430993 C11.5169234,8.51254269 11.596926,8.5884357 11.6140969,8.64104156 C11.8484066,8.70526477 11.831287,8.47750708 11.9398821,8.37822203 C12.0085144,8.38404381 12.082819,8.42495366 12.1171095,8.47750708 C12.2656674,8.38404381 12.3856584,8.51844315 12.5342933,8.42495366 C12.6428884,8.47163284 12.6029256,8.62352376 12.6314411,8.69359498 C12.5000285,8.95048783 12.7514834,9.16075394 12.6657572,9.40020766 C12.7058227,9.48779669 12.7229166,9.6103951 12.7115207,9.69803658 C12.8143921,9.85569683 12.7171416,10.0367491 12.7972469,10.2061054 C12.7743523,10.2119272 12.7058227,10.5506397 12.7801273,10.6207372 C12.7400875,10.8426206 12.8829474,10.9827893 13.0373059,11.0820481 C13.134428,10.8835567 13.3287493,10.8309771 13.4431707,10.6674688 C13.5573868,10.6615683 13.523122,10.5330695 13.5516375,10.4572289 C13.6002499,10.3768778 13.5688597,10.3637656 13.6831528,10.2761766 C13.8317363,10.317034 13.7802749,10.1185164 13.9232118,10.141856 C13.9118159,9.92576805 14.1918377,9.83817902 14.2661166,9.64545694 C14.3119057,9.58705551 14.3518942,9.5111625 14.4433184,9.48194868 C14.4547913,9.45273485 14.5233466,9.42934281 14.4890561,9.40020766 C14.4890561,9.34762802 14.5462155,9.30671817 14.5862553,9.28343103 C14.889146,9.37104628 14.6605599,9.03815553 14.7977218,8.95636206 C14.8262373,8.92132645 14.883448,8.95636206 14.9062655,8.92132645 C14.946254,8.73445237 15.1177577,8.70526477 15.2492217,8.6059535 C15.2263528,8.51844315 15.2777886,8.44829325 15.3463438,8.39576606 C15.4150275,8.34318642 15.5007537,8.38404381 15.5692833,8.36070422 C15.575007,8.30235524 15.5121496,8.34318642 15.4892807,8.31397259 C15.4549903,8.19137418 15.5407165,8.12712474 15.6379156,8.0628753 C15.7007729,8.03953571 15.7750775,8.0920629 15.8265133,8.14461632 C15.9579259,7.98113428 16.0665723,8.33736463 16.1522985,8.09788469 C16.060823,8.05120551 15.94653,8.05705352 15.8779747,7.9636427 C15.820764,7.88767102 15.9122395,7.83514383 15.9579259,7.78256419 C16.0322562,7.73583256 16.1066378,7.73583256 16.186589,7.78256419 C16.2437997,7.73583256 16.1980619,7.64242174 16.2665916,7.6015119 C16.3237509,7.53144068 16.4209501,7.44385165 16.5238215,7.5022793 C16.5866789,7.5022793 16.5752829,7.6190297 16.6381403,7.57235052 C16.5809809,7.5022793 16.6209693,7.37965466 16.5409924,7.33874481 C16.3352239,7.23945977 16.7124449,7.20442416 16.7010489,7.0584337 C16.8439088,7.10513911 16.8724757,6.90656901 17.0096633,6.97664023 C17.0325321,6.92996105 17.1296543,6.94160462 17.1011388,6.85988983 C17.2039589,6.83062356 17.2440243,6.98251447 17.312554,7.04088967 C17.3468444,7.03509411 17.3868072,7.0584337 17.4097531,7.02337187 C17.3411465,6.97664023 17.4154511,6.90077345 17.3297249,6.84237202 C17.5012286,6.79561417 17.2782892,6.69638157 17.3468444,6.6145881 C17.4039781,6.59124851 17.432622,6.64962371 17.4726104,6.66131973 C17.5126502,6.6145881 17.678379,6.69048111 17.6669317,6.5970703 C17.6384162,6.5678827 17.5926528,6.58537428 17.5583366,6.57955249 C17.5240462,6.56203469 17.5183482,6.53282086 17.5240462,6.49781147 C17.5697839,6.43358826 17.6440372,6.39855265 17.7011965,6.41607046 C17.8269625,6.38680418 17.9069908,6.26417954 18.0213352,6.35176857 C18.0670216,6.50365948 18.1927876,6.57373071 18.2328274,6.74303453 C18.3756873,6.68465932 18.3413454,6.85404182 18.4728094,6.81310575 C18.5071512,6.80146218 18.5356667,6.7723008 18.5242708,6.73139096 C18.4671114,6.69048111 18.4671114,6.62628412 18.3928068,6.63213213 C18.2099585,6.5970703 18.3585164,6.28757158 18.1355769,6.31673296 C17.9412556,6.25835776 18.0898905,6.11239353 18.1699187,6.01893026 C18.2442233,6.03065251 18.3070806,6.00141246 18.3813852,6.00141246 C18.4271487,6.03065251 18.4327696,6.0831797 18.4271487,6.13573312 C18.547191,6.22914393 18.5814815,6.30508939 18.7014725,6.36346459 C18.7300394,6.47447188 18.7985947,6.58537428 18.861529,6.66131973 C18.8386344,6.83652401 19.0501266,6.7723008 19.1187333,6.81310575 C19.1530238,6.73721274 19.0672976,6.74303453 19.0386537,6.71387315 C19.101588,6.42771403 18.741461,6.41607046 18.7643298,6.15325092 C18.7529339,6.04809164 18.6385639,6.0423223 18.5700086,6.00141246 C18.5700086,5.90212741 18.4499405,5.93134124 18.4271487,5.855422 C18.478533,5.77368099 18.5014019,5.69186129 18.604299,5.65685191 C18.7186434,5.66269992 18.7014725,5.82626063 18.7814238,5.87291358 C18.8101446,5.8670918 18.8444094,5.8846096 18.861529,5.855422 C18.8957938,5.73277114 18.8101446,5.68609196 18.7643298,5.6101465 C18.9586511,5.53420104 18.8101446,5.3532012 18.8786742,5.21300631 C18.9072667,5.18387116 18.9072667,5.0962559 18.975822,5.13129152 C19.0443773,5.18387116 19.0443773,5.26555973 19.0558246,5.34153141 C19.0844171,5.37654079 19.1300779,5.42327242 19.1701177,5.3940586 C19.1300779,5.32986161 19.23875,5.32398738 19.2044595,5.25979039 C19.0786935,5.24804192 19.101588,5.0962559 19.1187333,5.01448866 C19.0844171,4.98530106 19.0615226,4.95023922 19.0729955,4.89768581 C19.1530238,4.82764081 19.1358529,4.71665974 19.2158811,4.63491872 C19.3873848,4.60565245 19.23875,4.83343637 19.2844877,4.95023922 C19.3187525,4.9794006 19.352966,5.03200647 19.3930315,5.0495505 C19.5588116,5.10789948 19.3359234,5.3532012 19.5244954,5.35902299 C19.610196,5.42327242 19.7131701,5.48752186 19.6673553,5.62179007 C19.6845776,5.69776175 19.7646058,5.61602073 19.7817254,5.69186129 C19.7874234,5.81453838 19.7646058,5.97802042 19.861728,6.03644807 C20.0732202,6.00723424 19.8217652,5.79702058 19.9302833,5.7386716 C19.9245853,5.68021772 20.0160095,5.59845048 19.9131893,5.55759308 C19.7531329,5.56923666 19.8903205,5.32986161 19.736039,5.34153141 C19.6388398,5.25979039 19.6159196,5.21888054 19.604575,5.0787381 C19.5874041,5.06704208 19.5816291,5.03782825 19.5588116,5.0495505 C19.5531136,5.01448866 19.5588116,4.98530106 19.5874041,4.96193524 C19.6617087,4.91522984 19.5759825,4.880168 19.5588116,4.83343637 C19.5359427,4.74002556 19.5874041,4.68159791 19.6388398,4.61740092 C19.5702332,4.52393766 19.6446148,4.36627741 19.5702332,4.27284037 C19.5130738,4.25529634 19.5531136,4.20276915 19.5416663,4.13851971 C19.5988,4.07427027 19.610196,3.89319176 19.7188681,3.93997584 C19.724566,4.00419905 19.7760018,4.04510889 19.7646058,4.10927966 C19.9245853,4.24947455 19.6673553,4.31954577 19.7646058,4.48892827 C19.7646058,4.54145546 19.844557,4.51808965 19.8160415,4.58236531 C19.7531329,4.85677596 19.9817446,4.93272142 19.9932689,5.16045289 C20.0046135,5.1954885 20.0332317,5.22470233 20.0732202,5.21300631 C20.1132599,5.294826 20.1303795,5.38823681 20.1189579,5.49336987 C20.1761173,5.55171885 20.2218037,5.63930788 20.2046841,5.7386716 C20.3646636,5.84375221 20.2160801,5.56344109 20.347544,5.52255747 C20.2732394,5.44079023 20.3018833,5.294826 20.2160801,5.23055034 C19.9532291,5.10207769 20.1875132,4.84515862 20.1360775,4.63491872 C19.970323,4.44217041 20.1875132,4.21438649 20.1360775,3.97503767 C20.0618242,3.92245803 20.0217844,3.82899477 20.0389553,3.72970972 C20.0789951,3.72388794 20.0332317,3.54283565 19.9302833,3.51367427 C19.9418075,3.46689019 19.9418075,3.42605902 19.976098,3.39689764 C20.0217844,3.37932739 20.0389553,3.42605902 20.0732202,3.43185458 C20.1532484,3.5019258 20.2561198,3.57204947 20.2046841,3.69467411 C20.1761173,3.7004959 20.2103821,3.95749364 20.2504219,4.05672624 C20.3704386,4.12679746 20.2732394,4.28451016 20.3933074,4.35458139 C20.4160993,4.40133924 20.3646636,4.44217041 20.3818858,4.47141046 C20.3303988,4.5473297 20.3990054,4.61152668 20.4447432,4.66995434 C20.3990054,4.79840076 20.5190734,4.8626502 20.5076005,4.9794006 C20.7076711,5.1195955 20.47331,5.3940586 20.6562354,5.55759308 C20.7533575,5.53420104 20.6562354,5.39995906 20.7533575,5.35902299 C20.7362636,5.27730819 20.7933973,5.1195955 20.6562354,5.13129152 C20.6562354,5.0495505 20.6905772,4.96775703 20.7648304,4.93272142 C20.8390837,4.78673096 20.6275915,4.74584734 20.7019218,4.59990934 C20.5133498,4.60565245 20.7362636,4.39543878 20.604774,4.31954577 C20.6161956,4.24367899 20.6447624,4.1618593 20.7019218,4.12097568 C20.6447624,4.03920844 20.6790529,3.82899477 20.6676313,3.71221814 L20.6676313,3.71221814 L20.7019218,3.71221814 C20.7190927,3.7004959 20.7190927,3.68887855 20.7019218,3.6771563 C20.6447624,3.7004959 20.6790529,3.62462911 20.6676313,3.59538906 C20.7933973,3.52531784 20.6275915,3.37355805 20.7533575,3.31510417 C20.8677276,3.13407811 20.6218935,3.18078351 20.5590105,3.11653408 C20.5647342,2.95299959 20.724842,2.85376699 20.7362636,2.69023251 C20.7933973,2.66686669 20.8333857,2.64932266 20.8791235,2.70777654 C20.8620039,2.73693791 20.9477301,2.8420972 20.9762456,2.85376699 C21.0461156,2.97056693 21.0207185,3.000843 20.9970825,3.00568622 L20.992,3.005 L20.983121,3.09791695 C20.973517,3.19897056 20.9680414,3.30674598 20.9851778,3.40359846 L21.0105361,3.49615646 C21.1534474,3.79395916 20.919112,3.7004959 21.0105361,3.74140574 C21.0734961,3.8465388 21.0162854,4.03920844 21.0563252,4.17360777 C21.1249575,4.17360777 21.0677468,4.24947455 21.1077866,4.27284037 C21.0906157,4.3487596 21.2220797,4.47141046 21.1077866,4.48892827 C21.0505759,4.61152668 21.1306555,4.77506117 21.2163817,4.8626502 C21.3306747,4.76336515 21.1477494,4.69911571 21.1877378,4.58236531 C21.2677661,4.51808965 21.1362765,4.43634863 21.2049088,4.35458139 C21.273464,4.30202797 21.1706183,4.29035817 21.2049088,4.22026073 C21.1763419,4.1618593 21.2449485,4.13269792 21.2849113,4.12097568 C21.2677661,4.06844849 21.3248998,3.96913721 21.2334756,3.95749364 C21.2277776,3.89319176 21.2391736,3.834869 21.3020822,3.79395916 C21.2506465,3.57204947 21.3248998,3.36180958 21.3020822,3.13407811 C21.3363727,3.10483806 21.3078059,3.04058862 21.3649396,3.01724903 C21.4678367,2.87710658 21.2334756,2.94717781 21.2677661,2.83627541 C21.3135038,2.72526812 21.1820399,2.77202597 21.1362765,2.73693791 C21.0677468,2.57345588 21.2163817,2.49753665 21.3020822,2.37488578 C21.3248998,2.2405389 21.4849306,2.1821637 21.4907056,2.04784304 C21.5821297,2.01868166 21.6850268,1.89018279 21.7650551,1.99531585 C21.8622286,1.88430855 21.9422568,1.73834432 21.9765216,1.58650586 C22.027983,1.46388122 22.0736438,1.31204275 22.1251051,1.17184786 C22.4165999,1.22440128 22.1766179,1.53977423 22.2222786,1.73252254 C22.2280023,1.74416611 22.2394495,1.75586213 22.2508711,1.76758437 C22.4109019,1.9427362 22.2909109,2.16464589 22.3023069,2.3573942 C22.3651642,2.59676925 22.1651449,2.86543679 22.3480446,3.06985489 C22.4165999,2.98221342 22.393808,2.86543679 22.4451924,2.77202597 C22.4737593,2.52087624 22.5594855,2.29309232 22.6395651,2.05956528 C22.5594855,2.03622569 22.5024031,1.93686197 22.4109019,1.93106641 C22.3880331,1.86099519 22.4565884,1.87856544 22.4451924,1.81423733 C22.4966282,1.73834432 22.5423659,1.67999534 22.6395651,1.68573846 C22.6395651,1.61566724 22.6337901,1.54559601 22.656736,1.48722081 C22.8224134,1.42297137 22.7252913,1.18936567 22.7995445,1.05512368 C22.8109918,0.985026234 22.9081909,1.00254404 22.896718,0.926624807 C22.8510573,0.868170932 22.9481794,0.868170932 22.9310085,0.827313535 C23.0110111,0.850653126 23.1139082,0.839009555 23.1538966,0.926624807 C23.1939364,0.967534652 23.1596459,1.02006184 23.1253811,1.05512368 C23.2053324,1.13681225 23.1082102,1.23027551 23.0739454,1.30622097 C23.1825405,1.52225642 22.9996151,1.66824688 23.0453529,1.87856544 C22.9195869,1.954406 23.0796434,2.12381472 23.028182,2.24641313 C23.1538966,2.14712809 22.9710483,1.96615447 23.1253811,1.89600457 C23.1997114,1.71500473 23.2111073,1.53395244 23.3825597,1.40545357 C23.525471,1.37044418 23.3596652,1.1251949 23.5083001,1.10765087 C23.5597615,1.00254404 23.6454877,0.944116388 23.6569349,0.844883789 C23.6283167,0.815643739 23.6054992,0.786456138 23.5769324,0.774760118 C23.5539865,0.692992875 23.6283167,0.669653284 23.6740545,0.611304306 C23.6855274,0.389315946 23.8512049,0.23752993 23.8683758,0.0155940185 Z M6.61467577,22.4206807 L6.67580537,22.4288133 C6.71007018,22.4463311 6.71584515,22.475545 6.71007018,22.510633 C6.6700304,22.487241 6.66433243,22.5456949 6.63011894,22.5397944 C6.55581434,22.7033551 6.4014815,22.6566235 6.2585446,22.6391057 C6.17851637,22.57483 6.00701262,22.7091507 6.04705241,22.5222766 C6.09848813,22.4697232 6.15569882,22.4347138 6.22425412,22.4288133 C6.36719102,22.5982221 6.51005092,22.3762861 6.67580537,22.4288133 Z M7.27591448,22.2945451 C7.32737587,22.1544027 7.48170871,22.2886709 7.56743492,22.2419917 C7.6073977,22.2886709 7.67603,22.3354025 7.63029225,22.3938039 C7.53314443,22.3938039 7.46458913,22.4405356 7.40737844,22.510633 C7.32737587,22.5397944 7.32737587,22.4639014 7.29308539,22.4288133 C7.15022549,22.4347138 7.00151362,22.475545 6.87012665,22.4580272 C6.87582463,22.4288133 6.85870505,22.3704644 6.88729757,22.3587421 C6.95585286,22.3178847 7.04727704,22.3295807 7.13305458,22.3295807 C7.1844903,22.3354025 7.21878079,22.2361437 7.27591448,22.2945451 Z" id="Combined-Shape" fill="#1F4FA2" fill-rule="nonzero" transform="translate(14.000000, 14.000000) scale(1, -1) translate(-14.000000, -14.000000) "></path>
    </g>
</svg>