<?xml version="1.0" encoding="UTF-8"?>
<svg width="28px" height="28px" viewBox="0 0 28 28" version="1.1" xmlns="http://www.w3.org/2000/svg" xmlns:xlink="http://www.w3.org/1999/xlink">
    <title>9U</title>
    <g id="9U" stroke="none" stroke-width="1" fill="none" fill-rule="evenodd">
        <path d="M3.65946,15.4501817 C3.65946,15.4501817 0.2509344,20.1660375 8.8817842e-14,20.5 C0.522876811,20.4162437 1.98666081,20.1032444 3.1575912,18.6009445 L5.4578232,15.6797145 C5.4996456,15.6379813 6.1478928,14.8241831 7.13081601,14.6571536 L17.1053616,12.8209877 C19.5102464,12.3619221 22.061316,11.3603244 24.6960304,9.79532805 C26.3061928,8.83546359 27.4773168,7.9382956 28,7.5 C27.1009152,7.7295328 8.32275441,12.3201889 8.32275441,12.3201889 C5.1441552,13.0922538 3.68046801,15.4293151 3.65946,15.4501817 L3.65946,15.4501817 Z" id="Path" fill="#004595"></path>
        <path d="M2.0702088,20.3952805 C2.927568,20.3748969 5.1441552,20.2911406 5.1441552,20.2911406 C7.71632961,20.2079639 9.723708,18.6219077 10.3302296,18.0795688 C9.6400632,18.1418789 5.1859776,18.5386345 5.1859776,18.5386345 C5.1859776,18.5386345 4.14051441,18.6218111 4.077684,18.6427743 C3.22042161,19.6861053 2.5302552,20.1660375 2.0702088,20.3952805 L2.0702088,20.3952805 Z" id="Path" fill="#E53138"></path>
        <path d="M6.0433368,16.20138 C6.0433368,16.20138 5.0395992,17.4327037 4.809576,17.7247397 C5.2278,17.6828133 10.1210208,17.1612444 10.1210208,17.1612444 C11.7730056,16.9735415 13.4876272,16.3683129 15.2442648,15.324982 C16.2688168,14.71985 17.0008056,14.1355847 17.356296,13.8435487 C16.20618,14.0313482 7.42337919,15.4710483 7.42337919,15.4710483 C6.5452056,15.617018 6.06434481,16.1805133 6.0433368,16.20138 L6.0433368,16.20138 Z" id="Path" fill="#FFED00"></path>
    </g>
</svg>