<?xml version="1.0" encoding="UTF-8"?>
<svg width="28px" height="28px" viewBox="0 0 28 28" version="1.1" xmlns="http://www.w3.org/2000/svg" xmlns:xlink="http://www.w3.org/1999/xlink">
    <title>A3</title>
    <g id="A3" stroke="none" stroke-width="1" fill="none" fill-rule="evenodd">
        <path d="M6.36359965,17.1811943 C6.75687025,17.1917785 7.17277756,17.2238724 7.6015236,17.2825976 C7.61267302,18.1726928 7.99682137,19.7097887 7.99682137,19.7097887 C8.01675518,19.7753423 8.04040548,19.8685513 8.05763641,19.9153266 C8.07284017,19.9600533 8.02993178,20 7.96573812,20 L7.96573812,20 L6.90215062,20 C6.83356477,20 6.77342545,19.9805388 6.76497892,19.9539076 C6.76227603,19.9286422 6.74234221,19.8559186 6.725787,19.7893407 C6.725787,19.7893407 6.36359965,18.1426474 6.36359965,17.237188 L6.36359965,17.237188 Z M24.5990236,16.3781625 C24.6260525,16.6622281 24.644297,16.9483424 24.644297,17.237188 C24.644297,18.1467445 24.2834611,19.7893407 24.2834611,19.7893407 C24.2662301,19.8559186 24.2466342,19.9286422 24.2398769,19.9539076 C24.2358226,19.9805388 24.1692639,20 24.1060839,20 L24.1060839,20 L23.0441857,20 C22.9755998,20 22.9340429,19.9600533 22.9499224,19.9153266 C22.9630989,19.8685513 22.9914793,19.7753423 23.0083724,19.7097887 C23.0083724,19.7097887 23.4097516,18.1214791 23.4097516,17.237188 C23.4097516,17.0183345 23.4006294,16.7943597 23.382047,16.576189 C23.8023465,16.5222438 24.2141995,16.4543002 24.5990236,16.3781625 Z M18.9713686,14.383079 C19.6541863,14.2335348 21.1036115,14.6924101 23.054085,14.9587217 C23.9457011,15.0806105 26.8709046,15.011984 27.4864879,15.0833419 C27.6337955,15.1014374 28.1787658,15.2625901 27.9405736,15.283417 C26.6688635,15.3872102 25.0217894,16.0034825 22.9385364,16.2254089 C20.858662,16.4497252 20.1282058,15.757315 18.3932878,16.4763563 C18.3932878,16.4763563 15.4890317,17.6733927 15.164347,17.8512752 L15.164347,17.8512752 L15.1281958,17.8721022 C14.6241067,18.1595821 14.1436679,18.4255523 13.085824,18.6208474 C12.5493002,18.7215678 12.2070467,18.7430776 11.9546643,18.7635631 C11.7600561,18.7761958 11.6174786,18.78439 11.4928078,18.8209225 C11.1590008,18.92574 10.6251799,18.8950118 10.6251799,18.8950118 C10.7941105,18.78439 11.2211673,18.3582915 11.207315,18.096077 C11.1985306,18.0001366 11.1346748,17.9205845 10.9934487,17.8512752 C9.15818594,16.9284032 6.86376957,16.6924784 5.32954123,16.7802247 C4.52441765,16.8276827 3.66388482,16.8799208 2.1364137,17.1919833 C1.37487424,17.3480146 0.73226197,17.4518078 0.546100371,17.4767319 C0.356560159,17.5054116 -0.266118291,17.4606849 0.128503755,17.337089 C0.128503755,17.337089 4.04533027,16.3029124 5.33933921,15.8781795 C7.98817211,15.0191539 12.9557474,16.68087 13.3280706,16.771689 C13.3743576,16.7611049 14.0301465,16.6115607 14.0524453,16.6064393 C15.2765169,15.9823142 18.2956459,14.5326232 18.9713686,14.383079 Z M8.94192089,12.7867117 C8.44931906,13.5262385 8.07800945,14.3582915 7.85096662,15.2459968 C7.39620526,15.2207313 6.97185142,15.2207313 6.5839866,15.2459968 C6.7569716,14.4552562 7.02861212,13.7003653 7.38843445,13.0041995 C8.04287187,12.8778722 8.53209509,12.8218785 8.94192089,12.7867117 Z M21.7398213,12.2837926 L21.785686,12.2885725 C22.1961875,12.3332992 22.6489217,12.3739288 23.2428819,12.3332992 C23.6810881,13.0352692 24.0260445,13.8027929 24.2662639,14.6198231 C23.7753514,14.6106047 23.3564033,14.5897777 23.108751,14.5576838 C23.0499631,14.5511967 22.9945538,14.5412954 22.9384689,14.5324183 C22.6468945,13.7129981 22.2245678,12.9526443 21.695477,12.2831097 C21.7245331,12.2831097 21.7546027,12.2831097 21.785686,12.2885725 Z M20.3010219,10.4600362 C20.8388971,10.3432688 21.9903286,10.7062037 23.5319899,10.9161801 C24.2465666,11.0121206 26.5612546,10.9588583 27.0457478,11.0155348 C27.1606207,11.0295333 27.5974754,11.1548363 27.4045566,11.1708833 C26.4004326,11.2576052 25.0898685,11.7431117 23.4441459,11.9196285 C21.794369,12.0985353 21.2156125,11.5478166 19.8351111,12.1173137 C19.8351111,12.1173137 17.5386676,13.0647683 17.2839201,13.2132883 L17.2839201,13.2132883 L17.2541883,13.2248967 C16.8572012,13.4481887 16.4764315,13.6643108 15.6368461,13.8182936 C15.2118165,13.8961385 14.9408517,13.9155997 14.7388106,13.9309638 C14.5857594,13.9377923 14.4756166,13.9490594 14.3725689,13.9777391 C14.1086992,14.0569497 13.6870483,14.0357814 13.6870483,14.0357814 C13.8215171,13.9490594 14.1566755,13.6076343 14.1509319,13.4055106 C14.1434989,13.3293728 14.0887654,13.2621121 13.9765954,13.207484 C12.523116,12.4785414 10.7037326,12.2883676 9.49148615,12.3573355 C8.84887388,12.3945509 8.16977259,12.4365461 6.96259402,12.6840793 C6.35714649,12.806651 5.84630015,12.8920072 5.70169549,12.9121513 C5.54932003,12.9305883 5.05367744,12.8954215 5.36721277,12.8025539 C5.36721277,12.8025539 8.47249635,11.9817679 9.49993268,11.6458056 C11.5956866,10.9653454 15.5341362,12.2811977 15.827062,12.3498242 C15.8638889,12.3457271 16.3838575,12.2231555 16.4031156,12.2217898 C17.3683854,11.7284305 19.7665252,10.5727065 20.3010219,10.4600362 Z M15.5029516,8 C17.7203356,8 19.7525716,8.80166615 21.3371412,10.1318584 C20.8685276,10.0533306 20.5029616,10.0140667 20.214428,10.0779132 C20.0715127,10.11069 19.8079808,10.2066305 19.4839718,10.3414934 C18.3146337,9.64976612 16.9540661,9.24893305 15.5029516,9.24893305 C13.5967379,9.24893305 11.8412104,9.93519751 10.4786156,11.0741917 C10.0667627,11.1028714 9.70052096,11.170815 9.38394488,11.2722182 C9.11939945,11.3596231 8.71937163,11.4763905 8.26798888,11.6023763 C9.93736176,9.41452422 12.5598415,8 15.5029516,8 Z" id="Combined-Shape" fill="#213368" fill-rule="nonzero"></path>
    </g>
</svg>