<?xml version="1.0" encoding="UTF-8"?>
<svg width="28px" height="28px" viewBox="0 0 28 28" version="1.1" xmlns="http://www.w3.org/2000/svg" xmlns:xlink="http://www.w3.org/1999/xlink">
    <title>A9</title>
    <g id="A9" stroke="none" stroke-width="1" fill="none" fill-rule="evenodd">
        <circle id="Oval" fill="#FFFFFF" cx="14" cy="14" r="7"></circle>
        <path d="M16.8284465,5.5054246 C16.8219582,5.51118499 14.8270507,5.52375813 12.3953216,5.53334031 C2.0779189,5.57407842 0.0330216113,5.58402062 0.00164799477,5.59374127 C-0.0185285806,5.59997246 0.147893946,5.92092005 0.427710468,6.41531616 C0.874387543,7.20454427 1.18494802,7.76061527 1.62322047,8.55599149 C1.74072096,8.7692365 1.91949035,9.09325815 2.02045535,9.27603959 C2.12144774,9.45882103 2.32450019,9.82646098 2.47167695,10.0930173 C3.20211278,11.4158841 3.85000808,12.5566342 4.41363811,13.5121657 C4.91509582,14.3622932 4.95843302,14.4383691 6.33148046,16.8780859 C8.0848714,19.993651 9.2374001,21.9967695 9.49846363,22.3822998 L9.578157,22.5 L18.7890785,22.5 C23.8550963,22.5 28,22.4947104 28,22.48823 C28,22.4817772 27.810499,22.1421638 27.5788927,21.7335642 C27.347259,21.3249646 26.7066459,20.1899472 26.155308,19.2113187 C25.6039427,18.2326903 24.7049216,16.6375068 24.1574438,15.6664665 C23.6099933,14.695454 22.7092749,13.097141 22.1558289,12.1146908 C21.6024104,11.1322405 20.8930272,9.87354105 20.5794279,9.31758083 C20.2658286,8.76162061 19.6543442,7.67739433 19.2205615,6.90818909 L18.4318682,5.50963411 L17.636057,5.50229516 C17.1983869,5.49827951 16.8349621,5.49966422 16.8284465,5.5054246 M12.4226982,8.34917151 C11.4071622,8.47069348 10.4420813,9.14249836 9.998443,10.0367427 C9.79322779,10.450355 9.72547064,10.77914 9.74759095,11.2537071 C9.77417366,11.8239021 9.9467833,12.264987 10.3391725,12.7655035 C10.8208369,13.3798707 11.5093591,13.8755407 12.1352436,14.0584883 C12.324334,14.1137659 12.4141293,14.1223788 12.7922827,14.1215999 C13.1902568,14.1206617 13.2433674,14.1146798 13.3731874,14.0561897 C13.616593,13.9465209 13.6130067,13.9350832 13.2856096,13.7753156 C12.5154229,13.3995335 11.9013103,12.8163223 11.6144854,12.1883295 C11.4439564,11.8149569 11.3988123,11.5962561 11.3991682,11.1453953 C11.3995515,10.6798288 11.4462013,10.4449269 11.6273524,9.9960877 C11.7814281,9.61437912 11.9464818,9.34881984 12.3045955,8.90651644 C12.4730165,8.69850562 12.6370299,8.48157728 12.6690879,8.42444424 L12.7273454,8.32059114 L12.6639958,8.32421908 C12.6291454,8.32624075 12.5205697,8.33745689 12.4226982,8.34917151 M14.5588418,8.43527265 C14.0299254,8.52392165 13.4869099,8.80695594 13.1772529,9.15537615 C12.7258123,9.663287 12.5048281,10.3344272 12.5048281,11.197488 C12.5048281,12.1690544 12.8150875,13.0191543 13.3435659,13.4956323 C13.4925769,13.6299766 13.7245391,13.7702475 13.7519157,13.7425534 C13.7586777,13.7357406 13.7524358,13.6688869 13.7380631,13.5940019 C13.7236904,13.5191169 13.6968065,13.2148412 13.6783273,12.9178214 C13.6003587,11.6654085 13.7944042,10.8870365 14.314697,10.3649739 C14.8183723,9.85958319 15.6084891,9.60895106 16.807038,9.57441645 C17.08784,9.56632975 17.332943,9.55010098 17.351696,9.53838635 C17.4457347,9.47959165 16.9748293,8.99408537 16.6325393,8.79695835 C16.3718864,8.64685602 15.9368171,8.49318114 15.6297608,8.44275007 C15.3692448,8.3999626 14.7933774,8.39594695 14.5588418,8.43527265 M16.7208289,10.3881539 C16.05544,10.461765 15.3843293,10.8043694 14.788915,11.3743982 C14.3024049,11.8401863 14.0637902,12.2824343 13.9433331,12.9416383 C13.902405,13.1656564 13.883871,13.7486461 13.9176538,13.7486461 C13.926825,13.7486461 14.208202,13.4817298 14.5429908,13.1555203 C15.1857666,12.5291339 15.3658227,12.3905523 15.7626469,12.2167161 C16.56637,11.8646125 17.3525994,11.9935842 18.1626465,12.6104439 C18.4408478,12.8222765 18.6947386,13.0686437 19.093096,13.5132458 C19.2705239,13.711259 19.4330863,13.8776178 19.454358,13.8829074 C19.4869088,13.8910495 19.4907415,13.8190723 19.4785863,13.4259538 C19.4584918,12.7768027 19.3694357,12.3963404 19.1165304,11.8792904 C18.755679,11.1415181 18.139787,10.6205356 17.418933,10.4433483 C17.2421073,10.3998685 16.8763282,10.3709558 16.7208289,10.3881539 M8.84117815,11.5261899 C8.63872798,11.8281947 8.52399253,12.0982404 8.42045412,12.5162561 C8.36709707,12.7316889 8.35880195,12.836899 8.35914716,13.2916925 C8.35962325,13.8538285 8.37930705,13.9847111 8.52755149,14.4112288 C8.82499856,15.2670337 9.43087073,15.8078729 10.3010095,15.99431 C10.5391314,16.0453226 11.127948,16.0385652 11.4234513,15.9814045 C12.3059917,15.8107254 12.8612718,15.5394057 13.2817221,15.0733684 C13.5213497,14.8077538 13.815977,14.2194468 13.709345,14.2194468 C13.6910027,14.2194468 13.5387613,14.262622 13.3710247,14.315407 C13.203288,14.3681921 12.9182152,14.4498622 12.7375295,14.4969422 C11.2796419,14.8766568 10.3834405,14.6144486 9.75377807,13.6240224 C9.48762249,13.2053698 9.39837468,12.9562885 9.16342845,11.97622 C9.04464126,11.4806884 9.00850411,11.3669485 8.96987568,11.3669485 C8.95780259,11.3669485 8.89987364,11.4385933 8.84117815,11.5261899 M15.3875324,13.0809399 C15.0587391,13.1417563 14.6857325,13.3126016 14.450403,13.5102271 C14.2746724,13.6578093 14.2344835,13.7174071 14.2879775,13.7511109 C14.3425117,13.7854793 14.7833302,13.8825197 15.0371663,13.9160296 C15.8288436,14.0206027 16.2899208,14.2182836 16.7437432,14.6477092 C17.3720094,15.2422474 17.614539,15.9617693 17.5047861,16.9057801 C17.479627,17.1223761 17.4085572,17.4893514 17.3358449,17.7781461 C17.192364,18.3482026 17.1561447,18.5397354 17.1918438,18.5397354 C17.2260373,18.5397354 17.624641,18.2817366 17.856959,18.109202 C18.2298835,17.8322882 18.4370151,17.5763387 18.6379321,17.1441714 C18.7928565,16.8108722 18.8691004,16.5477777 18.9240727,16.15657 C18.9762251,15.7853022 18.9758966,15.5837441 18.9225669,15.2203413 C18.8436675,14.6829362 18.7046216,14.367389 18.4198225,14.0794528 C17.6959023,13.3476347 16.3471927,12.9035035 15.3875324,13.0809399 M14.1474258,13.9360248 C14.1474258,13.9477117 14.2339634,14.1128243 14.3397193,14.3029724 C14.927167,15.3590891 15.0782312,15.7934166 15.0782312,16.4262558 C15.0782312,17.1132924 14.8333747,17.6580919 14.271442,18.2212526 C14.0024666,18.4908275 13.9798809,18.5064193 13.4210691,18.8079533 C13.1053618,18.9783278 12.8100775,19.1335812 12.7649061,19.1529395 C12.6548794,19.2001026 12.4500749,19.3399581 12.4500749,19.3679292 C12.4500749,19.3952633 13.124854,19.604105 13.4082569,19.6644783 C13.7046636,19.7276209 14.1982916,19.7026131 14.4827348,19.6100592 C14.7550501,19.5214656 15.1994002,19.3057835 15.461504,19.1349936 C15.8763421,18.8646987 16.2866356,18.3768384 16.4279538,17.9858523 C16.7224989,17.1708963 16.4958478,15.9092058 15.901994,15.0581644 C15.5100154,14.4964437 15.005163,14.1222957 14.4365778,13.9721933 C14.2011662,13.9100476 14.1474258,13.903318 14.1474258,13.9360248 M14.0107891,14.3020585 C13.9939525,14.333879 13.8894832,14.5882776 13.7786079,14.867407 C13.3960195,15.8306652 13.151601,16.2187434 12.7145331,16.5568891 C12.025655,17.0898632 11.2076413,17.1951287 10.3153822,16.8655682 C10.0486791,16.7670878 9.96080014,16.7276513 9.44814539,16.476576 C8.85292272,16.1850396 8.85642693,16.1862028 8.87936855,16.2873696 C9.01863346,16.9015706 9.27887569,17.3776332 9.70313131,17.7942364 C10.1325337,18.2159076 10.5647286,18.4578438 11.1633733,18.6116018 C11.4504446,18.6853513 12.1188177,18.6859052 12.350287,18.6125711 C12.6288169,18.5243652 12.7897367,18.4391225 13.0059847,18.2652863 C13.5113573,17.859013 14.0252166,17.0855429 14.2587392,16.3795911 C14.525853,15.5720848 14.4632153,14.8065629 14.0892779,14.3079573 L14.0414235,14.2441777 L14.0107891,14.3020585" id="Shape" fill="#E52239"></path>
    </g>
</svg>