<?xml version="1.0" encoding="UTF-8"?>
<svg width="28px" height="28px" viewBox="0 0 28 28" version="1.1" xmlns="http://www.w3.org/2000/svg" xmlns:xlink="http://www.w3.org/1999/xlink">
    <title>AB</title>
    <g id="AB" stroke="none" stroke-width="1" fill="none" fill-rule="evenodd">
        <path d="M8.5093906,3.77128952 C11.8004995,0.40092603 17.2437107,-1.10259621 21.6370214,0.901455929 C23.207998,1.69766565 24.6085111,3.11615579 24.9068223,4.90569512 C25.2031964,6.20629984 24.7227992,7.49724181 24.4380475,8.75339793 C23.5218059,12.369195 22.644306,15.9946548 21.718379,19.6065868 C21.6854485,19.6085193 21.6234618,19.6123844 21.5924684,19.614317 C20.7343394,17.4923794 19.9788759,15.3201956 18.9076674,13.2929529 C18.1270218,11.8802604 16.8039922,10.5583976 15.1032308,10.4656353 C13.9157972,10.4540401 12.7244894,10.4095915 11.5389929,10.5100839 C13.0634794,10.5699929 14.1637442,11.7971608 14.9347044,12.9856778 C16.1608797,14.9588091 16.8156147,17.2063623 17.7279822,19.3244348 C18.3672205,20.7371273 19.1343065,22.1536849 20.364356,23.1392843 C20.1861441,23.3673249 20.004058,23.593433 19.821972,23.8195411 C17.5284623,22.259975 16.6374028,19.494499 15.6882308,17.032433 C14.8901514,15.1694569 14.2625356,13.1286863 12.7806649,11.6715452 C12.0290756,10.8869308 10.9501188,10.4405122 9.86341361,10.4540401 C8.7825197,10.4598377 7.69968871,10.4076589 6.62073189,10.5081514 C7.17086427,10.5815882 7.728745,10.6994736 8.18396017,11.035737 C9.69876131,12.0367968 10.5433307,13.720046 11.2213108,15.3472513 C12.0716915,17.2701364 12.625698,19.332165 13.753082,21.1255694 C14.3652011,22.0937759 15.1226017,23.0329942 16.1647539,23.5605797 C17.2107802,24.1229512 18.4408297,23.9026407 19.5643395,24.1731974 C17.3308796,26.4632666 14.2063601,27.8315105 11.0159797,27.9938445 C9.02659252,28.0556861 6.93647689,27.6595138 5.31707312,26.4439411 C4.2245567,25.6206758 3.34124555,24.4534168 3.09910982,23.0832404 C2.80854694,21.9198466 3.2250204,20.7603179 3.47490447,19.6336424 C4.50543415,15.5115178 5.52240422,11.3855281 6.56068223,7.26533607 C6.86867888,5.94733842 7.57571522,4.74722619 8.5093906,3.77128952 M5.14273539,19.7882463 C4.83086457,21.85414 6.41927497,23.956752 8.48033431,24.2620946 C10.3515592,24.640874 12.2925193,23.4407618 12.964688,21.6937385 C11.9980822,20.0646006 11.3820889,18.2653986 10.6556817,16.5241729 C8.31180784,15.5250457 5.38293404,17.2662713 5.14273539,19.7882463 Z" id="path6" fill="#CC2234" fill-rule="nonzero"></path>
    </g>
</svg>