<?xml version="1.0" encoding="UTF-8"?>
<svg width="28px" height="28px" viewBox="0 0 28 28" version="1.1" xmlns="http://www.w3.org/2000/svg" xmlns:xlink="http://www.w3.org/1999/xlink">
    <title>AC</title>
    <g id="AC" stroke="none" stroke-width="1" fill="none" fill-rule="evenodd">
        <path d="M14.489701,19.8778626 C14.489701,18.9516539 14.9796909,18.8091603 15.8196736,19.307888 C17.3596418,20.1628499 19.0396071,21.0890585 19.0396071,21.0890585 C19.1096057,20.5903308 19.529597,20.1628499 20.4395783,20.3765903 C21.2795609,20.5903308 22.2595407,20.8040712 22.2595407,20.8040712 C22.2595407,20.8040712 21.7695508,19.5928753 21.4895566,19.0941476 C21.0695653,18.0966921 21.4895566,17.6692112 21.9095479,17.5267176 C21.9095479,17.5267176 21.3495595,17.0992366 20.9295681,16.8142494 C20.0895855,16.2442748 20.2995811,15.6030534 21.0695653,15.2468193 C22.1895422,14.7480916 23.5895133,14.1068702 23.5895133,14.1068702 C23.1695219,13.821883 22.6095335,13.1094148 23.2395205,12.2544529 C23.7995089,11.3994911 24.6394916,10.259542 24.6394916,10.259542 C24.6394916,10.259542 23.0995234,10.259542 22.1195436,10.259542 C21.2095624,10.259542 20.9995667,9.47582697 20.9995667,8.97709924 C20.9995667,8.97709924 19.529597,10.0458015 18.4796187,10.7582697 C17.5696375,11.3994911 16.7996534,10.7582697 16.9396505,9.68956743 C17.1496461,8.05089059 17.3596418,6.19847328 17.3596418,6.19847328 C16.7996534,6.55470738 15.8896721,6.55470738 15.4696808,5.62849873 C14.7696952,4.4173028 13.9997111,2.77862595 13.9997111,2.77862595 C13.9997111,2.77862595 13.2997256,4.34605598 12.6697386,5.69974555 C12.2497472,6.6259542 11.2697675,6.6259542 10.7797776,6.2697201 C10.7797776,6.2697201 10.9897732,8.1221374 11.1997689,9.76081425 C11.339766,10.8295165 10.4997834,11.3994911 9.65980068,10.8295165 C8.60982235,10.1170483 7.13985268,9.04834606 7.13985268,9.04834606 C7.13985268,9.54707379 6.92985701,10.3307888 6.01987579,10.3307888 C5.03989601,10.3307888 3.49992778,10.3307888 3.49992778,10.3307888 C3.49992778,10.3307888 4.33991045,11.5419847 4.8998989,12.3256997 C5.45988734,13.1806616 4.96989745,13.8931298 4.54990612,14.178117 C4.54990612,14.178117 5.94987723,14.8193384 7.06985412,15.3180662 C7.90983679,15.6743003 8.11983246,16.2442748 7.20985124,16.8854962 C6.7898599,17.1704835 6.22987146,17.5979644 6.22987146,17.5979644 C6.64986279,17.740458 7.06985412,18.1679389 6.64986279,19.1653944 C6.43986712,19.6641221 5.87987868,20.8753181 5.87987868,20.8753181 C5.87987868,20.8753181 6.85985846,20.6615776 7.69984113,20.4478372 C8.60982235,20.2340967 9.09981224,20.6615776 9.09981224,21.1603053 C9.09981224,21.1603053 10.709779,20.2340967 12.2497472,19.3791349 C13.0897299,18.8804071 13.5797198,19.0941476 13.5797198,19.9491094 L13.5797198,22.086514 C13.5797198,23.3689567 13.3697241,24.7938931 12.8797342,25.5063613 C6.85985846,24.8651399 1.889961,20.0203562 1.889961,13.6081425 C1.889961,6.9821883 7.34984835,1.56743003 13.9997111,1.56743003 C20.7195725,1.56743003 26.1094613,6.91094148 26.1094613,13.5368957 C26.1094613,19.735369 21.419558,24.7938931 15.3296837,25.4351145 L15.3296837,27.0737913 C22.4695364,26.43257 27.9994223,20.5903308 27.9994223,13.5368957 C28.0694208,6.05597964 21.7695508,0 13.9997111,0 C6.29987001,0 0,6.05597964 0,13.6081425 C0,20.2340967 4.82990034,25.7201018 11.339766,26.9312977 C12.4597429,27.1450382 13.0897299,27.2875318 13.7197169,28 C14.4197025,26.7175573 14.5596996,24.0101781 14.5596996,22.4427481 L14.5596996,19.8778626 L14.489701,19.8778626 Z" id="Path" fill="#D8292F" fill-rule="nonzero"></path>
    </g>
</svg>