<?xml version="1.0" encoding="UTF-8"?>
<svg width="28px" height="28px" viewBox="0 0 28 28" version="1.1" xmlns="http://www.w3.org/2000/svg" xmlns:xlink="http://www.w3.org/1999/xlink">
    <title>AE</title>
    <defs>
        <linearGradient x1="2.94341833%" y1="22.1860689%" x2="104.14205%" y2="27.6339266%" id="linearGradient-1">
            <stop stop-color="#FBC707" offset="0%"></stop>
            <stop stop-color="#F68712" offset="100%"></stop>
        </linearGradient>
    </defs>
    <g id="AE" stroke="none" stroke-width="1" fill="none" fill-rule="evenodd">
        <path d="M13.6391027,9.0544643 C13.6391027,9.0544643 13.5058051,10.4404545 13.6618361,10.7546281 L13.6618361,10.7546281 L13.3963161,10.22139 C12.7590648,8.94118952 11.0272122,7.97623191 9.67467573,7.54130459 L9.67467573,7.54130459 C9.09486321,7.33077918 8.4077582,7.41093029 8.4077582,7.41093029 L8.4077582,7.41093029 C7.72390347,7.48038853 7.4117799,7.57229272 7.4117799,7.57229272 L7.4117799,7.57229272 C8.36332361,7.82128824 9.25092499,8.58747654 9.81773339,9.51182545 L9.81773339,9.51182545 C10.4224728,10.4960211 10.5980423,11.6511938 10.2989229,12.6781306 L10.2989229,12.6781306 C10.2989229,12.6781306 10.256651,12.8373424 10.2501382,12.8224087 L10.2501382,12.8224087 C10.2501382,12.8224087 8.60823922,8.17073013 5.42197683,7.9334998 L5.42197683,7.9334998 C3.72047025,7.79779421 2.509907,8.50520805 1.79570931,9.12072983 L1.79570931,9.12072983 C0.760715559,10.011952 0.077945266,11.2953604 0.0140029448,12.4708343 L0.0140029448,12.4708343 C-0.124732292,14.3238123 0.806234603,15.8626167 1.09343129,16.2889928 L1.09343129,16.2889928 C1.91925924,17.560645 4.14964015,19.7737427 6.25755864,21.3061374 L6.25755864,21.3061374 C6.25755864,21.3061374 8.74804355,23.1366725 11.3143935,23.5 L11.3143935,23.5 L12.9487075,23.5 C13.338862,23.4348129 13.7192626,23.3172821 14.079071,23.1323984 L14.079071,23.1323984 C11.3328168,22.0701962 8.54863161,20.1114254 6.66722082,17.7882578 L6.66722082,17.7882578 C6.02780068,16.8692493 5.29192637,15.5430998 5.38404583,14.4114363 L5.38404583,14.4114363 C5.4924289,13.0767385 6.69323214,12.0807898 8.06202299,12.1897905 L8.06202299,12.1897905 C8.98538955,12.2624596 9.78412174,12.8213394 10.1439302,13.6484468 L10.1439302,13.6484468 C10.5828539,16.3766198 13.2380731,19.5012471 15.8683623,21.3745264 L15.8683623,21.3745264 C15.8683623,21.3745264 16.8740945,22.2742999 18.4260429,21.8393756 L18.4260429,21.8393756 L23.1068119,20.425599 L21.4074711,19.5568136 C19.0860521,18.3375262 17.0810945,16.7901735 15.736143,15.1616035 L15.736143,15.1616035 C14.0508938,12.9784277 13.9912862,11.5571692 13.9912862,11.5571692 L13.9912862,11.5571692 C13.9848349,11.1468203 14.0411461,10.7086912 14.3153325,10.331469 L14.3153325,10.331469 C14.7195756,9.77472171 15.5703273,9.42421659 16.3127052,9.40604779 L16.3127052,9.40604779 C16.3127052,9.40604779 17.1049369,9.3954458 17.6023838,9.67318788 L17.6023838,9.67318788 C19.3006371,10.4564817 20.3648924,13.4047886 20.5556349,13.7435376 L20.5556349,13.7435376 C20.5556349,13.7435376 23.6497778,20.3486436 28,18.9829547 L28,18.9829547 C26.3949476,18.0639462 24.6132412,13.7958994 24.6132412,13.7958994 L24.6132412,13.7958994 C24.1786522,12.6289737 23.7126357,10.8497311 23.4969663,9.5834253 L23.4969663,9.5834253 C23.0125235,6.74304676 22.0945792,4.75756194 19.0481211,4.51605446 L19.0481211,4.51605446 C18.9115671,4.50545246 18.7760882,4.5 18.6417123,4.5 L18.6417123,4.5 C16.0515199,4.5 13.8503975,6.46838532 13.6390628,9.05443401" id="path636" fill="url(#linearGradient-1)" fill-rule="nonzero"></path>
    </g>
</svg>