<?xml version="1.0" encoding="UTF-8"?>
<svg width="28px" height="28px" viewBox="0 0 28 28" version="1.1" xmlns="http://www.w3.org/2000/svg" xmlns:xlink="http://www.w3.org/1999/xlink">
    <title>AH</title>
    <g id="AH" stroke="none" stroke-width="1" fill="none" fill-rule="evenodd">
        <path d="M28,14 C28,8.20085389 21.7318539,3.5 14,3.5 C6.26814607,3.5 1.77635684e-15,8.20085389 1.77635684e-15,14 C1.77635684e-15,19.799146 6.26814607,24.5 14,24.5 C21.7318539,24.5 28,19.799146 28,14" id="path83" fill="#D71920" fill-rule="nonzero"></path>
        <path d="M18.760933,18.6325925 C22.9914908,13.9297012 27.3100988,14.7712498 27.3100988,14.7712498 C27.3100988,14.7712498 25.72623,24.9727343 11.5573819,23.5952842 L11.5573819,23.5952842 L12.0991491,23.4679312 C14.0870151,23.1673781 15.4088059,21.8551328 15.4088059,21.8551328 C16.1577515,21.3029302 18.760933,18.6325925 18.760933,18.6325925 Z M7.38172362,5.71594216 C7.38172362,5.71594216 9.86577928,6.84785566 11.6568263,8.83048716 C11.6568263,8.83048716 15.283463,12.6429264 15.9785416,12.9913641 C15.9785416,12.9913641 14.5231231,13.9938869 8.43314956,8.30783029 C8.43314956,8.30783029 4.69463669,11.2491753 4.51542685,13.6882399 L27.2614139,13.6882399 L27.2852376,14.451339 L4.47192164,14.451339 C4.47192164,14.451339 4.65009181,16.5857753 8.12134709,19.7675625 C8.12134709,19.7675625 13.2023673,15.3662429 16.0013327,14.9515815 L16.1577515,14.9301863 C16.1577515,14.9301863 14.2993707,16.4777798 13.0666673,17.8511546 C13.0666673,17.8511546 9.62027312,21.3793422 7.1134287,22.2290412 C7.1134287,22.2290412 -2.13392534,18.3503783 1.69367495,10.4422666 L1.71196392,10.406583 C1.88499146,10.0784288 3.31815043,7.55593837 7.38172362,5.71594216 Z M27.2438025,13.3561031 C27.2438025,13.3561031 22.9251945,14.2170094 18.6935993,9.4081603 C18.6935993,9.4081603 16.0914528,6.67873085 15.3425073,6.11633991 C15.3425073,6.11633991 14.0196814,4.7745488 12.0318178,4.46788278 L11.4910832,4.33747331 C25.6578613,2.93047739 27.2438025,13.3561031 27.2438025,13.3561031 Z" id="Combined-Shape" fill="#FFFFFF" fill-rule="nonzero"></path>
    </g>
</svg>