<?xml version="1.0" encoding="UTF-8"?>
<svg width="28px" height="28px" viewBox="0 0 28 28" version="1.1" xmlns="http://www.w3.org/2000/svg" xmlns:xlink="http://www.w3.org/1999/xlink">
    <title>AI</title>
    <g id="AI" stroke="none" stroke-width="1" fill="none" fill-rule="evenodd">
        <g id="Group-12" transform="translate(0.000000, 6.000000)" fill-rule="nonzero">
            <path d="M24.5865877,0.0763544097 C24.6917536,-0.00525696473 24.8314218,0.0076814239 24.9568246,0.00469564191 C25.9627014,0.00900843812 26.9685782,-0.00857450027 27.974455,0.00569090257 C27.9024645,0.161946827 27.8065877,0.304932609 27.7120379,0.448250144 C26.6746445,2.05592787 25.6379147,3.66393735 24.6038389,5.27360559 C24.5527488,5.27891365 24.5029858,5.28521697 24.452891,5.28986152 C23.6026066,5.34360559 22.7536493,5.41957716 21.9023697,5.45772882 C21.6154028,5.47099896 21.3294313,5.49886626 21.0421327,5.5078236 C19.9781991,5.53005109 18.9149289,5.64483782 17.8738863,5.8664492 C17.6091469,5.92616484 17.3394313,5.97261033 17.0863033,6.07445868 C17.0803318,6.13981413 17.0743602,6.20483782 17.0683886,6.27019327 C18.4713744,6.38232597 19.8866351,6.25990891 21.2637441,5.98024067 C21.9746919,5.84256294 22.6912796,5.73772882 23.4038863,5.60900844 C23.74891,5.55559612 24.0902844,5.47332123 24.4392891,5.44810796 C24.4372986,5.46900844 24.4329858,5.51014588 24.4309953,5.53104635 C24.1009005,6.07180465 23.7369668,6.59298948 23.4081991,7.13540654 L23.4290995,7.14967195 C23.3587678,7.14967195 23.288436,7.15166247 23.218436,7.15099896 C22.5516114,7.08099896 21.8980569,6.92407953 21.2395261,6.80298948 C19.878673,6.49744446 18.4793365,6.39161507 17.0866351,6.41749185 C17.0713744,6.47455346 17.0561137,6.53194683 17.0411848,6.58934019 C17.36,6.73697052 17.7040284,6.81559612 18.0430806,6.90251555 C18.7016114,7.06938759 19.3744076,7.17621223 20.0508531,7.23692313 C21.0162559,7.30692313 21.9859716,7.30526436 22.9510427,7.38588048 C23.0223697,7.39218379 23.0933649,7.39483782 23.1656872,7.39848711 C23.1723223,7.43298948 23.1716588,7.4671601 23.1633649,7.50133071 C22.9095735,7.91270512 22.6352133,8.31080939 22.3854028,8.72450607 C21.9003791,8.53407953 21.42,8.3307146 20.9535545,8.09815536 C20.5309005,7.8964492 20.1095735,7.68910322 19.667346,7.53384256 C18.7928436,7.23294209 17.9150237,6.92407953 17.0010427,6.76682834 C16.9847867,6.83019327 16.9688626,6.89388995 16.9529384,6.95758664 C17.8861611,7.52986152 18.8820853,8.00659138 19.9300948,8.32806057 C20.3550711,8.45080939 20.7866825,8.55066721 21.2119905,8.67275251 C21.5258294,8.76431649 21.8472986,8.83133071 22.1541706,8.94512218 C22.1714218,8.95242076 22.2055924,8.96668616 22.2228436,8.97398474 C21.9524645,9.36877147 21.7036493,9.7778236 21.4359242,10.1746009 C20.9837441,9.86872408 20.5634123,9.51938759 20.1440758,9.17038285 C19.9214692,8.98559612 19.7104739,8.78588048 19.4736019,8.61900844 C18.6392417,8.02749185 17.7590995,7.4950274 16.824218,7.07734967 C16.7903791,7.13109375 16.7562085,7.18450607 16.7227014,7.23825014 C17.4933649,8.05768142 18.3754976,8.77891365 19.3584834,9.3292928 C20.0093839,9.6656909 20.6410427,10.0372549 21.2700474,10.4121364 C21.0938863,10.6991032 20.9190521,11.0139373 20.9306635,11.3612833 C20.9455924,11.684743 21.1748341,11.9554539 21.4392417,12.1203355 C21.7046445,12.3051222 22.0125118,12.4112833 22.3067773,12.5393402 C21.8685308,12.5317099 21.4306161,12.5171127 20.9930332,12.4962122 C20.6509953,12.057634 20.2820853,11.6406198 19.9506635,11.1940795 C19.550237,10.6745535 19.1793365,10.1331317 18.7928436,9.60332123 C18.4259242,9.11199422 18.0062559,8.66346341 17.5706635,8.23317905 C17.2432227,7.91635441 16.9300474,7.58061981 16.5508531,7.32417431 C16.5146919,7.37592787 16.476872,7.42701792 16.4483412,7.48374777 C16.4904739,7.65526436 16.6132227,7.79161507 16.6968246,7.94388995 C17.2564929,8.88673356 17.9379147,9.76256294 18.7580095,10.4940795 C19.2072038,10.8719468 19.5983412,11.3111885 20.0176777,11.7209042 C20.2641706,11.9793402 20.5415166,12.2102407 20.7568246,12.4968757 C20.0365877,12.4673497 19.3163507,12.5137952 18.597109,12.543653 C18.571564,12.4879184 18.546019,12.4328473 18.5214692,12.3774445 C18.3018483,11.8396719 18.0991469,11.2946009 17.9180095,10.7428947 C17.6917536,10.0913307 17.4167299,9.45635441 17.0879621,8.84990891 C16.848436,8.40204161 16.5654502,7.97938759 16.2874408,7.55474304 C16.2167773,7.56934019 16.1464455,7.5842691 16.0764455,7.59919801 C16.1059716,7.87488522 16.1816114,8.14194683 16.2545972,8.40867668 C16.4808531,9.21251555 16.7880569,9.99611744 17.2007583,10.7233212 C17.4100948,11.0849326 17.6751659,11.4127051 17.8563033,11.7912359 C17.9747393,12.0423734 18.1479147,12.2682975 18.2305213,12.5360227 C18.3496209,12.5682028 18.4743602,12.5559279 18.5961137,12.566544 C18.3950711,12.6096719 18.1867299,12.5579184 17.9846919,12.5967336 C17.5789573,12.6226103 17.176872,12.6846482 16.7721327,12.7218046 C16.7290047,12.7231317 16.6865403,12.7241269 16.6437441,12.7251222 C16.5379147,11.9537952 16.5943128,11.1725155 16.50109,10.4001933 C16.43109,9.76189943 16.2990521,9.13223119 16.1421327,8.51019327 C16.0698104,8.23483782 15.986872,7.96246815 15.9218483,7.68512218 C15.8332701,7.68379517 15.7446919,7.6821364 15.6564455,7.68080939 C15.6033649,8.73047763 15.5827962,9.79839232 15.8302844,10.8271601 C15.9132227,11.193416 16.0625118,11.5404302 16.1424645,11.9073497 C16.1975355,12.1621364 16.2745024,12.4136056 16.3003791,12.6740321 C16.3013744,12.706544 16.3040284,12.7715677 16.3053555,12.8040795 C15.9619905,12.8458805 15.6209479,12.9095772 15.2858768,12.9951696 C15.0685782,13.0489137 14.8569194,13.1228947 14.6369668,13.1650274 C14.7733175,12.4351696 14.9471564,11.7122786 15.1448815,10.9966862 C15.2948341,10.4877762 15.3611848,9.95962455 15.41891,9.43412692 C15.4786256,8.85024067 15.5031754,8.26336863 15.5011848,7.67682834 C15.4245498,7.68014588 15.3485782,7.68379517 15.2722749,7.6871127 C15.0135071,8.32971934 14.8058294,8.9935582 14.6698104,9.67332123 C14.469763,10.5992454 14.4933175,11.5507146 14.4236493,12.4905724 C14.4020853,12.7284397 14.4040758,12.9692928 14.3606161,13.2051696 C14.3566351,13.2200985 14.348673,13.2496246 14.3446919,13.2645535 C13.8507109,13.4234634 13.3494313,13.61389 12.95,13.9552644 C12.7333649,14.1357383 12.5890521,14.4346482 12.6666825,14.7173023 C12.761564,15.0036056 12.9845024,15.225217 13.2217062,15.4007146 C13.6778673,15.7324682 14.2007109,15.9590558 14.7308531,16.1441743 C15.4620379,16.390999 16.2257346,16.5386293 16.9954028,16.5923734 C17.6721801,16.6467809 18.3519431,16.672326 19.0310427,16.652089 C18.1860664,16.8345535 17.3248341,16.9413781 16.4612796,16.9775392 C15.168436,17.0292928 13.8487204,16.8302407 12.6683412,16.2851696 C12.0346919,15.9683449 11.4345498,15.5881554 10.8569668,15.1791032 C10.3556872,14.8158331 9.85805687,14.4479184 9.35180095,14.0922786 C8.77919431,13.7296719 8.17739336,13.4151696 7.5643128,13.1268757 C6.47914692,12.6285819 5.32729858,12.2898615 4.16085308,12.0423734 C2.7857346,11.7554065 1.38938389,11.5885345 0,11.3874919 C0.123744076,11.3642691 0.249810427,11.3579658 0.375545024,11.3619468 C2.94331754,11.4027525 5.52336493,11.2093402 8.03606635,10.6616151 C8.22981043,10.6171601 8.43151659,10.5969231 8.61464455,10.5146482 C8.982891,10.3447904 9.3471564,10.166307 9.70578199,9.97654398 C9.83947867,9.90156768 9.97151659,9.82061981 10.1184834,9.77317905 C9.97450237,9.91848711 9.79104265,10.0140321 9.63246445,10.1417573 C9.43540284,10.2976814 9.23701422,10.4526103 9.03298578,10.5999089 C8.63620853,10.8875392 8.25203791,11.1924208 7.85924171,11.4853591 C7.67180095,11.6293402 7.47540284,11.7627051 7.302891,11.9252644 C7.56962085,11.7882501 7.82009479,11.6227051 8.07720379,11.4691032 C8.99350711,10.9177288 9.87962085,10.3165914 10.8118483,9.7914255 C11.4959242,9.39498 12.2125118,9.04962455 12.8464929,8.57256294 C13.3981991,8.16052503 13.9346445,7.72493261 14.4309479,7.24654398 C14.395782,7.19943498 14.3612796,7.15232597 14.3264455,7.10554872 C15.1117062,6.58967195 15.8893365,6.06185204 16.6709479,5.54066721 C16.7654976,5.57019327 16.8693365,5.61995631 16.9665403,5.56886626 C17.9259716,5.14952977 18.8376303,4.6207146 19.6753081,3.99204161 C20.7024171,3.20445868 21.7152607,2.39763403 22.7619431,1.63559612 C23.1398104,1.33701792 23.5432227,1.07194683 23.9137915,0.764411282 C23.5316114,0.956164836 23.1743128,1.19403213 22.8127014,1.42128332 C22.7307583,1.47038285 22.6375355,1.49360559 22.5469668,1.51881886 C22.6206161,1.44948237 22.7005687,1.3871127 22.7841706,1.33005109 C23.3859716,0.913700381 23.9867773,0.496022656 24.5865877,0.0763544097 M24.4283412,3.10294209 C23.7691469,3.32123593 23.1112796,3.54450607 22.448436,3.75152029 C21.8071564,3.95223119 21.166872,4.15825014 20.5136493,4.31749185 C19.2695735,4.62237337 18.0785782,5.12033545 16.9549289,5.7314255 C16.9688626,5.7971127 16.9824645,5.86279991 16.9967299,5.92881886 C17.4349763,5.8850274 17.8639336,5.77753924 18.2918957,5.67602266 C19.4029384,5.39701792 20.4814692,4.98597526 21.4943128,4.45085678 C21.9999052,4.22194683 22.5151185,4.01559612 23.0270142,3.80161507 C23.6696209,3.53986152 24.3049289,3.26019327 24.9478673,2.99910322 C25.06,2.94967195 25.1923697,2.92479043 25.27,2.82061981 C24.9916588,2.92080939 24.7116588,3.01668616 24.4283412,3.10294209 M14.4999526,7.40810796 C13.8971564,7.89479043 13.2900474,8.38611744 12.7834597,8.97564351 C12.4085782,9.37109375 12.1007109,9.82227858 11.7772512,10.259198 C11.3877725,10.8162122 10.9548341,11.3403828 10.5514218,11.8867809 C10.1340758,12.4394824 9.69317536,12.9742691 9.28611374,13.5346009 C9.53293839,13.340525 9.707109,13.0757857 9.92540284,12.8531791 C10.4090995,12.3422786 10.9130332,11.8506198 11.3944076,11.3370653 C11.875782,10.8901933 12.3336019,10.4187715 12.807346,9.96360559 C13.0319431,9.76588048 13.2210427,9.53332123 13.4167773,9.30806057 C13.7581517,8.90398474 14.0786256,8.48166247 14.370237,8.04009849 C14.4909953,7.85332123 14.63,7.6778236 14.7311848,7.47877147 C14.6714692,7.42270512 14.581564,7.33412692 14.4999526,7.40810796 M14.9083412,7.54346341 C14.7006635,7.76441128 14.5427488,8.02616484 14.3682464,8.27298948 C14,8.84393735 13.6430332,9.43047763 13.4098104,10.0714255 C13.0448815,11.0172549 12.6822749,11.9640795 12.3057346,12.9052644 C12.0625592,13.5375866 11.7931754,14.1599563 11.5649289,14.7979184 C11.6866825,14.6280606 11.7719431,14.437634 11.8645024,14.2515203 C12.0887678,13.8169231 12.3266351,13.3896246 12.5578673,12.9586767 C12.9138389,12.3114255 13.2598578,11.6588663 13.6390521,11.0248852 C14.2833175,9.95663877 14.813128,8.80777621 15.1070616,7.59189943 C15.0403791,7.57564351 14.9743602,7.55971934 14.9083412,7.54346341 L14.9083412,7.54346341 Z" id="path5" fill="#C5012D"></path>
            <g id="#f19817ff" transform="translate(7.273697, 0.745833)" fill="#F19817">
                <path d="M15.5390047,0.675450237 C15.9006161,0.448199052 16.2579147,0.210331754 16.6400948,0.0185781991 C16.2695261,0.326113744 15.8661137,0.591184834 15.4882464,0.889763033 C14.441564,1.65180095 13.4287204,2.45862559 12.4016114,3.24620853 C11.5639336,3.87488152 10.6522749,4.40369668 9.6928436,4.82303318 C9.59563981,4.87412322 9.49180095,4.82436019 9.39725118,4.79483412 C9.87630332,4.40834123 10.4180569,4.10943128 10.9107109,3.74151659 C11.0689573,3.61943128 11.2451185,3.52388626 11.41,3.41109005 C12.0463033,2.98876777 12.6550711,2.5243128 13.3053081,2.12255924 C13.6211374,1.92417062 13.8881991,1.657109 14.2103318,1.46734597 C14.4385782,1.32336493 14.6465877,1.14952607 14.8794787,1.01251185 C15.0118483,0.93521327 15.1229858,0.817440758 15.2732701,0.772985782 C15.3638389,0.747772512 15.4570616,0.724549763 15.5390047,0.675450237 L15.5390047,0.675450237 Z" id="path40"></path>
                <path d="M17.1546445,2.357109 C17.4379621,2.27085308 17.7179621,2.1749763 17.9963033,2.07478673 C17.918673,2.17895735 17.7863033,2.20383886 17.6741706,2.25327014 C17.0312322,2.51436019 16.3959242,2.79402844 15.7533175,3.05578199 C15.2414218,3.26976303 14.7262085,3.47611374 14.2206161,3.7050237 C13.2077725,4.24014218 12.1292417,4.65118483 11.0181991,4.93018957 C10.590237,5.03170616 10.1612796,5.13919431 9.72303318,5.18298578 C9.70876777,5.11696682 9.69516588,5.05127962 9.68123223,4.98559242 C10.8048815,4.37450237 11.9958768,3.87654028 13.2399526,3.57165877 C13.8931754,3.41241706 14.5334597,3.2063981 15.1747393,3.0056872 C15.8375829,2.79867299 16.4954502,2.57540284 17.1546445,2.357109 Z" id="path42"></path>
                <path d="M14.628673,4.71189573 C15.4799526,4.67374408 16.32891,4.59777251 17.1791943,4.54402844 C17.216019,4.54203791 17.2893365,4.53772512 17.3261611,4.5357346 C17.2757346,4.62298578 17.2263033,4.71123223 17.1572986,4.78521327 C17.1592891,4.7643128 17.1636019,4.72317536 17.1655924,4.70227488 C16.8165877,4.72748815 16.4752133,4.80976303 16.1301896,4.86317536 C15.4175829,4.99189573 14.7009953,5.09672986 13.9900474,5.23440758 C12.6129384,5.51407583 11.1976777,5.63649289 9.79469194,5.52436019 C9.80066351,5.45900474 9.80663507,5.39398104 9.81260664,5.32862559 C10.0657346,5.22677725 10.3354502,5.18033175 10.6001896,5.12061611 C11.6412322,4.89900474 12.7045024,4.78421801 13.768436,4.76199052 C14.0557346,4.75303318 14.3417062,4.72516588 14.628673,4.71189573 L14.628673,4.71189573 Z" id="path44"></path>
                <path d="M9.81293839,5.67165877 C11.2056398,5.64578199 12.6049763,5.75161137 13.9658294,6.0571564 C14.6243602,6.17824645 15.2779147,6.33516588 15.9447393,6.40516588 C16.0041232,6.41047393 16.0631754,6.41379147 16.1235545,6.417109 C16.0674882,6.50635071 16.0124171,6.59658768 15.9520379,6.68317536 C15.8783886,6.61317536 15.7675829,6.65464455 15.677346,6.64004739 C14.7122749,6.55943128 13.7425592,6.56109005 12.7771564,6.49109005 C12.1007109,6.43037915 11.4279147,6.3235545 10.7693839,6.15668246 C10.4303318,6.06976303 10.0863033,5.99113744 9.76748815,5.84350711 C9.78241706,5.78611374 9.79767773,5.72872038 9.81293839,5.67165877 L9.81293839,5.67165877 Z" id="path46"></path>
                <path d="M9.72734597,6.02099526 C10.641327,6.17824645 11.5191469,6.487109 12.3936493,6.78800948 C12.8358768,6.94327014 13.2572038,7.15061611 13.6798578,7.35232227 C14.1463033,7.58488152 14.6266825,7.78824645 15.1117062,7.97867299 C15.0662559,8.06459716 15.0141706,8.14720379 14.955782,8.22483412 C14.936872,8.21853081 14.8993839,8.20559242 14.8804739,8.1992891 C14.5736019,8.08549763 14.2521327,8.01848341 13.9382938,7.92691943 C13.5129858,7.80483412 13.0813744,7.7049763 12.6563981,7.58222749 C11.6083886,7.26075829 10.6124645,6.78402844 9.67924171,6.21175355 C9.69516588,6.14805687 9.71109005,6.08436019 9.72734597,6.02099526 L9.72734597,6.02099526 Z" id="path48"></path>
                <path d="M9.44900474,6.49241706 C9.48251185,6.43867299 9.51668246,6.38526066 9.55052133,6.33151659 C10.4854028,6.74919431 11.365545,7.28165877 12.1999052,7.87317536 C12.4367773,8.04004739 12.6477725,8.23976303 12.8703791,8.42454976 C13.2897156,8.7735545 13.7100474,9.122891 14.1622275,9.42876777 C14.1190995,9.5156872 14.0646919,9.59696682 13.9963507,9.66630332 C13.367346,9.2914218 12.7356872,8.91985782 12.0847867,8.58345972 C11.1018009,8.03308057 10.2196682,7.31184834 9.44900474,6.49241706 L9.44900474,6.49241706 Z" id="path50"></path>
                <path d="M6.34909953,6.81189573 C6.58464455,6.66260664 6.80957346,6.49672986 7.05274882,6.35971564 C7.08758294,6.40649289 7.12208531,6.4536019 7.15725118,6.5007109 C6.66094787,6.97909953 6.12450237,7.41469194 5.57279621,7.82672986 C4.93881517,8.30379147 4.22222749,8.64914692 3.53815166,9.04559242 C2.60592417,9.57075829 1.71981043,10.1718957 0.803507109,10.7232701 C0.546398104,10.876872 0.295924171,11.0424171 0.0291943128,11.1794313 C0.201706161,11.016872 0.398104265,10.8835071 0.585545024,10.7395261 C0.978341232,10.4465877 1.36251185,10.1417062 1.7592891,9.85407583 C1.96331754,9.70677725 2.16170616,9.55184834 2.35876777,9.39592417 C2.51734597,9.26819905 2.70080569,9.17265403 2.84478673,9.02734597 C2.94,8.92483412 3.06407583,8.8571564 3.1871564,8.79379147 C3.56104265,8.60336493 3.91037915,8.36981043 4.26635071,8.14919431 C4.53407583,8.00255924 4.78023697,7.8214218 5.03734597,7.6578673 C5.48189573,7.38781991 5.91018957,7.09156398 6.34909953,6.81189573 L6.34909953,6.81189573 Z" id="path52"></path>
                <path d="M9.17464455,6.73791469 C9.20317536,6.68118483 9.24099526,6.63009479 9.2771564,6.57834123 C9.65635071,6.83478673 9.96952607,7.17052133 10.2969668,7.48734597 C10.7325592,7.91763033 11.1522275,8.36616114 11.5191469,8.85748815 C11.9056398,9.38729858 12.2765403,9.92872038 12.6769668,10.4482464 C13.0083886,10.8947867 13.3772986,11.3118009 13.7193365,11.7503791 C13.6403791,11.7503791 13.5617536,11.7507109 13.483128,11.7510427 C13.2678199,11.4644076 12.9904739,11.2335071 12.743981,10.9750711 C12.3246445,10.5653555 11.9335071,10.1261137 11.4843128,9.74824645 C10.664218,9.01672986 9.98279621,8.14090047 9.42312796,7.19805687 C9.33952607,7.04578199 9.21677725,6.90943128 9.17464455,6.73791469 Z" id="path54"></path>
                <path d="M7.22625592,6.66227488 C7.3078673,6.58829384 7.39777251,6.67687204 7.45748815,6.73293839 C7.35630332,6.93199052 7.21729858,7.10748815 7.09654028,7.2942654 C6.80492891,7.73582938 6.48445498,8.15815166 6.14308057,8.56222749 C5.94734597,8.78748815 5.75824645,9.02004739 5.53364929,9.21777251 C5.05990521,9.67293839 4.60208531,10.1443602 4.1207109,10.5912322 C3.63933649,11.1047867 3.13540284,11.5964455 2.65170616,12.107346 C2.43341232,12.3299526 2.25924171,12.5946919 2.01241706,12.7887678 C2.41947867,12.228436 2.86037915,11.6936493 3.27772512,11.1409479 C3.68113744,10.5945498 4.11407583,10.0703791 4.5035545,9.51336493 C4.82701422,9.0764455 5.13488152,8.62526066 5.50976303,8.22981043 C6.01635071,7.64028436 6.62345972,7.14895735 7.22625592,6.66227488 L7.22625592,6.66227488 Z" id="path56"></path>
                <path d="M7.63464455,6.79763033 C7.70066351,6.81388626 7.76668246,6.82981043 7.83336493,6.84606635 C7.53943128,8.06194313 7.00962085,9.21080569 6.36535545,10.2790521 C5.98616114,10.9130332 5.64014218,11.5655924 5.28417062,12.2128436 C5.05293839,12.6437915 4.81507109,13.07109 4.59080569,13.5056872 C4.49824645,13.6918009 4.41298578,13.8822275 4.29123223,14.0520853 C4.51947867,13.4141232 4.78886256,12.7917536 5.03203791,12.1594313 C5.4085782,11.2182464 5.77118483,10.2714218 6.13611374,9.32559242 C6.36933649,8.68464455 6.72630332,8.09810427 7.09454976,7.5271564 C7.26905213,7.28033175 7.42696682,7.0185782 7.63464455,6.79763033 Z" id="path58"></path>
                <path d="M8.80274882,6.85336493 C8.87274882,6.83843602 8.94308057,6.82350711 9.01374408,6.80890995 C9.29175355,7.2335545 9.57473934,7.65620853 9.8142654,8.10407583 C10.1430332,8.71052133 10.4180569,9.34549763 10.6443128,9.99706161 C10.8254502,10.5487678 11.0281517,11.0938389 11.2477725,11.6316114 C11.272654,11.6943128 11.2981991,11.7570142 11.3224171,11.8207109 C11.2006635,11.8100948 11.0759242,11.8223697 10.9568246,11.7901896 C10.874218,11.5224645 10.7010427,11.2965403 10.5826066,11.0454028 C10.4014692,10.666872 10.1363981,10.3390995 9.92706161,9.97748815 C9.51436019,9.25028436 9.2071564,8.46668246 8.98090047,7.6628436 C8.90791469,7.39611374 8.83227488,7.12905213 8.80274882,6.85336493 L8.80274882,6.85336493 Z" id="path60"></path>
                <path d="M7.39611374,8.92748815 C7.5321327,8.24772512 7.73981043,7.58388626 7.9985782,6.94127962 C8.07488152,6.93796209 8.15085308,6.9343128 8.22748815,6.93099526 C8.22947867,7.51753555 8.20492891,8.10440758 8.14521327,8.68829384 C8.08748815,9.21379147 8.02113744,9.74194313 7.87118483,10.2508531 C7.67345972,10.9664455 7.49962085,11.6893365 7.36327014,12.4191943 C7.26971564,12.4629858 7.1728436,12.5001422 7.0743128,12.5319905 L7.08691943,12.4593365 C7.13037915,12.2234597 7.12838863,11.9826066 7.14995261,11.7447393 C7.21962085,10.8048815 7.19606635,9.85341232 7.39611374,8.92748815 L7.39611374,8.92748815 Z" id="path62"></path>
                <path d="M8.38274882,6.9349763 C8.47099526,6.93630332 8.55957346,6.93796209 8.64815166,6.9392891 C8.71317536,7.21663507 8.79611374,7.48900474 8.86843602,7.76436019 C9.02535545,8.3863981 9.15739336,9.01606635 9.22739336,9.65436019 C9.32061611,10.4266825 9.26421801,11.2079621 9.37004739,11.9792891 C9.4128436,11.9782938 9.45530806,11.9772986 9.49843602,11.9759716 C9.35312796,12.0363507 9.19554502,12.0479621 9.04061611,12.0585782 C9.03597156,12.0147867 9.03099526,11.9716588 9.02668246,11.9281991 C9.00080569,11.6677725 8.92383886,11.4163033 8.86876777,11.1615166 C8.78881517,10.7945972 8.63952607,10.4475829 8.55658768,10.081327 C8.30909953,9.05255924 8.32966825,7.98464455 8.38274882,6.9349763 L8.38274882,6.9349763 Z" id="path64"></path>
            </g>
        </g>
    </g>
</svg>