<?xml version="1.0" encoding="UTF-8"?>
<svg width="28px" height="28px" viewBox="0 0 28 28" version="1.1" xmlns="http://www.w3.org/2000/svg" xmlns:xlink="http://www.w3.org/1999/xlink">
    <title>AK</title>
    <defs>
        <polygon id="path-1" points="0 0 28 0 28 28 0 28"></polygon>
        <path d="M0.125856164,14.0292167 C0.125856164,21.7079409 6.35124153,27.9333262 14.0292167,27.9333262 C21.7094393,27.9333262 27.9340753,21.7079409 27.9340753,14.0292167 C27.9340753,6.35049225 21.7094393,0.125107068 14.0292167,0.125107068 C6.35124153,0.125107068 0.125856164,6.35049225 0.125856164,14.0292167" id="path-3"></path>
        <polygon id="path-5" points="0 0 24.1643836 0 24.1643836 10.1643836 0 10.1643836"></polygon>
        <path d="M0.125856164,14.0292167 C0.125856164,21.7079409 6.35124153,27.9333262 14.0292167,27.9333262 C21.7094393,27.9333262 27.9340753,21.7079409 27.9340753,14.0292167 C27.9340753,6.35049225 21.7094393,0.125107068 14.0292167,0.125107068 C6.35124153,0.125107068 0.125856164,6.35049225 0.125856164,14.0292167" id="path-7"></path>
    </defs>
    <g id="AK" stroke="none" stroke-width="1" fill="none" fill-rule="evenodd">
        <g id="AirAsia_NewLogo">
            <g id="Clipped">
                <mask id="mask-2" fill="white">
                    <use xlink:href="#path-1"></use>
                </mask>
                <g id="Path"></g>
                <g mask="url(#mask-2)">
                    <mask id="mask-4" fill="white">
                        <use xlink:href="#path-3"></use>
                    </mask>
                    <g id="Path"></g>
                    <path d="M27.9340753,14.0292167 C27.9340753,21.7079409 21.7094393,27.9333262 14.0292167,27.9333262 C6.35124153,27.9333262 0.125856164,21.7079409 0.125856164,14.0292167 C0.125856164,6.35049225 6.35124153,0.125107068 14.0292167,0.125107068 C21.7094393,0.125107068 27.9340753,6.35049225 27.9340753,14.0292167" id="Path" fill="#E32526" fill-rule="nonzero" mask="url(#mask-4)"></path>
                </g>
            </g>
            <g id="Clipped" transform="translate(2.109589, 8.821918)">
                <mask id="mask-6" fill="white">
                    <use xlink:href="#path-5"></use>
                </mask>
                <g id="Path"></g>
                <g mask="url(#mask-6)">
                    <g transform="translate(-2.109589, -8.821918)">
                        <mask id="mask-8" fill="white">
                            <use xlink:href="#path-7"></use>
                        </mask>
                        <g id="Path" stroke="none" fill="none"></g>
                        <path d="M10.1156893,11.2483947 C10.4303297,11.1914598 10.6640625,11.3824913 10.640839,11.6731593 C10.6168664,11.963827 10.3419306,12.2470034 10.0280393,12.3031893 C9.71564636,12.3586258 9.48041529,12.1675941 9.50513699,11.8769265 C9.52910959,11.5862585 9.80179795,11.3060788 10.1156893,11.2483947 M6.73480318,13.3325128 C7.00674225,12.3196703 7.33636553,11.2851027 7.66224315,10.5127354 C7.00524405,11.3735018 6.30179795,12.46875 5.66802236,13.5625 C6.03660093,13.4755993 6.39544088,13.3991867 6.73480318,13.3325128 M12.327911,12.5429153 C12.5736301,12.4987158 13.1235018,12.8313356 12.8605523,13.140732 C12.5871146,13.458369 12.2784676,13.3946918 11.7930224,13.5969607 C11.5188356,13.7108306 11.3075772,13.9572988 11.0071703,14.3895548 C10.624358,14.9514128 10.4490582,15.5012842 10.4175941,15.9140625 C10.4153468,16.0369221 10.4056078,16.0983518 10.3404324,16.1403039 C9.69991438,16.5590753 9.50288951,16.2444349 9.51937077,15.8601242 C9.52311644,15.7694776 9.55458038,15.625642 9.61151551,15.4495934 C9.11857877,16.1882491 8.68257715,16.5620719 8.39715321,16.6137628 C8.01434066,16.682684 7.79858723,16.4167379 7.83979019,15.9260488 C7.85851874,15.7020548 7.92594178,15.4398544 8.05104885,15.1087329 C8.18214888,14.7723673 8.38891277,14.313142 8.5799443,13.9363228 C8.62863879,13.8381849 8.67583471,13.744542 8.71553929,13.6598886 C8.42562077,13.7160744 8.01359156,13.8014769 7.52889545,13.9116009 C7.52215321,13.9280822 7.51690915,13.9363228 7.510916,13.937821 C7.30490159,14.8997217 7.28842033,15.2630566 7.17754704,16.1020977 C7.13035112,16.4691781 7.20151964,16.8639769 6.76401964,16.9246575 C6.32726893,16.9875856 6.18193493,16.5373502 6.17893836,16.1530393 C6.1736943,15.7619863 6.24561211,15.291524 6.52279542,14.1535744 C6.06806507,14.2689427 5.58861301,14.4022902 5.11290663,14.5476242 C5.10691348,14.5588612 5.10166942,14.5641053 5.10166942,14.5641053 C4.31282101,16.0084546 3.53446071,17.7951626 3.40560778,18.3727525 C3.30297512,18.8364726 3.09321485,18.9780607 2.78531688,18.8439639 C2.47816781,18.7091182 2.29912238,18.3997217 2.41074477,18.0543664 C2.61376279,17.4340753 3.23030822,16.0429153 3.78017989,15.0443064 C3.77643403,15.0465539 3.78017989,15.0323201 3.79291529,15.0068493 C3.3906251,15.1634203 3.01605299,15.3312285 2.68867718,15.5117722 C2.47217466,15.6278895 2.20173378,15.5207621 2.14929362,15.2795377 C2.11258562,15.1087329 2.03092899,14.770869 2.44895115,14.5873288 C3.08047945,14.3116438 3.76369863,14.0771619 4.44691781,13.880137 C5.89651118,11.4409247 7.69820205,8.93129271 8.21660959,8.97699063 C8.44060364,8.99646827 8.40539384,9.23919088 8.60316781,9.45868997 C8.7986943,9.67744016 8.82716186,9.81153677 8.59342899,10.3913742 C8.11397693,11.5810146 8.15218312,11.3038313 7.6922089,13.1609589 C8.53574477,13.020869 9.26990592,12.9399614 9.33807786,12.9294735 C9.57106164,12.8965112 9.97185364,13.0553297 9.75984589,13.5093107 C9.75984589,13.5093107 9.53809932,13.9003639 9.45044953,14.0674228 C9.29238014,14.3446062 9.08711463,14.760381 8.96275685,15.0420591 C8.88409679,15.2076199 8.84813789,15.3342251 8.84214474,15.427119 C8.8354023,15.4877996 8.85862581,15.5215112 8.90732011,15.5125215 C8.97174658,15.5012842 9.06613879,15.4316139 9.18000866,15.3132491 C9.29088175,15.1836473 9.66620296,14.8764982 10.3351884,13.7482877 L10.5119863,13.3827055 C10.5689212,13.2733306 10.6505779,13.0815498 10.66631,12.9938998 C10.6850386,12.8627996 10.6895333,12.828339 10.7989084,12.7594178 C10.9757064,12.6470461 11.2955908,12.5534032 11.4798801,12.6740155 C11.6536815,12.7886345 11.6087329,12.9961473 11.4641482,13.2486087 C12.0477311,12.5916096 12.1975598,12.5646404 12.327911,12.5429153 M23.7471105,14.4427441 C24.0752354,14.0389555 24.583155,13.1137628 24.614619,12.8605523 C24.6296018,12.7444349 24.5958904,12.6987372 24.504495,12.7107235 C24.3921233,12.7257064 24.1389128,12.9324701 23.8976884,13.2268836 C23.5455908,13.6508991 23.0698845,14.5041738 23.0331763,14.7858518 C23.0174443,14.9012201 23.0646404,14.9761345 23.1455479,14.9663955 C23.2758991,14.9491653 23.5013913,14.7528895 23.7471105,14.4427441 M25.713613,13.7745078 C25.8559502,13.5482662 26.1578553,13.6224315 26.0769477,13.8306936 C26.0072774,14.0104881 25.8754281,14.3034032 25.5398116,14.6997004 C25.1270333,15.2076199 24.7464683,15.4540881 24.4026114,15.4997859 C24.1261772,15.5387415 23.9291525,15.4196276 23.8812073,15.171661 L23.8654751,15.1207192 C23.864726,15.0772689 23.8422516,15.0555436 23.818279,15.0592895 C23.7935573,15.0622859 23.7748288,15.0810146 23.7283818,15.1244648 C23.3800299,15.4937927 23.1133347,15.7215324 22.791203,15.765732 C22.3095034,15.8286601 22.0293237,15.4525899 22.0974957,14.9072132 C21.9693922,15.0982448 21.8360445,15.2810361 21.713934,15.416631 C21.3378639,15.8339041 21.0292167,16.0998502 20.7430436,16.1373073 C20.3572347,16.1882491 20.1549658,15.9133133 20.2201413,15.4263699 C20.249358,15.2038742 20.3317637,14.9454196 20.4733518,14.6172945 C20.620184,14.2899187 20.8471747,13.8396831 21.057684,13.4733518 C21.2254922,13.1721961 21.3880566,12.8320847 21.4127783,12.7167167 C21.4322559,12.625321 21.441995,12.6073416 21.5139128,12.5608947 C21.6030607,12.4972174 21.7806078,12.4223032 21.8884845,12.4133133 C22.1604238,12.3930865 22.5222603,12.5901114 22.2832833,12.9983947 L22.192637,13.1534676 C22.1799016,13.1856806 22.0165881,13.4808434 21.9221961,13.6426584 C21.7483947,13.9138484 21.5266482,14.3191352 21.3865582,14.5933219 C21.3004066,14.7566352 21.2584546,14.8817422 21.2472174,14.9723886 C21.2374785,15.0330694 21.2584546,15.0690283 21.3056507,15.0622859 C21.3723244,15.0540454 21.4704623,14.9888699 21.5895762,14.8735018 C21.7124358,14.7453982 21.7866009,14.6607448 22.0592895,14.3004066 L22.1581763,14.1752996 C22.2368365,14.0726669 22.8578767,13.260595 23.0444135,13.0598244 C23.5455908,12.4620078 24.1111943,12.0379922 24.4745292,11.9915454 C24.7135059,11.9585831 24.9060361,12.0672089 24.9981806,12.2874571 C25.0641053,12.4680009 25.0768407,12.4799872 25.2364084,12.5489084 C25.4918664,12.6500429 25.5757705,12.7361943 25.5562927,12.8665454 C25.5465539,12.95869 25.5120934,13.0306078 25.3495292,13.286066 C25.2356593,13.4815925 25.1098032,13.7093322 25.0191566,13.8846319 C24.8296233,14.259953 24.7254922,14.5161601 24.9097817,14.5813356 C24.9794521,14.6053082 25.1083048,14.5386345 25.2693708,14.3685788 C25.4476669,14.1797945 25.5735231,13.9932578 25.713613,13.7745078 M22.4226242,11.890411 C22.7365155,11.8342251 23.009953,11.5517979 23.0346747,11.260381 C23.0571489,10.9697132 22.8226669,10.7801799 22.5110231,10.8363655 C22.1971319,10.8925514 21.9221961,11.1749785 21.8989726,11.4663955 C21.8742509,11.7570635 22.1102311,11.9465968 22.4226242,11.890411 M17.6580694,10.5119863 C17.0055651,11.3682578 16.3051155,12.4590112 15.6705908,13.5482662 C16.0421662,13.4628639 16.3987585,13.3901968 16.7321276,13.3265196 C17.0063142,12.3166738 17.3329409,11.2836045 17.6580694,10.5119863 M17.8213827,13.1437285 C18.0086687,13.1167594 18.6177226,13.0440925 18.5944991,13.2995505 C18.5585402,13.7115797 18.4034676,13.7055865 17.8588399,13.8217037 C17.7562073,13.8449272 17.6460831,13.8688998 17.5314639,13.8928724 C17.5232235,13.9205908 17.5142338,13.9370719 17.5082406,13.937821 C17.3029751,14.9004708 17.2864941,15.2645548 17.1741224,16.1020977 C17.1254281,16.4691781 17.1973459,16.8639769 16.760595,16.9246575 C16.323095,16.9883347 16.1725171,16.5373502 16.1747646,16.1537886 C16.1762628,15.473566 16.5193708,14.1415881 16.5216182,14.1333475 C16.0766267,14.2464683 15.6001712,14.375321 15.1259632,14.5236516 C14.5603596,15.4833048 13.5310361,17.7951626 13.4036815,18.3735018 C13.2995505,18.8364726 13.0905393,18.9780607 12.7818922,18.8424658 C12.4747432,18.7091182 12.3024402,18.4019692 12.4080694,18.0543664 C12.6949913,17.0977098 13.7790025,15.026327 13.7962329,14.9888699 C13.3939427,15.1499358 13.0193708,15.3237372 12.6957406,15.5080265 C12.4957192,15.6218964 12.2402612,15.5132705 12.1855735,15.2727954 C12.1503639,15.1004922 12.0702055,14.7641267 12.4612585,14.5850813 C13.0890411,14.2996575 13.7707621,14.0599315 14.4524829,13.8636557 C15.8998288,11.4289384 17.6947774,8.93129271 18.2116867,8.97773973 C18.437179,8.99646827 18.4019692,9.23919088 18.5989941,9.45868997 C18.7952696,9.67669088 18.8229881,9.81153677 18.5877568,10.3913742 C18.1113014,11.5825128 18.1502568,11.3045804 17.6887842,13.1639555 C17.734482,13.1579623 17.7771831,13.1504708 17.8213827,13.1437285 M18.5128425,16.5178724 C18.8709333,16.4811644 19.9159888,16.2526756 19.9264769,15.1049872 C19.9287242,14.6607448 19.5039598,14.4262628 19.401327,14.1168664 C19.3346532,13.9258347 19.3503854,13.5310361 19.6522902,13.4119221 C20.0253639,13.2650899 20.1025256,13.5108091 20.2313785,13.6936002 C20.2845676,13.7692637 20.4553724,13.7512842 20.5138057,13.6898544 C20.5954623,13.6052012 20.7145762,13.4785959 20.765518,13.2635916 C20.8112158,13.0665667 20.6022046,12.7361943 19.9946489,12.7564212 C19.7818922,12.760916 19.4822347,12.7976242 19.056721,13.202911 C18.8604452,13.3894477 18.2356593,14.244221 18.697881,14.9768836 C18.8229881,15.1761557 19.1226456,15.4196276 18.9301155,15.6069135 C18.6289598,15.8968322 18.1120505,15.4473459 18.0139128,15.3117509 C17.9689639,15.2495719 17.8408605,15.1761557 17.7569564,15.2997646 C17.7082621,15.3709333 17.4760274,15.7844607 17.5119863,15.9372859 C17.6161173,16.4144906 18.2319135,16.5463399 18.5128425,16.5178724" id="Shape" stroke="none" fill="#FFFFFF" fill-rule="nonzero" mask="url(#mask-8)"></path>
                    </g>
                </g>
            </g>
        </g>
    </g>
</svg>