<?xml version="1.0" encoding="UTF-8"?>
<svg width="28px" height="28px" viewBox="0 0 28 28" version="1.1" xmlns="http://www.w3.org/2000/svg" xmlns:xlink="http://www.w3.org/1999/xlink">
    <title>AM</title>
    <g id="AM" stroke="none" stroke-width="1" fill="none" fill-rule="evenodd">
        <path d="M13.8448996,23.813342 C13.8448996,23.813342 12.4065209,24.980416 10.2106911,24.9978533 C9.41380261,25.0021749 8.0797016,24.9987631 7.80766802,24.997997 L7.75836002,24.9978533 L7.75965738,23.813342 Z M7.75965738,21.8213867 L15.6666911,21.8240902 C15.5551178,22.0447943 15.1373458,22.6479948 14.8123562,22.9801155 L14.8123562,22.9801155 L7.75836002,22.9801155 L7.75965738,21.8213867 Z M15.3906665,3.00036644 C17.6469911,3.01398886 20.1819559,3.37215355 21.6712038,3.78669408 C22.2374403,3.94576196 22.6825197,4.329432 22.8513862,4.69365343 C22.9323668,4.86688862 22.9704507,4.91683048 23.0215082,5.02979173 C23.0851209,5.17699763 22.9637546,5.27040547 22.8038859,5.24282532 C22.1146092,5.1317293 20.4549673,4.91437845 18.5630344,5.11919668 C18.4123101,5.13499868 18.422689,5.3314758 18.5553549,5.36102596 C19.4409939,5.61341785 20.2281588,6.15938324 20.5963799,6.52335318 C20.6424782,6.57501356 20.6911921,6.58236967 20.7257815,6.5648701 C21.1319609,6.36633914 22.2409975,5.64797687 24.2424948,5.6942302 C26.7037191,5.81488287 28.0420962,7.82576072 27.9989903,9.58904596 C28.0100806,9.71741101 27.9244965,10.0176909 27.5488888,9.83431228 C25.4546928,8.93150253 21.7454883,8.15674346 18.147062,9.00772517 C18.1104429,9.01451542 18.0748909,9.02220684 18.039904,9.0298354 C16.7700151,9.30670572 16.5187451,10.3539969 16.5187451,10.9721611 C16.5187451,10.9721611 16.5155933,17.3465287 16.514993,18.6050089 L16.5148949,18.8189648 C16.5148949,19.9512598 16.0723683,20.9735906 16.0723683,20.9735906 L16.0723683,20.9735906 L3.87771524,20.9735906 L3.87771524,19.8176554 L14.4862994,19.8176554 C14.6820758,19.8176554 14.8537254,19.6046428 14.8537254,19.4077465 C14.8537254,19.2118562 14.6855075,18.9696916 14.491447,18.9696916 L14.491447,18.9696916 L14.2705813,18.9722274 L3.88204676,18.9722274 L3.88204676,17.8069452 L14.4467298,17.8069452 C14.6627827,17.8069452 14.8246184,17.6007438 14.8314819,17.4047487 C14.8382616,17.1788891 14.6855075,16.972499 14.4449512,16.9657926 L14.4449512,16.9657926 L3.79132449e-14,16.9657926 L3.77708496e-14,15.8030462 L11.0661769,15.8030462 C11.2861219,15.8030462 11.4698872,15.5959227 11.4716867,15.4009335 C11.4728167,15.1929926 11.3245406,14.9645133 11.0712408,14.9620403 L11.0712408,14.9620403 L11.0380534,14.9593368 L3.7667525e-14,14.9593368 L3.75259637e-14,13.8034016 L11.0931495,13.8034016 C11.3160449,13.804219 11.4762484,13.6015175 11.4728167,13.3751758 C11.4716867,13.1793484 11.3027993,12.9537193 11.0849677,12.9537193 L11.0849677,12.9537193 L11.0494995,12.9524199 L0.00245218465,12.9524199 L1.28281432,11.7962333 L7.68658651,11.7962333 L7.71994131,11.7927124 C7.93808673,11.7927124 8.09667897,11.5630804 8.09831114,11.3769144 C8.10182657,11.1715094 7.9351572,10.9526077 7.71994131,10.9499041 L7.71994131,10.9499041 L7.68920216,10.9526077 L2.21987286,10.9526077 L3.49844564,9.78757692 L7.70194562,9.78757692 C7.92151395,9.78757692 8.09667897,9.58036953 8.0945446,9.36442284 C8.0945446,9.12414442 7.89535743,8.93150253 7.68658651,8.93879576 L7.68658651,8.93879576 L4.43426331,8.93879576 L9.13467449,4.71249428 C9.29307841,4.55629759 9.25516191,4.40697497 9.17137733,4.30136983 C9.10443755,4.21909045 8.96302492,4.100303 8.91456211,4.04635824 C8.83305838,3.9608514 8.87710596,3.7839696 9.0620012,3.74645557 C9.10337036,3.73995872 9.33101583,3.68106798 9.49285148,3.64669758 C10.1695731,3.49224037 12.8495497,2.9844387 15.3906665,3.00036644 Z M19.3277884,9.65527185 C19.7652511,9.66011305 20.0645027,9.79019662 20.3076746,9.90504405 C20.8141277,10.1456578 21.4071275,10.4225281 22.1503913,10.7823275 C22.1503913,10.785513 23.3477324,9.92740576 23.4121821,9.88303861 C23.8210609,9.60616829 24.213618,9.81704325 24.3408433,10.0557708 C24.7880153,10.9011149 25.6124689,12.6543406 26.0477135,14.2587465 C26.0977248,14.452101 26.0374602,14.74886 25.7367647,14.842205 C25.5630854,14.8909104 25.2651103,14.9346278 24.953743,14.9740071 C24.5555361,15.0233028 24.5286821,15.3235434 24.5269717,15.5367501 L24.5268685,15.5924856 C24.5268685,15.8569281 24.5304258,17.6255366 24.5304258,18.2313358 C24.5402607,18.6026828 24.2573517,19.8176735 22.8559897,19.8176735 L19.6596624,19.8176735 L19.6596624,19.8176735 C18.450394,19.8226433 17.4782711,18.7977767 17.4717424,17.7086333 L17.4718933,13.2498032 C17.4722862,12.3612381 17.4728117,11.6424843 17.4733746,11.4500144 C17.4791081,10.371203 18.4465647,9.64301168 19.3277884,9.65527185 Z" id="Combined-Shape" fill="#0C2F59" fill-rule="nonzero"></path>
    </g>
</svg>