<?xml version="1.0" encoding="UTF-8"?>
<svg width="28px" height="28px" viewBox="0 0 28 28" version="1.1" xmlns="http://www.w3.org/2000/svg" xmlns:xlink="http://www.w3.org/1999/xlink">
    <title>AR</title>
    <g id="AR" stroke="none" stroke-width="1" fill="none" fill-rule="evenodd">
        <path d="M13.258397,14.6965548 C9.34896089,15.3339923 4.03938554,15.8085291 0.040062883,16.9346687 C-0.0197220992,16.9515883 -0.0105244097,16.9826732 0.0538594174,16.9803124 C9.70474425,16.7095982 20.1533196,16.7540614 27.956305,17 C27.9751185,17.0007733 28.0027115,16.9673275 28,16.9496209 C27.8133227,16.0804238 27.0950668,15.0967239 24.9302651,15.105774 L23.6802155,15.105774 C23.6802155,15.105774 23.6492778,15.1274154 23.6538767,15.1372524 C24.0058973,15.9686755 23.018818,16.5195474 22.3804147,16.0170735 C22.1115913,15.8034139 21.8444403,15.2800856 22.5284139,14.8275836 C23.0338688,14.4931257 23.8273785,14.0040301 24.2889353,13.7293812 C25.9415929,12.7437139 25.7112326,11.3271862 23.5154932,11.1697942 C18.2159517,10.7920535 8.74776646,10.2828904 5.00347064,10.0003718 C4.91985528,9.99486311 4.87177645,10.0519177 4.93072528,10.0818222 C8.02365744,11.6596767 10.8406589,11.8029034 13.9356815,12.8885145 C15.6974571,13.5066715 15.3496172,14.3554077 13.258397,14.6965548" id="Path" fill="#0081C6" fill-rule="nonzero"></path>
    </g>
</svg>