<?xml version="1.0" encoding="UTF-8"?>
<svg width="28px" height="28px" viewBox="0 0 28 28" version="1.1" xmlns="http://www.w3.org/2000/svg" xmlns:xlink="http://www.w3.org/1999/xlink">
    <title>AS</title>
    <g id="AS" stroke="none" stroke-width="1" fill="none" fill-rule="evenodd">
        <g id="58DDFB38807645B69E601F5DBCF99CC8" fill-rule="nonzero">
            <path d="M11.7070866,27.1181102 C11.111811,27.1989501 10.7002625,27.2871391 10.3107612,27.2430446 C8.64251969,27.0446194 5.46036745,26.3244094 4.25511811,24.3769029 C3.04986877,22.4293963 0.940682415,20.775853 0.580577428,18.2992126 C0.227821522,15.8813648 -0.220472441,13.7133858 0.235170604,11.8540682 C0.227821522,12.4346457 0.257217848,12.9711286 0.301312336,13.3973753 C0.37480315,14.1249344 0.683464567,14.8230971 0.933333333,16.8587927 C1.05826772,17.887664 1.47716535,18.6446194 2.08713911,19.4603675 C2.33700787,19.7910761 2.59422572,20.1144357 2.81469816,20.4671916 C2.85144357,20.6435696 2.90288714,20.8125984 2.97637795,20.9816273 C3.27034121,21.6724409 3.8656168,22.7895013 4.62257218,23.0393701 C4.76220472,23.0834646 4.90918635,23.1128609 5.01942257,23.208399 C5.14435696,23.3112861 5.20314961,23.4656168 5.29133858,23.5979003 C5.44566929,23.8257218 5.74698163,24.0388451 6.01889764,24.2446194 C6.07034121,24.3181102 6.12178478,24.391601 6.16587927,24.4650919 C7.59895013,26.5448819 10.0314961,26.9417323 11.7070866,27.1181102 M27.191601,9.09816273 C26.7580052,5.64409449 25.4498688,5.69553806 24.6194226,4.44619423 C23.7889764,3.20419948 19.8939633,1.19790026 17.8215223,0.382152231 C16.2929134,-0.220472441 15.0435696,0.183727034 13.6986877,0.462992126 C15.7784777,0.705511811 19.2619423,1.69028871 20.1879265,2.44724409 C20.3349081,2.5648294 20.5480315,2.82204724 20.8052493,3.16010499 C20.8125984,3.16745407 20.8199475,3.18215223 20.8272966,3.18950131 C21.7018373,3.49081365 22.4,3.85091864 23.2745407,4.80629921 C23.4950131,5.04146982 23.7081365,5.2839895 23.935958,5.51181102 C24.0976378,5.67349081 24.296063,5.78372703 24.4577428,5.94540682 C24.8986877,6.39370079 25.3322835,6.84199475 25.7732283,7.2976378 C25.9275591,7.4519685 25.92021,7.55485564 25.9275591,7.60629921 C25.9275591,7.65774278 25.9055118,7.74593176 25.8393701,7.68713911 C25.7732283,7.62834646 25.655643,7.59160105 25.6041995,7.66509186 C25.5454068,7.77532808 25.6629921,7.92965879 25.7732283,8.07664042 C25.9128609,8.26771654 25.9716535,8.51023622 26.0745407,8.72335958 C26.287664,9.19370079 26.5081365,9.66404199 26.6183727,10.1711286 C26.7212598,10.6488189 26.9711286,11.111811 27.1401575,11.5748031 C27.5002625,12.5595801 27.6986877,13.5737533 27.5370079,14.6173228 C27.4341207,15.2713911 27.3312336,15.9181102 27.2577428,16.5648294 C27.3606299,16.1018373 27.5002625,15.535958 27.7207349,14.808399 C28.3086614,12.824147 27.6178478,12.552231 27.191601,9.09816273" id="Shape" fill="#B1D78A"></path>
            <path d="M2.49868766,19.0929134 C2.41049869,18.8650919 2.29291339,18.6519685 2.18267717,18.4314961 C2.16062992,18.3874016 2.13858268,18.3433071 2.10918635,18.2918635 C1.77112861,17.6304462 1.46246719,16.9469816 1.27874016,16.2341207 C1.07296588,15.4698163 1.01417323,14.6540682 1.19790026,13.8824147 C1.33753281,13.3091864 1.60944882,12.7800525 1.8152231,12.2288714 C2.15328084,11.3028871 2.26351706,10.3107612 2.55748031,9.37007874 C2.69711286,8.9144357 2.88818898,8.67191601 3.10131234,8.26771654 C3.32178478,7.86351706 3.62309711,7.51076115 3.92440945,7.15065617 C4.66666667,6.24671916 5.52650919,5.45301837 6.48188976,4.77690289 C6.7023622,4.62257218 6.93018373,4.43149606 7.18740157,4.34330709 C7.40052493,4.26981627 7.56955381,4.28451444 7.77532808,4.15958005 C8.22362205,3.88766404 8.46614173,3.38792651 8.92178478,3.13070866 C9.52440945,2.79265092 10.1784777,2.17532808 10.8766404,2.05774278 C11.1559055,2.00629921 11.3984252,2.03569554 11.6776903,1.95485564 C12.0671916,1.83727034 12.4419948,1.68293963 12.8388451,1.57270341 C13.0225722,1.52125984 13.191601,1.43307087 13.3826772,1.43307087 C13.7721785,1.42572178 14.176378,1.52125984 14.5658793,1.48451444 C14.992126,1.44041995 15.4110236,1.24934383 15.8446194,1.19055118 C15.8887139,1.1832021 15.9401575,1.1832021 15.9695538,1.21994751 C15.9989501,1.26404199 15.9695538,1.31548556 15.9401575,1.35223097 C15.8152231,1.52125984 15.6976378,1.75643045 15.8299213,1.91076115 C15.9034121,2.00629921 16.0430446,2.02099738 16.1606299,2.02099738 C16.616273,2.01364829 17.0866142,1.8519685 17.5349081,1.99160105 C17.7774278,2.06509186 18.0493438,2.06509186 18.2992126,2.09448819 C18.5784777,2.1312336 18.8650919,2.16062992 19.144357,2.19737533 C19.1958005,2.20472441 19.2545932,2.21207349 19.3060367,2.23412073 C19.3574803,2.26351706 19.3942257,2.31496063 19.3868766,2.3664042 C19.3795276,2.45459318 19.2619423,2.49868766 19.239895,2.58687664 C19.2251969,2.65301837 19.2692913,2.7191601 19.328084,2.74855643 C19.6367454,2.9175853 20.0703412,2.96902887 20.415748,3.06456693 C20.4304462,3.06456693 20.4377953,3.07191601 20.4524934,3.07926509 C20.4892388,3.08661417 20.5112861,3.09396325 20.5259843,3.09396325 C20.6288714,3.12335958 20.7244094,3.16010499 20.8199475,3.18950131 C20.8125984,3.18215223 20.8052493,3.16745407 20.7979003,3.16010499 C20.5406824,2.82204724 20.3275591,2.5648294 20.1805774,2.44724409 C19.1737533,1.6167979 15.0656168,0.507086614 13.1254593,0.411548556 C11.1926509,0.32335958 9.1496063,1.24934383 6.84199475,2.12388451 C4.5343832,2.9984252 3.38792651,5.38687664 1.77112861,6.96692913 C0.146981627,8.53963255 0.132283465,11.7585302 0.301312336,13.4047244 C0.37480315,14.1322835 0.683464567,14.8304462 0.933333333,16.8661417 C1.05826772,17.8950131 1.47716535,18.6519685 2.08713911,19.4677165 C2.33700787,19.7984252 2.59422572,20.1217848 2.81469816,20.4745407 C2.7191601,20.0041995 2.6824147,19.5338583 2.49868766,19.0929134" id="Path" fill="#46A8C6"></path>
            <path d="M27.1254593,11.5821522 C26.9564304,11.1191601 26.7065617,10.656168 26.6036745,10.1784777 C26.4934383,9.67139108 26.280315,9.20104987 26.0598425,8.73070866 C25.9569554,8.5175853 25.9055118,8.27506562 25.7585302,8.0839895 C25.648294,7.93700787 25.5380577,7.79002625 25.5895013,7.67244094 C25.6409449,7.59895013 25.7585302,7.62834646 25.8246719,7.69448819 C25.8908136,7.75328084 25.9128609,7.66509186 25.9128609,7.61364829 C25.9128609,7.56220472 25.9128609,7.45931759 25.7585302,7.30498688 C25.3175853,6.85669291 24.8839895,6.40839895 24.4430446,5.95275591 C24.2813648,5.78372703 24.0829396,5.6808399 23.9212598,5.5191601 C23.6934383,5.29133858 23.480315,5.0488189 23.2598425,4.81364829 C22.3044619,3.7480315 21.5475066,3.41732283 20.5259843,3.08661417 C20.5112861,3.07926509 20.4892388,3.07926509 20.4524934,3.07191601 C20.9595801,3.21889764 20.9007874,3.45406824 21.135958,3.84356955 C21.4005249,4.27716535 21.9884514,4.65931759 22.3853018,4.967979 C22.6351706,5.1664042 22.8923885,5.35748031 23.1128609,5.59265092 C23.4582677,5.96010499 23.6199475,6.42309711 23.8551181,6.85669291 C23.9433071,7.02572178 23.9653543,7.23149606 24.0976378,7.36377953 C24.2372703,7.50341207 24.47979,7.52545932 24.5826772,7.69448819 C24.6929134,7.87086614 24.5753281,8.09868766 24.5900262,8.30446194 C24.6120735,8.72335958 26.3979003,9.8992126 25.2146982,10.3034121 C25.1853018,10.3107612 25.1559055,10.3181102 25.1338583,10.3475066 C25.111811,10.3769029 25.111811,10.4136483 25.1191601,10.4503937 C25.1559055,10.751706 25.3984252,10.9868766 25.5895013,11.2293963 C25.9643045,11.6997375 26.1406824,12.2582677 26.1847769,12.8461942 C26.1994751,13.0225722 26.1700787,14.0367454 25.9643045,14.3160105 C25.9349081,14.360105 25.9496063,14.3821522 25.9937008,14.3968504 C26.1700787,14.4409449 26.375853,14.5952756 26.3611549,14.7349081 C26.3170604,15.1538058 26.0524934,15.5286089 26.008399,15.9401575 C25.9349081,16.5795276 26.375853,17.2115486 26.2362205,17.8435696 C26.1186352,18.3874016 25.5821522,18.8136483 25.5821522,19.3721785 C25.5821522,19.5044619 25.6115486,19.6514436 25.5527559,19.7690289 C25.4939633,19.8866142 25.3690289,19.9454068 25.2587927,20.0115486 C24.6414698,20.3863517 24.3548556,21.1212598 23.8036745,21.591601 C23.487664,21.8635171 23.0908136,22.0325459 22.7527559,22.2824147 C22.3559055,22.5690289 21.8341207,23.4068241 21.3343832,23.4362205 C21.1653543,23.4509186 20.9963255,23.3700787 20.8272966,23.3480315 C20.5627297,23.3186352 20.3128609,23.4362205 20.0776903,23.5538058 C19.5926509,23.7889764 19.1149606,23.8918635 18.6225722,24.0902887 C18.0860892,24.3107612 17.5790026,24.7370079 17.1086614,25.0677165 C16.1312336,25.7585302 15.1538058,26.4787402 14.0073491,26.8755906 C13.8383202,26.9343832 13.5884514,26.9490814 13.5296588,26.7800525 C13.4635171,26.5816273 13.7721785,26.4419948 13.8015748,26.2288714 C13.6178478,26.192126 13.4635171,26.3391076 13.3091864,26.4493438 C13.0005249,26.6698163 12.6036745,26.7212598 12.2215223,26.7433071 C11.5160105,26.7800525 10.7590551,26.735958 10.0682415,26.5448819 C9.65669291,26.4272966 9.28188976,26.3170604 8.92913386,26.0745407 C8.0839895,25.4939633 7.11391076,25.2440945 6.35695538,24.5238845 C6.26141732,24.4283465 6.14383202,24.3401575 6.01154856,24.2446194 C6.06299213,24.3181102 6.1144357,24.391601 6.15853018,24.4650919 C7.7312336,26.7653543 10.5459318,27.007874 12.192126,27.1695538 C12.9270341,27.2356955 13.6692913,27.0740157 15.712336,27.2283465 C17.7553806,27.3826772 17.8729659,26.6624672 21.1139108,25.5086614 C22.3338583,25.0750656 23.480315,24.4724409 24.1784777,23.3406824 C24.5606299,22.7233596 24.9427822,22.1060367 25.3102362,21.4740157 C25.4792651,21.1874016 25.6776903,20.9081365 25.8246719,20.6141732 C25.9643045,20.3422572 26.2215223,19.871916 26.3391076,19.960105 C26.3979003,19.9968504 26.3685039,20.1511811 26.4272966,20.1879265 C26.4566929,20.2099738 26.4934383,20.1732283 26.5154856,20.143832 C27.0005249,19.3942257 27.0446194,18.6372703 27.1034121,17.7480315 C27.1769029,16.6750656 27.3385827,15.6682415 27.5076115,14.6173228 C27.6839895,13.5737533 27.4855643,12.5595801 27.1254593,11.5821522" id="Path" fill="#0F7BB6"></path>
            <path d="M16.3296588,14.1469816 C16.0724409,14.2866142 15.8666667,14.3086614 15.4992126,14.3233596 C15.1391076,14.3380577 14.815748,14.2792651 14.7275591,14.271916 C14.6393701,14.2645669 14.6026247,14.1690289 14.5952756,14.0514436 C14.5805774,13.8089239 14.7275591,13.8603675 14.8818898,13.8677165 C15.0362205,13.8750656 15.175853,13.8383202 15.3963255,13.8456693 C15.624147,13.8530184 15.896063,13.911811 16.2194226,13.8530184 C16.4545932,13.8089239 16.528084,13.7207349 16.5868766,13.6766404 C16.6456693,13.6325459 16.6750656,13.6545932 16.7265092,13.7721785 C16.7779528,13.8897638 16.5868766,14.0073491 16.3296588,14.1469816 M11.2808399,13.823622 C11.1853018,13.7648294 11.1265092,13.7501312 11.0603675,13.6986877 C10.9942257,13.6545932 10.9795276,13.6619423 10.9207349,13.7060367 C10.8619423,13.7574803 10.7002625,13.8897638 10.3254593,13.9926509 C9.95065617,14.088189 9.79632546,14.1102362 9.67874016,14.1102362 C9.60524934,14.1102362 9.53175853,14.088189 9.48031496,14.1984252 C9.42887139,14.3013123 9.45091864,14.3748031 9.52440945,14.4041995 C9.59790026,14.4335958 9.82572178,14.5144357 10.119685,14.4850394 C10.4062992,14.455643 10.6194226,14.3968504 10.8251969,14.3013123 C11.0383202,14.2131234 11.2293963,14.1322835 11.3102362,14.0514436 C11.3910761,13.9706037 11.376378,13.8897638 11.2808399,13.823622 M16.8514436,17.2335958 C16.7632546,17.2409449 16.7412073,17.248294 16.6971129,17.2997375 C16.6456693,17.3585302 16.6603675,17.3805774 16.6971129,17.5422572 C16.7338583,17.703937 16.7926509,17.9317585 16.8073491,18.3286089 C16.8146982,18.7254593 16.7779528,19.1811024 16.6971129,19.3868766 C16.616273,19.5926509 16.8,19.5926509 16.8293963,19.5926509 C16.8587927,19.5926509 16.9690289,19.5926509 17.0057743,19.5926509 C17.0792651,19.5853018 17.1013123,19.5265092 17.1307087,19.423622 C17.160105,19.3207349 17.1748031,18.9973753 17.1821522,18.424147 C17.1895013,17.8509186 17.0278215,17.6010499 16.9690289,17.4393701 C16.9175853,17.2923885 16.9102362,17.2262467 16.8514436,17.2335958 M26.2362205,17.8509186 C26.1186352,18.3947507 25.5821522,18.8209974 25.5821522,19.3795276 C25.5821522,19.511811 25.6115486,19.6587927 25.5527559,19.776378 C25.4939633,19.8939633 25.3690289,19.9527559 25.2587927,20.0188976 C24.6414698,20.3937008 24.3548556,21.1286089 23.8036745,21.5989501 C23.487664,21.8708661 23.0908136,22.039895 22.7527559,22.2897638 C22.3559055,22.576378 21.8341207,23.4141732 21.3343832,23.4435696 C21.1653543,23.4582677 20.9963255,23.3774278 20.8272966,23.3553806 C20.5627297,23.3259843 20.3128609,23.4435696 20.0776903,23.5611549 C19.5926509,23.7963255 19.1149606,23.8992126 18.6299213,24.0976378 C18.0934383,24.3181102 17.5863517,24.744357 17.1160105,25.0750656 C16.1385827,25.7658793 15.1611549,26.4860892 14.0146982,26.8829396 C13.8456693,26.9417323 13.5958005,26.9564304 13.5370079,26.7874016 C13.4708661,26.5889764 13.7795276,26.4493438 13.8089239,26.2362205 C13.6251969,26.1994751 13.4708661,26.3464567 13.3165354,26.4566929 C13.007874,26.6771654 12.6110236,26.7286089 12.2288714,26.7506562 C11.5233596,26.7874016 10.7664042,26.7433071 10.0755906,26.552231 C9.66404199,26.4346457 9.28923885,26.3244094 8.93648294,26.0818898 C8.09133858,25.5013123 7.12125984,25.2514436 6.36430446,24.5312336 C6.05564304,24.2372703 5.5191601,23.935958 5.29868766,23.6052493 C5.21049869,23.4729659 5.15170604,23.3186352 5.02677165,23.215748 C4.91653543,23.1275591 4.76955381,23.0981627 4.62992126,23.0467192 C3.87296588,22.7968504 3.27034121,21.67979 2.98372703,20.9889764 C2.72650919,20.3790026 2.75590551,19.7102362 2.50603675,19.0929134 C2.41784777,18.8650919 2.30026247,18.6519685 2.19002625,18.4314961 C2.167979,18.3874016 2.14593176,18.3433071 2.11653543,18.2918635 C1.77847769,17.6304462 1.46981627,16.9469816 1.28608924,16.2341207 C1.08031496,15.4698163 1.02152231,14.6540682 1.20524934,13.8824147 C1.34488189,13.3091864 1.6167979,12.7800525 1.82257218,12.2288714 C2.16062992,11.3028871 2.27086614,10.3107612 2.5648294,9.37007874 C2.70446194,8.9144357 2.89553806,8.67191601 3.10866142,8.26771654 C3.32913386,7.86351706 3.63044619,7.51076115 3.93175853,7.15065617 C4.66666667,6.24671916 5.52650919,5.45301837 6.48188976,4.77690289 C6.7023622,4.62257218 6.93018373,4.43149606 7.18740157,4.34330709 C7.40052493,4.26981627 7.56955381,4.28451444 7.77532808,4.15958005 C8.22362205,3.88766404 8.46614173,3.38792651 8.92178478,3.13070866 C9.52440945,2.79265092 10.1784777,2.17532808 10.8766404,2.05774278 C11.1559055,2.00629921 11.3984252,2.03569554 11.6776903,1.95485564 C12.0671916,1.83727034 12.4419948,1.68293963 12.8388451,1.57270341 C13.0225722,1.52125984 13.191601,1.43307087 13.3826772,1.43307087 C13.7721785,1.42572178 14.176378,1.52125984 14.5658793,1.48451444 C14.992126,1.44041995 15.4110236,1.24934383 15.8446194,1.19055118 C15.8887139,1.1832021 15.9401575,1.1832021 15.9695538,1.21994751 C15.9989501,1.26404199 15.9695538,1.31548556 15.9401575,1.35223097 C15.8152231,1.52125984 15.6976378,1.75643045 15.8299213,1.91076115 C15.9034121,2.00629921 16.0430446,2.02099738 16.1606299,2.02099738 C16.616273,2.01364829 17.0866142,1.8519685 17.5349081,1.99160105 C17.7700787,2.06509186 18.0493438,2.06509186 18.2992126,2.09448819 C18.5784777,2.1312336 18.8650919,2.16062992 19.144357,2.19737533 C19.1958005,2.20472441 19.2545932,2.21207349 19.3060367,2.23412073 C19.3574803,2.26351706 19.3942257,2.31496063 19.3868766,2.3664042 C19.3795276,2.45459318 19.2619423,2.49868766 19.2472441,2.58687664 C19.2325459,2.65301837 19.2766404,2.7191601 19.3354331,2.74855643 C19.6440945,2.9175853 20.0776903,2.96902887 20.4230971,3.06456693 C20.9742782,3.21154856 20.9007874,3.44671916 21.1433071,3.85091864 C21.407874,4.28451444 21.9958005,4.66666667 22.3926509,4.97532808 C22.6425197,5.17375328 22.8997375,5.3648294 23.12021,5.6 C23.4656168,5.96745407 23.6272966,6.43044619 23.8624672,6.86404199 C23.9506562,7.03307087 23.9727034,7.23884514 24.1049869,7.37112861 C24.2446194,7.51076115 24.4871391,7.5328084 24.5900262,7.70183727 C24.7002625,7.87821522 24.5826772,8.10603675 24.5973753,8.3191601 C24.6267717,8.73805774 26.4052493,9.91391076 25.2220472,10.3181102 C25.1926509,10.3254593 25.1632546,10.3328084 25.1412073,10.3622047 C25.1191601,10.391601 25.1191601,10.4283465 25.1191601,10.4650919 C25.1559055,10.7664042 25.3984252,11.0015748 25.5895013,11.2440945 C25.9643045,11.7144357 26.1406824,12.2729659 26.1847769,12.8608924 C26.1994751,13.0372703 26.1700787,14.0514436 25.9643045,14.3307087 C25.9349081,14.3748031 25.9496063,14.3968504 25.9937008,14.4115486 C26.1700787,14.455643 26.375853,14.6099738 26.3611549,14.7496063 C26.3170604,15.1685039 26.0524934,15.5433071 26.008399,15.9548556 C25.9422572,16.5868766 26.375853,17.2188976 26.2362205,17.8509186 M5.55590551,8.31181102 C5.60734908,8.06194226 5.84986877,7.90761155 5.82782152,7.65774278 C5.82782152,7.64304462 5.82047244,7.61364829 5.76167979,7.64304462 C5.47506562,7.77532808 5.18110236,8.25301837 4.97532808,8.45879265 C4.63727034,8.79685039 4.30656168,9.1496063 3.99055118,9.50971129 C3.74068241,9.79632546 3.49816273,10.0902887 3.33648294,10.4356955 C2.91023622,11.3396325 2.81469816,12.3611549 2.89553806,13.3459318 C2.93963255,13.8824147 3.0351706,14.4115486 3.16745407,14.9259843 C3.28503937,15.3669291 3.27769029,15.8666667 3.40997375,16.2782152 C3.44671916,16.4031496 3.53490814,16.5133858 3.63779528,16.5795276 C3.67454068,16.6015748 3.76272966,16.6015748 3.76272966,16.4545932 C3.75538058,15.4624672 3.77007874,14.4703412 3.81417323,13.4782152 C3.82887139,13.2136483 3.85091864,12.9490814 3.88031496,12.6845144 C3.96850394,11.9716535 4.13753281,11.2661417 4.4167979,10.6047244 C4.68871391,9.95065617 5.58530184,9.40682415 5.56325459,8.67191601 C5.55590551,8.54698163 5.52650919,8.42204724 5.55590551,8.31181102 M19.0194226,12.5301837 C18.8650919,12.552231 18.4020997,12.6257218 18.3433071,12.6257218 C18.2845144,12.6257218 18.1669291,12.6404199 18.1742782,12.7212598 C18.1816273,12.8167979 18.4535433,12.8976378 18.8430446,12.8461942 C19.2251969,12.7947507 19.4015748,12.7506562 19.3868766,12.6183727 C19.3721785,12.4860892 19.1811024,12.5081365 19.0194226,12.5301837 M18.519685,13.2430446 C18.512336,13.2062992 18.4167979,13.191601 18.3506562,13.1989501 C18.2771654,13.1989501 17.8435696,13.1254593 17.5643045,12.8829396 C17.2923885,12.6330709 17.0351706,12.3097113 16.888189,12.1480315 C16.7412073,11.9937008 16.5648294,11.8026247 16.1312336,11.8467192 C15.6976378,11.8908136 15.2860892,12.0230971 15.3301837,12.2141732 C15.352231,12.3170604 15.5947507,12.287664 15.8372703,12.2362205 C16.0871391,12.192126 16.439895,12.1333333 16.5354331,12.287664 C16.6383202,12.4493438 16.7926509,12.7580052 17.0866142,12.9931759 C17.3805774,13.2283465 17.7480315,13.4194226 18.1595801,13.4047244 C18.5858268,13.3973753 18.5270341,13.2724409 18.519685,13.2430446 M9.65669291,10.1858268 C9.69343832,10.2887139 9.8183727,10.3475066 10.1270341,10.3181102 C10.4724409,10.2887139 11.6335958,10.119685 11.9496063,10.3622047 C12.1259843,10.4944882 12.1553806,10.5238845 12.1847769,10.8619423 C12.2068241,11.2 12.2435696,11.1706037 12.2950131,11.1779528 C12.3391076,11.1853018 12.4860892,11.111811 12.6404199,10.839895 C12.7947507,10.5606299 13.4414698,10.2813648 14.3086614,10.207874 C15.175853,10.1343832 15.9107612,10.1343832 16.7926509,10.5973753 C17.6524934,11.0456693 18.6225722,11.7732283 19.0708661,11.560105 C19.3060367,11.4498688 19.4530184,11.0750656 19.2178478,10.1417323 C18.9900262,9.21574803 18.5711286,8.64251969 18.4167979,8.4808399 C18.2698163,8.3191601 18.0493438,8.13543307 17.9023622,8.22362205 C17.7553806,8.31181102 17.9391076,8.81154856 18.0860892,9.03937008 C18.2330709,9.25984252 18.247769,9.39947507 17.975853,9.30393701 C17.703937,9.20839895 17.4393701,9.0687664 17.160105,8.79685039 C16.888189,8.52493438 16.4619423,7.73858268 16.2267717,7.86351706 C15.991601,7.98845144 16.2929134,8.5175853 16.167979,8.57637795 C16.0430446,8.6351706 15.7931759,8.34855643 15.5653543,8.03254593 C15.3448819,7.71653543 15.175853,7.34908136 14.8745407,7.24619423 C14.5732283,7.15065617 13.8015748,7.06246719 12.6624672,7.56220472 C11.5895013,8.03989501 10.7076115,8.75275591 10.1637795,9.28923885 C9.64199475,9.84041995 9.61994751,10.0829396 9.65669291,10.1858268 M9.21574803,12.5742782 C9.24514436,12.6624672 9.33333333,12.7874016 9.5832021,12.6992126 C9.84041995,12.6110236 10.3181102,12.464042 10.567979,12.4052493 C10.8178478,12.3464567 11.1559055,12.3391076 11.2955381,12.3611549 C11.4278215,12.375853 11.4351706,12.2435696 11.3616798,12.2141732 C11.288189,12.1847769 10.7811024,12.0524934 10.5532808,11.9790026 C10.3254593,11.9055118 10.2299213,11.9496063 10.1417323,11.9716535 C10.0535433,11.9937008 9.61994751,12.1333333 9.41417323,12.1994751 C9.20104987,12.2729659 9.14225722,12.3832021 9.21574803,12.5742782 M7.40052493,6.01154856 C7.38582677,5.99685039 7.32703412,6.04094488 7.29028871,6.06299213 C7.18005249,6.12913386 7.05511811,6.18057743 6.93753281,6.23937008 C6.68766404,6.35695538 6.47454068,6.47454068 6.43779528,6.76850394 C6.43044619,6.80524934 6.43044619,6.84934383 6.44514436,6.88608924 C6.45249344,6.9007874 6.45249344,6.90813648 6.45984252,6.92283465 C6.52598425,7.01102362 6.7832021,6.87139108 6.85669291,6.82729659 C6.96692913,6.76115486 7.00367454,6.67296588 7.06246719,6.57742782 C7.10656168,6.50393701 7.16535433,6.42309711 7.20944882,6.3496063 C7.26824147,6.2687664 7.31968504,6.18792651 7.37847769,6.10708661 C7.39317585,6.07034121 7.4152231,6.02624672 7.40052493,6.01154856 M19.7543307,14.0220472 C19.4603675,13.8603675 19.3427822,13.7795276 19.1370079,13.7354331 C18.9459318,13.6913386 18.8871391,13.7060367 18.791601,13.6913386 C18.7034121,13.6766404 18.6813648,13.6766404 18.6666667,13.6986877 C18.6593176,13.7207349 18.6813648,13.7501312 18.7695538,13.8015748 C18.8577428,13.8530184 19.0267717,13.9485564 19.1296588,14.0440945 C19.2325459,14.1396325 19.3354331,14.2425197 19.2692913,14.3454068 C19.2104987,14.448294 19.0047244,14.4115486 18.8577428,14.3307087 C18.7107612,14.2498688 18.5049869,14.088189 18.424147,14.0514436 C18.3433071,14.0220472 18.2845144,14.0146982 18.3065617,14.0955381 C18.3286089,14.176378 18.3653543,14.271916 18.3065617,14.3160105 C18.247769,14.3674541 18.064042,14.3674541 17.8950131,14.2278215 C17.7333333,14.088189 17.6818898,13.9926509 17.4687664,13.816273 C17.3217848,13.6913386 17.1821522,13.639895 17.071916,13.5590551 C16.9616798,13.4782152 16.8587927,13.3826772 16.7044619,13.3385827 C16.5501312,13.2944882 16.1091864,13.2062992 15.4698163,13.3091864 C14.8304462,13.4194226 14.6834646,13.5370079 14.4850394,13.5149606 C14.3674541,13.5002625 14.3454068,13.4635171 14.3086614,13.3459318 C14.271916,13.2283465 14.2498688,13.2136483 14.183727,13.184252 C14.1249344,13.1548556 14.0514436,13.1695538 13.9412073,13.1181102 C13.8309711,13.0666667 13.5811024,12.9931759 13.3091864,12.5963255 C13.1034121,12.2950131 13.0299213,12.1112861 12.9343832,11.9716535 C12.8314961,11.832021 12.7653543,11.7952756 12.647769,11.8026247 C12.4787402,11.8099738 12.3832021,12.0451444 12.3170604,12.4052493 C12.2509186,12.7653543 12.2215223,13.096063 12.0524934,13.1989501 C11.8761155,13.3018373 11.6997375,13.2503937 11.6041995,13.2209974 C11.5086614,13.191601 11.3984252,13.1401575 11.2367454,13.1548556 C11.0750656,13.1622047 10.9721785,13.1622047 10.6782152,13.3238845 C10.384252,13.4855643 10.3107612,13.551706 10.0461942,13.6104987 C9.7816273,13.6692913 9.7007874,13.6692913 9.62729659,13.6839895 C9.55380577,13.6913386 9.51706037,13.6766404 9.47296588,13.8456693 C9.42887139,14.0146982 9.33333333,14.1984252 9.23044619,14.2131234 C9.12755906,14.2278215 9.06141732,14.1690289 9.00997375,14.1396325 C8.95853018,14.1028871 8.76010499,13.9485564 8.64986877,13.8971129 C8.53963255,13.8530184 8.3191601,13.7942257 8.12808399,13.9779528 C7.93700787,14.1616798 7.63569554,14.6687664 7.52545932,15.3889764 C7.4152231,16.1091864 7.34173228,16.8 7.5328084,16.8661417 C7.71653543,16.9322835 8.01784777,16.0503937 8.3191601,16.1753281 C8.58372703,16.2855643 8.45879265,18.424147 8.44409449,18.8871391 C8.42204724,19.3501312 8.33385827,20.0409449 8.5175853,20.5186352 C8.70131234,20.9963255 8.87034121,21.224147 9.60524934,21.8267717 C10.3401575,22.4293963 10.4650919,22.5469816 10.6267717,22.7086614 C10.7884514,22.8703412 11.2146982,23.1569554 11.3249344,23.208399 C11.4351706,23.2598425 11.6776903,23.303937 11.7805774,23.0540682 C11.8834646,22.8041995 11.9422572,22.5396325 12.2509186,22.2971129 C12.5669291,22.0545932 12.6404199,21.8414698 12.5595801,21.7018373 C12.4787402,21.5622047 12.3464567,21.5548556 12.1333333,21.591601 C11.92021,21.6283465 11.5527559,21.7532808 10.9868766,21.6650919 C10.4209974,21.5769029 9.56850394,21.3490814 9.49501312,20.952231 C9.44356955,20.6729659 9.66404199,20.3937008 9.71548556,20.1658793 C9.75958005,19.9527559 9.8992126,19.5044619 9.66404199,19.3133858 C9.50971129,19.1884514 9.37742782,19.3721785 9.29658793,19.4824147 C9.21574803,19.5926509 9.00262467,19.7028871 9.00997375,19.4089239 C9.01732283,19.1223097 9.02467192,18.8136483 9.05406824,18.5490814 C9.07611549,18.3653543 9.032021,17.9685039 9.00262467,17.8215223 C8.97322835,17.6745407 9.02467192,17.4173228 9.18635171,17.2997375 C9.35538058,17.1895013 9.7007874,17.0204724 9.83307087,16.9396325 C9.96535433,16.8587927 10.1049869,16.7779528 10.112336,16.5648294 C10.119685,16.351706 10.2740157,15.9475066 10.3769029,15.7564304 C10.47979,15.5727034 10.5385827,15.4183727 10.5459318,15.3154856 C10.5606299,15.2125984 10.6194226,15.1244094 10.7884514,15.0950131 C10.9574803,15.0656168 11.023622,15.0729659 10.9795276,15.2125984 C10.9354331,15.352231 10.839895,15.5286089 10.8472441,15.6608924 C10.8545932,15.8005249 10.928084,15.8740157 11.0603675,15.9401575 C11.1853018,16.0136483 11.3175853,16.0871391 11.6409449,15.9769029 C11.9643045,15.8666667 12.4052493,15.712336 12.6845144,15.7343832 C13.007874,15.7564304 13.2503937,15.9254593 13.4782152,15.991601 C13.6472441,16.0430446 13.6692913,16.0503937 13.9779528,16.1312336 C14.1322835,16.1753281 14.2278215,16.1385827 14.2645669,16.1091864 C14.3013123,16.07979 14.3527559,16.0136483 14.3233596,15.8887139 C14.2939633,15.7637795 14.1469816,15.4918635 14.2792651,15.4330709 C14.4115486,15.3742782 14.5511811,15.5580052 14.6540682,15.807874 C14.7569554,16.0577428 14.9333333,16.439895 15.080315,16.6015748 C15.2272966,16.7632546 15.4404199,16.8220472 15.6902887,16.9102362 C15.9401575,16.9984252 16.1018373,16.976378 16.2047244,17.4026247 C16.3076115,17.8288714 16.3223097,17.975853 16.3296588,18.1742782 C16.3370079,18.6005249 16.256168,18.6666667 16.256168,18.967979 C16.256168,19.3207349 16.2929134,19.4309711 16.1606299,19.5853018 C16.1165354,19.6367454 16.0650919,19.6808399 16.0136483,19.6367454 C15.9622047,19.5926509 16.0062992,19.5485564 16.0283465,19.4824147 C16.0650919,19.3868766 16.0430446,19.2472441 16.0356955,19.0708661 C16.0283465,18.9459318 16.0283465,18.9385827 16.0209974,18.9091864 C16.0136483,18.8356955 15.9769029,18.7989501 15.9181102,18.8062992 C15.7858268,18.8209974 15.7049869,18.9238845 15.5065617,18.9385827 C15.3081365,18.9532808 14.8598425,18.9606299 14.5805774,18.9826772 C14.3086614,19.0047244 13.7207349,19.0414698 13.2650919,19.056168 C12.8167979,19.0708661 12.4860892,19.0708661 12.0304462,19.0267717 C11.5748031,18.9753281 11.4866142,18.9532808 11.4057743,18.9532808 C11.3175853,18.9532808 10.9133858,18.9973753 10.839895,19.2766404 C10.8031496,19.423622 10.8178478,19.4824147 10.9207349,19.5044619 C11.023622,19.5265092 11.471916,19.5559055 11.6850394,19.5853018 C11.8981627,19.6146982 12.375853,19.6808399 12.6110236,19.688189 C12.8461942,19.688189 13.1475066,19.6661417 13.3238845,19.6661417 C13.4929134,19.6661417 13.8971129,19.6955381 13.911811,20.2614173 C13.911811,20.4524934 13.9265092,20.6215223 14.0587927,20.7170604 C14.1910761,20.8125984 14.6981627,21.0551181 15.1538058,21.2535433 C15.6094488,21.4519685 16.0356955,21.4813648 16.2708661,21.3858268 C16.5060367,21.2902887 16.5868766,21.1433071 16.5133858,20.9228346 C16.4325459,20.7023622 16.4251969,20.5406824 16.5207349,20.4671916 C16.616273,20.3937008 16.7191601,20.3128609 17.160105,20.3349081 C17.4026247,20.3496063 17.7259843,20.4671916 17.8729659,20.2540682 C18.0713911,19.9674541 18.0934383,19.9160105 18.4608924,19.6661417 C18.8283465,19.416273 19.0120735,19.2472441 18.9973753,18.6225722 C18.9826772,17.9832021 18.9238845,16.8955381 19.0120735,16.2120735 C19.1002625,15.5580052 19.511811,15.2346457 19.7469816,14.7790026 C19.960105,14.3821522 20.048294,14.183727 19.7543307,14.0220472 M11.9937008,18.3947507 C13.1181102,18.5711286 14.5585302,18.6372703 14.8451444,18.6225722 C15.1317585,18.6152231 15.4404199,18.4976378 15.6461942,18.4167979 C15.8519685,18.3286089 15.9181102,18.2845144 15.9548556,18.2036745 C15.991601,18.1228346 15.9401575,17.8288714 15.9107612,17.7112861 C15.8740157,17.5937008 15.7270341,17.4687664 15.6388451,17.3805774 C15.5433071,17.2923885 15.3742782,17.160105 15.3448819,17.1454068 C15.2419948,17.071916 15.1097113,17.0572178 14.4188976,17.1160105 C13.728084,17.1748031 13.4635171,17.2850394 13.1034121,17.432021 C12.7433071,17.5790026 12.6698163,17.7480315 12.4934383,17.887664 C12.3097113,18.0272966 12.0598425,18.1081365 11.9496063,18.2551181 C11.8540682,18.3653543 11.9349081,18.3874016 11.9937008,18.3947507 M10.4136483,17.3144357 C10.3475066,17.1968504 10.2372703,17.2923885 10.1637795,17.3364829 C10.0902887,17.3805774 9.86981627,17.5422572 9.70813648,17.6598425 C9.55380577,17.7774278 9.49501312,17.9317585 9.45091864,18.064042 C9.40682415,18.1963255 9.40682415,18.3874016 9.50971129,18.4388451 C9.57585302,18.4755906 9.67874016,18.4461942 9.75223097,18.4167979 C9.84041995,18.3800525 9.89186352,18.3580052 9.96535433,18.3065617 C10.0829396,18.2257218 10.1343832,18.1816273 10.2225722,18.1007874 C10.3107612,18.0199475 10.3622047,17.9391076 10.4577428,17.7480315 C10.5459318,17.5643045 10.47979,17.432021 10.4136483,17.3144357 M23.2377953,9.66404199 C23.3333333,9.84041995 23.4141732,10.024147 23.4950131,10.207874 C23.8992126,11.1706037 24.112336,12.2141732 24.0829396,13.2577428 C24.0755906,13.4488189 24.0976378,13.6839895 24.2813648,13.7427822 C24.47979,13.8089239 24.4577428,11.7217848 24.4283465,11.5454068 C24.3695538,11.2514436 24.3181102,10.9648294 24.2813648,10.6708661 C24.2372703,10.3328084 24.0388451,10.0902887 23.9139108,9.78897638 C23.7963255,9.50971129 23.6713911,9.23779528 23.4950131,8.98792651 C23.3700787,8.80419948 23.215748,8.62047244 23.215748,8.40734908 C23.215748,8.32650919 23.2377953,8.23832021 23.2377953,8.15748031 C23.2377953,7.67979003 22.5469816,7.48871391 22.4,7.05511811 C22.3191601,6.80524934 22.3044619,6.61417323 22.1207349,6.40104987 C21.8635171,6.09238845 21.5034121,5.79107612 21.1800525,5.55590551 C20.8346457,5.29868766 20.2540682,5.26929134 19.8425197,5.18845144 C19.7102362,5.1664042 19.5559055,5.15170604 19.4603675,5.24724409 C19.6073491,5.45301837 19.8425197,5.57795276 20.055643,5.71023622 C20.5112861,5.99685039 20.9154856,6.35695538 21.2461942,6.77585302 C21.584252,7.20209974 21.7973753,7.70918635 22.1574803,8.11338583 C22.5690289,8.5984252 22.943832,9.10551181 23.2377953,9.66404199 M24.4209974,17.6671916 C24.3401575,17.7112861 24.296063,17.8435696 24.2372703,17.9170604 C24.1490814,18.0346457 24.0608924,18.152231 23.9874016,18.2771654 C23.9065617,18.4094488 23.7889764,18.512336 23.7081365,18.6446194 C23.6860892,18.6813648 23.664042,18.7181102 23.6493438,18.7548556 C23.6052493,18.8650919 23.575853,18.9753281 23.5905512,19.0929134 C23.5979003,19.1884514 23.6346457,19.2766404 23.6419948,19.3648294 C23.6713911,19.5706037 23.5611549,19.7028871 23.487664,19.8866142 C23.3627297,20.1805774 23.2010499,20.4524934 23.0393701,20.7317585 C23.0834646,20.7538058 23.1275591,20.7170604 23.1569554,20.680315 C23.4362205,20.3496063 23.7228346,20.0188976 23.9653543,19.6587927 C24.1049869,19.4530184 24.2152231,19.2104987 24.3034121,18.9753281 C24.4430446,18.6005249 24.3475066,18.1742782 24.5018373,17.8215223 C24.5312336,17.7186352 24.5385827,17.6010499 24.4209974,17.6671916" id="Shape" fill="#00416A"></path>
            <path d="M3.87296588,12.6771654 C3.83622047,12.9417323 3.81417323,13.2062992 3.80682415,13.4708661 C3.76272966,14.4703412 3.7480315,15.4551181 3.75538058,16.4472441 C3.75538058,16.5942257 3.6671916,16.5942257 3.63044619,16.5721785 C3.52020997,16.5060367 3.43937008,16.3958005 3.40262467,16.2708661 C3.27034121,15.8593176 3.27769029,15.3595801 3.16010499,14.9186352 C3.02782152,14.4041995 2.92493438,13.8750656 2.88818898,13.3385827 C2.80734908,12.3538058 2.90288714,11.3322835 3.32913386,10.4283465 C3.49081365,10.0829396 3.73333333,9.78897638 3.9832021,9.5023622 C4.2992126,9.14225722 4.62992126,8.78950131 4.967979,8.45144357 C5.18110236,8.24566929 5.46771654,7.76062992 5.75433071,7.63569554 C5.81312336,7.60629921 5.82047244,7.63569554 5.82782152,7.6503937 C5.84986877,7.90761155 5.60734908,8.05459318 5.55590551,8.30446194 C5.53385827,8.42204724 5.55590551,8.53963255 5.55590551,8.65721785 C5.57795276,9.39212598 4.68136483,9.93595801 4.40944882,10.5900262 C4.13018373,11.2587927 3.96850394,11.9643045 3.87296588,12.6771654 M6.45984252,6.91548556 C6.52598425,7.00367454 6.7832021,6.85669291 6.85669291,6.81994751 C6.96692913,6.75380577 7.00367454,6.6656168 7.06246719,6.57007874 C7.10656168,6.48923885 7.16535433,6.41574803 7.20944882,6.34225722 C7.26824147,6.26141732 7.31968504,6.18057743 7.37847769,6.09973753 C7.39317585,6.07769029 7.4152231,6.0335958 7.40052493,6.01889764 C7.38582677,6.00419948 7.32703412,6.04829396 7.29028871,6.07034121 C7.18005249,6.13648294 7.05511811,6.18792651 6.93753281,6.24671916 C6.68766404,6.36430446 6.47454068,6.48188976 6.43779528,6.77585302 C6.43044619,6.81259843 6.43044619,6.85669291 6.44514436,6.89343832 C6.44514436,6.89343832 6.45249344,6.90813648 6.45984252,6.91548556 M24.0829396,13.2650919 C24.0755906,13.456168 24.0976378,13.6913386 24.2813648,13.7501312 C24.47979,13.816273 24.4577428,11.7291339 24.4283465,11.5527559 C24.3695538,11.2587927 24.3181102,10.9721785 24.2813648,10.6782152 C24.2372703,10.3401575 24.0388451,10.0976378 23.9139108,9.79632546 C23.7963255,9.51706037 23.6713911,9.24514436 23.4950131,8.99527559 C23.3700787,8.81154856 23.215748,8.62782152 23.215748,8.41469816 C23.215748,8.33385827 23.2377953,8.24566929 23.2377953,8.1648294 C23.2377953,7.68713911 22.5469816,7.49606299 22.4,7.06246719 C22.3191601,6.81259843 22.3044619,6.62152231 22.1207349,6.40839895 C21.8635171,6.09973753 21.5034121,5.7984252 21.1800525,5.56325459 C20.8346457,5.30603675 20.2540682,5.26929134 19.8425197,5.19580052 C19.7102362,5.17375328 19.5559055,5.15905512 19.4603675,5.25459318 C19.6073491,5.46036745 19.8425197,5.58530184 20.055643,5.7175853 C20.5112861,6.00419948 20.9154856,6.36430446 21.2461942,6.7832021 C21.584252,7.20944882 21.7973753,7.71653543 22.1574803,8.12073491 C22.576378,8.5984252 22.943832,9.10551181 23.2451444,9.67139108 C23.3406824,9.84776903 23.4215223,10.0314961 23.5023622,10.2152231 C23.9065617,11.1779528 24.112336,12.2215223 24.0829396,13.2650919 M23.6493438,18.7475066 C23.6052493,18.8577428 23.575853,18.967979 23.5905512,19.0855643 C23.5979003,19.1737533 23.6346457,19.2619423 23.6419948,19.3574803 C23.6713911,19.5632546 23.5611549,19.6955381 23.487664,19.8792651 C23.3627297,20.1732283 23.2010499,20.4451444 23.0393701,20.7244094 C23.0834646,20.7464567 23.1275591,20.7097113 23.1569554,20.6729659 C23.4362205,20.3422572 23.7228346,20.0115486 23.9653543,19.6514436 C24.1049869,19.4383202 24.2152231,19.2031496 24.3034121,18.967979 C24.4430446,18.5931759 24.3475066,18.1669291 24.5018373,17.8141732 C24.5385827,17.7259843 24.5459318,17.6010499 24.4283465,17.6671916 C24.3475066,17.7112861 24.3034121,17.8435696 24.2446194,17.9170604 C24.1564304,18.0346457 24.0682415,18.152231 23.9947507,18.2771654 C23.9139108,18.4094488 23.7963255,18.512336 23.7154856,18.6446194 C23.6860892,18.6740157 23.664042,18.7107612 23.6493438,18.7475066" id="Shape" fill="#7FA9C8"></path>
            <path d="M16.7926509,10.6047244 C15.9107612,10.1417323 15.175853,10.1417323 14.3086614,10.2152231 C13.4414698,10.2887139 12.7947507,10.567979 12.6404199,10.8472441 C12.4860892,11.1265092 12.3391076,11.1926509 12.2950131,11.1853018 C12.2435696,11.1779528 12.2141732,11.2073491 12.1847769,10.8692913 C12.1553806,10.5312336 12.1259843,10.5018373 11.9496063,10.3695538 C11.6335958,10.1270341 10.4724409,10.296063 10.1270341,10.3254593 C9.8183727,10.3548556 9.69343832,10.296063 9.65669291,10.1931759 C9.61994751,10.0902887 9.63464567,9.84776903 10.1784777,9.31128609 C10.7223097,8.77480315 11.6041995,8.06194226 12.6771654,7.58425197 C13.816273,7.07716535 14.5879265,7.16535433 14.8892388,7.26824147 C15.1905512,7.36377953 15.352231,7.73858268 15.5800525,8.05459318 C15.8005249,8.37060367 16.0503937,8.65721785 16.1826772,8.5984252 C16.3076115,8.53963255 16.0062992,8.01049869 16.2414698,7.8855643 C16.4766404,7.76062992 16.9028871,8.54698163 17.1748031,8.81889764 C17.4467192,9.09081365 17.7186352,9.23044619 17.9905512,9.32598425 C18.2624672,9.42152231 18.247769,9.28188976 18.1007874,9.06141732 C17.9538058,8.84094488 17.7700787,8.33385827 17.9170604,8.24566929 C18.064042,8.15748031 18.2771654,8.34120735 18.4314961,8.50288714 C18.5784777,8.66456693 18.9973753,9.23779528 19.2325459,10.1637795 C19.4603675,11.0897638 19.3207349,11.471916 19.0855643,11.5821522 C18.6225722,11.7805774 17.6524934,11.0530184 16.7926509,10.6047244 M9.5832021,12.7065617 C9.84041995,12.6183727 10.3181102,12.4713911 10.567979,12.4125984 C10.8178478,12.3538058 11.1559055,12.3464567 11.2955381,12.3685039 C11.4278215,12.3832021 11.4351706,12.2509186 11.3616798,12.2215223 C11.288189,12.192126 10.7811024,12.0598425 10.5532808,11.9863517 C10.3254593,11.9128609 10.2299213,11.9569554 10.1417323,11.9790026 C10.0535433,12.0010499 9.61994751,12.1406824 9.41417323,12.2068241 C9.20104987,12.280315 9.14225722,12.3832021 9.21574803,12.5742782 C9.24514436,12.6624672 9.32598425,12.7874016 9.5832021,12.7065617 M15.3375328,12.2141732 C15.3595801,12.3170604 15.6020997,12.287664 15.8446194,12.2362205 C16.0944882,12.192126 16.4472441,12.1333333 16.5427822,12.287664 C16.6383202,12.4493438 16.8,12.7580052 17.0939633,12.9931759 C17.3879265,13.2283465 17.7553806,13.4194226 18.1669291,13.4047244 C18.5858268,13.3900262 18.5270341,13.2724409 18.519685,13.2356955 C18.512336,13.1989501 18.424147,13.184252 18.3506562,13.191601 C18.2771654,13.191601 17.8435696,13.1181102 17.5643045,12.8682415 C17.2923885,12.6183727 17.0351706,12.2950131 16.888189,12.1333333 C16.7412073,11.9790026 16.5648294,11.7879265 16.1312336,11.832021 C15.7049869,11.8834646 15.2934383,12.015748 15.3375328,12.2141732 M18.1742782,12.7212598 C18.1742782,12.8167979 18.4535433,12.8976378 18.8430446,12.8461942 C19.2251969,12.7947507 19.4015748,12.7506562 19.3868766,12.6183727 C19.3721785,12.4860892 19.1811024,12.5007874 19.0194226,12.5301837 C18.8650919,12.552231 18.4020997,12.6257218 18.3433071,12.6257218 C18.2845144,12.6257218 18.1742782,12.6404199 18.1742782,12.7212598 M9.75223097,18.4167979 C9.84041995,18.3800525 9.89186352,18.3580052 9.96535433,18.3065617 C10.0829396,18.2257218 10.1343832,18.1816273 10.2225722,18.1007874 C10.3107612,18.0199475 10.3622047,17.9391076 10.4577428,17.7480315 C10.5532808,17.5569554 10.4871391,17.4246719 10.4209974,17.3070866 C10.3548556,17.1895013 10.2446194,17.2850394 10.1711286,17.3291339 C10.0976378,17.3732283 9.87716535,17.5349081 9.71548556,17.6524934 C9.56115486,17.7700787 9.5023622,17.9244094 9.45826772,18.0566929 C9.41417323,18.1889764 9.41417323,18.3800525 9.51706037,18.4314961 C9.5832021,18.4755906 9.67874016,18.4461942 9.75223097,18.4167979 M14.8451444,18.6299213 C15.1317585,18.6152231 15.4404199,18.5049869 15.6461942,18.424147 C15.8519685,18.335958 15.9181102,18.2918635 15.9548556,18.2110236 C15.991601,18.1301837 15.9401575,17.8362205 15.9107612,17.7186352 C15.8740157,17.6010499 15.7270341,17.4761155 15.6388451,17.3879265 C15.5433071,17.2997375 15.3742782,17.1674541 15.3448819,17.1527559 C15.2419948,17.0792651 15.1097113,17.0645669 14.4188976,17.1233596 C13.728084,17.1821522 13.4635171,17.2923885 13.1034121,17.4393701 C12.7433071,17.5863517 12.6698163,17.7553806 12.4934383,17.8950131 C12.3097113,18.0346457 12.0598425,18.1154856 11.9496063,18.2624672 C11.8614173,18.3800525 11.9422572,18.4020997 12.0010499,18.4094488 C13.1254593,18.5784777 14.5585302,18.6372703 14.8451444,18.6299213 M12.647769,11.8099738 C12.4787402,11.8173228 12.3832021,12.0524934 12.3170604,12.4125984 C12.2509186,12.7727034 12.2215223,13.1034121 12.0524934,13.2062992 C11.8761155,13.3091864 11.6997375,13.2577428 11.6041995,13.2283465 C11.5086614,13.1989501 11.3984252,13.1475066 11.2367454,13.1622047 C11.0750656,13.1695538 10.9721785,13.1695538 10.6782152,13.3312336 C10.384252,13.4929134 10.3107612,13.5590551 10.0461942,13.6178478 C9.7816273,13.6766404 9.7007874,13.6839895 9.62729659,13.6913386 C9.55380577,13.6986877 9.51706037,13.6839895 9.47296588,13.8530184 C9.42887139,14.0220472 9.33333333,14.2057743 9.23044619,14.2204724 C9.12755906,14.2351706 9.06141732,14.176378 9.00997375,14.1469816 C8.95853018,14.1102362 8.76010499,13.9559055 8.64986877,13.9044619 C8.53963255,13.8603675 8.3191601,13.8015748 8.12808399,13.9853018 C7.93700787,14.1690289 7.63569554,14.6761155 7.5328084,15.3963255 C7.42257218,16.1165354 7.34908136,16.8073491 7.54015748,16.8734908 C7.72388451,16.9396325 8.02519685,16.0577428 8.32650919,16.1826772 C8.59107612,16.2929134 8.46614173,18.4314961 8.45144357,18.8944882 C8.42939633,19.3574803 8.34120735,20.048294 8.52493438,20.5259843 C8.70866142,21.0036745 8.87769029,21.2314961 9.61259843,21.8341207 C10.3475066,22.4367454 10.4724409,22.5543307 10.6341207,22.7160105 C10.7958005,22.8776903 11.2220472,23.1643045 11.3322835,23.215748 C11.4425197,23.2671916 11.6850394,23.3112861 11.7879265,23.0614173 C11.8908136,22.8115486 11.9496063,22.5469816 12.2582677,22.3044619 C12.5742782,22.0619423 12.647769,21.8488189 12.5669291,21.7091864 C12.4860892,21.5695538 12.3538058,21.5622047 12.1406824,21.5989501 C11.9275591,21.6356955 11.560105,21.7606299 10.9942257,21.6724409 C10.4283465,21.584252 9.57585302,21.3564304 9.5023622,20.9595801 C9.45091864,20.680315 9.67139108,20.4010499 9.72283465,20.1732283 C9.76692913,19.960105 9.90656168,19.511811 9.67139108,19.3207349 C9.51706037,19.1958005 9.3847769,19.3795276 9.30393701,19.4897638 C9.22309711,19.6 9.00997375,19.7102362 9.01732283,19.416273 C9.02467192,19.1296588 9.032021,18.8209974 9.06141732,18.5564304 C9.08346457,18.3727034 9.03937008,17.975853 9.00997375,17.8288714 C8.98057743,17.6818898 9.032021,17.4246719 9.19370079,17.3144357 C9.36272966,17.2041995 9.70813648,17.0351706 9.84041995,16.9543307 C9.97270341,16.8734908 10.112336,16.7926509 10.119685,16.5795276 C10.1270341,16.3664042 10.2813648,15.9622047 10.384252,15.7711286 C10.4871391,15.5874016 10.5459318,15.4330709 10.5532808,15.3301837 C10.567979,15.2272966 10.6267717,15.1391076 10.7958005,15.1097113 C10.9648294,15.080315 11.0309711,15.087664 10.9868766,15.2272966 C10.9427822,15.3669291 10.8472441,15.5433071 10.8545932,15.6755906 C10.8619423,15.8152231 10.9354331,15.8887139 11.0677165,15.9548556 C11.1926509,16.0283465 11.3249344,16.1018373 11.648294,15.991601 C11.9716535,15.8813648 12.4125984,15.7270341 12.6918635,15.7490814 C13.0152231,15.7711286 13.2577428,15.9401575 13.4855643,16.0062992 C13.6545932,16.0577428 13.6766404,16.0650919 13.9853018,16.1459318 C14.1396325,16.1900262 14.2351706,16.1532808 14.271916,16.1238845 C14.3086614,16.0944882 14.360105,16.0283465 14.3307087,15.9034121 C14.3013123,15.7784777 14.1543307,15.5065617 14.2866142,15.447769 C14.4188976,15.3889764 14.5585302,15.5727034 14.6614173,15.8152231 C14.7643045,16.0650919 14.9406824,16.4472441 15.087664,16.6089239 C15.2346457,16.7706037 15.447769,16.8293963 15.6976378,16.9175853 C15.9475066,17.0057743 16.1091864,16.983727 16.2120735,17.4099738 C16.3149606,17.8362205 16.3296588,17.9832021 16.3370079,18.1816273 C16.344357,18.607874 16.2635171,18.6740157 16.2635171,18.9753281 C16.2635171,19.328084 16.3002625,19.4383202 16.167979,19.5926509 C16.1238845,19.6440945 16.0724409,19.688189 16.0209974,19.6440945 C15.9695538,19.6 16.0136483,19.5559055 16.0356955,19.4897638 C16.0724409,19.3942257 16.0503937,19.2545932 16.0430446,19.0782152 C16.0356955,18.9532808 16.0356955,18.9459318 16.0283465,18.9165354 C16.0209974,18.8430446 15.984252,18.8062992 15.9254593,18.8136483 C15.7931759,18.8283465 15.712336,18.9312336 15.5139108,18.9459318 C15.3154856,18.9606299 14.8671916,18.967979 14.5879265,18.9900262 C14.3160105,19.0120735 13.728084,19.0488189 13.2724409,19.0635171 C12.824147,19.0782152 12.4934383,19.0782152 12.0377953,19.0341207 C11.5821522,18.9826772 11.4939633,18.9606299 11.4131234,18.9606299 C11.3249344,18.9606299 10.9207349,19.0047244 10.8472441,19.2839895 C10.8104987,19.4309711 10.8251969,19.4897638 10.928084,19.511811 C11.0309711,19.5338583 11.4792651,19.5632546 11.6923885,19.5926509 C11.9055118,19.6220472 12.3832021,19.688189 12.6183727,19.6955381 C12.8535433,19.6955381 13.1548556,19.6808399 13.3312336,19.6734908 C13.5002625,19.6734908 13.9044619,19.7028871 13.9191601,20.2687664 C13.9191601,20.4598425 13.9338583,20.6288714 14.0661417,20.7244094 C14.1984252,20.8199475 14.7055118,21.0624672 15.1611549,21.2608924 C15.6167979,21.4593176 16.0430446,21.4887139 16.2782152,21.3931759 C16.5133858,21.2976378 16.5942257,21.1506562 16.5207349,20.9301837 C16.439895,20.7097113 16.4325459,20.5480315 16.528084,20.4745407 C16.623622,20.4010499 16.7265092,20.32021 17.1674541,20.3422572 C17.4099738,20.3569554 17.7333333,20.4745407 17.880315,20.2614173 C18.0787402,19.9748031 18.1007874,19.9233596 18.4682415,19.6734908 C18.8356955,19.423622 19.0194226,19.2545932 19.0047244,18.6299213 C18.9900262,17.9905512 18.9312336,16.9028871 19.0194226,16.2194226 C19.1076115,15.5653543 19.5191601,15.2419948 19.7543307,14.7863517 C19.960105,14.3895013 20.048294,14.183727 19.7543307,14.0293963 C19.4603675,13.8677165 19.3427822,13.7868766 19.1370079,13.7427822 C18.9459318,13.6986877 18.8871391,13.7133858 18.791601,13.6986877 C18.7034121,13.6839895 18.6813648,13.6839895 18.6666667,13.7060367 C18.6593176,13.728084 18.6813648,13.7574803 18.7695538,13.8089239 C18.8577428,13.8603675 19.0267717,13.9559055 19.1296588,14.0514436 C19.2325459,14.1469816 19.3354331,14.2498688 19.2692913,14.3527559 C19.2104987,14.455643 19.0047244,14.4188976 18.8577428,14.3380577 C18.7107612,14.2572178 18.5049869,14.0955381 18.424147,14.0587927 C18.3433071,14.0293963 18.2845144,14.0220472 18.3065617,14.1028871 C18.3286089,14.183727 18.3653543,14.2792651 18.3065617,14.3233596 C18.247769,14.3748031 18.064042,14.3748031 17.8950131,14.2351706 C17.7333333,14.0955381 17.6818898,14 17.4687664,13.823622 C17.3217848,13.6986877 17.1821522,13.6472441 17.071916,13.5664042 C16.9616798,13.4855643 16.8587927,13.3900262 16.7044619,13.3459318 C16.5501312,13.3018373 16.1091864,13.2136483 15.4698163,13.3165354 C14.8304462,13.4267717 14.6834646,13.544357 14.4850394,13.5223097 C14.3674541,13.5076115 14.3454068,13.4708661 14.3086614,13.3532808 C14.271916,13.2356955 14.2498688,13.2209974 14.183727,13.191601 C14.1249344,13.1622047 14.0514436,13.1769029 13.9412073,13.1254593 C13.8309711,13.0740157 13.5811024,13.0005249 13.3091864,12.6036745 C13.1034121,12.3023622 13.0299213,12.1186352 12.9343832,11.9790026 C12.8388451,11.8393701 12.7727034,11.8026247 12.647769,11.8099738 M16.8293963,19.6073491 C16.8,19.6073491 16.6089239,19.6073491 16.6971129,19.4015748 C16.7779528,19.1958005 16.8220472,18.7401575 16.8073491,18.3433071 C16.8,17.9464567 16.7338583,17.7186352 16.6971129,17.5569554 C16.6603675,17.3952756 16.6456693,17.3658793 16.6971129,17.3144357 C16.7412073,17.2629921 16.7632546,17.255643 16.8514436,17.2409449 C16.9028871,17.2335958 16.9102362,17.2997375 16.9690289,17.4614173 C17.0278215,17.6230971 17.1895013,17.8729659 17.1821522,18.4461942 C17.1748031,19.0194226 17.160105,19.3427822 17.1307087,19.4456693 C17.1013123,19.5485564 17.0792651,19.6146982 17.0057743,19.6146982 C16.976378,19.6073491 16.8661417,19.6073491 16.8293963,19.6073491 M9.67874016,14.1175853 C9.79632546,14.1175853 9.95065617,14.0955381 10.3254593,14 C10.7002625,13.9044619 10.8619423,13.7648294 10.9207349,13.7133858 C10.9795276,13.6619423 10.9942257,13.6545932 11.0603675,13.7060367 C11.1265092,13.7501312 11.1853018,13.7648294 11.2808399,13.823622 C11.376378,13.8824147 11.3910761,13.9706037 11.3102362,14.0587927 C11.2293963,14.1396325 11.0309711,14.2204724 10.8251969,14.3086614 C10.6120735,14.3968504 10.4062992,14.4629921 10.119685,14.4923885 C9.83307087,14.5217848 9.59790026,14.4409449 9.52440945,14.4115486 C9.45091864,14.3821522 9.42887139,14.3013123 9.48031496,14.2057743 C9.53910761,14.0955381 9.61259843,14.1175853 9.67874016,14.1175853 M14.8818898,13.8677165 C15.0362205,13.8750656 15.175853,13.8383202 15.3963255,13.8456693 C15.624147,13.8530184 15.896063,13.911811 16.2194226,13.8530184 C16.4545932,13.8089239 16.528084,13.7207349 16.5868766,13.6766404 C16.6456693,13.6325459 16.6750656,13.6545932 16.7265092,13.7721785 C16.7779528,13.8824147 16.5868766,14.0073491 16.3296588,14.1469816 C16.0724409,14.2866142 15.8666667,14.3086614 15.4992126,14.3233596 C15.1391076,14.3380577 14.815748,14.2792651 14.7275591,14.271916 C14.6393701,14.2645669 14.6026247,14.1690289 14.5952756,14.0514436 C14.5805774,13.816273 14.7275591,13.8677165 14.8818898,13.8677165" id="Shape" fill="#FFFFFF"></path>
        </g>
    </g>
</svg>