<?xml version="1.0" encoding="UTF-8"?>
<svg width="28px" height="28px" viewBox="0 0 28 28" version="1.1" xmlns="http://www.w3.org/2000/svg" xmlns:xlink="http://www.w3.org/1999/xlink">
    <title>AT</title>
    <g id="AT" stroke="none" stroke-width="1" fill="none" fill-rule="evenodd">
        <path d="M11.1142515,20.5645587 L11.1132582,20.5673419 L15.1374684,17.6585816 L14.9731313,17.1553748 L12.076128,19.2491936 L12.564229,17.7552986 L12.1333879,17.4440368 L11.2800715,20.0572606 C10.2555211,19.2541059 9.59517875,18.0105758 9.59517875,16.61536 C9.59517875,16.2957625 9.63071261,15.9835266 9.69688394,15.6830776 L9.25321426,15.3629931 C9.14661267,15.7626082 9.08886314,16.18236 9.08886314,16.61536 C9.08886314,18.2368936 9.8883751,19.6753189 11.1142934,20.5643917 M13.7847613,17.7032523 L10.8872684,15.6094335 L12.4665529,15.6094335 L12.630904,15.1057397 L9.8656698,15.1062407 C10.4371775,13.5622616 11.8575388,12.4242852 13.5611917,12.2559002 L13.7309709,11.7379702 C11.6695031,11.8494383 9.94413809,13.2303901 9.33019964,15.1062407 L9.32920637,15.1062407 L13.3539202,18.0140131 L13.7847613,17.7032523 Z M11.0994923,11.2254397 L11.1285909,11.2254397 C11.1078861,11.0054955 11.031922,10.8754076 10.8926824,10.8233614 C10.3927461,10.6358278 10.1232763,10.2259008 10.1232763,9.76689161 C10.1232763,9.24354826 10.4593651,8.91856521 10.8813368,8.91856521 C11.4804741,8.91856521 11.6976224,9.61272889 12.3821529,9.61272889 C12.6279242,9.61272889 12.8287884,9.46937898 12.8287884,9.34665276 L12.8287884,9.27442812 L12.7009225,9.27442812 C11.8416884,9.27442812 11.7094297,8.41481575 10.8812948,8.41481575 C10.1750522,8.41481575 9.61638715,8.9705419 9.61638715,9.76683595 C9.61638715,10.5695036 10.2397127,11.225384 11.0994364,11.225384 M3.17142542,16.8342465 L6.25449182,16.8342465 L6.25449182,16.8072493 C5.94454978,16.7140113 5.69778528,16.563258 5.44066839,16.3305527 L3.17142542,16.3305527 C2.01707844,16.3305527 1.67703054,16.2235378 1.10503325,15.6093779 L8.93581571,15.6093779 C8.9698107,15.4390307 9.01233942,15.2701447 9.06312207,15.1061851 L0,15.1061851 L0.35139355,15.5200364 C1.26886675,16.6020422 1.61284575,16.8342465 3.17139744,16.8342465 M12.6515388,8.98870243 C13.0897945,8.98870243 13.3602435,8.6259093 13.3602435,8.29011343 C13.3602435,7.94891811 13.2028173,7.80997962 13.0399491,7.80997962 C12.8963307,7.80997962 12.7808457,7.92687499 12.7808457,8.06624488 C12.7808457,8.21843152 12.9185044,8.32104896 13.0221822,8.32104896 C12.8894198,8.52231774 12.6885556,8.59104943 12.4294521,8.57190086 C12.4585507,8.5287609 12.4772969,8.48214191 12.4772969,8.42413954 C12.4772969,8.27832649 12.3558663,8.1688484 12.2206697,8.1688484 C12.0923841,8.1688484 11.9645321,8.28866616 11.9645321,8.44082497 C11.9645321,8.72851282 12.2349812,8.98870243 12.6515108,8.98870243 M10.1241717,20.0046716 L6.41039316,20.0046716 C5.38829091,20.0046716 5.00432932,19.9197833 4.53252633,19.4739806 L3.83319469,19.4739806 C4.58286131,20.3164205 4.9974184,20.5083654 6.41039316,20.5083654 L10.6364469,20.5083654 C10.4543428,20.3522545 10.2830808,20.1838695 10.1241717,20.0046716 M8.4150907,19.2834968 L8.4150907,19.2564995 C8.10514866,19.1632615 7.85789452,19.0125083 7.60126727,18.779803 L5.33153466,18.779803 C4.30895676,18.779803 3.92548481,18.6953322 3.45317819,18.2491119 L2.75435018,18.2491119 C3.50302353,19.0915518 3.91808425,19.2834968 5.33153466,19.2834968 L8.4150907,19.2834968 Z M7.33574256,18.0586281 L7.33574256,18.0316309 C7.02581451,17.9388104 6.77856037,17.7876396 6.52191913,17.5554353 L4.25220051,17.5554353 C3.22960862,17.5554353 2.84564703,17.4709645 2.37384404,17.0247303 L1.67500204,17.0247303 C2.42417902,17.8671702 2.83873611,18.0586281 4.25220051,18.0586281 L7.33574256,18.0586281 Z M15.0337627,9.71577772 C14.7815702,9.71577772 14.5264258,10.0221132 14.4316595,10.4688622 C14.5881064,10.4799951 14.7435741,10.4958595 14.8955723,10.5193777 C14.9962982,10.1300744 15.1704701,9.95038951 15.3170543,9.92438029 C15.2647328,9.80609331 15.1670147,9.71573597 15.0337627,9.71573597 M13.9998251,11.7305112 L12.4624958,16.4365518 L12.8928473,16.7478135 L13.9993355,13.3599074 L14.4879261,14.8538024 L15.0199408,14.8538024 L14.1666384,12.2400915 C15.893976,12.3043839 17.3696246,13.3603945 18.0314359,14.8538024 L18.5787553,14.8538024 C17.8666091,13.0285229 16.0834946,11.7305112 13.9998251,11.7305112 M16.7433333,11.9843133 L16.7433333,11.4678584 C15.9921977,11.0392838 14.9893453,10.7231236 13.9998251,10.7231236 C13.0098153,10.7231236 12.0074665,11.0392838 11.2558273,11.4678584 L11.2558273,11.9843133 C12.0612569,11.511555 12.9989593,11.2268174 13.9998251,11.2268174 C15.000691,11.2268174 15.9379037,11.511555 16.7433333,11.9843133 M11.5035711,11.0019608 C11.632836,10.9421215 11.7646471,10.8860395 11.899382,10.8350509 C11.8337703,10.6391676 11.7098634,10.4182493 11.477914,10.4182493 C11.3624989,10.4182493 11.2721114,10.5105132 11.233122,10.6180569 C11.3402832,10.6559087 11.4290479,10.7481726 11.5035711,11.0019608 M11.7804415,20.3973844 L11.3377511,20.7164809 C12.1051846,21.211338 13.0186987,21.5 13.9998251,21.5 C15.0766971,21.5 16.0731282,21.1524311 16.8834962,20.5657694 L16.8862941,20.567161 L15.3494545,15.8611065 L14.8169361,15.8611065 L15.923914,19.2485256 L14.6461777,18.326068 L14.2158263,18.6368149 L16.450011,20.2514879 C15.7487068,20.7208228 14.9067501,20.9962227 14.0001469,20.9962227 C13.1907722,20.9962227 12.4332014,20.7772805 11.7807632,20.3973009 M13.1048894,10.5188072 C13.2578808,10.4952889 13.4133485,10.4799812 13.5693058,10.4687092 C13.4745954,10.0219601 13.2198848,9.71562464 12.9676923,9.71562464 C12.8345102,9.71562464 12.7362325,9.80594023 12.683911,9.92426896 C12.8304952,9.9502921 13.0051987,10.1299631 13.1048894,10.5187793 M12.1884094,10.0519076 C12.0729943,10.0519076 11.9613984,10.1324819 11.9164774,10.2512281 C12.0265765,10.2673708 12.1731187,10.3557381 12.2812032,10.7048378 C12.4223454,10.662672 12.5659637,10.6253768 12.7115547,10.5933697 C12.6078909,10.247763 12.4203728,10.0518797 12.1884094,10.0518797 M24.1662877,19.4737997 L23.4664664,19.4737997 C22.9951531,19.9195607 22.6111915,20.0044907 21.5891032,20.0044907 L17.8758143,20.0044907 C17.7164016,20.1836885 17.5456432,20.3520735 17.3630355,20.5081845 L21.5891032,20.5081845 C23.0025536,20.5081845 23.4171107,20.3162396 24.1662877,19.4737997 M13.6961365,15.1060042 L13.5317994,15.609197 L17.1123259,15.609197 L15.8350793,16.5326426 L15.9994164,17.0358493 L18.2370706,15.4192142 C18.3456308,15.7991937 18.4043736,16.200284 18.4043736,16.6151234 C18.4043736,17.9126481 17.8338592,19.080071 16.9297182,19.8827386 L17.0989937,20.4006825 C18.2035093,19.5042342 18.9107312,18.140441 18.9107312,16.6151234 C18.9107312,16.0883567 18.8258136,15.5817126 18.6698843,15.1060042 L18.6703879,15.1055032 L13.6961365,15.1060042 Z M26.8945051,15.609197 C26.3225078,16.2233569 25.9829635,16.3303718 24.8286026,16.3303718 L22.55887,16.3303718 C22.3022427,16.5630771 22.0549886,16.7137886 21.7450465,16.8070684 L21.7450465,16.8340656 L24.8286026,16.8340656 C26.3866646,16.8340656 26.7306436,16.6018613 27.6486064,15.5198555 L28,15.1060042 L18.9363883,15.1060042 C18.9871709,15.2699638 19.0296997,15.4388498 19.0642542,15.609197 L26.8945051,15.609197 Z M13.5002106,8.03170509 L14.0006365,7.66988608 L14.5005868,8.03219215 L14.3100889,7.44700558 L14.8105149,7.08518657 L14.1921277,7.08518657 L14.0006365,6.5 L13.809649,7.08518657 L13.1907722,7.08518657 L13.6917018,7.44700558 L13.5002106,8.03170509 Z M25.2451322,18.248931 L24.5463042,18.248931 C24.0744872,18.695193 23.6905256,18.7796221 22.6679477,18.7796221 L20.3982151,18.7796221 C20.1415879,19.0123274 19.8948234,19.1630389 19.5843917,19.2563186 L19.5843917,19.2833159 L22.6679477,19.2833159 C24.0813981,19.2833159 24.4964589,19.0913709 25.2451322,18.248931 M26.3244803,17.0245494 L25.6256383,17.0245494 C25.1533457,17.4708114 24.7698738,17.5552544 23.7472819,17.5552544 L21.4775633,17.5552544 C21.220922,17.7874587 20.9736679,17.9386573 20.6637398,18.03145 L20.6637398,18.0584472 L23.7472819,18.0584472 C25.1607463,18.0584472 25.5753034,17.8669893 26.3244803,17.0245494 M16.7678433,10.6179177 C16.7293715,10.5103462 16.6385783,10.4181102 16.5225617,10.4181102 C16.2911019,10.4181102 16.167223,10.6395156 16.1020729,10.8363868 C16.2363741,10.8869023 16.3680873,10.9424276 16.4973942,11.0023226 C16.5719593,10.7480195 16.6612417,10.6557278 16.7678433,10.6179177 M13.6823147,9.6704251 C13.821932,9.83047434 13.9044013,9.95418861 13.9937396,10.1530082 C13.9965375,10.1557914 13.9979365,10.1599662 14.0007345,10.1627494 C14.0035324,10.1599662 14.0049314,10.1557914 14.0077293,10.1530082 C14.0971236,9.95418861 14.179481,9.83047434 14.3191543,9.6704251 C14.2662732,9.53154227 14.1069304,9.2791596 14.0008184,9.17655608 C13.8947764,9.27911785 13.7353077,9.53150052 13.6824965,9.6704251 M15.1729463,9.27424721 L15.1729463,9.34647185 C15.1729463,9.46921199 15.3738106,9.61254798 15.6195958,9.61254798 C16.3041123,9.61254798 16.5212606,8.9183843 17.1203979,8.9183843 C17.541866,8.9183843 17.878948,9.24336735 17.878948,9.7667107 C17.878948,10.2257199 17.6084989,10.6356469 17.1090523,10.8231804 C16.969435,10.8752267 16.8938766,11.0053146 16.8726542,11.2252588 L16.9023123,11.2252588 C17.7615464,11.2252588 18.3853616,10.5693783 18.3853616,9.7667107 C18.3853616,8.97041666 17.8266965,8.4146905 17.1204539,8.4146905 C16.292319,8.4146905 16.1600603,9.27430287 15.3008262,9.27430287 L15.1729463,9.27424721 Z M14.6409316,8.28993253 C14.6409316,8.62572839 14.9118703,8.98852152 15.3496363,8.98852152 C15.7666556,8.98852152 16.0371187,8.72833191 16.0371187,8.44064406 C16.0371187,8.28845742 15.9092527,8.16866749 15.7809671,8.16866749 C15.6452669,8.16866749 15.5243398,8.27818732 15.5243398,8.42395863 C15.5243398,8.48184967 15.5430861,8.52846866 15.5721847,8.57171995 C15.3125916,8.59092419 15.1117273,8.52217858 14.9794546,8.32086805 C15.0821391,8.32086805 15.2207911,8.21830628 15.2207911,8.06606398 C15.2207911,7.92663841 15.105376,7.80979871 14.961198,7.80979871 C14.7988335,7.80979871 14.6409036,7.94868154 14.6409036,8.28993253 M14.0007904,8.0969995 C13.7772348,8.0969995 13.5956064,8.27765851 13.5956064,8.49956489 C13.5956064,8.7224454 13.7772348,8.90261734 14.0007904,8.90261734 C14.2248636,8.90261734 14.4059744,8.7224454 14.4059744,8.49956489 C14.4059744,8.27765851 14.2248636,8.0969995 14.0007904,8.0969995 M16.0849495,10.2512003 C16.0404622,10.1323566 15.9285026,10.0518797 15.8135212,10.0518797 C15.5810681,10.0518797 15.3940257,10.247763 15.2898863,10.5938707 C15.4354772,10.6257386 15.5790956,10.6630338 15.7202378,10.7057563 C15.8283782,10.3557242 15.9753961,10.2673569 16.0849495,10.2511585" id="path11789" fill="#C20831" fill-rule="nonzero"></path>
    </g>
</svg>