<?xml version="1.0" encoding="UTF-8"?>
<svg width="28px" height="28px" viewBox="0 0 28 28" version="1.1" xmlns="http://www.w3.org/2000/svg" xmlns:xlink="http://www.w3.org/1999/xlink">
    <title>AV</title>
    <g id="AV" stroke="none" stroke-width="1" fill="none" fill-rule="evenodd">
        <path d="M16.6100201,21.8776892 C19.4955774,24.5890604 22.8124542,26.7213352 26.5,27.8549813 C25.9858189,27.9523852 25.4747052,28 24.6527682,28 C15.3176497,28 14.3929026,22.8832971 7.86966001,22.4967255 C6.78145223,22.4323042 6.30016345,22.2044922 6.16289477,21.8792981 C6.16289477,21.8792981 9.98433535,21.8784065 13.5003693,21.8779785 L16.6103247,21.8777544 C15.7124222,21.0340587 14.8575059,20.1351168 14.0440095,19.1924736 C19.1328923,19.5759795 20.5802828,20.6812307 21.0392083,22.1009571 C20.7368474,21.9675486 20.2656308,21.8777544 19.1942825,21.8777544 L19.1942825,21.8777544 Z M4.44159775,-6.21724894e-14 C5.77771581,6.1138097 9.10686196,13.4571257 14.0468593,19.1920387 L14.0468593,19.1920387 L13.9509235,19.183342 C4.22594887,18.4761639 1.27591227,12.9306883 1.51305425,7.42665281 C1.72870312,2.39152562 4.44159775,-6.21724894e-14 4.44159775,-6.21724894e-14 Z" id="Combined-Shape" fill="#DA291C" fill-rule="nonzero"></path>
    </g>
</svg>