<?xml version="1.0" encoding="UTF-8"?>
<svg width="28px" height="28px" viewBox="0 0 28 28" version="1.1" xmlns="http://www.w3.org/2000/svg" xmlns:xlink="http://www.w3.org/1999/xlink">
    <title>AY</title>
    <g id="AY" stroke="none" stroke-width="1" fill="none" fill-rule="evenodd">
        <path d="M18.5919893,6.50721308 C18.0497471,6.52055142 16.9074998,6.59844404 16.4556678,6.6529337 C15.6644072,6.74830414 15.1903903,6.88090287 14.716483,7.13944468 C14.2187474,7.41097311 13.771955,7.81066317 13.3115229,8.39633235 C13.0704473,8.70297875 12.4079959,9.66266237 11.9168884,10.4166976 C11.6536005,10.82096 10.7107158,12.3050322 10.3733961,12.8461682 C10.294544,12.9726524 10.1903572,13.1370142 10.1418791,13.2114166 C10.0934011,13.2858191 9.82786726,13.6997674 9.55181618,14.1313017 C9.2757651,14.562836 8.9990293,14.9889593 8.93685687,15.0782422 C8.87465704,15.1675252 8.76408871,15.3257995 8.6911525,15.429963 C8.19174627,16.1430362 7.70356942,16.5900463 7.14656467,16.8442863 C6.63636727,17.0771254 5.86222462,17.2136472 4.5826502,17.2964368 C4.22111887,17.3198128 3.82422868,17.3510347 3.70070548,17.365807 C2.66294622,17.4899103 1.65602669,18.039731 1.38756229,18.6288363 C1.27477547,18.8763395 1.05029738,19.3318178 0.466917274,20.4968793 C0.196590438,21.0367166 -0.0132346782,21.4853229 0.000651411596,21.4937913 C0.0145101126,21.5022596 0.243863398,21.5020432 0.510301033,21.4932772 C0.969144548,21.4781803 1.69620597,21.4682509 4.69220515,21.4361632 C5.40020401,21.4285876 6.39852348,21.4164127 6.91069286,21.4091348 C10.2583908,21.3615713 10.3646865,21.357513 10.8683654,21.2575161 C11.6224321,21.1078454 12.083275,20.8738428 12.5664671,20.3953132 C12.9925263,19.9733565 13.230644,19.5920912 13.9348084,18.2045257 C14.1904001,17.7008887 14.4677385,17.1658132 14.5511372,17.0154931 C14.6345359,16.865146 14.7705757,16.6204025 14.8534267,16.4715975 C14.9362776,16.3227926 15.0718518,16.0792936 15.1547028,15.9304887 C15.2375537,15.7816837 15.3749356,15.5351545 15.460005,15.382616 C15.545047,15.2300774 15.66249,15.0183415 15.7209649,14.9120947 C15.8681246,14.6446246 16.0264041,14.4753928 16.2082927,14.3909799 L16.3598072,14.3206898 L19.2767077,14.3167938 C21.0341608,14.31444 22.2983154,14.3019404 22.4570057,14.2853554 C22.9366921,14.2352217 23.0765116,14.108981 23.4818649,13.3602216 C23.5986504,13.1444544 23.7648727,12.8461682 23.8512568,12.6973632 C23.9949381,12.4498059 24.2066804,12.0600723 24.2066804,12.0431355 C24.2066804,12.0392937 22.6794023,12.0327192 20.8127503,12.0285527 C18.9460983,12.0243861 17.4091519,12.0114266 17.39732,11.9997386 C17.3453361,11.9483603 18.1307629,10.5761353 18.6669796,9.78151694 C19.0454372,9.22063054 19.500145,8.93706244 20.180536,8.83760663 C20.4761427,8.79437203 20.8612831,8.79388504 23.001576,8.83390004 C25.3905038,8.87856857 26.1217283,8.8449116 26.5073343,8.67254137 C26.8306036,8.52803825 26.9887188,8.35964517 27.2573475,7.87370236 C27.3388838,7.72619608 27.4601611,7.51540712 27.5268253,7.40531852 C27.8247326,6.91318001 28.0220684,6.54149233 27.9980211,6.5177106 C27.9824917,6.50237016 19.187886,6.49254903 18.5919893,6.50721308" id="Path" fill="#0A155F"></path>
    </g>
</svg>