<?xml version="1.0" encoding="UTF-8"?>
<svg width="28px" height="28px" viewBox="0 0 28 28" version="1.1" xmlns="http://www.w3.org/2000/svg" xmlns:xlink="http://www.w3.org/1999/xlink">
    <title>B2</title>
    <g id="B2" stroke="none" stroke-width="1" fill="none" fill-rule="evenodd">
        <path d="M11.3749518,16.8143211 C11.4232234,16.7607907 11.5048768,16.7573038 11.5596326,16.8043893 C12.1776046,17.3364219 12.9278791,17.6334598 13.6955169,17.6955271 C13.7661231,17.7012264 13.8205427,17.7598548 13.8183078,17.8306995 L13.8183078,17.8306995 L13.5619416,25.6007463 C13.5547369,25.6263331 13.5499338,25.6510302 13.542729,25.676617 L13.542729,25.676617 L12.4402643,27.8975957 C12.3630298,28.0532087 12.1330314,28.0252893 12.0953268,27.8557286 L12.0953268,27.8557286 L11.6252915,25.7461631 C11.5907329,25.5910791 11.3892892,25.5494765 11.2961083,25.6782041 L11.2961083,25.6782041 L10.0344915,27.4216906 C9.93300111,27.5618169 9.71085587,27.4976575 9.70124959,27.3250186 L9.70124959,27.3250186 L9.56580104,25.133811 C9.5560987,24.9769475 9.36707112,24.9034335 9.25395717,25.0125141 L9.25395717,25.0125141 L7.72069876,26.4908019 C7.59452027,26.6124836 7.38558367,26.5057837 7.41031985,26.3321829 L7.41031985,26.3321829 L7.70967556,24.226417 C7.73198614,24.069337 7.55856877,23.9593426 7.4260021,24.0464436 L7.4260021,24.0464436 L5.66937366,25.2003752 C5.52441489,25.2956524 5.33997431,25.1559109 5.3925687,24.9905104 L5.3925687,24.9905104 L6.14550895,22.6214937 C6.15871758,22.5986483 6.17240653,22.5765725 6.18441438,22.5537031 L6.18441438,22.5537031 Z M16.3963947,16.8285333 C16.4506702,16.782554 16.5306425,16.7855599 16.5791542,16.8373829 L16.5791542,16.8373829 L21.8920276,22.5127017 C21.9054764,22.5353546 21.9177244,22.5572141 21.9321338,22.579867 L21.9321338,22.579867 L22.7230429,24.929886 C22.7784471,25.094517 22.5960238,25.2373847 22.4495281,25.1441996 L22.4495281,25.1441996 L20.6254876,23.9848813 C20.4913839,23.899632 20.3194315,24.0127046 20.344648,24.1695921 L20.344648,24.1695921 L20.6854067,26.2945241 C20.7127846,26.4654075 20.5110768,26.5763398 20.381392,26.4618003 L20.381392,26.4618003 L18.7361724,25.0081855 C18.6184234,24.9041068 18.4323017,24.985773 18.4299001,25.1429251 L18.4299001,25.1429251 L18.3909947,27.2724262 C18.3877526,27.4477343 18.1645747,27.5199257 18.0593859,27.3797273 L18.0593859,27.3797273 L16.7820388,25.6790699 C16.6866485,25.5522179 16.4863575,25.597043 16.4541765,25.7523915 L16.4541765,25.7523915 L16.0280419,27.8104707 C15.9928108,27.9804162 15.763629,28.0119428 15.6838969,27.8578207 L15.6838969,27.8578207 L14.5411578,25.6502606 C14.5363547,25.6247941 14.5291499,25.6002173 14.5219452,25.5747747 L14.5219452,25.5747747 L14.1324586,17.8462103 C14.1288562,17.7741392 14.1843325,17.7139236 14.2561395,17.7085369 C15.0692631,17.6477682 15.8097392,17.3273559 16.3963947,16.8285333 Z M10.1548101,14.1337176 C10.2268572,14.1301104 10.2876169,14.1853962 10.2924201,14.2573471 C10.3532038,15.0704498 10.6736453,15.8109284 11.1724514,16.3975975 C11.2176009,16.4516809 11.2147191,16.531784 11.1628451,16.5802883 L11.1628451,16.5802883 L5.48752678,21.8931593 C5.46471186,21.9066982 5.44189694,21.9197561 5.42028281,21.933295 L5.42028281,21.933295 L3.07022641,22.7242257 C2.9054787,22.7796558 2.76258528,22.5973257 2.8557662,22.4507065 L2.8557662,22.4507065 L4.01510014,20.6266601 C4.1003799,20.4925698 3.98724193,20.3206764 3.8304194,20.3458304 L3.8304194,20.3458304 L1.70548618,20.6865631 C1.53569518,20.7139535 1.42354185,20.5121928 1.53809675,20.3825754 L1.53809675,20.3825754 L2.9917431,18.7373481 C3.09573109,18.6195621 3.0140777,18.4339135 2.85701502,18.4310518 L2.85701502,18.4310518 L0.727542828,18.3921666 C0.552228212,18.3889682 0.479940953,18.1658531 0.620192645,18.060548 L0.620192645,18.060548 L2.3208645,16.7832273 C2.4476674,16.687926 2.4029982,16.4875601 2.24761661,16.4553842 L2.24761661,16.4553842 L0.189519083,16.0292099 C0.0197280779,15.994028 -0.0119726472,15.7648769 0.142208152,15.6850865 L0.142208152,15.6850865 L2.34973137,14.542337 C2.37518801,14.5354594 2.39968403,14.5288222 2.42514067,14.5219445 L2.42514067,14.5219445 Z M17.8306604,14.1817167 L25.6007002,14.43809 C25.626397,14.4445348 25.6511332,14.4507632 25.6765898,14.457208 L25.6765898,14.457208 L27.8975618,15.5596534 C28.0531836,15.6368948 28.0253254,15.8668394 27.8557745,15.9046184 L27.8557745,15.9046184 L25.7461873,16.3746559 C25.5910459,16.4092125 25.5494987,16.6107087 25.6782229,16.7038457 L25.6782229,16.7038457 L27.4217628,17.9654631 C27.5617743,18.0668485 27.4976524,18.2880157 27.3249795,18.2986929 L27.3249795,18.2986929 L25.133763,18.434178 C24.9769404,18.4438692 24.9034524,18.6328846 25.0124837,18.7460293 L25.0124837,18.7460293 L26.49053,20.2792903 C26.6123136,20.4055169 26.5056599,20.6143236 26.3320263,20.5896506 L26.3320263,20.5896506 L24.2262576,20.2903041 C24.0703958,20.2679638 23.9592031,20.4413481 24.0463801,20.5739474 L24.0463801,20.5739474 L25.2002864,22.3305639 C25.2955327,22.4756441 25.1558574,22.6599701 24.9903892,22.6074017 L24.9903892,22.6074017 L22.6214084,21.8544665 C22.5985935,21.8413364 22.5776999,21.8286392 22.5536842,21.8155091 L22.5536842,21.8155091 L16.8138836,16.6251133 C16.7608089,16.5767052 16.7572066,16.495039 16.8042774,16.4403544 C17.3363212,15.8223751 17.6334915,15.0721091 17.695452,14.3044807 C17.7012158,14.2338284 17.7598141,14.1794564 17.8306604,14.1817167 L17.8306604,14.1817167 Z M13.999964,10.7249727 C15.8062941,10.7249727 17.270614,12.1912472 17.270614,13.9999885 C17.270614,15.8087297 15.8062941,17.2750042 13.999964,17.2750042 C12.1936338,17.2750042 10.729314,15.8087297 10.729314,13.9999885 C10.729314,12.1912472 12.1936338,10.7249727 13.999964,10.7249727 Z M24.9298697,5.27570212 C25.0943772,5.22027204 25.2372706,5.40260214 25.1440897,5.54922131 L25.1440897,5.54922131 L23.9847798,7.37326775 C23.899524,7.50735804 24.012638,7.67925141 24.1694605,7.65409746 L24.1694605,7.65409746 L26.2944418,7.31336478 C26.4642328,7.28597439 26.5763861,7.48773507 26.4618312,7.61735248 L26.4618312,7.61735248 L25.0082089,9.2625798 C24.9042209,9.38036571 24.9858743,9.5660144 25.1429369,9.56887608 L25.1429369,9.56887608 L27.2724091,9.6077613 C27.4477238,9.61095966 27.520011,9.83407475 27.3797593,9.93937988 L27.3797593,9.93937988 L25.6790635,11.2167006 C25.5522606,11.3120018 25.5969298,11.5123677 25.7523113,11.5445436 L25.7523113,11.5445436 L27.8103608,11.970718 C27.980392,12.0059239 28.0118526,12.235075 27.8576718,12.3148654 L27.8576718,12.3148654 L25.6501486,13.4576149 C25.6246919,13.4644925 25.6001959,13.4711297 25.5747393,13.4780074 L25.5747393,13.4780074 L17.8452619,13.8662103 C17.7732148,13.8698175 17.7124551,13.8145317 17.707652,13.7425808 C17.6469163,12.929478 17.3264748,12.1889995 16.8276687,11.6023304 C16.7825191,11.548247 16.785401,11.4681439 16.8372749,11.4196396 L16.8372749,11.4196396 L22.5125693,6.10676856 C22.5353842,6.09322968 22.5581991,6.08017174 22.5798132,6.06663286 L22.5798132,6.06663286 Z M2.95557839,5.38344646 L3.0094907,5.39257422 L5.37851951,6.1455095 C5.40133443,6.15863958 5.42222809,6.17133679 5.44624379,6.18446687 L5.44624379,6.18446687 L11.1860923,11.3748627 C11.2394072,11.4232708 11.2427694,11.504937 11.1956986,11.5596216 C10.6637028,12.1776008 10.3665325,12.9278668 10.304572,13.6954953 C10.2988083,13.7661476 10.24021,13.8205196 10.1693636,13.8182593 L10.1693636,13.8182593 L2.39929978,13.5618859 C2.37360298,13.5554411 2.34886681,13.5492128 2.32341016,13.542768 L2.32341016,13.542768 L0.102438152,12.4403226 C-0.0531835898,12.3630812 -0.0253253768,12.1331365 0.144225471,12.0953575 L0.144225471,12.0953575 L2.25381266,11.62532 C2.40895409,11.5907634 2.45050125,11.3892673 2.3217771,11.2961303 L2.3217771,11.2961303 L0.578285247,10.0345128 C0.438273712,9.93312746 0.502395633,9.71196024 0.675068522,9.70128303 L0.675068522,9.70128303 L2.86626106,9.56579797 C3.02308359,9.55610672 3.09657163,9.36709135 2.98754035,9.25394665 L2.98754035,9.25394665 L1.50925389,7.7206857 C1.38747027,7.59445902 1.494124,7.38565234 1.66775751,7.41032534 L1.66775751,7.41032534 L3.77362227,7.70967182 C3.92948417,7.73201219 4.04067687,7.55862786 3.95349987,7.42602853 L3.95349987,7.42602853 L2.79959348,5.66938796 C2.70439524,5.52433188 2.84402252,5.34000582 3.0094907,5.39257422 Z M15.5595916,0.102404294 C15.6368501,-0.0532087432 15.8668725,-0.0252892971 15.9045772,0.144271439 L15.9045772,0.144271439 L16.3746125,2.2538369 C16.4091711,2.40892088 16.6106147,2.4505235 16.7037957,2.32179586 L16.7037957,2.32179586 L17.9654125,0.578285362 C18.0669028,0.438159081 18.2890481,0.502318497 18.2986543,0.674957346 L18.2986543,0.674957346 L18.4341029,2.86616494 C18.4437812,3.02302846 18.6328328,3.09654245 18.7459468,2.98746183 L18.7459468,2.98746183 L20.2792052,1.50917405 C20.4053837,1.38749239 20.6143203,1.49419229 20.5895841,1.66779305 L20.5895841,1.66779305 L20.2902284,3.77355896 C20.2678938,3.93063891 20.4412871,4.04063336 20.5738538,3.95353238 L20.5738538,3.95353238 L22.3305063,2.79960075 C22.475465,2.70432353 22.6599056,2.84406505 22.6073112,3.00946553 L22.6073112,3.00946553 L21.854371,5.37848224 C21.8414025,5.40132761 21.8274734,5.42340345 21.8154655,5.44627286 L21.8154655,5.44627286 L16.6249281,11.1856789 C16.5766565,11.2392093 16.4950032,11.2426962 16.4402474,11.1956107 C15.8222754,10.6635781 15.0720008,10.3665402 14.304363,10.3044729 C14.2337568,10.2987736 14.1792892,10.2401452 14.1815693,10.1693005 L14.1815693,10.1693005 L14.4379383,2.39925368 L14.4379383,2.39925368 L14.4571509,2.32338301 Z M11.9718861,0.189505271 C12.0070691,0.0195597702 12.2362989,-0.0119668395 12.3160311,0.142155237 L12.3160311,0.142155237 L13.4587702,2.34969126 C13.4635733,2.37513378 13.470778,2.39973464 13.4779827,2.42517717 L13.4779827,2.42517717 L13.8662686,10.1537175 C13.8698709,10.2257887 13.8146348,10.2860043 13.7425877,10.2913909 C12.9294641,10.3521596 12.188988,10.6725719 11.6023325,11.1713946 C11.5482971,11.2173739 11.4680847,11.2143679 11.419573,11.162545 L11.419573,11.162545 L6.10669957,5.48722619 C6.09325078,5.46457321 6.08100277,5.4427138 6.06659335,5.42006081 L6.06659335,5.42006081 L5.27568428,3.07004183 C5.22028006,2.90541088 5.40270332,2.76254315 5.5491991,2.85572821 L5.5491991,2.85572821 L7.37321559,4.01504654 C7.50731926,4.10029584 7.67927168,3.98722329 7.65405519,3.83033572 L7.65405519,3.83033572 L7.31329641,1.70540374 C7.28591852,1.53461657 7.48762639,1.42358808 7.61731117,1.53812755 L7.61731117,1.53812755 L9.26253077,2.99174233 C9.38027975,3.09582102 9.56640143,3.01415484 9.568803,2.85700274 L9.568803,2.85700274 L9.60770844,0.727501696 C9.61090253,0.552193546 9.83412847,0.480002178 9.93931724,0.620200603 L9.93931724,0.620200603 L11.2178651,2.32088204 C11.3132315,2.44773396 11.5135224,2.40290894 11.5457034,2.24756043 L11.5457034,2.24756043 Z" id="Combined-Shape" fill="#49559F" fill-rule="nonzero"></path>
    </g>
</svg>