<?xml version="1.0" encoding="UTF-8"?>
<svg width="28px" height="28px" viewBox="0 0 28 28" version="1.1" xmlns="http://www.w3.org/2000/svg" xmlns:xlink="http://www.w3.org/1999/xlink">
    <title>B6</title>
    <g id="B6" stroke="none" stroke-width="1" fill="none" fill-rule="evenodd">
        <path d="M26.2231269,0.0450047359 C27.0630669,0.197020733 27.8030141,0.937098612 27.9550032,1.77718702 C28.0149989,2.11322238 28.0149989,25.8917246 27.9550032,26.22776 C27.8030141,27.0678484 27.0630669,27.8079263 26.2231269,27.9599423 C25.9151489,28.0159482 2.03685451,28.0119477 1.74087565,27.9559418 C1.38890079,27.8919351 0.928933648,27.6399086 0.648953646,27.3558787 C0.356974502,27.063848 0.112991929,26.6118004 0.0449967859,26.22776 C-0.0149989286,25.8917246 -0.0149989286,2.11322238 0.0449967859,1.77718702 C0.19698593,0.937098612 0.936933076,0.197020733 1.77687308,0.0450047359 C2.11284908,-0.0150015786 25.8871509,-0.0150015786 26.2231269,0.0450047359 Z M11.4401828,18.4029366 L9.28033712,18.4029366 L9.28033712,20.5631639 L11.4401828,20.5631639 L11.4401828,18.4029366 Z M27.2390544,5.40156841 L26.4471109,5.40156841 C25.7871581,5.40156841 25.5991715,5.41356968 25.3431898,5.48157683 C24.8552246,5.60558988 24.5392472,5.78160841 24.2152703,6.10164208 C23.9112921,6.40167366 23.7553032,6.66170102 23.5953146,7.14175154 L23.4993215,7.421781 L23.4873223,10.9741548 L23.4753232,14.5225282 L22.3994,14.5225282 L22.3994,16.202705 L23.4793229,16.202705 L23.4793229,19.4830502 L25.6391686,19.4830502 L25.6391686,16.202705 L26.4311121,16.1947042 L27.2190558,16.1827029 L27.2190558,14.5425303 L26.4311121,14.5305291 L25.6391686,14.5225282 L25.6399108,10.5161691 C25.6433558,8.83205441 25.6586672,7.99634146 25.6831655,7.90183152 C25.7271623,7.73781426 25.8391543,7.58979868 25.9791443,7.50979026 C26.0231412,7.48178732 26.3111206,7.45378437 26.6390972,7.44178311 L27.2190558,7.421781 L27.2310549,6.41367492 L27.2390544,5.40156841 Z M17.135776,5.28555621 C15.315906,5.43357178 14.0479966,6.28566145 13.3720449,7.8218231 C12.7520891,9.2339717 12.6760946,11.622223 13.2000571,13.2423935 C13.3400471,13.674439 13.6040283,14.2144958 13.8360117,14.5545316 C14.4399686,15.4346242 15.3999,16.0546895 16.4598243,16.2387088 C16.5918149,16.2627113 16.743804,16.2907143 16.7998,16.2987151 C17.0317834,16.3387193 17.9557174,16.2827134 18.311692,16.2067055 C19.8075852,15.8786709 20.9755017,14.8385615 21.4794658,13.3904091 C21.6874509,12.7903459 21.727448,12.458311 21.7474466,11.1541738 L21.7674452,9.96204832 L15.0159274,9.96204832 L15.0439254,9.61401169 C15.1599171,8.19786267 16.1158489,7.32177048 17.5477466,7.32177048 C18.3716877,7.32177048 19.0316406,7.56979658 19.7275909,8.13385594 C19.8555817,8.23786688 19.9675737,8.32187572 19.9755732,8.32187572 C20.0035712,8.32187572 21.4994643,7.03774059 21.5114635,7.00573722 C21.531462,6.94973133 20.8475109,6.32966608 20.5435326,6.12564461 C19.5756017,5.46957557 18.3996857,5.18154526 17.135776,5.28555621 Z M7.44046854,1.51315923 L7.44046854,3.56137477 L7.86843797,3.56137477 C8.60838512,3.56137477 8.96435969,3.72939245 9.1643454,4.16943876 L9.26033855,4.38146107 L9.27233769,10.2940833 L9.28033712,16.202705 L11.4401828,16.202705 L11.4321834,10.0740601 L11.4201843,3.94141476 L11.3281908,3.64138319 C11.0682094,2.79729436 10.556246,2.20123164 9.78030141,1.84119375 C9.26833798,1.60116849 9.03235483,1.55316344 8.19241483,1.53316134 L7.44046854,1.51315923 Z M19.571602,11.7622378 L19.5476037,12.0542685 C19.4676095,12.9423619 19.0076423,13.6984415 18.33969,14.026476 C17.8477252,14.2665013 17.3397614,14.330508 16.7918006,14.2224967 C16.1678452,14.0984836 15.6198843,13.6824398 15.343904,13.1183805 C15.1719163,12.7663434 15.0399257,12.2702912 15.0399257,11.9742601 L15.0399257,11.7622378 L19.571602,11.7622378 Z" id="Shape" fill="#00205B" fill-rule="nonzero" transform="translate(14.000000, 14.000000) scale(-1, 1) rotate(-180.000000) translate(-14.000000, -14.000000) "></path>
    </g>
</svg>