<?xml version="1.0" encoding="UTF-8"?>
<svg width="28px" height="28px" viewBox="0 0 28 28" version="1.1" xmlns="http://www.w3.org/2000/svg" xmlns:xlink="http://www.w3.org/1999/xlink">
    <title>B7</title>
    <g id="B7" stroke="none" stroke-width="1" fill="none" fill-rule="evenodd">
        <path d="M20.9041478,3.5001107 C25.2924089,3.49916717 25.8103446,3.50353426 25.8103446,3.54164199 C25.8103446,3.56506294 25.7869426,3.65579826 25.7583402,3.74330695 C25.7297379,3.83078782 25.5867807,4.27787209 25.4406212,4.73683372 C25.2944617,5.19579536 25.1404195,5.67770508 25.0983233,5.80774421 C25.0562272,5.93778334 24.8960813,6.43846876 24.7424496,6.92037848 L24.6962924,7.06512525 C24.5579908,7.49871883 24.4245801,7.91597754 24.3867674,8.03301276 C24.3447808,8.16305189 24.1662691,8.72006442 23.990084,9.27081839 L23.9420876,9.42085369 C23.7826026,9.91931865 23.631625,10.3904066 23.5934553,10.508624 C23.551496,10.6386631 23.3981654,11.1205729 23.2527723,11.5795345 C23.1073791,12.0384961 22.9651884,12.4828545 22.936805,12.5669974 C22.8817899,12.7301374 22.6890181,13.3321282 22.1974404,14.8757135 C22.029357,15.4035194 21.8510096,15.960532 21.8011128,16.1135192 C21.7622829,16.2325092 21.6566929,16.5618352 21.5429767,16.9182712 L21.3676112,17.4688344 C21.1299295,18.2147115 20.8459851,19.1007169 20.692025,19.5765933 C20.6604939,19.6741227 20.5763855,19.9378952 20.4841903,20.2282667 L20.3909473,20.5223325 C20.2674234,20.9124499 20.1318564,21.3380325 20.0897055,21.4680716 C20.0301742,21.651779 19.715442,22.6334862 19.3859349,23.6631588 L19.253914,24.0758082 L19.127133,24.4721841 L8.56878194,24.4720715 C3.77159734,24.4709789 3.73034936e-14,24.4620769 3.73034936e-14,24.4513223 C3.73034936e-14,24.4284298 0.250989255,24.095919 1.32665749,22.6919693 C1.71931745,22.1794621 2.64318783,20.9715586 3.37967843,20.0077391 C4.11616904,19.0439197 4.99706743,17.8923432 5.3372304,17.4486803 C5.67742074,17.0050174 6.07826454,16.4811613 6.22803697,16.2845589 C6.37778204,16.0879564 6.95639849,15.3306697 7.51383002,14.6016995 C8.07126155,13.8727294 9.00077029,12.6567036 9.57944148,11.8994169 C10.1580853,11.1421302 10.9104783,10.1585336 11.251435,9.71367464 C11.5923917,9.26878783 12.0665069,8.64918962 12.3050425,8.33678973 C12.5436054,8.02436203 13.2362208,7.11787107 13.8442334,6.32233756 C14.452246,5.52680406 15.1855616,4.56665631 15.4738297,4.18869445 L15.4738297,4.18869445 L15.9979511,3.50150371 Z M15.2070749,9.34789613 C15.2007249,9.34144285 15.188545,9.35902247 15.1800053,9.38694959 C15.1714657,9.41487671 15.1146988,9.65050483 15.0538264,9.91058309 C14.9929266,10.1706614 14.8751779,10.6713468 14.7921352,11.0232174 C14.7090925,11.375088 14.6168259,11.7693777 14.5871014,11.8994169 C14.4092466,12.677482 14.3479089,12.9126929 14.3204013,12.9220112 C14.3034315,12.9277691 13.9534151,12.8188978 13.542581,12.6800689 C13.1317195,12.5412678 12.7808546,12.4277512 12.7628447,12.4278069 C12.7397164,12.4278903 12.744999,12.4707824 12.7808546,12.5739514 C12.8087727,12.6542558 12.9016415,12.9202588 12.9872296,13.1650383 C13.1790161,13.7136227 13.3293085,14.1535304 13.3293085,14.1663536 C13.3293085,14.1716386 13.2400253,14.2195653 13.130871,14.2728327 C12.7109498,14.4777521 12.0630855,14.7953257 11.5686887,15.0385754 C11.2852926,15.1780163 10.992782,15.3203778 10.9186347,15.3549529 C10.7731595,15.422768 10.7475132,15.4596518 10.8454181,15.4601803 C10.9159251,15.4605697 11.5221585,15.5160624 12.3576489,15.5985642 C12.6737804,15.6297736 13.0331029,15.6632083 13.1561068,15.6728325 C13.2791381,15.6824568 13.3945055,15.6995636 13.4124607,15.7108568 C13.4356163,15.7253767 13.4014577,15.8155001 13.2953689,16.0198075 C12.9660721,16.6538978 12.773355,17.0459345 12.7850697,17.0578397 C12.7961001,17.0690495 13.4684064,17.0047392 14.0541392,16.9364235 C14.1742966,16.9224321 14.2819181,16.9168133 14.293277,16.9239342 C14.3046358,16.9310828 14.333375,17.008244 14.3571602,17.0954467 C14.3809179,17.1826216 14.4111078,17.2852621 14.4242184,17.3235089 C14.4373289,17.3617557 14.4793703,17.4994442 14.5176072,17.6294834 C14.5558714,17.7595225 14.6685018,18.1412951 14.7679395,18.477867 C14.8673499,18.8144389 14.9906275,19.2337629 15.0418654,19.4096982 C15.1976868,19.9447362 15.2094562,19.9799233 15.232557,19.9799233 C15.2440016,19.9799233 15.4220605,19.3807222 15.6379979,18.6172807 L15.684803,18.4513307 C15.9212858,17.6106242 16.1259638,16.9046578 16.1397039,16.882572 C16.1613541,16.8476909 16.1825117,16.8481638 16.3002604,16.8861602 C16.3748456,16.9102488 16.5775255,16.9740305 16.7506452,17.0279098 C16.9237648,17.0817891 17.2079273,17.1703548 17.3821418,17.224707 C17.5563563,17.2790314 17.707853,17.3235089 17.7188287,17.3235089 C17.7298317,17.3235089 17.6308593,17.113833 17.4989325,16.8575933 C17.0288956,15.9445935 16.9569381,15.7972529 16.9731415,15.7807859 C16.9875659,15.7661269 17.3732463,15.7108846 19.036098,15.4853259 C19.2619063,15.4547006 19.5179317,15.422156 19.6050253,15.4129768 C19.6921188,15.4037976 19.7596697,15.3849662 19.7551261,15.3710861 C19.7505552,15.357206 19.2176478,15.1155975 18.570851,14.8341845 C17.9240815,14.5527714 17.3904899,14.3091323 17.3851252,14.2927766 C17.3761476,14.265378 17.4101968,14.0201812 17.5457091,13.1372225 L17.5795725,12.9113631 C17.5957361,12.8010734 17.6095704,12.7028723 17.615778,12.6533378 L17.6346091,12.5032713 L17.5653338,12.5209344 C17.5272065,12.5306699 17.2143868,12.6216834 16.8701456,12.7232113 C16.2561389,12.9043203 16.0937485,12.946211 16.0937485,12.9235967 C16.0937485,12.8933887 15.2170652,9.35807673 15.2070749,9.34789613 Z" id="Combined-Shape" fill="#109241"></path>
        <path d="M26.5658852,3.54998674 C26.5581393,3.56272641 26.4543222,3.87253942 26.3351776,4.2384292 C26.0249308,5.19137264 24.1578116,10.9202987 23.6480051,12.4835498 C23.4110296,13.2102391 22.7336871,15.2880836 22.1428085,17.1009821 C21.55193,18.9138806 20.7700041,21.310912 20.4052348,22.4277187 C20.0404382,23.5445253 19.7470792,24.4676502 19.7533197,24.4791381 C19.7595602,24.4906261 20.0814943,24.5 20.4687348,24.5 L21.1728186,24.5 L21.2712436,24.2009795 C21.3253828,24.0365044 21.8284288,22.4937813 22.3891174,20.7726752 C22.9498061,19.051569 23.602515,17.0488274 23.8395725,16.3221381 C24.0766301,15.5954488 24.7294485,13.5927071 25.290274,11.871601 C26.7874509,7.27697777 27.135962,6.20809784 27.590206,4.81747189 C27.8156036,4.12749956 28,3.5548267 28,3.54489644 C28,3.51799851 26.5822802,3.52303318 26.5658852,3.54998674" id="Path" fill="#109241" opacity="0.100000001"></path>
    </g>
</svg>