<?xml version="1.0" encoding="UTF-8"?>
<svg width="28px" height="28px" viewBox="0 0 28 28" version="1.1" xmlns="http://www.w3.org/2000/svg" xmlns:xlink="http://www.w3.org/1999/xlink">
    <title>BA</title>
    <defs>
        <linearGradient x1="69.9493411%" y1="35.2558976%" x2="33.8263543%" y2="64.0400713%" id="linearGradient-1">
            <stop stop-color="#E6EBEF" offset="0%"></stop>
            <stop stop-color="#BBCEE5" offset="7.64%"></stop>
            <stop stop-color="#85A9D8" offset="18.54%"></stop>
            <stop stop-color="#5D8FCF" offset="27.96%"></stop>
            <stop stop-color="#457EC9" offset="35.43%"></stop>
            <stop stop-color="#3C78C7" offset="40%"></stop>
            <stop stop-color="#2E5C99" offset="90%"></stop>
        </linearGradient>
    </defs>
    <g id="BA" stroke="none" stroke-width="1" fill="none" fill-rule="evenodd">
        <g id="Group-3" transform="translate(0.000000, 11.000000)" fill-rule="nonzero">
            <path d="M26.0417143,2.57560304 C25.252,3.36046018 23.5411429,4.03417447 22.6994286,4.34960304 C21.5494286,4.78160304 21.0391429,4.93446018 20.3957143,5.14388875 C19.6674286,5.38017447 18.2105714,5.82103161 18.2105714,5.82103161 C21.2285714,6.72217447 23.3554286,6.99388875 23.3554286,6.99388875 C23.3554286,6.99388875 24.3462857,6.68760304 25.916,5.84817447 C26.766,5.41617447 27.1842857,5.12531732 27.4834286,4.84731732 C27.5937143,4.74760304 27.8785714,4.45103161 27.9494286,4.07160304 C27.954,4.04388875 27.9677143,3.97131732 27.9677143,3.89988875 C27.9677143,3.89988875 27.9677143,3.84960304 27.9631429,3.80588875 C27.9614286,3.75560304 27.9525714,3.72188875 27.9525714,3.72188875 C27.9525714,3.72188875 27.9357143,3.63188875 27.9134286,3.56874589 C27.8902857,3.50560304 27.7931429,3.31074589 27.6357143,3.18417447 C27.5305714,3.09874589 27.3488571,2.88588875 26.6905714,2.65446018 C26.4668571,2.57674589 26.1045714,2.50503161 26.1045714,2.50503161 L26.0417143,2.57560304 Z" id="Path" fill="url(#linearGradient-1)"></path>
            <path d="M27.9674286,3.87988875 C27.9674286,3.87988875 27.9628571,3.79588875 27.9422857,3.72474589 C27.9262857,3.66131732 27.898,3.60074589 27.8554286,3.53703161 C27.804,3.46131732 27.7345714,3.37246018 27.632,3.27417447 C27.5545714,3.20103161 27.4697143,3.13646018 27.3674286,3.06788875 C26.9557143,2.79817447 26.4242857,2.64617447 25.954,2.58188875 C25.2251429,2.48503161 24.3891429,2.50217447 24.31,2.49931732 C24.0411429,2.49560304 22.304,2.50988875 21.8574286,2.51788875 C19.8742857,2.55874589 17.4465714,2.56417447 16.8105714,2.56417447 C10.2451429,2.59417447 7.38742857,2.45274589 4.20685714,1.81503161 C1.50114286,1.27760304 6.09036631e-14,0.767031609 6.09036631e-14,0.767031609 C2.38657143,0.68446018 16.3117143,0.106745895 18.852,0.0393173233 C20.5151429,-0.00753981952 21.696,-0.0175398195 22.6408571,0.037031609 C23.1254286,0.0641744662 23.5762857,0.105317323 24.1425714,0.201603038 C24.6502857,0.28846018 25.1114286,0.435888752 25.38,0.535603038 C25.9457143,0.745031609 26.4225714,1.04788875 26.6582857,1.35817447 C26.6582857,1.35817447 26.728,1.42960304 26.8225714,1.55646018 C26.9285714,1.70388875 27.0517143,1.88531732 27.0934286,1.95303161 C27.4377143,2.47474589 27.6011429,2.80246018 27.658,2.91674589 C27.7194286,3.03674589 27.7737143,3.16131732 27.8265714,3.28331732 C27.8782857,3.40446018 27.8994286,3.47788875 27.916,3.52903161 C27.9522857,3.65731732 27.9611429,3.77417447 27.9628571,3.80046018 L27.9674286,3.87988875 Z" id="Path" fill="#CE210F"></path>
        </g>
    </g>
</svg>