<?xml version="1.0" encoding="UTF-8"?>
<svg width="28px" height="28px" viewBox="0 0 28 28" version="1.1" xmlns="http://www.w3.org/2000/svg" xmlns:xlink="http://www.w3.org/1999/xlink">
    <title>BE</title>
    <g id="BE" stroke="none" stroke-width="1" fill="none" fill-rule="evenodd">
        <path d="M2.58589512,8.5 L2.58589512,8.500319 C1.52155715,8.500319 1.13507919,9.19271393 1.03837346,9.5398079 C0.844858514,10.1873888 0.848710645,10.3987318 0.703583057,10.5145948 C0.340907822,10.8149168 0,10.9058098 0,11.2988507 C0,11.8771867 0.917037095,11.6693417 0.917037095,12.7795606 L0.917037095,15.9263303 C0.917037095,16.5276342 1.2101785,16.7339942 1.86330439,16.7339942 C2.49170765,16.7339942 2.7562053,16.4583892 2.7562053,15.9263303 L2.7562053,12.6635106 C2.7562053,12.3397146 2.87765666,12.0877926 3.04715041,11.9719297 C3.24049288,11.8329227 3.84760018,11.6924747 3.84760018,11.2757947 C3.84760018,11.0906757 3.72586135,10.8810158 3.45977686,10.7653178 C3.09710162,10.6031668 3.02301422,10.5144298 3.02301422,10.3289698 C3.02301422,10.1671598 3.14583395,10.0495038 3.53251888,9.84158187 C3.94356998,9.63315389 3.89144548,9.35770291 3.89144548,9.10350394 C3.89144548,8.77921297 3.53077105,8.5 3.04715041,8.5 L2.58589512,8.5 Z M5.1962599,8.5325149 L5.1962599,8.5328339 C4.76119911,8.5328339 4.4733012,8.85944586 4.4733012,9.27546582 L4.4733012,15.8892152 C4.4733012,16.4906841 4.73755737,16.7476001 5.46306883,16.7476001 C6.06763487,16.7476001 6.36073028,16.4914101 6.36073028,16.0049681 L6.36073028,9.39121881 C6.36073028,8.81338887 6.09221952,8.5325149 5.58441669,8.5325149 L5.1962599,8.5325149 Z M13.5267514,8.83424487 C13.1155278,8.83424487 12.9251405,9.13710784 12.9251405,9.55378779 L12.9251405,15.8193872 C12.9251405,16.5598631 13.1163787,16.7476771 13.7453109,16.7476771 C14.3011561,16.7476771 14.2519294,16.5854271 14.8319568,16.5854271 C15.4125016,16.5854271 15.465454,16.8868381 16.3601603,16.8868381 C17.8590416,16.8868381 19.0191654,15.8219062 19.0191654,13.6474484 C19.0191654,11.7739286 17.927207,10.7556587 16.4281187,10.7556587 C15.7504657,10.7556587 15.4127431,11.0112216 15.0257132,11.0112216 C14.6872316,11.0112216 14.521314,10.6387067 14.521314,10.3150867 L14.521314,9.55360079 C14.521314,9.06782984 14.2534242,8.83437687 13.9149427,8.83437687 L13.5267514,8.83424487 Z M22.6192748,10.5608047 C21.0476054,10.5608047 19.5480342,11.4594826 19.5480342,13.8191144 C19.5480342,15.7853642 20.8783417,16.8267341 22.6434225,16.8267341 C24.4571436,16.8267341 25.3265753,15.7858372 25.3265753,15.4156542 C25.3265753,15.1379702 24.8930898,14.8170563 24.5067499,14.8170563 C23.8781626,14.8170563 23.707381,15.6247202 22.6679611,15.6247202 C22.0390289,15.6247202 21.4113616,15.0707272 21.4113616,14.5618233 C21.4113616,14.1686063 21.699294,13.9583524 22.2556566,13.9583524 L24.7735703,13.9583524 C25.3542876,13.9583524 25.5937407,13.8222274 25.5937407,13.2901794 C25.5935107,12.8277175 25.2552936,10.5610797 22.6193208,10.5608047 L22.6192748,10.5608047 Z M7.45682821,10.7653167 C7.11817417,10.7653167 6.72995989,10.8842487 7.02006558,11.8096786 C7.09246034,12.0642185 8.61622757,16.3640081 8.61622757,16.7573681 C8.61622757,17.081329 8.37717699,17.384533 7.91775003,17.476592 C7.48216028,17.5693187 7.21416697,17.751944 7.21416697,18.1216759 C7.21416697,18.5148929 7.48211429,18.7485549 7.86914419,18.7485549 L8.47109998,18.7485549 C9.17190031,18.7485549 9.94732848,18.5396099 10.4309721,17.105265 L12.3428938,11.5543356 C12.3672589,11.4612767 12.3911605,11.3451706 12.3911605,11.1830196 C12.3911605,10.9514587 12.1481428,10.7655367 11.8575196,10.7655367 L11.4452266,10.7655367 C10.9859722,10.7655367 10.6975108,10.9754607 10.6009316,11.3690076 L10.0914269,13.6105874 C10.0190322,13.9578574 9.87225792,14.3301303 9.6305281,14.3301303 C9.43718563,14.3301303 9.27155551,14.2118363 9.15025363,13.6336654 L8.66488516,11.5081356 C8.54428472,11.0223646 8.3045442,10.7655037 7.89332062,10.7655037 L7.45682821,10.7653167 Z M22.6192748,11.7631926 C23.1998196,11.7631926 23.7110146,12.1771995 23.7110146,12.5474485 C23.7110146,12.8714095 23.2953295,13.0348364 22.497536,13.0348364 C21.8444216,13.0348364 21.5077683,12.8478695 21.5077683,12.5012705 C21.5081133,12.0849205 22.1359531,11.7631926 22.6192288,11.7631926 L22.6192748,11.7631926 Z M15.9964846,11.8418778 C16.9633694,11.8418778 17.3988902,12.7459347 17.3988902,13.9257176 C17.3988902,15.1750974 16.7217661,15.7731674 15.9481893,15.7731674 C15.1259146,15.7731674 14.5457837,15.1047304 14.5457837,13.7634676 C14.5457837,12.4221277 15.2465725,11.8418778 15.9964846,11.8418778 L15.9964846,11.8418778 Z M26.8551237,14.7012175 C26.0326766,14.7012175 25.7922691,15.0006154 25.7922691,15.7872034 C25.7922691,16.2959533 25.8876525,16.8266923 26.8792484,16.8266923 C27.5802212,16.8266923 27.9468521,16.5963853 27.9468521,15.7407064 C27.9468521,15.1851844 27.8465369,14.7012175 26.8551122,14.7012175 L26.8551237,14.7012175 Z M13.832622,17.3650872 C13.008956,17.3650872 12.7650184,17.6672022 12.7650184,18.4556271 C12.7650184,18.9655431 12.8630706,19.5 13.8567582,19.5 C14.5592949,19.5 14.9189239,19.267801 14.9189239,18.4094601 C14.9192679,17.8532672 14.8264833,17.3650872 13.832622,17.3650872 Z M16.4478164,17.3650872 C15.6238053,17.3650872 15.3802127,17.6672022 15.3802127,18.4556271 C15.3802127,18.9655431 15.4777521,19.5 16.4716191,19.5 C17.1741557,19.5 17.5344631,19.267801 17.5344631,18.4094601 C17.5348072,17.8532672 17.4415097,17.3650872 16.4478164,17.3650872 Z M19.101762,17.3650872 C18.2780959,17.3650872 18.0392523,17.6672022 18.0392523,18.4556271 C18.0392523,18.9655431 18.1320312,19.5 19.1258981,19.5 C19.8284348,19.5 20.1935018,19.267801 20.1935018,18.4094601 C20.1935018,17.8532672 20.0956209,17.3650872 19.101762,17.3650872 L19.101762,17.3650872 Z M21.7169563,17.3650872 C20.8929453,17.3650872 20.6496861,17.6672022 20.6496861,18.4556271 C20.6496861,18.9655431 20.7472266,19.5 21.7410925,19.5 C22.4436291,19.5 22.8083627,19.267801 22.8083627,18.4094601 C22.8083627,17.8532672 22.710998,17.3650872 21.7169678,17.3650872 L21.7169563,17.3650872 Z M24.3321506,17.3650872 C23.5084845,17.3650872 23.2645469,17.6672022 23.2645469,18.4556271 C23.2645469,18.9655431 23.3625992,19.5 24.3562868,19.5 C25.0588349,19.5 25.4235574,19.267801 25.4235574,18.4094601 C25.4237869,17.8532672 25.3263683,17.3650872 24.3321621,17.3650872 L24.3321506,17.3650872 Z M26.9085936,17.3650872 C26.0849276,17.3650872 25.84099,17.6672022 25.84099,18.4556271 C25.84099,18.9655431 25.9388674,19.5 26.9327298,19.5 C27.6354504,19.5 28,19.267801 28,18.4094601 C28,17.8532672 27.9024617,17.3650872 26.9085936,17.3650872 Z" id="Shape" fill="#5A3F99" fill-rule="nonzero"></path>
    </g>
</svg>