<?xml version="1.0" encoding="UTF-8"?>
<svg width="28px" height="28px" viewBox="0 0 28 28" version="1.1" xmlns="http://www.w3.org/2000/svg" xmlns:xlink="http://www.w3.org/1999/xlink">
    <title>BG</title>
    <g id="BG" stroke="none" stroke-width="1" fill="none" fill-rule="evenodd">
        <path d="M4.06107917,4.1402016 C5.34346717,2.80554753 6.91089173,1.82495198 8.54971223,1.08964128 C10.3307764,0.354058631 12.1121156,0 14.0356979,0 C15.8878839,0 17.669223,0.354058631 19.4505616,1.08964128 C21.160504,1.82495198 22.6565325,2.80554753 24.0103168,4.1402016 C25.2927053,5.39327544 26.2192103,6.89109009 26.9315258,8.57980313 C27.6438419,10.2959813 28,12.1206612 28,14.0274654 C28,15.8793386 27.6438419,17.7045626 26.9315258,19.4743122 C26.2192103,21.1635688 25.2927053,22.6069969 24.0103168,23.9144574 C22.6565325,25.2491114 21.1605045,26.230251 19.4505616,26.910087 C17.669223,27.6464856 15.8878839,28 14.0356979,28 C12.1121156,28 10.330777,27.6464856 8.54971223,26.910087 C6.91089173,26.230251 5.34346717,25.2491114 4.06107917,23.9144574 C2.70729434,22.6069969 1.78106428,21.1635688 1.06874839,19.4743122 C0.356157945,17.7045626 0,15.8793386 0,14.0274654 C0,12.1206612 0.356157945,10.2959813 1.06874839,8.57980313 C1.78106428,6.89109009 2.70729434,5.39327544 4.06107917,4.1402016 L4.06107917,4.1402016 L4.06107917,4.1402016 Z" id="path10-path" fill="#E1241A"></path>
        <path d="M17.313065,13.5640892 L18.7379711,14.9264807 C19.0944036,15.307189 19.7355979,15.307189 20.3053959,14.9264807 L23.5116406,12.8015849 L22.6565325,12.0390811 L27.2165621,12.0390811 L20.447914,16.8332848 C19.5930798,17.2955733 19.0230073,17.34996 18.5243311,16.9420589 C17.9542593,16.5330695 17.669223,16.288328 17.669223,16.3427153 C17.2416687,15.7433718 16.6004744,15.6617911 15.816762,16.0696928 L11.613165,19.1479907 L4.13247545,19.1479907 L11.2570069,13.8365676 L0.854833946,13.8912262 L2.28001489,12.5291065 L15.460604,12.5291065 C16.1731945,12.4475264 16.7429925,12.8015849 17.313065,13.5640892 L17.313065,13.5640892 Z" id="path10-path" fill="#FFFFFF"></path>
    </g>
</svg>