<?xml version="1.0" encoding="UTF-8"?>
<svg width="28px" height="28px" viewBox="0 0 28 28" version="1.1" xmlns="http://www.w3.org/2000/svg" xmlns:xlink="http://www.w3.org/1999/xlink">
    <title>BI</title>
    <g id="BI" stroke="none" stroke-width="1" fill="none" fill-rule="evenodd">
        <path d="M20.583733,22.0330189 C21.3689489,21.3584906 22.6977758,22.4009434 21.8521587,23.4433962 C21.8521587,23.4433962 22.6977758,22.8915094 23.2413867,23.3207547 C23.845399,23.8113208 23.4225904,24.4858491 23.4225904,24.4858491 C23.4225904,24.4858491 24.2078063,24.7311321 24.4494112,25.5896226 C22.2749672,24.6698113 21.1877452,26.0801887 20.4629306,26.4481132 C19.3757086,27.0613208 18.8924989,26.5707547 18.9529001,26.0188679 C18.9529001,26.0188679 16.9596598,27 14.1208024,27 C11.2819451,27 9.2887048,26.0188679 9.2887048,26.0188679 C9.34910602,26.5707547 8.86589625,27.0613208 7.77867428,26.4481132 C7.05385964,26.0801887 5.96663766,24.6698113 3.79219372,25.5896226 C3.85259495,24.6698113 4.69821203,24.4858491 4.69821203,24.4858491 C4.69821203,24.4858491 4.27540349,23.8113208 4.87941569,23.3207547 C5.42302668,22.8915094 6.26864377,23.4433962 6.26864377,23.4433962 C5.36262546,22.4009434 6.75185353,21.3584906 7.5370694,22.0330189 C9.5907109,23.75 11.52355,24.6698113 14.0604012,24.7311321 C16.5972525,24.6698113 18.5300915,23.75 20.583733,22.0330189 Z M12.852,25.897 L12.8367172,25.9575472 C12.8188206,25.9984277 12.7919756,26.0393082 12.7919756,26.0801887 C12.7919756,26.0801887 12.8523768,26.1415094 12.8523768,26.2028302 C12.7919756,26.3254717 12.7315744,26.4481132 12.6107719,26.509434 C12.4899695,26.5707547 12.369167,26.6320755 12.2483646,26.5707547 C12.1275622,26.5707547 12.0067597,26.509434 11.9463585,26.4481132 L11.9463585,26.4481132 L12.0067597,26.509434 L12.0671609,26.5707547 C12.1879634,26.6320755 12.2483646,26.6933962 12.369167,26.754717 L12.369167,26.754717 L12.5503707,26.754717 C12.6107719,26.754717 12.6107719,26.6933962 12.6711731,26.6933962 L12.6711731,26.6933962 L12.7315744,26.5707547 L12.7919756,26.4481132 C12.8523768,26.3867925 12.912778,26.3254717 12.912778,26.2028302 L12.912778,26.2028302 L12.9118343,26.1204304 C12.909003,26.0456958 12.8976777,25.9882075 12.8523768,25.8962264 L12.852,25.897 Z M14,25.6509434 C14,25.7122642 13.9395988,25.8349057 13.9395988,25.8962264 C14,26.0188679 14.0604012,26.1415094 14.1208024,26.2641509 L14.1208024,26.2641509 L13.7583951,26.2641509 L13.7583951,26.1415094 L13.7234757,26.1875 C13.6979939,26.2334906 13.6979939,26.2794811 13.6979939,26.3254717 L13.6979939,26.3254717 L13.6979939,26.4481132 C13.6979939,26.509434 13.7583951,26.509434 13.7583951,26.509434 L13.7583951,26.509434 L14.1812037,26.509434 C14.3020061,26.2641509 14.3020061,26.0188679 14.1208024,25.8349057 C14.1208024,25.7735849 14.0604012,25.7122642 14,25.6509434 Z M12.5503707,24.7924528 C12.4899695,24.8537736 12.4295683,24.9150943 12.4295683,24.9764151 C12.3087658,25.3443396 12.2483646,25.7122642 12.1879634,26.1415094 L12.1879634,26.1415094 L12.2483646,26.2028302 C12.3087658,26.0801887 12.369167,25.8962264 12.369167,25.7735849 L12.369167,25.7735849 Z M17.6240732,24.240566 L17.6844745,24.4858491 C17.8052769,24.5471698 17.9260793,24.6084906 17.9864806,24.6698113 L17.9864806,24.6698113 L17.7448757,24.7924528 L17.8052769,25.0990566 L18.1676842,24.9150943 L18.2280854,24.9150943 C18.2280854,24.9764151 18.1676842,24.9764151 18.1676842,25.0377358 C18.107283,25.1603774 17.9864806,25.2216981 17.9260793,25.2830189 C17.563672,25.5896226 17.1408635,25.8349057 16.6576537,25.9575472 C16.47645,26.0188679 16.2348452,26.0188679 15.9932403,26.0188679 C15.8120366,25.9575472 15.5704317,25.8962264 15.3892281,25.7735849 L15.3892281,25.7735849 L15.5100305,25.8962264 L15.5704317,25.8962264 C15.8120366,26.0188679 16.0536415,26.1415094 16.3556476,26.1415094 C17.020061,26.1415094 17.6240732,25.8962264 18.107283,25.5283019 L18.107283,25.5283019 L18.2280854,25.4056604 C18.2884867,25.3443396 18.3488879,25.2216981 18.4092891,25.0990566 L18.4092891,25.0990566 L18.4092891,24.8537736 L18.3734259,24.772332 C18.3451128,24.7004717 18.3337876,24.6544811 18.2884867,24.6084906 C18.2280854,24.6084906 18.1676842,24.6084906 18.107283,24.6698113 C18.0468818,24.4245283 17.8656781,24.3018868 17.6240732,24.240566 L17.6240732,24.240566 Z M9.829,24.617 L9.65111212,25.1603774 C9.5907109,25.2830189 9.5907109,25.3443396 9.65111212,25.4056604 C9.71151334,25.4669811 9.77191456,25.5283019 9.83231578,25.5283019 C10.0135194,25.5896226 10.1947231,25.6509434 10.3759268,25.7122642 C10.3759268,25.7735849 10.436328,25.7122642 10.436328,25.7122642 L10.436328,25.7122642 L10.4967292,25.7735849 L10.5571304,25.8349057 C10.6175316,25.8962264 10.6175316,25.8962264 10.6779329,25.8962264 L10.6779329,25.8962264 L10.7383341,25.8349057 C10.7987353,25.8962264 10.7987353,25.9575472 10.8591365,25.9575472 L10.8591365,25.9575472 L10.979939,25.9575472 L11.0403402,25.8962264 C11.0403402,25.9575472 11.1007414,25.9575472 11.1611426,26.0188679 C11.2215439,26.0188679 11.3423463,26.0801887 11.4027475,26.0801887 C11.52355,25.9575472 11.5839512,25.8962264 11.6443524,25.7735849 L11.6443524,25.7735849 L11.6443524,25.7122642 L11.8255561,25.2830189 L11.8551974,25.2520746 C11.9027354,25.1995545 11.9362916,25.1399371 11.8859573,25.0377358 C11.8255561,24.9764151 11.7651548,24.8537736 11.8255561,24.7311321 L11.8255561,24.7311321 L11.7651548,24.7311321 C11.7047536,24.7924528 11.6443524,24.8537736 11.6443524,24.9764151 L11.6443524,24.9764151 L11.4027475,25.8349057 L11.1253851,25.8344151 C11.078997,25.8324528 11.0403402,25.8226415 11.0403402,25.7735849 C10.979939,25.7735849 10.979939,25.7122642 11.0403402,25.6509434 L11.0403402,25.6509434 L11.0045827,25.6578113 C10.9581945,25.6754717 10.9195378,25.7245283 10.9195378,25.7735849 C10.8591365,25.7122642 10.7987353,25.7122642 10.7383341,25.6509434 L10.7383341,25.6509434 L10.7392779,25.6145342 C10.7421092,25.5857901 10.7534344,25.5742925 10.7987353,25.5283019 C10.7383341,25.5283019 10.7383341,25.5896226 10.6779329,25.6509434 C10.6779329,25.6509434 10.6175316,25.5896226 10.5571304,25.5896226 L10.5571304,25.5896226 L10.522211,25.5800413 C10.4967292,25.5627948 10.4967292,25.5283019 10.4967292,25.5283019 C10.4967292,25.4669811 10.5571304,25.4669811 10.5571304,25.4056604 C10.5571304,25.4056604 10.4967292,25.4669811 10.436328,25.5283019 C10.2551243,25.4669811 10.0135194,25.3443396 9.83231578,25.2830189 C9.71151334,25.2216981 9.71151334,25.1603774 9.71151334,25.0377358 L9.71151334,25.0377358 L9.829,24.617 Z M18.9529001,23.995283 C18.9529001,24.1179245 18.9529001,24.3018868 19.0133013,24.4245283 L19.0133013,24.4245283 L19.0737025,24.6698113 C19.194505,24.6698113 19.2549062,24.6084906 19.3153074,24.5471698 C19.3757086,24.7924528 19.2549062,25.0377358 19.0133013,25.1603774 C18.8320976,25.2216981 18.650894,25.2216981 18.4696903,25.2216981 C18.7112952,25.2830189 18.9529001,25.2830189 19.194505,25.1603774 L19.194505,25.1603774 L19.3153074,25.0990566 C19.3757086,25.0377358 19.4361099,25.0377358 19.4361099,24.9764151 C19.4361099,24.8537736 19.4361099,24.7924528 19.4965111,24.7924528 C19.4361099,24.7311321 19.4361099,24.6084906 19.4361099,24.5471698 C19.4361099,24.3632075 19.3757086,24.240566 19.2549062,24.1792453 C19.1341037,24.0566038 19.0737025,24.0566038 18.9529001,23.995283 Z M9.16790235,23.8113208 L9.04709991,23.995283 C8.98669869,24.0566038 8.98669869,24.1179245 9.04709991,24.1792453 C9.10750113,24.240566 9.16790235,24.240566 9.22830358,24.240566 C9.2887048,24.4245283 9.34910602,24.6698113 9.34910602,24.8537736 L9.34910602,24.8537736 L9.34910602,24.9764151 L9.40950724,24.9150943 C9.46990846,24.8537736 9.53030968,24.7924528 9.53030968,24.7311321 L9.53030968,24.7311321 L9.53030968,24.4858491 C9.53030968,24.3632075 9.46990846,24.3018868 9.46990846,24.240566 C9.40950724,24.1179245 9.34910602,23.995283 9.22830358,23.8726415 L9.22830358,23.8726415 L9.16790235,23.8113208 Z M8.68469259,24.0566038 C8.56389015,24.0566038 8.44308771,24.0566038 8.38268649,24.1179245 L8.38268649,24.1179245 L8.32228527,24.1792453 C8.26188405,24.1792453 8.26188405,24.240566 8.20148283,24.240566 C8.08068038,24.3018868 7.89947672,24.3632075 7.71827306,24.3632075 C7.59747062,24.3632075 7.41626696,24.3632075 7.2350633,24.3018868 L7.2350633,24.3018868 L7.29546452,24.3632075 C7.35586574,24.4245283 7.41626696,24.4858491 7.47666818,24.4858491 C7.5370694,24.4858491 7.59747062,24.5471698 7.65787184,24.5471698 C7.8390755,24.5471698 8.02027916,24.4858491 8.14108161,24.3632075 L8.14108161,24.3632075 L8.38268649,24.6698113 C8.44308771,24.6084906 8.50348893,24.5471698 8.56389015,24.4858491 L8.56389015,24.4858491 L8.56389015,24.4245283 Z M20.3421282,23.1367925 L20.2817269,23.1367925 L20.4025294,23.3820755 C20.4629306,23.3820755 20.5233318,23.3820755 20.583733,23.4433962 C20.4629306,23.504717 20.2817269,23.6273585 20.1609245,23.6886792 L20.1609245,23.6886792 L19.9193196,23.5660377 L19.9640613,23.6432565 C19.9864321,23.7023061 19.9998546,23.7704403 20.0401221,23.8113208 C20.1005233,23.8726415 20.1609245,23.8726415 20.2213257,23.9339623 L20.2213257,23.9339623 L20.2213257,24.1179245 C20.2213257,24.240566 20.2213257,24.3632075 20.1609245,24.4245283 C20.1609245,24.4858491 20.1005233,24.4858491 20.0401221,24.5471698 C19.9193196,24.6084906 19.738116,24.6698113 19.6173135,24.6084906 L19.62,24.609 L19.6965599,24.6379245 C19.782088,24.66 19.8850117,24.66 19.9922843,24.6379245 L20.1005233,24.6084906 L20.1458242,24.5979511 C20.1911251,24.5778302 20.236426,24.5318396 20.2817269,24.4858491 C20.3421282,24.4245283 20.3421282,24.3632075 20.3421282,24.1792453 C20.3421282,24.1179245 20.3421282,23.995283 20.2817269,23.9339623 L20.2817269,23.9339623 L20.7045355,23.6886792 C20.7045355,23.5660377 20.6441343,23.4433962 20.583733,23.3207547 C20.5233318,23.259434 20.4629306,23.1981132 20.3421282,23.1367925 L20.3421282,23.1367925 Z M15.2080244,7.43867925 C16.1140427,7.13207547 17.020061,7.43867925 17.8052769,7.92924528 C19.0133013,8.66509434 19.738116,9.15566038 21.6105538,8.72641509 C21.6105538,8.72641509 21.4293501,9.70754717 20.583733,9.89150943 C19.7985172,10.0754717 18.7716964,9.52358491 18.7112952,9.58490566 C18.7112952,9.64622642 19.3757086,9.95283019 20.3421282,10.0754717 C20.2893727,10.2182947 20.2161382,10.3299317 20.1358399,10.4179489 C21.5207391,11.8720088 22.3957697,13.8587151 22.3957697,15.9009434 C22.3957697,20.5 18.7112952,24.240566 14,24.240566 C9.2887048,24.240566 5.60423034,20.5613208 5.4834279,15.9009434 C5.4834279,13.754717 6.44984743,11.6698113 7.95987794,10.1981132 L7.87946603,10.2800092 C7.84133724,10.2200644 7.80704455,10.1522775 7.77867428,10.0754717 C8.80549503,9.95283019 9.46990846,9.64622642 9.40950724,9.58490566 C9.40950724,9.46226415 8.38268649,10.0754717 7.5370694,9.89150943 C6.69145231,9.70754717 6.51024865,8.72641509 6.51024865,8.72641509 C8.38268649,9.15566038 9.04709991,8.66509434 10.3155255,7.92924528 C11.1007414,7.43867925 12.0067597,7.13207547 12.912778,7.43867925 C13.0335805,7.5 13.6375927,7.68396226 14.0604012,8.23584906 C14.4228085,7.68396226 15.0268207,7.5 15.2080244,7.43867925 Z M12.0067597,22.5235849 L11.9357927,22.598314 C11.8058332,22.7388333 11.7392686,22.8214286 11.5839512,22.7688679 L11.5839512,22.7688679 L11.5839512,22.8301887 L11.6651153,22.8752211 C11.7387293,22.9183373 11.7953554,22.9528302 11.8859573,22.9528302 L11.8859573,22.9528302 L11.8255561,23.0754717 C11.7651548,23.1981132 11.6443524,23.259434 11.52355,23.3207547 L11.52355,23.3207547 L11.2215439,23.3207547 C11.1611426,23.259434 11.1611426,23.259434 11.1007414,23.1981132 C11.0403402,23.1367925 10.979939,23.0754717 10.979939,22.9528302 L10.979939,22.9528302 L10.979939,23.0754717 L11.0403402,23.1981132 C11.1007414,23.3207547 11.2215439,23.4433962 11.3423463,23.504717 C11.4027475,23.5660377 11.4631487,23.5660377 11.52355,23.5660377 C11.5839512,23.5660377 11.5839512,23.504717 11.6443524,23.504717 L11.6443524,23.504717 L11.7651548,23.3820755 C11.8859573,23.259434 11.9463585,23.1367925 12.0067597,23.0141509 C12.1275622,23.0754717 12.2483646,23.0754717 12.4295683,23.0754717 L12.4295683,23.0754717 L12.439006,23.0745136 C12.4446686,23.0735554 12.4522187,23.0716392 12.4597689,23.0678066 L12.461,23.065 L12.4503312,23.0649322 C12.3786047,23.0515183 12.2993281,23.0266067 12.2276017,22.9978626 L12.1275622,22.9528302 L12.1275622,22.8915094 C12.1275622,22.7688679 12.1275622,22.6462264 12.0067597,22.5235849 L12.0067597,22.5235849 Z M16.2348452,21.5424528 C16.1744439,21.6037736 16.1744439,21.7264151 16.1744439,21.7877358 L16.1744439,21.7877358 L16.1744439,21.8490566 C16.2348452,22.0943396 16.2348452,22.4009434 16.2952464,22.6462264 C16.2952464,22.7075472 16.2348452,22.7688679 16.2348452,22.7688679 C16.1744439,22.8301887 16.1140427,22.8301887 16.0536415,22.8301887 L16.0536415,22.8301887 L16.018722,22.7746167 C15.9932403,22.7113797 15.9932403,22.6308962 15.9932403,22.5849057 L15.9932403,22.5849057 L15.8120366,22.5849057 C15.7516354,22.6462264 15.7516354,22.6462264 15.6912342,22.7075472 C15.630833,22.7075472 15.630833,22.7688679 15.630833,22.8301887 L15.630833,22.8301887 L15.630833,22.8915094 L15.5283925,22.9150566 C15.3988923,22.9307547 15.2925861,22.8915094 15.1476232,22.8915094 L15.1476232,22.8915094 L15.087222,22.8301887 L15.087222,22.8301887 L15.087222,22.7075472 L15.5100305,22.7075472 L15.630833,22.4622642 C15.3892281,22.4622642 15.2080244,22.4009434 14.9664195,22.3396226 L14.9664195,22.3396226 L14.7248146,22.2783019 L14.7248146,22.2783019 L14.543611,22.2783019 C14.4832098,22.2783019 14.4228085,22.3396226 14.3624073,22.4009434 C14.3020061,22.4622642 14.2416049,22.5849057 14.2416049,22.6462264 C14.3020061,22.5235849 14.4228085,22.5235849 14.543611,22.5235849 L14.543611,22.5235849 L14.6644134,22.5849057 L14.6040122,22.6462264 C14.543611,22.7075472 14.4228085,22.7688679 14.3624073,22.8301887 C14.2416049,22.9528302 14.0604012,22.9528302 13.9395988,22.9528302 L13.9395988,22.9528302 L13.8791976,22.9528302 C13.8187963,22.9528302 13.8187963,22.8915094 13.8187963,22.8301887 L13.8187963,22.8301887 L13.7838769,22.8761792 C13.7583951,22.9221698 13.7583951,22.9681604 13.7583951,23.0141509 L13.7583951,23.0141509 L13.5771915,23.0141509 L13.5771915,22.8301887 C13.5167902,22.9528302 13.5167902,23.0141509 13.5167902,23.0754717 L13.5167902,23.0754717 L13.2751854,23.0754717 L13.2147841,23.0141509 L13.2147841,23.0141509 L13.2147841,22.8915094 L13.1991246,22.9528302 C13.1812279,22.9937107 13.1543829,23.0345912 13.1543829,23.0754717 L13.1543829,23.0754717 L13.2147841,23.0913697 C13.2550516,23.1095388 13.2953191,23.1367925 13.3355866,23.1367925 L13.3355866,23.1367925 L13.5771915,23.1367925 L13.5771915,23.0754717 C13.6375927,23.1367925 13.6979939,23.1367925 13.7583951,23.1367925 L13.7583951,23.1367925 L13.8791976,23.1367925 L13.9395988,23.0754717 C14,23.1367925 14.0604012,23.1367925 14.1208024,23.1367925 L14.1208024,23.1367925 L14.2416049,23.1367925 C14.4228085,23.1367925 14.543611,23.0141509 14.6644134,22.8915094 L14.6644134,22.8915094 L14.7368949,22.825283 C14.8335368,22.7467925 14.9301788,22.7075472 15.0268207,22.7075472 C14.9664195,22.7688679 14.9664195,22.7688679 14.9664195,22.8301887 L14.9664195,22.8301887 L14.9664195,23.0141509 L15.0268207,23.0754717 C15.2080244,23.1367925 15.3892281,23.1981132 15.5704317,23.1367925 L15.5704317,23.1367925 L15.630833,23.1367925 L15.6912342,23.0141509 L15.9328391,23.1367925 L15.9932403,23.1367925 L15.9932403,23.0754717 L16.0536415,23.0754717 C16.1744439,23.0141509 16.2348452,23.0141509 16.2952464,22.9528302 C16.3556476,22.7688679 16.3556476,22.6462264 16.3556476,22.5235849 L16.3556476,22.5235849 Z M16.5972525,21.6037736 C16.5368513,21.7264151 16.47645,21.7877358 16.47645,21.9103774 C16.5368513,22.3396226 16.5972525,22.7075472 16.6576537,23.0754717 L16.6576537,23.0754717 L16.7085473,23.0399852 C16.7784561,22.9732704 16.7784561,22.8710692 16.7784561,22.7688679 L16.7784561,22.7688679 Z M10.0135194,22.0330189 C10.0739207,22.3396226 10.2551243,22.5849057 10.5571304,22.7075472 C10.7383341,22.7688679 10.979939,22.8301887 11.2215439,22.8301887 L11.2215439,22.8301887 L11.343579,22.7738737 C11.5728571,22.6537351 11.7133824,22.4885445 11.7651548,22.2783019 C11.6443524,22.3396226 11.5839512,22.4009434 11.4631487,22.4622642 L11.4631487,22.4622642 L11.4027475,22.5235849 C11.4631487,22.5849057 11.4027475,22.5849057 11.4027475,22.6462264 C11.4027475,22.7075472 11.3423463,22.7075472 11.2819451,22.7688679 C10.7987353,22.6462264 10.3155255,22.4009434 10.0135194,22.0330189 Z M18.5300915,20.9292453 L18.5300915,21.3584906 C18.5904928,21.3584906 18.650894,21.3584906 18.650894,21.4198113 L18.650894,21.4198113 L18.650894,21.5424528 C18.2280854,22.0943396 17.6240732,22.4622642 17.0804622,22.4622642 C17.8052769,22.6462264 18.5300915,22.2783019 18.8320976,21.6037736 L18.8320976,21.6037736 L18.8223104,21.481416 C18.7901524,21.2784329 18.6810946,21.0825472 18.5300915,20.9292453 L18.5300915,20.9292453 Z M22.9997819,21.4811321 C23.4225904,21.6037736 23.6037941,21.6650943 24.4494112,21.6650943 C25.234627,21.6650943 25.4762319,21.6037736 25.8990405,21.4811321 L26.0802441,21.4811321 L26.0802441,21.4811321 C26.2614478,21.4811321 26.3822502,21.6037736 26.3822502,21.7264151 C26.3822502,21.7877358 26.3822502,21.8490566 26.321849,21.9716981 C26.2614478,22.0330189 26.2010466,22.0943396 26.1406453,22.1556604 C25.7264655,22.3133423 25.2679093,22.3809203 24.7649767,22.3970103 L24.5098124,22.4009434 L24.3286087,22.4009434 C23.7245965,22.4009434 23.1205843,22.2783019 22.6977758,22.1556604 C22.6373745,22.1556604 22.5769733,22.0943396 22.5165721,21.9716981 L22.5165721,21.7264151 L22.5165721,21.7264151 C22.5165721,21.5424528 22.6977758,21.4811321 22.8185782,21.4811321 L22.9997819,21.4811321 Z M2.10095955,21.4811321 C2.52376809,21.6037736 2.76537298,21.6650943 3.55058884,21.6650943 C4.39620593,21.6650943 4.57740959,21.6037736 5.00021814,21.4811321 L5.00021814,21.4811321 L5.1814218,21.4811321 C5.30222424,21.4811321 5.4834279,21.5424528 5.4834279,21.7264151 L5.4834279,21.7264151 L5.4834279,21.9716981 C5.42302668,22.0943396 5.36262546,22.1556604 5.30222424,22.1556604 C4.87941569,22.2783019 4.27540349,22.4009434 3.67139128,22.4009434 L3.67139128,22.4009434 L3.49018762,22.4009434 L3.23502328,22.3970103 C2.73209067,22.3809203 2.27353446,22.3133423 1.85935467,22.1556604 C1.79895345,22.0943396 1.73855223,22.0330189 1.678151,21.9716981 C1.61774978,21.8490566 1.61774978,21.7877358 1.61774978,21.7264151 C1.61774978,21.6037736 1.73855223,21.4811321 1.91975589,21.4811321 L1.91975589,21.4811321 Z M10.1947231,20.5613208 C10.0739207,20.6226415 9.95311822,20.745283 9.83231578,20.8679245 L9.83231578,20.8679245 L9.2887048,21.6037736 L9.2887048,21.7877358 C9.2887048,21.8490566 9.2887048,21.9103774 9.34910602,21.9103774 L9.34910602,21.9103774 L9.53030968,22.0330189 L9.65111212,22.1556604 L9.77191456,22.0943396 L9.83231578,22.0330189 C9.892717,22.0330189 9.892717,21.9716981 9.95311822,21.9716981 L9.95311822,21.9716981 L10.0135194,21.9103774 C10.0135194,21.8490566 10.0739207,21.7877358 10.0739207,21.7264151 L10.0739207,21.7264151 L10.029179,21.7423131 C10.0068082,21.7604822 9.9933857,21.7877358 9.95311822,21.7877358 L9.95311822,21.7877358 L9.892717,21.9103774 L9.77191456,21.8490566 L9.65111212,21.7264151 L9.5907109,21.6650943 L9.53030968,21.6037736 L9.71056957,21.3374116 C9.88894193,21.0787146 10.0588204,20.8372642 10.1947231,20.5613208 Z M19.7985172,19.7028302 C19.7985172,19.7641509 19.8589184,19.8254717 19.8589184,19.8867925 C19.9193196,19.8867925 19.9193196,19.9481132 19.9797208,20.009434 L19.9797208,20.009434 L19.9193196,20.0707547 L19.8589184,20.1320755 C19.8589184,20.1933962 19.7985172,20.1933962 19.738116,20.1933962 C19.6777147,20.1933962 19.6173135,20.1933962 19.5569123,20.1320755 C19.4965111,20.0707547 19.4965111,20.0707547 19.4965111,20.009434 C19.4361099,20.0707547 19.3757086,20.1320755 19.3153074,20.1933962 L19.3153074,20.1933962 L19.2549062,20.3160377 C19.194505,20.4386792 19.2549062,20.5613208 19.3153074,20.6226415 L19.3153074,20.6226415 L19.3153074,20.6839623 L19.2549062,20.745283 L19.194505,20.8066038 L19.0737025,20.9292453 L18.9954225,20.8919623 C18.8852507,20.8409434 18.7596162,20.7820755 18.7112952,20.6839623 C18.7716964,20.9292453 18.8320976,21.0518868 18.9529001,21.2358491 L18.9529001,21.2358491 L19.0133013,21.2358491 L19.194505,21.1132075 L19.2549062,21.2358491 L19.2549062,21.2358491 L19.2549062,21.4198113 C19.2549062,21.4811321 19.2549062,21.5424528 19.194505,21.6037736 C19.1341037,21.7264151 19.0133013,21.7877358 18.8924989,21.8490566 L18.8924989,21.8490566 L18.9529001,21.8490566 C19.0737025,21.7877358 19.1341037,21.7264151 19.2549062,21.6650943 L19.2549062,21.6650943 L19.3153074,21.6037736 C19.3757086,21.5424528 19.3757086,21.4811321 19.3757086,21.4198113 L19.3757086,21.4198113 L19.3757086,21.2971698 C19.3153074,21.2358491 19.3153074,21.1132075 19.2549062,21.0518868 L19.2549062,21.0518868 L19.3757086,20.9292453 L19.4361099,20.8679245 L19.5569123,20.8066038 L19.4361099,20.6839623 C19.5569123,20.6839623 19.738116,20.6226415 19.8589184,20.6226415 L19.8589184,20.6226415 L19.8589184,20.5 C19.9193196,20.5 19.9797208,20.5 20.0401221,20.4386792 C20.1005233,20.3773585 20.1609245,20.3160377 20.2213257,20.254717 C20.2213257,20.1933962 20.2213257,20.1320755 20.1609245,20.0707547 C20.1005233,19.9481132 20.0401221,19.8867925 19.9797208,19.8254717 C19.9193196,19.7641509 19.8589184,19.7028302 19.7985172,19.7028302 Z M2.10095955,20.8066038 C2.46336687,20.9292453 2.70497175,20.990566 3.4297864,20.990566 L3.4297864,20.990566 L3.61396119,20.9892885 C4.24646124,20.9799201 4.42640654,20.9190252 4.75861325,20.8066038 L4.75861325,20.8066038 L4.93981692,20.8066038 C5.06061936,20.8066038 5.1814218,20.8679245 5.1814218,20.990566 C5.24182302,21.0518868 5.1814218,21.1132075 5.1814218,21.1745283 C5.1814218,21.2358491 5.12102058,21.2971698 5.06061936,21.2971698 C4.63781081,21.4811321 4.09419983,21.5424528 3.55058884,21.5424528 L3.55058884,21.5424528 L3.49018762,21.5424528 C2.94657664,21.5424528 2.40296565,21.4198113 1.98015711,21.2971698 C1.91975589,21.2971698 1.85935467,21.2358491 1.678151,21.1745283 L1.678151,21.1745283 L1.678151,20.990566 C1.678151,20.8679245 1.79895345,20.8066038 1.91975589,20.8066038 L1.91975589,20.8066038 Z M23.2413867,20.8066038 C23.5735935,20.9190252 23.7535388,20.9799201 24.3860388,20.9892885 L24.5702136,20.990566 C25.2950282,20.990566 25.5366331,20.9292453 25.8990405,20.8066038 L26.0802441,20.8066038 L26.0802441,20.8066038 C26.2010466,20.8066038 26.321849,20.8679245 26.321849,20.990566 L26.321849,21.1745283 L26.321849,21.1745283 C26.1406453,21.2358491 26.0802441,21.2971698 26.0198429,21.2971698 C25.5970343,21.4198113 25.0534234,21.5424528 24.5098124,21.5424528 L24.4494112,21.5424528 C23.9058002,21.5424528 23.3621892,21.4811321 22.9393806,21.2971698 C22.8789794,21.2971698 22.8185782,21.2358491 22.8185782,21.1745283 C22.8185782,21.1132075 22.758177,21.0518868 22.8185782,20.990566 C22.8185782,20.8679245 22.9393806,20.8066038 23.0601831,20.8066038 L23.2413867,20.8066038 Z M17.8886677,10.1955532 L17.8656781,10.1981132 C17.8052769,10.259434 18.2280854,10.6273585 19.0737025,10.8726415 C18.8924989,11.1792453 18.5300915,11.3632075 18.2884867,11.4245283 C17.6844745,11.4858491 17.2012647,10.8726415 17.1408635,10.9339623 C17.1408635,10.9339623 17.4428696,11.240566 17.7448757,11.4245283 C17.563672,11.6084906 17.4428696,11.6698113 17.2012647,11.7924528 C16.2952464,12.0990566 15.5704317,11.240566 15.2684256,10.75 L15.3249612,10.842717 C15.3288269,10.8750943 15.3288269,10.909434 15.3288269,10.9339623 C15.3288269,11.1179245 15.2080244,11.3632075 14.9060183,11.4245283 C14.9060183,11.4245283 14.9664195,11.5471698 14.9664195,11.7311321 C14.9060183,11.9764151 14.7248146,12.2830189 14.4832098,12.4056604 C14.4228085,12.2830189 14.2416049,12.0990566 14.0604012,12.0377358 L14.0604012,12.0377358 L13.9703587,12.0777647 C13.822152,12.158674 13.687927,12.3034591 13.6375927,12.4056604 C13.3959878,12.2830189 13.1543829,11.9764151 13.1543829,11.7311321 C13.1543829,11.5471698 13.2147841,11.4245283 13.2147841,11.4245283 C12.912778,11.3632075 12.7919756,11.1179245 12.7919756,10.9339623 C12.7919756,10.8726415 12.8523768,10.8113208 12.8523768,10.75 C12.5503707,11.240566 11.8255561,12.0990566 10.9195378,11.7924528 C10.6175316,11.7311321 10.4967292,11.6084906 10.3759268,11.4245283 C10.7383341,11.3018868 11.0403402,10.995283 10.979939,10.9339623 C10.9195378,10.9339623 10.436328,11.5471698 9.83231578,11.4245283 C9.5907109,11.3632075 9.22830358,11.1179245 9.04709991,10.8726415 C9.83231578,10.6273585 10.3155255,10.259434 10.2551243,10.1981132 C10.1947231,10.1981132 9.10750113,10.9339623 8.50348893,10.75 C8.42550254,10.7104132 8.22165205,10.6452703 8.03819473,10.4720804 C7.32621808,11.4235637 6.75185353,12.6488888 6.75185353,14.245283 C6.75185353,16.7694164 7.98666486,18.9055277 9.90246847,20.1330149 L10.006,20.197 L9.92291761,20.2403449 C9.86251639,20.2729216 9.80211517,20.3093308 9.74171395,20.3572376 L9.65111212,20.4386792 L9.10750113,21.0518868 L8.92629747,20.8679245 C8.86589625,20.8066038 8.80549503,20.8066038 8.80549503,20.745283 L8.80549503,20.745283 L8.68469259,20.6226415 L8.62429137,20.5613208 L8.70451174,20.5249116 C8.77529442,20.4961675 8.82059534,20.4846698 8.86589625,20.4386792 C8.98669869,20.4386792 9.04709991,20.3160377 9.04709991,20.1933962 C8.86589625,20.1933962 8.74509381,20.3160377 8.56389015,20.3773585 L8.56389015,20.3773585 L8.50348893,20.3773585 L8.44308771,20.3160377 L8.32228527,20.1320755 L8.26188405,20.0707547 L8.26188405,20.009434 L8.38268649,19.8254717 L8.56389015,19.5188679 L8.44308771,19.5801887 C8.38268649,19.6415094 8.38268649,19.6415094 8.32228527,19.7028302 C8.26188405,19.7641509 8.26188405,19.8254717 8.20148283,19.8867925 L8.20148283,19.8867925 L8.20148283,19.9481132 L8.14108161,20.009434 L7.95987794,19.8254717 L7.95987794,19.7641509 L7.89947672,19.7641509 L7.8390755,19.8254717 L7.77867428,19.8867925 L7.71827306,19.9481132 L7.71827306,20.009434 L7.80887489,20.1014151 L7.80887489,20.1014151 L7.89947672,20.1933962 L8.08068038,20.1320755 L8.08068038,20.1933962 L8.02027916,20.254717 L8.02027916,20.254717 L8.02027916,20.3773585 L8.14108161,20.4386792 C8.20148283,20.5 8.26188405,20.5613208 8.32228527,20.6226415 L8.32228527,20.6226415 L8.26188405,20.6839623 C8.20148283,20.8066038 8.14108161,20.9292453 8.20148283,21.0518868 C8.20148283,21.1132075 8.20148283,21.1745283 8.26188405,21.2358491 L8.26188405,21.2358491 L8.50348893,21.1132075 L8.56389015,21.0518868 L8.62429137,20.990566 L8.68469259,21.0518868 L8.74509381,21.1132075 L8.86589625,21.2358491 L8.87533394,21.2713001 C8.89232179,21.2971698 8.92629747,21.2971698 8.92629747,21.2971698 C8.92629747,21.2971698 8.98669869,21.2358491 8.98669869,21.2358491 C9.22830358,21.0518868 9.40950724,20.8679245 9.5907109,20.6226415 L9.5907109,20.6226415 L9.65111212,20.6226415 L9.73133249,20.5862323 C9.80211517,20.5574882 9.84741609,20.5459906 9.892717,20.5 C9.892717,20.3773585 9.892717,20.254717 10.0135194,20.1933962 L10.007,20.197 L10.0962983,20.2527156 C10.8151805,20.6803713 11.6231363,20.9835344 12.4928647,21.1365413 L12.7315744,21.1745283 L12.7919756,21.1745283 C12.1275622,20.8066038 11.6443524,20.1320755 11.52355,19.3962264 C12.0671609,19.7641509 12.7315744,20.0707547 13.3355866,20.254717 C13.3355866,20.1732754 13.3533437,20.0888292 13.3836171,20.0033736 C13.2414562,19.9288377 12.6154482,19.5596166 12.7919756,18.7830189 C12.912778,18.3537736 13.2147841,17.740566 13.2147841,17.1886792 C13.2147841,16.3915094 12.9731793,16.0849057 12.7919756,15.9622642 C13.0939817,15.5943396 13.6375927,16.3915094 13.6979939,16.4528302 C13.6979939,16.4528302 13.8187963,16.1462264 14.0604012,15.9622642 C14.2416049,16.0849057 14.4228085,16.3915094 14.4228085,16.4528302 C14.4832098,16.3301887 15.0268207,15.5943396 15.3288269,15.9622642 C15.087222,16.1462264 14.9060183,16.3915094 14.9060183,17.1886792 C14.9060183,17.740566 15.2684256,18.2924528 15.3892281,18.7830189 C15.5704317,19.6415094 14.9060183,19.9481132 14.8456171,20.009434 C14.8456171,19.7641509 14.4832098,19.2122642 14.1208024,18.8443396 C13.7583951,19.2122642 13.3355866,19.7641509 13.3959878,20.009434 L13.3924248,19.9793994 C13.5039389,19.686194 13.7564702,19.383339 13.9395988,19.1509434 C14.2416049,19.4575472 14.6040122,19.8867925 14.543611,20.254717 C15.2080244,20.0707547 15.8120366,19.7641509 16.3556476,19.3962264 C16.2348452,20.1320755 15.8120366,20.8066038 15.087222,21.1745283 L15.087222,21.1745283 L15.1476232,21.1745283 C18.5904928,20.6226415 21.127344,17.8018868 21.127344,14.245283 C21.0737992,12.6688424 20.5930531,11.4779172 19.9375779,10.5870689 C19.8004932,10.6778149 19.674758,10.7208405 19.6173135,10.75 C19.0133013,10.8726415 17.9260793,10.1367925 17.8656781,10.1981132 Z M2.22176199,20.745283 C2.04055833,20.6226415 2.04055833,20.3160377 2.40296565,20.4386792 C2.70497175,20.5613208 2.88617542,20.6226415 3.55058884,20.6226415 L3.55058884,20.6226415 L3.73602059,20.6208019 C4.25245103,20.6097642 4.42640654,20.5490566 4.69821203,20.4386792 C5.00021814,20.3160377 5.06061936,20.6839623 4.87941569,20.745283 C4.45660715,20.8679245 4.03379861,20.9292453 3.55058884,20.9292453 L3.55058884,20.9292453 L3.30954323,20.9241352 C2.90966478,20.9071017 2.52376809,20.8474843 2.22176199,20.745283 Z M25.778238,20.745283 C25.4762319,20.8474843 25.0903352,20.9071017 24.6904568,20.9241352 L24.4494112,20.9292453 C23.9662014,20.9292453 23.5433928,20.8679245 23.1205843,20.745283 C22.9393806,20.6839623 22.9997819,20.3160377 23.301788,20.4386792 C23.5735935,20.5490566 23.747549,20.6097642 24.2639794,20.6208019 L24.4494112,20.6226415 C25.1138246,20.6226415 25.2950282,20.5613208 25.5970343,20.4386792 C25.9594417,20.3160377 25.9594417,20.6226415 25.778238,20.745283 Z M0.349324153,10.3820755 C0.651330255,10.3820755 0.711731476,10.8726415 0.590929035,11.3632075 C0.651330255,11.4858491 0.711731476,12.2830189 0.711731476,12.5283019 C0.832533917,12.8349057 1.0741388,13.0801887 1.19494124,13.5707547 C1.98015711,13.754717 2.34256443,14.3679245 2.40296565,14.3066038 C2.58416931,13.8773585 1.25534246,12.5283019 1.678151,12.2830189 C1.91975589,12.2216981 2.8257742,12.8962264 3.4297864,13.754717 C4.51700837,14.3679245 4.27540349,15.5330189 4.27540349,15.9009434 L4.27540349,15.9009434 L4.63781081,20.254717 C4.21500227,20.3773585 3.79219372,20.4386792 3.4297864,20.4386792 C3.06737908,20.4386792 2.70497175,20.3773585 2.28216321,20.254717 L2.28216321,20.254717 L2.58416931,16.1462264 C2.58416931,15.5943396 1.31574368,15.2264151 0.832533917,14.490566 C-0.0130831709,13.3254717 -0.0734843914,12.2830189 0.0473180497,11.3632075 C0.168120491,10.5660377 0.349324153,10.3820755 0.349324153,10.3820755 Z M27.6506758,10.3820755 C27.6506758,10.3820755 27.8318795,10.5660377 27.952682,11.3632075 C28.0734844,12.2830189 28.0130832,13.3254717 27.1674661,14.490566 C26.6842563,15.2264151 25.4158307,15.5943396 25.4158307,16.1462264 C25.4158307,16.5141509 25.7178368,20.254717 25.7178368,20.254717 C25.2950282,20.3773585 24.9326209,20.4386792 24.5702136,20.4386792 C24.2078063,20.4386792 23.7849977,20.3773585 23.3621892,20.254717 L23.7245965,15.9009434 C23.7245965,15.5330189 23.4829916,14.3679245 24.5702136,13.754717 C25.1742258,12.8962264 26.0802441,12.2216981 26.321849,12.2830189 C26.7446575,12.5283019 25.4158307,13.8773585 25.5970343,14.3066038 C25.6574356,14.3679245 26.0198429,13.754717 26.8050588,13.5707547 C26.9258612,13.0801887 27.1674661,12.8349057 27.2882685,12.5283019 C27.2882685,12.2830189 27.3486697,11.4858491 27.409071,11.3632075 C27.2882685,10.8726415 27.3486697,10.3820755 27.6506758,10.3820755 Z M19.4965111,19.1509434 C19.4965111,19.2735849 19.5569123,19.3962264 19.6173135,19.4575472 C19.9193196,19.7028302 20.2213257,19.9481132 20.4629306,20.254717 L20.4629306,20.254717 L20.4561657,20.1816226 C20.4387701,20.0854717 20.3904491,19.9971698 20.3421282,19.9481132 L20.3421282,19.9481132 Z M20.2817269,18.2311321 L20.2817269,18.2924528 C20.3421282,18.4150943 20.4025294,18.5377358 20.5233318,18.5990566 L20.5233318,18.5990566 L20.6441343,18.6603774 C20.8253379,18.8443396 20.9461404,18.9669811 21.0669428,18.9669811 C20.9461404,19.0896226 20.8857391,19.1509434 20.7649367,19.2735849 L20.7649367,19.2735849 L20.6441343,19.2735849 C20.583733,19.2122642 20.5233318,19.2122642 20.4629306,19.1509434 L20.4629306,19.1509434 L20.3421282,19.0896226 L20.1609245,18.9669811 L20.2213257,19.0896226 C20.2213257,19.1509434 20.2817269,19.1509434 20.3421282,19.2122642 C20.4025294,19.2735849 20.4629306,19.2735849 20.5233318,19.3349057 L20.5233318,19.3349057 L20.583733,19.3349057 L20.6441343,19.3962264 L20.4629306,19.5801887 L20.4025294,19.5801887 L20.4629306,19.6415094 L20.5233318,19.7028302 L20.583733,19.7641509 L20.583733,19.7641509 L20.7045355,19.7641509 L20.7951373,19.6721698 L20.7951373,19.6721698 L20.8857391,19.5801887 L20.8253379,19.3962264 L20.9461404,19.3962264 C21.0065416,19.4575472 21.0669428,19.4575472 21.127344,19.3962264 L21.127344,19.3962264 L21.1877452,19.3349057 L21.2481465,19.2735849 C21.3689489,19.2122642 21.4293501,19.1509434 21.4897513,19.0283019 C21.4293501,18.9669811 21.3689489,18.9056604 21.3085477,18.8443396 L21.3085477,18.8443396 L21.1877452,18.7830189 L21.127344,18.7216981 L21.0669428,18.7216981 L20.8857391,18.5990566 C20.8253379,18.5377358 20.7649367,18.5377358 20.7045355,18.4764151 L20.7045355,18.4764151 L20.7649367,18.4764151 C20.7045355,18.4764151 20.7045355,18.4150943 20.6441343,18.3537736 L20.6441343,18.3537736 L20.4629306,18.3537736 C20.4025294,18.2924528 20.3421282,18.2924528 20.2817269,18.2311321 L20.2817269,18.2311321 Z M7.197,18.98 C7.16795083,19.0010482 7.15452834,19.0283019 7.11426086,19.0283019 L7.11426086,19.0283019 L7.05385964,19.0896226 C6.99345841,19.0896226 6.93305719,19.1509434 6.93305719,19.2122642 L6.93305719,19.2122642 L6.93305719,19.3349057 C6.93305719,19.3962264 6.99345841,19.3962264 6.99345841,19.4575472 C6.99345841,19.5188679 7.05385964,19.5188679 7.11426086,19.5801887 L7.11426086,19.5801887 L7.17466208,19.6415094 C7.2350633,19.6415094 7.29546452,19.7028302 7.35586574,19.7028302 L7.35586574,19.7028302 L7.5370694,19.7028302 L7.47666818,19.7641509 L7.59747062,19.7028302 L7.65787184,19.7028302 L7.65787184,19.6415094 L7.59747062,19.5801887 L7.5370694,19.5188679 L7.47666818,19.4575472 L7.41626696,19.3962264 L7.41626696,19.2735849 L7.5370694,19.2735849 C7.65787184,19.2735849 7.71827306,19.2735849 7.8390755,19.3349057 L7.8390755,19.3349057 L7.89947672,19.3349057 L7.95987794,19.3190077 C8.00014542,19.3008386 8.0404129,19.2735849 8.08068038,19.2735849 L8.08068038,19.2735849 L8.14108161,19.2122642 L8.14108161,19.0896226 L8.02027916,19.0283019 C7.77867428,18.9669811 7.47666818,18.9669811 7.2350633,19.1509434 C7.17466208,19.1509434 7.17466208,19.2122642 7.17466208,19.2122642 C7.17466208,19.2735849 7.17466208,19.3349057 7.2350633,19.3962264 L7.2350633,19.3962264 L7.35586574,19.5188679 L7.2350633,19.5188679 L7.11426086,19.3962264 C7.11426086,19.3962264 7.05385964,19.3962264 7.05385964,19.3349057 L7.05385964,19.3349057 L7.05385964,19.2122642 C7.05385964,19.2122642 7.05385964,19.1509434 7.11426086,19.0896226 C7.14446147,19.0589623 7.15956177,19.0283019 7.17466208,19.0053066 L7.197,18.98 Z M20.7045355,17.8018868 C20.7045355,17.9245283 20.7045355,17.9858491 20.8253379,18.1084906 C21.127344,18.3537736 21.3689489,18.5990566 21.670955,18.9056604 L21.670955,18.9056604 L21.6641901,18.832566 C21.6467945,18.7364151 21.5984735,18.6481132 21.5501526,18.5990566 L21.5501526,18.5990566 Z M14.0604012,12.2830189 C14.1812037,12.3443396 14.3624073,12.5896226 14.4228085,12.7122642 C14.4832098,12.5896226 14.9664195,12.2216981 15.2080244,12.4669811 C14.9664195,12.5896226 14.7248146,12.8962264 14.8456171,13.4481132 C14.8456171,14.1839623 15.2080244,14.6745283 15.2080244,15.1037736 C15.2080244,15.5943396 14.9060183,15.8396226 14.543611,16.2075472 C14.4832098,16.0849057 14.3020061,15.9009434 14.1208024,15.7783019 C13.9395988,15.9009434 13.7583951,16.0849057 13.6979939,16.2075472 C13.3355866,15.8396226 13.0335805,15.5943396 13.0335805,15.1037736 C13.0335805,14.6745283 13.3959878,14.1839623 13.3959878,13.4481132 C13.3959878,12.8962264 13.0939817,12.5896226 12.912778,12.4669811 C13.0939817,12.2216981 13.5771915,12.5896226 13.6979939,12.7122642 C13.7583951,12.5896226 13.8791976,12.4056604 14.0604012,12.2830189 Z M26.86546,10.5660377 C27.1070649,10.6886792 27.2278673,11.1792453 27.2278673,11.9150943 C27.2278673,12.5283019 26.9862624,12.7122642 26.86546,13.0188679 C26.8050588,13.1415094 26.6842563,13.3254717 26.6842563,13.4481132 C26.0198429,13.5707547 25.8990405,13.8160377 25.778238,14 C25.8386392,13.6933962 26.6238551,12.7735849 26.7446575,12.2830189 C26.86546,11.7311321 26.7446575,11.3632075 26.6842563,10.8726415 C26.6842563,10.6273585 26.86546,10.504717 26.86546,10.5660377 Z M1.13454002,10.5660377 C1.13454002,10.504717 1.31574368,10.6273585 1.31574368,10.8726415 C1.25534246,11.3632075 1.13454002,11.7311321 1.25534246,12.2830189 C1.3761449,12.7735849 2.16136077,13.6933962 2.22176199,14 C2.10095955,13.8160377 1.98015711,13.5707547 1.31574368,13.4481132 C1.31574368,13.3254717 1.19494124,13.1415094 1.13454002,13.0188679 C1.01373758,12.7122642 0.772132696,12.5283019 0.772132696,11.9150943 C0.772132696,11.1792453 0.892935138,10.6886792 1.13454002,10.5660377 Z M25.8990405,11.3018868 C26.0198429,11.4245283 26.0802441,11.7924528 26.0802441,12.2216981 C25.9594417,12.2830189 25.778238,12.4056604 25.7178368,12.4669811 L25.7178368,12.4669811 L25.7178368,11.5471698 C25.7178368,11.3632075 25.8990405,11.3018868 25.8990405,11.3018868 Z M2.10095955,11.3018868 C2.10095955,11.3018868 2.28216321,11.3632075 2.28216321,11.5471698 L2.28216321,12.4669811 L2.28216321,12.4669811 C2.22176199,12.4056604 2.04055833,12.2830189 1.91975589,12.2216981 C1.91975589,11.7924528 1.98015711,11.4245283 2.10095955,11.3018868 Z M26.4426514,10.8726415 C26.5634539,10.995283 26.6842563,11.6698113 26.5634539,12.3443396 C26.5030527,12.3443396 26.4426514,12.1603774 26.3822502,12.2216981 L26.3822502,12.2216981 L26.2614478,12.2216981 L26.2614478,12.2216981 L26.2614478,11.1792453 C26.2614478,10.9339623 26.4426514,10.8726415 26.4426514,10.8726415 Z M1.61774978,10.8726415 C1.61774978,10.8726415 1.79895345,10.9339623 1.79895345,11.1792453 L1.79895345,12.2216981 L1.79895345,12.2216981 L1.678151,12.2216981 L1.678151,12.2216981 C1.55734856,12.1603774 1.49694734,12.3443396 1.49694734,12.3443396 C1.3761449,11.6698113 1.49694734,10.995283 1.61774978,10.8726415 Z M14.2416049,6.76415094 L14.2416049,7.74528302 L14,7.99056604 L13.7583951,7.74528302 L13.7583951,6.76415094 L14,7.00943396 L14.2416049,6.76415094 Z M15.9932403,5.41509434 L16.2348452,6.76415094 L15.5100305,6.27358491 L15.0268207,6.8254717 L14.4832098,6.27358491 L14.0604012,6.76415094 L13.6375927,6.27358491 L13.0939817,6.8254717 L12.6107719,6.27358491 L11.8859573,6.76415094 L12.1275622,5.41509434 C12.3087658,5.66037736 12.912778,5.90566038 14.0604012,5.90566038 C15.1476232,5.90566038 15.8120366,5.66037736 15.9932403,5.41509434 L15.9932403,5.41509434 Z M14.3020061,4.61792453 C15.2080244,4.67924528 15.8724378,4.9245283 15.8724378,5.16981132 C15.8724378,5.47641509 15.0268207,5.72169811 14,5.72169811 C12.9731793,5.72169811 12.1275622,5.47641509 12.0671609,5.23113208 C12.0671609,4.9245283 12.7315744,4.74056604 13.6375927,4.67924528 L13.6375927,4.67924528 L13.6375927,5.10849057 L14.3020061,5.10849057 Z M14,1 C14.1208024,1 14.2416049,1.12264151 14.2416049,1.24528302 C14.2416049,1.30660377 14.2416049,1.36792453 14.1812037,1.42924528 L14.1812037,1.42924528 L15.9932403,2.65566038 L14.9060183,2.9009434 L15.8724378,4.37264151 L14.1208024,3.33018868 L14.1208024,5.04716981 L13.8187963,5.04716981 L13.8187963,1.36792453 C13.7583951,1.30660377 13.7583951,1.24528302 13.7583951,1.24528302 C13.7583951,1.12264151 13.8791976,1 14,1 Z" id="Combined-Shape" fill="#000000" fill-rule="nonzero"></path>
    </g>
</svg>