<?xml version="1.0" encoding="UTF-8"?>
<svg width="28px" height="28px" viewBox="0 0 28 28" version="1.1" xmlns="http://www.w3.org/2000/svg" xmlns:xlink="http://www.w3.org/1999/xlink">
    <title>BJ</title>
    <g id="BJ" stroke="none" stroke-width="1" fill="none" fill-rule="evenodd">
        <path d="M28,9.93049466 C19.7758734,8.54588858 15.6638101,18.3274605 9.00405539,19.17609 C4.17685064,19.801396 0.645839758,16.3175485 0.0200909942,13.7716599 C-0.337479728,18.6847782 4.1321543,22.2132905 9.09344807,21.9899669 C17.4516637,21.6326492 21.8766014,11.4937596 28,9.93049466 M21.6084233,9.79650052 C15.3509357,8.94787099 13.8312601,13.593001 8.78057369,15.2455954 C5.51774085,16.3175485 3.01474579,15.5135837 1.18219584,13.5036716 C2.03142631,16.1835543 5.24956281,18.0594722 8.06543224,17.8361487 C13.6524748,17.3895016 16.8259149,11.2257713 21.6084233,9.79650052" id="Shape" fill="#0054A5" fill-rule="nonzero"></path>
        <path d="M8.28891394,14.0396482 C9.49571513,13.6376658 10.3449456,13.1463539 11.060087,12.6550421 C11.6411395,12.2530597 13.6971711,10.8237889 14.7251869,10.1538182 C13.8759565,7.74192377 11.5070504,6 8.78057369,6 C5.29425915,6 2.43369337,8.81387686 2.43369337,12.3423891 C2.43369337,12.6550421 2.43369337,12.9230304 2.47838971,13.1910186 C3.99806528,14.2629717 6.00940059,14.7989483 8.28891394,14.0396482" id="Path" fill="#FFCA05" fill-rule="nonzero"></path>
    </g>
</svg>