<?xml version="1.0" encoding="UTF-8"?>
<svg width="28px" height="28px" viewBox="0 0 28 28" version="1.1" xmlns="http://www.w3.org/2000/svg" xmlns:xlink="http://www.w3.org/1999/xlink">
    <title>BO</title>
    <g id="BO" stroke="none" stroke-width="1" fill="none" fill-rule="evenodd">
        <path d="M20.4773604,2.68093776 C24.0673601,2.68093776 27,5.57461471 27,9.13414418 C27,12.6936737 24.0673601,15.5873506 20.4773604,15.5873506 C16.8870775,15.5873506 13.9547207,12.6936737 13.9547207,9.13414418 C13.9547207,5.57461471 16.8870775,2.68093776 20.4773604,2.68093776 L20.4773604,2.68093776 L20.4773604,2.68093776 Z" id="path21" fill="#00A651"></path>
        <path d="M25.9884813,12.5657795 C25.9632853,12.6171092 25.9378063,12.6426307 25.9126103,12.6681522 C25.7608683,12.5144498 25.6094095,12.3865556 25.4321884,12.2583747 L25.4321884,12.2583747 C24.1681439,11.3109256 22.3984816,10.7474458 20.4770773,10.7474458 L20.4770773,10.7474458 L20.4770773,10.7474458 C18.530477,10.7474458 16.7860106,11.3106389 15.521683,12.2583747 C15.344745,12.3865556 15.1678071,12.5144498 15.0160652,12.6681522 C14.9908692,12.6426307 14.9908692,12.6171092 14.9656732,12.5657795 C15.1171321,12.4378853 15.2688741,12.3097044 15.445812,12.1818103 C16.7353356,11.2343612 18.5049979,10.6453599 20.4767942,10.6453599 L20.4767942,10.6453599 L20.4767942,10.6453599 C22.4233944,10.6453599 24.1930568,11.2343612 25.4825804,12.1818103 L25.4825804,12.1818103 C25.6598014,12.3097044 25.8370224,12.4378853 25.9884813,12.5657795 L25.9884813,12.5657795 Z" id="path23" fill="#FFFFFF"></path>
        <path d="M24.6740448,14.051187 C24.6488489,14.0767084 24.6233698,14.0767084 24.5981738,14.1025167 C24.5726948,14.0769952 24.5474988,14.051187 24.5220198,14.0256655 C23.4855882,13.0268867 22.0446057,12.4123639 20.4770773,12.4123639 L20.4770773,12.4123639 L20.4770773,12.4123639 C18.8843528,12.4123639 17.4685663,13.0268867 16.4321348,14.0256655 C16.3814597,14.051187 16.3559807,14.0769952 16.3310678,14.1025167 C16.3055888,14.0769952 16.2803928,14.0769952 16.2549137,14.051187 C16.2803928,13.9998572 16.3310678,13.9743358 16.3559807,13.9488143 C17.4178913,12.9500355 18.8588738,12.3097044 20.4770773,12.3097044 L20.4770773,12.3097044 L20.4770773,12.3097044 C22.0698017,12.3097044 23.5362632,12.9500355 24.5981738,13.9488143 C24.6233698,13.9743358 24.6488489,13.9998572 24.6740448,14.051187 L24.6740448,14.051187 Z" id="path25" fill="#FFFFFF"></path>
        <path d="M22.5505066,15.2547111 C22.5250276,15.2547111 22.4743525,15.2547111 22.4494397,15.2802326 C22.3732856,15.1778599 22.2976977,15.0752005 22.2218267,14.998636 C21.7917968,14.4609644 21.1599161,14.1535596 20.4773604,14.1535596 L20.4773604,14.1535596 L20.4773604,14.1535596 C19.7948046,14.1535596 19.1626408,14.4606777 18.707698,14.998636 C18.6315439,15.0754872 18.555956,15.1778599 18.4800851,15.2802326 C18.454606,15.2547111 18.42941,15.2547111 18.403931,15.2547111 C18.4800851,15.1265302 18.5556729,15.0241575 18.6315439,14.9217848 C19.1119658,14.3841132 19.7441296,14.051187 20.4773604,14.051187 L20.4773604,14.051187 L20.4773604,14.051187 C21.1851121,14.051187 21.8424718,14.3841132 22.2976977,14.9217848 C22.3987647,15.0241575 22.4743525,15.1265302 22.5505066,15.2547111 L22.5505066,15.2547111 L22.5505066,15.2547111 Z" id="path27" fill="#FFFFFF"></path>
        <path d="M25.9380894,5.62594443 C25.9635684,5.65146591 25.9887644,5.67727414 25.9887644,5.70279562 C25.8373055,5.85649801 25.6600845,5.98439217 25.4831466,6.13809456 L25.4831466,6.13809456 C24.193623,7.08554364 22.4239606,7.67454497 20.4773604,7.67454497 L20.4773604,7.67454497 L20.4773604,7.67454497 C18.505281,7.67454497 16.7356187,7.08554364 15.4463782,6.13809456 C15.2694403,5.98439217 15.1176983,5.85649801 14.9407604,5.70279562 C14.9662394,5.67727414 14.9914354,5.65146591 14.9914354,5.62594443 C15.1683733,5.77964682 15.3201153,5.90754097 15.5222492,6.03572189 C16.7865768,6.98317096 18.5310432,7.5721723 20.4776435,7.5721723 L20.4776435,7.5721723 L20.4776435,7.5721723 C22.3990478,7.5721723 24.1687101,6.98317096 25.4327546,6.03572189 L25.4327546,6.03572189 C25.6096926,5.90754097 25.7866305,5.77936006 25.9380894,5.62594443 L25.9380894,5.62594443 Z" id="path29" fill="#FFFFFF"></path>
        <path d="M24.6233698,4.16605846 C24.6488489,4.19157993 24.6740448,4.21738817 24.6992408,4.24290965 C24.6740448,4.26843113 24.6233698,4.31976085 24.5984569,4.34528233 C23.5365463,5.3695826 22.0700848,5.98410541 20.4773604,5.98410541 L20.4773604,5.98410541 L20.4773604,5.98410541 C18.8591569,5.98410541 17.4181744,5.36929584 16.3562638,4.34528233 C16.3055888,4.31976085 16.2803928,4.26843113 16.2300009,4.24290965 C16.2551968,4.21738817 16.2806759,4.19157993 16.3058719,4.16605846 C16.3565469,4.21738817 16.3820259,4.24290965 16.4324179,4.26843113 C17.4688494,5.26720992 18.8846359,5.88173274 20.4773604,5.88173274 L20.4773604,5.88173274 L20.4773604,5.88173274 C22.0448888,5.88173274 23.4858713,5.26720992 24.5223029,4.29395261 C24.5477819,4.24319641 24.5981738,4.21738817 24.6233698,4.16605846 L24.6233698,4.16605846 Z" id="path31" fill="#FFFFFF"></path>
        <path d="M22.4743525,2.98834255 C22.4998316,3.01386403 22.5250276,3.01386403 22.5754195,3.01386403 C22.4995485,3.14204494 22.3984816,3.2699391 22.2974146,3.37231177 C21.8424718,3.90998339 21.184829,4.24290965 20.4770773,4.24290965 L20.4770773,4.24290965 L20.4770773,4.24290965 C19.7438465,4.24290965 19.1119658,3.90998339 18.6312608,3.37231177 C18.530477,3.2699391 18.4543229,3.14175818 18.3784519,3.01386403 C18.4036479,3.01386403 18.4291269,3.01386403 18.4795189,2.98834255 C18.5553898,3.11652346 18.6309777,3.21889614 18.7071318,3.32126881 C19.1620746,3.83341895 19.7942384,4.16634521 20.4767942,4.16634521 L20.4767942,4.16634521 L20.4767942,4.16634521 C21.1593499,4.16634521 21.7915137,3.83341895 22.2212605,3.32126881 C22.3226106,3.21860938 22.3987647,3.1162367 22.4743525,2.98834255 L22.4743525,2.98834255 L22.4743525,2.98834255 Z" id="path33" fill="#FFFFFF"></path>
        <path d="M27,9.1086227 C27,9.1086227 27,9.1086227 27,9.13414418 C27,9.15966566 27,9.18518714 27,9.21099538 L13.9547207,9.21099538 C13.9547207,9.1854739 13.9547207,9.15995242 13.9547207,9.13414418 C13.9547207,9.10833595 13.9547207,9.1086227 13.9547207,9.1086227 L27,9.1086227 L27,9.1086227 Z" id="path35" fill="#FFFFFF"></path>
        <path d="M15.901321,10.7219243 L16.6852268,10.7219243 L16.6852268,7.46951286 L15.901321,7.46951286 L15.901321,6.54787202 L23.8652262,6.54787202 C24.7753949,6.77813885 25.5338216,7.981663 24.294973,8.85254764 L24.294973,8.98044179 C24.7499158,9.13414418 25.1040748,9.59525136 25.0282038,10.2866254 C24.9775287,10.9779994 24.6995239,11.4391066 23.8655093,11.6693734 L15.901321,11.6693734 L15.901321,10.7219243 L15.901321,10.7219243 Z M22.0194098,6.98317096 C21.6148589,7.75168293 19.7189336,7.5721723 19.0615739,7.03450068 L19.0615739,6.98317096 L22.0194098,6.98317096 L22.0194098,6.98317096 Z M19.0615739,7.59769377 C19.8454796,7.87929032 21.564467,7.75139617 22.3987647,7.4184699 C22.5250276,7.87929032 22.4494397,8.54514285 22.0952807,8.67303701 L19.0615739,8.67303701 L19.0615739,7.59769377 L19.0615739,7.59769377 L19.0615739,7.59769377 Z M22.1456727,11.0293291 C21.0585661,10.5427004 19.8197175,10.6195516 19.0612908,10.8501052 L19.0612908,11.0548506 L22.0949976,11.0548506 C22.1204767,11.0548506 22.1456727,11.0293291 22.1456727,11.0293291 L22.1456727,11.0293291 Z M19.0615739,10.3634766 C19.5165167,10.2097742 21.564467,10.3121468 22.5001147,10.4913707 C22.6263776,10.0047421 22.5001147,9.33888953 22.0952807,9.21099538 L19.0615739,9.21099538 L19.0615739,10.3634766 L19.0615739,10.3634766 L19.0615739,10.3634766 Z" id="path37" fill="#FFFFFF"></path>
        <path d="M14.2579215,0.0688573652 C12.5641302,0.913933766 11.4515445,2.19430911 11.4263485,3.67971656 C9.02480549,5.39539084 10.111629,9.36469777 11.2746066,11.5670007 C11.6536784,11.1317018 11.4011526,9.92817763 11.1735396,9.08310122 C11.0472767,8.57095109 10.9207307,6.08676485 11.7298325,4.14082373 C12.3871923,2.6298948 13.7268247,1.27238151 15.4460951,0.0178144065 C16.9125566,-0.0845582691 19.1626408,0.248367995 20.3001393,1.17029559 C13.094944,1.86138284 10.9714058,9.49287869 15.4712911,14.307262 C16.6849437,15.6131588 18.2776681,16.2790114 19.8197175,17.3291199 C18.5556729,17.7133759 17.0136235,17.5596735 15.3954201,17.7899403 C13.8026956,17.9946857 13.094944,19.5314228 14.2324425,20.7091387 C14.6115143,20.7091387 14.8646063,20.0946159 15.2184821,19.8898706 C15.3702241,19.7874979 15.749579,19.8385408 16.0527798,20.1969886 C14.8391272,20.043573 14.6876684,22.3227271 16.6342686,22.6043236 C16.7353356,22.5022377 16.4825267,22.3482486 16.5080057,22.1179817 C16.5332017,21.8874281 16.8870775,21.5803101 16.9629485,21.9129496 C16.9881445,21.9900876 17.0136235,22.0921735 17.0892114,22.1179817 C17.1902784,22.14379 17.2154743,22.0411305 17.2409534,21.9387579 C17.2916284,21.7850555 17.6707002,21.7850555 17.6707002,21.9900876 C17.6707002,22.1948329 17.7468543,22.1693115 17.7717672,22.1693115 C17.8728341,22.1693115 17.8728341,22.1179817 17.8980301,22.0156091 C17.9487051,21.8619067 18.252189,21.9387579 18.252189,22.0414173 C18.277385,22.2461626 18.6312608,22.3485353 18.8336778,22.3740568 C20.2494643,22.5277592 23.1317123,22.1693115 23.7383971,23.2191332 C23.940531,23.091239 23.8898559,22.8862069 24.5220198,22.7838343 C25.1793795,22.7066963 26.2412902,23.0399093 26.595166,23.3728356 C26.9490419,23.7312833 27.1766548,24.3713276 26.7466249,24.5505515 C26.7214289,23.7312833 26.342074,23.8078478 25.5080594,23.8849857 C24.6230867,23.9873584 23.3335631,24.6790192 25.4319053,24.5505515 C25.2042924,24.7811051 24.7493496,25.0113719 24.0161188,24.909286 C23.4094341,24.8579563 23.2828881,25.2932552 23.9402479,25.3701064 C24.3447987,25.4214361 25.2042924,25.3956279 25.5077763,25.0627016 C25.7857812,24.7300621 25.9123272,25.216404 25.7353893,25.3442982 C25.0528335,25.8051186 24.0665108,25.9591078 22.9290122,25.9335863 C21.6394886,25.9335863 20.0974392,26.5481091 18.7578068,27.1881534 C18.4036479,27.367664 18.479802,27.5979308 18.1760349,27.5468879 C17.999097,27.5210796 17.923226,27.2905261 17.7714841,27.2905261 C16.0270177,28.059038 14.3584223,28.1097942 12.5887599,27.8795274 C10.6166806,27.6234523 9.02395619,26.4454497 7.17842286,25.216404 C8.34140045,24.9858504 8.8218223,24.7042539 9.02423929,24.140774 C8.41727143,24.5505515 6.77415509,25.0371802 5.71224444,23.9102205 C6.1926663,23.9873584 7.20390192,24.0639228 7.40603581,23.4494 C8.06339558,23.3470274 8.21513755,22.8603987 8.06339558,22.7325045 C6.14199128,24.0386881 4.6503338,23.3725488 4.37204583,22.450908 C4.59965878,22.5277592 5.4846315,22.8862069 5.96477025,22.450908 C6.67252195,22.3995783 7.1529438,21.7850555 7.05187686,21.6058316 C5.7371573,22.399865 3.58842315,22.5535674 2.95625934,20.8889361 C2.9814553,20.9402658 4.27097889,21.5545019 5.00392655,20.9657873 C5.76263637,20.9913088 6.49558402,20.2999348 6.41971304,20.1207109 C5.81274519,20.4281157 1.89434869,21.0426385 1.97021967,18.4818878 C1.99541563,18.6100687 3.00665126,19.6088475 3.815753,19.1987833 C4.82698862,19.5572311 5.78783233,19.1732618 5.68648228,18.9427082 C3.86614492,18.7634844 3.1077182,18.8148141 2.32409552,18.2768557 C1.66673574,17.8415568 1.16111793,17.0733316 1.33833895,16.1000743 C2.04609065,17.0475233 2.37477054,17.1501828 3.15839322,17.1501828 C4.14443288,17.6368114 5.20634353,17.6623329 5.38328146,17.5086305 C5.10527659,17.3038852 4.37204583,17.1246613 3.05732628,16.7404053 C1.79328175,16.3561493 0.630304157,14.9478798 1.11072601,13.3600997 C1.6922148,14.7173262 2.09676567,15.075774 3.03213032,15.1012955 C4.16991195,15.8439992 5.18114757,16.0745528 5.58569844,15.9721801 C5.20662663,15.6137324 4.22058697,15.1526252 3.68949009,15.024731 C2.09676567,14.6149536 0.832721142,13.3600997 1.46488496,10.9017217 C1.79356485,12.1310541 2.29918266,13.001652 3.13348036,13.0271734 C3.68977319,13.7185474 4.54926686,14.1028034 5.18143067,14.2565058 C5.56050248,14.5636238 5.96533645,14.7941774 6.21786226,14.768656 C6.1926663,13.8722498 4.11952002,13.5393236 2.93134648,12.4126506 C1.94558991,11.490723 1.3134261,8.69941876 2.72921259,7.4445649 C2.60266659,9.46764396 2.80508357,9.87742142 3.61390221,10.4406145 C3.96777806,11.541766 4.72648788,12.3099912 5.38356456,12.4892151 C6.39480018,13.30877 6.54654215,13.6672177 7.00148494,13.8977713 C6.49586712,12.5405448 4.29645795,11.3370206 3.66429413,9.92846438 C2.50131654,7.23981955 4.29645795,4.37137732 5.50982746,4.29481288 C4.85246768,5.24226196 4.22058697,6.31789195 5.08008063,7.80301264 C4.80179266,9.08338798 5.3580855,9.95398586 6.24277512,10.6456466 C6.59665097,11.2091265 7.10255188,12.182097 7.88617456,12.7200554 C7.38055675,10.3640501 6.67252195,10.8251573 5.78783233,8.16174714 C5.02912251,5.98525244 6.14170817,2.04146699 9.70651192,1.47798714 C8.16417943,2.68151128 7.58297373,3.34736381 7.73443259,5.52414527 C6.84974297,6.958223 7.38055675,8.11070419 8.08830844,9.51897368 C8.59392626,10.5690822 9.09954407,11.6699469 9.6558369,12.310278 C9.70651192,11.3883504 9.45370302,10.5177525 8.97328117,9.46764396 C8.44246739,8.39230073 8.16417943,7.11163863 8.34140045,5.7544121 C8.67064654,3.01386403 10.6175299,0.197038278 14.2579215,0.0688573652 L14.2579215,0.0688573652 Z M21.5137919,23.7309966 C21.6907299,23.7309966 21.8169928,23.8588907 21.8169928,24.0125931 C21.8169928,24.0894443 21.7917968,24.1404873 21.7411218,24.191817 C21.9687347,24.1404873 22.1456727,23.9357419 22.3226106,23.5770074 C21.4631169,23.9870717 21.0585661,23.3722621 20.6036233,23.6028157 C20.8567153,23.8844122 21.0840451,24.0636361 21.286179,24.1404873 C21.260983,24.1149658 21.235504,24.0636361 21.235504,24.0125931 C21.235504,23.8588907 21.3623331,23.7309966 21.5137919,23.7309966 L21.5137919,23.7309966 Z" id="path39" fill="#D2AB67"></path>
    </g>
</svg>