<?xml version="1.0" encoding="UTF-8"?>
<svg width="28px" height="28px" viewBox="0 0 28 28" version="1.1" xmlns="http://www.w3.org/2000/svg" xmlns:xlink="http://www.w3.org/1999/xlink">
    <title>BT</title>
    <g id="BT" stroke="none" stroke-width="1" fill="none" fill-rule="evenodd">
        <g id="Group-2">
            <rect id="Rectangle" fill="#CDDA31" x="0" y="0" width="28" height="28"></rect>
            <path d="M15.610875,12.564125 C16.8175,12.564125 17.053875,13.173625 17.053875,13.9075 L17.053875,16.53225 L16.319875,16.544625 L16.220375,16.134125 C15.9965,16.333125 15.62325,16.63175 15.051125,16.63175 C14.3545,16.63175 13.857,16.183875 13.857,15.562 C13.857,15.163875 14.00625,14.69125 14.852125,14.392625 L15.959125,14.0195 C16.120875,13.96975 16.133375,13.95725 16.133375,13.845375 L16.133375,13.683625 C16.133375,13.36025 15.83475,13.26075 15.474,13.26075 C14.8645,13.26075 14.30475,13.633875 14.080875,13.783125 L14.080875,12.974625 C14.329625,12.83775 14.802375,12.564125 15.610875,12.564125 Z M4.266375,12.564125 C5.473,12.564125 5.70925,13.173625 5.70925,13.9075 L5.70925,16.53225 L4.9505,16.544625 L4.851,16.134125 C4.627125,16.333125 4.266375,16.63175 3.68175,16.63175 C2.985125,16.63175 2.5,16.183875 2.5,15.562 C2.5,15.163875 2.636875,14.69125 3.495125,14.392625 L4.614625,14.0195 C4.776375,13.96975 4.78875,13.95725 4.78875,13.845375 L4.78875,13.683625 C4.78875,13.36025 4.49025,13.26075 4.1295,13.26075 C3.52,13.26075 2.96025,13.633875 2.736375,13.783125 L2.736375,12.974625 C2.985125,12.83775 3.457875,12.564125 4.266375,12.564125 Z M24.2685,12.564125 C24.902875,12.564125 25.25125,12.763125 25.412875,12.85025 L25.412875,13.7085 C25.226375,13.546875 24.92775,13.3105 24.405375,13.3105 C23.60925,13.3105 23.285875,13.96975 23.285875,14.604125 C23.285875,14.87775 23.3605,15.897875 24.3805,15.897875 C24.915375,15.897875 25.25125,15.6615 25.5,15.487375 L25.5,16.30825 C25.313375,16.407875 24.8905,16.61925 24.23125,16.61925 C22.912625,16.61925 22.352875,15.624125 22.352875,14.59175 C22.352875,13.521875 22.962375,12.564125 24.2685,12.564125 Z M20.064125,11.37 L20.064125,12.65125 L20.760625,12.65125 L20.760625,13.36025 L20.064125,13.36025 L20.064125,15.325625 C20.064125,15.61175 20.101375,15.872875 20.524375,15.872875 C20.63625,15.872875 20.723375,15.8605 20.798,15.848 L20.798,16.544625 C20.673625,16.557125 20.54925,16.5695 20.362625,16.5695 C19.330125,16.5695 19.143625,16.0595 19.143625,15.375375 L19.143625,13.36025 L18.583875,13.36025 L18.583875,12.65125 L19.143625,12.65125 L19.143625,11.37 L20.064125,11.37 Z M7.003,12.663625 L7.003,16.544625 L6.0825,16.544625 L6.0825,12.663625 L7.003,12.663625 Z M9.5405,12.589 C9.640125,12.589 9.70225,12.6015 9.752,12.613875 L9.752,13.484625 C9.677375,13.472125 9.5405,13.472125 9.478375,13.472125 C9.055375,13.472125 8.296625,13.87025 8.296625,14.6415 L8.296625,16.544625 L7.388625,16.544625 L7.388625,12.663625 L8.28425,12.663625 L8.28425,13.385125 C8.57025,12.962125 8.98075,12.589 9.5405,12.589 Z M13.58325,12.63875 C13.58325,13.5095 12.911625,13.733375 12.56325,13.85775 C12.961375,13.95725 13.707625,14.16875 13.707625,15.126625 C13.707625,15.91025 13.123,16.544625 11.792,16.544625 L10.01325,16.544625 L10.01325,11.382375 L11.667625,11.382375 C12.103,11.382375 13.58325,11.382375 13.58325,12.63875 Z M18.359875,11.382375 L18.359875,16.544625 L17.439375,16.544625 L17.439375,11.382375 L18.359875,11.382375 Z M22.041875,12.663625 L22.041875,16.544625 L21.121375,16.544625 L21.121375,12.663625 L22.041875,12.663625 Z M16.133375,14.554375 C16.0835,14.59175 16.058625,14.604125 15.897,14.666375 L15.312375,14.87775 C14.92675,15.014625 14.789875,15.20125 14.789875,15.474875 C14.789875,15.8605 15.12575,15.947625 15.2875,15.947625 C15.43675,15.947625 15.760125,15.897875 16.133375,15.51225 L16.133375,14.554375 Z M4.776375,14.554375 C4.726625,14.59175 4.70175,14.604125 4.54,14.666375 L3.955375,14.87775 C3.56975,15.014625 3.432875,15.20125 3.432875,15.474875 C3.432875,15.8605 3.76875,15.947625 3.9305,15.947625 C4.07975,15.947625 4.40325,15.897875 4.776375,15.51225 L4.776375,14.554375 Z M11.65525,14.231 L10.9835,14.231 L10.9835,15.785875 L11.593,15.785875 C12.239875,15.785875 12.700125,15.574375 12.700125,15.014625 C12.700125,14.653875 12.501125,14.231 11.65525,14.231 Z M11.8005142,12.1414416 L10.9835,12.14125 L10.9835,13.484625 L11.667625,13.484625 C12.550875,13.484625 12.6255,12.962125 12.6255,12.788 C12.6255,12.1843667 12.0403311,12.1441244 11.8005142,12.1414416 Z M7.003,11.382375 L7.003,12.302875 L6.0825,12.302875 L6.0825,11.382375 L7.003,11.382375 Z M22.041875,11.37 L22.041875,12.302875 L21.121375,12.302875 L21.121375,11.37 L22.041875,11.37 Z" id="Combined-Shape" fill="#152649" fill-rule="nonzero"></path>
        </g>
    </g>
</svg>