<?xml version="1.0" encoding="UTF-8"?>
<svg width="28px" height="28px" viewBox="0 0 28 28" version="1.1" xmlns="http://www.w3.org/2000/svg" xmlns:xlink="http://www.w3.org/1999/xlink">
    <title>BV</title>
    <g id="BV" stroke="none" stroke-width="1" fill="none" fill-rule="evenodd">
        <path d="M11.6058278,2.25435944 C14.5759233,1.21472661 19.6515115,-0.486958792 24.0769008,0.131992824 C25.6223311,0.347504433 26.6654521,0.963870885 27.1651344,1.82592003 C27.6744447,2.70348693 27.5773083,3.78622343 27.0461206,5.09998659 C26.5088095,6.42926614 25.5706992,7.81113373 24.0769008,9.36885749 C23.9110735,9.54160979 23.740924,9.71483034 23.566436,9.88841999 C24.0026617,10.1861311 24.316547,10.5661471 24.5521694,10.9719259 C25.064104,11.8546659 25.1201098,12.9848133 24.5521694,14.2916813 C23.9912286,15.5821699 22.9979887,17.0002406 21.5225659,18.5372776 C20.0287689,20.0950014 18.2304344,21.6725515 16.059307,23.2121737 C13.7770421,24.8328289 11.4273944,26.329346 8.75483379,27.7301783 L8.75483379,27.7301783 L8.22014561,28 C10.7141869,26.6008912 13.0533332,25.170751 15.1684535,23.619062 C17.2109418,22.1216804 18.9016372,20.6148158 20.2169142,19.1476093 C21.5741979,17.6329865 22.5070568,16.2812914 23.0076139,15.0364917 C23.516048,13.7744494 23.5046719,12.7089568 23.0076139,11.8529411 C22.8334594,11.5526424 22.6027935,11.2920496 22.3168564,11.0682102 C21.2222482,12.0548715 19.988481,13.0446824 18.6127657,14.0213407 C16.3305016,15.6411328 13.8618386,17.1833415 11.1901531,18.5824476 L11.87,18.218 L12.4723183,17.8757531 C14.1361841,16.9104264 15.6641203,15.9165445 17.1086541,14.8917426 L17.722787,14.4506418 C19.3862438,13.2395287 20.7751533,12.0189154 21.9520823,10.8211949 C21.444076,10.5186027 20.8043556,10.3017623 20.0383955,10.1590125 C16.0978119,9.42627035 10.8638293,11.0331312 8.22014561,11.9658699 C5.78648881,12.8244708 3.17256062,13.9537565 0.5,15.2632111 L0.5,15.2632111 L1.09419399,14.9692517 C3.76675461,13.5692825 6.4384384,12.3718951 9.0514932,11.4236413 C12.4783917,10.1805637 16.574742,8.97972802 21.5829483,9.27799739 C22.1766242,9.3132318 22.6662283,9.43433923 23.0728129,9.61555391 C24.2313143,8.2767791 24.9781322,7.01195307 25.4429349,5.86807289 C25.9478686,4.6241349 25.9426186,3.56726087 25.4429349,2.70607345 C24.9327513,1.82850655 23.957887,1.23800257 22.5918529,0.967319125 C18.6573968,0.187163308 13.3612815,1.86298895 10.7149743,2.77417653 C8.22005965,3.63191571 5.66651246,4.76120142 3.1129654,6.11634345 C3.31161407,6.00341461 3.5093859,5.89048577 3.70715939,5.77755828 C6.37972001,4.40000065 8.94551877,3.18623646 11.6058278,2.25435944 Z" id="Combined-Shape" fill="#2B5B83" fill-rule="nonzero"></path>
    </g>
</svg>