<?xml version="1.0" encoding="UTF-8"?>
<svg width="28px" height="28px" viewBox="0 0 28 28" version="1.1" xmlns="http://www.w3.org/2000/svg" xmlns:xlink="http://www.w3.org/1999/xlink">
    <title>BX</title>
    <g id="BX" stroke="none" stroke-width="1" fill="none" fill-rule="evenodd">
        <path d="M9.99442817,12.0002871 C9.49586552,12.0085949 9.03435886,12.1742741 8.62762811,12.3412802 C8.30552358,12.4739577 7.50512566,12.1153562 7.18889142,12.310281 C7.09341097,12.3693037 6.73257564,12.6272179 6.84359414,12.7287723 C6.86563558,12.7485499 6.9823403,12.7337298 7.0450177,12.7287723 C7.39791107,12.7035382 8.01046723,12.8166862 8.32549335,12.9457677 C9.50560303,13.4297922 9.94545339,14.6772689 10.2534004,15.4722168 C10.2538694,15.4746924 8.46597176,13.5771634 5.60628049,14.4027392 C4.1217346,14.8317701 2.11970326,16.0062749 0.326116496,15.0072267 C0.265856614,14.9736236 0.0684098905,14.8251984 0.00959442626,14.8367301 C-0.0350060698,14.8455962 0.0866532831,15.0181382 0.153468148,15.0847248 C0.662781274,15.5944172 2.08229613,16.4068484 4.65671428,15.3947187 C7.18589883,14.4005687 9.77096317,14.6209118 10.8001207,16.557196 C10.8001207,16.557196 10.8741295,13.6838634 9.07363659,12.7907708 C9.38469109,12.5724119 9.83777862,12.5298183 10.1958511,12.573776 C10.3493299,12.5926852 10.8248669,12.6484215 11.332453,12.9767676 C12.043304,13.4366739 12.7540401,14.1433359 13.6200452,14.4337385 C13.7052694,14.4628154 13.8687735,14.5103683 13.9797292,14.5267356 C12.444246,15.6043366 11.8566717,17.1297539 11.9511104,16.9911869 C12.6972963,15.8944284 14.0517807,14.6744788 15.9795729,14.3562397 C16.140769,14.336524 16.285161,14.3087487 16.3968067,14.2942406 C17.5817509,14.183697 18.6951025,14.4804237 20.9576026,15.270721 C25.4326492,16.8330898 27.1608602,14.8720074 27.8635389,13.9532481 C27.9887091,13.790129 28.0149513,13.6507555 27.9930259,13.6277546 C27.9712717,13.6045048 27.8709052,13.6751831 27.8059891,13.736252 C24.3217666,17.0011682 21.1344465,14.2003751 18.7563349,13.6587538 C17.7175671,13.4222902 16.5150133,13.4255767 15.2889795,13.84475 C14.4572165,14.1293861 13.6229739,13.842887 13.274748,13.6742528 C12.3738687,13.2388978 11.8371626,12.5543697 10.9296071,12.1862833 C10.6064093,12.0549946 10.2935645,11.9953081 9.99442817,12.0002871 L9.99442817,12.0002871 Z" id="path4012-path" fill="#2A3692" fill-rule="nonzero"></path>
    </g>
</svg>