<?xml version="1.0" encoding="UTF-8"?>
<svg width="28px" height="28px" viewBox="0 0 28 28" version="1.1" xmlns="http://www.w3.org/2000/svg" xmlns:xlink="http://www.w3.org/1999/xlink">
    <title>BY</title>
    <g id="BY" stroke="none" stroke-width="1" fill="none" fill-rule="evenodd">
        <path d="M7.9859835,9.128756 C8.63850951,9.128756 9.13043898,9.33125839 9.32377287,10.2415232 C9.5391248,11.2535609 9.45056977,11.9580036 8.29056645,12.0386252 L6.20107331,12.1850718 C7.73905306,21.7298107 16.7313964,24.8406647 21.627128,14.5609417 C22.4375466,12.8594475 22.7027288,12.5495761 23.5904037,12.7660213 C24.7937671,13.0592941 24.9580333,13.6669909 24.3848881,15.3823331 C20.1517259,28.0550936 5.92468891,29.3254048 3.13322573,12.4018964 L1.43551858,12.5224494 C0.0543691196,12.6196695 -5.32907052e-15,11.4749382 -5.32907052e-15,10.8383124 C-5.32907052e-15,9.57985733 0.475995365,9.128756 1.33025688,9.128756 L7.9859835,9.128756 Z M25.5295367,3 C26.8939795,3 28,4.08630436 28,5.42642435 C28,6.76635465 26.8939795,7.85246931 25.5295367,7.85246931 C24.1654802,7.85246931 23.0592666,6.76635465 23.0592666,5.42642435 C23.0592666,4.08620951 24.1654802,3 25.5295367,3 Z" id="Combined-Shape" fill="#E41917" fill-rule="nonzero"></path>
    </g>
</svg>