<?xml version="1.0" encoding="UTF-8"?>
<svg width="28px" height="28px" viewBox="0 0 28 28" version="1.1" xmlns="http://www.w3.org/2000/svg" xmlns:xlink="http://www.w3.org/1999/xlink">
    <title>BZ</title>
    <g id="BZ" stroke="none" stroke-width="1" fill="none" fill-rule="evenodd">
        <path d="M0.0850852713,0.532370292 C0.14303876,0.627082015 2.78458915,3.66357059 5.95553488,7.28041568 C9.12648062,10.8972608 11.7196279,13.907819 11.7181085,13.9706671 C11.7165891,14.033735 9.07937984,17.0831888 5.85764341,20.7477194 C2.63590698,24.4120302 0,27.4472003 0,27.4922488 C0,27.5988269 1.96151938,26.6677514 14,20.8468261 C19.4914729,18.1916016 24.887876,15.5943908 25.9922481,15.0751245 C27.0964031,14.5560779 28,14.0618629 28,13.9770399 C28,13.8922168 26.7545426,13.2230818 25.2325581,12.4899999 C18.3217674,9.1614652 7.89491473,4.13141573 5.42635659,2.9351034 C1.40629457,0.987250257 -0.032124031,0.340090114 0.0850852713,0.532370292" id="Path" fill="#0059A9"></path>
        <path d="M0.708465116,4.8007705 C0.765550388,4.95195766 1.51829457,7.07385183 2.38151938,9.51657922 L3.95082171,13.957702 L2.30750388,18.6245067 C1.40368992,21.1911724 0.697829457,23.3253725 0.739069767,23.366905 C0.780310078,23.4086573 2.68648062,21.3093972 4.97531783,18.7022978 L9.13646512,13.9616574 L7.45928682,12.0456679 C4.20303876,8.3262001 0.784868217,4.52608453 0.695224806,4.52608453 C0.64551938,4.52608453 0.651379845,4.64980309 0.708465116,4.8007705" id="Path" fill="#2FA54C"></path>
    </g>
</svg>