<?xml version="1.0" encoding="UTF-8"?>
<svg width="28px" height="28px" viewBox="0 0 28 28" version="1.1" xmlns="http://www.w3.org/2000/svg" xmlns:xlink="http://www.w3.org/1999/xlink">
    <title>C6</title>
    <g id="C6" stroke="none" stroke-width="1" fill="none" fill-rule="evenodd">
        <path d="M19.2592602,11.2196521 L17.4383667,16.6624874 C17.4383667,16.6624874 17.0615686,18 15.5961274,18 L14.3142425,18 L14.4977988,17.4771796 L15.1077097,17.4771796 C15.1077097,17.4771796 15.5961274,17.544958 15.8914913,16.6624874 L17.7331664,11.2196521 L19.2592602,11.2196521 Z M4.94290404,11 C7.03405402,11 7.41564798,12.4206425 7.41564798,12.4206425 L7.41564798,12.4206425 L6.4386245,12.8598502 C6.4386245,12.8598502 6.074427,11.7890098 4.72888042,11.7944166 C2.12458154,11.8042648 0.455836714,17.362864 4.29142967,16.223859 C6.3571902,15.6109571 8.34819292,12.1352395 8.34819292,12.1352395 L8.34819292,12.1352395 L9.89553858,12.1352395 L10.3942061,16.6679908 L8.70524375,16.6679908 L8.57839056,15.3878291 L6.59895414,15.3878291 C5.89613667,16.090716 4.58961461,17.089916 2.82166287,17.106233 C-0.13912263,17.1349085 -1.14689555,14.5049723 1.64584944,12.0916953 C1.64584944,12.0916953 2.90798699,11 4.94290404,11 Z M16.6833599,12.1352395 L15.1278332,16.6729149 L14.2327141,16.6729149 L12.6756829,13.3302437 L11.5571367,16.6729149 L10.7121384,16.6729149 L12.2793254,12.1387153 L14.0087228,12.1387153 L15.0675567,14.4267665 L15.8494576,12.1352395 L16.6833599,12.1352395 Z M23.156446,12.1387153 L22.9629221,12.7342381 L21.0093453,12.7342381 L20.578665,14.0399857 L22.444037,14.0399857 L22.2508892,14.6355085 L20.3826021,14.6355085 L19.9003907,16.0987297 L21.9353077,16.0987297 L21.7468616,16.6679908 L18.1332853,16.6679908 L19.7073369,12.1387153 L23.156446,12.1387153 Z M28,12.1387153 L27.8062879,12.7342381 L26.2487865,12.7342381 L24.95195,16.6679908 L23.3799672,16.6679908 L24.7390548,12.7342381 L23.2624235,12.7342381 L23.4297117,12.1387153 L28,12.1387153 Z M8.35167221,13.1522048 L7.18629665,14.709273 C7.18629665,14.709273 7.17331983,14.7280038 7.14868266,14.7612171 L7.14868266,14.7612171 L8.51501098,14.7612171 L8.35167221,13.1522048 Z" id="Combined-Shape" fill="#006BB6" fill-rule="nonzero"></path>
        <polygon id="Path" fill="#ED1C2E" fill-rule="nonzero" points="4.15949859 15.5759093 4.19993363 15.1163294 3.32512618 15.3146439 3.48790074 14.9075875 2.64346658 14.1967835 3.03991807 14.0820816 3.03991807 13.4657039 3.50821229 13.5493166 3.66092511 13.2564792 4.09828182 13.7580585 4.06743834 12.6298672 4.39317553 12.8286644 4.82094067 12.1807147 5.08536704 12.8286644 5.43132175 12.6511083 4.97318331 13.7482104 5.63509556 13.2564792 5.62446961 13.5700749 6.18425987 13.455373 5.88889598 14.0399857 6.20447739 14.2388795 5.07483513 14.9387733 5.07483513 15.3146439 4.30205563 15.1266603 4.25099463 15.5759093"></polygon>
    </g>
</svg>