<?xml version="1.0" encoding="UTF-8"?>
<svg width="28px" height="28px" viewBox="0 0 28 28" version="1.1" xmlns="http://www.w3.org/2000/svg" xmlns:xlink="http://www.w3.org/1999/xlink">
    <title>CA</title>
    <g id="CA" stroke="none" stroke-width="1" fill="none" fill-rule="evenodd">
        <path d="M20.2504417,11.490038 C22.3243515,11.5111661 23.9803873,13.2009569 23.941957,15.2557677 C23.980829,15.9089377 23.8231324,16.5005218 23.5642802,16.9941079 C23.2524207,17.6427826 22.5991059,18.097709 21.8592127,18.0545539 C20.7973002,18.097709 19.9500671,17.2346075 19.9646441,16.123814 C19.9500671,15.9323133 19.9942399,15.703052 20.0596155,15.4486169 L20.0596155,15.4486169 L20.0597398,15.5750899 C20.057959,15.612387 20.052327,15.6687752 20.0596155,15.738565 C20.0498975,16.011431 20.2826878,16.2496829 20.5340307,16.2213624 C20.8273376,16.2496829 21.0420171,16.0590813 21.1007668,15.8343153 C21.1224115,15.7619407 21.1453813,15.6347231 21.1007668,15.5443672 C21.1453813,14.8938944 20.6630151,14.4012073 20.0596155,14.3863728 C19.4690261,14.4012073 18.9866598,14.8938944 19.0184642,15.5443672 L19.0184642,15.5443672 L18.9239346,15.4486169 L18.9239346,20.1799412 C18.9663404,24.47477 15.538978,27.9694318 11.3491943,28 C10.1229592,27.9689823 8.99787971,27.6934192 8.03403067,27.2281535 L8.03403067,27.2281535 L8.12856032,27.2281535 C8.61136829,27.3562702 9.13525691,27.4187551 9.64324334,27.4214523 C13.4739027,27.4187551 16.5562761,24.2765264 16.5562761,20.3727905 L16.5562761,20.3727905 L16.5562761,15.2557677 C16.5752703,13.2009569 18.2321896,11.5111661 20.2504417,11.490038 Z M25.3629939,3.86103039 C25.1390381,6.75421838 22.7607781,9.05312505 19.8705562,9.07560165 L20.060499,9.07560165 C17.6486678,9.05312505 15.689607,11.0512948 15.704184,13.5165283 L15.704184,20.3723409 C15.6869567,23.7982243 13.0061135,26.553406 9.64368507,26.5516096 C7.31180649,26.553406 5.26793413,25.1724437 4.24621881,23.1720263 C5.16412821,24.0647968 6.42525974,24.6433445 7.84452965,24.6199689 C10.5969326,24.6437941 12.849742,22.3466855 12.8638773,19.502946 L12.8638773,13.5165283 C12.8532758,9.4541076 16.0836278,6.16218473 20.060499,6.17881741 L19.8705562,6.17881741 C22.0080748,6.16173519 23.9401901,5.27211136 25.3629939,3.86103039 Z M26.5,-4.4408921e-14 C25.7972118,2.99972707 23.2153156,5.19164513 20.060499,5.21457126 C15.5937522,5.25772633 11.9671708,8.95467754 12.0104601,13.5165283 L12.0104601,13.5165283 L12.0104601,19.502946 C11.9737967,21.8557966 10.1141247,23.7523721 7.84452965,23.7505752 C5.52501944,23.7523721 3.66358047,21.8557966 3.67815747,19.502946 L3.67815747,19.502946 L3.67815747,11.2000899 C3.55800763,10.5738918 3.01512474,10.0951402 2.35165029,10.1373962 L2.35165029,10.1373962 L1.5,10.1373962 L1.5,9.94454702 L4.72063397,9.94454702 C4.75464697,8.92950375 5.54180507,8.12843772 6.51934766,8.1100069 C6.66909322,8.12843772 6.88333098,8.12663959 6.99376281,8.20665628 C7.87898438,8.167547 8.63477984,7.75937194 9.0769489,7.14486169 C9.11272881,7.17048501 9.11361227,7.19520927 9.0769489,7.24061201 C9.11361227,8.39321207 8.18068415,9.34442179 6.99376281,9.36510026 C6.81530497,9.34442179 6.60946003,9.31205549 6.42570146,9.26890041 C6.33779772,9.20371827 6.20527953,9.1704529 6.04669941,9.1718015 C5.62264118,9.1704529 5.25556576,9.50265706 5.19372394,9.94454702 C5.92213231,9.91847416 6.50697929,10.5168013 6.51890593,11.2962898 L6.51890593,11.2962898 L6.51890593,19.0210477 C6.50697929,19.0651019 6.50697929,19.0677991 6.51890593,19.116798 C6.50653756,19.685456 6.99729663,20.1853356 7.5609407,20.1790422 C8.2040957,20.1853356 8.69352958,19.6859056 8.69662167,19.116798 C8.69352958,19.0669 8.69352958,19.0651019 8.69662167,19.0210477 L8.69662167,19.0210477 L8.69662167,13.5165283 C8.72710086,7.13002713 13.693883,2.02828841 19.9650859,2.02828841 L19.88,2.029 L19.9914687,2.04287274 C20.2013237,2.06577253 20.2403545,2.05286077 20.4864863,2.036567 L20.6285603,2.02828841 C22.8168775,2.05031548 24.8793024,1.25644195 26.5,-4.4408921e-14 Z" id="Combined-Shape" fill="#ED1C24"></path>
    </g>
</svg>