<?xml version="1.0" encoding="UTF-8"?>
<svg width="28px" height="28px" viewBox="0 0 28 28" version="1.1" xmlns="http://www.w3.org/2000/svg" xmlns:xlink="http://www.w3.org/1999/xlink">
    <title>CC</title>
    <g id="CC" stroke="none" stroke-width="1" fill="none" fill-rule="evenodd">
        <path d="M17.3837326,0.5 C9.88036539,0.5 2.27777734,6.54444716 0.402297272,14.0011329 C0.899848305,14.7455656 4.50032354,15.5272817 7.25308096,15.7600456 C21.0978984,0.404834563 30.4513203,2.87254438 24.5278378,13.638186 C24.3209211,14.01514 24.0993279,14.3010482 23.8878636,14.6549318 C25.8164681,14.2823035 27.4689081,13.7127528 27.6667296,13.5866895 C29.3028394,6.30097195 24.7628671,0.5 17.3837326,0.5 Z M8.63163012,15.9233924 C12.1858023,16.3518428 15.0218639,15.8529452 16.9804414,15.5474683 C18.0842729,14.3636679 19.2714086,13.0274381 20.0349954,11.9795883 C25.9828697,3.79948046 19.112862,4.74351335 8.63163012,15.9233924 Z" id="Shape" fill="#CAB999" fill-rule="nonzero"></path>
        <path d="M6.0828955,24.7783097 C6.0828955,24.7783097 10.4984284,22.5242071 14.7345369,18.0423682 C11.8505186,18.4456884 9.85700715,18.4425986 6.74726152,17.9820144 C3.56578751,22.4154466 2.84995069,21.1684086 2.84995069,21.1684086 C3.52878642,20.3642401 4.9612869,18.4456884 5.51092886,17.7894177 C4.0769814,17.4437735 1.14645337,16.7240591 0.0953328834,15.5394348 C-0.712283188,22.1725894 3.68216526,27.5 10.5908277,27.5 C17.8657804,27.5 25.2349928,21.8176759 27.3856039,14.6769723 C26.3840939,15.1935847 25.1640913,15.8912586 22.8520397,16.4435065 C13.9852131,29.0263547 6.0828955,24.7783097 6.0828955,24.7783097 Z" id="Path" fill="#004886" fill-rule="nonzero"></path>
    </g>
</svg>