<?xml version="1.0" encoding="UTF-8"?>
<svg width="28px" height="28px" viewBox="0 0 28 28" version="1.1" xmlns="http://www.w3.org/2000/svg" xmlns:xlink="http://www.w3.org/1999/xlink">
    <title>CI</title>
    <defs>
        <radialGradient cx="49.8320335%" cy="49.5992038%" fx="49.8320335%" fy="49.5992038%" r="54.2308764%" gradientTransform="translate(0.498320,0.495992),scale(0.838864,1.000000),translate(-0.498320,-0.495992)" id="radialGradient-1">
            <stop stop-color="#FFFFFF" offset="0%"></stop>
            <stop stop-color="#FFFFFF" offset="6.75%"></stop>
            <stop stop-color="#F9EDEE" offset="19.78%"></stop>
            <stop stop-color="#F1D2D8" offset="38.04%"></stop>
            <stop stop-color="#DB959B" offset="66.19%"></stop>
            <stop stop-color="#CD6774" offset="88.89%"></stop>
            <stop stop-color="#C95667" offset="100%"></stop>
        </radialGradient>
        <radialGradient cx="46.371176%" cy="15.0304374%" fx="46.371176%" fy="15.0304374%" r="97.6104818%" gradientTransform="translate(0.463712,0.150304),scale(0.880601,1.000000),translate(-0.463712,-0.150304)" id="radialGradient-2">
            <stop stop-color="#C95667" offset="0%"></stop>
            <stop stop-color="#C95667" offset="20.86%"></stop>
            <stop stop-color="#CA5B6B" offset="29.8%"></stop>
            <stop stop-color="#CF6B77" offset="41.85%"></stop>
            <stop stop-color="#D6838B" offset="55.69%"></stop>
            <stop stop-color="#E1A6AB" offset="70.85%"></stop>
            <stop stop-color="#F1D2D7" offset="86.93%"></stop>
            <stop stop-color="#F1D2D8" offset="87.12%"></stop>
            <stop stop-color="#F1D2D8" offset="100%"></stop>
        </radialGradient>
        <radialGradient cx="51.379924%" cy="26.7307428%" fx="51.379924%" fy="26.7307428%" r="97.4790824%" gradientTransform="translate(0.513799,0.267307),scale(1.000000,0.907298),translate(-0.513799,-0.267307)" id="radialGradient-3">
            <stop stop-color="#C95667" offset="0%"></stop>
            <stop stop-color="#C95A69" offset="9.56%"></stop>
            <stop stop-color="#CD6573" offset="20.53%"></stop>
            <stop stop-color="#D37B83" offset="32.19%"></stop>
            <stop stop-color="#DC989E" offset="44.34%"></stop>
            <stop stop-color="#E9BBBF" offset="56.75%"></stop>
            <stop stop-color="#F1D2D8" offset="63.8%"></stop>
            <stop stop-color="#F3D7DC" offset="72.46%"></stop>
            <stop stop-color="#F6E4E6" offset="83.7%"></stop>
            <stop stop-color="#FFF9F9" offset="96.31%"></stop>
            <stop stop-color="#FFFFFF" offset="100%"></stop>
        </radialGradient>
        <radialGradient cx="39.4339774%" cy="18.4119148%" fx="39.4339774%" fy="18.4119148%" r="70.5833818%" gradientTransform="translate(0.394340,0.184119),scale(0.964839,1.000000),translate(-0.394340,-0.184119)" id="radialGradient-4">
            <stop stop-color="#FFFFFF" offset="0%"></stop>
            <stop stop-color="#F9EDEE" offset="17.12%"></stop>
            <stop stop-color="#F1D2D8" offset="41.1%"></stop>
            <stop stop-color="#DB959B" offset="67.87%"></stop>
            <stop stop-color="#CD6774" offset="89.44%"></stop>
            <stop stop-color="#C95667" offset="100%"></stop>
        </radialGradient>
        <radialGradient cx="98.7424463%" cy="52.0422073%" fx="98.7424463%" fy="52.0422073%" r="92.1967594%" gradientTransform="translate(0.987424,0.520422),scale(1.000000,0.906082),translate(-0.987424,-0.520422)" id="radialGradient-5">
            <stop stop-color="#FFFFFF" offset="0%"></stop>
            <stop stop-color="#FFFFFF" offset="6.75%"></stop>
            <stop stop-color="#F9EDEE" offset="21.83%"></stop>
            <stop stop-color="#F1D2D8" offset="42.94%"></stop>
            <stop stop-color="#DB959B" offset="68.87%"></stop>
            <stop stop-color="#CD6774" offset="89.77%"></stop>
            <stop stop-color="#C95667" offset="100%"></stop>
        </radialGradient>
        <radialGradient cx="131.32211%" cy="-2.40129225%" fx="131.32211%" fy="-2.40129225%" r="162.765803%" gradientTransform="translate(1.313221,-0.024013),scale(0.876336,1.000000),translate(-1.313221,0.024013)" id="radialGradient-6">
            <stop stop-color="#C95667" offset="0%"></stop>
            <stop stop-color="#C95667" offset="30.67%"></stop>
            <stop stop-color="#CA5E6D" offset="36.8%"></stop>
            <stop stop-color="#D27981" offset="47.41%"></stop>
            <stop stop-color="#DFA2A7" offset="61.25%"></stop>
            <stop stop-color="#F1D2D8" offset="76.07%"></stop>
            <stop stop-color="#F1D2D8" offset="100%"></stop>
        </radialGradient>
        <radialGradient cx="49.9990225%" cy="49.3266279%" fx="49.9990225%" fy="49.3266279%" r="61.9654481%" gradientTransform="translate(0.499990,0.493266),scale(0.912691,1.000000),translate(-0.499990,-0.493266)" id="radialGradient-7">
            <stop stop-color="#FFFFFF" offset="0%"></stop>
            <stop stop-color="#FFFFFF" offset="9.2%"></stop>
            <stop stop-color="#F9EDEE" offset="20.96%"></stop>
            <stop stop-color="#F1D2D8" offset="37.42%"></stop>
            <stop stop-color="#E9BFC4" offset="41.69%"></stop>
            <stop stop-color="#DD9BA1" offset="51.49%"></stop>
            <stop stop-color="#D47D84" offset="61%"></stop>
            <stop stop-color="#CD6774" offset="70.01%"></stop>
            <stop stop-color="#CA5B6B" offset="78.33%"></stop>
            <stop stop-color="#C95667" offset="85.28%"></stop>
            <stop stop-color="#C95667" offset="100%"></stop>
        </radialGradient>
    </defs>
    <g id="CI" stroke="none" stroke-width="1" fill="none" fill-rule="evenodd">
        <g id="Group-2" transform="translate(0.000000, 2.000000)" fill-rule="nonzero">
            <path d="M15.3848537,-1.09147259e-13 C15.694176,0.00572447216 15.8679626,0.127695583 16.0569004,0.227344472 C16.4252093,0.421866694 16.6635671,0.586086694 17.1530537,0.591671139 C17.4129404,0.592464472 17.6776182,0.622766694 17.9175782,0.739153361 C18.7642048,1.14014447 19.2433315,2.57192447 19.3916071,3.36275336 C19.444216,3.63699781 19.4171182,3.92000003 19.3916071,4.19343558 C19.3653026,4.46768003 19.3397915,4.72596447 19.3916071,4.95477114 C19.4840848,5.36851781 19.6443226,5.37012003 19.7487626,5.37012003 L19.749556,5.37012003 C19.853996,5.37012003 19.9855337,5.34142003 20.1202604,5.31351336 C20.2199093,5.29279336 20.3179715,5.26886892 20.4271871,5.25452669 C20.6663537,5.21944892 20.9039182,5.20271114 21.1279337,5.20271114 C21.4523915,5.20271114 21.765696,5.23937558 22.063056,5.31352892 C22.3795493,5.39085558 22.6856671,5.42034892 23.0069515,5.44985781 C23.2453093,5.47057781 23.4884582,5.49370892 23.7451715,5.53914669 C23.9978871,5.58299781 24.8652493,5.73923781 25.3563226,5.95528892 C25.6329471,6.07248447 25.8505848,6.26461114 26.0594493,6.45194669 C26.241216,6.61537336 26.4142093,6.76844003 26.6246604,6.88084447 C27.8443871,7.53375781 28.2007337,8.29668003 27.839596,9.52676669 C27.8021226,9.65034003 27.7670448,9.78027558 27.7295871,9.90783114 C27.6115982,10.3191822 27.4872315,10.7512689 27.3509182,11.1450889 C27.1771315,11.6513134 26.9108671,11.8689511 26.598356,12.1256489 C26.5066715,12.2021822 26.4102115,12.2826978 26.3097693,12.3719867 C26.0172004,12.6438356 25.8019426,12.9842378 25.5755471,13.3477711 C25.2590537,13.8460311 24.9290115,14.3650111 24.3773493,14.6910556 C23.9221471,14.9597156 23.5610093,14.9780556 23.1002226,15.0003778 C23.072316,15.00198 23.043616,15.0027734 23.0165182,15.0027734 C22.8124293,15.1032156 23.0324626,15.5353022 23.1831337,15.7991867 C23.2636493,15.9418934 23.3529382,16.0989422 23.4334537,16.3149778 C23.4868715,16.4656489 23.4892671,16.6290756 23.4940426,16.7813489 C23.4980248,16.9192645 23.4988182,17.04682 23.5378937,17.1416778 C23.5538382,17.1863222 23.617616,17.2445156 23.6806004,17.2987267 C23.7906093,17.3967889 23.9269382,17.5227422 23.9843382,17.7148689 C24.123856,18.1852222 24.0776093,19.1873111 23.9404871,19.5436578 C23.904616,19.6409111 23.8105515,19.7429556 23.7013204,19.8673222 C23.617616,19.9621956 23.5235515,20.0690156 23.4892671,20.1335867 C23.4470182,20.2172911 23.4262826,20.3257134 23.4047537,20.4373245 C23.3712782,20.6055267 23.3330115,20.8008422 23.2086448,20.9770245 C22.7295182,21.6682045 21.6947471,22.0317222 20.8616693,22.3234978 C20.6575804,22.3936534 20.4630737,22.4653956 20.2980448,22.5291734 C20.0700471,22.6216511 19.8850915,22.6662956 19.7152871,22.6662956 C19.4769293,22.6662956 19.2943693,22.5785934 19.0831093,22.4789445 C18.9810648,22.4287156 18.8694537,22.3776934 18.7331404,22.3242911 C18.3823626,22.1903578 18.0563182,22.1616578 17.6832182,22.1297689 C17.4998648,22.1170134 17.3117204,22.0994822 17.1076315,22.0715756 C16.7130182,22.0157622 16.4650782,21.8379934 16.2259271,21.6737734 C16.1908493,21.6522445 16.1597537,21.6299222 16.1238826,21.6036178 L16.0848071,21.6036178 C15.7284604,21.6036178 15.4669715,21.5270845 15.2963737,21.3724311 C14.9081382,21.9288845 14.319796,22.3529911 13.4659982,22.7013734 C12.8927915,23.0186445 12.2925026,23.1557667 11.7767115,23.2498311 C11.6316248,23.2944756 11.5160315,23.3295534 11.4115915,23.3622356 C10.9452204,23.5121134 10.4477693,23.5830622 9.93277151,23.5830622 C9.74702262,23.5830622 9.55489595,23.5718934 9.36994039,23.5551556 C8.69710039,23.5551556 8.16855373,23.4012956 7.74842928,23.0919734 C7.29720928,22.8727489 6.90099373,22.5841467 6.56936484,22.2397622 C6.09821817,21.9137022 5.57444706,21.52388 5.31774928,21.0016956 C5.01321817,20.3822734 5.16309595,20.1024445 5.35760262,19.7437022 C5.41021151,19.6472422 5.46523151,19.5420089 5.52023595,19.4176422 C5.53219817,19.3913378 5.54733373,19.3570534 5.56327817,19.3172 C5.90448928,18.5359378 6.01529151,18.1891578 6.03761373,18.0464511 C5.65096484,17.9276689 5.30816706,17.5745111 4.99646484,16.975 C4.82666039,16.6465445 4.64728928,16.3539756 4.53248928,16.2176467 C4.46472928,16.1355289 4.36666706,16.0263134 4.25745151,15.9194934 C4.18410706,15.8493378 4.08685373,15.76722 4.05894706,15.7393289 C3.70418706,15.3901534 3.26891151,15.1764978 2.84958039,14.9692356 C2.46851595,14.7810911 2.07867817,14.5873778 1.75899595,14.2963956 C1.54135817,14.1082511 1.35721151,13.8674978 1.18421817,13.5446267 C0.68197595,12.7681556 0.188507061,11.9446289 0.0466092835,11.1267022 C-0.0944951609,10.3239111 0.106404839,9.85355781 0.359913728,9.36646669 C0.43725595,9.19510669 0.522562617,9.03007781 0.620609284,8.87461558 C0.66923595,8.78453336 0.707502617,8.70162225 0.742580395,8.62350225 C0.801567061,8.49913558 0.839040395,8.40267558 0.870929284,8.31338669 C0.951444839,8.09973114 1.01284262,7.92992669 1.27591817,7.64613114 C1.60118484,7.29774892 1.86584706,7.12475558 2.21900484,6.95017558 C2.60565373,6.75884225 3.04411817,6.62490892 3.38929595,6.59222669 C3.41480706,6.59064003 3.65078484,6.55556225 3.74166039,6.57309336 C3.82058928,6.59222669 3.90031151,6.61136003 3.97922484,6.61136003 C3.99596262,6.61136003 4.01111373,6.61136003 4.02626484,6.60817114 C4.10998484,6.60019114 4.18332928,6.56592225 4.26463817,6.52046892 C4.37385373,6.46227558 4.50061595,6.45270892 4.67042039,6.45270892 L4.70470484,6.45270892 C5.07939151,6.47263558 6.40754039,7.15106003 6.78381373,7.16221336 C6.78381373,7.16221336 6.87787817,7.16938447 6.92014262,7.15902447 C6.96637373,7.14868003 7.01420706,7.10641558 7.01420706,7.10641558 C7.18559817,6.96451781 7.31953151,6.77876892 7.42316262,6.54041114 C7.43591817,6.52127781 7.44150262,6.49974892 7.45265595,6.47823558 L7.45424262,6.47584003 C7.47178928,6.43278225 7.48854262,6.38494892 7.50448706,6.34270003 L7.50528039,6.34109781 C7.51962262,6.29326447 7.53637595,6.25022225 7.54832262,6.19920003 C7.62485595,5.94727781 7.67667151,5.66746447 7.72769373,5.40040669 C7.74284484,5.32706225 7.75241151,5.24973558 7.76835595,5.17958003 L7.78430039,5.11580225 L7.79945151,5.03289114 C7.80422706,5.01854892 7.81300039,4.96034003 7.81300039,4.96034003 C7.81937817,4.94120669 7.82256706,4.91729781 7.82894484,4.89975114 L7.83213373,4.88301336 C7.83452928,4.86627558 7.84011373,4.84793558 7.84328706,4.82880225 L7.84966484,4.80648003 C7.85524928,4.78495114 7.85923151,4.76502447 7.86560928,4.74030669 L7.86960706,4.73154892 C7.87279595,4.71400225 7.87838039,4.69169558 7.88315595,4.67256225 L7.89113595,4.65582447 C7.89672039,4.63270892 7.90309817,4.61197336 7.90866706,4.58885781 L7.90866706,4.58565336 C7.91664706,4.56333114 7.92221595,4.54419781 7.93098928,4.52427114 L7.93417817,4.50355114 C7.94295151,4.48362447 7.94932928,4.46130225 7.95570706,4.43898003 L7.95730928,4.43658447 C7.96446484,4.41824447 7.97403151,4.39592225 7.98040928,4.37599558 L7.98599373,4.35765558 C7.99316484,4.33693558 8.00433373,4.31461336 8.01390039,4.29548003 L8.01390039,4.29148225 C8.02267373,4.27314225 8.03063817,4.25321558 8.03861817,4.23328892 L8.04739151,4.21494892 C8.05775151,4.19741781 8.06573151,4.17428669 8.07529817,4.15754892 C8.21161151,3.88571558 8.29769595,3.55965558 8.38938039,3.21206669 C8.57592262,2.51452447 8.76646262,1.79942003 9.38429817,1.42154447 C9.65614706,1.25572225 9.94075151,1.23100447 10.2141871,1.20630225 C10.4477693,1.18796225 10.6678026,1.16326003 10.8702893,1.06280225 C11.0376982,0.978304472 11.1811982,0.857920028 11.3318693,0.731966694 C11.5415271,0.554991139 11.7623537,0.370035583 12.0676937,0.275971139 C12.100376,0.267197805 12.1298693,0.259233361 12.1609648,0.250460028 L12.1840804,0.244875583 C12.2119871,0.236895583 12.2446693,0.229724472 12.2717671,0.224948917 L12.2885048,0.220157805 C12.3156026,0.213780028 12.3411137,0.209797805 12.3674337,0.203420028 L12.3905493,0.201024472 C12.418456,0.195440028 12.4463626,0.191457805 12.4742693,0.184286694 L12.5005737,0.181891139 C12.5221026,0.17870225 12.543616,0.174720028 12.5667471,0.173911139 L12.5922582,0.169928917 C12.616976,0.166740028 12.645676,0.165153361 12.6711871,0.161948917 C12.6791671,0.161948917 12.7046626,0.161155583 12.7046626,0.161155583 C12.7214004,0.157173361 12.7413271,0.157173361 12.7604604,0.153984472 C12.773216,0.153984472 12.7947448,0.153984472 12.8082937,0.153984472 C12.8250315,0.151588917 12.840976,0.151588917 12.859316,0.15000225 L12.9007715,0.15000225 L12.9430204,0.15000225 L12.9749093,0.15000225 L13.0155715,0.15000225 L13.0450648,0.15000225 C13.1423182,0.151588917 13.2483448,0.156380028 13.3655404,0.166740028 L13.3711248,0.166740028 C13.4117871,0.169928917 13.4532426,0.173911139 13.4962848,0.177100028 L13.5154182,0.178686694 C13.5576671,0.183477805 13.5983293,0.186666694 13.6397848,0.19144225 C13.7394337,0.201008917 13.8319115,0.204991139 13.9219937,0.204991139 C14.1898604,0.204991139 14.4011204,0.161948917 14.6912937,0.100551139 C14.9304448,0.0487666944 15.2190471,-0.00304886117 15.3848537,-1.09147259e-13" id="Path" fill="#C95665"></path>
            <path d="M15.0125626,0.183508917 C14.4497315,0.291931139 14.1707115,0.385995583 13.6222382,0.334973361 C13.1239782,0.283951139 12.6464537,0.248873361 12.1091493,0.415488917 C11.6292293,0.561368917 11.3693426,0.969546694 10.9348604,1.18958003 C10.4597315,1.43750447 9.92160262,1.26052892 9.46241817,1.54194447 C8.60541595,2.06649336 8.62773817,3.38586892 8.21319817,4.21417114 C7.75320484,5.12776447 7.95331151,6.54759781 7.08355373,7.24276003 C7.08355373,7.24276003 7.03173817,7.28342225 6.95839373,7.30016003 C6.90099373,7.31052003 6.79177817,7.31291558 6.79177817,7.31291558 C6.39158039,7.30254003 5.21251595,6.63130225 4.69274262,6.60339558 C4.42168706,6.58824447 4.28935595,6.73653558 4.03265817,6.76044447 C3.91227373,6.77161336 3.80545373,6.76044447 3.70659817,6.75167114 C3.60296706,6.74210447 3.50411151,6.73333114 3.39408706,6.74289781 C3.02896706,6.77956225 2.60006928,6.92545781 2.28357595,7.08569558 C1.93041817,7.25948225 1.68966484,7.41892669 1.38911595,7.74259114 C1.04073373,8.11808669 1.08299817,8.25760447 0.883684839,8.67852225 C0.449202617,9.60885336 0.0163226169,10.0114467 0.202071506,11.0844845 C0.360722617,12.0132289 1.00644928,12.9611067 1.52861817,13.7694667 C2.12971595,14.7085711 3.36059595,14.8050311 4.20005151,15.6229734 C4.50139373,15.9171445 4.85934262,16.2567534 5.11922928,16.5764356 C5.33926262,16.85068 6.15081151,17.6502667 6.20262706,17.93806 C6.24248039,18.1875867 5.78648484,19.2008289 5.67089151,19.4750734 C5.42136484,20.0570378 5.12321151,20.2116911 5.46600928,20.9132311 C5.87736039,21.7423267 7.05404484,22.2621 7.73246928,22.8528378 C8.64287373,23.6436667 10.0116848,23.3510822 11.1269715,23.1788978 C12.2892982,22.9995267 13.3304471,22.8273267 14.2352826,21.8993911 C14.705636,21.4178845 14.906536,20.9212111 15.6949693,21.1890778 C16.2841048,21.3851867 16.5017426,21.80612 17.1315404,21.8993911 C17.7469804,21.9870778 18.2388626,21.94962 18.7905248,22.1600711 C19.4091537,22.3984289 19.5486715,22.6455756 20.2438337,22.3657467 C21.0609671,22.0381 22.5118804,21.6889245 23.080296,20.8725845 C23.2612537,20.61668 23.2293648,20.2969978 23.3497493,20.0514689 C23.4382448,19.8768734 23.7419826,19.6098156 23.7945915,19.4750889 C23.9157693,19.1625778 23.964396,18.1971689 23.8360471,17.7618934 C23.7587204,17.4964222 23.463756,17.3864134 23.3912048,17.2006645 C23.2963315,16.9463622 23.3816382,16.6234911 23.2843848,16.3675867 C23.0531982,15.7290311 22.4792137,15.1303289 22.8953404,14.84812 C22.9623071,14.80906 23.8161204,14.8361578 24.300816,14.55076 C25.203256,14.0190245 25.4806737,12.9204756 26.2053448,12.2548067 C26.643016,11.8546089 26.9969671,11.6967667 27.2082271,11.0861022 C27.383616,10.5758956 27.537476,10.01546 27.6961115,9.47495114 C28.0596448,8.23210892 27.6148026,7.58079781 26.559296,7.01398447 C26.0729982,6.75489114 25.7828248,6.30127558 25.3044915,6.09322003 C24.887556,5.91305558 24.1525248,5.75998892 23.7284182,5.68664447 C23.1281293,5.58380669 22.5987737,5.60054447 22.0311671,5.45864669 C21.5265293,5.33348669 21.0011715,5.32312669 20.4526982,5.40522892 C19.8739226,5.49053558 19.4203226,5.76317781 19.2465204,4.98669114 C19.1373048,4.49003336 19.3437737,3.90727558 19.2465204,3.39148447 C19.0966426,2.60384447 18.6350626,1.24142669 17.8545937,0.87072225 C17.3962026,0.652291139 16.8716382,0.806151139 16.3757737,0.530320028 C15.9389115,0.283188917 15.7220671,0.171449446 15.2963582,0.171449446 C15.2102737,0.170737805 15.1161937,0.17394225 15.0125626,0.183508917" id="SVGID_1_" fill="url(#radialGradient-1)"></path>
            <path d="M15.2493337,0.150017805 C15.1759893,0.157188917 15.099456,0.166755583 15.0117693,0.183493361 C14.4489382,0.291915583 14.1731071,0.374826694 13.6238404,0.323011139 C13.5353448,0.312651139 13.2132826,0.297500028 13.0881226,0.295104472 C12.7716137,0.283951139 12.4519315,0.311857805 12.1083404,0.415488917 C11.6284204,0.561384472 11.3685337,0.969546694 10.9340515,1.18958003 C10.4589226,1.43750447 9.92080928,1.26052892 9.46162484,1.54194447 C8.60462262,2.06649336 8.62694484,3.38586892 8.21240484,4.21417114 C7.86960706,4.89818003 7.89670484,5.86119336 7.56507595,6.59382892 C7.58819151,6.86169558 7.63921373,7.11998003 7.71335151,7.37348892 C7.84011373,7.78644225 8.63811373,7.75534669 8.49301151,8.54936447 L8.52331373,8.67852225 C9.16267817,10.8006889 12.9533804,10.2753311 14.0351915,9.44542669 C14.5828715,9.02051114 15.6327937,8.67931558 16.0553137,8.14837336 C16.4236226,7.67881336 17.6202337,7.30333336 17.9223693,6.80109114 C18.3911204,6.01824225 18.9978026,4.96513114 18.9419893,4.24923336 C18.7666004,2.03300225 17.4249026,1.01178003 16.387736,0.53584225 C15.8950604,0.311033361 15.7483715,0.149193361 15.310716,0.149193361 C15.2915826,0.149193361 15.2700537,0.149193361 15.2493337,0.150017805" id="SVGID_4_" fill="url(#radialGradient-2)"></path>
            <path d="M15.6272093,0.422660028 C15.5522782,0.430640028 15.4701604,0.44498225 15.378476,0.459324472 C14.7989071,0.566144472 14.504736,0.668188917 13.9347337,0.613184472 C13.8414626,0.603617805 13.4859093,0.584484472 13.3814693,0.573331139 C13.0562026,0.562971139 12.7221782,0.587673361 12.3666248,0.696095583 C11.8675871,0.845973361 11.5957382,1.26132225 11.1461204,1.49171558 C10.6494626,1.74522447 10.0914071,1.56345781 9.61469151,1.85125114 C9.13556484,2.14064669 8.57273373,3.17700447 8.39655151,4.48203781 C8.33915151,4.91731336 8.63890706,5.32787114 8.58071373,5.82294225 C8.32639595,7.94588669 8.92988928,7.46438003 9.38190262,8.32457114 C10.2285293,9.92775781 10.1432382,10.4172289 9.72151151,10.3303356 C10.1910715,10.8947534 10.621556,11.6162356 10.2739826,12.0738178 C11.7201204,12.3839334 13.5576671,11.9909067 14.2616026,11.4480178 C14.8379826,11.0063645 15.6312071,10.5742778 16.0712582,10.0186334 C16.453116,9.53074892 17.162636,7.98496225 17.4751315,7.46756892 C17.9693937,6.66319114 18.5043182,6.49816225 18.8885715,4.99464003 C19.5327115,2.48902892 18.2611693,1.41678447 16.9130937,0.849971139 C16.4913671,0.673788917 15.9460826,0.421073361 15.6686493,0.421073361 C15.6535137,0.421073361 15.6399648,0.421073361 15.6272093,0.422660028" id="SVGID_7_" fill="url(#radialGradient-3)"></path>
            <path d="M13.4811337,13.7487467 C12.5882604,13.9815356 10.9858826,13.7670867 10.2046204,14.3020111 C9.51583595,14.7715711 8.86850706,15.4316556 8.53925817,16.1834089 C7.72531373,17.0706978 6.84598928,17.85196 6.35412262,18.5415378 C5.80723595,19.3060622 5.70838039,20.5162222 6.05755595,21.2169534 C7.03811595,23.1693156 9.49670262,23.7847556 11.3709293,23.1924311 C13.1901515,22.78346 15.4215337,22.26448 15.6734404,19.8433667 C15.8002026,18.6451689 16.1358137,17.4102911 15.7372182,16.3021756 C15.4438404,15.49142 15.3720982,13.689707 13.9562626,13.689707 C13.8127626,13.6889667 13.6541271,13.7081 13.4811337,13.7487467" id="SVGID_10_" fill="url(#radialGradient-4)"></path>
            <path d="M0.195693728,10.7767645 C0.178162617,11.65528 0.885271506,12.6039667 1.26952484,13.3549267 C1.82677151,14.4431156 2.33378928,14.4893467 3.32312262,15.0226845 C4.15061595,15.4675267 4.67119817,15.9889022 5.13994928,16.8873445 C6.34931595,19.2135845 7.66550262,17.0451867 8.72020039,16.1945778 C9.49667151,15.5600045 9.97500484,14.1497378 9.74780039,13.1357022 C9.59473373,12.4636556 9.04626039,11.4838889 8.48422262,11.06616 L8.83738039,11.3029311 C8.38934928,10.86288 8.72975151,10.3096156 8.53364262,9.77946669 C8.35904706,9.30592447 8.07844039,8.73273336 7.82651817,8.21056447 C7.45267151,7.42930225 7.02296484,7.62622003 6.64110706,7.82153558 C6.43701817,7.92597558 6.24409817,8.03040003 6.08067151,7.98575558 C5.58242706,7.85659781 4.86573595,7.69477336 4.39696928,7.50823114 C4.07649373,7.38307114 3.75124262,7.32567114 3.43395595,7.32567114 C1.75184039,7.32567114 0.238751506,8.94876892 0.195693728,10.7767645" id="SVGID_13_" fill="url(#radialGradient-5)"></path>
            <path d="M19.9384937,5.69936892 C19.4346648,5.78786447 18.9061182,6.15457114 18.5481693,6.40330447 C18.1479715,6.71900447 17.9080115,7.50902447 17.5022293,7.74898447 C16.5750715,8.18186447 16.5455782,8.40588003 16.0385604,9.21186003 C15.6224182,9.87434003 15.0978537,10.80548 14.6880893,11.5253445 C14.6809182,11.8051578 14.7048271,12.0849867 14.7574515,12.3552334 C14.8395693,12.8064534 15.3585493,13.52792 15.3449848,13.9249289 L15.3657048,13.76788 C15.7898115,16.0678156 20.4773848,16.7637711 19.6124182,15.6413134 C17.3866204,12.7466578 20.8544671,11.3276334 21.2913293,11.8689356 C24.0137848,15.2562667 25.1123337,13.2640511 25.3738226,12.9172556 C25.9350515,12.1591089 26.3703271,11.3882222 26.5082426,10.6436245 C27.3763982,5.83328669 24.6810404,6.50931558 23.1623671,5.84923114 C23.0890226,5.84604225 23.0093004,5.84683558 22.9160293,5.85162669 C22.3332715,5.88591114 22.0359115,5.94888003 21.4818537,5.81894447 C21.3933582,5.79741558 21.3040693,5.77828225 21.217176,5.75516669 C21.1350582,5.74878892 21.0457693,5.73284447 20.9461204,5.70893558 C20.7691448,5.67944225 20.5881715,5.66030892 20.400836,5.66030892 C20.2517982,5.66030892 20.0987315,5.67146225 19.9384937,5.69936892" id="SVGID_16_" fill="url(#radialGradient-6)"></path>
            <path d="M18.5130915,6.39532447 C18.3719871,6.54759781 18.2260915,6.69508003 18.1519537,6.82024003 C17.952656,7.14948892 17.856196,7.32886003 17.4775115,7.54170669 C17.2176248,7.68679336 17.0183271,7.75217336 16.8293893,7.96820892 C16.6468293,8.17628003 16.5081204,8.39869336 16.348676,8.62351781 C16.0393537,9.05879336 15.4422537,9.16323336 14.906536,9.17199114 C14.7765848,9.17678225 14.6506315,9.16959558 14.5286604,9.16482003 C13.7912493,9.64553336 13.0139693,9.92136447 12.303656,9.74597558 C11.8675871,9.63834669 11.3190982,8.86027336 10.9069537,8.92006892 C10.4924137,8.98305336 11.1445182,9.19670892 10.8160782,9.55146892 C10.4493715,9.94289336 10.0069093,9.62002225 9.69600039,9.29716669 C9.48474039,9.07713336 9.33406928,8.85470447 9.31174706,8.86108225 C9.22325151,8.89057558 9.32689817,9.11857336 9.31733151,9.22780447 C9.30059373,9.45659558 9.09172928,9.59532003 9.06780484,9.83128225 C9.04467373,10.0616756 9.07656262,10.1916111 9.10526262,10.3135822 C9.14034039,10.4531 9.20810039,10.6324711 9.20013595,10.8748111 C9.18977595,11.28218 9.19215595,11.1498489 9.17541817,11.5580111 C9.14113373,12.3655778 8.80552262,12.7036 8.60700262,13.4999978 C8.39255373,14.3713422 9.29420039,14.8305267 8.20999373,16.4568289 C7.84806262,16.9981311 6.22655151,17.7538822 6.32778706,18.39404 C6.78538484,18.3143178 7.04208262,17.8041111 7.36814262,17.47088 C8.14861151,16.6872222 10.2755537,15.8597289 11.5247737,15.8015356 C12.8289982,15.7409467 11.5797782,17.1870845 11.9441048,17.47088 C12.2972626,17.7451245 11.5869493,18.5056511 11.9887493,18.3151267 C12.4056848,18.1142267 12.9724982,16.2208667 13.200496,15.7560978 C13.3503737,15.4515667 15.4127448,10.6699289 15.4677493,17.8854356 C15.4733337,18.5710311 15.8807026,18.9034689 15.688576,19.56514 C15.5977004,19.8768422 14.3867471,21.61236 16.3781537,21.4170445 C16.6436248,19.9111267 15.5068093,18.8436578 16.0951515,18.1094356 C16.4068537,17.7180111 17.5070048,17.6478556 17.4870782,17.1384422 C17.4416404,16.0215534 17.9598271,16.0470645 18.4357493,16.0717822 C18.7291271,16.08852 19.0073382,16.1036711 19.1309115,15.8517489 C19.3222448,15.4619111 19.415516,15.3184111 19.4561782,15.2697845 C19.4386471,15.2673889 19.4107404,15.2339134 19.4003804,15.1023756 C19.3501515,14.6081134 19.7925982,14.6017356 19.5845426,14.1329689 C20.0604804,14.2461667 20.1880204,13.7766222 20.5810471,13.6705956 C20.8465182,13.5972511 21.3870271,13.6283467 21.6620648,13.6713889 C22.3165648,13.7766222 22.639436,14.84168 22.7749715,14.7771089 C22.926436,14.5467156 22.5597293,13.9791089 22.2161382,13.6658045 C21.9395137,13.4106934 21.6086626,12.8949022 21.3846471,12.5999378 C21.0506226,12.1662489 21.2666582,11.57632 20.7779804,11.3267934 C20.6281026,11.2494667 20.5085271,11.2757711 20.3634404,11.3028845 C20.1458026,11.3435467 19.8787448,11.3826067 19.3828804,11.0812645 C16.7975471,12.9140356 18.9842848,10.1509334 18.8288226,9.47330225 C18.5139315,8.58203114 17.8147715,8.32214447 18.5490093,6.40246447 C18.5521982,6.39289781 18.5466137,6.38493336 18.5362537,6.38493336 C18.529036,6.38493336 18.5218648,6.38974003 18.5130915,6.39532447" id="SVGID_19_" fill="url(#radialGradient-7)"></path>
            <path d="M10.3329693,15.6189911 C10.0627226,15.4236756 10.3329693,14.73808 10.6558404,14.3944889 C10.976316,14.0516911 11.4697848,13.4928422 11.3406426,13.4282711 C11.2122937,13.3629067 10.6558404,13.4928422 10.4828471,13.4282711 C10.3122493,13.3629067 11.4474626,12.9132734 11.5758115,12.8494956 C11.7057626,12.7841311 10.7618671,12.5266245 10.418276,12.4843756 C10.0762715,12.4421267 9.36756039,12.5481534 9.43133817,12.3974822 C9.49751151,12.2492067 9.90488039,12.0554778 9.99018706,11.9693778 C10.0754937,11.8840711 9.45366039,11.5620089 9.41061817,11.4105445 C9.36676706,11.2606667 9.53976039,11.1099956 10.1815204,11.2606667 C10.8256604,11.4105445 11.3621871,11.3459734 11.6412071,11.4105445 C11.9178315,11.4759089 12.0693115,11.5396867 12.1761315,11.6042578 C12.2845537,11.6696222 12.3610871,11.4352467 12.4495671,11.4711178 C12.538856,11.5069889 12.7413426,11.6385267 12.7596826,11.5069889 C12.7772137,11.3738489 12.6703937,11.1346978 12.4942115,10.9752534 C12.317236,10.8174111 12.0334248,10.4977289 11.9991404,10.3845311 C11.9640626,10.2697311 11.8229582,9.99548669 11.9824026,9.93251781 C12.1418471,9.87113558 12.2813493,9.92534669 12.3722404,9.88866669 C12.4599271,9.85279558 12.6193715,9.61362892 12.8473693,9.71327781 C13.0777626,9.80973781 13.1837893,9.89823336 13.2547382,9.95323781 C13.3248937,10.00426 13.4580182,10.0385445 13.5632515,10.00426 C13.6700715,9.96838892 13.8470626,9.75552669 14.0495493,9.87910003 C14.2528293,10.00426 14.6163626,10.2944489 14.943216,10.2242934 C15.269276,10.1541378 15.4558182,9.99469336 15.5530715,9.79937781 C15.6503248,9.60564892 15.9245693,8.99500003 16.0393693,8.88020003 C16.153376,8.76460669 16.4459448,8.53581558 16.4020937,8.62350225 C16.3590515,8.71118892 16.0664671,9.35772447 16.0840137,9.68457781 C16.1015448,10.0122245 16.0321982,10.0911534 16.1366226,10.1716689 C16.2434426,10.2505978 16.3765826,10.2242778 16.4897804,10.1716689 C16.6053737,10.11906 16.791916,9.98671336 16.8174271,10.0664356 C16.8445404,10.1429689 16.1637204,10.6037556 15.9612337,10.7998645 C15.7563515,10.9927845 15.5618293,11.3913956 15.6606848,11.5500311 C15.7563515,11.7094756 16.1461893,11.6377178 16.340696,11.6377178 C16.5368048,11.6377178 16.9505515,11.6656245 16.898736,11.7620845 C16.8461271,11.8577511 16.1469671,12.3272956 16.1469671,12.4070178 C16.1469671,12.4875334 16.5694871,12.6374111 16.8118426,12.6453756 C17.0494071,12.6557356 17.6146337,12.7442311 17.8362537,12.7952534 C18.0562871,12.8494645 18.2412271,12.8406911 18.2858715,12.9634711 C18.3297226,13.0862356 18.4006715,13.1938645 18.3209493,13.2018289 C18.2412271,13.2121889 17.764496,13.1404467 17.6050515,13.0790645 C17.4456071,13.01608 16.6244915,12.83114 16.4387426,12.8407067 C16.2529937,12.84948 15.7061071,12.8319334 15.6096471,13.0160956 C15.5107915,13.2018445 15.9173671,13.3270045 16.0050537,13.4067267 C16.095136,13.4872422 16.4227982,13.8308334 16.2187093,13.86672 C16.0154293,13.9025911 15.8472115,13.7503334 15.7690915,13.7256156 C15.6901626,13.6985178 15.370496,13.4776911 15.2899648,13.4147067 C15.211036,13.3541178 14.8658582,12.98262 14.6984337,12.9993578 C14.5310248,13.0160956 14.1842293,13.0798734 13.990516,13.2026378 C13.7952004,13.3277978 13.5847337,13.5661711 13.4683471,13.6985022 C13.3543404,13.8308334 12.884796,14.1321756 12.6910671,14.29162 C12.4965448,14.4486689 11.4259026,15.2984845 11.2329826,15.4411911 C11.0353026,15.58312 10.5545893,15.77604 10.3329693,15.6189911" id="Path" fill="#FFFFFF"></path>
            <path d="M13.4221315,9.27801781 C13.3448048,9.16163114 13.3742982,8.88580003 13.4388693,8.71439336 C13.495476,8.56451558 13.9538671,7.72426669 14.4282026,7.88529781 C14.6211226,7.94986892 14.7462826,8.03038447 14.802096,8.23447336 C14.8969693,8.57168669 14.9097248,9.08428892 14.648236,9.34258892 C14.2767382,9.71727558 13.6333915,9.59292447 13.4221315,9.27801781" id="Path" fill="#9F2032"></path>
            <path d="M11.1995226,10.29924 C11.3326626,10.2753156 11.5088448,10.1110956 11.5383382,9.97876447 C11.5805871,9.80178892 11.9313648,9.78584447 11.9465004,9.71727558 C11.9640315,9.64553336 11.5869648,8.72077114 11.382876,8.63786003 C11.1349515,8.53422892 11.0632093,8.70324003 10.8415737,8.68410669 C10.670976,8.66816225 10.5195115,8.60119558 10.4166737,8.78694447 C10.2588315,9.07234225 9.96624706,9.44065114 10.199036,9.75316225 C10.4350137,10.0664667 10.7746226,10.3813578 11.1995226,10.29924" id="Path" fill="#9F2032"></path>
            <path d="M16.5081204,11.0406489 C16.445136,11.1108045 16.3064271,11.1650156 16.2187404,11.0717445 C16.500156,10.7361178 16.7329448,10.6117511 17.0773293,10.3534667 C17.1993004,10.2203267 17.1004448,9.65909781 17.165016,9.47414225 C17.2303804,9.28760003 17.8067604,8.89217781 18.0586826,9.02531781 C18.1910137,9.09388669 18.3129848,9.13374003 18.3879315,9.24854003 C18.5282426,9.45740447 18.5194693,9.81614669 18.5242604,9.97878003 C18.5322404,10.2091734 18.4070648,10.3726 18.3400982,10.5934267 C18.2763204,10.8046867 17.895256,10.7720045 17.7222626,10.7887422 C17.4934715,10.8094622 17.2758337,10.6348822 17.0597826,10.7680222 C16.9394137,10.8405422 16.6061826,10.9314334 16.5081204,11.0406489" id="Path" fill="#9F2032"></path>
            <path d="M13.9323537,11.8290822 C14.0064915,11.6871845 13.9283715,11.4838889 13.9506937,11.33482 C13.9690337,11.2168311 14.0104893,11.0342711 13.8821404,10.9609267 C13.8215515,11.2391534 13.7761137,11.5572334 13.8797448,11.8266867 C13.8924848,11.8609711 13.9291648,11.8314778 13.9323537,11.8290822" id="Path" fill="#9F2032"></path>
            <path d="M8.70268484,12.58404 C9.00163151,12.15116 9.33646484,12.0028845 9.73028484,11.9287311 C9.73745595,11.8753134 9.62346484,11.83546 9.58040706,11.83546 C9.31095373,11.7804556 9.10446928,11.6194245 8.93387151,11.41294 C8.59984706,11.00876 8.40453151,10.6819067 7.85445595,10.8509022 C7.27249151,11.0286867 7.24937595,11.9861156 7.41359595,12.4509 C7.60732484,13.0097489 8.36307595,13.0767 8.70268484,12.58404" id="Path" fill="#9F2032"></path>
            <path d="M20.2167204,11.8657467 C20.8170248,11.6385422 21.3017204,11.9351089 21.006756,12.4333534 C20.8560848,12.6884645 20.9055048,12.9850156 20.7333204,13.2417134 C20.6001804,13.4458022 20.2677582,13.5582067 20.0190248,13.4697111 C19.7926137,13.3899889 19.4761204,13.2496778 19.3174848,13.0830622 C19.1325293,12.8925222 19.0799204,12.7394711 18.7777693,12.6613356 C18.289076,12.53378 17.7557537,12.6565445 17.279816,12.4755867 C17.8235137,12.2005489 18.4453315,12.4995111 19.0153337,12.4604356 C19.2616715,12.4429356 19.4346648,12.00766 20.2167204,11.8657467" id="Path" fill="#9F2032"></path>
            <path d="M17.261476,12.4604667 C17.1115982,12.3799511 16.943396,12.37516 16.8333715,12.4453156 C16.9362248,12.46924 17.1642226,12.5019222 17.261476,12.4604667" id="Path" fill="#9F2032"></path>
            <path d="M9.90088262,14.1991734 C9.35639151,13.5502422 8.20123595,14.7875156 8.11753151,14.8680311 C8.03541373,14.9525289 7.81698262,15.1127667 7.79307373,15.1996756 C7.72531373,15.4563734 8.32082706,15.8007734 8.50736928,15.9068 C8.75131151,16.0503 8.96177817,16.4138178 9.29659595,16.1587222 C9.62584484,15.9123845 9.65694039,15.6740267 9.74302484,15.2889645 C9.82035151,14.9493556 9.96066262,14.5985778 10.2237382,14.3570311 C10.4852271,14.1138822 10.8057026,13.9321156 11.0233404,13.6411334 C10.496396,13.5996778 10.2835337,14.0301622 9.90088262,14.1991734" id="Path" fill="#9F2032"></path>
            <path d="M18.0395493,11.3818445 C17.9359182,10.9641156 17.1969048,11.4025645 17.0135515,11.3643134 C17.2232093,11.4169222 17.5285493,11.4033734 17.8059671,11.4448289 C17.8880848,11.4607734 18.0578893,11.4711334 18.0395493,11.3818445" id="Path" fill="#9F2032"></path>
            <path d="M14.8642871,13.7814289 C15.0739448,13.8962289 15.1449093,14.1848156 15.3593582,14.3131645 C15.5427115,14.4199845 15.808976,14.5579 15.989156,14.6958156 C16.0848226,14.7699534 16.1916426,15.1183356 16.0298182,15.1956622 C15.7906515,15.3128578 15.7037582,14.8528645 15.584976,15.2387045 C15.4630048,15.6221645 14.9966337,15.8031222 14.9057582,16.21368 C14.8435826,16.4998711 14.6458715,16.8905022 14.8276382,17.16554 C14.883436,17.2524334 14.9751204,17.2907 15.0715804,17.3034556 C15.2932004,17.3313622 15.324296,17.3162111 15.5132337,17.4365956 C15.7476093,17.5864734 15.9413382,17.6510445 16.1956404,17.5362445 C16.4443737,17.4214445 16.6420693,17.2476578 16.6970893,16.9678289 C16.6668026,16.6656934 16.5591737,16.36992 16.5671382,16.0630089 C16.5751026,15.7560978 16.7138271,15.5735222 16.5535893,15.2681978 C16.4268271,15.0234622 16.3144226,14.8959067 16.0983871,14.7316711 C15.9333582,14.6057178 15.8759737,14.3729289 15.7555893,14.2039178 C15.5570848,13.9256911 15.2031182,13.6036289 15.0779582,13.4688867 C14.9504026,13.3333667 14.8124871,13.2456645 14.6028293,13.2472451 C14.390776,13.2472451 14.0846426,13.4784534 13.9339715,13.6618067 C13.738656,13.8961822 13.469996,14.0285134 13.2651137,14.2238289 C13.0442871,14.4374845 13.0929137,14.7627356 12.979716,15.029 C12.8856515,15.2554111 12.7030915,15.5224689 12.6807693,15.7719956 C12.8322337,15.6874822 12.9374671,15.4507267 13.0291515,15.3120022 C13.0977204,15.2091645 13.1646715,15.1039311 13.245996,15.01066 C13.3273048,14.9078222 13.4532737,14.9046334 13.5457515,14.8185334 C13.8112226,14.5642311 13.8391293,14.2429467 14.0121226,13.9559622 C14.1611448,13.7152711 14.648236,13.6706267 14.8642871,13.7814289" id="Path" fill="#9F2032"></path>
            <path d="M19.8579782,16.3667778 C19.8412404,16.2041445 19.786236,16.0399245 19.8236937,15.8764978 C19.8715271,15.66922 19.8037671,15.505 19.7057048,15.3104778 C19.5909048,15.0912534 19.2425226,14.5730667 18.9324226,14.7141711 C18.8256026,14.7620045 18.7195604,14.8935422 18.5888315,14.8186111 C18.432576,14.7285289 18.383156,14.5898045 18.190236,14.5220445 C18.0132604,14.4622489 17.8259093,14.4343578 17.6457448,14.3865245 C17.5269626,14.3570311 17.4201426,14.3251422 17.2694715,14.3115934 C17.3866671,14.5619134 17.8012071,14.7173756 18.0036937,14.8863711 C18.4469337,15.2530778 18.2348804,15.6724089 18.2061804,16.1419689 C18.1974071,16.2878645 18.1535715,16.4871622 18.2516182,16.6274734 C18.3488715,16.7677845 18.7163871,16.7940889 18.8032804,16.8459045 C18.8519071,16.877 19.3023337,17.0324467 19.496856,16.9240245 C19.6897604,16.8163956 19.8731293,16.4919378 19.8579782,16.3667778" id="Path" fill="#9F2032"></path>
            <path d="M14.9336337,20.6525511 C15.0675671,20.6254534 15.2461448,20.7657489 15.5379204,20.87736 C15.8289026,20.9897645 16.0648804,21.0551289 16.299256,21.0678845 C16.5344248,21.0782445 16.9713026,21.3476978 17.0494226,21.50316 C17.1275426,21.6610022 17.1737893,22.0867111 17.0382693,22.3330489 C16.9035426,22.5793867 16.6683582,22.9054467 16.7919315,23.4411645 C16.914696,23.9792778 17.1387115,24.1809711 16.7464937,24.1466867 C16.3558626,24.1132111 16.0640871,23.9792778 15.8392782,23.9138978 C15.6152626,23.8469311 15.2908048,23.8094578 15.0444671,23.5097178 C14.7981293,23.2051867 14.6418737,23.2609845 14.2376937,23.0154556 C13.8343071,22.7715134 13.587176,22.2549289 13.7888693,22.0317067 C13.991356,21.8084845 14.606796,21.2576156 14.6849315,21.1340578 C14.7638293,21.0112934 14.8762337,20.6645134 14.9336337,20.6525511" id="Path" fill="#9F2032"></path>
            <path d="M22.9264204,17.4836667 C22.9264204,17.3585067 23.2174026,17.1671734 23.236536,17.0858645 C23.2540826,17.0053489 23.2636493,16.5278245 23.2110248,16.3253222 C23.1576071,16.1220422 23.1233382,15.9004067 23.2716137,15.8031534 C23.4222848,15.7059 23.8392204,15.57276 24.0855582,15.67958 C24.3342915,15.7864 24.535176,15.8844622 24.7663782,15.9713556 C24.9951693,16.0606445 25.5970604,16.3715534 25.7022937,16.5899845 C25.8091137,16.8123978 25.9510271,17.0515645 25.7907893,17.2867489 C25.6329471,17.5282956 25.6337404,17.6949111 25.5085804,17.8017467 C25.3953826,17.9013956 25.0828715,18.1286 24.9154626,18.3414622 C24.7464515,18.5551178 24.6236871,19.0047356 24.4203915,19.1011956 C24.2186982,19.1992422 23.810536,19.3244178 23.6941337,19.1817111 C23.5801271,19.0398134 23.5187448,18.7312845 23.5450648,18.6077267 C23.5721626,18.4841534 23.8543715,18.25376 23.7842315,18.05048 C23.7132826,17.8472 23.5084004,17.8200867 23.2883671,17.7403645 C23.0675248,17.6606422 22.9264204,17.6080178 22.9264204,17.4836667" id="Path" fill="#9F2032"></path>
            <path d="M4.11236484,19.2861356 C4.00394262,19.1681467 3.89632928,19.0701 3.94973151,18.9536978 C4.00394262,18.8341222 4.13946262,18.5829934 4.16576706,18.3844889 C4.19207151,18.1875711 4.18410706,17.7172334 4.16576706,17.5825067 C4.14902928,17.4469867 4.23831817,17.2405022 4.27577595,17.1145489 C4.31006039,16.9869934 4.26620928,16.7526178 4.50058484,16.6721022 C4.73496039,16.5891911 4.97731595,16.6170978 5.18459373,16.6529689 C5.39345817,16.68884 5.80801373,16.7980556 5.92360706,17.0228645 C6.04238928,17.2484667 6.11333817,17.5107489 6.24966706,17.5992445 C6.38439373,17.6893267 6.79894928,17.8710934 6.80851595,17.9348711 C6.81728928,17.99546 6.72720706,18.0775778 6.58051817,18.3310867 C6.43862039,18.5822 6.44658484,19.2327334 6.42905373,19.3586867 C6.41152262,19.48464 6.42028039,19.9629734 6.25764706,20.0697934 C6.09422039,20.1798022 5.83354039,20.0697934 5.59914928,19.9534067 C5.36636039,19.8346245 5.02914706,19.7070689 4.89600706,19.5843045 C4.77722484,19.4742956 4.77962039,19.3323822 4.69750262,19.2957178 C4.61620928,19.2590378 4.22078706,19.4041245 4.11236484,19.2861356" id="Path" fill="#9F2032"></path>
            <path d="M12.8768471,16.9335911 C12.9709115,17.03324 13.0020071,17.3457511 12.9988182,17.43742 C12.9892515,17.6239622 12.9741004,17.8798667 12.8784337,18.0018378 C12.7851626,18.1222067 12.459896,18.2975956 12.3642293,18.3334822 C12.2661671,18.3661645 11.9720115,18.4682089 11.8093782,18.3231222 C11.737636,18.26174 11.4904893,18.0911422 11.4131626,17.9388689 C11.3350426,17.7834222 11.2489426,17.2038378 11.5447004,16.8746045 C11.6858048,16.7167622 11.940916,16.7016111 12.105136,16.5652822 C12.2526182,16.4409156 12.3889471,16.3014134 12.548376,16.1945778 C12.5603382,16.3548156 12.4327826,16.5509245 12.5436004,16.69682 C12.6217515,16.7988645 12.7843693,16.8339422 12.8768471,16.9335911" id="Path" fill="#9F2032"></path>
            <path d="M16.5567471,13.2744111 C16.3510715,13.2473134 16.2601804,13.1779511 16.0393537,13.1843289 C16.168496,13.37406 16.4961582,13.3437734 16.7018337,13.4203067 C16.7975004,13.4553845 16.8628648,13.5231445 16.9322271,13.5630134 C17.1546404,13.6913622 17.5699893,13.84124 17.626596,13.9121889 C17.6823937,13.9799489 18.0889693,14.1569245 18.307416,14.0700311 C18.4014804,14.0373489 18.565716,13.9998756 18.5242604,13.8818867 C18.3488715,13.5239378 17.8482315,13.6522867 17.5811582,13.4816889 C17.4918693,13.4298734 17.4926626,13.3605111 17.3635204,13.3373956 C17.2359648,13.3126778 17.0845004,13.3294156 16.9896271,13.2903556 C16.896356,13.2496934 16.7002471,13.2911489 16.5567471,13.2744111" id="Path" fill="#9F2032"></path>
            <path d="M14.1412182,10.0632622 C14.1412182,10.0632622 14.1444071,10.1182667 14.1101226,10.2713334 C14.079836,10.4227978 14.0104737,10.7544422 14.1483893,11.0175178 C14.1483893,11.0175178 14.2249226,10.9314178 14.2041871,10.6946467 C14.186656,10.4562889 14.2249071,10.4291756 14.2265093,10.3526422 C14.2281115,10.2713334 14.1412182,10.0632622 14.1412182,10.0632622" id="Path" fill="#9F2032"></path>
            <path d="M13.2324004,12.8606645 C13.323276,12.9722756 13.198116,13.1484578 13.1263737,13.2473134 C13.044256,13.3541334 12.9111315,13.4155311 12.6472471,13.6945511 C12.381776,13.97676 12.1003604,14.2964422 12.027016,14.3921089 C11.9576537,14.4893622 11.787056,14.7476622 11.7232782,14.6902622 C11.6611026,14.6336556 11.8524204,14.2725334 11.9002537,14.1928111 C11.9496737,14.1130889 12.2295026,13.7288356 12.3259626,13.6714356 C12.423216,13.6156378 12.921476,13.1986867 12.9039293,13.1420956 C12.8887782,13.0862978 12.7197671,13.10064 12.6392515,13.1173778 C12.5603226,13.1341156 12.183256,13.2696511 12.0764204,13.2951467 C11.9735826,13.3190711 11.8444404,13.2536911 11.9966982,13.1261356 C12.1489715,12.9977867 12.1896182,12.9738622 12.2693404,12.9571245 C12.349856,12.9403867 12.5738715,12.9340089 12.6217048,12.8861756 C12.6703315,12.8383422 12.6775026,12.6852756 12.6304782,12.6533867 C12.5834382,12.6207045 12.5109026,12.64382 12.446316,12.64382 C12.3817293,12.64382 11.6188226,12.5090934 11.4912671,12.4843756 C11.361316,12.4596578 10.6326782,12.26834 10.5043293,12.2436222 C10.3751871,12.2189045 10.360036,12.1296156 10.5689004,12.1296156 C10.7777648,12.1296156 11.1556404,12.2021667 11.2919693,12.2021667 C11.4274893,12.2021667 11.588536,12.1790511 11.7328293,12.1862222 C11.8763293,12.1957889 12.2853004,12.2675311 12.4040826,12.2276778 C12.5260537,12.1862222 12.6958582,12.1136711 12.7197826,12.0347578 C12.7437071,11.9542422 12.7604448,11.8577822 12.6878937,11.7860245 C12.6161515,11.71268 12.2924871,11.4958356 12.2047848,11.3276334 C12.1194782,11.1594156 12.0286026,10.9912134 11.9417093,10.9417934 C11.8532137,10.89396 11.700956,10.8692422 11.6371782,10.7799689 C11.5726071,10.6930756 11.5399248,10.4515134 11.6523293,10.4993467 C11.766336,10.5487667 12.0716604,10.7098134 12.1194937,10.7743845 C12.1673271,10.8381622 12.2478426,10.9991934 12.3435093,11.1100111 C12.4407626,11.2216222 12.6488337,11.4145422 12.7445004,11.4719422 C12.8409604,11.52774 13.0346893,11.67124 13.0904871,11.7916245 C13.3950182,11.8091556 13.458796,11.7916245 13.659696,11.8019845 C13.8597871,11.8099645 14.1722982,11.8402511 14.2368693,11.8729334 C14.3014404,11.9064089 14.5174915,12.0100556 14.5900271,11.9367111 C14.6617693,11.8649689 14.8626693,11.4408467 14.9423915,11.3356134 C15.0229071,11.23038 15.3920093,10.7751778 15.4653537,10.6532067 C15.5363026,10.5352178 15.9691826,10.1884378 16.0098448,10.2147422 C16.0496982,10.2370645 16.1381937,10.2928622 15.9763693,10.4379645 C15.8177337,10.5806711 15.3609293,11.0310822 15.294756,11.1426934 C15.2301848,11.2574934 14.9734871,11.6728422 14.9264471,11.7621156 C14.8786137,11.8498022 14.7430937,11.9454689 14.7829471,12.0020756 C14.8228004,12.05708 15.0882715,12.1296311 15.1440848,12.1862378 C15.1998826,12.2428445 15.3696871,12.5473756 15.2485248,12.6286845 C15.1289493,12.7084067 14.9830537,12.6342689 14.8786293,12.5226578 C14.7741893,12.41184 14.7191848,12.2914711 14.6067804,12.2181267 C14.4935826,12.1455756 14.3564604,12.1065156 14.1491826,12.0347734 C13.9395248,11.9622222 13.4747404,11.9454845 13.3463915,11.9773734 C13.2172493,12.0108489 12.9605515,12.0993445 12.9549671,12.2428445 C12.9430204,12.3871222 12.9900604,12.5664934 13.2324004,12.8606645" id="Path" fill="#9F2032"></path>
            <path d="M13.5927448,11.5620089 C13.521796,11.5620089 13.281836,11.3435778 13.1997182,11.18572 C13.1176004,11.0230867 12.9517937,10.7193489 12.8951871,10.6468134 C12.8385804,10.5750711 12.8075004,10.4156267 12.7492915,10.367 C12.6950804,10.3183734 12.4375893,10.0130334 12.5093315,9.97318003 C12.582676,9.93251781 12.8457515,10.1979889 12.8776404,10.27054 C12.911116,10.3430911 13.1670204,10.6954556 13.2324004,10.7823489 C13.2961782,10.8716378 13.4890982,11.1761689 13.5369315,11.2646645 C13.5855582,11.3531445 13.6652804,11.5620089 13.5927448,11.5620089" id="Path" fill="#9F2032"></path>
        </g>
    </g>
</svg>