<?xml version="1.0" encoding="UTF-8"?>
<svg width="28px" height="28px" viewBox="0 0 28 28" version="1.1" xmlns="http://www.w3.org/2000/svg" xmlns:xlink="http://www.w3.org/1999/xlink">
    <title>CK</title>
    <g id="CK" stroke="none" stroke-width="1" fill="none" fill-rule="evenodd">
        <path d="M22.8362997,3.16140838 C9.4942954,11.4386662 0.994832255,16.7967756 0.419565106,17.2925467 C0.131412525,17.5410556 0,17.9092477 0,18.4688082 C0,19.1235336 0.125392046,19.3892885 0.638793583,19.8214779 C0.990057393,20.1173614 1.35211654,20.359429 1.44325414,20.359429 C1.53439174,20.359429 2.7129524,20.8826275 4.06237011,21.5219769 C11.4586324,25.0270743 18.10275,28.0752562 18.1793554,27.9985841 C18.2138174,27.9640921 17.0281983,26.5349581 15.5444616,24.8228233 C12.8263191,21.6867491 12.2485607,20.8138512 12.2485607,19.8437107 L12.2485607,19.3146943 C12.3869626,18.9750378 12.4561635,18.7683626 12.4561635,18.6946688 C12.4561635,18.4918722 13.7954086,16.8640974 18.3657826,11.5118059 C25.8579573,2.73753033 28.1538359,-0.00791115786 27.9921133,1.7112202e-05 C27.9539144,0.00206244325 27.6423028,0.178054946 27.2997583,0.391032886 C26.9572138,0.60421861 24.9486574,1.85071097 22.8362997,3.16140838 Z" id="Path" fill="#FE0002"></path>
        <path d="M12.7101895,19.6062937 L13.027071,19.8065679 L13.027071,19.8065679 C14.4090823,20.6800891 21.8306721,24.5519242 21.9307366,24.4515648 C21.9842981,24.3981645 21.4520047,23.530669 20.7482315,22.5237508 C19.220483,20.3380777 18.9944037,19.8832399 19.2321088,19.4724522 C19.3305125,19.3026932 21.185858,17.083567 23.3553065,14.5413376 C27.1513223,10.0929037 28.0622831,8.94843302 27.3884046,9.47391712 C27.2254365,9.60108054 24.5697824,11.2760222 21.486882,13.1961482 C18.4039815,15.1162742 15.1107795,17.1841341 14.1688859,17.7912771 C13.6729542,18.1110633 13.1694253,18.4950056 12.6582994,18.9431042 C12.4858759,19.0942743 12.4686395,19.3565982 12.6198049,19.5290258 C12.6460698,19.558985 12.6765101,19.5850078 12.7101895,19.6062937 Z" id="Path" fill="#2F2C8D"></path>
    </g>
</svg>