<?xml version="1.0" encoding="UTF-8"?>
<svg width="28px" height="28px" viewBox="0 0 28 28" version="1.1" xmlns="http://www.w3.org/2000/svg" xmlns:xlink="http://www.w3.org/1999/xlink">
    <title>CL</title>
    <g id="CL" stroke="none" stroke-width="1" fill="none" fill-rule="evenodd">
        <path d="M19.4284827,16.783919 C19.3220664,16.783919 19.2325081,16.7811532 19.1821316,16.7755558 C19.1233261,16.6691392 19.0365336,16.5263725 18.9077277,16.3275658 C20.9122526,16.3275658 22.7320637,16.1624094 24.7449518,15.801278 L24.1766518,15.2525347 C22.3596724,15.5744843 20.8506813,15.7032246 18.9273515,15.7032246 C18.647416,15.7032246 18.5886105,15.7032246 18.5214418,15.7004588 C18.4542072,15.5997055 18.3030118,15.4037305 18.1518822,15.2217161 C18.3226356,15.2329109 18.6530134,15.2385083 19.1092997,15.2385083 C20.6911227,15.2385083 22.1692952,15.1209628 23.7735079,14.8633504 L23.2051421,14.3118413 C21.9845154,14.502219 20.4923165,14.6114013 19.1540788,14.6114013 C18.6781688,14.6114013 18.1378558,14.5946091 17.6535167,14.5666221 C17.5443346,14.4406475 17.2588018,14.1326585 17.1720093,14.0375026 C17.8130753,14.1046715 18.5186102,14.1354901 19.3584824,14.1354901 C20.5539537,14.1354901 21.6962168,14.0570606 22.7768428,13.8975016 L22.208477,13.35159 C21.4386051,13.4467459 20.5035113,13.5027199 19.6776655,13.5027199 C17.5471663,13.5027199 15.8673559,13.0408352 14.1315716,11.9797647 C15.7861608,10.2047945 18.4962206,9.08215251 21.1222536,9.08215251 L21.3686047,9.08215251 L20.450369,8.19453571 C16.662449,8.90573546 12.6757887,10.5715233 9.30787069,12.8532892 C6.0686927,15.0397674 4.93485858,15.6864324 2.40681283,16.803477 L2.39002065,17.4530394 L4.10058373,16.7195159 L4.68291008,17.1814665 L10.2681198,14.6225961 L9.90415759,14.3314652 L7.03737082,15.5772501 L6.75460374,15.3561196 L8.2440369,14.5246086 C9.5010795,13.8246695 10.458497,13.5111489 11.3432142,13.5111489 C13.2777388,13.5111489 15.0135231,14.8829742 16.1333308,17.2934146 C16.9760347,17.4026628 17.8747125,17.4530394 18.9553385,17.4530394 C21.1726302,17.4530394 23.3255189,17.2402722 25.7640064,16.783919 L25.1704853,16.2100203 C23.653131,16.5263725 21.0746429,16.783919 19.4284827,16.783919 M14,0.840071778 C6.73405802,0.840071778 0.840069803,6.73407385 0.840069803,14.0000329 C0.840069803,21.265992 6.73405802,27.1600599 14,27.1600599 C21.265942,27.1600599 27.1599302,21.265992 27.1599302,14.0000329 C27.1599302,6.73407385 21.265942,0.840071778 14,0.840071778 M14,28 C6.25808212,28 0,21.7420349 0,14.0000329 C0,6.25803098 6.25808212,-2.07241631e-15 14,-2.07241631e-15 C21.7419837,-2.07241631e-15 28,6.25803098 28,14.0000329 C28,21.7420349 21.7419837,28 14,28" id="path22" fill="#0A1D3D" fill-rule="nonzero" transform="translate(14.000000, 14.000000) scale(-1, 1) rotate(-180.000000) translate(-14.000000, -14.000000) "></path>
    </g>
</svg>