<?xml version="1.0" encoding="UTF-8"?>
<svg width="28px" height="28px" viewBox="0 0 28 28" version="1.1" xmlns="http://www.w3.org/2000/svg" xmlns:xlink="http://www.w3.org/1999/xlink">
    <title>CM</title>
    <g id="CM" stroke="none" stroke-width="1" fill="none" fill-rule="evenodd">
        <path d="M13.8983833,24.9720623 C15.958857,24.5791981 17.8751566,24.6083763 19.4398799,25.0575129 C21.0376069,25.5174176 22.2312989,26.410133 22.884425,27.6366614 C22.9452213,27.7533744 23.0011539,27.8749504 23.0539598,27.9996526 L23.0539598,27.9996526 L6.51597454,27.9996526 C6.82204052,27.800268 7.13540206,27.6109567 7.45293249,27.427898 C9.5457151,26.2270742 11.772597,25.3763894 13.8983833,24.9720623 Z M12.8700572,20.4115721 C15.3519362,19.9381203 17.6590692,19.973551 19.5413229,20.5175169 C21.4670025,21.069472 22.9014479,22.144204 23.6886733,23.6232632 C24.2559897,24.6917428 24.4758986,25.9276499 24.3365882,27.2965959 L24.3365882,27.2965959 L24.2660645,28 L24.0704741,28 C23.946797,26.5108674 23.2995769,25.3263696 22.1406256,24.5093787 C20.6627542,23.4645197 18.4039108,23.0900655 15.7799422,23.4509726 C13.1295706,23.8153533 10.2349715,24.9150953 7.62733104,26.5501191 C6.90090202,27.0048134 6.21129819,27.4876439 5.56338325,28 L5.56338325,28 L-6.57252031e-14,28 L-6.57252031e-14,27.1593886 C1.4879462,25.7428543 3.21873023,24.4593589 5.11731206,23.3683009 C7.63323697,21.9205042 10.3148752,20.8985709 12.8700572,20.4115721 Z M19.5743266,12.9655617 C23.8026229,12.7085153 27.0137102,13.1632096 28,13.328553 L28,13.328553 L28,27.9993053 L24.3230393,27.9993053 C24.6711416,26.0870881 24.4894475,24.3433406 24.4894475,24.3433406 C24.1507252,21.6148273 22.5682842,19.7842398 19.9113118,19.0474891 C17.0438106,18.2565502 13.0680795,18.803295 9.00514908,20.5536423 C6.98323759,21.4248214 5.05477871,22.5360262 3.27987394,23.8577312 C2.07506483,24.7511413 0.97968907,25.7150655 -2.54019028e-13,26.7342199 L-2.54019028e-13,26.7342199 L-2.54019028e-13,21.1962584 C0.885541645,20.549474 1.81867811,19.943678 2.79628274,19.384081 C5.57762696,17.7830985 8.54413936,16.6534835 11.3755103,16.1126439 C14.1200293,15.5902144 16.6713898,15.6301608 18.754445,16.2293569 C20.8864846,16.8396685 22.4727471,18.0311135 23.3447399,19.6675268 C23.5966103,20.1371576 23.7859474,20.6446507 23.9141407,21.17368 L23.9141407,21.17368 L24.1597578,22.200129 C24.0826333,20.3987197 23.2071665,18.6254466 23.2071665,18.6254466 C22.0645433,16.2647876 19.7737385,14.8670107 16.5793268,14.5793966 C14.9162872,14.4289897 13.0805861,14.5877332 11.1177339,15.0490274 C9.16634614,15.5075427 7.18091244,16.2470723 5.21528097,17.2464272 C3.3757584,18.1811731 1.62447734,19.3083565 -2.54019028e-13,20.6040095 L-2.54019028e-13,20.6040095 L-2.54019028e-13,20.2253871 C6.06990335,15.2143708 13.103515,13.4938964 18.6391057,13.0332969 C19.8592007,13.6324931 20.8472276,14.4762306 21.5371788,15.5645097 L21.5371788,15.5645097 L21.9735226,16.2529774 C21.5236299,14.9205042 20.1631823,13.5116118 20.1631823,13.5116118 C19.9773193,13.3177848 19.779297,13.1371576 19.5743266,12.9655617 Z M0.603099371,15.6867805 C6.54029306,12.2736205 12.7387372,11.1815204 17.0427683,12.4205538 C11.9341415,12.7498511 5.73152847,14.2077213 -1.24344979e-14,18.396189 L-1.24344979e-14,18.396189 L-1.24344979e-14,16.0421298 C0.198717074,15.9215959 0.400213407,15.8048829 0.603099371,15.6867805 Z M28,-2.62012634e-13 L28,13.3264688 C27.7516037,13.2580389 23.9884859,12.2437475 18.7245679,12.3489976 C16.9903098,11.2589817 14.746405,10.7827511 12.1293845,10.9637257 C8.79844163,11.1943728 4.96341055,12.49211 1.33126543,14.6176062 C0.880677941,14.8802104 0.437038599,15.1542775 -2.52242671e-13,15.4377233 L-2.52242671e-13,15.4377233 L-2.52242671e-13,15.0549325 C5.0822239,11.6695613 10.5830738,10.2651846 15.2004665,9.76185987 C16.0641215,10.075526 16.8384927,10.4968738 17.5006514,11.0265979 L17.5006514,11.0265979 L17.791084,11.2614133 C17.2849113,10.5489778 16.0933037,9.85356292 15.8191992,9.70107185 C20.7152127,9.24464073 24.5151557,9.78235411 25.5830862,9.96228662 C25.5830862,9.96228662 20.9021179,8.6673283 14.5407397,9.12584359 C10.5681353,7.69715165 5.09090909,8.7378424 -2.52242671e-13,11.5181123 L-2.52242671e-13,11.5181123 L-2.52242671e-13,11.1051012 C3.37923248,9.13973799 6.88318424,8.07751092 10.0675211,7.53458714 C10.8081939,7.63219532 11.5050932,7.79371775 12.1450178,8.02158595 L12.1450178,8.02158595 L12.7984913,8.25501191 C11.9938956,7.78572846 11.1990273,7.5488289 10.6991079,7.43281064 C15.986997,6.63353513 20.2771319,7.23689956 21.3662543,7.4192636 C21.3662543,7.4192636 15.7813318,5.97146685 8.76786977,7.15874355 C5.96707073,6.96248511 2.74278199,7.60093291 -2.52242671e-13,8.86150258 L-2.52242671e-13,8.86150258 L-2.52242671e-13,8.03235411 C1.76135588,7.37862247 3.52410139,7 5.16212762,6.93886463 L5.16212762,6.93886463 L6.49478268,6.88745534 C3.42082748,6.42111037 0.512031159,7.30108125 0.0605430752,7.44684505 L-2.52242671e-13,7.46685193 L-2.52242671e-13,-2.62012634e-13 L28,-2.62012634e-13 Z M-7.81597009e-14,12.0308158 C4.65248086,9.62430528 9.44218767,8.66177054 13.1729965,9.25124057 C9.10589724,9.69481937 4.47981935,10.8928642 -7.81597009e-14,13.5578106 L-7.81597009e-14,13.5578106 Z M7.18647096,7.46754665 C4.86578905,7.98268162 2.42768341,8.80349345 -2.72226686e-13,10.0654526 L-2.72226686e-13,10.0654526 L-2.72226686e-13,9.36795355 C1.81381441,8.56173085 3.66132734,7.98789202 5.4445699,7.68256252 C6.03898408,7.57974395 6.61915456,7.50888249 7.18647096,7.46754665 Z" id="Combined-Shape" fill="#0060A9" fill-rule="nonzero"></path>
    </g>
</svg>