<?xml version="1.0" encoding="UTF-8"?>
<svg width="28px" height="28px" viewBox="0 0 28 28" version="1.1" xmlns="http://www.w3.org/2000/svg" xmlns:xlink="http://www.w3.org/1999/xlink">
    <title>CQ</title>
    <g id="CQ" stroke="none" stroke-width="1" fill="none" fill-rule="evenodd">
        <path d="M17.6243827,19.1013949 L19.1928894,20.1037459 L15.1908507,23 L12.9866025,21.8182909 L10.9803736,22.7889767 L12.1997431,21.4278997 L13.2575728,20.9742074 L13.4868565,20.8739634 L17.6243827,19.1013949 Z M14.2111928,17.1441908 L15.738012,18.0568628 L15.738012,19.0803142 L8.95851923,21.127217 L8.61980422,19.5498392 L8.5937392,19.5339868 L5.51925853,17.7244951 L14.2111928,17.1441908 Z M23.5075858,16.5845732 L19.823414,19.5916264 L18.7760056,18.937456 L18.3539146,19.1484793 L18.4633458,18.7475428 L18.4633458,18.7426197 L23.4450492,16.6060477 L23.5075858,16.5845732 Z M23.3721012,16.5530064 L16.6655447,18.6104545 L16.6655447,17.9035381 L16.6551382,17.898615 L15.2377483,17.0861771 L23.2418266,16.5639061 L23.3721012,16.5530064 Z M18.8424111,8.96650439 L21.2838938,10.5267302 L15.0544606,15.0349419 L11.6234055,13.1955276 L8.50058007,14.7064733 L10.398607,12.5878608 L12.0451882,11.8816631 L12.4020826,11.7256307 L18.8424111,8.96650439 Z M13.5295545,5.91995821 L15.906148,7.34057502 L15.906148,8.93362799 L5.35342758,12.1197733 L4.82619532,9.66448045 L4.7856292,9.639865 L2.20268248e-13,6.82326653 L13.5295545,5.91995821 Z M28,5.0491226 L22.2653539,9.72979017 L20.6349934,8.71153754 L19.9779826,9.04000613 L20.1483194,8.41592565 L20.1483194,8.40804871 L27.9026637,5.08233376 L28,5.0491226 Z M27.7891077,5 L17.3499219,8.20254907 L17.3499219,7.10218913 L17.3337188,7.09431219 L15.1274602,5.82970812 L27.5863266,5.0167582 L27.7891077,5 Z" id="Combined-Shape" fill="#203864" fill-rule="nonzero"></path>
    </g>
</svg>