<?xml version="1.0" encoding="UTF-8"?>
<svg width="28px" height="28px" viewBox="0 0 28 28" version="1.1" xmlns="http://www.w3.org/2000/svg" xmlns:xlink="http://www.w3.org/1999/xlink">
    <title>CV</title>
    <g id="CV" stroke="none" stroke-width="1" fill="none" fill-rule="evenodd">
        <path d="M28,15.0447774 L21.5113351,11.3532346 C21.5113351,9.9601994 21.440806,5.1542298 21.440806,4.24875662 L13.8236778,0 L6.41813675,4.31840848 L6.34760767,11.5621902 L0,15.3233838 L0.0705290786,23.7512452 L7.68765734,28 C7.68765734,28 14.035265,24.3084591 14.1763222,24.3781101 L20.594458,27.8606963 L28,23.5422897 C28,23.5422897 27.9294709,15.8109459 28,15.0447774 L28,15.0447774 Z M8.60453442,6.82587152 C10.0151132,7.52238821 12.7657435,9.12437901 12.7657435,9.12437901 L12.7657435,13.8606977 C12.7657435,13.8606977 9.94458503,12.3980106 8.60453442,11.5621902 C8.60453442,10.3084587 8.60453442,7.10447801 8.60453442,6.82587152 Z M6.41813675,24.7960212 C5.21914241,24.2388073 2.32745583,22.4975137 2.32745583,22.4975137 L2.25692769,17.8308469 L6.48866489,20.1293544 L6.41813675,24.7960212 L6.41813675,24.7960212 Z M7.54660012,18.1791052 C7.54660012,18.1791052 3.38538919,15.9502496 3.38538919,15.8805977 C4.65491072,15.0447774 6.06549135,14.2786079 7.40554197,13.5124384 L11.566751,15.8109459 C10.2972295,16.6467672 8.8866498,17.4129358 7.54660012,18.1791052 Z M12.9068007,22.4278619 L8.8866498,24.865673 L8.74559258,19.9900507 L12.7657435,17.6915432 L12.8362726,17.6915432 C12.9068007,19.2238812 12.9068007,22.4278619 12.9068007,22.4278619 L12.9068007,22.4278619 Z M13.9647359,7.17412987 C12.5541562,6.47761225 11.0730484,5.71144371 9.7329978,4.87562238 C9.7329978,4.87562238 12.5541562,3.13432881 13.8236778,2.43781119 C13.8236778,2.43781119 16.8564235,3.97015013 18.0554159,4.80597053 C17.7732996,5.01492609 13.9647359,7.17412987 13.9647359,7.17412987 Z M15.0931993,9.19403086 L15.0931993,9.26368179 C15.0931993,8.9850753 19.2544084,6.68656782 19.2544084,6.68656782 C19.3249374,7.10447801 19.2544084,11.4228865 19.2544084,11.4228865 C17.9143577,12.3283587 15.0931993,13.7910458 15.0931993,13.7910458 L15.0931993,9.19403086 Z M19.3249374,24.7263693 C17.9848868,23.9601999 16.5743071,23.2636823 15.2342575,22.4975137 C15.0931993,22.2189063 15.1637284,17.9004987 15.1637284,17.761195 C15.657431,17.9701497 19.3954656,20.0597025 19.3954656,20.0597025 C19.3954656,21.7313442 19.3954656,24.6567175 19.3249374,24.7263693 L19.3249374,24.7263693 Z M20.4534008,18.1094534 C19.0428211,17.3432848 17.6322414,16.5771154 16.2216627,15.741294 C17.4911842,14.9054736 18.972292,14.1393042 20.3828717,13.3731347 C21.7934505,14.0696523 23.2040302,14.8358218 24.6146099,15.6716422 C23.4156174,16.4378117 22.1460959,17.1343293 20.8765743,17.8308469 L20.4534008,18.1094534 Z M25.8841305,22.35821 L21.7229214,24.5870656 L21.7229214,24.5870656 C21.6523933,24.5174138 21.6523933,20.1990062 21.6523933,20.1990062 C21.6523933,20.1990062 25.8136023,17.6915432 25.8841305,17.761195 L25.8841305,22.35821 L25.8841305,22.35821 Z" id="path10" fill="#D40000" fill-rule="nonzero"></path>
    </g>
</svg>