<?xml version="1.0" encoding="UTF-8"?>
<svg width="28px" height="28px" viewBox="0 0 28 28" version="1.1" xmlns="http://www.w3.org/2000/svg" xmlns:xlink="http://www.w3.org/1999/xlink">
    <title>CX</title>
    <g id="CX" stroke="none" stroke-width="1" fill="none" fill-rule="evenodd">
        <path d="M10.9695507,13.4668818 C10.8787737,13.4791458 10.7777021,13.3470488 10.734653,13.284773 C10.7215498,13.2668437 10.6719515,13.1602225 10.6841175,13.1441818 C10.70377,13.1290851 10.8067134,13.1639964 10.8338529,13.1866438 C10.9012339,13.2404271 10.955513,13.3159123 10.9892037,13.4451813 C10.9901294,13.460278 10.9770354,13.4668813 10.9695511,13.4668813 M8.77967101,12.2430741 C8.71790489,12.2657214 8.56629813,12.0921032 8.52418499,12.0279408 C8.44650986,11.909995 8.36789838,11.7788392 8.28554432,11.6627802 C8.2088046,11.5599315 8.1236429,11.486333 8.10398992,11.3061115 C8.10213853,11.2853542 8.08995174,11.2315699 8.10306422,11.2325135 C8.18635463,11.2391168 8.26590152,11.3863147 8.30801466,11.4438724 C8.33796092,11.4853871 8.37352384,11.5269064 8.40066339,11.5703106 C8.44183834,11.6335295 8.458686,11.7090152 8.50173502,11.7684596 C8.55414236,11.8401709 8.61777978,11.9081078 8.67393064,11.9807626 C8.70387689,12.0194493 8.7441192,12.053417 8.76283585,12.1062568 C8.77125968,12.1336221 8.7974615,12.2336386 8.77967888,12.2430741 M8.15266161,12.2185414 C8.10586954,12.2147614 8.08621656,12.1855154 8.05720572,12.1638145 C7.980466,12.1062568 7.9158927,12.0137872 7.91402094,11.8798007 C7.91216955,11.8665894 7.91777001,11.8628187 7.92712417,11.8628187 C8.01883701,11.8618854 8.1114862,12.004354 8.1470482,12.0704037 C8.15734193,12.0902184 8.18167385,12.1440022 8.17792941,12.1817448 C8.17792941,12.2072201 8.16670072,12.2185461 8.15266254,12.2185461 M6.06853321,12.6431516 C6.06478877,12.6535303 6.05730314,12.665799 6.04232954,12.6667416 C5.94312055,12.6639057 5.91317346,12.514822 5.87012458,12.4468852 C5.8345624,12.3893274 5.80274364,12.3279958 5.76624563,12.270438 C5.74004192,12.2317518 5.70728733,12.1902348 5.68576286,12.1449439 C5.65862331,12.0873862 5.64645731,12.026054 5.61276684,11.9741579 C5.59592159,11.9467944 5.56784621,11.9232054 5.54819345,11.8977291 C5.49391435,11.8241306 5.44525034,11.7467582 5.41062404,11.6542887 C5.40313729,11.6212636 5.39377883,11.5891826 5.38629204,11.5561576 C5.36570345,11.500487 5.34043557,11.4391554 5.32171865,11.3797104 C5.31142445,11.3504598 5.30580917,11.2891281 5.31142445,11.2683694 C5.31610384,11.259876 5.31984689,11.2532727 5.32733392,11.255158 C5.40313748,11.2664794 5.4761335,11.4523639 5.51356734,11.5212444 C5.5547446,11.5938988 5.61838212,11.6524001 5.65394425,11.7269417 C5.68576319,11.7958222 5.69699327,11.881687 5.73255535,11.9477366 C5.76156666,11.9986892 5.80835887,12.0392626 5.84017767,12.0883284 C5.88041905,12.1515472 5.90943027,12.2336376 5.94124907,12.3034617 C5.97681106,12.3827213 6.02828276,12.444053 6.05916568,12.5204822 C6.07226752,12.5525609 6.07694691,12.6082338 6.068524,12.643146 M5.68201944,9.77941988 C5.66236669,9.74450808 5.64177806,9.70299108 5.62774039,9.66619162 C5.61183101,9.62373102 5.6099593,9.58504482 5.59311409,9.54447142 C5.53415574,9.41331568 5.46864652,9.26895001 5.41062404,9.13968101 C5.3853562,9.08495408 5.35166574,8.98399261 5.37506191,8.91511214 C5.37880635,8.90567614 5.39845795,8.91133214 5.40688085,8.92077281 C5.42653337,8.93870214 5.44057109,8.95002348 5.45741653,8.96983861 C5.46958249,8.98871061 5.47239012,9.00946795 5.48549196,9.02833948 C5.51450326,9.07268681 5.55287285,9.11703508 5.57439731,9.16704401 C5.62306132,9.27366708 5.6361632,9.39255695 5.68482717,9.49634922 C5.71571023,9.56428608 5.76811748,9.62373055 5.80274383,9.69261102 C5.81958918,9.73129768 5.83081926,9.77092748 5.84204933,9.81055728 C5.84953636,9.84075062 5.8476646,9.88132448 5.84953636,9.90491402 C5.85047131,9.94076802 5.84672688,9.96247129 5.83456277,9.96435849 C5.74284946,9.95869782 5.71570991,9.84546955 5.68201944,9.77941988 M25.4910766,18.6263088 C25.3759678,18.1988729 24.1322279,18.3828684 23.1093479,18.2885117 C22.1781808,18.2026473 20.9840411,18.0346921 19.5484531,17.5317706 C18.2045779,17.0618741 16.9056235,16.5240403 15.7723136,15.9060038 C15.7723136,15.9060038 15.3146848,15.6625634 15.2660205,15.6351999 C15.1715,15.5776422 15.0975684,15.5361252 15.0049197,15.4776243 C14.9497047,15.4445983 14.8645425,15.3936467 14.8027769,15.3662833 C14.72323,15.3332573 14.6698868,15.2898545 14.60157,15.2473939 C14.5313814,15.2030465 14.435925,15.1568111 14.3648006,15.1143505 C14.2609218,15.0492444 14.1963485,14.9992355 14.0980845,14.9284678 C14.0372547,14.8822351 14.0063716,14.8690233 13.924953,14.8190139 C13.8762891,14.7897633 13.7873835,14.7416415 13.7443349,14.7123909 C13.6535575,14.6520028 13.5955353,14.6019934 13.5038225,14.5378309 C13.4486075,14.4982016 13.4074302,14.4736684 13.3409852,14.4321514 C13.275476,14.3915794 13.2118381,14.3396819 13.1547514,14.2972213 C13.1238702,14.2726886 13.0752045,14.2453252 13.0471291,14.2151309 C12.9797481,14.1500248 12.9133031,14.0924671 12.8440509,14.035853 C12.780413,13.9877312 12.7195832,13.9282863 12.6578171,13.8801646 C12.6175771,13.8509139 12.5492593,13.7933562 12.5099534,13.7641055 C12.4070104,13.6895639 12.3424371,13.6338934 12.2404296,13.5593513 C12.1749205,13.510286 12.1197055,13.4451799 12.0541963,13.3961141 C11.9812006,13.3413872 11.9138196,13.2781683 11.8380158,13.2234414 C11.789352,13.1894727 11.7332011,13.146069 11.6957674,13.1073828 C11.6471035,13.0479378 11.6012469,13.0073644 11.5497754,12.9488631 C11.5123403,12.9073484 11.4402813,12.8611116 11.3981682,12.818651 C11.3364025,12.7375042 11.246561,12.6516394 11.1623352,12.5884205 C11.112735,12.5421878 11.0977614,12.5204836 11.0781089,12.495951 C11.0640707,12.4751936 11.0453531,12.4516036 11.0051127,12.4072554 C10.9648727,12.3657407 10.9498977,12.3544156 10.9339887,12.3364877 C10.9152711,12.321391 10.8937487,12.3015764 10.8385323,12.246849 C10.8216847,12.2289196 10.7926733,12.1883476 10.7636644,12.1487178 C10.7383975,12.1138065 10.7150005,12.0788938 10.6981552,12.0609663 C10.6485555,12.0081266 10.6158007,11.9713271 10.5802387,11.9335845 C10.5549718,11.9081092 10.5278313,11.8798012 10.4950765,11.8448894 C10.475424,11.8231894 10.4604508,11.7977108 10.4426692,11.7741217 C10.428631,11.7505317 10.4117879,11.7259995 10.3949412,11.7061848 C10.3649949,11.6731588 10.341598,11.6844848 10.3359827,11.6882555 C10.3182001,11.7005195 10.3107159,11.7363777 10.3303684,11.7788383 C10.3575098,11.8288472 10.3949417,11.8845178 10.4183377,11.9165988 C10.4239521,11.9241494 10.4286314,11.9307528 10.4314409,11.9345281 C10.4407997,11.9505674 10.4492235,11.9656641 10.4585823,11.9817067 C10.4716856,12.0052967 10.4857237,12.030772 10.5025668,12.0534175 C10.5409369,12.1053136 10.5811778,12.1487178 10.6214192,12.1892912 C10.6354573,12.2025026 10.6485606,12.2166566 10.6607242,12.2308106 C10.6878656,12.2591186 10.7084522,12.2893119 10.729041,12.3213929 C10.751503,12.3525289 10.7748954,12.3864994 10.8039085,12.4185804 C10.8179467,12.4317918 10.8301103,12.4487738 10.8404087,12.4638704 C10.8535119,12.4808571 10.8666105,12.4997244 10.8815883,12.514823 C10.9049852,12.5374703 10.9274426,12.560113 10.9499046,12.5827598 C10.9873398,12.6233318 11.0275802,12.662963 11.0640781,12.6950445 C11.0930894,12.7195772 11.1221007,12.750715 11.1520474,12.7799657 C11.2278513,12.8714916 11.3111417,12.9630176 11.3794585,13.0507696 C11.4178286,13.0998349 11.489888,13.1366339 11.5338729,13.1706026 C11.5825367,13.2074039 11.6209068,13.271564 11.6592764,13.3206298 C11.6892227,13.3564838 11.7547328,13.4149866 11.7856154,13.4527292 C11.8614192,13.5508603 11.9138266,13.6037 12.0139619,13.6791852 C12.0747921,13.7225899 12.1206483,13.76505 12.1674408,13.8235514 C12.1955172,13.8603527 12.2816138,13.944328 12.3143687,13.9849014 C12.3967232,14.0905808 12.4341569,14.1896556 12.421991,14.1924859 C12.3658401,14.2075826 12.2292065,14.0858628 12.1477878,14.0330231 C12.0813428,13.9867904 12.0701127,13.9688606 12.0064753,13.9207389 C11.9924371,13.9084702 11.8913659,13.8377049 11.8567398,13.7933571 C11.8295984,13.7688244 11.7547328,13.686734 11.7313363,13.658427 C11.6171633,13.5112305 11.5787937,13.5027381 11.4477748,13.3734696 C11.3523189,13.2791128 11.2334661,13.1951352 11.1408174,13.1111576 C11.112741,13.081907 11.0856024,13.0526568 11.0584628,13.0205753 C11.0275816,12.9894393 10.9892106,12.9611304 10.9611352,12.929993 C10.9171507,12.875266 10.8591277,12.7667558 10.8076562,12.7280691 C10.7533771,12.6856071 10.7131357,12.6469223 10.6579207,12.6054058 C10.6382682,12.5921944 10.6214206,12.5667191 10.600834,12.5506788 C10.5736926,12.5318068 10.5428119,12.5091642 10.522223,12.4836856 C10.4585856,12.4015952 10.3968199,12.3176176 10.3303749,12.2355272 C10.3013635,12.1958978 10.2592504,12.1638159 10.2302391,12.1232425 C10.1684734,12.0345474 10.1160656,11.9439646 10.0533641,11.8609306 C9.96445888,11.744872 9.83811945,11.661838 9.75295729,11.5448358 C9.66498796,11.4240592 9.61258061,11.284411 9.53022609,11.1579728 C9.49466548,11.1032459 9.43944912,11.0645597 9.40014361,11.0126636 C9.3776816,10.9824702 9.36551796,10.9475575 9.34399276,10.9145324 C9.30000832,10.8465956 9.2485364,10.7805459 9.20361562,10.7163834 C9.14559347,10.629575 9.10628796,10.5361619 9.04732947,10.444636 C9.03890564,10.4323673 9.01831817,10.3710375 8.9818203,10.3257466 C8.94719464,10.2813992 8.91631112,10.2304462 8.87700561,10.1653402 C8.83583066,10.1021208 8.81711124,10.0596602 8.78809994,10.0162565 C8.75908863,9.97096649 8.74037199,9.92944808 8.720719,9.89925382 C8.70200143,9.86717515 8.65988922,9.80961508 8.64491563,9.78696915 C8.59157241,9.70393562 8.57659881,9.66524895 8.52138384,9.58882015 C8.48769314,9.54164202 8.45025939,9.50295535 8.41844091,9.51427855 C8.394109,9.53220788 8.40346778,9.56145668 8.40908213,9.58221542 C8.43341404,9.65015228 8.43341404,9.63788548 8.45961817,9.68695128 C8.50453756,9.76809808 8.52044796,9.80678428 8.56817637,9.88132588 C8.5896988,9.91717988 8.62807028,9.99832855 8.65895334,10.0417328 C8.6888996,10.0870228 8.720719,10.140807 8.74130787,10.1776065 C8.76470483,10.2172358 8.79745872,10.3210286 8.83021308,10.3644328 C8.85361004,10.3955688 8.88729981,10.4587895 8.91069585,10.5040809 C8.95655482,10.5965504 9.01457465,10.6692048 9.06230307,10.7409161 C9.09411923,10.800361 9.12594049,10.8626363 9.15682355,10.9211376 C9.22046097,11.0173816 9.29626435,11.1070203 9.35803047,11.206095 C9.39640056,11.2749755 9.43383385,11.343856 9.4712676,11.4127364 C9.50963769,11.4693501 9.56110915,11.5174723 9.59760702,11.57503 C9.64252641,11.64391 9.66685971,11.7193957 9.71178049,11.7873326 C9.74734109,11.8401723 9.79226326,11.8911248 9.82782525,11.9439646 C9.88865504,12.0345474 9.94293413,12.1241861 10.006572,12.2109945 C10.0421326,12.2581726 10.0879907,12.2978024 10.1226168,12.3459246 C10.1703447,12.4110307 10.2087148,12.4884031 10.2583145,12.54313 C10.3182084,12.5997442 10.3350538,12.6337124 10.3818463,12.6874957 C10.451099,12.7733605 10.6242305,13.0186881 10.5942833,13.0205753 C10.4932117,13.0347293 10.29762,12.8111031 10.2152655,12.7299563 C10.1516281,12.6657938 10.0805036,12.6205024 10.0365187,12.5601144 C9.97100956,12.4714188 9.92328161,12.3714009 9.85777244,12.2855361 C9.83437548,12.2534574 9.79881395,12.2298656 9.77541791,12.1996713 C9.73049852,12.1411704 9.68744811,12.0788947 9.63597665,12.0279422 C9.61445422,12.0071848 9.59105726,11.9883128 9.57140335,11.9647233 C9.49185646,11.8618742 9.42447553,11.7514772 9.34773627,11.64391 C9.31404557,11.6005054 9.27286831,11.5618201 9.24011395,11.5193595 C9.21578204,11.4844482 9.20080891,11.4467046 9.17928371,11.408962 C9.14840249,11.3608398 9.10722384,11.3146053 9.07634078,11.2664831 C9.05294382,11.2306291 9.03890564,11.1947723 9.01457465,11.1579728 C8.97246012,11.0938104 8.91631112,11.0381398 8.87419798,10.9730338 C8.84144223,10.920194 8.83208345,10.8513136 8.79745872,10.7975302 C8.7104248,10.6635437 8.61590432,10.5267264 8.53074216,10.3927398 C8.50828015,10.3578285 8.49892599,10.3191414 8.47833482,10.2851732 C8.40814625,10.1747757 8.34357295,10.0558863 8.27432026,9.94737602 C8.24905339,9.90680402 8.23875965,9.86056762 8.21349047,9.82093782 C8.18166968,9.77187248 8.1330077,9.73318582 8.10118876,9.68600768 C8.07685685,9.64826368 8.06656311,9.60674808 8.04784554,9.56428748 C8.02257868,9.50672975 7.98701576,9.45105922 7.95800445,9.39727588 C7.94022184,9.36424988 7.93086305,9.33028261 7.9102765,9.29914475 C7.8269861,9.16798901 7.75866929,9.02928448 7.69128835,8.88397521 C7.65572775,8.80943361 7.60331856,8.73960954 7.56869244,8.66318028 C7.52845245,8.57920314 7.49008143,8.49333834 7.4535831,8.41219154 C7.43206067,8.35652101 7.41240815,8.30085047 7.39368919,8.24517994 C7.35344919,8.15837201 7.29074626,8.08382994 7.25237617,7.99324761 C7.22523477,7.93191547 7.21026164,7.87530134 7.18499524,7.8234052 C7.16908716,7.7922692 7.1391409,7.76584794 7.1176143,7.78000054 C7.09515415,7.79321187 7.09234651,7.82057254 7.10638561,7.86869614 C7.13258743,7.96116567 7.18312533,8.06590154 7.20652137,8.11874127 C7.25424932,8.22253401 7.27858169,8.33104427 7.32537377,8.43672374 C7.34970568,8.49616868 7.38901119,8.55183921 7.41521486,8.60845288 C7.4610692,8.70941481 7.50505641,8.81037628 7.5509126,8.90567661 C7.57617947,8.96134715 7.59677157,9.01513048 7.62671644,9.06797021 C7.64168957,9.09533555 7.66602149,9.12647155 7.67818791,9.15666581 C7.70813416,9.22460268 7.716558,9.29631395 7.7474406,9.36047641 C7.77925676,9.42746968 7.83073054,9.48314022 7.8616136,9.54824628 C8.0197715,9.88793062 8.17886575,10.2115742 8.36977801,10.5125724 C8.42218535,10.59655 8.45026078,10.698455 8.503604,10.781489 C8.55881898,10.869241 8.63462282,10.9352907 8.68890191,11.0202114 C8.73475625,11.0909791 8.74598818,11.1891102 8.78810133,11.2645954 C8.8479957,11.3778237 8.93035022,11.473124 8.99866703,11.5797471 C9.01644965,11.6099404 9.02206399,11.6429664 9.04078156,11.6741038 C9.06604843,11.7146758 9.09974005,11.754307 9.12594373,11.795824 C9.15963442,11.8514946 9.17741519,11.9147134 9.21578482,11.9656664 C9.25602481,12.0222806 9.31404881,12.0675715 9.3542902,12.1251292 C9.4038899,12.1940097 9.43945236,12.2751565 9.4918597,12.3459242 C9.5274203,12.3940459 9.58357255,12.4280146 9.62007042,12.4770799 C9.67809303,12.5535087 9.87929995,12.819595 9.93732257,12.8941366 C10.0252919,13.0083085 10.1843857,13.1762632 10.2573819,13.3262905 C10.2807788,13.3725232 10.3603248,13.482923 10.3434799,13.5046248 C10.3013654,13.5329328 10.1020316,13.3130806 10.0683409,13.2809996 C9.98505052,13.2007964 9.91299065,13.0894553 9.84093033,12.9969858 C9.82314771,12.9762284 9.63223638,12.7884572 9.61632737,12.7676989 C9.5976098,12.7431662 9.57795728,12.7158023 9.56111239,12.6912696 C9.50776917,12.6110664 9.47501435,12.5148225 9.4188635,12.4393373 C9.39453158,12.407254 9.35803371,12.3836668 9.33557355,12.3525289 C9.29158912,12.294028 9.26164147,12.2279779 9.21765657,12.1685334 C9.15121152,12.0741767 9.06324218,11.9911427 8.99492537,11.8977296 C8.92192917,11.795824 8.86858595,11.6750474 8.79278257,11.5731424 C8.75534743,11.523133 8.70762041,11.4787856 8.67205842,11.4240587 C8.65615033,11.4004687 8.65053599,11.3768801 8.63462328,11.3523474 C8.60748188,11.3108281 8.57098539,11.2636523 8.55039699,11.2183609 C8.53074447,11.1749562 8.5167063,11.1343833 8.49237438,11.0956971 C8.41376337,10.9720897 8.33515236,10.840934 8.25747722,10.7173266 C8.22097704,10.661656 8.20132637,10.6022111 8.16669979,10.5465406 C8.10774176,10.4550146 8.0328738,10.3729242 7.97485165,10.2804547 C7.90559896,10.1710008 7.86816521,10.0389015 7.79704077,9.92944762 C7.75212138,9.85679275 7.69877677,9.78979948 7.65385645,9.71714508 C7.60332041,9.63882862 7.57898849,9.54730268 7.5331323,9.46615588 C7.49382726,9.39350101 7.44048311,9.32650775 7.405857,9.25479695 C7.36748691,9.17553735 7.34221958,9.09816448 7.30478583,9.01607408 C7.28419835,8.97266941 7.25237802,8.92832254 7.23366138,8.88491834 C7.20839451,8.82830421 7.20371512,8.77263368 7.17751052,8.71979394 C7.1101208,8.56787901 7.00811356,8.42445694 6.93698926,8.27254247 C6.88738941,8.16591941 6.84153294,8.05457834 6.80035572,7.94040694 C6.77789538,7.8781312 6.76760109,7.81868674 6.73952571,7.761129 C6.67682403,7.62148087 6.60008463,7.475228 6.54019045,7.33841067 C6.51398678,7.26386907 6.48871889,7.1912142 6.46157939,7.11761573 C6.45690014,7.09685747 6.45409259,7.07704233 6.44660584,7.05439687 C6.41759458,6.9892908 6.37922491,6.92512833 6.35395707,6.861909 C6.33149673,6.7864238 6.3081006,6.71188173 6.28376859,6.63639653 C6.18737645,6.39295613 6.10034271,6.11743426 6.00862977,5.86361472 C5.99739965,5.81832332 5.99459211,5.75982199 5.97681102,5.70981306 C5.92908288,5.58148812 5.8813547,5.44938832 5.83549823,5.32011979 C5.80835868,5.25407012 5.74659283,5.27577245 5.76063055,5.34370979 C5.77934765,5.43240539 5.79057773,5.45505086 5.8064872,5.52581852 C5.81303835,5.56261986 5.81958904,5.59752932 5.8270756,5.63338519 C5.83830568,5.67678986 5.85983042,5.72208032 5.8710605,5.76359732 C5.89632829,5.84191332 5.89820005,5.91834259 5.92346789,5.99288419 C5.96183752,6.09762053 5.99927141,6.19952559 6.03389775,6.30709226 C6.04232019,6.36087559 6.05448615,6.41465893 6.06478081,6.46938586 C6.08069028,6.5193948 6.10127868,6.5712914 6.11905987,6.61658233 C6.17240313,6.74962526 6.22387464,6.87795066 6.26973111,7.0081628 C6.2893841,7.08364847 6.30903662,7.15819007 6.32681775,7.23367573 C6.34647027,7.2751904 6.37548177,7.31765333 6.39326281,7.35822673 C6.41010816,7.39502807 6.41385167,7.42899393 6.4288248,7.4676806 C6.4625155,7.55165774 6.49246236,7.63752254 6.53083203,7.72338734 C6.56265098,7.7932114 6.60008468,7.8639786 6.62722418,7.93852067 C6.64032602,7.97531734 6.64032602,8.00645754 6.65342785,8.04231294 C6.73391062,8.26499507 6.82094431,8.49805634 6.91640062,8.70941528 C6.93979666,8.76131141 6.94634781,8.81603834 6.97067972,8.86887808 C6.98939683,8.91416808 7.01747202,8.96134761 7.03712482,9.00475181 C7.04648315,9.03305981 7.05677735,9.06230955 7.06613613,9.09061661 C7.09514744,9.15289188 7.14568279,9.20384441 7.1746941,9.26612015 C7.25611274,9.43879288 7.32910895,9.60391728 7.43205187,9.75111375 C7.52657236,9.88887468 7.5686855,10.0700398 7.63793819,10.233277 C7.67443375,10.3106494 7.71842096,10.3766991 7.76240586,10.4436924 C7.78392828,10.4795464 7.79703151,10.5191776 7.81574908,10.5578642 C7.86254115,10.642785 7.88780894,10.7163834 7.94302392,10.7918686 C7.98700835,10.8541444 7.98326391,10.8673543 8.02069905,10.9541622 C8.03099279,10.9796376 8.07310639,11.1419321 8.06468349,11.1419321 C8.05064531,11.1513681 7.97109888,11.1032454 7.94395933,11.0730521 C7.90839873,11.0324801 7.85037473,10.9777518 7.8120051,10.8899998 C7.79141763,10.8456524 7.75211073,10.7692232 7.73152233,10.7267626 C7.68192263,10.6191959 7.59676046,10.52767 7.53499434,10.4285952 C7.49849415,10.3710375 7.47884394,10.3078186 7.44796088,10.2455434 C7.39648942,10.1313715 7.33659505,10.0162565 7.28138007,9.89831022 C7.25798311,9.84924488 7.2242938,9.80206628 7.19715425,9.75866255 C7.16720799,9.71337255 7.15410477,9.66524895 7.12509393,9.61901442 C7.06239266,9.51993875 6.99126835,9.40859768 6.94073263,9.30008741 C6.90329879,9.21988421 6.88364604,9.13968101 6.84808386,9.06136501 C6.83591785,9.03683235 6.8162651,9.01229968 6.80035572,8.98871015 C6.77508784,8.94813675 6.76479355,8.90378941 6.74233325,8.85849801 C6.71425787,8.79905308 6.67214477,8.74055221 6.64406939,8.67922008 C6.58698275,8.55561268 6.55422816,8.42728774 6.49807735,8.30556754 C6.47000197,8.24895341 6.42508138,8.19988807 6.39887766,8.14327394 C6.35770045,8.05646554 6.35395707,7.94701167 6.31277981,7.85642934 C6.2070292,7.61487614 6.08443334,7.36671773 5.99459211,7.1147854 C5.98055439,7.0723248 5.97493935,7.023259 5.96183747,6.97891167 C5.92253196,6.8694578 5.87106041,6.76755226 5.83175486,6.6599856 C5.81397377,6.61092026 5.80835868,6.56562886 5.79057764,6.51561993 C5.76437392,6.44296506 5.72974762,6.36559266 5.70354391,6.29105059 C5.69699299,6.26651793 5.69324961,6.24009806 5.68389115,6.21462179 C5.65113652,6.14574133 5.6324196,6.06270733 5.60060084,5.99005293 C5.58281975,5.95230986 5.55661608,5.91362366 5.54164254,5.87305026 C5.5163747,5.80039586 5.52386145,5.70886946 5.49765778,5.64093259 C5.46115977,5.53808392 5.41811084,5.42674285 5.38161283,5.32578139 C5.35915253,5.26633645 5.35540911,5.20972232 5.33482053,5.14933425 C5.31142435,5.08139739 5.28522068,5.00591172 5.2599528,4.93797485 C5.23562079,4.86815078 5.23655667,4.79266558 5.21316049,4.71906712 C5.19631528,4.66245317 5.17291911,4.60489558 5.15420219,4.5520558 C5.11957589,4.4529812 5.10460234,4.34824519 5.06810433,4.25577557 C5.06248925,4.23879137 5.05593833,4.22086358 5.05032325,4.20482294 C5.04096479,4.17934663 5.02411957,4.15481387 4.99885169,4.16236239 C4.96984038,4.16991119 4.96984038,4.20671019 4.97171214,4.23124281 C4.97732695,4.30484109 5.0044665,4.3708908 5.02411953,4.43033559 C5.04845144,4.49261105 5.05968152,4.55960432 5.07652692,4.61904906 C5.08588524,4.65773526 5.08494936,4.69925245 5.09430814,4.73982585 C5.1064741,4.79832672 5.12893472,4.85399725 5.14390804,4.91155498 C5.15794575,4.96816912 5.15045872,5.02383965 5.16356056,5.06818745 C5.20005843,5.19179439 5.24123578,5.33144252 5.28241305,5.44938832 C5.2992584,5.51072046 5.30206603,5.58148812 5.32078267,5.63432786 C5.34324283,5.69660312 5.36663933,5.75982199 5.38816361,5.82304132 C5.40875201,5.87588106 5.41249552,5.92588999 5.43402026,5.97589939 C5.4574163,6.02779553 5.48362011,6.08252246 5.50327286,6.14196693 C5.5266689,6.21839619 5.52386126,6.29388139 5.55006521,6.36653626 C5.59311423,6.48353846 5.64645736,6.59487953 5.68576291,6.7071642 C5.69886475,6.74867886 5.70354414,6.79302853 5.71758185,6.83454553 C5.75220797,6.93173306 5.77654016,7.03646893 5.81210233,7.13460007 C5.86263801,7.2742482 5.9272114,7.41106553 5.97774708,7.54882647 C6.02641109,7.6847002 6.03389789,7.84793694 6.09004865,7.97531874 C6.11905996,8.03853761 6.17895405,8.07628067 6.2060936,8.13761234 C6.22574658,8.17629901 6.22013131,8.22158994 6.23323315,8.26782447 C6.24914262,8.31972107 6.27347453,8.37256081 6.29312733,8.42068254 C6.30435741,8.46502988 6.31558749,8.50749094 6.32775345,8.54995154 C6.34553467,8.60184768 6.38109667,8.65374381 6.40355701,8.70375274 C6.44099076,8.78489954 6.45970777,8.86982074 6.50462841,8.94247561 C6.54112628,8.99720255 6.58511118,9.04815508 6.61505822,9.10948675 C6.64594129,9.17648001 6.65717137,9.24913488 6.68805424,9.31990255 C6.7339109,9.42369481 6.78818981,9.52276955 6.82655949,9.63033622 C6.86305736,9.72846735 6.87615933,9.83225962 6.9220158,9.91906802 C6.9688081,10.0039888 7.02589475,10.080418 7.07175122,10.1643956 C7.10076252,10.2285581 7.12977378,10.291777 7.1597205,10.3549963 C7.18311746,10.4059488 7.22897319,10.4502966 7.2579845,10.50408 C7.2935451,10.5682424 7.32817307,10.6361793 7.35718438,10.7003418 C7.38058134,10.7512943 7.38900054,10.7975293 7.41707828,10.8409335 C7.45731828,10.9079268 7.48820273,10.9617101 7.53218763,11.0277598 C7.56868781,11.0872047 7.61173452,11.1626899 7.63793819,11.232514 C7.65852566,11.2853537 7.68005272,11.3410242 7.70999805,11.385372 C7.7427538,11.430662 7.78486601,11.4712364 7.81200556,11.5212458 C7.83914696,11.5703111 7.87751474,11.7297739 7.86347703,11.7373227 C7.82885138,11.7495914 7.73152279,11.6561759 7.70531912,11.6231508 C7.62857941,11.5297377 7.59114566,11.4032995 7.52095709,11.3042252 C7.44608959,11.195715 7.39929752,11.1353264 7.34033903,11.011719 C7.30758421,10.9409514 7.24862618,10.8126264 7.20838479,10.7494071 C7.16814341,10.6899626 7.11760736,10.6361793 7.08672467,10.5701296 C7.06239266,10.5144591 7.05022666,10.4484094 7.02589465,10.3936825 C6.98939664,10.315366 6.91546479,10.2634699 6.87803095,10.1813795 C6.83498202,10.0907972 6.8162651,9.99738402 6.77040863,9.91246282 C6.74794834,9.87094582 6.71893708,9.82471128 6.69928432,9.78130708 C6.67308061,9.72752375 6.6609146,9.67468402 6.63564676,9.61995708 C6.58417521,9.50861602 6.50649998,9.41520288 6.45690014,9.30480541 C6.40262104,9.19157715 6.37360982,9.06891335 6.31839489,8.95474195 C6.29031951,8.89246621 6.23978383,8.83962648 6.21077257,8.77735121 C6.1724029,8.69526081 6.1527501,8.60939601 6.11438043,8.52636201 C6.09004842,8.47635308 6.05542212,8.42728774 6.03202595,8.37822194 C5.99927131,8.30651114 5.98710536,8.22819467 5.95341489,8.15365307 C5.87948304,7.98381067 5.80180776,7.80925074 5.72694008,7.641296 C5.6988647,7.57618994 5.6913779,7.5091962 5.66236669,7.44314653 C5.63429131,7.38558927 5.60621593,7.32897513 5.57626883,7.2714174 C5.51263128,7.12327733 5.48923515,6.949661 5.42279005,6.80057733 C5.38909958,6.72414806 5.34792236,6.65243726 5.31703944,6.57129046 C5.27024714,6.44296506 5.25340188,6.31086573 5.20567374,6.17970999 C5.13454944,5.97967333 5.07746279,5.77114519 5.00633849,5.57299572 C4.98481402,5.51355126 4.98294231,5.45504992 4.96048202,5.39277465 C4.93989338,5.33521692 4.91836892,5.27671559 4.89684446,5.21915785 C4.88187091,5.17103612 4.87251245,5.10404285 4.86034645,5.04365432 C4.80700323,4.87475598 4.75366001,4.70585718 4.70125262,4.53507156 C4.68815078,4.49449816 4.68627907,4.42184347 4.67224136,4.36994725 C4.66381878,4.34069667 4.64790935,4.30672824 4.63667923,4.27936477 C4.62451322,4.24067848 4.62451322,4.20765365 4.61234722,4.16708025 C4.57304167,4.04347289 4.54028708,3.89910704 4.50098153,3.77549973 C4.48975136,3.73681344 4.48600798,3.68114295 4.47384198,3.63773884 C4.41956288,3.46129171 4.39242333,3.24521477 4.32129902,3.08197757 C4.3100689,3.04989629 4.28948027,3.01592786 4.25859734,3.02441998 C4.22771428,3.03196831 4.23426543,3.06782418 4.23707306,3.09707466 C4.24643138,3.17727791 4.27637857,3.24615833 4.28948045,3.31315164 C4.29509572,3.34334591 4.29509572,3.38486277 4.29696702,3.42071831 C4.30071146,3.45091257 4.30445358,3.48771162 4.31381237,3.5197929 C4.34656719,3.62452891 4.38493667,3.74813626 4.41488377,3.85098512 C4.42517797,3.90099419 4.41581872,3.97836673 4.42985736,4.03592437 C4.47477814,4.20293579 4.50753258,4.40202853 4.56742672,4.5520558 C4.62264165,4.68887285 4.63293599,4.85305365 4.6722415,5.00119372 C4.68347158,5.06535665 4.68721509,5.13046272 4.69657341,5.19462519 C4.70686761,5.25690092 4.74055831,5.29936105 4.75927514,5.35125765 C4.77424873,5.38994432 4.77237697,5.42296845 4.78735057,5.46354186 C4.81823363,5.57016492 4.84350133,5.67490126 4.88093517,5.78246792 C4.90713884,5.85700952 4.94738027,5.92683359 4.97358394,5.99854486 C4.98387814,6.03157086 4.98107097,6.06082013 4.98949341,6.09667599 C5.00821052,6.17121759 5.02037648,6.24481606 5.04096497,6.31747046 C5.09337236,6.4637238 5.1429722,6.622243 5.19444376,6.76660866 C5.22345507,6.84775546 5.23281339,6.92607146 5.25995298,7.00438793 C5.3750621,7.31953913 5.491107,7.63186 5.6043444,7.94323727 C5.62306151,8.01306134 5.64271403,8.08288541 5.66049516,8.15176587 C5.68576296,8.22158994 5.72694027,8.28103487 5.75595148,8.34425374 C5.79338523,8.42540054 5.80461549,8.51032174 5.8364343,8.59618608 C5.87106041,8.69714801 5.91878873,8.77452041 5.95715845,8.87925628 C5.97493968,8.92832208 5.99272044,8.98399261 6.01518092,9.03305795 C6.03202627,9.06891195 6.06290906,9.10382561 6.08069015,9.14062461 C6.11157321,9.20195675 6.11625214,9.28027275 6.14526354,9.34254801 C6.1761466,9.40482375 6.22761802,9.45671988 6.26411598,9.51333402 C6.29593492,9.56806095 6.29967797,9.63694142 6.32681771,9.69827308 C6.36986673,9.79357342 6.42508156,9.88132495 6.46625878,9.98228689 C6.48310413,10.0247489 6.4905907,10.0624901 6.5093078,10.1030635 C6.53083208,10.1492962 6.56545856,10.1936458 6.58698303,10.2427116 C6.58698303,10.2427116 6.58885293,10.2427116 6.59072747,10.2474296 C6.59259737,10.254033 6.59634274,10.263469 6.59727862,10.2738523 C6.60289389,10.2927243 6.60944457,10.317257 6.61599572,10.335184 C6.62535404,10.361602 6.65530123,10.4106692 6.66746728,10.4285971 C6.67495384,10.4380331 6.69741446,10.4625658 6.71425958,10.4852112 C6.72268202,10.4937046 6.73016905,10.5040832 6.73859149,10.5154046 C6.77883288,10.5805106 6.78351227,10.6720366 6.81720255,10.7446914 C6.85089279,10.8135719 6.90985133,10.870186 6.94354179,10.9428404 C6.97068134,10.9975674 6.98378318,11.1343847 6.95102882,11.1400463 C6.81065187,11.1400463 6.80035757,10.9418968 6.75356523,10.8381046 C6.7151956,10.7569578 6.65904479,10.6899645 6.61693169,10.6125921 C6.60757337,10.5974954 6.59447154,10.5663594 6.58511275,10.5342756 C6.57669031,10.5069103 6.56452435,10.4776615 6.55329381,10.455016 C6.53551258,10.417272 6.53551258,10.4229374 6.52334663,10.3955716 C6.51024479,10.3691536 6.47093924,10.3191423 6.45970907,10.2955532 C6.45877411,10.2946199 6.45783916,10.2927066 6.45783916,10.2908352 C6.40355692,10.2040254 6.36799474,10.080418 6.32962506,10.0209731 C6.3081006,9.98889209 6.28002522,9.95586702 6.25850076,9.92284195 C6.22387441,9.86622828 6.20515749,9.79923502 6.17708211,9.73695928 C6.15087844,9.68128875 6.10876534,9.62561822 6.08256167,9.56617375 C6.0516787,9.49634968 6.04980704,9.40859768 6.01611657,9.33783048 C6.00020719,9.29914381 5.96932427,9.26045761 5.95060735,9.22460221 C5.91130179,9.14345541 5.88790562,9.05759061 5.84860011,8.97833101 C5.83081902,8.93964481 5.79619268,8.90378941 5.77747576,8.86510274 C5.74659283,8.79716588 5.72974762,8.72545508 5.69512132,8.66317934 C5.62118947,8.52919281 5.54164254,8.38105274 5.48174835,8.23951787 C5.44525034,8.15648387 5.43214851,8.07250627 5.39752221,7.99230307 C5.36663928,7.9215354 5.32359036,7.85265494 5.29270743,7.78566167 C5.27024714,7.74131387 5.26556788,7.69602294 5.24778679,7.64601354 C5.21783975,7.56769754 5.1832134,7.48655074 5.15420219,7.40823473 C5.13735693,7.3535078 5.12331926,7.235562 5.10647401,7.1883834 C5.08494954,7.12893893 5.0550025,7.064776 5.02973466,7.00627513 C4.99042911,6.92041033 4.97919894,6.829828 4.94082926,6.7430196 C4.91088217,6.67508273 4.87812754,6.60525866 4.85379553,6.5363782 C4.83227107,6.47787733 4.82665603,6.42315039 4.80325985,6.36936706 C4.78547876,6.32785006 4.76114676,6.28161506 4.74617321,6.23915446 C4.72652046,6.18820193 4.71341862,6.10422433 4.69844508,6.03628746 C4.67317724,5.96174586 4.64229431,5.89097819 4.61983397,5.81737972 C4.6057963,5.76170919 4.60392459,5.63527146 4.59175859,5.60130279 C4.51314753,5.37295952 4.44202322,5.12857552 4.36996304,4.90023225 C4.33720845,4.79455278 4.32129902,4.68887285 4.29228781,4.58696778 C4.28199352,4.54450723 4.28105764,4.49261105 4.26982751,4.45109405 C4.24923888,4.38504433 4.22209933,4.31710747 4.2015107,4.2491706 C4.19028058,4.20293579 4.18279378,4.15575742 4.1743712,4.11046621 C4.16407686,4.06328779 4.13880902,4.01422232 4.1200921,3.96704391 C4.07704317,3.82928306 4.05271117,3.6830301 4.01246978,3.54809992 C3.99936795,3.49242944 3.99936795,3.41977475 3.9843944,3.36882213 C3.93105118,3.20275422 3.91982101,3.00932289 3.871157,2.83476291 C3.85992687,2.78381024 3.85337591,2.73285761 3.8412099,2.6866228 C3.75604793,2.36014844 3.71767821,1.99404424 3.62315777,1.68077982 C3.60537668,1.62039147 3.62877281,1.54396253 3.61286343,1.47885637 C3.59321068,1.40525809 3.57355788,1.34109548 3.55296929,1.27693292 C3.54361083,1.24296449 3.54267495,1.21748813 3.53705991,1.187294 C3.52021466,1.13445422 3.49681853,1.09199367 3.46780727,1.09859863 C3.43318116,1.10897777 3.44066772,1.14105923 3.4416036,1.18540685 C3.44534804,1.25900513 3.45283368,1.31939343 3.46687139,1.37789462 C3.47903735,1.42790369 3.47061583,1.4694207 3.48465262,1.51376836 C3.5145998,1.61473006 3.52395813,1.75815236 3.54173921,1.85062194 C3.54735449,1.88836454 3.54173921,1.94026086 3.54922578,1.98460857 C3.55951998,2.03178693 3.59508197,2.09217523 3.60444071,2.14312791 C3.61473491,2.21012117 3.61379903,2.29787299 3.62409323,2.37147122 C3.63719507,2.43280312 3.65591217,2.49224787 3.67182137,2.54980551 C3.6849232,2.59981458 3.67556581,2.6479365 3.69053847,2.69417132 C3.70457619,2.74229328 3.72984398,2.78947165 3.73920249,2.84231143 C3.74668951,2.89986907 3.73826753,2.98384658 3.75043256,3.03574276 C3.82342858,3.32258731 3.84495305,3.6622716 3.92824336,3.93684978 C3.93853756,3.97647958 3.94040932,4.01894013 3.94976764,4.05856998 C4.01902024,4.30012327 4.0723635,4.55677361 4.14442364,4.79549638 C4.15378196,4.83229305 4.15284609,4.87098158 4.16220487,4.91249858 C4.18560091,4.99647619 4.20525389,5.08705852 4.22397072,5.17103612 C4.23239316,5.21160812 4.23145728,5.24746492 4.24268782,5.28520799 C4.26701974,5.37295952 4.29696688,5.45788072 4.32597814,5.54468866 C4.33627234,5.58809332 4.34095173,5.62960986 4.34843829,5.67112686 C4.35592532,5.70415286 4.37277021,5.74189452 4.38306441,5.77397552 C4.398038,5.82398492 4.39335861,5.87210666 4.4083322,5.91834166 C4.41956228,5.94475966 4.44108702,5.97495579 4.44763771,6.00326286 C4.45886778,6.05515899 4.46541893,6.10611153 4.47945665,6.15612046 C4.50004505,6.21650899 4.53186404,6.27595346 4.55619604,6.33539839 C4.57491315,6.38540733 4.57491315,6.43636033 4.59362979,6.48542566 C4.62732049,6.56845966 4.66381827,6.66847753 4.69657286,6.75906033 C4.72277653,6.83265833 4.72652004,6.908144 4.75272367,6.9826856 C4.77050489,7.032695 4.79390093,7.08364753 4.81074609,7.13271287 C4.82197617,7.17045687 4.82852732,7.20819853 4.84162916,7.24877193 C4.85379511,7.28368327 4.89310071,7.34029787 4.91836855,7.3884196 C4.93989283,7.4403162 4.92959863,7.5110834 4.9455081,7.56769754 C4.96328933,7.62525527 4.99510794,7.6714898 5.01476074,7.72433 C5.03254197,7.77811334 5.03160609,7.8356706 5.04657969,7.89039754 C5.06155328,7.93285954 5.09056458,7.97343154 5.1074097,8.01306134 C5.12425505,8.06023994 5.1411004,8.10553087 5.15794538,8.15176587 C5.17104721,8.18101654 5.19631501,8.21309801 5.2112886,8.24140461 C5.23562051,8.29424481 5.25620938,8.35368927 5.2777337,8.40841621 C5.30861676,8.48578861 5.3114244,8.58203254 5.33575617,8.67261534 C5.34230686,8.69903334 5.34043557,8.76036688 5.32639785,8.76697208 C5.28989989,8.77357681 5.2496585,8.71601908 5.2253265,8.68110728 C5.1832134,8.62071874 5.14297202,8.55466908 5.11208909,8.48295828 C5.10085897,8.45559481 5.09524388,8.43011854 5.08588542,8.40181147 C5.06248925,8.34236654 5.04470816,8.27348607 5.01756866,8.21404114 C5.00165923,8.17629854 4.97732723,8.13666874 4.96422539,8.09703894 C4.94550847,8.03948121 4.9539311,7.97154434 4.9314708,7.9215354 C4.91275388,7.8800184 4.87906341,7.8460502 4.86034645,7.8045332 C4.84724461,7.765847 4.83975786,7.72621674 4.82384848,7.68753054 C4.80325985,7.641296 4.7761203,7.6007226 4.74991663,7.5563748 C4.73119971,7.5139142 4.73400721,7.4723972 4.71903371,7.42238827 C4.70312428,7.36294333 4.68440736,7.30444247 4.65913952,7.25065913 C4.63480752,7.1959322 4.60298876,7.14120527 4.57865675,7.08459113 C4.56742658,7.05345327 4.56181154,7.0213718 4.55338892,6.9902344 C4.53841537,6.9477738 4.51595507,6.9024824 4.50004565,6.8609654 C4.49068719,6.8288844 4.48226461,6.79585933 4.46916273,6.76566506 C4.44950997,6.71943053 4.42517797,6.6675344 4.40646105,6.6165814 C4.39242333,6.576008 4.39055167,6.53166066 4.37557812,6.49108726 C4.35031028,6.41843239 4.32597828,6.33728559 4.30071044,6.26651793 C4.28573689,6.21179099 4.28105764,6.15612046 4.26421243,6.10044993 C4.2436238,6.03628746 4.21554841,5.97212499 4.19215224,5.90701892 C4.1743712,5.85512232 4.16969194,5.79945226 4.1547184,5.74566892 C4.13038639,5.67678846 4.09576009,5.61262552 4.07236396,5.53997112 C4.05832625,5.48146979 4.05551871,5.42296845 4.0433527,5.36824152 C4.00404715,5.23331139 3.96099823,5.08422772 3.91888518,4.94552365 C3.87022116,4.79172198 3.86554191,4.61716196 3.82155715,4.46147332 C3.78973839,4.35013235 3.75043284,4.24256563 3.71674237,4.13311181 C3.70457637,4.07555417 3.70270466,4.02271439 3.68866699,3.96798751 C3.6587199,3.8434366 3.61379931,3.6830301 3.57262205,3.55376134 C3.55203341,3.48582447 3.55858438,3.41600049 3.53893158,3.34334577 C3.51927883,3.26974753 3.51834299,3.18293932 3.49494682,3.10462318 C3.47997327,3.05744481 3.46219218,3.02253283 3.45096206,2.96120093 C3.43786018,2.89986907 3.43879606,2.8281579 3.43037343,2.78192313 C3.4219508,2.73568832 3.34333974,2.46394085 3.33398128,2.41298822 C3.32462282,2.36297915 3.32462282,2.27050952 3.31900774,2.23748464 C3.31339265,2.21578259 3.27315127,2.0987802 3.26847201,2.06764247 C3.26285697,2.03744835 3.26285697,2.00253631 3.2516268,1.94214801 C3.23852497,1.88175966 3.20389862,1.74777308 3.19828358,1.70908684 C3.19173262,1.66945699 3.19173262,1.5911409 3.18424587,1.5524546 C3.17582324,1.51376836 3.1505554,1.42318588 3.13277431,1.35902327 C3.11124985,1.28070718 3.12903094,1.19861678 3.10750647,1.12501855 C3.09066126,1.07029161 3.07288017,1.01745183 3.05229154,0.965555605 C3.04012554,0.922151498 3.02515199,0.860819644 3.02234445,0.833456177 C3.01953695,0.790995624 3.01672941,0.706074563 3.01392187,0.673993236 C3.01298599,0.630589129 2.99426907,0.556990896 2.99052569,0.492828289 C2.98491061,0.405076507 2.96619369,0.312606889 2.95215602,0.258823542 C2.94466922,0.226742247 2.94747677,0.188999545 2.94092585,0.159748952 C2.91846554,0.0738843057 2.89787692,-0.00537536479 2.85482799,0.000286039812 C2.82394507,0.00500387595 2.81177907,0.0314237661 2.82581676,0.0870942532 C2.84079031,0.154087548 2.84734123,0.206927329 2.86512231,0.272033489 C2.87260906,0.306945476 2.87541661,0.394697267 2.87541661,0.423947859 C2.87822424,0.471126235 2.88009586,0.481505462 2.8857109,0.527740275 C2.88945441,0.544724609 2.89694107,0.588128623 2.90255616,0.606999969 C2.90910707,0.637194236 2.91846553,0.681541803 2.9175297,0.703243857 C2.9175297,0.733438123 2.91659382,0.76551931 2.91659382,0.808923417 C2.91659382,0.831568884 2.9175297,0.839117684 2.92595228,0.877803838 C2.93531074,0.915546438 2.93905412,0.924038838 2.94186166,0.955176378 C2.94373157,0.982539845 2.94092671,1.00895971 2.94279662,1.03254892 C2.94279662,1.06274319 2.94654105,1.09199367 2.95589845,1.11935713 C2.97180792,1.17691473 3.00830584,1.25523087 2.99426808,1.33920837 C2.97742273,1.42884729 3.00456228,1.51376836 3.02515114,1.5911409 C3.03450946,1.64114997 3.02515114,1.6958769 3.03450946,1.74399882 C3.05229069,1.81004854 3.06913558,1.87987256 3.08598102,1.94969653 C3.10001873,2.00631062 3.09066041,2.05726325 3.105634,2.11199018 C3.12528699,2.18653201 3.17675836,2.28843731 3.18424511,2.3224057 C3.18986038,2.3563739 3.1889245,2.44790021 3.19828282,2.5064014 C3.20857702,2.563959 3.22261474,2.63095231 3.22635825,2.66775145 C3.23103764,2.70549405 3.2254233,2.72153478 3.22916774,2.74889825 C3.23291218,2.77626172 3.26940912,2.90741759 3.27502439,2.94138602 C3.28251096,2.97535423 3.2806392,2.99328225 3.28812623,3.02819424 C3.29467691,3.06499324 3.3246241,3.20558493 3.33023937,3.25087619 C3.33772593,3.29711072 3.33585464,3.32353087 3.34427708,3.36976568 C3.35737892,3.43958965 3.38545435,3.49809085 3.39949201,3.56508416 C3.40885033,3.61603679 3.4060427,3.64717452 3.41165797,3.68680436 C3.42663156,3.75002337 3.44721996,3.80663746 3.45845027,3.8660822 C3.46780859,3.91326057 3.46874447,3.95855183 3.47716738,4.00667375 C3.49869166,4.1076355 3.51272937,4.20954075 3.54080494,4.3105025 C3.55765029,4.36994725 3.59134061,4.42467418 3.6091217,4.48223178 C3.62315942,4.53507156 3.62783881,4.5926292 3.64187652,4.64452542 C3.65591424,4.68887276 3.6867973,4.73038985 3.69802729,4.77851205 C3.70551385,4.82002672 3.70457797,4.86248965 3.712065,4.90495025 C3.7223592,4.95212838 3.74294806,4.99930699 3.75230638,5.04837232 C3.75979295,5.08517365 3.75605082,5.12102719 3.7663441,5.15971339 C3.77851006,5.20217539 3.8000348,5.24086019 3.810329,5.28143359 C3.81968732,5.33332972 3.81968732,5.38522585 3.83278915,5.43806559 C3.84776275,5.49845412 3.87303054,5.55789859 3.89174746,5.61356912 C3.90952869,5.66546526 3.9001699,5.72302299 3.91607937,5.77963712 C3.94976961,5.90230092 3.99001123,6.03817466 4.03025261,6.15328966 C4.04803384,6.21462179 4.0452262,6.27878426 4.06768636,6.34577753 C4.08453171,6.39012486 4.10324835,6.42031959 4.12196546,6.4590058 C4.13600317,6.49863513 4.12290041,6.5420398 4.13506729,6.58733073 C4.15472028,6.6618728 4.16501448,6.76283473 4.19215389,6.83548913 C4.22116519,6.91757953 4.26889328,6.9845728 4.29696866,7.064776 C4.32597997,7.1487536 4.32785173,7.2327312 4.35592702,7.32048273 C4.38119481,7.3950248 4.41956453,7.46390527 4.44763991,7.53184214 C4.47103595,7.5912866 4.4626135,7.67054667 4.48507366,7.73470914 C4.51127733,7.8035896 4.55900551,7.85642934 4.58614501,7.927197 C4.61515632,8.00834381 4.63480903,8.08949061 4.65914103,8.16969381 C4.66849935,8.20460514 4.67411463,8.23857427 4.68066531,8.27254247 C4.7106125,8.37822194 4.76676317,8.46597394 4.80326118,8.56599228 C4.81729889,8.61222494 4.8210424,8.65185661 4.83414424,8.69526081 C4.85941203,8.76791568 4.88842334,8.84245728 4.9221138,8.91039414 C4.94925335,8.97266988 4.98949469,9.03400155 5.01757012,9.09627681 C5.04283791,9.15383455 5.0475173,9.21139228 5.07184917,9.27178035 C5.09524521,9.32933808 5.1223849,9.39161381 5.14390936,9.45105828 C5.15794707,9.48785962 5.15888295,9.52088235 5.17479242,9.55485102 C5.24591673,9.71431382 5.33201459,9.87566382 5.40501056,10.0313522 C5.44338019,10.117217 5.4620972,10.2096866 5.50327442,10.2974386 C5.53415748,10.3653754 5.57252706,10.4304815 5.60340999,10.50408 C5.62212709,10.5503126 5.6277419,10.5946623 5.64739488,10.6380665 C5.68670039,10.7239308 5.7428512,10.8107392 5.78028504,10.8947168 C5.79057924,10.9173642 5.8214623,11.0079446 5.80836047,11.0428569 C5.80649056,11.0475749 5.80649056,11.0541782 5.79993803,11.0570109 C5.77373435,11.0636142 5.72132692,11.0183242 5.69137983,10.9881304 C5.58937067,10.8899988 5.57346129,10.7003418 5.50327282,10.5710732 C5.48362006,10.5333302 5.45835222,10.4927568 5.44150697,10.4540706 C5.43121267,10.4257635 5.42559759,10.3993436 5.41249575,10.3729238 C5.36851099,10.2889462 5.31329606,10.213461 5.27492634,10.1247658 C5.24591513,10.0606029 5.24217175,9.98794849 5.21503221,9.92755995 C5.09992309,9.67657122 4.9660971,9.43596115 4.85566724,9.18402881 C4.80513156,9.06985695 4.79390139,8.94058841 4.74991663,8.81603741 C4.72277708,8.74243894 4.67879232,8.68299448 4.64790935,8.61317041 C4.62451322,8.55938708 4.61889814,8.50277294 4.5936303,8.44710241 C4.56181154,8.37633474 4.51595507,8.30934147 4.48881552,8.23102547 C4.47290615,8.18101654 4.46541935,8.13006401 4.44670243,8.08099821 C4.4233063,8.02532767 4.38680829,7.97909314 4.36247629,7.9262534 C4.32784999,7.8469938 4.3222349,7.76867734 4.29696702,7.678095 C4.28199352,7.62902967 4.26234072,7.57902027 4.24736717,7.53467294 C4.23520117,7.49315594 4.22958613,7.44975173 4.21554841,7.41012193 C4.18185795,7.3148216 4.12570718,7.2317876 4.09014501,7.13460007 C4.06674888,7.069494 4.07236396,6.98646 4.0433527,6.92324113 C4.02089241,6.871345 3.97971515,6.829828 3.95912656,6.77510106 C3.93573039,6.71754333 3.95725485,6.64960646 3.93853793,6.5826132 C3.92169272,6.51845073 3.895489,6.4590058 3.87490037,6.39767366 C3.86367025,6.35898746 3.85992687,6.32218846 3.84963253,6.28538946 C3.81968544,6.20801659 3.79254594,6.12970059 3.76540639,6.05232819 C3.75043284,6.01269839 3.75043284,5.97589939 3.73452346,5.94004352 C3.712999,5.89380899 3.68024436,5.85040479 3.66246328,5.80039586 C3.64281052,5.72396659 3.63719544,5.64470699 3.61941435,5.57110852 C3.5894673,5.47109066 3.55296929,5.39183105 3.52395803,5.29653072 C3.51834299,5.26633645 3.51834299,5.23708579 3.50898453,5.20311759 C3.48558836,5.11819639 3.47435819,5.02289605 3.45096206,4.93797485 C3.4416036,4.89645785 3.44347526,4.86154605 3.43318097,4.82097265 C3.4097848,4.74076945 3.38358113,4.66056606 3.35924912,4.58413708 C3.34614728,4.53318445 3.34427557,4.48317538 3.33117374,4.43505341 C3.29280402,4.30955895 3.25724189,4.16141883 3.22074388,4.04064219 C3.21138542,4.0047866 3.21325708,3.97176177 3.20296279,3.93213192 C3.1730157,3.83588803 3.13371019,3.7207728 3.11218573,3.6216982 C3.10189139,3.56414061 3.10095556,3.50847012 3.08878955,3.45563034 C3.07381601,3.38863703 3.05041988,3.32447442 3.037318,3.25748115 C3.0326386,3.22634329 3.037318,3.20369777 3.03450851,3.17727791 C3.02889541,3.1338738 3.02515199,3.09141325 3.01766524,3.04800914 C2.97368048,2.87344916 2.90723538,2.66020288 2.86980154,2.48658646 C2.85763553,2.42336745 2.85576384,2.36014844 2.84921292,2.29787299 C2.84172615,2.25446888 2.83891861,2.20351621 2.82675261,2.15822499 C2.81271491,2.11293373 2.79306215,2.06575537 2.78557537,2.018577 C2.77621691,1.94403516 2.77621691,1.87043688 2.76498676,1.79872576 C2.76498676,1.79400776 2.76217912,1.78834662 2.76124324,1.78268502 C2.74626983,1.6930462 2.70228506,1.5118812 2.69199075,1.43922652 C2.6807606,1.35336186 2.67046629,1.26466654 2.65923613,1.18068903 C2.65736444,1.12501855 2.64800598,1.06651735 2.64145505,1.00801616 C2.6283532,0.918377238 2.60776459,0.840061144 2.59747028,0.746647964 C2.59091936,0.685316063 2.5937269,0.630589129 2.58624013,0.577749349 C2.58249674,0.544724516 2.58062505,0.488110429 2.53851197,0.488110429 C2.49827058,0.488110429 2.50388566,0.536232395 2.50107812,0.574918642 C2.49546304,0.66738827 2.51324412,0.789108471 2.52073089,0.846666111 C2.53289689,0.953289225 2.5244744,1.05802523 2.5347686,1.1665355 C2.54225535,1.2278674 2.56097232,1.2882557 2.56752324,1.34581334 C2.58249679,1.44866219 2.59279108,1.5533982 2.60589291,1.6515292 L2.60589291,1.6571908 C2.60963643,1.7034258 2.61525137,1.74871687 2.623674,1.79212098 C2.62460988,1.79683898 2.62460988,1.80155651 2.62648164,1.80533091 C2.62648164,1.80816358 2.62648164,1.81004891 2.62741752,1.81193564 C2.62835339,1.81476831 2.62835339,1.81571098 2.62928927,1.81948398 L2.63022515,1.81948398 C2.63396867,1.84024224 2.6377119,1.86005738 2.64332699,1.87987232 C2.65362128,1.91855852 2.6498779,1.9506399 2.66110808,1.9912133 C2.691991,2.11010279 2.68450425,2.23937156 2.71819469,2.35448679 C2.76498701,2.52715962 2.78931901,2.71870384 2.83891886,2.88854601 C2.85108486,2.93855508 2.83891886,2.98856416 2.85295657,3.04234749 C2.86605841,3.09707443 2.88009612,3.14897065 2.89319796,3.20369754 C2.90629979,3.26786015 2.89694147,3.33485346 2.91472242,3.40090317 C2.92969596,3.46129148 2.94747701,3.52262338 2.96338642,3.58018102 C2.98210353,3.65094854 2.98397482,3.72360327 3.00269193,3.80003226 C3.02515209,3.8764612 3.05042011,3.96043871 3.06445778,4.0387548 C3.07943137,4.12745017 3.08878969,4.22746831 3.10563504,4.32182509 C3.11967275,4.39919763 3.16178585,4.49261082 3.18050277,4.57753188 C3.18611804,4.60583894 3.18331226,4.63414592 3.18798933,4.66245294 C3.19828353,4.72378465 3.21700064,4.78323005 3.2291666,4.84173092 C3.23571775,4.86909625 3.23384599,4.89362658 3.24226843,4.92287725 C3.26940798,5.03421832 3.30497011,5.17481052 3.33959641,5.28615065 C3.34801886,5.31634399 3.35176237,5.34842639 3.3592494,5.38050739 C3.38170955,5.45976746 3.40510605,5.51826832 3.41446433,5.56072892 C3.42195089,5.59752559 3.42569441,5.64187572 3.43598861,5.68244912 C3.45283396,5.74283766 3.47061472,5.79567739 3.48184526,5.84851712 C3.49120358,5.89003179 3.49775473,5.92683312 3.50898481,5.96835013 C3.52208665,6.01835906 3.54173963,6.06459406 3.56232803,6.11365939 C3.59601827,6.21367773 3.59976178,6.32030079 3.63532405,6.41843193 C3.65684833,6.47598966 3.68398802,6.53260333 3.70270494,6.59393546 C3.71861441,6.6505496 3.72235792,6.71943006 3.73920281,6.78359253 C3.77382939,6.87983646 3.81032712,6.99023393 3.84495346,7.08742147 C3.88613073,7.20348007 3.91139852,7.32897467 3.94976824,7.43842853 C3.96661359,7.48277587 3.96287007,7.52523647 3.97784367,7.57241507 C4.00966261,7.68092534 4.04709626,7.80453274 4.08265844,7.9149302 C4.10137555,7.97343107 4.10137555,8.03004521 4.12477158,8.08571574 C4.16126945,8.17818527 4.21461281,8.25555767 4.24923911,8.35085801 C4.27731454,8.43294841 4.28386523,8.51409521 4.31568421,8.58863728 C4.3559256,8.68959874 4.40084619,8.79244788 4.44108758,8.89907094 C4.46729125,8.97266941 4.47664957,9.04532381 4.50659685,9.11420428 C4.53186464,9.17364921 4.56555515,9.23498088 4.59363053,9.29536941 C4.61141176,9.34820915 4.62919252,9.39916168 4.64603792,9.45200142 C4.66101151,9.49257342 4.70312451,9.56051168 4.73213577,9.61429502 C4.76489059,9.68694988 4.76956952,9.76432228 4.797645,9.84263828 C4.83975814,9.96152815 4.8987164,10.0823048 4.94738041,10.1936454 C4.9670334,10.23705 4.96984057,10.277623 4.9876218,10.323858 C5.01756898,10.4031176 5.06810457,10.4625625 5.1008592,10.5361605 C5.13267814,10.6059846 5.14110059,10.679583 5.17104763,10.7465763 C5.21690429,10.8456506 5.24965874,10.8966036 5.24965874,11.0381384 C5.24872378,11.0513498 5.2459143,11.0607858 5.23094163,11.0664464 C5.20567384,11.0768251 5.17572665,11.0315351 5.15794556,11.0154934 C5.08307788,10.9428386 5.07184771,10.8711273 5.02411957,10.7682786 C4.95299527,10.6125902 4.86221816,10.4653933 4.79202968,10.3144229 C4.75459584,10.2351628 4.73962229,10.1483549 4.70312428,10.0662645 C4.68066399,10.0171987 4.64790935,9.96718975 4.62638489,9.91812442 C4.5936303,9.84641315 4.57678504,9.77187155 4.54028708,9.70770862 C4.48881552,9.61429548 4.44670243,9.50106768 4.40458933,9.39633135 C4.38867996,9.35670155 4.38680829,9.31801535 4.36996304,9.27932915 C4.35124611,9.23781215 4.32129902,9.20195675 4.30351798,9.16138335 C4.27731426,9.09816401 4.25953317,9.01796081 4.2333295,8.95096755 C4.17624286,8.82547294 4.11260535,8.69243001 4.06394134,8.55938708 C4.01995653,8.43766687 3.99936795,8.32066467 3.95538319,8.19611367 C3.93666622,8.14516114 3.91233426,8.09043421 3.89455317,8.03853761 C3.88051546,7.99230307 3.87957962,7.95172967 3.86367025,7.90832547 C3.82342886,7.7969844 3.77195731,7.678095 3.72329329,7.57147194 C3.700833,7.5176886 3.69428208,7.46673607 3.67369345,7.41012193 C3.65029727,7.34029787 3.61941435,7.2657558 3.59508234,7.19876253 C3.56232775,7.1091238 3.56139192,7.00438793 3.52770145,6.9109748 C3.4565771,6.70905093 3.36299249,6.4986356 3.30122665,6.28633306 C3.28999648,6.23726726 3.2937399,6.18725833 3.27876635,6.13819299 C3.24601172,6.03251306 3.21138542,5.91456726 3.17863078,5.80039586 C3.14213277,5.67490126 3.14587619,5.54280192 3.10750647,5.42013812 C3.05790663,5.26067485 3.00081999,5.09460732 2.95215602,4.93797485 C2.93811831,4.89079672 2.94466922,4.84078732 2.92969569,4.78983478 C2.89694108,4.66905818 2.85482799,4.52563588 2.8145866,4.41335135 C2.79493384,4.35673731 2.79493384,4.29540541 2.77340937,4.24256563 C2.74814153,4.17745947 2.68356814,4.20104868 2.68918321,4.27370336 C2.69386246,4.33975307 2.71632276,4.42373058 2.72287368,4.45769902 C2.73036043,4.50299042 2.73036043,4.54828154 2.74065477,4.59640346 C2.76030752,4.68132452 2.78744708,4.75209218 2.81084323,4.82946458 C2.83704695,4.91061138 2.83704695,4.98515345 2.85857139,5.06818745 C2.87167323,5.10875945 2.88758261,5.15405179 2.89974861,5.19273799 C2.92408062,5.27577199 2.92408062,5.36446759 2.95215602,5.43995279 C2.9736803,5.49751052 2.98958977,5.57016492 3.00830678,5.63338426 C3.01953686,5.67489892 3.0176651,5.70886946 3.03076694,5.75038646 C3.05229122,5.82587212 3.07568772,5.90041372 3.10001958,5.97589939 C3.11124966,6.01836139 3.10750615,6.05610259 3.11592906,6.09573239 C3.1327744,6.15612046 3.14681212,6.21650899 3.16365719,6.27217953 C3.17863078,6.32501926 3.17675902,6.39861726 3.19547613,6.4552314 C3.22823095,6.55808053 3.26660044,6.6675344 3.30029091,6.76566506 C3.33959641,6.87417533 3.34427581,6.98646 3.38264534,7.09780107 C3.45283382,7.29217567 3.51647138,7.516745 3.58572397,7.7139504 C3.60444108,7.7639598 3.59882581,7.81585594 3.6137994,7.87058287 C3.63719544,7.95456047 3.65591254,8.03853761 3.68492371,8.12251521 C3.69896142,8.16214454 3.7251651,8.20271841 3.74107447,8.23857427 C3.76447051,8.28669601 3.7691499,8.33859214 3.79161015,8.38860154 C3.80939138,8.42728821 3.83465917,8.46786114 3.84963262,8.50843454 C3.8711569,8.57070981 3.86367034,8.64808221 3.88800225,8.70658354 C3.90578348,8.75376214 3.93105127,8.80565828 3.9497681,8.85472361 C3.9703565,8.90850694 3.96942108,8.96700828 3.99188124,9.01796081 C4.00966247,9.06136548 4.04148109,9.10382561 4.06206972,9.14722981 C4.08265812,9.18780181 4.08640163,9.23120695 4.10137522,9.27744195 C4.12009233,9.32462055 4.14536012,9.37274228 4.16501278,9.41709008 C4.18653706,9.46615542 4.18747294,9.52276955 4.21086944,9.57466568 C4.22958654,9.61901302 4.25953341,9.66147408 4.27731449,9.70959582 C4.29509572,9.75960475 4.2960316,9.81338808 4.31381237,9.86622828 C4.34375955,9.94265708 4.39055176,10.0096504 4.42330639,10.0823052 C4.44763831,10.1360886 4.45044594,10.1974202 4.4747779,10.2530908 C4.50191745,10.3172532 4.54028717,10.379529 4.56929839,10.4408606 C4.60673214,10.5257818 4.63480761,10.614477 4.67224145,10.693737 C4.7340073,10.8352719 4.75553176,10.9900172 4.82010516,11.1287212 C4.8668975,11.2334576 4.93147089,11.3297015 4.97732732,11.430663 C5.00165923,11.4882207 5.01008214,11.5486088 5.03628567,11.601449 C5.0643611,11.6627806 5.11583256,11.7146768 5.14297211,11.7778961 C5.16543227,11.8392278 5.1832135,11.9024466 5.20941721,11.9618916 C5.24591508,12.0402076 5.29551507,12.1109752 5.3310772,12.187404 C5.3516656,12.2308087 5.36102438,12.2732688 5.38067709,12.316673 C5.41904672,12.4025378 5.48362015,12.4723614 5.52292571,12.556339 C5.54164281,12.611066 5.56223121,12.6657929 5.58094818,12.722407 C5.62306132,12.8120458 5.68950633,12.888475 5.73349109,12.9790574 C5.76343828,13.0460506 5.78496265,13.1158747 5.8242682,13.1772064 C5.88416234,13.2725067 5.92346789,13.3347824 5.9824262,13.43197 C6.02079582,13.4942452 6.07226742,13.5857712 6.10315035,13.653708 C6.13403341,13.7216449 6.18550483,13.7773154 6.21545192,13.8433651 C6.24633498,13.9084712 6.28564035,13.9792388 6.3202667,14.040571 C6.3595722,14.110395 6.39887776,14.160404 6.44286256,14.2264536 C6.51211516,14.3330767 6.55609992,14.4472486 6.62535256,14.5557588 C6.6730807,14.631244 6.72829563,14.7076729 6.78070302,14.7803277 C6.9220158,14.9756464 7.12322263,15.3219355 7.20838479,15.4389381 C7.28044466,15.5332949 7.33940315,15.6465227 7.4058482,15.7446538 C7.45544791,15.8229698 7.51908579,15.8984555 7.57430077,15.9701663 C7.62015511,16.0286676 7.65571895,16.0928301 7.69970385,16.1551058 L7.73526446,16.2022839 C9.53302493,18.5074194 11.381321,20.0322248 12.9460561,21.0333498 L12.9451304,21.0342832 C13.7705469,21.5532454 14.2150739,21.7042158 14.2150739,21.7042158 C14.3189527,21.7485632 14.2487646,21.8249924 14.1944864,21.8589611 L4.91462555,27.8430768 C4.88561424,27.8628915 4.81449002,27.9157312 4.84350124,27.9742325 C4.86502552,28.0185799 4.95861031,27.9940472 4.98387819,27.9855539 C12.4322782,25.350171 17.8358543,23.1827964 21.1393918,21.602321 C24.4887855,20.0001433 25.6136726,19.0829958 25.4910766,18.6263088" id="Shape" fill="#006B6E" fill-rule="nonzero"></path>
    </g>
</svg>