<?xml version="1.0" encoding="UTF-8"?>
<svg width="28px" height="28px" viewBox="0 0 28 28" version="1.1" xmlns="http://www.w3.org/2000/svg" xmlns:xlink="http://www.w3.org/1999/xlink">
    <title>CY</title>
    <g id="CY" stroke="none" stroke-width="1" fill="none" fill-rule="evenodd">
        <path d="M22.7684211,7.74050633 C20.7789474,8.10443038 18.4210526,8.9778481 17.3157895,9.34177215 C16.8736842,9.48734177 15.6947368,9.92405063 15.6947368,9.92405063 C15.6947368,9.92405063 16.4315789,9.41455696 16.9473684,9.05063291 C18.1263158,8.32278481 20.2631579,7.5221519 21.6631579,6.64873418 C25.1263158,4.31962025 25.3473684,2.5 25.3473684,2.5 C25.3473684,2.5 23.5789474,2.79113924 21.3684211,4.17405063 C20.5578947,4.6835443 19.0842105,5.62974684 17.9789474,6.93987342 C15.3263158,10.0696203 12.6,11.5253165 10.9052632,12.6898734 C11.1263158,12.3987342 11.2736842,12.1075949 11.4947368,11.8164557 C11.5684211,11.7436709 11.6421053,11.6708861 11.6421053,11.5253165 C11.7894737,11.3797468 11.8631579,11.1613924 12.0105263,11.0158228 C12.0105263,10.943038 12.0842105,10.943038 12.0842105,10.8702532 C12.1578947,10.7246835 12.3052632,10.6518987 12.3789474,10.5063291 C12.3789474,10.5063291 12.3789474,10.4335443 12.4526316,10.4335443 C13.1894737,9.56012658 13.9263158,8.75949367 14.5894737,7.88607595 C14.6631579,7.81329114 14.7368421,7.66772152 14.8105263,7.59493671 C15.9894737,6.0664557 16.8736842,4.39240506 16.9473684,2.5 C16.9473684,2.5 16.9473684,2.5 16.9473684,2.5 C15.1052632,3.30063291 13.1157895,5.84810127 12.1578947,7.95886076 C11.4947368,9.41455696 11.2,11.5981013 10.1684211,12.9082278 C9.50526316,13.7816456 8.25263158,14.5094937 7.22105263,15.3101266 C7.81052632,14.4367089 8.10526316,13.3449367 8.10526316,13.2721519 C9.50526316,8.39556962 7.51578947,6.43037975 7.51578947,6.43037975 C7.51578947,6.43037975 6.18947368,7.44936709 6.33684211,10.5791139 C6.33684211,11.0158228 6.48421053,11.5253165 6.63157895,11.8892405 C6.70526316,12.3259494 6.85263158,12.7626582 6.92631579,13.1993671 C7.07368421,14.1455696 7,14.9462025 6.41052632,15.6740506 C5.96842105,16.2563291 5.45263158,16.693038 4.86315789,17.2025316 C3.75789474,18.221519 2.57894737,19.3132911 1.76842105,20.6962025 C0.147368421,23.3164557 0,25.5 0,25.5 L0.810526316,25.5 C0.810526316,25.5 0.884210526,23.5348101 1.76842105,22.2246835 C2.50526316,21.278481 3.75789474,20.9873418 4.93684211,21.1329114 C7.29473684,21.3512658 10.3157895,22.806962 13.8526316,20.914557 C11.3473684,19.5316456 7.44210526,19.8227848 6.18947368,19.9683544 C6.04210526,19.9683544 5.89473684,19.9683544 5.67368421,20.0411392 C5.37894737,20.1139241 5.08421053,20.1139241 4.86315789,20.1867089 C4.42105263,20.2594937 3.97894737,20.3322785 3.61052632,20.4778481 C3.46315789,20.4778481 3.38947368,20.5506329 3.24210526,20.5506329 C3.24210526,20.5506329 3.16842105,20.5506329 3.16842105,20.5506329 C3.09473684,20.5506329 3.02105263,20.6234177 2.94736842,20.6234177 C2.87368421,20.6234177 2.8,20.6962025 2.72631579,20.6962025 C2.72631579,20.6962025 2.65263158,20.6962025 2.65263158,20.7689873 C2.57894737,20.8417722 2.43157895,20.8417722 2.35789474,20.914557 C3.09473684,19.6772152 3.90526316,18.8765823 4.56842105,18.4398734 C6.04210526,17.3481013 7.58947368,17.7848101 10.4631579,18.2943038 C17.5368421,19.4588608 19.5263158,17.8575949 19.5263158,17.8575949 C19.5263158,17.8575949 17.6105263,16.5474684 13.1894737,16.4018987 C12.0842105,16.4018987 10.3894737,16.3291139 9.06315789,16.5474684 C7.81052632,16.693038 6.55789474,16.9113924 5.45263158,17.4208861 C5.52631579,17.3481013 5.6,17.2753165 5.67368421,17.2753165 L5.74736842,17.2025316 C5.74736842,17.2025316 5.74736842,17.2025316 5.74736842,17.2025316 C5.89473684,17.056962 6.11578947,16.9113924 6.18947368,16.8386076 C6.70526316,16.4018987 7.22105263,16.0379747 7.73684211,15.6740506 C9.21052632,14.5822785 10.7578947,13.6360759 12.0105263,13.6360759 C14.3684211,13.6360759 16.1368421,14.8006329 18.3473684,15.0917722 C21.0736842,15.3829114 22.6947368,14.7278481 22.6947368,14.7278481 C22.6947368,14.7278481 21.9578947,13.4905063 18.7157895,12.835443 C15.4,12.1803797 13.1894737,12.6170886 11.4210526,13.1265823 C12.0105263,12.7626582 14.4421053,10.8702532 16.9473684,10.2151899 C18.7157895,9.7056962 20.8526316,10.1424051 22.5473684,9.99683544 C23.5789474,9.77848101 24.8315789,9.56012658 25.7894737,9.19620253 C27.7789474,8.54113924 28,7.88607595 28,7.88607595 C28,7.88607595 26.2315789,7.08544304 22.7684211,7.74050633" id="Path" fill="#083025" fill-rule="nonzero"></path>
    </g>
</svg>