<?xml version="1.0" encoding="UTF-8"?>
<svg width="28px" height="28px" viewBox="0 0 28 28" version="1.1" xmlns="http://www.w3.org/2000/svg" xmlns:xlink="http://www.w3.org/1999/xlink">
    <title>CZ</title>
    <g id="CZ" stroke="none" stroke-width="1" fill="none" fill-rule="evenodd">
        <path d="M14.021327,19.4876543 C15.3009479,20.3950617 16.3246445,21.7345679 16.6658768,23.3333333 C17.6895735,21.9506173 19.1824645,21.0432099 20.8886256,20.6111111 L20.8886256,20.6111111 L20.8886256,22.1666667 C20.7180095,23.3765432 19.4810427,28 14.021327,28 C8.51895735,28 7.28199052,23.3765432 7.15402844,22.1666667 L7.15402844,22.1666667 L7.15402844,20.6111111 C8.86018957,21.0432099 10.3530806,21.9506173 11.3767773,23.3333333 C11.7606635,21.7345679 12.7417062,20.3518519 14.021327,19.4876543 Z M9.2014218,1.33950617 C10.1824645,1.33950617 10.950237,2.11728395 10.950237,3.11111111 C10.950237,3.97530864 10.3530806,4.66666667 9.58530806,4.88271605 L9.58530806,6.91358025 C11.9739336,7.38888889 13.6800948,9.9382716 13.6800948,12.3148148 L13.6800948,18.882716 L13.6800948,18.882716 C12.57109,19.5308642 11.4620853,20.8703704 11.1208531,21.9506173 C11.035545,21.8641975 10.950237,21.7345679 10.8222749,21.6481481 L10.8222749,13.1790123 L10.8222749,13.1790123 C10.8222749,10.6296296 9.45734597,8.03703704 7.06872038,7.21604938 C7.06872038,7.21604938 7.83649289,6.87037037 8.81753555,6.87037037 L8.81753555,4.83950617 C8.04976303,4.66666667 7.45260664,3.97530864 7.45260664,3.11111111 C7.45260664,2.11728395 8.22037915,1.33950617 9.2014218,1.33950617 Z M18.8412322,1.33950617 C19.8222749,1.33950617 20.5900474,2.11728395 20.5900474,3.11111111 C20.6327014,3.97530864 20.035545,4.70987654 19.2251185,4.88271605 L19.2251185,6.87037037 C20.2061611,6.87037037 20.9739336,7.21604938 20.9739336,7.21604938 C18.542654,8.08024691 17.2203791,10.6728395 17.2203791,13.1790123 L17.2203791,21.6481481 L17.2203791,21.6481481 C17.0924171,21.7777778 17.007109,21.8641975 16.9218009,21.9506173 C16.5805687,20.8271605 15.471564,19.4876543 14.3625592,18.882716 L14.3625592,12.3148148 L14.3625592,12.3148148 C14.3625592,9.9382716 16.0687204,7.38888889 18.457346,6.91358025 L18.457346,4.83950617 C17.6895735,4.66666667 17.0924171,3.97530864 17.0924171,3.11111111 C17.0924171,2.11728395 17.8601896,1.33950617 18.8412322,1.33950617 Z M22.6374408,7.5617284 C25.9218009,7.5617284 27.5,9.46296296 27.5,11.8395062 C27.457346,13.2654321 26.4336493,14.2592593 25.0687204,14.2592593 C23.7464455,14.2592593 22.6800948,13.1790123 22.6800948,11.8395062 C22.6800948,11.1049383 22.978673,10.5864198 23.4478673,10.154321 C22.6374408,10.154321 20.8459716,10.8888889 20.8459716,13.3950617 L20.8459716,13.3950617 L20.8459716,19.9197531 C20.1635071,19.9197531 18.8412322,20.4814815 17.9028436,21.1296296 L17.9028436,21.1296296 L17.9028436,14.1296296 C17.9028436,9.41975309 20.4620853,7.5617284 22.6374408,7.5617284 Z M5.36255924,7.5617284 C7.53791469,7.5617284 10.1398104,9.41975309 10.1398104,14.1296296 L10.1398104,21.1296296 L10.1398104,21.1296296 C9.2014218,20.4814815 7.87914692,19.9197531 7.19668246,19.9197531 L7.19668246,13.3950617 L7.19668246,13.3950617 C7.19668246,10.8888889 5.40521327,10.154321 4.59478673,10.154321 C5.06398104,10.5864198 5.36255924,11.1049383 5.36255924,11.8395062 C5.36255924,13.1790123 4.2535545,14.2592593 2.97393365,14.2592593 C1.56635071,14.2592593 0.542654028,13.2654321 0.5,11.8395062 C0.5,9.46296296 2.07819905,7.5617284 5.36255924,7.5617284 Z M14.021327,-3.99680289e-14 C15.0023697,-3.99680289e-14 15.7701422,0.777777778 15.7701422,1.77160494 C15.7701422,2.59259259 15.1729858,3.32716049 14.4052133,3.5 L14.4052133,5.44444444 C15.3436019,5.57407407 16.1540284,6.22222222 16.4526066,7 C15.3436019,7.7345679 14.4478673,8.85802469 14.021327,10.2407407 C13.5947867,8.85802469 12.6990521,7.7345679 11.5900474,7 C11.9312796,6.22222222 12.6990521,5.57407407 13.6374408,5.44444444 L13.6374408,3.5 C12.8696682,3.32716049 12.2725118,2.59259259 12.2725118,1.77160494 C12.2725118,0.777777778 13.0829384,-3.99680289e-14 14.021327,-3.99680289e-14 Z" id="Combined-Shape" fill="#ED1B2F" fill-rule="nonzero"></path>
    </g>
</svg>