<?xml version="1.0" encoding="UTF-8"?>
<svg width="28px" height="28px" viewBox="0 0 28 28" version="1.1" xmlns="http://www.w3.org/2000/svg" xmlns:xlink="http://www.w3.org/1999/xlink">
    <title>DE</title>
    <g id="DE" stroke="none" stroke-width="1" fill="none" fill-rule="evenodd">
        <path d="M14,0 C6.2757732,0 0.5,6.3 0.5,14 C0.5,21.7 6.2757732,28 14,28 C21.6546392,28 27.5,21.77 27.5,14 C27.4304124,6.3 21.6546392,0 14,0 Z M14,26.74 C7.04123711,26.74 1.75257732,21.07 1.75257732,14 C1.75257732,7 6.97164948,1.26 14,1.26 C21.0283505,1.26 26.1778351,7 26.1778351,14.07 C26.1778351,21.07 20.9587629,26.74 14,26.74 Z M22.1417526,22.68 L22.1417526,20.44 L13.0953608,12.18 C12.7474227,11.83 12.8865979,11.69 13.1649485,11.69 L19.9845361,11.69 L16.5747423,14.49 L17.8273196,15.68 L24.9948454,10.08 L14.4175258,10.08 C13.0257732,10.08 12.4690722,10.08 12.121134,10.22 C11.7731959,10.29 11.3556701,10.5 11.1469072,10.99 C11.007732,11.34 11.007732,11.97 11.2164948,12.39 C11.564433,12.95 12.0515464,13.44 13.5128866,14.91 C12.121134,14.07 8.43298969,11.62 8.43298969,11.62 L9.47680412,11.62 L9.47680412,10.01 L2.93556701,10.01 L22.1417526,22.68 Z" id="Shape" fill="#F8AC00" fill-rule="nonzero"></path>
    </g>
</svg>