<?xml version="1.0" encoding="UTF-8"?>
<svg width="28px" height="28px" viewBox="0 0 28 28" version="1.1" xmlns="http://www.w3.org/2000/svg" xmlns:xlink="http://www.w3.org/1999/xlink">
    <title>DT</title>
    <g id="DT" stroke="none" stroke-width="1" fill="none" fill-rule="evenodd">
        <path d="M1.77635684e-15,13.9992549 C1.77635684e-15,6.26849574 6.26844878,6.19543466e-05 14.0007761,6.19543466e-05 C21.7315523,6.19543466e-05 28,6.26849574 28,13.9992549 C28,21.7315651 21.7315523,27.9999989 14.0007761,27.9999989 C6.26844878,27.9999989 1.77635684e-15,21.7315651 1.77635684e-15,13.9992549" id="path124-4" fill="#F5821F" fill-rule="nonzero"></path>
        <path d="M9.33747339,12.2357717 C9.33747339,12.2357717 9.37162496,12.5105403 9.8171543,12.5105403 C10.028276,12.5105403 10.5405562,12.3040758 10.8494759,12.0634598 C10.7454059,11.8911478 9.92426684,11.5387616 9.75040228,11.5480762 C9.13100839,11.5822277 8.77706918,12.3723799 9.02855257,12.3723799 C9.20086488,12.3723799 9.33747339,12.2357717 9.33747339,12.2357717 L9.33747339,12.2357717 Z M7.75561434,12.1317019 C7.92792666,12.8209496 7.82553279,13.8175664 7.96207822,13.8501657 C8.10023898,13.8859325 8.10023898,13.3704858 8.23684636,13.5412455 C8.37500711,13.7135575 8.49298647,13.9728026 8.58147212,13.8858694 C8.78638376,13.679406 8.4091598,12.2357097 8.47901517,12.0975493 C8.54570523,11.9609422 8.51316786,11.4098538 8.51316786,11.4098538 L8.10023898,11.2390941 C7.96207822,11.2390941 7.68886233,11.8662478 7.75561434,12.1317019 Z M19.3052064,1.61600704 C18.4094921,1.1658231 17.3119695,0.557297371 14.8033491,0.549463599 C8.44331137,0.527802596 2.17020586,5.46431029 2.11730367,13.9898783 C2.09097396,18.8006446 6.34761872,25.1001266 12.3273269,25.1606683 C15.7642621,25.1933307 23.5012473,22.6846527 23.4641253,13.7135575 C23.4406434,7.69815874 19.1002936,5.18954277 16.383656,5.18954277 C14.388868,5.18954277 12.8365027,6.40193639 11.8802465,8.0769341 C12.1208631,8.5923188 13.2897932,7.93877478 14.5611803,6.633239 C14.851472,6.6812998 14.905805,6.94215801 14.7676442,7.18277405 C14.6310368,7.42339009 14.2522595,10.7237105 12.2248711,11.1366385 C12.2261102,11.1440843 12.2931754,11.2390941 12.2931754,11.2390941 C12.2931754,11.2390941 14.0814994,10.8603176 14.4245718,8.79878222 C15.4988085,8.84224826 20.3577094,10.0267005 22.605533,12.8892537 C23.6363035,19.3858857 18.6516609,23.3723482 14.8716534,24.4729728 C14.4587245,23.7495725 14.4587245,23.1332856 14.388868,22.7529568 C14.3205638,22.3757326 13.6328656,18.1502062 10.9177802,17.150485 C10.3682428,17.2886454 9.64639422,19.111117 8.994401,19.2135737 C8.994401,19.2135737 8.78638376,19.0071092 10.0236182,17.804029 C10.1990361,17.6348215 10.1617789,17.391101 10.1617789,17.391101 L9.8528581,17.391101 C9.8528581,17.391101 9.92116236,17.0138779 10.0593231,16.9098689 C10.1959305,16.8057992 10.5048513,16.3603339 10.1959305,15.9831096 C10.1276274,15.8977917 10.4365471,15.5003253 10.3682428,14.7784772 C10.3465103,14.5394134 10.4644897,14.123381 10.5048513,13.8858694 C10.6089225,13.3006295 10.1276274,13.2323254 9.8528581,13.5412455 C9.57808997,13.8501657 9.37162496,14.7784772 9.30332183,14.9507891 C9.23501758,15.1231022 8.82208869,15.9489581 8.78638376,16.1538693 C8.75223219,16.3603339 8.34085555,18.4917256 8.27255129,18.6640375 C8.20263284,18.8363495 7.89377397,18.8363495 7.89377397,18.8363495 C7.89377397,18.8363495 7.65160516,18.4917256 7.65160516,18.2852611 C7.65160516,18.1129491 7.9853641,17.7326204 8.06453404,17.49511 C8.20269479,17.0821809 8.06453404,16.9440216 7.89377397,17.1861898 C7.72146165,17.4252536 7.61900583,18.1471006 7.20607695,18.3194137 C7.03531687,18.3908223 6.52458889,18.0027312 6.45007567,18.1828055 C6.40822373,18.2790521 6.1396026,18.8689487 6.38028113,18.7664931 C6.495156,18.7183084 6.34612844,18.5600297 6.75905732,18.38927 C6.88635126,18.3349991 7.27444316,19.2818767 7.10213084,19.5224927 C6.93137077,19.7631088 6.72490576,19.5907969 6.72490576,19.5907969 C6.72490576,19.5907969 6.79321001,20.2784935 6.72490576,20.3825013 C6.6566015,20.4849569 6.34612844,20.6572688 6.13966456,20.553261 C5.93319955,20.4508054 5.45351978,19.5907969 5.41781484,18.9046536 C5.40664051,18.6640375 6.55259344,14.2646459 6.41443269,13.4387899 C6.38649009,13.2695825 6.58674501,14.160638 6.62244994,13.6111019 C6.63958768,13.3006295 6.34612844,12.7169418 6.10551187,12.3040138 C5.98132354,12.0897881 5.79659217,11.9609422 5.79659217,11.9609422 L5.79659217,11.6163183 C5.79659217,11.6163183 5.14149447,11.3648355 5.59012716,8.28184641 C5.62738433,8.03967814 5.93630516,8.25228969 6.00305605,8.04278261 C7.82553279,2.23229509 12.4313981,1.03076713 15.5935651,1.03076713 C16.1431013,1.03076713 17.5184965,0.996615643 19.3052683,1.61600704 L19.3052064,1.61600704 Z M13.9790436,0.274767527 C5.86483334,0.274767527 0.847591407,7.42339009 0.847591407,13.9898783 C0.847591407,19.6948047 4.86821549,27.1880522 14.0131952,27.0840444 C20.0953592,27.0157403 26.1806289,22.0652602 26.1806289,13.9898783 C26.1806289,7.11447108 21.4024501,2.6467753 16.5218167,2.6467753 C11.6396299,2.6467753 8.82208869,7.11447108 8.82208869,7.80061434 C8.82208869,7.80061434 8.89498771,7.82706659 9.13100839,7.69815874 C10.0593231,6.32276662 12.0184072,3.16992118 16.383656,3.19475924 C19.1344463,3.21028275 25.2523153,5.05138232 25.2523153,13.9898783 C25.2523153,21.379117 19.1328941,26.2255881 12.7061043,26.1914366 C4.79991124,26.1479706 1.46543306,18.1129491 1.46543306,13.9898783 C1.46543306,12.2015582 2.18728165,1.16737534 13.9790436,0.274767527 L13.9790436,0.274767527 Z M1.77635684e-15,13.9991918 C1.77635684e-15,6.26843378 6.26844878,1.77635684e-15 14.0007761,1.77635684e-15 C21.7315523,1.77635684e-15 28,6.26843378 28,13.9991918 C28,21.7315031 21.7315523,27.9999369 14.0007761,27.9999369 C6.26844878,27.9999369 1.77635684e-15,21.7315031 1.77635684e-15,13.9991918" id="path124" fill="#000000" fill-rule="nonzero"></path>
    </g>
</svg>