<?xml version="1.0" encoding="UTF-8"?>
<svg width="28px" height="28px" viewBox="0 0 28 28" version="1.1" xmlns="http://www.w3.org/2000/svg" xmlns:xlink="http://www.w3.org/1999/xlink">
    <title>DX</title>
    <g id="DX" stroke="none" stroke-width="1" fill="none" fill-rule="evenodd">
        <path d="M28,14.0001451 C28,6.26811947 21.7318805,-3.55271368e-15 14.0001451,-3.55271368e-15 C6.26782919,-3.55271368e-15 -3.55271368e-15,6.26811947 -3.55271368e-15,14.0001451 C-3.55271368e-15,21.7318805 6.26782919,28 14.0001451,28 C21.7318805,28 28,21.7318805 28,14.0001451" id="path3590" fill="#FFFFFF" fill-rule="nonzero" transform="translate(14.000000, 14.000000) scale(-1, 1) rotate(-180.000000) translate(-14.000000, -14.000000) "></path>
        <path d="M28,14.0001451 C28,6.26811947 21.7318805,-3.55271368e-15 14.0001451,-3.55271368e-15 C6.26782919,-3.55271368e-15 -3.55271368e-15,6.26811947 -3.55271368e-15,14.0001451 C-3.55271368e-15,21.7318805 6.26782919,28 14.0001451,28 C21.7318805,28 28,21.7318805 28,14.0001451 Z" id="path3594" fill="#FFFFFF" fill-rule="nonzero" transform="translate(14.000000, 14.000000) scale(-1, 1) rotate(-180.000000) translate(-14.000000, -14.000000) "></path>
        <path d="M18.0559171,12.4284852 C19.9369626,10.9468717 21.5216273,9.50792996 22.6694133,8.25767337 C23.7318556,8.70442166 25.8715448,9.52679847 27.7244326,9.82317924 C28.1523124,12.5178929 27.7717491,15.2831459 26.6474761,17.7563723 L18.0559171,12.4284852" id="path3598" fill="#009A68" fill-rule="nonzero" transform="translate(22.975707, 13.007023) scale(-1, 1) rotate(-180.000000) translate(-22.975707, -13.007023) "></path>
        <path d="M23.0361011,18.8856091 C23.9057943,19.6284479 24.6962398,20.4937869 25.3821827,21.4764009 C26.0689965,22.4549509 26.6097971,23.4941705 27.0144541,24.5659019 L24.2303327,22.2804898 L23.0361011,18.8856091" id="path3602" fill="#FCD213" fill-rule="nonzero" transform="translate(25.025278, 21.725756) scale(-1, 1) rotate(-180.000000) translate(-25.025278, -21.725756) "></path>
        <path d="M20.4870523,24.984235 C18.9209658,25.6333118 17.0256964,26.6301497 14.9896389,27.8905663 L12.9300683,18.0057886 C15.6337809,17.7938807 18.361587,18.382288 20.745696,19.7033741 C20.3932903,21.5373934 20.4353816,23.8320946 20.4870523,24.984235" id="path3606" fill="#1F4FA2" fill-rule="nonzero" transform="translate(16.837882, 22.927057) scale(-1, 1) rotate(-180.000000) translate(-16.837882, -22.927057) "></path>
        <path d="M10.0282945,6.6018599 C9.64279627,7.0770561 10.0332293,16.5383083 10.136861,18.9886022 C5.4014452,22.581457 2.34881035,26.4230859 2.56071825,27.4486621 C-1.73723835,21.1802523 -0.19466498,12.597402 6.04994142,8.23384099 C7.44621127,7.25558124 8.96120758,6.56876743 10.5177146,6.164691 C10.2965176,6.33392703 10.1223467,6.48458484 10.0282945,6.6018599" id="path3610" fill="#D22027" fill-rule="nonzero" transform="translate(5.323166, 16.806677) scale(-1, 1) rotate(-180.000000) translate(-5.323166, -16.806677) "></path>
        <path d="M13.2633733,0.127659743 C15.5209181,1.06353791 24.2869382,4.67003614 24.8651855,4.46828821 C25.0062639,4.42097179 25.213237,4.30369673 25.4434328,4.15797377 C24.531358,5.48399469 23.3696383,6.67387204 21.9733684,7.6518415 C15.7278912,12.0206276 7.14126709,10.539014 2.72081031,4.35507714 C3.60908177,4.90052226 8.26960407,3.35359462 13.2633733,0.127659743" id="path3614" fill="#009A68" fill-rule="nonzero" transform="translate(14.082122, 5.144801) scale(-1, 1) rotate(-180.000000) translate(-14.082122, -5.144801) "></path>
    </g>
</svg>