<?xml version="1.0" encoding="UTF-8"?>
<svg width="28px" height="28px" viewBox="0 0 28 28" version="1.1" xmlns="http://www.w3.org/2000/svg" xmlns:xlink="http://www.w3.org/1999/xlink">
    <title>DY</title>
    <g id="DY" stroke="none" stroke-width="1" fill="none" fill-rule="evenodd">
        <path d="M23.9891539,17.3934466 C23.814542,17.2869936 23.447671,16.996022 23.4365256,16.9827154 C23.1578895,17.0155384 22.8969003,17.0217482 22.6312672,17.0492485 L22.6869944,17.077636 C23.0399335,17.3535267 23.3529348,17.5309484 23.7448829,17.7589353 C24.0931781,17.961196 24.6077262,18.222893 25.0312531,18.3958791 C25.4129846,18.5369294 25.8021464,18.6522535 26.2191718,18.7108026 C26.4485823,18.7436257 26.6779927,18.7622549 26.9092607,18.6903992 C26.6557018,18.6371726 26.5033807,18.5954785 26.2303173,18.4863642 C25.9925478,18.3923307 25.6136026,18.2468449 25.3080317,18.1031334 C24.8575699,17.8884531 24.4786248,17.691515 23.9891539,17.3934466 M21.6142453,16.4690796 C21.558518,16.5081124 21.5473726,16.5613389 21.5250817,16.6172267 C21.5046484,16.7485188 21.5055772,16.823923 21.5464438,16.9135209 L21.6096013,16.9658603 C21.6811179,17.0137642 21.7275573,17.0536841 21.8065042,17.0989266 C21.8752344,17.1423949 21.9216738,17.1690082 21.9885465,17.1938472 C21.9458223,17.0838458 21.9653268,17.0332806 22.0043358,16.9081983 C22.0191964,16.8469878 22.0721373,16.8044066 22.0869979,16.7644867 C21.9281753,16.6669048 21.776783,16.5533549 21.6142453,16.4690796 M20.7114642,15.3371292 C20.3046554,15.130433 19.8541936,14.8926879 19.2569835,14.6389749 C19.1028049,14.5724417 18.9384095,14.5342961 18.7582248,14.566232 C18.6365537,14.5813128 18.6207643,14.5688933 18.5102387,14.599055 C18.2956888,14.8084126 18.0616345,15.0177702 17.8442983,15.228902 C17.8201498,15.2661605 17.7597787,15.2909996 17.7430605,15.3326937 L17.8842361,15.4080979 L17.937177,15.4080979 C18.2585374,15.2741445 18.469372,15.1703528 18.7814445,15.0239799 C18.901258,14.9680921 19.0210716,14.9148656 19.1436715,14.868736 C19.2867047,14.8563164 19.3740107,14.918414 19.5012545,14.9654308 L19.5932045,15.0177702 C19.7715316,15.1259974 19.839333,15.1588204 19.9405708,15.2253536 C20.2823645,15.4364854 20.5387098,15.581084 20.8628565,15.7762479 L20.9278716,15.817942 C21.0941245,15.7531831 21.1674986,15.7203601 21.32725,15.6591496 C21.1182729,15.5402771 20.9102246,15.4382596 20.7114642,15.3371292 M27.6346434,15.0523674 C27.1321696,15.2954351 26.6334109,15.5092283 26.1142189,15.7549573 C26.1783052,15.9013302 26.1987385,16.0272996 26.1513704,16.1710112 C26.1337234,16.2694802 26.0166962,16.374159 25.9247463,16.4087562 C25.8197934,16.4309339 25.7324874,16.4211757 25.603386,16.358191 C25.4612815,16.2978677 25.3860498,16.2357701 25.2736665,16.1914147 C25.2448741,16.2038342 25.2216545,16.2135924 25.2021499,16.2286732 L25.2049363,16.2313345 C25.123203,16.2614962 25.0804788,16.2818997 25.0071046,16.3200454 C25.0879091,16.3617395 25.166856,16.4238371 25.2513756,16.4646441 C25.6591132,16.7352121 26.0826401,16.9889252 26.4810898,17.2869936 C26.8656077,17.5699812 27.261271,17.8520817 27.518545,18.2424094 C27.579845,18.3577335 27.6717949,18.4854771 27.6346434,18.6309629 C27.6132813,18.6779796 27.6207116,18.7072542 27.5603405,18.754271 C27.5296905,18.7853198 27.4758208,18.8048361 27.4368118,18.8225783 C27.3392891,18.8687079 27.3067816,18.8837888 27.1702499,18.9219345 C26.9854212,18.9538704 26.7894471,18.9884676 26.5962594,19 C26.5488913,18.9955645 26.4996656,18.9929031 26.454155,19 C26.1495128,18.9858063 25.8504433,18.9272571 25.5532315,18.8518529 C25.1297045,18.7445128 24.6467352,18.5369294 24.1256856,18.271684 C23.5730573,17.9922448 23.0566517,17.6560307 22.5393172,17.2976389 C22.4622279,17.4040919 22.3015477,17.5185289 22.1427251,17.4998996 C21.8733769,17.4431247 21.6207468,17.2417511 21.4126984,17.0749747 C21.3746182,17.0811844 21.3421106,17.0927168 21.2966001,17.0927168 C21.2613061,17.1131203 21.2120804,17.0989266 21.1767865,17.1202172 C21.1303472,17.1086848 21.100626,17.1361852 21.0597593,17.1388465 C20.589793,17.2115894 20.0919631,17.2612674 19.6294272,17.3082842 C19.2792744,17.3632849 18.9161186,17.4058661 18.561322,17.4404634 C18.2585374,17.4697379 18.0356284,17.5185289 17.7486332,17.5034481 C17.6130303,17.4777219 17.5099349,17.3765915 17.3891926,17.3153811 C17.3111745,17.2417511 17.1922897,17.1876374 17.1328474,17.0900555 C17.1198443,17.0554583 17.1244883,17.0244095 17.1412064,16.996022 C17.3195336,16.9108596 17.5229379,16.9019885 17.6984787,16.8301327 C18.0625633,16.7485188 18.1656586,16.7121473 18.5678235,16.6190009 C18.5817553,16.6163396 18.8278839,16.5560162 19.0127125,16.5152092 C19.3164259,16.447789 19.394444,16.4185144 19.7065165,16.3360133 C20.0148738,16.2135924 20.3148721,16.063671 20.60744,15.9359274 C20.4300417,15.8108451 20.2805069,15.7176987 20.0492389,15.5668903 C19.9619329,15.5092283 19.8541936,15.4364854 19.7288074,15.3637425 C19.6786529,15.3318066 19.5597681,15.2670477 19.5337621,15.2501926 C19.4241652,15.2005145 19.3898001,15.1765626 19.2783456,15.1348685 C19.1854669,15.1189005 19.10652,15.1845466 19.0229292,15.2084985 C18.6272658,15.3743878 18.3235525,15.5039056 17.9733997,15.6520527 C17.8442983,15.6919726 17.7867135,15.6387461 17.63625,15.5677774 C17.6018849,15.5429384 17.5740212,15.5349544 17.5285107,15.5110025 C17.4913592,15.4755181 17.443991,15.4391467 17.4477062,15.3930171 C17.4347032,15.3309195 17.4913592,15.2963222 17.5220092,15.2484184 C17.7198408,15.0523674 17.9046695,14.8589778 18.1052875,14.6682495 L18.0969284,14.6620397 C17.9576103,14.680669 17.767209,14.6984111 17.6083864,14.713492 C17.4477062,14.7613958 17.2582336,14.7152662 17.1226307,14.6247811 C17.0752625,14.5609093 17.086408,14.4988117 17.1384201,14.4668758 C17.3529699,14.3692939 17.5740212,14.3222772 17.8136483,14.2513085 C17.9288179,14.2175984 18.0263406,14.1785656 18.1368662,14.1528394 C18.181448,14.1421941 18.2204571,14.1297746 18.2780419,14.1013872 C12.0663136,11.4391747 6.05891841,10.222949 3.69051123,10.4961784 C1.56265991,10.7410204 1.80693093,14.1182422 5.17564185,16.8123906 L4.29329407,16.8115035 C0.0468793193,13.6028322 -1.40574375,9.69600661 1.5635887,9.11849901 C4.86356937,8.47800671 11.5787003,10.4890816 18.5046659,13.8175125 C18.6476992,13.7607375 18.8371717,13.8618679 18.9829913,13.8929167 L19.0675109,13.8734003 C19.4111622,13.7882379 19.7743179,13.6906559 20.1216843,13.6161388 C20.2275661,13.6374294 20.2702903,13.6525103 20.3399493,13.682672 C20.3575963,13.6977528 20.3910326,13.7092852 20.3817447,13.7412211 C20.3241599,13.9177557 20.1439752,13.9878373 20.0232329,14.1288875 C20.3808159,14.2300179 20.7300399,14.3480033 21.0801927,14.4615532 C21.6235331,14.6389749 22.0869979,14.8554293 22.5811127,15.0683354 C22.8987579,15.0355124 23.2099015,15.024867 23.5256892,15.0195444 C23.7857496,15.0071249 24.0355933,15.0177702 24.2910098,14.9822858 C24.4999869,14.9743019 24.665311,14.9450273 24.8780032,14.909543 C25.1389924,14.860752 25.411127,14.8128481 25.6739738,14.7684927 C26.0185538,14.7152662 26.3259824,14.639862 26.6659184,14.5777644 C26.8925425,14.5218766 27.0894454,14.4837309 27.3132831,14.4331657 C27.5324768,14.443811 27.7015161,14.574216 27.8872735,14.6620397 C27.9495023,14.721476 28.0275204,14.795106 27.9903689,14.8749457 C27.8705554,14.9494628 27.762816,14.992044 27.6346434,15.0523674" id="path73" fill="#003D4E" fill-rule="nonzero" transform="translate(14.000000, 14.000000) scale(-1, 1) rotate(-180.000000) translate(-14.000000, -14.000000) "></path>
        <path d="M20.9279644,12.1822354 C21.0942173,12.2469943 21.1675915,12.2798173 21.3264141,12.3410278 C21.1183658,12.4599004 20.9103175,12.5619178 20.711557,12.6630482 C20.3047483,12.8688574 19.8542865,13.1074895 19.2570764,13.3612025 C19.1028977,13.4277357 18.9385024,13.4658813 18.7583177,13.4330583 C18.6366466,13.4188646 18.6208572,13.4312841 18.5103315,13.4011224 C18.2957817,13.1917648 18.0617274,12.9815201 17.8443912,12.7703883 C17.8202427,12.7340169 17.7598715,12.7091778 17.7431534,12.6665966 L17.7431534,12.6665966 L17.8834002,12.5920795 L17.9372699,12.5920795 C18.2586302,12.7260329 18.4694649,12.8298246 18.7806086,12.9761975 C18.9004221,13.0320853 19.0211645,13.0853118 19.1437644,13.1305544 C19.2867976,13.143861 19.3731748,13.0817634 19.5013474,13.0347466 L19.5013474,13.0347466 L19.5932973,12.9824072 C19.7716245,12.87418 19.8394259,12.8404699 19.9406637,12.7748239 C20.2815286,12.5636921 20.5378738,12.4190934 20.8629493,12.2239295 L20.8629493,12.2239295 Z M21.9880821,10.8058867 C21.9453579,10.9158881 21.9657912,10.9664533 22.0048002,11.0915356 C22.0196608,11.1536332 22.0716729,11.1962144 22.0874623,11.2352472 C21.9277109,11.3328291 21.7763186,11.446379 21.6147096,11.5306543 C21.5580536,11.4916215 21.5469082,11.438395 21.5255461,11.3825072 C21.504184,11.2512151 21.5060416,11.1758109 21.5459794,11.0862129 L21.5459794,11.0862129 L21.6091369,11.0347606 C21.6815823,10.9859697 21.7270929,10.9451627 21.8060398,10.9008073 C21.8756988,10.857339 21.9221382,10.8307257 21.9880821,10.8058867 Z M26.219079,9.28901993 C26.4484894,9.25619692 26.6778998,9.23756764 26.9091678,9.30942343 C26.6556089,9.36264993 26.5032878,9.40434403 26.2302244,9.51345837 C25.9924549,9.60749186 25.6135098,9.75297765 25.3079388,9.89668922 C24.857477,10.1122566 24.4785319,10.3083075 23.9890611,10.606376 C23.8144491,10.712829 23.4475782,11.0029135 23.4364327,11.0171072 C23.1577966,10.9842842 22.8968074,10.9780744 22.6311743,10.9505741 L22.6311743,10.9505741 L22.6869015,10.9230737 C23.0398406,10.6462959 23.3528419,10.4688742 23.74479,10.2408873 C24.0930852,10.0386266 24.6076333,9.77692958 25.0311602,9.60483054 C25.4138205,9.46289319 25.8020535,9.34668198 26.219079,9.28901993 Z" id="Combined-Shape" fill="#FFFFFF" fill-rule="nonzero"></path>
    </g>
</svg>