<?xml version="1.0" encoding="UTF-8"?>
<svg width="28px" height="28px" viewBox="0 0 28 28" version="1.1" xmlns="http://www.w3.org/2000/svg" xmlns:xlink="http://www.w3.org/1999/xlink">
    <title>E4</title>
    <g id="E4" stroke="none" stroke-width="1" fill="none" fill-rule="evenodd">
        <path d="M14.9535902,1.95715179e-06 C18.962007,-0.00168836684 21.961149,1.09152818 23.9766334,3.27457672 C25.9999129,5.45480336 27,8.58271211 27,12.6504021 L27,15.6181064 L9.13905953,15.6181064 C9.22342088,16.8359894 9.47232861,17.8708221 9.90666426,18.696374 C10.343228,19.5213633 10.9156594,20.178535 11.6295297,20.6659132 C12.3308711,21.1453949 13.1424648,21.503876 14.073503,21.7159765 C15.0095527,21.9269474 16.0213313,22.0341262 17.1235979,22.0341262 C18.0791363,22.0301705 19.0012643,21.9283584 19.9167102,21.7159765 C20.8388382,21.5027485 21.670758,21.2252137 22.4314008,20.8799874 C23.1015578,20.5765034 23.7151968,20.2591999 24.2815036,19.9139736 C24.8561631,19.5662089 25.3097097,19.2621623 25.6666439,18.9950625 L26.5280776,18.9950625 L26.5280776,25.8079233 C25.8634877,26.0730473 25.252912,26.3226595 24.7027528,26.5505554 C24.1595555,26.7730909 23.3969624,27.0100109 22.4361347,27.24552 C21.5543769,27.4796202 20.6419943,27.666053 19.7039964,27.7994622 C18.768782,27.925254 17.6230839,28.000002 16.274693,28.000002 C11.3502748,27.9912616 7.56765613,26.805807 4.94048301,24.4174293 C2.31859917,22.0205879 1,18.6275551 1,14.2123818 C1.00083526,9.8905676 2.22477223,6.44253552 4.67431252,3.86546576 C7.12524769,1.28642238 10.5503727,1.95715179e-06 14.9535902,1.95715179e-06 Z M14.3115523,5.31885782 C12.7362503,5.31181368 11.4880929,5.79523624 10.5949192,6.74799308 C9.70592393,7.69680055 9.20866599,8.9973221 9.1153945,10.6374283 L18.9723079,10.6374283 C18.9311024,8.90029702 18.5257211,7.58398221 17.772038,6.67804457 C17.0250371,5.76308282 15.8651375,5.31885782 14.3115523,5.31885782 Z" id="Combined-Shape" fill="#0096CE" fill-rule="nonzero"></path>
    </g>
</svg>