<?xml version="1.0" encoding="UTF-8"?>
<svg width="28px" height="28px" viewBox="0 0 28 28" version="1.1" xmlns="http://www.w3.org/2000/svg" xmlns:xlink="http://www.w3.org/1999/xlink">
    <title>EI</title>
    <g id="EI" stroke="none" stroke-width="1" fill="none" fill-rule="evenodd">
        <path d="M5.11915293,25.5260561 C5.23640709,25.256385 5.45734433,24.6438516 5.61024521,24.1666866 C5.84891533,23.4196729 6.02027288,23.1933482 6.83851876,22.5415543 C8.11818147,21.5220272 9.83266171,19.5758833 10.8309506,18.0081316 C11.2541875,17.3447905 11.2552732,17.336974 10.892111,17.5894131 C8.85264852,19.0093609 6.33439823,20.2310525 4.77734257,20.5556171 C3.91494544,20.7355754 1.85268356,20.7862053 1.4582174,20.6375132 C1.32992542,20.589015 1.25483209,20.4701679 1.29192639,20.3731716 C1.32902068,20.2765306 1.15621555,20.0837815 0.908136139,19.9450377 C0.230486694,19.5675338 -0.0807434913,18.8604911 0.0178730501,17.9212613 C0.169688239,16.4744885 1.28993596,14.9049603 2.53033301,14.4006151 C2.92009453,14.2416193 2.99337838,14.1391159 2.93384656,13.8326715 C2.81460197,13.2203157 3.32650325,12.1471386 3.95185878,11.6973315 C4.26182234,11.4743821 4.63149866,11.1539035 4.77372361,10.9853147 C4.98036598,10.7398039 5.25793988,10.6675007 6.16394542,10.6227332 C6.78658674,10.5916447 7.57986182,10.6413864 7.92583398,10.7330532 C9.19337319,11.0679214 10.4125994,12.3723974 11.4561252,14.5105797 C11.7858121,15.185468 12.1030135,15.7368902 12.1612787,15.7368902 C12.2195439,15.7368902 12.3896348,15.421741 12.5394596,15.0373088 L12.8114241,14.3375497 L12.4127961,14.0518902 C12.1933065,13.8955592 11.8015545,13.4414886 11.5415326,13.0442656 C10.1344826,10.8916937 9.96891539,7.95817713 11.1271621,5.68746869 C11.8406392,4.28812818 13.1344159,2.83975657 13.5547576,2.97068382 C13.7514478,3.03179505 13.9774516,2.95558366 14.1942271,2.75608393 C15.2317816,1.79891157 17.5309042,1.73495796 17.8902665,2.65340286 C17.9687978,2.85414613 18.0701286,2.84028952 18.6357713,2.55072178 C19.5187965,2.09878294 21.0090824,2.00800435 21.9226878,2.35051146 C22.7376766,2.65624524 23.1750274,3.15703753 23.4028406,4.04581506 C23.4996477,4.42207546 23.6612341,4.70009602 23.7839167,4.70009602 C24.0551574,4.70009602 24.0515384,4.88467324 23.7574983,5.99142599 C23.145171,8.3001513 21.6347999,9.80146228 17.3747462,12.3363347 C14.6098641,13.9822519 14.0377072,14.4176694 13.7487336,15.0961106 C13.6231559,15.3910078 13.5391961,15.6507305 13.5623574,15.6731142 C13.5855187,15.6956757 14.0196124,15.4068185 14.5268091,15.0300252 C16.9364907,13.2435877 20.3285378,11.2299372 21.7600157,10.7360732 C22.2487557,10.5674844 23.2376353,10.3548387 23.9578075,10.2637048 C25.1165971,10.1166115 25.2834309,10.1260269 25.4068373,10.3424032 C25.4839211,10.4774164 25.8213887,10.6602171 26.1570468,10.7486863 C26.4928859,10.8376884 27.0449576,11.1693589 27.3840537,11.4859293 C27.948068,12.0130136 28,12.1274195 28,12.8456541 C28,13.7632108 27.7383495,14.4501791 27.1833827,14.9893436 L26.7858404,15.3760853 L27.2391146,16.2581121 C27.9525917,17.647149 27.8257473,18.801867 26.8327059,19.958539 C26.5880645,20.242955 26.3872124,20.5826197 26.3857648,20.7128363 C26.3825078,21.0509022 25.0538082,21.7140656 23.6112925,22.0984979 C22.5972611,22.3687019 22.1405489,22.4100941 21.0317009,22.3337051 C18.113737,22.1326065 15.7652157,20.8064573 13.6879352,18.1863135 L12.849966,17.1298354 L12.2070585,18.2374763 C10.8000086,20.6609629 8.99469253,22.8213513 6.76487301,24.7509738 C5.15299016,26.1449849 4.77299982,26.3245879 5.11915293,25.5260561 Z" id="path1353" fill="#64B447" fill-rule="nonzero"></path>
    </g>
</svg>