<?xml version="1.0" encoding="UTF-8"?>
<svg width="28px" height="28px" viewBox="0 0 28 28" version="1.1" xmlns="http://www.w3.org/2000/svg" xmlns:xlink="http://www.w3.org/1999/xlink">
    <title>EK</title>
    <g id="EK" stroke="none" stroke-width="1" fill="none" fill-rule="evenodd">
        <g id="Group" fill-rule="nonzero">
            <rect id="Rectangle" fill="#D71A21" x="0" y="0" width="28" height="28"></rect>
            <path d="M18.9753584,16.2427734 C18.9753584,16.2427734 19.5533449,16.794623 19.6379283,16.8795229 C20.1172342,17.3040226 20.3850817,17.9124722 20.3991789,18.5492218 L20.3991789,18.5492218 L20.3991789,21.3650697 C20.3991789,22.383869 20.103137,23.4734182 19.2995947,24.2799677 C18.411469,25.171417 17.199107,25.6666667 15.9444532,25.6666667 L15.9444532,25.6666667 L14.6334105,25.6666667 L12.6738951,23.9545179 L15.9444532,23.9262179 C17.2132042,23.9262179 18.1295244,23.0489185 18.4537607,22.7376188 C20.3004983,20.94057 20.3004983,19.8085709 19.7225117,19.1859713 C19.6097338,19.0586214 18.9753584,18.4077219 18.9753584,18.4077219 L18.9753584,18.4077219 Z M5.34552753,15.0259773 C5.38160076,15.0285536 5.85029205,15.0955358 5.83673702,16.837073 L5.83673702,16.837073 L5.83673702,18.6199717 C5.83673702,20.7990701 7.79625243,22.0867192 9.23417022,22.0584192 L9.23417022,22.0584192 L13.1672983,22.0584192 C14.0413267,22.0584192 14.7743829,20.7849202 13.8439655,20.0491207 C13.6466042,19.8934708 13.1954927,19.4123711 13.1954927,19.4123711 L13.1954927,19.4123711 L13.1954927,17.2049727 C13.1954927,17.2049727 13.6466042,17.6436224 13.815771,17.8134223 C14.0836184,18.0822721 14.6193133,18.4643218 14.6193133,19.3982211 L14.6193133,19.3982211 L14.6193133,20.4736204 C14.6193133,21.4301597 14.3122442,21.8127754 13.991763,22.1741347 L13.8439655,22.341419 C13.7311876,22.468769 13.4210485,22.8225187 13.1813955,23.0347685 C12.5329228,23.6149181 12.1522975,23.869618 11.0809078,23.869618 L11.0809078,23.869618 L9.29055915,23.869618 C7.14777971,23.869618 5.38562556,21.8886194 5.38562556,19.7519709 L5.38562556,19.7519709 L5.38562556,16.4550232 C5.38562556,15.422074 4.66666667,15.0258743 4.66666667,15.0258743 L4.66666667,15.0258743 Z M6.17507062,9.16777845 C6.25965402,9.19607843 6.68257101,9.36587831 6.68257101,11.0072771 C6.68257101,11.0072771 6.65437655,12.9033758 6.65437655,13.0165757 C6.65437655,13.8514251 7.31694651,14.7994744 8.26146113,14.7994744 L16.0431338,14.7853244 C16.0431338,14.5730746 16.2545923,13.7806752 16.6352176,13.3561755 C16.8466761,13.1156256 18.5242469,11.5874267 18.7075109,11.4317768 L19.2009141,11.4317768 C19.1358499,11.4970845 18.4341581,12.1170047 18.1935362,12.3678016 L18.1436216,12.4222761 L18.1295244,12.3939761 C17.9180659,12.620376 17.7066074,13.1863756 17.7066074,13.6957752 L17.7066074,14.7570245 L18.7779971,14.7570245 C19.2009141,14.7570245 19.7507062,14.3749747 19.863484,14.1768749 L19.863484,13.1156256 L19.863484,13.1156256 C20.0185536,13.3420255 20.2159149,13.5542753 20.4414706,13.7240752 C20.5542485,13.5825753 21.5410548,12.3939761 22.3586943,12.3798262 C23.7261259,12.3656762 23.4159868,14.1061249 22.8661947,14.6579745 C22.6829307,14.8419244 21.8793884,15.5777239 21.6256382,15.8182737 C20.9771655,16.4408733 19.863484,16.1437235 19.863484,14.5447746 C19.863484,14.5447746 18.6793165,15.6767738 18.4960524,15.8324237 C18.3127884,15.9880736 17.7066074,16.6389731 17.7066074,16.6389731 L17.7066074,19.4548211 C17.7066074,20.7990701 17.2695931,21.2518698 16.9030651,21.6622195 C16.7620927,21.8178694 15.2536888,23.2045684 15.0422303,23.3602183 L14.5488271,23.3743683 C14.5488271,23.3743683 15.4369528,22.5678189 15.6061196,22.383869 C15.8034809,22.1716192 16.0431338,21.7471195 16.0431338,21.03962 L16.04275,20.9465325 C16.0393791,20.2922279 16.0149394,16.6248231 16.0149394,16.6248231 L9.13548959,16.6248231 C6.73895995,16.6248231 6.23145955,13.964625 6.21736232,13.2429755 L6.21736232,10.5686275 L6.21736232,10.5686275 C6.21736232,10.1299778 5.93541765,9.39417829 5.49840342,9.16777845 L6.17507062,9.16777845 Z M8.41653069,17.4172226 C9.29055915,18.2945219 9.65708721,18.4926218 9.65708721,19.0444714 C9.65708721,19.4265211 8.45882239,20.4311704 8.38833623,20.4877704 C8.30375283,20.0774207 7.9936137,19.638771 7.10548801,18.7331716 L8.41653069,17.4172226 Z M11.095005,17.4030726 C11.9831307,18.2945219 12.3355615,18.4926218 12.3355615,19.0303214 C12.3355615,19.4123711 11.1372967,20.4170204 11.0668105,20.4736204 C10.9822271,20.0632707 10.672088,19.624621 9.78396231,18.7190216 L11.095005,17.4030726 Z M20.6811236,13.992925 C20.8784848,14.2617748 21.1040406,14.5306246 21.3436935,14.7711744 C22.1895275,15.450374 22.58425,14.7145745 22.0203607,13.950475 C21.794805,13.6391753 20.9348738,13.7240752 20.6811236,13.992925 Z M13.8721599,2.33333333 L13.8722566,2.36204093 C13.8758148,2.51204246 13.9301152,3.2247827 14.6193133,3.90398221 C14.8871607,4.17283202 15.4510501,4.88033151 15.1127165,5.23408126 C14.8166746,5.53123105 14.3514659,6.01233071 14.3514659,6.01233071 C14.3232714,5.84253083 13.8862572,5.41803113 13.8862572,5.41803113 L13.8862572,6.84718011 L13.8862572,6.84718011 C13.8721599,7.42732969 13.6607014,7.58297958 13.6607014,7.58297958 C13.6607014,7.58297958 14.7179939,8.63007884 14.7179939,9.98847787 L14.7179939,11.3751769 L14.7179939,11.3751769 C14.7320912,11.6298767 14.6334105,11.8987265 14.4501465,12.0826764 C14.3514659,12.1958763 13.3787568,13.1863756 13.2236872,13.3137255 C12.9981315,13.5118253 12.7161868,13.6250253 12.4201449,13.6108753 L8.76896152,13.6108753 C8.19097496,13.6108753 7.59889117,13.1580756 7.59889117,12.7052759 C7.59889117,12.592076 7.6129884,11.3468769 7.6129884,11.3468769 C7.79625243,11.5591267 7.9936137,11.8138266 8.44472516,11.8138266 C8.81125322,11.8138266 9.17778129,11.5308268 9.27646192,11.4176268 C9.37514255,11.3044269 12.0395196,8.53102891 12.0395196,8.53102891 C12.0395196,8.53102891 10.7989631,7.37072974 9.98132358,6.81888013 C9.58660105,6.55003032 9.05090619,6.88963008 8.96632279,7.24337983 C8.71257259,8.34707904 8.96632279,10.0167778 8.96632279,10.0167778 L7.96541923,9.01212856 C7.55659947,8.60177886 7.5706967,7.68202951 8.06409986,7.20092986 C8.13458603,7.11602992 8.88173939,6.2953305 9.81215678,6.2953305 L11.2641718,6.2953305 C12.2368809,6.2953305 13.3082706,7.27167981 13.3082706,7.27167981 C13.392854,7.17262988 13.4492429,7.05942996 13.4633402,6.93208005 L13.4627344,6.70617767 C13.4600361,6.10762204 13.4492429,5.07843137 13.4492429,5.07843137 C12.7161868,4.3426319 12.6175062,3.57853244 12.969937,3.2247827 L13.4132459,2.78229679 C13.7432799,2.45508614 13.8721599,2.33333333 13.8721599,2.33333333 Z M18.6652192,2.34748332 L19.1586224,2.36163331 C19.0458445,2.48898322 18.4255663,3.01253285 18.228205,3.2247827 C17.8616769,3.60683242 17.6643157,4.13038205 17.6784129,4.65393168 L17.6784129,4.65393168 L17.6784129,9.86112796 C17.6784129,10.5544775 17.4105655,11.219527 16.9453568,11.7289266 C16.7902872,11.9270265 15.1832026,13.3561755 15.0281331,13.4976754 L15.0281331,13.4976754 L14.5629244,13.4835254 C14.6334105,13.3986254 15.4651473,12.648676 15.6061196,12.5071761 C15.8598698,12.1817263 16.0149394,11.7996766 16.0431338,11.3893269 L16.0431338,11.3893269 L16.0431338,5.96988074 C16.0431338,5.34728118 16.2545923,4.73883162 16.6352176,4.24358197 C16.8043844,4.07378209 18.5665386,2.47483323 18.6652192,2.34748332 L18.6652192,2.34748332 Z M12.3778532,8.84232868 C12.3778532,8.84232868 10.1081987,11.191227 10.0377125,11.261977 C9.67118445,11.6440267 9.61479551,11.7289266 9.27646192,11.9411765 L13.392854,11.9411765 C14.5065354,11.9411765 14.2809797,11.247827 14.0836184,10.8940772 C13.6747987,10.1724277 12.3778532,8.84232868 12.3778532,8.84232868 Z" id="Combined-Shape" fill="#FFFFFF"></path>
        </g>
    </g>
</svg>