<?xml version="1.0" encoding="UTF-8"?>
<svg width="28px" height="28px" viewBox="0 0 28 28" version="1.1" xmlns="http://www.w3.org/2000/svg" xmlns:xlink="http://www.w3.org/1999/xlink">
    <title>EL</title>
    <g id="EL" stroke="none" stroke-width="1" fill="none" fill-rule="evenodd">
        <path d="M0.0017116039,7.00653836 C0.0118579859,7.0238632 0.445613995,7.6171929 0.565298996,7.77746774 C0.933077991,8.26996913 1.20684795,8.60449588 1.4825436,8.89827082 C2.20637964,9.66959578 3.00070787,10.1387654 4.21214649,10.5105131 C4.58733651,10.6256481 4.79197102,10.6777984 5.68671268,10.8863118 C6.36208534,11.0437004 8.63308781,11.5727634 12.9263131,12.5728713 C14.2582537,12.8831506 15.375924,13.1448692 15.4100249,13.1544656 C15.7430319,13.2481808 16.011229,13.4015843 16.3100841,13.6692658 C16.4545333,13.7986563 16.6104637,13.9732672 16.9198736,14.3521133 C17.0136565,14.4669406 17.129884,14.607041 17.1781578,14.6634474 C17.287959,14.7917464 17.4912951,14.997205 17.5873757,15.0769359 C17.8569296,15.300613 18.1250464,15.435417 18.4408097,15.5060276 C18.4849403,15.5158951 19.1397868,15.6394252 19.8960241,15.7805438 C20.6522615,15.9216551 21.8208096,16.1404608 22.4927977,16.2667746 C23.1647858,16.393081 23.7156592,16.4955429 23.7169874,16.4944745 C23.7198534,16.4920706 23.3122621,15.9685164 23.2039781,15.8355291 C22.6201198,15.1184569 22.1962111,14.7869555 21.6357165,14.6091654 C21.5835622,14.5926171 20.5282582,14.34333 19.2905966,14.055181 C18.0529349,13.7670394 17.0047502,13.5213857 16.961298,13.5092913 C16.766788,13.4551631 16.5357262,13.3500127 16.3659585,13.238372 C16.2094372,13.1354412 16.1065437,13.0511319 15.9508394,12.8982632 C15.7781905,12.7287509 15.6757127,12.6092571 15.3663466,12.216727 C15.0508969,11.8164831 14.9734387,11.7247824 14.8010742,11.5474977 C14.4510204,11.1874562 14.1097999,10.973141 13.6812739,10.8441681 C13.6271137,10.8278688 10.530133,9.95718066 6.79909461,8.90930304 C3.06805621,7.86143274 0.0111139666,7.00258991 0.00589124222,7.00077319 C-1.15799465e-05,6.99870007 -0.00162189473,7.00085377 0.0017116039,7.00653836 M4.27891129,12.8819932 C4.27891129,12.8832679 4.3519492,12.9835101 4.44120964,13.1047547 C4.95812805,13.8068609 5.26784436,14.1827475 5.5928933,14.5024694 C6.30852324,15.206385 7.05950869,15.5250593 8.56875931,15.7652555 C8.67149964,15.781606 10.890428,16.0916802 13.4997113,16.454315 C16.1089946,16.8169424 18.2701229,17.1183432 18.3022179,17.124079 C18.5120386,17.1616076 18.7514159,17.2583556 18.9265012,17.3763916 C19.1502833,17.5272605 19.3006992,17.6778656 19.6592655,18.1101 C19.7311217,18.1967242 19.8333077,18.3157344 19.8863373,18.3745656 C20.2286664,18.754364 20.5592153,18.9411206 20.9865231,18.9961791 C21.0186181,19.000318 21.6636172,19.0613322 22.4198546,19.1317743 C24.6745616,19.3417967 25.9891636,19.4647041 26.0104776,19.4674878 C26.0215139,19.4689309 26.0305369,19.4677149 26.0305369,19.464792 C26.0305369,19.4503461 25.6527866,18.9821288 25.4850394,18.7886474 C25.3741732,18.6607733 25.1362256,18.42413 25.0388101,18.344868 C24.7983679,18.1492329 24.562718,18.0312849 24.2786193,17.9643737 C24.1833264,17.9419356 24.0760782,17.9249111 23.7000056,17.8725557 C23.5114477,17.8463084 22.7991586,17.747143 22.1171408,17.6521897 C21.4351231,17.5572365 20.6407729,17.4466506 20.3519184,17.4064408 C20.0630638,17.3662311 19.7971863,17.3282483 19.7610794,17.322029 C19.4956833,17.2763691 19.2392884,17.1659297 19.0191024,17.0024389 C18.8133519,16.8496727 18.6630308,16.6939544 18.3239987,16.2823852 C18.0688,15.9725967 17.9678031,15.8603479 17.8174893,15.719471 C17.5510282,15.4697444 17.2560829,15.3072865 16.930888,15.2311379 C16.880375,15.2193072 4.29502442,12.8796857 4.28190925,12.8796857 C4.28026074,12.8796857 4.27891129,12.8807259 4.27891129,12.8819932 M7.84997823,17.7887958 C7.8873032,17.8506524 8.25606693,18.3337552 8.40979446,18.5221747 C9.1824513,19.4692093 9.78013958,19.8240937 10.8676552,19.9815262 C11.231291,20.0341673 11.5441512,20.0591107 12.2479425,20.0915847 C12.4685953,20.1017598 12.8969535,20.1215826 13.1998496,20.1356403 C13.5027458,20.1496906 13.9655696,20.1710811 14.228347,20.1831755 C14.4911245,20.1952699 14.8111622,20.21017 14.939542,20.2162795 C15.0679218,20.222389 15.9213558,20.261976 16.836062,20.3042442 C17.7507682,20.3465197 18.7125227,20.3909783 18.9732942,20.4030507 C19.2340657,20.4151231 19.6263171,20.4332611 19.844964,20.4433557 C20.7935814,20.4871695 20.7492685,20.4846056 20.8698142,20.502663 C21.0876368,20.5352908 21.2837078,20.6163769 21.4548104,20.7445807 C21.577807,20.8367429 21.6780162,20.9447722 21.9603132,21.289518 C22.1287388,21.4952037 22.2504224,21.6137598 22.3979717,21.7159433 C22.6358974,21.8807087 22.9181944,21.9695159 23.2769358,21.9924374 C23.4201668,22.0015869 28,22.0029055 28,21.9937926 C28,21.9854415 27.7742776,21.6946481 27.655271,21.5496835 C27.550357,21.42189 27.3214397,21.1861917 27.2340977,21.1160426 C26.9739462,20.9070971 26.714123,20.7946139 26.3993225,20.7546386 C26.3447903,20.747716 26.0794307,20.7342151 24.9619208,20.681508 C24.7051612,20.6693989 24.2505435,20.6479572 23.9516592,20.6338629 C23.652775,20.6197686 23.1226611,20.5950084 22.7736285,20.5788337 C22.4245959,20.5626589 22.1061994,20.5459787 22.0660807,20.5417592 C21.7246998,20.5058789 21.4502952,20.3745471 21.1891006,20.1220148 C21.0943184,20.0303727 20.9943718,19.9180799 20.8295642,19.7180496 C20.7598525,19.6334399 20.6672805,19.5240701 20.6238501,19.4750038 C20.3278982,19.1406821 20.0438433,18.9628407 19.6912656,18.891146 C19.5647021,18.8654114 19.5480711,18.8635874 18.8784682,18.8020531 C18.5494949,18.7718207 17.9258316,18.7142642 17.4925497,18.6741424 C14.5650231,18.4030619 10.7650389,18.0513934 9.45786977,17.9305811 C8.60935943,17.8521615 7.89911269,17.7859389 7.87954206,17.7834116 C7.85064931,17.7796829 7.84509104,17.7806938 7.84997823,17.7887958" id="Shape" fill="#3498DB"></path>
    </g>
</svg>