<?xml version="1.0" encoding="UTF-8"?>
<svg width="28px" height="28px" viewBox="0 0 28 28" version="1.1" xmlns="http://www.w3.org/2000/svg" xmlns:xlink="http://www.w3.org/1999/xlink">
    <title>EO</title>
    <g id="EO" stroke="none" stroke-width="1" fill="none" fill-rule="evenodd">
        <path d="M13.1743745,0.00888745085 C13.1142519,0.0146862578 12.8621466,0.0388935416 12.6141405,0.0627178853 C7.79036158,0.526157443 3.53526117,3.48847251 1.39825531,7.87100293 C1.29170153,8.0895523 1.18361736,8.31726489 1.15811988,8.37703089 C0.559625967,9.77924806 0.219058336,11.0883287 0.0517533262,12.6296352 C-0.0172511087,13.2654799 -0.0172511087,14.7290769 0.0517533262,15.3649215 C0.206569217,16.7911819 0.548885871,18.1741973 1.02666985,19.3037338 C1.07438539,19.4165643 1.13379752,19.5581154 1.15866645,19.6182917 C1.37095415,20.1318144 2.00101247,21.2822758 2.334584,21.7654915 C2.61016449,22.1646791 2.71507856,22.3102784 2.89634843,22.5450481 C4.38952241,24.4789228 6.40166441,26.0248793 8.61051687,26.9353193 C9.70280925,27.3855201 10.8479549,27.6992848 11.9992495,27.8637849 C13.3361045,28.0548173 14.8507314,28.0445053 16.1668441,27.8354474 C16.7101891,27.7491491 17.6358324,27.5446864 17.8885389,27.4551605 C17.9261156,27.441867 18.0675405,27.397446 18.2028165,27.356444 C18.3380926,27.3154694 18.6256156,27.2162059 18.8417566,27.1358705 C20.7458418,26.4281699 22.4291947,25.3455162 23.8739426,23.8994798 C25.4465059,22.3255413 26.5528451,20.5265982 27.2896485,18.3455083 C27.3573411,18.1451486 27.5339925,17.5236642 27.5770895,17.3343277 C27.7641804,16.5121279 27.8449634,16.0225117 27.9041569,15.3512451 C27.928042,15.0804517 27.9594151,14.8064034 27.9738445,14.7422609 C28.0093716,14.5843529 28.0084151,13.267121 27.9727514,13.2450746 C27.9577207,13.2357747 27.9454229,13.173164 27.9454229,13.1059306 C27.9454229,12.9231861 27.8704335,12.2263172 27.807332,11.8227258 C27.6708809,10.9499232 27.4436172,10.0661522 27.1391505,9.22420377 C27.021392,8.89851323 26.7686855,8.27169502 26.7176359,8.17861322 C26.7030151,8.15191683 26.5909683,7.92751394 26.468646,7.67994318 C25.8394349,6.40628447 24.93038,5.15070599 23.87356,4.09554195 C23.1848274,3.40791833 22.6600111,2.97593456 21.7418559,2.34093785 C21.2505443,2.00113323 20.1291197,1.38602205 19.5965695,1.16421768 C19.5364468,1.13916246 19.3950219,1.07969733 19.2822919,1.03204864 C18.1572873,0.556491769 16.7539967,0.206101593 15.3879822,0.0596543646 C15.0042902,0.0185156586 13.4460197,-0.0172071805 13.1743745,0.00888745085 M12.410434,6.63695116 C12.3541099,6.74592497 12.2598813,6.81488153 12.0011078,6.93646501 C11.7784626,7.04106236 11.7591687,7.06089318 11.6760081,7.27036141 C11.6069764,7.44421621 11.4111404,7.54440974 10.8787815,7.6781926 C10.1810305,7.8535518 9.98423803,7.94091685 9.89714213,8.11406047 C9.84581923,8.21605929 9.8220981,8.47818178 9.85549351,8.57408092 C9.88309529,8.65329481 9.97625811,8.7181758 10.0623975,8.7181758 C10.0977059,8.7181758 10.1012586,8.74626719 10.0851348,8.89706352 L10.0659775,9.07595125 L10.1784069,9.182983 C10.2997728,9.29854885 10.428326,9.33946873 10.5374486,9.29726326 C10.5748887,9.2827936 10.6901876,9.20812028 10.7937079,9.13131344 C11.0175555,8.96525421 11.097546,8.95570806 11.2723117,9.07425537 C11.4064126,9.16520364 11.5028002,9.17559773 11.6481877,9.11479231 C11.7021615,9.0922262 11.812268,9.07376302 11.892887,9.07376302 C12.0346672,9.07376302 12.0419366,9.07751036 12.115013,9.18801593 C12.1782784,9.28369624 12.1905489,9.3314817 12.1905489,9.48205921 C12.1905489,9.60476415 12.1736053,9.69658771 12.1372037,9.77126103 C12.0259768,9.9993839 11.8346774,10.2709431 11.6437605,10.4717131 C11.4151304,10.7121448 11.3174584,10.8663329 11.2759464,11.0523597 C11.2114512,11.3414248 11.0843464,11.5059249 10.7117224,11.7825991 C10.5724291,11.8859929 10.4454336,11.9949941 10.4295011,12.0248087 C10.3846004,12.1088093 10.3944933,12.2310219 10.4721335,12.5510504 C10.5319556,12.7976912 10.5397989,12.8722004 10.5199584,13.0045883 C10.4985329,13.1472881 10.4891592,13.1638366 10.4255111,13.1712493 C10.3365842,13.1815886 10.1262915,12.9988989 9.97634009,12.7809786 C9.87656378,12.6359811 9.71423255,12.4946488 9.49237988,12.3596351 C9.41206145,12.3107555 9.35038105,12.2977082 9.20185071,12.2981732 C8.98453457,12.298857 8.78443537,12.362343 8.36456046,12.5637695 L8.09127557,12.6948991 L7.58569853,12.6964583 C7.12048566,12.6978806 7.06943604,12.7029409 6.94637585,12.7597528 C6.87283489,12.793725 6.78169438,12.8525063 6.74384442,12.8903901 C6.70599446,12.9282464 6.58170449,13.0045062 6.46763538,13.0598137 C6.35359359,13.1151212 6.25553898,13.1636725 6.24974534,13.1676934 C6.22047652,13.1879619 6.34616025,13.3231397 6.50083949,13.4377482 C6.64294764,13.543002 7.07457379,13.7511026 7.15079295,13.7511026 C7.16131442,13.7511026 7.18331385,13.6741863 7.19965629,13.5801472 C7.23318834,13.3874463 7.26390557,13.352544 7.50923341,13.2286082 C7.83884232,13.062084 8.26986725,12.9305167 8.48589896,12.9305167 C8.6808604,12.9305167 8.87224181,13.0586922 8.95775265,13.2465243 C8.99623116,13.331072 8.86688542,13.7837893 8.7688308,13.9077251 C8.72685424,13.9607623 8.67230658,14.0303206 8.64760163,14.0622688 C8.62289667,14.0942169 8.58294242,14.1872166 8.55878404,14.268947 C8.48595361,14.5152595 8.50470096,15.992998 8.58163065,16.0699689 C8.62030046,16.1087006 9.00246206,15.6425531 9.11817088,15.4155243 C9.18709333,15.2803465 9.18580889,15.2544707 9.09740123,14.9906249 C9.02265781,14.767535 9.02257582,14.7665503 9.07608501,14.707304 C9.12380055,14.6544309 9.12880166,14.6148787 9.1210677,14.3499662 L9.11237724,14.0520661 L9.28503863,13.8606235 C9.38000513,13.7553149 9.47877029,13.6623152 9.5044864,13.6539179 C9.58086953,13.6290268 9.65432851,13.6870422 9.81206855,13.8968113 C10.1487282,14.344523 10.6888211,14.7211992 10.9680363,14.7030643 C11.0776509,14.6959525 11.1041322,14.6820299 11.1563296,14.6042931 L11.2170535,14.5138372 L11.2565978,14.5769402 C11.278324,14.6116784 11.3913546,14.8000849 11.5077466,14.9956579 C12.0180515,15.8530334 12.3753988,16.2980371 12.7097902,16.4925159 C13.1741559,16.7626255 13.8550725,17.203581 14.1574623,17.4300627 C14.5448709,17.7202218 14.5962758,17.7970834 14.6202429,18.1220354 C14.6660181,18.7423436 14.6982111,18.9064882 14.892216,19.5088803 C14.9309678,19.6292329 14.9752946,19.7780051 14.9907079,19.839467 C15.0061485,19.9009562 15.0688401,20.0288582 15.1300832,20.1236906 C15.2583631,20.3223271 15.6363708,20.7111207 15.8044957,20.8173318 C15.9381046,20.9017701 16.1121871,21.1451559 16.1121871,21.247565 C16.1121871,21.4147457 15.7375682,21.8354601 15.3604897,22.0917838 C15.0037163,22.3342669 14.886887,22.4417089 14.8515239,22.5598186 C14.834061,22.6181896 14.7524308,22.7495381 14.6701447,22.8516737 C14.4775335,23.0908197 14.4255548,23.209367 14.4027081,23.4618613 C14.3823757,23.6864557 14.4464337,24.0001383 14.5182803,24.0277374 C14.5808626,24.0517805 14.7085413,23.9821128 14.8326126,23.8562075 C14.9605373,23.7263635 14.984805,23.6711654 14.9889862,23.5005383 C14.994042,23.2941883 15.0629098,23.1252023 15.1665667,23.0647525 C15.2181629,23.0346643 15.3455683,22.8992129 15.4496626,22.7637615 C15.6458538,22.5084773 15.8340924,22.3490648 15.9064856,22.3768553 C15.9981453,22.4120584 15.9371755,22.7510425 15.7856937,23.048204 C15.7527355,23.1128935 15.6374639,23.2603254 15.5295437,23.3758639 C15.2484156,23.6768548 15.0880247,23.9005739 15.0462121,24.0500573 C15.0130626,24.1685772 15.0142104,24.1834025 15.0590018,24.2161986 C15.1937039,24.3147783 15.7741064,24.351732 15.8669413,24.267622 C15.9283757,24.2119862 15.9749981,24.0658672 15.9757906,23.9263676 C15.9765832,23.7890289 16.0299284,23.7048368 16.1383678,23.6697431 C16.2277866,23.6408311 16.2392099,23.6221491 16.3494531,23.3246047 C16.4135657,23.1515978 16.5235082,22.8438781 16.5937698,22.6407831 C16.664004,22.4376881 16.7428193,22.2407475 16.768918,22.2031373 C16.8317736,22.1124899 16.9093045,21.9737835 17.0860925,21.6357021 C17.2187176,21.3821137 17.2326552,21.3388415 17.2326552,21.1809608 C17.2326552,20.9377938 17.1760852,20.8014945 16.9935855,20.6048001 C16.9071182,20.5116362 16.7940876,20.3500355 16.7423821,20.2456843 C16.6907039,20.1413332 16.6080079,19.9936277 16.55868,19.9174773 C16.4267107,19.7137806 16.385472,19.5969838 16.385472,19.4268217 C16.385472,19.2203349 16.4295802,19.1287849 16.6435349,18.8911706 C16.7439945,18.7795982 17.0006636,18.4450727 17.2139078,18.1478292 C17.743042,17.4101498 17.7350075,17.4224312 17.8043125,17.2475917 C17.8807776,17.0546993 17.9434418,16.9933469 18.0393922,17.0174721 C18.1314345,17.0405853 18.3336107,17.2435161 18.4058945,17.3853407 C18.4682035,17.5075807 18.4822777,17.7674602 18.4356826,17.9360906 C18.4211438,17.9887449 18.3973134,18.1165375 18.38272,18.2200954 C18.3681539,18.323626 18.3007618,18.5513386 18.2330145,18.7261234 C17.6451514,20.2422105 17.6851876,20.1016442 17.6864721,20.6440241 C17.6873739,21.0304927 17.6965289,21.1267748 17.7501474,21.3141692 C17.7845813,21.4345218 17.8316683,21.5699185 17.8547609,21.6150507 C17.9205679,21.7436092 18.2655354,22.1122711 18.361841,22.156993 C18.7247087,22.3254866 18.6978448,22.3197152 19.048524,22.3046164 C19.4986788,22.2852779 19.8664656,22.167223 20.065581,21.9782147 C20.1131326,21.9330825 20.2422597,21.8322324 20.3525301,21.7540853 C20.5726885,21.5980646 20.7786633,21.3579064 20.7228038,21.3223751 C20.7046031,21.3108048 20.6566142,21.3011493 20.6161681,21.3009031 C20.5757219,21.3006843 20.5355764,21.2890866 20.5269952,21.275164 C20.5024269,21.2353656 20.6099099,20.978194 20.74453,20.7546938 C20.9489198,20.4153541 20.9053035,20.3240776 20.6388781,20.5336553 C20.3707036,20.7445732 20.1874387,20.8186995 19.9298951,20.8203953 C19.736546,20.8216809 19.712087,20.8157454 19.6675689,20.7568273 C19.6146609,20.686804 19.5216621,20.4226847 19.5425411,20.4017598 C19.5495371,20.3947848 19.6511718,20.4341182 19.768411,20.4891795 C20.0153239,20.6051557 20.159591,20.6169174 20.321485,20.534257 C20.4493003,20.4689931 20.5394024,20.3131365 20.5394024,20.1573346 C20.5394024,20.0990456 20.532133,20.0440937 20.5232512,20.0352314 C20.5143695,20.0263417 20.4540282,20.0596302 20.389123,20.1091935 C20.1260316,20.3102097 19.8497679,20.2398855 19.6771612,19.9280355 C19.6039208,19.795675 19.5967881,19.7599795 19.5988924,19.5362331 C19.6006414,19.3518475 19.6226135,19.2109802 19.6863982,18.9750344 C19.8621477,18.3247748 19.8599068,17.9213748 19.6780357,17.4816775 C19.5301612,17.1240935 19.4607196,16.9989816 19.3087732,16.8162371 C19.1261915,16.5966483 19.0087883,16.5229323 18.7532123,16.467406 C18.5713685,16.4279085 18.5135961,16.4261852 18.3413993,16.4551519 C18.1870753,16.4811098 18.1120859,16.4815201 18.0146052,16.4569572 L17.8881017,16.4250911 L17.8311491,16.2300652 C17.6401776,15.5762224 17.6141336,15.5336066 17.3167449,15.3880073 C17.1878364,15.3249043 17.0516039,15.2522824 17.0140273,15.2265981 C16.9764506,15.2009137 16.8596213,15.1349386 16.7544066,15.0799594 C16.5317887,14.963655 16.4381887,14.8722144 16.4592589,14.7916329 C16.4672662,14.7609156 16.4903861,14.7358057 16.5106092,14.7358057 C16.5837129,14.7358057 16.8442354,14.8478703 17.0254779,14.9572818 C17.1627762,15.040161 17.2410997,15.0695106 17.3283322,15.0708509 C17.483968,15.0732032 17.6831107,15.0155981 17.7411017,14.9514556 C17.8041759,14.8817058 17.8247269,14.8849061 18.0417971,14.9983932 C18.2261824,15.094812 18.235638,15.0966446 18.4913234,15.0865514 C18.7464075,15.0764582 18.7581861,15.0730118 18.9969004,14.9386271 C19.6570474,14.5670111 20.086214,14.3802184 20.2798364,14.3802184 C20.4245134,14.3802184 20.6290125,14.2632576 20.7628674,14.1039545 C20.8278546,14.0266553 20.9773687,13.8509953 21.0951545,13.7136292 C21.391204,13.3683813 21.3912314,13.3682993 21.2304032,13.3675608 C20.9950776,13.366494 20.7580303,13.2075465 20.7580303,13.0508693 C20.7580303,12.956584 20.8355612,12.9305167 21.1160881,12.9305167 C21.4198443,12.9305167 21.6914621,12.8873265 21.8311107,12.8168109 C21.9724537,12.7454472 22.589039,12.1023541 22.589039,12.0263131 C22.589039,12.0145514 22.5431545,12.0176149 22.4871038,12.0330966 C22.3100971,12.0820309 21.9549361,12.0146881 21.9208301,11.925764 C21.8973003,11.8643568 22.0325217,11.7314766 22.1506354,11.6999388 C22.3511172,11.6463818 22.608087,11.5901717 22.6591093,11.5886947 C22.8221784,11.5839353 23.0016992,11.4494959 23.4630041,10.9867402 C23.6417598,10.8074148 23.7217776,10.701614 23.8042823,10.535418 C23.8635851,10.4160227 23.9480575,10.2567743 23.9920563,10.181554 C24.0707897,10.0468685 24.1289994,9.89434891 24.1016162,9.89434891 C24.0939369,9.89434891 24.0363831,9.93617144 23.9737189,9.98732129 C23.8056214,10.1244959 23.6459683,10.1987042 23.5072763,10.2040654 C23.3707158,10.2093445 23.3126974,10.1720078 23.3385775,10.0954198 C23.3620527,10.0258888 23.4362222,9.94752288 23.7463186,9.66466692 C24.1591427,9.2880727 24.4135436,8.89112795 24.4845977,8.5127558 C24.5072257,8.39223908 24.5381069,8.26108211 24.5532195,8.22125634 C24.5904683,8.12319632 24.622142,7.82841452 24.601263,7.77395497 C24.5884459,7.74050242 24.5433813,7.77751084 24.4136803,7.92795159 C24.3198069,8.03687069 24.0768293,8.27235149 23.8737513,8.45126656 C23.3559857,8.90743026 22.8946809,9.17319068 22.3430826,9.33312287 C22.2002913,9.37450775 21.9543349,9.44920842 21.7965128,9.49910004 C20.8625617,9.79434684 20.7904419,9.81231767 20.5441848,9.81136032 C20.1792402,9.80993798 19.7802169,9.76680251 19.5425137,9.70304299 C19.4239627,9.67123161 19.3185841,9.64004934 19.3083632,9.63373083 C19.2981424,9.62738497 19.127148,9.59002096 18.9283606,9.55066019 C18.5985331,9.48534155 18.5212208,9.47995304 18.0432728,9.48895213 C17.4509551,9.5001121 17.4768899,9.49267212 17.0526424,9.77314837 C16.8074239,9.93524144 16.5851886,10.1696828 16.2765133,10.5918469 C15.9156133,11.085402 15.7089279,11.3307298 15.5472526,11.457483 C15.3609816,11.6035199 15.219584,11.6812294 15.182226,11.6581162 C15.1676326,11.6490898 15.15569,11.506007 15.15569,11.3401392 L15.15569,11.0385739 L14.8445552,10.7194754 C14.5241833,10.3908854 14.4534571,10.2704234 14.5280639,10.1804325 C14.6063327,10.0860378 14.7263048,10.1421658 15.046376,10.4229703 C15.2485795,10.6003537 15.2514764,10.601776 15.2608227,10.5289353 C15.2660424,10.4883163 15.2486342,10.3504579 15.2221256,10.2225833 C15.1751479,9.99580068 15.1694636,9.98537924 14.9907626,9.79861389 C14.7974682,9.59655829 14.7325083,9.50027621 14.7597822,9.45612869 C14.7884498,9.40968353 14.8518519,9.42666966 14.9703209,9.51255765 C15.0334497,9.55831899 15.1101881,9.59218183 15.140878,9.58777802 C15.1897686,9.58077569 15.1963275,9.56105427 15.1939226,9.42883053 C15.1906978,9.2517481 15.1133308,9.05940277 14.9796672,8.89613353 C14.9285083,8.83365959 14.85095,8.70961435 14.8073064,8.62044402 C14.5350327,8.06433296 14.439383,7.90814812 14.2803585,7.76000501 C14.0876107,7.58043346 13.8663592,7.4413168 13.6712885,7.37698287 L13.5296449,7.33029153 L13.533061,7.14090031 C13.5354932,7.00501128 13.5533934,6.918248 13.5964357,6.83380971 C13.6294485,6.76909284 13.6489338,6.70861566 13.6397514,6.6994251 C13.6164675,6.67612046 13.3893404,6.80180686 13.2911492,6.89237219 C13.2463031,6.93372972 13.2013204,6.96759257 13.1912362,6.96759257 C13.1811247,6.96759257 13.1082396,6.89409542 13.0292329,6.80426862 C12.9132235,6.67234576 12.8585119,6.63287558 12.7449073,6.59912215 C12.5300781,6.53525321 12.4588054,6.54332231 12.410434,6.63695116 M14.7447788,11.9303319 C14.6834537,11.9904262 14.4605352,12.0683545 14.151368,12.1377487 C13.99729,12.17235 13.871251,12.2101791 13.871251,12.2218314 C13.871251,12.258621 13.9889002,12.2844968 14.1445359,12.281953 C14.3998113,12.2777406 14.8550766,12.0523257 14.8550766,11.9301404 C14.8550766,11.8798932 14.7961564,11.8799753 14.7447788,11.9303319 M0.0207327204,13.9972784 C0.0207327204,14.3959463 0.0347327204,14.5590515 0.0517327204,14.3597038 C0.0688327204,14.1603561 0.0688327204,13.8342006 0.0517327204,13.6348529 C0.0347327204,13.4355053 0.0207327204,13.5986104 0.0207327204,13.9972784 M19.6237067,13.8881678 C19.589874,13.9429556 19.7590373,14.0715414 19.9066385,14.1032434 C19.9855905,14.1201748 20.0701722,14.1340427 20.0946039,14.1340427 C20.1675983,14.1340427 20.0315024,14.0078366 19.8735164,13.929033 C19.726899,13.8558914 19.6512811,13.8435279 19.6237067,13.8881678" id="Shape" fill="#19669F"></path>
    </g>
</svg>