<?xml version="1.0" encoding="UTF-8"?>
<svg width="28px" height="28px" viewBox="0 0 28 28" version="1.1" xmlns="http://www.w3.org/2000/svg" xmlns:xlink="http://www.w3.org/1999/xlink">
    <title>ET</title>
    <g id="ET" stroke="none" stroke-width="1" fill="none" fill-rule="evenodd">
        <path d="M20.7820818,20.1462452 C20.6480967,20.1448189 20.5126073,20.1570942 20.3412944,20.2056726 L17.6155545,21.0602536 C14.2164499,22.1072204 8.50963342,23.7297632 2.09469264,24.6330181 C1.73122711,24.6815788 1.79347188,24.8459442 2.17678584,24.8920161 L4.45542589,25.1011165 C8.73360311,25.4753244 10.7043829,25.5183587 13.0250523,25.4947162 C15.5989757,25.4103292 17.5276083,25.7716482 19.6948753,23.444469 C21.6868805,21.3593079 21.7197891,20.15619 20.7820818,20.1462452 Z" id="path74-path" fill="#C8332F" fill-rule="nonzero"></path>
        <path d="M0.283261716,24.274314 C6.27145339,22.7327658 21.2636758,14.5852615 23.4897081,13.1364201 C24.58627,12.4458731 25.7991874,12.8559225 23.8634559,16.0471769 C22.5435856,18.008283 21.6374235,19.1492901 18.1162023,20.2284928 C15.6985948,21.1543725 6.72042085,23.7965172 0.432525767,24.56432 C-0.0328959995,24.6035421 -0.182160051,24.4300139 0.283261716,24.274314" id="path78" fill="#FFCB08" fill-rule="nonzero"></path>
        <path d="M0.881258168,23.8477437 C6.10549997,21.9936071 17.4848271,15.9367607 21.3633418,13.5299487 C24.1546971,11.8124953 26.313737,10.5431248 27.1529065,8.39066233 C28.9546529,3.47244606 27.5760172,1.47092934 25.8647695,3.0065348 C23.6810482,5.15543162 13.3900558,16.0686897 0.225436587,23.7407743 C0.0256343136,23.8560635 0.000952856297,24.1222985 0.881258168,23.8477437" id="path82" fill="#5E8F4D" fill-rule="nonzero"></path>
    </g>
</svg>