<?xml version="1.0" encoding="UTF-8"?>
<svg width="28px" height="28px" viewBox="0 0 28 28" version="1.1" xmlns="http://www.w3.org/2000/svg" xmlns:xlink="http://www.w3.org/1999/xlink">
    <title>EW</title>
    <g id="EW" stroke="none" stroke-width="1" fill="none" fill-rule="evenodd">
        <path d="M10.3284601,6.54617789 C8.08442748,6.24541889 6.94502902,7.46975512 5.3736847,8.59525837 L0.00173821274,12.7309077 L0,12.7317597 L1.03423658,13.2676731 C1.0359748,13.2693771 1.03858212,13.2702291 1.04118943,13.2719331 C2.3865661,13.9203116 4.25775212,13.6987894 5.53186206,12.7735081 L7.80022969,11.0064425 L8.66759785,10.3299477 L12.9905329,6.96281006 L10.3284601,6.54617789 Z" id="Path" fill="#7BCBE2" fill-rule="nonzero"></path>
        <path d="M0.00173821274,12.7309077 L1.03423658,13.2685251 C1.0368439,13.2693771 1.03858212,13.2710811 1.04118943,13.2719331 C2.3865661,13.9211636 4.25862122,13.6996414 5.53273117,12.7735081 L7.80022969,11.0072945 L8.66846696,10.3307997 L0.00173821274,12.7309077 Z" id="Path" fill="#7BCBE2" fill-rule="nonzero"></path>
        <path d="M18.1651923,12.5707301 C19.97641,11.1811042 20.8585529,10.5898103 22.7236552,10.9289097 L22.7236552,10.9289097 L25.8367942,11.4844192 L18.9934507,17.0318467 L18.996058,17.0301427 L18.9899742,17.0344027 L14.5245057,20.5054854 C13.2495266,21.4324707 11.2523202,21.6096884 9.90520533,20.9570499 L9.90520533,20.9570499 L8.48769283,20.2217666 L13.5215569,16.2403308 C13.5215569,16.2403308 18.0052767,12.6848992 18.1651923,12.5707301 Z M12.9331719,9.39785039 C14.6105472,8.12409766 16.6181829,8.59185033 16.6181829,8.59185033 L16.6181829,8.59185033 L19.5018779,9.10049942 L17.517708,10.6324107 L14.1299314,13.2480769 L9.9286712,16.5104175 C8.65282304,17.4374027 6.77729149,17.6580729 5.43104572,17.0062864 L5.43104572,17.0062864 L4.01266412,16.2710031 L4.05177391,16.2403308 L8.75016296,12.5766942 L10.7812645,10.9996264 C11.6077019,10.3675172 12.7002199,9.56802025 12.9008225,9.42146853 Z" id="Combined-Shape" fill="#8F174F" fill-rule="nonzero"></path>
        <path d="M19.2281094,16.8418488 C21.9988205,16.0247726 22.7045349,15.6013244 25.0563367,16.2710031 L25.0563367,16.2710031 L28,17.163056 L16.2305615,20.7048554 C13.2938511,21.6028724 11.577366,21.8107624 9.91737282,20.962162 C11.2627495,21.6079844 13.2512649,21.4299146 14.5236366,20.5054854 L14.5236366,20.5054854 L18.9891051,17.0344027 L18.9934507,17.0318467 L18.996058,17.0292907 L18.996058,17.0301427 L19.2272403,16.8418488 Z M20.3327436,11.1410598 C19.6835211,11.4264827 19.0308222,11.9070155 18.1660614,12.5707301 C18.0061458,12.6840472 13.5215569,16.2403308 13.522426,16.2403308 L13.522426,16.2403308 L13.3625105,16.36728 C10.6839246,17.3010814 7.49864978,18.1198616 5.43017661,17.0062864 C6.77642239,17.6589249 8.65195394,17.4374027 9.92780209,16.5104175 L9.92780209,16.5104175 L14.1290623,13.2489289 L14.4732284,12.9831022 Z M13.9039637,8.84745289 C13.578918,8.9786622 13.2495266,9.15673198 12.9323028,9.39785039 C12.9323028,9.39785039 11.6938262,10.3009794 10.7821337,10.9996264 L10.7821337,10.9996264 L8.75190117,12.5766942 L8.48856194,12.7811762 L6.6556166,13.3162375 C3.97181612,14.1009374 2.19014806,13.9458718 1.04292765,13.2719331 C2.38830431,13.9211636 4.26035944,13.6996414 5.53446938,12.7735081 L5.53446938,12.7735081 L7.8010988,11.0064425 L8.66933606,10.3307997 Z" id="Combined-Shape" fill="#C8C4C3" fill-rule="nonzero"></path>
        <path d="M24.2028743,12.8092925 L19.2281094,16.8418488 L8.48856194,20.2217666 L13.3616414,16.366428 L24.2028743,12.8092925 Z M18.4433063,9.91672358 L14.4723593,12.9831022 L4.01179502,16.2710031 L8.48769283,12.7811762 L18.4433063,9.91672358 Z" id="Combined-Shape" fill="#B4175E" fill-rule="nonzero"></path>
    </g>
</svg>