<?xml version="1.0" encoding="UTF-8"?>
<svg width="28px" height="28px" viewBox="0 0 28 28" version="1.1" xmlns="http://www.w3.org/2000/svg" xmlns:xlink="http://www.w3.org/1999/xlink">
    <title>EY</title>
    <g id="EY" stroke="none" stroke-width="1" fill="none" fill-rule="evenodd">
        <path d="M13.0684894,12.0289943 L13.0684894,12.1449239 L12.9635137,12.231883 L12.9372752,12.2608773 L12.9372752,14.1739063 L13.4621104,13.4492867 L15.745164,13.4492867 L15.745164,12.2898479 C15.745164,12.2608773 15.7451424,12.2608773 15.7189039,12.231883 L15.7189039,12.231883 L15.5876897,12.1449239 L15.5876897,12.1159534 L16.7423358,12.1159534 L16.7423358,12.231883 L16.6111432,12.2898479 L16.5849047,12.3188421 L16.5849047,14.318854 L15.7189039,15.3333452 L15.7189039,14.1159415 L13.2784191,14.1159415 L13.1997036,14.1449358 L13.0422509,14.2318949 L12.9110367,14.2029006 L12.9110367,15.768117 L12.9372752,15.7971112 L13.0684894,15.8840703 L13.0684894,16 L11.9138433,16 L11.9138433,15.8840703 L12.018819,15.7971112 L12.0450575,15.768117 L12.0450575,12.2608773 L12.018819,12.231883 L11.9138433,12.1449239 L11.9138433,12.0289943 L13.0684894,12.0289943 Z M19.0515199,12.0579648 L22.4103744,15.9710057 L21.1508823,15.9710057 L21.1508823,15.8840466 L21.1771208,15.8840466 C21.255858,15.8840466 21.2820749,15.8550761 21.2820749,15.8550761 L21.2820749,15.8550761 L20.1536889,14.5217427 L18.4217306,14.5217427 L18.2905164,14.6086781 L18.1855407,14.5217427 L18.7103759,13.9130291 L19.6813308,13.9130291 L19.1040185,13.2753448 L18.5529448,12.6376842 L19.0515199,12.0579648 Z M25.165851,12.0579648 C25.9793748,12.0579648 26.5830336,12.1739182 27.0027634,12.4347718 C27.4752296,12.7246433 27.7901351,13.1014503 27.9213277,13.5652164 C27.9474797,13.7101403 27.9738479,13.8840585 28,14.0579767 C28,14.2898597 27.9474797,14.4927485 27.8688074,14.6956372 C27.763983,14.9565145 27.553902,15.2173918 27.2653647,15.4202806 C27.0027634,15.623193 26.6617059,15.768117 26.2942802,15.8550761 C26.005743,15.9130409 25.6383173,15.9420352 25.139699,15.9420352 L25.139699,15.9420352 L22.5943034,15.9420352 L22.5943034,15.8260818 L22.6991277,15.768117 L22.7254959,15.7391227 L22.7254959,12.9565264 L23.5651717,12.9565264 L23.5651717,15.3623158 L25.1135469,15.3623158 C25.6908375,15.3623158 26.1369355,15.2753567 26.4254728,15.1014385 C26.6355538,14.9855088 26.8192667,14.8115906 26.9240911,14.6376724 C27.0291316,14.4347836 27.0816519,14.2318712 27.0816519,13.9999882 C27.0816519,13.5652164 26.8715708,13.1884094 26.451841,12.9275321 C26.1894558,12.7536139 25.7433578,12.6666548 25.139699,12.6666548 L25.139699,12.6666548 L22.1743574,12.6666548 L22.1743574,12.2608536 L22.0431648,12.1739182 L22.0431648,12.0579648 Z M18.343188,12.7536139 L18.8155461,13.3333333 L16.6899452,15.7970875 L16.8474195,15.7970875 L16.8474195,15.9420115 L15.5615592,15.9420115 L18.343188,12.7536139 Z M11.5202439,12.0289943 L11.5202439,12.1449239 L11.4152682,12.231883 L11.3890297,12.2608773 L11.3890297,15.7391227 L11.4152682,15.768117 L11.5202439,15.8260818 L11.5202439,15.9420352 L10.3918364,15.9420352 L10.3918364,15.8260818 L10.5230506,15.768117 L10.5492891,15.7391227 L10.5492891,12.2898479 L10.496812,12.231883 L10.3918364,12.1449239 L10.3918364,12.0289943 L11.5202439,12.0289943 Z M10.1817553,12.0289943 L9.63065998,12.7826082 L9.52570591,12.7826082 L9.52507601,12.6636631 C9.52255642,12.6562406 9.50995847,12.6376842 9.44696874,12.6376842 L9.44696874,12.6376842 L7.63627325,12.6376842 L7.63627325,15.7101521 L7.66253338,15.7391227 L7.76748746,15.8260818 L7.76748746,15.9420352 L6.61284137,15.9420352 L6.61284137,15.8260818 L6.71781706,15.7391227 L6.74405558,15.7101521 L6.74405558,12.6376842 L4.69719182,12.6376842 C4.64471478,12.6376842 4.61847626,12.6666785 4.56599923,12.6956491 L4.56599923,12.6956491 L4.40854651,12.7826082 L4.38228638,12.7826082 L4.2773323,12.7536376 L4.8021675,12.0289943 L10.1817553,12.0289943 Z M4.38239444,12 L3.83129911,12.7536376 L3.72634504,12.7536376 L3.75258356,12.6376842 C3.75258356,12.6376842 3.75258356,12.60869 3.673868,12.60869 L3.673868,12.60869 L2.3617692,12.60869 C2.28303203,12.60869 2.17807796,12.60869 2.0468616,12.6376842 C1.57450776,12.7246433 1.2596088,12.9855206 1.04967472,13.3333333 C0.91846484,13.5072515 0.865976997,13.7391346 0.865976997,13.9420233 C0.865976997,14.4347836 1.07591324,14.78262 1.52202424,15.0434736 C1.81068468,15.2173918 2.25679352,15.3043509 2.83412736,15.3043509 L2.83412736,15.3043509 L5.3795878,15.3043509 C5.40582632,15.3043509 5.43206484,15.3043509 5.45830336,15.2753567 L5.45830336,15.2753567 L5.61575608,15.1883976 L5.79944732,15.1883976 L5.22213508,15.9130409 L2.86036588,15.9130409 C2.44048475,15.9130409 2.09934728,15.9130409 1.83692968,15.8550761 C1.49578572,15.7971112 1.18088244,15.6811579 0.91846484,15.5072397 C0.314903281,15.1304327 1.46549439e-14,14.6376724 1.46549439e-14,13.9999882 C1.46549439e-14,13.7391346 0.052483736,13.5072515 0.131209232,13.3043391 C0.28866044,12.9565264 0.551071555,12.6376842 0.944701196,12.4058012 C1.18087596,12.2608773 1.41705936,12.1449239 1.67947696,12.0869591 C1.75820332,12.0579648 1.86317036,12.0289943 1.96813956,12.0289943 C2.15183296,12 2.44048475,12 2.80786723,12 L4.38239444,12 Z M5.06461752,13.5072515 L4.51354381,14.2608654 L4.3823296,14.2608654 L4.40856812,14.1449121 C4.40856812,14.1449121 4.3823296,14.1159415 4.32985257,14.1159415 L4.32985257,14.1159415 L0.997135006,14.1159415 L1.36451748,13.5072515 L5.06461752,13.5072515 Z" id="Combined-Shape" fill="#BD8B13" fill-rule="nonzero"></path>
    </g>
</svg>