<?xml version="1.0" encoding="UTF-8"?>
<svg width="28px" height="28px" viewBox="0 0 28 28" version="1.1" xmlns="http://www.w3.org/2000/svg" xmlns:xlink="http://www.w3.org/1999/xlink">
    <title>EZ</title>
    <g id="EZ" stroke="none" stroke-width="1" fill="none" fill-rule="evenodd">
        <path d="M4.18788799,8.00874204 C1.58387454,8.27080519 0.295378673,8.8210103 0.295378673,9.65945535 C0.295378673,10.1047568 0.617427278,10.4978024 1.28854607,10.8122683 C1.98658602,11.1528131 2.92606201,11.3624734 4.18788799,11.4672788 L4.18788799,11.4672788 C3.0335455,11.0219777 2.44298905,10.4453997 2.44298905,9.76426105 C2.44298905,9.0567494 3.0335455,8.48036741 4.18788799,8.03491902 L4.18788799,8.00874204 L4.18788799,8.00874204 L4.18788799,8.00874204 Z M17.5303558,16.9432506 C15.1677786,16.9432506 13.6374943,16.9173681 12.9665271,16.8649164 C13.2348836,17.3100213 13.7986195,17.7031654 14.6040427,17.9915035 C15.4362862,18.253469 16.4027338,18.4106285 17.5303558,18.4106285 L19.0872589,18.4106285 C17.3960521,20.3231103 15.2482903,21.2925379 12.6175068,21.2925379 C10.4161041,21.2925379 8.51003004,20.559095 6.89933462,19.1440715 C5.28863941,17.7031654 4.37588366,15.9214696 4.16101706,13.799474 C5.77186307,14.0873221 7.99998535,14.2185006 10.7919449,14.2185006 L23.7316002,14.2185006 L21.8255266,12.3579797 C21.7987062,12.0701326 21.7718848,11.8077744 21.7450139,11.5197798 L21.0201539,11.5197798 C21.0736949,11.8077744 21.1006655,12.0701326 21.1006655,12.3579797 L10.9798401,12.3579797 C7.35573765,12.3579797 4.67121203,12.1748885 2.92606201,11.8077744 C1.23485462,11.4672788 0.268558048,10.9956537 0.0268708227,10.3668199 C0,10.5241264 0,10.655109 0,10.7860914 C0,11.5459565 0.37589085,12.2008202 1.15444284,12.7511238 C1.77187022,13.1702478 2.52350122,13.4845668 3.40943635,13.6681971 C3.59743192,16.0002948 4.56372854,17.965131 6.33559879,19.5896673 C8.10746864,21.1877318 10.2012368,22 12.6175068,22 C14.1208194,22 15.5167979,21.6856821 16.8321649,21.0305724 C18.0939405,20.4019355 19.1409501,19.5113321 20.0000151,18.4106285 L28,18.4106285 L26.5235592,16.9432506 L17.5303558,16.9432506 L17.5303558,16.9432506 L17.5303558,16.9432506 Z M12.590636,7.66819733 C10.657741,7.66819733 9.10058639,7.87761247 7.94639491,8.27080519 C6.84564307,8.66394892 6.30872797,9.16150602 6.30872797,9.73803508 C6.30872797,10.340643 6.84564307,10.8646712 7.94639491,11.2577168 C9.12755802,11.6507626 10.657741,11.8602754 12.590636,11.8602754 C12.9396553,11.8602754 13.3690875,11.8602754 13.852462,11.8077744 L13.852462,11.8077744 C12.7248399,11.7293418 11.7583924,11.4933089 10.9261488,11.1004104 C10.1208753,10.7075117 9.69129395,10.2620633 9.69129395,9.76426105 C9.69129395,9.26640971 10.1208753,8.8210103 10.9261488,8.42796466 C11.7583924,8.03491902 12.7248399,7.79903274 13.852462,7.72060008 L13.852462,7.72060008 C13.4228796,7.69427613 12.9933476,7.66819733 12.590636,7.66819733 L12.590636,7.66819733 L12.590636,7.66819733 L12.590636,7.66819733 Z M12.214645,14.7689016 C9.90600955,14.7689016 8.02695698,14.6900764 6.57713532,14.532918 C6.872514,15.0832206 7.48989108,15.554699 8.4563388,15.8954887 C9.4496561,16.2357886 10.5771353,16.4194189 11.8658757,16.4194189 L25.9865439,16.4194189 L24.2952353,14.7689016 L12.214645,14.7689016 L12.214645,14.7689016 Z M17.1006726,5.12658703 C15.7046931,4.36667259 14.2282019,4 12.6175068,4 C11.0067613,4 9.5302696,4.36667259 8.13413888,5.12658703 C6.765131,5.86012848 5.66447996,6.88200796 4.83223639,8.13967563 C3.51676916,8.50654439 2.87252115,9.03057252 2.87252115,9.7118582 C2.87252115,10.3144661 3.38256543,10.8122683 4.40270428,11.205461 C5.50335522,11.6507626 6.9798468,11.8602754 8.83222893,11.8602754 C8.85920056,11.8340987 8.85920056,11.8340987 8.83222893,11.8340987 C7.99998535,11.6507626 7.27532587,11.3887974 6.71143945,10.9956538 C6.14770362,10.6027061 5.87919587,10.2096605 5.87919587,9.76426105 C5.87919587,9.31881256 6.14770362,8.89959004 6.71143945,8.50654439 C7.27532587,8.13967563 7.97311453,7.87761247 8.83222893,7.72060008 C8.85920056,7.72060008 8.85920056,7.72060008 8.83222893,7.72060008 C7.73157851,7.72060008 6.73831027,7.77295395 5.87919587,7.93026039 C6.65779809,6.9345088 7.65106582,6.12233862 8.83222893,5.54580965 C10.013392,4.96928056 11.2751681,4.6811386 12.6175068,4.6811386 C14.0134863,4.6811386 15.3288029,4.99560451 16.5369367,5.62453636 C17.7449212,6.22699725 18.7113677,7.06534431 19.5167909,8.11335167 L20.3759053,8.11335167 C19.5436123,6.82970319 18.4698317,5.8339516 17.1006726,5.12658703 L17.1006726,5.12658703 L17.1006726,5.12658703 Z" id="path10" fill="#0B3E27"></path>
    </g>
</svg>