<?xml version="1.0" encoding="UTF-8"?>
<svg width="28px" height="28px" viewBox="0 0 28 28" version="1.1" xmlns="http://www.w3.org/2000/svg" xmlns:xlink="http://www.w3.org/1999/xlink">
    <title>F7</title>
    <g id="F7" stroke="none" stroke-width="1" fill="none" fill-rule="evenodd">
        <path d="M19.5493811,3.42220556 C19.5505268,4.03008358 19.7894281,5.01502216 20.0588229,5.5223272 C20.3649663,6.09877176 20.9660223,6.6891006 21.5018265,6.93965206 C22.146597,7.24108908 22.9920985,7.36576574 23.6977849,7.26350127 C25.7353762,6.96805494 26.7577969,5.84575354 26.7476324,3.91555583 C26.7396003,2.38997583 26.0785524,0.948335849 25.1358839,0.400576088 C24.4134937,-0.019194517 23.0410019,-0.128224928 22.1729678,0.165177528 C20.6340057,0.685450632 19.5469017,2.03497507 19.5493811,3.42220556 Z M0,4.89386943 C0,5.18987959 0.323486983,5.69105299 0.71904951,6.0079953 C1.47143574,6.61072838 2.05408192,6.94070924 3.909423,7.81478497 C4.39810087,8.04496811 5.70953459,8.67687933 6.82372014,9.21907128 C15.2144081,13.3019677 15.7330108,13.582543 16.8555839,14.6459948 C18.0739022,15.800082 18.2847978,16.4670916 18.013626,18.3086977 C17.8513495,19.4104898 17.6605696,20.0576949 17.1247654,21.3237727 C16.8199015,22.0439936 16.6805839,22.3103322 15.695125,24.0553826 C14.5322493,26.1147676 14.149268,27.031342 14.1460694,27.7629804 L14.1450032,28 L14.4826352,27.9519336 C15.9179621,27.7474751 17.1984758,27.054459 18.578431,25.7350994 C19.7349805,24.6293604 21.4647936,22.7613954 22.4353256,21.5700954 C22.9879048,20.8919502 23.846343,19.8454838 24.343053,19.2446536 C26.7530345,16.3294469 27.564844,15.0423665 27.8913164,13.6189805 C28.0356807,12.9897474 28.0361782,12.5106338 27.8930934,11.9602664 C27.6327969,10.9591177 26.9685504,10.3135336 25.4898644,9.62481664 C23.8315583,8.85244155 22.465748,8.45444884 17.7701045,7.37535083 C15.9403524,6.95480496 15.5569446,6.85380911 14.0028424,6.38315295 C11.805178,5.71755295 8.46830778,4.92043986 5.29549115,4.30304724 C4.47451232,4.1433427 3.57889905,3.96418608 3.30523944,3.90498404 C2.59301365,3.75084732 1.5263809,3.71652424 1.16031675,3.83598548 C0.494079986,4.05334152 0,4.5038408 0,4.89386943 Z" id="Shape" fill="#002B54"></path>
    </g>
</svg>