<?xml version="1.0" encoding="UTF-8"?>
<svg width="28px" height="28px" viewBox="0 0 28 28" version="1.1" xmlns="http://www.w3.org/2000/svg" xmlns:xlink="http://www.w3.org/1999/xlink">
    <title>F9</title>
    <g id="F9" stroke="none" stroke-width="1" fill="none" fill-rule="evenodd">
        <path d="M12.9253037,19.0649854 C12.9253037,19.1076077 12.7443784,19.7824611 12.534505,20.5496628 C12.3173947,21.3239682 12.0858103,22.1195848 12.0134402,22.3184889 C11.94107,22.5102894 11.7963298,22.8441642 11.6877746,23.0572758 C11.5792194,23.2632836 11.3765831,23.5971584 11.2390799,23.7889589 C11.1015766,23.9807593 10.8265702,24.2933229 10.6239338,24.4709159 C10.4212975,24.6556126 10.110106,24.8829317 9.93641768,24.9823837 C9.76272939,25.0818358 9.40811579,25.2381176 8.69165159,25.4867478 L4.34220729,25.4938515 C0.50659085,25.508059 0,25.5009553 0,25.4370218 C0,25.3943995 0.195399328,24.6556126 0.441457741,23.7818551 C0.680279142,22.9080976 0.940811579,22.013029 1.02041871,21.7928137 C1.10002585,21.5654947 1.23752908,21.2245161 1.33161024,21.0327157 C1.42569139,20.8338116 1.58490566,20.5425591 1.69346084,20.3862772 C1.80201602,20.2299954 2.00465236,19.9955727 2.13491858,19.8677057 C2.2651848,19.732735 2.49676919,19.555142 2.64150943,19.4627937 C2.79348669,19.3633416 3.06849315,19.2425784 3.25665547,19.1786449 C3.44481778,19.1218152 3.70535022,19.050778 3.84285345,19.0294668 C3.97544585,19.0089168 5.93168224,18.9883667 8.24505291,18.9869251 L8.50348927,18.9868445 C12.6792453,18.9797408 12.9253037,18.9868445 12.9253037,19.0649854 Z M24.8880848,10.7749447 C24.8953218,10.7962559 24.7433445,11.3858646 24.5479452,12.0962366 C24.3453089,12.7995048 24.1281985,13.5453953 24.0558284,13.7371958 C23.9834583,13.9360999 23.817007,14.312597 23.6795037,14.5754347 C23.5420005,14.8382723 23.3466012,15.1792508 23.238046,15.3355327 C23.1294908,15.4918145 22.8689584,15.7901707 22.666322,15.9961786 C22.4636857,16.2021864 22.1669682,16.4650241 22.0005169,16.5786836 C21.8413027,16.6923431 21.5662962,16.8486249 21.3926079,16.9267658 C21.2189196,17.0049067 20.9439132,17.1043588 20.7774619,17.1540849 C20.5024554,17.2322258 20.0175756,17.2393295 12.4331869,17.2677444 C4.45799948,17.2961592 4.37839235,17.2961592 3.91522357,17.3956113 C3.66192815,17.4524411 3.28560352,17.5518931 3.08296717,17.6229303 C2.88033083,17.6868638 2.58361334,17.807627 2.42439907,17.885768 C2.2651848,17.9710126 2.11320755,18.0136349 2.09149651,17.9923238 C2.06254846,17.9710126 2.27242181,17.1398774 2.54742828,16.1453567 C2.81519773,15.150836 3.12638925,14.0781743 3.23494443,13.7656106 C3.34349961,13.4459433 3.54613595,12.9557866 3.6908762,12.6645341 C3.83561644,12.3803853 4.05996381,12.0109919 4.19023003,11.8547101 C4.32049625,11.6913246 4.5303696,11.478213 4.65339881,11.3787609 C4.76919101,11.2864125 4.99353838,11.1443382 5.13827862,11.073301 C5.29025588,10.99516 5.54355131,10.9028117 5.70276557,10.8672931 C5.86197984,10.8246708 6.06461618,10.7820485 6.14422331,10.7749447 C6.21690809,10.7619727 9.76467203,10.7490007 14.2701287,10.7468428 L15.5812872,10.7465299 C20.6906177,10.7394261 24.8736108,10.7536336 24.8880848,10.7749447 Z M28,2.54173384 C28,2.57014872 27.7901266,3.35866158 27.5295942,4.29635255 C27.2690618,5.22693981 27.0085293,6.13621591 26.9433962,6.30670517 C26.8710261,6.47719444 26.7190488,6.78265438 26.5887826,6.98866225 C26.4657534,7.19467011 26.197984,7.53564865 25.9953476,7.74876023 C25.7927113,7.96187182 25.4959938,8.22470944 25.3295425,8.33126523 C25.1703283,8.44492474 24.8953218,8.60120657 24.7216335,8.68645121 C24.5479452,8.77169584 24.2367537,8.88535535 24.0341173,8.93508139 C23.7309799,9.0079518 23.4437078,9.01852976 18.420978,9.02006528 L13.9355896,9.02087354 C9.31887627,9.02441383 7.01131835,9.04494124 6.71594727,9.07715578 C6.45541484,9.10557066 6.03566813,9.17660785 5.77513569,9.24054133 C5.52184027,9.3044748 5.10933058,9.45365291 4.85603515,9.57441614 C4.51589558,9.73069797 4.39286637,9.77332029 4.36391833,9.72359425 C4.33497028,9.68807566 4.5303696,8.91377023 4.87050918,7.68482676 L4.98230122,7.2785828 C5.2432153,6.33767295 5.49651073,5.4729061 5.57249935,5.25535469 C5.6593435,5.0067245 5.82579478,4.61601993 5.94882399,4.37449347 C6.07185319,4.14007073 6.26725252,3.83461079 6.3758077,3.6925364 C6.4915999,3.55046201 6.69423624,3.33735042 6.83173947,3.22369091 C6.96200569,3.10292768 7.25148617,2.92533469 7.46859654,2.82588262 C7.67846989,2.72643055 7.97518739,2.61987475 8.12716464,2.59145987 C8.27190488,2.563045 8.43835616,2.53463012 8.49625226,2.5275264 C8.54268976,2.51450291 12.2560308,2.50744853 16.9828887,2.50089156 L21.9062913,2.50096145 C25.9544007,2.50564793 28,2.51923873 28,2.54173384 Z" id="Combined-Shape" fill="#0F6744"></path>
    </g>
</svg>