<?xml version="1.0" encoding="UTF-8"?>
<svg width="28px" height="28px" viewBox="0 0 28 28" version="1.1" xmlns="http://www.w3.org/2000/svg" xmlns:xlink="http://www.w3.org/1999/xlink">
    <title>FH</title>
    <g id="FH" stroke="none" stroke-width="1" fill="none" fill-rule="evenodd">
        <path d="M5.07134877,2.18019028 C4.76559696,2.43152687 4.57188658,2.62090607 4.28500461,2.94898935 C3.40159986,3.95925641 2.77407466,5.07614782 2.5652465,6.00988568 C2.48056496,6.38850814 2.47938731,7.08760175 2.5626447,7.56308871 C2.7694462,8.7443299 3.32420335,9.72284345 4.34958387,10.7148957 C5.19489288,11.5327388 6.26053273,12.2553756 7.90593433,13.1265852 C9.10719608,13.7626339 9.39038076,13.9150671 9.68610883,14.0847634 C9.87439652,14.1928287 10.1516929,14.3517321 10.3023231,14.4379124 C10.4529532,14.5240656 10.9274382,14.7717592 11.3567341,14.9883246 C12.5578863,15.5942239 12.8202293,15.7593258 13.1523003,16.1184285 C13.4703216,16.4623342 13.6595405,16.9435302 13.7126171,17.5434757 C13.7265846,17.7010198 13.7414011,17.8331721 13.745564,17.8371684 C13.7595041,17.8505169 14.0244763,17.6640738 14.2871752,17.4560992 C14.9295444,16.9474994 15.4558735,16.3467112 15.726104,15.8136166 C15.9660441,15.3402774 16.0569152,14.942108 16.0308151,14.4783927 C16.0106033,14.1192899 15.9398345,13.8696117 15.7468636,13.4765534 C15.6198413,13.2177949 15.5631769,13.1360188 15.3959501,12.9700469 C15.098524,12.6748046 14.4071864,12.2091319 13.7120419,11.8357835 C12.8930795,11.3959377 12.7812298,11.3367533 12.0140293,10.9372518 C10.7622106,10.2853807 10.1190473,9.93859328 9.46701043,9.56391282 C8.79881508,9.17990749 8.25052134,8.83499593 7.75530418,8.48712108 C6.20636065,7.39901988 5.14272008,6.17226896 4.86046656,5.14840879 C4.80749952,4.95628379 4.7984891,4.85933773 4.80026928,4.50105056 C4.80251504,4.05413631 4.82968324,3.90265471 5.01723147,3.29126384 C5.1681081,2.79946515 5.27746559,2.36258262 5.29452788,2.18342544 C5.30414082,2.08248301 5.30715343,2 5.30123777,2 C5.29529473,2 5.19185289,2.08115089 5.07134877,2.18019028 M23.8179556,10.6333099 C23.7802981,10.6396443 23.6632174,10.6585115 23.5577763,10.6752854 C22.9866415,10.7660058 22.2627952,11.1260873 21.5585034,11.6698389 C20.7691466,12.2792723 19.8481665,13.1816373 18.1503182,15.0091764 C17.4796306,15.7310521 16.5523788,16.6754469 16.1395427,17.0570327 C15.6206081,17.5367335 13.7846183,19.1087494 12.7377935,19.9697098 C12.4045448,20.2438012 11.6921464,20.7963611 11.2953592,21.0885314 C10.655318,21.5598045 9.71114082,22.1240816 9.13458338,22.3798496 C8.37283302,22.7178015 7.8309479,22.8474797 7.08412361,22.8705608 C6.05375861,22.9023959 5.22674431,22.7148925 4.15387422,22.2062112 C3.38516748,21.8417256 2.84952667,21.4957809 1.42883787,20.4461211 C1.02213646,20.145659 0.618584596,19.8538149 0.532040728,19.7975938 C0.348627979,19.678491 0.0222809122,19.5221159 0.00105575469,19.5431852 C-0.00699611152,19.5511779 0.0318938545,19.6718847 0.0874900736,19.8114316 C0.47866288,20.7935337 1.31476976,21.9145846 2.56327461,23.1308961 C3.47880466,24.0228215 4.26999637,24.637366 5.07134877,25.0790605 C5.90263549,25.5372298 7.10756714,25.8581903 8.39370214,25.9640806 C9.61221789,26.0643706 10.8602572,25.954647 12.1372722,25.6349099 C13.3467775,25.3320826 14.7270153,24.695327 16.094737,23.8092194 C17.6090082,22.8281775 19.2210795,21.4567959 20.7351864,19.8616174 C21.51923,19.0355913 22.2000783,18.2719848 22.7361573,17.6174766 C23.2397276,17.0026331 23.5927499,16.5630591 24.0095572,16.031922 C24.7768124,15.0541696 25.1636032,14.7036305 25.7095965,14.4912246 C26.1884634,14.3049446 26.9240863,14.2905631 27.70446,14.4522124 C27.8461893,14.4815463 27.97784,14.5055789 27.9969838,14.5055789 C28.0161549,14.5055789 27.9419079,14.3618182 27.8319753,14.1861409 C27.72207,14.0104635 27.4932765,13.6342606 27.3235574,13.3501646 C26.7706079,12.4245283 26.4044397,11.9334092 25.9307763,11.482118 C25.4949622,11.0668757 25.0511236,10.8064861 24.5826912,10.6912166 C24.4011956,10.6465496 23.944841,10.6119959 23.8179556,10.6333099" id="Shape" fill="#0055A5"></path>
    </g>
</svg>