<?xml version="1.0" encoding="UTF-8"?>
<svg width="28px" height="28px" viewBox="0 0 28 28" version="1.1" xmlns="http://www.w3.org/2000/svg" xmlns:xlink="http://www.w3.org/1999/xlink">
    <title>FI</title>
    <defs>
        <linearGradient x1="11.9049359%" y1="39.3898797%" x2="84.5095311%" y2="53.7388337%" id="linearGradient-1">
            <stop stop-color="#8B350B" offset="6.8605%"></stop>
            <stop stop-color="#913C0E" offset="15.07%"></stop>
            <stop stop-color="#A34E14" offset="27.56%"></stop>
            <stop stop-color="#A65215" offset="29.65%"></stop>
            <stop stop-color="#B76519" offset="45.58%"></stop>
            <stop stop-color="#E8A71F" offset="88.95%"></stop>
        </linearGradient>
        <linearGradient x1="20.5494217%" y1="41.2223268%" x2="77.8038906%" y2="57.9171662%" id="linearGradient-2">
            <stop stop-color="#E79000" offset="0%"></stop>
            <stop stop-color="#E89400" offset="2.356468%"></stop>
            <stop stop-color="#ECA022" offset="5.870681%"></stop>
            <stop stop-color="#EDA42C" offset="7%"></stop>
            <stop stop-color="#F0B24D" offset="10.01%"></stop>
            <stop stop-color="#FBDDAA" offset="20%"></stop>
            <stop stop-color="#FADAA3" offset="22.2%"></stop>
            <stop stop-color="#F9D48F" offset="25.62%"></stop>
            <stop stop-color="#F7C96C" offset="29.86%"></stop>
            <stop stop-color="#F4BB35" offset="34.69%"></stop>
            <stop stop-color="#F4BA30" offset="35%"></stop>
            <stop stop-color="#EEA900" offset="66%"></stop>
            <stop stop-color="#E78E00" offset="98%"></stop>
        </linearGradient>
    </defs>
    <g id="FI" stroke="none" stroke-width="1" fill="none" fill-rule="evenodd">
        <path d="M27.5292202,3.50610933 C26.8949064,3.56859115 21.693533,3.88100024 21.693533,3.88100024 C21.693533,3.88100024 21.5032388,3.81851842 21.1860819,4.13092751 C20.9323564,4.4433366 5.2013734,21.9382455 5.2013734,21.9382455 C5.2013734,21.9382455 3.04470638,24.2500727 7.17648163e-13,24.5 C7.17648163e-13,24.5 7.17648163e-13,24.5 7.17648163e-13,24.5 L21.5032388,24.5 L27.9732399,3.88100024 C27.9732399,3.88100024 28.163534,3.44362752 27.5292202,3.50610933 L27.5292202,3.50610933 Z" id="path10" fill="#003A7D" fill-rule="nonzero"></path>
        <path d="M12.1153941,19.4389728 C11.9885314,19.5014546 11.8616686,19.6264182 11.7982372,19.7513819 C11.7348058,19.9388273 11.9251,20.1262728 12.1153941,20.2512364 C12.3691197,20.3762 12.6862766,20.4386819 13.257159,20.4386819 C13.8914729,20.4386819 14.2086298,20.3137182 14.2086298,20.3137182 C14.2086298,20.3137182 14.3354925,19.9388273 14.4623553,19.6889001 C14.5892181,19.4389728 14.7795122,19.0016001 14.906375,18.7516728 C13.7011787,18.8141546 12.749708,19.0640819 12.1153941,19.4389728 L12.1153941,19.4389728 Z" id="path27" fill="url(#linearGradient-1)" fill-rule="nonzero"></path>
        <path d="M23.7233372,12.2535638 C23.7233372,12.2535638 23.2158862,12.878382 21.3129447,12.8159001 C20.044317,12.8159001 19.4100032,12.4410092 17.88765,12.3785274 C16.1750027,12.3785274 14.9698064,12.9408638 14.5892181,13.6906456 C14.3989239,14.0655365 13.4474532,16.1899183 13.4474532,16.1899183 C13.4474532,16.1899183 13.9549043,15.6275819 14.8429436,15.3776547 C16.0481399,15.0027637 17.1899048,15.0652456 18.3316697,15.252691 C19.1562777,15.3776547 19.6637287,15.5651001 20.4249053,15.5026183 C21.1226505,15.5026183 21.5032388,15.3151728 21.7569644,15.1902092 C22.1375527,15.0027637 22.4547096,14.6903547 22.8987292,14.0030547 C23.2793175,13.5656819 23.6599058,12.503491 23.7233372,12.2535638 L23.7233372,12.2535638 Z M11.9251,19.5014546 C12.1788255,18.9391182 12.5594138,18.001891 13.0668649,17.1271455 C13.1302963,16.9397001 13.3205904,16.7522546 13.5108846,16.627291 C14.1451984,16.0649546 15.6041202,15.6275819 17.3801989,15.7525456 C18.6488266,15.8775092 19.1562777,16.0024728 19.9174542,16.0649546 C20.2346112,16.0649546 20.6151995,16.1274365 20.9323564,16.0649546 C21.7569644,15.939991 22.0106899,15.7525456 22.0106899,15.7525456 C22.0106899,15.7525456 21.5032388,17.0646637 20.7420622,17.8769273 C19.8540229,18.8766364 18.9659835,18.9391182 17.2533362,18.8141546 C14.7795122,18.5642273 13.0668649,18.8766364 12.1153941,19.5014546 C11.9885314,19.5639364 11.8616686,19.7513819 11.7982372,19.8763455 C11.7982372,19.8763455 11.7982372,19.7513819 11.9251,19.5014546 L11.9251,19.5014546 Z" id="path56" fill="url(#linearGradient-2)" fill-rule="nonzero"></path>
    </g>
</svg>