<?xml version="1.0" encoding="UTF-8"?>
<svg width="28px" height="28px" viewBox="0 0 28 28" version="1.1" xmlns="http://www.w3.org/2000/svg" xmlns:xlink="http://www.w3.org/1999/xlink">
    <title>FJ</title>
    <g id="FJ" stroke="none" stroke-width="1" fill="none" fill-rule="evenodd">
        <path d="M13.5893856,25.1592615 C13.7265228,25.330305 13.8845995,25.5121154 14.0391042,25.6931144 C14.1981699,25.8740674 14.6352288,26.2938701 14.8533768,26.5235184 C15.0683147,26.7532875 15.1805734,26.8914033 15.3235601,27.0838769 C15.4655125,27.2776626 15.6190848,27.4897191 15.6874302,27.5879844 C15.7544078,27.6861288 15.7326038,27.7106031 15.5090415,27.7573246 C15.2705306,27.8077693 15.2330489,27.8084943 14.9236438,27.8816639 C14.6123792,27.9551269 14.3345046,27.9917376 14.1243933,27.9895336 C13.9134342,27.9867829 13.9014696,28.0033274 13.6723744,27.9993912 C13.4037346,27.9936424 13.358041,27.9996329 13.358041,27.9996329 L13.2396994,27.999392 C13.0325539,27.9897194 12.7875071,27.9395522 12.6820756,27.9368043 C12.5188503,27.9305664 12.4444237,27.8698152 12.374592,27.8652288 L12.374592,27.8652288 L12.3247444,27.8513315 L12.3353921,27.8188641 C12.4571117,27.6043677 12.4876362,27.4511058 12.610927,27.2139881 C12.7335056,26.974465 13.0406218,26.2712489 13.1038298,26.1349227 C13.1690725,25.9965019 13.295189,25.6815937 13.3712093,25.5501935 C13.4480379,25.4197543 13.5393459,25.2037329 13.5893856,25.1592615 Z M12.5538849,22.858676 C12.8922378,22.9061686 13.7605175,22.9249803 13.9696172,22.9280015 C14.4144415,23.3067568 14.7293627,23.5922072 15.1409327,24.0932705 C15.5516154,24.5891489 15.8345708,24.9157792 16.1465249,25.2497524 C16.4583263,25.5803993 17.7846609,27.0795552 17.8883517,27.1601655 C17.7993608,27.217015 17.5423465,27.2754816 17.4308733,27.3232504 C17.3217626,27.3703517 16.8123173,27.4715058 16.8123173,27.4715058 C16.6001036,27.1086734 16.2852333,26.7614532 16.0516733,26.448657 C15.8168925,26.1343703 15.1487941,25.2556853 14.9995058,25.0519385 C14.8491889,24.8494864 13.4058031,23.3172416 13.4058031,23.3172416 C13.2798674,23.5174207 13.1915039,23.5520287 13.0698973,23.816216 C12.9467536,24.0775375 11.2215652,27.6026701 11.2070631,27.6733134 C11.075148,27.6128384 10.7649346,27.5614615 10.6367213,27.5055039 C10.5110908,27.4511979 10.3472834,27.3901014 10.280594,27.3397891 C10.3587563,27.0919966 10.4834599,26.8443365 10.613866,26.6501423 C10.7419833,26.4561667 10.7205409,26.5638062 10.7790694,26.4289418 C10.8407402,26.2948024 11.1421087,25.7276362 11.2260752,25.5583823 C11.3076285,25.3903541 12.3967634,23.1683935 12.4315832,23.0949708 C12.4654422,23.0168235 12.5009685,22.9406558 12.5538849,22.858676 Z M10.6361957,22.3381852 C10.738191,22.4325834 10.697047,22.3772416 10.7691564,22.4229157 C10.8403389,22.4689639 11.0798614,22.6067172 11.1298729,22.6396564 C11.1762277,22.6722849 11.2157779,22.699625 11.2157779,22.699625 C11.1259563,22.8320725 10.806576,23.4222283 10.7262039,23.5820389 C10.6476007,23.7424652 9.64926526,25.7284706 9.60189879,25.8351146 C9.55422148,25.9403314 9.4140832,26.2437189 9.3679714,26.3722994 C9.32110793,26.5040564 9.28039911,26.5309763 9.24274217,26.6004169 C9.19181517,26.6909365 9.16580628,26.7679674 9.12740333,26.8405961 C9.0789687,26.9336707 9.03814684,26.9977193 9.03814684,26.9977193 C8.93942949,26.9022219 8.66666962,26.8250357 8.59869725,26.7430501 C8.53166869,26.6606904 8.17561483,26.463406 8.17561483,26.463406 C8.27350138,26.3168424 8.31093225,26.2859115 8.38073576,26.1780936 C8.42832265,26.1049183 9.32301819,24.7656766 9.35020262,24.7166188 C9.37979465,24.6659324 9.4656658,24.4699369 9.51997249,24.3620845 C9.57106905,24.2543932 9.69149438,24.039304 9.73571288,23.9472249 C9.78270634,23.8549559 10.6361957,22.3381852 10.6361957,22.3381852 Z M16.7524494,22.4714902 C16.9721629,22.7040387 17.0610238,22.8023386 17.3372764,23.0967719 C17.6137494,23.3884431 19.5709549,25.5440476 19.7761888,25.7803712 C19.9817958,26.0176615 20.0635639,26.1139185 20.1061886,26.1731217 C20.0579122,26.2183585 19.9919179,26.2731191 19.8332422,26.323512 C19.6754765,26.3740085 19.5191632,26.5054202 19.3264363,26.5642666 C19.190808,26.3353031 19.1425938,26.2309725 19.0584238,26.1210312 C18.9729483,26.0100309 18.3659273,25.3009509 18.126936,25.0392151 C17.8902733,24.7767599 16.1554149,22.7522161 16.0932016,22.7079346 C16.0278459,22.6633481 16.0647342,22.6690681 16.1444507,22.6448298 C16.2224265,22.6195269 16.379175,22.5805511 16.5120566,22.5482448 C16.6420671,22.5175038 16.7524494,22.4714902 16.7524494,22.4714902 Z M9.64879052,22.0840339 C9.71184031,22.0624485 9.76644654,22.1255302 9.71150121,22.189222 C9.65467389,22.2536503 7.57985194,25.6889366 7.48091418,25.806146 C7.38301067,25.9220491 7.320916,25.9739209 7.2578323,26.011297 C7.16961572,25.854519 7.22259427,25.8589443 7.16384538,25.6784229 C7.12827391,25.5604022 6.93893238,22.997983 6.92005587,22.8666518 C6.89599115,22.7320636 6.91812866,22.5603813 6.89403568,22.487557 C6.99264564,22.4148996 9.58549771,22.1083873 9.64879052,22.0840339 Z M5.95255579,22.8704783 C6.02892652,22.8682458 6.06651563,25.0905805 6.03833086,25.2124626 C6.00662511,25.3331651 6.01541342,25.3520746 5.97901116,25.3305352 C5.71027526,25.1106583 4.94144759,24.3745719 4.67955584,24.1237296 C4.41497391,23.8726397 3.91858961,23.3042996 3.7973674,23.1235538 C4.07359172,23.0236427 5.90421724,22.8702024 5.95255579,22.8704783 Z M17.9561715,22.0724039 C18.1754667,22.0531491 20.2889234,22.0484418 20.4394324,22.0692964 C20.5920834,22.0917336 20.9283226,22.0656365 20.9283226,22.0656365 C21.0079148,22.2374109 21.2440237,24.6025283 21.2798213,24.8255646 C21.2941765,24.9309253 21.3948097,25.235153 21.3423624,25.3325033 C21.2926844,25.3423091 21.1659914,25.345969 21.0991607,25.2459543 C21.0280629,25.1478904 18.2770664,22.4647573 18.1685887,22.320064 C18.0604048,22.1772294 17.9561715,22.0724039 17.9561715,22.0724039 Z M25.3390388,21.3152788 C25.3492965,21.3742979 25.3245367,21.375725 25.3148836,21.4226651 C25.3083164,21.4708483 24.8260047,22.2206075 24.8001484,22.2651422 C24.7748177,22.308785 24.1098504,23.1169648 23.9240694,23.3334523 C23.7390458,23.5518618 22.4283324,24.5883893 22.3453492,24.6852678 L22.3453492,24.6852678 L22.2960329,24.7011735 L22.2826894,24.6562762 C22.2448177,24.5436187 22.1853567,21.7674569 22.1733639,21.6767013 C22.5384943,21.6490793 25.1862578,21.3611026 25.3390388,21.3152788 Z M6.28392325,18.5348069 C6.26829644,18.8436613 5.9481475,21.4872546 5.91348594,21.5230654 C5.86055825,21.5539618 3.42048155,22.1583602 3.3040915,22.2154399 C3.18934608,22.2694237 3.26401001,22.1634242 3.23172214,22.1776495 C3.27459555,22.0650093 6.28392325,18.5348069 6.28392325,18.5348069 Z M6.93673388,19.3789758 C6.98128583,19.4420806 7.03214502,19.5471018 7.06042587,19.57805 C7.08862194,19.6099131 7.66029185,20.270223 7.74377801,20.3624575 C7.8289427,20.4562515 8.32906839,21.049112 8.44311866,21.141381 C8.5610064,21.2312331 8.682709,21.375771 8.682709,21.375771 C8.28388346,21.4745773 7.07386549,21.4567726 7.04793572,21.4097749 C7.02122603,21.3613385 6.93673388,19.3789758 6.93673388,19.3789758 Z M5.59716882,16.4242838 C5.63596739,16.5881169 5.66793876,16.6849033 5.71754328,16.8450879 C5.76957801,17.0138411 5.86579168,17.296305 5.89921553,17.412726 C5.31807345,18.1454804 4.52944805,18.9078652 4.37871293,19.0946245 L4.33901508,19.1399916 C4.06164222,19.4450756 2.77981765,20.715936 2.69981158,20.8287746 C2.65047107,20.8966911 2.56953162,20.9835238 2.50921333,21.0454784 L2.43033532,21.1244165 C2.37487004,21.1583052 2.32897865,21.0690746 2.32897865,21.0690746 C2.21076312,20.8082653 2.08300195,20.6088171 2.04163188,20.5250994 C1.99978142,20.4418305 1.97660966,20.3435307 1.97660966,20.3435307 C2.21239644,20.0931027 3.48927907,18.8318701 3.80141398,18.4616661 C4.11353192,18.0914621 5.02147493,17.1673102 5.20555478,16.9339387 C5.38870211,16.7009413 5.48298856,16.6051332 5.50852271,16.5642699 C5.53487635,16.5193381 5.59716882,16.4242838 5.59716882,16.4242838 Z M21.2791657,18.959363 C21.2847495,19.065771 21.2938374,19.2045716 21.3017666,19.3255963 C21.3120187,19.4459074 21.3901584,20.700269 21.3495965,20.8535366 C20.8881112,20.9131426 19.4011737,21.0388343 19.3315849,21.0263814 C19.2639178,21.0126912 19.2411586,20.9813345 19.3005065,20.9398842 C19.3607135,20.8990094 19.7816879,20.5922669 19.892528,20.5105288 C20.0047472,20.4284511 20.2849955,20.1551946 20.4488933,19.9794093 C20.6134241,19.8018113 20.9244682,19.3771747 21.0162849,19.2579224 C21.1089606,19.1391938 21.1597068,19.0663177 21.2791657,18.959363 Z M22.1801967,17.3590702 C22.1884707,17.2813258 22.2231662,17.3068301 22.2765234,17.358207 C22.3163167,17.3981093 22.9551847,17.8620728 23.2659971,18.1114017 C23.5771825,18.3616744 25.2901351,19.5866876 25.4056322,19.6985913 C25.523842,19.8107539 25.7010438,19.9265189 25.7010438,19.9265189 C25.5057681,20.0139311 22.9350874,20.2765071 22.7796897,20.2849203 C22.624032,20.2909971 22.4098628,20.3088651 22.4098628,20.3088651 C22.4000402,20.034849 22.3601735,19.6934812 22.3466999,19.4553449 C22.334498,19.2182618 22.3013963,18.7804586 22.2760826,18.5932332 C22.2494464,18.4054496 22.202419,17.8883252 22.1798802,17.7162171 C22.1560924,17.54263 22.1710863,17.4409177 22.1801967,17.3590702 Z M14.0326218,16.4313907 C14.122223,16.5199365 14.1827691,16.6428948 14.2363581,16.7772816 C14.2897661,16.908866 14.3402071,17.0888752 14.3669168,17.2592627 C14.3924283,17.4276879 14.4326907,17.8085782 14.4016349,18.0339105 C14.372348,18.2598988 14.3590441,18.5263189 14.3178548,18.7377596 C14.2754223,18.9476927 14.2126494,19.2985785 14.162491,19.4164094 C14.112457,19.5328477 14.1124513,19.6400096 14.0449819,19.7070505 C14.0161416,19.6269237 13.9194871,19.4134055 13.8739235,19.2755832 C13.8279982,19.1368171 13.7508249,18.7868635 13.7284727,18.6238303 C13.7095735,18.4629724 13.6420816,18.0350672 13.6469646,17.9700864 C13.6526332,17.9066018 13.6706224,17.6693805 13.7037297,17.5332788 C13.73877,17.3959744 13.743133,17.326787 13.7783711,17.2535139 C13.8000056,17.2049567 13.8590766,16.992388 13.892054,16.9036005 C13.9261504,16.8125802 13.9351139,16.7377937 13.9646777,16.6514864 C13.989008,16.5781097 13.9981241,16.5219104 14.0326218,16.4313907 Z M0.786061615,11.2019858 C0.989159261,11.2625298 2.85495498,12.3386258 3.03106601,12.4305841 C3.20801348,12.5235609 3.50837034,12.6288353 3.60439185,12.6725126 C3.70533595,12.7171222 4.95045631,13.401492 5.05982137,13.4543076 C5.1710006,13.5068297 5.26100876,13.5564745 5.26100876,13.5564745 C5.29610549,13.5926939 5.30228275,13.6002554 5.29892567,13.7815479 C5.29337575,13.961724 5.30928514,14.1982087 5.28962305,14.3524661 C5.27090479,14.5063322 5.29329663,15.1772709 5.29329663,15.1772709 C4.89439761,15.5794186 4.43678927,16.1489327 4.06483732,16.4889884 C3.69602203,16.8297807 2.28483928,18.2518884 2.28483928,18.2518884 C2.19232744,18.3432137 1.70394587,18.8741375 1.59172109,18.9408792 C1.47117707,19.00872 1.37810572,19.0702653 1.31173276,19.1240592 C1.23979858,18.9892293 1.21703939,18.8347934 1.19543879,18.7649615 C1.17163404,18.6940248 1.14485088,18.4876366 1.11828813,18.370922 C1.09665927,18.2551455 1.06875143,18.0254397 1.05746509,17.9625939 C1.11108228,17.9392303 1.20505224,17.8471166 1.29400354,17.790762 C1.38337306,17.7349252 2.42299948,16.7406825 2.57658303,16.5681427 C2.73132517,16.3979911 3.08535574,16.0693122 3.31894403,15.8386511 C3.55390002,15.607616 4.27590944,14.8042471 4.40489137,14.7084045 C4.53310467,14.6157384 4.78048863,14.3835696 4.84743806,14.3539738 C4.62601777,14.2174175 3.33327096,13.5607272 3.01877932,13.4141751 C2.70445158,13.270909 1.3776988,12.5502277 1.19981316,12.4576307 C1.02560109,12.364907 0.685931356,12.2039685 0.647658392,12.1878902 C0.652937031,12.0313597 0.71144855,11.8300873 0.727617917,11.6689762 C0.745381048,11.5052697 0.785451237,11.2702122 0.786061615,11.2019858 Z M14.9628675,16.2306995 C14.9661002,16.1895501 14.9861086,16.2227141 15.0534339,16.2892467 C15.1899777,16.4234206 15.3344395,16.621879 15.4576793,16.7877665 C15.5800036,16.9535733 15.5284888,16.9130726 15.6306085,17.0245792 C15.7308179,17.1368454 15.8648072,17.4016024 15.8977337,17.6760098 C15.9260541,17.9509236 15.978264,18.299945 15.9126653,18.5040199 C15.643449,18.1924263 15.3631216,17.8009591 15.1894069,17.3585523 C15.0189136,16.9160074 14.9887451,16.6567 14.9712928,16.4899321 C14.9648782,16.4341472 14.9626966,16.2646344 14.9626966,16.2646344 Z M22.6485319,15.1036985 C22.8871219,15.2316344 23.1927857,15.3801373 23.3586615,15.4692988 C23.5283919,15.561142 24.8323459,16.2611413 25.0698564,16.3912698 C25.3049028,16.523044 25.885265,16.8037412 26.0413296,16.9212614 C26.1945175,17.0399152 26.3945803,17.1549781 26.5302255,17.2455323 C26.6658142,17.3365525 26.82267,17.3988632 26.8978765,17.4355372 C26.9813062,17.4771313 27.0899478,17.5377789 27.0899478,17.5377789 C27.0490525,17.6129741 26.9872291,17.718283 26.9451639,17.8165828 C26.9007702,17.915602 26.8292768,18.0372136 26.7826394,18.1100206 C26.7147631,18.2166186 26.6859114,18.3203277 26.5899521,18.3992519 C26.5231383,18.3656854 25.3015966,17.646811 25.1385352,17.5620978 C24.9746318,17.4763544 22.7612258,16.1903139 22.7080551,16.146861 C22.6539179,16.1041735 22.652618,16.0469959 22.6512447,15.949778 C22.6489332,15.8524909 22.6440784,15.5022899 22.6480345,15.3911746 C22.6522337,15.2824187 22.6485319,15.1036985 22.6485319,15.1036985 Z M12.9763343,16.2392854 C13.0207337,16.1909872 13.0342467,16.2182121 13.0447306,16.3254085 C13.0495401,16.3838406 13.0735709,16.456567 13.0585375,16.6249635 C13.0447758,16.7892857 12.9734915,17.0976739 12.9169807,17.2663926 C12.862431,17.4334425 12.7967475,17.612905 12.6440739,17.7768992 C12.4922536,17.9414516 12.3240832,18.1717501 12.268844,18.2445571 C12.2164419,18.316242 12.1718956,18.3710199 12.1204373,18.3913163 C12.1108578,18.3096933 12.1028098,18.1957812 12.1108578,18.1209256 C12.1193579,18.0461045 12.1542624,17.7877063 12.1896418,17.6160988 C12.2224665,17.4423966 12.3210935,17.2001113 12.3818035,17.0558956 C12.4405354,16.9133488 12.6078412,16.6672137 12.7117693,16.5441634 C12.8161835,16.4206872 12.9485564,16.264548 12.9763343,16.2392854 Z M16.042851,15.9652866 C15.9117271,15.7397643 15.8883915,15.6643045 15.9969257,15.7448629 C16.1039736,15.8266759 16.2179561,15.8715559 16.3542908,15.96211 C16.4916145,16.051824 16.7360201,16.2382035 16.9654036,16.4857831 C17.1971664,16.732229 17.3072096,16.9182287 17.4145853,17.0882076 C17.4944544,17.2194525 17.5169593,17.2887837 17.5307493,17.3689336 C17.450705,17.3369323 17.2984722,17.2611502 17.22391,17.1981145 C17.1494947,17.1337034 16.980403,17.0424472 16.8281815,16.9513406 C16.678605,16.8609763 16.5315604,16.7578369 16.4558905,16.6613037 C16.3807914,16.5634297 16.1740088,16.1903484 16.042851,15.9652866 Z M12.3719696,15.4500325 C12.4289043,15.4399907 12.4234053,15.4659209 12.355382,15.5899897 C12.2857594,15.7115841 12.2588632,15.8292366 12.1357816,16.0442165 C12.0122761,16.2591445 11.9294568,16.405944 11.7069627,16.6428085 C11.4838695,16.8810023 11.3177506,16.9658364 11.1922614,17.0497785 C11.0631552,17.1333869 11.0396556,17.1312001 10.9789852,17.1729094 C10.8785101,17.2317903 10.8116737,17.2506653 10.8677381,17.1737496 C10.9226721,17.0995154 11.0803192,16.7624866 11.1377004,16.6504275 C11.1972236,16.5348639 11.4266353,16.1747823 11.5266582,16.0801251 C11.6244147,15.9852837 11.8585512,15.7202678 12.0661928,15.5938338 C12.2766263,15.4667265 12.2912188,15.4666747 12.3719696,15.4500325 Z M0.507633145,13.6886113 C0.722650117,13.7483842 0.77764631,13.7711091 0.92899181,13.8287355 C1.12535269,13.9030502 1.4186563,13.980294 1.50117602,14.0218076 C1.61633401,14.0812064 1.88750577,14.1712542 2.01815493,14.2409077 C2.15183903,14.3122415 2.24390438,14.323509 2.34382553,14.3643378 C2.43676124,14.4017023 2.93901761,14.5195793 2.98908556,14.5311575 C2.98908556,14.5311575 2.93681346,14.5700125 2.82998035,14.6530396 C2.71409329,14.7403655 2.22958876,15.1610602 1.97586364,15.3671262 C1.72275456,15.5713506 1.12958578,16.0545172 0.993641019,16.1520459 C0.856486809,16.2527166 0.738943821,16.2920492 0.738943821,16.2920492 C0.646415029,15.7632833 0.578069642,15.2395297 0.559255303,15.0152908 C0.540927007,14.7906605 0.489796542,14.0223083 0.501806295,13.8668826 C0.515703699,13.7107205 0.507633145,13.6886113 0.507633145,13.6886113 Z M11.7257884,14.9329427 C11.7591783,14.9416148 11.7735222,14.9595979 11.7466882,14.9896253 C11.7278908,15.0115445 11.6971967,15.0286529 11.672465,15.0453815 C11.6553349,15.0586401 11.6391542,15.0715246 11.6191078,15.086826 C11.5807049,15.1139014 11.5505194,15.1458969 11.5095111,15.1713206 C11.4713511,15.1956222 11.4333099,15.2185312 11.3960486,15.2429307 C11.2950706,15.3124403 11.1941095,15.3819557 11.0954487,15.4563107 C10.8659635,15.6285225 10.6065528,15.6968294 10.3823971,15.7530805 C10.1551274,15.8085892 9.84225211,15.7921368 9.66558157,15.7860024 C9.72234108,15.7063762 9.93232808,15.548597 10.1030079,15.4178125 C10.2760218,15.2863145 10.530702,15.1994836 10.6180313,15.155133 C10.7054397,15.1098904 10.842317,15.0413591 10.946313,15.0194571 C11.0502016,14.9938147 11.0591651,14.9751641 11.1509535,14.9572098 C11.258041,14.9365163 11.3392947,14.9449467 11.4949694,14.9157652 C11.5808236,14.8981907 11.6235839,14.9040029 11.7257884,14.9329427 Z M26.7895457,8.75096962 C26.7895457,8.75096962 27.0420727,9.39389499 27.0940283,9.58913658 C27.147312,9.78496513 27.1535345,9.96622307 27.1535345,9.96622307 C26.7933662,10.1945017 26.569024,10.3572587 26.3264892,10.5606257 C26.0834118,10.7648675 25.8000607,10.9602817 25.6851231,11.0574306 C25.5717963,11.1519554 23.7583122,12.5787302 23.6823823,12.6423356 C23.575764,12.7281825 23.4623862,12.9155921 23.4164496,12.9856714 C23.3628833,13.0648027 23.3284252,13.0983174 23.4235199,13.1521458 C23.5201065,13.2047428 25.7983257,14.0550173 26.0781784,14.14495 C26.3573754,14.2371557 27.0253834,14.5017516 27.1424177,14.5501879 C27.2610684,14.6012023 27.363335,14.6615967 27.363335,14.6615967 C27.3760795,14.8361563 27.3902312,14.9745483 27.3904177,15.1978723 C27.3886374,15.4229111 27.3775376,15.6143604 27.348895,15.7106001 C27.1100564,15.6263184 26.6775526,15.4371882 26.4729291,15.3528548 L26.3649958,15.3079136 C26.1115961,15.2050144 25.65707,15.0329385 25.4347325,14.9523068 C25.1773395,14.8561017 24.7138195,14.6771974 24.4831927,14.5876733 C24.2515994,14.4989491 22.9270338,13.9790971 22.8134244,13.9486265 C22.8433668,13.7711609 22.8490693,13.4558729 22.8698844,13.3142698 C22.893333,13.1738176 22.8562978,12.9135435 22.8414792,12.7774763 C22.8254002,12.6403618 22.8248012,12.4317523 22.8158207,12.368682 C22.8040709,12.27517 22.8452488,12.2534292 22.9225577,12.1894785 C22.9966621,12.1257062 23.3498506,11.7913705 23.5673543,11.6079776 C23.7850502,11.4223059 26.4895619,9.01545042 26.5645818,8.95175867 C26.6409413,8.88821078 26.7886471,8.75088334 26.7895457,8.75096962 Z M16.8965372,14.8343504 L17.0207275,14.8382797 C17.1476127,14.8407542 17.3629349,14.8272942 17.5820097,14.9097172 C17.8012315,14.9903101 18.0387477,15.1264118 18.1969204,15.1967156 C18.3559465,15.2680322 18.5929992,15.3887634 18.6698617,15.4464589 C18.7455542,15.5067957 18.7859861,15.5745559 18.7859861,15.5745559 C18.5569643,15.5881598 18.2884093,15.5855645 18.035125,15.5393954 C17.7792523,15.4915748 17.5155463,15.4040994 17.3555877,15.328041 C17.1928315,15.2526905 16.8529188,15.089945 16.7514265,15.0072574 C16.6497646,14.9264285 16.6359577,14.8564872 16.6359577,14.8564872 C16.7752369,14.8220633 16.8961087,14.8360297 17.0207275,14.8382797 Z M14.1244893,12.1682498 C14.291716,12.39757 14.5061,12.7518741 14.6569368,12.981062 C14.8095483,13.2109117 14.9934812,13.5183216 15.0741245,13.6306166 C15.1010207,13.6660361 15.1251307,13.7021404 15.1462226,13.7416629 C15.162895,13.7691928 15.1707508,13.7986678 15.1900964,13.8269055 C15.2023661,13.8424141 15.2042651,13.8416603 15.1973983,13.8572552 C15.1753399,13.9206362 15.1174218,13.9723239 15.0780355,14.025738 C15.0381801,14.079106 14.9985903,14.1348277 14.9621202,14.1912859 C14.9020375,14.282686 14.8474934,14.3782869 14.7873938,14.4696813 C14.7733156,14.4892468 14.7570049,14.5086053 14.7459672,14.5303173 C14.6206928,14.754844 14.5529013,14.8608204 14.5077163,14.9433872 C14.4657246,15.0257871 14.3770954,15.1307681 14.3247612,15.2117351 C14.2758913,15.2948831 14.2146501,15.368536 14.1248567,15.4812971 C13.9440604,15.2252066 13.6736008,14.8406794 13.50868,14.5957988 C13.3414591,14.3511598 13.1492013,13.9478784 13.0459796,13.7926715 C13.2826763,13.4731424 13.4186719,13.292293 13.5044809,13.1629184 C13.6193337,12.9991084 13.8118006,12.7056706 13.9349161,12.4902304 C14.0602414,12.275498 14.1244893,12.1682498 14.1244893,12.1682498 Z M10.1611927,13.5308168 L10.2970516,13.5320348 C10.4640578,13.544246 10.6604243,13.5545352 10.7986806,13.5520262 C10.9387454,13.5496726 11.13774,13.5968602 11.2731252,13.6265539 C11.3970037,13.6524035 11.5964108,13.6949817 11.6726911,13.7539834 C11.7485815,13.8120242 11.7371143,13.8025982 11.8021026,13.8503843 C11.5832425,13.9136156 11.5108166,13.9491329 11.3748605,13.9973276 C11.2416455,14.0453036 11.1927701,14.0264055 11.0671848,14.0959554 C10.6845682,14.2331102 10.3961928,14.2583786 10.1485884,14.2660552 C9.90413766,14.2740599 9.60751088,14.2795497 9.32042973,14.2548396 C9.03490844,14.2330239 8.78220063,14.1651256 8.66631922,14.1567124 C8.58220008,14.1498644 8.46340243,14.1026768 8.43391778,14.0962374 C8.40253417,14.0905519 8.394068,14.0730695 8.49923388,14.0127614 C8.60343898,13.9528216 8.69495613,13.9534028 8.76836539,13.9170569 C8.90634474,13.8514258 9.00936864,13.8201497 9.10667308,13.781381 C9.2490042,13.7230986 9.48034878,13.657784 9.68724999,13.6008597 C9.89227485,13.5446776 10.1325264,13.5223844 10.2970516,13.5320348 Z M17.8841488,13.3064066 L17.9742624,13.3078246 C18.2144801,13.321699 18.3131409,13.3238799 18.490727,13.3403208 C18.6666685,13.3547475 18.8262936,13.3732313 18.9803745,13.4181113 C19.1330143,13.4586638 19.4024736,13.5225743 19.5526096,13.5759078 C19.6995581,13.6294024 19.7575441,13.6788343 19.7917196,13.7144724 C19.8293143,13.7476649 19.8676438,13.7929362 19.8676438,13.7929362 C19.6215767,13.8801067 19.2534905,13.9972701 18.9184325,14.0302784 C18.5833632,14.0632694 18.3060085,14.0723962 17.9004632,14.0784557 C17.493957,14.0797966 17.1510941,14.0420407 17.0210384,14.018867 C16.8909318,13.9961594 16.7960632,13.9618621 16.7346015,13.9510722 C16.6719474,13.9383086 16.5182451,13.8892852 16.4837814,13.8466725 C16.448662,13.8063099 16.3492552,13.7409723 16.4884666,13.697272 C16.6239309,13.6546132 17.1974942,13.4353866 17.4034063,13.3793081 C17.6084594,13.322683 17.842935,13.2989281 17.9742624,13.3078246 Z M27.2767291,11.2157853 C27.357203,11.1470353 27.435354,11.0427679 27.432692,11.1753709 C27.4293067,11.3055799 27.4333081,11.4810544 27.4370212,11.5315509 C27.4504947,11.7850174 27.4992232,12.3292631 27.4996528,12.6423529 C27.5003084,12.804051 27.5007266,12.9889631 27.494182,13.1086699 C27.4895363,13.2276403 27.4833591,13.44037 27.4756276,13.542652 C27.3407736,13.4688955 27.0610227,13.3933896 26.8938808,13.3287196 C26.7264959,13.2617132 25.6061187,12.8722083 25.4930745,12.8352984 C25.4018456,12.8045689 25.3492683,12.8057716 25.3191676,12.7853313 C25.2902764,12.7664217 25.4304316,12.7036392 25.4835175,12.6504841 C25.5330655,12.5960687 27.1934973,11.2847483 27.2767291,11.2157853 Z M9.83244084,11.8280617 C9.93644813,11.8112468 9.95344829,11.8197866 10.0102643,11.8264332 C10.0994869,11.8425633 10.0936827,11.8462002 10.1399866,11.8634812 C10.1795481,11.8796746 10.5984483,11.9536901 10.7617301,12.0077602 C10.9257975,12.0633092 11.0814382,12.070301 11.3175472,12.2628609 C11.5555098,12.4551159 11.7713689,12.6091719 11.8763257,12.6736175 C11.9811977,12.7389954 12.1299491,12.8130396 11.9631237,12.8189323 C11.761552,12.8007593 11.4977104,12.7860909 11.2196267,12.7065453 C10.9417351,12.6246633 10.7131033,12.552495 10.5364215,12.4238743 C10.3622886,12.2973712 10.1984812,12.2135154 10.0657918,12.1075735 C9.98434586,12.0453088 9.91541835,11.9447474 9.8905624,11.9169528 C9.86830055,11.8907579 9.83244084,11.8280617 9.83244084,11.8280617 Z M18.0186787,11.5484464 C17.8319539,11.8030178 17.7106865,11.98244 17.4790536,12.1581505 C17.2459853,12.3346552 17.0105659,12.5067633 16.8705802,12.5490135 C16.7345676,12.5925642 16.5923213,12.6396942 16.5019853,12.6665912 C16.4472322,12.6828594 16.3911339,12.704088 16.333374,12.7131227 C16.2935299,12.7205749 16.236307,12.7389551 16.2433772,12.6802123 C16.2482998,12.6403272 16.2640283,12.596788 16.2823001,12.5604421 C16.3106883,12.4976653 16.3388222,12.417222 16.3754223,12.3593769 C16.4154247,12.2990688 16.4698161,12.2614223 16.5249084,12.2159553 C16.6490469,12.1165909 16.7779892,12.0195053 16.9237283,11.9536728 C17.0955215,11.8819304 17.159939,11.8187393 17.291905,11.7539484 C17.4249165,11.6878512 17.5124436,11.6463319 17.6675192,11.6087199 C17.8226456,11.5702102 17.9452299,11.5546498 18.0186787,11.5484464 Z M1.29944608,9.34855461 C1.41476231,9.41632637 1.56853237,9.46720266 1.71103304,9.55236477 C1.85480533,9.63858573 3.38475183,10.3571091 3.76246847,10.526173 C4.13847265,10.6941897 5.44402044,11.2378024 5.50518824,11.2578456 C5.57964306,11.2823716 5.63868018,11.3110352 5.63868018,11.3110352 C5.57176466,11.48369 5.55859632,11.6111426 5.54924849,11.7161753 C5.53969155,11.8235271 5.51035949,11.9480909 5.51550815,11.9875788 C5.51866177,12.029219 5.50535213,12.071193 5.50535213,12.071193 C5.03540625,11.877321 1.54082799,10.3114119 1.51248497,10.2967319 C1.48241255,10.2809644 1.05600696,10.1515207 1.05600696,10.1515207 C1.06480093,9.9911174 1.13669555,9.6702935 1.16871214,9.59752101 C1.20316459,9.52314874 1.29944608,9.34855461 1.29944608,9.34855461 Z M10.7341388,10.3669667 C10.6974539,10.293026 10.6539419,10.2189932 10.8542533,10.2973362 C11.0571588,10.3769163 11.1094478,10.418827 11.2556107,10.4811089 C11.3969133,10.5414975 11.5284158,10.6608246 11.58218,10.6964282 C11.6360006,10.7315599 11.7432237,10.8161696 11.7790721,10.8589032 C11.8175485,10.9023618 11.8618292,10.9523979 11.9788183,11.0759431 C12.0958866,11.1985676 12.2174874,11.3624467 12.3135655,11.5619812 C12.4072641,11.7627069 12.4542124,11.9002012 12.464651,11.9568321 C12.4672734,11.9732959 12.4755643,12.058953 12.4755643,12.058953 C12.3425584,11.9974364 12.1564044,11.8781842 12.0522502,11.8198384 C11.9466039,11.763173 11.7961401,11.6880411 11.6629703,11.5875776 C11.5285345,11.4860494 11.3661513,11.3657095 11.2603751,11.2441382 C11.152389,11.1269805 11.1004052,11.0711783 10.9873326,10.8681681 C10.8781089,10.6627581 10.7738981,10.442041 10.7341388,10.3669667 Z M17.1362359,10.4418856 C17.2538807,10.3896858 17.17157,10.4901436 17.1178398,10.5918674 C17.0657316,10.6909556 16.9771646,10.9225949 16.8687265,11.0605208 C16.7593275,11.1988438 16.7062189,11.2732506 16.5261857,11.422185 C16.3459094,11.5688061 16.1386691,11.7365638 15.995185,11.7975049 C15.8534586,11.8590789 15.7525993,11.8557643 15.7525993,11.8557643 C15.8177967,11.6103657 16.0181364,11.2290554 16.3534487,10.9432596 C16.6865286,10.6567964 16.6556028,10.6715626 16.8343249,10.5934672 C17.0115323,10.5119995 17.0155111,10.4928827 17.1362359,10.4418856 Z M12.0132538,9.08071893 C12.1652436,9.23579926 12.2559808,9.37779942 12.3873082,9.55510396 C12.5207549,9.7339795 12.6501607,9.97370403 12.6899314,10.0692417 C12.7299394,10.1671157 12.7993247,10.2523929 12.8295101,10.3530636 C12.8666754,10.472477 12.8967478,10.5388274 12.912612,10.6316661 C12.9319858,10.741078 12.959029,10.8720812 12.9668734,10.9985152 C12.9760687,11.125093 12.9605097,11.2535354 12.9605097,11.2535354 C12.7385299,11.0149733 12.5060324,10.6594607 12.3908122,10.4089636 C12.2766489,10.1567459 12.1939992,9.91390813 12.1337752,9.71581227 C12.0748285,9.51364792 12.0339615,9.29786247 12.0161248,9.20670983 C12.0003059,9.11338771 12.0132538,9.08071893 12.0132538,9.08071893 Z M25.4262437,6.53945362 C25.5131774,6.62877054 25.5657321,6.69447064 25.6657662,6.85697439 C25.7649357,7.01894296 25.8633196,7.13345921 25.8938611,7.19527497 C25.9269007,7.2596285 26.0088722,7.4097714 26.0344685,7.4400175 C25.5836421,7.82063731 25.6813083,7.73813957 25.6027221,7.79592136 C25.5244637,7.85509577 25.3875299,8.00456537 25.370428,8.02761249 C25.3454873,8.06710046 25.2761981,8.17405519 25.171993,8.26849369 C25.0705177,8.36316813 23.0048853,10.6803326 22.9333693,10.7508378 C22.8636562,10.8215156 22.8021041,10.8980516 22.7597959,10.9480187 C22.7144471,10.9965471 22.5717373,11.1032083 22.5018377,11.160852 C22.4502212,10.9823736 22.3635814,10.5205681 22.3408505,10.4070013 C22.3156046,10.2959954 22.2994239,10.0984807 22.2636546,10.0492042 C22.3559291,9.9657627 22.3625811,9.92689047 22.4309717,9.86584583 C22.5005039,9.80213681 23.3196821,8.8655895 23.4694904,8.72520638 C23.6186656,8.58660719 24.2417712,7.94116135 24.314717,7.84955985 C24.3895109,7.75737139 24.4964401,7.55553505 24.5800337,7.46194247 C24.6659048,7.3685513 25.1777068,6.73852775 25.2566999,6.67617682 C25.331296,6.61205922 25.4262437,6.53945362 25.4262437,6.53945362 Z M15.9052164,9.05589365 C15.9052164,9.05589365 15.8216342,9.64005891 15.7487279,9.86481 C15.6818068,10.0784835 15.6135009,10.2720908 15.4972522,10.5382749 C15.3773412,10.8045741 15.1712255,11.0160494 15.0332462,11.1326948 C14.9842916,11.1504362 14.9640417,11.1425237 14.9482228,11.1155519 C14.9328164,11.0890866 14.9193089,11.0057314 14.919665,10.9556665 C14.9175343,10.8775365 14.9024557,10.8779969 14.9384398,10.7454055 C14.9753281,10.6129119 15.0406385,10.2997876 15.0879259,10.1580464 C15.1348741,10.0148838 15.2538752,9.74849832 15.3684285,9.63894252 C15.4829139,9.53033622 15.7204188,9.20718171 15.9052164,9.05589365 Z M14.0337352,7.55469488 C14.2058166,7.80627962 14.2126324,7.95442567 14.278152,8.23092776 C14.3464296,8.50722843 14.3585071,8.95366919 14.3635089,9.08634116 C14.366589,9.19980433 14.3642153,9.25710849 14.3622429,9.43737089 C14.3610899,9.55231874 14.324456,9.79431057 14.3152494,9.91777521 C14.3053534,10.0439675 14.2716244,10.1869575 14.2603324,10.3134778 C14.247927,10.4524107 14.228214,10.5048638 14.2024538,10.5688318 C14.1869514,10.6072897 14.1729904,10.6374207 14.162905,10.6579372 L14.1466099,10.6893558 C14.0745457,10.8074802 14.0748,10.8302396 14.0043974,10.7207413 C13.9619027,10.6504721 13.8702612,10.2634589 13.8254493,10.0714457 C13.7790267,9.8820565 13.7398664,9.40203773 13.7529386,9.00059208 C13.7605571,8.71091199 13.7829602,8.42444872 13.8069062,8.25318649 C13.8317226,8.08243643 13.8695435,7.73525076 14.0337352,7.55469488 Z M5.27928054,6.95783501 C5.32046975,6.95141289 5.35497872,7.05539826 5.36377268,7.0850056 C5.37102375,7.1163163 5.73495601,8.23448984 5.79476741,8.47504879 C5.85464098,8.71467549 6.15262415,9.85136154 6.14477401,9.89337577 C6.13824636,9.93597121 6.16331142,9.98752079 6.12799992,10.0307032 C6.12799992,10.0307032 5.9210535,9.97769771 5.8516456,9.92206238 C5.78339629,9.86885548 2.36046399,8.03644002 2.28130134,7.98269795 C2.20164701,7.92936445 2.05474936,7.88840331 1.95614504,7.81752983 C1.95614504,7.81752983 2.14285291,7.71350994 2.2434466,7.67496572 C2.29423797,7.65780555 2.40524765,7.62022235 2.56199047,7.58636812 C2.71937758,7.55026385 5.19098483,6.97104754 5.27928054,6.95783501 Z M24.5836394,5.68730306 C24.631605,5.67639812 24.571268,5.72890871 24.4696626,5.80963404 C24.3691537,5.88814385 24.1806486,6.08394939 24.0417028,6.17936617 C23.904543,6.27493258 23.0362972,7.36299813 22.834409,7.61703431 C22.6311813,7.87093239 22.0072224,8.66942143 21.9535204,8.76528132 C21.8849885,8.85370053 21.8611894,8.87005506 21.8640887,8.83735175 C21.8551874,8.65027017 21.866988,8.4511615 21.872877,8.35416796 C21.8773701,8.2575197 21.9067869,7.97318562 21.9062387,7.8872006 C21.9061596,7.80080125 21.9416011,7.29499043 21.9448451,7.12529346 C21.9451616,6.95760483 22.0027236,6.28523904 21.9991349,6.21290965 C22.2910595,6.12093411 22.5666734,6.09434217 22.7603045,6.0611267 C22.9565072,6.02998864 24.20759,5.76595674 24.3308977,5.74388215 C24.4522782,5.72303328 24.5365782,5.69829432 24.5836394,5.68730306 Z M6.66623423,6.30476075 L6.73819712,6.30954065 C6.85613007,6.32226404 8.76902098,6.51549728 8.83003618,6.53227765 C8.89034492,6.55176843 8.99601945,6.5638473 9.03768906,6.60809431 C8.73451767,6.78543338 8.36061024,7.06539397 7.92103632,7.48885667 C7.47941649,7.90935575 6.91547803,8.57170857 6.84545411,8.66138227 C6.79890148,8.42067371 6.67254757,7.33927197 6.66365752,7.18796665 C6.65303808,7.0355622 6.5100005,6.31587645 6.5100005,6.31587645 C6.59718848,6.31508807 6.62307304,6.29612671 6.73819712,6.30954065 Z M20.8715631,6.12295397 C20.9686754,6.10311216 20.9544672,6.06788834 20.9439381,6.25271988 C20.9347881,6.437655 20.8994031,7.85015833 20.9014208,7.92467446 C20.9050718,7.99653197 20.9253781,8.12197043 20.8815778,8.08122796 C20.7375625,7.95134121 20.4749361,7.69347247 20.2710868,7.50838198 C20.0691081,7.32253188 19.7117148,7.02248203 19.5580465,6.88844046 C19.4038978,6.754842 19.186298,6.55499675 19.1425599,6.54400549 C19.3180888,6.45802623 19.5888141,6.44026758 19.7254483,6.40689098 C19.8663157,6.37207574 20.5896985,6.22468929 20.6640233,6.19437413 C20.7572246,6.15698083 20.8319507,6.1271951 20.8715631,6.12295397 Z M5.35869185,3.44029273 C5.40083054,3.46415124 5.40232258,3.49353415 5.43553732,3.58671816 C5.47505365,3.71160418 5.62444367,4.75469764 5.64352929,4.89394711 C5.66280707,5.0359933 5.7482939,5.48515597 5.75596319,5.54763927 C5.64799975,5.57668841 3.66463278,5.95477045 3.54692589,5.99593875 C3.47335273,6.02306012 3.23367196,6.03532314 3.14784602,6.07709567 C3.07648831,6.10998889 3.01228558,6.12915741 3.01228558,6.12915741 C3.13422555,5.9225793 3.38449186,5.51460794 3.52872193,5.32402182 C3.67082698,5.1318129 4.1235636,4.534907 4.36325567,4.30203042 C4.60534404,4.06796265 4.98842409,3.69503673 5.09517243,3.59757706 C5.20422099,3.49987571 5.26196389,3.45597397 5.26196389,3.45597397 C5.2980214,3.4402582 5.35869185,3.44029273 5.35869185,3.44029273 Z M6.28682255,2.99284492 C6.26146925,2.78565682 6.27190785,2.76061861 6.40020027,2.90297555 C6.46652237,2.9778312 9.78422098,5.56230195 9.88246359,5.64755038 C9.98600744,5.73466905 10.0373979,5.78261626 9.98857329,5.78275526 C9.77398584,5.78477423 7.20799606,5.32319316 7.07742603,5.2934995 C6.9486306,5.26441582 6.70936241,5.23120035 6.70936241,5.23120035 C6.64835851,4.77872879 6.50013837,4.06598307 6.45228021,3.82467603 C6.40331433,3.58049745 6.31085336,3.17900001 6.28682255,2.99284492 Z M21.0241124,2.05038189 C21.109085,1.95182311 21.0624645,2.09107257 21.0515851,2.29538338 C21.0435711,2.48275844 20.9240895,4.27629016 20.924796,4.44263797 C20.9260676,4.60765071 20.8720548,4.69695037 20.8364438,4.76891722 C20.7242642,4.85563883 20.659242,4.90955354 20.5152606,4.95386961 C20.3721326,4.99873236 18.6952545,5.72094437 18.589094,5.7501604 C18.4834364,5.77909446 18.4172443,5.77942247 18.4172443,5.77942247 C18.6011941,5.47079828 19.1019867,4.66183014 19.2983702,4.38268094 C19.4953132,4.10220819 20.1531312,3.18976684 20.3064604,2.99954326 C20.4529625,2.80915854 20.9424574,2.14789335 21.0241124,2.05038189 Z M8.14012248,1.5954819 C8.19818751,1.67609213 9.15830089,2.62075341 9.35138381,2.79371899 C9.68234436,3.08853217 10.3265814,3.66635587 10.5585138,3.87448197 C10.7862357,4.08360361 11.2260526,4.53387693 11.3639246,4.66088063 C11.4984621,4.7894093 11.7504295,5.0439634 11.7675427,5.06180837 C11.7859615,5.08000437 11.8168195,5.13813144 11.8168195,5.13813144 C11.6231827,5.18156705 11.2493939,5.2757466 11.1791948,5.29573803 C11.1084136,5.31712207 11.1110416,5.34379458 11.078392,5.31616106 C11.0614427,5.3015962 10.8187044,5.12267462 10.6952893,5.02310303 C10.569235,4.92222514 7.5564089,2.21325393 7.49445553,2.16614114 C7.43246259,2.11962682 7.43939717,2.10307088 7.48085201,2.07811324 C7.52471445,2.05195865 7.92717401,1.76860285 8.01912633,1.68371696 C8.11083563,1.5964947 8.14012248,1.5954819 8.14012248,1.5954819 Z M18.6530706,0.864753099 C18.855767,0.852800824 19.1600574,1.02672742 19.3229662,1.0877548 C19.4859541,1.14784994 19.6527907,1.29283673 19.7171235,1.33361372 C19.7807667,1.3719853 19.837334,1.41298672 19.837334,1.41298672 C19.6200734,1.73202095 19.5427645,1.8470321 19.5071252,1.91436075 C19.4303362,2.06471657 18.9517489,2.63926591 18.8231796,2.80762782 C18.6934856,2.97820525 18.5440842,3.24728392 18.3927783,3.4200596 C18.241495,3.59234039 17.5150773,4.66564543 17.3992467,4.82913321 C17.2855468,4.99420925 17.212861,5.1240845 17.1845858,5.18557224 C17.1317711,5.30239033 17.1462563,5.33949015 17.0627871,5.31367508 C16.963369,5.28267512 16.703427,5.19457817 16.5700255,5.16091384 C16.4398059,5.12753149 16.1563474,5.05769384 16.1563474,5.05769384 C16.2395115,4.91767326 16.3628982,4.73071253 16.4325548,4.6145332 C16.5000977,4.49627646 17.7002818,2.45178726 17.8046169,2.28909362 C17.9075729,2.12672798 18.3317857,1.46076705 18.4072296,1.33072492 C18.4851488,1.19855935 18.6530706,0.864753099 18.6530706,0.864753099 Z M22.1769131,2.63514563 C22.2006557,2.61459025 22.2298578,2.66048307 22.2550924,2.68975089 C22.2916246,2.73539051 22.281056,2.70560477 22.3556861,2.78959871 C22.4300392,2.87682096 22.6489162,3.05215743 22.7461472,3.17956971 C22.8416431,3.30589438 23.6459574,4.21759914 23.7515246,4.34346344 C23.8551871,4.46543188 23.9394589,4.59490431 24.0218656,4.69913136 L24.0218656,4.69913136 C24.0996096,4.80410076 24.1626086,4.91629792 24.1626086,4.91629792 C23.9962692,4.94013916 23.9803429,4.93946588 23.8801335,4.96370419 C23.8093523,4.97995514 21.9454781,5.23517677 21.9454781,5.23517677 C21.9454781,5.23517677 21.9642868,4.97265833 21.9693902,4.85386642 C21.9739794,4.73585137 22.0708317,3.26310903 22.0984061,3.13280795 C22.1322425,2.97287651 22.1280094,2.91813889 22.1451904,2.7813121 C22.1539787,2.71340224 22.1447891,2.6628482 22.1769131,2.63514563 Z M16.0824634,0.148433783 C16.2033918,0.17354104 16.304918,0.181016247 16.3865278,0.202020485 C16.475253,0.230171918 16.7082648,0.256827159 16.7729819,0.27299179 C16.8347657,0.286118 16.8816631,0.32805742 16.8816631,0.32805742 C16.8156405,0.413938857 16.7936952,0.521998467 16.7283508,0.687367995 C16.6634529,0.852772051 16.3474749,1.62996337 16.1955247,2.00985235 C16.0424498,2.38682375 15.4233625,4.27870133 15.35244,4.40407074 C15.2838064,4.52918118 15.1772219,4.71210795 15.1494384,4.78850583 C14.9601534,4.74735479 13.4708479,4.80733484 13.4708479,4.80733484 C13.4473653,4.78938628 13.398925,4.72358835 13.3350444,4.67263725 C13.2683493,4.62236519 12.1980797,3.51612666 12.0427893,3.36430918 C11.8890136,3.21123144 10.2482892,1.58461148 10.1627401,1.47452626 C10.0949599,1.38992234 9.87412175,1.23660867 9.74303176,1.08994155 C9.68473501,1.02223309 9.63033224,0.977214966 9.75376424,0.933330496 C9.87894826,0.89007903 10.1625649,0.768542181 10.3478147,0.711773193 C10.5328327,0.657772161 10.5958712,0.636198219 10.5958712,0.636198219 C10.8702418,0.997810629 11.2104145,1.3222887 11.5035994,1.62106678 C11.7955749,1.91833717 13.4454155,3.5448593 13.6208427,3.72642799 C13.7946478,3.9059538 14.327067,4.54590401 14.327067,4.54590401 C14.4391788,4.37786435 15.1783353,2.1315158 15.2513885,2.00263034 C15.3239161,1.87464836 15.8118851,0.728219799 15.8505593,0.626847018 C15.8881654,0.527166085 16.0824634,0.148433783 16.0824634,0.148433783 Z M14.833726,1.22124533e-14 C14.7082425,0.487321333 13.9637451,2.53249533 13.9637451,2.53249533 C13.8004521,2.31168037 13.4338183,1.90020447 13.1167156,1.53187646 C12.8026535,1.16521153 12.4401737,0.711830739 12.3486113,0.618387777 C12.2603043,0.523845689 12.0287506,0.255365494 12.0287506,0.255365494 C12.4237048,0.138547405 12.6117182,0.122451829 12.9058865,0.0924474189 C13.3044747,0.0525796493 13.766836,0.0395455128 13.9977172,0.0236571017 C14.2225793,0.00864338768 14.4119887,0.00754426182 14.5569309,0.00883328901 C14.7009801,0.00493167992 14.833726,1.22124533e-14 14.833726,1.22124533e-14 Z" id="Combined-Shape" fill="#2C1E16" fill-rule="nonzero"></path>
    </g>
</svg>