<?xml version="1.0" encoding="UTF-8"?>
<svg width="28px" height="28px" viewBox="0 0 28 28" version="1.1" xmlns="http://www.w3.org/2000/svg" xmlns:xlink="http://www.w3.org/1999/xlink">
    <title>FL</title>
    <g id="FL" stroke="none" stroke-width="1" fill="none" fill-rule="evenodd">
        <path d="M17.1354974,10 C17.1354974,10 7.90097876,12.6510825 3.37204625,16.1390126 C-1.15753334,19.6269428 -0.492979308,21.7599463 1.69545472,22.935366 C3.81723922,24.0737344 10.5857253,23.998993 10.5857253,23.998993 C10.5857253,23.998993 1.1881418,24.0615969 0.946132837,20.8496348 C0.55400066,15.6458474 18,10.6509525 18,10.6509525 L17.1354974,10 L17.1354974,10 Z" id="Path" fill="#FE0B0A" fill-rule="nonzero"></path>
        <path d="M19.8819889,8.88046079 L20.0962513,9.61550731 L19.6312699,9.68684094 L17.3185154,7.79308817 L17.7259337,7.58963226 L19.1592531,8.06477625 L19.377353,7.21311475 L19.743198,6.99973416 L20.0163026,7.84085069 C20.0163026,7.84085069 20.5701869,7.58653079 20.9251589,7.4140895 C21.2801309,7.24164821 21.6248694,7.10890563 21.6248694,7.10890563 L17,4.32503323 L17.4387582,4 L22.3348134,5.72937528 L23.7361534,6.15365529 C23.7361534,6.15365529 25.794991,5.22879929 26.3380022,5.0154187 C26.8822926,4.8020381 27.4150704,4.97385911 27.624216,5.02410279 C27.8333617,5.07496677 28.3360788,5.36836509 27.6561955,5.76473195 C26.6635531,6.34408507 24.9807939,7.16287107 24.9807939,7.16287107 L25.153483,10.8976518 L24.7134456,11 L22.8906164,8.0610545 L19.8819889,8.88046079 L19.8819889,8.88046079 Z" id="Path" fill="#084887"></path>
    </g>
</svg>