<?xml version="1.0" encoding="UTF-8"?>
<svg width="28px" height="28px" viewBox="0 0 28 28" version="1.1" xmlns="http://www.w3.org/2000/svg" xmlns:xlink="http://www.w3.org/1999/xlink">
    <title>FM</title>
    <g id="FM" stroke="none" stroke-width="1" fill="none" fill-rule="evenodd">
        <path d="M0,23.5 C0,23.5 2.99034376,23.1300268 7.09463113,19.1782842 L20.5322518,4.5 L28,4.5 L21.778679,23.3766756 L0,23.5 Z" id="path353" fill="#DE0038" fill-rule="nonzero"></path>
        <path d="M19.5075319,11.1729223 C20.4213982,10.9959786 23.2711472,11.1300268 23.1819235,11.1353887 C20.8215527,11.3096515 20.2294322,12.2506702 20.2267285,12.2533512 L20.2267285,12.2533512 L16.1792198,17.8324397 L16.3955195,17.8672922 C16.3955195,17.8672922 19.5643105,13.5589812 20.2780997,12.5321716 C20.9199456,11.6093368 22.3687142,11.3838164 22.6158207,11.3515734 L22.6519892,11.347185 C22.3167246,11.6420912 21.9652375,11.9718499 21.7083816,12.2882038 L21.7083816,12.2882038 L17.5716493,18.0790885 C17.5716493,18.0790885 19.3155659,18.4061662 20.6485129,18.5294906 C21.9841638,18.655496 22.0571649,18.2319035 22.0571649,18.2319035 L22.0571649,18.2319035 L22.3924295,18.3552279 C22.1979677,18.7000412 21.7015183,18.7377334 21.5533672,18.7411697 L8.07338741,18.7412869 C8.05716493,18.6849866 8.69795288,18.7761394 9.1629973,18.4061662 C9.56855929,18.0871314 9.70645037,18.2453083 9.998455,18.3847185 C10.2363847,18.4946381 10.4878331,18.5428954 11.4314407,18.4597855 C13.1915798,18.3042895 13.1915798,17.9557641 14.7759753,15.7761394 C15.2788722,15.0817694 16.0413287,13.8699732 16.8848976,12.6715818 C17.7284666,11.4651475 18.5909618,11.347185 19.5075319,11.1729223 Z M9.57126304,17.8512064 C9.80919274,17.8512064 10.00927,18.1568365 10.0119737,18.1541555 L10.0119737,18.1541555 L9.13866358,18.1541555 C9.13866358,18.1541555 9.33333333,17.8512064 9.57126304,17.8512064 Z" id="Combined-Shape" fill="#FFFFFF" fill-rule="nonzero"></path>
    </g>
</svg>