<?xml version="1.0" encoding="UTF-8"?>
<svg width="28px" height="28px" viewBox="0 0 28 28" version="1.1" xmlns="http://www.w3.org/2000/svg" xmlns:xlink="http://www.w3.org/1999/xlink">
    <title>FR</title>
    <g id="FR" stroke="none" stroke-width="1" fill="none" fill-rule="evenodd">
        <path d="M12.2237812,0.0453122109 C14.499505,0.222732445 16.4228447,0.993851724 18.5441018,1.51732925 L18.5515536,1.51855889 C20.3186016,2.11502464 22.1881495,2.5723209 24.0945434,2.7912197 L25.4242397,2.80439447 L25.4653004,2.76706596 C26.2602722,2.78902391 26.8478977,2.43618161 27.6210355,2.26394345 C27.7042434,2.2441813 27.9039422,2.19345844 27.988736,2.30807893 C28.0274071,2.45739299 27.9670108,2.61944266 27.799726,2.7305938 C26.8528294,3.46278164 25.7237662,4.00747054 24.6593357,4.39948582 L24.6593357,4.37752787 C24.3101235,4.44537793 23.9365571,4.59737086 23.5738969,4.71774434 C22.2627106,5.11904783 20.7700313,5.37103726 19.3598429,5.26838384 C16.6585207,5.12829213 14.3625923,4.15267846 11.9775902,4.26806749 C9.63560422,4.1297324 7.40832774,5.03420231 6.16173074,6.81936167 C5.5220731,7.75349677 5.0133755,8.73853039 4.85471572,9.82189172 C4.92532291,10.8026875 6.28765051,11.179398 6.79804269,11.9905467 C7.09100819,12.4809116 7.23624174,13.0213846 7.45701411,13.5304577 C8.02280577,14.5562233 8.58355717,15.5811326 9.27863602,16.5466017 L9.26125579,16.5663638 C9.6684094,17.2120154 10.3173003,17.7711526 11.0845505,18.1504103 C12.0793297,18.8690501 12.9573789,19.7700946 13.4795462,20.7381547 L13.4523896,20.7535253 C14.0399935,21.700396 14.369892,22.6820481 14.8249064,23.669541 C15.0289068,24.2753389 15.2538505,24.8081705 15.4284566,25.3978292 C15.4882011,25.4529437 15.4882011,25.5418734 15.5231789,25.6193191 C15.6841632,26.0859914 15.8211846,26.5831633 16.0176029,27.0158886 C15.9328743,27.0811037 16.0838651,27.1059162 16.0653986,27.1693747 C16.0762612,27.4315087 16.3291001,27.8243803 15.9915326,28 C15.5004325,27.561346 15.2427488,26.9182416 14.9774614,26.4507569 C14.3974179,25.4283508 13.7333845,24.4399137 13.018188,23.4675498 L13.0399133,23.4477876 C12.600867,22.8903631 12.1156761,22.2624975 11.6136699,21.6855524 C9.49740966,19.3176071 6.3872175,17.8956103 4.11388342,15.6411876 L4.09215813,15.6609497 C3.89836857,15.4852861 3.7739913,15.2528393 3.61702609,15.0526047 L3.6322338,15.0306468 C3.35521465,14.6386754 3.19066733,14.1915457 2.92290316,13.7902202 L2.93811086,13.7704581 C2.23464605,12.7116018 1.5580337,11.5874207 1.10306273,10.4734719 C1.00834047,9.98051595 0.841273011,9.55631031 0.804209671,8.98869731 L0.751199969,8.80293306 C0.780529107,8.28624054 -0.487836627,7.98673411 0.209762354,6.99572792 C0.647961403,6.51807664 2.34364182,5.9292303 2.92042648,5.03244567 C2.93346165,4.89850218 2.9640943,4.73886789 2.84981929,4.61755021 C2.84981929,4.52181355 2.75140374,4.42080698 2.68275183,4.32144726 C2.36204314,3.91843105 1.49237988,4.23668958 1.50667512,3.64184872 C1.5957488,3.63745713 1.51102017,3.55862809 1.56967845,3.52459327 C1.52101381,3.23103743 1.50080929,3.03673154 1.58271362,2.78900195 C1.75825395,2.30114022 1.92942749,1.73945587 1.89499291,1.24737821 C1.93040512,1.06249228 2.11333204,0.952109662 2.29793181,0.879999755 C2.65889746,0.788435104 2.97454417,0.739249297 3.3287967,0.691600546 L3.37333354,0.728050743 C4.19181203,0.660200678 5.17479438,0.719267563 5.71792657,1.36948637 C5.9528421,1.86244234 5.76919825,2.44700688 5.63732575,2.94334438 C5.59626496,3.22925884 5.28641891,3.46258402 5.35863377,3.76380317 C5.46617394,3.8749104 5.69189968,3.86810343 5.83546038,3.80640159 C7.07110783,3.0495989 8.14985525,1.99921841 9.04971666,0.938693355 C9.87910124,0.153894272 11.1004969,-0.117593818 12.2237812,0.0453122109 Z M24.1349959,6.59106486 C24.3790795,7.00404998 24.1436426,7.45882108 24.0326264,7.85419592 C23.0638958,10.593011 21.2524413,12.8599497 19.7974988,15.3552511 C18.5517491,17.4051136 17.736638,19.6814064 16.9071666,21.9070642 C16.6200669,22.5756179 16.5168066,23.3180162 16.1684416,23.9534792 C16.1399815,24.021988 16.0509078,23.9809267 15.9898598,23.998493 C15.7758657,23.8160225 15.8034568,23.5556231 15.7530541,23.3248231 C15.9175145,20.5385789 16.9803591,18.0210999 17.9783753,15.5064755 C19.2274924,12.7024454 20.9021645,10.0246734 22.0405696,7.12556528 C22.1991642,6.75989954 22.5123342,6.31191345 22.9958522,6.17445668 C23.4802175,6.10067797 23.8470924,6.27721989 24.1349959,6.59106486 Z M19.9638711,6.41518169 C20.3137351,6.68170728 20.1331545,7.18557635 19.9956334,7.4978184 C18.4728429,10.9061314 16.0064361,13.8449834 14.9857821,17.419518 C14.7037227,18.1771771 14.5207306,18.9602854 14.2865103,19.7237852 C14.2452323,19.861242 14.0464459,19.865414 13.904558,19.8315988 C13.7692095,19.5074994 13.8089668,19.0959855 13.8089668,18.7455805 C14.1304793,15.8734807 14.8096118,13.0830645 16.1980966,10.5827127 C16.8293466,9.33381041 17.4396316,8.21037583 18.1019705,6.99127046 C18.2890252,6.64679414 18.6022821,6.3345521 19.0572748,6.22173215 C19.3922136,6.20196999 19.7145517,6.28101861 19.9638711,6.41518169 Z M16.2052225,6.28352182 C16.375766,7.05721018 15.8266377,7.6918608 15.5832058,8.38419496 C14.2837295,11.0059742 12.7239407,13.571541 11.9533448,16.3740341 C11.9172808,16.4631834 11.8657919,16.5837326 11.762814,16.6227079 C11.6528841,16.6532295 11.5605516,16.5978954 11.5319828,16.519286 C11.2718225,15.4052933 11.5713056,14.246199 11.8543209,13.1873867 C12.5947187,10.8345924 13.4904089,8.42756191 14.7429152,6.23945221 C14.8882573,6.12746667 14.9108516,6.03260833 15.0921274,5.9806119 C15.5277846,5.93471979 15.9643108,5.96743713 16.2052225,6.28352182 Z M12.1812213,5.41835664 C12.3734901,5.45897885 12.5455327,5.52704849 12.6857042,5.66867727 C13.0064129,6.09962399 12.5773168,6.47973806 12.4497242,6.85899577 C11.1141621,8.88593411 10.6482633,11.1818573 9.76187159,13.3530594 C9.69560946,13.4277164 9.56395422,13.4505527 9.46890608,13.4209095 C9.23290429,13.2505158 9.23290429,12.9695419 9.25990882,12.7234591 C9.43783892,10.3697865 10.0532077,8.16147547 11.044576,6.05724515 C11.2762328,5.7204102 11.6716547,5.33862733 12.1812213,5.41835664 Z" id="Combined-Shape" fill="#F4CA35" fill-rule="nonzero"></path>
    </g>
</svg>