<?xml version="1.0" encoding="UTF-8"?>
<svg width="28px" height="28px" viewBox="0 0 28 28" version="1.1" xmlns="http://www.w3.org/2000/svg" xmlns:xlink="http://www.w3.org/1999/xlink">
    <title>FX</title>
    <g id="FX" stroke="none" stroke-width="1" fill="none" fill-rule="evenodd">
        <polygon id="polygon10" fill="#FF5900" fill-rule="nonzero" points="23.3142127 12.6712382 24.4723399 14.0104049 25.5872998 12.6712382 27.9681107 12.6712382 25.6413561 15.4164891 28 18.1841819 25.5231323 18.1841819 24.3758941 16.8344063 23.2391561 18.1841819 20.8474562 18.1841819 23.1854887 15.427914 20.8474562 12.6712382"></polygon>
        <polygon id="polygon12" fill="#FF5900" fill-rule="nonzero" points="20.8474562 12.6712382 20.8474562 14.5339121 18.199475 14.5339121 18.199475 16.2431654 20.8474562 16.2431654 20.8474562 18.1841819 16.253448 18.1841819 16.253448 9.5 20.8474562 9.5 20.8474562 11.435712 18.199475 11.435712 18.199475 12.6712382"></polygon>
        <path d="M14.3155877,9.5 L14.3155877,13.0539738 L14.2941985,13.0539738 C13.8648592,12.536587 13.3289629,12.3566441 12.7071209,12.3566441 C11.4331032,12.3566441 10.4733121,13.2657433 10.1365297,14.4669946 C9.75191322,13.1433332 8.76101057,12.3317541 7.29176794,12.3317541 C6.09864026,12.3317541 5.15634939,12.8936165 4.66478701,13.8092442 L4.66478701,12.6712382 L2.19841942,12.6712382 L2.19841942,11.435712 L4.8899568,11.435712 L4.8899568,9.5 L2.13162821e-14,9.5 L2.13162821e-14,18.1841819 L2.19841942,18.1841819 L2.19841942,14.5339121 L4.38983875,14.5339121 C4.32450451,14.8019903 4.28950402,15.089246 4.28950402,15.3924151 C4.28950402,17.2036768 5.60863345,18.4751099 7.29176794,18.4751099 C8.70734316,18.4751099 9.64030056,17.7777803 10.1334185,16.5067552 L8.24922568,16.5067552 C7.99449992,16.8890828 7.80121946,17.0021082 7.29176794,17.0021082 C6.70103751,17.0021082 6.19158599,16.4614635 6.19158599,15.8204425 L10.0280282,15.8204425 C10.1944749,17.2591694 11.2627675,18.5 12.7285101,18.5 C13.3608522,18.5 13.9399158,18.173573 14.2938096,17.6227275 L14.3151988,17.6227275 L14.3151988,18.184998 L16.2530591,18.184998 L16.2530591,9.5 L14.3155877,9.5 Z M6.25303129,14.5596183 C6.3751441,14.0079567 6.78309421,13.6476629 7.29215684,13.6476629 C7.85255351,13.6476629 8.23950333,13.9969397 8.34139363,14.5596183 C8.384172,14.5596183 6.25303129,14.5596183 6.25303129,14.5596183 Z M13.1391825,16.8621526 C12.4247837,16.8621526 11.9806664,16.1635989 11.9806664,15.4344426 C11.9806664,14.6550982 12.3668384,13.9055402 13.1391825,13.9055402 C13.9399158,13.9055402 14.2588092,14.6550982 14.2588092,15.4344426 C14.2588092,16.1733917 13.92086,16.8621526 13.1391825,16.8621526 Z" id="path14" fill="#2A007C" fill-rule="nonzero"></path>
    </g>
</svg>