<?xml version="1.0" encoding="UTF-8"?>
<svg width="28px" height="28px" viewBox="0 0 28 28" version="1.1" xmlns="http://www.w3.org/2000/svg" xmlns:xlink="http://www.w3.org/1999/xlink">
    <title>FZ</title>
    <g id="FZ" stroke="none" stroke-width="1" fill="none" fill-rule="evenodd">
        <path d="M20.825,1.03060029 C19.8478,1.11971038 18.7150542,1.64197626 17.963575,2.34993348 L17.7709,2.53144556 L17.7507458,3.26138691 C17.7117792,4.67197709 17.6269333,6.16953047 17.5431375,6.9254062 C17.5352917,6.99625345 17.5086333,7.24099849 17.4839,7.46928407 C17.1055208,10.9620105 16.1863333,14.5277596 14.9713667,17.2161479 C14.9002292,17.3735862 14.8070708,17.5796873 14.7643708,17.6741503 C14.3698625,18.5467022 13.5472167,20.040248 13.0142833,20.851542 C12.6255792,21.4432812 12.0458917,22.2590693 11.7704708,22.6019414 C11.7053708,22.6829792 11.5867208,22.8311143 11.5068042,22.9311306 C10.42825,24.2810069 8.97015,25.7349069 7.62113333,26.8055734 C7.52196667,26.8842926 7.44006667,26.9615805 7.43916147,26.9773243 C7.43805417,26.9962741 8.33317917,27.0034304 10.08385,26.9984783 L12.7301708,26.9910357 L13.124475,26.7295164 C15.2362,25.3288877 17.1815292,23.807461 19.2645833,21.9273611 C19.8193333,21.4266786 21.7728583,19.5272281 22.2086375,19.064846 C22.3359792,18.9297067 22.5270792,18.7289871 22.6333042,18.6187803 C23.5984292,17.6174439 25.3948625,15.5266342 26.4706458,14.1525411 L26.6729167,13.8942278 L26.6655083,7.44709958 L26.6580708,1 L23.8655083,1.0039789 C22.3295917,1.00618303 20.9613542,1.01814835 20.825,1.03060029" id="Path" fill="#1A99D8"></path>
        <path d="M15.35625,5.82393903 C15.2279167,6.03579377 15.1097917,6.23201918 15.09375,6.25995732 C14.807975,6.75777732 13.4138375,8.86370104 12.8149875,9.70204583 C11.9260167,10.9466388 10.7223667,12.4784564 9.75604583,13.5950663 C9.54485,13.8390957 9.35844583,14.0645188 9.3417625,14.0960065 C9.32510833,14.1274941 9.30250417,14.2305447 9.2915375,14.3250077 C9.25225,14.6630707 9.09556667,15.5933595 8.99502917,16.0854544 C8.12907083,20.3237229 6.32062083,23.7900569 3.5552125,26.5121656 C3.28731667,26.7758605 3.07670417,26.9921521 3.08720417,26.9928105 C3.097675,26.9934403 3.7547125,26.9930852 4.54725833,26.9916941 L5.9882375,26.9893755 L6.107675,26.898462 C6.80598333,26.3668071 8.308125,24.9075828 9.04685833,24.0432463 C10.9571292,21.8081946 12.3699042,19.4292156 13.4666583,16.6007072 C14.0679,15.0500827 14.6323333,13.0774377 14.9327208,11.4768052 C14.9666708,11.2957511 15.0128125,11.0574467 15.0352417,10.9472399 C15.2520958,9.88115339 15.5429458,7.33634887 15.5897583,6.09527683 C15.598975,5.85124742 15.6126833,5.60329637 15.6202667,5.54424268 C15.6278208,5.48521762 15.6241541,5.43729912 15.6118083,5.43781025 C15.5995875,5.43832962 15.4845833,5.61208429 15.35625,5.82393903" id="Path" fill="#1A99D8"></path>
        <path d="M6.18333333,17.4298919 C5.339075,18.2606796 4.54609167,19.0130059 4.18684583,19.3239322 C4.107425,19.3926612 4.01963333,19.4706361 3.99180833,19.4972003 C3.9158875,19.5696219 3.3096,20.1079751 3.0468375,20.3362893 C2.92002083,20.4464962 2.76336667,20.5832099 2.69873333,20.6401167 C2.63412917,20.6969949 2.345,20.940051 2.05625,21.180216 C1.7675,21.420381 1.4721875,21.6660421 1.4,21.7260976 C0.979154167,22.0762119 0.413641667,22.5306648 0.21875,22.6753363 C0.202708333,22.6872443 0.146941667,22.7305542 0.0947916667,22.7715454 L0,22.8460853 L0,24.9188611 L0,26.9916369 L0.6929125,26.9916369 L1.38585417,26.9916369 L1.82767083,26.5694159 C2.22147917,26.193081 2.35818333,26.0530468 2.81254167,25.5603793 C3.0174375,25.3382482 3.33792083,24.95407 3.51703333,24.7159374 C3.61176667,24.5899867 3.69725417,24.4804955 3.70699583,24.4726236 C3.7461375,24.4409928 4.3292375,23.6021042 4.47638333,23.3657177 C5.69587083,21.4065551 6.49419167,19.4070883 7.01621667,17.0045794 C7.072275,16.7465237 7.1145375,16.533209 7.11010417,16.5305628 C7.1057,16.527942 6.68864583,16.9326158 6.18333333,17.4298919" id="Path" fill="#6EC6EC"></path>
        <path d="M26.4404292,16.9871467 C25.280325,18.4571913 24.1899583,19.6672623 22.6907042,21.1485566 C21.788375,22.0400869 20.5421417,23.1553228 19.55625,23.9535065 C18.4031458,24.8870872 16.8324625,26.0292879 15.7129875,26.7483231 C15.5414292,26.8585299 15.4007875,26.9583458 15.400525,26.970168 C15.4002333,26.9819902 18.235,26.9916369 21.7,26.9916369 L28,26.9916369 L28,26.7312339 L28,26.4708595 L27.8261958,26.2846815 C27.3458208,25.7701731 26.9472583,25.0042499 26.7416042,24.2004557 L26.675775,23.9430583 L26.6597625,20.3362893 L26.64375,16.7295203 L26.4404292,16.9871467" id="Path" fill="#F47922"></path>
    </g>
</svg>