<?xml version="1.0" encoding="UTF-8"?>
<svg width="28px" height="28px" viewBox="0 0 28 28" version="1.1" xmlns="http://www.w3.org/2000/svg" xmlns:xlink="http://www.w3.org/1999/xlink">
    <title>G3</title>
    <g id="G3" stroke="none" stroke-width="1" fill="none" fill-rule="evenodd">
        <path d="M16.4782531,8.50246494 C16.1249329,8.50246494 15.7741185,8.5339765 15.4283157,8.59699963 C18.0644353,9.07452099 20.0615715,11.1179246 20.0615715,13.8061032 C20.0615715,15.7210366 18.4578486,17.4662923 16.4782531,17.4662923 C14.4986576,17.4662923 12.8949347,15.9149539 12.8924289,14.0024445 C12.8924289,12.4777697 13.9198139,11.1324684 15.4283157,10.6864586 C15.0875246,10.587076 14.7342044,10.5361727 14.3783784,10.5361727 C12.3987829,10.5361727 10.79506,12.2814284 10.79506,14.1963618 C10.79506,16.8845404 12.7921962,18.9303679 15.4283157,19.4054653 C15.7741185,19.4684884 16.1274387,19.5 16.4807589,19.5 C18.9139073,19.5 20.9912296,18.0213806 21.8006086,15.9391935 L21.8006086,12.0632714 C20.986218,9.98350835 18.9114015,8.50246494 16.4782531,8.50246494 Z" id="Path" fill="#37322D" fill-rule="nonzero" opacity="0.25"></path>
        <path d="M15.4283157,8.59699963 C15.082513,8.5339765 14.7316986,8.50246494 14.3783784,8.50246494 C11.6520494,8.50246494 9.37426168,10.3592231 8.82298192,12.8365167 C8.80293539,12.9213555 8.72776087,12.9795307 8.63755146,12.9795307 L5.87112941,12.9795307 C5.76588509,12.9795307 5.68068731,13.0619455 5.68068731,13.1613282 C5.68068731,13.1613282 5.68068731,13.1613282 5.68068731,13.1613282 L5.68068731,14.824169 C5.68068731,14.9259756 5.76588509,15.0083905 5.87112941,15.0083905 L8.29926615,15.0083905 C8.40451047,15.0083905 8.48970825,15.0908053 8.48970825,15.1926119 L8.48970825,16.0167604 C8.48970825,16.1040232 8.45713263,16.188862 8.39699302,16.2567331 C7.10649723,17.7062649 4.84625022,17.8710947 3.3452658,16.622752 C1.84428137,15.3744094 1.67639162,13.1879918 2.96688742,11.736036 C4.02434222,10.5482925 5.77089672,10.1943934 7.23178808,10.873104 C7.31949168,10.9167354 7.42724181,10.8852238 7.47986397,10.802809 L8.36191158,9.36782091 C8.41453374,9.28055812 8.38696975,9.16905567 8.29676034,9.11572841 C8.29425452,9.11330445 8.2917487,9.11330445 8.28673707,9.11088048 C7.48236979,8.70850208 6.58779309,8.49761701 5.68068731,8.50002031 C2.54340433,8.50246494 1.95399252e-14,10.9652147 1.95399252e-14,14.0000203 C1.95399252e-14,17.0348263 2.54340433,19.497576 5.68319313,19.497576 C7.28691606,19.5 8.81295865,18.8455291 9.89046,17.6965691 C9.96062287,17.6214261 10.0809021,17.6165782 10.1585824,17.6844492 C10.1635941,17.6892972 10.1686057,17.6917211 10.1711115,17.6965691 C11.4991946,19.1097414 13.4888133,19.7545165 15.4283157,19.4054653 C12.7921962,18.9303679 10.79506,16.8845404 10.79506,14.1963618 C10.79506,12.2814284 12.3987829,10.5361727 14.3783784,10.5361727 C16.3579739,10.5361727 17.9616968,12.0875111 17.9616968,14.0024445 C17.9616968,15.5271193 16.9343118,16.8699966 15.4283157,17.3184303 C15.7691069,17.4202369 16.1224271,17.4711402 16.4782531,17.4687162 C18.4578486,17.4687162 20.0615715,15.7234605 20.0615715,13.8085272 C20.0590657,11.1179246 18.0644353,9.07452099 15.4283157,8.59699963 Z M27.8095579,17.3111584 L24.0834079,17.3111584 C23.9781636,17.3111584 23.8929658,17.2287436 23.8929658,17.126937 L23.8929658,8.84424419 C23.8929658,8.74243761 23.807768,8.66002275 23.7050295,8.66002275 C23.7050295,8.66002275 23.7050295,8.66002275 23.7050295,8.66002275 L21.986039,8.66002275 C21.8807947,8.66002275 21.7955969,8.74243761 21.7955969,8.84424419 L21.7955969,18.9739993 C21.7955969,19.1776125 21.9659925,19.3400182 22.1739753,19.3400182 L27.8095579,19.3400182 C27.9148022,19.3400182 28,19.2576034 28,19.1557968 L28,17.4929559 C28,17.3935733 27.9148022,17.3111584 27.8095579,17.3111584 Z" id="Shape" fill="#FF7020" fill-rule="nonzero"></path>
    </g>
</svg>