<?xml version="1.0" encoding="UTF-8"?>
<svg width="28px" height="28px" viewBox="0 0 28 28" version="1.1" xmlns="http://www.w3.org/2000/svg" xmlns:xlink="http://www.w3.org/1999/xlink">
    <title>G4</title>
    <g id="G4" stroke="none" stroke-width="1" fill="none" fill-rule="evenodd">
        <path d="M27.8399712,20.6117584 L21.5480449,19.6449702 L27.3041986,16.7416363 C27.3875398,16.6996766 27.4279355,16.603463 27.3998723,16.515727 C27.3705313,16.4279923 27.2825113,16.3724677 27.1906651,16.3873034 L20.7979642,17.3799462 L25.389024,12.8507455 C25.4557831,12.7846268 25.4638616,12.6812079 25.4090086,12.6066117 C25.355007,12.5307433 25.2521047,12.5065844 25.169187,12.5498163 L19.4385468,15.4785814 L22.3261917,9.79059029 C22.3678623,9.70751658 22.3436252,9.6057949 22.2675112,9.55196607 C22.1918222,9.49813724 22.08722,9.50576758 22.0230121,9.57273485 L17.4885052,14.1438954 L18.5549479,7.78283995 C18.5698302,7.69129015 18.5149772,7.60101112 18.4269585,7.57176481 C18.3389385,7.54379213 18.2411386,7.58278387 18.1986166,7.66458681 L15.2331578,13.4403139 L14.2564365,7.15978928 C14.2415543,7.06781445 14.1624641,7 14.0693417,7 C13.9762192,7 13.8967041,7.06781445 13.8826718,7.15978928 L12.8936179,13.4360752 L9.95665023,7.63915711 C9.91540316,7.55523622 9.81802965,7.51581803 9.72915966,7.54463931 C9.6411396,7.57261342 9.58713653,7.66204384 9.60116886,7.75401866 L10.6612328,14.1985714 L6.06847177,9.51466726 C6.00341396,9.44769999 5.89881037,9.43964748 5.82269639,9.49347489 C5.74615746,9.54772731 5.72192032,9.64902683 5.76444227,9.73252413 L8.75328825,15.5463958 L2.90018598,12.5298962 C2.81684336,12.4858156 2.71479097,12.5108232 2.65908805,12.5866915 C2.60508497,12.6612877 2.61443986,12.766401 2.67992406,12.8320975 L7.38153975,17.4062246 L0.877006615,16.3533947 C0.784734071,16.3377133 0.695864086,16.3923893 0.666949505,16.4809725 C0.637609963,16.5695558 0.677573532,16.666193 0.76134829,16.7077291 L6.60722048,19.6314068 L0.160091543,20.6117584 C0.0622916337,20.626594 -0.00744361682,20.7143287 0.000636386265,20.8122366 C0.00744150614,20.9105696 0.0903562926,20.9860129 0.188581163,20.9860129 L27.8110552,20.9860129 C27.9097064,20.9860129 27.9917727,20.9105696 27.9994263,20.8122366 C28.0070785,20.7143287 27.9373447,20.6265926 27.8399712,20.6117584" id="path136" fill="#F9981E" fill-rule="nonzero"></path>
        <path d="M20.118005,21 C20.1222546,20.9254038 20.0856893,20.8792039 20.0350873,20.871575 L17.3426187,20.4579037 L19.8067468,19.2160396 C19.8496937,19.1935765 19.8705298,19.1439864 19.8564974,19.0986351 C19.8407638,19.0520116 19.7948407,19.0231903 19.7467914,19.0308192 L17.0100995,19.4559361 L18.9758747,17.5155766 C19.0103167,17.4816694 19.0149941,17.4269933 18.9860824,17.3884223 C18.9584441,17.348582 18.9052924,17.3358657 18.8614941,17.3583303 L16.4062959,18.6124856 L17.6432499,16.177924 C17.6653608,16.1346921 17.6521798,16.082559 17.6113592,16.0537378 C17.5726647,16.0257637 17.5186617,16.0295788 17.4846447,16.0643275 L15.544383,18.020792 L16.0010654,15.2980161 C16.0087175,15.2509705 15.9806543,15.2034998 15.9347312,15.1886641 C15.8883818,15.1729827 15.8377813,15.1937443 15.8160953,15.237407 L14.5459743,17.7101131 L14.1275613,15.0216695 C14.1194784,14.9733517 14.0786606,14.9385958 14.0297614,14.9385958 C13.9821371,14.9385958 13.9400401,14.9733517 13.9323865,15.0216695 L13.5097225,17.7084188 L12.2523574,15.2259629 C12.2289702,15.1827296 12.1792196,15.1623858 12.1328716,15.1763729 C12.0869485,15.1920557 12.0588838,15.2374056 12.0652626,15.2865721 L12.5198187,18.0436787 L10.5548935,16.0380478 C10.5208765,16.0041405 10.4660235,15.998206 10.4269041,16.0283023 C10.3869334,16.0554293 10.3737524,16.1084095 10.3962882,16.1516414 L11.6753392,18.6421497 L9.16953905,17.3502735 C9.12531726,17.3278089 9.07301546,17.3400987 9.04324952,17.379942 C9.0151863,17.4197837 9.01986374,17.4736111 9.05388791,17.5075198 L11.067286,19.4661037 L8.2825448,19.0164057 C8.23449548,19.0092076 8.18687113,19.0363259 8.17284024,19.0829494 C8.15881365,19.1291479 8.1787983,19.178738 8.22173947,19.2012011 L10.7241371,20.4519662 L7.96533433,20.8715721 C7.91388245,20.8791996 7.87646434,20.9253995 7.88156675,21 L20.118015,21 L20.118005,21 Z" id="path214" fill="#FFE714" fill-rule="nonzero"></path>
    </g>
</svg>