<?xml version="1.0" encoding="UTF-8"?>
<svg width="28px" height="28px" viewBox="0 0 28 28" version="1.1" xmlns="http://www.w3.org/2000/svg" xmlns:xlink="http://www.w3.org/1999/xlink">
    <title>G5</title>
    <g id="G5" stroke="none" stroke-width="1" fill="none" fill-rule="evenodd">
        <path d="M18.42229,3.00320398 C19.4576106,2.98728596 20.4929915,3.03069023 21.5234679,3.13320868 C22.3196295,3.21121151 23.1029498,3.32171551 23.8734288,3.46472068 C23.2698869,3.41921903 22.6856071,3.41921903 22.0435412,3.41921903 C10.1524823,3.6337268 4.82975674,14.417617 7.99514121,20.6448424 C9.11580314,22.8190307 11.1656162,24.3472551 13.5490105,24.7854922 C13.9693195,24.8982826 14.3993216,24.9701123 14.8331421,25 C11.5393445,24.9024965 5.31772676,22.7249177 1.46533187,17.979746 C-0.4416036,15.6136603 -0.261825172,13.9626006 0.726956183,12.233538 C3.41721195,7.53386793 9.31779679,3.84823456 16.3805207,3.13320868 C17.0546899,3.06820633 17.7352796,3.00320398 18.42229,3.00320398 Z M13.3114462,14.8011309 C18.1462017,11.1739997 28.3807308,9.31493239 27.9890707,14.0081022 C27.8029071,16.6349531 26.7201805,19.1144947 24.9264167,21.021856 C26.8911381,18.8637779 24.8686308,13.2605752 13.3114462,14.8011309 Z" id="Combined-Shape" fill="#76777A" fill-rule="nonzero"></path>
        <path d="M24.509074,18.2917572 C21.7774038,19.3606014 18.8844037,19.945493 15.9567573,20.0208198 C13.3437414,20.0175815 10.7506649,19.5602577 8.29049148,18.6687709 C8.42303683,19.3434422 8.63874646,19.9985915 8.9325573,20.6188415 C9.92619245,22.6490843 11.8004866,24.0920683 13.9984566,24.5189826 C14.3801261,24.5994606 14.7659797,24.6580559 15.154175,24.6944889 C15.4431047,24.6944889 15.7127723,24.6944889 15.963178,24.6944889 C19.1199757,24.7064654 22.1410721,23.3959988 24.3100336,21.0738579 L24.3100336,21.0738579 L24.3100336,21.0413567 L24.3100336,21.0413567 C24.9140992,20.2721131 24.980724,19.2032808 24.4769707,18.3632598 C24.4959596,18.3442099 24.5073828,18.3187673 24.509074,18.2917572 L24.509074,18.2917572 Z" id="Path" fill="#F18A00" fill-rule="nonzero"></path>
    </g>
</svg>