<?xml version="1.0" encoding="UTF-8"?>
<svg width="28px" height="28px" viewBox="0 0 28 28" version="1.1" xmlns="http://www.w3.org/2000/svg" xmlns:xlink="http://www.w3.org/1999/xlink">
    <title>G8</title>
    <g id="G8" stroke="none" stroke-width="1" fill="none" fill-rule="evenodd">
        <path d="M28,2.5 C28,2.5 22.041619,2.82477742 20.2375576,2.8967563 C18.7341583,3.08302892 17.893489,4.19525527 17.893489,4.19525527 L3.22156365,22.7046457 C0.920421311,25.19939 2.73558953e-13,25.5 2.73558953e-13,25.5 L23.3977599,25.5 L28,2.5" id="path5655" fill="#263A85" fill-rule="nonzero"></path>
        <path d="M16.4268709,10.2670881 L13.604201,10.5554399 C13.604201,10.5554399 13.6839085,10.8381205 13.6594174,11.1505961 C13.3588444,10.8919084 13.0335131,10.7719436 12.8923551,10.735736 L9.34554921,15.2143055 L9.84873068,18.8993623 L10.0388709,19.7890649 C10.0388709,19.7890649 10.3701692,21.3460335 11.8368318,21.5203532 C14.0704231,21.5744465 14.5183882,20.462351 14.5183882,20.462351 C14.5183882,20.462351 14.5540117,20.9312606 14.5540117,21.2137668 C14.5540117,21.3459462 14.3883626,22.0734128 13.3267388,22.2477325 C12.2651595,22.4278978 10.743325,21.9410589 10.743325,21.9410589 L9.93948146,23.6603071 C9.93948146,23.6603071 12.5412858,24.6943164 15.689198,23.708293 C17.9228338,23.0771037 17.5362302,20.8708856 17.5362302,20.8708856 L16.4268709,10.2670881 Z M13.7637496,19.3203733 C12.9291809,19.4346671 12.9230803,18.580954 12.9230803,18.580954 L12.3830731,13.4291421 C12.3830731,13.4291421 12.3385438,12.8099492 12.8494288,12.6956991 C13.3526103,12.59362 13.6103461,12.767678 13.7269239,13.2067055 C13.8311225,13.6936317 14.2914667,18.4547074 14.2914667,18.4547074 C14.2914667,18.4547074 14.4508818,19.2422435 13.7637496,19.3203733 M23.3118628,20.3603591 C23.3074098,20.2940513 23.294051,20.2521726 23.2762393,20.234287 C23.2584276,20.2081128 23.2210229,20.2037505 23.1658066,20.2081128 L23.20143,20.6829989 C23.2566464,20.6786366 23.2811375,20.6611872 23.3056287,20.6393754 C23.3189875,20.621926 23.3323463,20.5673965 23.3189875,20.4770957 L23.3118628,20.3603591 Z M24.9870563,11.8120166 C24.9870563,11.8120166 24.796916,10.790091 23.925477,10.1408415 C23.4652663,9.70198848 21.5568727,9.31125222 19.3662076,10.0387624 C17.1693975,10.7661853 17.6234631,13.4412694 17.6234631,13.4412694 C17.6234631,13.4412694 18.0286801,18.0460854 18.2186867,19.2363544 C18.5437509,20.5108167 18.8937069,22.1218785 21.2929919,22.1218785 C23.1031983,22.1218785 23.7782185,21.8514125 23.9991285,21.7253404 L25.4227313,14.5897033 L24.9870563,11.8120166 Z M21.4955113,21.887271 L21.450982,21.5744901 L21.2670758,21.5875771 L21.2670758,21.9060292 L20.8867953,21.940928 L20.9727369,20.1314226 L21.4513382,20.1008861 L21.8993033,21.8502346 L21.4955113,21.887271 Z M22.1581968,21.8436475 L21.9925477,20.0582223 L22.3915305,20.0041291 L22.5509455,21.7955743 L22.1581968,21.8436475 Z M22.2027261,19.8598659 C21.3559118,19.9798307 21.3559118,19.1204466 21.3559118,19.1204466 L20.6686461,12.6220189 C20.6686461,12.6220189 20.6374756,11.9968496 21.1350018,11.8886196 C21.6381833,11.7804331 21.9020196,11.9605984 22.0124968,12.4056024 C22.1229296,12.8865086 22.7242982,19.00022 22.7242982,19.00022 C22.7242982,19.00022 22.8716903,19.7937326 22.2027261,19.8598659 M23.4790704,21.7114244 L23.4113858,21.194398 C23.4069329,21.1040972 23.3935741,21.0382256 23.3802153,21.0199037 C23.3579506,20.9980919 23.3187648,20.9980919 23.2577596,20.9980919 L23.3374671,21.7134747 L22.9019703,21.7570983 L22.730087,19.9716731 L23.0368941,19.9411366 C23.2395026,19.9280496 23.3806606,19.9236872 23.4603681,19.9367743 C23.5338415,19.9367743 23.595292,19.9847602 23.6505084,20.0449607 C23.7057247,20.1169396 23.7119588,20.219455 23.7239817,20.3756273 C23.7284347,20.513914 23.7239817,20.6103221 23.70617,20.658308 C23.6705465,20.7062939 23.6447195,20.7425015 23.546755,20.7542799 C23.6389307,20.780454 23.6941471,20.8083731 23.7306611,20.8384733 C23.7618317,20.8690098 23.7796434,20.9104522 23.7858775,20.9405525 C23.8036893,20.971089 23.8170481,21.0548462 23.8348598,21.1992402 L23.8793891,21.6741263 L23.4790704,21.7114244 Z M21.2884054,21.2545112 L21.3988381,21.2414242 C21.3988381,21.2414242 21.3543088,20.9587435 21.3128965,20.7484779 C21.2950848,20.994951 21.2861789,21.2534643 21.2861789,21.2534643" id="path5657" fill="#FFFFFF" fill-rule="nonzero"></path>
    </g>
</svg>