<?xml version="1.0" encoding="UTF-8"?>
<svg width="28px" height="28px" viewBox="0 0 28 28" version="1.1" xmlns="http://www.w3.org/2000/svg" xmlns:xlink="http://www.w3.org/1999/xlink">
    <title>G9</title>
    <g id="G9" stroke="none" stroke-width="1" fill="none" fill-rule="evenodd">
        <path d="M0,0.0238974642 C0,0.172814003 0.387773705,1.21358916 0.60296507,1.64229211 C1.22884433,2.88908952 2.17836282,4.10313791 4.24878276,6.30382146 C4.94978016,7.04903516 5.73694247,7.90088824 5.99802534,8.19682831 C7.07505528,9.41807012 7.82055544,10.5551993 8.1249417,11.4411896 C8.27921794,11.8900216 8.30086964,12.046447 8.30086964,12.7103245 C8.30086964,13.5491159 8.23749265,13.7446635 7.78438511,14.3031636 C7.19821115,15.0257874 5.74312867,15.7415964 4.02418585,16.1530099 C3.68564924,16.2340306 3.40872213,16.3279868 3.40872213,16.3618085 C3.40872213,16.4896496 3.96327072,16.947 4.38999223,17.1710689 C4.63403149,17.2992255 5.0883384,17.4796291 5.39947898,17.5719447 C6.11846685,17.7852866 6.99810654,17.8052893 8.4271186,17.6407239 C9.62137072,17.5031654 11.6580191,17.4811435 12.5933345,17.5957335 C15.3193654,17.9295968 17.1323637,18.8913705 18.8471403,20.9133542 C19.0531786,21.1562901 19.6890947,21.979748 20.2603081,22.7432608 C22.5826579,25.8474134 24.2920689,27.1039282 27.1734491,27.8249115 C27.6129218,27.9348321 27.9844725,28.0128239 27.9991173,27.9982478 C28.0136991,27.9836085 27.8458511,27.6989634 27.6259885,27.3657311 C27.0565425,26.5023307 26.7050023,25.8699402 25.4051429,23.3708557 C23.6533754,20.0030703 22.8787748,18.7778532 21.8417027,17.7344909 C21.104535,16.992937 20.6298388,16.8207365 18.2498564,16.4317236 C16.802412,16.1951608 16.0164491,16.0179754 15.6942617,15.8556185 C15.4254776,15.7202054 15.1498761,15.4536069 15.1498761,15.328984 C15.1498761,15.0262291 15.8845189,14.6527388 16.822675,14.4785822 C17.1351412,14.4205931 17.4902164,14.3524449 17.611731,14.3272048 L17.8326667,14.2812678 L17.4417999,13.8887844 C16.6206766,13.0642537 15.1759466,12.6595919 13.7926997,12.8666869 C13.514952,12.9082699 13.1670099,12.9576774 13.0194248,12.9764813 C12.3410891,13.0629917 11.7378715,12.6423025 11.4988191,11.9160188 C11.3034488,11.3223719 11.243165,10.799902 11.1754324,9.11361152 C11.0897725,6.97943561 11.0065113,6.72053537 10.1134261,5.81119798 C8.38154273,4.04786211 4.86184775,1.95343934 0.859692347,0.304630379 C0.138747616,0.00755450516 0,-0.0376883584 0,0.0238974642" id="Path" fill="#FF0041"></path>
    </g>
</svg>