<?xml version="1.0" encoding="UTF-8"?>
<svg width="28px" height="28px" viewBox="0 0 28 28" version="1.1" xmlns="http://www.w3.org/2000/svg" xmlns:xlink="http://www.w3.org/1999/xlink">
    <title>GA</title>
    <g id="GA" stroke="none" stroke-width="1" fill="none" fill-rule="evenodd">
        <path d="M7.64739933,15.9505091 C8.05228667,15.9514674 9.90194381,15.9717306 11.2362816,16.320059 C12.9774118,16.7732636 13.9114189,17.5018772 14.1757606,17.6866452 C14.4401022,17.8679271 17.3513847,19.9003754 17.3513847,19.9003754 C17.3513847,19.9003754 16.7099157,20.5 16.1882815,20.5 C15.5009933,20.5 14.940589,20.0677125 14.940589,20.0677125 C14.940589,20.0677125 13.721093,19.2066238 13.4602759,19.0183695 C13.1959343,18.8301153 12.3888111,18.1712255 11.0177592,17.2717887 L11.0177592,17.2717887 C9.57269163,16.3165728 7.549597,16.2189595 7.22886249,16.2189595 L7.11521614,16.21884 C6.74363424,16.2183426 5.63157546,16.2164309 5.22761685,16.2157316 L5.07888389,16.2154733 L4.92380346,15.9504945 Z M11.4689023,14.2318316 C13.4567513,14.7582462 14.8313278,15.7901582 15.099194,15.9644677 C15.3670602,16.135291 18.9938274,18.7046125 18.9938274,18.7046125 C18.9938274,18.7046125 18.3840794,19.321668 17.7884295,19.321668 C17.2245007,19.321668 16.6147527,18.8928667 16.6147527,18.8928667 C16.6147527,18.8928667 14.6727228,17.5088496 14.3766602,17.3031644 C14.0805976,17.0974792 12.5474161,15.9679539 11.162266,15.2497989 L11.1657905,15.2463127 C9.11449946,14.1865111 7.41213936,14.1063288 6.61558991,14.1063288 L3.8452896,14.1063288 L3.69725829,13.8483508 L7.04334551,13.8479221 C7.57339863,13.8451945 9.99707417,13.8412493 11.4689023,14.2318316 Z M6.42353142,11.7281795 C6.98372577,11.7236966 9.89084147,11.7050416 11.6803756,12.1540628 C14.1299414,12.729284 15.6560737,13.9668812 16.0367257,14.2318316 C16.4173776,14.496782 20.6538928,17.5123357 20.6538928,17.5123357 C20.6538928,17.5123357 20.026522,18.1189327 19.4731669,18.1189327 C18.9057135,18.1189327 18.2853918,17.7040762 18.2853918,17.7040762 C18.2853918,17.7040762 15.6314018,15.8250201 15.3036182,15.5914454 C14.9793591,15.3578707 13.2311798,14.0610083 11.4653777,13.1232234 L11.4653777,13.1232234 C9.40703754,12.0285599 6.70370378,11.993698 6.00231732,11.993698 L6.00231732,11.993698 L2.61874443,11.993698 L2.46366401,11.7287477 Z" id="Combined-Shape" fill="#358E9D" fill-rule="nonzero"></path>
        <path d="M11.8847998,10.0867525 C14.4859214,10.6724323 16.7240139,12.3597479 16.9566345,12.5201126 C17.1786815,12.673505 22.3139583,16.3165728 22.3139583,16.3165728 C22.3139583,16.3165728 21.7288821,16.9127112 21.0979868,16.9127112 C20.5199597,16.9127112 19.8925889,16.4699651 19.8925889,16.4699651 C19.8925889,16.4699651 16.5513107,14.0993564 16.2270516,13.8727541 C15.9063171,13.6461518 13.6717492,12.011129 11.7191457,11.0454545 L11.7191457,11.0489407 C9.6220354,10.0100563 7.03501196,9.88106731 5.53002694,9.88106731 L1.38867471,9.88106731 L1.23359428,9.61611692 L5.73445113,9.61611692 C6.22083974,9.61611692 9.62908451,9.58125503 11.8847998,10.0867525 Z M5.56512547,7.50044381 C6.79727117,7.5065146 10.057585,7.56666017 12.0821749,8.09613837 C15.5679598,9.00603379 17.4430231,10.5678466 17.8518715,10.8572003 C18.2607199,11.146554 23.9141063,15.1661303 23.9141063,15.1661303 L23.9141063,15.1661303 L23.9055197,15.1745663 C23.8319985,15.2458502 23.2980644,15.7448378 22.7580522,15.7448378 C22.2595794,15.7448378 21.7274435,15.4195549 21.5855776,15.326617 L21.5491298,15.3020917 C21.5491298,15.3020917 17.5487598,12.4678198 17.1399114,12.1749799 C16.7345876,11.88214 13.9572382,9.82877447 12.0152083,8.98511665 L12.0152083,8.98511665 C9.4493322,7.86604988 6.03403832,7.76843658 4.8497878,7.76843658 L0.158604979,7.76843658 L1.0658141e-14,7.5 Z M20.4529932,11.5439796 C20.4529932,11.5439796 20.6820893,11.9762671 21.2636409,12.1087423 C21.7453301,12.2191383 22.1756195,12.2351167 22.305669,12.2373762 L25.1617988,12.2377313 C25.1617988,12.2377313 25.4719596,12.2377313 25.6058927,12.5026817 C25.7433504,12.7711183 25.8314643,12.9035935 25.5635981,12.9035935 C25.2534372,12.858273 24.1361533,12.7711183 24.1361533,12.7711183 L24.1361533,12.7711183 L24.6718856,13.2138643 L25.6094173,12.9489139 C25.6094173,12.9489139 26.2967055,12.9907482 26.8183397,13.0813891 L26.8183397,13.0813891 C27.3470229,13.1790024 28.1541461,13.2591848 27.9743938,14.5002682 C27.9743938,14.5002682 27.6184137,14.1899973 27.3047283,14.1446769 C27.1707952,14.0993564 26.0570358,14.1446769 25.6975312,14.2318316 C25.2957319,14.3189863 24.5802472,14.6745776 24.5802472,14.6745776 C24.5234465,14.7035908 24.2374041,14.83209 23.9105817,14.6292572 L23.9105817,14.6292572 L21.1226587,12.6525878 C21.1226587,12.6525878 20.2274217,12.0564495 20.4529932,11.5439796 Z" id="Combined-Shape" fill="#202D5C" fill-rule="nonzero"></path>
    </g>
</svg>