<?xml version="1.0" encoding="UTF-8"?>
<svg width="28px" height="28px" viewBox="0 0 28 28" version="1.1" xmlns="http://www.w3.org/2000/svg" xmlns:xlink="http://www.w3.org/1999/xlink">
    <title>GB</title>
    <g id="GB" stroke="none" stroke-width="1" fill="none" fill-rule="evenodd">
        <path d="M23.2108215,7.90471059 C22.5152155,8.41358299 21.7672535,8.96984762 20.9661307,9.57318788 C20.9142585,9.62456936 20.8706015,9.66892792 20.8358052,9.70339491 C20.7840941,9.73788589 20.7325437,9.7723289 20.6798658,9.80679589 C20.4095494,10.0206246 20.1405215,10.2247162 19.8710102,10.4139657 C19.6097151,10.6292248 19.3611464,10.8318821 19.1269148,11.0224076 C18.7003367,11.3755396 18.3088768,11.7020238 17.9522136,12.0042492 C17.5787967,12.3056782 17.2216502,12.607587 16.8830297,12.9098172 C16.8124703,12.9789095 16.7431994,13.0387482 16.6745731,13.0896548 C16.5962814,13.1598648 16.513479,13.2327899 16.4263266,13.3104978 C16.0872227,13.6205472 15.739742,13.9357007 15.381468,14.254524 C15.0260933,14.5913747 14.6426884,14.9536019 14.2343137,15.3416805 L15.2774008,16.905796 C15.6339029,16.5012826 15.9726845,16.1117696 16.2961622,15.7418862 C16.5999864,15.3705637 16.9047774,15.0174318 17.2090849,14.681056 C17.2438803,14.646613 17.2783553,14.6039814 17.3131521,14.5521202 C17.3479475,14.5174853 17.3829059,14.4830279 17.4177022,14.4487192 C17.7394079,14.095429 18.0707795,13.7328851 18.4094,13.3631601 C18.7315892,13.0082724 19.0880912,12.6128542 19.4795507,12.1725977 C19.7050832,11.905156 19.9615454,11.6201617 20.2484548,11.3182529 C20.5187712,11.03358 20.806164,10.7417259 21.1101494,10.439016 C21.1449447,10.3881142 21.1794197,10.3450317 21.2142161,10.3105647 C21.2490114,10.2760737 21.2850977,10.2414676 21.319894,10.2070006 C22.0670504,9.41345483 22.7626564,8.69777905 23.407518,8.06029272 C24.0248318,7.44019916 24.3322004,7.12153563 24.3322004,7.10334463 C24.2643797,7.13796993 23.8891904,7.40461493 23.2108215,7.90471059 M10.8679222,23.9996882 C11.1026367,23.6985757 11.2985276,23.4269893 11.4552726,23.1858738 C11.6031574,22.9358262 11.7299386,22.6868964 11.8340057,22.4368488 C11.9549877,22.2126526 12.0516443,21.9677091 12.1213986,21.6997924 C12.1984017,21.4333052 12.2641282,21.1318762 12.3155175,20.7950207 L12.3155175,20.7701238 C12.3681954,20.5031618 12.4029917,20.2480053 12.4200676,20.0068946 C12.4379467,19.7568471 12.4548629,19.5157364 12.4727454,19.283721 L12.4727454,19.1024491 L12.4727454,18.948463 C12.4548615,18.6634687 12.4200676,18.3701754 12.3683565,18.0692261 C12.3156781,17.7845484 12.2420582,17.4788115 12.1471735,17.1520107 C12.0779027,17.2209447 11.8032367,17.4745038 11.3255916,17.9134842 C10.8279707,18.353261 10.3029636,18.8319756 9.74654337,19.3486638 L9.71964,19.3740404 L9.69338018,19.3994169 C9.48492407,19.5896258 9.28903319,19.7742508 9.10651271,19.9556811 C8.90659455,20.1281791 8.72036953,20.2963694 8.54606522,20.4597674 C8.27574878,20.7008781 8.06278152,20.9035353 7.90603698,21.0670964 C7.74107578,21.2210826 7.5799817,21.3675661 7.42323667,21.5055972 L7.39762041,21.545317 C7.14599117,21.7685537 6.84861072,22.0489236 6.50982859,22.3844983 C6.17153035,22.7203991 5.62783649,23.2599071 4.87939155,23.9995203 L4.13626244,23.9995203 L2.45330818,23.9995203 L0.768742954,23.9995203 L0,23.9995203 C0.278210204,23.5950068 0.872809975,22.9790623 1.78766561,22.1524829 C2.67497451,21.3168082 3.67053851,20.4503412 4.77500212,19.5556241 C4.92304807,19.4340326 5.07544356,19.3089249 5.23138293,19.1799939 C5.37153497,19.0604747 5.52393045,18.9388832 5.68840778,18.8193641 C7.13197577,17.6300777 8.46728818,16.5957418 9.69321712,15.7166632 C10.7638512,14.941307 11.3602229,14.5548257 11.4808826,14.5548257 L11.4900665,14.5572243 L11.5084295,14.5792429 L11.4900665,14.5572243 C11.4399662,14.4847788 11.284188,14.2471749 11.0241814,13.8431411 C10.7290563,13.3773546 10.3285755,12.8732683 9.82338297,12.3304072 C9.7027233,12.1834439 9.57996942,12.0419014 9.45947039,11.9043548 C9.31110509,11.7663238 9.16821384,11.6321256 9.02886746,11.5023934 C8.29749841,10.8392169 7.39762428,10.2138556 6.32715133,9.62823432 C5.23992475,9.06063756 4.10984681,8.59022188 2.9348238,8.21858088 C2.77807877,8.16687992 2.60925142,8.11549795 2.42624803,8.06331824 C2.35391668,8.04177457 2.2835184,8.02246634 2.21118705,8.00475553 C1.66266027,7.63838028 1.10140708,7.3771627 0.494563998,6.98892621 C0.956905018,7.08466866 1.42182378,7.19557082 1.89028696,7.32578074 C2.12628999,7.3771627 2.36358254,7.4379594 2.60248542,7.50561736 C2.84058314,7.57423282 3.07787569,7.65609301 3.31387872,7.75183545 C4.04347582,7.97475654 4.77484486,8.23741037 5.50540826,8.53756342 C6.20842473,8.83995095 6.86681791,9.15717824 7.47575534,9.49323501 C9.32737533,10.4562471 10.719554,11.334208 11.6508412,12.1250395 C12.5729464,12.9423654 13.0414091,13.3669834 13.059774,13.4028847 C13.2242514,13.2394867 13.9383834,12.7280608 15.1991086,11.8671727 C16.4424362,11.0085201 17.8130283,10.0657747 19.3084685,9.04244657 C19.3447155,9.02473576 19.3828941,8.99920093 19.4268728,8.96601188 C19.4434649,8.94830107 19.4708521,8.93026886 19.5051646,8.91383216 C20.731094,8.07943498 21.906117,7.29227076 23.0289455,6.55233952 C24.132604,5.83044 24.9409762,5.30225986 25.4553512,4.9658836 L25.6768559,4.8110997 C25.7988046,4.70801678 25.9689205,4.59727483 26.1854312,4.47600043 C26.4103191,4.36477974 26.6853074,4.25786683 27.0070131,4.15302865 C27.3124486,4.04994572 27.6417255,4 28,4 C28,4.13802915 27.2594485,5.25630339 25.7810842,7.35897171 C24.2680847,9.49578705 22.60124,11.8848835 20.783933,14.5292957 C20.6450695,14.7539716 20.5021787,14.9730636 20.3541328,15.1888025 C20.1957769,15.4211393 20.0432203,15.6493266 19.8966245,15.8740025 C18.905249,17.3548215 17.9609126,18.8029293 17.0650663,20.2135383 C16.1608431,21.6448899 15.4123981,22.9066216 14.8211811,24 L10.8679222,24" id="path5" fill="#ED2225" fill-rule="nonzero"></path>
    </g>
</svg>