<?xml version="1.0" encoding="UTF-8"?>
<svg width="28px" height="28px" viewBox="0 0 28 28" version="1.1" xmlns="http://www.w3.org/2000/svg" xmlns:xlink="http://www.w3.org/1999/xlink">
    <title>GF</title>
    <g id="GF" stroke="none" stroke-width="1" fill="none" fill-rule="evenodd">
        <path d="M7.87080603,16.7113184 C7.11000615,16.9715324 5.87916789,17.2250426 5.10449746,17.3573548 C4.96735236,13.814034 2.98767758,11.6702236 3.77361783,10.5702681 C5.22638495,8.53513008 8.34431205,6.25918382 11.5999044,4.35371171 C10.9582179,5.18163325 10.838411,5.97832912 10.5261502,6.19055789 C9.70830763,6.74573988 7.95923081,8.12849058 7.07671682,9.55463969 C7.65615921,8.99169538 9.69478384,6.92480239 11.7569884,5.83084512 C11.2016461,6.83183102 11.448542,7.21941756 11.0078051,7.60329936 C10.6561866,7.90973441 8.73338109,9.7206474 7.78151434,11.3607894 C8.31830477,10.7166936 9.09124137,9.91452888 9.74471784,9.48918926 C9.50267667,10.0440184 9.37853522,10.3857367 9.34854015,10.9784954 C9.24572467,13.0235128 8.82405983,15.121455 7.87080603,16.7113184 L7.87080603,16.7113184 L7.87080603,16.7113184 Z M6.28297439,26.9873896 C5.76855022,26.31542 4.64434184,26.1457076 4.07079445,26.8030346 C3.68692687,27.2440752 3.9877445,27.8458311 4.40438126,27.9624423 C3.91752483,27.4944099 4.53476447,26.7659872 5.15789909,27.3490429 C5.50414279,27.6720611 5.69070174,28.1991929 6.3020464,27.9222194 C5.94054509,27.8513 5.76438906,27.276183 6.28297439,26.9873896 L6.28297439,26.9873896 L6.28297439,26.9873896 Z M16.3536899,21.9312993 C15.7667921,22.2541411 14.8877458,23.0776522 12.9340783,22.2866017 C13.8158987,23.1596858 14.535087,23.6243663 15.4111858,23.6106058 C16.3887131,23.5601507 18.1748936,22.7366396 18.7311028,22.534643 L16.3536899,21.9312993 L16.3536899,21.9312993 L16.3536899,21.9312993 Z M7.6523448,17.1715884 C6.67880531,17.4713197 5.73734148,17.6237433 4.57793657,17.8158607 C3.25416559,18.0360282 2.61559998,18.3438745 2.06441885,19.0927616 C1.49503261,19.8663469 1.46122314,20.2431721 1.52138667,20.5938876 C1.57392139,20.9064972 1.79689054,21.0806201 1.84214322,21.4168695 C1.87942033,21.6977242 2.24473604,22.2495543 2.92335289,22.2435561 C2.72309677,22.1491734 2.62392231,21.9058954 2.84446411,21.6982535 C3.03917201,21.5147805 3.69784993,21.1926444 4.23758785,21.4803794 C4.78148694,21.7698785 5.76733655,22.7129998 6.47681537,23.7561492 C7.26154195,24.9104408 6.46554555,25.1616576 5.70977375,24.9009144 C4.58504523,24.5120929 3.70929314,23.8422404 3.22295685,23.8362422 C2.62808347,23.8288327 2.27213039,24.2799291 2.63831301,24.9813602 C2.56844009,24.2250637 3.514932,24.2367071 3.46343757,24.8294658 C3.40986256,25.4407481 3.06084475,25.625456 3.67791101,26.3355315 C3.56399909,25.8027543 3.65987929,25.2810914 4.45448864,25.2833848 C5.25083181,25.2856783 6.29493774,25.6900243 7.01932741,27.2978822 C8.35488835,27.2426639 9.69790472,26.5433498 10.8526283,26.1753455 C10.1164487,25.9407119 9.31178318,25.3793553 8.18324025,24.1532622 C10.3770417,24.8359932 12.5888749,26.2751971 15.2430053,25.309318 C17.5928505,24.4538756 20.2298162,23.5425091 23.0663444,22.9818582 C22.1503677,22.9262871 20.4697768,22.7879767 19.7764225,22.7535756 C18.8294104,23.0963524 17.9156877,23.4417754 16.8273693,23.8231874 C15.8236614,24.1746086 14.4874069,24.5798368 13.1906835,23.1886181 C11.7197113,21.6121623 9.27138519,19.9347964 9.73656889,18.6598361 C10.2149296,19.5770243 10.6799399,20.0776936 11.8656989,20.4781585 C13.0876947,20.8913254 14.1560741,21.0700351 14.6755263,21.1448356 C15.8937077,21.3193113 16.0533924,20.9920591 16.42547,20.6210557 C17.4465162,19.6017225 18.5939577,17.5799921 19.3486893,16.3443726 C18.0266521,16.4294052 15.1245855,16.4092938 13.984426,15.830472 C15.5153883,15.89998 17.2342967,15.9596087 18.1847764,15.9119763 C19.0393759,15.8689307 19.3412338,15.9712522 19.6075485,15.4072494 C19.8431745,14.90658 20.0252255,14.3531622 20.0252255,14.3531622 C18.944536,14.5715655 15.5001307,14.531519 14.6756997,14.28189 C15.4918084,14.0758358 18.037055,14.0925953 18.7156719,14.0730131 C19.3937686,14.0529017 19.8078046,14.0460214 19.972344,13.5074226 C20.137577,12.9686473 20.2263485,12.6376904 20.2263485,12.6376904 C19.5491188,12.8751467 16.9872275,12.9495943 15.0398017,12.7742366 C16.1152898,12.6156383 18.2517018,12.493029 19.0438838,12.4266965 C19.8773307,12.3568357 20.1041143,12.3185534 20.2121312,11.8166491 C20.3352324,11.2429434 20.401811,10.9735557 20.401811,10.9735557 C19.4450896,11.0954594 17.4038642,11.3071589 15.347728,11.241532 C16.1322812,11.0684677 18.5228712,10.8393029 19.3266697,10.6787641 C19.9893355,10.5466284 20.2206269,10.4847063 20.2896329,9.93887432 C20.3654008,9.34364583 20.5486655,8.97652358 20.5486655,8.97652358 C19.1281474,9.18204853 16.0526989,9.70071236 15.6409169,9.83690572 C16.4278974,9.19880808 18.3550375,8.98305098 19.2368579,8.79640257 C20.060422,8.6221033 20.2365781,8.71154635 20.4588537,8.07256663 C20.6598033,7.49374485 20.8250363,7.21994681 20.8250363,7.21994681 C19.7908132,7.40077348 17.5286992,7.84269623 16.3505691,8.32854663 C16.8523363,7.75801642 18.913674,7.19613061 19.7261417,7.07987229 C21.2468745,6.86164537 20.594265,6.52027989 21.4010111,5.45313789 C20.4751516,5.53464221 18.9455763,5.81690823 17.1146632,6.7459163 C17.7267014,5.9358128 19.3450482,5.46672194 20.4756717,5.23649871 C21.1371238,5.10171669 21.4779926,5.16822562 21.7951082,4.62486352 C22.1123971,4.08185424 22.541344,3.61329264 22.72929,3.41588283 C21.9019114,3.5358459 19.6892113,4.01975572 18.2158118,4.84273761 C18.9547655,3.93595799 20.6676055,3.47110113 21.6212061,3.27580832 C22.6422522,3.06763712 22.8674754,3.05599365 23.2440609,2.66646653 C23.5225123,2.37855518 24.0877373,1.84666014 24.428086,1.61767182 C22.9725448,1.77856346 21.3883542,2.02219432 19.7701807,2.78113711 C20.6526947,1.86694801 23.3855405,1.29694705 24.2248824,1.26307512 C25.4146292,1.21491348 25.0399508,0.7953956 26.5,0.0025808941 C23.1216533,-0.0452279144 19.0381622,0.563584624 17.0317866,2.46358782 C16.2709868,3.18336619 13.3614647,6.08541379 11.7174573,8.09373658 C11.1543129,8.78052511 10.6815004,9.11995001 10.5181746,10.7840847 C10.3023141,12.9809964 9.69981192,16.0615773 6.87836791,18.5187031 C6.95881712,18.4036797 7.37129271,17.7280054 7.6523448,17.1715884 L7.6523448,17.1715884 L7.6523448,17.1715884 Z M3.31484927,19.853645 C3.84002311,19.9353257 3.52897594,20.5852432 3.11632697,20.2671647 C3.11632697,20.2671647 3.07904985,20.338084 3.06587283,20.4315847 C3.10956507,20.5002106 3.26266131,20.5894772 3.46638507,20.6060603 C3.18862723,20.8920311 2.94155799,20.6840363 2.66380015,20.9162001 C2.46146345,21.0850305 2.36974441,21.5765262 2.50203482,21.8332119 C2.28704123,21.6919025 2.11521975,21.2775007 2.21335392,21.0763861 C2.13879969,20.996646 2.00737619,21.0126998 1.90629453,21.0465718 L1.87005771,20.8770357 C1.87005771,20.8770357 2.72587088,20.8032937 2.59548767,20.1581394 C2.52266726,19.7975446 2.92196583,19.3145168 3.04420009,19.1619168 C3.0996823,19.0934673 3.56399909,18.4733641 5.94557317,18.105889 C5.25308577,18.3496963 3.9619106,18.5312286 3.31484927,19.853645 L3.31484927,19.853645 Z" id="Shape" fill="#C3A357" fill-rule="nonzero"></path>
    </g>
</svg>