<?xml version="1.0" encoding="UTF-8"?>
<svg width="28px" height="28px" viewBox="0 0 28 28" version="1.1" xmlns="http://www.w3.org/2000/svg" xmlns:xlink="http://www.w3.org/1999/xlink">
    <title>GL</title>
    <g id="GL" stroke="none" stroke-width="1" fill="none" fill-rule="evenodd">
        <path d="M2.28352201,25.2296973 C2.99496855,25.2296973 3.57157233,25.8491136 3.57157233,26.6143067 C3.57157233,27.3794999 2.99496855,28 2.28352201,28 C1.57559748,28 1,27.3794999 1,26.6143067 C1,25.8491136 1.57559748,25.2302392 2.28352201,25.2296973 Z M8.90742138,25.2296973 C9.61987421,25.2296973 10.1954717,25.8491136 10.1954717,26.6143067 C10.1954717,27.3794999 9.61987421,28 8.90742138,28 C8.19798742,28 7.62389937,27.3794999 7.62389937,26.6143067 C7.62389937,25.8491136 8.19798742,25.2302392 8.90742138,25.2296973 Z M15.5308176,25.2296973 C16.2437736,25.2296973 16.8178616,25.8491136 16.8178616,26.6143067 C16.8178616,27.3794999 16.2437736,28 15.5308176,28 C14.8223899,28 14.2447799,27.3794999 14.2447799,26.6143067 C14.2447799,25.8491136 14.8228931,25.2302392 15.5308176,25.2296973 Z M5.59572327,21.9266858 C6.17333333,21.9266858 6.63924528,22.4295889 6.63924528,23.0462956 C6.63924528,23.6667957 6.17333333,24.1713246 5.59572327,24.1713246 C5.02314465,24.1713246 4.55522013,23.6662538 4.55522013,23.0462956 C4.55522013,22.4295889 5.02314465,21.9266858 5.59572327,21.9266858 Z M8.90742138,22.0567469 C9.41408805,22.0567469 9.82918239,22.5043741 9.82918239,23.0495471 C9.82918239,23.5968878 9.41408805,24.0412635 8.90742138,24.0412635 C8.40025157,24.0412635 7.98968553,23.5968878 7.98968553,23.0495471 C7.98968553,22.5043741 8.40025157,22.0567469 8.90742138,22.0567469 Z M12.2186164,22.1900596 C12.6583648,22.1900596 13.0161006,22.5753658 13.0161006,23.0495471 C13.0161006,23.5226446 12.6583648,23.9079508 12.2186164,23.9079508 C11.7818868,23.9079508 11.4231447,23.5226446 11.4231447,23.0495471 C11.4231447,22.5753658 11.7818868,22.1900596 12.2186164,22.1900596 Z M2.28352201,18.0980104 C2.99496855,18.0980104 3.57157233,18.7163428 3.57157233,19.481536 C3.57157233,20.2488968 2.99496855,20.8693969 2.28352201,20.8693969 C1.57559748,20.8693969 1,20.2488968 1,19.481536 C1,18.7163428 1.57559748,18.0980104 2.28352201,18.0980104 Z M25.4664151,18.2291554 C26.1109434,18.2291554 26.6306918,18.7916699 26.6306918,19.481536 C26.6306918,20.1730278 26.1104403,20.7360842 25.4664151,20.7355427 C24.8244025,20.7355427 24.3021384,20.1724859 24.3021384,19.481536 C24.3021384,18.791128 24.8244025,18.2291554 25.4664151,18.2291554 Z M22.154717,18.3608423 C22.7308176,18.3608423 23.1952201,18.8604939 23.1952201,19.481536 C23.1952201,20.1014942 22.7313208,20.6033135 22.154717,20.6033135 C21.5806289,20.6033135 21.1137107,20.1020361 21.1137107,19.481536 C21.1137107,18.8604939 21.5806289,18.3608423 22.154717,18.3608423 Z M5.59572327,18.4919873 C6.10440252,18.4919873 6.51698113,18.9396145 6.51698113,19.481536 C6.51698113,20.0288767 6.10440252,20.4710846 5.59572327,20.4710846 C5.09006289,20.4710846 4.67748428,20.0288767 4.67748428,19.481536 C4.67748428,18.9396145 5.09006289,18.4919873 5.59572327,18.4919873 Z M18.843522,18.4919873 C19.3516981,18.4919873 19.761761,18.9396145 19.761761,19.481536 C19.761761,20.0288767 19.3516981,20.4710846 18.843522,20.4710846 C18.3373585,20.4710846 17.9232704,20.0288767 17.9232704,19.481536 C17.9232704,18.9396145 18.3373585,18.4919873 18.843522,18.4919873 Z M8.90742138,18.6263838 C9.3481761,18.6263838 9.70591195,19.0106062 9.70591195,19.481536 C9.70591195,19.9557173 9.3481761,20.3377719 8.90742138,20.3377719 C8.46968553,20.3377719 8.11345912,19.9557173 8.11345912,19.481536 C8.11345912,19.0106062 8.46968553,18.6263838 8.90742138,18.6263838 Z M15.5308176,18.6263838 C15.970566,18.6263838 16.3283019,19.0106062 16.3283019,19.481536 C16.3283019,19.9557173 15.970566,20.3377719 15.5308176,20.3377719 C15.0945912,20.3377719 14.7358491,19.9557173 14.7358491,19.481536 C14.7358491,19.0106062 15.0945912,18.6263838 15.5308176,18.6263838 Z M12.2186164,18.7553612 C12.5924528,18.7553612 12.8973585,19.0794302 12.8973585,19.481536 C12.8973585,19.881474 12.592956,20.2087946 12.2186164,20.2087946 C11.8493082,20.2087946 11.5469182,19.881474 11.5469182,19.481536 C11.5469182,19.0794302 11.8493082,18.7553612 12.2186164,18.7553612 Z M5.59572327,15.0589146 C6.03849057,15.0589146 6.39371069,15.4436789 6.39371069,15.9167763 C6.39371069,16.3920415 6.03849057,16.7746381 5.59572327,16.7746381 C5.15698113,16.7746381 4.80176101,16.3920415 4.80176101,15.9167763 C4.80176101,15.4436789 5.15698113,15.0589146 5.59572327,15.0589146 Z M8.90742138,15.1906015 C9.28226415,15.1906015 9.58465409,15.5130448 9.58465409,15.9156925 C9.58465409,16.3167144 9.28226415,16.6413254 8.90742138,16.6407841 C8.53660377,16.6407841 8.23421384,16.3167144 8.23421384,15.9156925 C8.23421384,15.5135867 8.53660377,15.1906015 8.90742138,15.1906015 Z M12.2186164,15.3228304 C12.523522,15.3228304 12.7700629,15.5883719 12.7700629,15.9156925 C12.7700629,16.2413873 12.523522,16.5085546 12.2186164,16.5085546 C11.9157233,16.5085546 11.6701887,16.2413873 11.6701887,15.9156925 C11.6701887,15.5889138 11.9157233,15.3228304 12.2186164,15.3228304 Z M2.28352201,10.9641558 C2.99496855,10.9641558 3.57157233,11.584114 3.57157233,12.3493071 C3.57157233,13.1139583 2.99496855,13.7350004 2.28352201,13.7350004 C1.57559748,13.7350004 1,13.1139583 1,12.3493071 C1,11.584114 1.57559748,10.9641558 2.28352201,10.9641558 Z M8.90742138,11.4914448 C9.3481761,11.4914448 9.70591195,11.8751258 9.70591195,12.3493071 C9.70591195,12.8234884 9.3481761,13.2071688 8.90742138,13.2071688 C8.46968553,13.2071688 8.11345912,12.8234884 8.11345912,12.3493071 C8.11345912,11.8745839 8.46968553,11.4909035 8.90742138,11.4914448 Z M15.5308176,11.4914448 C15.970566,11.4914448 16.3283019,11.8751258 16.3283019,12.3493071 C16.3283019,12.8234884 15.970566,13.2071688 15.5308176,13.2071688 C15.0945912,13.2071688 14.7358491,12.8234884 14.7358491,12.3493071 C14.7358491,11.8745839 15.0945912,11.4909035 15.5308176,11.4914448 Z M18.843522,7.66005995 C19.4211321,7.65951846 19.8855346,8.16133777 19.8855346,8.78183789 C19.8855346,9.40179608 19.4206289,9.90415731 18.843522,9.90415731 C18.2679245,9.90415731 17.8010063,9.40179608 17.8010063,8.78183789 C17.8010063,8.16133777 18.2684277,7.66005995 18.843522,7.66005995 Z M8.90742138,7.79012155 C9.41408805,7.79012155 9.82918239,8.23558102 9.82918239,8.78183789 C9.82918239,9.32972052 9.41408805,9.77463807 8.90742138,9.77463807 C8.40025157,9.77463807 7.98968553,9.32972052 7.98968553,8.78183789 C7.98968553,8.23558102 8.40025157,7.79012155 8.90742138,7.79012155 Z M22.154717,3.82975923 C22.8636478,3.82975923 23.441761,4.44971743 23.441761,5.21382674 C23.441761,5.98118758 22.8641509,6.60331346 22.154717,6.60331346 C21.445283,6.60331346 20.867673,5.98064566 20.867673,5.21382674 C20.867673,4.44971743 21.4447799,3.82975923 22.154717,3.82975923 Z M8.90742138,4.09204924 C9.4845283,4.09204924 9.94943396,4.59495239 9.94943396,5.21382674 C9.94943396,5.8354107 9.4845283,6.33885577 8.90742138,6.33885577 C8.33484277,6.33885577 7.86893082,5.83486878 7.86893082,5.21382674 C7.86893082,4.59495239 8.33433962,4.09204924 8.90742138,4.09204924 Z M25.4659119,-4.90718577e-14 C26.3127044,-4.90718577e-14 27,0.737013238 27,1.64744136 C27,2.56003716 26.3127044,3.29759232 25.4659119,3.29759232 C24.6211321,3.29759232 23.9353459,2.55949524 23.9353459,1.64744136 C23.9353459,0.737013238 24.6211321,-4.90718577e-14 25.4659119,-4.90718577e-14 Z M8.90742138,0.394518851 C9.55044025,0.394518851 10.0727044,0.956491445 10.0727044,1.64744136 C10.0727044,2.34001703 9.55044025,2.90361539 8.90742138,2.90361539 C8.26591195,2.90361539 7.74616352,2.34055895 7.74616352,1.64744136 C7.74616352,0.956491445 8.26641509,0.394518851 8.90742138,0.394518851 Z" id="Combined-Shape" fill="#C4122F"></path>
    </g>
</svg>