<?xml version="1.0" encoding="UTF-8"?>
<svg width="28px" height="28px" viewBox="0 0 28 28" version="1.1" xmlns="http://www.w3.org/2000/svg" xmlns:xlink="http://www.w3.org/1999/xlink">
    <title>GR</title>
    <g id="GR" stroke="none" stroke-width="1" fill="none" fill-rule="evenodd">
        <path d="M24.8328597,11.9487555 L25.6513603,14.8774315 L26.4861548,11.9487555 L28,11.9487555 L26.2650242,16.7218155 C26.0358525,17.3449069 25.8640266,17.7331102 25.528416,17.8784773 C25.2503628,18 24.8737001,18 24.3905985,18 L24.0143591,18 L24.0143591,16.8834972 L24.2928356,16.8834972 C24.7592201,16.8834972 24.9803507,16.8025518 24.9803507,16.4467685 C24.9803507,16.2769295 24.889994,16.0581468 24.7672612,15.7506798 L23.3022975,11.9487555 L24.8328597,11.9487555 Z M15.9764208,11.8429199 C16.574214,11.8429199 16.9997582,12.053127 17.3516626,12.5302238 L17.3516626,12.5302238 L17.3516626,11.955867 L18.6856409,11.955867 L18.6850168,15.7399161 C18.6808183,16.3620427 18.6493853,16.8287666 18.4236699,17.1740222 C18.0882709,17.6919055 17.4333434,17.9826396 16.5086155,17.9826396 C15.1991838,17.9826396 14.5199214,17.553859 14.3889359,16.6155616 L14.3889359,16.6155616 L15.8128476,16.6155616 C15.8864873,16.8745032 16.0993652,16.9958168 16.4677751,16.9958168 C17.1224909,16.9958168 17.3023579,16.7128216 17.3023579,16.0573102 L17.3023579,16.0573102 L17.3023579,15.6044761 C16.9915054,16.0656766 16.5496675,16.2921983 15.9603386,16.2921983 C14.9207074,16.2921983 14.1432588,15.4264798 14.1432588,14.0918218 C14.1432588,12.7324827 14.9044135,11.8429199 15.9764208,11.8429199 Z M2.16898428,11.8506589 C2.92992745,11.8506589 3.46191052,12.0286551 3.76472189,12.4089103 C4.03494559,12.7569546 4.05123942,13.1934742 4.05123942,13.7843547 L4.05123942,13.7843547 L4.05123942,15.4103744 C4.05123942,15.7906296 4.11662636,16.0171512 4.26390568,16.0897302 L4.26390568,16.0897302 L4.26390568,16.251621 L2.8154474,16.251621 C2.78243652,16.114202 2.75810157,15.9686258 2.74180774,15.806735 C2.34059855,16.2030956 1.89897219,16.3890399 1.35852479,16.3890399 C0.507436518,16.3890399 -1.77635684e-15,15.8874712 -1.77635684e-15,15.12717 C-1.77635684e-15,14.407237 0.384703748,13.9702991 1.15411125,13.7923029 C2.16051995,13.5580423 2.70054414,13.6224639 2.70054414,13.290525 L2.70054414,13.290525 L2.70054414,13.1857352 C2.70054414,12.9349508 2.50438331,12.8052709 2.1359734,12.8052709 C1.7267231,12.8052709 1.48951028,12.9751098 1.43216445,13.290525 L1.43216445,13.290525 L0.122732769,13.290525 C0.261759371,12.3120686 0.932980653,11.8506589 2.16898428,11.8506589 Z M5.94301693,11.955867 L5.94301693,14.3582932 C5.94301693,14.9976992 6.05749698,15.2890609 6.54059855,15.2890609 C7.05607618,15.2890609 7.25244861,14.9573311 7.25244861,14.2532943 L7.25244861,11.955867 L8.67657195,11.955867 L8.67657195,16.251621 L7.28524788,16.251621 L7.28524788,15.6609496 C6.94159613,16.1382556 6.52409311,16.3568291 5.96756348,16.3568291 C5.00982467,16.3568291 4.51889359,15.871575 4.51889359,14.9088057 L4.51889359,11.955867 L5.94301693,11.955867 Z M11.9526904,11.8506589 L11.9526904,13.2422087 C11.8301693,13.2258942 11.7072249,13.217946 11.6009976,13.217946 C11.1672007,13.217946 10.8889359,13.3394687 10.71711,13.6143066 C10.5861245,13.832671 10.5698307,14.2210835 10.5698307,14.8117549 L10.5698307,16.251621 L9.15374849,16.251621 L9.15374849,11.955867 L10.5207376,11.955867 L10.5207376,12.70822 C10.823549,12.1177578 11.2573458,11.8590253 11.9526904,11.8506589 Z M13.7670193,11.955867 L13.7670193,16.251621 L12.3511487,16.251621 L12.3511487,11.955867 L13.7670193,11.955867 Z M21.8718259,11.8506589 C22.9279625,11.8506589 23.3207074,12.3603849 23.3207074,13.4605731 L23.3207074,16.251621 L21.8963724,16.251621 L21.8963724,14.0918218 C21.8963724,13.2986823 21.8635732,12.9186363 21.2990024,12.9186363 C20.7833132,12.9186363 20.578688,13.250366 20.578688,13.9544028 L20.578688,16.251621 L19.1628174,16.251621 L19.1628174,11.955867 L20.5541415,11.955867 L20.5541415,12.5465384 C20.8489117,12.0771805 21.2744559,11.8506589 21.8718259,11.8506589 Z M2.70054414,14.2294499 C2.4550786,14.3829743 2.1359734,14.3992889 1.81707981,14.4879732 C1.497763,14.5770759 1.35027207,14.7065467 1.35027207,14.9652792 C1.35027207,15.264589 1.55510883,15.4750052 1.87421403,15.4750052 C2.35689238,15.4750052 2.70054414,15.1756955 2.70054414,14.7228613 L2.70054414,14.7228613 Z M16.4593108,12.9349508 C15.9192866,12.9349508 15.6164752,13.3315206 15.6164752,14.0834553 C15.6164752,14.7793349 15.935792,15.1836436 16.4349758,15.1836436 C16.9669589,15.1836436 17.2860641,14.7874922 17.2860641,14.0834553 C17.2860641,13.3231542 16.9997582,12.9349508 16.4593108,12.9349508 Z" id="Combined-Shape" fill="#0C3B62" fill-rule="nonzero"></path>
        <path d="M13.0511487,11.6308304 C12.5798972,11.6308304 12.2497884,11.2890609 12.2497884,10.8153106 C12.2497884,10.3338214 12.5877267,10 13.0591898,10 C13.5304414,10 13.8603386,10.3260824 13.8681681,10.8153106 C13.8681681,11.2890609 13.5382709,11.6308304 13.0591898,11.6308304 L13.0511487,11.6308304 L13.0511487,11.6308304 Z" id="Path" fill="#F44336" fill-rule="nonzero"></path>
    </g>
</svg>