<?xml version="1.0" encoding="UTF-8"?>
<svg width="28px" height="28px" viewBox="0 0 28 28" version="1.1" xmlns="http://www.w3.org/2000/svg" xmlns:xlink="http://www.w3.org/1999/xlink">
    <title>H2</title>
    <g id="H2" stroke="none" stroke-width="1" fill="none" fill-rule="evenodd">
        <path d="M3.42630101,9.01404256 C3.7499526,8.9956205 3.80655606,8.99550962 4.17582931,9.01261695 C5.16793247,9.05858498 5.93568387,9.2403979 6.72509516,9.61631568 L6.72509516,9.61631568 L6.95288373,9.72478883 L6.95226507,11.5053319 C6.95065709,12.0120966 6.94513186,12.0699627 6.92721156,12.0631552 C6.91309666,12.0577854 6.82795968,12.0076197 6.73804314,11.9516882 C6.07208526,11.5374374 5.37948012,11.2797503 4.62704251,11.1662875 C4.34642297,11.1239785 3.77140469,11.1064593 3.53907633,11.1331499 C2.94898404,11.2009298 2.61764358,11.4223589 2.59286658,11.7654718 C2.57512305,12.0111996 2.6798898,12.2074745 2.90497688,12.3501465 C3.07683337,12.4590949 3.14945397,12.4836946 4.20343569,12.7901059 C5.26189326,13.0978161 5.48416695,13.1737378 5.87313392,13.3604453 C6.87765755,13.8426028 7.43966391,14.5455557 7.56738536,15.4795368 C7.67462982,16.2637813 7.5315786,16.9787093 7.15530385,17.5390853 C6.62545963,18.328161 5.62192709,18.8227688 4.25139118,18.9703037 C3.88363652,19.0098882 3.11671635,19.009904 2.74878586,18.9703196 C1.87412569,18.8762451 1.10664605,18.667995 0.450918674,18.3468524 L0.450918674,18.3468524 L0.207144938,18.2274654 L0.207530154,16.7262882 C0.20894133,16.169387 0.214222677,15.8869923 0.223257982,15.8869923 C0.232113763,15.8869923 0.32204629,15.9363343 0.423088505,15.9966218 C1.18436591,16.4509165 2.07865585,16.753146 2.96458556,16.8555682 C3.17221684,16.8795819 3.71958079,16.8791067 3.92369534,16.8547446 C4.45190906,16.7917009 4.78865251,16.6263775 4.91720519,16.3669638 C4.95887851,16.2828686 4.96273093,16.2603123 4.96273093,16.1008339 C4.96273093,15.9387737 4.95926215,15.9193378 4.913097,15.822824 C4.84714222,15.6848723 4.73615723,15.5793771 4.56062416,15.487742 C4.33652816,15.3707627 4.2135543,15.3302279 3.34023689,15.085498 C2.41621454,14.8265437 2.16376086,14.7482934 1.88131902,14.6332466 C0.723146,14.161512 0.146609126,13.4762366 0.0146516052,12.4145049 C-0.0151447386,12.1748439 0.00299842137,11.5969645 0.0465899609,11.3963177 C0.15142066,10.9139385 0.354352304,10.5098411 0.667517633,10.1598378 C1.26222964,9.49520211 2.26106255,9.08034931 3.42630101,9.01404256 Z M17.3592248,9.15494044 L17.3592248,18.8490951 L14.7056878,18.8490951 L14.7056878,9.15494044 L17.3592248,9.15494044 Z M26.6203409,9.1549874 C27.835565,9.1549874 28.0076453,9.15783919 27.9997486,9.17824126 C27.9947772,9.19104008 27.1775677,10.6004149 26.1837222,12.3101502 L26.1837222,12.3101502 L24.3767114,15.4187741 L24.3767114,18.8490951 L21.7391595,18.8490951 L21.7391595,15.4245875 L19.9657975,12.3174842 C18.9904468,10.6085726 18.187624,9.1979147 18.1817414,9.18266066 C18.1745024,9.16389011 18.2101868,9.15781562 18.7245477,9.15592316 L21.0278198,9.15530477 L22.0734892,11.0321691 C22.6486194,12.0644541 23.1237943,12.9090494 23.1294691,12.9090494 C23.1351278,12.9090494 23.6104946,12.0643907 24.1858326,11.0320424 L24.1858326,11.0320424 L25.2319176,9.1549874 Z" id="Combined-Shape" fill="#651D82"></path>
        <path d="M14.6936989,13.9859717 C14.687097,13.9858609 13.8580745,12.9026341 12.8514089,11.5788118 L11.0211077,9.17184185 L9.49757781,9.17131913 C8.28284929,9.17089145 7.97649364,9.17478812 7.98614868,9.19058072 C7.99279851,9.20146288 8.81465968,10.2831531 9.81250151,11.5943192 C10.8103433,12.9054853 11.6271692,13.989615 11.6276487,14.0035068 C11.6281443,14.0173985 10.808505,15.1062644 9.80623533,16.423228 C8.80396561,17.7401915 7.98152897,18.8247647 7.97858614,18.8333976 C7.97510293,18.8436936 8.49564378,18.8490951 9.49175921,18.8490951 L11.0102378,18.8490951 L12.8430966,16.4413966 C13.8511689,15.1171624 14.6826532,14.033698 14.6908216,14.033698" id="Path" fill="#00BE56"></path>
    </g>
</svg>