<?xml version="1.0" encoding="UTF-8"?>
<svg width="28px" height="28px" viewBox="0 0 28 28" version="1.1" xmlns="http://www.w3.org/2000/svg" xmlns:xlink="http://www.w3.org/1999/xlink">
    <title>H6</title>
    <g id="H6" stroke="none" stroke-width="1" fill="none" fill-rule="evenodd">
        <path d="M17.937147,5.22180792 C13.8532588,5.80348294 9.45775695,7.53545063 5.94844626,9.94593554 C4.47543564,10.9575713 2.12291128,12.9332767 1.70048395,13.5130864 C1.26947134,14.1050208 1.38728039,14.1200989 3.00417387,13.6801897 C6.27118901,12.7912 12.1974136,12.5710899 16.5557126,13.1767035 C19.9559585,13.6492561 20.8245022,13.7002421 22.4382159,13.5224131 C25.8052336,13.151366 27.4057515,12.1126828 27.932633,9.95712758 C28.4127724,7.99230335 26.2685205,5.74534653 23.3445984,5.14921513 C22.2425034,4.92459717 19.7928383,4.95739605 17.937147,5.22180792" id="Path" fill="#37A92B"></path>
        <path d="M25.220481,14.2492737 C22.3083239,15.1659326 15.5827148,15.4196187 11.3886489,14.7712578 C5.02727804,13.7876022 1.01556978,14.813228 0.175643699,17.6379737 C-0.155525338,18.7517368 -0.028177091,19.5280289 0.641156393,20.4777976 C1.24005882,21.3274597 2.28237481,22.0709529 3.56030891,22.5599827 C4.68704677,22.991187 7.62654957,23.1337301 9.75013326,22.8603024 C15.4820763,22.1220943 21.2807936,19.3211317 25.6576941,15.1763474 C26.2042899,14.6588711 26.6513602,14.1808779 26.6513602,14.1143475 C26.6513602,13.9352749 26.0321075,13.9937222 25.220481,14.2492737" id="Path" fill="#E73500"></path>
    </g>
</svg>