<?xml version="1.0" encoding="UTF-8"?>
<svg width="28px" height="28px" viewBox="0 0 28 28" version="1.1" xmlns="http://www.w3.org/2000/svg" xmlns:xlink="http://www.w3.org/1999/xlink">
    <title>HA</title>
    <defs>
        <linearGradient x1="50.9100298%" y1="90.2460221%" x2="49.6384486%" y2="33.8662552%" id="linearGradient-1">
            <stop stop-color="#D2068A" offset="0%"></stop>
            <stop stop-color="#413691" offset="73.696312%"></stop>
            <stop stop-color="#413691" offset="100%"></stop>
        </linearGradient>
    </defs>
    <g id="HA" stroke="none" stroke-width="1" fill="none" fill-rule="evenodd">
        <path d="M16.1722697,19.9730368 C15.7189713,18.5306351 15.5597569,17.1693283 15.7087465,15.5736374 C15.7087465,15.5716595 15.7087465,15.5691871 15.7092334,15.5667147 C15.7097203,15.5632533 15.7102072,15.558803 15.7102072,15.5548471 C15.8007695,14.5990149 16.000883,13.5596154 16.3144428,12.3679156 L16.3144428,12.3679156 C16.5681146,11.4012048 16.6503997,10.4389444 16.616804,9.51673689 C16.3977017,7.14767734 14.980353,5.36606149 13.2781712,4.36819838 C13.2771975,4.36869286 13.2767106,4.36918735 13.2757368,4.36968183 C13.2767106,4.36918735 13.2771975,4.36869286 13.2781712,4.36869286 L13.2781712,4.36869286 C13.4008686,5.43380542 13.3628908,6.70511665 13.086335,8.25828217 C12.7255464,10.2846662 11.9732951,10.9546883 11.8666653,11.0901761 C11.8598488,11.0985823 11.8525453,11.1059995 11.8559536,11.1153947 C11.8579012,11.1223174 11.8778638,11.1312181 11.8841935,11.1356684 C12.5122868,11.5347148 13.0615034,12.0173284 13.3190703,12.239845 C13.5167493,12.410441 13.4388463,12.4870856 13.2416542,12.3951121 C12.7148348,12.1498494 11.8350172,11.8368428 10.7205166,11.6964101 C9.74088568,11.5737788 8.57964328,11.5886132 7.31615312,11.8368428 C7.31615312,11.8368428 6.43097966,11.9698582 6.56146728,12.8846485 C6.59749744,13.1407898 6.7245768,13.4033593 6.82585077,13.6580171 C6.85798578,13.7386176 6.94270535,13.9863527 6.8969373,14.187112 C6.88525185,14.2375491 6.82244251,14.3300171 6.78592545,14.3873769 C6.72068164,14.4887456 6.69682383,14.6286838 6.76450211,14.7918626 C6.82244251,14.9303173 7.05517788,15.1330546 7.38285761,15.1651959 C7.75581848,15.2007986 8.21642029,15.1459111 8.56893161,15.2092047 C9.08260487,15.3021672 9.38934815,15.6552268 9.32848639,15.7709354 C9.28807418,15.8480745 8.83039373,15.7546175 8.67458763,15.7229707 C8.44526051,15.6764895 8.02847917,15.8643924 7.81035062,15.9365866 C7.47147233,16.0488339 7.29521667,16.138335 7.00210643,16.0112533 C6.81903425,15.9316418 6.6749136,15.5573195 6.62378972,15.7313769 C6.59993191,15.8119773 6.64521306,15.899995 6.70850929,15.9949354 C6.76791037,16.0844365 6.88719942,16.2530546 6.90375382,16.3484895 C6.9222558,16.4567809 6.94757429,16.61007 6.65251647,16.822697 C6.44315201,16.9725248 6.29951826,17.0946616 6.21090353,17.1861407 C5.92801807,17.4764011 5.87884176,17.7765512 6.42124178,18.244825 C6.80880947,18.5800832 7.66428239,19.4770722 7.92428383,20.0249574 C7.96566983,20.1109971 8.17211292,20.4536726 7.94522028,20.7968426 C7.7704253,21.0608955 7.73877719,21.1118271 7.69300914,21.2018227 C7.56739047,21.4480743 7.65746587,21.666635 7.86390897,21.9949706 C7.96469604,22.1551825 8.04357289,22.3495136 8.25926697,23.0348646 C8.49881886,23.7968601 8.88589966,24.471827 9.41417975,25.0469087 L9.41271906,25.0459197 L9.41466664,25.0474032 C9.45459196,25.0820168 10.0563931,25.7589616 10.737071,25.9621934 C10.9045626,25.6847895 11.251718,25.3060168 11.9489504,24.9440566 C12.6607895,24.5741846 13.444689,24.3684804 13.444689,24.3684804 C13.444689,24.3684804 14.4223724,24.0836593 15.4127149,23.7231824 C16.202944,23.4363833 17.0262819,22.3955004 17.0262819,22.180401 C17.0262819,21.7363569 16.5968414,21.3219816 16.1722697,19.9730368" id="path634" fill="#FFFFFF" fill-rule="nonzero" transform="translate(11.514940, 15.165196) scale(-1, 1) rotate(-180.000000) translate(-11.514940, -15.165196) "></path>
        <path d="M2,16.4232049 C2,10.7114523 6.02758791,5.96591597 11.3254825,5.01848994 L11.3254825,5.01848994 C11.2826358,4.60362019 11.2315119,4.21693588 11.1696764,3.90739063 L11.1696764,3.90739063 C10.8059665,2.07929355 9.57315067,0.398551866 8.90610576,6.03961325e-14 L8.90610576,6.03961325e-14 C10.6891119,0.156750548 12.1064606,0.698207488 12.950735,1.54723175 L12.950735,1.54723175 L12.9487874,1.54723175 C12.8893863,1.54673727 12.3314057,1.55366001 12.2822294,1.55464897 L12.2822294,1.55464897 C12.6191601,1.68618097 12.9521956,1.84738185 13.2750064,2.03627368 L13.2750064,2.03627368 C13.2754933,2.03627368 13.2754933,2.03676816 13.2754933,2.03676816 L13.2754933,2.03676816 C13.2754933,2.03775712 13.2759802,2.03874609 13.2759802,2.03973505 L13.2759802,2.03973505 C13.2764671,2.03924057 13.2774409,2.03874609 13.2779278,2.0382516 L13.2779278,2.0382516 C13.4006251,3.10336416 13.3626474,4.37516987 13.0860915,5.92833539 L13.0860915,5.92833539 C12.7257899,7.95422497 11.9735385,8.62474151 11.8664218,8.75973488 L11.8664218,8.75973488 C11.8596053,8.76863554 11.8523019,8.77605276 11.8557102,8.78495342 L11.8557102,8.78495342 C11.8581446,8.79237064 11.8776204,8.80077682 11.8844369,8.80522715 L11.8844369,8.80522715 C12.5125303,9.20476798 13.0617468,9.68688718 13.3193138,9.90940373 L13.3193138,9.90940373 C13.5165059,10.0799997 13.4386028,10.1566443 13.2414107,10.0646708 L13.2414107,10.0646708 C12.7145913,9.81940814 11.8352606,9.50640153 10.7202731,9.36596886 L10.7202731,9.36596886 C9.74064223,9.24333752 8.57939983,9.25817195 7.31590967,9.50689601 L7.31590967,9.50689601 C7.31590967,9.50689601 6.43122311,9.63941698 6.56171072,10.5542072 L6.56171072,10.5542072 C6.59725399,10.8103485 6.72433335,11.072918 6.82560732,11.3275759 L6.82560732,11.3275759 C6.85774233,11.4076818 6.9424619,11.6559114 6.89669386,11.8566708 L6.89669386,11.8566708 C6.88549529,11.9071079 6.82268596,11.9995759 6.78568201,12.0569357 L6.78568201,12.0569357 C6.7204382,12.1583043 6.69706728,12.2982425 6.76474556,12.4619158 L6.76474556,12.4619158 C6.82219906,12.5998761 7.05493444,12.8026134 7.38310105,12.8347546 L7.38310105,12.8347546 C7.54474989,12.8500836 7.72344002,12.8490946 7.90261705,12.8471167 L7.90261705,12.8471167 C8.13535242,12.8451388 8.36954848,12.8431608 8.56917505,12.879258 L8.56917505,12.879258 C9.08236143,12.9712315 9.3891047,13.3247855 9.32872983,13.4404941 L9.32872983,13.4404941 C9.28783073,13.5176332 8.83015029,13.4241763 8.67434418,13.3925295 L8.67434418,13.3925295 C8.44550396,13.3460482 8.02872262,13.5344456 7.81059406,13.6061454 L7.81059406,13.6061454 C7.47171578,13.7183926 7.29546012,13.8078937 7.00186298,13.680812 L7.00186298,13.680812 C6.8192777,13.6012005 6.67515705,13.2268783 6.62354627,13.4009356 L6.62354627,13.4009356 C6.60017536,13.4815361 6.64496961,13.5695537 6.70826584,13.6644941 L6.70826584,13.6644941 C6.76766692,13.7539952 6.88695598,13.9226133 6.90399727,14.0185427 L6.90399727,14.0185427 C6.92201235,14.1263396 6.94781774,14.2796288 6.65275992,14.4917612 L6.65275992,14.4917612 C6.44339546,14.642578 6.29927481,14.7642204 6.21066009,14.8561939 L6.21066009,14.8561939 C5.92777462,15.1454654 5.87859832,15.4456155 6.42148523,15.9148782 L6.42148523,15.9148782 C6.80856603,16.249642 7.66403894,17.1466309 7.92452728,17.6945161 L7.92452728,17.6945161 C7.96542638,17.7805558 8.17235637,18.1232313 7.94546373,18.4664013 L7.94546373,18.4664013 C7.77066875,18.7304543 7.73902063,18.7813858 7.69325259,18.8713814 L7.69325259,18.8713814 C7.56763391,19.1176331 7.65722243,19.3366883 7.86366552,19.6645293 L7.86366552,19.6645293 C7.9644526,19.8247412 8.04332944,20.0190723 8.25902352,20.7039288 L8.25902352,20.7039288 C8.49857541,21.4664189 8.88565621,22.1413858 9.41442319,22.7159729 L9.41442319,22.7159729 L9.41296251,22.7159729 C9.44947957,22.8277257 9.51228891,23.7093857 10.0181719,24.5312135 L10.0181719,24.5312135 C10.1827421,24.8511429 10.4033051,25.1898625 10.7042056,25.5196815 L10.7042056,25.5196815 C10.9067536,25.7407146 11.2251823,25.9973503 11.644885,26.244591 L11.644885,26.244591 C12.0645877,26.4918316 12.5841037,26.729677 13.1888262,26.9126351 L13.1888262,26.9126351 C13.9147853,27.1326792 14.761981,27.2745953 15.7031473,27.2602554 L15.7031473,27.2602554 C16.4062223,27.2498713 17.0757017,27.1935004 17.8717735,26.9769176 L17.8717735,26.9769176 C17.8717735,26.9769176 17.8727473,26.9764232 17.8732342,26.9764232 L17.8732342,26.9764232 C17.8766425,26.9754342 17.9102382,26.9665335 17.9681786,26.9492267 L17.9681786,26.9492267 C16.5386575,27.6232046 14.9489483,28 13.2730589,28 L13.2730589,28 C7.04714413,28 2,22.8173416 2,16.4232049 M6.49987517,14.997121 C6.48526835,14.959046 6.52032473,14.9397612 6.5636583,14.9184985 L6.5636583,14.9184985 C6.77204897,14.8200968 6.868454,14.7696597 7.24287556,14.5417038 L7.24287556,14.5417038 C7.68059334,14.2751785 7.87096893,14.4957171 7.9644526,14.6658186 L7.9644526,14.6658186 C7.99074488,14.7118054 8.0296964,14.9006972 7.98684972,14.9674522 L7.98684972,14.9674522 C7.94400304,15.0342071 7.86366552,14.9911873 7.77894595,14.9071255 L7.77894595,14.9071255 C7.68351471,14.8126795 7.45077933,14.8636111 7.37287628,14.8720173 L7.37287628,14.8720173 C7.29594701,14.880918 6.93856675,14.972397 6.70583137,15.0218451 L6.70583137,15.0218451 C6.6624978,15.0312402 6.62695453,15.0347016 6.59774089,15.0347016 L6.59774089,15.0347016 C6.53833981,15.0347016 6.50766548,15.0183837 6.49987517,14.997121" id="path656" fill="url(#linearGradient-1)" fill-rule="nonzero" transform="translate(9.984089, 14.000000) scale(-1, 1) rotate(-180.000000) translate(-9.984089, -14.000000) "></path>
        <path d="M9.7325111,8.3930283 C9.89221236,8.37621594 10.1127754,8.4063793 10.2286562,8.45187157 C10.4438634,8.53494442 10.5081334,8.64224684 10.4988824,8.68427775 C10.4886576,8.73273691 10.2057722,8.67043227 10.054835,8.74509894 C9.94431003,8.79949187 9.95842996,8.8751475 10.031951,8.88899297 C10.105472,8.90283845 10.4808673,8.8934433 10.7598576,9.06107244 C11.0393348,9.22820709 10.9799338,9.29347861 10.7184716,9.25639252 C10.495961,9.22474572 10.0635991,9.22375676 9.92629495,9.36320047 C9.78899082,9.50264417 9.79239908,9.61044108 9.59569386,9.77807021 C9.45790284,9.89625123 9.35808955,9.94866623 9.17550426,10.0010812 C9.01385543,10.0465735 8.9666267,9.93432628 9.04696422,9.8705382 C9.11853766,9.81367286 9.13363137,9.77807021 9.11074735,9.69054704 C9.09467985,9.62923136 9.05085938,9.56989362 9.00119618,9.4887987 C8.90381736,9.3280923 8.8015696,9.20298855 8.82834878,9.04079871 C8.84831144,8.91816736 8.92621449,8.83806141 8.97782526,8.78515192 C9.02943604,8.73174794 9.27385687,8.44198195 9.7325111,8.3930283 Z M9.57826306,7.33553076 C10.0734343,7.30240052 11.5667385,7.63518638 11.6232182,7.65249322 C11.7035558,7.67771177 11.7459155,7.80479344 11.559922,7.79638726 C11.4591349,7.79193693 11.0467356,7.76622391 10.5359837,7.75237843 C9.86796504,7.73457711 9.458974,7.77314664 9.22088279,7.92594134 C9.07676214,8.01890381 9.02028243,8.1984005 8.92679876,8.33982213 C8.77440091,8.56975589 8.66631043,8.67656384 8.51878152,8.72452852 C8.31672047,8.78980004 8.14533375,8.67508039 8.16724398,8.43229011 C8.19158869,8.29235193 8.25537181,8.12670072 8.3965711,7.96302743 C8.65705944,7.6608994 9.08357866,7.36767204 9.57826306,7.33553076 Z" id="Combined-Shape" fill="#413691" fill-rule="nonzero"></path>
        <path d="M24.6633131,15.9683868 C24.6584442,16.4836363 24.5157842,17.5121572 24.4929002,17.7376407 C24.4310646,18.360687 24.2840226,19.2275126 23.8127091,20.4251461 C23.298549,21.7300821 22.8827414,22.6508061 21.6246071,23.9112387 C20.1425015,25.3956714 18.3960124,26.010806 17.9743621,26.1383822 C17.9120397,26.1576669 17.8769833,26.1665676 17.8730881,26.1675566 C17.8730881,26.1675566 17.8721144,26.168051 17.8721144,26.168051 C17.0755556,26.3846338 16.4060763,26.4410047 15.7034881,26.4513888 C13.1930622,26.4894638 11.3511418,25.4184175 10.7045465,24.7108149 C10.403159,24.3809959 10.1830829,24.0422763 10.0185127,23.7223469 C9.51262973,22.9005191 9.44982039,22.0188591 9.41330334,21.9066119 L9.41476402,21.9080953 C9.45420244,21.942709 10.0564904,22.6196538 10.7371684,22.8228856 C10.9046599,22.5454816 11.2518154,22.166709 11.9490478,21.8047487 C12.6608869,21.4348768 13.4442995,21.2296671 13.4442995,21.2296671 C13.4442995,21.2296671 14.4224697,20.9443514 15.4128123,20.5843691 C16.2030414,20.2970755 17.0263793,19.2561925 17.0263793,19.0415876 C17.0263793,18.5975435 16.5969387,18.1831682 16.1723671,16.833729 C15.7185818,15.3913273 15.5598543,14.0300204 15.708357,12.4343295 C15.7088439,12.4323516 15.7088439,12.4298792 15.7093308,12.4279013 C15.7098177,12.4239454 15.7098177,12.4194951 15.7103046,12.4155392 C15.8008669,11.4602015 16.0009804,10.4203075 16.3140533,9.22860776 L16.3145402,9.22860776 C16.568212,8.26189697 16.6504971,7.29963651 16.6169014,6.37742902 C16.3973122,4.00836948 14.9804504,2.22675363 13.2782686,1.22889052 C13.2772948,1.229385 13.2768079,1.23037396 13.2758341,1.23086845 C13.2758341,1.22987948 13.2758341,1.22889052 13.2758341,1.22790156 C12.9525365,1.03900973 12.6195009,0.87731437 12.2820833,0.745782365 C12.3312596,0.744298921 12.8897271,0.737870665 12.9486413,0.738756724 C14.3781624,0.755671989 16.4012073,1.03604284 18.1340634,2.88144677 C18.7324562,3.51833859 19.2013352,4.1844048 19.4973668,4.81239595 C19.6186035,5.07496548 20.1342243,6.00706259 20.4258739,7.85741133 C20.4643385,8.10465194 20.5928785,8.89977775 20.5928785,8.89977775 C20.5928785,8.89977775 20.6737029,8.33359674 20.6839277,7.82823693 C20.6970739,7.13497426 20.7223924,6.26369834 20.3168096,4.94244451 C20.4546006,4.97310235 21.1299227,5.48390145 21.9298897,6.58362769 C22.222513,6.98514645 22.4917655,7.40446652 22.7381339,7.8371376 C23.8872039,9.66424572 24.7032384,11.8414465 24.6633131,15.9683868" id="path676" fill="#413691" fill-rule="nonzero" transform="translate(17.039010, 13.595567) scale(-1, 1) rotate(-180.000000) translate(-17.039010, -13.595567) "></path>
        <path d="M18.4605259,4.43495189 C18.4527356,4.35632938 18.4795147,4.32715499 18.5506013,4.38500929 C18.8617266,4.63966712 19.3783212,5.02931832 20.0818832,5.15738896 C20.9232362,5.31018366 21.3999055,5.72752581 21.6194947,6.19975538 C21.7504692,6.4835876 21.857099,6.99389223 22.266577,7.29948162 C22.3970646,7.39689442 22.2641425,7.43150811 22.1555651,7.41123438 C22.0533173,7.39244409 21.4972843,7.24014388 21.135522,6.83763616 C20.8945094,7.09971121 20.9120376,7.45919906 20.9461202,7.66737565 C20.9617008,7.72918581 20.9139852,7.77368912 20.8331608,7.70643967 C20.5575787,7.48095623 20.3735327,7.18228957 20.3136448,6.96669576 C20.3136448,6.96669576 20.0940555,7.12690767 20.207015,7.52990987 C20.2260038,7.59715932 20.1802358,7.57194078 20.156378,7.55512841 C19.7605331,7.26140657 19.7946157,6.82280172 19.7912074,6.76346398 C19.7912074,6.76346398 19.3914674,6.98845293 18.7794415,7.07399818 C18.6732986,7.48787897 18.0203736,7.59666484 17.9132569,7.17239995 C17.816365,6.78769356 18.4464059,6.49496067 18.7141977,6.81439554 C18.7141977,6.81439554 19.576974,6.72242203 20.3433453,5.94361411 C20.4212484,5.86449711 20.4465669,5.80120351 20.3983643,5.75571124 C20.3628211,5.72208652 20.2522961,5.79081941 20.1174264,5.88526532 C19.9655155,5.99256775 18.9216146,6.67544632 18.0189129,6.20618364 C17.9731449,6.18244854 17.9697366,6.14239556 18.0125833,6.13250593 C18.1829962,6.08206885 18.5622867,5.9490534 18.6582049,5.69686798 C18.4171923,5.6330799 18.0310853,5.48374657 17.7540425,4.90421457 C17.6819822,4.75389228 17.7754659,4.73312407 17.8538558,4.79443974 C17.9478264,4.866634 18.5111628,5.17964062 18.721988,5.15738896 C18.721988,5.15738896 18.5311255,4.87355674 18.4605259,4.43495189 M25.6587681,8.80270454 C25.6232248,8.50947718 25.7128133,7.68418801 25.934837,6.91576419 C26.1680593,6.1043205 25.7537124,5.38781721 25.0355436,4.96701369 C24.8105986,5.32106225 24.3573002,5.49808652 23.9541519,5.51292096 C23.7180082,5.52182162 23.7827652,5.42440882 23.8991328,5.3749607 C25.5706402,4.6638967 24.9810115,2.68498284 24.7653174,2.2646738 C24.5447544,1.8354641 24.597339,1.26878862 24.597339,1.26878862 C24.077823,1.42306676 23.6011537,1.32120363 23.1819378,1.25395418 C22.3517834,1.11994977 21.7986717,1.26977758 21.3667967,1.47053696 C21.0235363,1.63025439 20.4835708,1.99320361 20.4012857,2.68646628 C20.3857051,2.81305348 20.3053676,2.90057665 20.2561913,2.66569807 C20.1724455,2.2646738 20.2308728,1.77513739 20.5137582,1.46707559 C20.2045805,-0.0781782378 17.2194328,0.0345634812 17.2194328,0.0345634812 C17.0212669,0.701618652 15.6642931,0.904355954 15.3575498,1.87403363 C15.2119685,2.33390117 15.3312575,2.81404244 15.3312575,2.81404244 C16.1117488,2.62317269 16.5635865,3.00491219 16.8167714,3.32484154 C16.9643003,3.51175545 16.846472,3.52016163 16.7413028,3.45192322 C15.7524209,2.81750381 14.832678,3.45142874 14.6403548,4.34594527 C14.3837616,5.32452361 13.444543,5.6513757 13.444543,5.6513757 C14.1286291,6.08899159 13.9358191,6.84505338 14.2922256,7.48491208 C15.2304705,9.17109305 16.5650472,8.66622772 16.5650472,8.66622772 C16.6940741,8.26619241 17.0874845,7.9769209 17.4740784,7.8582454 C17.6995104,7.78901803 17.6639671,7.90274871 17.5617194,7.97741538 C16.6137366,8.67067806 16.8479326,9.77485463 17.5943413,10.2901041 C18.8962961,11.1905544 19.1192936,11.5802056 19.1192936,11.5802056 C19.3583586,11.3962586 19.9922947,11.2365411 20.6598265,11.1767089 C22.1545913,11.0417155 22.5066157,10.25104 22.5368032,9.9494065 C22.3605475,9.85496059 22.059647,9.57063388 21.9194215,9.11670012 C21.8493087,8.88824979 21.9622682,8.92385244 22.0367629,9.02670454 C22.6186014,9.8361703 23.3353095,9.68387008 24.0077102,9.37086347 C24.4322819,9.1725765 25.047716,8.66820565 25.6587681,8.80270454" id="path680" fill="#EF3138" fill-rule="nonzero" transform="translate(19.722271, 5.806470) scale(-1, 1) rotate(-180.000000) translate(-19.722271, -5.806470) "></path>
    </g>
</svg>