<?xml version="1.0" encoding="UTF-8"?>
<svg width="28px" height="28px" viewBox="0 0 28 28" version="1.1" xmlns="http://www.w3.org/2000/svg" xmlns:xlink="http://www.w3.org/1999/xlink">
    <title>HG</title>
    <g id="HG" stroke="none" stroke-width="1" fill="none" fill-rule="evenodd">
        <path d="M27.9136366,12.6522624 C27.5277534,10.7499829 26.0436741,8.87792536 24.262726,8.03245465 L24.2033466,7.91167825 C24.6486092,7.73050108 25.0641486,7.79090543 25.5093653,7.85132055 C25.8655747,7.85132055 26.2514544,8.24385014 26.5185682,7.91167825 C25.6281382,7.36818981 24.6486056,7.09642227 23.6987575,6.67371024 C19.6026477,5.64708748 14.9128533,5.13378508 10.4901586,5.79809656 C6.24561972,6.43217179 1.05123269,8.15325258 0.0420298128,13.0749709 C-0.225084008,15.7320948 0.784118867,18.0872544 2.98054994,19.627176 C8.76860398,23.4014844 18.1482104,23.4619031 23.9658113,19.7781671 C26.429455,18.2986104 28.447836,15.7018944 27.9135378,12.6522588 L27.9136366,12.6522624 Z M24.1736763,17.272002 L24.0252895,17.272002 C23.9065166,15.0980232 24.381453,13.0447884 24.5595559,10.9311601 C24.381453,10.5386162 24.084623,10.2064945 23.6987539,10.0253138 C23.2238669,9.96491299 22.8676575,10.1460902 22.6302211,10.5386162 C22.066249,12.7126237 22.184962,15.2187888 21.9475255,17.5739628 C21.9475255,17.906088 22.2443555,18.2080416 22.5411678,18.328818 L22.5411678,18.5099952 C19.1277183,20.5632012 14.8238001,20.8651548 10.6386406,20.5028471 C8.29372046,20.1404928 6.06755207,19.5970043 4.16789454,18.1476875 L4.13822777,17.9665103 L5.44424298,14.0411965 L5.59264386,14.0411965 L7.49230139,18.8421276 C7.96722018,19.2648863 8.44215662,19.6271975 9.15452598,19.4762495 C9.33263244,19.325244 9.6294483,19.1440668 9.65912213,18.9025319 C9.80750537,15.7622809 10.1933886,12.7730388 11.2025738,10.0253245 C11.172907,9.72338889 10.9057579,9.45162135 10.6386441,9.30065892 C9.9262289,9.02889138 9.42163628,9.60261249 8.97641953,9.99515644 C8.59053633,11.4444769 8.20467076,12.8636256 8.02661017,14.4035472 L7.87816696,14.4035472 C7.37357434,13.1051569 6.75025467,11.8973821 6.54249203,10.4782333 C6.18628265,10.0857504 5.65201621,10.0555177 5.20679946,10.0857504 C4.85059361,10.1762798 4.49443009,10.4782333 4.34600099,10.8405913 C3.69300749,12.56169 3.30714193,14.4035508 2.59477256,16.0944276 L2.41666963,16.0944276 C1.91207701,15.0376368 1.70430026,13.4675292 2.20889288,12.3503268 C4.5241145,8.2740577 9.27324245,7.73052261 13.6068487,7.45880531 C15.7142688,7.45880531 17.9404372,7.51916301 19.8400983,8.1834745 C22.2146852,8.63637255 24.9157371,9.66297737 25.8655853,12.1993393 C26.2514685,14.1016044 25.7468582,16.0340556 24.1736868,17.2720272 L24.1736763,17.272002 Z M20.9977197,9.96491658 C19.4838748,9.84414018 18.3559766,10.9613533 17.1390076,11.8067774 L16.8718973,11.8067774 C16.9312449,11.0821118 16.9312449,10.3272745 17.079674,9.72338531 C16.9015711,9.39124571 16.456312,9.08930649 16.0110953,9.05912047 C15.5955524,9.14966419 15.180013,9.42143174 15.0612859,9.84414377 L14.7050801,13.3165165 L14.2301472,13.7694612 C14.1411116,14.1015865 14.4082501,14.2827636 14.5566933,14.5243021 L13.9927107,18.4496159 L14.0817604,19.0836948 C14.2301472,19.446006 14.6160268,19.6875875 15.00191,19.7177736 C15.4471233,19.6573692 15.9517159,19.41582 16.1001485,18.9327036 L16.396975,16.0642201 L16.4860282,15.913272 C17.0499543,16.2152112 17.5842666,16.5775225 18.1185331,16.9700628 C19.0980586,17.4531792 19.6323251,18.8119236 20.90867,18.5703923 C21.0867306,18.479802 21.3835464,18.3590292 21.4429399,18.0872616 C21.5616494,17.63436 21.4132732,17.2116013 21.2054999,16.84929 C19.9588112,15.8830393 18.6825051,14.8262521 17.4358411,13.9505846 C18.2669234,13.2259154 19.2167786,12.6522588 20.1369283,12.0483445 C20.582145,11.353865 22.4818096,12.0483445 21.7694332,10.5990241 C21.5913302,10.2970705 21.2945003,10.055489 20.9977267,9.96489864 L20.9977197,9.96491658 Z M12.6570358,9.51201853 C12.3602058,9.60260531 12.0633758,9.81396851 11.9743226,10.085736 C11.4994038,12.8032141 11.1729141,15.5509248 10.6683038,18.2684424 L10.7573571,18.9025176 C10.9057579,19.2648719 11.3213009,19.41582 11.6181132,19.6271832 C11.9743226,19.657362 12.4789293,19.5970043 12.6570322,19.1742851 L13.9333278,10.1460866 C13.6364978,9.75354262 13.2209584,9.39123136 12.6570322,9.51200776 L12.6570358,9.51201853 Z" id="path2979" fill="#C20437"></path>
    </g>
</svg>