<?xml version="1.0" encoding="UTF-8"?>
<svg width="28px" height="28px" viewBox="0 0 28 28" version="1.1" xmlns="http://www.w3.org/2000/svg" xmlns:xlink="http://www.w3.org/1999/xlink">
    <title>HK</title>
    <g id="HK" stroke="none" stroke-width="1" fill="none" fill-rule="evenodd">
        <path d="M27.982752,3.00017384 L27.9993963,3.00460587 C28.0315256,3.03687655 26.7771335,3.91002172 25.2118576,4.94492847 C16.6015047,10.6377973 14.2931389,13.2934293 10.9050156,21.4040605 C10.3939009,22.6275919 9.78049245,23.9366935 9.54188654,24.3131744 C9.10488764,25.0026876 8.70012866,25.2386505 8.85119367,24.7158277 C9.11678458,23.7966459 9.32929227,22.7268765 9.97900572,19.0384159 C10.8175933,14.2777032 11.2844573,12.5312347 12.181383,10.7996688 C13.533101,8.19009371 14.9097417,7.31062155 21.138912,5.07711214 C23.3185169,4.29560071 27.9051989,2.90999495 27.9993963,3.00460587 Z M4.27755672,12.6493009 C5.08566193,12.5531729 5.11396347,12.5644604 5.80423139,13.2581707 C6.82304346,14.2820628 7.25517391,15.7857083 7.83571223,20.3269065 C8.09050946,22.3200404 8.34662643,24.1863386 8.40486035,24.4742357 C8.46309426,24.7621328 8.46730205,24.997685 8.41421241,24.997685 C8.22188414,24.997685 7.85357769,24.2466093 7.42696195,22.9844184 C5.63085901,17.6704457 4.07990779,15.6893497 1.17437302,14.9977169 C-0.18195843,14.6748565 -0.146894606,14.6957384 0.212226559,14.4247127 C0.981275033,13.8443178 3.50800793,12.7408425 4.27755672,12.6493009 Z" id="Combined-Shape" fill="#003B79" fill-rule="nonzero"></path>
    </g>
</svg>