<?xml version="1.0" encoding="UTF-8"?>
<svg width="28px" height="28px" viewBox="0 0 28 28" version="1.1" xmlns="http://www.w3.org/2000/svg" xmlns:xlink="http://www.w3.org/1999/xlink">
    <title>HU</title>
    <g id="HU" stroke="none" stroke-width="1" fill="none" fill-rule="evenodd">
        <path d="M23.8230564,19.4334058 C24.5220343,19.6561431 25.1743454,20.0456792 25.6610146,20.5959115 C26.1379401,21.1263112 26.4620443,21.7929975 26.5635833,22.4978239 C26.703584,23.4452203 26.4333262,24.4465212 25.8235795,25.1915216 C24.8661387,26.387082 23.0779243,26.8289969 21.6620196,26.2421502 C21.0671448,25.9939862 20.5332959,25.548003 20.292269,24.9428491 C20.0112419,24.2705689 20.097909,23.4548824 20.5368856,22.8675271 C20.7768869,22.5288444 21.1307348,22.2867828 21.5117624,22.1291376 C21.0902218,22.414933 20.8794515,22.9865238 21.0558626,23.4691213 C21.214325,23.9298519 21.6933018,24.2619238 22.1861249,24.2298862 C22.6779223,24.2100535 23.12254,23.8357734 23.2379252,23.3638551 C23.3548488,22.9077012 23.1845916,22.4164586 22.8722823,22.0726905 C22.464075,21.6155196 21.8486872,21.3993932 21.2517611,21.3246389 C20.3604745,21.2224238 19.4486749,21.3973591 18.630722,21.7507893 C17.75482,22.1215097 16.9609698,22.6625885 16.2414789,23.2774045 C15.4496799,23.9618895 14.7301891,24.7328251 14.138904,25.5963136 C14.6342911,23.8703536 15.6753221,22.3193289 17.0286624,21.1359733 C18.042001,20.2551946 19.2538021,19.5727437 20.576373,19.2788118 C21.6461221,19.0372588 22.7840767,19.0779414 23.8230564,19.4334058 Z M8.92503098,19.8051432 C10.3645256,20.4875941 11.5911985,21.5743285 12.5071007,22.8639674 C13.0968473,23.6949098 13.555824,24.6204394 13.8358255,25.5988563 C13.3086433,24.824361 12.6717169,24.1251285 11.9778672,23.4930224 C11.0486317,22.6559775 9.98606208,21.931827 8.78503026,21.5412738 C7.93271818,21.2793795 6.99732875,21.1903863 6.13322174,21.4477038 C5.67527066,21.5855162 5.23783251,21.8438508 4.96654906,22.243049 C4.72859912,22.5837659 4.62706014,23.0317832 4.75629157,23.4319984 C4.89629229,23.8739134 5.32603809,24.2125961 5.79527128,24.2283606 C6.33988947,24.2598897 6.86091779,23.8469611 6.95989266,23.3175786 C7.05117518,22.8675271 6.83937922,22.3849296 6.46040291,22.126595 C6.91373857,22.3101753 7.31886886,22.6244485 7.56040857,23.052633 C7.93887206,23.6974525 7.93528229,24.5375485 7.56451115,25.1833851 C7.2732276,25.7066652 6.75578904,26.0733173 6.20091439,26.2848669 C5.4434746,26.5757476 4.59013687,26.5498124 3.82141497,26.3148703 C3.03833401,26.0743344 2.3470484,25.5510542 1.91268719,24.8609753 C1.40396663,24.0605449 1.24294016,23.0500904 1.48242857,22.1347315 C1.67832701,21.3612533 2.14294479,20.6640549 2.76602492,20.1641673 C3.39269481,19.654109 4.17628859,19.3728904 4.96398495,19.2218562 C6.30347902,18.9711496 7.70451188,19.2259244 8.92503098,19.8051432 Z M12.5809472,1.5 C10.2465762,1.70341308 7.90861549,2.34111309 5.93629765,3.6256667 C4.7014195,4.43525076 3.60090101,5.535207 3.05166741,6.91892449 C2.60551127,8.02549165 2.58551117,9.29377221 3.01064156,10.409493 C3.51320825,11.7565961 4.54603408,12.8463817 5.71886063,13.6590169 C6.70450673,14.3455361 7.81117909,14.8408469 8.94810802,15.2252977 C10.1111909,15.6097484 11.2968381,15.976909 12.3465871,16.6196943 C13.0188982,17.0290632 13.6353116,17.5675993 14.0004417,18.2714086 C14.2696739,17.7491455 14.6835222,17.3107903 15.1522425,16.9593942 C16.2573764,16.1350627 17.589691,15.7038269 18.8876464,15.2807277 C20.2871407,14.8210142 21.6502247,14.1939933 22.8025383,13.270498 C23.8543386,12.4339617 24.7430611,11.3334969 25.1138323,10.0326702 C25.4384493,8.93017133 25.3276795,7.72037203 24.8487027,6.67940558 C24.238956,5.34043898 23.1256169,4.28879335 21.8886874,3.51175537 C19.9450877,2.30144754 17.6722555,1.6896827 15.3989105,1.50101707 C17.6045628,1.63730383 19.7989331,2.10057712 21.8358667,2.95999739 C23.1389503,3.51429804 24.3794695,4.23743154 25.4399878,5.17567438 C26.3164025,5.95525501 27.0712782,6.89349785 27.5287165,7.97667251 C27.8835901,8.80202109 28.0471807,9.70822637 27.988206,10.6047695 C27.9292314,11.7133708 27.5466653,12.7975625 26.9235852,13.7174982 C26.0861449,14.9639119 24.8753695,15.9189363 23.5769013,16.6598684 C22.786128,17.1104284 21.9548416,17.4862341 21.1025296,17.8066097 C19.8594462,18.2805621 18.6291835,18.8211324 17.5368702,19.5864741 C16.4681467,20.3248636 15.5368599,21.2742942 14.8937796,22.4022197 C14.4712134,23.1334897 14.1789042,23.9339202 13.9994161,24.7572347 C13.6706964,23.2733362 12.9347952,21.8779225 11.8655589,20.7861028 C10.5593984,19.4262863 8.84195363,18.5495759 7.0937395,17.8833981 C5.83065608,17.4119883 4.5973164,16.839889 3.4855158,16.0740387 C2.28243269,15.2497072 1.20909383,14.180263 0.584475228,12.8540097 C-0.0498870113,11.514026 -0.187323616,9.93503195 0.268063343,8.5208025 C0.733193942,7.05266859 1.74704531,5.81439146 2.93782067,4.85377318 C4.63423966,3.49802499 6.67681428,2.62233168 8.77733791,2.08888087 C10.0229853,1.77409913 11.2988893,1.58441643 12.5809472,1.5 Z M12.0660728,1.90682616 C10.5317059,2.0939662 9.02195455,2.5775808 7.69681953,3.37394301 C6.67373734,4.0019809 5.74193767,4.85834997 5.25167874,5.96695127 C4.82962528,6.89960024 4.81783035,8.00006501 5.20962724,8.94390171 C5.62398835,9.96350978 6.43937716,10.7710597 7.3506639,11.3716368 C8.68349127,12.2437704 10.2281146,12.7472178 11.7860713,13.046235 C12.5660754,13.1911669 13.396336,13.3569485 13.9978776,13.9102321 C14.6183936,13.3391499 15.4794237,13.1820133 16.2819919,13.0319961 C17.5425112,12.7879004 18.7835433,12.4014156 19.9199594,11.8003299 C20.9594519,11.2470463 21.9322774,10.4908582 22.5302292,9.46514773 C23.070232,8.5533486 23.2271559,7.41881213 22.9081799,6.40479792 C22.5907423,5.36281442 21.8486872,4.50085148 20.9917598,3.84535283 C19.7107275,2.87507243 18.1635401,2.30195607 16.5901986,2.00090471 C16.368659,1.95361117 16.142504,1.93123573 15.9173747,1.90936883 C16.429685,1.9307272 16.9322517,2.04057026 17.4322543,2.14583653 C19.0896987,2.51808247 20.7122711,3.17307259 22.0497139,4.22980355 C22.9517698,4.94785173 23.7215174,5.88253484 24.0599807,6.99367879 C24.4004952,8.08651557 24.2589561,9.31157086 23.6886967,10.3047352 C23.0799756,11.3802819 22.0861244,12.1817294 21.0261189,12.7955284 C20.1409861,13.3066038 19.1917505,13.698174 18.2214891,14.0160069 C17.2476379,14.3409593 16.2337865,14.5464065 15.2850637,14.9466217 C14.773779,15.1622396 14.2835201,15.4841408 13.9978776,15.9697895 C13.7086453,15.4790555 13.2122325,15.1561372 12.6953068,14.9405194 C11.6327372,14.4970788 10.4927314,14.2870548 9.4127258,13.893959 C7.93169253,13.3701704 6.47373631,12.671955 5.32244833,11.5887803 C4.53936738,10.8519164 3.93936429,9.88519575 3.79372252,8.81168321 C3.64654227,7.8225871 3.88449221,6.79636811 4.40398207,5.94508436 C4.91885651,5.08668116 5.66809114,4.38643162 6.49578771,3.82653712 C7.80194827,2.95186087 9.30503293,2.40111995 10.8414511,2.08786381 C11.2465814,2.00954977 11.6527373,1.92971013 12.0660728,1.90682616 Z M16.5778909,2.30348167 C17.4696903,2.47638279 18.3358486,2.78607921 19.1404682,3.20409309 C20.1189347,3.72330498 21.0302215,4.44948968 21.5645832,5.43197486 C21.9809956,6.18765446 22.1030475,7.10453892 21.8579181,7.93395576 C21.5907372,8.86253648 20.9322723,9.63042086 20.173294,10.2096396 C19.1712376,10.9683704 17.984052,11.4636813 16.7604559,11.740323 C16.0819909,11.8974597 15.3819873,11.9401764 14.7040351,12.1044325 C14.4368542,12.1644393 14.1891606,12.298692 14.0014674,12.4970197 C13.576337,12.0408659 12.9060771,12.0357805 12.3327408,11.9294972 C10.8845282,11.7484596 9.45529012,11.2978996 8.23271972,10.4949265 C7.41476679,9.95486473 6.67527581,9.23885068 6.28706868,8.32959421 C5.93424635,7.51899308 5.93373353,6.57007105 6.28347892,5.75794433 C6.68707074,4.80139431 7.4747671,4.05283417 8.34605364,3.50311032 C9.28298154,2.92084037 10.3332434,2.52113367 11.415813,2.3070414 C10.42709,2.54859443 9.47118764,2.95186087 8.64400389,3.54684413 C7.93733359,4.06249629 7.32245863,4.75155811 7.04963671,5.59165413 C6.79373796,6.35547025 6.88091789,7.21438199 7.25835573,7.92429364 C7.77784559,8.91694948 8.71528631,9.62533554 9.71016322,10.1084416 C11.3758128,10.9032782 13.2742841,11.1468654 15.10455,10.9719301 C16.6404553,10.8137765 18.1820017,10.3479605 19.428162,9.41937979 C20.2143199,8.83049892 20.88099,8.00311621 21.0527857,7.01910543 C21.2127865,6.17087288 20.9486826,5.28348331 20.434321,4.60001536 C19.7302148,3.6505848 18.6732863,3.02152985 17.5773832,2.60961836 C17.2507149,2.48655344 16.9163542,2.38688103 16.5778909,2.30348167 Z M15.5968602,3.54887826 C16.2060941,4.00401503 16.6009679,4.72664 16.6517374,5.48181107 C16.705071,6.14951451 16.4927622,6.83552512 16.067119,7.35727968 C15.6107064,7.92683631 14.9086515,8.29653958 14.1753144,8.34027339 C13.4819775,8.3901096 12.77582,8.1505907 12.2553045,7.69443686 C11.6906862,7.20878813 11.349146,6.48158636 11.3378639,5.74065421 C11.317351,5.03735348 11.5922242,4.33201863 12.0855601,3.82653712 C12.5112033,3.38207954 13.0988986,3.09323296 13.7142864,3.02966637 C14.3783924,2.9569462 15.0676267,3.1451033 15.5968602,3.54887826 Z" id="Combined-Shape" fill="#E60012" fill-rule="nonzero"></path>
    </g>
</svg>