<?xml version="1.0" encoding="UTF-8"?>
<svg width="28px" height="28px" viewBox="0 0 28 28" version="1.1" xmlns="http://www.w3.org/2000/svg" xmlns:xlink="http://www.w3.org/1999/xlink">
    <title>HX</title>
    <g id="HX" stroke="none" stroke-width="1" fill="none" fill-rule="evenodd">
        <path d="M19.7390508,18.959064 C20.5940077,19.4409271 21.2347444,20.2358724 21.6708814,21.1055451 C22.1564046,22.0531663 22.3789628,23.1051482 22.7875206,24.0824027 C23.0363753,24.6712033 23.348085,25.2754648 23.8829943,25.6503904 C24.442276,26.0266044 25.1176471,26.1548006 25.7692872,26.2604497 C24.3351658,26.9271988 22.6996518,27.1346318 21.1385377,26.9098053 C19.885285,26.7313614 18.6814184,26.178636 17.7559098,25.3070307 C16.9920286,24.5958317 16.4507055,23.6778438 16.0710097,22.7115407 C15.8522998,22.1820067 15.7291552,21.6015807 15.3770387,21.1364668 C15.1313909,20.7931071 14.7452813,20.5611944 14.3290269,20.4974184 C14.3380062,20.4684293 14.3533993,20.4117395 14.3623786,20.3827504 C15.2429907,19.7623839 16.3532161,19.4840886 17.4223933,19.6174384 C17.7212754,19.663821 18.0451713,19.7668933 18.2247572,20.0303719 C18.3774052,20.2455354 18.3260949,20.5888951 18.0894264,20.7222449 C17.834158,20.8858722 17.4159795,20.7351289 17.3922485,20.4117395 C17.3698003,20.2403818 17.5012828,20.1160508 17.6148067,20.0116901 C17.4377863,20.0947921 17.2357522,20.1650102 17.1292835,20.3440983 C16.8868426,20.6951884 16.997801,21.2047522 17.31849,21.4662982 C17.8367235,21.905644 18.6852666,21.8096579 19.1297416,21.3091129 C19.4895547,20.9251685 19.5299615,20.295139 19.2471138,19.8557932 C18.9879971,19.4480133 18.5383911,19.1987071 18.0772402,19.0917696 C17.4005864,18.9397379 16.6880154,19.026061 16.0357339,19.2450897 C15.3552318,19.4802234 14.7100055,19.874475 14.2725857,20.4581221 C14.176379,20.499351 14.0673447,20.4594105 13.9666483,20.4684293 C13.4464907,20.4632757 12.9288987,20.7164471 12.6236027,21.1416204 C12.2714862,21.6086669 12.1502657,22.1923139 11.9289903,22.7231364 C11.5499359,23.6868626 11.00733,24.6042063 10.2447315,25.3128285 C9.28715411,26.2159997 8.03005314,26.7713019 6.72997984,26.9323524 C5.21055525,27.122392 3.62506872,26.9162473 2.23456111,26.2604497 C2.97150449,26.1457817 3.76104086,25.9937501 4.33635697,25.4816094 C4.93861096,24.9076254 5.22594832,24.0997961 5.49853399,23.3338399 C5.81858164,22.3791325 6.10271211,21.392215 6.6581455,20.5405799 C7.17766172,19.7095593 7.94154297,19.0112443 8.87025838,18.6814129 C10.6731721,18.0384993 12.890416,18.6678847 14.0044896,20.25391 C15.2417079,18.4823545 17.8662269,17.9025727 19.7390508,18.959064 Z M9.59116731,19.1974187 C9.23071285,19.3423642 8.89591351,19.5871609 8.71055525,19.9356742 C8.47260399,20.3795294 8.54572109,20.9786373 8.90361004,21.3374578 C9.30382994,21.7574776 9.98625618,21.8682803 10.4974345,21.596427 C10.8963716,21.3960802 11.1317574,20.8832954 10.9412681,20.4600547 C10.8521165,20.2210557 10.6167308,20.1012342 10.3967381,20.0123343 C10.523731,20.1282906 10.6609859,20.2816107 10.6032619,20.4690735 C10.5295034,20.7776463 10.1094008,20.882007 9.87337365,20.6945442 C9.64183617,20.5257633 9.64055342,20.1572797 9.83360821,19.9582213 C10.1113249,19.6599558 10.542331,19.6019776 10.9271578,19.5884493 C11.8866593,19.5594603 12.8884918,19.8113432 13.650449,20.4123837 C13.6703317,20.3962787 13.6902144,20.378241 13.7113799,20.362136 C13.5285871,20.237805 13.3958219,20.0587168 13.2226498,19.9240786 C12.6742716,19.4834444 12.006597,19.2006397 11.3190398,19.0763087 C10.7456478,18.9771016 10.1376214,18.9822552 9.59116731,19.1974187 Z M4.12341946,9.3797799 C5.00852117,9.51055291 5.87887117,9.90931397 6.46124244,10.607629 C6.87108301,11.0875595 7.14495144,11.6679855 7.34057174,12.265805 C7.52593,12.8249723 7.6105919,13.4144172 7.83763973,13.9607005 C8.14999084,14.7646646 8.68682426,15.4803731 9.3840022,15.98736 C10.1966282,16.5935541 11.1676745,16.9137226 12.0976727,17.2873597 C12.8371816,17.6055955 13.5837456,18.0526717 13.9980759,18.770957 C14.2802822,18.2813634 14.7305296,17.9167451 15.2102804,17.6332962 C15.8522998,17.2506402 16.577057,17.0509376 17.255635,16.7475184 C18.1247022,16.3777465 18.9610592,15.856587 19.5357339,15.0867656 C20.0135606,14.4638223 20.3002566,13.7146153 20.4702217,12.9531685 C20.7062489,11.9578764 21.1026205,10.942614 21.8895914,10.2552505 C22.7407,9.5060435 23.921477,9.27348657 25.0246472,9.3147155 C26.0752245,9.35980964 27.095657,9.70961134 28,10.241078 C27.5253802,10.2926142 27.0546088,10.4633277 26.6922302,10.7828519 C26.2131208,11.1758151 25.9578523,11.7710578 25.8007147,12.3572816 C25.575591,13.2391942 25.3395639,14.1275488 24.9329302,14.9456854 C24.4704966,15.8752689 23.7220084,16.6708584 22.7868792,17.1275976 C21.4034268,17.8156054 19.819223,17.935427 18.2985157,17.8697184 C17.1998351,17.8091634 16.0536925,17.9367154 15.0743082,18.4739798 C14.6663918,18.6942969 14.2995235,18.9899857 14.0012828,19.3462294 C13.2604911,18.4604516 12.1207623,18.0127312 10.9964266,17.8993516 C10.2434488,17.8052981 9.48662269,17.9070821 8.73172073,17.884535 C7.40342679,17.8542575 6.03408466,17.632652 4.87703867,16.9420674 C4.15933663,16.5168941 3.58081363,15.8778457 3.17546271,15.1505416 C2.79448415,14.4554476 2.55653289,13.6927124 2.34936778,12.9312657 C2.18902327,12.2999477 2.03894081,11.637708 1.62910024,11.1146159 C1.24042514,10.6037637 0.629191864,10.2997004 2.73558953e-13,10.2391454 C1.23016309,9.51055291 2.70084295,9.13949255 4.12341946,9.3797799 Z M10.2819315,9.21615259 C9.61361554,9.96471534 9.08768554,10.92973 9.15631299,11.9643184 C9.19223016,12.8230397 9.63157412,13.6289364 10.2787246,14.1797292 C11.0374748,14.8503435 12.0027488,15.2065872 12.9455745,15.5273998 C13.3194979,15.662038 13.7107385,15.7979646 14.0012828,16.0833461 C14.4201026,15.6832967 15.0063222,15.5634751 15.530328,15.3599073 C16.5943742,14.9888469 17.6789445,14.4522266 18.3325087,13.4930098 C18.8321422,12.7579753 18.982866,11.7942491 18.7256734,10.9432582 C18.5383911,10.2964794 18.1721642,9.71283235 17.710372,9.22774823 C18.5659703,9.7940018 19.2374931,10.6656071 19.4876306,11.6724949 C19.7133956,12.5660031 19.4850651,13.550988 18.9187282,14.2718501 C18.1182884,15.3012849 16.8900495,15.8495008 15.7022173,16.2940002 C15.0839289,16.5458832 14.3719993,16.7623351 13.9993586,17.3620872 C13.6703317,16.8261111 13.0546088,16.5967752 12.5023823,16.3745255 C11.4838739,15.9892926 10.4442001,15.5782918 9.61938794,14.8445457 C9.00174088,14.309858 8.5367418,13.5664488 8.44951439,12.7418703 C8.32444567,11.781365 8.72210005,10.8240808 9.32307128,10.0941999 C9.59501558,9.75341708 9.93815283,9.48027542 10.2819315,9.21615259 Z M14.0064138,1 C14.2559098,2.38310174 14.5849368,3.75782886 15.075591,5.0765104 C15.5142936,6.26055371 16.166575,7.34474572 16.7431739,8.46114782 C17.271028,9.47898701 17.6924134,10.6153594 17.552593,11.781365 C17.4672897,12.8475194 16.8259117,13.8408789 15.8914239,14.3543079 C15.2917354,14.7208589 14.5637713,14.8342384 14.0070552,15.2742284 C13.7408833,15.0461809 13.4099322,14.9205615 13.0886018,14.7936537 C12.469672,14.5559432 11.8475353,14.2712059 11.3812534,13.7867659 C10.6667583,13.0839415 10.3755727,12.0422669 10.4454829,11.057282 C10.5109034,9.89514152 11.0605644,8.84187121 11.5999633,7.83691606 C12.1079348,6.8950927 12.627451,5.95326935 12.9891882,4.94316058 C13.4496976,3.66377536 13.7697453,2.3373634 14.0064138,1 Z M13.6049111,12.1401856 C13.1142569,12.3366672 12.8435954,12.9389961 13.0270295,13.4388968 C13.1892981,13.949749 13.7825728,14.2615428 14.2931098,14.1004923 C14.8491845,13.9574795 15.191039,13.3016818 14.9883636,12.7605521 C14.812626,12.2065384 14.134048,11.8986098 13.6049111,12.1401856 Z" id="Combined-Shape" fill="#E60012" fill-rule="nonzero"></path>
    </g>
</svg>