<?xml version="1.0" encoding="UTF-8"?>
<svg width="28px" height="28px" viewBox="0 0 28 28" version="1.1" xmlns="http://www.w3.org/2000/svg" xmlns:xlink="http://www.w3.org/1999/xlink">
    <title>HY</title>
    <g id="HY" stroke="none" stroke-width="1" fill="none" fill-rule="evenodd">
        <circle id="Oval" fill="#FCDD53" fill-rule="nonzero" cx="14" cy="14" r="13.3877551"></circle>
        <path d="M14,-8.8817842e-15 C6.2680135,-8.8817842e-15 5.32907052e-15,6.2680135 5.32907052e-15,14 C5.32907052e-15,21.7319865 6.2680135,28 14,28 C21.7319865,28 28,21.7319865 28,14 C28,6.2680135 21.7319865,-8.8817842e-15 14,-8.8817842e-15 Z M14,1.2244898 C21.0557195,1.2244898 26.7755102,6.94428054 26.7755102,14 C26.7755102,21.0557195 21.0557195,26.7755102 14,26.7755102 C6.94428054,26.7755102 1.2244898,21.0557195 1.2244898,14 C1.2244898,6.94428054 6.94428054,1.2244898 14,1.2244898 Z" id="Oval" fill="#E42A2B" fill-rule="nonzero"></path>
        <path d="M23.0204082,17.1428571 C22.5714286,17.6734694 22.1632653,17.9591837 21.4285714,18.0816327 C18.7346939,18.0816327 16.0408163,18.0816327 13.3469388,18.0816327 C12.9387755,17.877551 12.8979592,17.5918367 13.3469388,17.3877551 C14.8571429,17.3877551 16.4081633,17.3877551 17.9183673,17.3877551 C18.3265306,17.3877551 18.6938776,17.2653061 18.9795918,16.8979592 C20.3265306,15.1020408 21.877551,13.3877551 23.0612245,11.4285714 C22.5306122,11.9183673 22.2040816,12.2040816 21.4285714,12.3265306 C19.5510204,12.3265306 17.6734694,12.3265306 15.8367347,12.3265306 C15.2653061,12.3265306 14.8163265,12.5306122 14.4489796,13.0204082 C13.3469388,14.4489796 12.2040816,15.8367347 11.1020408,17.2653061 C8.20408163,20.7346939 6.20408163,13.1020408 10.122449,14.3265306 C9.59183673,13.6326531 9.02040816,12.9795918 8.48979592,12.2857143 C8.08163265,11.877551 7.46938776,11.8367347 7.06122449,12.2857143 C4.6122449,15.3877551 4.57142857,20.1632653 9.67346939,20.6122449 L20.5306122,20.6122449 C21.3469388,19.4285714 22.2040816,18.2857143 23.0204082,17.1428571 Z M21.3469388,7.42857143 C20.9795918,7.71428571 20.7346939,7.83673469 20.1632653,7.83673469 L15.2244898,7.83673469 C14.7346939,7.83673469 14.122449,8.04081633 13.7959184,8.44897959 L10.6530612,12.4489796 L11.5510204,13.5918367 C11.9183673,13.1428571 12.2857143,12.6938776 12.6530612,12.244898 C13.0204082,11.8367347 13.4285714,11.6734694 14,11.6734694 L17.0612245,11.6734694 C18.6122449,11.6734694 20.6122449,8.32653061 21.3469388,7.42857143 Z" id="Shape" fill="#478C3E" fill-rule="nonzero"></path>
    </g>
</svg>