<?xml version="1.0" encoding="UTF-8"?>
<svg width="28px" height="28px" viewBox="0 0 28 28" version="1.1" xmlns="http://www.w3.org/2000/svg" xmlns:xlink="http://www.w3.org/1999/xlink">
    <title>I8</title>
    <g id="I8" stroke="none" stroke-width="1" fill="none" fill-rule="evenodd">
        <path d="M18.6358323,2.2443362 C18.4761912,2.50436754 18.2927232,2.77365139 17.5696141,3.8093564 C16.7812956,4.93841021 16.448402,5.29453591 16.0334557,5.45259741 C15.8638183,5.51720027 15.8541505,5.50962254 15.7693044,5.24500613 C15.6422544,4.84890518 15.5754565,4.22618628 15.5746623,3.43101918 C15.574361,3.14468544 15.5655697,3.02926239 15.5455221,3.04935983 C15.529747,3.06517422 15.3936317,3.38579992 15.2430832,3.76183087 C15.0925348,4.13783438 14.9335784,4.53198598 14.8898408,4.63768978 C14.7861248,4.88844115 14.5663136,5.41130429 14.5204945,5.51626678 C14.5007208,5.56156841 14.4576952,5.66040832 14.4248852,5.73591103 C14.2224924,6.20174903 14.1759065,6.3025932 13.9430315,6.77922123 C13.3574071,7.97773754 12.7527211,8.82776079 12.23499,9.1802349 C11.5024596,9.67890971 10.5959099,9.61246733 9.35216661,8.96893713 C8.33907991,8.44472867 7.48322418,7.7442557 6.39164524,6.54584921 C5.68433867,5.76932442 5.2197391,5.13359159 4.71318206,4.24911164 C4.4703929,3.82519824 4.00409531,2.89950754 3.8471656,2.52995609 C3.79734795,2.41261115 3.7442712,2.31635206 3.72920814,2.31599514 C3.68560743,2.31503419 3.63600888,2.70509493 3.61724852,3.19627438 C3.55464096,4.83602854 4.16622862,6.69375216 5.32556395,8.38536981 C5.91565251,9.24634782 7.01651578,10.33474 7.9301315,10.9604241 C8.84563696,11.5873986 9.79748547,11.9932737 11.5483061,12.5032328 C11.6612791,12.5361245 11.8214953,12.5846659 11.9043421,12.6110781 L12.0549727,12.6591253 L12.0757871,13.0138507 C12.1155262,13.6904923 12.1698354,14.3988999 12.1830361,14.412106 C12.2086707,14.4378044 12.4781352,14.3409962 12.646458,14.2456157 C12.7968695,14.1603937 12.9831859,14.0199312 13.6202712,13.5114822 C13.7129501,13.437517 13.8526532,13.2980704 13.9307072,13.2016466 C14.2332283,12.8278395 14.2516326,12.821662 15.7248821,12.5982289 C16.3842334,12.4982359 16.9813057,12.3755371 17.5187557,12.2295835 C19.1601638,11.7838429 20.5953722,11.0804597 22.2700833,9.90107987 C22.7922238,9.53334049 23.0967989,9.29055122 23.5057199,8.91600286 C23.6849155,8.75184624 23.9547908,8.51155543 24.1054214,8.38196532 C25.1100728,7.51777502 26.7836884,5.36797946 27.5827427,3.91525238 C27.7429315,3.62403156 28.0167506,3.03104699 27.9991953,3.013448 C27.9748753,2.98906749 27.6885128,3.2353436 27.323439,3.59465414 C27.1050246,3.80963095 26.7476192,4.1250401 26.5292049,4.2955664 C26.3107905,4.46609271 25.8979257,4.80464687 25.6117275,5.04793033 C24.7400693,5.78881784 24.5888635,5.9117088 24.0912348,6.28348415 C21.990376,7.85306197 20.0368887,8.87616489 18.4702208,9.22734859 C18.1693978,9.29477938 18.0801149,9.30263166 17.6009179,9.30381225 C17.121803,9.30499283 17.0443241,9.29859569 16.8477648,9.24162547 C16.5163227,9.14555856 16.2981822,9.02914711 16.2543076,8.92495337 C16.0582139,8.45933501 16.6027847,6.88355224 18.0283801,3.79120829 C18.1246468,3.58232661 18.2034403,3.40748979 18.2034403,3.40268507 C18.2034403,3.39785289 18.2534497,3.28638344 18.3146057,3.15495381 C18.5479736,2.65323143 18.8155483,2.01615328 18.7995815,2.0001467 C18.7948982,1.99542435 18.7211988,2.10530139 18.6358323,2.2443362" id="Path" fill="#0D54A0"></path>
        <path d="M15.5465628,13.6380248 C15.1777643,13.7901284 14.8543467,14.0424448 14.0738063,14.786929 C13.9339389,14.9203354 13.7737227,15.052671 13.7177703,15.0810052 C13.5829422,15.1492596 13.1709812,15.2329166 12.6164141,15.304603 C10.5301254,15.5743536 8.93659046,16.1089128 7.19193197,17.1243007 C6.36538074,17.6053765 5.15477623,18.45529 4.56452334,18.9689555 C4.05443332,19.4128291 2.75013657,20.7545534 2.30109303,21.2973493 C1.75463257,21.957847 1.04294403,22.9693911 0.613865889,23.6954801 C0.306059087,24.216339 -0.0315451889,24.9003112 0.00236039185,24.9343012 C0.0162184079,24.9481937 0.0708288505,24.9015742 1.44137568,23.7055563 C2.90996934,22.4240145 3.53908493,21.9155929 4.53762893,21.2033415 C5.74869902,20.3394807 7.05647397,19.619679 8.0974958,19.2439501 C8.61958149,19.0555228 9.16894502,18.9136875 9.69965774,18.8302776 C10.1477153,18.7598542 10.8638406,18.76551 11.2846204,18.8427973 C11.46346,18.8756341 11.6329331,18.914923 11.6611969,18.9300785 C11.7055371,18.9538824 11.7125483,18.9906454 11.7120827,19.1969462 C11.7108776,19.7300777 11.5708459,20.3287456 11.2258745,21.2757418 C11.1259653,21.5499676 10.8986774,22.1279066 10.8371379,22.2641409 C10.823499,22.294342 10.7451437,22.4734893 10.6630363,22.6622461 C10.580929,22.8510029 10.4798969,23.0795702 10.4385146,23.1701734 C10.3462739,23.3720814 10.0552007,24.0026526 9.92519284,24.2821225 C9.72983863,24.7021372 9.39423364,25.4353097 9.31568662,25.6137157 C9.24338393,25.7779547 9.16379619,25.991696 9.17190286,25.9998229 C9.17647655,26.004408 9.23456519,25.9194056 9.30100698,25.8109288 C9.52018821,25.4530734 10.1800598,24.4707694 10.4465938,24.1056109 C11.0773253,23.2414755 11.5943443,22.7052689 11.9481345,22.548388 C12.0301871,22.5120095 12.083839,22.5017411 12.1011752,22.5191204 C12.1595104,22.5776007 12.2641302,22.9316672 12.3165496,23.2480922 C12.3563435,23.4882183 12.3766649,23.776721 12.3888797,24.2752586 C12.3982462,24.656561 12.4144595,24.9685108 12.4249215,24.9685108 C12.4624422,24.9685108 12.6684227,24.4822184 12.9307938,23.7741951 C13.7111973,21.6683833 14.5810206,20.0074335 15.3099906,19.2311284 C15.87921,18.6249377 16.16434,18.4779133 16.7656027,18.4804392 C17.241568,18.4824435 17.7018404,18.6033851 18.3711059,18.9023209 C19.3184902,19.325493 20.1472872,19.9121079 20.9848208,20.7522197 C22.0864235,21.8572225 22.7634944,22.843535 23.8469667,24.9216991 C24.0342964,25.2810371 24.21582,25.6084443 24.2503007,25.6492707 L24.3130452,25.7235379 L24.3007209,24.8449609 C24.28574,23.7761445 24.2258711,23.3091808 23.9914899,22.433569 C23.3943628,20.2026973 22.0036315,18.3305595 19.9288455,16.9646743 C18.8079346,16.2267519 18.1451326,15.9460191 16.3684856,15.4567341 C16.1651343,15.4007248 15.9802694,15.3452646 15.9576749,15.3335137 C15.9259055,15.316958 15.9125404,15.2317635 15.8987098,14.9580867 C15.8888777,14.7633721 15.8655985,14.3724053 15.8470024,14.0892565 C15.8082493,13.4992096 15.8243805,13.5234254 15.5465628,13.6380248" id="Path" fill="#E32024"></path>
    </g>
</svg>