<?xml version="1.0" encoding="UTF-8"?>
<svg width="28px" height="28px" viewBox="0 0 28 28" version="1.1" xmlns="http://www.w3.org/2000/svg" xmlns:xlink="http://www.w3.org/1999/xlink">
    <title>IA</title>
    <g id="IA" stroke="none" stroke-width="1" fill="none" fill-rule="evenodd">
        <path d="M9.70247234,8.88599794 C10.9816481,8.68120387 12.275058,8.59121123 13.5679935,8.54694457 C13.8659617,8.4982999 14.1682002,8.50754239 14.4690153,8.50219148 C15.0853541,8.50851528 15.7054886,8.47543691 16.3189806,8.54791747 C20.2404894,8.66806981 24.1601003,9.0917649 28,9.92796681 C27.396472,9.91337341 26.7953163,9.8404064 26.1917883,9.82338076 C23.578398,9.69933685 20.9493501,9.84235219 18.3705963,10.304963 C18.0123702,10.3638231 17.6655313,10.4766787 17.3163201,10.5739681 C16.3336892,10.8643767 15.3539051,11.1888367 14.4400725,11.6645816 C13.9916967,11.9097507 13.5376273,12.1865389 13.224476,12.6063424 C13.1324284,12.7425475 13.0138105,12.9055072 13.0679003,13.080628 C13.1457137,13.2737473 13.3497365,13.3622806 13.5271889,13.4333019 C14.088489,13.6337179 14.6867978,13.6833355 15.2746683,13.7402497 C17.1326996,13.9304504 18.9893074,14.1313529 20.8435429,14.3580371 C22.1288869,14.5229425 23.4170776,14.6776326 24.6896108,14.9310713 C24.9719214,15.0006332 25.2751089,15.0361438 25.5227831,15.2049408 C24.8727569,15.3221745 24.2118177,15.3713056 23.5565723,15.4525422 C20.5968177,15.773597 17.6280481,15.9963896 14.658804,16.1953463 C14.3722231,16.2259925 14.0709335,16.2658811 13.8232593,16.4288408 C13.651026,16.5392642 13.5494891,16.7776231 13.6353685,16.9760933 C13.7165031,17.1594837 13.8868385,17.2801225 14.054327,17.3744932 C14.4742345,17.6031231 14.9401657,17.7203568 15.4008778,17.8298073 C16.3759172,18.0453032 17.368512,18.1630233 18.3601579,18.261772 C19.6744446,18.3901939 20.993476,18.4617016 22.3120329,18.5259126 C22.1810787,18.6713601 21.9889177,18.7263286 21.8114653,18.7861616 C21.279108,18.9447432 20.7282463,19.0230611 20.1802315,19.0994332 C18.6462644,19.2954713 17.1023334,19.3956793 15.5593513,19.4837261 C14.4362768,19.5109672 13.3108298,19.5114536 12.1896531,19.4263254 C11.3991832,19.3591958 10.6025452,19.2667709 9.84528833,19.0138186 C9.49370478,18.8897747 9.13642757,18.7287608 8.87926389,18.4441895 C8.70750513,18.2535024 8.6173555,17.9888754 8.65009405,17.7300857 C8.69374545,17.3628185 8.8925491,17.0388449 9.10843373,16.7513549 C9.33997594,16.4517037 9.68349347,16.2829067 10.0184705,16.1355134 C7.40650365,16.0450343 4.79168997,15.9676893 2.1882636,15.7196014 C1.64878925,15.6636601 1.10836595,15.6038271 0.577906563,15.486107 C0.371511362,15.4321114 0.135224442,15.390277 0,15.2025086 C0.237710335,14.9899314 0.553234033,14.9218288 0.849778862,14.8435109 C1.53776287,14.6786055 2.23665972,14.5715872 2.9350821,14.4674876 C4.47047261,14.2451814 6.01345466,14.0822218 7.5550133,13.9163435 C6.7393964,13.5797223 5.91334113,13.2503979 5.16652263,12.7668699 C4.82774982,12.541645 4.48897701,12.2882063 4.26739871,11.9355324 C4.11699117,11.7039838 4.07476319,11.3921714 4.19670242,11.1382462 C4.34094183,10.8288661 4.61803331,10.6158025 4.89322692,10.4358172 C5.43934387,10.0943316 6.04287191,9.86570163 6.6487723,9.66285335 C7.6489587,9.33742049 8.67381763,9.09565647 9.70247234,8.88599794 Z" id="path3019" fill="#12470D" fill-rule="nonzero"></path>
    </g>
</svg>