<?xml version="1.0" encoding="UTF-8"?>
<svg width="28px" height="28px" viewBox="0 0 28 28" version="1.1" xmlns="http://www.w3.org/2000/svg" xmlns:xlink="http://www.w3.org/1999/xlink">
    <title>IG</title>
    <g id="IG" stroke="none" stroke-width="1" fill="none" fill-rule="evenodd">
        <path d="M3.58833252,6.41804198 C4.95937655,6.41804198 6.25904135,7.02953108 7.13368691,8.08728352 L7.13368691,8.08728352 L15.6742383,18.4068582 C16.4078698,19.2928383 16.3766806,20.5840315 15.6021381,21.4338539 L15.6021381,21.4338539 L13.6862954,23.5362423 L12.6852884,24.6268675 C12.467034,24.8651076 12.1593521,25 11.8377153,25 L11.8377153,25 L6.94508667,25 C6.57009569,25 6.37321555,24.5545521 6.62591523,24.2767529 L6.62591523,24.2767529 L9.29334465,21.34756 C10.0670732,20.4977376 10.0974483,19.2065444 9.36474714,18.3213797 L9.36474714,18.3213797 L0.10051877,7.12649522 C-0.133318557,6.84459564 0.0668875015,6.41804198 0.432831057,6.41804198 L0.432831057,6.41804198 Z M27.5673341,7.22357584 C27.9423251,7.22427476 28.1392285,7.6705614 27.8865055,7.94836062 L27.8865055,7.94836062 L23.3901956,12.8845853 C23.2129686,13.0779544 22.9061705,13.0704992 22.7387119,12.868277 L22.7387119,12.868277 L20.2550683,9.86346053 C20.1180778,9.69744265 20.1238924,9.45489252 20.2690232,9.29553772 L20.2690232,9.29553772 L20.7892147,8.72514538 C21.6622322,7.76848073 22.8954252,7.22357584 24.1893453,7.22357584 L24.1893453,7.22357584 L27.5673341,7.22357584 Z" id="Combined-Shape" fill="#5D0632" fill-rule="nonzero"></path>
        <path d="M18.7051692,18.0267364 L21.3873675,15.0819342 C21.5324983,14.9232783 21.5383128,14.6808447 21.4013224,14.5148268 L12.4259369,3.66926484 C11.5512913,2.6114891 10.2516265,2 8.88058246,2 L5.72412741,2 C5.35818385,2 5.1579778,2.42657696 5.39183838,2.70847654 L18.0545227,18.0111271 C18.2219813,18.2133493 18.5295935,18.2208045 18.7060065,18.0274353" id="path2686" fill="#3DBDAE" fill-rule="nonzero"></path>
    </g>
</svg>