<?xml version="1.0" encoding="UTF-8"?>
<svg width="28px" height="28px" viewBox="0 0 28 28" version="1.1" xmlns="http://www.w3.org/2000/svg" xmlns:xlink="http://www.w3.org/1999/xlink">
    <title>IQ</title>
    <g id="IQ" stroke="none" stroke-width="1" fill="none" fill-rule="evenodd">
        <path d="M21.1638712,17.8278372 C19.9857647,20.5730067 17.2217133,22.5 13.9997898,22.5 C10.7782867,22.5 8.01444553,20.5728 6.83612884,17.8278372 C7.11909303,17.8729009 7.42938659,17.9165177 7.76112321,17.9584808 C8.91463323,20.1978198 11.2716871,21.7366031 13.9997898,21.7363964 C16.7283129,21.7363964 19.085577,20.1978198 20.2388768,17.9584808 C20.5708236,17.9165177 20.880907,17.8729009 21.1638712,17.8278372 Z M13.9997898,15.8621883 C17.9114648,15.8621883 24.1095578,15.5581111 24.1095578,15.5581111 L24.1095578,16.2425431 C24.1095578,16.2425431 21.7848787,17.4596785 14.0002102,17.4596785 C6.21617239,17.4596785 3.89065245,16.2425431 3.89065245,16.2425431 L3.89065245,15.5581111 C3.89065245,15.5581111 10.1080862,15.8621883 13.9997898,15.8621883 Z M14.3943074,13.1837949 C21.994588,13.1999726 28,13.6772152 28,13.6772152 L28,13.6772152 L28,14.3614404 C28,14.3614404 21.7857196,14.8552816 13.9997898,14.8552816 C6.21449058,14.8552816 -3.73034936e-14,14.3614404 -3.73034936e-14,14.3614404 L-3.73034936e-14,14.3614404 L-3.73034936e-14,13.6772152 C-3.73034936e-14,13.6772152 6.21449058,13.1833741 13.9997898,13.1833741 Z M14.0002102,10.5409416 C21.785089,10.5409416 24.1108191,11.7491883 24.1108191,11.7491883 L24.1108191,11.7491883 L24.1108191,12.4336203 C24.1108191,12.4336203 17.9114648,12.1378117 13.9997898,12.1378117 C10.1080862,12.1378117 3.89065245,12.4420956 3.89065245,12.4420956 L3.89065245,12.4420956 L3.89065245,11.7576636 C3.89065245,11.7576636 6.21617239,10.5409416 14.0002102,10.5409416 Z M14.0002102,5.5 C17.2217133,5.5 19.9857647,7.42719999 21.1638712,10.1723696 C20.880907,10.1273058 20.5708236,10.083689 20.2388768,10.0417259 C19.085577,7.80238695 16.7283129,6.26381036 14.0002102,6.26381036 C11.2716871,6.26381036 8.91463323,7.80218023 7.76112321,10.0417259 C7.42938659,10.083689 7.11909303,10.1273058 6.83612884,10.1723696 C8.01444553,7.42719999 10.7782867,5.5 14.0002102,5.5 Z" id="Combined-Shape" fill="#2250A9" fill-rule="nonzero"></path>
    </g>
</svg>