<?xml version="1.0" encoding="UTF-8"?>
<svg width="28px" height="28px" viewBox="0 0 28 28" version="1.1" xmlns="http://www.w3.org/2000/svg" xmlns:xlink="http://www.w3.org/1999/xlink">
    <title>IR</title>
    <g id="IR" stroke="none" stroke-width="1" fill="none" fill-rule="evenodd">
        <path d="M23.558335,3.75293648 L23.4641451,3.84047036 C23.1539005,4.11874269 22.6274817,4.54019559 22.7731649,5.1627177 L22.8114002,5.29366641 C22.8325625,5.35820034 22.9017554,5.5338321 23.0646256,5.67680158 L23.1238455,5.72406489 C23.3757772,5.90635807 23.2540384,6.03730623 23.6499979,6.10978089 C24.0955597,6.19134129 24.1886263,5.98341452 24.2485433,5.91503234 C24.3084827,5.84666128 24.3702041,5.8059478 24.5224971,5.84666128 C24.664658,5.88465014 24.7611163,5.99032562 24.7040634,6.44134845 L24.6843333,6.57799752 C24.6563626,6.79396144 24.5656424,7.95072231 25.812729,8.05639361 L25.9634161,8.06415469 C25.9855481,8.0671392 26.0288148,8.0794191 26.0892259,8.12623793 L26.1845232,8.20343552 C26.3244532,8.31229929 26.5706827,8.46924295 26.8514036,8.38544299 C27.1190405,8.3055537 27.1748955,8.40828656 27.1918906,8.52360207 L27.2052779,8.66589161 C27.2052779,8.71972833 27.1703123,8.87068722 26.7914866,8.94955988 C26.53717,9.00250328 26.33914,9.02072202 26.1938102,9.02665078 L25.9382022,9.02885164 C25.8282158,9.03074215 25.6675352,9.03698095 25.6997933,9.19749951 C25.7320856,9.35800693 26.3113158,9.53038031 26.2851839,9.93622507 C26.2609077,10.3136637 26.3235427,10.3779757 26.3526497,10.4622327 L26.3591583,10.4839053 C26.3816726,10.5731854 26.3872371,10.6851543 26.1578777,10.7430871 L26.0799837,10.7582642 C26.0479155,10.7583582 25.9460299,10.7360537 25.9763982,10.4421242 L26.000064,10.2055701 C26.0199175,9.94879148 26.0011724,9.71786776 25.7725648,9.56937003 L25.6285013,9.47866689 C25.3456714,9.30774982 24.9548634,9.1203729 24.372688,9.06493883 C23.7406156,9.00475596 23.9981242,9.31856851 24.2425129,9.48443825 L24.3889438,9.58442334 C24.6354156,9.7580168 25.2020813,10.176175 25.3110186,10.4243308 L25.4139418,10.656316 C25.5074696,10.8752429 25.5510456,11.0377187 25.3487798,10.9882587 L24.8749476,10.8674123 C24.5689998,10.7870878 24.2315134,10.69417 24.1199653,10.6501177 C23.9538052,10.5844879 23.8858957,10.5169705 23.7753209,10.2233104 L23.1230086,8.35957447 C22.8408914,7.5620154 22.550363,6.76359864 22.4515487,6.57655685 C22.2618247,6.21742594 21.8082303,6.80082262 21.6372214,7.52454146 L21.5963349,7.72215982 C21.4420876,8.51958259 21.246829,10.0473861 23.345715,11.8341179 L23.4959006,11.9591878 C24.4209639,12.7130804 27.6994886,17.207837 22.1085273,22.2795889 L21.8821647,22.4783543 C21.3882765,22.8755345 17.142266,26.0848515 9.18753582,25.8307403 L8.87160713,25.8188964 C8.87160713,25.8188964 8.36862111,25.7460255 9.24934379,25.5247105 L9.44244867,25.4767223 C10.6930707,25.1386744 16.8039547,22.7945036 15.9349659,17.4479765 L15.8911253,17.2050568 C15.8568615,17.0422559 15.637609,16.1728899 14.6789399,15.0656613 L14.56935,14.9416808 C14.56935,14.9416808 14.3635169,14.5455528 15.129836,15.200731 L15.2157153,15.2750175 C16.0731353,16.0247846 18.7726322,19.5558534 13.7825415,24.3215178 L13.6094319,24.4844596 C13.3553567,24.7323534 12.6027255,25.1791813 13.4460923,25.0710447 L14.0005996,24.9916312 C15.7494748,24.7201761 23.1494772,23.2353706 24.5967945,17.3870179 L24.6542026,17.1369925 C24.7002971,16.9024237 24.9502222,15.3865007 24.1035483,13.6742647 L24.0259628,13.5227032 C24.0259628,13.5227032 23.9374696,13.2071922 23.6813478,13.4494609 L23.5639478,13.5733571 C23.1216835,14.017988 20.9991319,15.8023909 18.0960369,15.0053205 L17.9096816,14.9509 C17.9096816,14.9509 17.7596084,14.8949699 17.6983871,14.7093189 L17.6815986,14.6425296 C17.6815986,14.6425296 16.794599,8.96625397 18.425495,6.45891039 L18.507748,6.33819228 C18.507748,6.33819228 19.6615972,4.2513908 22.5983389,3.66098318 L22.8211137,3.62038566 C22.9773889,3.59861751 23.824791,3.49080764 23.558335,3.75293648 Z M0.650737054,4.28421324 L1.05983016,4.24037086 C2.42122226,4.11335028 7.50081153,3.86636319 13.3049273,7.48080585 L13.8264324,7.81269092 C13.9104838,7.87275155 14.0501192,8.00381392 14.0471172,8.2102227 L14.0367308,8.57929466 C14.0196964,9.91735948 14.2126489,14.3781233 18.0091265,15.3615784 L18.3731464,15.4501063 C19.0242539,15.5924872 21.4175795,15.9484025 23.5508039,14.1125204 L23.5792789,14.0727 C23.6238277,14.0195046 23.7131518,13.9492102 23.7926979,14.108792 L23.8333563,14.2091009 C24.0831829,14.8728398 26.3183092,21.22435 15.3827936,24.3823942 L15.0178031,24.4845376 C14.8772515,24.5174863 14.0103153,24.7125993 14.2980956,24.4421856 L14.3881696,24.3651372 C15.0093843,23.8102252 18.7878284,19.6598205 16.4186862,16.2452461 C13.8488833,12.5963264 7.64958885,11.4070138 5.55639605,11.5316903 L5.44823281,11.5396199 C5.24575174,11.5682127 5.10446178,11.5158574 5.0379111,11.4818708 L4.99459528,11.4561133 C4.74426761,11.3252764 3.77872419,10.4639656 3.6142451,10.3467628 C3.44975486,10.22956 3.75565524,10.124935 3.75565524,10.124935 C7.46865469,9.1467995 11.0509597,11.4811575 11.2682491,11.6033647 C11.4855272,11.7255829 11.6792463,11.7110035 11.692524,11.5225271 C11.7058129,11.3340507 11.3076255,11.1258348 11.3076255,11.1258348 C6.8523203,8.65648069 3.78314644,9.67217128 3.57158259,9.71465298 C3.38353574,9.75244412 3.29554114,9.66454814 3.27830835,9.64454915 L2.13575998,8.42987083 L2.13575998,8.42987083 C2.04073279,8.32839299 2.30270082,8.22046501 2.30270082,8.22046501 C5.27147396,7.09826588 10.0794473,9.25258502 10.9010298,9.6401593 L11.0204722,9.69756019 C11.1333775,9.75388738 11.3304828,9.81316157 11.3843179,9.62064835 C11.4341873,9.44233641 11.187413,9.31287846 11.187413,9.31287846 C5.46325942,6.61386734 2.29494801,7.68862087 2.1098951,7.76179614 C1.92483104,7.8349603 1.83033854,7.70760418 1.83033854,7.70760418 C1.44469372,7.26393737 1.13428201,6.56945062 1.03601339,6.42560227 C0.93775592,6.28174279 1.16563847,6.23135416 1.16563847,6.23135416 C5.28502355,5.1703905 10.3140452,7.62895744 10.5903714,7.76136243 C10.8666866,7.89378966 10.9923349,7.85947068 10.9819533,7.69304697 C10.9715718,7.52662326 10.7549397,7.43229611 10.7549397,7.43229611 C5.13739784,4.86991592 1.28942663,5.75293465 1.13557415,5.77829022 C1.02018483,5.79728187 0.951556486,5.72489965 0.924454149,5.68752156 L0.910999924,5.66649218 C0.910999924,5.66649218 0.569220674,4.95755944 0.375557289,4.47903984 L0.365924051,4.46429967 C0.347115559,4.42730825 0.33197094,4.3302282 0.650737054,4.28421324 Z M0.608077763,2 L0.745265429,2.00015731 C8.30038809,1.98306455 13.9553126,5.95224497 14.6626863,6.51935336 C15.3363756,7.05945659 15.3330132,7.25171133 15.2597099,7.49955719 L15.2482658,7.53720143 C15.1655361,7.80434679 15.1172038,8.18245612 15.1172038,8.18245612 C14.7313362,12.6337593 16.7825353,14.3818366 16.7825353,14.3818366 C16.5632298,14.2789464 16.4486536,14.1851752 16.4486536,14.1851752 C14.096511,12.1702417 14.3689386,8.18552548 14.3424723,7.91527739 C14.3239458,7.72610373 14.2123309,7.61414556 14.1470294,7.56399629 L13.9437056,7.4303633 C6.95022469,2.90667443 0.704206934,3.8977657 0.704206934,3.8977657 C0.558909237,3.90904225 0.534626138,3.87264367 0.486750545,3.79833406 L0.297882565,3.27108133 C-0.0742884193,2.19146899 0.00766030621,2.12160825 0.00766030621,2.12160825 C0.0445862433,2.02264846 0.405089986,2.00309504 0.608077763,2 Z M17.2792196,14.2279861 C17.2672646,14.2793978 17.1172196,14.2897486 17.0210128,14.2917107 L16.9243456,14.2920075 C16.8678759,14.291208 16.7849469,14.2836667 16.7868183,14.2172656 C16.7882812,14.1656129 16.8305526,14.1495816 16.858571,14.1446332 L16.8830262,14.1424556 C17.0723899,14.1273201 17.2951707,14.1594371 17.2792196,14.2279861 Z M17.2413814,13.8545698 C17.2414148,13.9220289 17.1398372,13.9396506 17.0578948,13.9442453 L16.9105712,13.947192 C16.8183456,13.9476298 16.6943764,13.9387158 16.6798066,13.8603971 C16.6670579,13.791861 16.7577462,13.7709119 16.8216008,13.7646079 L16.8811336,13.762022 C16.8811336,13.762022 17.2413369,13.7646465 17.2413814,13.8545698 Z M17.2107324,13.4671467 C17.210064,13.5373416 17.1178411,13.5553032 17.0248585,13.5625007 L16.8503943,13.5711667 C16.7430767,13.5730176 16.6180932,13.5615579 16.6070296,13.479958 C16.5963612,13.4012973 16.7100484,13.3781353 16.7675587,13.3714706 L16.7996571,13.3688605 C16.9112257,13.3604309 17.2116235,13.3735647 17.2107324,13.4671467 Z M17.1550806,13.0568903 C17.1523738,13.1257285 17.1039412,13.1585684 16.8147049,13.1637173 C16.5736652,13.1680174 16.5515001,13.0909653 16.5508072,13.0651618 L16.551389,13.0568903 C16.546499,12.9941353 16.6646619,12.9693135 16.792048,12.9585819 C16.9194452,12.9478725 17.1577873,12.9880411 17.1550806,13.0568903 Z M16.7297489,12.531798 L16.7739771,12.5311671 C16.8747075,12.5321012 17.103704,12.5467252 17.1080036,12.6294533 C17.112281,12.71187 17.0092672,12.7322545 16.7660684,12.7363581 C16.5228697,12.7404618 16.5385424,12.6294533 16.5385424,12.6294533 C16.5472022,12.5556362 16.6399831,12.5354661 16.7297489,12.531798 L16.7297489,12.531798 Z M17.0934605,12.1764283 C17.0934605,12.2274619 17.0252004,12.2694543 16.8232273,12.2775169 C16.6212542,12.2855795 16.5352496,12.2499706 16.5299809,12.1806654 L16.5297441,12.1704008 C16.5320175,12.1450257 16.5562668,12.0808823 16.7419234,12.0738272 C16.9739943,12.0650083 17.0934605,12.1253835 17.0934605,12.1764283 Z M16.6786915,11.66696 L16.7397302,11.6678246 C16.8137714,11.6646551 17.0723865,11.6850508 17.0737567,11.7704034 C17.0749555,11.8450772 16.9549156,11.8611293 16.867778,11.8696301 L16.8328971,11.8729599 C16.7476612,11.8814007 16.5042954,11.8938004 16.5042954,11.7746626 C16.5042954,11.6889727 16.6089331,11.6700524 16.6786915,11.66696 L16.6786915,11.66696 Z M17.0694781,11.3515828 C17.0614664,11.4342553 16.9101616,11.4442317 16.8178814,11.4477064 L16.7141337,11.4512605 C16.6220397,11.4521169 16.5014092,11.4403631 16.5042943,11.3494476 C16.5070762,11.261779 16.6415446,11.2471996 16.708605,11.2453891 L16.7878587,11.2466653 C16.8772595,11.2505386 17.077518,11.2684865 17.0694781,11.3515828 Z M22.1295109,7.32116866 C22.2451006,6.95786121 22.4248958,7.56050075 22.4248958,7.56050075 C22.8182822,9.02716456 23.6351532,10.6163914 23.5893382,11.0566331 C23.5428659,11.5032246 23.1381625,11.1496591 23.1381625,11.1496591 C21.5049893,9.46143424 22.0139435,7.68449836 22.1295109,7.32116866 Z M16.746164,10.8405146 L16.8282405,10.8429268 C16.9107505,10.8464111 17.0769736,10.8621937 17.0865977,10.9327055 C17.0960787,11.0021473 17.0357437,11.0247644 16.9711309,11.0347886 L16.9387715,11.0389097 C16.8638614,11.0468389 16.4786622,11.0825035 16.4871724,10.945539 C16.4932717,10.8474875 16.6685595,10.8393079 16.746164,10.8405146 Z M16.6369992,10.4112538 C16.9924795,10.4126661 17.1083589,10.4705391 17.1122799,10.5309143 C17.1160324,10.5887831 17.0809298,10.5988605 16.9425427,10.610943 L16.8767226,10.6163892 C16.6833265,10.6320252 16.4653132,10.5933468 16.4786132,10.5006766 C16.4919243,10.4079954 16.6369992,10.4112538 16.6369992,10.4112538 Z M27.0136785,9.21369888 L27.1125147,9.16757995 C27.276036,9.07444271 27.2580688,9.23596209 27.2580688,9.23596209 C27.1382793,10.0007994 26.714428,10.2873174 26.714428,10.2873174 C26.5578238,10.3575567 26.5850255,10.1932905 26.5789991,9.9113877 L26.5731706,9.74859932 C26.564723,9.60894325 26.5459504,9.53266292 26.4946409,9.46556759 L26.466172,9.43253446 C26.3824556,9.34516899 26.4306523,9.30845093 26.5596365,9.28935734 L26.8130257,9.26178174 C26.8802429,9.25236958 26.9473467,9.23847313 27.0136785,9.21369888 L27.0136785,9.21369888 Z M16.6733645,9.93358537 L16.7482916,9.93262301 C17.2280502,9.92431568 17.1819346,10.1281278 16.9164466,10.1377473 C16.6652723,10.1468553 16.4486068,10.1170069 16.4829039,10.0180979 C16.5043396,9.95627289 16.6026478,9.93834051 16.6733645,9.93358537 L16.6733645,9.93358537 Z M16.7696987,9.50091777 L16.8118064,9.50072696 C16.9017318,9.50217539 17.1053143,9.51610023 17.1165685,9.61209306 C17.1262074,9.69438742 17.025966,9.71254162 16.9409049,9.71550061 L16.781251,9.7138946 C16.6761013,9.71051136 16.4896854,9.69232117 16.5128546,9.59500027 C16.5418273,9.47336029 16.7696987,9.50091777 16.7696987,9.50091777 Z M16.7825353,9.06066617 C17.1090429,9.0691514 17.1881969,9.13830095 17.1936105,9.18466383 C17.2011057,9.24876029 17.1659251,9.28018697 17.0600031,9.28046367 L16.9074795,9.27190277 C16.7545977,9.2606442 16.5587252,9.23642919 16.5685097,9.15047824 C16.5807404,9.04303961 16.7825353,9.06066617 16.7825353,9.06066617 Z M16.941162,8.62675412 L16.9753042,8.63330588 C17.2963426,8.67685517 17.380576,8.87425051 17.1137403,8.85553406 C16.8469045,8.83682882 16.589704,8.7797232 16.6498436,8.67605449 C16.6966277,8.59541466 16.8675201,8.61435429 16.941162,8.62675412 Z M16.9650017,8.22478766 C17.4980718,8.28112599 17.3605491,8.49242238 17.1918149,8.46596582 L17.0289548,8.44161472 C16.8713463,8.41612902 16.7040544,8.37663802 16.7236187,8.29302528 C16.7505194,8.17805781 16.9650017,8.22478766 16.9650017,8.22478766 Z M25.9480716,4.55168688 C26.1100444,4.4277115 26.6201572,4.9909387 26.6201572,4.9909387 C28.0659948,6.69062169 27.1864801,7.72139659 26.9731826,7.92947394 L26.9302678,7.96863862 C26.8437177,8.05270123 26.6427021,8.16714602 26.4749593,8.08330584 C26.3072387,7.99945454 26.5347648,7.84354004 26.5347648,7.84354004 C27.3815774,7.06247738 26.8052324,6.42190458 26.7837895,6.39522563 C26.2565339,5.73909474 25.5775317,5.93417691 25.3186933,6.03889095 C25.1245734,6.11742648 25.0640006,6.01693628 25.0458467,5.96178271 L25.0207524,5.85075355 C24.9951945,5.75982032 24.9382246,5.62234421 24.8264257,5.6158867 C24.6587498,5.6061893 24.6571678,5.54077639 24.6741551,5.49791659 C24.6911418,5.45509015 24.8191406,5.42632047 24.8599321,5.40426781 C25.2074588,5.21640307 25.7861211,4.67569561 25.9480716,4.55168688 Z M17.0709641,7.79318144 C17.5037159,7.85772693 17.5336465,8.04602537 17.3482483,8.0438012 C17.1628389,8.04157703 16.8224075,7.96353081 16.8344154,7.85282263 C16.8464344,7.74211444 17.0709641,7.79318144 17.0709641,7.79318144 Z M25.0748366,6.63314091 C25.3673702,6.13532662 26.0545043,6.32321359 26.0545043,6.32321359 C27.0034946,6.65527143 26.5923528,7.38114125 26.5923528,7.38114125 C26.2361261,7.95955955 25.7402385,7.77257337 25.558538,7.70160003 C25.3505724,7.62037325 24.8214678,7.06433012 25.0748366,6.63314091 Z M17.1672928,7.29312645 L17.2292611,7.31193279 C17.6617789,7.4384882 17.6203417,7.6132192 17.4817608,7.59700498 C17.20314,7.56440973 16.9526229,7.43786544 16.996689,7.33675455 C17.0242302,7.27356025 17.1081934,7.27966282 17.1672928,7.29312645 L17.1672928,7.29312645 Z M26.4035143,7.16403244 L26.4105191,7.12459407 C26.4978937,6.69178122 25.9298027,6.39151793 25.4550898,6.54853339 C25.0594869,6.67939814 25.2139281,7.02707337 25.2763975,7.13932999 L25.2977064,7.17481589 C25.2977064,7.17481589 25.562604,7.5519577 25.8795878,7.5519577 C26.2777364,7.5519577 26.3793911,7.26982754 26.4035143,7.16403244 L26.4035143,7.16403244 Z M25.916939,6.80247606 C26.0672714,6.85888108 26.156718,6.99088572 26.1166401,7.09733461 C26.0765839,7.20378351 25.9222301,7.24437466 25.7718754,7.18798076 C25.621543,7.13159799 25.5321187,6.99958223 25.5721748,6.89313333 C25.6122304,6.78667332 25.7665842,6.74608217 25.916939,6.80247606 Z M17.3786783,6.89356246 L17.4828064,6.94530198 C17.6003145,7.0082681 17.7193268,7.0917402 17.7045205,7.17092692 C17.6854951,7.27271618 17.1550093,7.08155967 17.1695458,6.93724423 C17.1824571,6.80896385 17.3431322,6.87688514 17.3786783,6.89356246 Z M17.4966391,6.44798185 L17.5447766,6.46703971 C17.936637,6.6153809 17.936637,6.79831909 17.8204568,6.79722924 C17.6328196,6.79547215 17.3005865,6.58280789 17.3299157,6.48794693 C17.352617,6.41451217 17.4405437,6.42969832 17.4966391,6.44798185 L17.4966391,6.44798185 Z M18.0385482,6.33624502 C18.1269142,6.47657919 18.0321989,6.51660317 17.7421382,6.34370712 C17.4520887,6.17082219 17.5781715,6.08394601 17.5781715,6.08394601 C17.6167906,6.01852198 17.9543815,6.20258337 18.0385482,6.33624502 Z M17.9440318,5.73561448 L18.040334,5.78080197 C18.1229064,5.82423841 18.2519362,5.90893737 18.2829621,6.02620316 C18.3284094,6.19794264 17.7607415,5.91631791 17.7648296,5.7781968 C17.7680004,5.67075197 17.8899767,5.71198346 17.9440318,5.73561448 Z M27.6667255,5.70113034 C27.6080789,5.89477791 27.4078989,5.89794736 27.3779239,5.82101323 C27.3522402,5.75508876 27.3831804,5.66716949 27.449139,5.62186718 L27.4849364,5.60306657 C27.4849364,5.60306657 27.7253615,5.50749388 27.6667255,5.70113034 Z M24.0216757,5.62869126 C24.0845444,5.85952701 23.6044852,5.8651208 23.602179,5.5908136 L23.6039489,5.56804068 C23.60995,5.5264391 23.636028,5.4401843 23.7486357,5.41577122 L23.7671289,5.41486093 C23.8194529,5.41477972 23.9682049,5.43240096 24.0216757,5.62869126 Z M18.1995041,5.38257945 L18.2313914,5.40208985 C18.2529476,5.41731258 18.3101681,5.46100089 18.4230345,5.56694378 C18.5929828,5.72648368 18.5037591,5.81323753 18.4436751,5.79109589 C18.3836023,5.76896537 18.0433491,5.57598504 18.0283225,5.41930321 C18.0163012,5.29395774 18.146817,5.35367767 18.1995041,5.38257945 Z M18.4796528,5.01668575 L18.5748864,5.10063765 C18.676656,5.19650031 18.8231418,5.35218992 18.7861305,5.42356362 C18.7306024,5.5306464 18.5626368,5.34238132 18.5626368,5.34238132 L18.5016992,5.2853453 C18.4333385,5.21738776 18.3352852,5.10574419 18.3622119,5.04750052 C18.3968321,4.97262534 18.4617977,5.00570605 18.4796528,5.01668575 Z M27.7112372,5.11274663 C27.763368,5.19951159 27.5652823,5.29663009 27.4245628,5.35177845 C27.2715778,5.41180775 26.9749252,5.35184976 27.3682447,5.15442727 L27.4362032,5.12211039 C27.4362032,5.12211039 27.6591176,5.02597053 27.7112372,5.11274663 Z M26.6378794,2.06975983 L26.8936798,2.03940174 C28.4771185,1.87913512 28.0402875,2.42237351 27.5383203,2.82289318 L25.4202257,4.51615952 L25.4202257,4.51615952 L25.0094065,4.85167645 C24.8122356,4.9992199 24.7679184,4.915029 24.2827905,4.68416971 C23.848737,4.47762017 23.7112166,4.76223539 23.6725512,4.89122793 L23.6512832,4.98308598 C23.6465451,5.00158971 23.6400065,5.02297235 23.632805,5.034488 C23.5807857,5.11766093 23.4708545,5.08204081 23.426666,5.17144142 C23.3513772,5.3238306 23.1868089,5.32391957 23.1432548,4.97076546 C23.0997236,4.61761135 23.3496279,4.44050049 23.3496279,4.44050049 C23.7093569,4.1074529 24.2331947,3.53047942 24.5599078,3.15814404 L24.7623374,2.92427097 C25.0192927,2.62180575 25.2168996,2.42878093 25.5155705,2.32671366 C25.7955641,2.23100473 26.545261,2.08734361 26.6378794,2.06975983 Z M24.2040954,5.01340507 C24.4352971,5.0792517 24.4298839,5.17035381 24.3740322,5.20898769 C24.3167112,5.24868916 24.235819,5.20379424 24.1415272,5.17570294 L24.0716239,5.16096101 C24.0008175,5.14929381 23.9347116,5.14084863 23.9399984,5.0816061 L23.9532427,5.03763325 C23.9667784,5.01415239 24.0191156,4.96071887 24.2040954,5.01340507 Z M18.8204006,4.75895754 L18.9043548,4.83647071 C18.9623389,4.89349437 19.0532978,4.99674787 19.0771948,5.1030559 C19.1126949,5.26089431 18.9548547,5.16208544 18.9548547,5.16208544 L18.8932636,5.10630618 C18.7964006,5.01590023 18.6209164,4.83998179 18.6363004,4.76537091 C18.6615921,4.642726 18.7655678,4.71203195 18.8204006,4.75895754 Z M27.5213968,4.70353336 C27.5879975,4.78142388 27.385556,4.91058157 27.2400916,4.98857219 C27.0815459,5.07358853 26.7527573,5.06213329 27.1588496,4.79920365 L27.2253882,4.75785877 C27.2253882,4.75785877 27.4547855,4.62560947 27.5213968,4.70353336 Z M19.1114385,4.49612482 C19.2723531,4.64924798 19.3794439,4.86457012 19.3340299,4.91074394 C19.2886161,4.95692889 19.1787406,4.88987008 19.082399,4.76746275 C18.9860574,4.64504429 18.9314204,4.5554435 18.9273769,4.50040635 L18.9303623,4.48761029 C18.9403516,4.45344029 18.9797902,4.37086044 19.1114385,4.49612482 Z M27.2318489,4.29849153 C27.311916,4.36328167 27.1282222,4.52855993 26.9938408,4.63262896 C26.8470346,4.74636203 26.5114598,4.79578187 26.8833112,4.45793148 L26.941342,4.40699778 C26.941342,4.40699778 27.1517922,4.23370138 27.2318489,4.29849153 Z M19.4367709,4.20974371 L19.5087205,4.31959022 C19.5773084,4.42984782 19.6656084,4.58960204 19.6325619,4.6344272 C19.5806317,4.70487787 19.491174,4.60797067 19.3762413,4.45416915 C19.2613198,4.30037873 19.2569868,4.20118064 19.2569868,4.20118064 C19.2898915,4.0533955 19.4367709,4.20974371 19.4367709,4.20974371 Z M26.9343592,3.98960623 C27.0177459,4.05109348 26.831479,4.22653621 26.6949146,4.33793389 C26.5457268,4.45963909 26.2013554,4.52556295 26.5784287,4.16707597 L26.6373031,4.11293659 C26.6373031,4.11293659 26.8509948,3.92809674 26.9343592,3.98960623 Z M19.7813106,3.97164061 L19.8392521,4.05566427 C19.9051592,4.15811463 20.0174364,4.35267348 19.9547175,4.40205011 C19.868479,4.46993185 19.5248507,4.04130045 19.5908718,3.91485624 C19.6436798,3.81370087 19.7434963,3.92362482 19.7813106,3.97164061 L19.7813106,3.97164061 Z M20.149898,3.67558421 C20.2201185,3.81189262 20.3564827,4.12970463 20.2751343,4.17498879 C20.20253,4.21541312 19.9428566,3.80413026 19.9910664,3.65543321 C20.0392762,3.50675839 20.149898,3.67558421 20.149898,3.67558421 Z M26.5063967,3.30717478 L27.6053552,2.45593808 C28.0839216,2.09581119 27.3003568,2.22506897 27.3003568,2.22506897 C25.922578,2.35816422 25.0629898,3.34000011 24.8998883,3.54171425 L24.8459488,3.61287443 C24.8033263,3.67962567 24.7351303,3.83191129 24.8715223,3.98217639 C25.0750546,4.20641746 25.2614553,4.18959159 25.5499787,4.01742951 C25.6942352,3.93135404 26.0884375,3.6310129 26.5063967,3.30717478 L26.5063967,3.30717478 Z M20.3893885,3.40688749 C20.4671868,3.39973836 20.5228718,3.48965281 20.5483409,3.54161609 L20.5638817,3.57711453 C20.5638817,3.57711453 20.6524259,3.80401349 20.6697583,3.91127421 C20.6871018,4.01851269 20.5732051,4.04829436 20.4937057,3.89111209 L20.4508116,3.80136611 C20.3763713,3.63679124 20.2986332,3.4152374 20.3893885,3.40688749 Z M20.8301092,3.20536671 C20.9560806,3.20356142 21.0156857,3.53482968 21.0509408,3.69499234 C21.0861847,3.85513276 20.9384476,3.91864401 20.8571994,3.69499234 L20.7737949,3.45169838 L20.7737949,3.45169838 L20.7600112,3.40398161 C20.7600112,3.40398161 20.7041378,3.20719794 20.8301092,3.20536671 Z M21.2242776,3.04609334 C21.3202516,3.01590687 21.3754835,3.27711903 21.3937372,3.38281136 L21.400553,3.42593753 C21.400553,3.42593753 21.4294922,3.68300739 21.3564758,3.69432843 C21.2915624,3.70440145 21.2117133,3.57491287 21.1749228,3.38112502 L21.1524135,3.2466964 C21.143829,3.17819436 21.1442845,3.07124873 21.2242776,3.04609334 Z M21.5986653,2.90901203 C21.6758589,2.91131405 21.7463245,3.08108514 21.7615404,3.22977107 C21.7767452,3.37846813 21.774172,3.54403552 21.7227877,3.55800333 C21.6760746,3.57069122 21.5706191,3.44970819 21.5345915,3.15799025 L21.5259942,3.06531575 C21.5259942,3.06531575 21.521494,2.90669889 21.5986653,2.90901203 Z M22.1626985,3.13834595 L22.1703278,3.19264407 C22.1950149,3.38379719 22.0684908,3.71146633 21.9628144,3.19789848 L21.9485494,3.12256039 C21.9485494,3.12256039 21.9043387,2.84376037 22.0007025,2.80559357 C22.0874199,2.77123344 22.1371716,2.97079943 22.1626985,3.13834595 L22.1626985,3.13834595 Z M22.6177373,3.1092376 C22.6424458,3.30039073 22.5159023,3.62805986 22.4102437,3.11449201 L22.3959813,3.03915392 C22.3959813,3.03915392 22.3517483,2.7603539 22.4481344,2.7221871 C22.544487,2.68400918 22.595203,2.93462894 22.6177373,3.1092376 Z M23.0406731,3.06269123 C23.0485581,3.26033314 22.890138,3.5839906 22.8289409,3.0495456 L22.8212232,2.9712555 C22.8212232,2.9712555 22.8013624,2.68229101 22.9029393,2.65188657 C23.0044717,2.62147101 23.0334778,2.88218851 23.0406731,3.06269123 Z M23.3407502,2.60657906 C23.4333324,2.58356888 23.4559981,2.79333182 23.458607,2.96719827 L23.4588022,3.02345571 C23.4572783,3.22124654 23.2836407,3.53704532 23.247927,3.00029136 L23.243941,2.92172207 C23.243941,2.92172207 23.2378477,2.63214592 23.3407502,2.60657906 Z M23.7782476,2.60652123 C23.8818513,2.58409045 23.8904175,2.84627591 23.8835449,3.02677863 L23.8773909,3.08275698 C23.8457295,3.26430101 23.7060862,3.46478445 23.6771006,3.06537564 L23.6718806,2.91858376 C23.6718806,2.91858376 23.6745987,2.62895201 23.7782476,2.60652123 Z M24.269949,2.69246882 C24.3703342,2.69939711 24.3041906,3.08572476 24.2485402,3.07289128 C24.1998456,3.06167172 24.1675089,3.00872304 24.160215,2.87753224 L24.1586476,2.81641083 C24.1586476,2.81641083 24.1695639,2.68555164 24.269949,2.69246882 Z" id="Shape" fill="#1B1463" fill-rule="nonzero"></path>
    </g>
</svg>