<?xml version="1.0" encoding="UTF-8"?>
<svg width="28px" height="28px" viewBox="0 0 28 28" version="1.1" xmlns="http://www.w3.org/2000/svg" xmlns:xlink="http://www.w3.org/1999/xlink">
    <title>IT</title>
    <g id="IT" stroke="none" stroke-width="1" fill="none" fill-rule="evenodd">
        <path d="M7.34541793,11.3480845 C8.25478348,11.3480845 8.52265861,11.8058124 8.52265861,11.8058124 L8.52265861,11.8058124 L8.52265861,11.7767503 C8.55085599,11.507926 8.72708963,11.3553501 8.99496475,11.3553501 L8.99496475,11.3553501 L9.55186304,11.3553501 C9.84793555,11.3553501 10.0241692,11.5369881 10.0241692,11.8712021 L10.0241692,11.8712021 L10.0241692,16.4121532 C9.93252769,16.2886394 9.75629406,16.2305152 9.55186304,16.2305152 L9.55186304,16.2305152 L9.02316213,16.2305152 C8.81873112,16.2305152 8.64249748,16.2886394 8.52265861,16.4121532 L8.52265861,16.4121532 L8.52265861,15.656539 C8.36757301,15.8309115 8.01510574,16.2232497 7.3101712,16.2232497 C6.11178248,16.2232497 5.31520645,15.2206077 5.31520645,13.7675033 C5.31520645,12.3143989 6.16817724,11.3480845 7.34541793,11.3480845 Z M12.664,11.355 C14.0140987,11.3553501 14.7190332,12.3216645 14.7190332,13.5640687 C14.7190332,13.8401585 14.5146022,14.1089828 14.2185297,14.1089828 L11.8992951,14.1089828 C12.0191339,14.653897 12.4561934,14.9299868 12.9284995,14.9299868 C13.224572,14.9299868 13.5135952,14.8064729 13.7532729,14.7192867 C14.021148,14.5667107 14.2255791,14.5957728 14.3736153,14.9009247 L14.5216516,15.1406869 C14.6414904,15.4167768 14.6132931,15.656539 14.3454179,15.8091149 C14.021148,16.0198151 13.4924471,16.2305152 12.81571,16.2305152 C11.2296073,16.2305152 10.3766365,15.0462351 10.3766365,13.7747688 C10.3766365,12.465764 11.1859038,11.4436842 12.4942192,11.3607834 L12.664,11.355 Z M20.3232628,11.3553501 C21.5850957,11.3553501 22.3816717,12.0819022 22.3816717,13.2298547 L22.3816717,15.5911493 C22.3816717,15.9253633 22.2054381,16.1070013 21.8811682,16.1070013 L21.4370594,16.1070013 C21.1127895,16.1070013 20.9647533,15.9253633 20.9647533,15.5911493 L20.9647533,15.4385733 L20.9647533,15.4385733 L20.9365559,15.4676354 C20.9365559,15.4676354 20.4924471,16.1941876 19.5830816,16.1941876 C18.7019134,16.1941876 18.0533736,15.5911493 18.0533736,14.7992074 C18.0533736,13.5568032 19.5548842,13.1935271 20.6686808,13.1935271 L20.6827795,13.2007926 L20.8308157,13.2007926 L20.8308157,13.1426684 C20.8308157,12.7503303 20.5065458,12.6268164 20.1822759,12.6268164 C19.8862034,12.6268164 19.5619335,12.7212682 19.3293051,12.8084544 C19.0332326,12.9610304 18.8288016,12.9029062 18.6807654,12.5977543 L18.5609265,12.3870542 C18.4128902,12.1109643 18.4763343,11.8712021 18.7653575,11.7186262 C19.1178248,11.5660502 19.6465257,11.3553501 20.3232628,11.3553501 Z M1.62134945,10.2001321 C1.94561934,10.2001321 2.12185297,10.3527081 2.12185297,10.6869221 L2.12185297,11.5369881 L2.56596173,11.5369881 C2.86203424,11.5369881 3.03826788,11.7186262 3.03826788,12.0528402 L3.03826788,12.2635403 C3.03826788,12.5977543 2.86203424,12.7503303 2.56596173,12.7503303 L2.12185297,12.7503303 L2.12185297,14.1743725 C2.12185297,14.5667107 2.35448137,14.7192867 2.6223565,14.7774108 C2.97482377,14.8064729 3.09466264,14.9299868 3.09466264,15.2642008 L3.09466264,15.6856011 C3.09466264,16.0488771 2.86203424,16.172391 2.47432024,16.172391 C1.82578046,16.172391 0.620342397,15.838177 0.620342397,14.4795244 L0.620342397,12.7503303 L0.472306143,12.7503303 C0.176233635,12.7503303 -5.10702591e-14,12.5977543 -5.10702591e-14,12.2635403 L-5.10702591e-14,12.0528402 C-5.10702591e-14,11.7186262 0.176233635,11.5369881 0.472306143,11.5369881 L0.648539778,11.5369881 L0.648539778,10.6869221 C0.648539778,10.3527081 0.824773414,10.2001321 1.12084592,10.2001321 L1.62134945,10.2001321 Z M27.4712991,11.3844122 C27.795569,11.3844122 28,11.5660502 28,11.9002642 L28,12.3870542 C28,12.6922061 27.7039275,12.8738441 27.3796576,12.8738441 C26.6747231,12.8738441 26.3222558,13.51321 26.3222558,14.2688243 L26.3222558,15.5984148 C26.3222558,15.9326288 26.1742195,16.1142668 25.8851964,16.1142668 L25.3282981,16.1142668 C25.0322256,16.1142668 24.8559919,15.9326288 24.8559919,15.5984148 L24.8559919,11.9365918 C24.8559919,11.6023778 25.0322256,11.4207398 25.3282981,11.4207398 L25.8288016,11.4207398 C26.1248741,11.4207398 26.3011078,11.6023778 26.3011078,11.9365918 L26.301,12.245 L26.3367556,12.1530164 C26.540285,11.7187121 27.1199163,11.3844122 27.4712991,11.3844122 Z M17.6868077,11.3844122 C17.9828802,11.3844122 18.1873112,11.5660502 18.1873112,11.9002642 L18.1873112,12.3870542 C18.1873112,12.6922061 17.9264854,12.8738441 17.6022155,12.8738441 C16.897281,12.8738441 16.5448137,13.51321 16.5448137,14.2688243 L16.5448137,15.5984148 C16.5448137,15.9326288 16.3967774,16.1142668 16.0725076,16.1142668 L15.5156093,16.1142668 C15.2195368,16.1142668 15.0785498,15.9326288 15.0785498,15.5984148 L15.0785498,11.9365918 C15.0785498,11.6023778 15.2265861,11.4207398 15.5156093,11.4207398 L16.0161128,11.4207398 C16.3403827,11.4207398 16.4884189,11.6023778 16.4884189,11.9365918 L16.488,12.245 L16.5240796,12.1530164 C16.727763,11.7187121 17.3093965,11.3844122 17.6868077,11.3844122 Z M4.46928499,11.4134742 C4.79355488,11.4134742 4.96978852,11.5951123 4.96978852,11.9293263 L4.96978852,15.5911493 C4.96978852,15.9253633 4.79355488,16.1070013 4.46928499,16.1070013 L3.94058409,16.1070013 C3.6163142,16.1070013 3.46827795,15.9253633 3.46827795,15.5911493 L3.46827795,11.9293263 C3.46827795,11.5951123 3.6163142,11.4134742 3.94058409,11.4134742 L4.46928499,11.4134742 Z M23.8761329,11.4134742 C24.1722054,11.4134742 24.3484391,11.5951123 24.3484391,11.9293263 L24.3484391,15.5911493 C24.3484391,15.9253633 24.1722054,16.1070013 23.8761329,16.1070013 L23.3192346,16.1070013 C23.0231621,16.1070013 22.8821752,15.9253633 22.8821752,15.5911493 L22.8821752,11.9293263 C22.8821752,11.5951123 23.0302115,11.4134742 23.3192346,11.4134742 L23.8761329,11.4134742 Z M20.816717,14.0435931 L20.6686808,14.0435931 C20.1117825,14.0435931 19.4068479,14.1961691 19.4068479,14.682959 C19.4068479,14.896081 19.5683737,15.0632777 19.8320134,15.0978014 L19.9355488,15.1043593 C20.4360524,15.1043593 20.816717,14.5885073 20.816717,14.167107 L20.816717,14.0435931 Z M7.66263847,12.6558785 C7.19738167,12.6558785 6.75327291,13.0772787 6.75327291,13.7747688 C6.75327291,14.501321 7.13393756,14.9227213 7.66263847,14.9227213 L7.66263847,14.9227213 L7.75036992,14.9183124 C8.1605729,14.8769323 8.57200403,14.5410392 8.57200403,13.7747688 C8.57200403,13.2298547 8.24773414,12.6558785 7.66263847,12.6558785 Z M12.6676737,12.4742404 C12.223565,12.4742404 12.0191339,12.8084544 11.9345418,13.2007926 L13.3162135,13.2007926 C13.3162135,12.8084544 13.0835851,12.4742404 12.6676737,12.4742404 Z M4.20140987,8.5 C4.84994965,8.5 5.35045317,9.04491413 5.35045317,9.71334214 C5.35045317,10.3100837 4.88989594,10.8245472 4.32412696,10.8904901 L4.20140987,10.8976222 C3.58106747,10.8976222 3.05236657,10.3527081 3.05236657,9.71334214 C3.05236657,9.04491413 3.58106747,8.5 4.20140987,8.5 Z" id="Combined-Shape" fill="#525350"></path>
        <path d="M6.4572004,16.6519155 C6.60523666,16.6519155 6.75327291,16.7100396 6.80966767,16.8335535 C6.87311178,16.8916777 6.92950655,16.9861295 6.92950655,17.1677675 C6.89425982,17.5383091 7.07049345,17.6836196 7.16213494,17.8071334 C7.27492447,17.9306473 7.45115811,17.9887715 7.74723061,17.9887715 C8.00805639,17.9887715 8.18429003,17.9306473 8.3041289,17.8071334 C8.42396777,17.6836196 8.57200403,17.4729194 8.57200403,17.1677675 C8.57200403,16.9861295 8.60725076,16.8989432 8.66364552,16.8044914 C8.74823766,16.7100396 8.86807654,16.6519155 9.01611279,16.6519155 L9.01611279,16.6519155 L9.5448137,16.6519155 C9.8408862,16.6519155 10.0171198,16.8335535 10.0171198,17.1677675 L10.0171198,17.1677675 L10.0171198,17.3494055 L10.0100705,17.3494055 L10.0100705,17.5891678 C9.918429,18.5918098 8.86102719,19.4709379 7.74723061,19.5 C6.59818731,19.4636724 5.5407855,18.5918098 5.48439074,17.5891678 C5.46424975,17.4386677 5.45849518,17.3956676 5.45685102,17.3833819 L5.45619335,17.1677675 C5.45619335,16.8335535 5.60422961,16.6519155 5.9284995,16.6519155 L5.9284995,16.6519155 Z M23.6223565,8.5 C24.2426989,8.5 24.7361531,9.04491413 24.7361531,9.71334214 C24.7361531,10.3100837 24.3001589,10.8245472 23.7433964,10.8904901 L23.6223565,10.8976222 C22.9738167,10.8976222 22.4733132,10.3527081 22.4733132,9.71334214 C22.4733132,9.04491413 22.9738167,8.5 23.6223565,8.5 Z" id="Combined-Shape" fill="#F69E25"></path>
    </g>
</svg>