<?xml version="1.0" encoding="UTF-8"?>
<svg width="28px" height="28px" viewBox="0 0 28 28" version="1.1" xmlns="http://www.w3.org/2000/svg" xmlns:xlink="http://www.w3.org/1999/xlink">
    <title>IV</title>
    <g id="IV" stroke="none" stroke-width="1" fill="none" fill-rule="evenodd">
        <path d="M28,13.6562846 C28,19.5710785 23.2280371,24.3660346 17.3416064,24.3660346 C11.4550045,24.3660346 6.68304164,19.5710785 6.68304164,13.6562846 C6.68304164,7.74131864 11.4550045,2.94636255 17.3416064,2.94636255 C23.2280371,2.94636255 28,7.74149063 28,13.6562846 L28,13.6562846 L28,13.6562846 L28,13.6562846 Z" id="Path" fill="#F7931E" fill-rule="nonzero"></path>
        <path d="M3.95515426,2.00350415 C5.04463178,1.94468299 5.33784073,2.63488561 5.34622791,3.43481892 C5.36043476,4.78718952 5.39655099,5.47240438 6.20086439,5.47240438 C7.00534897,5.47240438 7.03872652,4.93372643 7.17309256,4.52937398 C7.3069451,4.12536552 7.57499251,3.18216314 8.37964825,2.6433132 C9.18396166,2.10463525 10.6253584,1.96979378 12.1335102,2.6433132 C13.6418332,3.31700462 16.2897856,4.79888495 16.8258804,5.10193429 C17.3623176,5.40515563 18.6022508,5.97737195 19.6747828,5.80916409 C19.2393342,6.34784204 18.2003509,6.51639388 17.5966451,6.3817244 C16.993624,6.24705491 15.3848261,5.37127327 14.8485601,5.00097518 C14.3119517,4.63050509 14.0103556,4.49566361 13.5747358,4.66404347 C13.8766742,5.03451355 15.1501562,6.17963417 15.5523985,6.3817244 C15.9546408,6.58381462 16.4571869,6.92057434 16.8596003,6.78590485 C16.3904318,7.15637493 16.0551158,7.29104442 15.1837049,6.92057434 C14.3121229,6.55010425 13.0384698,5.70820497 12.6699474,5.47240438 C12.3010826,5.23660378 11.2620994,4.81574013 10.9437289,5.33773489 C11.3291968,5.35459007 11.5303179,5.37144526 11.8317429,5.53999711 C12.1335102,5.70820497 13.2394197,6.65106337 13.5747358,6.81961522 C13.9098806,6.98799508 14.4463178,7.32492678 14.9824126,7.32492678 C14.4463178,7.62814812 13.7424794,7.66168649 13.2397621,7.45959627 C12.7368736,7.25767803 11.7983654,6.61752499 11.5974154,6.48285551 C11.3962942,6.34801403 10.6922847,6.24705491 10.2900424,6.55010425 C10.8263084,6.55010425 11.2620994,6.92057434 11.4630493,7.15637493 C11.6641705,7.39217553 11.9994865,7.96473584 12.6362275,7.93102547 C12.1670589,8.23407481 11.2954769,8.13311569 10.8596859,7.82989436 C10.4240661,7.52684501 9.28443665,7.62797612 8.74817065,8.09957731 C8.21173349,8.57100651 7.94385725,9.91821736 8.74817065,10.6928679 C9.55265523,11.4673464 10.5580898,11.4673464 11.1614532,11.6696087 C11.7648166,11.8715269 12.9044461,12.5452183 13.9432582,13.4209999 C14.9822414,14.2964376 16.7923317,16.0141185 17.194574,16.3171679 C17.5966451,16.6203892 18.3342034,16.8895562 18.903847,16.418127 C19.4736617,15.9466978 19.4402841,15.5762277 19.1051393,14.5322382 C18.7698233,13.4882487 18.9711156,12.9492268 19.2727117,11.8715269 C19.4402841,12.1073275 19.1385168,12.7810189 19.239163,13.4880767 C19.339638,14.1951345 19.8206171,15.3375033 19.7752578,15.777974 C19.7249347,16.2666023 19.3730155,17.0916464 18.6693483,17.2261439 C17.9655099,17.3608134 17.194574,17.1588952 16.0884933,16.0813673 C14.9822414,15.0034954 13.5408447,13.6901669 12.9713723,13.2522761 C12.4017288,12.8145573 12.0159185,12.5619015 11.6138474,12.5954399 C11.8818948,12.8651228 13.2505456,13.6855232 13.8090633,14.2288449 C14.3287261,14.7341564 16.0549446,16.5526245 16.8257093,17.0916464 C17.596474,17.6304964 18.903847,18.2704774 21.4511532,17.596958 C20.7134238,18.1358079 19.440113,18.4725676 18.0658137,18.1358079 C16.6916856,17.7990482 15.686251,16.687638 14.7475716,15.7781459 C13.8090633,14.8689979 12.0662416,13.3196968 10.5243699,12.9156884 C9.95472635,12.7977021 12.334289,13.8250084 14.6804741,16.2162088 C15.9960632,17.5567119 17.0268304,19.0114176 17.6971201,20.0554071 C18.0991912,20.6953881 19.6076854,22.3793587 19.9092815,22.7833671 C19.3059181,22.682408 18.6693483,21.8403368 18.032265,21.0993966 C17.3953528,20.3584564 16.3563695,18.7419066 15.5183363,17.8998353 C14.680303,17.0577641 12.9041037,15.239296 11.5635243,14.3973967 C10.2226026,13.5553255 7.50806624,12.2082866 6.16731567,11.2652562 C4.82656511,10.3223978 3.78758184,9.24435395 3.351962,7.82989436 C2.91599983,6.41543477 3.50584107,4.94077809 3.68710685,4.39487649 C3.92160555,3.6874747 4.52496898,3.01361129 3.95515426,2.00350415 L3.95515426,2.00350415 L3.95515426,2.00350415 L3.95515426,2.00350415 Z M4.29047028,13.0837243 C4.9943087,13.3869456 6.4021567,13.8920852 7.07227524,13.9593339 C7.27339638,14.8686539 8.4130258,18.4385133 10.6253584,20.7961753 C12.8373486,23.1536652 14.7812915,24.4669937 18.3006547,25.3764857 C16.1555907,25.7806662 11.7648166,24.399745 8.78189054,21.5706538 C5.79845094,18.7417346 4.62561513,14.8349436 4.29047028,13.0837243 L4.29047028,13.0837243 L4.29047028,13.0837243 L4.29047028,13.0837243 Z M3.58628953,12.7132542 C4.22337284,15.3400831 5.16170996,18.7417346 8.31220848,21.772916 C11.462707,24.8037534 15.4515812,25.8816253 18.13274,25.8816253 C16.2558946,26.2858058 11.0945269,25.7806662 6.70358167,22.3791867 C2.31280757,18.9775352 0.53643716,13.8920852 5.32907052e-15,9.10968446 C2.48020882,10.1199636 1.97783388,12.241653 3.58628953,12.7132542 L3.58628953,12.7132542 L3.58628953,12.7132542 L3.58628953,12.7132542 Z" id="Shape" fill="#2E3192" fill-rule="nonzero"></path>
    </g>
</svg>