<?xml version="1.0" encoding="UTF-8"?>
<svg width="28px" height="28px" viewBox="0 0 28 28" version="1.1" xmlns="http://www.w3.org/2000/svg" xmlns:xlink="http://www.w3.org/1999/xlink">
    <title>IX</title>
    <g id="IX" stroke="none" stroke-width="1" fill="none" fill-rule="evenodd">
        <path d="M19.7757157,13.7756101 L19.8816407,13.8831075 C19.9398994,13.9422284 20.0216147,14.0145454 20.0632302,14.0438129 C20.1048447,14.0730804 20.1388927,14.1001576 20.1388927,14.1039704 C20.1388927,14.1111814 19.7402313,14.2605835 19.4102398,14.3771218 C18.5991735,14.6635774 17.3831467,15.0513831 16.7447378,15.2271774 C16.6625307,15.2498108 16.5252074,15.2881191 16.4395759,15.3123029 C15.6185612,15.5441715 14.3668651,15.8454366 13.3692664,16.0512826 C10.8475529,16.5716168 8.20601412,16.91302 6.1014155,16.990601 C5.81802945,17.0010389 5.08047477,17.0033914 4.84962618,16.994567 C3.5489772,16.9449736 2.5378752,16.7698553 1.68729686,16.4468942 C1.49702702,16.3746493 1.12258546,16.1939876 0.959620773,16.0957923 C0.576802403,15.8651405 0.247316922,15.5583861 0.0924903086,15.2884886 L0.057988255,15.2283402 L0.111730914,15.2884886 C0.526865768,15.7530821 1.03184468,16.0413675 1.84782321,16.2796088 C2.9367073,16.5975222 4.64919578,16.7276712 6.28824965,16.617082 C7.15576912,16.558547 8.92190023,16.3478876 10.2242239,16.1476031 C12.2715387,15.8327543 14.6521227,15.325562 16.4022089,14.8313765 C16.4809907,14.8091217 16.6547467,14.7603936 16.7883329,14.7230768 C17.5679319,14.5053147 18.6637593,14.1609641 19.505788,13.8691543 L19.7757157,13.7756101 Z M10.2677481,10.1923372 C10.6307207,10.1923372 10.9382795,10.268887 11.2393637,10.4340524 C11.4531102,10.5513063 11.7279463,10.8029716 11.8772023,11.0181828 C12.013231,11.214322 12.1173939,11.5000456 12.1752494,11.8361063 C12.2066318,12.0183941 12.2070686,12.4526732 12.1761603,12.6431148 C12.063156,13.3393605 11.7068548,13.8463187 11.1086596,14.1615371 C10.8265902,14.3101641 10.4308276,14.3863302 10.0985813,14.3560711 C9.94364783,14.3419647 9.69400712,14.2943971 9.58907518,14.2588921 C9.41449133,14.1998343 9.16808723,14.0295369 9.08649714,13.9115475 C9.06969388,13.8872477 9.06652524,13.9307087 9.06599563,14.5343345 L9.06589817,15.77573 L8.31850177,15.77573 L8.31850177,10.2662777 L9.04092421,10.2662777 L9.04092421,10.7891431 L9.09998671,10.7233009 C9.18746829,10.6254562 9.26039415,10.5595169 9.36540356,10.4836982 C9.6626807,10.2690548 9.9004606,10.1923372 10.2677481,10.1923372 Z M7.81225721,10.3054483 C7.80703147,10.3137229 7.54466532,10.6800832 7.22922232,11.1195934 C6.56080212,12.0509085 6.46262733,12.1890688 6.46262733,12.1984142 C6.46262733,12.202209 6.54864796,12.3279547 6.65378449,12.4778346 C6.75892158,12.6277235 6.96997779,12.9289886 7.12279901,13.1473096 C7.27562069,13.3656396 7.47011349,13.6430635 7.55500516,13.7638021 C7.63989721,13.8845407 7.70521818,13.9833309 7.70016287,13.9833309 C7.69510793,13.9833309 7.69967753,13.9900912 7.71030382,13.9983658 C7.72605392,14.0106154 7.91773795,14.275339 7.94957454,14.3288083 C7.95562586,14.3389758 7.88192302,14.3426836 7.62779466,14.34342 L7.08936988,14.3436449 L6.64609774,13.7022024 C6.40229821,13.349406 6.15295588,12.9990432 6.09200311,12.9236075 C6.0310507,12.8481717 5.97102006,12.7713659 5.95860177,12.7529239 C5.94618395,12.7344909 5.93138379,12.7209523 5.92571276,12.7228542 C5.92004183,12.7247471 5.86030369,12.8047978 5.79296206,12.9007307 C5.59837499,13.1779292 5.45950319,13.3734906 5.31034634,13.5803732 C5.23402585,13.6862211 5.14080184,13.8161357 5.10318166,13.8690642 C5.06556196,13.9219927 4.97414563,14.0506543 4.9000348,14.154979 L4.76528741,14.3446634 L4.32996364,14.343762 L3.89463996,14.3428607 L3.91266656,14.3162883 C3.92258211,14.3019384 3.96650061,14.2401314 4.0102638,14.1791988 C4.05402746,14.1182661 4.16608979,13.9613014 4.25929187,13.8303954 C4.68736018,13.2291631 5.06018586,12.7073055 5.20962122,12.5001796 C5.29934859,12.3758184 5.38385788,12.2556629 5.39741996,12.2331701 L5.4220779,12.1922731 L5.38383585,12.1405155 C5.20911675,11.9040445 4.37039259,10.7574415 4.19329536,10.5129511 C4.17412617,10.4864877 4.13050914,10.4269441 4.09636909,10.3806316 L4.03429575,10.2964283 L4.47872289,10.2932645 C4.82407177,10.2908037 4.92641129,10.2935349 4.93777995,10.3052942 C4.96116911,10.3295798 5.63470025,11.2674939 5.74966432,11.435869 C5.81069354,11.5252525 5.85039084,11.5948356 5.84508475,11.6031273 C5.83991034,11.6112126 5.84132341,11.6141457 5.84836915,11.6099417 C5.85517315,11.6058765 5.87337755,11.6242726 5.88882292,11.6508126 C5.90426829,11.6773534 5.92152097,11.6974324 5.92716214,11.6954331 C5.93935279,11.6911155 6.12789307,11.4397828 6.27730808,11.2286781 C6.56064634,10.8283587 6.68249842,10.6631401 6.68945194,10.6698563 C6.69257394,10.6728758 6.69513221,10.66836 6.69513221,10.6598249 C6.69513221,10.6512889 6.75298725,10.5646816 6.8236999,10.4673606 L6.95226713,10.2904126 L7.58050576,10.2909369 C7.76605237,10.2922331 7.81811471,10.2961795 7.81225721,10.3054483 Z M25.2892929,11.8118442 L25.3577996,11.8337277 C25.3954774,11.8457637 25.5103801,11.874412 25.6131393,11.8973906 C26.0695891,11.9994627 26.2816127,12.0644786 26.5463902,12.183565 C26.7573815,12.2784622 26.8253432,12.3224833 26.9343174,12.4348428 C27.1142623,12.6203809 27.1984192,12.8555756 27.1849605,13.135316 C27.1766912,13.3071984 27.1442345,13.4201762 27.0484511,13.6104645 C26.9920618,13.7224959 26.971409,13.7497173 26.8657379,13.8513378 C26.7341126,13.9779263 26.682531,14.0160813 26.5340179,14.096745 C26.3569663,14.1929122 26.1593786,14.2590819 25.9183021,14.3029516 C25.8150586,14.3217361 25.2147373,14.3372487 25.0900037,14.3243501 L25.09,14.3243195 C24.827301,14.2971612 24.5881668,14.240492 24.3992665,14.1606486 C24.0613726,14.0178264 23.7137579,13.5669518 23.6161741,13.144948 C23.6021937,13.0844931 23.5618662,13.0965805 23.968994,13.0392353 C24.1334082,13.0160881 24.2799249,12.9944372 24.2945875,12.9911291 C24.3172022,12.9859913 24.3225642,12.9920305 24.3299292,13.0301314 C24.3488656,13.1282997 24.4544649,13.3629355 24.5234588,13.4601484 C24.5955383,13.5617148 24.9164306,13.7182198 25.1900132,13.7852457 C25.3464605,13.823572 25.4730944,13.8324956 25.6247014,13.8158743 C25.8708934,13.7888782 26.0632732,13.7225103 26.1942125,13.6194025 C26.2329309,13.5889092 26.2684293,13.5676548 26.2730979,13.5721617 C26.2777645,13.5766685 26.2797152,13.5748658 26.2774379,13.5681055 C26.2751512,13.5613452 26.2941539,13.5311944 26.3196582,13.5011066 C26.3746306,13.436235 26.4263065,13.3318923 26.4393088,13.2594942 C26.4505909,13.1966777 26.4060476,13.0177466 26.3604803,12.9428517 C26.3079271,12.8564734 26.2267756,12.789177 26.1324911,12.7537802 C25.9839986,12.6980304 25.6132774,12.5920473 25.3258609,12.5231555 C24.9177448,12.4253478 24.487895,12.3032057 24.458089,12.2765792 C24.4473034,12.2669445 24.9437717,11.9917885 24.9675857,11.9942014 C24.9765364,11.9951118 24.9816371,11.9923717 24.9789164,11.9881262 C24.9762004,11.9838717 25.044919,11.9424736 25.1316323,11.8961206 L25.2892929,11.8118442 Z M23.0774537,12.9367945 L23.0918019,12.9879203 C23.1102716,13.0537474 23.0998006,13.2566189 23.0730932,13.3504425 C23.012154,13.5645271 22.9159646,13.7280537 22.771099,13.8638723 C22.517668,14.1014826 22.2514821,14.2257636 21.8268497,14.3047417 C21.7070049,14.3270326 21.109828,14.3366502 20.9547359,14.3187851 C20.7009987,14.2895536 20.4192327,14.2156773 20.2546943,14.1352299 L20.2023445,14.10964 L21.0520033,13.7990998 L21.2233624,13.8141527 C21.6360706,13.8504058 21.9573186,13.7587454 22.1905419,13.538198 C22.2591718,13.4732903 22.3148433,13.3787726 22.3267508,13.3069244 C22.3308482,13.2822448 22.340497,13.2570966 22.3482054,13.2510484 C22.3559147,13.2450092 22.5010696,13.1826974 22.6707721,13.1125978 C22.8404756,13.0424982 23.0014038,12.9742645 23.0283884,12.9609693 L23.0774537,12.9367945 Z M13.4128615,10.3144719 L13.4128615,10.5490383 C13.4128615,10.6780506 13.4160161,10.7836047 13.4198708,10.7836047 C13.4237255,10.7836047 13.4724231,10.7371409 13.5280862,10.6803518 C13.6442434,10.5618414 13.7415481,10.4911532 13.8813149,10.4237424 C14.201819,10.2691618 14.6012392,10.2805461 14.9604758,10.4545008 C15.0321679,10.4892171 15.0427333,10.4982948 15.0321847,10.5161131 C15.0253807,10.5276055 15.0000659,10.6019668 14.9759308,10.6813577 C14.8746501,11.0145152 14.8663556,11.0373775 14.849088,11.0309778 C14.7771279,11.0043098 14.5564196,10.9497409 14.4762789,10.9388036 C14.1917586,10.8999726 13.9465689,10.9884394 13.7272578,11.2090553 C13.5642249,11.3730588 13.4859285,11.5361636 13.4428411,11.8015461 C13.4241838,11.9164654 13.4209516,12.0768689 13.4162765,13.1202505 L13.4109565,14.3081218 L12.6779795,14.3081218 L12.6779795,10.3144719 L13.4128615,10.3144719 Z M16.8382738,10.1708592 C17.3458553,10.1363331 17.8145402,10.243981 18.1819462,10.4794731 C18.3248377,10.5710604 18.5440975,10.7832729 18.6400452,10.9229403 C18.8180385,11.1820339 18.925735,11.4763369 18.9741862,11.8361063 C18.9970109,12.0055866 19.0017578,12.3265433 18.9822073,12.374288 L18.9822073,12.374288 L18.9688998,12.4072091 L16.5762501,12.4079831 C16.1039845,12.4089591 15.7840752,12.4107437 15.7820747,12.4126667 C15.7728721,12.4215902 15.8046269,12.6598729 15.8294704,12.7681095 C15.9074355,13.1078181 16.0662497,13.379932 16.2713462,13.5252961 C16.5103581,13.6946997 16.7398836,13.7664831 17.0424406,13.7664831 C17.3081869,13.7664831 17.4778633,13.7347966 17.6562169,13.6516993 C17.8514909,13.5607329 17.9950339,13.4048251 18.1531444,13.1122853 C18.2312449,12.9677775 18.2376587,12.9595198 18.2687173,12.9651083 C18.2868062,12.9683532 18.451689,12.9860604 18.6349417,13.0043672 L18.7232416,13.0135734 C18.8639655,13.0288785 18.9679889,13.0433961 18.9679889,13.0482034 C18.9679889,13.0539722 18.9424743,13.1218479 18.9112953,13.1990773 C18.8446544,13.3641544 18.7454708,13.5386392 18.6446026,13.6678957 C18.5638226,13.7714091 18.382024,13.94561 18.2935085,14.0043253 C18.1295563,14.1130847 17.8316127,14.2246088 17.5978835,14.2647017 C17.3337397,14.3100046 16.9258961,14.3209279 16.6824135,14.2891725 L16.6824135,14.2891725 L16.5052677,14.2596809 C15.9285881,14.1407903 15.491459,13.8229028 15.2384805,13.3355153 C15.0751358,13.0208288 14.9934318,12.5940256 15.0126211,12.154931 C15.0416357,11.4909985 15.2292778,11.0311098 15.6181944,10.6708382 C15.9585309,10.3555694 16.323905,10.2058468 16.8382738,10.1708592 Z M2.02922357,10.1651681 L2.18274227,10.1705071 C2.69507338,10.2056344 3.09228978,10.3700452 3.41740454,10.6814012 C3.70184097,10.9538008 3.8720179,11.2971189 3.95425396,11.7644544 C3.97601595,11.8881243 3.98732889,12.3721573 3.96883731,12.3901324 C3.96391668,12.3949097 3.94709846,12.3999982 3.93146745,12.4015756 C3.92000505,12.4026993 3.53056702,12.404057 2.98357556,12.4050567 L2.33495589,12.4059768 L0.76706417,12.4075612 L0.775449598,12.5079092 C0.795745179,12.7494765 0.885596934,13.0453943 0.992376782,13.2219638 C1.07217115,13.3539154 1.13327736,13.424922 1.23245511,13.5015295 C1.39837557,13.6296864 1.53559088,13.6958704 1.724643,13.7386675 C1.87118456,13.7718379 2.2513483,13.7689769 2.41078927,13.733562 C2.55054232,13.7025008 2.68164401,13.6449784 2.78503436,13.5693083 C2.91645022,13.4731411 3.08368108,13.2494128 3.17860236,13.043098 C3.21575419,12.9623442 3.21869354,12.9594885 3.25498259,12.9652843 C3.27571576,12.9686195 3.44112448,12.9860826 3.62266513,13.0041912 C3.80420568,13.0222907 3.95435215,13.038288 3.95625914,13.039577 C3.96389848,13.0447148 3.89023724,13.2270145 3.83284756,13.345022 C3.67045622,13.6789618 3.4178952,13.945503 3.12756066,14.089533 C2.90734741,14.1987792 2.64893392,14.2677306 2.35409651,14.2958624 C2.17858688,14.3126098 1.81246861,14.3093007 1.66229919,14.2895247 L1.66229919,14.2895247 L1.47107859,14.2561453 C1.0971208,14.1748236 0.775535379,14.0046942 0.532819216,13.7580328 C0.413333743,13.6366092 0.291293519,13.4730124 0.304589889,13.4522358 C0.310019746,13.4437629 0.307863772,13.4416404 0.29930342,13.4467782 C0.290360689,13.4520963 0.262920698,13.4102772 0.223470033,13.3312901 C0.056111003,12.9962056 -0.0135815006,12.6291757 0.00216779835,12.1669024 C0.0166408032,11.7420882 0.0834231556,11.4582627 0.241152344,11.1505717 C0.498127873,10.6492744 0.987235512,10.2953522 1.55474701,10.2002593 C1.74114818,10.169026 1.9893032,10.1572434 2.18274227,10.1705071 Z M20.2061983,12.9937972 C20.2262705,12.9913635 20.234174,13.0075521 20.2577052,13.0991945 C20.2873134,13.2145158 20.3332045,13.324447 20.3759185,13.3823781 C20.3902835,13.4018657 20.3980133,13.4240935 20.3930965,13.4317732 C20.3877672,13.4400658 20.3895779,13.4425085 20.3975859,13.4377223 C20.4096501,13.4305113 20.4717542,13.4985107 20.4609863,13.5071278 C20.454117,13.5126262 19.8252132,13.7307128 19.8162252,13.7307128 C19.8118758,13.7307128 19.7850761,13.6941802 19.7566598,13.6495173 C19.6521983,13.4853597 19.5565455,13.267228 19.5353225,13.1447858 C19.5272771,13.0983382 19.5289571,13.093606 19.5555814,13.0878372 C19.5799396,13.0826092 20.1324751,13.0026937 20.2061983,12.9937972 Z M10.2717586,10.9123774 C10.1882131,10.9160757 10.1027299,10.9289211 10.0161856,10.9516364 C9.93064182,10.9740886 9.84605096,11.0076807 9.76516917,11.0500477 C9.68428832,11.0924147 9.60712213,11.143533 9.53602915,11.2016258 C9.46493523,11.2597187 9.39989025,11.3247696 9.34371101,11.3943995 C9.28753177,11.4640294 9.2402136,11.538363 9.20407529,11.6153409 C9.15114582,11.7280853 9.11490045,11.8360295 9.09324187,11.9510663 C9.07158339,12.0661031 9.06441641,12.1882458 9.06954396,12.3293955 C9.07429809,12.4602619 9.0895287,12.5824049 9.11511689,12.6955773 C9.14070517,12.8087498 9.17672916,12.9128742 9.22266907,13.00736 C9.26860936,13.1018459 9.32456833,13.1867684 9.39037771,13.2615748 C9.45618616,13.3363811 9.53177034,13.4010945 9.616966,13.4552286 C9.68333912,13.4974015 9.7533793,13.5325127 9.82605522,13.5603298 C9.8987302,13.588147 9.97400919,13.6086796 10.0508207,13.621771 C10.1276322,13.6348622 10.2061042,13.6405003 10.2848831,13.6384955 C10.3636621,13.6364909 10.442737,13.6269183 10.5213162,13.6094475 C10.6453834,13.5818633 10.7605055,13.5345154 10.8645713,13.4700167 C10.9686371,13.405518 11.0616532,13.3237147 11.1414728,13.2274213 C11.2212925,13.1311279 11.2879297,13.0202978 11.3392593,12.8973294 C11.390589,12.7743611 11.4265746,12.639405 11.4451704,12.4948815 C11.4624594,12.3605142 11.4624734,12.0909541 11.4451704,11.9744808 C11.4310882,11.8797476 11.4091091,11.7898661 11.3799098,11.705478 C11.3507114,11.6210899 11.3143953,11.5422005 11.271811,11.4693963 C11.2292267,11.3965922 11.1803984,11.3299141 11.1261596,11.2699329 C11.0719217,11.2099515 11.0122229,11.1567043 10.9480608,11.1107846 C10.8838997,11.0648649 10.815154,11.0262678 10.7428001,10.9956486 C10.6704462,10.9650294 10.5944803,10.9423018 10.5156649,10.9282218 C10.4368495,10.914142 10.3553041,10.9086792 10.2717586,10.9123774 Z M21.6397946,10.2125558 C21.7634763,10.2302145 21.9597312,10.2714477 22.0508302,10.2989143 C22.1840889,10.3390929 22.369869,10.4228095 22.3599999,10.4382328 C22.3555852,10.4451283 22.3582546,10.446859 22.3660946,10.4421899 C22.3897275,10.4280834 22.5383955,10.5286511 22.6181172,10.6126751 C22.7116391,10.7112427 22.7908026,10.8326519 22.8415293,10.9553113 C22.8882296,11.068236 22.9487573,11.2857439 22.9367182,11.2973725 C22.9319488,11.3019695 22.7719437,11.3224432 22.5811413,11.3428602 L22.2342266,11.3799831 L22.219129,11.3133556 C22.1572723,11.0403818 21.9040243,10.8241871 21.5618453,10.752237 C21.3624143,10.7103035 20.9533732,10.7300543 20.7656825,10.7906814 C20.5732981,10.8528246 20.4320296,10.9706581 20.3703642,11.1204235 C20.337733,11.1996756 20.3386934,11.3296993 20.3723616,11.3910772 C20.4223537,11.4822058 20.5443638,11.5977786 20.6347367,11.6396076 C20.7579564,11.6966391 21.2310335,11.8294814 21.7016896,11.9392124 C22.0294923,12.0156378 22.1983427,12.0679146 22.3833015,12.1502431 C22.4634012,12.1858968 22.5337186,12.2150679 22.539564,12.2150679 C22.5590857,12.2150679 22.7252583,12.3167092 22.784861,12.3651065 C22.8385893,12.4087301 22.928951,12.5139381 22.928951,12.5328669 C22.928951,12.5371934 22.9051304,12.5507501 22.8760151,12.5630177 C22.4507722,12.7422733 22.2107449,12.8405768 22.1983138,12.8405768 L22.1827362,12.83407 L22.1827362,12.83407 L22.1667503,12.8184265 C22.1577996,12.80624 22.1392646,12.7906553 22.1255641,12.7837868 C22.0329559,12.7373843 21.473496,12.5713788 21.3034929,12.5398669 C21.1455252,12.5105814 20.7238673,12.406401 20.5810672,12.3613739 C20.2695016,12.2631272 20.0822198,12.1630065 19.9298595,12.0132357 C19.8552012,11.9398479 19.8271564,11.9003318 19.7713533,11.7898914 C19.6967734,11.6422937 19.6700949,11.5494823 19.658194,11.3962267 C19.6388217,11.1467544 19.7616289,10.8115662 19.942383,10.6205657 C20.0125287,10.5464442 20.1571628,10.4504194 20.311651,10.3754046 C20.5041381,10.2819388 20.8040229,10.2117292 21.0805903,10.195381 C21.2332483,10.1863574 21.517428,10.1951106 21.6397946,10.2125558 Z M25.3204289,10.1922356 C25.558528,10.191881 25.7278516,10.2077406 25.9353635,10.249868 C26.2746911,10.3187571 26.5801909,10.4688605 26.7279433,10.6392908 C26.7570642,10.6728804 26.7787792,10.7022795 26.7761985,10.7046203 C26.7603878,10.7189665 26.6038612,10.8020414 26.4072329,10.9004458 L26.1799707,11.0141808 L26.1386184,10.9894985 C26.115874,10.9759239 26.0864927,10.9533211 26.0733271,10.9392705 C26.0118446,10.8736598 25.8128037,10.7870579 25.6442744,10.7525904 C25.5066337,10.7244406 25.1893011,10.7240142 25.0260367,10.7517791 C24.8993488,10.7733093 24.7559896,10.8193864 24.6762129,10.864217 C24.6045487,10.9044894 24.5075417,11.0097469 24.465019,11.0933743 C24.4146554,11.1924277 24.415123,11.3049188 24.4662697,11.3942861 C24.4862085,11.4291231 24.5210069,11.4784804 24.5435973,11.5039694 C24.5661896,11.5294574 24.5820656,11.5537322 24.5788792,11.5579119 C24.5756965,11.5620943 24.5763965,11.563221 24.5804472,11.5604087 C24.5844979,11.5576054 24.611615,11.5728584 24.6407154,11.594311 C24.6698149,11.6157628 24.7253576,11.6457523 24.7641404,11.6609548 C24.8029251,11.6761564 24.8346566,11.6924009 24.8346566,11.6970529 C24.8346566,11.701704 24.7912174,11.7238533 24.7381256,11.7462722 C24.6850338,11.7686911 24.5110912,11.8481587 24.3515853,11.9228679 C24.1920813,11.9975762 24.0598372,12.0587008 24.0577111,12.0587008 C24.0555831,12.0587008 24.0163821,12.015828 23.9705956,11.9634286 C23.8821995,11.8622471 23.8057203,11.7218974 23.7701518,11.5955667 C23.7411065,11.4924066 23.7318329,11.2966496 23.7506508,11.1839341 C23.7840193,10.9840642 23.8970143,10.7540975 24.0269802,10.6215527 C24.1060662,10.5408954 24.230936,10.4548108 24.2688462,10.4548108 C24.2786173,10.4548108 24.2838038,10.4520977 24.2803701,10.4487807 C24.2708323,10.4395705 24.4395604,10.3527495 24.533382,10.3185894 C24.7623447,10.2352234 25.0272641,10.192695 25.3204289,10.1922356 Z M2.08193492,10.7041115 C1.96690067,10.6974049 1.86039914,10.7028792 1.75982531,10.7210122 C1.65925148,10.7391452 1.56456764,10.7699473 1.47362712,10.81379 C1.37966783,10.8590881 1.29375798,10.9154379 1.21696027,10.9813886 C1.14016266,11.0473394 1.07248381,11.1228735 1.01498101,11.2063792 C0.957478211,11.2898848 0.910144178,11.3812925 0.874069419,11.479255 C0.837994754,11.5772177 0.813301583,11.681716 0.80078815,11.7910378 L0.80078815,11.7910378 L0.792038144,11.8662107 L3.2205294,11.8662107 L3.21506072,11.8030091 C3.20619311,11.7012651 3.15536085,11.4949781 3.11352416,11.3910546 C3.07297882,11.2903386 3.0291769,11.2078416 2.9775345,11.1368398 C2.9258921,11.065838 2.86637984,11.0063258 2.79414893,10.9519884 C2.68808252,10.8721969 2.58385068,10.8145854 2.46930493,10.7747071 C2.35475928,10.7348289 2.22982645,10.7127336 2.08193492,10.7041115 Z M17.0061637,10.7049918 C16.8939443,10.7059238 16.7834376,10.7153641 16.7110342,10.7328074 C16.5888981,10.7622343 16.4754196,10.8099458 16.3730646,10.8734706 C16.2707106,10.9369954 16.1794921,11.0162306 16.1014495,11.108496 C16.0234078,11.2007614 15.9585131,11.3060385 15.9093143,11.421687 C15.8601155,11.5373357 15.8265182,11.663349 15.8106945,11.7970234 L15.8106945,11.7970234 L15.8024914,11.8662107 L18.2340813,11.8662107 L18.2264251,11.8030091 C18.2139418,11.7003759 18.195683,11.6078028 18.1710084,11.5223871 C18.1463348,11.4369713 18.1152632,11.3587544 18.0767641,11.284897 C18.0044018,11.146076 17.9652213,11.0927225 17.875514,11.0102606 C17.7985764,10.9395382 17.711991,10.8799914 17.6173883,10.8326272 C17.5227865,10.7852632 17.420201,10.7500119 17.311321,10.7277021 C17.2323236,10.7115153 17.1183841,10.7040598 17.0061637,10.7049918 Z M26.8605915,10.8523541 C26.8756863,10.8433404 26.9345265,10.9533004 26.9686352,11.0542593 C26.9955898,11.1340432 27.0289901,11.2907718 27.0207357,11.2987426 C27.0171331,11.3022219 26.8574387,11.3219222 26.6658663,11.342514 L26.3175516,11.3799552 L26.3037206,11.3156126 C26.2961092,11.2802239 26.292444,11.2448343 26.2955772,11.236968 C26.2987039,11.2290991 26.3424082,11.1956005 26.3926934,11.1625202 C26.4429805,11.1294408 26.5657186,11.0479768 26.6654463,10.9814898 C26.7651739,10.9150029 26.8529895,10.8568916 26.8605915,10.8523541 Z M27.5126167,10.3728916 C27.2315152,10.5819275 26.893121,10.8199354 26.8776108,10.8195195 C26.8740548,10.8194387 26.8563849,10.7934729 26.8383361,10.7618501 L26.8055182,10.7043553 L26.8570196,10.6762623 C27.0744146,10.5576735 27.5648956,10.2672699 27.8489184,10.0889787 C28.1046221,9.92846445 28.062931,9.96366117 27.5126167,10.3728916 Z" id="Combined-Shape" fill="#E41B47" fill-rule="nonzero"></path>
    </g>
</svg>