<?xml version="1.0" encoding="UTF-8"?>
<svg width="28px" height="28px" viewBox="0 0 28 28" version="1.1" xmlns="http://www.w3.org/2000/svg" xmlns:xlink="http://www.w3.org/1999/xlink">
    <title>IY</title>
    <g id="IY" stroke="none" stroke-width="1" fill="none" fill-rule="evenodd">
        <path d="M16.8605225,6.63306473 C19.4632541,6.95226954 21.5211484,7.51980073 23.4146597,8.44065407 C25.7976548,9.59957339 27.3495401,11.136679 27.8536854,12.83751 C27.9979399,13.3242171 28.0437882,14.1746326 27.9538932,14.6976602 C27.6257484,16.6069091 25.8421364,18.4498118 23.1163971,19.6959129 C18.8614481,21.6411046 12.8730222,22.0514568 7.86934138,20.7407091 C5.33035017,20.0756099 3.15534998,18.9653486 1.78834901,17.6367239 C-0.00197247906,15.8966139 -0.454119047,14.0176425 0.45918223,12.1136182 C1.89452083,9.12130121 6.52861933,6.94219801 12.3564519,6.5191934 C13.1267411,6.46329636 16.086133,6.53807753 16.8605225,6.63306473 Z M12.4029836,6.98745698 C7.25337089,7.3011854 2.83323127,9.16775618 1.16535838,11.732977 C0.644687816,12.5337272 0.467755496,13.1060424 0.463646986,14.0020316 C0.460238357,14.7750851 0.585296208,15.2803616 0.938725972,15.9219186 C1.79189014,17.4702917 3.69857196,18.8658922 6.2188014,19.7866826 C12.2737012,21.9990219 20.6244346,21.2660657 24.9989122,18.1383495 C25.9865773,17.4321458 26.7256797,16.5954527 27.1512368,15.7016037 C27.5558576,14.8517547 27.6589853,14.0894022 27.4832334,13.2484917 C26.9355384,10.6288217 23.633775,8.38809322 18.9088496,7.42940867 C16.7721185,6.9958919 14.6408544,6.85111353 12.4029836,6.98745698 Z M10.1421886,12.0279472 C10.5541402,12.0195123 10.5671865,12.0239186 10.5356891,12.1608285 C10.517797,12.2386941 10.4564174,12.5202566 10.3993245,12.7864599 L10.3993245,12.7864599 L10.2955134,13.2704603 L9.94369888,13.3085433 C8.93348243,13.4180083 8.31807107,13.5639827 7.77795534,13.8221917 C7.28461982,14.0580546 7.27349943,14.3642923 7.75117942,14.5579805 C8.0284438,14.6703411 8.88452784,14.8261982 9.52975926,14.8816546 C9.76894094,14.9022383 10.0841016,14.9340895 10.2300957,14.9524701 L10.2300957,14.9524701 L10.4956184,14.985895 L10.8053742,15.6112746 L11.1150679,16.2366542 L10.4730048,16.2366542 C8.12821673,16.2366542 5.03556651,15.4231257 4.0900223,14.5576029 C3.78343487,14.2769217 3.7761041,14.1080975 4.05964312,13.8558684 C4.96561363,13.0498936 7.25101014,12.2605997 9.18807114,12.0847255 C9.47850604,12.0583506 9.90785269,12.0327941 10.1421886,12.0279472 Z M13.6026195,12.1272148 L14.2375382,12.1632205 C15.2378767,12.2199359 16.3005268,12.5689776 17.0378897,13.0830038 L17.0378897,13.0830038 L17.3177633,13.2781398 L22.917721,13.2781398 L22.917721,13.5913646 L20.6103322,13.6078568 C18.5355398,13.6227123 18.296296,13.6349241 18.2376499,13.7292188 C18.1902484,13.8053219 18.1947836,13.8614707 18.2539888,13.933797 C18.3183881,14.0123684 18.5706387,14.0301205 20.2192574,14.0330225 L23.4147219,14.0335052 L23.4147219,14.409803 L20.8209984,14.4262322 L18.227275,14.4426614 L18.227275,14.8203441 L20.6035605,14.8368363 L22.9798461,14.8533284 L22.9798461,15.1665532 L17.4794129,15.1665532 L16.9835924,15.4197895 C16.3966964,15.7196066 15.6543013,15.9683736 15.1768698,16.0252148 L15.1768698,16.0252148 L14.8336286,16.0660675 L14.5319491,15.7404421 C14.1858501,15.3669769 13.7212785,14.4601607 13.5607472,13.8446638 C13.4376773,13.3730011 13.4210278,12.5748317 13.5287527,12.3092578 L13.5287527,12.3092578 L13.6026195,12.1272148 Z" id="Combined-Shape" fill="#2A286A"></path>
        <path d="M14.8807816,9.22138713 C12.8965676,9.62084951 11.2033477,11.0692626 10.8297272,12.6866258 C10.6888896,13.2963945 10.7337439,14.1155253 10.9401857,14.7055286 C11.4532149,16.1712521 13.0180222,17.477153 15.0615035,18.1449589 C16.5379689,18.6274485 17.6814438,18.7877119 19.5940275,18.7800323 C20.8214333,18.7751225 21.211579,18.7507619 21.8007115,18.6419893 C22.5183186,18.5094856 23.5769927,18.205577 23.5204588,18.1482322 C23.5038093,18.1314253 23.1364635,18.1513795 22.7040727,18.1925469 C21.6888863,18.2892966 19.4830099,18.2372394 18.7242759,18.0986928 C16.9594878,17.7763406 15.6925083,17.2455705 14.7252203,16.4232924 C13.9913363,15.7994865 13.5158307,15.0792456 13.2490034,14.1873479 C13.0906465,13.6580886 13.0916405,12.4354038 13.2507429,11.9562504 C13.660955,10.721228 14.4893312,9.80308141 15.6438022,9.30391079 L16.0528961,9.1270294 L15.6801454,9.13124686 C15.4751325,9.1335759 15.1154281,9.17411384 14.8807816,9.22138713" id="Path" fill="#E72C2F"></path>
    </g>
</svg>