<?xml version="1.0" encoding="UTF-8"?>
<svg width="28px" height="28px" viewBox="0 0 28 28" version="1.1" xmlns="http://www.w3.org/2000/svg" xmlns:xlink="http://www.w3.org/1999/xlink">
    <title>IZ</title>
    <g id="IZ" stroke="none" stroke-width="1" fill="none" fill-rule="evenodd">
        <path d="M10.1573445,19.0466528 C10.1573445,18.8744247 10.1860457,18.6767109 10.2485435,18.4693349 L2.02593506,19.9807175 C2.04850084,20.2891426 2.08593717,20.5870327 2.13544671,20.8734837 L10.1911827,19.3928647 C10.168617,19.268969 10.1572821,19.1520966 10.1572821,19.0466528" id="path358" fill="#D40E8C" fill-rule="nonzero"></path>
        <path d="M13.9773265,28 C15.5191104,28 17.2486375,27.8014136 18.9268769,27.4929885 L27,26.0079643 L27,21.1258487 L4.59097859,25.2452444 C7.00709834,27.3225163 10.7155721,28 13.9773265,28" id="path362" fill="#009989" fill-rule="nonzero"></path>
        <path d="M14.585178,22.207192 C12.2672663,22.207192 11.0479131,21.2204001 10.5099323,20.2582107 L2.33947469,21.7608142 C2.64887554,22.8205305 3.15556583,23.715063 3.80565804,24.4645984 L17.0056342,22.0384861 C16.3885691,22.1386835 15.5959485,22.207192 14.585178,22.207192" id="path366" fill="#F8A800" fill-rule="nonzero"></path>
        <path d="M2,19.0612355 L10.8448938,17.4347468 C11.5097526,16.6957463 12.7204226,16.0630834 14.7593402,16.0630834 C15.9526231,16.0630834 16.8130451,16.132475 17.4309732,16.224766 L26.9998232,14.4655815 L26.9998232,11.3777983 L2.77959071,15.8311048 C2.30766421,16.7370449 2.02259698,17.8055613 2,19.0612355" id="path370" fill="#70B62B" fill-rule="nonzero"></path>
        <path d="M13.5433771,10.97192 C10.8726175,10.97192 5.92044656,11.6784116 3.46175338,14.7811349 L18.9257538,11.9367484 C18.9257538,11.9367484 17.1892801,10.97192 13.5433771,10.97192" id="path374" fill="#00873B" fill-rule="nonzero"></path>
        <path d="M21.1484837,1.33800851 L3.42133255,4.59714706 L6.42410034,9.04166393 C7.98761814,8.07507971 11.1129275,6.67090727 13.8036739,6.67090727 C16.4952938,6.67090727 18.925317,8.16295482 18.925317,10.2692135 L18.925317,11.9370113 L26.7350964,10.5020752 L26.9923567,10.4546575 C26.8837186,6.1964258 24.7561393,3.01550011 21.1484837,1.33800851" id="path378" fill="#D40E8C" fill-rule="nonzero"></path>
        <path d="M14.4117023,4.39648318e-14 C6.6844804,4.39648318e-14 2.86563187,3.77493961 2.86563187,3.77493961 L19.5159583,0.713514821 C18.0028443,0.246918772 16.2933145,4.39648318e-14 14.4117023,4.39648318e-14" id="path382" fill="#E6420F" fill-rule="nonzero"></path>
        <polygon id="path386" fill="#009EE2" fill-rule="nonzero" points="18.925577 21.6848934 26.9987001 20.2007523 26.9987001 17.2271921 18.925577 18.7113332"></polygon>
        <polygon id="path390" fill="#8E7A3B" fill-rule="nonzero" points="18.925577 17.7866679 26.9987001 16.3025268 26.9987001 15.3895529 18.925577 16.8745666"></polygon>
    </g>
</svg>