<?xml version="1.0" encoding="UTF-8"?>
<svg width="28px" height="28px" viewBox="0 0 28 28" version="1.1" xmlns="http://www.w3.org/2000/svg" xmlns:xlink="http://www.w3.org/1999/xlink">
    <title>J2</title>
    <g id="J2" stroke="none" stroke-width="1" fill="none" fill-rule="evenodd">
        <path d="M22.1678148,19.92778 C20.7375808,24.3251576 16.6536734,27.5091218 11.8494502,27.5091218 C5.85817894,27.5091218 0.984061444,22.5604591 0.984061444,16.4775569 C0.984061444,10.3946547 5.85817894,5.44540561 11.8494502,5.44540561 C13.673634,5.44540561 15.3932652,5.90637371 16.903791,6.71629349 L17.2931197,6.36910123 C15.6757306,5.4676916 13.8209319,4.95394089 11.8494502,4.95394089 C5.59130974,4.95394089 0.5,10.1231175 0.5,16.4775569 C0.5,22.8314098 5.5907321,28 11.8494502,28 C16.9332506,28 21.2470583,24.5890706 22.6871122,19.9019752 L22.1678148,19.92778 Z" id="Path" fill="#003366" fill-rule="nonzero"></path>
        <path d="M4.57755338,20.0286534 C11.1302897,19.4157887 17.6223739,18.3964979 24.0220359,16.7596506 C23.922682,17.2088893 23.8239057,17.6569549 23.7245518,18.1061936 C15.5382525,20.0010892 9.82713619,20.1752718 4.57755338,20.0286534" id="Path" fill="#00B2E2" fill-rule="nonzero"></path>
        <path d="M5.62019169,19.3676979 C11.7570279,18.3888738 18.0405845,16.8382381 24.4939669,14.6219551 C24.3923024,15.0817502 24.2912156,15.5409589 24.1901288,16.000754 C17.0320269,18.2856544 10.928116,19.3055317 5.62019169,19.3676979" id="Path" fill="#00B2E2" fill-rule="nonzero"></path>
        <path d="M6.61950708,18.6656892 C12.638505,17.1420313 18.7672543,15.0090275 24.9710967,12.4561087 C24.8700098,12.9182498 24.7677677,13.3803908 24.6661033,13.8431184 C18.0937273,16.4628951 12.0146549,18.1877134 6.61950708,18.6656892" id="Path" fill="#57C8E7" fill-rule="nonzero"></path>
        <path d="M7.61651192,17.8346564 C13.6851868,15.9626333 19.6545077,13.1458015 25.5625989,9.77123348 C25.4378289,10.3383533 25.3130589,10.9054731 25.1882889,11.4725928 C18.1122117,15.0401106 12.116897,17.3244245 7.61651192,17.8346564" id="Path" fill="#98DAE9" fill-rule="nonzero"></path>
        <path d="M8.90811262,16.9561192 C15.7236746,13.6097019 21.2649651,10.1424711 26.256921,6.62245774 C26.1194429,7.24705192 25.9813872,7.87164611 25.8439091,8.49624029 C20.183625,12.1652179 14.534316,15.2043231 8.90811262,16.9561192" id="Path" fill="#57C8E7" fill-rule="nonzero"></path>
        <path d="M9.90107398,15.8687975 C16.6028411,11.5676015 22.4161996,7.19192342 27.1164477,2.72299604 C26.9489324,3.48599795 26.7802619,4.2501728 26.6121689,5.01258823 C21.0518164,9.88383637 15.361495,13.2384643 9.90107398,15.8687975" id="Path" fill="#00B2E2" fill-rule="nonzero"></path>
        <path d="M27.5,-6.21724894e-15 C26.8674853,0.0170077289 26.236126,0.0334289844 25.6036113,0.0498502398 C23.2595524,2.95934483 20.8958538,5.4764887 18.5194472,7.77546447 C15.9443327,10.266217 13.3565102,12.5000943 10.7663771,14.6976101 C16.4399469,10.8104644 22.0696162,6.45707224 27.5,-6.21724894e-15" id="Path" fill="#00B2E2" fill-rule="nonzero"></path>
    </g>
</svg>