<?xml version="1.0" encoding="UTF-8"?>
<svg width="28px" height="28px" viewBox="0 0 28 28" version="1.1" xmlns="http://www.w3.org/2000/svg" xmlns:xlink="http://www.w3.org/1999/xlink">
    <title>JA</title>
    <g id="JA" stroke="none" stroke-width="1" fill="none" fill-rule="evenodd">
        <path d="M16.4743697,12.7322606 C16.5482304,12.4687181 16.5982982,12.1989557 16.6239588,11.9262831 C17.0727263,10.06246 18.3193027,8.95424086 20.0645096,8.4001313 C21.214873,8.07305176 22.4164043,7.97047427 23.6047865,8.09788972 C24.8115404,8.19901584 26.0009422,8.45287077 27.1450634,8.85349367 C27.2210466,8.86805176 27.2869045,8.91550341 27.3252747,8.98333882 C27.3636449,9.05117423 27.3706765,9.13258509 27.3445156,9.20610885 L26.8957481,12.2285246 C26.4469806,12.1277774 25.9982131,11.9766567 25.5494457,11.8759095 C24.3816724,11.550935 23.1642155,11.4484414 21.9593057,11.5736679 C21.5577823,11.6138402 21.1680534,11.7336678 20.8124554,11.9262831 C20.4287672,12.1601208 20.1823811,12.568598 20.1525739,13.0202838 C20.1227667,13.4719696 20.3132993,13.909873 20.6628663,14.1930949 C21.1066005,14.5135711 21.5935771,14.7680345 22.1088949,14.9486989 C23.1464151,15.268325 24.1624128,15.6553284 25.1505412,16.1072916 C26.0209478,16.4942379 26.764548,17.1231611 27.2946526,17.920741 C27.7657259,18.6548027 28.0088275,19.5143703 27.9927353,20.3890473 C28.1279893,22.9636907 26.360707,25.2438111 23.8541018,25.7286485 C23.4138884,25.8449038 22.9624688,25.9124655 22.5077993,25.9301429 C22.4579362,25.9301429 22.4579362,25.9301429 22.4080732,25.9805165 L20.8124554,25.9805165 C20.5501554,25.9221986 20.2830855,25.8884731 20.0146466,25.8797693 C18.8164256,25.7281752 17.6527543,25.3703882 16.5740958,24.8219238 C16.4743697,24.6204294 16.4245066,24.5700558 16.4743697,24.3685614 C16.6239588,23.3610895 16.773548,22.3032439 16.9231371,21.295772 C17.0228633,21.295772 17.1225894,21.3965192 17.2223155,21.4468928 C18.7009599,22.2152496 20.3468834,22.5963024 22.0091688,22.5551119 C22.4740299,22.5515571 22.9328714,22.4485483 23.3554712,22.2528703 C23.763747,22.079388 24.0791084,21.7378175 24.2220272,21.3142966 C24.3649459,20.8907758 24.3217808,20.4257289 24.1034171,20.0364321 C23.8864653,19.7501764 23.615254,19.5104367 23.3056082,19.3312017 C22.5962352,18.9773592 21.8631007,18.6743697 21.1116338,18.424477 C20.1701282,18.1081945 19.2668958,17.6857499 18.4190288,17.1651371 C17.915312,16.8074103 17.4766906,16.3642979 17.1225894,15.8554236 C16.9431748,15.5164978 16.7930293,15.1625711 16.6738219,14.7975781 C16.5093404,14.2254654 16.4419038,13.6293535 16.4743697,13.0345022 C16.5242327,12.8833814 16.5242327,12.7826342 16.4743697,12.7322606 L16.4743697,12.7322606 Z" id="Path" fill="#153E69" fill-rule="nonzero"></path>
        <path d="M15.7566112,2 C15.7566112,2.0503736 15.8064742,2.0503736 15.8563373,2.0503736 C16.6083169,2.27066235 17.0649318,3.03947912 16.9034614,3.81344948 C16.7538723,4.871295 16.6541462,5.87876693 16.55442,6.93661246 C16.4048309,8.09520518 16.3051048,9.20342431 16.1555156,10.362017 C16.0557895,11.3191154 15.9560634,12.3265873 15.8563373,13.2836856 C15.7067481,14.3415312 15.5571589,15.4497503 15.4075698,16.5075958 C15.2759286,17.6680584 15.0423128,18.8143822 14.709487,19.9330004 C14.3128921,21.390091 13.6162371,22.7461701 12.6651018,23.9125145 C11.4512966,25.3727788 9.60902664,26.1435509 7.72865932,25.977832 C5.91405593,25.9074546 4.16110666,25.2937772 2.69249077,24.2147561 C1.2936705,23.1892415 0.345647715,21.6532602 0.0497488599,19.9330004 C-0.0415995448,19.5627974 -0.00645723023,19.172274 0.14947497,18.8247812 C0.495377539,18.2653276 1.17413299,18.0159802 1.79495578,18.2202981 C2.15625029,18.3394505 2.42409697,18.6486952 2.49303855,19.0262756 C2.59276466,19.3285172 2.64262772,19.6307588 2.74235383,19.9330004 C3.18250813,21.2754615 4.21382764,22.3359455 5.5346849,22.8042954 C6.41355406,23.1866357 7.37733133,23.3257278 8.32701598,23.2072841 C9.51410169,23.0785487 10.5695515,22.3864174 11.1692101,21.3434611 C11.7856202,20.3462224 12.1929241,19.2318132 12.3659234,18.0691773 C12.6651018,16.2053542 12.864554,14.3415312 13.0640062,12.4777081 C13.1637323,11.3191154 13.3133215,10.1605226 13.4629106,8.95155632 C13.6124998,7.64184281 13.7122259,6.28175571 13.811952,4.9720422 C13.8618151,4.46830623 13.9116781,3.91419667 13.9615412,3.4104607 C14.015261,2.73808515 14.5035818,2.18309943 15.1582545,2.0503736 C15.1857931,2.0503736 15.2081176,2.02782057 15.2081176,2 L15.7566112,2 Z" id="Path" fill="#9E202D" fill-rule="nonzero"></path>
    </g>
</svg>