<?xml version="1.0" encoding="UTF-8"?>
<svg width="28px" height="28px" viewBox="0 0 28 28" version="1.1" xmlns="http://www.w3.org/2000/svg" xmlns:xlink="http://www.w3.org/1999/xlink">
    <title>JL</title>
    <g id="JL" stroke="none" stroke-width="1" fill="none" fill-rule="evenodd">
        <path d="M20.3324322,15.7739172 C17.470478,18.5606731 13.1906694,16.7809578 13.6258524,13.3606818 C13.9615476,10.7228459 17.1958183,8.09599581 19.6433415,6.66904985 L19.6445622,6.6391438 L19.2795505,6.27623018 C18.9474332,5.93621117 18.5313359,5.48885934 18.2309803,5.12614164 C17.0444503,3.69919568 14.9692436,3.63877324 13.7296128,5.20426357 L6.68855849,5.86097609 L6.68855849,5.90491968 L14.2374281,6.34130392 C15.5771571,6.41759487 16.0129505,7.63092617 14.7214395,8.60989167 C9.92771202,12.23951 9.07321514,16.0851843 10.144388,19.1313294 L10.1083771,19.1484186 C9.66770082,18.5252741 9.33871953,17.7617543 9.15988554,16.9616148 C6.85579574,15.514528 4.98749935,12.7601194 4.98749935,9.36059463 C4.98749935,4.41755128 9.01584178,0.347886741 13.9993896,0.347886741 C18.9829375,0.347886741 23.0125007,4.41755128 23.0125007,9.36059463 C23.0125007,12.0338296 21.8406192,14.305469 20.3324322,15.7739172 Z M22.0933062,24.229396 L17.7597863,24.229396 L19.2966599,20.2268675 L21.2064605,20.2268675 L19.9912438,23.3810406 L22.4186253,23.3810406 L22.0933062,24.229396 Z M15.3372876,24.229396 L15.3079906,23.441463 L13.5837379,23.441463 L12.9483585,24.229396 L11.3730325,24.229396 L14.5700715,20.5234867 C14.7226602,20.347102 14.9491019,20.2268675 15.1572329,20.2268675 L16.8643956,20.2268675 L17.2464778,24.229396 L15.3372876,24.229396 Z M8.80343827,24.3642784 C8.29012979,24.3642784 7.84396034,24.3111799 7.47652669,24.229396 L7.80245621,23.3792096 C8.67587409,23.4817447 9.42477957,23.406064 9.71713957,22.6425442 L10.6454894,20.2268675 L12.5540692,20.2268675 L11.5323351,22.8891166 C11.0092609,24.2507575 9.72019135,24.3642784 8.80343827,24.3642784 Z M27.9453891,15.2325566 C28.0369423,14.3457506 28.0131385,13.0750485 27.8758086,12.1363646 L27.8520048,12.1363646 C27.5663587,13.4998365 26.6825647,15.3466879 24.7752056,16.8541971 L24.7538432,16.8267323 C26.424995,15.0421344 27.424146,12.8419034 27.5791761,10.5751466 C27.2630123,9.32763694 26.7747283,8.12101925 26.1582699,7.05538723 L26.1369075,7.06393182 C26.4762648,9.3532707 25.9342696,12.377444 23.7119674,14.8303507 L23.6857221,14.8095996 C25.5991848,12.0551911 26.0972344,8.70083048 25.2628792,5.68520174 C22.7128164,2.23685071 18.6173349,0 13.9993896,0 C9.38205473,0 5.28718361,2.23685071 2.73651043,5.68520174 C1.90154491,8.70083048 2.39959452,12.0551911 4.31305717,14.8095996 L4.28864297,14.8303507 C2.06573038,12.377444 1.52495592,9.3532707 1.86431326,7.06393182 L1.84173012,7.05538723 C1.22527166,8.12101925 0.736377377,9.32763694 0.422044596,10.5751466 C0.575854034,12.8419034 1.57378432,15.0421344 3.24554643,16.8267323 L3.22479436,16.8541971 C1.3168249,15.3466879 0.43364134,13.4998365 0.14799524,12.1363646 L0.124191399,12.1363646 C-0.013138457,13.0750485 -0.0369422986,14.3457506 0.0546109384,15.2325566 C0.534960255,16.7406762 1.56401864,18.005275 2.61627051,18.9164941 L2.59734951,18.9457898 C1.4224163,18.214007 0.764453703,17.4987031 0.315842841,16.8676243 L0.295701129,16.8755586 C1.58660177,23.1613227 7.22261904,28 13.9993896,28 C20.777381,28 26.4121775,23.1613227 27.7042989,16.8755586 L27.6841572,16.8676243 C27.2361567,17.4987031 26.5775837,18.214007 25.4026505,18.9457898 L25.3843398,18.9164941 C26.4359814,18.005275 27.463819,16.7406762 27.9453891,15.2325566 Z" id="Shape" fill="#CC0000" fill-rule="nonzero"></path>
    </g>
</svg>