<?xml version="1.0" encoding="UTF-8"?>
<svg width="28px" height="28px" viewBox="0 0 28 28" version="1.1" xmlns="http://www.w3.org/2000/svg" xmlns:xlink="http://www.w3.org/1999/xlink">
    <title>JM</title>
    <g id="JM" stroke="none" stroke-width="1" fill="none" fill-rule="evenodd">
        <g id="Group-14">
            <path d="M13.911942,27.9115362 C21.6886377,27.9115362 27.9103188,21.6874203 27.9103188,13.9987826 C27.909913,6.22168116 21.6886377,8.65008548e-15 13.911942,8.65008548e-15 C6.22168116,8.65008548e-15 9.22675784e-14,6.22168116 9.22675784e-14,13.9987826 C9.22675784e-14,21.6874203 6.22168116,27.9115362 13.911942,27.9115362 L13.911942,27.9115362 Z" id="Path" fill="#0858A5"></path>
            <path d="M25.1452174,5.61744928 C23.1576232,5.09884058 21.7746667,6.56782609 22.2932754,8.81472464 C22.9851594,10.973971 22.6390145,11.9251594 21.8611014,13.2208696 C21.084,14.6034203 19.8743188,15.2944928 19.8743188,15.6394203 C19.8743188,16.0732174 19.7882899,17.1968696 19.4421449,19.3544928 C19.0964058,21.6013913 16.7642899,25.4057391 12.3565217,25.7506667 C7.86434783,26.0955942 5.18486957,24.2824928 3.80272464,21.6013913 C2.41976812,18.9235362 3.71669565,16.0732174 3.71669565,16.0732174 C3.71669565,16.0732174 2.5062029,13.7394783 2.5062029,11.837913 C2.5062029,9.93715942 3.02481159,8.12284058 3.88915942,6.82591304 C4.75310145,5.5302029 6.22249275,3.97478261 8.90115942,3.5426087 C11.5798261,3.11084058 13.1356522,4.06121739 13.7402899,4.32052174 C14.258087,4.57982609 14.8631304,5.0124058 14.5177971,5.27171014 C14.2584928,5.61744928 14.086029,5.35773913 13.3941449,4.83953623 C11.4065507,3.80231884 9.85153623,4.06162319 8.55542029,4.23449275 C7.17246377,4.4937971 4.14846377,6.04921739 3.37055072,9.41855072 C2.5062029,12.8751304 4.14846377,15.122029 4.14846377,15.122029 C4.14846377,15.122029 4.14846377,14.9495652 5.18486957,13.9983768 C6.13605797,13.1344348 8.12284058,12.4429565 9.15924638,12.3561159 C10.1964638,12.3561159 12.0107826,12.5293913 13.2212754,13.3929275 C14.3441159,14.1708406 13.6530435,14.4301449 13.1352464,13.9983768 C10.9743768,12.7018551 9.5053913,12.8747246 8.29571014,13.0471884 C7.17205797,13.2204638 4.83913043,14.5169855 4.57982609,16.0728116 C5.87634783,18.0583768 8.12243478,19.268058 10.7150725,19.354087 C13.3077101,19.5297971 16.9367536,18.4921739 19.0103768,15.6390145 C20.220058,12.7886957 18.8375072,11.4921739 18.1464348,10.9735652 C17.4553623,10.4549565 14.7766957,10.3685217 13.3941449,9.84991304 C12.0111884,9.24568116 11.8387246,8.55501449 11.8387246,8.29530435 C11.8387246,8.03518841 12.1844638,8.38133333 13.6534493,8.38133333 C15.1224348,8.46736232 15.5550145,8.29530435 17.196058,8.64063768 C18.7518841,8.98637681 19.0103768,9.59101449 19.2696812,10.0227826 C19.6154203,10.4541449 19.7882899,10.6274203 19.7882899,9.84950725 C19.7882899,8.98597101 19.9611594,6.82510145 20.1336232,5.70266667 C20.3068986,4.66544928 21.6026087,4.49298551 22.4669565,4.92475362 C23.3313043,5.44336232 24.7130435,5.09762319 24.7130435,5.09762319 C24.7130435,5.09762319 24.7994783,5.18486957 25.1452174,5.61744928 L25.1452174,5.61744928 Z M21.947942,5.96278261 C22.2072464,5.96278261 22.3801159,5.78950725 22.3801159,5.5302029 C22.3801159,5.27171014 22.2072464,5.09843478 21.947942,5.09843478 C21.7746667,5.09843478 21.5153623,5.27171014 21.5153623,5.5302029 C21.5153623,5.78991304 21.7746667,5.96278261 21.947942,5.96278261 L21.947942,5.96278261 Z M4.23408696,20.997971 C4.83872464,22.7250435 6.91356522,24.7134493 10.3693333,25.1444058 C13.7398841,25.4917681 15.7266667,24.3689275 17.4549565,22.208058 C19.2696812,19.9611594 19.0964058,18.1448116 19.1824348,17.3693333 C19.2692754,16.5906087 19.0964058,16.5041739 18.7514783,16.8491014 C17.1096232,18.4929855 14.3437101,20.220058 10.4557681,19.9611594 C6.56742029,19.7022609 4.23408696,16.8491014 4.23408696,16.8491014 C3.71588406,17.8863188 3.62985507,19.3544928 4.23408696,20.997971 L4.23408696,20.997971 Z" id="Shape" fill="#FFE822"></path>
        </g>
    </g>
</svg>