<?xml version="1.0" encoding="UTF-8"?>
<svg width="28px" height="28px" viewBox="0 0 28 28" version="1.1" xmlns="http://www.w3.org/2000/svg" xmlns:xlink="http://www.w3.org/1999/xlink">
    <title>JP</title>
    <g id="JP" stroke="none" stroke-width="1" fill="none" fill-rule="evenodd">
        <path d="M3.92868515,12.4721912 C4.7236214,12.1505474 5.75463869,11.8984815 6.61181031,12.2641279 C6.76096851,12.3744696 6.92241302,12.5290372 6.98464839,12.7118604 C7.17101002,13.2574263 6.88509477,13.7775287 6.59952399,14.1685269 L6.59952399,14.1685269 L5.14606406,15.9624726 C5.02205262,15.9782197 4.72890337,15.9688384 4.72890337,15.9688384 L4.72890337,15.9688384 L5.66806033,14.6318949 C4.74876817,14.5750489 3.77987143,14.644515 2.823261,14.6602621 C2.43802178,15.0102731 1.92888595,15.9907281 1.92888595,15.9907281 C1.92888595,15.9907281 0.597140937,16.0223341 0.000737800304,15.9688384 C-0.0489815987,15.855258 2.42573546,13.0208841 3.92868515,12.4721912 Z M10.9720753,12.0024275 C11.7175218,12.0024275 12.4505672,12.2262677 12.8602642,12.9704039 C13.0466258,13.7271602 12.6615014,14.4143387 12.1894542,14.8618479 C11.4070339,15.5902369 10.4628246,15.8865289 9.44432332,15.9844739 L9.44432332,15.9844739 L6.00335051,15.9844739 L5.81698888,15.9906164 C5.81698888,15.9906164 8.68647567,11.9898372 10.9720753,12.0024275 Z M17.7298947,12.0183161 C18.0919392,12.0876705 18.4744226,12.2988609 18.6364412,12.7056063 C18.759534,13.0964928 18.6751374,13.5599725 18.4127613,13.840629 C17.9913521,14.3009816 17.4442091,14.4554376 16.8850094,14.5404275 C16.8850094,14.5404275 17.437664,15.5338376 17.6241405,15.9688384 L16.0208334,15.9688384 C15.6979444,15.4076371 15.4067471,14.833704 15.1086604,14.2599943 C15.0963741,14.2031483 15.0522811,14.1557952 15.0895994,14.1557952 C15.7729253,14.0990608 16.6490432,14.2188954 17.0714858,13.5725925 C17.1337212,13.4748709 17.1458927,13.3203032 17.1337212,13.2099615 C17.0218812,12.8443151 16.6490432,12.8284563 16.3385553,12.8159479 C14.5744926,12.8443151 12.3225368,15.9782197 12.3225368,15.9782197 L11.8748326,15.9688384 C11.8748326,15.9688384 12.3760455,15.1709833 12.6616163,14.8054485 C13.9411157,13.0397584 15.6555738,11.8354929 17.7298947,12.0183161 Z M22.7110206,12.134912 L19.8553129,15.9782197 L18.0042126,15.9782197 C17.9523115,15.9497408 20.811464,12.134912 20.811464,12.134912 L22.7110206,12.134912 Z M24.8860434,12.4376815 C25.680061,12.1160377 26.7110783,11.8638601 27.5667572,12.2263794 C27.7160302,12.3398482 27.877934,12.4944159 27.9395953,12.6772391 C28.1275645,13.2226933 27.8423382,13.7427957 27.5571119,14.1339055 L27.5571119,14.1339055 L26.1015851,15.9278512 C25.9783774,15.9403596 25.683391,15.9341054 25.683391,15.9341054 L25.683391,15.9341054 L26.6234665,14.5972736 C25.7061264,14.5404275 24.7368852,14.6098936 23.780734,14.6256407 C23.3950355,14.9756517 22.8858997,15.9562184 22.8858997,15.9562184 C22.8858997,15.9562184 21.5535806,15.9877127 20.9572922,15.9341054 C20.9086063,15.8206366 23.3818306,12.983024 24.8860434,12.4376815 Z M10.4289841,12.9971389 L10.3136664,12.9987711 C8.79820079,13.1091128 6.57460688,15.5619814 6.57460688,15.5619814 C8.0157805,15.647083 9.48152675,15.6346863 10.6242692,14.833704 C10.9969924,14.5531592 11.4689248,14.0928066 11.35697,13.5032381 C11.1707232,13.0681256 10.7361091,12.9829123 10.3136664,12.9987711 Z M5.98791469,12.5705207 L5.89162539,12.5700245 C4.89769671,12.7813266 4.00343648,13.3551479 3.27039112,14.1685269 C4.18968328,14.2127529 5.1087458,14.1685269 6.01575165,14.1685269 C6.31395322,14.0139592 6.47528291,13.6356928 6.59952399,13.2983019 C6.66175936,13.1184941 6.62444111,12.8946836 6.52500231,12.7402276 C6.35127147,12.5700245 6.1149608,12.5700245 5.89162539,12.5700245 Z M26.9437008,12.5358993 L26.8472612,12.5354031 C25.8553994,12.7467052 24.960565,13.3204149 24.227979,14.1339055 C25.1453191,14.1747811 26.0659892,14.1339055 26.9735692,14.1339055 C27.2685556,13.9793378 27.4306891,13.6010714 27.5571119,13.2636805 C27.6187731,13.0839844 27.5798473,12.8569352 27.4825902,12.7056063 C27.3075963,12.5354031 27.0709411,12.5354031 26.8472612,12.5354031 Z" id="Combined-Shape" fill="#2B438F" fill-rule="nonzero"></path>
    </g>
</svg>