<?xml version="1.0" encoding="UTF-8"?>
<svg width="28px" height="28px" viewBox="0 0 28 28" version="1.1" xmlns="http://www.w3.org/2000/svg" xmlns:xlink="http://www.w3.org/1999/xlink">
    <title>JU</title>
    <g id="JU" stroke="none" stroke-width="1" fill="none" fill-rule="evenodd">
        <path d="M15.6147766,16.7466233 L16.4227953,17.6698356 L13.0578611,21.5196251 C12.7892327,21.8483259 12.0483226,22.6638079 11.9585212,23.5 C11.9585212,23.5 11.2393342,22.5313776 11.7789184,21.1899743 C11.8454452,20.8597535 14.919834,17.5372152 15.6147766,16.7466233 L15.6147766,16.7466233 Z M15.1448224,19.8926511 C16.0866704,20.8382834 16.1758899,21.1677442 16.1758899,21.1677442 C16.7356456,22.5313776 15.9960932,23.5 15.9960932,23.5 C15.9064857,22.6636179 15.1661575,21.8488959 14.8967533,21.5196251 L14.8967533,21.5196251 L14.4267991,20.9484837 L14.313917,20.8599435 Z M10.5228625,14.612348 L13.6631962,18.1974669 L12.8553715,19.1436692 L9.75964756,15.5792604 L10.5228625,14.612348 Z M17.5686845,4.60236319 C17.950001,4.47088286 19.4308514,4.42680276 19.6556458,4.71256346 C19.9017754,4.93220401 19.947161,4.86551384 20.260787,4.90959395 C20.5294154,4.93201401 20.6199927,4.95500406 20.8217064,5.10833444 C21.0903348,5.32759499 21.1355264,5.6146857 21.1355264,5.6146857 L21.1355264,5.6146857 L21.1355264,6.16549706 L21.1132215,6.53960799 L20.8217064,6.14364701 C20.3053968,6.12160695 19.5873735,6.42940772 19.5873735,6.42940772 L19.5873735,6.42940772 L19.65487,6.64904826 C19.7225605,6.82460869 19.7225605,6.95703902 19.7225605,6.95703902 C19.7225605,6.95703902 19.7669763,7.57359055 19.8567777,7.92547142 C19.8781128,8.05657175 19.8781128,8.21123213 19.9456093,8.40826262 C20.012524,8.63018317 20.3500066,9.02519415 20.5517203,9.2898648 L20.5517203,9.2898648 L21.4272355,10.190657 C21.4489585,10.169947 21.673559,10.0147166 21.6958639,9.99362654 C22.2573651,9.61951562 23.0651898,9.20151458 24.0518415,9.15743447 C25.3077035,9.11411437 26.5191496,9.64155567 27.6407944,10.7412784 L27.6407944,10.7412784 L28,11.0931593 L27.7305958,11.4889302 C27.68618,11.5774705 26.766249,12.984994 25.0829091,13.3368748 C23.9835692,13.5124353 22.8165389,13.1827844 21.6950881,12.3906725 L21.6950881,12.3906725 L22.5029128,11.4672702 C23.3328484,12.0823017 24.1177864,12.2590022 24.8360037,12.1488019 C25.554027,11.9954715 26.0926415,11.5772805 26.4064615,11.2476297 C25.6430526,10.6310781 24.8573388,10.3453174 24.1177864,10.3664075 C22.7721231,10.4108676 21.852192,11.4442801 21.852192,11.4442801 L21.852192,11.4442801 L20.0790507,13.4463151 L19.5406302,14.1059967 L18.5095627,15.2499896 L17.8786254,15.9946014 L17.0715765,15.0939992 L17.4528931,14.630398 L18.7312539,13.1793644 L20.2126861,11.4632802 L20.5718917,11.0657992 L18.7987504,8.88839381 L18.0807271,7.98608157 C17.9249808,8.86768376 17.1163802,10.3846475 16.7802553,10.9128488 L16.7802553,10.9128488 L18.4182097,12.7607934 L17.4753919,13.8601361 L15.9947355,11.8816612 L15.5461164,12.3866825 L14.8057882,13.2452946 L14.7844531,13.2893747 C15.7939915,14.4772577 16.7585323,15.6866106 17.7680708,16.8972936 C17.7680708,16.8972936 18.4185976,17.7762358 19.1137341,17.2712146 C19.3284817,17.060238 19.3576526,16.7646277 19.360731,16.6548226 L19.3603935,16.590172 C19.3562814,16.5051172 19.3116796,16.1683976 18.8887457,15.6220105 L18.8887457,15.6220105 L19.8984781,14.5002477 L20.391707,15.0715791 C20.8182152,15.5102902 22.3211765,16.9856439 24.1164287,17.9525563 C24.1164287,17.9525563 22.6803821,18.9215587 21.3791345,17.7108757 C21.176451,17.5144152 20.8849359,17.2499345 20.5934208,16.9864039 C20.5934208,16.9864039 20.7505247,17.3160547 20.4361228,17.9094262 C20.1897993,18.3496572 19.7409863,18.6133779 19.157956,18.635608 C18.3278264,18.656888 17.7217154,18.261307 17.2736782,17.7771858 L17.2736782,17.7771858 L15.9724306,16.3470523 L13.9983514,14.1700269 L12.3603971,15.9081512 L11.6875654,15.1589793 L13.2136074,13.2897547 L13.1907206,13.2456746 L11.9792745,11.8820412 L11.3739393,12.6298831 C10.9245444,13.2242045 8.61375837,16.0611016 8.61375837,16.6119129 C8.61375837,16.6119129 8.61375837,17.0071139 8.86066374,17.2715946 C9.60099194,17.7769958 10.1840222,16.9406138 10.1840222,16.9406138 L10.1840222,16.9406138 L10.8353248,17.6667956 C10.3642069,18.1951869 9.7136801,18.6791181 8.81605398,18.635418 C8.2330237,18.6131879 7.80729134,18.3494672 7.5824969,17.9092362 C7.24579013,17.3158647 7.38078316,16.9862139 7.38078316,16.9862139 C7.08829825,17.2486045 6.81908799,17.5136552 6.59506937,17.7106857 C6.10087072,18.1742868 5.62994673,18.3276172 5.18113367,18.3276172 C4.44158129,18.3504172 3.88066194,17.9531263 3.88066194,17.9531263 C5.67513837,16.9862139 7.17809965,15.5110502 7.62691271,15.0721491 L7.62691271,15.0721491 L9.24178633,13.1805044 L11.1935607,10.9145588 C10.8574358,10.3863575 10.049611,8.86939376 9.89231313,7.98779158 L9.89231313,7.98779158 L9.17409586,8.89048381 L7.40211827,11.0675092 L8.90585538,12.8063935 L8.09803066,13.7087057 L6.14703213,11.4429501 C6.14703213,11.4429501 5.20460229,10.4102976 3.88124381,10.3646975 C3.1178349,10.3439874 2.35520182,10.6297481 1.61487362,11.2462996 C1.92946946,11.5761405 2.44577904,11.9941415 3.14091561,12.1470919 C3.90335474,12.2572922 4.64445876,12.0807817 5.47381254,11.4872202 L5.47381254,11.4872202 L6.30394215,12.4129025 C5.15999252,13.2034945 3.99296219,13.5126253 2.89362233,13.3363048 C1.21125219,12.984234 0.291321183,11.5767105 0.24690537,11.4879802 L0.24690537,11.4879802 L2.84217094e-14,11.0923993 L0.336124907,10.7405184 C1.4806564,9.64098567 2.67057348,9.11278436 3.94893428,9.15667447 C5.11518879,9.20075458 6.03492585,9.75118594 6.55123543,10.189897 L6.55123543,10.189897 L7.24637199,9.44243518 C7.38214085,9.33223491 7.9199795,8.69459333 8.03189183,8.40750262 C8.07785929,8.21047213 8.10035813,8.05543174 8.14477394,7.92471142 C8.21227046,7.57283055 8.25668627,6.95627902 8.25668627,6.95627902 C8.25668627,6.95627902 8.25668627,6.82460869 8.30187791,6.64828826 L8.30187791,6.64828826 L8.39245513,6.42883771 C8.39245513,6.42883771 7.67520764,6.12084695 7.15889806,6.14307701 L7.15889806,6.14307701 L6.86738292,6.53903799 L6.84430221,6.16492706 L6.84430221,5.6154457 C6.84430221,5.6154457 6.86738292,5.32816499 7.15889806,5.10909445 C7.36061179,4.95557407 7.45099506,4.93277401 7.69751252,4.91016395 C8.01113859,4.86646384 8.07863511,4.93277401 8.32495861,4.71313346 C8.54897723,4.42661275 10.0296336,4.47069286 10.3888392,4.60293319 C10.3888392,4.60293319 10.7032411,4.66924336 10.8828439,5.15203455 L10.8828439,5.15203455 L11.3091582,6.42864771 C11.3091582,6.42864771 11.3989596,6.84683875 11.4212645,7.46187027 C11.4441512,8.03548169 11.488761,8.47476278 11.6006733,8.69535333 L11.6006733,8.69535333 L11.7810519,9.37707502 C12.094872,10.169187 12.4540776,10.564958 12.4540776,10.564958 C12.8346183,11.0262791 13.2611265,11.4665102 13.6653298,11.9285913 L13.6653298,11.9285913 L13.6653298,11.9508214 L14.0012607,12.3465924 L14.3371917,11.9508214 L15.5486378,10.564388 C15.5486378,10.564388 15.8632337,10.189897 16.1770537,9.44243518 L16.1770537,9.44243518 L16.4016542,8.69459333 C16.4922314,8.45215273 16.5368412,7.81318114 16.559146,7.46111027 C16.581257,6.84607875 16.6933633,6.42807771 16.6933633,6.42807771 L16.6933633,6.42807771 L17.0967907,5.15146455 C17.2994742,4.66867335 17.5686845,4.60236319 17.5686845,4.60236319 Z" id="Combined-Shape" fill="#164577" fill-rule="nonzero"></path>
    </g>
</svg>