<?xml version="1.0" encoding="UTF-8"?>
<svg width="28px" height="28px" viewBox="0 0 28 28" version="1.1" xmlns="http://www.w3.org/2000/svg" xmlns:xlink="http://www.w3.org/1999/xlink">
    <title>JV</title>
    <g id="JV" stroke="none" stroke-width="1" fill="none" fill-rule="evenodd">
        <path d="M22.2417328,19.2444096 C24.1358206,21.7950742 26.1365914,24.4916669 28,26.9996921 L28,26.9996921 L26.0729207,26.9996921 L21.1601017,20.3836654 C21.6108841,20.0082236 21.9811917,19.6340132 22.2417328,19.2444096 Z M16.0396208,14.4517155 C16.7409235,14.4406323 17.5481384,15.2383115 18.4276574,15.4447352 C21.4989594,16.1659098 21.837817,17.3154791 21.5814384,18.0692875 C21.1442226,19.3564726 18.9191398,20.7584915 16.5693363,22.3790948 C14.4258074,23.8570025 11.3916596,21.772446 11.1073769,20.3896687 C10.7526401,18.6745508 12.6347028,17.5316006 13.5515301,16.4126639 C13.9876667,15.881904 14.6889694,14.4741896 16.0396208,14.4517155 Z M8.79919834,14.9496877 C9.55800509,14.1817175 10.7151777,16.0185963 10.8332691,16.2862852 C10.976798,16.616009 11.2976181,17.7238625 10.1353581,18.1544122 C8.97494797,18.5869631 8.55222385,17.6325804 8.42056579,17.128297 C8.33145764,16.796572 8.13520388,15.6209881 8.79919834,14.9496877 Z M10.8713482,11.7152541 C11.5011177,11.4658832 12.144608,12.0786892 12.4759115,12.703348 C12.8102983,13.3267754 13.1608726,14.6686066 12.1583288,15.0554394 C11.1531643,15.4413487 10.6388653,14.8213078 10.3730826,13.9854534 C10.1097664,13.1488292 10.0664457,12.0325094 10.8713482,11.7152541 Z M20.0066292,13.4200586 C20.1171664,12.5026198 20.3675326,11.8176194 21.18076,11.9981824 C21.8674169,12.1504218 22.2876744,13.0001303 22.1535497,13.7537847 C22.02035,14.5049762 21.664534,15.088381 20.9727896,14.9806282 C20.2808911,14.8742607 19.8954752,14.3368817 20.0066292,13.4200586 Z M8.0783165,12.9758089 C8.31511601,12.9758089 8.50782394,13.1679169 8.50782394,13.4048193 C8.50782394,13.6417217 8.31511601,13.8341375 8.0783165,13.8341375 C7.840592,13.8341375 7.64880906,13.6417217 7.64880906,13.4048193 C7.64880906,13.1679169 7.840592,12.9758089 8.0783165,12.9758089 Z M16.885994,9.09578165 C17.5455176,8.75943874 18.8315733,9.91901365 19.3250597,11.2457595 C19.5219302,11.7809834 19.5160718,13.0577011 18.4099283,13.4134395 C17.3036306,13.7702555 16.9590688,12.5278648 16.7494026,11.6599923 C16.5371155,10.7919659 16.2933786,9.39795151 16.885994,9.09578165 Z M13.6966006,9.57466623 C14.3374701,9.35869868 15.0495645,9.75969332 15.5617051,10.7999704 C16.0744623,11.8433261 15.7943421,13.0109055 15.0642103,13.2895237 C14.3350035,13.5706048 13.4010637,13.2795181 13.1049102,11.9535419 C12.8102983,10.624795 13.0668311,9.78540008 13.6966006,9.57466623 Z M20.9650813,10.2943015 C21.2018808,10.2943015 21.3953596,10.487641 21.3953596,10.7242355 C21.3953596,10.9597525 21.2018808,11.1526302 20.9650813,11.1526302 C20.7273568,11.1526302 20.5355739,10.9597525 20.5355739,10.7242355 C20.5355739,10.487641 20.7273568,10.2943015 20.9650813,10.2943015 Z M9.761813,9.83127202 C9.9986125,9.83127202 10.1903954,10.0226103 10.1903954,10.2587431 C10.1903954,10.4961073 9.9986125,10.6877535 9.761813,10.6877535 C9.52408849,10.6877535 9.33138056,10.4961073 9.33138056,10.2587431 C9.33138056,10.0226103 9.52408849,9.83127202 9.761813,9.83127202 Z M12.6581361,8.00793937 C12.8975565,8.00793937 13.0885686,8.19943163 13.0885686,8.43725763 C13.0885686,8.67246677 12.8975565,8.86611409 12.6581361,8.86611409 C12.4214908,8.86611409 12.2295537,8.67246677 12.2295537,8.43725763 C12.2295537,8.19943163 12.4213366,8.00793937 12.6581361,8.00793937 Z M16.2754953,7.50735029 C16.5124489,7.50735029 16.7051569,7.69807288 16.7051569,7.93713034 C16.7051569,8.17264735 16.5124489,8.36567893 16.2754953,8.36567893 C16.0371541,8.36567893 15.8459878,8.17264735 15.8459878,7.93713034 C15.8459878,7.69807288 16.0369999,7.50735029 16.2754953,7.50735029 Z M4.29815771,1 C7.77615047,1 10.8577815,4.24982683 12.883219,6.72875877 L12.883219,6.72875877 L12.8338858,6.72460259 C12.2203037,6.72460259 11.6717799,6.97289601 11.276189,7.36665581 C9.17351422,5.0301116 6.32359516,2.59366508 3.03661451,2.59366508 L3.03661451,2.59366508 L0.438911586,2.59366508 L-1.35891298e-13,1.00169326 C0.716559668,1.00169326 1.69425864,1.00132826 2.53614794,1.00093719 Z" id="Combined-Shape" fill="#D35D31" fill-rule="nonzero"></path>
        <path d="M20.3504201,21.0109411 C19.6101133,21.5444717 18.7467818,22.1020159 17.8214754,22.7337557 L17.0779311,23.2449661 C15.9582209,24.015861 14.5446697,24.1226903 13.0990519,23.5435955 C11.6338549,22.9558805 10.3340785,21.7847607 10.1005165,20.6972263 C9.95544593,20.0237708 9.99182918,19.6158491 10.0394666,19.0984814 C9.43590534,19.2156242 8.97510214,19.0837039 8.67617359,18.9290015 C8.10652894,18.6339126 7.67871734,18.0435807 7.47753026,17.2713004 C7.45193864,17.1778633 7.34510136,16.6178562 7.34510136,16.0664693 C7.34510136,15.6654747 7.40460957,15.2018294 7.58698836,14.759273 C6.96986048,14.4654155 6.53958221,13.8367544 6.53958221,13.1055741 C6.53958221,12.0953139 7.36375549,11.271928 8.37739921,11.271928 C8.42657828,11.271928 8.47591151,11.2759303 8.52601557,11.2805482 C8.36722423,11.0142447 8.27472443,10.7062254 8.27472443,10.3751162 C8.27472443,9.3927178 9.07515609,8.59334537 10.058429,8.59334537 C10.2731828,8.59334537 10.4777615,8.63321394 10.6661528,8.70356117 C10.6746319,8.5628667 10.6976027,8.42586661 10.7324443,8.29379237 C8.74477762,6.03760102 6.04008325,3.6167017 3.03738534,3.6167017 L0.721498497,3.6167017 L7.1827642,26.9992303 L24.79704,27 C23.3090264,24.9965661 21.7892546,22.9500311 20.3504201,21.0109411" id="Path" fill="#7B002B" fill-rule="nonzero"></path>
    </g>
</svg>