<?xml version="1.0" encoding="UTF-8"?>
<svg width="28px" height="28px" viewBox="0 0 28 28" version="1.1" xmlns="http://www.w3.org/2000/svg" xmlns:xlink="http://www.w3.org/1999/xlink">
    <title>KA</title>
    <g id="KA" stroke="none" stroke-width="1" fill="none" fill-rule="evenodd">
        <path d="M5.3101254,11.2685512 C5.31509058,11.2585395 5.31881447,11.2541594 5.3244003,11.2554109 C5.40074001,11.2672997 5.47521777,11.453141 5.51121535,11.5213454 C5.55155747,11.5939299 5.61796681,11.6521226 5.65458504,11.7290872 C5.68561744,11.7954144 5.69430652,11.8817649 5.73340734,11.9480921 C5.75885391,11.9994018 5.80726445,12.0394484 5.83767621,12.088881 C5.88112157,12.1508281 5.90656814,12.2327985 5.93946248,12.3035058 L6.05800625,12.5200078 L6.05800625,12.5200078 C6.07041921,12.5531714 6.07724634,12.6082355 6.06669532,12.6432762 C6.06421273,12.6545394 6.05552366,12.6676796 6.04124875,12.6676796 C5.96279885,12.6646762 5.92764534,12.5687645 5.89416014,12.4962401 L5.76568104,12.2709679 L5.76568104,12.2709679 C5.73899317,12.231547 5.70671948,12.190249 5.6849968,12.1458223 C5.65706764,12.0876295 5.64589597,12.0275596 5.61300163,11.9749984 L5.54783359,11.8967824 L5.54783359,11.8967824 C5.49445786,11.8248236 5.44356472,11.7466076 5.40942908,11.6546255 L5.38522381,11.5557605 L5.38522381,11.5557605 C5.36474242,11.4981935 5.33805456,11.439375 5.32129706,11.3824337 C5.3101254,11.351773 5.30516022,11.2892002 5.3101254,11.2685512 Z M5.68003161,9.77744066 C5.66017088,9.74427706 5.63968949,9.70297899 5.62665588,9.66606102 L5.59127895,9.54654692 L5.59127895,9.54654692 L5.40818778,9.13982353 L5.40818778,9.13982353 C5.38398251,9.08601089 5.35108817,8.98464291 5.3721902,8.91456134 C5.37777603,8.90517542 5.39763677,8.91205843 5.40570519,8.92081862 C5.42556593,8.93771329 5.43984083,8.95147931 5.45411574,8.96962543 L5.48452749,9.02719243 L5.48452749,9.02719243 C5.51245665,9.07224487 5.55031618,9.11729731 5.57328015,9.16923276 C5.622932,9.27372938 5.63472431,9.39261776 5.6837555,9.49648865 C5.7135466,9.56469304 5.76940493,9.6235115 5.80229927,9.69547025 C5.81781547,9.73113676 5.82898713,9.76993192 5.84077945,9.81060426 L5.84527914,9.86034966 L5.84527914,9.86034966 L5.84698593,9.9044635 C5.85195111,9.94013001 5.84450333,9.96453342 5.83146973,9.96453342 C5.74147577,9.95827613 5.7135466,9.84627077 5.68003161,9.77744066 Z M8.10055885,11.2328847 C8.18558762,11.239142 8.26689251,11.3868138 8.30661399,11.4431294 L8.40095248,11.5701522 L8.40095248,11.5701522 C8.44005331,11.632725 8.4568108,11.7096896 8.49963552,11.7685081 L8.73729773,12.0584289 C8.74692927,12.0727511 8.7553425,12.0882552 8.76154898,12.1057756 L8.78016842,12.1806284 C8.78544392,12.2102723 8.78730587,12.2378043 8.77830647,12.2428101 C8.71624167,12.2659621 8.56480356,12.0920096 8.52259949,12.0300625 C8.44501849,11.9111741 8.36743749,11.777894 8.28489131,11.6621343 L8.19298575,11.5443372 C8.16433664,11.5039301 8.13926246,11.4594584 8.12252979,11.4021517 L8.09545574,11.246697 C8.09531782,11.2381686 8.09662808,11.2324675 8.10055885,11.2328847 Z M2.53396686,1.16741933 L2.5681025,1.34762908 L2.5681025,1.34762908 L2.61162544,1.72650756 L2.61162544,1.72650756 L2.65157965,1.93503151 L2.65157965,1.93503151 L2.65933775,1.99275495 C2.69037015,2.1110176 2.68478432,2.2392919 2.71705802,2.35567736 C2.76422727,2.52775264 2.78843254,2.71985123 2.83746373,2.89067505 L2.85049734,3.04272703 L2.85049734,3.04272703 L2.89208076,3.2035392 L2.89208076,3.2035392 L2.91132084,3.40189507 L2.91132084,3.40189507 L2.96345528,3.58147909 L2.96345528,3.58147909 L3.00193545,3.80110972 L3.00193545,3.80110972 C3.02365813,3.87682284 3.0491047,3.96129616 3.06151766,4.0395122 L3.10372173,4.32171566 L3.10372173,4.32171566 C3.11861728,4.39805451 3.16082134,4.49191376 3.17757884,4.57763853 L3.18626791,4.66148612 L3.18626791,4.66148612 L3.22847198,4.84169587 L3.22847198,4.84169587 L3.23964364,4.92429201 L3.23964364,4.92429201 L3.30423701,5.16744539 C3.3157075,5.20878981 3.32736189,5.24904499 3.33894732,5.28596296 L3.35756676,5.38169939 L3.35756676,5.38169939 L3.39963291,5.51347313 C3.40508082,5.53124845 3.40928743,5.54710024 3.41156314,5.56128341 L3.43514776,5.68204897 L3.43514776,5.68204897 L3.48107572,5.8484927 L3.48107572,5.8484927 L3.50652229,5.96925826 L3.50652229,5.96925826 C3.52079719,6.02056798 3.54127857,6.06499469 3.55989801,6.1138015 C3.5946543,6.21391802 3.60086078,6.32279475 3.63499642,6.41790545 L3.70264706,6.59498655 L3.70264706,6.59498655 L3.74050658,6.78333077 L3.74050658,6.78333077 C3.77091834,6.87844147 3.80939851,6.99107256 3.84477545,7.08868618 L3.94780302,7.43971975 L3.94780302,7.43971975 C3.96456052,7.48101782 3.96207792,7.52544453 3.97573218,7.57425133 L4.08124234,7.91527325 L4.08124234,7.91527325 C4.09924113,7.97346599 4.10172373,8.03103299 4.12344641,8.08609708 C4.16068529,8.17807914 4.21281972,8.25629517 4.24695536,8.35265733 L4.31460599,8.58980835 L4.31460599,8.58980835 L4.43873559,8.89891813 L4.43873559,8.89891813 L4.50390364,9.11542012 L4.50390364,9.11542012 L4.591415,9.29500414 L4.591415,9.29500414 L4.64603203,9.45268767 L4.64603203,9.45268767 C4.66030693,9.49273428 4.702511,9.56031294 4.73044016,9.6147513 C4.7633345,9.68608433 4.76829969,9.76430036 4.79622885,9.8425164 C4.83843291,9.9620305 4.89553253,10.0840475 4.94642567,10.1929242 L4.98676779,10.3249529 L4.98676779,10.3249529 C5.0140763,10.403169 5.06745203,10.4632389 5.09910508,10.5364491 L5.1704796,10.7479452 L5.1704796,10.7479452 C5.2157869,10.8468103 5.24930189,10.8968686 5.24930189,11.0389089 C5.2480606,11.0507977 5.24371606,11.0620608 5.2313031,11.0658152 C5.20337394,11.0764526 5.17296219,11.0314002 5.15744599,11.0170084 C5.08234758,10.9425467 5.06993462,10.8699623 5.02524796,10.7673428 L4.79002237,10.3130641 L4.79002237,10.3130641 L4.702511,10.0671529 L4.702511,10.0671529 L4.62493,9.91822952 L4.62493,9.91822952 C4.5938976,9.84752223 4.57403686,9.77118337 4.53803928,9.70673336 C4.48714614,9.61349984 4.44432143,9.50149448 4.40335866,9.39762358 L4.36922302,9.27998666 L4.36922302,9.27998666 L4.30033109,9.16297547 L4.30033109,9.16297547 L4.23268046,8.95273077 L4.23268046,8.95273077 C4.17558084,8.82445647 4.11103345,8.69367925 4.0626229,8.56039913 L3.95152691,8.1949738 L3.95152691,8.1949738 L3.89566859,8.03854173 L3.89566859,8.03854173 L3.86153295,7.90901597 L3.86153295,7.90901597 C3.82305277,7.79763633 3.76967704,7.67937369 3.72312844,7.56924551 C3.69892317,7.51793579 3.69333734,7.46662607 3.6722353,7.41031052 L3.59341301,7.1975629 L3.59341301,7.1975629 C3.56113931,7.10996094 3.55989801,7.00546431 3.52576237,6.91035361 L3.36977284,6.49829994 C3.34432627,6.42770852 3.32053477,6.3563755 3.30046715,6.28462532 L3.27750317,6.13695344 L3.27750317,6.13695344 L3.17633754,5.80093735 L3.17633754,5.80093735 C3.14033996,5.67516596 3.14406385,5.54188583 3.10620432,5.41924309 L2.95228361,4.93805803 L2.95228361,4.93805803 L2.92807834,4.78976042 L2.92807834,4.78976042 L2.85401435,4.53413883 C2.84098074,4.49198328 2.82774025,4.45124142 2.81449976,4.41369772 L2.77291634,4.24224817 L2.77291634,4.24224817 C2.74746977,4.18030107 2.68354303,4.20220156 2.68788756,4.27290885 C2.69285275,4.33923605 2.71581672,4.42370937 2.72078191,4.4574987 L2.7387807,4.59828757 L2.7387807,4.59828757 C2.75864143,4.68276089 2.7865706,4.75221673 2.80953457,4.83043276 L2.85794512,5.06758379 L2.85794512,5.06758379 L2.89890788,5.19460663 L2.89890788,5.19460663 C2.92311316,5.27657704 2.92311316,5.36543046 2.95104232,5.44051785 L3.00814193,5.63449362 L3.00814193,5.63449362 L3.02738202,5.75213054 L3.02738202,5.75213054 L3.09875654,5.97551554 L3.09875654,5.97551554 L3.11613469,6.09502965 L3.11613469,6.09502965 L3.16206264,6.27273648 L3.16206264,6.27273648 C3.17633754,6.32529766 3.1757169,6.39850787 3.19371569,6.45607487 C3.22661003,6.55994577 3.26384891,6.66819676 3.29922585,6.76518465 C3.33770603,6.87406137 3.34142992,6.98731819 3.38053074,7.09744637 C3.45190526,7.29204787 3.51459071,7.51793579 3.58658588,7.71316301 L3.61327374,7.86959509 L3.61327374,7.86959509 C3.63747902,7.95531986 3.65423651,8.03854173 3.68216567,8.12301505 L3.74050658,8.24002624 L3.74050658,8.24002624 L3.79139972,8.38769812 L3.79139972,8.38769812 C3.80815722,8.427119 3.83236249,8.46591415 3.84725804,8.51034086 C3.87022202,8.57228796 3.86153295,8.64737536 3.88449692,8.70556809 L3.94780302,8.8538657 L3.94780302,8.8538657 C3.9682844,8.90892978 3.96704311,8.96712252 3.99000708,9.01718078 L4.06014031,9.14545508 L4.06014031,9.14545508 L4.10172373,9.27748375 L4.10172373,9.27748375 C4.11848122,9.32566483 4.14392779,9.37322018 4.16440917,9.4157697 C4.18489056,9.46582797 4.18613186,9.52464643 4.20971648,9.57345323 L4.27612582,9.71048773 L4.27612582,9.71048773 L4.31274405,9.8669198 L4.31274405,9.8669198 L4.42011615,10.0840475 L4.42011615,10.0840475 L4.47349188,10.2529942 L4.47349188,10.2529942 L4.56720973,10.4425898 L4.56720973,10.4425898 L4.6702373,10.6941326 L4.6702373,10.6941326 C4.73292275,10.8349215 4.75402478,10.992605 4.81919282,11.1315167 L4.97559612,11.432492 L4.97559612,11.432492 L5.03517833,11.6020644 L5.03517833,11.6020644 L5.14255044,11.777894 L5.14255044,11.777894 C5.16489377,11.8392154 5.18165126,11.9017882 5.20833913,11.9612324 L5.33184808,12.1864946 L5.33184808,12.1864946 L5.38149992,12.3185233 L5.38149992,12.3185233 L5.52114572,12.5556743 L5.52114572,12.5556743 L5.57948663,12.7227437 L5.57948663,12.7227437 L5.73340734,12.9792923 L5.73340734,12.9792923 L5.78894384,13.113708 C5.79905811,13.1357244 5.81036769,13.1572077 5.82402195,13.1776482 L5.98166654,13.4329454 C6.02076737,13.4967696 6.07041921,13.5868745 6.10269291,13.6550789 L6.21440955,13.8434231 L6.21440955,13.8434231 C6.2448213,13.9097503 6.28330148,13.9779547 6.31991971,14.0405275 C6.35839989,14.1099834 6.39750071,14.1612931 6.44094607,14.2263688 L6.62527853,14.5548762 L6.62527853,14.5548762 C6.66996519,14.6318408 6.7283061,14.7075539 6.78044053,14.7795126 L6.91161621,14.9748019 C7.00332736,15.1180517 7.09819422,15.2755455 7.16402272,15.3760634 L7.20744636,15.439656 C7.28006218,15.5335152 7.33840309,15.6473978 7.40357113,15.7450114 C7.45570557,15.821976 7.51901166,15.8989406 7.57300804,15.9702736 L7.73313523,16.2011673 C9.5336351,18.5057246 11.3806836,20.0337531 12.9459579,21.0330412 L13.254832,21.2223286 C13.8796938,21.5919612 14.2139417,21.7056991 14.2139417,21.7056991 C14.3182106,21.7482487 14.2462154,21.8239618 14.194081,21.8596283 L4.91353132,27.8403393 L4.86724588,27.8787841 C4.84295123,27.9043138 4.82366149,27.9379529 4.83967421,27.9736195 C4.86263818,28.0192976 4.95759733,27.9936428 4.9830439,27.9848826 L6.8533703,27.317422 C12.9372289,25.1275264 17.5143394,23.2898278 20.5510891,21.8784068 L21.1378909,21.6018282 C24.4893902,19.9993381 25.6133837,19.0826461 25.4911161,18.6271159 C25.3756755,18.1966149 24.1318969,18.3812047 23.1065864,18.2885969 C22.1768557,18.2028721 20.9827289,18.035177 19.5471701,17.5308399 C18.3959567,17.128586 17.2771183,16.6757631 16.2668698,16.1652782 L15.2659401,15.6342575 L15.2659401,15.6342575 L15.0027854,15.4778254 C14.966374,15.4557164 14.9172738,15.4260985 14.8698288,15.4004669 L14.8016954,15.3664458 C14.7228731,15.3320307 14.6682561,15.2907327 14.6006054,15.2463059 L14.3641386,15.1136515 L14.3641386,15.1136515 L14.2703977,15.0528169 L14.2703977,15.0528169 L14.0436773,14.8904519 L14.0436773,14.8904519 L13.7434905,14.7113083 L13.7434905,14.7113083 L13.5032998,14.539233 C13.4474414,14.4985606 13.4064787,14.4729058 13.338828,14.4328592 L13.1544956,14.2970761 C13.1228425,14.2726727 13.0731907,14.2457664 13.0452615,14.2151057 L12.9452596,14.1224979 L12.9452596,14.1224979 L12.5071597,13.7627042 L12.5071597,13.7627042 L12.2390398,13.5587167 L12.2390398,13.5587167 L12.053466,13.3960274 L12.053466,13.3960274 L11.8381012,13.2239521 L11.8381012,13.2239521 C11.7884493,13.1870341 11.732591,13.1457361 11.6959728,13.1075666 L11.5494998,12.9492574 L11.5494998,12.9492574 C11.5128816,12.9060821 11.4390245,12.8622811 11.3980617,12.8184802 C11.3335143,12.7377612 11.2453823,12.6532879 11.1615948,12.5882122 L11.0970474,12.5197992 L11.0970474,12.5197992 L11.037856,12.4453607 C11.0286382,12.4346306 11.0176045,12.4221856 11.0039502,12.4073767 L10.8376166,12.2471902 L10.8376166,12.2471902 L10.6961088,12.0619747 L10.6961088,12.0619747 L10.4937776,11.8442212 L10.4937776,11.8442212 L10.4672449,11.8102755 L10.4672449,11.8102755 L10.4435051,11.7735139 C10.4267476,11.750362 10.4099901,11.7265843 10.3938532,11.7071867 C10.3628208,11.6727717 10.3398569,11.6840348 10.3348917,11.6890406 C10.3162722,11.7009294 10.3094451,11.7378474 10.3311678,11.777894 L10.359074,11.8292269 L10.359074,11.8292269 L10.4441257,11.9585731 L10.4441257,11.9585731 L10.4571593,11.9825072 C10.4701929,12.0056591 10.4850885,12.031314 10.501846,12.0532145 C10.5397055,12.1057756 10.579427,12.1483252 10.6210104,12.1889975 C10.6315614,12.2021378 10.6452157,12.2171553 10.6594906,12.2302956 L10.696264,12.2737837 L10.696264,12.2737837 L10.763837,12.3700676 L10.763837,12.3700676 L10.8400992,12.4624408 L10.8400992,12.4624408 C10.8500295,12.4818383 10.8655457,12.4993587 10.8804413,12.5150019 C10.9046466,12.5369024 10.9276105,12.5594287 10.9480919,12.5850835 L11.0635324,12.6958374 C11.090841,12.7202408 11.1212527,12.752153 11.1491819,12.7803107 C11.2280042,12.8722928 11.3105503,12.9623977 11.3769597,13.0493739 C11.4160605,13.0994322 11.487435,13.1369759 11.5321217,13.1701395 C11.5817735,13.205806 11.6196331,13.2715075 11.6587339,13.3215657 L11.7847254,13.4510915 L11.7847254,13.4510915 C11.8419802,13.5261789 11.8856195,13.5745164 11.9457545,13.6256697 L12.0125032,13.6788566 C12.0522247,13.7080572 12.086981,13.7361455 12.1193467,13.7694249 L12.166424,13.8240255 C12.1955944,13.859692 12.2800025,13.9447911 12.3141382,13.984212 C12.3954431,14.0918372 12.4345439,14.1881994 12.4208896,14.1932052 C12.3985463,14.1994625 12.3631942,14.1832937 12.3236515,14.1582746 L12.0948885,13.9940382 L12.0948885,13.9940382 L11.8921169,13.8302144 L11.8921169,13.8302144 L11.7670485,13.7004326 L11.7670485,13.7004326 L11.7301084,13.6575818 C11.6844287,13.5990136 11.6510627,13.5622709 11.6190074,13.5311346 L11.4464723,13.3741269 C11.3502718,13.2790162 11.2329693,13.1957943 11.1398721,13.111321 L11.0560847,13.0212161 L11.0560847,13.0212161 L10.9605049,12.9304855 L10.9605049,12.9304855 L10.8596841,12.7855947 C10.8418232,12.7616779 10.8237554,12.7408899 10.8059635,12.7277496 L10.657008,12.6057325 C10.6365266,12.5907151 10.6185278,12.5675631 10.5999084,12.5519199 C10.5725999,12.5300194 10.5421881,12.5087447 10.5210861,12.4843413 L10.3311678,12.2365529 L10.3311678,12.2365529 L10.2306228,12.1226703 L10.2306228,12.1226703 L10.0524968,11.8611159 L10.0524968,11.8611159 C9.96250287,11.7453561 9.83651133,11.6621343 9.75148255,11.5432459 C9.66459183,11.4249833 9.6124574,11.2854458 9.52991121,11.158423 L9.40019578,11.013254 L9.40019578,11.013254 L9.34185486,10.914389 L9.34185486,10.914389 C9.3008921,10.8468103 9.24751637,10.7811088 9.20220906,10.7160331 L9.04642641,10.4463442 C9.03525475,10.4338296 9.01601466,10.3725083 8.98063772,10.3262044 L8.94652507,10.2796687 L8.94652507,10.2796687 L8.87512756,10.1660179 C8.83416479,10.1028194 8.81554535,10.0596441 8.78823684,10.0158431 L8.64362585,9.78745231 C8.59025013,9.70423045 8.57721652,9.66606102 8.5201169,9.58909644 C8.48473996,9.54154109 8.44750108,9.50524885 8.41833063,9.51338332 C8.39288406,9.53215517 8.40343508,9.56093867 8.40715896,9.58221343 L8.43245037,9.64212691 L8.43245037,9.64212691 L8.56480356,9.88131155 L8.56480356,9.88131155 C8.58176794,9.90592353 8.60314581,9.95000262 8.62489148,9.98926127 L8.74044694,10.177281 L8.74044694,10.177281 L8.79598345,10.3050223 C8.8066494,10.3282901 8.81782106,10.3495649 8.82919961,10.3643738 L8.85620929,10.4043277 L8.85620929,10.4043277 L8.9105045,10.5045369 C8.95519116,10.596519 9.01353207,10.6684777 9.06070132,10.7429394 L9.15628111,10.921272 L9.15628111,10.921272 L9.35737106,11.2059784 L9.35737106,11.2059784 L9.4715703,11.4124687 L9.4715703,11.4124687 L9.59632055,11.5739066 L9.59632055,11.5739066 L9.71176108,11.7879057 L9.71176108,11.7879057 L9.82906355,11.9443377 L9.82906355,11.9443377 L10.0047069,12.2121494 L10.0047069,12.2121494 L10.1213888,12.346681 L10.1213888,12.346681 C10.1697993,12.4098796 10.2076588,12.4893471 10.2573107,12.5444112 L10.3052845,12.594678 L10.3052845,12.594678 L10.4584676,12.791603 C10.5330811,12.8940911 10.6151586,13.0194283 10.5943225,13.0212161 C10.491295,13.0343564 10.2982734,12.8109714 10.214486,12.729001 L10.087552,12.6161845 C10.068082,12.5978762 10.0502211,12.5792434 10.0351187,12.5594287 C9.97119195,12.4699495 9.9240227,12.3710844 9.85699271,12.2853597 L9.77320523,12.1996349 L9.77320523,12.1996349 C9.72851857,12.1401907 9.68755581,12.0788693 9.63418008,12.0300625 L9.56839139,11.9637353 L9.56839139,11.9637353 L9.34557875,11.6452396 L9.34557875,11.6452396 L9.24006859,11.5188425 L9.24006859,11.5188425 C9.21338073,11.4850532 9.20034712,11.4456323 9.17800379,11.4105915 L9.07373492,11.2660483 L9.07373492,11.2660483 L9.01353207,11.158423 L9.01353207,11.158423 L8.87388627,10.9725817 L8.87388627,10.9725817 L8.79630526,10.796752 L8.79630526,10.796752 L8.52880597,10.3925316 L8.52880597,10.3925316 L8.47667154,10.2849063 L8.47667154,10.2849063 L8.27247835,9.9463873 L8.27247835,9.9463873 L8.21103419,9.82124164 L8.21103419,9.82124164 L8.10055885,9.68483287 L8.10055885,9.68483287 C8.07635357,9.6479149 8.06642321,9.60786829 8.04594182,9.56344158 C8.02049525,9.50775176 7.98698026,9.45018476 7.95656851,9.39762358 L7.90939926,9.29750706 L7.90939926,9.29750706 C7.82561178,9.16923276 7.7573405,9.02719243 7.69093116,8.88390065 L7.56618091,8.66427002 L7.56618091,8.66427002 L7.45198168,8.41272725 L7.45198168,8.41272725 L7.39177882,8.24503206 L7.39177882,8.24503206 C7.3514367,8.15805583 7.2893719,8.08484562 7.25089172,7.99348929 L7.18510303,7.82329119 L7.18510303,7.82329119 C7.16834554,7.7901276 7.13793379,7.76572419 7.1174524,7.77949021 C7.09572972,7.79388196 7.08952324,7.82078828 7.10441879,7.86959509 C7.13234795,7.96157715 7.18199979,8.0666995 7.20496377,8.11926068 C7.25337431,8.22313157 7.27757959,8.33075684 7.32350754,8.43838211 L7.4135015,8.60920593 L7.4135015,8.60920593 L7.54880277,8.90517542 C7.57424934,8.96211669 7.59411007,9.01592932 7.62328053,9.0684905 C7.64127932,9.09414536 7.6642433,9.12480605 7.67665626,9.15796965 C7.70520607,9.22492257 7.71637773,9.2962556 7.74803078,9.35945416 L7.85912677,9.54904983 L7.85912677,9.54904983 C8.01801266,9.88756884 8.17689855,10.2116961 8.36867879,10.5120457 C8.42205452,10.596519 8.44750108,10.697887 8.5033594,10.7823603 L8.68831251,11.0207628 L8.68831251,11.0207628 C8.73361982,11.0902186 8.74417083,11.1890837 8.78575425,11.2647968 C8.8471984,11.3786794 8.92850329,11.4737901 8.99615392,11.5801639 L9.04021993,11.6740231 L9.04021993,11.6740231 L9.12400741,11.7954144 L9.12400741,11.7954144 L9.21338073,11.9662382 L9.21338073,11.9662382 L9.35302653,12.1264247 L9.35302653,12.1264247 L9.48832779,12.346681 L9.48832779,12.346681 L9.61928452,12.4762068 L9.61928452,12.4762068 L9.93457371,12.8954447 L9.93457371,12.8954447 L10.102459,13.0970075 C10.132638,13.1343556 10.162274,13.1728184 10.1889036,13.2112518 L10.3260388,13.4456551 C10.3401796,13.4728168 10.3484218,13.495393 10.3404775,13.5036526 C10.2995147,13.5330619 10.1009074,13.3146827 10.0667717,13.2827706 C9.98422555,13.2008002 9.91285103,13.090672 9.83899392,12.9980642 C9.82285707,12.9767894 9.63169748,12.7878195 9.61618128,12.7671704 L9.58677809,12.7294703 L9.58677809,12.7294703 L9.56156426,12.6908316 C9.50570594,12.6107384 9.47529419,12.5150019 9.41695327,12.4380374 L9.33316579,12.3523126 L9.33316579,12.3523126 L9.21710461,12.1683485 L9.21710461,12.1683485 L8.99553328,11.8967824 L8.99553328,11.8967824 C8.91857292,11.7954144 8.86643849,11.6740231 8.79258138,11.5739066 C8.7553425,11.5238483 8.70693195,11.4775444 8.67155502,11.4237318 L8.63307484,11.351773 L8.63307484,11.351773 C8.60762827,11.3098492 8.56976874,11.2635454 8.54928736,11.2172415 L8.49094644,11.0964759 L8.49094644,11.0964759 L8.25572085,10.7172846 L8.25572085,10.7172846 L8.16634754,10.5464607 L8.16634754,10.5464607 L7.97332601,10.2799005 L7.97332601,10.2799005 C7.90443408,10.1710238 7.86781584,10.0389951 7.79768262,9.9288669 L7.65183034,9.71674501 L7.65183034,9.71674501 C7.6021785,9.64040616 7.57673193,9.54904983 7.53204527,9.46582797 C7.49356509,9.39386921 7.43894807,9.32629056 7.40481243,9.2543318 L7.30302616,9.01592932 L7.30302616,9.01592932 L7.23165163,8.88390065 L7.23165163,8.88390065 L7.17703461,8.71933411 L7.17703461,8.71933411 C7.10876333,8.56790786 7.00573576,8.42461609 6.93560253,8.27318984 C6.8834681,8.16431311 6.84126404,8.05543639 6.79843932,7.94092811 L6.74071906,7.76134409 L6.74071906,7.76134409 L6.53900846,7.33835177 L6.53900846,7.33835177 L6.46080681,7.11809541 L6.46080681,7.11809541 L6.44466996,7.05489685 L6.44466996,7.05489685 L6.35157276,6.86154681 L6.35157276,6.86154681 L6.28330148,6.63691035 L6.28330148,6.63691035 C6.18648039,6.39350204 6.09896902,6.11755586 6.00711311,5.86288445 L5.97670136,5.71020675 L5.97670136,5.71020675 L5.83395232,5.31912656 L5.83395232,5.31912656 C5.80726445,5.25467655 5.74395836,5.27657704 5.75885391,5.34352996 L5.79108163,5.46751687 L5.79108163,5.46751687 L5.82650454,5.63449362 L5.82650454,5.63449362 L5.8711912,5.76527084 L5.8711912,5.76527084 C5.89415518,5.84223542 5.89663777,5.9192 5.92332563,5.99366166 L6.03131839,6.30777727 L6.03131839,6.30777727 L6.06421273,6.47046662 L6.06421273,6.47046662 C6.07848763,6.51927343 6.09896902,6.57183461 6.12007105,6.6181385 L6.27026787,7.00921868 L6.27026787,7.00921868 L6.32612619,7.23322941 L6.32612619,7.23322941 L6.39253553,7.3590008 L6.39253553,7.3590008 L6.42791246,7.46662607 L6.42791246,7.46662607 C6.46080681,7.55109939 6.49183921,7.63870135 6.52969874,7.72442612 C6.56259308,7.79388196 6.59859067,7.86396353 6.62651983,7.93967666 L6.65196639,8.0422961 L6.65196639,8.0422961 C6.73202999,8.2656811 6.82078265,8.49907775 6.91387985,8.70932246 L6.96849688,8.87076036 L6.96849688,8.87076036 L7.03614751,9.00404049 L7.03614751,9.00404049 L7.06655926,9.09101672 L7.06655926,9.09101672 L7.17331072,9.26684637 L7.17331072,9.26684637 C7.25461561,9.44017311 7.32847272,9.60286246 7.43150029,9.7517858 C7.52459749,9.88756884 7.56618091,10.0696558 7.63879673,10.234848 C7.67417366,10.3093097 7.71886032,10.3762626 7.76106439,10.4450927 C7.78278707,10.4801335 7.79768262,10.5195544 7.81444011,10.5570981 L7.89342332,10.7168674 L7.89342332,10.7168674 L7.94043166,10.7917462 C7.98698026,10.8530676 7.98201508,10.8674593 8.01925396,10.9544356 L8.05415424,11.0830603 C8.06173111,11.1156983 8.06654734,11.1415283 8.06331997,11.1415283 C8.04966571,11.1509143 7.96960212,11.1033589 7.94167296,11.0726982 C7.90691667,11.0326516 7.84981705,10.9800904 7.81071623,10.8906113 L7.73065263,10.7272962 L7.73065263,10.7272962 C7.68100079,10.617168 7.59659266,10.5264374 7.53452786,10.4288238 C7.49666833,10.3725083 7.47618695,10.3080583 7.44701649,10.244234 L7.28130348,9.89883195 L7.28130348,9.89883195 C7.2570982,9.84939941 7.22296256,9.80184406 7.1962747,9.75929454 L7.12241758,9.61850567 L7.12241758,9.61850567 C7.06035278,9.52089206 6.98897826,9.40826096 6.93932642,9.3006357 L6.84622922,9.06160749 L6.84622922,9.06160749 L6.79968062,8.98902301 L6.79968062,8.98902301 C6.77547535,8.95022785 6.76244174,8.90392396 6.74320165,8.86074871 L6.64203603,8.67991323 L6.64203603,8.67991323 L6.4955631,8.30635344 L6.4955631,8.30635344 L6.39750071,8.14366408 L6.39750071,8.14366408 C6.35777924,8.05668785 6.35157276,7.94781113 6.31123064,7.85520334 L6.09193501,7.36542031 C6.05635119,7.28210575 6.02262931,7.19798005 5.99283821,7.11308958 L5.95994386,6.97980945 L5.95994386,6.97980945 C5.92208434,6.870307 5.8699499,6.76893902 5.82898713,6.66131375 L5.79112761,6.51677052 L5.79112761,6.51677052 L5.700513,6.29213406 L5.700513,6.29213406 L5.6825142,6.21516948 L5.6825142,6.21516948 L5.59996802,5.99115875 L5.59996802,5.99115875 L5.54038581,5.87414756 L5.54038581,5.87414756 C5.51493924,5.80093735 5.52238702,5.70895529 5.49818175,5.6407509 L5.38149992,5.32538384 L5.38149992,5.32538384 C5.35853594,5.26531393 5.35481206,5.20899838 5.33433067,5.14955419 L5.25923226,4.93930949 L5.25923226,4.93930949 L5.21330431,4.71905313 L5.21330431,4.71905313 L5.1537221,4.55198367 L5.1537221,4.55198367 L5.06745203,4.2585171 C5.0618662,4.23911953 5.05565972,4.22034768 5.04821194,4.20470447 C5.03952287,4.18030107 5.02276537,4.15464621 4.9985601,4.1634064 C4.96814835,4.17028941 4.96938964,4.20845884 4.97063094,4.23286224 C4.97559612,4.30356954 5.00352528,4.37239965 5.02524796,4.43059238 L5.0748998,4.6189366 L5.0748998,4.6189366 C5.08607147,4.65710603 5.08483017,4.69965555 5.0916573,4.73970216 C5.10531156,4.79977208 5.12579294,4.85608762 5.14255044,4.90990026 C5.15620469,4.96871872 5.14999821,5.02378281 5.16241117,5.06758379 C5.20089135,5.19210372 5.23999217,5.33038967 5.28095494,5.44865232 L5.31881447,5.63574508 L5.31881447,5.63574508 L5.3877064,5.82283784 L5.43239306,5.97551554 L5.43239306,5.97551554 C5.45535703,6.02932818 5.4820449,6.08314081 5.50190563,6.14321072 C5.52611091,6.21892385 5.52238702,6.29463697 5.55031618,6.36659573 L5.68561744,6.7088691 L5.68561744,6.7088691 L5.71727049,6.83464049 L5.71727049,6.83464049 L5.80974705,7.13624153 L5.80974705,7.13624153 L5.97670136,7.54984793 L5.97670136,7.54984793 C6.02387061,7.68375379 6.03131839,7.84894605 6.0896593,7.97471744 C6.12007105,8.03854173 6.17903261,8.07608543 6.20696177,8.1374068 C6.22433992,8.17682768 6.21937473,8.22188012 6.23116704,8.26818401 L6.29074925,8.42086172 L6.29074925,8.42086172 L6.32736749,8.55038747 L6.32736749,8.55038747 C6.34288369,8.60169719 6.37950192,8.65425837 6.40246589,8.70181372 L6.46636965,8.86640344 C6.47763326,8.89266085 6.49018415,8.91789856 6.50549346,8.94146766 C6.54024975,8.9977832 6.58307447,9.04784147 6.61224492,9.10916284 L6.68610203,9.320659 L6.68610203,9.320659 C6.73202999,9.42327844 6.78664701,9.52339497 6.82636848,9.63102024 L6.88415771,9.82735987 C6.89415704,9.85906344 6.90581143,9.8896546 6.92132763,9.91822952 L7.07152445,10.1660179 L7.07152445,10.1660179 L7.15965647,10.3556136 L7.15965647,10.3556136 L7.25585691,10.5032855 L7.25585691,10.5032855 C7.2906132,10.5696127 7.32723143,10.6365656 7.35640188,10.7003899 C7.37812456,10.7516996 7.38681364,10.7980035 7.4147428,10.8418045 L7.52956268,11.0288972 C7.5699048,11.0864642 7.60962627,11.1634288 7.63755543,11.2328847 C7.65803682,11.2854458 7.6772769,11.3417614 7.70768866,11.3861881 C7.73934171,11.432492 7.78402836,11.4712871 7.81071623,11.5213454 C7.83864539,11.5701522 7.87650492,11.7303387 7.86036807,11.7378474 C7.82685308,11.750362 7.73065263,11.655877 7.70396477,11.6227134 C7.62886636,11.5288542 7.58790359,11.4043342 7.51901166,11.3042177 C7.4457752,11.1978439 7.39736465,11.1365225 7.34026504,11.013254 L7.25190315,10.8304023 C7.23558241,10.7996026 7.21944556,10.7715143 7.20496377,10.7504482 C7.16834554,10.6903782 7.1162111,10.6378171 7.08455806,10.5708641 L7.02683779,10.393783 L7.02683779,10.393783 C6.98897826,10.315567 6.91263856,10.2630058 6.87602033,10.1835383 L6.8065997,10.0001304 C6.79519816,9.97044307 6.78271624,9.94138147 6.76740692,9.9132237 L6.69789435,9.78119503 L6.69789435,9.78119503 L6.6352089,9.61975713 L6.6352089,9.61975713 L6.45460033,9.30439007 L6.45460033,9.30439007 L6.31743712,8.95398222 L6.31743712,8.95398222 L6.21068566,8.7787783 L6.21068566,8.7787783 L6.11138198,8.52598407 L6.11138198,8.52598407 L6.03131839,8.37706073 L6.03131839,8.37706073 L5.95249609,8.15430146 L5.95249609,8.15430146 L5.72595957,7.64245572 L5.72595957,7.64245572 L5.66017088,7.44347412 L5.66017088,7.44347412 L5.57576275,7.27202457 L5.57576275,7.27202457 C5.50873276,7.12310123 5.48701008,6.95102595 5.42184204,6.80147689 C5.3877064,6.72451231 5.34426104,6.65380501 5.31757318,6.57058315 L5.20461524,6.17950297 L5.20461524,6.17950297 L5.00476658,5.57317225 L5.00476658,5.57317225 L4.95883863,5.39483969 L4.95883863,5.39483969 L4.89553253,5.21901003 L4.89553253,5.21901003 L4.857673,5.04318038 L4.857673,5.04318038 L4.69940776,4.53571474 L4.69940776,4.53571474 L4.6702373,4.36989674 L4.6702373,4.36989674 L4.63734296,4.27916614 L4.63734296,4.27916614 C4.62182676,4.24224817 4.62306805,4.20845884 4.61189639,4.1677865 L4.49893845,3.77545486 L4.49893845,3.77545486 L4.47100929,3.63779464 L4.47100929,3.63779464 C4.41701291,3.4600878 4.39156635,3.24671445 4.31957118,3.08152218 C4.30777886,3.04961004 4.28729748,3.01644644 4.25812702,3.02395518 C4.22647398,3.03146392 4.23268046,3.06838189 4.23516305,3.09841685 C4.24447277,3.17788434 4.27488452,3.24921736 4.28729748,3.31366738 L4.2966072,3.42129265 C4.29908979,3.45195333 4.30157238,3.48824557 4.31274405,3.52015772 L4.41328903,3.85241944 L4.41328903,3.85241944 C4.42384004,3.90310343 4.41577162,3.97881656 4.42880523,4.03450637 L4.5133053,4.38834414 C4.5286606,4.44623559 4.54569393,4.50171683 4.56596844,4.55198367 C4.62058546,4.6896439 4.62989518,4.85233325 4.6702373,5 C4.68202961,5.06508087 4.6869948,5.13078234 4.69568387,5.19460663 C4.70375229,5.25717946 4.73912923,5.29972898 4.75712802,5.3510387 L4.78505718,5.46492125 L4.78505718,5.46492125 C4.81795153,5.57129506 4.83967421,5.67516596 4.88125763,5.78341696 L4.97063094,5.99866749 L4.97063094,5.99866749 C4.9830439,6.03183109 4.97932001,6.06249177 4.98738843,6.0962811 L5.03952287,6.31778892 L5.03952287,6.31778892 L5.19282293,6.76768756 L5.19282293,6.76768756 L5.25923226,7.00546431 L5.25923226,7.00546431 L5.60369191,7.94405676 L5.60369191,7.94405676 L5.65955023,8.15242428 L5.65955023,8.15242428 C5.6849968,8.22188012 5.72595957,8.28195003 5.75513002,8.34389714 C5.7923689,8.42586754 5.80478186,8.51034086 5.83519361,8.59669137 L5.95497868,8.87952056 L5.95497868,8.87952056 C5.97421877,8.92957882 5.99035562,8.98589437 6.01456089,9.03344972 L6.07848763,9.14107498 L6.07848763,9.14107498 L6.14427632,9.34255949 L6.14427632,9.34255949 C6.17344678,9.40575805 6.22682251,9.45706777 6.2603375,9.51338332 C6.29571444,9.56719595 6.29819703,9.63727752 6.32612619,9.69797316 L6.46391005,9.98142808 L6.46391005,9.98142808 C6.48128819,10.0246033 6.48935662,10.062147 6.51045865,10.1028194 L6.58928095,10.2479883 L6.61472751,10.3349646 L6.61472751,10.3349646 C6.62527853,10.3618709 6.65320769,10.4119291 6.66562065,10.4275724 L6.7140312,10.4863908 C6.72085832,10.4938996 6.7295474,10.5045369 6.73575388,10.5145486 C6.77795794,10.5789986 6.78168183,10.6722321 6.81581747,10.7454423 C6.84871181,10.8136467 6.90891467,10.8687108 6.94305031,10.9425467 C6.96725558,10.9982366 6.98277178,11.1352711 6.95049809,11.1390254 C6.80961099,11.1390254 6.79843932,10.9400438 6.75251137,10.8374244 C6.71527249,10.7579569 6.65817287,10.6903782 6.61596881,10.6121622 L6.58307447,10.5351976 L6.58307447,10.5351976 L6.56926505,10.4935867 L6.56926505,10.4935867 L6.52100966,10.3956602 L6.52100966,10.3956602 L6.45832422,10.2955437 C6.45832422,10.2942922 6.45708292,10.2930408 6.45708292,10.2899121 C6.40246589,10.2041874 6.36584766,10.0796674 6.32860878,10.020849 L6.25661361,9.92198389 L6.25661361,9.92198389 C6.22309862,9.86566835 6.20447918,9.79934115 6.17655002,9.73739405 L6.08097023,9.56594449 L6.08097023,9.56594449 C6.04931718,9.49648865 6.04745523,9.40826096 6.01456089,9.33755367 L5.9487722,9.22492257 L5.9487722,9.22492257 C5.91153332,9.1435779 5.88732805,9.05660166 5.84574463,8.97963708 C5.82898713,8.93896474 5.79609279,8.90392396 5.7768527,8.86575453 C5.74519965,8.79880161 5.72844216,8.72559139 5.69430652,8.66301857 C5.6204494,8.52973844 5.54038581,8.3808151 5.47832101,8.24002624 L5.39515418,7.99223783 L5.39515418,7.99223783 L5.29088531,7.7857475 L5.29088531,7.7857475 L5.24557801,7.64621009 L5.24557801,7.64621009 L5.1537221,7.40780761 L5.1537221,7.40780761 C5.13448201,7.35399497 5.12206905,7.23698378 5.10407026,7.18817698 C5.08607147,7.12935852 5.05441842,7.06678569 5.02897185,7.00796723 L4.93897789,6.74328416 L4.93897789,6.74328416 C4.90980743,6.67820842 4.87753374,6.60499821 4.85208717,6.53616809 C4.83160578,6.47797536 4.8266406,6.42416273 4.80119403,6.36909864 L4.74409442,6.24082434 L4.74409442,6.24082434 C4.72733692,6.18826316 4.71244137,6.1050413 4.69816646,6.03808837 C4.67271989,5.96237525 4.63982555,5.89104222 4.61810287,5.81783201 C4.60320732,5.76401938 4.60072473,5.63574508 4.58769112,5.60258148 L4.36922302,4.90114006 L4.36922302,4.90114006 C4.33570803,4.79476625 4.31957118,4.6896439 4.29288331,4.58702446 L4.26867804,4.45124142 L4.26867804,4.45124142 L4.19978611,4.24850545 L4.19978611,4.24850545 C4.18861445,4.20470447 4.18178732,4.15714912 4.17433954,4.11084523 C4.16316788,4.06266415 4.13772131,4.01385734 4.11848122,3.96630199 L4.01048847,3.54956695 L4.01048847,3.54956695 C3.99745486,3.4932514 3.99745486,3.42004119 3.98255931,3.36998293 C3.94863055,3.25818614 3.93097656,3.13582149 3.90900103,3.01419845 L3.87022202,2.83373378 C3.85905035,2.7855527 3.84911999,2.73299152 3.84105156,2.68668763 C3.75478149,2.36068319 3.71630131,1.99525786 3.62258346,1.6798908 C3.60458467,1.62107234 3.62878994,1.54535922 3.61079115,1.47903202 C3.59217171,1.40707327 3.57293162,1.34262325 3.55245024,1.27629605 L3.53445145,1.18744264 L3.53445145,1.18744264 C3.51955589,1.13488146 3.49410933,1.09420912 3.46742146,1.09921495 C3.43142388,1.1092266 3.4394923,1.14051301 3.4407336,1.18744264 L3.44918993,1.28740273 L3.44918993,1.28740273 L3.48479961,1.51469853 L3.48479961,1.51469853 C3.51334941,1.61481506 3.52203849,1.7593583 3.54003728,1.85071463 L3.54872635,1.98649767 L3.54872635,1.98649767 C3.55741542,2.0315501 3.59217171,2.09287148 3.60334337,2.1441812 L3.62258346,2.37132057 L3.62258346,2.37132057 L3.66975271,2.55090459 L3.66975271,2.55090459 L3.68961345,2.69419637 L3.68961345,2.69419637 C3.70512965,2.74425463 3.72809362,2.78930707 3.73802399,2.8431197 C3.74609242,2.89943525 3.73802399,2.98516002 3.7498163,3.03646974 C3.82305277,3.32242757 3.84477545,3.66219804 3.92794228,3.93814422 L3.94780302,4.05953551 L3.94780302,4.05953551 L4.14268649,4.79601771 L4.14268649,4.79601771 L4.16068529,4.91365463 L4.16068529,4.91365463 C4.18302862,4.99687649 4.20599259,5.08823282 4.22275009,5.17270614 L4.23950758,5.28471151 L4.23950758,5.28471151 L4.32453636,5.54626593 L4.32453636,5.54626593 L4.34750034,5.67141159 L4.34750034,5.67141159 L4.38163598,5.77403103 L4.38163598,5.77403103 L4.40832384,5.9192 L4.40832384,5.9192 L4.44680402,6.00367332 L4.44680402,6.00367332 L4.47845707,6.15760248 L4.47845707,6.15760248 C4.49769716,6.21642094 4.5305915,6.27711658 4.55603807,6.33593504 L4.5938976,6.48423265 L4.5938976,6.48423265 L4.69568387,6.75892737 L4.69568387,6.75892737 L4.75154219,6.98356382 L4.75154219,6.98356382 L4.80926246,7.13186143 L4.80926246,7.13186143 L4.83843291,7.24887262 L4.83843291,7.24887262 C4.85208717,7.28453913 4.89056735,7.34210614 4.91601391,7.38841003 C4.93773659,7.44097121 4.92842687,7.5116785 4.94518437,7.56674259 L5.012835,7.72442612 L5.012835,7.72442612 C5.03145444,7.77949021 5.03145444,7.83580576 5.04448805,7.89086985 L5.10655285,8.01163541 L5.10655285,8.01163541 L5.15620469,8.15242428 L5.15620469,8.15242428 L5.20833913,8.24252915 L5.20833913,8.24252915 C5.23378569,8.29509033 5.25426708,8.35390879 5.27598976,8.40772142 C5.30764281,8.48593746 5.3088841,8.58229962 5.33557197,8.67428167 C5.33929586,8.69868508 5.33929586,8.76063218 5.32315901,8.76814092 C5.28964401,8.77564966 5.24930189,8.7168312 5.22261403,8.68241614 C5.18165126,8.6217205 5.14192979,8.55414184 5.11151804,8.48218309 C5.09910508,8.45527677 5.0928986,8.42962191 5.08607147,8.40146414 L5.01655889,8.21311992 L5.01655889,8.21311992 C4.99980139,8.17682768 4.97559612,8.13615534 4.96318316,8.09610873 C4.94518437,8.03979318 4.95263215,7.97096307 4.93215076,7.92090481 L4.857673,7.80389362 L4.857673,7.80389362 C4.84588069,7.76572419 4.83843291,7.72692904 4.82167542,7.68750815 C4.80243533,7.64245572 4.77450617,7.59990619 4.7490596,7.55547948 C4.73044016,7.51543287 4.73168145,7.47288335 4.71740655,7.42282509 C4.70189035,7.36400663 4.68327091,7.30643962 4.65906564,7.25262699 L4.57776075,7.08493181 L4.57776075,7.08493181 C4.56596844,7.05489685 4.56100325,7.02173325 4.55231418,6.99107256 L4.49769716,6.86029535 L4.49769716,6.86029535 L4.46914735,6.76518465 L4.46914735,6.76518465 C4.44804531,6.71950648 4.42384004,6.66819676 4.40708255,6.6181385 L4.3754295,6.49111566 L4.3754295,6.49111566 L4.30033109,6.26773066 L4.30033109,6.26773066 L4.26371286,6.10003547 L4.26371286,6.10003547 L4.19233834,5.90856261 L4.19233834,5.90856261 L4.15261686,5.7446218 L4.15261686,5.7446218 C4.12841159,5.67579169 4.09427595,5.61384459 4.07255327,5.53813146 L4.04338281,5.36918483 L4.04338281,5.36918483 L3.91614997,4.9461925 L3.91614997,4.9461925 C3.87022202,4.79101188 3.86525683,4.6189366 3.82057018,4.46125307 L3.71630131,4.13274572 L3.71630131,4.13274572 L3.68837215,3.96755345 L3.68837215,3.96755345 L3.61311283,3.69125964 C3.59920572,3.64377382 3.5851377,3.59733087 3.57169033,3.55457277 L3.53879598,3.34432807 L3.53879598,3.34432807 C3.5183146,3.27111785 3.5170733,3.18289017 3.49286803,3.10467413 L3.46146784,3.01540356 C3.45638772,2.99955178 3.4514915,2.98223996 3.44694008,2.96200808 L3.43018258,2.78179833 L3.43018258,2.78179833 L3.33274084,2.41449582 L3.33274084,2.41449582 C3.32218983,2.36443756 3.32218983,2.27120404 3.31722464,2.2392919 L3.27672736,2.10483853 C3.27222766,2.08919532 3.2688141,2.07613325 3.2675728,2.06846807 L3.25810217,1.99528104 C3.25612529,1.98024038 3.25350478,1.96334572 3.24957401,1.94394814 L3.19619828,1.70804858 L3.19619828,1.70804858 L3.18921024,1.60213827 C3.18792297,1.58325054 3.18626791,1.56579968 3.18378532,1.55286796 L3.13165089,1.35951792 L3.13165089,1.35951792 C3.10992821,1.28130188 3.1266857,1.19808002 3.10496302,1.12486981 L3.05158729,0.965934819 L3.05158729,0.965934819 L3.02754293,0.870360616 C3.02434774,0.855667589 3.02200307,0.842874921 3.02117554,0.833906149 L3.01434841,0.674971162 L3.01434841,0.674971162 L2.98890185,0.494135685 L2.98890185,0.494135685 C2.98517796,0.406533724 2.96469657,0.313300208 2.95104232,0.258236119 L2.93925001,0.159371048 L2.93925001,0.159371048 L2.91227913,0.0649365639 C2.8972942,0.0243524716 2.87904715,-0.00265860644 2.85297993,-3.89965837e-15 C2.82132688,0.00544188768 2.81077587,0.0310967477 2.82380948,0.0874122942 L2.8629103,0.272002141 L2.8629103,0.272002141 L2.86923172,0.320623547 L2.86923172,0.320623547 L2.87635767,0.462130842 L2.87635767,0.462130842 L2.89146011,0.567189464 L2.89146011,0.567189464 L2.91495279,0.676848347 C2.91669979,0.68790288 2.91773421,0.697914533 2.91752733,0.705631849 L2.91504473,0.809502746 C2.91504473,0.831403236 2.91752733,0.840163432 2.92435445,0.878332858 L2.93741105,0.930337832 C2.93869832,0.937429419 2.93966377,0.945077209 2.9404913,0.955297438 L2.9404913,1.03351347 L2.9404913,1.03351347 C2.9417326,1.06354843 2.94607713,1.09420912 2.95352491,1.12111544 L2.98517796,1.21912013 C2.98998798,1.23785287 2.99378945,1.25754376 2.99541865,1.27783104 L2.99262573,1.34012034 C2.97648889,1.42897376 3.00317675,1.51344708 3.02365813,1.59166311 L3.03234721,1.74308936 L3.03234721,1.74308936 L3.08448164,1.9495797 L3.08448164,1.9495797 L3.10372173,2.11226905 L3.10372173,2.11226905 L3.18378532,2.32251376 L3.18378532,2.32251376 L3.19619828,2.50710361 L3.19619828,2.50710361 L3.22661003,2.66854151 L3.22661003,2.66854151 L3.22785133,2.74926046 L3.22785133,2.74926046 L3.27502058,2.94323623 L3.27502058,2.94323623 L3.28557159,3.028961 L3.28557159,3.028961 L3.32839631,3.25234601 L3.32839631,3.25234601 L3.34142992,3.36998293 L3.34142992,3.36998293 L3.39977083,3.56646161 L3.39977083,3.56646161 L3.41032184,3.68660144 L3.41032184,3.68660144 L3.45935304,3.86868838 L3.45935304,3.86868838 L3.47611053,4.00697433 L3.47611053,4.00697433 C3.49659192,4.10959377 3.51148747,4.21221321 3.53879598,4.31107828 L3.60830856,4.48315356 L3.60830856,4.48315356 L3.6412029,4.64208855 L3.6412029,4.64208855 L3.69644058,4.77787159 L3.69644058,4.77787159 L3.71009483,4.90489443 L3.71009483,4.90489443 L3.7522989,5.04818621 L3.7522989,5.04818621 L3.76471186,5.16019157 L3.76471186,5.16019157 L3.80939851,5.28283432 L3.80939851,5.28283432 L3.83112119,5.43801494 L3.83112119,5.43801494 L3.8907034,5.61384459 L3.8907034,5.61384459 C3.9074609,5.66640576 3.89939248,5.72397277 3.91366738,5.78091404 C3.94780302,5.90355679 3.99000708,6.03808837 4.02910791,6.15384811 L4.06634679,6.34594669 L4.06634679,6.34594669 L4.11848122,6.45920351 L4.11848122,6.45920351 L4.13399742,6.58872927 L4.13399742,6.58872927 L4.16893761,6.75596095 C4.17551188,6.7842346 4.18302862,6.81148854 4.19233834,6.83589195 C4.2177849,6.91911381 4.26743674,6.98606674 4.2966072,7.06678569 L4.35370682,7.32083137 L4.35370682,7.32083137 L4.44556272,7.53107608 L4.44556272,7.53107608 C4.469768,7.59239745 4.46169957,7.67061349 4.48342225,7.73443778 L4.58520852,7.92716209 L4.58520852,7.92716209 L4.65906564,8.17182185 L4.65906564,8.17182185 L4.67954702,8.27444129 L4.67954702,8.27444129 C4.70871748,8.37831219 4.7658171,8.46528842 4.80243533,8.56665641 L4.83346773,8.69618216 L4.83346773,8.69618216 C4.857673,8.76814092 4.88684346,8.84385404 4.9209791,8.91205843 L5.0140763,9.09789973 L5.0140763,9.09789973 L5.06993462,9.2718522 L5.06993462,9.2718522 L5.14503303,9.45268767 L5.14503303,9.45268767 C5.15620469,9.48897991 5.15744599,9.52214351 5.17296219,9.55530711 L5.4032226,10.0327378 L5.4032226,10.0327378 L5.50190563,10.2967951 L5.50190563,10.2967951 L5.60245061,10.5045369 L5.60245061,10.5045369 L5.64589597,10.6390685 L5.64589597,10.6390685 L5.77933529,10.8968686 L5.77933529,10.8968686 C5.79112761,10.9156404 5.81781547,11.0057453 5.80726445,11.0439147 L5.79981668,11.0558036 L5.79981668,11.0558036 C5.77312881,11.0645638 5.71975308,11.0182599 5.68934133,10.9888506 C5.58879636,10.8874827 5.57328015,10.7003899 5.50190563,10.5708641 L5.44108213,10.4544787 L5.44108213,10.4544787 L5.41067038,10.3725083 L5.41067038,10.3725083 C5.36722502,10.2899121 5.3113667,10.2148247 5.27226587,10.1247199 L5.21454561,9.92636399 L5.21454561,9.92636399 C5.09786378,9.67732413 4.96566575,9.43641874 4.85332846,9.18487596 C4.80243533,9.07099341 4.79374626,8.93896474 4.7478183,8.81694773 C4.72113044,8.74373752 4.67830573,8.68241614 4.64851462,8.61421176 L4.5938976,8.44776803 L4.5938976,8.44776803 C4.56100325,8.37580928 4.5150753,8.30885635 4.48838744,8.23126604 L4.44556272,8.07858834 L4.44556272,8.07858834 L4.36115459,7.92465918 L4.36115459,7.92465918 C4.32701895,7.84894605 4.31957118,7.76947856 4.2953659,7.67937369 C4.2823323,7.63056688 4.26185091,7.57988289 4.24571406,7.53483045 L4.21406102,7.40905906 L4.21406102,7.40905906 L4.08931077,7.1356158 L4.08931077,7.1356158 C4.06510549,7.07054006 4.06882938,6.98731819 4.04338281,6.92537109 C4.01917754,6.87280992 3.97821477,6.82963466 3.95959533,6.77582203 C3.93414876,6.71888076 3.95711274,6.65005064 3.93787265,6.58309772 C3.92111516,6.51802197 3.89566859,6.45795206 3.87394591,6.39850787 L3.84725804,6.28462532 L3.84725804,6.28462532 L3.76222927,6.05373158 L3.76222927,6.05373158 C3.7498163,6.01243351 3.7498163,5.97551554 3.73181751,5.93984903 C3.71133613,5.89354514 3.67720049,5.85099561 3.66168429,5.79968589 L3.61761828,5.57192079 L3.61761828,5.57192079 L3.52203849,5.29597461 L3.52203849,5.29597461 L3.50900488,5.20336683 L3.50900488,5.20336683 L3.45066396,4.93805803 L3.45066396,4.93805803 L3.43142388,4.82042111 L3.43142388,4.82042111 L3.35756676,4.58327009 L3.35756676,4.58327009 L3.3308789,4.43559821 L3.3308789,4.43559821 L3.21916226,4.04076366 L3.21916226,4.04076366 L3.20240476,3.93188693 L3.20240476,3.93188693 L3.13771945,3.72599915 C3.1275822,3.69063391 3.1184104,3.65573218 3.1111695,3.62277716 C3.10123914,3.56521015 3.09999784,3.51077179 3.08696423,3.45695916 L3.03731239,3.25735183 L3.03731239,3.25735183 C3.03234721,3.2279426 3.03731239,3.2035392 3.03607109,3.17663288 L3.01683101,3.04710713 L3.01683101,3.04710713 L2.9131598,2.6711603 C2.89621841,2.60722013 2.88070221,2.54464731 2.86849613,2.48645457 C2.85670382,2.42388174 2.85422123,2.36068319 2.84801475,2.29811036 C2.84056697,2.25681229 2.83870503,2.20425111 2.82380948,2.15732149 C2.81325846,2.11477197 2.79091513,2.06596516 2.7853293,2.01966127 L2.76252048,1.79111401 L2.76252048,1.79111401 L2.70350074,1.51168722 C2.69758519,1.48309925 2.69285275,1.45822655 2.69037015,1.44023687 L2.65809646,1.18243681 L2.65809646,1.18243681 C2.65685516,1.12486981 2.64692479,1.06855426 2.63823572,1.0097358 L2.59603166,0.747555645 L2.59603166,0.747555645 L2.5836187,0.577357549 C2.58051546,0.544193949 2.57927416,0.487252674 2.53769074,0.487252674 C2.49796927,0.487252674 2.50293446,0.537310938 2.50169316,0.574854635 C2.49424538,0.668088151 2.51348547,0.791356625 2.51845066,0.847672172 C2.53272556,0.954045982 2.52217454,1.05666542 2.53396686,1.16741933 Z" id="Shape" fill="#B20D35" fill-rule="nonzero"></path>
    </g>
</svg>