<?xml version="1.0" encoding="UTF-8"?>
<svg width="28px" height="28px" viewBox="0 0 28 28" version="1.1" xmlns="http://www.w3.org/2000/svg" xmlns:xlink="http://www.w3.org/1999/xlink">
    <title>KC</title>
    <g id="KC" stroke="none" stroke-width="1" fill="none" fill-rule="evenodd">
        <path d="M12.6470954,13.9988824 C14.1571183,11.9075772 15.9097305,12.3236411 17.9755849,12.5585315 C17.4274142,11.9813877 17.1575839,11.2532463 17.1575839,10.4714115 C17.1575839,8.6703547 18.6735665,7.20986291 20.5444948,7.20986291 C24.4514861,7.20986291 23.9688578,11.568653 22.2741272,11.568653 C21.8936416,11.568653 21.5880626,11.3052513 21.5054952,10.9931975 C21.4374049,10.7356455 21.5028411,10.4328179 21.4127215,10.1887012 C21.2859026,9.84813614 20.9352012,9.59814591 20.542801,9.59814591 C20.2899956,9.59814591 20.0627254,9.69635381 19.8958896,9.85484186 C19.3698518,10.3547985 19.6984227,11.3555918 20.0414562,11.8672953 C20.518979,12.5769842 21.3574072,13.0350182 22.3192593,13.0257919 L22.4758768,13.0210361 C25.1545926,12.724082 25.9427999,10.476738 25.2626926,8.43741412 C24.9673272,7.55156934 23.9365306,6.24794862 22.7754984,5.70186038 C24.9137019,4.48213251 25.5699751,1.66936787 25.4942191,0 L2.5,13.9991677 L25.4942191,28 C25.5699823,26.3297999 24.9137019,23.517059 22.7754984,22.2981634 C23.9365306,21.7512191 24.9673272,20.4475984 25.2626926,19.5617536 C25.9427999,17.5224535 25.1545974,15.2750857 22.4758768,14.9772994 L22.3192593,14.9725436 C21.3574072,14.9630319 20.518979,15.4213513 20.0414562,16.1310401 C19.6984252,16.6427675 19.3698639,17.6435369 19.8958896,18.1434936 C20.0627375,18.3021005 20.2899956,18.4001896 20.542801,18.4001896 C20.9352012,18.4001896 21.2858954,18.1510554 21.4127215,17.8096343 C21.5029617,17.5655175 21.4374049,17.2635223 21.5054952,17.0051618 C21.5880626,16.6930842 21.8936416,16.4296825 22.2741272,16.4296825 C23.9688578,16.4296825 24.4514861,20.7884725 20.5444948,20.7884725 C18.6735665,20.7884725 17.1575839,19.3280045 17.1575839,17.5269239 C17.1575839,16.7450892 17.4274142,16.0169477 17.9755849,15.4398039 C15.9097305,15.6754553 14.1571183,16.0916143 12.6470954,13.9986208" id="path36916" fill="#9B804D" fill-rule="nonzero"></path>
    </g>
</svg>