<?xml version="1.0" encoding="UTF-8"?>
<svg width="28px" height="28px" viewBox="0 0 28 28" version="1.1" xmlns="http://www.w3.org/2000/svg" xmlns:xlink="http://www.w3.org/1999/xlink">
    <title>KE</title>
    <g id="KE" stroke="none" stroke-width="1" fill="none" fill-rule="evenodd">
        <path d="M27.9958387,14.0092679 C27.9958387,21.7361426 21.7335877,28 14.0030966,28 C6.27053608,28 9.37916411e-13,21.7361426 9.37916411e-13,14.0092679 C9.37916411e-13,6.27618217 6.27053608,0.0123247351 14.0030966,0.0123247351 C21.7335877,0.0123247351 27.9958387,6.27618217 27.9958387,14.0092679" id="path3195" fill="#FFFFFF" fill-rule="nonzero"></path>
        <path d="M20.0147802,5.57260837 C24.2786626,6.88043134 27.380798,10.8473328 27.380798,15.5467805 C27.380798,16.2379321 27.3103941,16.9001188 27.1861414,17.5436798 L27.1695713,17.634733 C26.8465156,19.4764305 26.0968678,21.1794916 25.0345261,22.6197474 L25.0138323,22.6425987 C26.8817401,20.2670042 28,17.2623386 28,13.9969432 C28,6.2700685 21.727387,0 13.9886184,0 C10.4681683,0 7.25420383,1.30160441 4.78989474,3.44750187 L4.75473028,3.47859467 C2.8143417,5.25821899 1.6028997,7.8138371 1.6028997,10.6508862 C1.6028997,11.8200578 1.80584139,12.9540533 2.19101598,13.9969956 L2.20976036,14.0466692 C3.1851356,16.1739409 5.33674338,17.6597196 7.83419254,17.6597196 C11.2448905,17.6597196 14.0156853,14.8992337 14.0156853,11.48484 L13.9969409,8.8278219 C13.9969409,7.61519533 14.6803236,6.54328802 15.6846852,5.99698384 L15.6946572,5.99398694 C16.4795145,5.56563309 17.3761933,5.31317457 18.3412067,5.31317457 C18.9231148,5.31317457 19.4801754,5.40009205 20.0061728,5.56770095 L20.0144953,5.57444397" id="path3197" fill="#ED192D" fill-rule="nonzero"></path>
        <path d="M2.95999313,5.40202141 C1.96150565,6.75622914 1.24234893,8.32400676 0.889010337,10.0324898 L0.82324582,10.3760409 L0.811624303,10.4629584 C0.685197186,11.110655 0.61696763,11.7811206 0.61696763,12.4660687 C0.61696763,17.0734666 3.60930175,20.9842276 7.75764609,22.3653512 L7.98505484,22.4381655 L7.99180281,22.4464069 C8.51573082,22.6057444 9.07486078,22.7009333 9.66091518,22.7009333 C10.5360192,22.7009333 11.3676267,22.4905419 12.104685,22.1255351 L12.3033184,22.0221963 L12.3132904,22.0154533 C13.2739745,21.4939811 13.9403109,20.4973702 13.9989021,19.3513774 L14.0031041,19.1866831 L13.9843597,16.5213861 C13.9843597,13.1132035 16.7510157,10.3506497 20.1617137,10.3506497 C22.591734,10.3506497 24.6842607,11.7464118 25.6989597,13.7849044 L25.7882152,13.9719715 L25.8069596,14.0155014 C26.1900648,15.0605191 26.3971528,16.1924393 26.3971528,17.3636787 C26.3971528,20.0011377 25.3468425,22.3968057 23.6380745,24.1557943 C21.1292155,26.5382849 17.7374681,28 14.0030966,28 C6.27053608,28 2.13162821e-13,21.7361426 2.13162821e-13,14.0092679 C2.13162821e-13,10.8151673 1.06978427,7.87172421 2.87051024,5.51680304 L2.95999313,5.40202141 Z" id="Path" fill="#1C4E9D" fill-rule="nonzero"></path>
    </g>
</svg>