<?xml version="1.0" encoding="UTF-8"?>
<svg width="28px" height="28px" viewBox="0 0 28 28" version="1.1" xmlns="http://www.w3.org/2000/svg" xmlns:xlink="http://www.w3.org/1999/xlink">
    <title>KF</title>
    <g id="KF" stroke="none" stroke-width="1" fill="none" fill-rule="evenodd">
        <g id="Blue1_Logo" fill-rule="nonzero">
            <polyline id="Path" fill="#267FD9" points="0 0 28 0 28 28 0 28 0 0"></polyline>
            <path d="M17.6051867,12.2789333 C17.8304933,12.3378267 18.04712,12.4357333 18.2332267,12.57676 C18.5457067,12.81056 18.7542133,13.1609333 18.8639733,13.53128 C18.9630933,13.85944 18.9934267,14.2043067 18.9914667,14.5461867 L15.5760267,14.5463733 L15.5760267,14.5463733 C15.5790133,15.1280267 15.6571333,15.71556 15.8627467,16.2624933 C16.0222533,16.6819333 16.27024,17.0814933 16.6361067,17.35076 C16.83836,17.5004667 17.0729067,17.60528 17.31856,17.6600667 C17.60444,17.7254933 17.9014267,17.7235333 18.1920667,17.6945067 C18.42736,17.6711733 18.65388,17.6006133 18.8817067,17.54116 C18.8818933,17.7170933 18.8817067,17.8930267 18.8818933,18.0690533 C18.5654,18.1552933 18.24788,18.2449867 17.9199067,18.2735467 C17.3410533,18.3259067 16.7398,18.29324 16.19688,18.07008 C15.7626933,17.89508 15.3814267,17.5908133 15.1186,17.2031067 C14.7799867,16.7096533 14.6261733,16.1124133 14.57848,15.5219867 C14.5442267,15.06988 14.5564533,14.61236 14.63756,14.16576 C14.71456,13.7495867 14.85932,13.33724 15.1164533,12.9965733 C15.3090933,12.7386 15.56884,12.5315867 15.8634,12.40148 C16.1360267,12.2794 16.4332,12.2204133 16.73028,12.2033333 C17.0233467,12.18728 17.3203333,12.2039867 17.6051867,12.2789333 Z M13.48284,12.3374533 L13.48284,18.16612 L13.48284,18.16612 L12.60168,18.16612 L12.60168,18.16612 C12.60112,17.6897467 12.6027067,17.2130933 12.60084,16.7366267 C12.5856267,16.7452133 12.5693867,16.7538 12.5636,16.7716267 C12.4061467,17.09736 12.24524,17.4268267 12.01648,17.70972 C11.8818,17.87576 11.71632,18.0194 11.5229333,18.11236 C11.2706533,18.2353733 10.9879467,18.2762533 10.7103733,18.2896933 C10.5606667,18.2953867 10.409,18.3026667 10.2609733,18.27532 C10.06936,18.2416267 9.88773333,18.15716 9.73662667,18.0352667 C9.54174667,17.8786533 9.39633333,17.66772 9.29338667,17.4415733 C9.15450667,17.1342267 9.08544,16.7962667 9.08861333,16.4594267 L9.08852,12.3377333 L9.08852,12.3377333 L9.99432,12.3377333 L9.99432,12.3377333 L9.99432,15.7313333 C9.99628,16.002 9.98088,16.2756533 10.0370667,16.5423067 C10.0902667,16.8127867 10.19396,17.0835467 10.388,17.2851467 C10.5301467,17.43448 10.72736,17.5284667 10.93232,17.5463867 C11.1492267,17.5695333 11.3722,17.5188533 11.55812,17.4052667 C11.78548,17.26872 11.9578667,17.0579733 12.0908667,16.8317333 C12.29732,16.47604 12.41996,16.0776 12.4968667,15.67524 C12.54932,15.39356 12.5771333,15.1072133 12.5769467,14.82068 L12.57704,12.3374533 L12.57704,12.3374533 L13.48284,12.3374533 L13.48284,12.3374533 Z M2.46456,9.71973333 C2.88045333,9.72225333 3.30008,9.74269333 3.70589333,9.84097333 C4.08501333,9.93234667 4.45918667,10.0972667 4.73452,10.3803467 C4.90522667,10.5542267 5.03141333,10.76936 5.10804,11.0001733 C5.20333333,11.28596 5.23049333,11.5909733 5.21668,11.8906667 C5.19745333,12.2736133 5.07976,12.65628 4.85165333,12.96708 C4.5948,13.3202533 4.20588,13.5779467 3.7772,13.6655867 C3.75825333,13.6675467 3.74332,13.6784667 3.72988,13.6910667 C4.08286667,13.7592933 4.42978667,13.8799733 4.7292,14.0821333 C5.00136,14.2631067 5.23030667,14.5114667 5.37861333,14.80332 C5.61316,15.2592533 5.64816,15.7915333 5.58189333,16.2924533 C5.52486667,16.7219733 5.35052,17.1456133 5.03906667,17.4531467 C4.69933333,17.79456 4.23462667,17.9788933 3.76926667,18.0707333 C3.40442667,18.1438133 3.03128,18.1629467 2.65990667,18.16556 C1.99556,18.1677067 1.33130667,18.16612 0.666866667,18.1664933 L0.66696,9.71973333 L0.66696,9.71973333 L2.46456,9.71973333 L2.46456,9.71973333 Z M7.63168,9.71973333 L7.63168,18.166483 L7.63168,18.166483 L6.72578667,18.166483 L6.72578667,18.166483 L6.72578667,9.71973333 L6.72578667,9.71973333 L7.63168,9.71973333 L7.63168,9.71973333 Z M2.42134667,14.07196 L1.68252,14.07196 L1.68252,14.07196 L1.68252,17.4870267 L1.68252,17.4870267 C2.0174,17.4850667 2.35228,17.4914133 2.68716,17.4830133 C3.00794667,17.4709733 3.33274667,17.42888 3.63150667,17.3060533 C3.85616,17.2145867 4.06252,17.0705733 4.21082667,16.87672 C4.39021333,16.6453467 4.48093333,16.3562933 4.50893333,16.0673333 C4.53898667,15.7428133 4.5206,15.4082133 4.41186667,15.0988133 C4.32189333,14.8398133 4.15501333,14.6068533 3.93250667,14.4452933 C3.73398667,14.2991333 3.50046667,14.2068267 3.26144,14.15176 C2.98638667,14.0877333 2.70284,14.0720533 2.42134667,14.07196 Z M16.478,12.7353333 C16.2316,12.80608 16.01656,12.9691333 15.8728267,13.1802533 C15.70688,13.4230133 15.6135467,13.7143067 15.6006667,14.0073733 L18.0502,14.0074667 L18.0502,14.0074667 C18.04768,13.6927467 17.99364,13.36216 17.8070667,13.1008267 C17.66632,12.9002533 17.4430667,12.7675333 17.2052533,12.7176933 C16.96604,12.66804 16.71348,12.6671067 16.478,12.7353333 Z M2.42153333,10.3873467 L1.68252,10.38716 L1.68252,10.38716 L1.68252,13.3933333 L1.68252,13.3933333 L2.39418667,13.3933333 L2.39418667,13.3933333 C2.84125333,13.3966933 3.31389333,13.31708 3.67752,13.0396933 C3.83768,12.91724 3.96722667,12.7554 4.05234667,12.5726533 C4.18338667,12.2929333 4.21689333,11.9773733 4.20028,11.6718933 C4.18488,11.4001067 4.11422667,11.1219733 3.94632,10.9028267 C3.79745333,10.7050533 3.57672,10.5721467 3.34301333,10.4985067 C3.04602667,10.4034 2.73112,10.3881867 2.42153333,10.3873467 Z" id="Combined-Shape" fill="#FFFFFF"></path>
            <path d="M22.8956,16.3989467 L22.8956,18.1664933 L22.8956,18.1664933 L21.12768,18.1664933 L21.12768,18.1664933 L21.1277733,16.39876 L21.1277733,16.39876 L22.8956,16.3989467 L22.8956,16.3989467 Z M25.1258,16.3986667 L25.1258,18.1663067 L25.1258,18.1663067 L23.3577867,18.1662133 L23.3577867,18.1662133 L23.35788,16.3986667 L23.35788,16.3986667 C23.9470933,16.3986667 24.5365867,16.39848 25.1258,16.3986667 Z M27.33668,16.39876 L27.3371467,18.1664 L27.3371467,18.1664 L25.56904,18.1664 L25.56904,18.1664 L25.56932,16.39876 L25.56932,16.39876 L27.33668,16.39876 L27.33668,16.39876 Z M25.1258,14.16912 L25.1258,15.9357333 L25.1258,15.9357333 L23.3577867,15.9357333 L23.3577867,15.9357333 L23.3577867,14.16912 L23.3577867,14.16912 L25.1258,14.16912 L25.1258,14.16912 Z M25.1259867,11.9392933 C25.1256133,12.5281333 25.1262667,13.11716 25.1256133,13.7060933 L23.35788,13.7060933 L23.35788,13.7060933 L23.3577867,11.9393867 L23.3577867,11.9393867 L25.1259867,11.9392933 L25.1259867,11.9392933 Z M22.8956,9.71992 L22.8956,11.4863467 L22.8956,11.4863467 L21.1277733,11.4865333 L21.1277733,11.4865333 L21.1277733,9.71973333 L21.1277733,9.71973333 L22.8956,9.71992 L22.8956,9.71992 Z M25.1259867,9.72001333 L25.1258,11.48644 L25.1258,11.48644 L23.3577867,11.4862533 L23.3577867,11.4862533 L23.35788,9.71964 L23.35788,9.71964 L25.1259867,9.72001333 L25.1259867,9.72001333 Z" id="Combined-Shape" fill="#A3A4A5"></path>
        </g>
    </g>
</svg>