<?xml version="1.0" encoding="UTF-8"?>
<svg width="28px" height="28px" viewBox="0 0 28 28" version="1.1" xmlns="http://www.w3.org/2000/svg" xmlns:xlink="http://www.w3.org/1999/xlink">
    <title>KK</title>
    <g id="KK" stroke="none" stroke-width="1" fill="none" fill-rule="evenodd">
        <path d="M13.9995072,26.5 C6.26799479,26.5 0,20.9035805 0,13.9995135 C0,11.0407667 1.15406005,8.32623078 3.07782197,6.18670948 L1.83506388,4.22037361 L3.40403365,5.83352792 L3.40600472,5.83255497 L4.43687304,6.89209963 C4.43687304,6.89209963 4.43588751,6.89404553 4.43588751,6.89599144 L13.9591003,16.6965363 L18.0392102,9.56577155 L7.38559009,7.24917299 L23.2310021,7.27641565 L14.0566682,23.5743335 L3.90369927,7.49532983 C2.39189046,9.32058766 1.49505473,11.5661607 1.49505473,13.9995135 C1.49505473,20.0940845 7.09288656,25.0347344 13.9995072,25.0347344 C20.9061279,25.0347344 26.5039597,20.0940845 26.5039597,13.9995135 C26.5039597,7.9049426 20.9061279,2.96526562 13.9995072,2.96526562 C10.4476435,2.96526562 7.24564429,4.27291302 4.97004681,6.37059739 L3.88595966,5.35872738 C6.43553553,2.9818058 10.0228785,1.5 13.9995072,1.5 C21.7329907,1.5 28,7.09739249 28,13.9995135 C28,20.9035805 21.7329907,26.5 13.9995072,26.5" id="path22074" fill="#B1121A" fill-rule="nonzero" transform="translate(14.000000, 14.000000) scale(1, -1) translate(-14.000000, -14.000000) "></path>
    </g>
</svg>