<?xml version="1.0" encoding="UTF-8"?>
<svg width="28px" height="28px" viewBox="0 0 28 28" version="1.1" xmlns="http://www.w3.org/2000/svg" xmlns:xlink="http://www.w3.org/1999/xlink">
    <title>KP</title>
    <g id="KP" stroke="none" stroke-width="1" fill="none" fill-rule="evenodd">
        <path d="M15.0438258,5.50004264 C15.169064,5.49802178 15.4303903,5.56810642 15.6159052,5.65352983 C15.7750901,5.72683643 16.3516629,6.01846565 16.6433467,6.17320263 C17.526782,6.64187473 18.2335521,6.87895084 18.896019,6.92882246 C19.0952331,6.94380323 19.299872,6.97357199 19.3507783,6.99494161 C19.458509,7.04018682 19.5482663,7.17294834 19.5767606,7.32928253 C19.6150089,7.538848 19.697807,7.73516761 19.792359,7.84036342 C19.8445804,7.89846895 19.9494342,8.04026299 20.0253553,8.15551023 C20.1562376,8.35414305 20.465429,8.89678268 20.465429,8.9278182 C20.465429,8.93580427 20.5278427,9.0743488 20.6041199,9.23569493 C20.6804246,9.39706861 20.7596609,9.59399406 20.7802097,9.67333152 C20.8273624,9.85527621 20.8121289,9.82633359 21.2561754,10.5779053 C21.6729057,11.283268 21.7961987,11.4328829 22.0610868,11.5546842 C22.155447,11.5980568 22.2982751,11.6949361 22.3785251,11.7699776 L22.3785251,11.7699776 L22.5244492,11.9064017 L22.7655829,11.8566953 C23.4092818,11.7239889 24.2751273,11.4088971 24.3201429,11.2909787 C24.3821182,11.1286687 24.4306956,11.6012512 24.3854882,11.9265321 C24.3581172,12.1235402 24.3414041,12.1640764 24.2169056,12.3356116 C24.1408749,12.4403117 23.9726759,12.7136831 23.8431087,12.9430761 C23.5421094,13.4759948 23.3897741,13.708472 23.2754952,13.8093168 L23.2398919,13.845117 C23.1859648,13.9040778 23.1095648,14.0037087 23.0509102,14.0931527 C22.957098,14.2361859 22.8607376,14.3395642 22.7258003,14.4419236 C22.5339291,14.5874628 22.0232221,14.8961106 21.9194916,14.929184 C21.8105006,14.9639647 21.7819515,15.2496181 21.8360908,15.763921 C21.8515709,15.9110023 21.8829147,16.0910193 21.9057376,16.163968 C21.9429173,16.2827676 21.9428077,16.322395 21.9047239,16.5442701 C21.8373237,16.9367991 21.7257299,17.0971814 21.3900716,17.2840555 C21.0520844,17.4722238 21.0103566,17.5292829 20.9164622,17.9314778 C20.8356642,18.27755 20.7874977,18.4309927 20.6441491,18.7989302 C20.5082802,19.1476185 20.2156923,19.7229459 20.0902074,19.8881199 C20.0266978,19.9717257 19.910501,20.2175865 19.7776734,20.5494215 C19.5208952,21.1910057 19.5326218,21.1679563 19.2345815,21.6165531 C18.9508981,22.0435049 18.7863705,22.2092571 18.5626622,22.2933862 C18.3416116,22.3764964 17.6265945,22.4960396 17.3283077,22.4997573 C17.0382678,22.5033648 16.9718266,22.4693 16.7924764,22.2253119 C16.6661148,22.0533911 16.6415384,21.9953131 16.5838373,21.7323786 C16.5604938,21.6259987 16.5195605,21.4398406 16.4928744,21.3186727 C16.4661884,21.1975048 16.4061036,20.9186808 16.3593345,20.6990639 L16.3593345,20.6990639 L16.2742897,20.2997604 L16.1261463,20.1620696 C16.019813,20.0632626 15.9499744,19.9645383 15.878848,19.8125 C15.8075847,19.6601864 15.7180192,19.5337036 15.5602316,19.3625264 C15.2489579,19.0248258 15.2499716,19.0275245 15.3048507,18.6831872 C15.3472087,18.4174164 15.3470169,18.3706566 15.3019465,17.9378392 C15.2754796,17.6838271 15.2618899,17.4327891 15.2717534,17.3799158 C15.2816168,17.3270701 15.327564,17.2226178 15.3738126,17.1478241 C15.421979,17.0699462 15.4639534,16.9581412 15.4720086,16.8861289 C15.4927218,16.7016232 15.3724974,16.4825295 15.0459354,16.1095801 C14.8979291,15.9405508 14.7347166,15.7236877 14.6832349,15.6276621 C14.5969024,15.4665638 14.5893404,15.4327745 14.5855321,15.19143 L14.5828545,15.0867509 C14.5764837,14.9343826 14.5575902,14.8788855 14.4814454,14.7160661 C14.3436586,14.4214352 14.3357405,14.3658632 14.4175796,14.2670287 C14.568956,14.0841752 14.5824908,13.9843769 14.4770068,13.8281529 C14.3866194,13.6942623 14.3203426,13.6390483 14.1432664,13.5499623 C14.0484952,13.5022937 13.9737523,13.4825764 13.9240789,13.4921046 C13.8294721,13.5102798 13.704179,13.4577369 13.6179014,13.3636941 C13.5813518,13.3238739 13.5424735,13.2912963 13.5314593,13.2912963 C13.5204451,13.2912963 13.4785803,13.3476118 13.4384416,13.4164848 C13.3845488,13.5089304 13.3529584,13.5376527 13.3176145,13.5263896 C13.2912846,13.5179905 13.1164277,13.499292 12.9290498,13.4848345 C12.7416719,13.470377 12.4959078,13.4397821 12.3828893,13.4168428 C11.7592734,13.2903049 11.4195875,13.2055699 11.3118843,13.1497225 C10.9390737,12.9564046 10.3847211,12.5296456 10.0070062,12.1451852 C9.79549022,11.9298918 9.73447389,11.8466989 9.63120917,11.6327824 C9.41056954,11.1757314 9.28686558,10.6486509 9.28686558,10.1656865 C9.28686558,9.84467402 9.31160637,9.74815273 9.48791533,9.38087616 C9.72137744,8.8946347 9.80549065,8.76939111 10.0798312,8.49965473 C10.333349,8.25037922 10.4628888,8.08567343 11.1216569,7.17498616 C11.4609318,6.70598359 11.8009464,6.34875846 11.9575285,6.29682147 C12.0453953,6.26768609 12.1282756,6.26768609 12.4132742,6.29690408 C13.1624023,6.3736805 13.4186051,6.31050794 14.0952918,5.88220679 C14.4154151,5.67960847 14.5520512,5.61079059 14.7528543,5.55108784 C14.8432692,5.52421058 14.9742063,5.50124375 15.0438258,5.50004264 Z M22.8231196,17.3887556 C22.8579978,17.4324587 23.067952,17.9982304 23.1077346,18.1557487 C23.1865599,18.4678112 23.1615999,18.6399799 22.984606,19.0054664 C22.878574,19.22445 22.791584,19.5024753 22.6314127,20.1345314 C22.5144214,20.5960987 22.4842009,20.6568754 22.3451538,20.7102444 C22.1939692,20.7682673 22.0746216,20.7656512 21.9506985,20.7015974 C21.807706,20.6276574 21.7129622,20.514806 21.6606586,20.3561586 C21.599971,20.1720109 21.5746001,19.7328872 21.6136703,19.5424608 C21.663371,19.3001799 21.6966601,19.0528872 21.7188255,18.7616435 L21.7188255,18.7616435 L21.7394565,18.4902824 L21.9056006,18.4016095 C22.3117825,18.184829 22.4789678,18.0168462 22.6770037,17.6265477 C22.748815,17.4850566 22.8145713,17.3780432 22.8231196,17.3887556 Z M8.03308557,10.4728472 C8.14733707,10.4162287 8.23440931,10.4172752 8.3593188,10.4767576 C8.49480408,10.5412796 8.79372106,10.8228849 8.79358412,10.8858922 C8.79339228,10.9848919 8.68462047,11.1138532 8.47329631,11.2656711 C8.24397136,11.430432 8.17725616,11.4426314 8.03111289,11.3463855 C7.96823347,11.3049681 7.96521964,11.2914468 7.9798504,11.1160838 L7.9798504,11.1160838 L7.99538532,10.9297881 L7.89488784,10.86444 C7.83962519,10.8284751 7.79047239,10.7786035 7.78567766,10.7535713 C7.77427991,10.6940062 7.91965603,10.5290526 8.03308557,10.4728472 Z" id="Combined-Shape" fill="#330A06"></path>
        <path d="M9.68414296,8.21050395 L9.69332143,8.27772463 C9.69836275,8.31470839 9.69466396,8.39751566 9.6850745,8.46173467 C9.66984097,8.56387375 9.65718289,8.58080972 9.58427564,8.59691955 C9.53841066,8.6070536 9.30785278,8.67088707 9.07195222,8.73882374 L8.97063375,8.76799645 C8.76871076,8.82613154 8.5778331,8.88105838 8.51970926,8.89774651 C7.97954902,9.05295164 6.84467824,9.45374216 6.19084188,9.72017395 C4.40712125,10.4470164 2.7080618,11.378853 1.25364301,12.4280022 L1.25364301,12.4280022 L0.933081268,12.6592402 L0.466540634,12.6516947 L1.15463195e-14,12.6441493 L0.458321102,12.3369059 C1.72371805,11.4886477 2.88730239,10.8125305 4.1533021,10.1898925 C4.4728775,10.0327046 4.74086164,9.90410139 4.74877979,9.90410139 C4.75672534,9.90410139 4.85325004,9.86160999 4.96330957,9.80970054 C5.4687012,9.57127507 6.01266982,9.34964788 6.75250989,9.08076519 C7.39785275,8.8462226 7.8482009,8.7006283 8.46491238,8.52722044 C8.57793095,8.49544139 8.71355323,8.45686042 8.76629522,8.44152166 C8.81903722,8.4261829 9.04712923,8.36791213 9.27316636,8.31206472 L9.27316636,8.31206472 L9.68414296,8.21050395 Z M20.4015633,6.54854788 C21.5131728,6.51525423 23.0726646,6.55344967 23.575152,6.62623305 C23.6655668,6.63934122 23.8258477,6.65812225 23.9313317,6.66795338 C24.3475688,6.7067822 25.106259,6.85080683 25.5478396,6.97478367 C26.749453,7.31218132 27.5331306,7.82251868 27.8462126,8.47148319 C27.9190376,8.62244743 28,8.97617522 28,9.14344206 C28,9.43788017 27.8539389,9.92660007 27.6677665,10.2550754 C27.399344,10.7287043 26.728,11.4749887 26.191703,11.8958821 L26.191703,11.8958821 L25.9588162,12.0786805 L25.6061709,11.7246773 L25.8099057,11.5092462 C26.6236942,10.6486784 26.9443107,10.0832372 26.977682,9.44972159 C26.9900935,9.21393978 26.9835453,9.14875693 26.9321732,8.99638824 C26.8105241,8.63561068 26.577473,8.34775419 26.2087722,8.10277463 C25.1443976,7.39564951 23.2918247,7.05001795 20.7531127,7.08493635 L20.7531127,7.08493635 L20.0681517,7.0943544 L19.9095969,6.84337152 C19.8223877,6.70532268 19.7566588,6.58674332 19.7635358,6.57983124 C19.7703854,6.57291916 20.0575211,6.55884715 20.4015633,6.54854788 Z" id="Combined-Shape" fill="#EF8414"></path>
    </g>
</svg>