<?xml version="1.0" encoding="UTF-8"?>
<svg width="28px" height="28px" viewBox="0 0 28 28" version="1.1" xmlns="http://www.w3.org/2000/svg" xmlns:xlink="http://www.w3.org/1999/xlink">
    <title>KQ</title>
    <g id="KQ" stroke="none" stroke-width="1" fill="none" fill-rule="evenodd">
        <path d="M11.0971967,1.96629303 C16.3718311,0.486310834 20.3837158,3.00246062 20.3837158,3.00246062 C26.4733773,6.33287069 25.806537,13.0684101 25.806537,13.0684101 C25.720577,16.8240346 24.0137132,19.6075403 22.3005358,21.467015 C22.8691118,21.6672144 23.1080024,21.6215189 23.1080024,21.6215189 C26.4327163,21.8870875 27.7334164,20.440864 27.7334164,20.440864 C28.0297898,20.2027525 27.9999718,20.5155833 27.9999718,20.5155833 C27.9629251,23.6029306 26.2041112,24.669256 26.2041112,24.669256 C24.1394363,26.3823984 20.6602106,25.466862 20.6602106,25.466862 C19.8561474,25.1589338 19.149114,24.8229543 18.5327482,24.4828603 C13.998988,27.7106953 7.97578771,26.0961245 7.97578771,26.0961245 C3.11318465,24.9357248 1.2888614,20.8401171 1.2888614,20.8401171 C-1.75483988,14.9926571 1.5472846,9.69974017 1.5472846,9.69974017 C3.99959432,4.00126856 11.0971967,1.96629303 11.0971967,1.96629303 Z M21.6460138,5.22333416 C21.6460138,5.22333416 17.7077707,1.89247397 10.7985643,4.85288849 C10.7985643,4.85288849 5.86864466,6.87841157 3.26814822,11.9858806 C3.26814822,11.9858806 0.54295806,16.5032472 2.77027694,21.2407206 C2.77027694,21.2407206 6.71348975,28.5380051 16.8172949,23.5048053 C16.8172949,23.5048053 16.8482807,23.4840796 16.9061741,23.4443148 C15.63708,22.5019373 15.0806187,21.7353983 15.0806187,21.7353983 C12.5171689,19.1440791 11.5629909,15.7168941 11.5629909,15.7168941 C11.4857351,15.3748057 11.3714325,15.5647548 11.3714325,15.5647548 C10.9512689,15.7168941 10.3770453,17.7356654 10.3770453,17.7356654 C9.53671809,21.1254908 10.8672362,21.7624053 10.8672362,21.7624053 L10.8672362,21.7624053 L6.05794418,21.6215189 C5.59847495,18.7268214 6.55581546,15.7560542 6.55581546,15.7560542 C6.59376572,15.3748057 9.30766115,9.05247302 9.30766115,9.05247302 L9.30766115,9.05247302 L8.35122422,9.0907329 C8.12126371,9.01466325 8.24957174,8.94984652 8.24957174,8.94984652 C9.80502588,7.03989419 12.5429827,6.658406 12.8691429,6.61918044 L12.9011894,6.61554369 C14.8886084,6.46295428 14.162132,7.64360918 14.162132,7.64360918 L14.162132,7.64360918 L12.8627874,11.0716945 C12.5926177,11.6046321 12.9382361,11.3759731 12.9382361,11.3759731 L12.9382361,11.3759731 L17.4416671,8.46372098 C18.9506417,7.49912187 20.699968,5.7013576 20.699968,5.7013576 C20.8142706,5.43443867 21.1576301,5.66354784 21.1576301,5.66354784 C22.1357529,7.10121911 21.5018932,9.54850112 21.5018932,9.54850112 C21.0844403,11.7815278 18.0244746,13.2795146 18.0244746,13.2795146 C17.0291839,14.0798213 13.6272141,14.6888286 13.6272141,14.6888286 C13.2459043,14.7279887 13.5129115,14.918838 13.5129115,14.918838 L13.5129115,14.918838 L19.3631249,19.7175272 C19.7910059,20.0431114 20.1763645,20.3134786 20.5220794,20.5379284 C21.8674871,19.2766675 23.1893345,17.7673083 23.7242424,16.324551 C23.7242424,16.324551 27.2179253,9.36845462 21.6460138,5.22333416 Z" id="Combined-Shape" fill="#EC2227" fill-rule="nonzero"></path>
    </g>
</svg>