<?xml version="1.0" encoding="UTF-8"?>
<svg width="28px" height="28px" viewBox="0 0 28 28" version="1.1" xmlns="http://www.w3.org/2000/svg" xmlns:xlink="http://www.w3.org/1999/xlink">
    <title>KU</title>
    <defs>
        <radialGradient cx="72.7063389%" cy="60.1068914%" fx="72.7063389%" fy="60.1068914%" r="108.190053%" gradientTransform="translate(0.727063,0.601069),scale(0.392857,1.000000),translate(-0.727063,-0.601069)" id="radialGradient-1">
            <stop stop-color="#00AEEF" offset="0%"></stop>
            <stop stop-color="#00AEEF" offset="47.582%"></stop>
            <stop stop-color="#0B4379" offset="79.884%"></stop>
            <stop stop-color="#1E285A" offset="100%"></stop>
        </radialGradient>
    </defs>
    <g id="KU" stroke="none" stroke-width="1" fill="none" fill-rule="evenodd">
        <path d="M0,8.55657721 C2.77029178,10.142959 9.99475378,15.9240513 17.6784558,18.2739987 L17.6784558,18.2739987 C18.0477454,18.3867035 18.4141472,18.4905057 18.7751839,18.5853937 L18.7751839,18.5853937 C22.5307992,19.572149 25.7698201,19.6002147 28,19.4033089 L28,19.4033089 C16.7909226,17.3598581 13.2445035,13.9175753 12.7357502,13.1731651 L12.7357502,13.1731651 C12.6779829,13.0898582 12.651573,13.0430828 12.651573,13.0430828 L12.651573,13.0430828 C12.6185665,13.0274873 14.4687267,11.0909565 18.0357767,11.1408509 L18.0357767,11.1408509 C22.4920089,11.202324 25.5106954,12.6693182 25.5106954,12.6693182 L25.5106954,12.6693182 C23.9522511,11.6585078 22.3686379,10.9996308 21.0259912,10.5728538 L21.0259912,10.5728538 C20.2973151,10.3322905 19.5785411,10.150532 18.8746211,10.0168861 L18.8746211,10.0168861 C18.0250478,9.84804604 17.502679,9.80706062 17.502679,9.80706062 L17.502679,9.80706062 C15.1982285,9.54511434 13.4796897,10.0890551 12.0466808,10.6325489 L12.0466808,10.6325489 C10.7060973,11.1399594 8.97394298,12.0968672 6.67815819,11.0325974 L6.67815819,11.0325974 C5.69201011,10.5759729 5.00253138,10.4245064 3.86825506,10.5612714 L3.86825506,10.5612714 C2.07957209,9.76028527 0.730324025,8.8127323 0.058175484,8.5 L0.058175484,8.5 L0,8.55657721 Z" id="path16027" fill="url(#radialGradient-1)" fill-rule="nonzero"></path>
    </g>
</svg>