<?xml version="1.0" encoding="UTF-8"?>
<svg width="28px" height="28px" viewBox="0 0 28 28" version="1.1" xmlns="http://www.w3.org/2000/svg" xmlns:xlink="http://www.w3.org/1999/xlink">
    <title>KX</title>
    <g id="KX" stroke="none" stroke-width="1" fill="none" fill-rule="evenodd">
        <path d="M7.40958301,10.3159076 L2.992489,15.868252 C2.992489,15.868252 2.00621599,17.0448427 4.23278947,18.4578167 L5.98487441,16.2254899 L6.35700602,16.4925989 L4.67578355,18.8076803 L6.3350428,19.9908259 L5.06904954,21.5803704 C5.06904954,21.5803704 4.39440564,22.4701876 5.18425287,23.4124434 L5.1958561,23.4575078 L2.77119926,26.7381966 C2.77119926,26.7381966 2.57435905,26.9938347 2.55032384,27.1011699 C2.52753179,27.2093245 2.50473982,27.3060081 2.55032384,27.3436983 C2.5971511,27.3756531 2.70282319,27.4239949 2.91209538,27.2240729 C3.11763798,27.0159572 5.87174317,24.3383122 5.87174317,24.3383122 C5.87174317,24.3383122 5.97285685,24.1326546 6.30976442,24.3014413 C6.64584317,24.470228 6.96161628,24.6660533 7.68018661,24.0884095 C8.39751369,23.5083077 9.82636638,21.4550095 9.82636638,21.4550095 L9.94115529,21.4705772 L10.1408963,24.2211447 L13.9343178,24.2326156 L18.9945612,28 L19.7006996,27.9647678 L11.4694641,21.5664415 L11.7562291,21.2722938 L13.6090134,22.6881355 L12.018959,10.3380302 L7.40958301,10.3159076" id="path7312_1_" fill="#18468B" fill-rule="nonzero"></path>
        <path d="M8.20398865,3.98067137 C6.54224299,3.9610069 5.56674438,4.11217752 5.56674438,4.11217752 C4.4192696,4.26089006 4.01108522,4.58125699 4.01108522,4.58125699 C2.72934473,5.3694744 2.87272727,7.30068903 2.87272727,7.30068903 L4.14369335,7.26340847 L4.16275574,7.46947574 C4.25019419,8.28555121 5.05454548,8.27612862 5.05454548,8.27612862 C6.54514382,8.14298379 6.93302257,8.35109943 6.93302257,8.35109943 C7.46096869,8.45310883 7.46386952,8.91358519 7.46386952,8.91358519 L11.9795909,8.87630463 C11.9795909,8.87630463 11.7433827,5.48582261 11.2394717,4.7500437 C10.8234137,4.15273545 10.0820514,4.05605188 10.0820514,4.05605188 C9.38710178,4.00074553 8.75804198,3.9872262 8.20398865,3.98067137 L8.20398865,3.98067137 Z M12.6815852,10.6207068 L12.9472158,12.5900213 L15.1290341,12.646147 L15.5086248,11.5019208 C15.5086248,11.5019208 14.2538203,10.6325874 12.6815852,10.6207068 L12.6815852,10.6207068 Z M16.0017613,11.8022135 L15.6221706,12.9275947 L16.8744886,14.371704 L18.2971252,14.3340138 C18.2971252,14.3340139 17.6597773,12.6117342 16.0017613,11.8022135 Z M13.0039887,13.1340716 L13.4594147,16.2287673 L15.6412329,16.3410187 L16.4758354,14.6343067 L15.129034,13.1525071 L13.0039887,13.1340716 L13.0039887,13.1340716 Z M18.3924373,14.8030934 L16.9693863,14.859219 L16.2102047,16.4909602 L17.3299146,17.7474377 L18.9042218,17.7474377 C19.1284124,15.9932033 18.3924373,14.8030934 18.3924373,14.8030934 L18.3924373,14.8030934 Z M13.53525,16.7539724 L13.9716137,19.7360071 L16.0017613,19.6983168 L17.0261592,18.0104499 L15.9259261,16.8289432 L13.53525,16.7539724 Z M8.03325566,17.785128 L6.26873865,19.942484 C7.58943274,20.908501 8.35565917,19.7736973 8.35565917,19.7736973 C9.18611759,18.7839191 8.03325566,17.785128 8.03325566,17.785128 Z M17.3299147,18.2726429 L16.3622897,19.7925424 L17.5951309,20.9175139 C18.460399,19.9752581 18.7716137,18.2726429 18.7716137,18.2726429 L17.3676251,18.2726429 L17.3299147,18.2726429 L17.3299147,18.2726429 Z M16.0204093,20.204677 L14.0288009,20.2612123 L14.4456877,23.1682762 C15.8994043,22.7987481 17.2350169,21.4058483 17.2350169,21.4058483 L16.0204093,20.204677 L16.0204093,20.204677 Z" id="path7316_1_" fill="#419629" fill-rule="nonzero"></path>
        <path d="M8.12815335,0.00435206014 C4.54980574,0.074406733 2,2.51771692 2,2.51771692 L4.21994307,4.63738272 C5.2215489,3.97329725 9.45630677,4.28096422 9.45630677,4.28096422 C11.0003627,4.2240192 11.1445741,5.06877194 11.1445741,5.06877194 C11.4893551,5.82052818 11.8279203,8.85745947 11.8279203,8.85745947 L7.29313652,8.87630455 C6.98689465,9.64608657 7.4070966,10.3204139 7.4070966,10.3204139 L13.819943,10.3581042 L13.9144263,10.3581042 C14.1241129,10.3339333 14.5492878,9.98939542 14.7494431,9.90786978 C15.174618,9.73498632 15.5964776,9.47197403 15.8687387,9.08237181 C15.9304843,8.9893753 15.9773116,8.89883678 16.0585341,8.81976921 C16.3225072,8.55716661 16.7037555,8.42525086 17.0642839,8.40722508 C17.5914013,8.37649934 18.0953122,8.61493103 18.619943,8.65098251 C19.0525771,8.68129855 19.5034447,8.62722129 19.8909091,8.40722508 C20.2870759,8.18067404 20.5920747,7.81360397 20.8208236,7.39450493 C20.9343694,7.1761474 20.991971,6.9135448 21.1432272,6.71935819 C21.2319089,6.60341976 21.3367521,6.49854259 21.4656307,6.4379105 C21.6844341,6.33876878 21.9363895,6.34245592 22.1676249,6.40022025 C22.4954157,6.59317787 22.8447553,6.74393879 23.2110852,6.794329 C23.4850039,6.83079017 23.7605801,6.80539027 24.0079772,6.68166802 C24.1347837,6.61734878 24.2607615,6.51124263 24.3494432,6.40022034 C24.4762497,6.24904972 24.5288786,6.04994697 24.5773634,5.85617005 L24.8997669,3.83072984 C24.9300181,3.64023028 24.9954934,3.46775652 25.0514374,3.28667955 C25.1218855,3.05971882 25.1579384,2.82538389 25.2602953,2.61153281 C25.4575499,2.21332731 25.7194509,1.85895719 26,1.52384194 L26,1.46730652 C25.8462575,1.42920657 25.6850556,1.44477429 25.5259259,1.44887104 C25.0166277,1.46730652 24.5060864,1.55006114 24.0079772,1.65493831 C23.024605,1.87411522 22.073556,2.27191102 21.2762496,2.93067066 C21.1386687,3.04374133 21.0081325,3.1818023 20.8775964,3.30552455 L20.725926,3.41818561 C20.0898214,3.57099491 19.5092464,3.95322301 19.1130796,4.50587649 C19.0161099,4.63656325 18.922041,4.77298554 18.8474489,4.91883032 C18.8035225,5.00117525 18.7881897,5.08843633 18.7525513,5.18143292 C18.6821032,5.36128089 18.5954935,5.53989979 18.5250454,5.72507351 C18.4384357,5.93441815 18.2776484,6.12286932 18.0886818,6.23143355 C17.9142192,6.32770751 17.6954158,6.35761386 17.5002331,6.38178478 C16.9975654,6.45142976 16.4948977,6.44077818 15.9826988,6.40022025 C15.4758871,6.43995888 14.9545714,6.58416498 14.5219374,6.88814489 C14.363222,7.00285433 14.2190107,7.14624105 14.0855737,7.30068903 C13.8555815,7.56165295 13.7121989,7.89553921 13.4403523,8.10734192 C12.5228697,8.82222728 12.39482,8.87712393 12.1693862,8.85745947 L12.1312613,8.50104097 L15.9636364,4.54356674 L15.8878011,4.52472166 C14.9815074,5.19044581 14.6926703,3.9622359 14.6926703,3.9622359 C14.3155659,2.54434582 13.023051,1.52384185 13.023051,1.52384185 C11.1698524,-0.159518507 8.12815335,0.00435206014 8.12815335,0.00435206014 L8.12815335,0.00435206014 Z M7.86252267,11.0893766 L8.16627821,11.539611 L11.2208237,11.5773013 L11.4483295,11.1270669 L7.86252267,11.0893766 Z M8.48868172,11.9898453 L8.79202285,12.4023895 L10.5756022,12.4400797 L10.8602953,11.9898453 L8.48868172,11.9898453 L8.48868172,11.9898453 Z M9.03900548,12.8337788 L9.2665113,13.1901973 L10.1201762,13.1901973 L10.3099716,12.8337788 L9.03900548,12.8337788 Z M9.6079772,13.865344 C8.20771823,13.7985668 7.63501684,14.7469677 7.63501684,14.7469677 C6.94048172,15.9616583 7.67272729,16.8477884 7.67272729,16.8477884 L9.6079772,13.865344 Z M9.79777267,13.865344 L11.9037556,17.0538556 C11.9037556,17.0538556 12.5145818,16.1197933 11.7516706,14.9157544 C11.7516706,14.9157543 11.0786843,13.9005762 9.79777267,13.865344 L9.79777267,13.865344 Z M10.3480964,24.7438916 C10.2461539,24.7438916 10.2088579,24.8749881 10.176949,24.9692137 L10.158301,27.6132653 L10.176949,27.6886458 L10.176949,27.7074909 L10.2341363,27.7451811 L11.922818,27.7632069 C12.0023828,27.7632069 12.0666149,27.7025748 12.093551,27.6321105 C12.0666149,27.3879433 12.0782181,27.1454149 12.1503238,26.9012477 L12.1880342,26.9012477 C12.5145817,27.3592659 13.0288527,27.6206395 13.5543124,27.7632069 L15.9826988,27.8008972 L16.0775965,27.7451811 L16.115307,27.5952396 C16.1418286,27.3150209 16.1563326,27.0118604 16.1343694,26.7316417 C16.1687646,26.6431515 16.1041182,26.5776033 16.0204093,26.5448292 C15.9097644,26.5055003 15.7891739,26.5505646 15.6789433,26.5448292 C15.353639,26.5161518 15.022533,26.4178295 14.7494432,26.2252816 C14.4502461,26.0179853 14.1908315,25.7312118 14.0665113,25.3813481 C14.0002073,25.2191162 13.9828024,25.0503295 13.9525512,24.8749881 L13.8767159,24.800427 L10.347682,24.7438916 L10.3480964,24.7438916 L10.3480964,24.7438916 Z" id="path7344_1_" fill="#C4122E" fill-rule="nonzero"></path>
        <path d="M7.90023311,3.77460411 C6.41295002,3.77460411 5.55638431,3.90488118 5.5476819,3.90570056 C4.36995593,4.05728087 3.92364668,4.40919292 3.89712506,4.43090576 C3.34514372,4.78281781 3.03144261,5.33014547 2.87272727,5.83773458 C2.70945351,6.35433658 2.68376064,6.8438999 2.68293189,7.11305724 C2.68293189,7.24210532 2.68293189,7.31543736 2.68293189,7.3195342 L2.70199427,7.50716599 L3.97296036,7.45063065 L3.99202275,7.4883209 C4.03926443,7.9639552 4.30986785,8.23475131 4.56140889,8.35109943 C4.81460751,8.47236369 5.03921259,8.4633508 5.0545454,8.4633508 L5.07360778,8.4633508 C5.44698255,8.43139607 5.74327886,8.42607024 5.98404549,8.42607024 C6.33835788,8.42607024 6.57373727,8.4559766 6.70510224,8.48219589 L6.81906232,8.51988614 L6.85677276,8.51988614 L6.87583515,8.51988614 L6.89489754,8.53873122 C7.10789938,8.5829763 7.16964504,8.67965995 7.21730105,8.76364357 L7.27407388,8.87630455 L7.27407388,8.89474002 L7.27407388,8.91358511 L7.33126113,8.91358511 L7.65366464,8.91358511 C7.65283581,8.89433033 7.64661982,8.74848555 7.55876695,8.5760117 C7.47754449,8.41009275 7.29935226,8.22901579 7.0084432,8.16346756 C6.96824634,8.14462248 6.7316237,8.0327808 5.98404532,8.03196141 C5.73043229,8.03196141 5.41631676,8.05449364 5.03548275,8.08849675 C4.97456593,8.08480969 4.80093211,8.04548075 4.65589199,7.9569906 C4.51665345,7.86686177 4.39067573,7.73371694 4.35255087,7.45063057 C4.40062129,7.45104026 4.41305336,7.45063057 4.50422139,7.45063057 C4.80176085,7.45063057 5.29323978,7.43424347 5.75653942,7.37565976 C5.98694607,7.34616301 6.20782149,7.30355671 6.40134644,7.24415361 C6.59362824,7.18147315 6.75524441,7.1093701 6.8758349,6.96311562 L6.59114182,6.71935819 C6.56420621,6.7599162 6.44858846,6.81972899 6.28780112,6.86929981 C5.79963744,7.02743494 4.93519816,7.05857028 4.50422173,7.0569316 C4.3372184,7.0569316 4.23859104,7.0569316 4.23859104,7.0569316 L3.06252265,7.11305724 C3.06252265,6.87175779 3.08655786,6.40923314 3.23325564,5.95039555 C3.37829576,5.49032897 3.64061128,5.03722682 4.10598291,4.75004361 L4.1250453,4.75004361 C4.14825176,4.73119853 4.5531209,4.43705081 5.60486915,4.29980922 L5.75653967,4.28096414 C6.0598808,4.24573196 6.80165751,4.16830316 7.90023302,4.16830316 C8.51976167,4.16830316 9.25946639,4.1990289 10.0820512,4.26211906 L10.1011136,4.26211906 C10.2254338,4.27932546 10.7790727,4.40837353 11.0878011,4.86229498 C11.1843563,4.99584951 11.2833981,5.33424222 11.3724941,5.74391868 C11.5104895,6.35966232 11.6252784,7.15730232 11.6948976,7.78820398 C11.7624449,8.41705727 11.7881377,8.87630455 11.7897953,8.87630455 L12.1693863,8.85745947 C12.1693863,8.8550014 12.1047398,7.99918738 11.9795909,7.0569316 C11.9178452,6.58416498 11.8494692,6.08149201 11.7516706,5.65010279 C11.6555297,5.21953286 11.5469569,4.87007888 11.3915567,4.63738264 C10.911681,3.95854884 10.1384098,3.87374575 10.1201762,3.86842 L10.1011137,3.86842 C9.26941213,3.80369116 8.52722091,3.77460411 7.90023311,3.77460411 L7.90023311,3.77460411 Z M5.85143745,5.23755865 C5.85143745,5.23755865 5.13659669,5.1998684 5.07360787,5.96924072 L6.70510233,5.95039564 C6.70510233,5.95039564 6.62470861,5.21215866 5.85143745,5.23755865 Z" id="path7380_1_" fill="#18468B" fill-rule="nonzero"></path>
    </g>
</svg>