<?xml version="1.0" encoding="UTF-8"?>
<svg width="28px" height="28px" viewBox="0 0 28 28" version="1.1" xmlns="http://www.w3.org/2000/svg" xmlns:xlink="http://www.w3.org/1999/xlink">
    <title>KZ</title>
    <g id="KZ" stroke="none" stroke-width="1" fill="none" fill-rule="evenodd">
        <path d="M3.45862784,9.27844823 C3.81701012,9.51297935 3.93988381,9.78377005 3.93988381,9.78377005 L6.27448382,14.125418 C6.27448382,14.125418 6.28902674,14.1693306 6.30520294,14.2182316 C6.33592206,14.3110481 6.3669684,14.4038617 6.3669684,14.4038617 L6.3669684,9.00000451 L9.20561481,9.00000451 L9.20561481,19.0000045 L6.60214698,19.0000045 C6.60214698,19.0000045 6.18827507,18.9850151 5.86490487,18.7784427 C5.4272497,18.4990018 5.28125557,18.2109109 5.28125557,18.2109109 L2.9671331,13.9088519 C2.9671331,13.9088519 2.92617521,13.8263503 2.90569766,13.7850994 C2.8852257,13.7438486 2.83864641,13.5272825 2.83864641,13.5272825 L2.83864641,19.0000045 L5.08926234e-13,19.0000045 L5.08926234e-13,9.00000451 L2.67018906,9.00000451 C2.67018906,9.00000451 3.041123,9.0053281 3.45862784,9.27844823 Z M19.0123864,9 L19.0123864,11.8413197 L12.9199016,11.8413197 C12.9199016,11.8413197 12.7719246,12.5475749 12.7719246,14.0016655 C12.7719246,15.4464413 12.9199016,16.106122 12.9199016,16.106122 L12.9199016,16.106122 L17.7017337,16.106122 C17.7017337,16.106122 18.4782837,15.3968755 19.2478949,14.2801093 C20.1796878,12.9291442 20.3332778,11.9597514 20.7838146,11.2791115 C22.2153985,9.11683794 24.4586249,9.00585944 24.7175803,9.00028506 L28,9 L28,19 L25.179191,19 L25.179191,16.8233539 L20.8964495,16.8233539 C20.8964495,16.8233539 20.4971093,17.3656029 19.9748983,17.8915515 C19.475366,18.3949444 18.9341527,18.8191289 18.7987097,18.9232955 L18.766639,18.9477724 L11.7635977,18.9478545 C11.6082771,18.9448314 10.8852915,18.888186 10.4525191,18.1134412 C10.235508,17.7262159 9.93294815,16.0143055 9.93294815,14.0016655 C9.93294815,12.1041279 10.1744026,10.4341359 10.4525191,9.83533287 C10.8208102,9.04125532 11.7995039,9 11.7995039,9 L19.0123864,9 Z M25.179191,11.846311 C25.179191,11.846311 24.1955415,11.7924187 23.507516,12.4444464 C22.9853022,12.9394562 22.7088357,13.9800416 22.7088357,13.9800416 L22.7088357,13.9800416 L25.179191,13.9800416 Z" id="Combined-Shape" fill="#001171" fill-rule="nonzero"></path>
    </g>
</svg>