<?xml version="1.0" encoding="UTF-8"?>
<svg width="28px" height="28px" viewBox="0 0 28 28" version="1.1" xmlns="http://www.w3.org/2000/svg" xmlns:xlink="http://www.w3.org/1999/xlink">
    <title>LA</title>
    <g id="LA" stroke="none" stroke-width="1" fill="none" fill-rule="evenodd">
        <path d="M5.59459358,8.53753345 C5.69242322,8.48200783 5.82632739,8.52813979 5.82632739,8.52813979 L5.82632739,8.52813979 L10.0441412,10.0980278 C10.0441412,10.0980278 10.2398702,10.1610575 10.3486859,10.2629954 C10.4575016,10.3649332 10.4899973,10.5726197 10.4899973,10.5726197 L10.4899973,10.5726197 L7.45535955,11.4608126 L6.67802976,11.6922861 C6.67802976,11.6922861 6.03372622,11.8021303 5.76171792,11.3708315 C5.53916929,11.0179359 5.50574951,10.8249595 5.50095384,10.7664522 L5.50043169,8.72636678 C5.50189256,8.69169027 5.51306889,8.58380479 5.59459358,8.53753345 Z M5.594373,3.4893859 C5.69220263,3.43386029 5.82610681,3.47999225 5.82610681,3.47999225 L5.82610681,3.47999225 L22.0541351,9.51986621 C22.0541351,9.51986621 22.2013362,9.57385485 22.310151,9.6757927 C22.4189657,9.77771698 22.3588165,10.1571834 22.3588165,10.1571834 L22.3588165,10.1571834 L19.5359408,11.6556472 L6.48369401,6.79779117 C6.48369401,6.79779117 6.04232905,6.68612967 5.77032075,6.25483087 C5.49831687,5.82352754 5.50000013,5.42201448 5.50000013,5.42201448 L5.50019699,3.67821924 C5.50166138,3.64354273 5.5128483,3.53565725 5.594373,3.4893859 Z M9.63108621,0.0273731837 C9.72891585,-0.0281524296 9.86282002,0.0179795319 9.86282002,0.0179795319 L9.86282002,0.0179795319 L22.0541351,4.47585043 C22.0541351,4.47585043 22.1836884,4.50723644 22.2925041,4.60917429 C22.4013198,4.71111213 22.3588165,4.99112704 22.3588165,4.99112704 L22.3588165,4.99112704 L19.5359408,6.61164498 L10.5204072,3.33577845 C10.5204072,3.33577845 10.0790423,3.22411695 9.80703397,2.79281815 C9.53503008,2.36151482 9.53671334,1.96000176 9.53671334,1.96000176 L9.5369102,0.216206516 C9.5383746,0.181530006 9.54956152,0.0736445281 9.63108621,0.0273731837 Z" id="Combined-Shape" fill="#ED1651" fill-rule="nonzero"></path>
        <path d="M12.2606012,24.0107087 C12.3771982,24.1301771 12.3771982,24.393109 12.3771982,24.393109 L12.3771982,26.108784 C12.3771982,26.108784 12.3704752,26.4222462 12.244997,26.7041372 C12.1195192,26.9860326 11.9357539,27.0527149 11.9357539,27.0527149 L11.5534043,27.19503 L9.49269533,28 L9.49269533,24.9260427 L11.5534043,24.1210728 C11.5534043,24.1210728 12.1439997,23.8912267 12.2606012,24.0107087 Z M16.0061417,17.5951836 C16.1060807,17.6975786 16.120359,17.9053868 16.1223987,17.9626705 L16.1227387,19.6932589 C16.1227387,19.6932589 16.1160157,20.0067211 15.9905374,20.2886121 C15.8650596,20.5705075 15.6812943,20.6371898 15.6812943,20.6371898 L15.2989448,20.7795049 L9.49269533,22.9406325 L9.49269533,19.8666753 L15.2989448,17.7055477 C15.2989448,17.7055477 15.8895402,17.4757016 16.0061417,17.5951836 Z M22.0541263,9.51969895 L22.0900741,9.52802397 C22.146268,9.5436129 22.2588674,9.58511515 22.3586886,9.68466649 C22.4984383,9.82403835 22.5,9.99429083 22.5,9.99429083 L22.5,12.2886383 C22.5,12.2886383 22.493277,12.6021006 22.3677987,12.8839915 C22.2423209,13.1658869 22.0585556,13.2325737 22.0585556,13.2325737 L21.6762061,13.3748844 L9.49283209,17.9094234 L9.49283209,14.8354661 L21.6762061,10.3009271 C21.6762061,10.3009271 22.2953011,10.0421451 22.2953011,9.77921328 C22.2953011,9.59765994 22.0541263,9.51969895 22.0541263,9.51969895 Z M22.0542366,4.47643584 C22.0541439,4.47569673 22.2189389,4.5012924 22.3586886,4.64066427 C22.4984383,4.78003613 22.5,4.95028861 22.5,4.95028861 L22.5,7.24463606 C22.5,7.24463606 22.493277,7.55809833 22.3677987,7.83998926 C22.2423209,8.1218847 22.0585556,8.18857149 22.0585556,8.18857149 L21.6762061,8.33088215 L9.49283209,12.8654212 C9.49283209,12.8654212 9.43424461,12.8839531 9.35802352,12.8839531 C9.28180243,12.8839531 9.22321494,12.8654212 9.22321494,12.8654212 L5.82871413,11.6019795 C5.82871413,11.6019795 5.74450344,11.5819057 5.62502114,11.390107 C5.49046403,11.17493 5.50001552,10.7477404 5.50001552,10.7477404 C5.50001552,10.7477404 5.52127805,10.9667508 5.64209445,11.0707545 C5.76291085,11.1747582 6.08489762,11.0606579 6.08489762,11.0606579 L21.6763164,5.25765947 C21.6763164,5.25765947 22.2954114,4.99887748 22.2954114,4.73594564 C22.2954114,4.5543923 22.0542366,4.47643584 22.0542366,4.47643584 Z" id="Combined-Shape" fill="#2A0088" fill-rule="nonzero"></path>
    </g>
</svg>