<?xml version="1.0" encoding="UTF-8"?>
<svg width="28px" height="28px" viewBox="0 0 28 28" version="1.1" xmlns="http://www.w3.org/2000/svg" xmlns:xlink="http://www.w3.org/1999/xlink">
    <title>LG</title>
    <g id="LG" stroke="none" stroke-width="1" fill="none" fill-rule="evenodd">
        <path d="M14.024855,28 C21.7299089,28 28,21.7229386 28,14.0314681 C28,6.27043653 21.7299089,0 14.024855,0 C6.27009114,0 0,6.27374896 0,14.0314681 C0,21.7229386 6.27009114,28 14.024855,28 Z M14.024855,26.3371584 C7.22452361,26.3371584 1.71002486,20.8252691 1.71002486,14.0347806 C1.71002486,7.22441737 7.22452361,1.7125281 14.024855,1.7125281 C20.8251864,1.7125281 26.3429992,7.17141843 26.3429992,14.0347806 C26.3429992,20.8252691 20.8251864,26.3371584 14.024855,26.3371584 Z M23.8747307,19.2412635 C24.0536868,19.2412635 24.1796189,19.0888915 24.1796189,18.9199574 C24.1796189,18.7443984 24.0967688,18.641713 23.9211268,18.6019638 L21.252828,17.988226 C19.7840488,17.6404232 17.9823322,17.1908671 16.491135,16.7403762 C14.7512842,16.2136993 14.0719138,14.7197918 14.5259321,12.7257068 L14.6378387,12.2570355 C15.2832073,9.65624556 17.1477216,3.41321424 17.1539354,3.39458181 C17.2036454,3.24883473 17.1705054,3.06333846 17.0180613,2.99046492 C16.8490472,2.89771679 16.7032312,2.94077842 16.5971831,3.06333846 L3.71897266,18.5456524 C3.58641259,18.6913995 3.53670257,18.8669585 3.5963546,19.0027682 C3.65600663,19.1485153 3.78856669,19.237951 3.97415079,19.237951 L23.8747307,19.2412635 Z" id="Shape" fill="#00ABBF" fill-rule="nonzero"></path>
    </g>
</svg>