<?xml version="1.0" encoding="UTF-8"?>
<svg width="28px" height="28px" viewBox="0 0 28 28" version="1.1" xmlns="http://www.w3.org/2000/svg" xmlns:xlink="http://www.w3.org/1999/xlink">
    <title>LH</title>
    <g id="LH" stroke="none" stroke-width="1" fill="none" fill-rule="evenodd">
        <path d="M19.4284827,11.216081 L19.2269118,11.220776 C19.2097687,11.2218225 19.1947258,11.2230448 19.1821316,11.2244442 L19.043026,11.4595052 C19.0040503,11.5223552 18.95925,11.5929115 18.9077277,11.6724342 C20.9122526,11.6724342 22.7320637,11.8375906 24.7449518,12.198722 L24.1766518,12.7474653 C22.561559,12.4612879 21.189815,12.3277696 19.5541064,12.301632 L18.5214418,12.2995412 L18.5214418,12.2995412 L18.4058368,12.4591639 C18.3332614,12.5548408 18.2425599,12.6690753 18.1518822,12.7782839 L18.4567246,12.7669749 C18.6289426,12.7633195 18.8485647,12.7614917 19.1092997,12.7614917 C20.6911227,12.7614917 22.1692952,12.8790372 23.7735079,13.1366496 L23.2051421,13.6881587 C21.9845154,13.497781 20.4923165,13.3885987 19.1540788,13.3885987 C18.6781688,13.3885987 18.1378558,13.4053909 17.6535167,13.4333779 L17.1720093,13.9624974 L17.1720093,13.9624974 C17.8130753,13.8953285 18.5186102,13.8645099 19.3584824,13.8645099 C20.5539537,13.8645099 21.6962168,13.9429394 22.7768428,14.1024984 L22.208477,14.64841 C21.4386051,14.5532541 20.5035113,14.4972801 19.6776655,14.4972801 C17.5471663,14.4972801 15.8673559,14.9591648 14.1315716,16.0202353 C15.7861608,17.7952055 18.4962206,18.9178475 21.1222536,18.9178475 L21.3686047,18.9178475 L20.450369,19.8054643 C16.662449,19.0942645 12.6757887,17.4284767 9.30787069,15.1467108 L7.99548056,14.2697934 C5.70214187,12.7583043 4.56033329,12.1480795 2.40681283,11.196523 L2.39002065,10.5469606 L4.10058373,11.2804841 L4.68291008,10.8185335 L10.2681198,13.3774039 L9.90415759,13.6685348 L7.03737082,12.4227499 L6.75460374,12.6438804 L8.2440369,13.4753914 C9.5010795,14.1753305 10.458497,14.4888511 11.3432142,14.4888511 C13.2777388,14.4888511 15.0135231,13.1170258 16.1333308,10.7065854 C16.9760347,10.5973372 17.8747125,10.5469606 18.9553385,10.5469606 C21.1726302,10.5469606 23.3255189,10.7597278 25.7640064,11.216081 L25.1704853,11.7899797 C23.653131,11.4736275 21.0746429,11.216081 19.4284827,11.216081 Z M14,27.1599282 C6.73405802,27.1599282 0.840069803,21.2659261 0.840069803,13.9999671 C0.840069803,6.734008 6.73405802,0.839940075 14,0.839940075 C21.265942,0.839940075 27.1599302,6.734008 27.1599302,13.9999671 C27.1599302,21.2659261 21.265942,27.1599282 14,27.1599282 Z M14,0 C6.25808212,0 -4.03226156e-21,6.25796513 -4.03226156e-21,13.9999671 C-4.03226156e-21,21.741969 6.25808212,28 14,28 C21.7419837,28 28,21.741969 28,13.9999671 C28,6.25796513 21.7419837,0 14,0 Z" id="Shape" fill="#0A1D3D" fill-rule="nonzero"></path>
    </g>
</svg>