<?xml version="1.0" encoding="UTF-8"?>
<svg width="28px" height="28px" viewBox="0 0 28 28" version="1.1" xmlns="http://www.w3.org/2000/svg" xmlns:xlink="http://www.w3.org/1999/xlink">
    <title>LI</title>
    <defs>
        <linearGradient x1="11.8078945%" y1="0%" x2="88.1921055%" y2="100%" id="linearGradient-1">
            <stop stop-color="#FFFBC2" offset="0%"></stop>
            <stop stop-color="#F8F3BD" offset="27.2007906%"></stop>
            <stop stop-color="#D2C9A2" offset="48.6636832%"></stop>
            <stop stop-color="#DC8E4B" offset="68.899178%"></stop>
            <stop stop-color="#DE8036" offset="100%"></stop>
        </linearGradient>
        <linearGradient x1="25.6259323%" y1="3.88315669%" x2="77.1281693%" y2="100%" id="linearGradient-2">
            <stop stop-color="#FFFCCB" offset="0%"></stop>
            <stop stop-color="#FBF8C7" offset="19.6180695%"></stop>
            <stop stop-color="#D7D5B2" offset="52.9103535%"></stop>
            <stop stop-color="#F5BC32" offset="100%"></stop>
        </linearGradient>
        <linearGradient x1="50%" y1="0%" x2="50%" y2="100%" id="linearGradient-3">
            <stop stop-color="#E7701F" offset="0%"></stop>
            <stop stop-color="#DE6C20" offset="100%"></stop>
        </linearGradient>
        <linearGradient x1="59.6149361%" y1="6.29029289%" x2="37.1699221%" y2="97.4443151%" id="linearGradient-4">
            <stop stop-color="#FCB70B" offset="0%"></stop>
            <stop stop-color="#F8AE13" offset="54.346039%"></stop>
            <stop stop-color="#F6A814" offset="100%"></stop>
        </linearGradient>
    </defs>
    <g id="LI" stroke="none" stroke-width="1" fill="none" fill-rule="evenodd">
        <path d="M7.00447699,18.57087 L7.01709371,18.615987 C7.15196963,21.2256159 8.04655533,22.9068009 8.31929942,23.2356048 L8.33139784,23.2785924 C8.9919802,24.2581822 9.86650669,25.1916558 10.9549773,26.0790131 C11.1061905,26.2087093 11.2695442,26.3422082 11.4461699,26.4809384 C12.5616215,27.3570674 13.8139694,27.8621062 15.2032136,27.9960545 L15.2453538,28 C13.6790236,27.900698 12.2813527,27.6138149 11.0523412,27.1393508 L11.0131747,27.1241447 C9.15548552,26.398827 7.89840262,24.9618768 7.4514398,22.8680352 C7.15804883,21.4936161 7.00909649,20.0838172 7.00458278,18.6386386 L7.00447699,18.57087 Z" id="Path" fill="url(#linearGradient-1)"></path>
        <path d="M9.77908245,22.7733142 C10.0796091,23.7114045 10.6539283,24.5869013 11.5020403,25.3998045 C12.358719,26.2209189 13.6064902,27.0876507 15.2453538,28 C13.8392833,27.8722711 12.5728887,27.3659172 11.4461699,26.4809384 C9.7560918,25.1534702 9.28119381,24.3049853 8.97390688,22.6627566 C8.78691498,21.6634187 8.68526507,20.4664411 8.66895715,19.0718237 C8.72580198,20.519294 9.09283739,21.7436452 9.77005938,22.744868 L9.77908245,22.7733142 Z" id="Path" fill="url(#linearGradient-2)"></path>
        <path d="M13.4016322,0.191593353 C13.7043771,1.08907432 14.1365489,1.85657449 14.6981475,2.49409386 L14.6378732,2.59131544 C14.1045777,3.45382049 13.5481569,4.41475783 12.968637,5.4740958 C11.0969802,8.89540567 9.49070763,12.6314761 8.84819859,16.5317693 C8.65865567,17.6823725 8.61315716,18.7293594 8.71170306,19.6727299 C8.4679029,20.9940176 8.41357332,22.1566579 8.34536543,23.2649071 C8.06601367,22.9775171 6.78099559,20.6373412 7.03241217,17.0244379 C7.28382875,13.4115347 8.7224903,8.92277615 10.3287629,5.51515152 L10.3929579,5.37944321 C11.4405643,3.17261988 12.4434557,1.44333659 13.4016322,0.191593353 Z" id="Path" fill="url(#linearGradient-3)"></path>
        <path d="M9.77005938,22.744868 C9.87248836,19.7706093 10.9293692,16.6412512 12.9407018,13.3567937 C14.9520345,10.0723363 17.6384672,7.09807755 21,4.4340176 C19.8732812,4.1694363 18.9421087,3.68589117 18.2064824,2.98338221 C17.4708561,2.28087325 16.865594,1.28641251 16.390696,1.15463195e-13 C15.3570945,1.36852395 14.2164082,3.19322255 12.968637,5.4740958 C11.0969802,8.89540567 9.49070763,12.6314761 8.84819859,16.5317693 C8.41985923,19.1319648 8.72714616,21.2029977 9.77005938,22.744868 Z" id="Path" fill="url(#linearGradient-4)"></path>
    </g>
</svg>