<?xml version="1.0" encoding="UTF-8"?>
<svg width="28px" height="28px" viewBox="0 0 28 28" version="1.1" xmlns="http://www.w3.org/2000/svg" xmlns:xlink="http://www.w3.org/1999/xlink">
    <title>LN</title>
    <defs>
        <linearGradient x1="100%" y1="23.9154843%" x2="0%" y2="76.0845157%" id="linearGradient-1">
            <stop stop-color="#FFFFFF" offset="0%"></stop>
            <stop stop-color="#C4BABB" offset="25.8588754%"></stop>
            <stop stop-color="#000000" offset="100%"></stop>
        </linearGradient>
    </defs>
    <g id="LN" stroke="none" stroke-width="1" fill="none" fill-rule="evenodd">
        <path d="M13.1006984,0.523729228 C12.7081836,0.544952655 11.9279377,0.630714841 11.6477184,0.68339345 C10.6516016,0.870713262 10.1919774,0.983072581 9.50185765,1.20800834 C9.25378521,1.2888582 9.02006408,1.36791682 8.98247734,1.38365798 C8.94489061,1.39942628 8.79727726,1.45783142 8.65444768,1.51344114 C5.55738293,2.71964828 2.88230101,5.14202294 1.40359795,8.07932352 C0.66569522,9.54515126 0.245243197,10.9720875 0.0521704028,12.6659721 C-0.0173445504,13.2758063 -0.017399222,14.7390286 0.0520610596,15.3392554 C0.206098323,16.6701977 0.475629365,17.7526196 0.936620388,18.8914111 C2.57597598,22.9412318 6.12121125,25.9832654 10.4722787,27.0736393 C12.8766542,27.6762001 15.5090376,27.6390184 17.8965195,26.9688249 C18.4138223,26.8236263 19.2015308,26.5500558 19.575102,26.3858863 C19.6051713,26.3726692 19.7097308,26.3281054 19.8074563,26.2868527 C20.0728596,26.174819 20.8767237,25.7659831 21.1879145,25.5847969 C23.869721,24.0232195 25.9582312,21.6187572 27.0696777,18.8131667 C27.5044264,17.7157636 27.7890194,16.5532788 27.9101717,15.3799653 C27.9332978,15.1560608 27.9599229,14.9179079 27.9693537,14.8507366 C27.9990131,14.6393708 28.0123803,13.2948857 27.9853999,13.236562 C27.9714313,13.2063553 27.9392297,12.9594362 27.9138074,12.687874 C27.6496068,9.86361122 26.4238693,7.16991867 24.4095758,4.9869725 C23.6801472,4.19644056 22.6375049,3.32440739 21.7482985,2.76117238 C21.6355383,2.68974008 21.500226,2.60332653 21.4476046,2.56910308 C21.0282187,2.29653674 19.8983478,1.73853973 19.2607402,1.4891509 C17.3069408,0.724917546 15.2731022,0.406186182 13.1006984,0.523729228 M12.9779607,1.41858707 C11.8049539,1.49270623 10.3359004,1.79762337 9.32417491,2.17698534 C8.91011947,2.33225289 8.77401449,2.38658704 8.46309704,2.52073972 C6.44623398,3.39095451 4.58048325,4.85173422 3.27000474,6.58662725 C2.76478438,7.25546374 2.4792619,7.70956908 2.08893393,8.46506338 C1.3631683,9.86979913 0.936647723,11.3335642 0.777799358,12.9645113 C0.733761376,13.4166355 0.733816047,14.6750327 0.777908701,15.1486516 C1.0160309,17.7077844 1.9960742,20.0352779 3.68187332,22.0452884 C4.02250479,22.4514375 4.84692535,23.2757043 5.2238041,23.586918 C7.18503879,25.2065477 9.38805869,26.1966124 11.8664048,26.5721477 C12.6093647,26.6847241 13.095286,26.7197075 13.9165902,26.7197075 C15.1506925,26.7197075 16.195467,26.5896258 17.3537944,26.2917379 C17.6899701,26.2052701 18.5092789,25.9491777 18.6866883,25.8751128 C18.724275,25.8593988 18.8718884,25.8013193 19.0147179,25.7460081 C19.402285,25.5959514 20.206149,25.2041322 20.6548663,24.9466014 C23.7519037,23.1689901 25.9572198,20.2679214 26.7614938,16.9133715 C27.2405538,14.9151939 27.2067941,12.7831894 26.6649711,10.8212166 C26.1715052,9.03418776 25.2960213,7.40440769 24.0491532,5.95160711 C23.6157714,5.44664153 22.8608658,4.72176108 22.3360183,4.30660154 C20.1558238,2.58202169 17.5429855,1.58405924 14.7694674,1.41655158 C14.2667346,1.38620913 13.4765111,1.38710475 12.9779607,1.41858707" id="Shape" fill="#D3BF98"></path>
        <path d="M13.4415765,9.12453753 C13.3588857,9.16516601 13.0452073,9.30683646 12.7445134,9.43936075 C12.4438196,9.57191218 12.1178401,9.71697511 12.0201146,9.76172886 C11.9223891,9.80648261 11.5964096,9.95235975 11.2957157,10.0859154 C10.1232557,10.6066492 9.73035818,10.7818104 9.54622419,10.8658899 C9.44098134,10.9139275 9.06579741,11.0815166 8.71248213,11.2382497 C8.35916684,11.39501 7.83869311,11.6259979 7.55587686,11.7515473 C7.27306062,11.8770695 7.03012732,11.9727106 7.0159947,11.9640258 C7.000878,11.9547439 6.99032638,11.5969311 6.99032638,11.0927254 C6.99032638,10.5988058 6.97996611,10.2409658 6.96577883,10.2462038 C6.93128104,10.2589053 3.27976415,13.8332072 3.27585254,13.8580674 C3.27410564,13.8692762 4.15759887,13.8784223 5.23919469,13.8784223 L7.20573253,13.8784223 L10.3304884,12.3274295 C12.0491179,11.4743671 13.4686936,10.7761924 13.4851224,10.775921 C13.5141257,10.7754325 16.5661957,13.2020681 16.5515164,13.2139282 C16.5474707,13.217185 15.8460886,13.2283124 14.9928834,13.2386799 L13.4415765,13.2575421 L13.4415765,12.7402279 C13.4415765,12.4556928 13.4376128,12.2228865 13.432747,12.2228865 C13.4279086,12.2228865 13.34776,12.2595254 13.2546269,12.3043063 C13.1615211,12.3490872 13.0807712,12.3857261 13.0751947,12.3857261 C13.0695908,12.3857261 12.9375589,12.4452439 12.7817721,12.5180061 C12.625958,12.5907683 12.3570284,12.7143635 12.1841294,12.7926622 C12.0112304,12.8709609 11.7426288,12.9946376 11.5872248,13.0674812 C11.4318207,13.1403247 11.3005815,13.199924 11.2955791,13.199924 C11.2905766,13.199924 11.1716932,13.2535254 11.0314058,13.3190141 C10.8911185,13.3845299 10.6102704,13.5136888 10.4073021,13.606046 C9.68946381,13.9327293 9.55940005,13.9973224 9.58003858,14.0168903 C9.59151962,14.0277734 10.2528548,14.3195819 11.0496935,14.6653447 C12.7133779,15.3872669 12.6224864,15.3477783 12.7923511,15.4225216 C12.8637795,15.4539768 12.9806128,15.5049999 13.0520412,15.5359123 C13.1234697,15.5668518 13.2206485,15.6095972 13.2680214,15.630902 C13.3153944,15.652234 13.3676878,15.6696579 13.3841986,15.6696579 C13.4048645,15.6696579 13.4142407,15.5254363 13.4142407,15.208279 L13.4142407,14.7469002 L15.9497733,14.7469002 L18.4853059,14.7469002 L19.3052434,15.4017596 C19.7562022,15.7619608 20.358902,16.2427175 20.6445612,16.470123 C20.9302204,16.6975557 21.5865531,17.2211392 22.1031178,17.6336391 L23.0422667,18.3836511 L23.9555286,18.3836511 L24.8688179,18.3836511 L24.8615466,17.630518 L24.8542752,16.8773849 L24.2367321,16.8638149 L23.6191889,16.8502449 L22.6239195,15.9389946 C22.07652,15.4378014 21.5763568,14.9814435 21.512473,14.9248567 C21.4485892,14.8682971 21.3962958,14.8112218 21.3962958,14.7980318 C21.3962958,14.7843804 22.1455156,14.7740401 23.1321195,14.7740401 L24.8679431,14.7740401 L24.8679431,14.007337 L24.8679431,13.2406339 L22.0318533,13.2472832 L19.1957635,13.2539325 L18.7993943,12.947007 C18.5813913,12.7781966 17.9048301,12.2629179 17.295925,11.8019461 C16.2368539,11.0001511 14.7052561,9.83894197 13.9968213,9.30064855 C13.8135894,9.1614207 13.6475244,9.04822004 13.627788,9.04908356 C13.6080789,9.04998414 13.5242673,9.08390906 13.4415765,9.12453753 M6.5939572,15.9156542 C6.36843681,16.0179989 6.09781234,16.1408614 5.99256949,16.1886548 C5.88732663,16.2364754 5.65975605,16.3389829 5.48685708,16.4164674 C5.31395812,16.4939519 5.09868865,16.5910314 5.00848049,16.6322027 C4.91827233,16.6734011 4.6845512,16.7775642 4.48910019,16.8637335 C4.29364918,16.9498756 4.04147637,17.0632391 3.92871617,17.1156192 C3.75453242,17.1965233 3.37524812,17.366365 3.03341388,17.5165574 C2.98453746,17.5380251 2.94818083,17.5664677 2.95263657,17.5797392 C2.9585411,17.5973258 6.99368869,19.6231861 7.03816404,19.6308949 C7.04190905,19.6315452 7.04499799,19.3450832 7.04499799,18.9942996 L7.04499799,18.3565112 L12.7855171,18.3565112 L18.5260363,18.3565112 L18.5260363,17.623733 L18.5260363,16.8909548 L12.7855171,16.8909548 L7.04499799,16.8909548 L7.04499799,16.3074463 C7.04499799,15.9865166 7.03575849,15.7252133 7.02449614,15.7267535 C7.01323379,15.7283073 6.8194776,15.8133095 6.5939572,15.9156542" id="Shape" fill="#751C2E"></path>
        <path d="M2.65249501,13.7171987 L2.55731407,13.831696 C4.82117785,9.62422329 8.94101215,6.5494924 13.8312232,5.68531838 C9.449755,7.39566186 5.61368101,10.18239 2.65249501,13.7171987 Z" id="Combined-Shape" fill="url(#linearGradient-1)"></path>
        <ellipse id="Oval" fill="#A9A7A7" cx="5.71318334" cy="12.7808193" rx="1" ry="1"></ellipse>
        <ellipse id="Oval" fill="#151414" cx="5.71318334" cy="12.7808193" rx="1" ry="1"></ellipse>
    </g>
</svg>