<?xml version="1.0" encoding="UTF-8"?>
<svg width="28px" height="28px" viewBox="0 0 28 28" version="1.1" xmlns="http://www.w3.org/2000/svg" xmlns:xlink="http://www.w3.org/1999/xlink">
    <title>LO</title>
    <g id="LO" stroke="none" stroke-width="1" fill="none" fill-rule="evenodd">
        <path d="M13.9994196,-2.13162821e-14 C21.4616766,-2.48689958e-14 27.5,6.2732449 27.5,13.9993969 C27.5,21.7261967 21.4619843,28 13.9994196,28 C6.53801591,28 0.5,21.7260767 0.5,13.9993969 C0.5,6.27340466 6.53828513,-2.13162821e-14 13.9994196,-2.13162821e-14 Z M13.9994196,27.0955872 C20.96155,27.0955872 26.6040169,21.2321561 26.6040169,13.9993969 C26.6040169,8.26345096 23.0545819,3.38910579 18.1130026,1.61757412 C18.9707944,2.05275701 19.5534291,3.0120828 19.5534291,4.08033243 C19.5534291,4.58683425 19.4232969,5.06185311 19.1897323,5.46654795 L13.1437511,15.9227528 L15.1857005,15.5952576 C15.2909903,15.5782496 15.3997627,15.5702883 15.5099281,15.5702883 C16.6512838,15.5702883 17.5763717,16.532871 17.5763717,17.71885 L23.2664338,17.71885 L22.7548436,17.0497465 L21.7142504,17.0497465 L21.4852131,16.7223719 L24.5098289,16.7223719 C24.8362622,17.2877385 25.4166912,17.6778377 26.0877833,17.71885 L25.9903873,18.0463453 L13.197731,18.0463453 L18.48869,22.2649422 C19.0759682,22.7323617 19.4441924,23.4781823 19.4441924,24.3061481 C19.4441924,25.0190383 19.1711585,25.6758381 18.7217904,26.1437401 L10.7912721,18.0463453 L2.00996096,18.0463453 L2.05677543,18.1954304 C3.7401099,23.3703647 8.45119078,27.0955872 13.9994196,27.0955872 Z M13.9994196,0.904412787 C7.0393787,0.904412787 1.3959831,6.76675828 1.3959831,13.9993969 C1.3959831,15.4057141 1.60929734,16.7602405 2.00413552,18.0299536 L1.91244887,17.71885 L11.0800936,16.2520574 L18.1040043,1.61435224 C16.8173546,1.15423274 15.4364795,0.904412787 13.9994196,0.904412787 Z" id="Combined-Shape" fill="#1A3171"></path>
    </g>
</svg>