<?xml version="1.0" encoding="UTF-8"?>
<svg width="28px" height="28px" viewBox="0 0 28 28" version="1.1" xmlns="http://www.w3.org/2000/svg" xmlns:xlink="http://www.w3.org/1999/xlink">
    <title>LQ</title>
    <g id="LQ" stroke="none" stroke-width="1" fill="none" fill-rule="evenodd">
        <path d="M24.566537,12.0172675 C25.6964317,12.7647387 26.3338367,14.272901 25.819693,16.2685444 C24.8330478,20.1854697 21.7237551,23.551018 19.8742812,24.9220245 C16.5279049,27.4684942 12.0677356,28.1977881 9.68246393,27.9565262 C7.04067561,27.6899264 4.86583642,26.4362458 3.63433443,24.9693956 C5.75476099,26.4742529 8.25885207,25.8788097 10.5369642,25.0200716 C13.3353276,23.9657902 14.9554912,22.4113586 16.374106,20.1821648 C18.1391848,17.4087547 18.2557833,14.3120096 19.4839539,12.8974879 C21.0258299,11.1205224 23.1173845,11.0852695 24.566537,12.0172675 M23.0718556,4.62132369 C22.5166247,6.94305627 20.1746611,8.64621098 17.8421363,8.42643131 C15.510722,8.20610082 14.0687875,6.14601071 14.6251288,3.82482892 C15.1792492,1.50309634 17.5206577,-0.201160002 19.8531824,0.0191704918 C22.1857072,0.239500985 23.6270864,2.29959108 23.0718556,4.62132369" id="path11420" fill="#C5D700" fill-rule="nonzero"></path>
        <path d="M2.25680672,13.0230762 C1.80762497,11.7071524 2.52942506,10.1659406 3.87086276,9.57986145 C5.21174523,8.99323151 6.66256341,9.58338674 7.11230039,10.8974378 C7.56148214,12.2128108 6.83912682,13.7545735 5.49768911,14.3412034 C4.15680664,14.9278333 2.7065437,14.3372375 2.25680672,13.0230762 M6.15230627,20.3606325 C5.790851,19.3338924 4.79421164,19.0111082 3.97968801,19.0926305 C2.58106153,19.233642 1.75210189,20.6129109 2.06636254,21.8588798 C2.3806232,23.1004422 2.96083942,24.1668418 3.63600012,24.9704972 C5.75642668,26.473702 8.26107299,25.8892754 10.5924873,25.0002419 C7.80689417,24.5981387 6.55540386,21.5035969 6.15230627,20.3606325" id="path11422" fill="#6DB327" fill-rule="nonzero"></path>
    </g>
</svg>