<?xml version="1.0" encoding="UTF-8"?>
<svg width="28px" height="28px" viewBox="0 0 28 28" version="1.1" xmlns="http://www.w3.org/2000/svg" xmlns:xlink="http://www.w3.org/1999/xlink">
    <title>LS</title>
    <g id="LS" stroke="none" stroke-width="1" fill="none" fill-rule="evenodd">
        <path d="M22.4737631,0.0163217721 C21.1784108,0.0530457593 19.6671664,0.310113669 18.8035982,1.33838531 C17.94003,2.40338094 17.4722639,4.42320023 17.2563718,5.70853978 C17.1844078,6.03905567 17.1484258,6.44301953 17.0764618,6.88370737 C17.2203898,6.88370737 17.3283358,6.88370737 17.4002999,6.84698339 C17.7241379,6.84698339 18.4797601,6.8102594 18.4797601,6.8102594 L21.3943028,2.69717284 L22.149925,2.69717284 L20.4587706,6.84698339 L23.9850075,7.06732731 L24.6326837,6.29612358 C25.3883058,2.73389682 26,0.0163217721 26,0.0163217721 C26,0.0163217721 23.7691154,-0.0204022151 22.4737631,0.0163217721 M20.4947526,8.05887496 L22.185907,12.1719615 L21.4302849,12.1719615 L18.5157421,8.05887496 C18.5157421,8.05887496 17.7241379,8.05887496 17.4362819,8.02215098 C17.2923538,8.02215098 17.1124438,8.02215098 16.9325337,7.98542699 C16.6806597,9.63800641 16.3208396,11.8047217 15.8530735,14.1917808 C14.9535232,18.8190032 15.0254873,22.0874381 11.1394303,22.0874381 C9.88005997,22.0874381 8.72863568,21.4998543 8.72863568,20.5817546 C8.72863568,18.8924512 8.98050975,15.9545322 8.98050975,15.9545322 L2.28785607,15.9178082 C2.28785607,15.9178082 2,18.7455552 2,21.7569222 C2,24.4744972 4.91454273,28 10.6716642,28 C15.0614693,28 17.976012,26.9350044 20.4947526,23.2626057 C21.7541229,21.4264063 22.4017991,17.0562518 23.3733133,12.3188575 C23.6611694,10.923346 23.9490255,9.52783445 24.2368816,8.20577091 L23.9850075,7.91197901 L20.4947526,8.05887496 Z" id="Shape" fill="#E2231A" fill-rule="nonzero"></path>
    </g>
</svg>