<?xml version="1.0" encoding="UTF-8"?>
<svg width="28px" height="28px" viewBox="0 0 28 28" version="1.1" xmlns="http://www.w3.org/2000/svg" xmlns:xlink="http://www.w3.org/1999/xlink">
    <title>LV</title>
    <g id="LV" stroke="none" stroke-width="1" fill="none" fill-rule="evenodd">
        <path d="M24.3499014,9.0037449 C18.6617878,9.1923068 1.76799577,17.9807983 0.460385603,18.6656309 C0.460385603,18.6655863 0.178944005,18.8177465 9.59232693e-14,19 L1.64428775,19 C16.3146093,11.5028867 20.3899585,11.1399179 21.3609145,11.2398273 C22.5442086,11.3283906 21.252173,12.779196 19.4900937,14.3745603 C17.1045634,16.6286095 13.716928,18.9930228 13.716928,18.9930228 L18.3063319,18.9930228 C18.6645941,18.7299635 19.0226224,18.4543096 19.3731674,18.1779869 C21.1324405,16.809793 24.5963821,13.9961882 26.0600654,11.9294748 C26.3009336,11.617553 26.4564456,11.3408291 26.5495189,11.1005069 L26.5567684,11.0865971 C26.8053537,10.4355135 26.5965233,10.0240166 26.3813789,9.70730214 C26.0165689,9.29471292 25.4789418,9.08307955 24.861337,9.01069978 C24.7020834,8.99832812 24.5334757,8.99765938 24.3499014,9.0037449 Z" id="Path" fill="#005DA2" fill-rule="nonzero"></path>
        <path d="M27.536143,10.5850434 C27.5286597,10.7345733 27.4973235,10.9021591 27.4264662,11.0865971 L27.4192167,11.1005069 C27.3259095,11.3407845 27.1687606,11.6175307 26.9295294,11.9294748 C25.465846,13.9961659 22.0023722,16.8097261 20.2428652,18.1779869 C19.9079883,18.4429187 19.5646927,18.7057775 19.2197601,18.9581816 L19.1832791,18.9930228 L21.4998229,18.9930228 C21.4998229,18.9930228 26.6475032,14.9817969 27.5801073,13.2042683 C28.0721332,12.2056192 28.2201619,11.2511513 27.536143,10.5850434 Z" id="Path" fill="#ED1941" fill-rule="nonzero"></path>
    </g>
</svg>