<?xml version="1.0" encoding="UTF-8"?>
<svg width="28px" height="28px" viewBox="0 0 28 28" version="1.1" xmlns="http://www.w3.org/2000/svg" xmlns:xlink="http://www.w3.org/1999/xlink">
    <title>LY</title>
    <g id="LY" stroke="none" stroke-width="1" fill="none" fill-rule="evenodd">
        <path d="M8.13575332,17.6866068 L11.2881797,17.6861203 C15.0898778,17.686777 18.8922164,17.6848068 22.6939145,17.6874338 C22.9039814,17.6657613 23.1345426,17.8358577 23.1172505,18.0663745 C23.1345426,18.2364709 23.0474417,18.3868651 22.9827565,18.535289 C22.7214538,19.1046851 22.4633533,19.6753948 22.2052529,20.2461044 C22.0111972,20.6775846 21.5712096,21.0453607 21.0876715,20.9954482 C14.1740375,20.990851 7.25976306,20.9980752 0.346129073,20.9921645 C0.0431972644,20.9921645 -0.0746451305,20.6158507 0.047680399,20.3708856 C0.252623694,19.8776716 0.487027589,19.3975925 0.704139392,18.9102892 C0.854644625,18.6095009 0.946869108,18.2620839 1.19664375,18.0263132 C1.371486,17.8588437 1.5898787,17.7242114 1.83132752,17.6953147 C3.93242326,17.6808663 6.03408829,17.6845149 8.13575332,17.6866068 Z M14.3770594,11.1134367 C14.4513514,11.2014401 14.5243624,11.2953543 14.5647106,11.4070006 C14.6883171,11.7471935 14.8138448,12.0873863 14.9380917,12.4282359 C15.4542926,12.443341 15.9756171,12.3986825 16.4898967,12.4518787 C16.6935591,12.4827456 16.6621772,12.7559507 16.5616269,12.8840156 C16.2458861,13.3082715 15.8782691,13.6885257 15.5522811,14.104244 C15.6899774,14.4378695 15.8103816,14.7780623 15.9320667,15.1175985 C15.976898,15.2561712 15.9935497,15.4840611 15.812303,15.5182117 C15.3178773,15.6364254 14.805519,15.5451382 14.3046888,15.5832292 C13.9582066,15.9483783 13.6610388,16.3614697 13.3145565,16.7272755 C13.2601185,16.800174 13.1704558,16.8172493 13.0891189,16.8041145 C12.8931419,16.4133524 12.7701759,15.9884397 12.6139067,15.5799455 C12.0919417,15.5569595 11.5654936,15.6127827 11.0473713,15.5503921 C10.8257764,15.5228089 10.8565179,15.2410662 10.9641131,15.1051204 C11.2792134,14.6762672 11.6660439,14.3052074 11.9740993,13.8704435 C11.8600996,13.4888759 11.6769315,13.1316077 11.578943,12.7454428 C11.5289881,12.563525 11.7185606,12.4505652 11.8716277,12.4472815 C12.3180198,12.4065634 12.7676141,12.4394006 13.2159276,12.4288927 C13.6059603,11.9934721 13.9447572,11.5061688 14.3770594,11.1134367 Z M9.56217289,7.00268776 L27.6247221,7.0022256 L27.6247221,7.0022256 C27.7950813,6.99040423 27.9647999,7.1243798 27.9923392,7.29973018 C28.0282043,7.5033205 27.9308562,7.6957462 27.8514407,7.87503703 C27.5824526,8.4490304 27.3294757,9.03024794 27.062409,9.60424131 C26.939443,9.88007336 26.712084,10.0954851 26.4462982,10.2228932 C26.1516922,10.356212 25.8218616,10.3240316 25.5093231,10.3273153 C19.0196655,10.3266586 12.530008,10.3273153 6.0409909,10.3266586 C5.72396924,10.31024 5.39541952,10.3746008 5.08992592,10.2682085 C4.83822993,10.1578756 4.86320739,9.81965301 4.95479143,9.60424131 C5.25195921,8.9593197 5.54080117,8.31045763 5.8373285,7.66487928 C5.98655283,7.34176173 6.29140599,7.12372306 6.61611302,7.01470372 C7.59727905,6.99500143 8.57986829,6.99981755 9.56217289,7.00268776 Z" id="Combined-Shape" fill="#001246" fill-rule="nonzero"></path>
    </g>
</svg>