<?xml version="1.0" encoding="UTF-8"?>
<svg width="28px" height="28px" viewBox="0 0 28 28" version="1.1" xmlns="http://www.w3.org/2000/svg" xmlns:xlink="http://www.w3.org/1999/xlink">
    <title>LZ</title>
    <g id="LZ" stroke="none" stroke-width="1" fill="none" fill-rule="evenodd">
        <path d="M17.9716995,24.1532693 C23.5435392,23.9461529 28,19.2937345 28,13.5817698 C28,7.73800369 23.3363011,3 17.5841812,3 C13.5506208,3 10.0545315,5.3313443 8.32417789,8.7376403 L8.58125175,9.05091605 C9.36563293,10.0318845 9.86077232,10.8824086 9.86077232,10.8824086 C12.2583314,16.0723028 10.7958709,18.4036471 10.7958709,18.4036471 L10.403298,19.1995906 L9.97702782,20.6630997 L9.9197425,20.7469733 L9.9197425,20.7469733 L10.1657324,21.0088644 L10.1657324,21.0088644 L10.1691021,20.9866123 L10.7571191,19.6360758 L10.9924346,18.6587771 C11.1436896,18.0932161 11.9665689,15.9371299 16.0048988,13.9910523 L16.2918918,13.8556428 C16.2918918,13.8556428 21.9437271,11.8797109 23.6927191,14.331375 L23.7928988,14.4838391 C23.7928988,14.4838391 24.1517745,15.8326639 21.7778035,17.4262627 L21.6489115,17.599573 C21.4179801,17.9214808 20.9614877,18.6150429 21.0044517,19.0130146 L20.9721987,19.13431 C20.8109798,19.7018655 20.0269539,22.0396327 18.2092651,21.3597643 L15.1360762,20.2112092 C15.1360762,20.2112092 18.4249801,21.7244347 18.2108258,23.2289254 L18.1283917,23.5886201 C18.0942732,23.7249148 18.0424637,23.9196214 17.9716995,24.1532693 Z" id="Path" fill="#F15029" fill-rule="nonzero"></path>
        <path d="M6.5801771,16.6705444 L3.40252677,15.4826201 C1.26949108,14.6849648 2.75216992,11.7322711 2.75216992,11.7322711 C3.1464277,11.3556956 3.18854926,9.9572314 3.18854926,9.9572314 C2.3730759,7.08841125 3.54574007,6.26850382 3.54574007,6.26850382 C4.12533271,6.07850439 4.71334965,6.12643218 5.28451798,6.33012525 C4.46735976,5.85769425 3.59460108,5.63346069 2.73869102,5.91589227 L2.66651931,5.97869938 C2.4183119,6.2214924 1.65348652,7.21393639 2.36970618,9.73813296 L2.35823827,9.94600444 C2.32884972,10.3610283 2.22956527,11.2780647 1.91647821,11.5765058 L1.84878526,11.7233252 C1.57739967,12.3428145 0.672429086,14.7441088 2.592108,15.4620796 L4.94754552,16.3436085 L5.27262851,16.3896006 C6.01000916,16.5054182 6.5801771,16.6705444 6.5801771,16.6705444 Z" id="Path" fill="#064D7A" fill-rule="nonzero"></path>
        <path d="M5.69225466,24.3834941 C3.86923363,25.0099787 2.5162892,24.4707911 2.5162892,24.4707911 L2.35117269,24.3561068 C-0.41050385,22.6246205 1.53777941,18.2301415 2.00482601,17.274967 L2.09844334,17.0899125 C2.32253003,16.5712654 2.90886212,16.3590138 3.5844919,16.3008158 C2.6377975,16.2492632 1.67767084,16.3735959 1.30391056,17.0034649 L1.11591118,17.3768457 C0.587825311,18.4739566 -1.30798065,22.8961145 1.50200208,24.6573671 L1.67217318,24.7754749 L1.76370788,24.8073009 C2.15366939,24.9322824 3.74578939,25.3373711 5.69225466,24.3834941 Z" id="Path" fill="#064D7A" fill-rule="nonzero"></path>
    </g>
</svg>