<?xml version="1.0" encoding="UTF-8"?>
<svg width="28px" height="28px" viewBox="0 0 28 28" version="1.1" xmlns="http://www.w3.org/2000/svg" xmlns:xlink="http://www.w3.org/1999/xlink">
    <title>M6</title>
    <g id="M6" stroke="none" stroke-width="1" fill="none" fill-rule="evenodd">
        <g id="Group-5" transform="translate(0.000000, 3.000000)">
            <path d="M11.2845091,0 L19.6174109,8.61193455 C24.2005018,13.3485164 27.9503127,17.2427564 27.9503127,17.2658182 C27.9503127,17.2889309 26.8449745,17.2945818 25.4939491,17.2784945 L25.4939491,17.2784945 L23.0375855,17.24912 L19.2030618,16.2313964 C17.0941018,15.6716509 15.3415564,15.2246691 15.3085164,15.23816 C15.2755273,15.2516 14.0240291,17.1778473 12.5274545,19.5186473 C11.03088,21.8594473 9.79170182,23.75744 9.77373091,23.7365876 C9.75570909,23.7153891 9.44755636,22.0830909 9.08890182,20.1090909 C8.73024727,18.1350909 8.42672727,16.4924073 8.41445818,16.4586545 C8.40213818,16.4249018 6.50389091,15.2336291 4.19602909,13.8113818 L4.19602909,13.8113818 L-7.10542736e-15,11.2254545 L7.54589818,11.2 L15.0917964,11.1745455 L12.1665091,7.98697455 C10.5575782,6.23376727 9.23541818,4.80393455 9.22829091,4.80958545 C9.22121455,4.81518545 9.38722909,6.07778182 9.59722909,7.61533818 C9.80722909,9.15289455 9.97914909,10.4509745 9.97925091,10.5 C9.97940364,10.5819636 9.89601455,10.5890909 8.93978909,10.5890909 L8.93978909,10.5890909 L7.90022545,10.5890909 L7.87166545,10.4490909 C7.83506182,10.2699927 6.46667636,0.159192727 6.46667636,0.0681672727 C6.46667636,0.0188872727 6.80000628,0.00355133673 8.22828419,0.000580344087 L11.2845091,0 Z M16.58496,12.4218182 L13.1676364,12.4336291 C11.2881236,12.4400945 8.88638545,12.4573018 7.83048,12.4718109 L5.91064727,12.4981818 L7.98320727,13.8619345 C9.12311273,14.6119782 10.0839709,15.2430473 10.1184364,15.2643273 C10.1570255,15.2881527 10.2801236,15.9768509 10.4388582,17.0569382 C10.5805891,18.0216145 10.7012945,18.8275055 10.7070982,18.8477673 C10.7128509,18.8680291 11.5537673,17.6118982 12.5757673,16.0563709 C13.5977673,14.5007927 14.4468291,13.2198182 14.46256,13.2096873 C14.4782909,13.1995564 15.3258764,13.4190764 16.3460436,13.6974473 C17.3662618,13.9758691 18.22072,14.2036364 18.2448509,14.2036364 C18.2690327,14.2036364 17.9053891,13.8027273 17.4368727,13.3127273 L16.58496,12.4218182 Z" id="Combined-Shape" fill="#0075BF"></path>
            <polygon id="Path" fill="#ED1D23" points="22.7321309 15.8636291 23.8266764 15.8581818 9.87402182 1.70545455 8.57940364 1.67740364"></polygon>
            <path d="M10.5703055,2.40418182 C10.9653091,2.80386909 13.8262473,5.73109091 16.9279855,8.90909091 C20.0296727,12.0870909 22.8335927,14.9519491 23.1588509,15.2754255 L23.7503127,15.8636291 L24.4182909,15.8354255 L25.0862691,15.8072727 L18.1165091,8.75636364 L11.1467491,1.70545455 L10.49944,1.69145455 L9.85213091,1.67740364 L10.5703055,2.40418182" id="Path" fill="#FFFFFF"></path>
        </g>
    </g>
</svg>