<?xml version="1.0" encoding="UTF-8"?>
<svg width="28px" height="28px" viewBox="0 0 28 28" version="1.1" xmlns="http://www.w3.org/2000/svg" xmlns:xlink="http://www.w3.org/1999/xlink">
    <title>MD</title>
    <g id="MD" stroke="none" stroke-width="1" fill="none" fill-rule="evenodd">
        <path d="M11.8949822,5.0402151 C12.6638515,4.91514093 13.7298296,5.04922044 14.0018447,5.91073132 C14.1524066,5.61155391 14.356167,5.31537827 14.6803769,5.18730232 C15.1350737,4.95916704 15.6520028,5.00419374 16.1418308,5.04221629 C15.6640478,5.44845719 15.4663098,6.06582329 15.3227742,6.65417218 C15.0688265,7.73381241 15.0045868,8.84447104 14.8389687,9.93912017 C14.7907889,10.1772614 14.7556578,10.4274097 14.6281821,10.6385349 C14.5187738,10.7846216 14.3320771,10.837653 14.1795077,10.9257052 C14.1885414,12.1314202 14.1795077,13.3381358 14.1845264,14.5448514 C14.3391033,14.6809321 14.4906689,14.819014 14.644242,14.9580964 C15.0377104,13.1450213 15.4392087,11.3319461 15.9420854,9.54488639 C16.2010518,8.51527582 16.5212467,7.49967357 16.922745,6.5160903 C17.0913743,6.08583516 17.467779,5.71461502 17.945562,5.66858773 C18.7957347,5.55552068 19.5856827,6.00478709 20.2772636,6.44304698 C19.9691136,6.51508971 19.6469112,6.58813302 19.4009935,6.79825763 C19.0486787,7.09443326 18.8228359,7.50667772 18.6220867,7.91291862 C18.2246034,8.75541823 17.8411725,9.60392139 17.4456966,10.4474216 C17.2850973,10.7405954 17.1395541,11.0898025 16.816348,11.2378903 C16.4971568,11.233888 16.1960331,11.1018096 15.8848718,11.0407735 C15.552632,12.439603 15.2063397,13.8384325 14.9393433,15.2512703 C14.952392,15.4663979 15.062804,15.7845866 15.2986843,15.8316144 C16.8213667,13.1410189 18.3139367,10.392389 20.3615782,8.0520011 C20.6857881,7.65176376 21.2247996,7.41462313 21.7387175,7.54670146 C22.6039464,7.73281182 23.2071977,8.44723548 23.715093,9.11863362 C23.0626583,9.0605992 22.396171,9.25571491 21.9013243,9.68697064 C21.0953164,10.382383 20.3967093,11.1928636 19.5907014,11.8872754 C19.3748961,12.0513727 19.1380121,12.2544932 18.8519445,12.2444873 C18.5829406,12.1724445 18.3631203,11.9913371 18.1121838,11.8772695 C17.9847081,11.7802119 17.9224759,11.989336 17.8602436,12.0603781 C17.0100709,13.4301904 16.2482278,14.8490318 15.4562724,16.2518636 C15.5717031,16.4940072 15.6941601,16.7331491 15.8256508,16.9682885 C17.4627603,15.1271967 19.158087,13.3171233 21.1194063,11.8122309 C21.7296838,11.3399509 22.3750924,10.9096957 23.0566358,10.5474809 C23.7482167,10.1672555 24.6806965,10.3183451 25.2177005,10.8946868 C25.6623599,11.3949835 25.9343751,12.0223555 26.1762778,12.6397216 C25.595109,12.3825691 24.931633,12.284511 24.315333,12.4746237 C23.2784636,12.7788041 22.3590324,13.3741572 21.3502679,13.7513809 C21.1153913,13.8274259 20.8463875,13.8994687 20.6115109,13.7884028 C20.3676007,13.6273073 20.1788965,13.399172 19.9650986,13.2030557 C18.7646186,14.2586817 17.6685282,15.4223718 16.5985351,16.6070743 C16.4098309,16.824203 16.1940256,17.0223205 16.0414562,17.2684665 C16.0524974,17.5826528 16.2522428,17.8558148 16.3706848,18.1399833 C18.6893377,16.3869438 21.1093689,14.6258994 23.9509733,13.8294271 C24.757985,13.6253061 25.6744049,13.4421975 26.440263,13.8754544 C26.9320984,14.1376099 27.2011023,14.6579184 27.3315893,15.178227 C27.45505,15.5994768 27.5473946,16.0297319 27.5975819,16.4659906 C26.6129072,15.6395005 25.2468092,15.7105426 24.0523516,15.8936512 C23.3908831,15.9536868 22.6852498,16.2118399 22.0398413,15.9516856 C21.8250396,15.7115432 21.7015789,15.4063623 21.5379683,15.1321997 C19.7432708,16.0427396 18.1001389,17.2224392 16.5252617,18.4681779 C16.6366775,18.7913696 16.7631494,19.1095583 16.9066851,19.4207428 C19.3196901,18.152991 21.8882756,16.9612843 24.6606216,16.8432143 C25.6362626,16.8382114 26.7413867,16.9292654 27.4691024,17.6566967 C28.1436196,18.3821269 28.0231701,19.44976 27.9177768,20.3522952 C27.6929378,20.0321053 27.451035,19.7069125 27.099724,19.5147986 C26.1140456,18.9534657 24.9557229,18.8674147 23.8505987,18.7563488 C23.5053102,18.6973138 23.1208755,18.6893091 22.8297892,18.4721803 C22.6179989,18.1870112 22.6179989,17.8077863 22.5015643,17.4815929 C20.5733686,17.9548735 18.7686336,18.8063785 17.0321533,19.7489374 C17.0753144,20.0060899 17.1957639,20.2672448 17.1415616,20.5304008 C16.9608874,20.8455877 16.6788348,21.0857301 16.4349246,21.3508874 C15.7995535,21.9682535 15.138085,22.5996279 14.3099946,22.9508362 C13.7850356,23.1369465 13.3002263,22.7537193 12.8846756,22.4845597 C12.1900835,21.9532446 11.5476861,21.3478856 10.9825772,20.6814904 C10.7456932,20.4113302 10.9544723,20.0511166 11.0016484,19.749938 C9.25011193,18.8233886 7.44537694,17.921854 5.49710629,17.4976024 C5.39572796,17.9108474 5.41379538,18.544223 4.87177264,18.6322752 C3.7736747,18.87642 2.61334453,18.8093803 1.55138144,19.2276283 C0.960175152,19.4107369 0.452279764,19.7999677 0.125058624,20.323278 C-0.0646493372,19.6949054 -0.0204845208,19.0225067 0.137103574,18.3921328 C0.342871468,17.6677032 1.01939616,17.1824155 1.72703696,17.0093128 C2.96565931,16.7041318 4.26450641,16.8582232 5.4930913,17.13939 C7.48452302,17.5886564 9.32840411,18.4931928 11.1321354,19.4197422 C11.2606148,19.1035547 11.3880905,18.785366 11.5095438,18.4661767 C9.92262164,17.2344463 8.29253841,16.0317331 6.48679967,15.1352015 C6.32419285,15.4043611 6.21076957,15.7095421 5.99697171,15.9446815 C5.60852207,16.1347942 5.15984769,16.0567479 4.74730816,16.0077189 C3.76765223,15.8726388 2.76691764,15.6685177 1.778228,15.8456227 C1.27735883,15.928672 0.819650736,16.169815 0.421163643,16.4779977 C0.50848953,15.8786423 0.638976487,15.2842899 0.851770602,14.7159528 C1.08263214,14.1286045 1.66179348,13.7223636 2.28110466,13.6393144 C3.02989905,13.5332515 3.7756822,13.7473785 4.48934548,13.9514995 C7.15127941,14.8060063 9.45788732,16.4489805 11.6410345,18.1469875 C11.769514,17.8808296 11.9180683,17.6236771 12.0084055,17.3415098 C11.998368,17.2194374 11.8939784,17.1353876 11.82472,17.0423324 C10.6332737,15.7115432 9.40468879,14.4097713 8.08074805,13.2070581 C7.73947446,13.4742165 7.44437319,13.9825179 6.93547406,13.8214224 C5.74503151,13.4812206 4.72020702,12.6967555 3.50266333,12.4285964 C2.94859563,12.2965181 2.37244553,12.4175899 1.85953141,12.6407222 C2.05927683,12.0743864 2.32025075,11.5250606 2.67758426,11.0397729 C3.16138975,10.3983925 4.10089584,10.1532471 4.83563779,10.4844435 C5.33148823,10.7065753 5.77815512,11.0177598 6.22984074,11.3139354 C8.48023888,12.9038783 10.3773185,14.9220751 12.2051396,16.9652867 C12.3346229,16.7321485 12.4570798,16.4950078 12.5654844,16.2518636 C11.7283604,14.7669831 10.9404199,13.2510842 10.0049288,11.8232375 C9.62852411,11.9863342 9.2230108,12.4305976 8.79943006,12.1414261 C8.19015634,11.770206 7.7424857,11.1988672 7.21953413,10.7225848 C6.62330911,10.1742596 6.09835004,9.47684604 5.29334589,9.22269533 C4.97515846,9.10262412 4.63187739,9.11563184 4.29763003,9.12263599 C4.8818101,8.39420403 5.57740595,7.53369374 6.59821546,7.51468247 C7.22656035,7.48366407 7.64411861,8.0069744 8.00446336,8.44123192 C9.88347555,10.7225848 11.3178283,13.3191245 12.7541886,15.8886483 C12.8816643,15.7125438 13.0482861,15.5474459 13.1014847,15.3313178 C12.839507,13.8934651 12.4771548,12.4746237 12.1509374,11.0487782 C11.8447949,11.1028102 11.5486899,11.2188791 11.2375287,11.2368898 C10.9364049,11.1618452 10.8089292,10.8386536 10.6623823,10.5995118 C10.1615131,9.58691131 9.7268912,8.54229184 9.20895835,7.53769612 C8.92489829,6.9833674 8.42402912,6.52009267 7.78263553,6.44804995 C8.39391674,5.99478116 9.13869615,5.64057111 9.91459167,5.64957645 C10.434532,5.64357289 10.8922401,6.00478709 11.0889743,6.470063 C11.4904726,7.44864331 11.8136788,8.458242 12.069634,9.48385019 C12.5735144,11.2919224 12.9970951,13.1220076 13.3825335,14.9580964 C13.5371104,14.8230163 13.7097546,14.7019445 13.8322116,14.5348455 C13.8653352,13.3331328 13.8251854,12.1304196 13.8522865,10.928707 C13.6675973,10.8216435 13.4297096,10.746599 13.3433874,10.5314714 C13.258069,10.3313528 13.2199267,10.1162252 13.1817843,9.90309881 C13.0262037,8.8194562 12.9549378,7.7208047 12.7070126,6.652171 C12.5684956,6.06282151 12.353694,5.45946372 11.8949822,5.0402151 Z" id="path6" fill="#7E1D2E" fill-rule="nonzero"></path>
    </g>
</svg>