<?xml version="1.0" encoding="UTF-8"?>
<svg width="28px" height="28px" viewBox="0 0 28 28" version="1.1" xmlns="http://www.w3.org/2000/svg" xmlns:xlink="http://www.w3.org/1999/xlink">
    <title>ME</title>
    <g id="ME" stroke="none" stroke-width="1" fill="none" fill-rule="evenodd">
        <path d="M19.3241565,3.48872955 C18.417274,3.52315895 17.6665767,3.64995992 17.431459,3.71881872 C16.899925,3.87836961 16.3784675,3.97493988 15.9023542,4.31251596 C15.8133453,4.36122097 15.7839556,4.37885554 15.6974659,4.42672081 C15.6554806,4.42672081 15.5983806,4.50565651 15.5563953,4.50565651 C15.2524217,4.74582258 14.9912731,4.98766813 14.948448,5.37394922 C14.8837907,5.84756342 15.0433348,6.2943059 15.3305143,6.65203578 L15.3330334,6.65203578 C15.4237217,6.76624062 15.5270055,6.87204805 15.6412056,6.96106065 C15.7738791,7.05931041 15.9460189,7.01144514 16.0753336,7.05931041 C16.1601439,7.05931041 16.2054881,7.34902122 16.3784675,7.3019957 C16.5522867,7.20458569 16.4246514,7.01144514 16.2911381,6.91403513 L16.2911381,6.76959959 C16.3700705,6.74104838 16.4624381,6.76456114 16.5522867,6.75700347 C16.4683161,6.6159269 16.3868646,6.61340767 16.3356425,6.52859378 C16.3356425,6.48156826 16.5094617,6.48156826 16.5094617,6.43454273 C16.3784675,6.28842771 16.1206778,6.38415824 15.9460189,6.28842771 L15.9460189,6.1910177 C16.3784675,6.23888296 16.8554206,6.57645904 17.2895487,6.33629298 C17.2895487,6.33629298 17.1593942,6.28842771 17.0712251,6.23888296 C17.2895487,6.09612691 17.5061928,6.23888296 17.7211576,6.1910177 C17.9814665,6.09612691 18.2409357,6.1910177 18.502924,6.14399217 C18.460099,6.23888296 18.3282651,6.1910177 18.2837607,6.28842771 C18.6322387,6.38415824 18.9790373,6.1910177 19.3249963,6.09612691 C19.1948418,6.23888296 19.0218623,6.33629298 18.8060579,6.33629298 C18.6750637,6.33629298 18.5449093,6.48156826 18.460099,6.62684353 L18.460099,6.65539475 C18.460099,6.69318311 18.4659769,6.72173432 18.502924,6.72173432 C18.6112461,6.74860605 18.7321637,6.69822156 18.8480432,6.65539475 C18.9597241,6.61340767 19.0672065,6.57897827 19.1520168,6.62684353 C19.3140801,6.71501639 19.440036,6.55042706 19.5953816,6.65203578 L19.6004199,6.65203578 C19.6096566,6.66127294 19.6188934,6.66631139 19.6289699,6.67386906 C19.4559904,6.8670096 19.1520168,6.67386906 18.9790373,6.91403513 C19.1520168,7.01144514 19.3249963,6.91403513 19.4988154,7.05931041 C19.5861448,7.15672042 19.802789,7.15672042 19.9740891,7.15672042 C20.1915729,7.20458569 20.4098965,7.10717567 20.6248613,7.10717567 C20.6676863,7.10717567 20.7566952,7.01144514 20.7986805,7.01144514 C20.9716599,7.01144514 21.1446394,6.81998408 21.3176188,6.91403513 C21.3176188,6.96106065 21.2328085,7.01144514 21.1891438,7.05931041 C21.0564702,7.05931041 20.8860099,7.05931041 20.7986805,7.20458569 C20.7986805,7.25245095 20.7986805,7.3019957 20.8415055,7.3019957 C21.0564702,7.3019957 21.2328085,7.05931041 21.448613,7.15672042 C21.1026541,7.39688649 20.7138701,7.25245095 20.3645524,7.44475176 C20.1487479,7.59002703 19.845614,7.63705256 19.6709552,7.87973785 C19.6289699,7.78232784 19.5416404,7.82935336 19.4988154,7.82935336 C19.4559904,7.82935336 19.4559904,7.92676338 19.4131654,7.92676338 C19.1948418,7.92676338 18.9353726,7.87973785 18.9353726,8.07203865 C18.9353726,8.2651792 19.1948418,8.21479471 19.3249963,8.21479471 C19.802789,8.31220472 20.1915729,8.02165417 20.6676863,7.97462864 C20.7138701,7.97462864 20.7138701,7.87973785 20.7138701,7.82935336 C20.7138701,7.73446257 20.6248613,7.78232784 20.5820363,7.78232784 C20.7986805,7.73446257 21.0564702,7.73446257 21.2747938,7.73446257 C21.5787674,7.73446257 21.9247263,7.68659731 22.2287,7.59002703 C22.4033588,7.54216177 22.5746589,7.44475176 22.7493177,7.54216177 C22.6174839,7.63705256 22.3596941,7.49261702 22.4033588,7.73446257 C22.4033588,7.82935336 22.5746589,7.73446257 22.6611486,7.78232784 L22.6174839,7.82935336 C22.6611486,7.92676338 22.7493177,7.87973785 22.8358075,7.87973785 C22.5326736,8.02165417 22.2287,8.16776919 21.9247263,8.31220472 C22.0985455,8.60275528 22.4033588,8.40709551 22.6611486,8.40709551 C22.6611486,8.40709551 22.6611486,8.50450553 22.6174839,8.50450553 C22.7064927,8.64978081 22.8358075,8.45748 22.9642825,8.50450553 C22.9214575,8.60275528 22.8358075,8.60275528 22.7493177,8.64978081 C22.4453441,8.69764607 22.1422102,8.79505609 21.8390763,8.84208161 C21.882741,8.93781214 22.0985455,8.79505609 22.0557205,8.98735689 C21.9675514,9.22752296 21.6635777,9.18049743 21.491438,9.27538822 C21.6635777,9.37279824 21.882741,9.41982376 22.0557205,9.37279824 C22.271525,9.32325349 22.5326736,9.41982376 22.7493177,9.37279824 C22.4033588,9.71037432 21.9247263,9.32325349 21.5351027,9.66082957 C21.6215924,9.75739984 21.7525866,9.80526511 21.7954116,9.95054039 C22.0557205,9.8556496 22.3596941,9.99840565 22.6174839,9.95054039 C22.2899985,10.084899 21.9658719,10.2226166 21.640066,10.3166677 C21.619913,10.3233856 21.5997601,10.3309433 21.5787674,10.3368215 C21.4435747,10.3964431 21.3083821,10.3620137 21.1740291,10.3166677 C21.0934173,10.2906357 21.0094467,10.2562063 20.9288349,10.2402512 C20.6248613,10.1428412 20.3208877,10.1428412 20.0177538,10.2881165 C20.0362273,10.2990331 20.0588994,10.30911 20.0773729,10.3166677 C20.2385965,10.3939239 20.4283701,10.432552 20.5820363,10.432552 L20.8415055,10.432552 C20.9288349,10.432552 20.8415055,10.5761478 20.9288349,10.5761478 C21.1026541,10.5761478 21.3176188,10.6256926 21.491438,10.5761478 C21.7349528,10.4417892 22.0011396,10.3779688 22.25725,10.3166677 C22.3647323,10.2939947 22.4705353,10.2671229 22.5746589,10.2402512 C22.6174839,10.1898667 22.6611486,10.1428412 22.7064927,10.0958157 C22.9642825,10.0454312 23.2254311,10.0454312 23.3984106,9.8556496 C23.4412356,9.80526511 23.4840606,9.8556496 23.4840606,9.90267512 C23.442915,10.1268861 23.4034488,10.2276551 23.5755885,10.3166677 C23.5881841,10.3233856 23.6032988,10.3309433 23.614215,10.3368215 C23.5722297,10.481257 23.4840606,10.5282825 23.3530664,10.5761478 C23.65704,10.6735578 24.0063578,10.7205833 24.2213225,10.3830073 L24.3523167,10.3830073 C24.3523167,10.481257 24.4396461,10.5282825 24.4824711,10.5761478 C24.6991153,10.6256926 24.8292698,10.3830073 25.0459139,10.3830073 C25.4783626,10.481257 25.8679862,10.432552 26.2559304,10.481257 C25.9569951,10.5761478 25.6950067,10.6256926 25.3918728,10.7205833 C25.302864,10.7205833 25.174389,10.7205833 25.0878992,10.8188331 C25.2180537,10.9607494 25.4783626,10.9137239 25.6068376,10.8658586 C25.6950067,10.8188331 25.6950067,11.0581594 25.7378318,11.0111339 C25.9569951,10.9607494 26.1719598,10.9137239 26.3449393,10.8188331 C26.4759334,10.7684486 26.7354026,10.6735578 26.9075424,10.5761478 C26.7354026,10.9607494 26.1719598,10.9137239 26.1719598,11.2513 C26.1282951,11.4394021 26.4616584,11.1194606 26.5951717,11.2865691 C25.7756185,11.4813891 24.9560654,11.4041329 24.1348328,11.5410108 C24.0911681,11.5888761 24.0483431,11.6359016 24.0063578,11.6837668 C24.2633078,11.8290421 24.5252961,11.9264521 24.7864447,11.8769074 C24.8292698,11.8290421 24.8695756,11.8290421 24.9140801,11.7811769 C25.0878992,11.7811769 25.174389,11.7811769 25.3498875,11.7341513 L25.3498875,11.8290421 C25.0459139,11.9264521 24.7419403,11.8769074 24.4396461,11.9264521 C24.2213225,12.0213429 23.9601739,11.8769074 23.7452092,11.8290421 C23.0071075,11.7811769 22.271525,11.9264521 21.5351027,11.8769074 C21.1891438,11.8769074 20.8415055,11.9264521 20.4527215,11.8769074 C20.1487479,11.7811769 19.802789,11.8769074 19.4988154,11.8769074 C19.2376668,11.9264521 18.9353726,11.8769074 18.6750637,11.8290421 C18.460099,11.8290421 18.2409357,11.8290421 18.0696356,11.9264521 C18.0251312,11.9734777 18.0696356,12.0213429 18.1107812,12.0213429 C18.6750637,12.1187529 19.1948418,11.9734777 19.7137802,12.0213429 C19.4988154,12.2144835 19.1948418,12.1187529 18.9353726,12.1666182 C18.8917079,12.1666182 18.8480432,12.2640282 18.8060579,12.3110537 C18.9790373,12.4093035 19.1948418,12.3597587 19.3669816,12.3597587 C19.4131654,12.3597587 19.4131654,12.3110537 19.4131654,12.2640282 L20.2352377,12.2640282 L20.1915729,12.3110537 C20.7566952,12.4546495 21.3176188,12.3597587 21.882741,12.4546495 C21.491438,12.5990851 21.0136452,12.4093035 20.6248613,12.5520596 C20.7566952,12.6494696 20.8860099,12.6494696 21.0136452,12.5990851 C20.9716599,12.6964951 20.7986805,12.6494696 20.7566952,12.7443604 C21.1446394,12.8896356 21.5351027,12.7913859 21.9247263,12.8417704 C21.9247263,12.9366612 21.8390763,13.0349109 21.9247263,13.1298017 C21.9675514,13.0349109 22.0557205,12.9870456 22.0985455,12.9870456 C22.3596941,13.0349109 22.5746589,13.0819364 22.7493177,12.8417704 C22.6174839,12.7443604 22.4881691,12.7443604 22.3596941,12.7443604 C22.4881691,12.5520596 22.7064927,12.7443604 22.8786325,12.6964951 C22.9214575,12.6964951 22.9214575,12.6494696 22.9214575,12.5990851 C23.1809267,12.5990851 23.4840606,12.5520596 23.7452092,12.6964951 C23.7880342,12.6964951 23.8753636,12.5041943 23.9601739,12.6494696 C23.7023842,12.7913859 23.3984106,12.7443604 23.1809267,12.8896356 C22.9642825,13.0349109 22.7064927,13.2272117 22.4881691,13.4195125 C22.5746589,13.5169225 22.7493177,13.5169225 22.8358075,13.4195125 C22.9642825,13.3221025 23.0524516,13.3221025 23.1809267,13.2742372 C23.2682561,13.2272117 23.2254311,13.4195125 23.3102414,13.4195125 C23.4840606,13.4673778 23.7023842,13.4673778 23.8753636,13.372487 C24.1348328,13.2272117 24.3951417,13.2742372 24.6991153,13.2272117 C24.7419403,13.2272117 24.7419403,13.2742372 24.7864447,13.3221025 C24.7864447,13.2666796 24.8301095,13.2759167 24.8662168,13.2742372 C24.6117859,13.4900508 24.2918578,13.2859936 24.0483431,13.4673778 C23.9601739,13.5647878 23.8753636,13.6126531 23.7452092,13.7100631 C23.9181886,13.8049539 24.0911681,13.7570886 24.2213225,13.6126531 C24.2213225,13.6588388 24.2213225,13.7570886 24.2633078,13.7570886 C24.3523167,13.7570886 24.4396461,13.6126531 24.5252961,13.6588388 C24.3951417,13.8519794 24.1784975,13.7570886 24.0063578,13.9023639 C23.7023842,14.0451199 23.3102414,13.9502291 23.0071075,14.0946647 C23.0071075,14.14253 23.0524516,14.14253 23.0952767,14.14253 C23.137262,14.1895555 23.0952767,14.2374207 23.0524516,14.2374207 C22.7493177,14.2374207 22.4453441,14.2374207 22.1841955,14.4305613 C22.4453441,14.5749968 22.7493177,14.5271316 23.0071075,14.4305613 C23.0952767,14.382696 23.2254311,14.2878052 23.3530664,14.2374207 C23.3984106,14.2374207 23.528565,14.1895555 23.528565,14.2878052 C23.4840606,14.3348308 23.4412356,14.4305613 23.3530664,14.480106 C23.4840606,14.6220223 23.65704,14.3348308 23.7880342,14.480106 C23.7452092,14.5271316 23.7452092,14.5749968 23.7452092,14.6220223 C23.9601739,14.7681374 24.3069726,14.480106 24.4396461,14.6220223 C24.6529315,14.8185219 24.7864447,14.5749968 25.0030889,14.6220223 C24.8191933,14.7681374 24.6193432,14.8411949 24.4161344,14.8966178 C24.1356725,14.9705151 23.8459739,15.0158611 23.5722297,15.1552582 C23.614215,15.250149 23.7023842,15.250149 23.7880342,15.250149 C23.65704,15.3954243 23.4840606,15.3954243 23.3102414,15.4903151 C23.528565,15.5373406 23.7452092,15.5373406 23.9601739,15.4903151 C24.1348328,15.4432895 24.3069726,15.347559 24.4824711,15.2980143 C24.5672815,15.250149 24.6529315,15.2022837 24.6991153,15.1057135 C24.5672815,15.3954243 24.3951417,15.5373406 24.1348328,15.6355903 C24.0911681,15.6851351 24.1348328,15.7330004 24.1784975,15.7330004 C24.2633078,15.7808656 24.3523167,15.6851351 24.4396461,15.6355903 C24.4824711,15.6355903 24.5252961,15.6851351 24.4824711,15.7330004 C24.4396461,15.7330004 24.3951417,15.7808656 24.3951417,15.7808656 C24.5672815,15.9731664 24.7419403,15.7808656 24.9140801,15.7808656 C24.9569051,15.7808656 25.0030889,15.6851351 25.0459139,15.6355903 C25.0459139,15.6851351 25.0459139,15.7330004 25.0878992,15.7808656 C24.6134653,15.9731664 24.1348328,16.2133325 23.65704,16.263717 C23.2682561,16.3107425 22.8786325,16.3107425 22.4881691,16.3107425 C21.7097616,16.3586078 20.9288349,16.3107425 20.1487479,16.4056333 C20.5820363,16.6483186 21.1026541,16.3586078 21.5351027,16.5500688 C21.491438,16.6483186 21.3596041,16.5987738 21.3176188,16.6961839 C21.6215924,16.8884847 22.0103764,16.5500688 22.271525,16.7432094 C21.882741,16.8884847 21.448613,16.8406194 21.0564702,16.9842152 C21.1278453,17.0833047 21.2134953,17.1009393 21.3016644,17.0975803 C21.2504423,17.1488045 21.1589144,17.2361376 21.2747938,17.3217913 C21.405788,17.371336 21.5787674,17.273926 21.7097616,17.3217913 C21.2747938,17.4183615 20.7986805,17.4183615 20.4947069,17.8038029 C21.0564702,18.043969 21.6635777,17.9490782 22.271525,18.043969 C22.5746589,18.141379 22.8786325,18.141379 23.1809267,18.043969 C23.2682561,17.9969434 23.3530664,17.9490782 23.3984106,17.8516682 C23.4840606,17.9969434 23.3530664,17.9969434 23.3102414,18.043969 C23.0952767,18.2362698 22.8358075,18.2362698 22.5746589,18.3345195 C22.4033588,18.381545 22.2287,18.381545 22.0557205,18.4294103 C21.5351027,18.6217111 21.0136452,18.4294103 20.4527215,18.5268203 C20.3645524,18.5746856 20.2352377,18.4797948 20.1059229,18.4797948 C20.1487479,18.381545 20.3208877,18.4797948 20.2780627,18.381545 C20.1487479,18.141379 19.845614,18.3345195 19.5861448,18.2866543 C19.1100315,18.1892442 18.6322387,18.3345195 18.1561254,18.4294103 C18.502924,18.6217111 18.8917079,18.4294103 19.2830109,18.4797948 C19.2376668,18.5268203 19.3669816,18.5746856 19.2830109,18.6217111 C19.4988154,18.7661466 19.6709552,18.4797948 19.8875993,18.5746856 C19.9321038,18.6217111 19.802789,18.7191211 19.845614,18.8173709 C19.8875993,18.9122617 19.9740891,18.8173709 20.0605788,18.8643964 L20.0605788,18.9592872 C20.4098965,19.2019725 20.7138701,18.9592872 21.0564702,18.8173709 C20.8860099,18.9592872 20.6676863,19.0096717 20.5392113,19.2019725 C20.4947069,19.2968633 20.5820363,19.3447285 20.6248613,19.3447285 C20.9716599,19.3447285 21.3176188,19.3447285 21.6215924,19.2019725 C21.2747938,19.5378691 20.7566952,19.5378691 20.2780627,19.5378691 C19.5861448,19.4900038 18.8480432,19.3447285 18.1561254,19.4900038 C17.1132104,19.6344394 16.1601439,19.7326891 15.1239466,19.9720154 C15.0777628,20.0198807 14.9912731,20.0702652 14.9912731,20.1172907 C14.9912731,20.3104313 15.2095966,20.1172907 15.2524217,20.262566 L15.2095966,20.3104313 C15.2969261,20.4053221 15.4245614,20.4053221 15.5127305,20.3104313 C15.5563953,20.262566 15.5127305,20.2130212 15.4673864,20.2130212 L15.3817364,20.2130212 C15.3389114,20.0198807 15.5563953,20.1172907 15.5983806,20.1172907 C15.9023542,20.0702652 16.2483131,20.1172907 16.5522867,20.165156 C16.9419103,20.262566 17.331534,20.0198807 17.7211576,19.9720154 C17.6783326,20.0198807 17.5490178,20.0198807 17.5918429,20.1172907 C17.7211576,20.3104313 17.9814665,20.165156 18.1561254,20.165156 C18.502924,20.165156 18.8480432,20.0702652 19.2376668,19.9249899 C19.3249963,19.9249899 19.4131654,19.8275799 19.4988154,19.8746054 C19.6289699,19.8746054 19.4559904,19.9249899 19.4559904,19.9720154 C18.9790373,20.262566 18.460099,20.165156 18.0251312,20.5027321 C17.9814665,20.5505973 18.0251312,20.5976229 18.0696356,20.5976229 C18.1561254,20.6471676 18.1989504,20.5027321 18.2837607,20.5505973 C17.8949768,20.9855834 17.2450442,20.5505973 16.7672515,20.8403081 C16.8554206,20.9855834 16.7672515,21.1283395 16.8134353,21.2257495 C16.8554206,21.3710248 17.0712251,21.272775 17.2450442,21.272775 C17.2895487,21.2257495 17.331534,21.2257495 17.374359,21.2257495 C17.6783326,21.175365 17.9378018,21.0334487 18.1989504,20.9351989 C18.2837607,20.8881734 18.1561254,20.9855834 18.1561254,21.0334487 C18.1561254,21.0804742 18.1989504,21.1283395 18.2409357,21.1283395 C18.3282651,21.1283395 18.417274,21.0804742 18.417274,20.9855834 C18.5877343,21.0334487 18.7632329,21.0334487 18.8917079,20.9855834 C19.0218623,20.8881734 19.1100315,20.6958726 19.2830109,20.6958726 C19.2376668,20.8403081 19.1100315,20.8881734 19.0218623,20.9855834 C18.9790373,21.0334487 19.0218623,21.0804742 19.0638477,21.0804742 L19.2830109,21.0804742 C19.1520168,21.0804742 19.0638477,21.1283395 18.9790373,21.1283395 C18.717049,21.175365 18.5449093,21.3710248 18.3282651,21.4659156 C18.3710901,21.5633256 18.502924,21.5129411 18.5877343,21.5633256 C18.3282651,21.7556264 17.9378018,21.5633256 17.6783326,21.8034916 C17.9378018,21.9479272 18.1561254,21.9479272 18.417274,21.9009017 C18.1107812,21.9949527 17.8529915,21.9479272 17.5490178,21.9479272 C17.4205428,21.9009017 17.2895487,21.9479272 17.2022192,22.0932025 C17.1593942,22.1880933 17.374359,22.1410677 17.2895487,22.2359585 C17.1132104,22.3333685 16.8982456,22.1880933 16.6816014,22.2855033 L16.7244265,22.3333685 C16.5094617,22.5265091 16.2911381,22.4290991 16.0753336,22.3812338 C16.2054881,22.2855033 16.0316689,22.2855033 16.0316689,22.2359585 C15.728535,22.2359585 15.4245614,22.1410677 15.1239466,22.1410677 C14.8174539,22.0932025 14.4706553,21.9949527 14.2137052,21.9479272 C14.0390463,21.9479272 13.9097316,22.1880933 13.691408,22.2359585 C13.7350727,22.3333685 13.8669066,22.2855033 13.9517169,22.2855033 C14.2985155,22.3333685 14.6898186,22.1880933 15.0357775,22.2855033 C15.1239466,22.2855033 15.3389114,22.1410677 15.3817364,22.3812338 C15.2969261,22.3812338 15.2095966,22.3333685 15.1659319,22.4290991 C15.4673864,22.5735346 15.7738791,22.4290991 16.0753336,22.5735346 C15.9023542,22.5735346 15.7738791,22.7188099 15.6412056,22.7666751 C15.7738791,23.0060015 15.9460189,22.8162199 16.0753336,22.7188099 C16.1601439,22.6684254 16.2054881,22.8162199 16.2911381,22.7666751 C16.5094617,22.5735346 16.7672515,22.4290991 17.0284001,22.5265091 C16.7672515,22.6205601 16.5094617,22.6684254 16.3356425,22.9111107 C16.6816014,23.0060015 17.0284001,22.9111107 17.331534,22.7666751 C17.1593942,22.9581362 16.9419103,23.056386 16.6816014,23.1042512 C15.68571,23.2016612 14.7318039,23.296552 13.7787374,23.2016612 C13.691408,23.2016612 13.4319388,23.0060015 13.3891138,23.1512768 C13.3462888,23.393962 13.691408,23.2495265 13.8207227,23.393962 C13.6502624,23.5358784 13.4319388,23.296552 13.3462888,23.4888528 C13.7787374,23.6819934 14.2556905,23.4888528 14.7318039,23.393962 C14.6898186,23.5862629 14.4706553,23.4418273 14.4278303,23.5862629 C14.4278303,23.6341281 14.4706553,23.6819934 14.5168391,23.6819934 C14.7318039,23.6819934 14.9912731,23.5358784 15.1659319,23.5862629 C15.4245614,23.6819934 15.728535,23.5358784 15.9880042,23.5358784 C15.8133453,23.7315381 15.5983806,23.7315381 15.4245614,23.7794034 C15.0357775,23.9246787 14.6024891,23.8264289 14.2137052,24.066595 L14.2556905,24.1169795 C14.2137052,24.1169795 14.1708802,24.164005 14.1708802,24.164005 C14.4706553,24.5015811 14.862798,24.1169795 15.1659319,24.164005 C15.0777628,24.164005 15.0357775,24.2118703 14.9912731,24.2588958 C15.1239466,24.3571455 15.2524217,24.2588958 15.3817364,24.3092803 C14.6024891,24.5015811 13.8207227,24.5015811 13.0003299,24.6468564 C12.9130004,24.6468564 12.9558255,24.7417472 12.9558255,24.7896124 C13.2597991,25.0793232 13.6502624,24.7896124 13.9962213,24.9348877 C13.5637727,24.982753 13.0851402,25.02474 12.6526916,24.982753 C12.2613885,24.9466441 11.8700855,24.9105352 11.4796221,24.9357274 C11.4804618,24.9357274 11.4813015,24.9348877 11.4821413,24.9348877 C11.4821413,24.8870224 11.6551207,24.8366379 11.5241266,24.7896124 C11.3091618,24.7417472 11.0925176,24.7896124 10.8775529,24.6947216 C11.0496926,24.6468564 11.2671765,24.7417472 11.4393162,24.6468564 C11.0496926,24.4041711 10.5282351,24.5494464 10.1814365,24.2588958 C10.0966262,24.164005 9.87746289,24.2588958 9.74982756,24.2118703 C9.48951867,24.066595 9.14272005,24.066595 8.88241116,23.8734544 C9.22837007,23.8264289 9.53150397,23.8734544 9.87746289,24.0195695 C9.92364672,24.0195695 9.96647173,23.9246787 9.96647173,23.9246787 C10.2704453,24.1169795 10.5710601,24.0195695 10.917019,24.066595 C10.9632029,24.1169795 11.0496926,24.066595 11.0496926,24.164005 C11.0925176,24.066595 11.2243515,23.9717042 11.0925176,23.9246787 C10.788544,23.8264289 10.5282351,23.6341281 10.2276203,23.7315381 C10.0966262,23.7315381 9.96647173,23.7315381 9.83547758,23.6819934 C9.74982756,23.6341281 9.66249813,23.5358784 9.53150397,23.5358784 C9.57432898,23.4888528 9.35936422,23.4418273 9.48951867,23.4418273 C9.57432898,23.4418273 9.62051282,23.5358784 9.74982756,23.5358784 C9.83547758,23.5358784 9.79265257,23.3444173 9.87746289,23.393962 C9.92364672,23.4888528 10.0521218,23.5358784 10.0966262,23.4888528 C10.4845704,23.4418273 10.917019,23.6819934 11.2671765,23.4888528 C11.2671765,23.4888528 11.1790073,23.296552 11.0925176,23.296552 C10.660069,23.296552 10.2276203,23.2016612 9.83547758,23.1512768 C9.48951867,23.1512768 9.09905533,23.0060015 8.7094317,23.1512768 C8.49194782,23.2016612 8.32064777,23.1512768 8.1459889,23.0060015 C8.32064777,22.9581362 8.49194782,23.056386 8.62378168,22.9581362 C8.44996251,22.7666751 8.18881392,22.7666751 7.97384915,22.6205601 C7.88484031,22.5265091 7.75720498,22.4786438 7.66987554,22.3333685 C8.18881392,22.5735346 8.75393612,22.6684254 9.27455391,22.8640852 C9.35936422,22.9111107 9.40302894,22.6684254 9.27455391,22.6205601 C9.20065977,22.6205601 9.12928475,22.5231501 9.05790973,22.5172719 C9.21577448,22.4945989 9.37363923,22.5701756 9.53150397,22.5265091 C9.62051282,22.5265091 9.79265257,22.5265091 9.83547758,22.6205601 C9.83547758,22.6684254 9.70532314,22.7188099 9.66249813,22.7666751 C9.92364672,22.9581362 10.5282351,23.056386 10.4845704,22.5735346 C10.4845704,22.4786438 10.3560954,22.5265091 10.3132704,22.5265091 C10.2276203,22.5735346 10.3132704,22.6684254 10.2704453,22.7188099 C10.1814365,22.7666751 10.0966262,22.6205601 10.0092967,22.6684254 C10.0092967,22.5265091 10.2704453,22.6205601 10.2276203,22.4290991 C10.1814365,22.3812338 10.1394512,22.2855033 10.0966262,22.2855033 C9.57432898,22.3812338 9.14272005,22.1410677 8.66660669,22.1880933 C8.49194782,22.1880933 8.18881392,22.2855033 8.05949918,22.1410677 C8.1459889,22.1410677 8.27446394,22.1410677 8.32064777,22.0436577 C8.32064777,21.9479272 8.1459889,21.9479272 8.10232419,21.8505172 C8.1459889,21.8505172 8.18881392,21.8505172 8.23163893,21.8034916 C8.32064777,21.9009017 8.44996251,21.9009017 8.53561254,21.9009017 C9.22837007,21.9949527 9.92364672,22.0932025 10.6164043,22.0932025 C10.7465587,22.0932025 11.0496926,22.1410677 11.0496926,21.9949527 C11.0060279,21.7556264 10.660069,21.9009017 10.3980807,21.8505172 C10.3132704,21.8034916 10.2276203,21.6582164 10.1814365,21.6582164 C9.87746289,21.5633256 9.62051282,21.7556264 9.31653921,21.7060816 C9.31653921,21.6582164 9.31653921,21.6103511 9.27455391,21.6103511 L8.66660669,21.6103511 L8.7094317,21.5633256 C8.66660669,21.4659156 8.53561254,21.5129411 8.44996251,21.5129411 C8.10232419,21.6582164 7.75720498,21.8034916 7.36590193,21.7060816 C7.45323137,21.7060816 7.58506523,21.7556264 7.66987554,21.7060816 C7.75720498,21.6582164 7.79835058,21.6103511 7.88484031,21.6103511 C7.97384915,21.5633256 7.88484031,21.3710248 7.842855,21.3710248 C7.49689609,21.4659156 7.19292248,21.4659156 6.88894887,21.4180503 C6.97795771,21.272775 7.15009747,21.4659156 7.19292248,21.3198005 C7.19292248,21.1283395 6.97795771,21.3198005 6.93177388,21.175365 C6.67398411,21.3198005 6.41283551,21.0334487 6.11138102,21.0804742 C6.3708502,20.9351989 6.63115909,21.1283395 6.93177388,21.0334487 C7.01994302,21.0334487 7.10559304,21.0804742 7.19292248,21.1283395 C7.58506523,21.175365 7.97384915,21.175365 8.36347278,21.0334487 C8.36347278,21.0334487 8.36347278,20.9351989 8.32064777,20.9351989 L7.97384915,20.9351989 C7.92850502,20.9351989 7.92850502,20.8403081 7.92850502,20.8403081 C8.18881392,20.7420584 8.44996251,20.9855834 8.7094317,20.7420584 C8.66660669,20.6958726 8.62378168,20.5976229 8.53561254,20.6471676 C8.36347278,20.6958726 8.18881392,20.6471676 8.01667416,20.6958726 C8.01667416,20.5976229 7.88484031,20.6471676 7.92850502,20.5976229 C8.05949918,20.5027321 8.23163893,20.5505973 8.36347278,20.5505973 C8.36347278,20.5027321 8.53561254,20.5027321 8.40545809,20.4053221 C8.3937022,20.3918862 8.37858749,20.386008 8.36347278,20.3843285 C8.52721547,20.3163095 8.7237067,20.3498991 8.88241116,20.262566 C8.92775529,20.2130212 8.88241116,20.165156 8.83874644,20.165156 L8.66660669,20.165156 C8.75393612,20.0198807 8.9705803,20.2130212 9.01340531,20.0198807 C9.01340531,19.9720154 8.9705803,19.9249899 8.92775529,19.9249899 C8.44996251,19.9249899 7.97384915,19.8746054 7.53888139,20.165156 C7.49689609,20.2130212 7.53888139,20.262566 7.58506523,20.262566 C7.842855,20.3104313 8.01667416,20.1172907 8.27446394,20.1172907 C8.01667416,20.3104313 7.62453141,20.2130212 7.36590193,20.4531873 C7.45323137,20.5505973 7.53888139,20.5505973 7.66987554,20.5505973 C7.40956665,20.6958726 7.19292248,20.5027321 6.93177388,20.5505973 C6.80329885,20.5976229 6.71680912,20.6958726 6.58581496,20.6471676 L6.58581496,20.5505973 C6.23901634,20.4053221 5.89221772,20.4053221 5.54625881,20.262566 C5.84939271,20.2130212 6.11138102,20.4053221 6.41283551,20.262566 C6.3708502,20.165156 6.19619133,20.2130212 6.19619133,20.0702652 C6.41283551,20.0702652 6.58581496,20.1172907 6.80329885,20.0198807 C6.28184136,19.8275799 5.67473384,19.9249899 5.15747488,19.6344394 C5.5042735,19.7326891 5.80740741,19.7797146 6.15336632,19.7326891 C6.23901634,19.7326891 6.19619133,19.5874138 6.23901634,19.5874138 C6.67398411,19.7326891 7.01994302,19.5874138 7.40956665,19.4900038 C7.45323137,19.4421386 7.49689609,19.395113 7.53888139,19.3447285 C7.32391663,19.2498378 7.06276803,19.395113 6.84612386,19.395113 C6.23901634,19.4900038 5.72007797,19.2498378 5.15747488,19.0096717 C5.5042735,19.1045625 5.89221772,19.2498378 6.28184136,19.2019725 C6.32718549,19.2019725 6.41283551,19.0575369 6.45482081,19.1045625 C6.75879442,19.1045625 7.06276803,19.0096717 7.36590193,19.0575369 C7.75720498,19.151588 8.10232419,19.151588 8.49194782,19.0096717 C8.32064777,18.9122617 8.10232419,19.0096717 7.92850502,18.9592872 C7.92850502,18.9592872 7.92850502,18.8643964 7.97384915,18.8643964 C7.40956665,18.5746856 6.84612386,18.8643964 6.23901634,18.7661466 C5.98038686,18.6720956 5.76290298,18.6217111 5.5042735,18.6217111 C5.89221772,18.5746856 6.32718549,18.8173709 6.67398411,18.6217111 C6.88894887,18.4797948 7.23490778,18.5268203 7.53888139,18.5268203 C7.58506523,18.5268203 7.58506523,18.4797948 7.58506523,18.4294103 C7.75720498,18.4294103 7.75720498,18.3345195 7.79835058,18.1892442 C7.36590193,18.0943534 6.97795771,18.3345195 6.54215025,18.3345195 C6.49932524,18.3345195 6.49932524,18.2362698 6.49932524,18.2362698 C6.67398411,18.1892442 6.84612386,18.2866543 6.97795771,18.141379 C6.88894887,18.043969 6.84612386,17.9012129 6.75879442,17.8516682 C6.45482081,17.8038029 6.19619133,17.9490782 5.89221772,17.8038029 C6.11138102,17.8038029 6.3708502,17.8516682 6.41283551,17.6593674 C6.45482081,17.5636368 6.28184136,17.6593674 6.23901634,17.5636368 C5.98038686,17.7063929 5.72007797,17.5166113 5.45976908,17.5166113 C5.58824411,17.4183615 5.72007797,17.5636368 5.84939271,17.5166113 C5.89221772,17.5166113 5.89221772,17.4662268 5.89221772,17.4183615 C5.84939271,17.371336 5.84939271,17.3217913 5.80740741,17.3217913 C5.67473384,17.3217913 5.54625881,17.273926 5.41610436,17.273926 C5.07014545,17.2260607 4.68136152,17.273926 4.3345629,17.273926 C4.3345629,17.1790352 4.20356875,17.2260607 4.24639376,17.1790352 C4.42021293,17.1286507 4.63517769,17.3217913 4.80899685,17.1790352 C4.54952767,16.9363499 4.20356875,17.1790352 3.94242015,17.0337599 C3.81310541,16.9363499 3.63928625,16.8884847 3.55363623,16.7432094 C3.89959514,16.7910746 4.20356875,16.9842152 4.54952767,16.8884847 C4.54952767,16.7910746 4.42021293,16.7910746 4.42021293,16.7432094 C4.50670265,16.6961839 4.68136152,16.7910746 4.76617184,16.6961839 C4.54952767,16.5030433 4.24639376,16.5030433 4.031429,16.3586078 C4.16074374,16.3107425 4.3345629,16.4534986 4.28921877,16.3586078 C4.16074374,16.1184417 3.81310541,16.0201919 3.59562153,15.8278911 C3.7702804,15.8757564 3.94242015,15.9261409 4.11791873,15.9731664 C4.37822762,16.0201919 4.68136152,16.1654672 4.9811366,16.1184417 C5.11297046,16.0680572 5.07014545,15.9261409 4.9811366,15.8757564 C4.59319238,15.8757564 4.24639376,15.8278911 3.85677013,15.7330004 C3.68463038,15.6851351 3.46630679,15.5373406 3.33531264,15.347559 C3.59562153,15.4903151 3.85677013,15.7330004 4.16074374,15.6355903 C4.24639376,15.6355903 4.42021293,15.6355903 4.46219823,15.5373406 C4.46219823,15.4432895 4.24639376,15.2980143 4.28921877,15.2980143 C4.54952767,15.2022837 4.85350127,15.3954243 5.11297046,15.250149 C4.91563953,15.0729635 4.53861149,15.1393031 4.37402909,14.8966178 C4.35891438,14.8739448 4.34463938,14.8462333 4.3345629,14.8185219 C4.41601439,14.8462333 4.49578647,14.8756243 4.57639826,14.8966178 C4.62594092,14.9041755 4.67296446,14.9125729 4.72418653,14.9125729 C5.33129405,14.9604382 5.89221772,15.2022837 6.49932524,15.0578482 C6.32718549,14.9864702 6.15336632,14.9335664 5.97870745,14.8966178 C5.15243665,14.7160734 4.30853201,14.8470731 3.48897886,14.6614902 C3.63928625,14.6690479 3.7702804,14.5875929 3.89959514,14.480106 C3.63928625,14.3348308 3.33531264,14.5271316 3.12034788,14.382696 C2.94568901,14.2878052 2.68873894,14.3348308 2.55690508,14.0946647 C2.81637427,14.14253 3.12034788,14.4305613 3.24966262,14.14253 C3.29248763,13.9964149 2.9037037,14.14253 2.99187284,13.9023639 C2.99187284,13.8519794 3.24966262,13.9964149 3.33531264,13.8519794 C3.33531264,13.8049539 3.20767731,13.8519794 3.20767731,13.7570886 C3.55363623,13.7100631 3.89959514,13.8519794 4.20356875,13.7100631 C3.94242015,13.5647878 3.63928625,13.6588388 3.38065677,13.6126531 L3.38065677,13.5169225 C3.42348178,13.4673778 3.55363623,13.5169225 3.51081122,13.4673778 C3.42348178,13.3221025 3.16317289,13.4195125 3.03133903,13.2742372 C3.20767731,13.2742372 3.33531264,13.2742372 3.51081122,13.1793465 C3.59562153,13.0819364 3.85677013,13.2742372 3.89959514,13.1298017 C3.94242015,12.8896356 3.59562153,12.9366612 3.42348178,12.9366612 C2.94568901,12.9366612 2.46957565,12.9366612 1.99262258,12.8896356 L1.99262258,12.7913859 C2.16644175,12.8417704 2.3385815,12.8896356 2.51240066,12.7913859 C2.12361673,12.5041943 1.64918279,12.6494696 1.21253561,12.4546495 C1.47368421,12.4546495 1.73483281,12.4546495 1.99262258,12.3110537 C1.73483281,12.0692082 1.38803419,12.2144835 1.08406058,12.1187529 C1.68864897,12.0213429 2.3385815,12.2144835 2.94568901,12.0692082 C2.94568901,11.9734777 2.85919928,12.0213429 2.81637427,11.9734777 C2.64255511,11.9264521 2.46957565,12.0213429 2.29575649,11.9264521 C2.16644175,11.8769074 2.03796671,11.8290421 1.90697256,11.8290421 C1.86246814,11.7811769 1.81964312,11.7341513 1.73483281,11.7341513 C1.99262258,11.6359016 2.21010646,11.9264521 2.46957565,11.8290421 C2.59973009,11.7341513 2.81637427,11.8290421 2.77354926,11.6837668 C2.77354926,11.5888761 2.55690508,11.6359016 2.46957565,11.4436008 C2.59973009,11.4436008 2.77354926,11.491466 2.85919928,11.3495497 C2.51240066,11.1564092 2.16644175,11.1564092 1.81964312,11.2034347 C1.4308592,11.2983255 0.995891438,11.2513 0.607107512,11.2034347 C0.73474284,11.1564092 0.867416404,11.2034347 0.953066427,11.0581594 C0.78008697,10.9137239 0.563442795,10.8188331 0.345958914,10.7205833 C0.476953066,10.7205833 0.563442795,10.7684486 0.649932524,10.8188331 C0.691917829,10.8188331 0.78008697,10.7205833 0.867416404,10.7684486 C0.867416404,10.8188331 0.867416404,10.8658586 0.909401709,10.8658586 C1.08406058,10.8658586 1.25704004,10.9137239 1.38803419,10.8188331 C1.29902534,10.7205833 1.12688559,10.8658586 1.08406058,10.6735578 C1.38803419,10.6256926 1.81964312,10.8658586 2.08079172,10.6256926 C1.8297196,10.4753788 1.554296,10.3905649 1.27383416,10.3166677 C0.828789924,10.1965846 0.37282951,10.1008541 0,9.80526511 C0.130994152,9.80526511 0.345958914,9.8556496 0.434128055,9.8556496 C1.04207527,9.95054039 1.60299895,10.0454312 2.21010646,9.99840565 C2.3385815,9.99840565 2.59973009,10.0454312 2.55690508,9.8556496 C2.46957565,9.56509904 2.16644175,9.46852877 1.81964312,9.46852877 C1.81964312,9.46852877 1.81964312,9.37279824 1.86246814,9.37279824 C2.03796671,9.41982376 2.21010646,9.37279824 2.3385815,9.46852877 C2.46957565,9.51807352 2.59973009,9.56509904 2.73072425,9.66082957 C2.85919928,9.71037432 2.99187284,9.75739984 3.12034788,9.71037432 C3.16317289,9.66082957 3.16317289,9.61296431 3.16317289,9.56509904 C2.9037037,9.27538822 2.55690508,9.27538822 2.21010646,9.18049743 C2.46957565,9.08224768 2.73072425,9.27538822 3.03133903,9.27538822 C3.29248763,9.22752296 3.51081122,9.41982376 3.81310541,9.37279824 C3.7702804,9.46852877 3.59562153,9.41982376 3.63928625,9.51807352 C3.72745539,9.66082957 4.031429,10.0454312 4.16074374,9.8556496 C4.24639376,9.75739984 3.98524516,9.66082957 4.031429,9.66082957 C4.3345629,9.32325349 4.63517769,9.90267512 5.02732044,9.75739984 L5.02732044,9.8556496 C4.89632629,9.90267512 4.76617184,9.80526511 4.63517769,9.90267512 C4.9391513,10.0958157 5.33129405,10.0958157 5.63442795,10.2881165 C5.6554206,10.2881165 5.62519118,10.2990331 5.58740441,10.3166677 C5.54961763,10.3368215 5.5042735,10.3586548 5.5042735,10.3830073 C5.5042735,10.5761478 5.67473384,10.5282825 5.76290298,10.5282825 C6.32718549,10.6735578 6.88894887,10.9137239 7.40956665,10.6735578 C7.10559304,10.5761478 6.84612386,10.481257 6.54215025,10.5282825 C6.67398411,10.3368215 6.97795771,10.6735578 7.01994302,10.3830073 C7.02666067,10.3620137 7.02666067,10.3376612 7.02414155,10.3166677 C7.00734743,10.2117 6.87047533,10.1512386 6.75879442,10.1898667 C6.80329885,9.95054039 7.06276803,10.1898667 7.01994302,10.0454312 C7.01994302,9.99840565 6.93177388,9.8556496 6.88894887,9.8556496 C6.67398411,9.75739984 6.41283551,9.90267512 6.19619133,9.8556496 C5.89221772,9.75739984 5.58824411,9.90267512 5.28511021,9.71037432 C5.2422852,9.66082957 5.28511021,9.61296431 5.33129405,9.61296431 C5.11297046,9.46852877 4.85350127,9.61296431 4.68136152,9.37279824 L4.54952767,9.37279824 C4.85350127,9.32325349 5.11297046,9.41982376 5.41610436,9.37279824 L5.37327935,9.32325349 L5.41610436,9.27538822 C5.28511021,9.22752296 5.2002999,9.08224768 5.07014545,9.03522215 C4.80899685,8.98735689 4.54952767,9.13011294 4.28921877,8.93781214 C4.50670265,8.88994688 4.72418653,8.98735689 4.9391513,8.88994688 C4.80899685,8.79505609 4.63517769,8.84208161 4.50670265,8.79505609 C4.50670265,8.7446716 4.50670265,8.69764607 4.54952767,8.69764607 C4.85350127,8.69764607 5.2002999,8.7446716 5.5042735,8.64978081 C5.28511021,8.50450553 5.02732044,8.36006999 4.80899685,8.2651792 C4.80899685,8.2651792 4.76617184,8.36006999 4.72418653,8.36006999 C4.54952767,8.36006999 4.42021293,8.45748 4.24639376,8.50450553 C4.031429,8.55153105 3.81310541,8.45748 3.59562153,8.40709551 C3.63928625,8.40709551 3.72745539,8.40709551 3.72745539,8.36006999 C3.68463038,8.2651792 3.55363623,8.31220472 3.46630679,8.31220472 C3.16317289,8.50450553 2.81637427,8.40709551 2.51240066,8.55153105 C2.21010646,8.69764607 1.86246814,8.7446716 1.56017394,8.60275528 C1.56017394,8.60275528 1.34269006,8.60275528 1.4308592,8.55153105 C1.73483281,8.45748 2.12361673,8.64978081 2.38476533,8.45748 C2.03796671,8.12074366 1.51650922,8.21479471 1.21253561,7.87973785 C1.77765782,8.07203865 2.3385815,8.16776919 2.9037037,8.16776919 C3.12034788,8.16776919 3.38065677,8.2651792 3.59562153,8.07203865 C3.12034788,7.97462864 2.73072425,7.73446257 2.25293147,7.59002703 C2.21010646,7.54216177 2.21010646,7.44475176 2.12361673,7.39688649 C1.68864897,7.25245095 1.29902534,7.05931041 0.953066427,6.81998408 C1.17055031,6.76959959 1.38803419,6.96106065 1.60299895,6.96106065 C1.86246814,6.96106065 2.25293147,7.34902122 2.51240066,7.10717567 C2.3662918,6.90143901 2.05727995,6.87204805 1.91704903,6.65539475 C1.89269756,6.61844612 1.87674314,6.57645904 1.86246814,6.52859378 C1.88765932,6.58401672 1.92544609,6.62180509 1.96911081,6.65539475 C2.00521817,6.67974725 2.04300495,6.70074079 2.08079172,6.72173432 C2.29575649,6.76959959 2.46957565,6.81998408 2.64255511,6.96106065 C2.73072425,7.01144514 2.85919928,6.91403513 2.94568901,6.96106065 C3.07668316,7.05931041 3.20767731,7.10717567 3.33531264,7.15672042 C3.38065677,7.15672042 3.38065677,7.10717567 3.38065677,7.05931041 C3.33531264,6.96106065 3.20767731,6.96106065 3.16317289,6.8670096 C3.29248763,6.76959959 3.42348178,6.96106065 3.55363623,6.96106065 C3.7702804,6.96106065 3.94242015,7.25245095 4.11791873,7.3019957 C4.50670265,7.44475176 4.89632629,7.44475176 5.28511021,7.54216177 C5.41610436,7.54216177 5.54625881,7.63705256 5.67473384,7.68659731 C6.15336632,7.78232784 6.58581496,7.82935336 7.06276803,7.92676338 C7.28109162,7.97462864 7.49689609,8.07203865 7.71270055,7.92676338 C7.19292248,7.68659731 6.63115909,7.59002703 6.06687659,7.59002703 C5.93504274,7.54216177 5.84939271,7.34902122 5.67473384,7.3019957 C5.11297046,7.20458569 4.59319238,7.20458569 4.07425401,6.96106065 C4.3345629,6.81998408 4.63517769,7.10717567 4.89632629,6.91403513 C4.89632629,6.8670096 4.89632629,6.76959959 4.85350127,6.76959959 C4.66204828,6.71081768 4.48822912,6.68730492 4.30769231,6.65539475 C4.20356875,6.63440121 4.09776578,6.61340767 3.98524516,6.57645904 C4.20356875,6.62684353 4.46219823,6.72173432 4.68136152,6.57645904 C4.59319238,6.52859378 4.54952767,6.43454273 4.50670265,6.33629298 C4.50670265,6.28842771 4.59319238,6.28842771 4.63517769,6.28842771 C4.72418653,6.33629298 4.72418653,6.43454273 4.80899685,6.48156826 C4.9811366,6.57645904 5.15747488,6.57645904 5.33129405,6.57645904 C5.37327935,6.57645904 5.41610436,6.48156826 5.41610436,6.38415824 C5.56809117,6.44126066 5.70664268,6.56302318 5.85275154,6.65539475 C5.95939421,6.7192151 6.07107512,6.76959959 6.19619133,6.76959959 C6.67398411,6.81998408 7.10559304,6.8670096 7.58506523,6.91403513 C7.32391663,6.96106065 7.10559304,6.8670096 6.84612386,6.96106065 C7.28109162,7.20458569 7.75720498,7.20458569 8.23163893,7.34902122 C8.32064777,7.34902122 8.44996251,7.39688649 8.40545809,7.3019957 C8.36347278,7.10717567 8.05949918,7.3019957 7.92850502,7.05931041 C8.10232419,6.96106065 8.27446394,7.05931041 8.44996251,7.01144514 C8.49194782,7.01144514 8.49194782,7.10717567 8.53561254,7.10717567 C9.01340531,7.15672042 9.57432898,7.3019957 9.96647173,7.01144514 C9.57432898,6.8670096 9.14272005,7.10717567 8.75393612,7.01144514 C8.44492428,6.90647745 8.15774479,6.80402899 7.8151447,6.65287552 L7.7194182,6.65203578 C7.64636377,6.62936276 7.57246964,6.60249103 7.49689609,6.57645904 L7.19292248,6.57645904 C6.80329885,6.57645904 6.41283551,6.57645904 6.02405158,6.43454273 C6.02405158,6.43454273 6.02405158,6.33629298 6.06687659,6.33629298 C5.63442795,6.1910177 5.15747488,5.95169137 4.72418653,5.9038261 C4.42021293,5.9038261 4.11791873,5.61327555 3.7702804,5.51838476 C3.98524516,5.37394922 4.16074374,5.61327555 4.42021293,5.7115253 C4.46219823,5.7115253 4.50670265,5.7115253 4.54952767,5.66366004 C4.59319238,5.51838476 4.54952767,5.42097474 4.46219823,5.32272499 C4.42021293,5.22867394 4.50670265,5.18080867 4.54952767,5.13294341 C4.63517769,5.32272499 4.85350127,5.51838476 5.02732044,5.32272499 C5.07014545,5.27569946 5.02732044,5.18080867 5.02732044,5.13294341 C5.2002999,5.37394922 5.45976908,5.56625002 5.72007797,5.56625002 C5.80740741,5.56625002 5.80740741,5.42097474 5.72007797,5.37394922 C5.93504274,5.37394922 6.11138102,5.51838476 6.28184136,5.66366004 C6.41283551,5.7115253 6.54215025,5.56625002 6.67398411,5.66366004 C6.97795771,5.80641609 7.28109162,5.95169137 7.62453141,5.99787715 C7.66987554,5.99787715 7.66987554,5.95169137 7.66987554,5.9038261 C7.79835058,5.95169137 7.92850502,5.99787715 8.05949918,5.99787715 C8.10232419,6.04574242 8.18881392,5.99787715 8.18881392,6.09612691 C8.18881392,6.04574242 8.36347278,6.04574242 8.23163893,5.95169137 C8.66660669,5.9038261 9.09905533,6.04574242 9.53150397,6.04574242 C9.35936422,6.1910177 9.14272005,5.99787715 9.01340531,6.1910177 C9.01340531,6.23888296 9.01340531,6.28842771 9.05539061,6.28842771 C9.48951867,6.28842771 9.96647173,6.23888296 10.3980807,6.28842771 C10.1814365,6.48156826 9.87746289,6.28842771 9.62051282,6.33629298 C9.57432898,6.33629298 9.57432898,6.38415824 9.53150397,6.43454273 C9.60287899,6.48156826 9.67593342,6.52271559 9.74982756,6.55714499 L9.74982756,6.55714499 C10.2553306,6.75616373 10.9128205,6.73517019 11.3536662,6.76959959 C11.405728,6.76959959 11.4107662,6.71585613 11.405728,6.65539475 C11.4015295,6.61340767 11.3956515,6.56806163 11.3956515,6.52859378 C11.2671765,6.09612691 11.1353426,5.66366004 10.9632029,5.27569946 C10.7465587,4.84323259 10.4425851,4.45779124 10.0521218,4.16724068 C9.53150397,3.83050434 8.98233618,3.57606267 8.35591543,3.48788981 L1.64918279,3.48956929 C1.64918279,3.35689014 1.64666367,3.04618578 1.64918279,3 L21.4863998,3 L21.8466337,3 L28,3 L28,3.48872955 L19.3241565,3.48872955 Z M20.9288349,8.07203865 C21.0136452,8.02165417 21.1446394,8.02165417 21.2328085,7.92676338 C21.1026541,7.87973785 20.8860099,7.73446257 20.7566952,7.87973785 C20.7138701,7.97462864 20.9288349,7.87973785 20.8860099,7.97462864 C20.8415055,8.02165417 20.7138701,7.92676338 20.7138701,8.02165417 C20.7566952,8.12074366 20.8515819,8.11402573 20.9288349,8.07203865 M22.7064927,11.6359016 C23.0071075,11.5888761 23.3530664,11.6359016 23.65704,11.4436008 C23.7023842,11.3965753 23.65704,11.3495497 23.614215,11.3495497 C23.4412356,11.3495497 23.294287,11.3084024 23.137262,11.3965753 C22.9642825,11.491466 22.791303,11.4436008 22.6174839,11.5410108 C22.6611486,11.5888761 22.6611486,11.6359016 22.7064927,11.6359016 M21.7525866,15.3954243 C21.7954116,15.3954243 21.8046484,15.2341939 21.882741,15.2980143 C22.0557205,15.4432895 22.2287,15.2980143 22.4033588,15.250149 C22.4033588,15.2022837 22.5746589,15.1552582 22.4453441,15.1057135 C22.2287,15.0578482 22.0103764,15.0578482 21.7954116,15.1057135 C21.7097616,15.1552582 21.5787674,15.347559 21.7525866,15.3954243 M2.64255511,12.4093035 C2.55690508,12.6494696 3.12034788,12.6494696 3.38065677,12.6494696 C3.42348178,12.6494696 3.42348178,12.5990851 3.46630679,12.5990851 C3.24966262,12.3597587 2.77354926,12.1187529 2.64255511,12.4093035 M4.85350127,11.0111339 C4.76617184,10.7684486 4.42021293,10.9607494 4.20356875,11.0581594 C4.24639376,11.1564092 4.37822762,11.2034347 4.42021293,11.1564092 C4.59319238,11.1564092 4.90388364,11.150531 4.85350127,11.0111339 M5.2002999,11.2513 C5.11297046,11.2513 4.9391513,11.2034347 4.9391513,11.2983255 C4.89632629,11.3965753 5.11297046,11.4436008 5.2002999,11.3495497 L5.2002999,11.2513 Z M5.2002999,12.2640282 C5.2002999,12.2144835 5.2002999,12.1666182 5.15747488,12.1666182 C4.80899685,12.2144835 4.50670265,12.0213429 4.16074374,12.1666182 C4.24639376,12.2144835 4.28921877,12.2640282 4.37822762,12.2144835 L4.37822762,12.3110537 C4.20356875,12.2640282 4.031429,12.3110537 3.85677013,12.3110537 C3.85677013,12.2144835 3.81310541,12.2144835 3.7702804,12.1666182 C3.68463038,12.1187529 3.68463038,12.2144835 3.63928625,12.2640282 C3.63928625,12.2144835 3.63928625,12.1666182 3.59562153,12.1666182 C3.55363623,12.2640282 3.51081122,12.1187529 3.46630679,12.1666182 C3.42348178,12.2144835 3.38065677,12.2144835 3.42348178,12.2640282 C3.72745539,12.4546495 4.031429,12.5520596 4.37822762,12.5041943 C4.42021293,12.5041943 4.42021293,12.4546495 4.42021293,12.4093035 C4.72418653,12.4093035 4.9811366,12.5520596 5.28511021,12.4093035 C5.2422852,12.3597587 5.2002999,12.3597587 5.15747488,12.3597587 C5.11297046,12.3110537 5.15747488,12.3110537 5.2002999,12.2640282 M15.5127305,8.12074366 C15.4245614,8.12074366 15.3389114,8.07203865 15.2969261,8.16776919 C15.2969261,8.12074366 15.2969261,8.07203865 15.2524217,8.07203865 L14.862798,8.07203865 C14.8174539,8.07203865 14.8174539,8.16776919 14.8174539,8.21479471 C14.862798,8.2651792 14.948448,8.31220472 15.0357775,8.31220472 C15.1659319,8.31220472 15.2095966,8.2651792 15.2969261,8.16776919 C15.3817364,8.21479471 15.4673864,8.2651792 15.5563953,8.21479471 C15.5563953,8.16776919 15.5127305,8.12074366 15.5127305,8.12074366 M14.7746289,14.0946647 L14.7746289,14.1895555 C14.905623,14.1895555 15.0777628,14.3348308 15.2095966,14.1895555 C15.0777628,14.0451199 14.948448,14.0451199 14.7746289,14.0946647 M14.948448,10.6735578 C14.905623,10.6256926 14.862798,10.5761478 14.8174539,10.6735578 C14.8174539,10.7684486 14.8174539,10.9137239 14.905623,10.9607494 C14.9912731,10.9607494 15.0357775,10.7684486 14.948448,10.6735578 M14.948448,9.75739984 C14.9912731,9.95054039 15.2095966,9.99840565 15.4245614,9.95054039 C15.4673864,9.95054039 15.4673864,9.90267512 15.4673864,9.8556496 C15.4245614,9.75739984 15.3204378,9.73640631 15.2524217,9.66082957 C15.1239466,9.51807352 14.9912731,9.22752296 14.8174539,9.27538822 C14.6453141,9.32325349 14.862798,9.56509904 14.948448,9.75739984 M15.5563953,9.03522215 C15.5563953,8.98735689 15.4992952,9.02178629 15.4673864,8.98735689 C15.3389114,8.84208161 15.2524217,8.55153105 15.0357775,8.69764607 C15.1659319,8.88994688 15.2969261,9.08224768 15.4673864,9.18049743 C15.5127305,9.18049743 15.5563953,9.18049743 15.5563953,9.13011294 L15.5563953,9.03522215 Z M15.3817364,11.491466 C15.2969261,11.5410108 15.1810466,11.6678118 15.2969261,11.7341513 C15.3817364,11.7811769 15.5127305,11.7341513 15.5983806,11.7341513 C15.9023542,11.8769074 16.2054881,11.8769074 16.5094617,11.8769074 C16.5522867,11.8769074 16.5522867,11.8290421 16.594272,11.7811769 C16.594272,11.7341513 16.594272,11.6837668 16.5522867,11.6837668 C16.2911381,11.5888761 16.0316689,11.7811769 15.8133453,11.6359016 C15.68571,11.5888761 15.5563953,11.491466 15.3817364,11.491466 M16.594272,9.51807352 C16.3784675,9.51807352 16.1601439,9.46852877 15.9460189,9.51807352 C16.0316689,9.71037432 16.2483131,9.61296431 16.3356425,9.75739984 C16.4632779,9.66082957 16.6396161,9.80526511 16.7244265,9.66082957 C16.7672515,9.56509904 16.6396161,9.56509904 16.594272,9.51807352 M17.0712251,8.31220472 C17.0712251,8.36006999 17.0712251,8.40709551 17.1132104,8.40709551 C17.1593942,8.40709551 17.1593942,8.41549293 17.2022192,8.40709551 C17.5061928,8.36006999 17.8093267,8.36006999 18.1107812,8.21479471 C18.0696356,8.16776919 18.0251312,8.07203865 17.9814665,8.07203865 C17.7211576,8.16776919 17.5061928,8.12074366 17.2895487,8.21479471 C17.2450442,8.21479471 17.1132104,8.21479471 17.0712251,8.31220472 M18.0696356,7.15672042 L17.8093267,7.15672042 C17.8093267,7.10717567 17.8093267,7.05931041 17.7665017,7.05931041 C17.5918429,7.10717567 17.4205428,7.05931041 17.2895487,7.15672042 C17.4205428,7.44475176 17.6783326,7.3019957 17.9378018,7.3019957 C17.9814665,7.3019957 18.0696356,7.34902122 18.1107812,7.25245095 C18.1107812,7.20458569 18.1107812,7.15672042 18.0696356,7.15672042 M20.6248613,9.56509904 C20.3645524,9.46852877 19.9740891,9.32325349 19.802789,9.61296431 C19.7137802,9.71037432 19.9354626,9.7767139 19.9740891,9.75739984 C20.1915729,9.66082957 20.4527215,9.80526511 20.6248613,9.56509904 M20.2780627,10.7684486 C20.3208877,10.6735578 20.1487479,10.6735578 20.0177538,10.6735578 C19.845614,10.6735578 19.6289699,10.6256926 19.4988154,10.7684486 C19.759964,10.8658586 20.1915729,11.0581594 20.2780627,10.7684486 M19.5416404,11.6837668 C19.6709552,11.5888761 19.802789,11.5410108 19.9321038,11.5410108 C19.9740891,11.5410108 20.0177538,11.491466 20.0177538,11.4436008 C19.9740891,11.3495497 19.8842405,11.374742 19.845614,11.3965753 C19.6709552,11.491466 19.4559904,11.3495497 19.3249963,11.5410108 C19.4131654,11.5888761 19.4559904,11.7341513 19.5416404,11.6837668 M18.5877343,9.27538822 C18.717049,9.27538822 18.8463638,9.31149711 18.9790373,9.27538822 C19.1520168,9.22752296 19.3669816,9.27538822 19.4988154,9.13011294 C19.5416404,9.08224768 19.4988154,9.03522215 19.4559904,9.03522215 C19.2376668,9.08224768 19.0218623,8.98735689 18.8060579,9.08224768 C18.717049,9.08224768 18.6322387,9.08224768 18.5449093,9.18049743 C18.502924,9.22752296 18.5449093,9.27538822 18.5877343,9.27538822 M18.5877343,7.20458569 C18.417274,7.15672042 18.2837607,7.10717567 18.1107812,7.15672042 C18.1989504,7.20458569 18.2837607,7.34902122 18.3710901,7.3019957 C18.460099,7.25245095 18.5449093,7.3019957 18.5877343,7.20458569 M18.2837607,8.40709551 C18.1107812,8.45748 17.9378018,8.36006999 17.8093267,8.40709551 C17.7665017,8.45748 17.6783326,8.40709551 17.6783326,8.50450553 C17.6783326,8.55153105 17.6783326,8.55153105 17.7211576,8.60275528 C17.7665017,8.64978081 17.7816164,8.50030682 17.8529915,8.55153105 C17.9814665,8.64978081 18.1989504,8.60275528 18.3282651,8.50450553 C18.3710901,8.45748 18.3282651,8.40709551 18.2837607,8.40709551 M18.2837607,10.5761478 C18.2837607,10.481257 18.1561254,10.5761478 18.1107812,10.481257 C18.0696356,10.432552 18.0251312,10.481257 18.0251312,10.5282825 C18.0696356,10.5761478 18.1007048,10.6256926 18.1989504,10.6256926 C18.2409357,10.6256926 18.2837607,10.5761478 18.2837607,10.5761478 M18.0696356,11.2983255 C18.1107812,11.2983255 18.1107812,11.2513 18.1561254,11.2034347 C18.1561254,11.1564092 18.1561254,11.1051849 18.1107812,11.1051849 C18.0251312,11.1051849 17.9378018,11.2034347 17.8529915,11.1564092 C17.6355076,11.1051849 17.4205428,11.2034347 17.2450442,11.0581594 C17.4205428,11.0111339 17.6355076,11.1051849 17.8093267,11.0111339 C17.4205428,10.8188331 16.9419103,10.6735578 16.5522867,10.7684486 C16.5220573,10.7793652 16.4918279,10.7869229 16.4615984,10.7928011 C16.4725146,10.7743268 16.4842705,10.7466153 16.5094617,10.7205833 C16.3784675,10.6256926 16.2911381,10.5282825 16.1206778,10.5282825 C16.0753336,10.5282825 16.0753336,10.481257 16.0316689,10.481257 C15.9880042,10.481257 15.9880042,10.5282825 15.9880042,10.5761478 C16.0660969,10.7474551 16.2138851,10.7659294 16.3700705,10.8045575 C16.1584645,10.8196728 15.9393012,10.7751665 15.7738791,10.9607494 C15.9880042,11.2034347 16.2911381,11.2034347 16.5522867,11.1051849 C16.5094617,11.0581594 16.5094617,11.0581594 16.4632779,11.0111339 C16.6396161,11.1051849 16.8982456,10.9607494 16.985575,11.1564092 C17.0284001,11.2034347 16.8134353,11.2034347 16.8134353,11.2983255 C16.8134353,11.3495497 16.9419103,11.3965753 17.0284001,11.3965753 C17.2022192,11.3965753 17.4205428,11.2983255 17.5918429,11.2983255 C17.7665017,11.2513 17.8949768,11.2983255 18.0696356,11.2983255 M17.9378018,11.9734777 C17.9378018,12.0213429 17.8949768,12.0213429 17.8529915,12.0213429 C17.8529915,11.9734777 17.8529915,11.9264521 17.8093267,11.9264521 C17.6783326,11.9264521 17.5918429,11.9734777 17.4633678,12.0213429 C17.1132104,12.0692082 16.7672515,11.9734777 16.4632779,12.1666182 C16.5522867,12.5520596 16.8982456,12.2144835 17.1593942,12.3597587 C16.6396161,12.5990851 16.0316689,12.0692082 15.5983806,12.4546495 C15.5563953,12.5041943 15.7738791,12.5041943 15.8595292,12.5520596 C15.7738791,12.6494696 15.6949468,12.5990851 15.5983806,12.5990851 C15.5563953,12.5990851 15.5563953,12.6494696 15.5127305,12.6494696 C15.728535,12.8896356 15.9460189,13.0349109 16.2054881,13.1793465 C16.3356425,13.2742372 16.6396161,13.2272117 16.8134353,13.0349109 C16.6396161,12.9366612 16.3784675,13.0819364 16.2483131,12.8417704 C16.2483131,12.7913859 16.2483131,12.6964951 16.2911381,12.6964951 C16.4246514,12.6964951 16.5522867,12.7443604 16.6816014,12.7443604 C16.9419103,12.6964951 17.1132104,12.5041943 17.374359,12.5990851 C17.4633678,12.6494696 17.5490178,12.7913859 17.6783326,12.7443604 C17.8093267,12.6964951 17.8093267,12.5041943 17.6783326,12.4546495 L17.4633678,12.4546495 C17.5061928,12.1187529 17.9378018,12.4093035 18.0696356,12.1187529 C18.1107812,12.0213429 17.9814665,12.0213429 17.9378018,11.9734777 M16.3356425,15.6851351 C16.3784675,15.7808656 16.4683161,15.7573529 16.5522867,15.7330004 C16.7244265,15.6851351 16.8982456,15.8278911 17.0284001,15.6851351 C16.8554206,15.4903151 16.2911381,15.2980143 16.3356425,15.6851351 M18.3710901,16.8884847 C18.5877343,16.9842152 18.9790373,17.0337599 19.0218623,16.7910746 C19.0638477,16.7432094 18.8547608,16.7222158 18.7632329,16.6961839 C18.417274,16.5987738 18.0696356,16.5030433 17.7211576,16.6961839 C17.9378018,16.7432094 18.1561254,16.8406194 18.417274,16.8406194 L18.3710901,16.8884847 Z M19.0638477,13.1793465 C19.0638477,13.2272117 19.1100315,13.2272117 19.1520168,13.2742372 C19.1520168,13.2272117 19.1948418,13.2347694 19.2376668,13.2272117 C19.4988154,13.1793465 19.759964,13.1793465 19.9740891,13.0349109 C19.802789,12.9870456 19.845614,12.9366612 19.759964,12.7913859 C19.5416404,12.9366612 19.1948418,12.8417704 19.0218623,13.0819364 C19.0218623,13.1298017 19.1100315,13.1298017 19.1520168,13.1298017 C19.1100315,13.1298017 19.0638477,13.1298017 19.0638477,13.1793465 M19.0218623,15.250149 C19.0218623,15.2980143 19.1100315,15.2980143 19.1520168,15.2980143 C19.1948418,15.2980143 19.4988154,15.2980143 19.3669816,15.1552582 C19.2830109,15.1057135 19.1100315,15.1552582 19.0218623,15.250149 M18.502924,16.3586078 C18.717049,16.4534986 18.94293,16.5215176 19.1520168,16.4056333 C19.2376668,16.3586078 19.3249963,16.4534986 19.4131654,16.3586078 C19.1520168,16.2133325 18.8060579,16.2133325 18.502924,16.3586078 M18.3710901,15.4903151 C18.460099,15.4432895 18.6750637,15.4432895 18.6322387,15.347559 C18.502924,15.0578482 18.0696356,15.347559 17.8093267,15.4432895 C17.9814665,15.5373406 18.2174239,15.5776482 18.3710901,15.4903151 M17.8529915,16.4056333 C17.8529915,16.4534986 17.9378018,16.4534986 17.9814665,16.4534986 L17.9814665,16.3586078 C17.9378018,16.3586078 17.8529915,16.3586078 17.8529915,16.4056333 M17.8093267,14.6724068 C17.5918429,14.5271316 17.331534,14.480106 17.0712251,14.5749968 C17.2022192,14.6220223 17.331534,14.6220223 17.4205428,14.7681374 C17.5490178,14.6724068 17.6783326,14.7681374 17.8093267,14.6724068 M18.0251312,14.14253 C17.9814665,14.1895555 18.0251312,14.2374207 18.0696356,14.2374207 C18.1107812,14.2374207 18.120018,14.2668117 18.1561254,14.2374207 C18.3282651,14.0946647 18.5877343,14.2878052 18.7632329,14.0946647 C18.7632329,14.0451199 18.7632329,13.9964149 18.717049,13.9964149 C18.502924,14.0946647 18.2409357,13.9502291 18.0251312,14.14253 M18.1561254,12.8417704 C18.1107812,12.9366612 18.2048283,13.0819364 18.460099,13.0819364 C18.502924,13.0819364 18.502924,13.0349109 18.5449093,13.0349109 L18.502924,12.9870456 C18.6750637,12.9366612 18.8917079,12.9870456 19.0638477,12.7913859 C19.1100315,12.7443604 19.0638477,12.6964951 19.0218623,12.6964951 C18.717049,12.6964951 18.2837607,12.5520596 18.1561254,12.8417704 M18.8917079,12.4546495 C18.8060579,12.4546495 18.6322387,12.4093035 18.5449093,12.5520596 C18.9353726,12.6494696 19.3249963,12.6494696 19.7137802,12.6494696 C19.845614,12.6494696 20.0177538,12.6494696 20.1487479,12.5520596 C19.759964,12.2144835 19.3249963,12.4546495 18.8917079,12.4546495 M20.4947069,13.4195125 C20.4947069,13.372487 20.4947069,13.3221025 20.4527215,13.3221025 C20.0177538,13.3221025 19.5416404,13.2272117 19.1100315,13.4673778 C19.2376668,13.6126531 19.4559904,13.4195125 19.5861448,13.6126531 C19.6709552,13.7100631 19.822942,13.5698263 19.9740891,13.6126531 C20.1487479,13.6588388 20.4098965,13.6588388 20.4947069,13.4195125 M19.9321038,16.9842152 C19.8875993,16.9842152 19.845614,16.9842152 19.845614,17.0337599 C19.9740891,17.1286507 20.1487479,17.1286507 20.2780627,17.0337599 C20.2352377,16.9363499 20.1487479,16.9842152 20.0605788,16.9842152 C20.4098965,16.7910746 20.7986805,17.1286507 21.1026541,16.9363499 C20.7986805,16.8406194 20.4921877,16.8196259 20.1487479,16.7432094 C19.9321038,16.6961839 19.845614,16.8884847 19.6709552,16.9363499 C19.759964,17.0807855 19.845614,16.8884847 19.9321038,16.9842152 M19.6289699,16.5987738 C19.6289699,16.5500688 19.6289699,16.5030433 19.5861448,16.5030433 C19.3249963,16.6483186 19.0638477,16.3586078 18.8060579,16.5500688 C18.9790373,16.6961839 19.1898036,16.6961839 19.4131654,16.6961839 C19.4988154,16.6961839 19.5861448,16.6961839 19.6289699,16.5987738 M17.9378018,17.273926 C18.460099,17.1790352 18.9353726,17.3217913 19.4131654,17.1790352 C19.2830109,16.9363499 19.0638477,17.1790352 18.8917079,17.0807855 C18.8060579,17.0337599 18.6750637,16.9363499 18.5877343,16.9842152 C18.3710901,17.1286507 18.1107812,17.0807855 17.8949768,17.1790352 C17.8529915,17.2260607 17.8949768,17.273926 17.9378018,17.273926 M17.2895487,18.043969 C17.4633678,17.9969434 17.6355076,17.9490782 17.7665017,17.8516682 C17.7211576,17.8038029 17.7211576,17.7559376 17.6783326,17.7559376 C17.4633678,17.8038029 17.2022192,17.7063929 17.0284001,17.9012129 C17.1132104,17.9490782 17.1568751,18.0817573 17.2895487,18.043969 M15.9460189,19.3447285 C16.3784675,19.3447285 16.8134353,19.4900038 17.2022192,19.2019725 C17.2450442,19.151588 17.2022192,19.1045625 17.1593942,19.1045625 C16.9419103,19.1045625 16.6816014,19.2968633 16.4632779,19.151588 C16.2054881,19.0096717 15.8595292,19.151588 15.5563953,19.151588 C15.5127305,19.151588 15.5127305,19.2498378 15.5127305,19.2968633 C15.6412056,19.4421386 15.8133453,19.3447285 15.9460189,19.3447285 M15.9460189,17.7063929 C16.0316689,17.7063929 16.1601439,17.7063929 16.1206778,17.6115021 C16.0753336,17.3217913 15.68571,17.4662268 15.5127305,17.5636368 C15.6412056,17.6115021 15.7738791,17.7063929 15.9460189,17.7063929 M15.728535,14.9604382 C15.7738791,14.9125729 15.8595292,14.9125729 15.9023542,14.8185219 C15.9023542,14.7681374 15.9023542,14.7202721 15.8595292,14.7202721 C15.728535,14.6724068 15.551357,14.5901122 15.5127305,14.7202721 C15.4673864,14.8655474 15.6412056,14.9604382 15.728535,14.9604382 M15.5127305,13.9502291 L15.4673864,13.9023639 L15.3817364,13.9023639 C15.3389114,13.9502291 15.3817364,13.9964149 15.4245614,13.9964149 C15.4673864,13.9964149 15.5127305,13.9964149 15.5127305,13.9502291 M15.5983806,21.2257495 C15.6412056,21.2257495 15.699985,21.2383456 15.728535,21.175365 C15.7738791,21.0804742 15.9460189,21.175365 15.9880042,21.0804742 C15.8595292,21.0334487 15.6412056,20.9351989 15.5127305,21.0334487 C15.5983806,21.0804742 15.5127305,21.175365 15.5983806,21.2257495 M15.2524217,21.1283395 C15.2969261,21.0804742 15.3389114,21.0334487 15.2524217,20.9855834 C15.1659319,20.9855834 15.0357775,20.9351989 15.0357775,21.0334487 C14.9912731,21.1283395 15.182726,21.204756 15.2524217,21.1283395 M15.4673864,20.8403081 C15.5127305,20.8403081 15.5563953,20.8881734 15.5983806,20.9351989 C15.6412056,20.9351989 15.68571,20.8881734 15.6412056,20.8403081 C15.4673864,20.6958726 15.1659319,20.6471676 14.948448,20.7420584 C15.0777628,20.9351989 15.2902084,20.8403081 15.4673864,20.8403081 M15.0777628,17.8038029 C15.2095966,17.8038029 15.3389114,17.8038029 15.4245614,17.7063929 C15.2969261,17.6115021 15.1239466,17.4662268 14.948448,17.5166113 C14.905623,17.5166113 14.905623,17.5636368 14.905623,17.6115021 C14.948448,17.6593674 14.948448,17.6593674 14.9912731,17.7063929 C14.948448,17.7063929 14.8174539,17.6593674 14.8174539,17.7559376 C14.862798,17.8516682 14.9912731,17.8038029 15.0777628,17.8038029 M15.2095966,16.2133325 C15.2524217,16.1654672 15.2095966,16.1184417 15.1659319,16.1184417 L14.8174539,16.1184417 C14.7746289,16.1184417 14.7746289,16.1654672 14.7318039,16.1654672 C14.8174539,16.3107425 15.0777628,16.3107425 15.2095966,16.2133325 M14.6024891,21.4180503 C14.6453141,21.4180503 14.6453141,21.3710248 14.6453141,21.3198005 C14.5168391,21.175365 14.2985155,21.0334487 14.1246964,21.175365 C14.2137052,21.3198005 14.3413405,21.272775 14.4278303,21.3710248 C14.4706553,21.4180503 14.5588244,21.3198005 14.6024891,21.4180503 M14.0390463,21.4180503 L14.1246964,21.4180503 C14.1708802,21.4180503 14.2985155,21.5129411 14.2985155,21.4180503 C14.2556905,21.3198005 14.1246964,21.175365 13.9962213,21.3198005 C13.9962213,21.3710248 13.9962213,21.4180503 14.0390463,21.4180503 M12.6098665,21.1283395 C13.0003299,21.175365 13.3462888,21.175365 13.691408,21.0334487 C13.6502624,20.8881734 13.5209477,20.9351989 13.4319388,20.9351989 C13.3017844,20.8881734 13.174149,20.8403081 13.0851402,20.8881734 C12.9558255,20.9855834 12.8676563,21.0334487 12.7391813,21.0334487 C12.7391813,20.9351989 12.6946769,20.8881734 12.6526916,20.8881734 C12.3487179,20.8403081 12.0464238,20.8403081 11.7861149,20.9855834 C12.0464238,21.0804742 12.3487179,21.0964293 12.6098665,21.1283395 M12.6946769,17.273926 C12.6946769,17.2260607 12.6526916,17.1790352 12.6526916,17.1790352 C12.5242165,17.273926 12.2630679,17.2260607 12.3058929,17.4183615 C12.3058929,17.5166113 12.4352077,17.5636368 12.5662018,17.5636368 C12.6946769,17.5636368 12.7391813,17.4662268 12.7811666,17.4183615 C12.7811666,17.3217913 12.6526916,17.371336 12.6098665,17.371336 C12.6526916,17.3217913 12.6526916,17.3217913 12.6946769,17.273926 M12.2202429,19.395113 C12.2202429,19.4421386 12.3487179,19.4900038 12.3487179,19.395113 C12.3487179,19.3447285 12.2202429,19.3447285 12.2202429,19.395113 M12.5662018,16.9363499 C12.6098665,16.8884847 12.5662018,16.8406194 12.5242165,16.8406194 C12.3932224,16.8406194 12.3058929,16.8406194 12.1740591,16.9363499 L12.0892488,16.8406194 C12.0019193,16.8884847 11.917109,16.9842152 11.917109,17.0807855 C11.917109,17.1790352 12.0497826,17.1521635 12.1320738,17.1286507 C12.3058929,17.0807855 12.4352077,17.0337599 12.5662018,16.9363499 M12.0019193,16.3107425 C12.0019193,16.3586078 12.0019193,16.4056333 12.0464238,16.4056333 C12.0892488,16.4056333 12.0707752,16.3586078 12.1320738,16.3586078 C12.1740591,16.3586078 12.1740591,16.3107425 12.2202429,16.3107425 C12.1320738,16.2133325 12.0892488,16.2133325 12.0019193,16.3107425 M11.9590943,11.491466 C11.917109,11.491466 11.917109,11.5410108 11.917109,11.5888761 C11.917109,11.6359016 11.9590943,11.6359016 11.9590943,11.6837668 C12.0464238,11.6359016 12.0464238,11.5410108 11.9590943,11.491466 M11.7424501,18.6217111 C11.6979457,18.5746856 11.6551207,18.4797948 11.6131354,18.4797948 C11.4393162,18.4797948 11.3091618,18.3345195 11.1790073,18.2866543 C11.1353426,18.2866543 11.1353426,18.381545 11.0496926,18.381545 C10.788544,18.381545 10.4845704,18.3345195 10.2276203,18.5268203 C10.4425851,18.7191211 10.7037337,18.5268203 10.9632029,18.6217111 C11.1790073,18.7191211 11.4821413,18.7661466 11.7424501,18.6217111 M9.38119658,12.0289006 C9.14523917,11.9071381 8.87653321,11.9675995 8.69683611,12.1271504 C8.78248613,12.2245604 8.91348028,12.1271504 9.00080972,12.0792851 C9.17294947,12.0414967 9.28882891,12.2153232 9.41730394,12.1918104 C9.64654371,12.2908999 9.88082171,12.336246 10.1394512,12.4093035 C10.2704453,12.4093035 10.3560954,12.3110537 10.4425851,12.2144835 C10.0747938,12.1741759 9.73975109,11.9953109 9.38119658,12.0289006 M9.66249813,11.5410108 C9.40302894,11.2983255 9.05539061,11.3495497 8.83874644,11.5410108 C8.92775529,11.6359016 9.05539061,11.5410108 9.14272005,11.491466 C9.35936422,11.4436008 9.48951867,11.7341513 9.66249813,11.5410108 M7.842855,12.1187529 C7.75720498,12.1187529 7.58506523,12.0692082 7.58506523,12.1666182 C7.62453141,12.4093035 7.92850502,12.3110537 8.10232419,12.3597587 C8.36347278,12.4546495 8.5717199,12.4093035 8.88241116,12.4093035 C8.92775529,12.4093035 8.92775529,12.3597587 8.9705803,12.3597587 C8.62378168,12.1666182 8.23163893,12.2640282 7.842855,12.1187529 M10.2276203,13.9023639 C10.1814365,13.9023639 10.0966262,13.9502291 10.0966262,13.9964149 C10.0966262,14.0946647 10.1814365,14.1895555 10.2704453,14.14253 C10.3560954,14.0451199 10.4425851,13.9023639 10.5282351,13.7570886 C10.5282351,13.7100631 10.5282351,13.6588388 10.4845704,13.6588388 C10.3980807,13.6588388 10.3560954,13.7100631 10.3132704,13.7570886 L10.3132704,13.8519794 C10.3132704,13.9023639 10.2704453,13.9023639 10.2276203,13.9023639 M8.83874644,18.5746856 C9.18554506,18.7191211 9.57432898,18.6217111 9.92364672,18.4797948 C9.87746289,18.2866543 9.70532314,18.3345195 9.53150397,18.3345195 C9.31653921,18.3345195 9.14272005,18.2866543 8.92775529,18.381545 C9.01340531,18.4797948 9.14272005,18.4294103 9.27455391,18.4797948 C9.14272005,18.5268203 8.9705803,18.4294103 8.83874644,18.5746856 M10.1814365,17.7063929 C10.2704453,17.6593674 10.1814365,17.5166113 10.2276203,17.4662268 C10.3132704,17.4183615 10.4744939,17.4922588 10.5282351,17.371336 C10.5710601,17.273926 10.4425851,17.273926 10.3980807,17.2260607 C10.2276203,17.3217913 9.96647173,17.0807855 9.87746289,17.2260607 C9.74982756,17.4183615 9.96647173,17.273926 10.0521218,17.371336 C9.66249813,17.5166113 9.27455391,17.4183615 8.88241116,17.5166113 C9.31653921,17.5636368 9.74982756,17.7063929 10.1814365,17.7063929 M10.788544,16.4056333 C10.788544,16.3586078 10.7364822,16.331736 10.7037337,16.3586078 C10.5710601,16.4534986 10.3980807,16.5030433 10.3132704,16.6483186 C10.3132704,16.6961839 10.3132704,16.7432094 10.3560954,16.7432094 C10.5282351,16.7432094 10.7465587,16.5987738 10.788544,16.4056333 M9.05539061,15.9731664 C9.14272005,16.1654672 9.40302894,16.0680572 9.62051282,15.9731664 C9.53150397,15.8757564 9.44669366,15.8278911 9.40302894,15.7330004 C9.27455391,15.6851351 9.01340531,15.8757564 9.05539061,15.9731664 M9.74982756,14.7681374 C9.62051282,14.6724068 9.53990103,14.5749968 9.40302894,14.5749968 L9.27455391,14.5749968 C9.22837007,14.5749968 9.18554506,14.6220223 9.22837007,14.6724068 C9.35936422,14.8185219 9.62051282,14.9125729 9.74982756,14.7681374 M9.66249813,15.7330004 C9.83547758,15.8757564 10.0966262,15.8278911 10.3132704,15.7330004 C10.0966262,15.5373406 9.83547758,15.6355903 9.66249813,15.7330004 M10.5282351,12.7913859 C10.3980807,12.6964951 10.2704453,12.5990851 10.0966262,12.5990851 C9.83547758,12.5990851 9.62051282,12.4093035 9.35936422,12.5041943 C9.48951867,12.7443604 9.74982756,12.5990851 9.92364672,12.7443604 C10.0521218,12.8896356 10.3132704,12.8417704 10.5282351,12.7913859 M10.4845704,11.3495497 C10.4845704,11.2983255 10.660069,11.2983255 10.5282351,11.2034347 C10.4425851,11.1564092 10.3132704,11.2613769 10.3132704,11.1564092 L10.3132704,11.0581594 C10.1394512,11.0111339 9.87746289,10.9137239 9.74982756,11.1051849 C9.96647173,11.3495497 10.2276203,11.2983255 10.4845704,11.3495497 M11.0060279,10.0958157 C10.8775529,9.8556496 10.6164043,10.1428412 10.4845704,9.95054039 C10.3980807,10.0958157 10.2276203,9.90267512 10.1394512,10.0454312 C10.3560954,10.2402512 10.7465587,10.1428412 11.0060279,10.0958157 M10.8775529,14.0946647 C10.831369,14.0946647 10.7465587,14.0451199 10.7037337,14.14253 C10.7037337,14.1895555 10.7037337,14.2374207 10.7465587,14.2374207 C10.788544,14.2374207 10.8011396,14.2710104 10.831369,14.2374207 C10.8775529,14.1895555 11.0060279,14.14253 10.8775529,14.0946647 M11.2671765,13.9023639 C11.1353426,13.8519794 11.0496926,13.8049539 10.917019,13.9023639 C11.0496926,13.9964149 11.1353426,13.9964149 11.2671765,13.9023639 M10.8775529,11.4436008 C11.0060279,11.3965753 11.2571,11.3990945 11.2243515,11.2034347 C11.1790073,10.9607494 10.8775529,11.0581594 10.7037337,11.2034347 C10.7465587,11.2983255 10.788544,11.4436008 10.8775529,11.4436008 M11.3536662,10.7684486 C11.3956515,10.7205833 11.4393162,10.5761478 11.3536662,10.5761478 C11.1790073,10.5282825 10.917019,10.5761478 10.917019,10.7205833 C10.917019,10.9137239 11.242825,10.8927304 11.3536662,10.7684486 M10.7465587,9.8556496 C10.917019,9.8556496 11.1790073,9.90267512 11.3536662,9.8556496 C11.4393162,9.80526511 11.4821413,9.61296431 11.3956515,9.51807352 C11.1353426,9.8556496 10.7062528,9.66082957 10.3132704,9.66082957 C10.2276203,9.66082957 10.1814365,9.71037432 10.1394512,9.75739984 C10.3132704,9.90267512 10.5710601,9.8556496 10.7465587,9.8556496 M11.4393162,9.46852877 C11.4393162,9.41982376 11.4821413,9.32325349 11.3956515,9.27538822 C11.3536662,9.27538822 11.3091618,9.32325349 11.2243515,9.32325349 C11.1790073,9.32325349 11.1790073,9.37279824 11.1353426,9.41982376 C11.2243515,9.46852877 11.3536662,9.46852877 11.4393162,9.46852877 M10.4425851,14.7681374 C10.6164043,14.8185219 10.8397661,15.0964763 10.9632029,14.9604382 C11.0060279,14.9125729 11.1353426,15.0099829 11.1790073,14.9604382 C11.2671765,14.8185219 11.3956515,14.8655474 11.5241266,14.7681374 C11.5711501,14.7202721 11.5241266,14.6724068 11.4821413,14.6724068 C11.1353426,14.6724068 10.788544,14.6220223 10.4425851,14.7681374 M11.1353426,16.2133325 C11.0496926,16.2133325 11.0925176,16.4056333 11.0060279,16.4534986 C11.1353426,16.5500688 11.2806118,16.5668637 11.3956515,16.5030433 C11.4821413,16.4534986 11.6131354,16.4534986 11.6979457,16.3586078 C11.5711501,16.1184417 11.3091618,16.3107425 11.1353426,16.2133325 M11.1790073,20.5027321 C11.2243515,20.5027321 11.2243515,20.4531873 11.2671765,20.4531873 C11.1790073,20.3574568 11.0925176,20.3574568 11.0496926,20.4531873 C11.0496926,20.5027321 11.1353426,20.5027321 11.1790073,20.5027321 M10.2704453,20.8881734 C10.3980807,20.8881734 10.4837307,20.8512248 10.6164043,20.8881734 C10.788544,20.9351989 10.917019,20.8881734 11.0496926,20.8403081 C10.917019,20.7907634 10.8775529,20.6958726 10.788544,20.6471676 C10.6164043,20.5505973 10.3980807,20.6958726 10.2276203,20.7907634 C10.2276203,20.8403081 10.2276203,20.8881734 10.2704453,20.8881734 M9.92364672,20.7907634 L10.0966262,20.7907634 C10.1394512,20.7907634 10.1394512,20.7420584 10.1394512,20.6958726 C10.0521218,20.5976229 9.87746289,20.5421999 9.87746289,20.6958726 C9.87746289,20.7420584 9.92364672,20.7907634 9.92364672,20.7907634 M9.74982756,19.8275799 C9.92364672,19.8746054 10.0966262,19.8275799 10.2704453,19.7797146 C10.1394512,19.6823046 10.0092967,19.7797146 9.87746289,19.6823046 C10.0966262,19.6823046 10.3132704,19.8275799 10.4845704,19.5874138 C10.1814365,19.4421386 9.83547758,19.4421386 9.48951867,19.5378691 C9.35936422,19.5378691 9.27455391,19.5874138 9.14272005,19.4900038 C9.09905533,19.6344394 9.05539061,19.6823046 8.92775529,19.7326891 C9.18554506,19.8746054 9.4937172,19.7562019 9.74982756,19.8275799 M9.35936422,18.8173709 C9.70532314,18.9122617 10.0966262,18.9122617 10.4425851,18.8173709 C10.4425851,18.8643964 10.4425851,18.9122617 10.4845704,18.9122617 C10.660069,18.9122617 10.917019,19.0575369 11.0060279,18.8173709 C11.0496926,18.6720956 10.8775529,18.7191211 10.831369,18.7191211 C10.1394512,18.6217111 9.44669366,18.6217111 8.75393612,18.6720956 C8.92775529,18.9122617 9.14272005,18.7661466 9.35936422,18.8173709 M9.27455391,15.0578482 C9.18554506,14.9604382 9.09905533,14.9604382 8.9705803,14.9604382 C8.83874644,14.9604382 8.7094317,15.0099829 8.62378168,15.0578482 C8.83874644,15.1552582 9.05539061,15.1552582 9.27455391,15.0578482 M9.18554506,13.7100631 C8.92775529,13.5647878 8.53561254,13.5647878 8.23163893,13.6588388 C8.32064777,13.8519794 8.44408457,13.8049539 8.57843755,13.8049539 C8.79592143,13.8049539 9.01340531,13.9023639 9.18554506,13.7100631 M8.01667416,17.2260607 L8.01667416,17.1286507 C7.79835058,17.0337599 7.53888139,16.9363499 7.28109162,17.0807855 C7.49689609,17.2260607 7.75720498,17.1286507 8.01667416,17.2260607 M7.97384915,15.8757564 L7.92850502,15.8278911 C8.1459889,15.6355903 8.40545809,15.9731664 8.57843755,15.7808656 C8.57843755,15.7330004 8.46927575,15.7749874 8.44996251,15.7330004 C8.27446394,15.347559 7.79835058,15.4903151 7.49689609,15.5885648 C7.36590193,15.6355903 7.19292248,15.6355903 7.06276803,15.7330004 C7.32391663,15.8757564 7.66987554,16.0201919 7.97384915,15.8757564 M6.58581496,15.4432895 C6.71680912,15.4903151 6.7965812,15.4432895 6.93177388,15.4432895 C7.15009747,15.4432895 7.32391663,15.5373406 7.53888139,15.4903151 C7.58506523,15.4432895 7.62453141,15.347559 7.71270055,15.2980143 C7.62453141,15.1552582 7.45323137,15.2980143 7.32391663,15.250149 L7.32391663,15.1057135 C7.01994302,14.9125729 6.75879442,15.2022837 6.49932524,15.347559 C6.54215025,15.3954243 6.54215025,15.4432895 6.58581496,15.4432895 M6.49932524,14.14253 C6.58581496,14.1895555 6.63115909,14.0946647 6.67398411,14.0451199 C6.67398411,13.9964149 6.67398411,13.9023639 6.63115909,13.9023639 C6.49932524,13.9023639 6.3708502,13.8519794 6.23901634,13.9502291 C6.32718549,13.9964149 6.41283551,14.0946647 6.49932524,14.14253 M6.23901634,12.9366612 C7.06276803,12.9870456 7.88484031,13.0349109 8.7094317,13.0819364 C8.49194782,13.2272117 8.23163893,13.0819364 8.01667416,13.1298017 C8.01667416,13.1298017 7.842855,13.2272117 7.97384915,13.2742372 C8.57843755,13.4673778 9.2325686,13.3481345 9.87746289,13.4673778 C10.1394512,13.5169225 10.3980807,13.4195125 10.4845704,13.1793465 C10.5710601,12.9870456 10.3132704,13.0819364 10.2704453,13.0819364 C9.83547758,13.0349109 9.35936422,13.2272117 8.9705803,12.9870456 C9.22837007,13.0349109 9.48951867,13.0349109 9.74982756,12.9366612 C9.74982756,12.9366612 9.92364672,12.8417704 9.79265257,12.8417704 C9.27455391,12.7443604 8.79592143,12.6494696 8.32064777,12.6494696 C8.10232419,12.5990851 7.842855,12.6964951 7.62453141,12.7443604 C7.06276803,12.7913859 6.45482081,12.7913859 5.89221772,12.7913859 C5.98038686,12.9366612 6.15336632,12.9366612 6.23901634,12.9366612 M7.32391663,12.4546495 C7.23490778,12.4093035 7.19292248,12.3597587 7.10559304,12.3597587 C7.06276803,11.9734777 6.63115909,12.1666182 6.41283551,11.9734777 C6.28184136,11.9264521 6.28184136,12.1187529 6.19619133,12.1666182 C6.32718549,12.2640282 6.49932524,12.2144835 6.67398411,12.2640282 C6.75879442,12.2640282 6.71680912,12.4093035 6.71680912,12.4093035 C6.41283551,12.5041943 6.11138102,12.3110537 5.80740741,12.4093035 C5.76290298,12.4546495 5.63442795,12.5520596 5.72007797,12.5520596 C6.3708502,12.6964951 7.01994302,12.7443604 7.66987554,12.5520596 L7.66987554,12.4546495 C7.53888139,12.4546495 7.40956665,12.5041943 7.32391663,12.4546495 M5.54625881,8.84208161 C5.45976908,8.84208161 5.45976908,8.98735689 5.41610436,9.08224768 C5.41610436,9.22752296 5.60755735,9.28546512 5.67473384,9.22752296 C5.84939271,9.08224768 5.98038686,9.18049743 6.15336632,9.18049743 C6.32718549,9.13011294 6.54215025,9.32325349 6.71680912,9.37279824 C6.80329885,9.37279824 6.88894887,9.32325349 6.97795771,9.27538822 C7.06276803,9.27538822 7.19292248,9.37279824 7.28109162,9.27538822 C6.75879442,8.84208161 6.15336632,8.93781214 5.54625881,8.84208161 M7.15009747,8.55153105 C7.10559304,8.55153105 7.10559304,8.45748 7.10559304,8.40709551 C6.93177388,8.2651792 6.67398411,8.31220472 6.54215025,8.40709551 C6.3708502,8.50450553 6.23901634,8.2651792 6.06687659,8.45748 C6.58581496,8.64978081 7.15009747,8.69764607 7.66987554,8.88994688 C7.92850502,8.98735689 8.23163893,9.03522215 8.53561254,8.88994688 C8.10232419,8.64978081 7.62453141,8.55153105 7.15009747,8.55153105 M8.53561254,9.66082957 C8.23163893,9.51807352 7.88484031,9.56509904 7.53888139,9.56509904 C7.01994302,9.66082957 6.58581496,9.41982376 6.06687659,9.27538822 C6.02405158,9.27538822 5.98038686,9.37279824 5.98038686,9.37279824 C6.11138102,9.56509904 6.32718549,9.51807352 6.49932524,9.61296431 C6.54215025,9.66082957 6.32718549,9.66082957 6.32718549,9.66082957 C6.54215025,9.8556496 6.80329885,9.71037432 7.01994302,9.75739984 L6.97795771,9.8556496 C6.97795771,9.95054039 7.10559304,9.95054039 7.15009747,9.99840565 C7.36590193,10.0454312 7.58506523,9.95054039 7.79835058,10.0454312 C7.88484031,10.1428412 7.97384915,10.2881165 8.10232419,10.3368215 L8.36347278,10.3368215 L8.40545809,10.2402512 C8.32064777,10.0958157 8.18881392,10.0958157 8.05949918,9.99840565 C8.10232419,9.99840565 8.10232419,9.95054039 8.10232419,9.90267512 C8.18881392,9.90267512 8.27446394,9.90267512 8.36347278,9.99840565 C8.49194782,10.0454312 8.53561254,9.90267512 8.62378168,9.80526511 C8.66660669,9.75739984 8.57843755,9.71037432 8.53561254,9.66082957 M8.88241116,10.3830073 C8.83874644,10.481257 8.7094317,10.432552 8.66660669,10.432552 C8.27446394,10.5761478 7.88484031,10.3830073 7.53888139,10.2881165 C7.40956665,10.2402512 7.15009747,10.1428412 7.10559304,10.2881165 C7.06276803,10.481257 7.32391663,10.3830073 7.45323137,10.5282825 C7.53888139,10.5761478 7.71270055,10.481257 7.79835058,10.5282825 C8.23163893,10.7205833 8.66660669,10.7205833 9.09905533,10.6256926 C9.53150397,10.5761478 10.0092967,10.5761478 10.3980807,10.2881165 C10.1394512,10.1898667 9.92364672,10.1898667 9.66249813,10.1898667 C9.53150397,10.1898667 9.48951867,10.3830073 9.35936422,10.432552 C9.18554506,10.432552 9.01340531,10.481257 8.88241116,10.3830073 M11.4821413,7.25245095 C11.3956515,7.05931041 11.2243515,7.20458569 11.0925176,7.15672042 C10.9632029,7.10717567 10.7037337,6.98289393 10.7037337,7.15672042 C10.7037337,7.20458569 10.7465587,7.3019957 10.788544,7.3019957 C10.917019,7.3019957 11.0060279,7.34902122 11.0925176,7.39688649 C11.2243515,7.39688649 11.3536662,7.49261702 11.4821413,7.39688649 L11.4821413,7.25245095 Z M11.5241266,8.45748 C11.4821413,8.36006999 11.3091618,8.31220472 11.2671765,8.40709551 C11.2671765,8.50450553 11.3091618,8.60275528 11.3536662,8.69764607 C10.8775529,8.64978081 10.4425851,8.69764607 9.96647173,8.60275528 C9.70532314,8.50450553 9.39463188,8.41801215 9.22837007,8.60275528 C9.18554506,8.64978081 9.05539061,8.69764607 9.18554506,8.7446716 C9.62051282,8.88994688 10.1814365,8.50450553 10.4425851,8.98735689 C10.788544,8.88994688 11.1353426,9.08224768 11.4393162,8.88994688 C11.5711501,8.84208161 11.5711501,8.60275528 11.5241266,8.45748 M11.5711501,15.5885648 C11.6551207,15.6355903 11.8138252,15.5373406 11.8281002,15.4903151 C11.874284,15.347559 11.6979457,15.4903151 11.6131354,15.4432895 C11.6131354,15.4903151 11.4393162,15.5373406 11.5711501,15.5885648 M11.6979457,12.3110537 L11.7424501,12.2640282 C11.9590943,12.1187529 12.0019193,11.7811769 11.7861149,11.7811769 C11.6979457,11.7811769 11.5711501,12.1187529 11.6979457,12.3110537 M11.874284,11.2983255 C11.874284,11.3965753 11.9590943,11.3965753 12.0464238,11.2983255 C11.9590943,11.2513 11.874284,11.2034347 11.874284,11.2983255 M12.0892488,10.6735578 C12.0019193,10.7684486 11.917109,10.9137239 11.917109,11.0581594 C11.917109,11.1051849 12.0019193,11.1051849 12.0464238,11.1051849 C12.0892488,11.1051849 12.0707752,11.053121 12.0892488,11.0111339 C12.1320738,10.9137239 12.1740591,10.7684486 12.0892488,10.6735578 M12.2630679,14.8655474 C12.1740591,14.8185219 12.0019193,15.0578482 12.1740591,15.1552582 C12.1740591,15.1552582 12.2437547,15.1502198 12.2630679,15.1057135 C12.3058929,15.0099829 12.3487179,14.8655474 12.2630679,14.8655474 M12.3932224,9.41982376 C12.3487179,9.41982376 12.3487179,9.46852877 12.3487179,9.51807352 C12.3487179,9.56509904 12.3932224,9.56509904 12.3932224,9.61296431 C12.4780327,9.56509904 12.4780327,9.46852877 12.3932224,9.41982376 M12.6946769,15.7808656 C12.6098665,15.7330004 12.5662018,15.8278911 12.5242165,15.8757564 C12.5242165,15.9261409 12.6098665,15.9261409 12.6526916,15.9261409 C12.6946769,15.9261409 12.6946769,15.8757564 12.7391813,15.8757564 C12.7391813,15.8278911 12.7391813,15.7808656 12.6946769,15.7808656 M12.6946769,16.4056333 C12.6946769,16.4534986 12.5662018,16.4534986 12.6526916,16.5500688 C12.7391813,16.6483186 12.8676563,16.5987738 12.8676563,16.5030433 C12.8676563,16.4534986 12.7811666,16.3586078 12.6946769,16.4056333 M13.174149,10.6256926 C13.0406358,10.9607494 13.1279652,11.3495497 13.0406358,11.7341513 C13.0406358,11.8290421 13.174149,11.7811769 13.2136152,11.7811769 C13.3017844,11.7811769 13.3891138,11.6837668 13.3891138,11.6359016 C13.3462888,11.2983255 13.4319388,10.8658586 13.174149,10.6256926 M13.0003299,12.9366612 C13.0406358,12.9870456 13.0406358,13.0819364 13.1279652,13.0349109 C13.174149,13.0349109 13.2043785,12.9710906 13.174149,12.9366612 C13.1279652,12.8896356 13.1279652,12.8417704 13.0851402,12.8417704 C13.0406358,12.8417704 13.0406358,12.8896356 13.0003299,12.9366612 M12.8676563,13.3221025 C12.8273504,13.372487 12.8676563,13.4195125 12.9130004,13.4195125 C13.0003299,13.4195125 13.1279652,13.4673778 13.2136152,13.372487 C13.2136152,13.372487 13.2597991,13.4195125 13.3017844,13.4195125 C13.3462888,13.372487 13.3891138,13.3221025 13.4319388,13.2742372 C13.3017844,13.1298017 13.0003299,13.1793465 12.8676563,13.3221025 M13.0003299,14.5749968 C13.0003299,14.6724068 13.1901035,14.7488233 13.2597991,14.6724068 C13.3017844,14.6220223 13.2597991,14.5271316 13.2136152,14.5271316 L13.4747638,14.5271316 C13.5209477,14.5271316 13.7787374,14.480106 13.6502624,14.4305613 C13.5209477,14.3348308 13.2597991,14.480106 13.1279652,14.3348308 C13.1279652,14.4305613 13.0003299,14.3348308 13.0003299,14.4305613 C13.0003299,14.4733881 13.0003299,14.5145354 13.0263608,14.5246123 C13.0104064,14.5338495 13.0003299,14.5489648 13.0003299,14.5749968 M13.3462888,17.4183615 C13.3462888,17.3217913 13.1279652,17.273926 13.0003299,17.3217913 C13.0406358,17.371336 13.0851402,17.4662268 13.174149,17.4662268 C13.2597991,17.4662268 13.3891138,17.5166113 13.3462888,17.4183615 M13.174149,18.5746856 L13.2597991,18.5746856 L13.2136152,18.5268203 L13.174149,18.5746856 Z M13.3891138,15.1057135 C13.4319388,15.1552582 13.5209477,15.1552582 13.5637727,15.1552582 C13.5637727,15.1082327 13.7191183,15.0620469 13.6233918,15.0167009 C13.662858,14.9990663 13.691408,14.9637971 13.691408,14.9125729 C13.691408,14.8185219 13.5637727,14.7681374 13.4747638,14.7681374 C13.3891138,14.7681374 13.3462888,14.9604382 13.4747638,15.0099829 C13.4923977,15.0192201 13.5100315,15.0250983 13.528505,15.0284572 C13.4764432,15.0460918 13.4159844,15.0763225 13.3891138,15.1057135 M13.3017844,15.7330004 L13.2136152,15.7330004 C13.2136152,15.7808656 13.0406358,15.8278911 13.174149,15.8757564 C13.0851402,15.9731664 13.0851402,16.1184417 13.174149,16.1654672 C13.2597991,16.1654672 13.3462888,16.2133325 13.4319388,16.1184417 C13.4747638,16.0680572 13.605758,16.0201919 13.605758,15.9731664 C13.5209477,15.8278911 13.3017844,16.0201919 13.174149,15.8757564 C13.2597991,15.8757564 13.3891138,15.9261409 13.4747638,15.8278911 C13.4747638,15.7808656 13.4747638,15.7330004 13.4319388,15.7330004 L13.3017844,15.7330004 Z M13.3462888,14.8655474 C13.3462888,14.8185219 13.3462888,14.7681374 13.3017844,14.7681374 C13.2136152,14.7681374 13.0851402,14.7202721 13.0406358,14.8185219 C13.0406358,14.9125729 13.174149,14.9125729 13.2597991,14.9125729 C13.3017844,14.9125729 13.3017844,14.8655474 13.3462888,14.8655474 M13.7350727,15.7808656 C13.6502624,15.7330004 13.5637727,15.6851351 13.4747638,15.7808656 C13.5637727,15.8757564 13.6502624,15.8757564 13.7350727,15.7808656 M13.6502624,15.3954243 C13.605758,15.4903151 13.4319388,15.5373406 13.4747638,15.6851351 C13.5209477,15.7330004 13.5637727,15.6851351 13.5637727,15.6355903 C13.5637727,15.6851351 13.605758,15.6851351 13.6502624,15.6851351 C13.7350727,15.6355903 13.7787374,15.5373406 13.7350727,15.4432895 C13.7350727,15.4432895 13.691408,15.3954243 13.6502624,15.3954243 M13.174149,16.4534986 C13.1279652,16.4534986 13.1279652,16.5030433 13.1279652,16.5500688 C13.2597991,16.7432094 13.5209477,16.6483186 13.691408,16.6483186 C13.7350727,16.6483186 13.7350727,16.5987738 13.7787374,16.5987738 C13.605758,16.4056333 13.3891138,16.4534986 13.174149,16.4534986 M13.4747638,18.381545 C13.3891138,18.4294103 13.3017844,18.6217111 13.4319388,18.7191211 C13.4747638,18.7191211 13.534383,18.7140827 13.6502624,18.6720956 C13.7787374,18.6217111 13.8669066,18.6720956 13.9097316,18.5268203 C13.9517169,18.4294103 13.8669066,18.4294103 13.8207227,18.381545 C13.691408,18.3345195 13.5637727,18.3345195 13.4747638,18.381545 M13.5209477,16.8406194 C13.5209477,16.7910746 13.691408,16.7432094 13.5637727,16.6961839 C13.4319388,16.6961839 13.3017844,16.7432094 13.2136152,16.7910746 C13.3017844,16.8884847 13.4319388,16.8406194 13.5209477,16.8406194 M13.0406358,15.2022837 L13.1279652,15.2022837 C13.1279652,15.1552582 13.308502,15.0578482 13.174149,15.0578482 C13.1279652,15.0578482 13.0406358,15.0099829 13.0003299,15.1057135 C13.0003299,15.1552582 13.0003299,15.2022837 13.0406358,15.2022837 M13.4319388,13.8519794 C13.4319388,13.9502291 13.605758,13.9964149 13.6502624,13.9023639 C13.691408,13.8049539 13.6502624,13.6126531 13.5637727,13.6126531 C13.4747638,13.5647878 13.4319388,13.7570886 13.4319388,13.8519794 M13.691408,8.36006999 C13.605758,8.69764607 13.4965962,9.15446545 13.7350727,9.41982376 C13.7787374,9.46852877 13.8669066,9.41982376 13.8669066,9.37279824 C13.8207227,9.03522215 13.8669066,8.64978081 13.691408,8.36006999 M13.8669066,10.2881165 C13.8207227,10.3368215 13.7787374,10.3368215 13.7787374,10.3830073 C13.8669066,10.6256926 13.691408,10.9137239 13.9517169,11.0581594 C14.0390463,10.8188331 13.9962213,10.5282825 13.8669066,10.2881165 M14.0818713,11.3965753 C14.0390463,11.3495497 13.9962213,11.2983255 13.9517169,11.2513 C13.9097316,11.2513 13.8669066,11.2513 13.8669066,11.2983255 C13.8669066,11.4436008 13.8669066,11.6359016 13.9962213,11.6359016 C14.0088169,11.64094 14.0205728,11.6434593 14.0323287,11.644299 L13.9962213,11.6837668 L14.0390463,11.7341513 L14.0390463,11.644299 C14.1381317,11.6451387 14.1809567,11.5040622 14.0818713,11.3965753 M12.7811666,20.262566 C12.8273504,20.262566 12.8273504,20.2130212 12.8273504,20.165156 L13.174149,20.165156 C13.174149,20.2130212 13.174149,20.262566 13.2136152,20.262566 C13.2597991,20.262566 13.3017844,20.165156 13.3017844,20.165156 C13.4319388,20.262566 13.605758,20.165156 13.691408,20.0702652 C13.4319388,19.8746054 13.1279652,20.0702652 12.8676563,20.0702652 C12.6526916,20.0702652 12.3932224,20.0198807 12.1740591,20.165156 C12.4780327,20.4053221 12.8273504,20.4053221 13.174149,20.4053221 C13.5637727,20.4053221 13.9097316,20.5027321 14.2985155,20.4053221 C13.8207227,20.1172907 13.3017844,20.4053221 12.7811666,20.262566 M14.7746289,6.96106065 C14.4706553,7.10717567 14.7746289,7.54216177 14.7318039,7.87973785 C14.7746289,7.87973785 14.7746289,8.07203865 14.862798,7.92676338 C14.862798,7.87973785 14.862798,7.87973785 14.8174539,7.82935336 C14.8174539,7.78232784 14.8308892,7.76889197 14.862798,7.73446257 C14.905623,7.68659731 14.9912731,7.68659731 14.9912731,7.63705256 C14.9912731,7.49261702 15.0357775,7.44475176 14.9912731,7.34902122 C14.948448,7.20458569 14.8174539,6.91403513 14.7746289,6.96106065" id="path2859" fill="#007B5E" fill-rule="nonzero" transform="translate(14.000000, 14.000000) scale(1, -1) translate(-14.000000, -14.000000) "></path>
    </g>
</svg>