<?xml version="1.0" encoding="UTF-8"?>
<svg width="28px" height="28px" viewBox="0 0 28 28" version="1.1" xmlns="http://www.w3.org/2000/svg" xmlns:xlink="http://www.w3.org/1999/xlink">
    <title>MF</title>
    <g id="MF" stroke="none" stroke-width="1" fill="none" fill-rule="evenodd">
        <path d="M0,9.06279692 C0,9.06279692 0.708316456,8.99387199 0.951396545,9.02087163 C1.23286728,9.05284649 1.8002361,9.28395129 2.08122164,9.31568345 C2.31672064,9.34225838 2.81234202,9.47592178 3.04802296,9.46287701 C3.340835,9.44722328 3.8236595,9.12632192 4.25438674,9.20216361 C6.51591704,9.60060552 9.97174203,13.6733043 12.2662046,13.5742247 C16.406875,13.3957237 16.3102009,9 17.4059414,9 L28,9 C21.7887215,11.8602025 17.5523474,15.0457962 19.7496507,16.907194 C21.761005,18.6117512 27.8109579,16.4865457 27.8109579,16.4865457 C27.8109579,16.4865457 25.2890627,19 20.9370315,19 C12.5182607,19 6.86349488,11.8388455 2.68061299,10.1040123 C2.01699464,9.82928339 0.748829805,9.29960502 0,9.06279692" id="path14" fill="#529FC9" fill-rule="nonzero"></path>
    </g>
</svg>