<?xml version="1.0" encoding="UTF-8"?>
<svg width="28px" height="28px" viewBox="0 0 28 28" version="1.1" xmlns="http://www.w3.org/2000/svg" xmlns:xlink="http://www.w3.org/1999/xlink">
    <title>MH</title>
    <g id="MH" stroke="none" stroke-width="1" fill="none" fill-rule="evenodd">
        <path d="M2.90787792,14.0742642 L2.80944712,13.7037738 C2.80944712,13.7037738 4.05099248,13.7238617 4.5513631,13.7238617 C5.69740167,13.7249847 6.39522156,13.6223117 6.47198032,12.9388018 C6.53994197,12.478479 6.32198165,12.0360107 6.19601287,11.6013547 C6.0747311,11.1795312 5.9645756,10.775005 5.84504967,10.3587612 C5.71908088,9.91964121 5.58315041,9.53241155 5.34351446,9.23613102 C5.0704746,8.89967673 4.72186207,8.67649011 4.3650401,8.59112095 C3.87345942,8.47339001 1.86378542,8.54313592 1.3042395,8.54313592 C1.24154536,8.38857885 1.20404928,8.20891327 1.15366033,8.0420813 C2.7830809,7.96061813 4.35332258,8.06774921 6.02082689,8.01808737 C6.56162477,8.00190543 7.09831972,7.94555112 7.57583579,8.0420813 C8.30353358,8.18771074 8.82968635,8.67816375 9.05584535,9.33210144 C9.27966444,9.97599587 9.48239197,10.7264616 9.68335651,11.4099715 C9.793512,11.7843679 9.86381716,12.1381191 10.0343197,12.4371896 C10.1966164,12.7223108 10.4110615,12.9443815 10.6864377,13.1541772 C11.1914917,13.5375009 12.0141158,13.8600059 12.793962,13.4883998 C13.1783183,13.3053863 13.4015533,13.0012945 13.3962751,12.4371896 C13.3916167,11.9517578 13.225192,11.5522533 13.0951203,11.0997417 C12.706661,9.7483449 12.3639037,8.60004857 11.9912613,7.27710829 C11.8688077,6.84300959 11.7744763,6.37766474 11.6151072,6.01107996 C11.3057466,5.29911396 10.6249153,4.71659618 9.73374904,4.57766236 C8.98670836,4.46160506 8.13713755,4.55366843 7.35025728,4.55366843 L0.175773643,4.55366843 C0.175773643,4.55366843 0.0533201193,4.20828653 -6.03961325e-14,4.0280633 C3.14868563,3.9845419 6.39404981,4.00462738 9.45778158,4.00462738 C10.2921196,4.00462738 11.0649388,3.98286545 11.7908808,4.05205441 C13.8720353,4.25069123 15.7141451,4.8226074 17.2345819,5.62887017 C19.7622064,6.96910769 21.7484453,8.83997198 23.2050199,11.242579 C24.0440449,12.626896 25.4467188,13.6814542 27.7528641,13.6814542 C27.8190735,13.8533078 27.8524703,13.9280757 27.9069585,14.0742642 L2.90787792,14.0742642 L2.90787792,14.0742642 Z" id="path22" fill="#ED1C24" fill-rule="nonzero"></path>
        <path d="M28,14.3248472 C26.2334808,14.2863474 24.9122491,15.0284439 24.7856926,16.5941 C24.7599284,16.9099094 24.788201,17.2050743 24.7605017,17.4779203 C24.6737849,18.3433274 24.4833661,19.0251636 24.1833795,19.6997458 C23.0320376,22.2892721 20.7604608,23.7154367 17.1090646,24 L5.76991775,24 C5.74823853,23.8058272 5.65976942,23.6752626 5.64453305,23.4743945 L12.9695994,23.4743945 C13.7693654,23.4743945 14.6570236,23.5809662 15.3278896,23.4029746 C15.760879,23.2880337 16.2893717,22.906384 16.255975,22.1609398 C16.2389899,21.7787318 16.0567663,21.371974 15.9296222,20.9423393 C15.5786625,19.7533108 15.2775042,18.575442 14.926541,17.3825079 C14.6980385,16.6074913 14.5357382,15.7817 14.0482604,15.2086675 C13.606481,14.6891999 12.8055433,14.1808913 11.8405459,14.4442521 C11.4895863,14.5402225 11.2698701,14.6613011 11.1134322,14.8978797 C10.7349346,15.4692378 11.0829738,16.3480365 11.2640078,16.9763077 C11.3630298,17.3211313 11.4714223,17.6408467 11.564582,17.9560984 C11.6542265,18.2590742 11.8077368,18.622869 11.8153514,18.9833158 C11.8282515,19.5373775 11.4679071,19.8230567 11.1134322,19.9391137 C10.6927479,20.0758158 10.0857407,20.0105339 9.53264117,20.0105339 C7.9178693,20.0105339 6.17595691,20.0300639 4.61567333,19.98654 C4.58227659,19.8197077 4.51782661,19.6818902 4.49028863,19.5089199 C5.89530603,19.5089199 8.15281825,19.6813322 8.15281825,18.5531221 C8.15640159,18.2897613 8.05907445,17.9951548 7.9770446,17.7172871 C7.82763719,17.2084209 7.67120284,16.7045766 7.52589476,16.1878988 C7.45207076,15.9262124 7.40168182,15.656156 7.30031984,15.4234838 C7.03314232,14.8102775 6.75073561,14.3248461 5.71953238,14.3248461 L2.97336349,14.3248461 L2.90774176,14.074319 L27.9068224,14.074319 C27.9454902,14.1859123 27.9665853,14.2405929 28,14.3248461" id="path90" fill="#002B5C" fill-rule="nonzero"></path>
    </g>
</svg>