<?xml version="1.0" encoding="UTF-8"?>
<svg width="28px" height="28px" viewBox="0 0 28 28" version="1.1" xmlns="http://www.w3.org/2000/svg" xmlns:xlink="http://www.w3.org/1999/xlink">
    <title>MI</title>
    <g id="MI" stroke="none" stroke-width="1" fill="none" fill-rule="evenodd">
        <path d="M0.157267552,1 C1.09609108,1.63983539 1.89624288,2.45942387 2.64326376,3.31164609 C4.40242884,5.27876543 5.9713852,7.46950617 8.1316888,9.02415638 C8.51157495,9.27345679 8.88667932,9.58641975 9.35582543,9.63028807 C9.02163188,9.30609053 8.65290323,9.01345679 8.32136622,8.68390947 C6.81776091,7.23358025 5.5086148,5.59921811 4.10064516,4.05847737 C3.79142315,3.70378601 3.43172676,3.39403292 3.14481973,3.0200823 C3.2340797,3.04843621 3.3201518,3.08748971 3.39931689,3.13938272 C4.24834915,3.70806584 4.99271347,4.41958848 5.68288425,5.17123457 C6.40759013,5.97584362 7.14504744,6.76761317 7.88250474,7.56045267 C8.65662239,8.39716049 9.45783681,9.20872428 10.2988994,9.97748971 C9.10026565,10.0973251 7.891537,10.0352675 6.69396584,9.92987654 C5.93950664,9.90098765 5.19833017,9.74477366 4.45821632,9.60674897 C3.64,9.47407407 2.84781784,9.22316872 2.05510436,8.98831276 C2.19058824,9.54415638 2.64166983,9.94485597 3.10975332,10.23 C3.87802657,10.7211111 4.7711575,11.0330041 5.42148008,11.6958436 C5.84971537,12.1243621 5.93419355,12.7690123 6.31301708,13.2323045 C7.30975332,12.7850617 8.36387097,12.4496296 9.45092979,12.3233745 C10.5029222,12.2099588 11.6287666,12.4335802 12.4735484,13.1012346 C13.1366224,13.6206996 13.7316888,14.2257613 14.2571537,14.8859259 C14.788463,15.5412757 15.2411385,16.2544033 15.6975332,16.963251 L16.645542,18.4436461 C17.1212721,19.1828165 17.6046148,19.9169794 18.1181784,20.630535 C18.7812524,21.5613992 19.4740797,22.4708642 20.2025047,23.3509053 C20.2444782,23.3990535 20.2843264,23.4520165 20.2885769,23.5199588 C20.153093,23.4819753 20.0712713,23.3525103 19.9618216,23.2722634 C18.045389,21.5549794 16.6517647,19.3620988 15.2103226,17.25 C14.6551044,16.4405761 14.0855408,15.638642 13.4617837,14.8805761 C13.0186717,14.3530864 12.5808729,13.8122222 12.0437192,13.3783539 C11.8572296,13.22107 11.6176091,13.1488477 11.3811765,13.1140741 C11.6202657,13.6046502 12.0251233,13.9791358 12.3625047,14.3985597 C14.3517268,16.7604938 15.7448197,19.5552263 17.6734725,21.9626337 C18.4204934,22.891358 19.2403036,23.7676543 20.1828463,24.4984362 C21.4771157,25.5154321 22.8521442,26.4901646 24.4306641,27 L0,27 L0,1 L0.157267552,1 Z" id="Combined-Shape" fill="#009484" fill-rule="nonzero"></path>
        <path d="M0.157267552,1 L0.45373814,1 C0.588690702,1.05510288 0.730550285,1.08934156 0.869222011,1.13481481 C0.872409867,1.13588477 0.878254269,1.13748971 0.881442125,1.13855967 C1.00045541,1.17279835 1.11946869,1.20596708 1.23901328,1.24020576 C1.24379507,1.2418107 1.25335863,1.2444856 1.25814042,1.24555556 C1.37609108,1.27765432 1.49351044,1.311893 1.61092979,1.34773663 C1.61571157,1.34880658 1.62474383,1.35201646 1.62952562,1.35308642 C1.89464896,1.42530864 2.15286528,1.52 2.41108159,1.61415638 C2.41426945,1.61522634 2.42064516,1.61736626 2.42383302,1.61843621 C2.45836812,1.63074074 2.52690702,1.65481481 2.56144213,1.66658436 C2.56941176,1.66925926 2.58588235,1.67514403 2.5943833,1.67835391 C2.62466793,1.6890535 2.68629981,1.7099177 2.71711575,1.72061728 C2.7256167,1.72382716 2.7426186,1.72971193 2.75111954,1.73292181 C2.83347249,1.7618107 2.91316888,1.79337449 2.99499051,1.82547325 C2.99870968,1.82707819 3.0056167,1.82975309 3.00933586,1.83135802 C4.32166983,2.3208642 5.57874763,2.95641975 6.76781784,3.69843621 C6.77100569,3.70004115 6.77685009,3.70432099 6.78003795,3.70592593 C6.93571157,3.808107 7.09297913,3.90921811 7.2454649,4.01728395 C7.24918406,4.01995885 7.25662239,4.02477366 7.25981025,4.02691358 C7.29593928,4.05152263 7.36819734,4.10074074 7.40432638,4.12481481 C7.40804554,4.12748971 7.41495256,4.13230453 7.41867173,4.13497942 C8.12796964,4.6555144 8.83939279,5.17979424 9.48174573,5.78432099 C9.78034156,6.07106996 10.0481214,6.38777778 10.3270588,6.69432099 C10.3291841,6.69699588 10.3339658,6.70234568 10.3360911,6.70502058 C10.9327514,7.41707819 11.5108159,8.15106996 12.1908918,8.78609053 C12.8614042,9.36814815 13.6259583,9.88975309 14.5036812,10.0818107 C15.4345351,10.257284 16.408425,10.0138683 17.3270588,10.2899177 C18.0634535,10.6387243 18.6633017,11.2138272 19.2057685,11.8124691 C18.5591651,11.7985597 17.9093738,11.8119342 17.27074,11.9119753 C16.5970398,11.972963 15.9116509,12.1372016 15.3452751,12.5255967 C15.8377989,13.0054733 16.3579507,13.4586008 16.8201898,13.9705761 C17.2308918,14.4295885 17.6543454,14.884856 17.9811006,15.4107407 C17.9832258,15.4139506 17.9874763,15.4203704 17.9896015,15.4241152 C19.9905123,18.7458025 21.5743454,22.3076955 23.6655787,25.5764198 C23.667704,25.5790947 23.6714231,25.5855144 23.6735484,25.5887243 C23.8414421,25.856214 24.0157116,26.1194239 24.1952941,26.3794239 C24.1974194,26.3826337 24.2022011,26.3890535 24.2043264,26.3922634 C24.2287666,26.429177 24.2776471,26.5024691 24.3026186,26.5388477 C24.3047438,26.5420576 24.3089943,26.5484774 24.3111195,26.5522222 C24.396129,26.6747325 24.4811385,26.7983128 24.5650854,26.922428 C24.5672106,26.9251029 24.5719924,26.9309877 24.5741176,26.9336626 L24.6389374,27 L24.4306641,27 C22.8521442,26.4901646 21.4771157,25.5154321 20.1828463,24.4984362 C19.2403036,23.7676543 18.4204934,22.891358 17.6734725,21.9626337 C15.7448197,19.5552263 14.3517268,16.7604938 12.3625047,14.3985597 C12.0251233,13.9791358 11.6202657,13.6046502 11.3811765,13.1140741 C11.6176091,13.1488477 11.8572296,13.22107 12.0437192,13.3783539 C12.5808729,13.8122222 13.0186717,14.3530864 13.4617837,14.8805761 C14.0855408,15.638642 14.6551044,16.4405761 15.2103226,17.25 C16.6517647,19.3620988 18.045389,21.5549794 19.9618216,23.2722634 C20.0712713,23.3525103 20.153093,23.4819753 20.2885769,23.5199588 C20.2843264,23.4520165 20.2444782,23.3990535 20.2025047,23.3509053 C19.4740797,22.4708642 18.7812524,21.5613992 18.1181784,20.630535 C17.2622391,19.4412757 16.4902467,18.1947737 15.6975332,16.963251 C15.2411385,16.2544033 14.788463,15.5412757 14.2571537,14.8859259 C13.7316888,14.2257613 13.1366224,13.6206996 12.4735484,13.1012346 C11.6287666,12.4335802 10.5029222,12.2099588 9.45092979,12.3233745 C8.36387097,12.4496296 7.30975332,12.7850617 6.31301708,13.2323045 C5.93419355,12.7690123 5.84971537,12.1243621 5.42148008,11.6958436 C4.7711575,11.0330041 3.87802657,10.7211111 3.10975332,10.23 C2.64166983,9.94485597 2.19058824,9.54415638 2.05510436,8.98831276 C2.84781784,9.22316872 3.64,9.47407407 4.45821632,9.60674897 C5.19833017,9.74477366 5.93950664,9.90098765 6.69396584,9.92987654 C7.891537,10.0352675 9.10026565,10.0973251 10.2988994,9.97748971 C9.45783681,9.20872428 8.65662239,8.39716049 7.88250474,7.56045267 C7.14504744,6.76761317 6.40759013,5.97584362 5.68288425,5.17123457 C4.99271347,4.41958848 4.24834915,3.70806584 3.39931689,3.13938272 C3.3201518,3.08748971 3.2340797,3.04843621 3.14481973,3.0200823 C3.43172676,3.39403292 3.79142315,3.70378601 4.10064516,4.05847737 C5.5086148,5.59921811 6.81776091,7.23358025 8.32136622,8.68390947 C8.65290323,9.01345679 9.02163188,9.30609053 9.35582543,9.63028807 C8.88667932,9.58641975 8.51157495,9.27345679 8.1316888,9.02415638 C5.9713852,7.46950617 4.40242884,5.27876543 2.64326376,3.31164609 C1.89624288,2.45942387 1.09609108,1.63983539 0.157267552,1 Z" id="path44" fill="#FFFFFF" fill-rule="nonzero"></path>
        <path d="M0.45373814,1 L28,1 L28,27 L24.6389374,27 L24.5741176,26.9336626 C24.5719924,26.9309877 24.5672106,26.9251029 24.5650854,26.922428 C24.4811385,26.7983128 24.396129,26.6747325 24.3111195,26.5522222 C24.3089943,26.5484774 24.3047438,26.5420576 24.3026186,26.5388477 C24.2776471,26.5024691 24.2287666,26.429177 24.2043264,26.3922634 C24.2022011,26.3890535 24.1974194,26.3826337 24.1952941,26.3794239 C24.0157116,26.1194239 23.8414421,25.856214 23.6735484,25.5887243 C23.6714231,25.5855144 23.667704,25.5790947 23.6655787,25.5764198 C21.5743454,22.3076955 19.9905123,18.7458025 17.9896015,15.4241152 C17.9874763,15.4203704 17.9832258,15.4139506 17.9811006,15.4107407 C17.6543454,14.884856 17.2308918,14.4295885 16.8201898,13.9705761 C16.3579507,13.4586008 15.8377989,13.0054733 15.3452751,12.5255967 C15.9116509,12.1372016 16.5970398,11.972963 17.27074,11.9119753 C17.9093738,11.8119342 18.5591651,11.7985597 19.2057685,11.8124691 C18.6633017,11.2138272 18.0634535,10.6387243 17.3270588,10.2899177 C16.408425,10.0138683 15.4345351,10.257284 14.5036812,10.0818107 C13.6259583,9.88975309 12.8614042,9.36814815 12.1908918,8.78609053 C11.5108159,8.15106996 10.9327514,7.41707819 10.3360911,6.70502058 C10.3339658,6.70234568 10.3291841,6.69699588 10.3270588,6.69432099 C10.0481214,6.38777778 9.78034156,6.07106996 9.48174573,5.78432099 C8.83939279,5.17979424 8.12796964,4.6555144 7.41867173,4.13497942 C7.41495256,4.13230453 7.40804554,4.12748971 7.40432638,4.12481481 C7.36819734,4.10074074 7.29593928,4.05152263 7.25981025,4.02691358 C7.25662239,4.02477366 7.24918406,4.01995885 7.2454649,4.01728395 C7.09297913,3.90921811 6.93571157,3.808107 6.78003795,3.70592593 C6.77685009,3.70432099 6.77100569,3.70004115 6.76781784,3.69843621 C5.57874763,2.95641975 4.32166983,2.3208642 3.00933586,1.83135802 C3.0056167,1.82975309 2.99870968,1.82707819 2.99499051,1.82547325 C2.91316888,1.79337449 2.83347249,1.7618107 2.75111954,1.73292181 C2.7426186,1.72971193 2.7256167,1.72382716 2.71711575,1.72061728 C2.68629981,1.7099177 2.62466793,1.6890535 2.5943833,1.67835391 C2.58588235,1.67514403 2.56941176,1.66925926 2.56144213,1.66658436 C2.52690702,1.65481481 2.45836812,1.63074074 2.42383302,1.61843621 C2.42064516,1.61736626 2.41426945,1.61522634 2.41108159,1.61415638 C2.15286528,1.52 1.89464896,1.42530864 1.62952562,1.35308642 C1.62474383,1.35201646 1.61571157,1.34880658 1.61092979,1.34773663 C1.49351044,1.311893 1.37609108,1.27765432 1.25814042,1.24555556 C1.25335863,1.2444856 1.24379507,1.2418107 1.23901328,1.24020576 C1.11946869,1.20596708 1.00045541,1.17279835 0.881442125,1.13855967 C0.878254269,1.13748971 0.872409867,1.13588477 0.869222011,1.13481481 C0.730550285,1.08934156 0.588690702,1.05510288 0.45373814,1 Z" id="path61" fill="#00246A" fill-rule="nonzero"></path>
    </g>
</svg>