<?xml version="1.0" encoding="UTF-8"?>
<svg width="28px" height="28px" viewBox="0 0 28 28" version="1.1" xmlns="http://www.w3.org/2000/svg" xmlns:xlink="http://www.w3.org/1999/xlink">
    <title>MK</title>
    <g id="MK" stroke="none" stroke-width="1" fill="none" fill-rule="evenodd">
        <path d="M12.5612163,12.1624949 C13.5396106,12.5115519 14.3921046,13.1201384 15.3971726,13.4068279 C17.2152574,13.9570706 19.1517738,13.881626 21.0360096,13.8333414 C22.5777541,13.8192584 24.1653774,14.5063073 25.0018672,15.7556699 C24.3947719,15.4709923 23.758869,15.1772613 23.0621499,15.1913443 C21.7636703,15.1782672 20.6284342,15.852239 19.3961056,16.1268574 C18.5254735,16.3531912 17.6142971,16.3411201 16.7201921,16.3109422 C15.9829288,16.2868 15.2680715,16.0896381 14.5308082,16.0604662 C13.3870365,15.9870334 12.2528674,16.1801716 11.1144305,16.2606458 C7.41957855,16.5463294 3.68631635,16.6348511 -2.7000624e-13,16.1952605 C4.34462523,16.1550234 8.74793278,16.1530115 13.0029341,15.2134747 C13.6644439,15.0575559 14.3216858,14.8754829 14.9426514,14.608912 C13.5588157,14.2970743 12.2998133,13.6512684 11.1133636,12.9290121 C9.76580421,12.0930859 8.11629768,11.7158628 6.51160309,11.8758054 C8.47799413,11.2712426 10.6609763,11.4171022 12.5612163,12.1624949 Z M28,12.9189528 C27.5316084,12.8113185 27.0728194,12.6543937 26.5884236,12.6211981 C25.1757802,12.5004867 23.7652707,12.9048698 22.535076,13.5396104 C22.296079,13.6985471 22.0058682,13.5748179 21.7444652,13.5546993 C20.8226194,13.4108516 19.8879701,13.5225096 18.9607895,13.5245215 C20.3040811,12.8596031 21.7540678,12.3656924 23.2477994,12.1061629 C24.8599627,11.880835 26.6182982,12.049831 28,12.9189528 Z" id="Combined-Shape" fill="#C1012F" fill-rule="nonzero"></path>
    </g>
</svg>