<?xml version="1.0" encoding="UTF-8"?>
<svg width="28px" height="28px" viewBox="0 0 28 28" version="1.1" xmlns="http://www.w3.org/2000/svg" xmlns:xlink="http://www.w3.org/1999/xlink">
    <title>ML</title>
    <g id="ML" stroke="none" stroke-width="1" fill="none" fill-rule="evenodd">
        <path d="M20.5829149,6.11827097 C21.3168225,5.95918796 22.2387201,5.9607459 22.8596254,6.12199271 C25.108843,6.70620471 26.0829483,9.35263023 25.7385714,13.9411756 L25.7277321,14.0808168 L25.6721856,14.7735809 L25.5516325,15.8446648 L25.3226878,17.1170883 C25.1133622,18.2624988 24.9967527,18.8129506 24.7818993,19.7041293 L24.6183105,20.3756899 C24.2752781,21.7677797 24.2034484,21.9103685 24.0022854,21.9134478 L23.7951493,21.9134478 L23.9092799,21.311477 C24.0487536,20.5758695 24.3498327,18.4250465 24.4126697,17.7156644 L24.4374447,17.4255746 C24.4594849,17.1606517 24.4859046,16.8291949 24.5068426,16.5539577 L24.5679394,15.7416676 L24.5494528,14.20701 C24.5494528,13.9333318 24.5090081,13.3167337 24.4597106,12.8368016 C24.2297135,10.6022825 23.4921607,9.07229871 22.3615299,8.48452249 C21.8312348,8.20876707 20.5043687,8.17094374 19.6276894,8.40662548 C17.4246126,8.99872065 15.310428,10.4650722 12.5476774,13.320319 L12.4185113,13.4544309 C12.0217133,13.8694964 10.9511947,15.1287763 10.7234183,15.3717434 C9.97579859,16.1688869 7.32988626,19.8689076 6.43078078,21.3709345 L6.37226858,21.469013 C6.15575702,21.8283132 6.06443206,21.9097284 5.88363626,21.9134478 L5.6320646,21.9134478 L6.07912681,21.1561157 L6.21337503,20.9296937 C7.22649317,19.2281753 8.37589766,17.4581261 9.35887033,16.0870281 L9.50451796,15.8856223 C9.86239779,15.396092 10.6718383,14.3182422 10.7900045,14.1541042 L10.8195609,14.1132813 C10.907659,13.9950063 11.1640205,13.6718686 11.4488019,13.3198421 L11.5783999,13.1600742 C14.8548598,9.13262561 17.991065,6.67999496 20.5829149,6.11827097 Z" id="Path" fill="#03ADA8"></path>
        <path d="M25.1135966,14.7728885 C25.4626666,14.7994358 25.7879027,14.8489148 26.0893048,14.9213256 C26.9967951,15.242694 27.6213456,16.1020711 27.9000326,17.4127316 C28.0615704,18.1720594 28.0214803,20.0143894 27.8220184,21.1193429 L27.8129809,21.1683196 C27.6775864,21.8861838 27.5904479,22.05297 27.3909146,21.9766309 L27.379733,21.9718838 C27.2955258,21.9322044 27.2907494,21.8302649 27.3618328,21.4089952 L27.3816279,21.2943396 C27.443163,20.9445821 27.4949774,20.2069839 27.4968868,19.6553 C27.5032439,17.8128158 27.0222139,16.627831 26.0569952,16.1074797 L26.0269886,16.0915983 C25.6991098,15.9448769 25.3946457,15.8515158 25.1135966,15.8115153 C24.8325474,15.7715147 24.4488139,15.7669275 23.9623962,15.7977535 C23.0852829,15.8791126 21.9493578,16.2333709 20.9973435,16.7226506 C19.110413,17.6923819 17.5433085,19.1909473 15.93628,21.5624785 C15.7948969,21.7710693 15.6299065,21.9134478 15.5296625,21.9134478 L15.5096709,21.9130715 C15.3804814,21.9074142 15.3666836,21.8269182 15.3998097,20.9604842 L15.4169372,20.5234978 C15.4477484,19.6637677 15.4232805,19.2610161 15.3145068,18.7262483 C14.8765577,16.571617 13.6431659,15.3894866 11.6067806,15.1725001 L11.404127,15.1514629 C11.0136435,15.113397 9.50052833,15.2441654 9.01996467,15.3647327 C6.97712672,15.8772906 4.9007873,17.1900577 2.74423678,19.3326612 L2.60657618,19.4705048 C2.04563124,20.0369049 1.36744403,20.7790334 1.03352869,21.1918022 L0.900187965,21.3587422 C0.507870657,21.8459234 0.332675052,22 0.183217315,22 C0.0676112463,22 -0.0139726159,21.9639943 0.00199699117,21.9199392 C0.0790677035,21.7065014 1.6851415,19.8813744 2.58907334,18.9798464 C5.18078173,16.3953638 7.66658521,14.8575118 9.91654225,14.4461569 L10.0855276,14.4159539 C10.5056391,14.3378243 11.843406,14.3802683 12.0173889,14.3832316 L12.0376129,14.3834034 C12.5644363,14.3834034 13.6563582,14.6968956 14.2907161,15.0303814 C15.3823608,15.6041641 16.139293,16.4433705 16.5546518,17.5403345 L16.5748039,17.5944913 C16.6752215,17.8692081 16.8067971,18.1128526 16.8672039,18.1359621 L16.8800577,18.1403315 C17.0327838,18.1858363 17.2855525,18.0377983 17.9813805,17.4852692 L18.1702891,17.3341422 C19.9713831,15.8839595 22.1157368,14.930327 23.959966,14.7593863 C24.379983,14.7418405 24.7645265,14.7463412 25.1135966,14.7728885 Z" id="Path" fill="#01539C"></path>
    </g>
</svg>