<?xml version="1.0" encoding="UTF-8"?>
<svg width="28px" height="28px" viewBox="0 0 28 28" version="1.1" xmlns="http://www.w3.org/2000/svg" xmlns:xlink="http://www.w3.org/1999/xlink">
    <title>MO</title>
    <g id="MO" stroke="none" stroke-width="1" fill="none" fill-rule="evenodd">
        <path d="M10.0628626,7.66348613 L10.0629618,8.57447817 C9.38303884,8.07643159 8.0738018,7.74381953 6.809275,7.80554347 C4.35526722,7.92535148 0.648133259,9.99361613 0.646844493,14.4255386 C0.645605296,18.6841316 4.00918411,21.1643676 7.29816324,21.2958642 C8.4944846,21.3436439 10.7538888,20.7326076 12.2720545,18.5535065 L15.3753027,12.9793836 C16.9290582,9.78742536 17.5788935,9.65449332 19.0456077,12.7202866 L24.1076804,21.7423375 L23.3121155,21.7423375 L18.5093822,13.0869391 C17.2776197,10.5121177 17.2228472,10.6498687 15.9090995,13.3488557 L12.7138533,19.0537575 C11.5009267,21.2747427 8.70078621,22.0123028 7.27218966,21.9998452 C4.45990506,21.9753402 -0.0443799255,19.8485301 0.000330323792,14.570313 C0.048163351,8.92974968 4.46287914,7.10392068 6.93820112,7.04563154 C8.04143395,7.01963982 9.33089341,7.3383076 10.0628626,7.66348613 Z M21.1655279,9.53166063 L28,21.7423375 L27.1578413,21.7423375 L20.5681355,9.89831313 C19.0872943,7.21947364 15.7566782,6.86553503 14.2091682,9.61681301 L10.1353805,17.0009751 C9.87118356,17.4706717 9.40435304,17.903457 8.85058042,18.2043356 C8.33195144,18.4860408 7.72935443,18.657217 7.13800934,18.6397354 C7.07322409,18.6377873 7.01988902,18.6352753 6.97929291,18.6323532 C6.03413212,18.5628881 5.0890209,18.1222591 4.38897339,17.3888003 C3.68719101,16.6534447 3.23067062,15.6255155 3.26512031,14.3840133 C3.2673013,14.3063457 3.2702258,14.2405205 3.27384426,14.1872554 C3.34730389,13.1178523 3.82290793,12.2011185 4.5027813,11.5411747 C5.22890152,10.8364247 6.19180762,10.4237869 7.14916212,10.4305027 C7.73986283,10.4346039 8.29779915,10.569279 8.81955091,10.8530348 C9.25718593,11.0910104 9.63920577,11.3176049 10.0604338,11.7736648 L10.0645975,13.2791856 C9.60792842,12.4726731 9.25094038,11.920695 8.48744595,11.5054425 C8.06909285,11.2779252 7.62109813,11.1699083 7.14638632,11.1666273 C6.37134257,11.1611419 5.5870792,11.4998033 4.99122342,12.078132 C4.43472457,12.618319 4.04546782,13.3672088 3.98558979,14.2392389 C3.98093041,14.3074223 3.97795633,14.3623792 3.97686584,14.4041608 C3.948513,15.425938 4.32225499,16.269977 4.89694527,16.872093 C5.47346956,17.4761571 6.25158652,17.8390672 7.02955477,17.8962285 C7.084476,17.9002785 7.12690613,17.902688 7.15753909,17.9036108 C7.62065202,17.91735 8.10027106,17.7790863 8.51842589,17.5519279 C8.95784536,17.3132346 9.32137637,16.9820068 9.51850792,16.631503 L13.5478828,9.29332625 C15.3696024,6.05451117 19.405669,6.34816127 21.1655279,9.53166063 Z M20.4467932,11.6236613 L26.0204562,21.7423375 L25.2471473,21.7423375 L19.9105677,11.9902625 C18.6788053,9.41544122 16.5778696,8.33404189 15.2640724,11.0330801 L11.1347686,18.3942238 C10.5001507,19.6490551 8.50068058,20.2946445 7.07198489,20.2821357 C4.25965073,20.2575281 1.5632559,18.0210606 1.62139905,14.534632 C1.67974047,11.0377453 4.38252957,8.81517077 6.85770284,8.74596204 C7.78853851,8.71991905 9.42289143,9.06247666 10.0628626,9.64921295 L10.0629618,10.560205 C9.40598878,9.89569858 8.07350439,9.42323361 6.809275,9.49398032 C4.66660322,9.61383959 2.50236941,11.3827636 2.26791322,14.3899089 C2.11157605,16.3942964 3.80892978,19.4235885 7.09795847,19.5551876 C8.29437897,19.6030185 10.1534232,19.0379676 10.6929698,17.8939728 L14.7303252,10.6635567 C16.2840311,7.4715985 18.9801285,8.55786807 20.4467932,11.6236613 Z M17.2921431,14.6744849 C17.5514328,15.1605866 17.8235111,15.8015108 17.9499588,15.907272 C18.0764561,16.0130332 18.4404332,15.8437025 18.5668809,15.8395499 C18.4703226,16.3377503 18.368411,16.8183665 18.1890744,17.2887296 C18.1243387,17.4585217 18.2205995,17.6923447 18.4857878,17.4881533 C18.7452758,17.258124 19.0340584,16.9066974 19.2935464,16.6766681 C19.3229897,17.0280947 19.3200652,17.2052178 19.4397221,17.2760157 C19.5799497,17.3590149 19.909378,17.3128245 20.3533577,17.2818088 C20.0975378,17.665379 19.9639523,18.015729 20.0022187,18.1263091 C20.0405347,18.2368893 20.3081023,18.2921538 20.5906393,18.3866365 C19.763004,19.0457088 18.899779,19.5392439 18.8383148,19.7840891 C18.7768506,20.0289855 18.8610169,20.1434106 18.9374506,20.3407836 C18.5343644,20.2842375 18.0235176,20.1662238 17.6240994,20.0984505 C17.5327953,20.082917 17.4249356,20.1242885 17.432916,20.3400147 L17.432916,20.3400147 L17.4849127,21.7423375 L17.113897,21.7423375 L17.1657946,20.3405273 C17.1736263,20.1268518 17.0995718,20.0881461 16.9066536,20.1254163 C16.4992054,20.2041605 16.0834794,20.2562977 15.6608634,20.3103831 C15.7044336,20.1710428 15.8103602,19.9489597 15.7681779,19.7665049 C15.7259461,19.5839989 14.5929229,18.8823249 14.0375641,18.3622853 C14.2658243,18.3128139 14.5794405,18.2174596 14.6016469,18.0773504 C14.6238533,17.9372411 14.4579495,17.5772019 14.2817852,17.2740676 C14.5642727,17.293241 15.100647,17.3305625 15.1996341,17.2709404 C15.2986212,17.2113184 15.3125993,16.8791677 15.3125993,16.6681067 C15.6001923,16.941148 15.892296,17.2128563 16.142713,17.5040457 C16.2875504,17.6724536 16.4831454,17.6184195 16.3951128,17.3041093 C16.2592967,16.819033 16.1061815,16.3002238 16.0168105,15.8248367 C16.1760227,15.828169 16.506938,16.0528154 16.6500405,15.9116808 C16.7931431,15.7705463 17.0946646,15.1296221 17.2921431,14.6744849 Z" id="Combined-Shape" fill="#CC9933"></path>
    </g>
</svg>