<?xml version="1.0" encoding="UTF-8"?>
<svg width="28px" height="28px" viewBox="0 0 28 28" version="1.1" xmlns="http://www.w3.org/2000/svg" xmlns:xlink="http://www.w3.org/1999/xlink">
    <title>MP</title>
    <g id="MP" stroke="none" stroke-width="1" fill="none" fill-rule="evenodd">
        <path d="M14.3394217,4 L5.00532394,15.5562789 L11.8258662,24 L6.81767549,24 L-4.59188243e-13,15.5516289 L8.3123925,5.26594786 C8.93734131,4.49347554 9.90171185,4.00058124 10.9641248,4.00058124 L10.9641248,4.00058124 L14.3394217,4 Z M21.1691375,4 L11.8350397,15.5562789 L6.82971578,15.5516289 L15.1421083,5.26536662 C15.7670571,4.49347554 16.7314276,4.00058124 17.7938406,4.00058124 L17.7938406,4.00058124 L21.1691375,4 Z M28,4 L18.6647555,15.5562789 L13.6588582,15.5516289 L21.9712507,5.26536662 C22.5973462,4.49347554 23.5628635,4.00058124 24.6241297,4.00058124 L24.6241297,4.00058124 L28,4 Z" id="Combined-Shape" fill="#E31E29" fill-rule="nonzero"></path>
    </g>
</svg>