<?xml version="1.0" encoding="UTF-8"?>
<svg width="28px" height="28px" viewBox="0 0 28 28" version="1.1" xmlns="http://www.w3.org/2000/svg" xmlns:xlink="http://www.w3.org/1999/xlink">
    <title>MS</title>
    <g id="MS" stroke="none" stroke-width="1" fill="none" fill-rule="evenodd">
        <path d="M27.189691,5.60167533 C21.7505004,7.64297325 13.284333,14.154675 14.205502,28 C12.9330398,27.8263546 11.7035134,27.5137929 10.5383907,27.0700325 C10.5813266,21.1603014 12.5192944,14.1430987 16.0380818,9.84055201 C16.2332447,10.5949447 16.6040543,11.3686314 17.2032044,12.1442474 C19.9881793,8.90479635 23.2005609,6.61460672 27.189691,5.60167533 Z M16.5533119,6.57216007 C16.079066,7.26288281 15.8604835,8.07129852 15.8995161,8.93180785 C12.1387267,12.701842 8.40330842,18.5556207 8.23741994,25.9413375 C7.06253917,25.256403 6.00085289,24.417117 5.04845785,23.4678556 C6.06720828,16.9387893 10.1012258,10.1145258 16.5533119,6.57216007 Z M17.7184345,5.0788098 C13.9127576,6.49691374 5.9813366,12.2677285 3.42470236,21.5442506 C2.60111485,20.4020499 1.91999626,19.1440856 1.43208897,17.8050868 C4.38295229,11.6290994 10.0719514,6.24995142 17.7184345,5.0788098 Z M20.8176217,3.76875188 C16.5533119,3.77839884 6.33067822,6.66670033 0.7724383,15.4068511 C0.464080889,13.7687964 0.411386901,12.078648 0.645582403,10.4212993 C5.60467216,5.43767692 13.026718,2.15770862 20.8176217,3.76875188 Z M27.5,4.43246311 C23.2513033,2.29083675 10.6867146,0.0122234813 1.17837717,7.97868765 C1.87901205,5.70972135 3.09878029,3.65298829 4.68350319,1.94547538 C11.6918036,-0.977555186 20.7278467,-0.956331862 27.5,4.43246311 Z M23.731404,4.73923661 C24.1100201,4.77396569 23.8192274,5.78303829 23.5752737,5.70200378 C23.0815115,5.50520568 22.6677661,5.37786573 22.242311,5.31419576 C22.3398924,5.96054245 22.174004,6.55286614 21.7251292,6.87893358 C21.0088813,7.39601093 19.8886462,7.07573167 19.1216559,6.17663448 C18.6083774,6.49112556 18.0892441,6.88665115 17.4608195,7.35356428 C17.4061739,7.4056579 19.6642088,4.16041868 23.731404,4.73923661 Z M21.7231776,5.26789033 C20.9483808,5.25824336 20.2282297,5.50327629 19.379271,6.02228303 C20.0096472,6.70914698 20.905445,6.97733262 21.442143,6.54707796 C21.7446455,6.30976261 21.8812596,5.76181496 21.7231776,5.26789033 Z" id="Combined-Shape" fill="#00265D"></path>
    </g>
</svg>