<?xml version="1.0" encoding="UTF-8"?>
<svg width="28px" height="28px" viewBox="0 0 28 28" version="1.1" xmlns="http://www.w3.org/2000/svg" xmlns:xlink="http://www.w3.org/1999/xlink">
    <title>MU</title>
    <g id="MU" stroke="none" stroke-width="1" fill="none" fill-rule="evenodd">
        <path d="M27.390706,10.8427947 C18.1760174,11.0932225 9.25814026,13.1429648 8.42951702,16.049597 C8.35362503,16.313214 8.33469934,16.5739 8.33469934,16.8394648 C8.33469934,19.7020773 14.4314193,20.6812315 21.0315247,21.4877203 C21.1447003,21.5007055 21.1397796,21.4124065 21.1028745,21.3487793 C21.0769463,21.3037023 20.9781542,21.1325951 20.9103246,21.0147271 C20.8838286,20.9687226 20.8554401,20.9384858 20.7630828,20.9125155 C17.1507374,20.0116246 13.4835075,18.6954873 13.4835075,17.4683725 C13.4835075,15.147185 19.6281284,12.847998 26.6253324,11.7969432 C26.8563204,11.7533502 26.9665625,11.7108702 27.1217153,11.5900713 C27.3157792,11.4385161 27.7428184,11.0965801 27.9234073,10.955246 C28.041125,10.8593415 27.9992993,10.8291046 27.9548239,10.8300115 C27.7672704,10.8337422 27.5796601,10.8374522 27.3905925,10.8430173 L27.390706,10.8427947 Z" id="Fill-1" fill="#1B1D80"></path>
        <path d="M17.1971713,24.8557202 C12.4104793,23.6799607 7.66668988,19.7423415 8.41400234,16.0942601 C9.50603665,10.7715529 16.8090476,5.61562404 25.9229698,3.1926993 C26.1285058,3.13303099 26.2043347,3 25.9409314,3 L13.5020144,3 C11.3483768,3 10.8814314,3.27290916 10.0473148,4.37921834 C9.60281807,4.96758704 5.88022347,9.99879944 4.20151366,12.2666843 C3.98550134,12.536659 3.6801907,12.8271753 3.00072483,12.8271753 L-3.37507799e-14,12.8271753 C-3.37507799e-14,12.8281569 -3.37507799e-14,12.8286477 0.00249436696,12.8301202 C3.55846551,22.6778269 7.37834107,25 11.2047014,25 L17.2460613,25 C17.3313682,25 17.4166756,24.9100085 17.1971738,24.8557202" id="Fill-3" fill="#DF0011"></path>
    </g>
</svg>