<?xml version="1.0" encoding="UTF-8"?>
<svg width="28px" height="28px" viewBox="0 0 28 28" version="1.1" xmlns="http://www.w3.org/2000/svg" xmlns:xlink="http://www.w3.org/1999/xlink">
    <title>MZ</title>
    <g id="MZ" stroke="none" stroke-width="1" fill="none" fill-rule="evenodd">
        <path d="M1.09406815,16.3567299 C1.42062921,16.5379404 1.74767794,16.7196476 2.05761536,16.8799477 C2.36804046,17.0402522 2.66184618,17.1791452 2.99622712,17.3245161 C3.33060806,17.4698827 3.70556424,17.6212219 4.07220859,17.7506573 C4.43836951,17.8800928 4.79621437,17.9876246 5.17654778,18.0881906 C5.5563935,18.1882513 5.95921546,18.2813462 6.37718952,18.3390981 C6.79516782,18.3968457 7.22780629,18.419246 7.64627228,18.419246 C8.06473826,18.419246 8.46902751,18.3973424 8.88504659,18.3555259 C9.300578,18.3132085 9.72833116,18.2509782 10.1399526,18.1693361 C10.5520618,18.0876897 10.9480392,17.9861347 11.2819324,17.8756145 C11.6158257,17.7650942 11.8881182,17.646114 12.1208194,17.5375846 C12.3535163,17.4295562 12.5466133,17.3319829 12.7133161,17.2423731 C12.8795312,17.1527632 13.0193436,17.0706202 13.1586683,16.9889737 C12.9582348,17.226442 12.7578013,17.4639059 12.5309736,17.7043582 C12.3036496,17.9443139 12.0499315,18.1872581 11.7957256,18.4097884 C11.5410279,18.6323188 11.2858424,18.8339431 11.0394564,19.0176411 C10.7925828,19.2013434 10.5540167,19.3666228 10.2787896,19.5333964 C10.0030706,19.6996734 9.6897109,19.8669437 9.34457549,20.0222688 C8.99992776,20.177093 8.62252893,20.3199721 8.27690583,20.4354673 C7.93127849,20.5509669 7.61743112,20.6390825 7.30260415,20.7137588 C6.98826486,20.7879341 6.67295021,20.8481692 6.33612661,20.898951 C5.99929877,20.9497285 5.64145391,20.9910483 5.27187497,20.9985151 C4.90229603,21.0064828 4.52147494,20.9810941 4.2022461,20.9532135 C3.8830215,20.9253373 3.62490146,20.8949693 3.34331751,20.8581278 C3.06124587,20.8212863 2.75570608,20.7774789 2.46336766,20.7242097 C2.17152116,20.6704438 1.89335523,20.6072203 1.62790722,20.5395141 C1.36245498,20.4723089 1.10971218,20.4011176 0.840349987,20.3174803 C0.571475479,20.234344 0.285981581,20.1387616 -1.44773082e-13,20.0436759 C0.364689385,18.8145269 0.729378769,17.5853779 1.09406815,16.3567299 Z M19.9626356,14.8672115 C20.3063037,14.8657216 20.6470415,14.882646 20.9662661,14.9095289 C21.285495,14.9369085 21.5827229,14.9742467 21.8999926,15.0260217 C22.2167745,15.0773001 22.5535981,15.1430111 22.8645151,15.2151999 C23.1754322,15.2868878 23.4604384,15.3650449 23.726866,15.4456937 C23.9937855,15.5268435 24.2416345,15.6104765 24.4728684,15.6926196 C24.7045857,15.7752593 24.9187082,15.8569057 25.1078996,15.936557 C25.296599,16.0167092 25.4603672,16.0948662 25.6236477,16.1735242 C25.2545565,17.3668293 24.8849775,18.5596377 24.5153986,19.7529384 C24.4049151,19.6558618 24.2949234,19.5592818 24.1492419,19.4567293 C24.0035604,19.3536801 23.8226809,19.2456474 23.584119,19.1152186 C23.3450653,18.9852822 23.048325,18.8339431 22.7647861,18.6980341 C22.4812471,18.5621251 22.2104177,18.4421473 21.9332356,18.3261511 C21.6565412,18.2101593 21.3734899,18.0981449 21.0987505,17.9955923 C20.8240111,17.8935364 20.5570916,17.8009382 20.2911516,17.7163076 C20.0252117,17.6321737 19.7597595,17.5555066 19.4635111,17.4853129 C19.1677462,17.4156159 18.841677,17.3518957 18.4579214,17.3165484 C18.0741657,17.2812011 17.6327235,17.274231 17.2147494,17.2752286 C16.7962834,17.2762262 16.4012856,17.2856838 16.0669047,17.3055966 C15.7330114,17.3255094 15.4597393,17.3563741 15.1747331,17.4106409 C14.8892392,17.4644068 14.5915193,17.5415706 14.2996728,17.6331713 C14.007822,17.7252686 13.7213485,17.8318071 13.4661631,17.9463048 C13.2109776,18.0608067 12.9865883,18.183773 12.8115779,18.2903072 C12.6365675,18.3968457 12.51044,18.4874488 12.3843124,18.5780563 C12.4307568,18.5178169 12.4776846,18.4570808 12.5837705,18.3381006 C12.6898522,18.2191203 12.8550877,18.0413905 13.0061465,17.8751178 C13.1567133,17.7088409 13.2935953,17.5545133 13.4510067,17.4016799 C13.6084223,17.2488423 13.7863673,17.0975031 14.005867,16.9337136 C14.2258545,16.7699284 14.4873926,16.5936972 14.7137369,16.4423537 C14.9400769,16.2910146 15.1307356,16.1655608 15.3301894,16.0500613 C15.5296433,15.9340695 15.737409,15.8285285 15.9300226,15.7374245 C16.1231239,15.6468171 16.3010689,15.5716484 16.4985678,15.4939837 C16.6960667,15.4168199 16.9131196,15.3376653 17.1653747,15.2619957 C17.4176256,15.1863261 17.7050744,15.1146383 18.0047493,15.0558931 C18.3044199,14.9971479 18.6158246,14.9518464 18.9443407,14.9194875 C19.2733401,14.8876253 19.6194552,14.8682091 19.9626356,14.8672115 Z M2.30009137,12.310347 C2.56309672,12.4681597 2.82561439,12.6259723 3.07640221,12.7703456 C3.32767348,12.9152113 3.56721916,13.046141 3.8204454,13.1740865 C4.07416781,13.3010345 4.34157503,13.4249941 4.58746906,13.5360109 C4.83287965,13.6475245 5.05579745,13.7460953 5.29191662,13.8371993 C5.52754811,13.9283034 5.77588904,14.0119363 6.0071229,14.0816334 C6.23835252,14.151827 6.45198738,14.2085813 6.70766052,14.269814 C6.96284597,14.3310467 7.25958203,14.396762 7.5832085,14.4480404 C7.90683497,14.4993145 8.25783954,14.536156 8.55213294,14.5555722 C8.84642634,14.5749841 9.08450048,14.5769793 9.39052795,14.5680183 C9.69655543,14.5595539 10.0705362,14.5406344 10.4195816,14.5102664 C10.7691189,14.4798983 11.0937207,14.4385785 11.4545002,14.3624123 C11.8157673,14.2867427 12.2127243,14.1757258 12.5519948,14.0637114 C12.891753,13.9517013 13.1738246,13.8381926 13.4891393,13.68038 C13.8049416,13.5225673 14.1539912,13.3209473 14.5030366,13.1193231 C14.3671342,13.2776366 14.2312317,13.4359459 14.0899478,13.5937585 C13.9491559,13.7515712 13.802499,13.9093838 13.6709942,14.0408101 C13.5390017,14.1727374 13.4216779,14.2782784 13.2813736,14.4072172 C13.1405816,14.536156 12.9773011,14.6884928 12.8066883,14.8323651 C12.6365675,14.9762375 12.4591103,15.1121465 12.2801857,15.245568 C12.1012612,15.3784885 11.9213613,15.5099148 11.7351045,15.634872 C11.5493397,15.7603257 11.357218,15.8798026 11.1274514,16.0002814 C10.8976891,16.1207559 10.6302819,16.242228 10.348206,16.3582198 C10.0661344,16.474216 9.76890639,16.5847362 9.47950255,16.683307 C9.19009446,16.7813769 8.90802283,16.867506 8.54773107,16.9352078 C8.18744355,17.0034106 7.74893592,17.0536915 7.27034074,17.0785836 C6.79223324,17.1039723 6.27453012,17.1039723 5.90348389,17.0940181 C5.53243766,17.0845604 5.30854025,17.0656409 5.03037856,17.0258153 C4.75270456,16.9859896 4.4212582,16.9252536 4.1333174,16.8650142 C3.84538085,16.8052757 3.60143754,16.7450363 3.35260893,16.6763369 C3.10377608,16.6076375 2.85054559,16.5299727 2.60465156,16.4538065 C2.35875328,16.377636 2.11969953,16.302964 1.88260076,16.2183292 C1.64550622,16.1341952 1.41036242,16.0396104 1.17473093,15.9455179 C1.55017903,14.7337943 1.9251352,13.5220707 2.30009137,12.310347 Z M20.7296593,10.9213946 C21.2082544,10.8965025 21.7259576,10.8965025 22.0965161,10.9059601 C22.4675581,10.915422 22.6919474,10.9348339 22.9701091,10.9746639 C23.2477831,11.0144895 23.5792295,11.0747246 23.8671703,11.134964 C24.1551068,11.1952034 24.3990501,11.2549418 24.6478788,11.3236413 C24.8967116,11.392345 25.1499379,11.4705021 25.3958361,11.5466726 C25.6417344,11.6228388 25.8807882,11.6975151 26.1178827,11.781649 C26.3549815,11.8662796 26.5901253,11.9603721 26.8257568,12.0549569 C26.4503087,13.2666805 26.0753525,14.4779075 25.6999086,15.6896311 C25.437391,15.5318185 25.1748733,15.3740058 24.9235978,15.2296368 C24.67281,15.0852635 24.4332685,14.9538372 24.1795504,14.8263926 C23.9263199,14.698948 23.658425,14.575485 23.4130186,14.4639672 C23.167608,14.3529547 22.944686,14.2538829 22.7085668,14.1627788 C22.4729353,14.0716791 22.2241067,13.9885385 21.9933648,13.9183448 C21.7621352,13.8481512 21.5485003,13.7913968 21.2928272,13.7301642 C21.0376417,13.6689315 20.7409014,13.6032162 20.4172749,13.5519421 C20.0936527,13.5006636 19.7426481,13.4638221 19.4483547,13.4444103 C19.1540613,13.4249941 18.915983,13.4234999 18.6099597,13.4319642 C18.3039323,13.4404242 17.9299514,13.4598404 17.5809061,13.4902084 C17.2313688,13.5200798 16.906767,13.5613997 16.5454998,13.6375659 C16.1847204,13.7137364 15.7877634,13.8242566 15.4480052,13.9362668 C15.1087347,14.0482812 14.8266631,14.1622822 14.5113484,14.3195982 C14.1955418,14.4774109 13.8464965,14.6790308 13.4974511,14.8806551 C13.6333535,14.7228425 13.7692559,14.5645332 13.9100479,14.4062196 C14.0513276,14.248407 14.1974968,14.091091 14.3294893,13.959168 C14.4614817,13.8277417 14.5788098,13.7216998 14.7191141,13.592761 C14.8594184,13.4638221 15.0231866,13.3119864 15.1933074,13.1681097 C15.3639201,13.0242373 15.5413774,12.8883283 15.720302,12.7549112 C15.8992223,12.6214897 16.0791264,12.49056 16.2648913,12.3651062 C16.451148,12.2401534 16.6432697,12.1206722 16.8730363,12.0001977 C17.1027986,11.8797232 17.3697181,11.7582511 17.6522774,11.642255 C17.9343533,11.5262588 18.2315813,11.415242 18.5209851,11.3171721 C18.810389,11.2186013 19.0924649,11.1329731 19.4527524,11.0647703 C19.8130441,10.9965675 20.2515518,10.9462867 20.7296593,10.9213946 Z M3.48508909,8.24703979 C3.59557263,8.34411639 3.70556424,8.441193 3.85124577,8.54374552 C3.99692729,8.64630235 4.17780258,8.75482742 4.41636864,8.88476384 C4.65493471,9.01469595 4.95167076,9.16653603 5.23570161,9.302445 C5.51924054,9.43785302 5.79007002,9.55783088 6.0672521,9.67382703 C6.3439465,9.78982318 6.62699774,9.90232995 6.90173717,10.0043858 C7.17647659,10.1069427 7.44290844,10.19904 7.70933606,10.2836705 C7.97527598,10.3683011 8.24072823,10.4444716 8.53648892,10.5146653 C8.83273728,10.5848589 9.15881065,10.6480824 9.54256632,10.6834297 C9.926322,10.718777 10.3672723,10.7257472 10.7857383,10.7247496 C11.2042043,10.7237563 11.5992021,10.7142944 11.933583,10.6943816 C12.2674763,10.6744688 12.5407484,10.6436041 12.8257546,10.5898382 C13.1112485,10.5355757 13.4084765,10.4589085 13.7008149,10.3668112 C13.9926657,10.2752062 14.2791392,10.168672 14.5343246,10.05417 C14.7895101,9.93917147 15.0138952,9.81670613 15.1889098,9.7101676 C15.3639201,9.60313243 15.4900477,9.51252933 15.6161753,9.42192191 C15.5692432,9.48265794 15.5223111,9.54289734 15.4167171,9.66237425 C15.3106355,9.78135883 15.1454,9.95908429 14.9943412,10.1248646 C14.8432824,10.2911373 14.7068923,10.4459658 14.5494767,10.5987992 C14.3920654,10.7516325 14.2141204,10.902475 13.9946206,11.0662646 C13.7746332,11.2300497 13.5130951,11.4067819 13.2867508,11.5576244 C13.0604065,11.7089636 12.8692644,11.8344173 12.6702982,11.9504135 C12.4708401,12.065913 12.2630744,12.1719506 12.0699774,12.2625537 C11.8773638,12.3531611 11.6994188,12.4288307 11.5019199,12.5059945 C11.304421,12.5836549 11.0873639,12.6623129 10.835113,12.7379825 C10.5828621,12.8136563 10.295409,12.8858408 9.99573838,12.9440851 C9.69606774,13.0028303 9.38466303,13.0481361 9.05565933,13.080495 C8.7271433,13.1128539 8.38103252,13.1317691 8.03785208,13.1333063 C7.69417971,13.1342609 7.35295849,13.1178288 7.03421733,13.0904493 C6.71499272,13.0635663 6.41727707,13.0257315 6.10049512,12.9744531 C5.78322549,12.9226824 5.44688957,12.856967 5.13597255,12.7852792 C4.82505552,12.7135913 4.5400493,12.6354299 4.27313401,12.5542845 C4.00670216,12.4736356 3.75836123,12.3899983 3.52713161,12.3073586 C3.29589775,12.2247189 3.08177945,12.1435734 2.89258811,12.0634212 C2.7038887,11.9837699 2.54012049,11.9051119 2.37635228,11.8264539 C2.74593122,10.6336455 3.11551015,9.44034482 3.48508909,8.24703979 Z M22.7286127,7.00146308 C23.0981917,6.99349536 23.4790127,7.01938504 23.7982373,7.04726126 C24.1174662,7.07514179 24.375582,7.10550981 24.6571659,7.14234701 C24.9392418,7.17918853 25.2447774,7.22249923 25.5366281,7.27626513 C25.8289665,7.3295344 26.1071282,7.39325455 26.3725805,7.46046409 C26.6380327,7.52766931 26.8907755,7.59935717 27.1596458,7.68249783 C27.429008,7.7661308 27.7145061,7.86122087 28,7.95680325 C27.6357983,9.18595222 27.2711089,10.4146002 26.9064153,11.6437492 C26.5798585,11.462042 26.2528097,11.2808272 25.9428723,11.1205271 C25.6324472,10.960227 25.3386415,10.8208329 25.0042606,10.6754663 C24.6698796,10.5305964 24.2949234,10.3792529 23.9282748,10.2498175 C23.5621182,10.1198854 23.2042733,10.0123536 22.8239399,9.91228852 C22.4436065,9.81172685 22.0407845,9.71912858 21.6232982,9.66138098 C21.2053199,9.60363338 20.7726771,9.58122876 20.3537235,9.58073213 C19.9357494,9.58073213 19.5314602,9.60263579 19.1154411,9.64495323 C18.6999097,9.68676971 18.2721565,9.74899997 17.8600431,9.83064208 C17.4484259,9.91278515 17.0524485,10.0143444 16.7185552,10.1243637 C16.384662,10.2348839 16.1123652,10.3538642 15.8796683,10.4623936 C15.6469714,10.5709187 15.4538701,10.6679996 15.2871716,10.7576094 C15.1204688,10.8472192 14.9811441,10.929358 14.8418194,11.0115011 C15.0422486,10.7735362 15.2426821,10.5360723 15.4695141,10.29562 C15.6968338,10.0556643 15.9505562,9.81272012 16.2047621,9.59068638 C16.4594598,9.368156 16.7146453,9.1660394 16.9610312,8.98233708 C17.2079049,8.79863907 17.445979,8.63335535 17.7216981,8.46708268 C17.9974171,8.30080569 18.3107768,8.13303449 18.6554203,7.97821029 C19.0005557,7.82288513 19.3774711,7.68000603 19.7230942,7.56451082 C20.0687173,7.44901562 20.3830566,7.36089568 20.6973958,7.28672033 C21.0122186,7.21254498 21.3275375,7.15180895 21.6643611,7.10102716 C22.000697,7.05024969 22.3590338,7.00942648 22.7286127,7.00146308 Z" id="Combined-Shape" fill="#FCCA15"></path>
    </g>
</svg>