<?xml version="1.0" encoding="UTF-8"?>
<svg width="28px" height="28px" viewBox="0 0 28 28" version="1.1" xmlns="http://www.w3.org/2000/svg" xmlns:xlink="http://www.w3.org/1999/xlink">
    <title>N9</title>
    <g id="N9" stroke="none" stroke-width="1" fill="none" fill-rule="evenodd">
        <rect id="Rectangle" fill="#FFCF01" fill-rule="nonzero" x="0" y="0" width="28" height="28"></rect>
        <path d="M16.5940299,21.1645446 C16.4189055,20.5181195 16.1781095,19.8285994 15.8935323,19.1606268 C15.8935323,19.1606268 15.8935323,19.1606268 15.8935323,19.1606268 L24.3432836,14.3555338 C24.4308458,14.3124388 24.4527363,14.2047013 24.4089552,14.1185113 L22.6358209,11.1018609 C22.5920398,11.0156709 22.4825871,10.9941234 22.3950249,11.0372184 L13.8139303,15.9285015 C13.8139303,15.9285015 13.8139303,15.9285015 13.8139303,15.9285015 C13.3761194,15.4113614 12.8726368,14.9373164 12.3472637,14.4848188 C12.3472637,14.4848188 12.3472637,14.4848188 12.3472637,14.4848188 L17.2945274,6.03819785 C17.3383085,5.95200784 17.3164179,5.84427032 17.2288557,5.80117532 L14.1422886,4.03428012 C14.0547264,3.99118511 13.9452736,4.01273262 13.9014925,4.09892262 L8.95422886,12.4378061 C8.95422886,12.4378061 8.95422886,12.4378061 8.95422886,12.4378061 C8.27562189,12.1576885 7.55323383,11.9853085 6.80895522,11.8129285 C6.80895522,11.8129285 6.80895522,11.8129285 6.80895522,11.8129285 L6.80895522,3.17238002 C6.80895522,3.06464251 6.72139303,3 6.63383085,3 L3.17512438,3 C3.06567164,3 3,3.08619001 3,3.17238002 L3,14.7218413 C3,14.8295788 3.08756219,14.8942214 3.17512438,14.8942214 C11.1651741,14.9804114 12.5442786,21.1860921 12.5442786,21.1860921 L3.17512438,21.1860921 C3.06567164,21.1860921 3,21.2722821 3,21.3584721 L3,24.82762 C3,24.9353575 3.08756219,25 3.17512438,25 L24.8248756,25 C24.9343284,25 25,24.91381 25,24.82762 L25,21.3584721 C25,21.2507346 24.9124378,21.1860921 24.8248756,21.1860921 L16.5940299,21.1860921 L16.5940299,21.1645446 Z" id="Path" fill="#FFFFFF" fill-rule="nonzero"></path>
    </g>
</svg>