<?xml version="1.0" encoding="UTF-8"?>
<svg width="28px" height="28px" viewBox="0 0 28 28" version="1.1" xmlns="http://www.w3.org/2000/svg" xmlns:xlink="http://www.w3.org/1999/xlink">
    <title>NB</title>
    <g id="NB" stroke="none" stroke-width="1" fill="none" fill-rule="evenodd">
        <path d="M24.8699118,8.01925618 C24.8699118,8.01925618 25.6829223,8.21358001 26.5878071,8.60172425 C27.6266539,9.02913599 28.8477095,10.6214839 27.1749814,13.0293877 C26.5421266,13.9229753 25.8635913,14.6604997 25.2307365,15.3209993 C24.2360304,16.3691398 23.3316589,17.3402555 22.8343058,18.8163111 L22.8343058,18.8163111 L22.6982908,19.2044554 L22.3364395,18.9713674 C20.890061,18.0395192 19.4888496,17.6901391 17.9967905,17.3402555 C17.1702422,17.14699 16.3125071,16.953377 15.3976706,16.6482125 C15.1910961,16.8752427 14.9566977,17.0938668 14.695475,17.300988 C13.7916167,18.0390158 12.8872451,18.5051916 12.0280408,19.0101315 C10.717164,19.7476559 9.4961084,20.4076521 8.50140233,21.6898874 L8.50140233,21.6898874 L8.23091208,22 L7.95990857,21.6898874 C6.9652025,20.4076521 5.7441469,19.7476559 4.43275681,19.0101315 C3.57355249,18.5046882 2.66969419,18.0385124 1.76583589,17.300988 C0.590460808,16.3686363 -0.0429072468,15.2037002 0.00226000515,14.0387641 C0.092594509,12.9120886 0.7254493,11.9027122 1.76583589,11.2422126 C2.94172423,10.4654207 4.5246311,10.3103644 5.92532918,10.8153043 C6.9652025,11.1646844 7.77923956,11.8639481 8.23142534,12.7182682 C8.68361113,11.8639481 9.45145441,11.1646844 10.5375215,10.8153043 C11.2644125,10.5535274 12.0403738,10.4693574 12.7828414,10.5574469 C13.6012207,9.63545678 14.853457,9.10345444 16.1880474,9.02963942 C19.3528346,8.87407967 20.3475407,10.8933359 20.3475407,11.5925996 C20.3475407,12.4081556 20.0755106,12.5249512 20.0755106,12.5249512 C20.3475407,11.5150714 19.1264851,9.41778365 16.1880474,9.61210748 C15.0895789,9.6793644 14.1614574,10.0391113 13.4626604,10.6910194 C13.9026368,10.8092594 14.319945,10.9939731 14.695475,11.2422126 C15.7358616,11.9027122 16.3692297,12.912592 16.4590509,14.0387641 C16.4872636,14.7744623 16.2452322,15.5105624 15.7666131,16.1880243 C16.5828512,16.4682115 17.3942575,16.6517635 18.1779728,16.8353156 C19.5796974,17.1459317 20.9803955,17.4953118 22.3369528,18.3108678 C22.9256669,16.9516078 23.7838447,15.9809955 24.7338967,15.0098798 C25.3662383,14.3106161 26.0447736,13.6118558 26.5878071,12.7575357 C27.0389664,12.0970361 27.3104832,11.4370398 27.3104832,10.7765402 C27.3104832,8.757284 25.2307365,8.21358001 24.8699118,8.01925618 Z M12.3814609,11.0714864 C11.8448422,11.051037 11.2953722,11.1339424 10.7633578,11.3202442 C8.7744589,12.058272 8.41209435,13.9612359 8.41209435,13.9612359 L8.41209435,13.9612359 L8.23142534,14.5824681 C8.14057758,14.271852 8.14057758,14.271852 8.05024307,14.0387641 C7.77923956,13.0681518 6.92003525,11.7476559 5.70051944,11.3202442 C4.47895059,10.8933359 3.16756049,11.0096281 2.12871369,11.6701277 C1.22434213,12.2530992 0.725962564,13.1069159 0.636141325,14.0392675 L0.636141325,14.0392675 L0.636141325,14.1948273 C0.636141325,15.165943 1.17917488,16.1365553 2.17336768,16.9133472 C3.032572,17.5738468 3.9364303,18.0787867 4.79563461,18.5449626 C6.01669021,19.2442263 7.19206529,19.9042225 8.23193861,21.0691586 C9.27129867,19.9037191 10.447187,19.2437229 11.6672161,18.5449626 C12.5269337,18.0782833 13.4313052,17.5738468 14.2905095,16.9133472 C14.4830731,16.7628916 14.6586921,16.6051649 14.8167064,16.4415716 C13.3771512,15.8966821 12.3890466,14.9281288 12.0280408,13.8061796 C11.7340367,12.9230697 11.8283369,12.0137047 12.2864397,11.2247099 Z M13.0483182,11.1518963 L13.0164159,11.1940353 C12.6591784,11.6918684 12.4807399,12.2479531 12.4807399,12.8350639 C12.4807399,13.1069159 12.5264204,13.3787679 12.6157284,13.6506198 C12.9329257,14.6217356 13.8372972,15.4372915 15.1030068,15.9422315 C15.1360557,15.9557993 15.1691047,15.9691714 15.2021522,15.982354 C15.6120363,15.4178355 15.8272226,14.8064312 15.8272226,14.1948273 C15.8272226,14.1555598 15.8272226,14.1167957 15.7820554,14.0392675 C15.7363749,13.1069159 15.1948811,12.2525958 14.3346503,11.6701277 C13.9389298,11.418404 13.5034,11.2456509 13.0483182,11.1518963 Z M23.1520164,6 C23.3326854,6 23.5128412,6.15555975 23.5128412,6.15555975 L22.5638156,7.12667548 L23.3778527,7.35925996 L23.7391907,7.16543956 C23.7391907,7.16543956 24.0558747,7.20420364 24.0101942,7.32099931 C24.0101942,7.39852747 23.6945367,7.70914354 23.6945367,7.70914354 L23.6483429,8.13605185 C23.6483429,8.13605185 23.4230199,8.25284752 23.2875182,8.13605185 C23.2875182,8.13605185 23.1966704,7.82543578 23.1966704,7.7866717 C23.1515031,7.7866717 22.3369528,7.59234787 22.3369528,7.59234787 L22.4283138,8.87407967 C22.4283138,8.87407967 21.9761281,8.83531559 21.9304475,8.71851992 C21.840113,8.64048833 21.6142768,7.39752061 21.6142768,7.39752061 C21.6142768,7.39752061 20.2577194,6.81505255 20.2125522,6.77628847 C20.1222177,6.73752438 20.1684115,6.58246806 20.3039132,6.58246806 C20.4389017,6.58246806 21.7949458,6.85432006 21.8857936,6.85432006 C21.9766413,6.85432006 22.9708341,6 23.1520164,6 Z" id="Combined-Shape" fill="#D31245"></path>
    </g>
</svg>