<?xml version="1.0" encoding="UTF-8"?>
<svg width="28px" height="28px" viewBox="0 0 28 28" version="1.1" xmlns="http://www.w3.org/2000/svg" xmlns:xlink="http://www.w3.org/1999/xlink">
    <title>NK</title>
    <g id="NK" stroke="none" stroke-width="1" fill="none" fill-rule="evenodd">
        <rect id="Rectangle" fill="#FFEC00" x="0" y="0" width="28" height="28"></rect>
        <path d="M11.2937997,11.8278636 C12.7093247,11.8278636 13.4645785,12.62684 13.1699852,14.0452075 C12.9237956,15.2295808 11.8690822,16.1868054 10.4023727,16.1868054 C9.70933984,16.1868054 9.22747562,15.9531669 9.02421496,15.6517838 L9.00970255,15.6517838 L8.62516709,17.5 L7.06251925,17.5 L8.21908026,11.93357 L9.73775635,11.93357 L9.62530689,12.4764152 L9.6399062,12.4764152 C10.0580722,12.0615022 10.6595987,11.8278636 11.2937997,11.8278636 Z M5.19970781,11.7676759 C6.26154709,11.7676759 7.56245011,11.9633527 7.40976563,13.1249667 L5.65541492,13.1249667 C5.67653179,12.9515158 5.58919661,12.8386972 5.44702712,12.778065 C5.30624803,12.710765 5.10481228,12.6874722 4.90537525,12.6874722 C4.45566428,12.6874722 4.16854447,12.7931786 4.11032102,13.0723358 C4.08381632,13.2007125 4.16359113,13.3135311 4.55221093,13.3590497 L5.87023338,13.5097413 C6.92138387,13.6305612 7.38160982,13.9699061 7.21580334,14.769327 C7.01506279,15.7346419 6.02178814,16.1867165 4.36302817,16.1867165 C3.25669575,16.1867165 1.80197855,15.9840164 2.02235864,14.7471011 L3.83606251,14.7471011 C3.82711174,14.8977037 3.861003,15.0184348 3.98509716,15.0945362 C4.10814851,15.1774833 4.31253888,15.221935 4.65171219,15.221935 C4.99809826,15.221935 5.38098261,15.1541905 5.44216068,14.8600975 C5.48752283,14.6414837 5.34500573,14.5807625 4.97124595,14.5356884 L3.6132492,14.3622376 C2.72303874,14.2489744 2.32737999,13.9172752 2.47198271,13.2230273 C2.70166117,12.1145776 3.70310449,11.7676759 5.19970781,11.7676759 Z M25.2372728,10.6365559 L24.9670986,11.93357 L26,11.93357 L25.7803151,12.9889442 L24.7480221,12.9889442 L24.405981,14.633838 C24.3295084,15.003499 24.4071107,15.0555965 24.8276231,15.0555965 C25.0188045,15.0555965 25.1758341,15.0483064 25.384135,15.0409274 L25.1769638,16.0365584 C24.8504779,16.0815436 24.4310953,16.1119486 23.9737371,16.1119486 C22.9562172,16.1119486 22.5889749,15.8559953 22.7725091,14.973094 L23.1854611,12.9889442 L22.3665092,12.9889442 L22.5854989,11.93357 L23.4045377,11.93357 L23.6738429,10.6365559 L25.2372728,10.6365559 Z M22.0259455,11.93357 L21.1768391,16.0218893 L19.6139305,16.0218893 L20.463037,11.93357 L22.0259455,11.93357 Z M17.8434772,11.9335666 L16.9937402,16.0219687 L15.4729326,16.0219635 L16.3224815,11.9336114 L17.8434772,11.9335666 Z M15.6789813,11.93357 L14.829788,16.0218893 L13.2668794,16.0218893 L14.1163335,11.93357 L15.6789813,11.93357 Z M10.6858427,12.9441368 C9.95579013,12.9441368 9.48765623,13.3509595 9.35626242,13.9851087 C9.224521,14.6186355 9.5230248,15.0257249 10.2528166,15.0257249 C10.9685305,15.0257249 11.434405,14.6637096 11.5750103,13.9851087 C11.716137,13.3054409 11.4006876,12.9441368 10.6858427,12.9441368 Z M19.642347,11.7518511 C19.736026,11.7518511 19.8397854,11.7571853 19.9391997,11.7662535 L19.9391997,11.7662535 L19.6354819,13.2261389 C19.450818,13.183643 19.2212264,13.1553717 19.0193561,13.1553717 C18.2700117,13.1553717 17.7137605,13.446353 17.4918162,13.9899094 L17.4918162,13.9899094 L17.4655722,13.9899094 L17.5407412,13.7077295 C17.8335965,12.4552561 18.9444478,11.7518511 19.642347,11.7518511 Z M22.3237541,10.5 L22.1229266,11.4655816 L20.5599312,11.4655816 L20.7606717,10.5 L22.3237541,10.5 Z M15.9767899,10.5 L15.7764839,11.4655816 L14.2132277,11.4655816 L14.4136207,10.5 L15.9767899,10.5 Z" id="Combined-Shape" fill="#231F20" fill-rule="nonzero"></path>
    </g>
</svg>