<?xml version="1.0" encoding="UTF-8"?>
<svg width="28px" height="28px" viewBox="0 0 28 28" version="1.1" xmlns="http://www.w3.org/2000/svg" xmlns:xlink="http://www.w3.org/1999/xlink">
    <title>NO</title>
    <g id="NO" stroke="none" stroke-width="1" fill="none" fill-rule="evenodd">
        <path d="M0,19.0164701 C5.74380288,20.4334532 19.0628865,22.6433265 22.3457853,15.6254735 C23.1640856,13.8763707 24.5189913,15.8905305 28,13.7007305 C25.4716738,12.9352129 24.9937163,10.8143003 21.9588013,9.11538039 C16.4375835,6.02502506 7.72582587,8.44612275 0,7.76682852 L0,7.88361786 C3.2782808,8.20980682 5.67037752,8.18745261 5.97562384,8.99494139 C6.19636172,9.57797565 4.39674765,9.88044178 2.63084459,9.91876328 L2.63130638,9.9798952 C8.16776343,9.93701162 12.6056108,10.4388408 15.8090809,11.994055 C18.1448386,13.1286452 17.6922798,14.4502808 13.3204691,16.1998398 C12.1419689,17.9489426 10.2592318,19.1026935 0,18.8572534 L0,19.0164701 Z" id="path600" fill="#DA1A15" fill-rule="nonzero"></path>
    </g>
</svg>