<?xml version="1.0" encoding="UTF-8"?>
<svg width="28px" height="28px" viewBox="0 0 28 28" version="1.1" xmlns="http://www.w3.org/2000/svg" xmlns:xlink="http://www.w3.org/1999/xlink">
    <title>NT</title>
    <g id="NT" stroke="none" stroke-width="1" fill="none" fill-rule="evenodd">
        <path d="M9.42655097,8.64987747 L25.4710386,8.64987747 C27.0253704,8.60054885 27.8779564,8.84990231 27.9787882,9.35023546 C28.0788046,9.65000169 27.8274046,10.0001807 27.1762105,10.4503721 L5.41556495,26 L5.46557317,25.8498458 C9.27679807,21.3002293 11.0806275,17.6501824 10.9308746,14.9503891 C10.7805781,13.0005534 9.52683921,11.4000836 7.27076149,10.2004766 L9.42655097,8.64987747 L9.42655097,8.64987747 Z" id="Path" fill="#BBCA5F"></path>
        <polygon id="Path" fill="#BBCA5F" points="5.06442021 9.30036477 2.60722245 8.64987747 5.36474137 8.64987747"></polygon>
        <path d="M5.36474137,8.64987747 C5.66587787,7.7999074 5.76670968,7.04967871 5.7158861,6.39973348 C5.56531785,4.30001468 3.66011307,2.84997007 2.84217094e-14,2 L15.7941747,2 C16.8467936,2 17.398243,2.19975381 17.498803,2.54993281 L16.8962582,3.30016149 L9.42655097,8.64987747 L7.27048971,10.2004766 L1.90574834,14.0004066 L2.00576479,13.8502524 C3.46008016,12.1505833 4.46214721,10.650397 5.06442021,9.30036477 L5.36474137,8.64987747 L5.36474137,8.64987747 Z" id="Path" fill="#229044"></path>
    </g>
</svg>