<?xml version="1.0" encoding="UTF-8"?>
<svg width="28px" height="28px" viewBox="0 0 28 28" version="1.1" xmlns="http://www.w3.org/2000/svg" xmlns:xlink="http://www.w3.org/1999/xlink">
    <title>NX</title>
    <g id="NX" stroke="none" stroke-width="1" fill="none" fill-rule="evenodd">
        <path d="M28,-1.77635684e-15 L28,28 L27.9855185,28 L27.9855185,1.30359916 C18.5794263,5.63754374 21.8481227,15.4134318 21.8481227,15.4134318 C19.2606812,14.1170088 15.6937075,14.6550282 15.6937075,14.6550282 C16.4354195,25.0037445 24.5448906,27.4749085 27.0707941,28 L23.3058262,28 C10.1810906,25.7481487 12.1234913,13.1418292 12.1234913,13.1418292 C12.3428555,11.5148433 10.5217249,11.7330707 10.5217249,11.7330707 C10.5980659,10.9021732 11.9797841,9.09608264 13.8722211,9.60180265 C15.7682836,10.1089606 15.9130717,12.1296702 15.9130717,12.1296702 C17.6093204,3.25432459 24.8369977,0.851720414 27.9855185,0.217861145 L27.9855185,-1.77635684e-15 L28,-1.77635684e-15 Z" id="Path" fill="#FFFFFF" fill-rule="nonzero"></path>
        <path d="M12.1234913,13.1418292 C12.3428555,11.5148433 10.5217249,11.7330707 10.5217249,11.7330707 C10.5980659,10.9021732 11.9797841,9.09608264 13.8722211,9.60180265 C15.7682836,10.1089606 15.9130717,12.1296702 15.9130717,12.1296702 C17.6093204,3.25432459 24.8369977,0.851720414 27.9855185,0.217861145 L27.9855185,8.8817842e-15 L-1.77635684e-15,8.8817842e-15 L-1.77635684e-15,28 L23.3058262,28 C10.1810906,25.7481487 12.1234913,13.1418292 12.1234913,13.1418292 Z" id="path3701" fill="#312667" fill-rule="nonzero"></path>
        <path d="M21.8481227,15.4134318 C19.2606812,14.1170088 15.6937075,14.6550282 15.6937075,14.6550282 C16.4354195,25.0037445 24.5448906,27.4749085 27.0707941,28 L27.9855185,28 L27.9855185,1.30359916 C18.5794263,5.63754374 21.8481227,15.4134318 21.8481227,15.4134318 L21.8481227,15.4134318 Z" id="path3703" fill="#E6001F" fill-rule="nonzero"></path>
    </g>
</svg>