<?xml version="1.0" encoding="UTF-8"?>
<svg width="28px" height="28px" viewBox="0 0 28 28" version="1.1" xmlns="http://www.w3.org/2000/svg" xmlns:xlink="http://www.w3.org/1999/xlink">
    <title>NZ</title>
    <g id="NZ" stroke="none" stroke-width="1" fill="none" fill-rule="evenodd">
        <path d="M17.2429379,0 C14.0812053,0 11.1546516,2.25482042 9.49152542,3.89035917 C3.57514124,9.68302457 0.448210923,13.6030246 0.448210923,13.6030246 L26.8135593,13.6030246 L28,10.9565217 L6.72316384,10.9565217 C6.72316384,10.9565217 8.32934087,8.74827977 11.7853107,5.47826087 C12.653258,4.663138 14.925951,2.62003781 17.2429379,2.62003781 C18.7647458,2.62003781 19.9585687,3.57489603 19.9585687,4.86956522 C19.9585687,6.15047259 18.8775895,6.51039698 18.8775895,6.51039698 C18.9904331,5.96310019 18.6244821,4.47258979 17.1902072,4.47258979 C15.7032015,4.47258979 15.0809793,5.61164461 15.0809793,6.37807183 C15.0809793,7.95327032 16.5089266,9.07750473 18.165725,9.07750473 C21.3517137,9.07750473 22.8323917,6.80362949 22.8323917,4.60491493 C22.8323917,2.38608696 20.6778154,0 17.2429379,0 Z M0,14.979206 C0,14.979206 1.38365348,18.9733081 3.2165725,22.7863894 C4.77001883,26.0352363 7.34644068,28 10.4934087,28 C13.4505461,28 15.4500942,25.7420038 15.4500942,23.5803403 C15.4500942,21.133913 13.5960829,19.5311909 11.3898305,19.5311909 C9.03698682,19.5311909 8.54237288,21.306465 8.54237288,21.7542533 C8.54237288,22.7863894 9.40293785,23.7391304 10.4934087,23.7391304 C12.2103202,23.7391304 12.3389831,22.362949 12.3389831,22.362949 C12.3389831,22.362949 12.86629,22.7017013 12.86629,23.5803403 C12.86629,24.425104 12.153371,25.5122873 10.4934087,25.5122873 C9.16881356,25.5122873 7.22199623,24.8114934 5.87947269,21.9659735 C4.30071563,18.6345558 4.1920904,17.6521739 4.1920904,17.6521739 L24.9943503,17.6521739 L26.180791,14.979206 L0,14.979206 Z" id="koru" fill="#231F20" fill-rule="nonzero"></path>
    </g>
</svg>