<?xml version="1.0" encoding="UTF-8"?>
<svg width="28px" height="28px" viewBox="0 0 28 28" version="1.1" xmlns="http://www.w3.org/2000/svg" xmlns:xlink="http://www.w3.org/1999/xlink">
    <title>OA</title>
    <g id="OA" stroke="none" stroke-width="1" fill="none" fill-rule="evenodd">
        <path d="M11.365547,1.42996726e-13 C14.0279274,1.42996726e-13 16.1872773,2.18290917 16.1872773,4.87895717 C16.1872773,6.58293942 15.3207145,8.08348636 14.0086641,8.95452528 C13.6143424,8.49582212 13.2078475,8.17549931 12.6790287,7.89443116 C12.7523657,7.86041961 12.840046,7.81655477 12.9348244,7.76221335 C13.0979538,7.67132015 13.2523758,7.56692816 13.3967522,7.45042798 L13.4821619,7.37908602 C13.6854763,7.21135916 13.8643929,7.02765912 13.9596845,6.8731753 L13.9724787,6.85111839 C14.3808755,6.30154176 14.6229755,5.61872677 14.6229755,4.87895717 C14.6229755,3.05814194 13.1629605,1.58286779 11.365547,1.58286779 C9.57017842,1.58286779 8.11220824,3.05814194 8.11220824,4.87895717 C8.11220824,5.61618248 8.35230907,6.29684428 8.75762361,6.8454432 C8.31569707,7.13705828 7.92396043,7.50025233 7.59860147,7.91867458 C6.93981909,7.08531203 6.54586159,6.0284214 6.54586159,4.87895717 C6.54586159,2.18290917 8.7031667,1.42996726e-13 11.365547,1.42996726e-13 Z" id="Path" fill="#FDDD04" fill-rule="nonzero"></path>
        <path d="M7.6976708,19.9218802 C8.03313144,20.3079414 8.43142951,20.6426172 8.8826963,20.908131 C8.90837064,20.8781033 8.93692658,20.8472778 8.96801061,20.8159249 L9.01340217,20.7714394 L8.9566555,20.8294316 C8.38574229,21.4256884 8.03308158,22.2400843 8.03308158,23.1355266 C8.03308158,24.9646182 9.49514144,26.4460997 11.3027791,26.4460997 C12.69936,26.4460997 13.8910237,25.5564588 14.3571006,24.3028731 C14.815,24.5585222 15.3041394,24.7319291 15.8042141,24.8243568 C15.1265186,26.6782524 13.3663367,28 11.3027791,28 C8.65062295,28 6.50149719,25.8170908 6.50149719,23.1355266 C6.50149719,21.9430782 6.92574708,20.8472752 7.62855744,20.0029897 L7.6976708,19.9218802 Z" id="Path" fill="#00A650" fill-rule="nonzero"></path>
        <path d="M7.47354663,13.7653891 C7.78118479,14.1984565 8.15732856,14.578313 8.58595024,14.8887007 C8.3988098,15.1764465 8.2534804,15.4989348 8.16086815,15.8491614 C7.74985552,17.4051308 8.50849077,19.0004132 9.88671224,19.6749425 L10.4756259,19.9418575 C9.94601257,20.0515202 9.19760151,20.5398298 8.8826963,20.908131 C7.05052059,19.8301256 6.09149111,17.6120416 6.66609086,15.4436162 C6.82831476,14.8371167 7.08984572,14.2926658 7.43223325,13.8207296 L7.47354663,13.7653891 Z" id="Path" fill="#ED1C24" fill-rule="nonzero"></path>
        <path d="M11.8679193,19.8534845 C12.4458412,19.9524843 13.0006248,20.221461 13.4710744,20.6555819 C13.5990089,21.3335632 13.9366518,21.9757795 14.477785,22.4748593 C14.5484808,22.5400307 14.6212407,22.6014554 14.6958272,22.659147 C14.9888539,22.8870471 15.2967406,23.0464253 15.5989904,23.1514085 C16.7975646,23.5731215 18.1826162,23.2618436 19.086852,22.2555339 C19.3337959,21.9808268 19.5266664,21.6758518 19.6671895,21.3537071 L21.3088,21.3536109 L21.321861,21.3078823 C21.1296461,22.0258629 20.7677096,22.7190141 20.2340066,23.3066408 C18.4468174,25.2991921 15.4020522,25.4481679 13.4369619,23.6356291 C12.3731355,22.6567353 11.8447411,21.3038765 11.8653459,19.9540545 L11.8679193,19.8534845 Z" id="Path" fill="#00ADEF" fill-rule="nonzero"></path>
        <path d="M14.0095219,8.69066743 L14.0013425,8.6844601 L14.0033874,8.6844601 C13.2508866,8.18373591 12.3470678,7.89406076 11.3819038,7.89406076 C10.414695,7.89406076 9.50269682,8.17545948 8.74815124,8.66997634 C9.07941515,9.13138748 9.55177295,9.51003428 10.0752517,9.74798172 C10.4760402,9.56796931 10.9115909,9.47692855 11.3819038,9.47692855 C11.8460823,9.47692855 12.2754985,9.57210753 12.6783317,9.75211994 C13.207945,9.47072122 13.614868,9.15000945 14.0095219,8.69066743" id="path11082" fill="#111941" fill-rule="nonzero" transform="translate(11.378837, 8.823090) scale(-1, 1) rotate(-180.000000) translate(-11.378837, -8.823090) "></path>
        <path d="M11.38252,6.05795519 C12.3395047,6.05795519 13.2351442,6.34349213 13.9835552,6.83180167 C13.8629097,7.05733446 13.5377803,7.35942426 13.2146958,7.58081884 C13.0143015,7.72772553 12.8159522,7.83118094 12.6728134,7.8973924 L12.6646341,7.89532329 C12.272025,7.71944909 11.8364743,7.62633922 11.38252,7.62633922 C9.57897208,7.62633922 8.11895705,9.10368249 8.11895705,10.9244977 C8.11895705,12.7494512 9.57897208,14.2288635 11.38252,14.2288635 C12.506582,14.2288635 13.4984749,13.6529728 14.0851411,12.7750767 C14.5195772,13.1015057 14.8554509,13.4707519 15.1270391,13.8265064 L15.1861054,13.9048893 C14.3060119,15.054861 12.9289523,15.7951785 11.38252,15.7951785 C8.72422939,15.7951785 6.57101396,13.6143384 6.57101396,10.9244977 C6.57101396,8.23879525 8.72422939,6.05795519 11.38252,6.05795519 Z" id="Path" fill="#00ADEF" fill-rule="nonzero"></path>
        <path d="M16.1793921,10.604043 L16.1926036,10.9246845 C16.1966933,12.0233809 15.8511155,13.0434513 15.1885877,13.9083385 C14.9063999,13.5276226 14.5526428,13.1262156 14.0843747,12.7744672 L14.1109576,12.7310159 C14.3928538,12.3000749 14.5761934,11.7958655 14.6290591,11.2527023 C15.0926789,10.8938657 15.6287323,10.6777439 16.1793921,10.604043 Z" id="Path" fill="#111941" fill-rule="nonzero"></path>
        <path d="M17.7904492,16.9555079 C18.2261849,17.1152847 18.6348786,17.3705874 18.9838181,17.7202569 C19.0606703,17.8047834 19.1329361,17.8917546 19.2005719,17.9808602 C18.2421341,18.6036056 17.1141409,18.850171 16.023684,18.7132413 C15.9541595,18.2621757 15.972563,17.6124757 16.0911637,17.1365808 C16.6328707,17.2230695 17.1920532,17.1729735 17.7127725,16.9849686 L17.7904492,16.9555079 Z M20.01112,10.4326702 C21.7640669,12.2083521 21.8818438,15.0138687 20.3644508,16.9228972 C20.2781449,16.8141641 20.1860249,16.7067556 20.0880311,16.6008694 C19.8424303,16.3364602 19.5409913,16.0919777 19.2009471,15.8825696 C20.1825082,14.5848614 20.0864862,12.7311531 18.9130415,11.5437813 C17.6411516,10.2526578 15.5779091,10.2526578 14.2998848,11.5437813 C14.0463247,11.8044889 13.8418408,12.0983023 13.6864331,12.4086685 L13.6516708,12.4914329 L13.0055017,12.1520991 L12.3961397,11.9576029 L12.2039248,11.9120826 C12.4370365,11.3761835 12.77239,10.8754593 13.2058959,10.4326702 C15.0851029,8.53529794 18.1339578,8.53529794 20.01112,10.4326702 Z" id="Shape" fill="#00A650" fill-rule="nonzero"></path>
        <path d="M12.5572956,11.9991719 C13.9855741,12.3849221 15.3640446,13.6916032 15.8913292,15.2421621 C15.388521,15.3315657 14.895469,15.5007152 14.4377463,15.7442724 C14.1203134,14.6893205 13.2892482,13.8193901 12.158552,13.5137591 C11.320168,13.2882263 10.4736047,13.4082346 9.76609041,13.7951578 L9.71292012,13.7646935 C9.46357943,13.6177423 8.97722075,13.2749249 8.61075639,12.671632 C9.72723847,11.9081311 10.8948415,11.5460372 12.5572956,11.9991719 Z" id="Path" fill="#ED1C24" fill-rule="nonzero"></path>
        <path d="M19.6647495,15.1669117 C20.1780041,16.3649253 19.924444,17.7657116 18.9838181,18.8002657 C17.7139731,20.0727673 15.6527754,20.0955275 14.3767959,18.8126804 C14.0516665,18.4505864 13.7776581,18.0512485 13.6202055,17.6125976 L12.0988453,17.9602078 C12.3278673,18.6761192 12.7225212,19.3485794 13.2848519,19.9196533 C14.2704643,20.9190325 15.6732238,21.425964 17.0085037,21.3452688 C18.223138,21.2707809 19.3846065,20.6769469 20.0880311,19.9196533 C21.5644049,18.3243708 21.7075436,16.3835473 21.3088,15.1669117 L19.6647495,15.1669117 Z" id="path11102" fill="#111941" fill-rule="nonzero" transform="translate(16.799423, 18.260261) scale(-1, 1) rotate(-180.000000) translate(-16.799423, -18.260261) "></path>
        <path d="M14.4966127,19.0328735 C14.3882363,19.6908499 14.1060485,20.2267489 13.6152871,20.7274731 C12.7564548,21.6171897 11.5704482,21.9130721 10.4764593,21.5820148 L10.46828,21.5882222 C9.91412862,21.8054785 9.34157371,22.0930846 8.88761946,22.6082925 C9.14117949,22.7634756 9.41109823,22.8793457 9.68101697,22.980732 C11.3659643,23.6283629 13.363772,23.2331632 14.7174554,21.8385842 C15.6826193,20.8516196 16.1652013,19.5377359 16.1263494,18.2404051 C15.6008258,18.3231694 15.0160018,18.5590477 14.4966127,19.0328735" id="path11106" fill="#FDDD04" fill-rule="nonzero" transform="translate(12.508071, 20.762050) scale(-1, 1) rotate(-180.000000) translate(-12.508071, -20.762050) "></path>
    </g>
</svg>