<?xml version="1.0" encoding="UTF-8"?>
<svg width="28px" height="28px" viewBox="0 0 28 28" version="1.1" xmlns="http://www.w3.org/2000/svg" xmlns:xlink="http://www.w3.org/1999/xlink">
    <title>OB</title>
    <g id="OB" stroke="none" stroke-width="1" fill="none" fill-rule="evenodd">
        <path d="M21.2964967,8.01807015e-05 L21.2725846,0.00887260172 C21.0447946,0.0952266285 19.2386116,0.837240913 17.9734673,3.09312878 C16.6854714,5.38664297 14.0837197,12.6079362 13.362442,15.6877981 C12.8601236,17.8633601 11.0955693,20.4714134 10.6061309,21.4674539 C8.32637816,26.0544822 6.04662545,26.775301 5.18366821,26.8146184 C2.71071613,26.9325705 1.5,25.1894997 1.5,25.1894997 L2.91679547,25.0715476 C2.91679547,25.0715476 3.93431221,26.0544822 5.45414735,25.1370766 C7.15430191,24.1017187 8.44229778,21.0480684 9.39541473,18.6103905 C10.6962906,15.2290953 12.0744462,9.89503657 12.8343637,8.25681215 C15.7581144,2.34609845 16.9301906,1.73012607 18.3469861,0.865143574 C19.7895415,-0.02605051 21.2964967,8.01807015e-05 21.2964967,8.01807015e-05 Z M21.6056157,0.458863918 C23.8853684,0.786508802 25.1991242,5.33421979 25.1991242,5.33421979 C25.1991242,5.33421979 23.5247295,2.69995492 22.0821741,1.49422175 C21.502576,1.02241312 20.562339,0.773403006 19.9698609,1.19278846 C19.2614632,1.69080868 18.3469861,2.88343606 18.3469861,2.88343606 C18.3469861,2.88343606 19.9054611,0.209853806 21.6056157,0.458863918 Z" id="Combined-Shape" fill="#D6430D" fill-rule="nonzero"></path>
        <path d="M22.9966512,5.64875888 C22.9966512,5.64875888 20.7812983,5.92398058 19.4289026,8.33544692 C18.1409067,10.6289611 17.5355487,11.59879 16.1573931,14.4296418 C15.1785162,16.4217227 13.053323,21.3363959 12.5638846,22.3324364 C10.2841319,26.9194647 8.28773828,27.4436965 7.42478104,27.4830139 C4.95182895,27.6009661 3.45775374,26.0544822 3.45775374,26.0544822 L4.8745492,25.9365301 C4.8745492,25.9365301 5.91782586,26.775301 7.23158166,25.68752 C9.7818135,23.5774869 11.3016486,18.4138035 12.9760433,15.0849315 C13.9034003,13.2239086 15.1785162,10.7600191 16.0543534,9.5411801 C17.5741886,7.41804125 18.990984,6.19920228 20.7040185,5.71428785 C21.5798557,5.46527774 22.9966512,5.64875888 22.9966512,5.64875888 Z M23.0095312,6.10746171 C25.0960845,6.46131819 26.5,11.3366741 26.5,11.3366741 C26.5,11.3366741 24.297527,7.32630068 22.5329727,6.56616455 C21.489696,6.12056751 19.9698609,7.94227306 19.9698609,7.94227306 C19.9698609,7.94227306 21.3222566,5.81913422 23.0095312,6.10746171 Z" id="Combined-Shape" fill="#F5A300" fill-rule="nonzero"></path>
        <path d="M21.1290572,14.1413143 C21.1290572,14.1413143 19.1584235,14.3903244 18.0121072,16.2775589 C17.3294693,17.4046573 14.7277177,22.0178973 14.7277177,22.0178973 C14.7277177,22.0178973 12.7828439,24.8225375 12.1002061,25.7006258 C11.172849,26.9194647 9.51133436,27.9548226 8.64837713,27.99414 C6.35574446,28.0989863 5.54430706,26.7621952 5.54430706,26.7621952 L6.60046368,26.6835604 C6.60046368,26.6835604 7.63086038,27.2471096 8.55821741,26.7359836 C9.91061309,25.9889533 11.4819681,23.2236304 12.2805255,21.9392625 C12.9760433,20.8121641 14.302679,18.7283426 15.1527563,17.4963979 C15.9513138,16.3299821 17.6128284,14.7048635 19.312983,14.1937374 C20.0085008,13.9971505 21.1290572,14.1413143 21.1290572,14.1413143 Z M20.884338,14.5082765 C22.4170531,14.7441809 23.1254508,18.0992645 23.1254508,18.0992645 C23.1254508,18.0992645 21.9662545,15.4125764 20.7684183,14.8490272 C20.0600206,14.5082765 18.8364245,15.6222691 18.8364245,15.6222691 C18.8364245,15.6222691 19.9183411,14.351007 20.884338,14.5082765 Z" id="Combined-Shape" fill="#AABC14" fill-rule="nonzero"></path>
    </g>
</svg>