<?xml version="1.0" encoding="UTF-8"?>
<svg width="28px" height="28px" viewBox="0 0 28 28" version="1.1" xmlns="http://www.w3.org/2000/svg" xmlns:xlink="http://www.w3.org/1999/xlink">
    <title>OD</title>
    <g id="OD" stroke="none" stroke-width="1" fill="none" fill-rule="evenodd">
        <path d="M23.5909462,7.01667418 C23.5291623,7.28437541 23.2820266,7.63725429 23.1584588,7.8684508 C23.0801992,7.8116657 22.9525124,7.64536645 22.8577771,7.54802055 C22.7342092,7.4222821 22.6641874,7.30871188 22.5818089,7.15863695 C22.7959931,7.15863695 22.9648692,7.14646872 23.1172695,7.11807616 C23.3355727,7.08157145 23.4055945,7.02884242 23.5909462,7.01667418 Z M17.2725107,24.1982254 L17.2725107,24.1982254 C17.2477971,24.0319262 17.2148457,23.8250661 17.1860132,23.61415 C17.3672461,23.6019818 17.5484789,23.5898136 17.7297117,23.5776453 L17.7379496,23.5776453 L17.7461874,23.5776453 C18.0427502,23.5573649 18.5411405,23.4843555 19.373164,23.0544111 C19.8797921,22.790766 20.5841288,22.0890643 20.9095241,21.6347834 C21.428509,20.9046892 21.7044772,19.9920714 21.7044772,19.0551171 L21.7044772,19.0429488 L21.7044772,19.0348367 L21.7044772,19.0105002 C21.7044772,18.7671355 21.6797637,18.5278268 21.6426933,18.2966303 C21.6385744,18.280406 21.6385744,18.2601256 21.6344554,18.2439013 L21.6303365,18.231733 C21.5561958,17.8058447 21.4202712,17.3840125 21.2184437,16.9784046 C20.6376749,15.7980855 19.5214454,14.9706454 18.2569345,14.6380469 C17.997442,14.5690935 17.7297117,14.5204206 17.4578625,14.4960841 L17.4125543,14.492028 L17.371365,14.487972 C16.6134822,14.4311869 15.8350049,14.5528692 15.1100735,14.8773556 C15.0400518,14.9098042 14.9741489,14.9381967 14.912365,14.9706454 C14.3563097,15.2464588 13.8661573,15.6317863 13.4666213,16.0901232 L13.4583834,16.1022915 L13.3801238,16.0657868 C11.938499,15.3843655 9.81313216,11.4337444 9.31062294,9.63690131 C8.68866482,7.41416994 8.29324773,3.63390418 8.79987587,1.33005123 C8.87813551,0.973116263 8.97698978,0.47016245 9.01406013,0.295751047 C7.5518407,-0.61686676 5.53768492,0.624293457 5.31114388,3.44326846 C4.94455929,7.9860771 7.77426281,12.7357458 11.0735241,15.5587769 C11.5513198,15.9684409 11.9179044,16.232086 12.1815157,16.43489 L12.8899714,16.9418998 C12.7869982,17.1365916 12.6963817,17.3434517 12.622241,17.5543678 C12.1156129,17.258274 11.6666497,16.9784046 11.1147134,16.5687406 C10.6327988,16.2158617 10.1920735,15.8832632 9.74311038,15.5101039 C8.75044874,14.6745516 8.23146381,14.0985884 7.32941859,13.0683443 C6.21318911,11.7947354 4.2978876,8.61476937 4.19903333,6.41231839 C2.03247721,6.12839285 0.685587765,10.1601355 4.74273182,13.8389993 C7.37060787,16.2239738 9.09643869,16.9418998 12.4286514,18.3169107 C12.3998189,18.4832099 12.3833432,18.6495092 12.3751054,18.8198645 L12.3709864,18.8644814 C11.8355258,18.9090982 9.83784572,18.280406 9.26943366,18.077602 C4.05075192,16.2118056 2.83566817,13.9809621 2.23018575,13.3522698 C1.37756766,13.9485134 1.23752411,15.668291 1.99128793,16.6620304 C3.2681556,18.3453032 6.04019413,19.3147061 8.20263132,19.5540148 C9.54540184,19.7040897 10.5792528,19.768987 11.9261422,19.7122019 L12.4204136,19.667585 C12.453365,19.8947255 12.5027921,20.1178098 12.564576,20.332782 L12.4904353,20.3490063 L12.3998189,20.3692867 L12.3957,20.3692867 C9.55775862,20.9411939 7.30882395,20.8195115 4.59445041,19.9636788 C3.82009195,19.7203141 2.81919246,19.1362387 2.69150569,19.0672853 C2.44848894,19.2660332 1.987169,22.6690836 6.69510368,22.7055883 C7.87723601,22.7137005 9.06348726,22.48656 10.0808625,22.1661298 C11.0405727,21.8619238 11.9137854,21.4928206 12.8858524,21.1237174 C12.9805878,21.3021849 13.083561,21.4725402 13.2030099,21.6388395 L13.0670853,21.7605219 C13.0382528,21.7929705 13.0011824,21.8213631 12.9641121,21.8538117 C12.3133214,22.4013824 10.7110585,23.0706354 9.88315393,23.3342806 C8.02963634,23.922412 7.2140886,23.8291222 5.3729278,23.6182061 C5.59534991,26.0275171 8.33855594,25.7354794 9.89551072,25.1311236 C11.4730601,24.5186557 12.5192678,23.358617 13.6808055,22.2148027 C13.8126112,22.3486533 13.9526548,22.4743918 14.1009362,22.5920181 C14.0020819,22.8110464 13.8908709,22.9935699 13.7631841,23.1801496 C13.0876799,24.1495525 11.4112762,25.406937 10.4186146,25.8531057 C9.39712043,26.3114427 8.81223266,26.3398352 8.65983232,26.3682278 C8.75456767,26.99692 9.421834,27.3376307 10.2044303,27.3335746 C12.5522193,27.3132942 14.0762226,24.3564125 14.5045911,23.5046359 L14.7476079,23.0260186 C14.9041271,23.1152523 15.0688843,23.1923178 15.2377603,23.2612711 L15.0606464,23.8372344 C15.0524085,23.8615709 15.0441707,23.8899634 15.0359328,23.918356 L15.0359328,23.922412 C14.9329596,24.2387862 14.73937,24.6565624 14.4180936,25.1879087 C13.2236045,27.1672754 12.1403265,27.4674252 12.0167586,27.5282664 C12.2886079,27.9987716 13.1206313,28.12451 13.7467084,27.8730331 C15.2748307,27.2646213 15.5054906,25.0418899 15.7732209,23.7926175 L15.8391238,23.4559629 C16.0038809,23.5005798 16.168638,23.5330285 16.341633,23.5573649 L16.3457519,23.5776453 C16.625839,26.1775921 15.4437067,27.4309205 15.369566,27.5526029 C16.1809948,27.6905096 16.8853315,27.5444907 17.2601539,26.9360789 C17.6226196,26.3479474 17.4496246,25.354208 17.3590082,24.636282 C18.1827938,24.6078894 19.142504,24.332076 19.7685811,24.1292721 C21.7580233,23.4762433 23.0760802,21.8091948 23.6238977,19.8622768 C23.6774437,19.6756972 23.7598223,19.4850615 23.8051305,19.2863136 C24.1222879,19.2863136 24.4765157,19.253865 24.4765157,18.8604253 C24.4765157,18.7752476 24.3982561,18.5197146 24.3570668,18.4548174 C24.233499,18.2601256 23.7062762,17.9315832 23.7062762,17.3921246 C23.7062762,17.2744983 23.776298,17.0798065 23.8010116,16.9662363 C24.060504,16.9459559 24.4270886,16.6823108 24.4270886,16.3983852 C24.4270886,15.9724969 23.6939194,15.7494126 23.4261891,15.4898235 C23.1625777,15.2302344 22.8371824,14.5772057 22.8371824,14.1756539 C22.8371824,13.9322891 22.7136146,13.3238773 23.0760802,13.3238773 C23.4591405,13.3238773 24.9996196,14.0985884 24.9996196,11.7622868 C24.3982561,12.0462123 23.9616497,12.236848 23.3561673,11.7703989 C22.6477117,11.2268843 23.2367184,9.34891969 24.5671322,9.34891969 C24.8554571,9.34891969 25.0614035,9.40976088 25.205566,9.57200404 C25.3332528,9.71396681 25.4238692,10.0060045 25.432107,10.2493693 C25.6998374,10.0749579 25.893427,9.84376135 26.0911355,9.57606012 C26.2105844,9.41381696 26.4412444,8.79729293 26.4412444,8.54581602 C26.4412444,8.37140462 26.350628,8.31056343 26.3629848,8.17265674 C26.3835794,7.94957239 26.6966179,7.65347861 26.3012008,7.40605778 C25.9881623,7.21136598 25.3703231,7.57235703 24.3117586,7.04912282 C24.1717151,6.98016947 24.0193147,6.87471142 23.8957469,6.84226278 C23.8998658,6.57861764 23.9904822,6.53805685 23.9904822,6.2744117 C23.9904822,5.86069163 22.6806631,5.3415135 22.2317,5.0697562 C21.9186615,4.87912048 21.6303365,4.68442868 21.3832008,4.44106393 C21.0372109,4.0962972 20.8683348,3.81642774 20.8230266,3.63390418 C20.7530049,3.60145555 20.687102,3.57711907 20.5800099,3.57711907 C20.1845928,3.57711907 19.88803,3.87321285 19.8097703,4.1936431 C19.7232729,4.10440936 19.65737,4.03951209 19.5338022,3.95839051 C19.4102343,3.87321285 19.2743097,3.8042595 19.1507419,3.75153048 C18.2651724,3.37837119 17.6761657,3.3580908 16.7329312,2.86730522 C16.3828223,3.09850173 16.0903784,3.47166101 16.2057084,3.95433443 C15.7608642,3.72313792 15.3613281,3.76369871 14.8835325,3.83265206 C14.5952075,3.87321285 13.6766866,3.9989513 13.4419077,3.98272699 C13.2112477,3.98272699 12.8899714,3.9421662 12.7005007,3.90566148 C12.679906,4.16930663 12.5563382,4.38427882 12.5563382,4.70876515 C12.5563382,5.02919541 12.6551925,5.23199936 12.7005007,5.32528918 C12.1568022,5.32528918 11.8849529,5.32934526 11.4483466,5.41452292 C10.9952645,5.50375667 10.6616313,5.52809314 10.2044303,5.51186882 C10.0685057,6.0797199 10.0479111,6.36364544 10.3568306,6.92338436 C10.4680417,7.12618832 10.7192963,7.49123544 10.8263884,7.5966935 C10.5874906,7.67781509 10.1550032,7.75893667 9.91198643,7.78732922 C9.91198643,8.45658228 10.2044303,9.40164872 10.3815442,10.0222288 C10.9046481,11.8636888 11.8272879,13.4009428 12.9888256,14.8854677 C13.1041556,15.0314866 13.2112477,15.1531689 13.3265777,15.2626831 C13.4460266,15.1491129 13.5325241,15.0761034 13.6643298,14.9787575 C14.7517268,14.1472613 15.7855777,13.7943824 17.2683918,13.7943824 C17.9727285,13.7943824 18.8377033,14.0418033 19.3196179,14.2811119 C19.9704085,14.6055983 20.3493499,14.8611312 20.8353834,15.3438047 C21.5273633,16.025226 21.9557318,16.8404979 22.1987486,17.7896204 C22.6971389,19.716258 22.00104,22.0079427 20.3617067,23.1720374 C20.0733817,23.3748414 19.8097703,23.5249163 19.484375,23.6871595 C18.9653901,23.9426924 18.0303935,24.1820011 17.2931054,24.2063376 L17.2725107,24.1982254 Z M18.2075074,6.40015016 C18.2075074,6.57861764 18.3763834,6.89904789 18.3022427,6.91932829 C17.9150635,6.88687965 17.7255928,6.52183253 17.7255928,6.11622462 C17.7255928,5.34556958 19.1713365,5.07786836 19.4061154,6.06755167 C19.2331204,5.982374 18.8871305,5.87691595 18.685303,5.87691595 C18.454643,5.87691595 18.2033884,6.17300972 18.2033884,6.39609408 L18.2075074,6.40015016 Z" id="Shape" fill="#FB0102"></path>
    </g>
</svg>