<?xml version="1.0" encoding="UTF-8"?>
<svg width="28px" height="28px" viewBox="0 0 28 28" version="1.1" xmlns="http://www.w3.org/2000/svg" xmlns:xlink="http://www.w3.org/1999/xlink">
    <title>OF</title>
    <g id="OF" stroke="none" stroke-width="1" fill="none" fill-rule="evenodd">
        <path d="M0.5,14.0005151 C0.5,6.26816942 6.54376793,0 13.9998708,0 C21.4560245,0 27.5,6.26816942 27.5,14.0005151 C27.5,21.732345 21.4560245,28 13.9998708,28 C6.54376793,28 0.5,21.732345 0.5,14.0005151 Z" id="path6" fill="#ECEE04" fill-rule="nonzero"></path>
        <path d="M10.9968443,14.6284751 L11.3635199,13.4178215 C11.5434338,12.8247246 11.6190719,12.4599169 11.5908507,12.3224177 C11.5638736,12.1245134 11.3319774,12.0262046 10.8970818,12.0262046 C10.4268572,12.0262046 10.1094143,12.1245134 9.94506336,12.3224177 C9.83632728,12.4509554 9.69070446,12.8160731 9.50830009,13.4178215 L9.1418323,14.6284751 L10.9968443,14.6284751 Z M12.3184952,21.9988966 L8.76478096,21.9988966 L10.7744933,15.3633437 L8.91948203,15.3633437 L6.90956169,21.9988966 L3.35584747,21.9988966 L5.99795653,13.275842 C6.38289339,12.0042665 8.08247779,11.3684787 11.0961393,11.3684787 C14.0577668,11.3684787 15.3456449,12.0042665 14.9607077,13.275842 L12.3184952,21.9988966 Z" id="path8" fill="#0D2A67" fill-rule="nonzero"></path>
        <polygon id="polygon10" fill="#0D2A67" fill-rule="nonzero" points="18.7340696 14.6296089 16.5017473 21.9988976 14.0022518 21.9988976 16.2342107 14.6296089"></polygon>
        <path d="M23.6091292,16.2520873 L23.7329619,15.8443304 C23.8207408,15.5538843 23.840558,15.3669486 23.7926747,15.2821838 C23.7466582,15.1913421 23.5888446,15.1460251 23.3194401,15.1460251 C22.9757468,15.1460251 22.74935,15.1460251 22.6390053,15.1460251 L22.0871758,16.9676966 L22.7674034,16.9676966 C23.0370151,16.9676966 23.2302099,16.9167139 23.3469878,16.8141306 C23.4321721,16.7352372 23.5198979,16.5483004 23.6091292,16.2520873 L23.6091292,16.2520873 Z M24.3870954,21.9988966 L21.8686124,21.9988966 L23.0215041,18.191791 C23.1113049,17.8959892 23.1333532,17.7021528 23.0869744,17.6117234 C23.0528905,17.5210884 22.8954913,17.4758737 22.6137919,17.4758737 L21.9332009,17.4758737 L20.5634065,21.9988966 L18.0633404,21.9988966 L20.2952483,14.6296078 L23.475542,14.6296078 C24.7012191,14.6296078 25.5226593,14.7288954 25.9402801,14.9287054 C26.2830394,15.0917466 26.396445,15.3633437 26.2813788,15.7443226 L26.119208,16.2788664 C25.9747263,16.7562472 25.5418549,17.0734725 24.8201751,17.2307456 C25.4467619,17.3881211 25.6874766,17.7051396 25.5427877,18.1825215 L24.3870954,21.9988966 L24.3870954,21.9988966 Z" id="path12" fill="#0D2A67" fill-rule="nonzero"></path>
    </g>
</svg>