<?xml version="1.0" encoding="UTF-8"?>
<svg width="28px" height="28px" viewBox="0 0 28 28" version="1.1" xmlns="http://www.w3.org/2000/svg" xmlns:xlink="http://www.w3.org/1999/xlink">
    <title>OH</title>
    <defs>
        <linearGradient x1="50.0180673%" y1="-4.67654321%" x2="50.0180673%" y2="124.825514%" id="linearGradient-1">
            <stop stop-color="#0AA5DE" offset="0%"></stop>
            <stop stop-color="#1A4686" offset="100%"></stop>
        </linearGradient>
        <linearGradient x1="41.1268238%" y1="52.3365232%" x2="30.0218806%" y2="60.1970835%" id="linearGradient-2">
            <stop stop-color="#D72027" offset="0%"></stop>
            <stop stop-color="#981C1F" offset="100%"></stop>
        </linearGradient>
        <linearGradient x1="49.9893686%" y1="-0.778151261%" x2="49.9893686%" y2="114.088235%" id="linearGradient-3">
            <stop stop-color="#0AA5DE" offset="0%"></stop>
            <stop stop-color="#1A4686" offset="100%"></stop>
        </linearGradient>
    </defs>
    <g id="OH" stroke="none" stroke-width="1" fill="none" fill-rule="evenodd">
        <path d="M23.6664716,8.63680183 L20.2012873,8.62875466 L20.12756,8.99087716 C20.6272674,9.09549032 21.217086,9.46565998 20.8074898,10.1094333 C20.7583382,10.1818578 16.0152136,17.7059585 16.0152136,17.7059585 L16.0315974,17.7059585 C16.6623757,17.7059585 17.3423054,17.6657227 18.046811,17.6013453 C18.1205383,17.5932982 18.2024576,17.585251 18.2761849,17.5772038 L19.144529,16.136761 L23.0848449,16.136761 C23.846694,15.7585442 24.5511995,15.3400915 25.1737858,14.8894502 L23.6664716,8.63680183 Z M20.2750146,14.2698184 L22.1673493,11.1636121 L22.863663,14.2698184 L20.2750146,14.2698184 Z M25.6243417,16.7563928 C25.050907,17.2231285 24.4037449,17.6657227 23.6992393,18.0600338 L23.7483909,18.2773073 L25.9929783,18.2773073 L25.6243417,16.7563928 Z M16.4903452,15.7183084 C16.8180222,14.0123091 15.6056173,13.0949321 13.6805149,12.5718663 C12.033938,12.1373193 11.6489175,11.9280929 11.7717964,11.2843196 L11.7799883,11.2601781 C11.8700995,10.7853953 12.3861908,10.4071785 13.229959,10.4071785 C14.0737273,10.4071785 14.8683441,10.769301 15.638385,11.3728384 L17.0883558,9.74731081 C16.2282036,8.95064133 15.0731422,8.5 13.6149795,8.5 C11.5751902,8.5 9.89584552,9.67488631 9.55178467,11.4533101 L9.54359274,11.4774516 C9.17495611,13.4329131 10.3709772,13.9720732 12.2878877,14.4790447 C13.7624342,14.8733559 14.1392627,15.2596199 14.0409596,15.7907329 L14.0327677,15.8148744 C13.9262727,16.3862232 13.3282621,16.6759212 12.4353423,16.6759212 C11.6653013,16.6759212 10.9607958,16.4506005 10.3545933,16.0804309 C11.4768871,16.9978078 13.0251609,17.5289208 14.9912229,17.6657227 C15.7121123,17.2794587 16.301931,16.6115439 16.4903452,15.750497 L16.4903452,15.7183084 Z" id="Shape" fill="url(#linearGradient-1)" fill-rule="nonzero"></path>
        <path d="M18.1041545,18.1163639 C12.689292,18.6635712 10.0433002,17.0943738 8.77355178,15.0906293 C9.15857226,17.8669017 12.7384435,19.9833065 17.8583967,19.4039105 C22.9783499,18.8164674 26.6483324,15.7263554 28,12.9018 C26.3042715,15.2354783 22.5196021,17.6657226 18.1041545,18.1163639 Z" id="Path" fill="url(#linearGradient-2)" fill-rule="nonzero"></path>
        <path d="M8.92100644,12.0166114 C9.29783499,10.06115 8.15096548,8.709226 5.82445875,8.709226 L0.729081334,8.709226 L0.655354008,9.06330133 C1.29432417,9.20010316 1.67934465,9.48980115 1.58104154,10.0209141 L8.8817842e-16,18.2853542 L2.14628438,18.2853542 L2.69514336,15.4125157 L4.32533645,15.4125157 C6.51258046,15.4125157 8.48683441,14.2617709 8.91281451,12.0488001 L8.92100644,12.0166114 Z M6.74195436,12.0568473 L6.73376243,12.0809888 C6.57811586,12.9017998 5.82445875,13.5294787 4.75950848,13.5294787 L3.05558806,13.5294787 L3.6208309,10.6003101 L5.27559977,10.6003101 C6.34874195,10.6083573 6.92217671,11.1153288 6.74195436,12.0568473 L6.74195436,12.0568473 Z" id="Shape" fill="url(#linearGradient-3)" fill-rule="nonzero"></path>
    </g>
</svg>