<?xml version="1.0" encoding="UTF-8"?>
<svg width="28px" height="28px" viewBox="0 0 28 28" version="1.1" xmlns="http://www.w3.org/2000/svg" xmlns:xlink="http://www.w3.org/1999/xlink">
    <title>OK</title>
    <g id="OK" stroke="none" stroke-width="1" fill="none" fill-rule="evenodd">
        <path d="M15.7633606,17.4084177 L10.6670679,17.4084177 L11.0764099,15.642825 L14.3548599,15.642825 C15.475558,15.6482399 16.0201269,14.6477814 15.2198475,14.0894348 C14.4343113,13.5310959 13.9244626,13.0858125 13.1452385,12.5205038 C11.5673149,11.3813155 12.3102389,8.72516378 14.9583566,8.71016448 L19.7642109,8.71016448 L19.3453971,10.4494949 L16.1211427,10.4494949 C15.2345832,10.4339463 15.0409602,11.4273963 15.614993,11.7912317 L17.6785502,13.3526592 C19.381173,14.6611795 18.3830701,17.4046659 15.7633606,17.4084177 L15.7633606,17.4084177 Z M21.6204728,26.8970231 C21.1043196,27.8711805 19.8857504,28.2757361 18.9060596,27.8015216 C13.6866476,25.270756 9.08650859,21.7229778 5.26349724,17.4084177 L10.0309552,17.4084177 L10.4560811,15.6567568 L7.44228937,15.6567568 C7.35705759,15.6559832 7.27076999,15.6590774 7.18553061,15.6481703 C6.73251315,15.5881421 6.46786241,15.3936386 6.31948725,15.1584073 C6.16953977,14.9231837 6.12534016,14.6563293 6.15848797,14.4430747 C6.16228584,14.3883841 6.31948725,13.7186142 6.32895914,13.662887 L6.33199743,13.645714 L6.78185507,11.8142296 L6.78261464,11.8142296 C6.98202557,10.9665335 7.67707366,10.459087 8.6062604,10.4339077 L11.6958044,10.4339077 L12.107258,8.69726153 L9.98318556,8.69726153 L7.30876388,9.71802587 L7.56553024,8.69726153 L7.18722446,8.69726153 C6.32959718,8.68650907 5.73030857,8.76425168 5.3093907,8.9641082 C4.92951261,9.14414617 4.64118595,9.44099917 4.52227466,9.88306453 L3.29054964,15.0260283 C2.21615516,13.637143 1.22909649,12.2005601 0.307809319,10.6857473 C-0.260435503,9.7528592 -0.0268209578,8.4663157 0.883946114,7.83455837 C7.91278463,2.9525468 16.2238598,0.202090622 24.734346,0.00061736133 C25.836632,-0.0266892469 26.7705433,0.855275521 26.8610465,1.96660806 C27.0415137,4.220873 27.0451976,6.48103245 26.8779091,8.72726786 L22.3382853,8.72494718 L18.034365,17.3894423 L21.1786439,17.3894423 L21.686381,16.2363221 C21.7358293,16.1195071 21.788445,16.082531 21.9368277,16.085223 L24.1919115,16.085223 C24.235587,16.0829023 24.3297665,16.1007715 24.333967,16.2132855 L24.3618433,17.3894423 L25.3815181,17.3894423 C24.4812711,20.6826966 23.2174693,23.8773609 21.6200702,26.8968065 L21.6200702,26.8968065 L21.6204728,26.8970231 Z M24.2806905,14.5164931 L24.1780948,10.9708654 C24.1735374,10.8465546 24.0697036,10.8374421 24.0149839,10.9617374 L22.4307407,14.54274 C22.3654933,14.6825916 22.4054468,14.8170824 22.5249278,14.8069101 L24.1144197,14.8069101 C24.251219,14.7983236 24.2948945,14.6874186 24.2806905,14.5164777 L24.2806905,14.5164777 L24.2806905,14.5164931 Z" id="Shape" fill="#EF001E"></path>
    </g>
</svg>