<?xml version="1.0" encoding="UTF-8"?>
<svg width="28px" height="28px" viewBox="0 0 28 28" version="1.1" xmlns="http://www.w3.org/2000/svg" xmlns:xlink="http://www.w3.org/1999/xlink">
    <title>OM</title>
    <g id="OM" stroke="none" stroke-width="1" fill="none" fill-rule="evenodd">
        <path d="M6.30842441,5.04188908 C6.14519227,5.09957799 5.90620035,5.33925546 5.81401539,5.53776589 C5.71879894,5.74280248 5.69923202,6.03799347 5.76405087,6.29226527 C5.81329885,6.48546117 5.9565507,6.81295245 5.9917987,6.81295245 C6.00400735,6.81295245 6.04369235,6.7569708 6.08001516,6.68854266 C6.16633004,6.52599486 6.32752282,6.38277766 6.4661723,6.34549327 C6.53071555,6.32811776 6.79368383,6.31757129 7.09471112,6.32026986 C7.42665965,6.3232438 7.65515158,6.31305531 7.73176569,6.29187976 C8.01661583,6.21309791 8.29319827,5.961387 8.45163514,5.63675952 C8.53902483,5.45763476 8.65232,5.13058406 8.63346963,5.11177665 C8.62793026,5.10624182 8.57121377,5.13463192 8.50741462,5.17486271 C8.18472592,5.37841232 7.88650965,5.37461229 7.27326609,5.15911184 C6.804735,4.99444373 6.53531791,4.96170287 6.30842441,5.04188908 M0.835063033,7.23288367 C0.829689022,7.25182877 0.810232346,7.32306562 0.791850473,7.3912184 C0.746212717,7.56031988 0.544397932,7.75607667 0.370555564,7.79980459 C0.300638302,7.8174004 0.185551788,7.83180197 0.114862873,7.83180197 C0.00333147442,7.83180197 -0.0110818988,7.8381629 0.00600470044,7.8799908 C0.0168078406,7.90648089 0.0650912631,8.07687659 0.113292009,8.25861731 L0.200929727,8.589055 L0.679657657,8.60282324 C1.09216123,8.61469146 1.15201945,8.62185094 1.112362,8.65467441 C1.08706281,8.67560213 0.952822773,8.81579032 0.814035493,8.966167 L0.561732563,9.23957665 L0.805133926,9.48390778 L1.04850773,9.72821138 L1.24379102,9.53038935 C1.35118857,9.42156521 1.50108214,9.30156125 1.57686947,9.2636986 C1.70234574,9.20099805 1.74544807,9.19496756 2.05915252,9.19609656 C2.37098296,9.19719802 2.41846717,9.20413721 2.55990011,9.26931604 C2.88551007,9.41936229 3.09961618,9.61269587 3.51429692,10.1310975 C4.10615467,10.8710026 4.41192212,11.0727623 4.98424052,11.1009872 C5.25834264,11.1145351 5.28774813,11.1107626 5.43507871,11.0433809 C5.52175186,11.0037284 5.65188561,10.9278378 5.72428318,10.8747475 C5.79668076,10.8216572 5.86739723,10.7782047 5.88142478,10.7782047 C5.92080663,10.7782047 6.44321563,11.3223804 6.58194779,11.5079212 C7.11802606,12.2247782 7.37829355,12.932025 7.47422654,13.9326454 C7.56586032,14.8886016 7.50969501,15.4847387 7.23041179,16.5195594 C6.97083328,17.4813809 6.95385692,17.5844224 6.95374668,18.1992843 C6.953664,18.7929156 7.00459309,19.127704 7.1681835,19.6090967 C7.50958478,20.6137649 8.10882835,21.3611599 9.48198463,22.4949742 C9.81214183,22.7675853 10.0937676,22.9947061 10.1078227,22.9998613 C10.1314132,23.0080888 10.5450743,22.6506379 11.4430026,21.845912 C11.6400497,21.6693205 12.3093759,21.073982 12.9303911,20.5229496 C15.5490778,18.1993118 15.9069042,17.8786221 15.8937861,17.8669741 C15.8862074,17.8602552 15.66918,17.8516914 15.4115031,17.847974 C15.0215428,17.842329 14.927787,17.832884 14.8522201,17.7917169 C14.7498108,17.735928 14.6538778,17.5968689 14.65374,17.5039883 L14.6536297,17.4420313 L15.3100307,17.4420313 C16.1839001,17.4420313 16.2385221,17.4261978 16.6850059,17.0437988 C17.5314264,16.3188736 18.7845356,15.2218755 18.785886,15.2046928 C18.7867679,15.1933202 17.715879,15.1840404 16.4061361,15.1840404 L14.0247878,15.1840404 L13.8311029,14.9706328 L13.6374456,14.7572251 L16.3433566,14.7426308 C18.9642756,14.7285045 19.0549724,14.7263016 19.2300549,14.6720823 C19.3294603,14.641269 19.4626255,14.5796974 19.5260113,14.5351985 C19.6968498,14.4152496 21.8973282,12.5852582 21.8996431,12.5611913 C21.9007455,12.5498188 19.8442355,12.540539 17.3296117,12.540539 L12.7575684,12.540539 L12.5825685,12.3594866 C12.4863324,12.2599148 12.3976474,12.1607835 12.3855215,12.1391949 C12.3664782,12.1052975 13.0291626,12.0999554 17.2536865,12.0999554 C22.0883398,12.0999554 22.1459382,12.099322 22.3247963,12.0441114 C22.5458473,11.9759036 22.5400323,11.9803094 23.6545195,11.0346518 C24.1509404,10.6134264 24.6510265,10.190356 24.7658099,10.0945291 C24.8805657,9.99867462 24.9786207,9.90885064 24.983664,9.89488965 C24.9892585,9.87944169 22.1020091,9.86950102 17.6069657,9.86950102 L10.2210903,9.86950102 L10.0397243,9.67093551 C9.93996061,9.56175339 9.85835832,9.4627047 9.85835832,9.45083648 C9.85835832,9.43899579 13.3126073,9.42916527 17.5344855,9.42902759 C22.6509023,9.42883483 25.2524748,9.41936229 25.3360614,9.40063749 C25.5485415,9.35305446 25.6486359,9.28363501 26.1752614,8.81854397 C26.4553714,8.57115629 26.9805088,8.10854353 27.3422762,7.79049726 L28,7.21223132 L19.9281803,7.20512691 C12.5796748,7.19865584 11.8366283,7.20201529 11.6359158,7.24260405 C11.2502272,7.32064241 10.9238456,7.50822087 10.364535,7.97336698 C9.79315366,8.44853637 9.36968158,8.60042756 8.87700878,8.5069137 C8.45047766,8.42595646 8.1096,8.23474319 8.12748581,8.08643175 C8.14324958,7.95544074 8.20638732,7.95205375 8.41385171,8.07103886 C8.72796954,8.25115493 8.84506787,8.28505233 9.15560303,8.2856306 C9.41779965,8.28612625 9.44125239,8.28122476 9.63788607,8.1848471 C9.75156708,8.12914082 9.9499921,7.99476282 10.0788306,7.88626912 C10.5548577,7.4853656 10.7299127,7.35330067 10.8711527,7.28842474 C10.9507432,7.2518563 11.0158376,7.21666469 11.0158376,7.21022115 C11.0158376,7.20375008 8.72736325,7.19846308 5.93034206,7.19846308 C1.88550306,7.19846308 0.84283468,7.20551242 0.835063033,7.23288367" id="Shape" fill="#014FA3"></path>
    </g>
</svg>