<?xml version="1.0" encoding="UTF-8"?>
<svg width="28px" height="28px" viewBox="0 0 28 28" version="1.1" xmlns="http://www.w3.org/2000/svg" xmlns:xlink="http://www.w3.org/1999/xlink">
    <title>OO</title>
    <g id="OO" stroke="none" stroke-width="1" fill="none" fill-rule="evenodd">
        <path d="M7.14395587,10.5 L6.50023969,13.1654474 L6.07591032,13.9125905 L7.29335872,12.4898514 L8.40643911,12.3670987 L9.85343875,12.207202 L9.96014118,14.3125576 L9.7874914,15.225276 L10.8508195,12.4985921 L12.4664323,12.2730549 L10.6410135,15.8917065 C10.586106,16.0013405 10.5312958,16.1109744 10.469531,16.2205514 C10.3391439,16.4911649 10.2087569,16.7686228 10.0098449,16.9884607 C9.54310686,17.5 8.95950199,17.5 8.54100866,17.5 C7.97841357,17.5 7.75197488,17.4708153 7.51191874,17.4414889 L7.51191874,17.4414889 L7.95025463,16.4142191 C8.04144289,16.4142191 8.12300167,16.4182034 8.3011957,16.4182034 C8.61011721,16.4182034 8.90916607,16.4201878 8.90916607,15.8645052 C8.90916607,15.7988492 8.87774867,15.5991921 8.87069678,15.5331112 L8.87069678,15.5331112 L8.47175422,12.8136757 L7.8908242,13.384332 L8.26121876,15.9281769 L6.66223868,15.9281769 L6.51132819,14.6195845 L6.01730666,15.1605733 L5.83210938,15.9281769 L4.27433667,15.9281769 L5.53860477,10.7242419 L7.14395587,10.5 Z M2.94395587,10.6354363 C4.10371979,10.6354363 4.92032404,10.9058426 4.92032404,11.8050898 C4.92032404,11.8828077 4.91706558,11.9706288 4.90943008,12.0557558 L4.90943008,12.0557558 L3.35553834,12.2730549 C3.37736516,12.1850783 3.38982999,12.0318187 3.38982999,11.9803695 C3.38982999,11.6148884 3.10857135,11.5274299 2.90968367,11.5274299 C2.51833284,11.5274299 2.36741748,11.7684588 2.36741748,11.9732194 C2.36741748,12.1047698 2.44281923,12.2144556 2.50473484,12.265594 C2.60769733,12.3679121 2.68994185,12.4044032 3.10150487,12.5579737 L3.10150487,12.5579737 L3.58890248,12.7481026 C3.97331814,12.9236517 4.55650476,13.1866592 4.55650476,14.0858184 C4.55650476,14.5758657 4.3572961,15.0655503 3.9458109,15.4457408 C3.32136341,16.0158944 2.53889032,16.0600951 2.04482016,16.0600951 C0.857758124,16.0600951 -1.03507805e-15,15.7745028 -1.1675624e-15,14.692686 L-1.1675624e-15,14.692686 L-1.1722394e-15,14.6544954 L1.66112914,14.4223937 C1.66112914,14.488029 1.6536055,14.5247014 1.6536055,14.5976629 C1.6536055,14.6999707 1.66745152,14.8025842 1.7087367,14.8900789 C1.77714492,15.0217329 1.94878798,15.1605733 2.20278741,15.1605733 C2.64198898,15.1605733 2.80666282,14.809527 2.80666282,14.5903782 C2.80666282,14.4660089 2.75177478,14.3491886 2.68319635,14.2761649 C2.580229,14.159184 2.44982735,14.1078385 2.0930551,13.9690188 L2.0930551,13.9690188 L1.61961538,13.7787915 C1.20096642,13.5958126 0.624447486,13.3329449 0.624447486,12.4778103 C0.624447486,11.9366402 0.885211869,11.3736522 1.42037267,11.015632 C1.94878798,10.6719637 2.580229,10.6354363 2.94395587,10.6354363 Z M20.0351066,12.16311 C20.9814705,12.16311 21.6669145,12.5304926 21.6669145,13.4572365 C21.6669145,13.8007545 21.5963469,14.0959994 21.5618656,14.2203065 L21.5618656,14.2203065 L19.2050259,14.5536435 C19.1734627,14.6916756 19.1328048,14.7930715 19.1191388,14.9700609 C19.0993935,15.2233123 19.2413067,15.3622925 19.4543711,15.3622925 C19.7542468,15.3622925 19.8873087,15.2196699 19.9957619,14.8751415 L19.9957619,14.8751415 L21.4603183,14.667894 C21.3763279,15.011956 21.2908298,15.2973878 21.017654,15.555639 C20.5988689,15.9518964 19.9639555,16.0379145 19.335413,16.0379145 C19.1363551,16.0379145 18.930294,16.0231999 18.7316738,15.9865689 C18.5049433,15.9428915 18.2786018,15.8770334 18.100116,15.7306647 C17.7021948,15.4238813 17.694997,14.9632425 17.694997,14.7878074 C17.694997,14.3491886 17.8600599,13.6180969 18.0654402,13.2012909 C18.3401235,12.6456083 18.8134757,12.16311 20.0351066,12.16311 Z M23.7068567,12.1559082 C24.6745708,12.1559082 25.3470295,12.3606222 25.3470295,13.0259594 C25.3470295,13.0546632 25.3432847,13.0981334 25.3382754,13.1444014 L25.3382754,13.1444014 L23.9863061,13.3334941 C23.9863061,13.2968631 24.0089208,13.1209825 24.0089208,13.0845121 C24.0089208,12.8722646 23.8784851,12.8066708 23.6794272,12.8066708 C23.480807,12.8066708 23.3227474,12.9015125 23.3227474,13.0697768 C23.3227474,13.2816822 23.5559948,13.362172 23.8713846,13.4645005 L23.8713846,13.4645005 L24.2901697,13.6034237 C24.5577526,13.7056486 25.0449654,13.8885083 25.0518714,14.5613946 C25.0518714,14.9923245 24.8049092,15.4530255 24.4345633,15.7162766 C24.0362043,15.9938122 23.4668005,16.0379145 23.0960655,16.0379145 C22.9792473,16.0379145 22.6501428,16.0379145 22.2796509,15.9720564 C21.7480355,15.8902506 21.4562961,15.6038448 21.4562961,15.1461385 C21.4562961,15.1140617 21.4560386,15.0849175 21.4571571,15.0566852 L21.4571571,15.0566852 L22.8056248,14.8682195 C22.7987675,14.9048919 22.7863172,14.9777498 22.7863172,15.0217329 C22.7863172,15.343433 23.0344466,15.3652303 23.1512648,15.3652303 C23.4120876,15.3652303 23.5353255,15.2045305 23.5353255,15.0581619 C23.5353255,14.846158 23.3569369,14.7805227 23.0484045,14.6709301 L23.0484045,14.6709301 L22.6159046,14.5026399 C22.3002717,14.3710481 21.8267736,14.1663704 21.8267736,13.5083593 C21.8267736,13.113335 22.032397,12.6604628 22.5407169,12.3972998 C22.8972022,12.207202 23.3088381,12.1559082 23.7068567,12.1559082 Z M27.7392745,11.2861937 L27.498878,12.2730549 L28,12.2730549 L27.8522993,12.8877875 L27.3514205,12.8877875 L26.9979991,14.3270287 C26.9363315,14.6270714 26.9156621,14.7218301 26.9156621,14.809527 C26.9156621,15.0655503 27.1557669,15.0655503 27.2522563,15.0655503 C27.33435,15.0655503 27.4028263,15.0581619 27.4852605,15.0434888 L27.4852605,15.0434888 L27.2861053,15.8696864 C27.0188143,15.9281769 26.7098928,15.9938122 26.3530184,15.9938122 C26.1539119,15.9938122 25.9621491,15.9720564 25.7764654,15.8988513 C25.3647808,15.7306647 25.2825898,15.4384923 25.2825898,15.1385118 C25.2825898,14.9413831 25.3238312,14.7585233 25.3717841,14.5538042 L25.3717841,14.5538042 L25.7397956,13.0309023 L26.5956035,12.8861502 L25.4158949,12.8877875 L25.5706961,12.2730549 L25.9274732,12.2730549 L26.10557,11.5142179 L27.7392745,11.2861937 Z M18.9943446,10.5 L16.8570863,15.9281769 L14.7644251,15.9281769 L14.894569,13.9983029 C14.9292449,13.5741967 14.9428137,13.4572365 14.9908638,13.0549223 C14.8809029,13.362172 14.8397588,13.4720495 14.7096149,13.8007545 L13.7897077,15.9281769 L11.6899947,15.9281769 L11.904129,13.6700694 L12.6851382,12.1073604 L12.043951,12.196995 L12.1822654,10.7390601 L13.8937839,10.5 L13.5245566,13.3525609 L13.2601836,14.6022794 L14.869474,10.6969888 L16.280047,10.5 L16.0953847,13.1793952 C16.0951901,13.1826749 16.0951901,13.1854468 16.0948011,13.1889286 L15.8909771,14.6162427 L17.2588982,10.7425315 L18.9943446,10.5 Z M20.0038351,12.8652234 C19.5392856,12.8652234 19.4632711,13.4277089 19.3357048,13.9330925 L19.3357048,13.9330925 L20.1912695,13.8119459 C20.233435,13.6671317 20.3127566,13.3641771 20.3127566,13.2012909 C20.3127566,12.9671892 20.189081,12.8652234 20.0038351,12.8652234 Z" id="Combined-Shape" fill="#1C4E9C" fill-rule="nonzero"></path>
    </g>
</svg>