<?xml version="1.0" encoding="UTF-8"?>
<svg width="28px" height="28px" viewBox="0 0 28 28" version="1.1" xmlns="http://www.w3.org/2000/svg" xmlns:xlink="http://www.w3.org/1999/xlink">
    <title>OS</title>
    <g id="OS" stroke="none" stroke-width="1" fill="none" fill-rule="evenodd">
        <path d="M3.87512653,10.4927707 C1.79629317,11.0102841 1.40473454,11.1391369 1.65925161,11.2221321 C1.72095992,11.2422191 2.81998572,11.4003461 4.10144315,11.5734215 L6.43138735,11.8881961 L7.14495405,11.5724093 C8.6892461,10.8889055 9.91620376,10.6097114 10.2350432,10.8692077 C11.0803441,11.5573051 7.54261222,15.1454863 1.45463985,19.7750006 C0.670413567,20.371305 0.0168916668,20.8910762 0.00239536282,20.9299267 C-0.0121801559,20.9687772 0.0412898177,21.0003091 0.121217526,21 C0.348009429,20.9991413 4.35390064,20.3041925 4.44262119,20.2503157 C4.4861101,20.2239223 4.9755782,19.8301231 5.53031927,19.3752065 C11.7594524,14.267185 19.1574787,10.1621912 26.6053311,7.68128783 C27.8703911,7.25984958 28.0604274,7.17374008 27.9860447,7.05539792 C27.9366147,6.97676267 27.4810505,6.98096693 26.0112203,7.07361638 C18.3308725,7.55796283 11.3058686,8.64305148 3.87512653,10.4927707 Z" id="Path" fill="#D81E04"></path>
    </g>
</svg>