<?xml version="1.0" encoding="UTF-8"?>
<svg width="28px" height="28px" viewBox="0 0 28 28" version="1.1" xmlns="http://www.w3.org/2000/svg" xmlns:xlink="http://www.w3.org/1999/xlink">
    <title>OU</title>
    <g id="OU" stroke="none" stroke-width="1" fill="none" fill-rule="evenodd">
        <path d="M0,5.5 L14.7307942,18.6598884 L14.7307942,16.6568673 L12.5111959,16.6568673 L12.5111959,14.1975366 L14.7307942,14.1975366 L14.7307942,11.8962352 L16.9282166,11.8962352 L16.9282166,9.56332791 L19.369573,9.56332791 L19.369573,7.31536138 L21.8149615,7.31536138 L21.8149615,9.51789449 C23.1370018,7.98285494 24.5224278,7.22251854 24.5224278,7.22251917 L21.9903521,7.22251917 L21.9903521,5.5 L19.2365181,5.5 L19.2365181,7.14350453 L17.2931097,7.14350453 L17.3031896,5.5 L14.3659011,5.5 L14.3659011,7.00127818 L12.7712578,7.00127818 L12.7712578,5.5 L9.55777954,5.5 L9.55777954,6.77213572 L8.27762978,6.77213572 L8.27762978,5.5 L0,5.5 Z M24.6695946,5.5 L24.6695946,7.11980014 C24.6695946,7.11980014 26.1830018,6.18477881 28,5.5 L24.6695946,5.5 Z M14.9404565,7.55438066 L16.8536252,7.55438066 L16.8536252,9.42702766 L14.9404565,9.42702766 L14.9404565,7.55438066 Z M10.4468284,7.70253312 L12.0152639,7.70253312 L12.0152639,9.23739252 L10.4468284,9.23739252 L10.4468284,7.70253312 Z M6.04795162,7.85068557 L7.30995752,7.85068557 L7.30995752,9.08924007 L6.04795162,9.08924007 L6.04795162,7.85068557 Z M19.4502124,9.74506158 L19.4502124,11.7204276 L20.4521564,11.7204276 C20.8499084,10.7731558 21.6456188,9.74506158 21.6456188,9.74506158 L19.4502124,9.74506158 Z M12.626107,9.78061817 L14.5574195,9.78061817 L14.5574195,11.6690681 L12.626107,11.6690681 L12.626107,9.78061817 Z M8.18892649,9.98605624 L9.77752178,9.98605624 L9.77752178,11.5367186 L8.18892649,11.5367186 L8.18892649,9.98605624 Z M17.0068399,12.0285847 L17.0068399,14.1165466 L19.1397509,14.1165466 L19.1397509,12.0285847 L17.0068399,12.0285847 Z M10.370221,12.0799442 L12.2813737,12.0799442 L12.2813737,13.9506158 L10.370221,13.9506158 L10.370221,12.0799442 Z M14.8074015,14.3674181 L14.8074015,16.2914246 L16.748794,16.2914246 L16.748794,14.3674181 L14.8074015,14.3674181 Z M17.3233494,16.7299558 L17.3233494,18.2430862 L18.9683923,18.2430862 L18.9683923,16.7299558 L17.3233494,16.7299558 Z M15.1420549,19.0194051 L16.7387141,20.4515454 L16.7387141,19.0194051 L15.1420549,19.0194051 Z M17.5995392,21.2160121 L19.0329037,22.5 L19.0329037,21.2160121 L17.5995392,21.2160121 Z" id="path1378" fill="#DB0038" fill-rule="nonzero"></path>
    </g>
</svg>