<?xml version="1.0" encoding="UTF-8"?>
<svg width="28px" height="28px" viewBox="0 0 28 28" version="1.1" xmlns="http://www.w3.org/2000/svg" xmlns:xlink="http://www.w3.org/1999/xlink">
    <title>OY</title>
    <g id="OY" stroke="none" stroke-width="1" fill="none" fill-rule="evenodd">
        <path d="M5.36547972,10.5041352 C6.25932284,10.4590775 7.13091833,10.804641 7.77219702,11.458332 C8.3891674,12.1469053 8.71219346,13.0686786 8.6670245,14.0117734 C8.6682826,14.2132753 8.6568414,14.4146444 8.63277551,14.614568 L8.63277551,14.614568 L8.60113872,14.7626068 C8.98890697,14.7370724 9.37667522,14.7142738 9.76676544,14.6911713 L9.76676544,14.6911713 L9.82771703,14.5391807 L11.0493612,11.5945155 C11.1126347,11.4464767 11.1785205,11.2881025 11.2444063,11.1221288 C11.310292,10.9561551 11.3761778,10.781062 11.4420636,10.5986733 L11.4420636,10.5986733 L12.5934683,10.5986733 L14.125385,14.3042033 L14.1834342,14.4446426 C15.1847818,14.3927631 16.1829368,14.3451394 17.177899,14.3017714 L17.177899,14.3017714 L17.177899,14.1589003 L17.180221,11.7504578 C17.2122469,11.5086142 17.1398017,11.2643926 16.9825637,11.0841312 C16.7436037,10.9448084 16.4694856,10.8859044 16.1974491,10.9154217 L16.1974491,10.9154217 L16.1974491,10.6804443 L19.606675,10.6865239 L19.606675,10.9202854 C19.3330663,10.8909542 19.0574289,10.9498147 18.8166262,11.0889949 C18.6585655,11.2679812 18.5841878,11.5110213 18.6134542,11.7528897 L18.6134542,11.7528897 L18.6111323,14.099928 L18.6154859,14.2409752 C19.8443862,14.191325 21.0611929,14.1462344 22.265906,14.1057036 C22.0244216,14.3765508 21.7855494,14.647094 21.544065,14.9179412 C20.5784176,14.9513791 19.6005798,14.9817772 18.6154859,15.017647 L18.6154859,15.017647 L18.613164,16.4275115 C18.5848427,16.6681375 18.6598974,16.9095241 18.8180774,17.0865426 C19.0561686,17.2285328 19.3306187,17.2892083 19.603192,17.2601158 L19.603192,17.2601158 L19.603192,17.4899255 L16.1965783,17.4874937 L16.1965783,17.2576839 C16.4683343,17.2878141 16.7423735,17.2298821 16.9816929,17.0917102 C17.1379796,16.9106724 17.2110178,16.6671997 17.1816722,16.4250796 L17.1816722,16.4250796 L17.1816722,15.0690198 C16.2868447,15.1021538 15.389405,15.1404554 14.4896434,15.178757 L14.4896434,15.178757 L14.9540365,16.3101748 C15.0202341,16.4810741 15.0997392,16.6459823 15.1917477,16.8032321 C15.2513286,16.909445 15.3302155,17.0023925 15.4239443,17.0768152 C15.4936434,17.1266829 15.5700409,17.1654088 15.6506262,17.19172 C15.7436143,17.2172486 15.8395393,17.2291161 15.9356474,17.2269818 L15.9356474,17.2269818 L15.9356474,17.4850618 L12.7429448,17.48263 L12.747879,17.2424849 C12.9456673,17.2463471 13.1416688,17.2026711 13.320824,17.1148128 C13.4392697,17.0503872 13.5115299,16.9201089 13.506291,16.7804336 C13.5053935,16.7398174 13.4996405,16.699479 13.4891665,16.660361 C13.4742356,16.6031358 13.45631,16.5468142 13.435471,16.4916515 C13.2820278,16.0770212 13.1272301,15.6615804 12.9710779,15.2453289 C12.0565137,15.29123 11.1422398,15.339867 10.2326098,15.3933677 C10.1080944,15.7049483 9.98386922,16.0140971 9.86428799,16.3256778 C9.84065711,16.3828044 9.82125033,16.4417474 9.80623885,16.5019868 C9.79413647,16.5598814 9.78839103,16.6190349 9.78911435,16.6782959 C9.77994598,16.8311177 9.83838403,16.979867 9.9475885,17.0816789 C10.0804859,17.1842051 10.2438272,17.2339752 10.4084987,17.2221181 L10.4084987,17.2221181 L10.5036993,17.2221181 L10.5036993,17.4838459 L8.04822068,17.481414 L8.04822068,17.241269 C8.28686436,17.2118066 8.51007733,17.1025404 8.68472948,16.9296883 C8.95507579,16.5803646 9.16829415,16.1865444 9.31572363,15.7642246 L9.31572363,15.7642246 L9.44981714,15.4398768 L8.41334976,15.5088805 C8.26794508,15.8978542 8.04807193,16.2515476 7.76726284,16.548192 C7.12510405,17.1997583 6.25350502,17.5429013 5.36054554,17.4957012 C4.4655423,17.5416385 3.59238513,17.1970446 2.94889406,16.5439362 C2.73602757,16.3185469 2.5575643,16.060176 2.41977616,15.7779038 C-1.61899269,15.1906123 -0.160217826,11.5027132 3.55376609,10.9637547 C0.700650905,12.0161373 -0.637962241,14.3145386 2.14404275,14.9073018 L2.14404275,14.9073018 L2.11966211,14.8230991 C2.07259946,14.5491604 2.0497668,14.2712587 2.05145437,13.9929266 C2.00790658,13.0522576 2.33399113,12.1339322 2.95382824,11.4516444 C3.59843469,10.8008107 4.47119818,10.4579123 5.36547972,10.5041352 Z M24.0172486,11.8261491 L24.0271169,11.828581 L24.0369853,11.8337487 L24.0442414,11.8389163 L24.0491756,11.8465159 L25.3636984,13.3916519 L25.373396,13.4021491 L25.484396,13.3951491 C25.5026872,13.3720498 25.525382,13.3546948 25.550893,13.3442348 L25.5909607,13.3338955 L25.8176426,13.3083611 C25.8326893,13.3063188 25.8469119,13.3129906 25.8556561,13.3246597 L25.8640819,13.3454468 L25.8713381,13.5497221 C25.8712656,13.5644048 25.8643017,13.5775477 25.85349,13.5855333 L25.8347671,13.5931914 L25.563396,13.6201491 L25.8661136,13.9801594 L26.8172488,13.9163234 C26.8172488,13.9163234 27.7901524,13.8369843 28,14.1409654 C28,14.1409654 28.0304782,14.3976939 27.0275353,14.5115625 L26.850627,14.5291493 L25.894848,14.5929854 L25.618396,15.0141491 L25.9349019,14.9887688 C25.9473455,14.9881667 25.9586366,14.994438 25.9653246,15.0044562 L25.9714728,15.0219027 L25.9909208,15.2313457 C25.991032,15.2442053 25.9850447,15.2557854 25.9756333,15.2628475 L25.9592825,15.2696474 L25.6980614,15.2951818 C25.6640842,15.2980795 25.6305057,15.2859085 25.6055074,15.2616344 L25.6001326,15.256081 L25.453396,15.2651491 L24.3513214,16.950359 L24.3463872,16.9579585 L24.339131,16.9655581 L24.3318749,16.9707257 L24.3220066,16.9731576 L24.3147504,16.9731576 L24.073266,16.9883567 L24.6903283,15.3359152 L24.7292213,14.8379942 L24.7170309,14.6644209 L24.2172279,14.6923872 L23.7220687,14.6592532 L23.0835282,15.5736285 L22.7837044,15.6015947 L23.030123,14.6133521 L22.9105417,14.598153 L22.9082198,14.5878177 L22.6594792,14.5546837 L22.6594792,14.5419165 L22.608396,14.5215498 L22.6594792,14.4984472 L22.6618012,14.4832482 L22.9006734,14.3990454 L22.9006734,14.3862782 L23.0202546,14.3352094 L22.6594792,13.3852683 L22.9546591,13.374933 L23.6341243,14.1783551 C23.8655612,14.1381115 24.098304,14.1068809 24.3318718,14.0847184 L24.682782,14.0582826 L24.6682697,13.8284728 L24.5829374,13.4044192 L23.768508,11.8413482 L24.0099924,11.8261491 L24.0172486,11.8261491 Z M6.99898249,15.6104102 C6.23824852,15.6693825 5.48215849,15.7304827 4.73361484,15.7994865 C4.4094104,15.8298846 4.10204021,15.8478195 3.81440672,15.8529871 C3.85591186,15.9399257 3.89973896,16.0241285 3.94617827,16.1007318 C4.24426668,16.6151258 4.78659729,16.9181811 5.36054554,16.8910827 L5.50264749,16.8914501 C6.02040655,16.8680266 6.49707048,16.574923 6.76765667,16.1043795 L6.76765667,16.1043795 C6.86172008,15.9488184 6.93875024,15.7830873 6.99898249,15.6104102 Z M5.50758716,11.1018567 L5.22368063,11.1015228 C4.70591639,11.1251518 4.22859151,11.4156347 3.95372466,11.8832976 C3.48062417,12.6520659 3.34159648,13.8783257 3.52938545,14.9188531 L3.52938545,14.9188531 L3.56363444,15.0447013 C3.90757559,15.049869 4.28547548,15.0395336 4.69762437,15.0115674 C5.52250264,14.9546216 6.35318582,14.899297 7.18967391,14.8455937 L7.18967391,14.8455937 L7.2239229,14.6975549 C7.35801641,13.7096162 7.20824963,12.5982612 6.77288109,11.8857294 C6.47518844,11.3754999 5.93613415,11.0751676 5.36576996,11.1017621 Z M11.7105409,11.8653627 C11.3398971,12.7414363 10.9669314,13.6147741 10.6035438,14.4932796 L10.6035438,14.4932796 L10.5425922,14.6416223 C11.2627885,14.5998756 11.9837588,14.5598514 12.7055031,14.5215498 L12.7055031,14.5215498 L12.6518076,14.3811105 C12.3389228,13.5417173 12.0251672,12.7031347 11.7105409,11.8653627 Z" id="Combined-Shape" fill="#AF1010" fill-rule="nonzero"></path>
    </g>
</svg>