<?xml version="1.0" encoding="UTF-8"?>
<svg width="28px" height="28px" viewBox="0 0 28 28" version="1.1" xmlns="http://www.w3.org/2000/svg" xmlns:xlink="http://www.w3.org/1999/xlink">
    <title>OZ</title>
    <g id="OZ" stroke="none" stroke-width="1" fill="none" fill-rule="evenodd">
        <path d="M0,11.1633987 C0,11.5294118 0,11.8954248 0.184210526,12.2614379 C0.921052632,13.9084967 2.57894737,15.0065359 4.78947368,14.0915033 C5.34210526,13.9084967 20.0789474,8.05228758 20.0789474,8.05228758 C20.0789474,8.05228758 14.3684211,22.6928105 14,23.2418301 C13.0789474,25.254902 14.1842105,27.2679739 15.8421053,27.8169935 C16.2105263,28 16.5789474,28 16.9473684,28 C18.4210526,28 19.5263158,27.0849673 20.2631579,25.620915 C20.4473684,25.4379085 27.6315789,5.67320261 27.8157895,5.12418301 C27.8157895,4.75816993 28,4.20915033 28,3.66013072 C28,2.74509804 27.6315789,1.83006536 26.8947368,1.09803922 C26.1578947,0.366013072 25.2368421,0 24.3157895,0 C23.7631579,0 23.3947368,0 22.8421053,0.183006536 C22.6578947,0.366013072 4.05263158,7.32026144 2.39473684,7.86928105 C0.736842105,8.41830065 0,9.69934641 0,11.1633987" id="Path" fill="#E41E26" fill-rule="nonzero"></path>
    </g>
</svg>