<?xml version="1.0" encoding="UTF-8"?>
<svg width="28px" height="28px" viewBox="0 0 28 28" version="1.1" xmlns="http://www.w3.org/2000/svg" xmlns:xlink="http://www.w3.org/1999/xlink">
    <title>P6</title>
    <g id="P6" stroke="none" stroke-width="1" fill="none" fill-rule="evenodd">
        <path d="M19.947562,0 C19.0841257,0 18.3860282,0.713615023 18.3860282,1.59624413 C18.3860282,2.15962441 18.679964,2.657277 19.1116822,2.93896714 L17.1643576,7.66197183 L15.7038642,7.66197183 L8.41976808,24.8544601 C8.30035667,24.8262911 8.18094525,24.8075117 8.06153384,24.8075117 C7.19809748,24.8075117 6.5,25.5211268 6.5,26.4037559 C6.5,27.286385 7.19809748,28 8.06153384,28 C8.9249702,28 9.62306769,27.286385 9.62306769,26.4037559 C9.62306769,25.8403756 9.3291319,25.342723 8.89741372,25.0610329 L10.8447383,20.3286385 L12.5073125,20.3286385 L19.5801423,3.14553991 C19.6995537,3.17370892 19.8189651,3.19248826 19.9383765,3.19248826 C20.8018129,3.19248826 21.5,2.47887324 21.5,1.59624413 C21.5090959,0.713615023 20.8109984,0 19.947562,0 Z" id="Path" fill="#31ADD1" fill-rule="nonzero"></path>
    </g>
</svg>