<?xml version="1.0" encoding="UTF-8"?>
<svg width="28px" height="28px" viewBox="0 0 28 28" version="1.1" xmlns="http://www.w3.org/2000/svg" xmlns:xlink="http://www.w3.org/1999/xlink">
    <title>PC</title>
    <g id="PC" stroke="none" stroke-width="1" fill="none" fill-rule="evenodd">
        <path d="M16.5128519,16.0443308 L16.6816329,15.5218035 C16.7110287,15.432326 16.7901524,15.3808167 16.8589876,15.4068369 C16.896651,15.4211745 16.9234287,15.4534342 16.9352904,15.495327 L16.9420308,15.5401238 C16.9432556,15.554727 16.9454603,15.5738438 16.9559938,15.5916331 C17.1064023,15.8818376 17.4515582,16.0756612 17.866774,16.0440653 C18.224423,16.0167176 18.3652779,15.7655434 18.3456807,15.4631254 C18.3383318,15.3494863 18.2677818,15.2342542 18.2418155,15.1954894 L17.4471488,14.1560105 L17.4471488,14.1560105 C17.2798376,13.9112085 17.1703382,13.6146318 17.1492712,13.2893798 C17.0902346,12.3752224 17.7158755,11.5842626 18.7221921,11.5080607 C19.3549369,11.4586755 19.852461,11.6397546 20.2289724,11.9541206 L20.0623961,12.4684171 C20.0334902,12.5578946 19.9541215,12.6094039 19.8855313,12.5833837 C19.8478679,12.5690461 19.8210902,12.5367864 19.8092285,12.4950056 L19.8024881,12.4503623 C19.8012633,12.4354936 19.7988137,12.4163768 19.7885251,12.3985875 C19.6359119,12.1113036 19.3483229,11.9243833 18.9355567,11.9559792 C18.5776627,11.9830614 18.3780161,12.2557421 18.3981033,12.5717012 C18.4022677,12.6335655 18.4164757,12.6917126 18.4368078,12.746408 C18.4796766,12.857923 18.533324,12.9638622 18.5989746,13.0589155 L19.2062431,13.8512029 L19.3534978,14.0715328 C19.4748698,14.2640792 19.5824045,14.4784936 19.5974524,14.7111958 C19.656244,15.6248221 19.0306031,16.4155164 18.0245315,16.4919838 C17.3917867,16.5413691 16.8896082,16.3589624 16.5128519,16.0443308 Z M24.2838795,16.0443308 L24.4526605,15.5218035 C24.4815664,15.432326 24.5609351,15.3808167 24.6300152,15.4068369 C24.6674949,15.4211745 24.6942267,15.4534342 24.7060769,15.495327 L24.7128134,15.5401238 C24.7140382,15.554727 24.7162429,15.5738438 24.7267764,15.5916331 C24.877185,15.8818376 25.2223408,16.0756612 25.6375566,16.0440653 C25.9952057,16.0167176 26.1360606,15.7655434 26.1167084,15.4631254 C26.1093594,15.3494863 26.0388095,15.2342542 26.0128432,15.1954894 L25.2179314,14.1560105 L25.2179314,14.1560105 C25.0506203,13.9112085 24.9411209,13.6146318 24.9200539,13.2893798 C24.8610173,12.3752224 25.4866582,11.5842626 26.4929748,11.5080607 C27.1254746,11.4586755 27.6229987,11.6397546 28,11.9541206 L27.8331788,12.4684171 C27.8042729,12.5578946 27.7251492,12.6094039 27.656069,12.5833837 C27.6184056,12.5690461 27.5916279,12.5367864 27.5797662,12.4950056 L27.5730258,12.4503623 C27.572046,12.4354936 27.5695963,12.4163768 27.5593078,12.3985875 C27.4066945,12.1113036 27.1191055,11.9243833 26.7060944,11.9559792 C26.3484453,11.9830614 26.1487988,12.2557421 26.1691309,12.5717012 C26.1730503,12.6335655 26.1872583,12.6917126 26.2073455,12.746408 C26.2504593,12.857923 26.3041067,12.9638622 26.3695123,13.0589155 L26.9772707,13.8512029 L27.1242998,14.0715328 C27.2456075,14.2640792 27.3532922,14.4784936 27.3679901,14.7111958 C27.4272716,15.6248221 26.8016308,16.4155164 25.7953142,16.4919838 C25.1625693,16.5413691 24.6606359,16.3589624 24.2838795,16.0443308 Z M22.2908436,12.1484753 L21.4444892,14.2646048 C21.3707547,14.4504631 21.2313695,14.8094352 21.2235306,15.0590163 C21.2235306,15.2549641 21.3357247,15.3943578 21.4824587,15.4365742 C21.5260625,15.4477257 21.5811797,15.4639219 21.628213,15.4639219 C21.866564,15.4639219 22.0733146,15.3078009 22.1622369,15.08424 L23.5222831,11.6657747 L25.0846704,11.6660402 C25.1042676,11.6652437 25.1238648,11.6686954 25.1429721,11.6774572 C25.214012,11.7101152 25.2448776,11.7977341 25.2167066,11.8749981 C25.2027436,11.9130326 25.1785839,11.9380737 25.1401971,11.9518015 L25.0969187,11.9618204 C24.9803153,11.9817338 24.9323021,12.0396154 24.8889433,12.1503339 L24.1160785,14.0872429 C23.712621,15.2132787 22.6996903,16.0068937 21.5182237,16.0068937 C21.1275043,16.0068937 20.7593218,15.9094508 20.4269042,15.7366026 C20.1128589,15.5613648 19.8953299,15.2069064 19.8953299,14.7980182 C19.9034138,14.3785094 19.9925811,13.9714797 20.147399,13.6117112 L20.7607916,12.0717424 C20.7634862,12.064308 20.7656909,12.0552806 20.7656909,12.0465187 C20.7666095,12.0056963 20.7449301,11.9796595 20.7236985,11.964264 L20.7034698,11.952262 C20.6466379,11.928366 20.610628,11.8773877 20.610628,11.816851 C20.610628,11.7334802 20.6853423,11.6660402 20.7774492,11.6660402 L22.484366,11.6660402 C22.5039632,11.6652437 22.5233154,11.6686954 22.5424227,11.6774572 C22.6134626,11.7101152 22.6443282,11.7977341 22.6161572,11.8749981 C22.6021942,11.9130326 22.5780345,11.9380737 22.5396477,11.9518015 L22.4963693,11.9618204 C22.3797659,11.9817338 22.3342024,12.0380224 22.2908436,12.1484753 Z M13.7413169,13.662955 L14.5631747,13.662955 L14.3392767,12.6128555 L13.7413169,13.662955 Z M1.61676961,15.8271421 L0,15.8271421 L1.51461917,12.0106746 C1.51706882,12.0029748 1.51951847,11.9936819 1.51976343,11.985451 C1.52049833,11.9444294 1.49891078,11.9183429 1.47773661,11.9029349 L1.4575423,11.8909288 C1.4007104,11.8670327 1.3642106,11.8160544 1.3642106,11.7552522 C1.3642106,11.672147 1.43916992,11.604707 1.53152176,11.604707 L3.17940194,11.604707 L4.12276251,11.6078931 C4.40986159,11.6078931 4.66364543,11.7910963 4.76947035,12.0600598 C4.82997673,12.2236151 4.86157723,12.400446 4.86157723,12.5878974 C4.86157723,12.8826156 4.77779916,13.1563583 4.63596438,13.3831054 C4.3319627,13.8713818 3.8337037,14.1639758 3.29576035,14.1639758 L2.15691764,14.1639758 L1.65302444,15.4469292 C1.65057479,15.454098 1.64641039,15.4633909 1.64641039,15.4721528 C1.64641039,15.5026866 1.66649752,15.5292378 1.6905041,15.5409204 C1.74782593,15.5645509 1.7838358,15.6157947 1.7838358,15.6760659 C1.7838358,15.7597021 1.70912145,15.8271421 1.61676961,15.8271421 Z M2.36146349,13.6653446 L3.00033245,12.0566082 L3.10078345,12.0566082 C3.11515984,12.0571558 3.12795927,12.0580685 3.13653304,12.0595288 C3.20659306,12.0714768 3.25999545,12.0892661 3.31535756,12.1243137 C3.57110112,12.287338 3.59069833,12.7501252 3.35896135,13.1582169 C3.18332138,13.4680692 2.92806775,13.6613619 2.61083796,13.6637515 L2.36146349,13.6653446 Z M6.27037147,13.8822678 L5.67731098,15.375241 L7.06503823,15.376303 C7.15342164,15.376303 7.21922906,15.3499642 7.27399934,15.2839643 L7.31318787,15.2268198 C7.34601319,15.1654866 7.40872426,15.1317666 7.46653602,15.1317666 C7.54370002,15.1317666 7.60592116,15.1992066 7.60592116,15.2825773 C7.60592116,15.3051458 7.60102185,15.3261213 7.59293801,15.3452381 L7.39917062,15.8279387 L3.93928365,15.8279387 L5.44165456,12.052891 L5.44581897,11.9896992 L5.44581897,11.9896992 C5.44269567,11.9448941 5.40622649,11.9159201 5.37795599,11.8993049 L5.35395706,11.8866806 C5.29688019,11.8627845 5.26087033,11.8118062 5.26087033,11.751004 C5.26087033,11.6678988 5.32480622,11.6039105 5.43210093,11.6039105 L8.58308691,11.6039105 L8.34571574,12.1999846 C8.3094609,12.2915862 8.22274326,12.3393783 8.15219331,12.3064548 C8.11379503,12.2883337 8.08793591,12.2522904 8.07823299,12.2073982 L8.07404945,12.1598923 C8.07380448,12.131217 8.06547567,12.0813008 8.01868734,12.0608564 L7.99125125,12.0560772 L7.99125125,12.0560772 L6.99865269,12.0560772 L6.43915242,13.4635555 L7.27350353,13.4624935 C7.34895277,13.4567584 7.39884726,13.4489843 7.4447596,13.3958054 L7.47878427,13.3467303 C7.51111967,13.2856626 7.57407569,13.2516771 7.63213242,13.2516771 C7.7088065,13.2516771 7.75779951,13.3191171 7.75779951,13.4024878 C7.75779951,13.4250563 7.75290021,13.4460318 7.74481636,13.4651486 L7.51871358,14.0256442 C7.48245875,14.1177768 7.39549614,14.1653034 7.3249462,14.1326454 C7.27350353,14.1087494 7.25831569,14.0524609 7.26052038,13.9863484 C7.26027541,13.9576731 7.25170163,13.9074914 7.20515826,13.887047 L7.18605099,13.8830643 L7.18605099,13.8830643 L6.27037147,13.8822678 Z M14.9551189,15.8260801 C14.8627671,15.8260801 14.7895225,15.7594366 14.7895225,15.6760659 C14.7895225,15.6306634 14.809778,15.5906375 14.8438818,15.563493 L14.8823643,15.5409204 C14.9066158,15.5289723 14.947035,15.5005626 14.9445854,15.4461326 L14.9416458,15.4251572 L14.9416458,15.4251572 L14.6724292,14.1759239 L13.4493185,14.1759239 L12.7416143,15.4185194 L12.7350003,15.443212 L12.7350003,15.443212 C12.7342654,15.4844327 12.7561285,15.5104197 12.7773371,15.5256534 L12.7974664,15.5374687 C12.8545432,15.5613648 12.891043,15.611812 12.891288,15.6726142 C12.8917779,15.7557195 12.8173085,15.8236905 12.7252017,15.8242215 L11.9988802,15.8260801 C11.979038,15.8268766 11.9591958,15.8226284 11.9398436,15.8138666 C11.8690487,15.7814741 11.8359784,15.6927931 11.8661091,15.6163257 C11.8886459,15.5581786 11.937149,15.5366722 12.0018197,15.5281758 C12.0929468,15.5122451 12.1392452,15.4748079 12.1818691,15.4057748 L14.3983132,11.6055035 L15.7559098,11.605238 C15.8480167,11.605238 15.922486,11.6745366 15.922486,11.7579073 C15.922486,11.8033099 15.9020927,11.8433358 15.8679201,11.8705922 L15.8293993,11.8933184 C15.8049028,11.9052664 15.7679131,11.9326141 15.7691379,11.9873096 L16.5936904,15.8260801 L14.9551189,15.8260801 Z M10.8059002,13.6480863 L12.4576998,13.6483518 C12.477052,13.6475553 12.4966492,13.6510069 12.5162464,13.6600343 C12.5867964,13.6924268 12.6181519,13.7800457 12.589491,13.8575751 C12.5757117,13.8956097 12.551598,13.9206508 12.5131193,13.9343786 L12.4697031,13.9443975 C12.3533446,13.9643109 12.3065563,14.0179443 12.2631975,14.1281317 L11.593218,15.8112114 L10.231702,15.8112114 L10.1741352,15.6973068 C9.79982852,15.8661724 9.48161887,15.9314883 9.04680583,15.9314883 C8.35551434,15.9314883 7.79062484,15.3242627 7.79062484,14.5752537 C7.79062484,14.5287891 7.79111477,14.4828556 7.79552414,14.4379841 C7.9726339,12.7888899 9.26139525,11.5000953 10.8303967,11.5000953 C11.5863589,11.5000953 12.0170076,11.6511716 12.6492625,11.9846545 L12.4821963,12.4169078 L12.4635789,12.4532829 L12.4635789,12.4532829 C12.420955,12.5207229 12.3482004,12.5533809 12.2884289,12.523378 C12.2134696,12.4864719 12.2306171,12.4362901 12.1950972,12.3534504 C12.1370405,12.2172429 12.0601214,12.1739644 12.0111284,12.1373238 C11.7656734,11.9695203 11.600077,11.963148 11.4325209,11.963148 C11.0364123,11.963148 10.6777834,12.1240482 10.4034225,12.3892945 C9.86405392,12.9072841 9.47287908,13.5891887 9.31897622,14.4116691 L9.2800126,14.6626071 C9.27609316,14.6910169 9.27388847,14.7199577 9.27388847,14.749695 C9.27388847,15.0823814 9.5186086,15.3563896 9.82579482,15.3563896 C10.2023062,15.3563896 10.4085668,15.1206151 10.5530962,14.771467 L10.8181484,14.0970668 L10.8242725,14.0572401 L10.8242725,14.0572401 C10.8242725,13.9869325 10.7817858,13.9570678 10.7522489,13.9418168 L10.7333905,13.932715 C10.6765586,13.9088189 10.6390789,13.8594337 10.6390789,13.798897 C10.6390789,13.7155263 10.6986054,13.6480863 10.8059002,13.6480863 Z" id="Shape" fill="#E31F26"></path>
    </g>
</svg>