<?xml version="1.0" encoding="UTF-8"?>
<svg width="28px" height="28px" viewBox="0 0 28 28" version="1.1" xmlns="http://www.w3.org/2000/svg" xmlns:xlink="http://www.w3.org/1999/xlink">
    <title>PD</title>
    <g id="PD" stroke="none" stroke-width="1" fill="none" fill-rule="evenodd">
        <path d="M12.8431762,0.0235387401 C9.96219679,0.290649066 7.4331272,1.30062066 5.21659458,3.06913388 C4.62956861,3.53753784 3.53405857,4.63393848 3.06226362,5.22526829 C2.66551152,5.72251595 2.11018087,6.538813 1.80372478,7.07521053 C0.89254361,8.67018537 0.30507601,10.4808757 0.0643885677,12.4361927 C-0.0214911578,13.1338836 -0.0214571864,14.8344713 0.0644565105,15.5311078 C0.355931212,17.8944202 1.11060609,19.9523228 2.36595162,21.806993 C3.75548422,23.8599295 5.60291746,25.478612 7.78143607,26.5519513 C10.5474562,27.914782 13.6317546,28.3276754 16.6525943,27.7395089 C17.8765163,27.5012083 19.0028384,27.1212402 20.1300437,26.5664072 C21.5809967,25.8522195 22.6697124,25.0674873 23.8519175,23.8838412 C25.0017478,22.7325423 25.784551,21.6547132 26.4792324,20.2663042 C27.3309636,18.5639478 27.8461061,16.643597 27.9363681,14.8341652 C27.9552902,14.4554896 27.9642586,14.3962716 27.9802252,14.5450479 C27.9912999,14.6479396 28,14.380081 28,13.9498065 C28,13.4986816 27.9902807,13.2610952 27.9774396,13.3885789 L27.9551883,13.6096686 L27.9493452,13.3451093 C27.9405806,12.9494948 27.8510319,12.1441842 27.7518694,11.5688409 C27.1672894,8.17705338 25.3030742,5.07570964 22.5595771,2.93076576 C20.5758506,1.37983879 18.1509034,0.386704021 15.5778748,0.0714641762 C15.0368461,0.00517129124 13.3585905,-0.024216627 12.8431762,0.0235387401 M6.8158327,7.96844678 L7.72973158,9.31709372 L7.66521987,9.42253649 C7.24614855,10.1073362 4.70393203,14.4167819 4.61598005,14.5914427 C4.40168839,15.0170573 4.35518153,15.2619567 4.35347408,15.9736273 C4.35232793,16.5442427 4.36054901,16.636148 4.4420804,16.9600273 C4.77272413,18.2734019 5.67391771,19.3775917 6.8981794,19.9693977 C7.23154085,20.1305551 12.8703194,22.2667234 13.2110866,22.3609416 C13.4817028,22.435806 14.4147276,22.4427448 14.6946181,22.3720301 C15.0390882,22.2849888 20.7197874,20.1260653 21.1072314,19.9349418 C21.9673535,19.5106877 22.6948513,18.7990851 23.1290738,17.9572777 C23.7065538,16.8377817 23.7804077,15.4880804 23.3148635,14.5620548 C23.258437,14.4498093 22.5407569,13.2273535 21.7200077,11.8455091 C20.8992584,10.4636307 20.2344039,9.31563113 20.2425571,9.2943385 C20.2507102,9.27307987 20.6310881,8.70470937 21.0878677,8.03130427 C21.5446472,7.35786516 21.9458156,6.76480065 21.9793114,6.71337179 L22.0402562,6.61983386 L13.971095,6.61983386 L5.90193382,6.61983386 L6.8158327,7.96844678 M6.95480974,7.16378245 C6.97308636,7.21830656 8.08544622,8.86181909 8.1050817,8.86335082 C8.124921,8.86488033 9.07211186,7.28412326 9.10798567,7.18956491 C9.1292178,7.13364623 9.0644683,7.13004077 8.03703696,7.13004077 C7.32907277,7.13004077 6.94747191,7.1419456 6.95480974,7.16378245 M18.8051587,7.14374833 C18.8051587,7.16425865 19.7902277,8.80930179 19.8216173,8.84124074 C19.8487265,8.86879192 20.979329,7.23242229 20.979329,7.16558518 C20.979329,7.14160546 20.6256866,7.13004077 19.8922439,7.13004077 C19.2943471,7.13004077 18.8051587,7.13619727 18.8051587,7.14374833 M9.9584939,10.772612 C8.42757229,11.0002663 7.25358829,12.0922792 6.94502597,13.5756548 C6.92165364,13.6879003 6.90310525,13.9557589 6.90376659,14.1708962 C6.90901628,15.8210414 8.21643998,17.2597569 9.93505363,17.5065609 C10.364758,17.568296 11.0344024,17.5298944 11.4297277,17.4208802 C12.3896579,17.1561849 13.0787679,16.6198894 13.6649786,15.6812787 C13.6972854,15.6295777 13.7058462,15.7342042 13.7074429,16.1992408 L13.7094472,16.7819651 L13.5249145,16.8723738 C13.323464,16.9710478 13.1742956,17.1210146 13.056109,17.3436349 C12.9466192,17.5498945 12.9466192,18.0028222 13.056109,18.2090819 C13.1754166,18.433845 13.3239056,18.581839 13.5334073,18.6848668 C13.6932428,18.7634387 13.770256,18.7796292 13.9812185,18.7790657 C14.3972324,18.7779285 14.7104148,18.5886078 14.8840087,18.2334017 C15.1342081,17.7213581 14.9363926,17.1167629 14.4389493,16.873088 L14.2529897,16.7819651 L14.2529897,16.2017578 L14.2529897,15.6215505 L14.4529455,15.9251236 C15.0148666,16.7782236 15.9251645,17.3581928 16.9339795,17.5058807 C17.3234277,17.5629218 18.0304407,17.5304046 18.374741,17.4396898 C19.6673871,17.0990417 20.6436235,16.15305 20.9619696,14.9327371 C21.2483486,13.8348739 20.9137302,12.6557517 20.076301,11.8118355 C19.6141199,11.3460506 19.067452,11.036355 18.3660443,10.8429525 L18.040802,10.7532582 L14.1001184,10.747986 C11.9327424,10.7450948 10.0690029,10.7561493 9.9584939,10.772612 M0.0177708057,13.9838203 C0.0177708057,14.4140948 0.0321710264,14.5854223 0.049571293,14.3645707 C0.0670715612,14.1436851 0.0669715596,13.7916424 0.0494712915,13.5822535 C0.0319710233,13.3728305 0.0176708042,13.5535458 0.0177708057,13.9838203 M10.2904965,13.4877971 C9.9164373,13.5815392 9.67140151,13.9788883 9.76743869,14.3359991 C9.92098947,14.9069547 10.7304263,15.0401867 11.0744887,14.5511024 C11.2632339,14.2828016 11.2237931,13.8890239 10.9865367,13.6731723 C10.8090361,13.5116408 10.5114805,13.4324227 10.2904965,13.4877971 M17.2463806,13.5076612 C17.0991145,13.5536479 16.8974262,13.71671 16.8267317,13.8469488 C16.7010715,14.0784127 16.7407841,14.3945029 16.9221235,14.6066129 C17.239892,14.9783496 17.8759727,14.917601 18.1163884,14.4925986 C18.2091303,14.3286522 18.2191519,14.0478343 18.1383,13.8772891 C18.0554097,13.7023902 17.8400649,13.5346001 17.6446954,13.4926271 C17.4414784,13.4489874 17.4333252,13.4492935 17.2463806,13.5076612" id="Shape" fill="#152C53"></path>
    </g>
</svg>