<?xml version="1.0" encoding="UTF-8"?>
<svg width="28px" height="28px" viewBox="0 0 28 28" version="1.1" xmlns="http://www.w3.org/2000/svg" xmlns:xlink="http://www.w3.org/1999/xlink">
    <title>PG</title>
    <g id="PG" stroke="none" stroke-width="1" fill="none" fill-rule="evenodd">
        <path d="M19.9245521,14.3177951 C19.9486305,14.3909456 19.9112463,14.4565928 19.9359579,14.5153619 C19.9359579,14.6285234 19.9378599,14.7373092 19.9378599,14.8517212 C19.9163162,15.3800185 19.8820993,15.9001879 19.8820993,16.4266107 C19.8820993,16.9155191 19.8580209,17.2537555 19.8580209,17.5701079 C19.8605569,17.6532602 19.8434471,18.0965294 19.8466157,18.1778071 C19.8497857,18.4485199 19.7921231,18.6979765 19.7579062,18.9549352 C19.6508209,19.7939595 19.2459261,20.5379513 18.6015137,21.101886 C18.3727706,21.2994502 18.1383236,21.465754 17.8842342,21.6101765 C17.8043965,21.6483136 17.7239236,21.6895777 17.6428179,21.7289654 C17.6339474,21.7308444 17.6269768,21.7345896 17.6155703,21.7345896 L17.5826214,21.7345896 C17.451459,21.651438 17.3202954,21.5689104 17.1878651,21.487634 C16.910964,21.3294575 16.5928767,21.2081681 16.2627509,21.1606526 C16.1049743,21.1393952 15.9205853,21.1156374 15.7488682,21.1393952 C14.7109675,21.270063 13.6584916,22.0653227 13.1826277,22.9812458 C13.0381582,23.2582119 12.9266377,23.5370526 12.8658084,23.8596578 C12.8265229,24.0853573 12.822721,24.374201 12.8499673,24.6136546 C12.9342416,25.5001925 13.2567641,26.2216784 13.8770975,26.8350031 C14.2072233,27.1594848 14.5500222,27.4226956 14.9162662,27.6684006 C15.0505978,27.7509282 15.1893653,27.8359556 15.3217957,27.9216083 C15.3351015,27.9272325 15.3458747,27.9272325 15.3458747,27.9472412 L15.3610812,27.9472412 L15.3610812,27.9584948 C14.8148841,27.9409898 14.1920161,27.6265119 13.7782494,27.3439202 C13.47537,27.1338512 13.1813611,26.9344112 12.9120645,26.6586963 C12.7631591,26.5105228 12.638332,26.3423425 12.5236435,26.1766646 C12.3912119,25.9822255 12.2511776,25.7909127 12.1491623,25.5808443 C11.8627573,24.9912774 11.701812,24.2472842 11.7493354,23.5001653 C11.778483,23.0525198 11.8804984,22.6373839 12.0211672,22.2472564 C12.0997389,22.029686 12.2245653,21.8333717 12.3424218,21.6358075 C12.9532507,20.6448588 14.0266356,20.0171541 14.9561863,19.3944515 C15.556242,18.9961961 16.1543977,18.5910639 16.7557226,18.1915579 C17.3310666,17.8058073 17.9026099,17.4300604 18.3981156,16.9111409 C18.8480005,16.4366106 19.2098079,15.8808051 19.4746692,15.3131189 C19.5849231,15.0717901 19.8333092,14.5653747 19.9245534,14.3177951" id="path3237" fill="#ED1C24" fill-rule="nonzero"></path>
        <path d="M19.8352092,11.6963173 C19.8592876,11.7632131 19.8491491,11.8582442 19.8491491,11.9413971 L19.8491491,12.4753212 C19.8491491,12.8179332 19.8352092,13.2330678 19.7952904,13.5537984 C19.7027789,14.2802852 19.3669492,14.8323397 19.0038745,15.4256583 C18.8777808,15.6288499 18.734578,15.8132847 18.6015143,16.0089738 C18.4817552,16.180905 18.3524935,16.3572126 18.2029541,16.509137 C17.9583686,16.759219 17.6916073,16.9861684 17.4216768,17.1881083 C16.9901677,17.5063379 16.5732336,17.81894 16.1170128,18.0921538 C15.6525548,18.3691193 15.2102744,18.6817214 14.7622908,18.9824446 C13.8054944,19.6195278 12.820819,20.3497649 12.1548642,21.3225833 C11.9654053,21.5982983 11.8361436,21.9046483 11.7163858,22.2128742 C11.5275609,22.6961557 11.4230103,23.267593 11.4610291,23.8590357 C11.493978,24.3954609 11.6599919,24.8781185 11.8526181,25.3351418 C11.9812464,25.6296136 12.1269839,25.9165822 12.3196101,26.1816681 C12.538216,26.496772 12.8334915,26.7912431 13.1363723,27.0463253 C13.446221,27.3076609 13.7554377,27.5471139 14.0880988,27.7646855 C14.1337202,27.7965705 14.5576255,27.9997616 14.6076828,27.9997616 C14.6076828,28.0041417 14.3111399,27.9466192 14.3111399,27.9547471 C13.7066477,27.8303314 13.1408076,27.5071009 12.6871214,27.1413558 C11.5763516,26.2354364 10.8356258,24.9869043 10.7690946,23.5251763 C10.743115,23.0150106 10.7728985,22.517973 10.9389091,22.0903336 C11.6162698,20.3497649 13.2669013,19.0062018 14.7641921,17.8945896 C15.2863108,17.5007111 15.8084301,17.1068325 16.3305488,16.7173302 C16.6670118,16.4641226 17.0047415,16.2109149 17.3424718,15.9570826 C17.4425865,15.8583005 17.5427019,15.7595184 17.6447179,15.6626114 C18.183311,15.1286867 18.6572736,14.5628775 19.0412594,13.9414249 C19.1502453,13.7638662 19.2630339,13.5869334 19.356178,13.401874 C19.5202906,13.0648888 19.6508196,12.6935168 19.7255893,12.313393 C19.7661428,12.1114519 19.823804,11.9076362 19.8352092,11.6963173" id="path3243" fill="#B49142" fill-rule="nonzero"></path>
        <path d="M19.6748986,-8.8817842e-15 C19.7737467,-8.8817842e-15 19.8706934,-8.8817842e-15 19.9258201,0.0812764103 C19.9923525,0.175682904 19.961303,0.447020904 19.961303,0.583940774 C19.9663814,1.26353794 19.9967878,7.97885393 19.9967878,8.40149113 C20.0062924,8.86726828 19.9923499,9.43057699 19.985382,9.90198095 C19.9663729,11.1736455 19.5285278,12.3108919 18.969025,13.3143442 C18.7554877,13.6919682 18.5793366,14.0802199 18.2764559,14.4165798 C18.0616519,14.6554069 17.844948,14.8929847 17.6073324,15.114932 C17.1403404,15.5456977 16.6480033,15.9283233 16.1537637,16.305946 C15.6405156,16.7292085 15.1279008,17.1524723 14.6140194,17.5713591 C14.2528447,17.8408219 13.8910373,18.1102848 13.5450691,18.4128832 C13.3226613,18.6066964 13.112294,18.8086375 12.8917868,19.0062018 C12.6649437,19.2100187 12.4615456,19.4469706 12.2454737,19.6689179 C11.6067659,20.3197557 11.0364905,21.058122 10.7690946,21.8983962 C10.6727805,22.1916168 10.6037141,22.4742084 10.5606266,22.7949378 C10.5238758,23.0694028 10.5485875,23.3726265 10.5675939,23.6477168 C10.6563041,25.0600522 11.3159224,26.3123359 12.4330294,27.1713656 C12.7808969,27.438328 13.1439729,27.677781 13.5412652,27.8478371 C13.6211035,27.8815979 13.7668403,27.9703763 13.8536492,27.9703763 L13.8536492,27.9822559 C12.515403,27.8197024 11.3159224,27.3533006 10.2862588,26.5874262 C10.0891967,26.4448795 9.91114432,26.2748234 9.73625989,26.1047679 C8.46707882,24.848108 7.84484479,23.0662771 8.03303571,21.1331457 C8.11857728,20.2328525 8.33211322,19.3944541 8.68885265,18.6304535 C9.29207825,17.3350319 10.2792883,16.2953177 11.3849895,15.3031184 C11.6295743,15.1030537 11.8709912,14.9048636 12.1111402,14.7054235 C12.5287088,14.3765663 12.933605,14.0383312 13.3448364,13.6919682 C13.5342953,13.5281642 13.7231202,13.3656107 13.9138457,13.2018087 C14.46828,12.6835138 15.0448919,12.1846017 15.5562387,11.6169154 C16.1708695,10.9266905 16.7633219,10.2277125 17.2727694,9.48622045 C17.5794508,9.03919955 17.8582519,8.58029976 18.1364197,8.12327643 C18.3531242,7.76941082 18.532444,7.39303799 18.7035277,7.01541395 C19.2997821,5.66434882 19.6831332,4.09321029 19.7350919,2.47893375 C19.7521997,1.96439115 19.7148155,1.48173422 19.645749,1.0165817 C19.6172354,0.856529968 19.5893551,0.695852319 19.5583068,0.533924123 C19.5342285,0.423263773 19.5006449,0.298848066 19.5152187,0.175682904 C19.5266246,0.0812764103 19.6007609,0.0375118405 19.674896,-8.8817842e-15" id="path3249" fill="#254AA5" fill-rule="nonzero"></path>
    </g>
</svg>