<?xml version="1.0" encoding="UTF-8"?>
<svg width="28px" height="28px" viewBox="0 0 28 28" version="1.1" xmlns="http://www.w3.org/2000/svg" xmlns:xlink="http://www.w3.org/1999/xlink">
    <title>PK</title>
    <g id="PK" stroke="none" stroke-width="1" fill="none" fill-rule="evenodd">
        <path d="M18.3902559,3.58092778 C18.0927041,3.69449329 17.8470326,3.88257623 17.2218149,4.47521641 C16.7818844,4.89217998 16.7532526,4.9359202 16.8140269,5.09736137 C16.8786239,5.26898208 17.0419107,5.25641671 17.4638976,5.04741799 C17.7357823,4.91277765 18.0000214,4.86347049 18.579756,4.83937361 C19.5622076,4.79849639 19.603868,4.87532012 18.9446354,5.51193911 C18.6784459,5.76905206 18.3604539,6.11889428 18.2379693,6.28948113 L18.0151565,6.59963904 L18.0151565,8.32729812 C18.0151565,9.65978421 17.9883971,10.1323376 17.8981329,10.3931088 C17.7274346,10.8862599 17.744208,11.0293302 17.9726379,11.0293302 C18.206685,11.0293302 18.9082021,10.3547765 19.2566982,9.79466314 L19.4974546,9.40760197 L19.4974546,7.6854303 C19.4974546,6.62087292 19.5303772,5.8752215 19.5836619,5.73270792 C19.6310175,5.60594081 20.0347487,5.16814099 20.4808424,4.75992547 C21.0659601,4.22438615 21.2918155,3.96655744 21.2918155,3.83398482 C21.2918155,3.73290515 21.2449281,3.63190501 21.1875085,3.60947821 C21.130167,3.58705141 20.5421627,3.54673088 19.8807457,3.519771 C18.9529831,3.48207488 18.6125226,3.49607175 18.3902559,3.58092778 M12.1149857,3.98405353 C11.4345329,4.70020019 11.1949467,5.38342239 11.3793758,6.08167533 C11.4465473,6.33600481 11.5510883,6.48146092 11.7969938,6.66230684 C12.0007708,6.8122165 12.1399507,6.98463248 12.1644477,7.11744369 C12.2428534,7.54180333 12.4907093,7.44040555 13.2814763,6.66055723 C13.6836472,6.26403227 14.0714632,5.93955938 14.1432377,5.93955938 C14.2150901,5.93955938 14.4292432,6.08557218 14.6191334,6.26403227 C15.0110842,6.63224538 15.7178284,7.94858736 15.7938937,8.4519975 C15.8648099,8.92105169 15.5365199,9.3772224 14.5671749,10.156514 C13.6372279,10.9042332 13.4902463,11.0608232 13.4902463,11.3041778 C13.4902463,11.5981121 13.7228111,11.7290942 14.979878,12.1431152 C16.4601477,12.6306198 17.9862126,13.3897909 18.4954991,13.8919286 C19.4266163,14.8101551 19.0703967,16.1745318 17.719711,16.8637186 C16.3044284,17.5858298 14.333752,17.8320475 10.4877344,17.7670734 C7.97391281,17.7246056 7.16450001,17.642374 6.01228626,17.3122546 C4.69959423,16.9361683 3.82870506,16.2094444 4.06283015,15.6855162 L4.15340637,15.4828797 L8.56831436,15.4811301 C12.7757006,15.47946 12.9989035,15.4721434 13.3180657,15.324381 C13.7811669,15.110213 15.2846072,13.6702055 15.2846072,13.4409272 C15.2846072,13.1820647 15.1827188,13.1593993 14.8048888,13.3342011 C14.4762867,13.4861785 14.2704813,13.4912682 8.35299106,13.4929383 C2.79921,13.4945289 2.21541857,13.4825202 1.96561233,13.3617177 C1.6035415,13.1865182 1.43253111,12.7957193 1.55392352,12.4207463 C1.71167125,11.9334803 1.83048915,11.9041346 3.64216954,11.9041346 C5.2209731,11.9041346 5.27932883,11.8984086 5.66027946,11.7048382 C6.19351671,11.433967 7.27013325,10.3084119 7.23533826,10.0581383 C7.19820279,9.7914025 6.92694223,9.78830092 6.62088667,10.0510603 L6.36140648,10.2738173 L4.87427136,10.3166828 C3.53669233,10.3553332 3.35085895,10.37776 3.02537749,10.5399965 C2.64044806,10.7318967 0.383532118,12.7740082 0.13957705,13.1512079 C-0.161251457,13.6162857 0.042759577,14.3956569 0.573344296,14.8081669 C1.03129641,15.1642123 1.59792438,15.3361511 2.45102596,15.3779031 C3.45126515,15.4268127 3.47513795,15.4345268 3.32885853,15.6626122 C3.15457147,15.9343582 2.95812796,16.8293626 2.95812796,17.3516208 C2.95812796,18.2291291 3.42692425,18.8344142 4.57968411,19.4452662 C5.46719062,19.9155929 6.96634015,20.2545398 8.15904405,20.2545398 C8.38287107,20.2545398 8.5843856,20.2847603 8.6067761,20.3217407 C8.6291666,20.3586415 8.58032878,20.5689922 8.49833429,20.7891248 C8.1120786,21.8252113 8.24439321,22.6319399 8.91197349,23.3115834 C9.38014565,23.7881927 9.92024829,24.077912 10.798705,24.3236525 C11.3354529,24.4738803 11.6248131,24.4985339 12.8661208,24.4999828 C14.8933586,24.5023512 15.934556,24.2609052 18.2101957,23.2606062 C20.5801564,22.2187937 21.5157986,21.6387189 22.5491164,20.5701851 C23.2954925,19.7984486 24.2301985,18.4403546 24.476182,17.7700159 C24.8107133,16.8587083 24.7698331,15.916544 24.357052,15.0205058 C24.0859475,14.4320806 23.3479971,13.5104344 22.7902629,13.0637275 C22.532343,12.8571941 22.3018066,12.6120103 22.2779338,12.5188834 C22.2314365,12.3377194 22.6579483,11.6130633 23.1981289,10.9552899 C23.6581875,10.395097 23.7980696,10.0498674 23.7980696,9.47480285 C23.7980696,8.84080828 23.6169952,8.40324704 23.0704953,7.71668468 C22.6023231,7.12841851 22.2296421,6.81436374 21.9996519,6.81436374 C21.910636,6.81436374 21.5548844,7.07163575 21.2024875,7.39093934 C20.8525091,7.70801616 20.4485439,8.06851508 20.304839,8.19202155 C20.0299897,8.42821873 19.9511158,8.77138062 20.1534885,8.85051065 C20.2139507,8.8742099 20.3867555,8.85886106 20.5375598,8.81639328 C20.8898006,8.71722228 21.010725,8.80247594 21.4909896,9.48864067 C21.9331825,10.1203289 22.1499881,10.6655706 22.1499881,11.1459973 C22.1499881,11.4893182 22.1228387,11.5284458 21.2137998,12.4973314 C19.8990014,13.8986885 19.8998595,13.9024263 21.7456328,14.841489 C22.8491647,15.4029544 23.308053,15.7918447 23.5536464,16.3738281 C23.9237529,17.2508593 23.6514781,18.18857 22.7732555,19.0616248 C21.8824723,19.9470858 20.4137489,20.6770703 18.5430106,21.1641773 C17.0106264,21.5631676 15.7836736,21.7010686 13.6462777,21.7143497 C11.6517285,21.7268355 11.1610879,21.6574874 10.3767961,21.2523735 C10.0045832,21.0600756 9.51144606,20.5523709 9.51144606,20.361425 C9.51144606,20.3045627 9.67699536,20.2492114 9.92102844,20.2245579 C12.2189806,19.9918599 13.3436549,19.776499 14.7548027,19.2989353 C17.8854944,18.2393087 19.6502873,16.558889 19.9579032,14.3445206 C20.1119062,13.2361435 19.738289,12.4509668 18.7230708,11.7497714 C18.1557407,11.357859 17.7762724,11.1626186 16.6888897,10.7031077 C16.1954404,10.4946657 15.7570703,10.2684095 15.7146297,10.2004133 C15.6538555,10.1029124 15.7635456,9.94624288 16.2332,9.45953354 C16.9571076,8.70942857 17.0937911,8.44818017 17.1396644,7.72734138 C17.2002045,6.77563377 16.8298641,5.669722 16.2102634,4.95214385 C15.8521714,4.53740705 15.3502184,4.23750821 15.1321646,4.30804925 C15.0531347,4.33365716 14.7253128,4.62114969 14.403498,4.94705408 C13.7459818,5.61301878 13.5193462,5.73843391 13.1976875,5.61421169 C12.6174848,5.39010272 12.4863404,4.92271861 12.7970769,4.18637192 C13.1170193,3.42815513 12.7473809,3.31848647 12.1149857,3.98405353 M12.2249098,7.98739686 C11.8525409,8.37016353 11.5109882,8.78402552 11.4658952,8.90713435 C11.4182276,9.03708256 11.3838227,9.8181238 11.3838227,10.7690361 C11.3838227,12.0907065 11.3581555,12.4900944 11.2509619,12.8367555 C11.1382293,13.2013104 11.1346405,13.2769412 11.2272452,13.3353145 C11.3907661,13.4383028 11.5275276,13.333883 12.2682866,12.5404354 L12.9441365,11.8164155 L12.9441365,9.95427517 C12.9441365,8.39179506 12.9647326,8.048156 13.0722383,7.81840056 C13.2066593,7.53098757 13.175453,7.29152976 13.0035064,7.29152976 C12.9475692,7.29152976 12.5972787,7.60470972 12.2249098,7.98739686 M24.3457398,11.382433 C24.1249553,11.6203798 23.944349,11.8859227 23.944349,11.9725284 C23.944349,12.17429 24.6966543,13.0175219 24.8767146,13.0175219 C24.9518437,13.0175219 25.1901036,12.8206909 25.4062851,12.5801197 C25.6223885,12.3395485 25.8658755,12.1427176 25.9471679,12.1427176 C26.0285382,12.1427176 26.285834,12.3395485 26.5188668,12.5801197 C26.7518997,12.8206909 26.9928902,13.0175219 27.0543666,13.0175219 C27.2043127,13.0175219 27.9985125,12.1379459 27.9999974,11.9702221 C28.0016331,11.7857974 27.2364552,10.9498025 27.0660689,10.9498025 C26.9895355,10.9498025 26.71336,11.1735139 26.4523975,11.4468505 L25.977906,11.9438984 L25.485627,11.4468505 C25.2149126,11.1735139 24.9379569,10.9498025 24.8702393,10.9498025 C24.8025216,10.9498025 24.5665242,11.1444863 24.3457398,11.382433 M25.4198598,13.2759868 C25.2099976,13.5056628 25.0171428,13.7587993 24.9913196,13.8386451 C24.9323397,14.020843 25.63963,14.8748111 25.8799183,14.9113938 C26.1051496,14.9456703 26.8272629,14.1686054 26.8293763,13.8896223 C26.8304615,13.7505284 26.7032179,13.559503 26.4189287,13.2732829 C26.1922932,13.045118 25.9606646,12.8584666 25.9041812,12.8584666 C25.8476979,12.8584666 25.629722,13.0463109 25.4198598,13.2759868" id="Shape" fill="#AB9214"></path>
    </g>
</svg>