<?xml version="1.0" encoding="UTF-8"?>
<svg width="28px" height="28px" viewBox="0 0 28 28" version="1.1" xmlns="http://www.w3.org/2000/svg" xmlns:xlink="http://www.w3.org/1999/xlink">
    <title>PO</title>
    <g id="PO" stroke="none" stroke-width="1" fill="none" fill-rule="evenodd">
        <path d="M21.1582144,22.9178101 L21.1807555,22.9188859 C21.1925027,22.9244899 21.197899,22.9370886 21.197899,22.9566958 C21.197899,22.9793804 21.1367412,23.2021782 21.0607506,23.4511607 C20.9872976,23.700285 20.7432449,24.5161288 20.5228846,25.2606984 L20.5228846,25.2606984 L20.1200222,26.6173622 L19.8543041,26.7419862 C19.7073995,26.8099023 19.3881628,26.9437932 19.1450081,27.0418015 C17.8633818,27.5449491 16.5776391,27.8435073 15.131378,27.9695358 C14.6754634,28.0101547 13.3355061,28.0101547 12.8770585,27.9695358 C11.9120389,27.883976 10.732614,27.6792544 10.7148394,27.5910219 C10.7098182,27.5632937 11.1382554,27.3207524 12.1463329,26.7748944 C12.9391193,26.3472262 13.8370317,25.8600438 14.1435055,25.6939679 L14.1435055,25.6939679 L14.7006571,25.3941512 L14.9663738,25.371735 C15.8123491,25.303819 16.7337478,25.1093098 17.5999855,24.822516 C18.7600351,24.4402197 19.9509943,23.8146813 20.8678905,23.1027418 C21.0521429,22.9608842 21.1457336,22.904955 21.1807541,22.9188747 Z M2.11975649,21.2999247 C2.14255215,21.2999247 3.14564074,21.5925993 4.34621803,21.9498304 L4.34621803,21.9498304 L6.52982112,22.6018343 L6.73982392,22.7746379 C8.30006624,24.0778088 10.3152436,24.9806169 12.3263347,25.280015 C12.6302825,25.3262101 12.7128469,25.3458174 12.7077688,25.3766327 C12.7027041,25.3966585 11.9524325,25.8174655 11.0406017,26.3130512 C9.60700328,27.0929026 9.3718858,27.2174571 9.29843281,27.2035374 C9.09073837,27.1734299 8.01083658,26.7052901 7.41054807,26.3808268 C5.36146415,25.2840713 3.58294639,23.6583992 2.29118769,21.7137261 C2.17214158,21.532522 2.07475543,21.3641961 2.07475543,21.3417938 C2.07475543,21.3193915 2.09442693,21.2997843 2.11975759,21.2997843 Z M25.4151139,15.0379672 C25.4328455,15.0379672 25.5537996,15.232475 25.6829781,15.4689951 C25.809619,15.7080363 25.9995277,16.0574244 26.1008393,16.2435317 C27.0303988,17.9542045 27.2751434,18.4212082 27.2751434,18.4688356 C27.2751434,18.5871659 26.9765385,19.3600199 26.7029916,19.9435488 C26.2926686,20.8240909 25.8022856,21.6416174 25.194398,22.4466815 C24.4851975,23.3901002 23.5801536,24.3119523 22.6657895,25.0265534 C22.1870777,25.4012891 21.4162946,25.9300638 21.3479141,25.9300638 C21.3275881,25.9300638 21.3205314,25.9076615 21.3307705,25.860048 C21.3485007,25.7821878 22.51402,21.8487336 22.5950748,21.602129 C22.6330673,21.4839406 22.6910925,21.3857738 22.8050784,21.2499416 C23.9144708,19.9165242 24.7371301,18.2503834 25.1322551,16.5346683 C25.1981104,16.2529167 25.3101066,15.6130942 25.3379735,15.3641118 C25.3455698,15.2884933 25.3583548,15.1831761 25.3658266,15.1299724 C25.373409,15.0767548 25.3948419,15.0375403 25.4150987,15.0375403 Z M13.8242149,5.16056092 C18.8004297,5.16056092 22.8350623,9.18447899 22.8350623,14.1490163 C22.8350623,19.113692 18.8004297,23.1398495 13.8242149,23.1398495 C8.84800522,23.1398495 4.81336854,19.113692 4.81336854,14.1490163 C4.81336854,9.18447899 8.84800522,5.16056092 13.8242149,5.16056092 Z M0.371159385,10.8912309 C0.413188256,10.8952919 0.488704664,11.0118014 0.636877095,11.2872511 C0.755922096,11.5061264 1.25376565,12.421118 1.74260822,13.3243459 L1.74260822,13.3243459 L2.62762051,14.9631817 L2.66833609,15.2869441 C2.84310247,16.7034016 3.21643502,17.9264721 3.85978165,19.1817499 C4.19411891,19.835716 4.51953641,20.3593067 4.95265511,20.9278506 C5.13248942,21.164653 5.1511799,21.2220563 5.04479996,21.1968589 C4.78644861,21.1341242 1.39721966,20.1121542 1.371889,20.089738 C1.32376433,20.047029 0.959500846,19.1810491 0.812594603,18.7659837 C0.290825293,17.2968732 0.0427189341,15.932087 0.00472570148,14.339604 C-0.0130043815,13.5799119 0.0185444539,12.9638959 0.109726552,12.236832 C0.160384592,11.8343702 0.301023104,11.0325271 0.339016337,10.9218993 C0.346614153,10.9050885 0.357149757,10.8896864 0.371160423,10.8910017 Z M9.25337683,9.10115345 C9.22580878,9.1283196 9.23370118,9.22214501 9.26623103,9.2543523 C9.28375924,9.26836103 9.3162033,9.28235864 9.34123233,9.28235864 C9.4393438,9.28235864 9.57288626,9.32089626 9.65825956,9.36929228 L9.71195155,9.40698963 L9.78695285,9.47700827 L9.74838056,19.0891816 C9.70332665,19.1513532 9.54357049,19.2171695 9.37337489,19.2423807 C9.263248,19.2577884 9.24805541,19.2661875 9.24051446,19.3236047 C9.2371863,19.3469387 9.24178312,19.3740179 9.25114651,19.3940393 L9.26837169,19.4174273 L13.2412872,19.4174273 L13.2349223,19.3740133 C13.2474389,19.2863468 13.2029501,19.2513458 13.0527773,19.2317386 C12.9326422,19.2178483 12.8239513,19.1649773 12.7609358,19.0970592 L12.7227731,19.0436734 L12.6906265,15.6259669 C14.8308609,15.6175677 15.4551227,15.6581728 17.1349802,15.5517515 C17.9083549,15.3993936 18.4887616,15.136547 18.9542913,14.7245618 C19.6675999,14.0927213 20.0339973,13.2203002 19.9914497,12.2389319 C19.9714254,11.7320036 19.8534947,11.3008345 19.6207284,10.8538415 C19.3078746,10.2571504 18.8700043,9.83760435 18.2342802,9.52798592 C17.8030764,9.31817283 17.3989264,9.19581045 16.9013741,9.132503 L16.6442568,9.10563906 L9.25343383,9.10563906 L9.25337683,9.10115345 Z M22.7063377,6.54089008 C22.7772572,6.54089008 26.4698393,7.64436935 26.5078208,7.67657747 C26.5584794,7.71928825 26.658572,7.91883885 26.8764016,8.42702737 C27.4488259,9.75778406 27.7824292,11.0395285 27.9521296,12.5514915 C28.0080156,13.0722833 28.0183239,14.7332432 27.965136,15.2690195 C27.9043476,15.8778946 27.7153991,17.0557378 27.6672754,17.1005424 C27.6292815,17.1382119 27.5368212,16.985854 27.047981,16.0851471 C26.7516356,15.5317257 26.2534017,14.6126727 25.944393,14.0416104 L25.944393,14.0416104 L25.3786697,13.0022657 L25.3379348,12.6587587 C25.2518199,11.9468185 25.0687423,11.1442754 24.8407857,10.4575418 C24.4101989,9.1669753 23.7398474,7.9306022 22.9014711,6.88663822 C22.7722954,6.72307689 22.6657535,6.5803818 22.6657535,6.56497693 C22.6657535,6.55516775 22.6836996,6.54117015 22.7064885,6.54117015 L22.7064885,6.54117015 Z M14.4992266,11.2610645 C16.2687356,11.2694666 16.3125949,11.270867 16.5178276,11.3240803 C16.7956445,11.3966188 16.9440766,11.484281 17.1092635,11.659045 C17.2869628,11.8536944 17.3324714,11.9913493 17.3299808,12.363564 C17.3299808,13.0178093 17.0728372,13.3492735 16.4321099,13.5166153 C16.279214,13.551366 16.1133225,13.5529455 14.6879763,13.5651965 L14.4756532,13.5670239 L12.6906265,13.5824316 L12.6906265,11.2610645 L14.4992266,11.2610645 Z M6.42596589,2.24326806 L6.44196395,2.24600345 C6.45169579,2.25076536 6.45482286,2.26196651 6.45482286,2.28017202 C6.45482286,2.30523839 6.15000128,3.35102306 5.77767051,4.60378001 L5.77767051,4.60378001 L5.09837459,6.88593751 L4.89265712,7.15732617 C4.43674261,7.7685808 4.11951112,8.28755204 3.78264162,8.966724 C3.2279443,10.0836466 2.88927673,11.1753628 2.70691129,12.4130014 C2.67904853,12.6066704 2.65548064,12.8028598 2.65548064,12.846271 C2.65548064,12.9498917 2.60386597,12.958295 2.53547857,12.8602687 C2.51014956,12.8225992 2.43068014,12.6820043 2.35976203,12.5517706 C2.28884169,12.4209775 1.89442397,11.6867717 1.47903411,10.9195178 L1.47903411,10.9195178 L0.724737164,9.52350435 L0.767594654,9.39887336 C1.77820551,6.53346826 3.63754756,4.11239571 6.12481576,2.41684671 C6.32997742,2.27681126 6.41275627,2.23059955 6.44196395,2.24600345 Z M18.3392862,0.679566975 C18.3899406,0.679566975 18.9014507,0.857832041 19.2585845,1.00122845 C20.5832703,1.53196277 21.7950134,2.25664614 22.9829244,3.23521365 C23.3932488,3.57227913 24.3677662,4.54048401 24.7122381,4.95064743 C25.2061425,5.53921637 25.7558223,6.29876679 25.7558223,6.3925922 C25.7558223,6.44580008 25.7460951,6.44580008 25.6701045,6.43180247 C25.6245115,6.42424076 24.5721439,6.11644274 23.3386413,5.74912986 L23.3386413,5.74912986 L21.0928944,5.08186102 L20.8421766,4.89141277 C19.5149573,3.89268013 17.8793741,3.15987451 16.2456811,2.83023127 C15.8252241,2.74495099 15.1000367,2.63992305 14.9278042,2.63992305 C14.6922458,2.63992305 14.8063867,2.56976536 16.5692555,1.61374337 C17.5190787,1.1005137 18.3164945,0.679426929 18.3392834,0.679426929 Z M13.0656329,0.0326045506 C13.6101986,-0.00660668895 14.1677791,-0.00940732292 14.7199425,0.018599712 L14.7199425,0.018599712 C15.2721059,0.0519281601 15.8195608,0.110183001 16.3463977,0.197004879 C16.8605616,0.282426579 16.9018777,0.292228937 16.9121556,0.332839242 C16.9171838,0.358045615 16.4254448,0.637276262 15.3413816,1.22332456 C14.4726105,1.69384358 13.5039944,2.21645607 13.1899202,2.38743922 C12.8758462,2.55870202 12.594589,2.69593726 12.5641969,2.69593726 C12.5363358,2.69593726 12.3415599,2.72394443 12.1313332,2.75895333 C10.2392862,3.07851415 8.42532014,3.88595833 6.92839937,5.07836009 C6.74856617,5.2211952 6.59430563,5.338826 6.57910889,5.338826 C6.53351756,5.338826 6.47633352,5.54971944 7.26911863,2.88820592 C7.49201092,2.1409769 7.67938535,1.52370034 7.68698165,1.50969717 C7.69964615,1.48953205 7.82757051,1.42707625 8.27841944,1.22080399 C9.67149209,0.579301595 11.4775288,0.133428778 13.0656329,0.0326045506 Z" id="Combined-Shape" fill="#003D80" fill-rule="nonzero"></path>
    </g>
</svg>