<?xml version="1.0" encoding="UTF-8"?>
<svg width="28px" height="28px" viewBox="0 0 28 28" version="1.1" xmlns="http://www.w3.org/2000/svg" xmlns:xlink="http://www.w3.org/1999/xlink">
    <title>PQ</title>
    <g id="PQ" stroke="none" stroke-width="1" fill="none" fill-rule="evenodd">
        <path d="M6.1884043,2.06997515 C5.6324378,2.29846795 5.05395467,2.94486599 4.63322474,3.80769635 C4.46786568,4.14681193 4.09175862,4.93640427 4.09175862,4.94441724 C4.09175862,4.94914845 4.03485146,5.07374607 3.96530435,5.22131605 C3.89572988,5.36885867 3.79250358,5.59420644 3.73589738,5.72205848 C3.63040027,5.96034187 3.54561407,6.1480314 3.40238861,6.4604553 C3.35754687,6.55822451 3.29002434,6.71205718 3.25229599,6.80230568 C3.21456764,6.89255418 3.16726356,7.00331371 3.1471819,7.04843796 C2.81854308,7.78672539 2.23921181,9.22947073 1.88430814,10.1934615 C0.846710114,13.011676 0.275641329,15.2691465 0.0509948583,17.4406895 C-0.0167191858,18.0950732 -0.0170474963,19.4465035 0.050310878,19.9977304 C0.234657233,21.5055914 0.666248766,22.6278178 1.43140378,23.5888276 C2.17538277,24.5232551 3.26737091,25.2360815 4.63894281,25.6826748 C5.02388689,25.8080109 5.30831324,25.8673834 5.85642765,25.9368748 C6.28572101,25.9912974 6.47351462,25.9993924 7.32014537,25.9999837 C8.36168312,26.0006777 8.62747784,25.9797018 9.44048412,25.8325694 C11.0646636,25.5386601 12.6562583,24.8812408 14.2009866,23.8661913 C16.7368844,22.1998211 19.2487882,19.4405142 21.7843576,15.5358719 C22.3242096,14.7044917 23.3099619,13.0894264 23.7680919,12.2855858 C24.5746414,10.8704619 25.2333417,9.67316518 25.8895797,8.42951349 C26.2645377,7.71892962 26.5939973,7.09055393 26.785758,6.72026159 C27.1774598,5.96392446 27.3928041,5.54746866 27.6413352,5.06570575 C27.9492357,4.46883499 28.0157733,4.23656817 27.9971143,3.82358556 C27.9672381,3.16148974 27.6210073,2.608075 27.0734948,2.34725683 C26.9078348,2.26833042 26.874949,2.26253263 26.5926567,2.26253263 C26.2918148,2.26253263 26.2879845,2.26335308 26.0591521,2.37703884 C25.632239,2.58912281 25.345706,2.91459172 25.0108566,3.56774473 C24.9007631,3.78245412 24.6472527,4.27808248 24.4474758,4.66915931 C23.9786483,5.58687717 23.6690242,6.18637334 23.5575901,6.39208523 C23.5087266,6.48233373 23.3912735,6.70385277 23.296638,6.88434978 C22.9652632,7.51617132 22.2488623,8.84342593 22.1038311,9.09418003 C22.0533534,9.18147494 22.012041,9.25870578 22.012041,9.26584361 C22.012041,9.27957232 21.7490916,9.74544602 21.210635,10.685726 C19.4883454,13.6932436 17.7459468,16.2857275 16.2295626,18.0970422 C15.1678611,19.3652251 13.9917981,20.5272429 12.9971814,21.2908546 C12.6654236,21.5455742 11.8680668,22.0861627 11.5881821,22.2461213 C11.131338,22.5072403 10.4942514,22.7966645 9.97256603,22.9801151 C8.97182086,23.3320022 7.88177522,23.477275 6.88239801,23.3919765 C6.24892287,23.3378821 5.95615197,23.2494932 5.25633074,22.9009973 C4.43093074,22.4899837 3.76060274,21.9182185 3.31136452,21.2420657 C2.8238234,20.508236 2.5790132,19.8201596 2.44826353,18.8160493 C2.39732068,18.4248904 2.3918762,18.2770743 2.40347651,17.6047777 C2.41655421,16.8456511 2.45502126,16.4190491 2.57236491,15.7314376 C2.86653113,14.0076639 3.47251027,12.0282955 4.48967097,9.46873865 C4.57038063,9.26567952 4.68739597,8.9764741 4.74972025,8.82605994 C4.81204453,8.67564577 4.90358845,8.45412672 4.95316334,8.33379539 C5.05321597,8.09086283 5.30970856,7.48917882 5.34951621,7.40396235 C5.36357884,7.37387952 5.45438406,7.16466709 5.55131774,6.93904584 C5.9813498,5.93808058 6.27502355,5.28963143 6.51121561,4.81957348 C7.24840952,3.352379 7.35521987,2.42306557 6.82792582,2.06425941 C6.69879035,1.97639019 6.4098771,1.97896091 6.1884043,2.06997515 M10.794765,5.24751546 C10.1356269,5.34646063 9.70518447,5.5676515 9.3616896,5.98394322 C9.04998612,6.36167422 8.90697953,6.75310658 8.90697953,7.22849739 C8.90697953,8.12679815 9.50863591,8.88494025 10.4277412,9.14477388 C10.7096779,9.22449339 11.2355219,9.23023648 11.5060497,9.15661558 C12.4602295,8.89683664 13.0710786,8.14421884 13.0728056,7.22620016 C13.0743617,6.40310648 12.5382306,5.66249447 11.7288358,5.36965176 C11.443917,5.26657704 11.0290693,5.21234589 10.794765,5.24751546 M17.2104997,5.27046046 C16.7455299,5.35250455 16.3978764,5.5343963 16.0612487,5.87170691 C15.7888604,6.14464025 15.6236382,6.42471143 15.536417,6.76128364 C15.4641066,7.04031559 15.4760352,7.51198707 15.562162,7.77772789 C15.7513236,8.36152629 16.1896181,8.82685303 16.7686484,9.05862759 C17.0707762,9.17953323 17.2083383,9.2042832 17.579849,9.20447524 C17.9815916,9.20469342 18.232886,9.14575841 18.5672155,8.97291886 C19.9959408,8.23427591 20.0252152,6.29499972 18.619499,5.50888059 C18.2087825,5.27918448 17.6739373,5.18868985 17.2104997,5.27046046" id="Shape" fill="#FD5100"></path>
    </g>
</svg>