<?xml version="1.0" encoding="UTF-8"?>
<svg width="28px" height="28px" viewBox="0 0 28 28" version="1.1" xmlns="http://www.w3.org/2000/svg" xmlns:xlink="http://www.w3.org/1999/xlink">
    <title>PR</title>
    <g id="PR" stroke="none" stroke-width="1" fill="none" fill-rule="evenodd">
        <polygon id="Path" fill="#2E378F" fill-rule="nonzero" points="0 22 16.062917 22 18.9249326 6"></polygon>
        <path d="M16.7134715,12.9889229 L16.846198,7.75745571 L16.4066628,8.1290958 L16.2845403,13.0342492 L15.6930146,15.2106189 L15.694075,15.2106189 C15.6930146,15.2113271 15.6924844,15.2113271 15.691424,15.2113271 L15.6930146,15.2106189 L14.6790969,13.3552514 L14.1388238,10.0464329 L13.7576106,10.3683203 L14.2346132,13.3550743 L14.2346132,15.6907942 L14.2476914,15.6860137 C14.2399152,15.6897319 14.2323156,15.6929189 14.2245394,15.6968141 L14.2346132,15.6913254 L12.8366544,14.0496641 L11.6334556,12.1649053 L11.3102108,12.4379253 L12.4603897,14.2405303 L13.0070251,16.3388184 L13.0218707,16.331205 C13.0112667,16.3381102 13.0017231,16.3444842 12.9921796,16.3505041 L13.0070251,16.3388184 L11.1394866,15.074286 L9.95837936,13.5804663 L9.6418504,13.8478206 L10.81147,15.3278298 L11.8644457,17.2122346 L9.71855256,16.3520976 L8.14757213,15.1116447 L7.83086643,15.3795301 L9.44885786,16.6591123 L10.9325321,18.2287118 L10.947201,18.213485 C10.9390713,18.2226919 10.9316485,18.23243 10.9242257,18.2425222 L10.9327089,18.2287118 L8.60531083,17.8264411 L6.1946715,16.7626899 L5.8565811,17.0488121 L8.40330491,18.1729392 L10.1812398,19.4256089 L10.1937878,19.4057787 C10.186365,19.4211825 10.179119,19.4360552 10.1715195,19.4509279 L10.1812398,19.4256089 L7.89095568,19.2666128 L4.3642469,18.3108657 L3.99823267,18.6207133 L7.75575487,19.6394923 L9.69434012,20.6802262 L7.4236734,20.9482886 L1.63478107,20.6175484 L1.20037114,20.9858245 L7.36535148,21.336749 L9.46317324,21.9233348 L17.3585473,15.3706773 L16.7134715,12.9889229 L16.7134715,12.9889229 Z" id="Path" fill="#F6B624" fill-rule="nonzero"></path>
        <polygon id="Path" fill="#EE272B" fill-rule="nonzero" points="9.07506738 22 25.1381611 22 28 6"></polygon>
    </g>
</svg>