<?xml version="1.0" encoding="UTF-8"?>
<svg width="28px" height="28px" viewBox="0 0 28 28" version="1.1" xmlns="http://www.w3.org/2000/svg" xmlns:xlink="http://www.w3.org/1999/xlink">
    <title>PS</title>
    <g id="PS" stroke="none" stroke-width="1" fill="none" fill-rule="evenodd">
        <g id="Group">
            <circle id="Oval" fill="#006CB7" cx="14" cy="14" r="13.7083333"></circle>
            <path d="M13.9758756,0 C6.2420676,0.0180125793 -0.0185728471,6.29089332 4.14007769e-05,14.0240796 C0.0225729156,21.7585525 6.30639806,28.0192104 14.0402061,27.9999557 C19.6131539,27.9857585 24.4077031,24.7222651 26.6489764,20.0068291 L26.7133068,19.8620852 C27.5405966,18.068547 28.0050625,16.0659341 27.9999584,13.959749 C27.9844767,8.38292574 24.7152027,3.57292376 19.9907737,1.33486079 L19.894278,1.28663854 C18.1052479,0.456129972 16.1103603,0 14.0080408,0 L13.9758756,0 L13.9758756,0 Z M13.9758756,0.852336771 C21.231065,0.833750831 27.1256651,6.70518264 27.1475758,13.9436663 C27.1648809,21.2001625 21.2960387,27.0960657 14.0402061,27.1153649 L14.0080408,27.1153649 C6.76507425,27.1158795 0.873690644,21.2561302 0.852428791,14.0079969 C0.836404709,6.7707999 6.7174697,0.87103687 13.9758756,0.852336771 Z M13.9919325,1.43135675 C8.99795881,1.44231869 4.69425098,4.35132451 2.66977138,8.55597516 L2.55719307,8.79721507 C1.83218878,10.3893984 1.42626357,12.1610642 1.43136166,14.0240796 C1.4442761,19.0161373 4.37452859,23.3288634 8.60425639,25.3462723 L8.76508254,25.4106029 C10.3739874,26.149762 12.1675206,26.5730576 14.0562629,26.56859 C17.4368287,26.5588791 20.5105381,25.1873756 22.7569578,23.0142866 C22.8528102,22.9358032 22.9351531,22.8573198 23.0142796,22.756964 C22.9351531,22.6791239 22.8547401,22.5961374 22.7569578,22.5157241 C18.2705514,18.0543942 12.1398585,15.2611578 5.35556812,15.1177005 L4.5996852,15.8735855 L4.5996852,12.6088055 L4.69618089,12.6088055 C7.44116166,12.60299 9.86770664,12.8494021 12.174597,13.4772692 C10.9188664,12.9259556 9.60073523,12.5180993 8.26652147,12.2228217 L8.26652147,9.68176137 L22.7247925,9.63353912 L25.8287373,9.63353912 C25.1494076,7.82520482 24.0770188,6.20857583 22.7087099,4.92131972 C21.7868544,4.03098366 20.7337648,3.29118129 19.5726,2.71799529 L19.1062041,2.50892071 C17.5545534,1.82058285 15.8420765,1.43135675 14.0401803,1.43135675 L13.9919582,1.43135675 L13.9919325,1.43135675 Z M26.134307,10.646721 L22.7247925,10.6627779 L19.7173435,10.6627779 L19.6369304,11.177423 L22.7247925,11.177423 L26.2629679,11.1613661 C26.2217964,10.9818836 26.1754785,10.8249168 26.134307,10.646721 Z M26.4720419,12.1745737 L22.7247925,12.1906306 L14.9086415,12.2066875 C18.0351019,13.9661306 20.7054594,16.4299941 22.7408752,19.3473886 C22.901058,19.5661128 23.0522346,19.7700409 23.1911884,19.990695 L23.1911884,20.0228603 C23.1911884,20.0228603 23.1886152,20.0338223 23.1911884,20.0389173 C23.1860419,20.0442181 23.1911884,20.0498792 23.1911884,20.0710826 L23.1911884,22.5799776 C24.0313442,21.6799919 24.7486288,20.6648544 25.298011,19.5564375 L25.5231933,19.0579522 C26.2121725,17.4979342 26.5897924,15.7667966 26.5846978,13.959749 C26.5846978,13.3428181 26.5544363,12.7709187 26.4720676,12.1745737 L26.4720419,12.1745737 Z" id="path114617" fill="#FFCF02"></path>
        </g>
    </g>
</svg>