<?xml version="1.0" encoding="UTF-8"?>
<svg width="28px" height="28px" viewBox="0 0 28 28" version="1.1" xmlns="http://www.w3.org/2000/svg" xmlns:xlink="http://www.w3.org/1999/xlink">
    <title>PX</title>
    <g id="PX" stroke="none" stroke-width="1" fill="none" fill-rule="evenodd">
        <path d="M15.9054654,0.801311834 C16.6635888,0.414663476 17.4828447,0.14941396 18.3218078,5.77315973e-15 C18.408077,0.451619588 18.4501056,0.911186727 18.4877101,1.36916436 C18.5283311,1.9384077 18.5426087,2.51003531 18.5108359,3.08007341 C18.4750412,3.69282959 18.3927939,4.30797004 18.2005483,4.89330718 C18.1904936,4.90383768 18.18064,4.91397081 18.1711886,4.92430263 C16.9961978,4.96145743 15.8228159,5.16233178 14.7133817,5.55037096 C13.4788672,5.98351249 12.3151377,6.67037959 11.4379668,7.64176902 C11.4365592,7.61236308 11.4353526,7.58295714 11.4379668,7.5535512 C11.5089529,6.91874056 11.6366474,6.28929452 11.8298985,5.67951867 C12.0637705,4.93960166 12.392961,4.22809716 12.817671,3.57600059 C13.5761966,2.40413419 14.6516459,1.43493034 15.9054654,0.801311834 Z" id="path5" fill="#752650" fill-rule="nonzero"></path>
        <path d="M9.76004064,8.51003897 C11.5007081,8.5714338 13.2500225,8.88198436 14.8511309,9.57679901 C15.657919,9.92708732 16.4224774,10.3751305 17.1100169,10.9207299 C17.7185266,11.4023515 18.2659037,11.9594748 18.7348543,12.5752113 C19.611623,13.7230364 20.2066594,15.0695502 20.5201646,16.4711009 C20.8982208,18.1629358 20.8853508,19.9346436 20.5173493,21.6270746 C20.4676791,21.6328366 20.4178079,21.637009 20.3685399,21.6415789 C19.7073437,23.056243 18.8152918,24.3785168 17.6662422,25.4526283 C17.0504931,26.0270375 16.3623504,26.5275346 15.6162926,26.9243161 C14.92634,27.2922877 14.1881248,27.5722402 13.4253763,27.7516561 C11.5578187,28.1975137 9.5623655,28.029423 7.77162573,27.3566628 C6.38247016,26.8382838 5.10733475,26.0250507 4.0550112,24.9902795 C2.91842937,23.8770263 2.04487816,22.5009078 1.53932849,21.0000128 C1.0667582,19.6125691 0.911513829,18.1261784 1.04705101,16.6703857 C1.19887679,14.9910682 1.72312817,13.3590386 2.4740122,11.850196 C2.51322548,11.7713165 2.5544497,11.6934305 2.59165204,11.6135577 C2.68757375,11.6656141 2.78027797,11.7234325 2.879015,11.7707205 C2.11867956,13.3173139 1.59060739,14.98928 1.44762974,16.7077392 C1.32616912,18.1369076 1.48221787,19.5938923 1.95136957,20.953321 C2.4675772,22.4673294 3.36988482,23.8494086 4.54829414,24.9425942 C5.73193191,26.0455156 7.19026372,26.860537 8.76080584,27.2827506 C9.6810108,27.5311116 10.6396247,27.6437681 11.5930101,27.6060172 C12.6103433,27.5664782 13.6212416,27.3540799 14.5647734,26.9751804 C15.9949521,26.4061357 17.254,25.4564034 18.2470009,24.296657 C18.9449973,23.4889871 19.5165057,22.5803833 19.989076,21.628068 C19.6783862,21.5972713 19.3703106,21.5394528 19.0706809,21.4534206 C18.8197159,22.0866417 18.4983681,22.6956228 18.0808975,23.2378445 C17.6533722,23.7979482 17.1305285,24.2885107 16.5350899,24.6715827 C15.9493038,25.0504822 15.2929338,25.3216924 14.6100195,25.4732919 C13.6916244,25.6773453 12.7243635,25.6608541 11.8132077,25.4269974 C11.0578997,25.2338719 10.3407994,24.8919286 9.72243611,24.4210362 C9.18390707,24.0147176 8.72179366,23.5108429 8.36022711,22.9445799 C8.00147587,22.3840788 7.74206495,21.7635738 7.5797823,21.1206169 C7.38572684,20.3556651 7.32761075,19.56091 7.3708459,18.7746985 C7.48225183,18.755227 7.59647308,18.7550283 7.7080801,18.7748972 C7.6696712,19.6399881 7.74829885,20.5162056 8.00127478,21.3475195 C8.19734118,21.9946488 8.50159601,22.6121735 8.91544693,23.1508188 C9.32145519,23.6819139 9.83283658,24.1335335 10.4125898,24.4722979 C11.1415546,24.901863 11.9740827,25.1530056 12.8190786,25.219169 C13.7672356,25.2942733 14.7338932,25.1394948 15.6072434,24.7667546 C16.3370126,24.458191 16.9988121,23.9936566 17.532917,23.4132867 C18.0782833,22.8227836 18.4820795,22.1114778 18.7368653,21.3542749 C18.2268915,21.1782366 17.7382337,20.9429891 17.2843652,20.6534996 C17.4904863,20.3856671 17.6885636,20.1104832 17.8536616,19.8154303 C18.3236176,18.9926601 18.6083664,18.0685586 18.691217,17.1277673 C18.8275585,15.6387936 18.4408553,14.1313418 17.7122927,12.8299303 C16.7261289,12.9143731 15.722269,12.8293343 14.7723022,12.5505739 C13.8275638,12.2765821 12.9429524,11.8136373 12.1657251,11.2185644 C11.2000729,10.4768592 10.3842356,9.54818783 9.76004064,8.51003897 Z" id="path7" fill="#752650" fill-rule="nonzero"></path>
        <path d="M18.1711886,4.92430263 C18.18064,4.91397081 18.1904936,4.90383768 18.2005483,4.89330718 C18.2011515,4.89966522 18.2027603,4.9123813 18.2033636,4.91873934 C19.1613742,4.89489669 20.1230044,4.96284825 21.0643242,5.14405241 C21.9569793,5.31413001 22.8331448,5.58017428 23.6582324,5.95927246 C24.3721152,6.28909583 25.0498011,6.70515013 25.6355872,7.22829768 C26.0345571,7.58355321 26.3874767,7.99046782 26.6712199,8.44169003 C26.0991082,8.15180311 25.5332304,7.84939879 24.9633308,7.55514071 C24.3727185,7.09895128 23.7408819,6.69203667 23.0650059,6.3693661 C22.1934656,5.94854327 21.256972,5.6594511 20.2983582,5.51301747 C18.1963253,5.19153903 16.0046046,5.5479867 14.0952195,6.4649354 C13.2419788,6.87781067 12.4384082,7.40373986 11.7603201,8.06398267 C13.0935716,8.26108193 14.4053061,8.64077619 15.6082488,9.24697564 C16.9787027,9.93185585 18.1963253,10.9171535 19.1316123,12.1220022 C20.0204466,13.2608863 20.6579138,14.5837562 21.0319481,15.971796 C21.4922517,17.6777378 21.5660531,19.4818319 21.2646136,21.2211534 C21.005806,22.7025769 20.4708966,24.1468457 19.6248952,25.4011679 C19.1197477,26.1486351 18.5027921,26.8263625 17.7806645,27.3749422 C17.7283802,27.4097127 17.6628236,27.4017652 17.6035009,27.4105075 C17.3921514,27.4311711 17.1781877,27.4476623 16.9676425,27.412097 C17.6354748,26.9545167 18.2130161,26.3757363 18.6964454,25.7321834 C19.6037804,24.5201819 20.194996,23.0955833 20.5173493,21.6270746 C20.8853508,19.9346436 20.8982208,18.1629358 20.5201646,16.4711009 C20.2066594,15.0695502 19.611623,13.7230364 18.7348543,12.5752113 C18.2659037,11.9594748 17.7185266,11.4023515 17.1100169,10.9207299 C16.4224774,10.3751305 15.657919,9.92708732 14.8511309,9.57679901 C13.2500225,8.88198436 11.5007081,8.5714338 9.76004064,8.51003897 C9.56980596,8.37791093 9.3821855,8.24121306 9.21145692,8.08484499 C9.77170408,7.92072806 10.365735,7.93026512 10.9414664,7.99146126 C11.0032022,7.99682586 11.0653401,8.01093276 11.1278803,8.00338259 C11.2334545,7.88516277 11.3285718,7.75740589 11.4379668,7.64176902 C12.3151377,6.67037959 13.4788672,5.98351249 14.7133817,5.55037096 C15.8228159,5.16233178 16.9961978,4.96145743 18.1711886,4.92430263 Z" id="path38" fill="#EFCC78" fill-rule="nonzero"></path>
        <path d="M5.31808099,5.17922033 C5.61388988,4.98728697 5.97706518,4.93244887 6.32475626,4.93304014 C6.71889999,4.93781346 7.11485357,5.00318207 7.4832573,5.14405241 C7.43258168,5.52036896 7.39879793,5.89867239 7.37245465,6.27737319 C7.0688031,6.26803482 6.7828478,6.14782811 6.51901281,6.00775252 C6.13210845,5.79952669 5.78542284,5.52891257 5.43290551,5.2700211 C5.39409442,5.24041647 5.35085927,5.21577906 5.31808099,5.17922033 Z" id="path41" fill="#DDA137" fill-rule="nonzero"></path>
        <path d="M7.97111072,5.22829646 C8.34212867,5.11047401 8.73104397,5.0522582 9.11995926,5.03596572 C10.0600725,4.99821485 11.0104415,5.22134235 11.8298985,5.67951867 C11.6366474,6.28929452 11.5089529,6.91874056 11.4379668,7.5535512 C11.4353526,7.58295714 11.4365592,7.61236308 11.4379668,7.64176902 C11.3285718,7.75740589 11.2334545,7.88516277 11.1278803,8.00338259 C11.0653401,8.01093276 11.0032022,7.99682586 10.9414664,7.99146126 C11.0556876,7.80588595 11.1331087,7.58931518 11.1095807,7.36936671 C11.0842429,7.08941422 10.9096936,6.84264276 10.6886915,6.67475075 C10.4602491,6.49930856 10.183343,6.39261268 9.90000189,6.34174836 C9.76426361,6.31631619 9.62571002,6.31333586 9.48936847,6.29366567 C9.46201972,6.18915538 9.38399535,6.10570609 9.29289988,6.05007323 C9.09341489,5.92768095 8.83782474,5.90880551 8.6176271,5.98490331 C8.3348893,5.80489128 8.06542368,5.55772245 7.97111072,5.22829646 Z" id="path43" fill="#DDA137" fill-rule="nonzero"></path>
        <path d="M7.4832573,5.14405241 C7.64835526,5.15418554 7.8110401,5.18816132 7.97111072,5.22829646 C8.06542368,5.55772245 8.3348893,5.80489128 8.6176271,5.98490331 C8.74652819,6.20306359 8.8649724,6.43771504 8.89835396,6.69124191 C9.06948473,6.66600844 9.25006691,6.63262872 9.38902269,6.52414465 C9.46000878,6.47029999 9.50163519,6.38228087 9.48936847,6.29366567 C9.62571002,6.31333586 9.76426361,6.31631619 9.90000189,6.34174836 C10.183343,6.39261268 10.4602491,6.49930856 10.6886915,6.67475075 C10.9096936,6.84264276 11.0842429,7.08941422 11.1095807,7.36936671 C11.1331087,7.58931518 11.0556876,7.80588595 10.9414664,7.99146126 C10.365735,7.93026512 9.77170408,7.92072806 9.21145692,8.08484499 C8.93776833,7.9944416 8.67835741,7.85655159 8.4664046,7.66124052 C8.18467227,7.40870708 7.98237197,7.08683127 7.77625088,6.7746912 C7.65901323,6.59646737 7.53513949,6.41844222 7.37245465,6.27737319 C7.39879793,5.89867239 7.43258168,5.52036896 7.4832573,5.14405241 Z" id="path46" fill="#3B6A54" fill-rule="nonzero"></path>
        <path d="M14.0952195,6.4649354 C16.0046046,5.5479867 18.1963253,5.19153903 20.2983582,5.51301747 C21.256972,5.6594511 22.1934656,5.94854327 23.0650059,6.3693661 C23.7408819,6.69203667 24.3727185,7.09895128 24.9633308,7.55514071 L24.9890708,7.58653354 C24.1444771,7.30479285 23.2697193,7.10252768 22.3816893,7.0172902 C21.8236542,6.96841276 21.2549611,6.96741931 20.705573,7.08663258 C20.6440383,7.1021303 20.5804927,7.11146868 20.5223766,7.13729822 C22.0599393,7.65190215 23.5174668,8.43751757 24.7206106,9.52136484 C25.8567903,10.5370619 26.7522607,11.8148294 27.3048663,13.2273079 C28.0195535,15.037164 28.1756022,17.0469009 27.8078018,18.9515315 C27.4816277,20.6542943 26.7403962,22.2819528 25.6436309,23.6364142 C24.6679241,24.8470249 23.4028433,25.830137 21.9752789,26.4687227 C20.7433786,27.0248526 19.399067,27.3224884 18.0481192,27.3856714 C17.9538062,27.3864661 17.8590911,27.4009704 17.7653814,27.3876583 L17.7806645,27.3749422 C18.5027921,26.8263625 19.1197477,26.1486351 19.6248952,25.4011679 C20.4708966,24.1468457 21.005806,22.7025769 21.2646136,21.2211534 C21.5660531,19.4818319 21.4922517,17.6777378 21.0319481,15.971796 C20.6579138,14.5837562 20.0204466,13.2608863 19.1316123,12.1220022 C18.1963253,10.9171535 16.9787027,9.93185585 15.6082488,9.24697564 C14.4053061,8.64077619 13.0935716,8.26108193 11.7603201,8.06398267 C12.4384082,7.40373986 13.2419788,6.87781067 14.0952195,6.4649354 Z" id="path49" fill="#AC151C" fill-rule="nonzero"></path>
        <path d="M8.6176271,5.98490331 C8.83782474,5.90880551 9.09341489,5.92768095 9.29289988,6.05007323 C9.38399535,6.10570609 9.46201972,6.18915538 9.48936847,6.29366567 C9.50163519,6.38228087 9.46000878,6.47029999 9.38902269,6.52414465 C9.25006691,6.63262872 9.06948473,6.66600844 8.89835396,6.69124191 C8.8649724,6.43771504 8.74652819,6.20306359 8.6176271,5.98490331 Z" id="path52" fill="#FFFFFF" fill-rule="nonzero"></path>
    </g>
</svg>