<?xml version="1.0" encoding="UTF-8"?>
<svg width="28px" height="28px" viewBox="0 0 28 28" version="1.1" xmlns="http://www.w3.org/2000/svg" xmlns:xlink="http://www.w3.org/1999/xlink">
    <title>PY</title>
    <g id="PY" stroke="none" stroke-width="1" fill="none" fill-rule="evenodd">
        <path d="M4.86481408,22 C10.1576266,20.20346 14.6733639,17.5356883 15.1200809,17.1561517 C12.9229213,17.8125798 12.0046977,16.9753962 12.0046977,16.9753962 C12.6269649,16.8211781 14.3733603,16.5092371 14.777581,15.4933008 C15.0887146,14.3231464 13.9377733,13.8614937 13.222419,13.2761662 C8.92877534,10.5973789 4.44845156,8.38024429 0,6.07097944 C6.59552633,6.5942192 12.6310122,10.0010358 19.3823583,8.52294605 L17.9202833,9.95096499 C17.546923,10.4742047 17.0799696,11.2437928 17.5777834,11.8596635 L17.9202833,12.1675989 C17.9202833,12.1675989 19.1041087,12.7288924 20.2843927,11.7369901 C21.4651827,10.744587 24.9306544,4.54281891 28,6.31732773 C22.8655368,8.70019664 22.7254002,11.6799094 19.6722437,14.8989605 C17.0192607,17.8821782 12.3977885,20.4633274 4.86481408,22" id="path6653" fill="#EE293D" fill-rule="nonzero"></path>
    </g>
</svg>