<?xml version="1.0" encoding="UTF-8"?>
<svg width="28px" height="28px" viewBox="0 0 28 28" version="1.1" xmlns="http://www.w3.org/2000/svg" xmlns:xlink="http://www.w3.org/1999/xlink">
    <title>Q6</title>
    <g id="Q6" stroke="none" stroke-width="1" fill="none" fill-rule="evenodd">
        <rect id="Rectangle" fill="#7F7D7D" fill-rule="nonzero" opacity="0.300000012" x="12.0026995" y="0" width="3.99618897" height="4.00086186"></rect>
        <rect id="Rectangle" fill="#7F7D7D" fill-rule="nonzero" opacity="0.300000012" x="12.0026995" y="24.0000907" width="3.99618897" height="3.99990927"></rect>
        <rect id="Rectangle" fill="#7F7D7D" fill-rule="nonzero" opacity="0.300000012" x="1.77635684e-14" y="12.0013155" width="4.00357284" height="3.99990927"></rect>
        <rect id="Rectangle" fill="#7F7D7D" fill-rule="nonzero" opacity="0.300000012" x="23.9993648" y="12.0013155" width="4.00063517" height="3.99990927"></rect>
        <rect id="Rectangle" fill="#FFFFFF" fill-rule="nonzero" x="12.0026995" y="12.0013155" width="3.99618897" height="3.99990927"></rect>
        <rect id="Rectangle" fill="#D6EE89" fill-rule="nonzero" x="15.9988885" y="12.0013155" width="4.00508139" height="3.99990927"></rect>
        <rect id="Rectangle" fill="#BAD5E8" fill-rule="nonzero" x="12.0026995" y="8.0014062" width="3.99618897" height="3.99990927"></rect>
        <rect id="Rectangle" fill="#74A5CD" fill-rule="nonzero" x="12.0026995" y="4.00086186" width="3.99618897" height="4.00054434"></rect>
        <rect id="Rectangle" fill="#74A5CD" fill-rule="nonzero" x="15.9988885" y="8.0014062" width="4.00508139" height="3.99990927"></rect>
        <rect id="Rectangle" fill="#74A5CD" fill-rule="nonzero" x="8.00206432" y="8.0014062" width="4.00063517" height="3.99990927"></rect>
        <rect id="Rectangle" fill="#DA96C8" fill-rule="nonzero" x="8.00206432" y="12.0013155" width="4.00063517" height="3.99990927"></rect>
        <rect id="Rectangle" fill="#DA96C8" fill-rule="nonzero" x="12.0026995" y="16.0012248" width="3.99618897" height="3.9989567"></rect>
        <rect id="Rectangle" fill="#7FC31B" fill-rule="nonzero" x="20.0039698" y="12.0013155" width="3.995395" height="3.99990927"></rect>
        <rect id="Rectangle" fill="#7FC31B" fill-rule="nonzero" x="15.9988885" y="16.0012248" width="4.00508139" height="3.9989567"></rect>
        <rect id="Rectangle" fill="#911083" fill-rule="nonzero" x="4.00357284" y="12.0013155" width="3.99849146" height="3.99990927"></rect>
        <rect id="Rectangle" fill="#911083" fill-rule="nonzero" x="12.0026995" y="20.0001815" width="3.99618897" height="3.99990927"></rect>
        <rect id="Rectangle" fill="#911083" fill-rule="nonzero" x="8.00206432" y="16.0012248" width="4.00063517" height="3.9989567"></rect>
    </g>
</svg>