<?xml version="1.0" encoding="UTF-8"?>
<svg width="28px" height="28px" viewBox="0 0 28 28" version="1.1" xmlns="http://www.w3.org/2000/svg" xmlns:xlink="http://www.w3.org/1999/xlink">
    <title>QA</title>
    <g id="QA" stroke="none" stroke-width="1" fill="none" fill-rule="evenodd">
        <path d="M27.589171,14.0623789 C27.589171,21.3593841 21.5052769,27.2732203 14.0001989,27.2732203 C6.49647399,27.2732203 0.411226853,21.3593841 0.411226853,14.0623789 C0.411226853,6.7613187 6.49647399,0.845229773 14.0001989,0.845229773 C21.5052769,0.845229773 27.589171,6.7613187 27.589171,14.0623789" id="path2402" fill="#FFFFFF" fill-rule="nonzero"></path>
        <path d="M19.5306837,1.13763261 C21.1232576,1.82381062 22.5728562,2.79833658 23.7987458,3.99858491 C25.0273415,5.20649249 26.0281689,6.63561701 26.7416925,8.19900354 C27.4534121,9.7646428 27.8760237,11.4600386 27.9747985,13.1775111 C28.0785345,14.8904781 27.8611398,16.6286756 27.3388514,18.2655007 C26.8161119,19.9018754 25.9889296,21.440482 24.9096236,22.7808494 C23.8352789,24.1185136 22.5088105,25.2552352 21.0226787,26.1162242 C19.5392532,26.9817186 17.8970663,27.5723813 16.1795581,27.8404548 C14.4575396,28.099968 12.6592977,28.0431995 10.9557712,27.6678966 C9.24953866,27.290341 7.63486443,26.5938005 6.20330688,25.6350435 C4.77220036,24.674935 3.5237595,23.45261 2.53781596,22.0433094 C1.55051934,20.6380637 0.824366964,19.0489962 0.411226853,17.3761275 C-0.00191325839,15.709116 -0.105649312,13.9628087 0.108588191,12.2579515 C0.323727746,10.5521931 0.85548778,8.88743427 1.67004132,7.37495917 C2.48143767,5.86023136 3.57698061,4.50004002 4.87999565,3.37503248 C6.18391275,2.25633255 7.69710606,1.38137674 9.32756622,0.801076493 C10.9607325,0.227984946 12.7147739,-0.0477477796 14.4593437,0.00676800441 C16.2034625,0.0639870504 17.9372077,0.457762217 19.5306837,1.13763261 M16.8912776,1.46067243 C15.321706,1.10969891 13.6429861,1.04617225 12.0522162,1.28180659 C10.4632505,1.51969365 8.95772463,2.05539007 7.59246795,2.84068768 C6.2276623,3.62643584 5.00132173,4.66854335 4.00635767,5.89041778 C3.01094257,7.11859982 2.24464885,8.52790042 1.75799145,10.0345185 C1.270432,11.5370816 1.06205784,13.1329073 1.14820386,14.7120628 C1.23660502,16.2871635 1.61546713,17.8510006 2.26584709,19.2877843 C2.91442294,20.7304252 3.83406561,22.0473643 4.95080679,23.1561523 C6.0716072,24.2689951 7.39040816,25.1682803 8.86391116,25.8035469 C10.3329039,26.4433189 11.9602069,26.8042044 13.5667626,26.8641267 C15.1751225,26.924049 16.7631862,26.6748983 18.2560833,26.1545204 C19.7458232,25.6291865 21.1408476,24.8308231 22.3441859,23.8058363 C23.545269,22.7867065 24.556921,21.5346456 25.3083309,20.1469711 C26.065153,18.7601977 26.5599289,17.2297009 26.7628908,15.6622594 C26.9658526,14.0993234 26.8788045,12.4935858 26.5053547,10.9522759 C26.1305518,9.4190758 25.4720534,7.95570996 24.5690987,6.66219909 C23.6697522,5.36733658 22.5236944,4.23557088 21.2211303,3.35070312 C19.9185663,2.46132991 18.4581431,1.81795356 16.8912776,1.46067243" id="path2404" fill="#BDBCBC" fill-rule="nonzero"></path>
        <path d="M18.8798527,2.64830554 C20.2857017,3.25338569 21.5648124,4.11842953 22.6472756,5.1776577 C23.7297387,6.24003967 24.6151034,7.50291357 25.241579,8.88112666 C25.8725648,10.2597903 26.2446615,11.7582985 26.3344157,13.2748285 C26.4223659,14.7873036 26.2306797,16.3178005 25.7697308,17.7617929 C25.3083309,19.2093897 24.5785703,20.5632735 23.6278068,21.7468517 C22.6774943,22.9308804 21.5093362,23.932439 20.1977516,24.6970116 C18.8875201,25.4584304 17.4383726,25.9720502 15.921571,26.2099373 C14.4034164,26.4433189 12.819863,26.3951107 11.3134351,26.0581041 C9.80745822,25.7260534 8.38356812,25.1115118 7.12114545,24.2649402 C5.85601661,23.4242258 4.75551239,22.343822 3.88412953,21.0976183 C3.01500181,19.8608759 2.37544649,18.4520258 2.00876209,16.9800997 C1.64343076,15.5063713 1.55277447,13.9709185 1.74130348,12.464751 C1.93253864,10.9603857 2.40070396,9.4902617 3.11603171,8.152147 C3.83541869,6.81673557 4.80287015,5.61468506 5.95298727,4.62799442 C7.10265337,3.63454563 8.43814231,2.86321487 9.87781833,2.3518478 C11.3170433,1.84633781 12.8649657,1.60304422 14.4038675,1.65530729 C15.9432203,1.70621873 17.4749057,2.04908246 18.8798527,2.64830554" id="path2406" fill="#9C0D22" fill-rule="nonzero"></path>
        <path d="M19.4923464,18.8372407 L19.4923464,19.6558785 L8.48324494,19.6558785 L8.48324494,18.8372407 L19.4923464,18.8372407 Z M14.002003,7.83989149 C14.5635308,7.83811806 15.1264116,7.9210181 15.6581717,8.09763122 C16.1872255,8.27829923 16.6847076,8.54186728 17.1321257,8.89959895 C17.583152,9.25462736 17.9778,9.69931396 18.3286985,10.2435707 C18.678695,10.7896296 18.9808826,11.4271489 19.1856485,12.0998106 C19.3895124,12.7733734 19.4986608,13.475771 19.4986608,14.1844762 L19.4986608,14.1844762 L19.4986608,18.226754 L15.1737694,18.2204464 L15.1796327,12.4710586 C15.1796327,11.6569262 15.0921336,10.8486509 14.8972903,10.0746168 C14.7015448,9.30328608 14.3524505,8.57475696 14.002003,7.83989149 Z M13.9929825,7.83989149 C13.6465943,8.57475696 13.2965979,9.30328608 13.1017545,10.0746168 C12.904656,10.8486509 12.819863,11.6569262 12.819863,12.4710586 L12.819863,12.4710586 L12.8239223,18.2204464 L8.50038394,18.226754 L8.50038394,14.1844762 C8.50038394,13.475771 8.60998334,12.7733734 8.81204313,12.0998106 C9.01590703,11.4271489 9.31719261,10.7896296 9.66718904,10.2435707 C10.0176365,9.69931396 10.4172458,9.25462736 10.8651149,8.89959895 C11.3125331,8.54186728 11.8095641,8.27829923 12.3408731,8.09763122 C12.8730841,7.9210181 13.4337099,7.83811806 13.9929825,7.83989149 Z M13.5347397,16.1700221 C13.7386036,16.0420677 13.968176,16.0159362 14.1639215,16.0501775 C14.3565097,16.0866716 14.5509021,16.1920988 14.6992897,16.3849315 C14.7655906,16.4705348 14.8129483,16.5655995 14.8427161,16.6714772 C14.927509,16.9855062 14.8557958,17.3067438 14.5951026,17.5540923 C14.5148199,17.6279815 14.4228106,17.68475 14.3231338,17.7248483 C13.9965907,17.8510006 13.6655374,17.7838696 13.4120606,17.556345 C13.333131,17.4874118 13.2659281,17.3982042 13.2167662,17.3031395 C13.0611621,16.9778469 13.1076178,16.6512028 13.298853,16.3871842 C13.3647028,16.2997787 13.4445345,16.2312961 13.5347397,16.1700221 Z M21.0294441,8.01202792 C21.5097872,8.12196058 21.9702851,8.31704599 22.3870334,8.59908632 C22.8046837,8.87887394 23.1812907,9.2447154 23.4839294,9.66281993 C23.785215,10.0746168 24.0161405,10.550391 24.163175,11.0437363 C24.3106606,11.5384332 24.3738043,12.0606133 24.3395263,12.5882 C24.3075035,13.1162372 24.1762548,13.6505819 23.9624683,14.1538392 C23.7495839,14.6593492 23.4523575,15.1283652 23.0613177,15.5487224 C22.672533,15.9650248 22.1840715,16.3362728 21.815583,16.5719071 C21.4493497,16.8093436 21.198579,16.9188257 20.9396899,17.019297 C20.6803498,17.1184166 20.4142442,17.2031188 20.1440795,17.2743047 L20.1440795,17.2743047 L20.1440795,13.6239999 C20.4201076,13.5830004 20.6902724,13.4838808 20.9396899,13.3437617 C21.1877544,13.1995877 21.4186799,13.0112605 21.609013,12.7873403 C21.8002481,12.5701782 21.9531461,12.3192254 22.0640985,12.0340313 C22.1723448,11.7461339 22.2395478,11.4253468 22.260746,11.0878896 C22.3347143,10.0381228 21.8742164,8.92843374 21.0294441,8.01202792 Z M6.97185574,8.01202792 C6.69086634,8.31028783 6.44641007,8.64774504 6.25291978,8.9991691 C5.85556559,9.69931396 5.69500022,10.4305463 5.74010285,11.0878896 C5.75994801,11.4253468 5.8266999,11.7461339 5.93855443,12.0340313 C6.0458987,12.3192254 6.19879662,12.5701782 6.39003178,12.7873403 C6.58126694,13.0112605 6.81083934,13.1995877 7.05935484,13.3437617 C7.30922342,13.4838808 7.57893716,13.5830004 7.85496527,13.6239999 L7.85496527,13.6239999 L7.85496527,17.2743047 C7.72236354,17.2373601 7.59066385,17.1972617 7.45535595,17.1603171 C7.31869498,17.1202187 7.18428913,17.0837247 6.83384168,16.9089138 C6.48339423,16.7363555 5.91825825,16.4299858 5.44197445,16.033958 C4.9629845,15.6379301 4.56968954,15.1572 4.27967962,14.6408769 C3.98335532,14.1195979 3.78941401,13.5609238 3.70326798,13.0004474 C3.61667092,12.4404216 3.63832019,11.8817475 3.75919524,11.3437984 C3.87871722,10.8058492 4.09475883,10.2904273 4.39875057,9.83132326 C4.70319333,9.36906545 5.09242905,8.96447724 5.53082664,8.65179993 C5.9705773,8.34317752 6.45948983,8.12781764 6.97185574,8.01202792 Z M14.0635055,13.6544637 L14.1639215,13.6649993 C14.3565097,13.7032956 14.5509021,13.8069206 14.6992897,13.9997533 C14.7655906,14.0867082 14.8129483,14.1844762 14.8427161,14.2899034 C14.927509,14.600328 14.8557958,14.9229173 14.5951026,15.1747712 C14.5148199,15.2441549 14.4228106,15.3054288 14.3231338,15.3410218 C13.9965907,15.4653718 13.6655374,15.4045484 13.4089034,15.1747712 C13.333131,15.1040358 13.2659281,15.0211358 13.2167662,14.9215656 C13.0611621,14.5967236 13.1076178,14.2678268 13.298853,14.0033576 C13.3647028,13.9186554 13.4445345,13.8474695 13.5347397,13.7884483 C13.7386036,13.6582412 13.968176,13.6343624 14.1639215,13.6649993 Z M13.6060019,11.3622706 C13.8170822,11.2527885 14.0475567,11.2460304 14.2437531,11.3014473 C14.3474892,11.3316337 14.4462639,11.3802924 14.5288018,11.4438191 C14.6135947,11.5086973 14.686661,11.5893447 14.7457454,11.6812556 C14.8016727,11.7682105 14.840461,11.8700334 14.8612082,11.9772628 C14.9144293,12.2845335 14.8305384,12.599013 14.5346651,12.8364495 C14.4516763,12.8995256 14.3529015,12.9499865 14.2491654,12.980173 C13.9266816,13.0675784 13.6100611,12.9945904 13.3592905,12.7305718 C13.2871263,12.6494739 13.2293949,12.5584641 13.1901556,12.4588939 C13.0692806,12.139909 13.1315222,11.8173198 13.3547802,11.5569055 C13.4251404,11.4807636 13.5103843,11.4149843 13.6060019,11.3622706 Z" id="Combined-Shape" fill="#FFFFFF" fill-rule="nonzero"></path>
    </g>
</svg>