<?xml version="1.0" encoding="UTF-8"?>
<svg width="28px" height="28px" viewBox="0 0 28 28" version="1.1" xmlns="http://www.w3.org/2000/svg" xmlns:xlink="http://www.w3.org/1999/xlink">
    <title>QF</title>
    <defs>
        <linearGradient x1="63.4802839%" y1="75.4403538%" x2="14.8210054%" y2="24.434263%" id="linearGradient-1">
            <stop stop-color="#BE0000" stop-opacity="0.99607843" offset="0%"></stop>
            <stop stop-color="#FF0000" offset="100%"></stop>
        </linearGradient>
        <linearGradient x1="0.00131484335%" y1="49.9982077%" x2="99.9956035%" y2="49.9982077%" id="linearGradient-2">
            <stop stop-color="#FFFFFF" offset="0%"></stop>
            <stop stop-color="#FFFFFF" offset="43.000001%"></stop>
            <stop stop-color="#A2A5A3" offset="100%"></stop>
        </linearGradient>
    </defs>
    <g id="QF" stroke="none" stroke-width="1" fill="none" fill-rule="evenodd">
        <path d="M0.000811241489,4 L-4.61852778e-14,4 L0.255541069,4.67250866 L1.38925105,7.66007744 L7.58612198,24 L28,24 L11.6423294,7.49195028 C9.46313197,5.30120236 6.50514269,4 3.42343908,4 L3.42343908,4 L0.00101405186,4 L0.000811241489,4 Z" id="path4725" fill="url(#linearGradient-1)" fill-rule="nonzero"></path>
        <path d="M1.38873997,7.66018341 C3.62371027,11.4955207 9.48898624,11.9000448 10.1268249,17.8639739 C10.1531902,18.1085225 10.3397757,18.3051804 10.5831482,18.3439006 C13.9629831,18.8747748 17.2545954,20.2727777 20.1152357,22.5766293 L20.1168582,22.5782596 C20.1360846,22.5935032 20.1553921,22.6006766 20.1807029,22.6006766 C20.2060136,22.6006766 20.2314055,22.5914653 20.2516865,22.5732056 C20.2922486,22.5335072 20.2932221,22.4692725 20.2549315,22.4285144 C18.2744882,20.3366049 15.8539464,18.6645038 13.1373015,17.566073 L12.3108492,17.2318565 C11.8849474,17.0596536 11.5898583,16.6357693 11.603041,16.1476911 C11.6486328,14.3665621 15.8427918,14.7282902 16.2676796,13.8723701 L16.3406913,13.724622 C15.4777332,12.9828245 14.4515127,12.4254575 13.3218589,12.113658 C13.3117184,12.156454 13.2843795,12.3643204 13.5135147,12.7403138 C13.7639855,13.1499327 13.2407348,13.8000245 12.4781678,13.0979662 L12.414323,13.0398451 C6.74780125,7.82280823 2.499938,10.5281272 0.254827177,4.67220705 L1.38853716,7.65977583 L1.38873997,7.66018341 Z" id="path4737" fill="#FFFFFF" fill-rule="nonzero"></path>
        <path d="M0.255338259,4.67250866 L1.38904824,7.66007744 C3.62300449,11.4954147 9.48828046,11.8999389 10.1271331,17.86183 L10.1271331,17.86183 C9.48118209,10.2522926 6.15509199,11.3894437 2.58157323,7.927043 L2.58157323,7.927043 C1.65980009,7.26778072 0.879994205,6.30181374 0.255338259,4.67250866 Z" id="path4921" fill="url(#linearGradient-2)" fill-rule="nonzero"></path>
    </g>
</svg>