<?xml version="1.0" encoding="UTF-8"?>
<svg width="28px" height="28px" viewBox="0 0 28 28" version="1.1" xmlns="http://www.w3.org/2000/svg" xmlns:xlink="http://www.w3.org/1999/xlink">
    <title>QK</title>
    <g id="QK" stroke="none" stroke-width="1" fill="none" fill-rule="evenodd">
        <path d="M15.1769496,8.0066093 L15.7777438,8.51609692 C16.0309486,8.54808269 16.378538,8.70709766 16.5682148,8.42059655 C17.42176,8.73908343 18.0856285,9.50308638 19.0027019,9.69408712 C18.9078635,10.1396032 19.4451296,10.2986182 19.3820553,10.7445912 C19.6034961,11.3175934 20.2673646,10.4580901 20.2991287,11.1265927 C20.7097924,11.4130938 21.0260715,11.9225814 21.405425,12.2090825 C21.3736609,12.4316121 21.5320274,12.5271124 21.6586298,12.6550555 C21.6899401,12.6865843 21.7534681,12.7185701 21.7847784,12.7505559 C21.7847784,12.7505559 21.9113808,12.4955836 22.1328216,12.5595551 C22.4491007,12.6235267 22.6705415,12.2095394 22.9863668,12.5275694 C23.6189251,12.4960405 23.6819994,11.9545672 24.7252214,12.0820533 C25.420854,11.7955522 25.7053691,12.3370256 26.2426352,11.9865529 C26.9700318,12.1140391 26.9700318,11.8590668 27.6339003,11.8910526 L27.729,11.8327357 L28.0006904,14.2900589 C27.7557839,14.3068849 27.5150406,14.2869337 27.2858572,14.1510756 C26.4005479,14.3740622 25.9898841,14.1830614 25.1045748,14.4375768 C24.5668549,14.2785618 23.8716761,14.6601063 23.5240867,14.8195782 C23.7133097,15.2970801 23.6819994,15.2331085 23.9978248,15.6790816 C24.2510296,16.06154 24.3458679,16.666071 24.0613529,17.2706021 C24.2827936,17.6210747 23.8086018,17.9710904 23.9978248,18.2895773 C23.5871611,18.4485923 23.7450737,19.0851091 23.2391179,19.1170948 C23.3657203,19.8175832 22.5117213,20.1356131 22.1641319,20.454557 C21.405425,20.9320588 21.1839842,21.7595764 20.2991287,21.8870625 C19.8249369,22.556022 18.9713916,22.6830512 18.3388334,23.0650527 C18.1804669,23.7975268 17.3586857,23.4155253 17.1372449,23.9565418 C16.8844939,23.9880706 16.6312891,24.1790714 16.5364507,24.4340436 C15.7459798,24.529544 15.1456393,25.134075 14.4500068,25.4845477 C13.8492126,25.5165335 13.3119464,25.6755484 12.8695187,26.0260211 C11.9524453,26.9494959 10.4032675,26.6629948 9.39180956,27.1720255 C9.07598421,27.0449963 8.75925131,27.3630262 8.47473622,27.4589836 C7.46327829,27.6815131 6.38829227,27.6495274 5.47121893,28 C3.89073083,27.9044996 1.96219955,27.9360285 1.17127484,26.4084795 C0.665772765,25.8354773 1.45578993,25.4534758 1.29787725,24.8484878 L1.45578993,24.7214586 C1.26611321,24.211971 1.77161529,23.7979838 1.99350982,23.3839965 C2.53077595,22.7470228 3.19464448,22.3654782 3.63752601,21.6649899 L3.5744517,21.6010183 C3.98511542,21.2829884 4.49152504,21.0595449 4.77558635,20.6460146 C4.83911444,20.4550139 4.93349903,20.2320274 5.1549398,20.2000416 C5.21846789,20.3275278 5.34461652,20.2315704 5.43945488,20.2640132 C6.13508746,19.6270394 7.02039675,19.4360387 7.46282452,18.7040215 C7.93701632,18.2265196 8.53781054,18.0990335 9.04376639,17.6535174 C9.58103251,17.7490178 9.99215,17.2075444 10.4981059,16.9530291 C10.4981059,16.5390418 10.9722977,16.9215002 11.067136,16.5390418 C11.5730919,16.5710276 11.857607,16.0300111 12.4266371,16.1890261 C12.4901652,15.9980254 12.7111522,15.8705392 12.8695187,15.6795385 C12.5214755,15.3615086 12.3635628,14.7885063 11.8262967,14.7560636 C11.9528991,14.4380337 11.63662,14.3100906 11.5417816,14.087561 C10.7513107,13.6100592 10.4354853,12.8140705 9.61325033,12.3685544 L9.70808869,12.3045829 C9.23389688,11.9541102 8.85454344,11.381108 8.28551327,11.0630781 C8.50695404,10.5855762 7.55811665,10.0445598 8.25374923,9.63057252 C9.23389688,9.75805866 9.73985274,8.8345838 10.6564723,8.8980984 C11.1624282,8.45258232 11.7945326,8.07058084 12.4584012,8.22959581 C12.6163139,8.16608121 12.7746803,8.03859507 12.9012827,7.9430947 C13.0269776,7.84759434 13.3114927,7.87912317 13.3114927,7.87912317 C13.9122869,7.49712169 14.5443914,7.97462353 15.1769496,8.0066093 Z M12.9003752,18.0972057 C12.6471704,18.5751645 12.2365066,18.0336911 12.1099042,18.6386791 C12.0468299,18.5431787 11.9519916,18.5431787 11.8889172,18.5431787 C11.7305508,18.8616656 11.3511973,18.5751645 11.256359,18.9251802 C10.6873288,19.0846521 10.2762113,19.5301682 9.73894519,19.6896401 C9.23298934,20.1031704 8.56912081,20.3266139 8.22153141,20.8671734 C7.71557556,21.2496318 7.58897315,21.8856917 6.92510462,22.0766924 C6.8620303,22.2041785 6.64058954,22.2361643 6.70411763,22.4271651 C6.26123609,22.4586939 6.19816177,22.9046669 6.07155937,23.2551396 C6.10332341,23.6056122 5.66044188,24.1466286 6.22947205,24.3376294 L6.16639773,24.401144 C6.48267686,24.4331298 6.48267686,25.006132 6.83026626,24.7836024 C7.01994298,24.7836024 7.0830173,25.006132 7.46237075,24.8791028 C7.46282452,24.8795597 7.87394201,25.2615612 8.79056158,24.7520736 C9.23344311,24.4975582 9.83378355,24.7205447 10.0865346,24.2745717 C11.0036079,24.2430429 11.0036079,23.9240991 11.8253891,23.7330983 C12.0781402,23.6691268 12.6476241,23.7330983 13.1531262,23.3826257 C13.4058772,23.191625 13.7221564,23.0961246 14.0066715,23.03261 C14.2281122,23.0006242 14.2281122,22.8416092 14.4177889,22.7456519 C14.8289064,22.5551081 14.8606705,22.3001359 15.0185832,22.1726497 C15.492775,21.6951479 15.5563031,21.7271336 15.5876133,21.2496318 C15.5876133,20.6446438 15.7772901,20.7081584 15.3979366,19.9761412 C15.2082599,19.8486551 15.0816575,19.4666536 15.1764958,19.3076386 C14.702304,18.8936514 14.7336143,18.6386791 14.4177889,18.1611773 C14.1019636,17.1106732 13.406331,18.0656769 12.9003752,18.0972057 Z M9.29606366,0.0796217193 C9.29651743,0.0796217193 9.92907569,-0.0478644195 10.3397394,0.398108597 C10.181373,0.716595474 11.035372,0.366122827 11.1619744,0.812095843 L11.4777997,1.09859695 L11.5726381,1.38509806 L11.6987867,1.5125842 C11.6357124,1.7990853 12.2047426,1.70358494 12.0150659,2.02207181 C12.1734323,2.18108678 12.2365066,2.37254446 12.4579474,2.46758789 C12.6476241,2.40407329 12.6793882,2.56308826 12.8373008,2.72256017 C12.6793882,3.00906127 13.4380951,3.10456164 13.3114927,3.39106275 C12.8690649,3.51854889 13.15358,4.15506571 12.6793882,4.15506571 C12.7424625,4.44156681 12.363109,4.40958104 12.363109,4.40958104 C11.8571532,4.60058178 12.0150659,5.4600851 11.3829614,5.20556977 C11.1302103,5.71460044 10.5294161,5.90605812 10.3079754,6.4150888 C10.213137,6.4150888 10.1182986,6.38310303 10.0865346,6.4786034 C9.99215,6.38310303 9.80201951,6.51058917 9.73894519,6.54257494 C9.48574038,6.95610524 9.13815098,7.08359138 8.82187185,7.49757863 C7.99963687,7.72056514 7.46237075,8.54808269 6.64013576,8.61159729 C6.26078232,8.67511189 5.94450319,8.38861078 5.62867783,8.35708195 C5.3123987,7.97508047 4.55369181,7.87958011 4.45885345,7.27459212 C4.01597192,7.17954869 4.04773596,6.57410377 3.54178011,6.51058917 L3.63661847,6.4150888 C3.54178011,6.16011652 3.0675883,6.19210229 3.4151777,5.87361541 C2.90967562,5.61910007 2.97274994,5.10961246 2.59339649,4.72761098 C2.68778108,4.37759527 2.21404305,4.47309564 2.15051496,4.25010914 C2.403266,3.99513686 2.87791158,3.93162226 2.84614753,3.48610618 C3.25726502,3.07211893 3.92113355,3.0405901 4.11081028,2.37208752 C4.64853017,2.05360064 5.50207543,1.7990853 5.75482647,1.13012578 C5.91273915,1.03508235 6.00803128,1.16211155 6.13417991,1.19409732 C6.48176931,1.03508235 6.57660768,0.461623196 7.08256353,0.557123565 C7.24047621,0.652623935 7.55675533,0.525137796 7.55675533,0.525137796 C7.52544506,0.366122827 7.87303446,0.461623196 7.87303446,0.461623196 C8.315916,-0.0158786499 8.12623928,0.621095105 8.56866704,0.111607489 C8.97978453,-0.0478644195 8.85318212,-0.0158786499 9.29606366,0.0796217193 Z" id="Combined-Shape" fill="#EB000C"></path>
    </g>
</svg>