<?xml version="1.0" encoding="UTF-8"?>
<svg width="28px" height="28px" viewBox="0 0 28 28" version="1.1" xmlns="http://www.w3.org/2000/svg" xmlns:xlink="http://www.w3.org/1999/xlink">
    <title>QR</title>
    <g id="QR" stroke="none" stroke-width="1" fill="none" fill-rule="evenodd">
        <path d="M7.54003115,25.3993755 C9.35309547,25.3993755 14.8724731,25.5350207 14.8724731,25.6990568 C14.8724731,25.8656166 9.35245908,26 7.54003115,26 C7.1868368,26 6.90109939,25.8656166 6.90109939,25.6990568 C6.90109939,25.5350207 7.1868368,25.3993755 7.54003115,25.3993755 Z M15.149492,23.8390135 C15.2901334,23.9885387 15.4275928,24.1292312 15.5574156,24.2566747 C12.4843066,24.3904272 7.20039182,24.4800161 5.00485938,24.4800161 C4.38692837,24.4800161 3.88481965,24.288851 3.88481965,24.0573077 C3.88481965,23.8238717 4.38692837,23.6339683 5.00485938,23.6339683 C7.10493389,23.6339683 12.0369271,23.7159864 15.149492,23.8390135 Z M13.4203034,21.6240212 C13.5965824,21.8744918 13.7728614,22.1237005 13.9402309,22.3527201 C10.1728246,22.4624981 5.58702549,22.5331598 3.40422078,22.5331598 C2.61637464,22.5331598 1.97807927,22.2927838 1.97807927,21.996257 C1.97807927,21.6990993 2.61637464,21.4580924 3.40422078,21.4580924 C5.48838563,21.4580924 9.76108267,21.5211832 13.4203034,21.6240212 Z M4.88400964,19.3460013 C4.88337325,19.354834 4.88719157,19.3636667 4.88719157,19.3636667 C5.20283913,19.7415806 5.50575897,20.0595583 5.91113699,20.4071887 C5.91113699,20.4071887 6.06386968,20.6235902 6.52779523,20.4381032 C6.9999938,20.247569 7.40028073,19.9882657 7.85147856,19.3882721 C9.16879802,19.4103539 10.5656658,19.4393757 11.9408964,19.4702902 C12.0541731,19.6336954 12.2839085,19.9718621 12.5671004,20.3888924 C8.73350985,20.4873141 4.57281678,20.5459885 2.44155935,20.5459885 C1.55380058,20.5459885 0.833411386,20.2728053 0.833411386,19.938424 C0.833411386,19.60215 1.55380058,19.3308595 2.44155935,19.3308595 C3.09067329,19.3308595 3.92688477,19.3352758 4.88400964,19.3460013 Z M5.18584762,17.2504399 C4.68310251,17.9696752 4.44445768,18.4018472 4.42218417,18.4289763 C4.40754728,18.4497963 4.38909208,18.4744017 4.37127327,18.499638 C3.41351202,18.5109943 2.57348221,18.5154107 1.91736803,18.5154107 C0.972970883,18.5154107 0.208034653,18.2270857 0.208034653,17.8693608 C0.208034653,17.5135286 0.972970883,17.2252036 1.91736803,17.2252036 C2.75357951,17.2252036 3.88634697,17.2340363 5.18584762,17.2504399 Z M1.74115268,15.1533013 C2.94583179,15.1533013 4.74871393,15.1709667 6.78769536,15.2018812 C6.40459086,15.6485642 6.07176087,16.0624399 5.78665985,16.4334139 C4.16323861,16.4548648 2.74409736,16.466852 1.74115268,16.466852 C0.780209499,16.466852 -1.77190644e-14,16.1734797 -1.77636457e-14,15.8094457 C-1.78079179e-14,15.4479354 0.780209499,15.1533013 1.74115268,15.1533013 Z M8.68075343,13.1839847 C8.2760118,13.5808259 7.90181671,13.9669416 7.56007731,14.335392 C5.27799635,14.3738774 3.23328744,14.3953283 1.91724075,14.3953283 C0.973479992,14.3953283 0.207907376,14.1070033 0.207907376,13.7499093 C0.207907376,13.3934462 0.973479992,13.1038593 1.91724075,13.1038593 C3.44584044,13.1038593 5.95765682,13.1328811 8.68075343,13.1839847 Z M16.3586895,13.3789984 C19.3477955,13.4837291 21.5573285,13.6130653 21.5573285,13.7499723 C21.5573285,13.8717376 19.8308127,13.985932 17.3660889,14.08183 C16.9308007,13.8370377 16.6005162,13.5909835 16.3586895,13.3789984 Z M10.8835407,11.1913875 C10.4768899,11.531447 10.0912398,11.867721 9.72722693,12.197686 C6.81766915,12.2557295 4.05193467,12.2891677 2.44187754,12.2891677 C1.55348239,12.2891677 0.833093193,12.0178772 0.833093193,11.682234 C0.833093193,11.3472218 1.55348239,11.0746695 2.44187754,11.0746695 C4.26385128,11.0746695 7.56860489,11.1188331 10.8835407,11.1913875 Z M18.7534108,11.4498075 C20.0904582,11.521731 20.9317608,11.6005945 20.9317608,11.6826126 C20.9317608,11.7728325 19.9135429,11.8592669 18.3378506,11.9362377 C18.6744989,11.6851362 18.7483197,11.4662111 18.7534108,11.4498075 Z M13.3997481,9.25266994 C13.2177417,9.38389883 13.0344624,9.51512772 12.8486377,9.65266569 C12.6793589,9.7775855 12.5126257,9.90061258 12.3490745,10.0249015 C8.95968151,10.1100741 5.28773306,10.1624395 3.40402986,10.1624395 C2.61618373,10.1624395 1.97852474,9.92206346 1.97852474,9.62490573 C1.97852474,9.327748 2.61618373,9.08611019 3.40402986,9.08611019 C5.48310362,9.08611019 9.74561849,9.15046282 13.3997481,9.25266994 Z M17.1935009,9.38553919 C18.7564655,9.45683181 19.7867747,9.53948077 19.7867747,9.62465337 C19.7867747,9.72622958 18.3396325,9.8214967 16.2707409,9.90351476 C16.5672969,9.73190775 16.8727623,9.55903892 17.1935009,9.38553919 Z M16.102544,7.38770551 C15.9141737,7.51010169 15.7258034,7.63691422 15.5355239,7.76435766 C12.4579602,7.89621746 7.19568256,7.98580642 5.00460483,7.98580642 C4.38667381,7.98580642 3.88456509,7.79716489 3.88456509,7.56309797 C3.88456509,7.32966196 4.38667381,7.13975862 5.00460483,7.13975862 C7.33568753,7.13975862 13.149712,7.24196573 16.102544,7.38770551 Z M14.8727277,5.92078103 C14.8727277,6.08544805 9.35335002,6.22046239 7.5402857,6.22046239 C7.18709135,6.22046239 6.90135394,6.08544805 6.90135394,5.92078103 C6.90135394,5.75485219 7.18709135,5.62046876 7.5402857,5.62046876 C9.35271364,5.62046876 14.8727277,5.75485219 14.8727277,5.92078103 Z" id="Combined-Shape" fill="#747F8A" fill-rule="nonzero"></path>
        <path d="M21.7381894,11.7260797 C21.7509171,11.3986384 21.749008,11.0737207 21.7324619,10.7551121 C18.5212571,10.6289305 15.4761491,10.4371344 15.4761491,10.2213638 C15.4761491,10.0093787 18.4531638,9.81947533 21.6274582,9.69392461 C21.5714562,9.33052153 21.4995446,8.97405844 21.4117233,8.62453534 C18.2826123,8.49772281 15.378782,8.310974 15.378782,8.10088159 C15.378782,7.89836008 18.0897873,7.71602764 21.091621,7.5892151 C20.9541616,7.20940841 20.798247,6.84032715 20.6232408,6.4870186 C18.0452402,6.36399152 15.9146192,6.1999554 15.9146192,6.0207775 C15.9146192,5.85358684 17.7760488,5.69901435 20.1224048,5.57977272 C19.9906729,5.36715668 19.8532135,5.15895699 19.7093902,4.96211366 C19.5566575,4.7476049 19.3905607,4.53498886 19.2149181,4.32615827 C17.7480479,4.21574934 16.7412849,4.09019863 16.7412849,3.9558152 C16.7412849,3.84035901 17.4623104,3.73247372 18.5734408,3.63594477 C17.9669647,3.04099841 17.2503938,2.48516835 16.4059093,2 C16.4059093,2 15.4112377,2.84920234 14.5902995,3.84098992 C13.8584553,4.72552311 12.305673,7.05735955 11.9403873,7.57912057 C11.5744652,8.10088159 11.3339112,8.25356136 10.9062597,8.10214341 C10.3328757,7.90088372 9.66657932,7.79993842 9.46166296,7.79993842 C9.2567466,7.79993842 9.14410624,7.87880193 9.48775479,8.01381627 C9.83013058,8.15072333 11.1837241,8.78415509 11.8500204,10.0932895 C12.5984106,11.5677218 11.9403873,13.6036623 11.9403873,13.6036623 C11.6890147,12.5153458 11.1175399,12.1090409 11.1175399,12.1090409 C11.3020919,13.1197557 11.1009938,14.0358343 10.5976124,14.6787297 L10.316966,13.399248 C10.316966,13.399248 10.1413234,13.4080808 9.70667165,13.0459395 C9.27265625,12.6831673 9.15301564,12.1544663 9.15301564,12.1544663 C9.49475504,12.0181902 9.90586054,12.3582496 9.90586054,12.3582496 C9.38084191,10.4106362 8.62799702,8.82516412 8.07879571,7.98668722 C7.5302308,7.14821032 7.0777602,6.83212535 6.52792251,6.6106766 C6.06399696,6.42645142 5.91126427,6.64285291 5.91126427,6.64285291 C5.50588625,6.98985238 5.20296641,7.30783008 4.88731885,7.68574405 C4.88731885,7.68574405 4.8618634,7.72990761 4.94713915,7.7286458 C5.17305626,7.72549126 5.57525235,8.10845249 5.66307364,8.26744134 C5.76362267,8.44977379 5.7528041,8.58920448 5.70252959,8.59866811 C5.65289147,8.60686991 5.56697933,8.46239195 5.13105477,8.18983964 C4.69767576,7.91791824 4.49848687,8.10655977 4.3540272,8.25797772 C4.24202323,8.37848117 4.35211804,8.52737549 4.42212053,8.62074989 C4.48830469,8.70402976 6.78120422,12.9431015 12.8485104,17.3966819 C20.7995198,23.233213 25.8772454,24.8092215 26.1680739,24.922785 C26.3602625,24.9978631 26.6740009,25.0969156 26.7452762,25.0243612 C26.824188,24.9423431 26.8630076,24.8767287 26.852189,24.7814616 C26.8420069,24.6868254 26.791096,24.6382454 26.4232647,24.4773639 C23.3711564,23.144255 19.80803,20.9221966 17.7836855,19.6288349 C15.2941426,18.426324 12.9172401,16.7089921 12.8306916,16.6679831 C12.6391393,16.5500032 12.7804171,16.3783962 12.8962394,16.4503198 C17.1002067,19.2225301 22.0290179,21.1108381 27.4758475,22.6578248 C27.7361295,22.7310102 27.87868,22.7310102 27.9219543,22.6742284 C27.970956,22.6111376 27.9919567,22.5392141 27.9995934,22.4597197 C28.0065936,22.3606671 27.9238634,22.3083017 27.7004919,22.2218673 C21.8489206,20.0666851 17.5361312,18.0648137 14.7621237,16.2143601 C14.7621237,16.2143601 14.4751136,16.0427531 14.4712952,15.844017 C14.4700225,15.7683081 14.6253007,15.7594754 14.6253007,15.7594754 C16.0138954,15.7348699 17.870234,15.6541137 18.7535381,15.6030101 C18.7535381,15.6030101 18.6275336,15.1594817 17.7817763,14.8023877 C17.1288441,14.52605 16.5242772,14.5702135 15.9260741,14.5651663 C15.7930694,14.5676899 15.680429,14.4345683 15.7867055,14.292614 C15.840162,14.2219522 17.1129344,12.1904281 21.7381894,11.7260797" id="path209" fill="#5C0632" fill-rule="nonzero" transform="translate(16.153041, 13.524832) scale(-1, 1) rotate(-180.000000) translate(-16.153041, -13.524832) "></path>
    </g>
</svg>