<?xml version="1.0" encoding="UTF-8"?>
<svg width="28px" height="28px" viewBox="0 0 28 28" version="1.1" xmlns="http://www.w3.org/2000/svg" xmlns:xlink="http://www.w3.org/1999/xlink">
    <title>QS</title>
    <g id="QS" stroke="none" stroke-width="1" fill="none" fill-rule="evenodd">
        <path d="M7.61344371,5.70138507 C8.92564004,5.52030309 12.266702,5.0509441 13.4433167,4.7886496 C14.6238295,4.52525764 21.1509638,3.56618165 24.5297712,3.50908595 C27.906657,3.45009713 27.7052198,3.67452903 27.8059384,4.29404888 C27.907508,4.91156585 28.201044,5.12935808 27.7784872,5.71299078 C27.355299,6.29857147 26.6319041,6.54635198 25.6218361,6.96448672 C23.7537523,7.73301509 15.504767,9.90498363 14.3930195,10.4596158 C16.0983998,10.3764827 18.5872383,9.90210278 21.0479942,9.83241366 C22.6855974,9.78412513 22.9179995,10.1479353 23.0526204,10.8728942 C23.1863079,11.6007615 23.2810146,11.9908285 22.1703927,12.4399392 C21.0634767,12.8900103 19.7503196,13.3584638 17.1346015,14.1153865 C13.5330548,15.1587753 11.3386308,15.6814438 8.5892801,16.8264855 C10.1000312,16.9639432 12.556889,16.7452729 14.5247305,16.8292291 C17.4774399,16.9551634 17.642065,17.2773522 17.7147009,18.1494265 C17.784427,19.0224885 17.8522316,19.2770459 16.6407264,19.82973 C15.4292212,20.3833745 13.2357579,20.9437683 11.9922995,21.2060902 C10.7459587,21.4692078 6.11595157,22.4604945 5.21629235,22.6976295 C4.42992437,22.9028558 3.74139257,23.8310381 2.49697334,24.2540017 C1.11214105,24.7244033 0.509778669,24.5376145 0.0662491172,23.5425964 C-0.257208747,22.8185978 0.649230926,22.1546305 1.79680222,21.8197386 C2.94146368,21.485807 6.31543967,20.7347009 7.75547639,20.3630439 C9.19746214,19.9874908 12.060104,19.1957511 13.0236697,18.820198 C11.7540777,18.8311727 8.58153885,18.883028 6.22345059,18.9335114 C4.80954745,18.9609481 4.27207979,18.8929052 4.03772862,17.838816 C3.80137351,16.78769 4.25843652,16.4189138 5.53489135,16.0104642 C6.81126382,15.6019872 8.73359123,14.723136 9.97702222,14.3146864 C11.2214415,13.9042888 14.6661044,12.676992 15.6509997,12.4505023 C13.3219548,12.3953547 8.03342011,13.56262 6.67085077,13.8568783 C5.62204901,14.0824076 5.48745562,13.714482 5.08653038,12.9799476 C4.6836561,12.2491721 5.19880592,11.7594277 5.83995689,11.607456 C6.62437583,11.4197892 8.20773543,10.6492306 10.3556845,9.7945785 C12.0949671,9.10155583 14.5605544,8.37078032 16.3782651,7.75422363 C18.103026,7.16672236 21.0286136,6.17557291 21.9641241,5.78163731 C21.2097094,5.77614997 17.7476149,6.28784374 15.4853864,6.59466794 C13.2260677,6.90149214 9.3514361,7.69325936 8.76458367,7.91489272 C8.17479395,8.13740406 7.49400341,8.057289 7.09403896,7.16090579 C6.70088242,6.27236946 7.05341114,5.77582073 7.61215351,5.70130276" id="path15097" fill="#F28E00" fill-rule="nonzero"></path>
    </g>
</svg>