<?xml version="1.0" encoding="UTF-8"?>
<svg width="28px" height="28px" viewBox="0 0 28 28" version="1.1" xmlns="http://www.w3.org/2000/svg" xmlns:xlink="http://www.w3.org/1999/xlink">
    <title>QV</title>
    <defs>
        <radialGradient cx="50.9864587%" cy="49.014014%" fx="50.9864587%" fy="49.014014%" r="35.9157849%" gradientTransform="translate(0.509865,0.490140),scale(0.966487,1.000000),translate(-0.509865,-0.490140)" id="radialGradient-1">
            <stop stop-color="#FEC32F" offset="0%"></stop>
            <stop stop-color="#FEC32F" offset="5.88235%"></stop>
            <stop stop-color="#FEFEFE" offset="52.9412%"></stop>
            <stop stop-color="#FEFEFE" offset="100%"></stop>
        </radialGradient>
        <linearGradient x1="7.23200887%" y1="87.9638133%" x2="51.8700972%" y2="46.1075935%" id="linearGradient-2">
            <stop stop-color="#24A859" offset="0%"></stop>
            <stop stop-color="#5BB852" offset="9.41176%"></stop>
            <stop stop-color="#24A859" offset="18.8235%"></stop>
            <stop stop-color="#92C84B" offset="100%"></stop>
        </linearGradient>
    </defs>
    <g id="QV" stroke="none" stroke-width="1" fill="none" fill-rule="evenodd">
        <path d="M7.56684682,25.7585329 L8.11506438,25.441392 L9.72061818,24.082549 L10.8339985,23.449226 L11.778066,22.9458417 L12.4578169,22.3499181 L14.53471,20.7483218 L16.2157531,19.2957065 L17.0843314,17.9922091 C17.0843314,17.9922091 18.3486903,16.5576085 18.3682745,16.5023999 C18.3877197,16.4459584 19.407346,14.9934801 19.407346,14.9934801 L20.633995,12.7958917 L21.6536213,10.9151018 L22.068986,9.63003009 L22.7864468,8.00918621 L23.5038382,5.86762833 L23.9947617,4.93648047 L24.5051999,3.94943909 L25.2787742,2.72039789 L26.6004271,1.13750133 L25.2984278,1.23045172 L24.3542213,1.50991938 L22.1822547,2.08714337 L20.2941195,2.86931031 L18.2172264,3.91224523 L16.0829698,5.06683021 L14.2144188,6.5381452 L12.2130149,8.71429405 L11.627018,9.81620486 L10.3809238,13.3172907 L9.62554473,15.087047 L8.7752311,17.712125 L8.68147715,19.6117515 L8.85085929,20.7110595 L8.81432997,21.3815763 L8.93287663,22.1508659 L9.04621475,22.5361613 L8.98364266,23.0705747 C8.98364266,23.0705747 8.6946027,23.4429928 8.68147715,23.517449 C8.66855993,23.5918367 8.19062312,24.6347716 8.19062312,24.6347716 L7.59941763,25.5158482 L7.2712788,25.9256656 L7.56684682,25.7586014 L7.56684682,25.7585329 Z" id="path25" fill="#FEFEFE" fill-rule="nonzero"></path>
        <path d="M16.4696527,19.4448244 C16.1571396,18.0000178 14.5007503,16.8158421 13.0358969,16.7926216 C13.0358969,16.7926216 13.0111041,16.7926216 12.9876309,16.7926216 C12.0748841,16.7926216 11.1385946,16.8877639 9.74534145,17.7392498 C10.1060511,17.644176 10.6581577,17.7636347 10.9940747,17.9292604 C10.3703678,17.8341866 9.8417344,17.8573386 9.45762098,18.1424915 C9.45762098,18.7577313 9.64901794,19.3972875 9.74534145,20.0136918 C10.538361,20.7714738 11.7870942,21.5292558 12.9876309,21.6950185 C13.2037512,21.7192664 13.4199408,21.7192664 13.6361999,21.7192664 C14.3562303,21.6704966 15.0997339,21.2915713 15.6765637,20.7946258 C15.9890769,20.5107743 16.2768668,20.2256899 16.4696527,19.8943016 C16.5659068,19.7530608 16.5178492,19.5873666 16.4696527,19.4447559 L16.4696527,19.4448244 Z M8.85731789,18.2851022 C8.61633551,18.8758201 8.32861505,19.8481346 7.91963947,20.2731583 C8.08895216,19.941907 8.5928623,18.4262744 8.54473527,18.0950231 C8.04082513,18.4982647 7.48864907,18.8526681 6.98341944,19.1366565 C6.23991587,19.5629817 5.59148575,19.8481346 5.25417986,19.918755 C5.01451698,20.5108428 4.75026973,21.3867821 4.7021427,22.216349 C4.65387678,22.7609684 4.77492355,23.3055878 4.99118266,23.755065 C5.30237634,24.4421581 5.51856601,24.9635571 6.57576336,24.6077838 C6.71910274,24.5603154 6.86362272,24.5140114 6.98334999,24.4666115 C7.91957002,24.0863848 8.64105877,23.44813 9.07336867,22.0032549 C9.09684188,21.9082496 9.14496891,21.7900238 9.16844212,21.6474816 C9.38463179,20.7946943 9.24136186,20.0601327 9.07336867,19.3035837 C9.00044893,18.9709624 8.92884869,18.639574 8.857179,18.2851022 L8.85731789,18.2851022 Z M8.23222209,17.5504721 C7.99262866,17.4310134 6.98348889,17.6685609 7.07988184,17.6442445 C7.27120935,17.5736241 8.20874888,17.1715469 7.84803923,17.0764731 C7.56024932,16.8633105 7.27120935,16.6500794 6.98341944,16.4600688 C6.21512316,15.8924344 5.4950928,15.3479519 4.82318947,14.589485 C3.83870352,14.6364739 2.51705057,15.3248 1.41290679,16.0579916 C0.3555011,16.7683052 -0.436268394,17.5735556 0.380293812,18.3081856 C1.9414013,19.7530608 3.38167036,19.8236127 4.58227653,19.6105186 C5.25417986,19.4924298 6.21512316,19.0415142 6.98341944,18.5688851 C7.58372253,18.1900284 8.08895216,17.8111031 8.23222209,17.5504721 L8.23222209,17.5504721 Z M6.98348889,15.9873712 C7.31954472,16.2236857 7.72831196,16.4845222 8.20874888,16.7926216 C8.20874888,16.7683052 8.20874888,16.7683052 8.20874888,16.7683052 C7.82470491,16.5781576 7.72831196,15.3711039 7.68018493,14.9690267 C7.7999122,15.4904941 8.13714864,16.4368483 8.66453199,16.6976848 C8.42507745,15.2528781 8.44834232,13.8317029 9.07350756,12.5056015 C9.09698078,12.4342962 9.1451078,12.3630593 9.16858102,12.268602 C9.1451078,12.1972967 9.12031509,12.1030448 9.07350756,12.0079025 C8.61640496,10.9420211 7.96797484,10.1373872 7.1046051,9.59215126 C7.05640863,9.56845131 7.03168536,9.54468286 6.98348889,9.54468286 C6.55124844,9.28398338 6.04733831,9.09513722 5.51863546,8.95259502 C5.11104883,8.88197464 4.82325892,8.71559549 4.60706925,8.83450624 C4.43775655,8.90567459 4.31802928,9.18959455 4.19816312,9.47406248 C3.4532706,11.226489 4.05357369,13.1920782 5.3270996,14.5420166 C5.71128247,14.9690267 6.1188691,15.3711039 6.98341944,15.9873712 L6.98348889,15.9873712 Z M9.07350756,13.6660088 C8.90551437,14.6364739 8.95239135,15.4660407 9.07350756,16.1762173 C9.12031509,16.4126004 9.16858102,16.6269274 9.21670805,16.8402955 C9.26483507,16.7220697 9.62554473,15.3479519 10.1295243,14.8971734 C9.72186823,15.538031 9.55387504,16.34198 9.50574801,17.099625 C9.6737412,17.1715469 9.72186823,17.1240785 9.88986143,17.099625 C10.6581577,16.7220697 11.4979153,16.3894484 12.362674,16.318828 C12.6034481,16.1531339 12.7949839,15.9873712 12.9876309,15.7974976 C13.8510007,15.0164951 14.3797035,14.1163079 14.5242235,13.1452263 C14.5958237,12.4813536 14.5007503,11.8422768 14.236503,11.0371634 C14.091983,10.4687755 14.236503,10.4213071 12.9876309,10.3261648 L12.9147112,10.3261648 C11.5709045,10.231913 9.55387504,11.1314152 9.09691133,13.4766146 C9.09691133,13.547235 9.07343812,13.6185404 9.07343812,13.6660088 L9.07350756,13.6660088 Z" id="path27" fill="url(#radialGradient-1)"></path>
        <path d="M16.4735418,19.8969729 C16.2808948,20.2282928 15.992966,20.5133772 15.6817723,20.7971602 C15.1049424,21.2942427 14.3601194,21.6744009 13.640089,21.7219378 C13.4239688,21.7219378 13.2077791,21.7219378 12.9916589,21.6975529 C11.7911221,21.5318587 10.54225,20.7741452 9.7492305,20.0164317 C9.65297644,19.3998219 9.46151003,18.7602657 9.46151003,18.1450943 C9.84562345,17.8599414 10.3743263,17.8369265 10.9979637,17.9319318 C10.6621162,17.7663746 10.1099402,17.6467789 9.7492305,17.7419212 C11.1425531,16.8891338 12.0788426,16.7953615 12.9916589,16.7953615 C13.0150626,16.7953615 13.0398554,16.7953615 13.0398554,16.7953615 C14.5047088,16.8185135 16.1610286,18.0025521 16.4736112,19.4474958 C16.5218077,19.590038 16.5700736,19.7558007 16.4736112,19.8970414 L16.4735418,19.8969729 Z M9.17372012,21.650016 C9.14892741,21.7925582 9.10080038,21.9107155 9.07732717,22.0057893 C8.64501728,23.4492945 7.92498692,24.0889877 6.98869744,24.4690774 C6.86765067,24.5153129 6.72438074,24.5628498 6.57986076,24.6104552 C5.52377456,24.96616 5.30765434,24.444761 4.99507172,23.7575309 C4.77895149,23.3079852 4.65908533,22.7635713 4.70735125,22.2189518 C4.75415878,21.389248 5.01854493,20.5133087 5.25938842,19.9212209 C5.59544425,19.8506005 6.24387437,19.5654476 6.98869744,19.1391224 C7.49260758,18.855271 8.04478363,18.5007991 8.54862432,18.097489 C8.59689025,18.4289458 8.09284122,19.9443043 7.92498692,20.2757612 C8.3325041,19.8506005 8.62022456,18.8784229 8.8611375,18.2863351 C8.93273774,18.6421084 9.00565748,18.9734282 9.07732717,19.3048166 C9.24532036,20.0625986 9.38984035,20.7970917 9.17372012,21.6499475 L9.17372012,21.650016 Z M4.58616559,19.61319 C3.38569831,19.8263526 1.94549869,19.7557322 0.384252312,18.3107885 C-0.432170999,17.57609 0.3607791,16.7709081 1.41686529,16.0606629 C2.52100907,15.3261014 3.84273146,14.6389398 4.82714797,14.5921563 C5.49912075,15.3493219 6.21922055,15.8949003 6.98876689,16.4625347 C7.27648735,16.6527508 7.56427726,16.8659134 7.85213662,17.0791444 C8.21284628,17.1729168 7.27648735,17.5761585 7.08384034,17.6467789 C6.98876689,17.6712323 7.99665661,17.4335478 8.23750009,17.5531435 C8.09291066,17.812473 7.58906998,18.1926997 6.98876689,18.571625 C6.21929,19.0441171 5.25945786,19.4949642 4.58623503,19.6132585 L4.58616559,19.61319 Z M4.20212162,9.47598039 C4.32184889,9.19219743 4.44296511,8.9077295 4.6109583,8.83704063 C4.82707852,8.71833537 5.11486843,8.88389256 5.52377456,8.9552664 C6.05115791,9.09719213 6.55638755,9.28651777 6.98862799,9.54735424 C7.03675502,9.54735424 7.06022823,9.57105419 7.10835526,9.59482264 C7.971725,10.1394421 8.62015512,10.9446925 9.07725772,12.0105054 C9.12538475,12.1049627 9.14885796,12.2000365 9.17365067,12.2712734 C9.14885796,12.3657307 9.10073093,12.4368306 9.07725772,12.5075879 C8.45230082,13.8343743 8.4288276,15.255481 8.66842104,16.7001507 C8.14103769,16.4394512 7.80366236,15.4917956 7.68393509,14.9716296 C7.73206212,15.3735698 7.82845507,16.5807605 8.21263793,16.7708396 C8.21263793,16.7708396 8.21263793,16.7708396 8.21263793,16.795293 C7.73206212,16.4870566 7.32461438,16.2263571 6.98855855,15.9900426 C6.1240082,15.3736383 5.71503263,14.9716981 5.33091921,14.5446879 C4.05871279,13.1946811 3.4584097,11.2290234 4.20198272,9.47598039 L4.20212162,9.47598039 Z M12.9187391,10.3289047 L12.9916589,10.3289047 C14.2403921,10.4238415 14.0958721,10.4707619 14.2403921,11.0396978 C14.5046393,11.8450167 14.6011017,12.483888 14.5281125,13.1472812 C14.3835926,14.1182943 13.8562092,15.019235 12.9915894,15.7999635 C12.7988035,15.9901111 12.607476,16.1558052 12.3664936,16.3214309 C11.5031239,16.3920513 10.6620468,16.7234397 9.89375048,17.1022964 C9.72575729,17.1266813 9.67756081,17.1729168 9.50956762,17.1022964 C9.55783354,16.3445144 9.72575729,15.539401 10.1333439,14.8998447 C9.62943378,15.3493904 9.26879358,16.7234397 9.22052765,16.8415969 C9.17372012,16.6297358 9.1254542,16.4152033 9.07732717,16.1788887 C8.9575999,15.4688491 8.90933397,14.6390768 9.07732717,13.6688171 C9.07732717,13.6212117 9.10080038,13.5500434 9.10080038,13.479286 C9.55790299,11.1342236 11.5749325,10.2338994 12.9187391,10.3289732 L12.9187391,10.3289047 Z M16.5932691,19.4243438 C16.0412319,17.8844634 14.6726325,16.557677 12.9915894,16.3445144 C12.8235962,16.3213624 12.6309492,16.297046 12.462956,16.3213624 C12.655603,16.1788202 12.8235962,16.037511 12.9915894,15.8949688 C13.9278095,15.0898553 14.5046393,14.1182258 14.6010323,13.0759758 C14.6726325,12.483888 14.5281125,11.8918002 14.3366461,11.205392 C14.2403921,10.9683925 14.3119923,10.6371411 14.0723294,10.44761 C13.8562092,10.3050678 13.3275064,10.2582158 13.0149237,10.2337624 L12.99152,10.2337624 C11.8391103,10.1156736 10.5174573,10.2812308 9.24525092,12.2000365 C9.19712389,12.0811943 9.12538475,11.9392686 9.07725772,11.8211113 C8.64494783,10.8733187 8.01985203,10.1394421 7.22822143,9.6185226 C7.15662119,9.57105419 7.06022823,9.52358579 6.98862799,9.47598039 C6.53159483,9.19219743 6.02761525,9.0028033 5.47550864,8.88389256 C5.1395917,8.78957222 4.87520555,8.69449842 4.65908533,8.71833537 C4.41824184,8.76580377 4.27497191,9.02595528 4.13052138,9.33412316 C3.41035212,11.2998493 3.64994556,12.9102816 4.77895149,14.5209195 C3.93766602,14.5922248 2.47413209,15.2310961 1.39332264,15.9900426 C0.648499565,16.4871251 0.0716696885,17.031676 8.8817842e-15,17.5761585 L8.8817842e-15,17.812473 C0.0247232646,18.0270056 0.144519982,18.2401681 0.360709653,18.4520978 C2.08862973,19.9690318 3.43375589,20.2758982 5.21119194,19.9444413 C4.92347148,20.5365292 4.73061612,21.2712277 4.63436206,22.0289412 C4.56276182,22.668566 4.73068557,23.3312742 4.92347148,23.8295212 C5.16306491,24.5153814 5.52377456,24.9430765 6.45992515,24.7530659 C6.65139155,24.7054605 6.8206348,24.6579921 6.98862799,24.5873717 C7.971725,24.2315984 8.64494783,23.4738164 9.07725772,22.6210976 C9.50949817,21.7681733 9.70103402,20.8447656 9.72568784,20.1576039 C10.7348971,20.7971602 11.6463938,21.6026161 12.99152,21.7681733 C13.2077097,21.7926267 13.4473031,21.7926267 13.6881466,21.7926267 C14.2155299,21.7681733 14.912226,21.4611698 15.5125291,21.0105282 C15.9696317,20.6791399 16.4253453,20.2527462 16.5699347,19.8263526 C16.6180618,19.6838104 16.6180618,19.5424326 16.5932691,19.4243438 L16.5932691,19.4243438 Z" id="path31" fill="#EA3639"></path>
        <path d="M10.3495336,21.7681733 C10.3743263,21.7681733 10.3260604,21.8400951 10.3743263,21.8400951 C10.5175268,21.5318587 10.6867006,21.2236908 10.8782364,20.9153859 C10.68677,20.7971602 10.494123,20.6545495 10.2779333,20.5365292 C10.1099402,20.3952884 9.91722369,20.2758297 9.72575729,20.1576039 C9.72575729,20.2527462 9.70110347,20.370835 9.70110347,20.4889923 C9.89375048,20.8679175 10.1333439,21.2236908 10.2779333,21.6025476 C10.3027261,21.650016 10.3260604,21.6974844 10.3495336,21.7681048 L10.3495336,21.7681733 Z M11.5266666,21.2943112 C11.3352696,21.3186961 11.1659569,21.3417796 10.9979637,21.3663015 C10.7818435,21.8158472 10.5421806,22.2421723 10.3261298,22.668566 C11.0944261,22.7866548 11.5983362,22.6916495 12.2468358,22.3127927 C12.1752356,22.3602611 12.1269696,22.4553349 12.0788426,22.5504087 C11.4304125,22.904812 10.9499061,23.0474227 10.2780028,23.1655115 C10.1582755,23.1899649 10.0384094,23.2131169 9.89388938,23.2374333 C9.24545926,24.0414508 8.54876322,24.8005343 7.75706317,25.4400905 C8.21284628,24.8956081 8.69321375,24.3266037 9.17378957,23.7820528 L8.66855993,24.2084464 C9.05267335,23.686979 9.94194696,22.7866548 9.94194696,22.0764096 C9.86916611,21.8631786 9.72582673,21.5549422 9.5812373,21.2004703 C9.413383,21.9813358 9.05267335,22.8341232 8.47702408,23.5212163 C8.38077002,23.7575309 8.26083441,23.9952154 8.14110714,24.2083779 C7.54080405,25.2730264 6.69958803,26.0795098 5.88316472,26.4109666 L5.8596915,26.4109666 L5.8596915,26.8129754 C5.8596915,27.1919006 5.8596915,27.4525316 6.14741197,27.5 L6.17088518,27.5 L6.19567789,27.476848 C6.48339836,26.6703647 7.58900053,25.9845045 8.95753045,25.1086337 C9.31685116,24.8710177 9.70103402,24.6346346 10.1098707,24.3740036 C10.1581366,24.3264667 10.2297369,24.3033832 10.2778639,24.2557778 C11.1658875,23.66369 12.0552305,22.9766654 12.9667967,22.2188833 C13.1594437,22.0763411 13.3275064,21.9337304 13.5201534,21.7924897 C13.3275064,21.7924897 13.1594437,21.7924897 12.9667967,21.7680363 C12.4394134,21.6974159 11.958907,21.5073368 11.5265971,21.2941742 L11.5266666,21.2943112 Z M27.9754156,0.5 C27.7592954,0.547468403 27.5430363,0.57062038 27.3282356,0.594388829 C26.7748095,0.689325635 26.1745758,0.783782961 25.1901593,1.06825089 C24.7813226,1.18647667 24.3502628,1.30525042 23.9179529,1.4233392 C22.2851063,1.84986986 20.5311434,2.32366342 18.5387678,3.31837647 C16.5933385,4.28938957 14.6011017,5.63925942 12.9668662,7.43977086 C12.8471389,7.58169659 12.7272727,7.72362232 12.6075455,7.86554805 C11.9108494,8.71840387 11.2858925,9.64174307 10.7818435,10.6372096 C11.1659569,10.4002101 11.5749325,10.2812993 11.9589764,10.2338309 C11.9589764,9.85497415 12.0072424,9.31049171 12.2233626,9.31049171 C12.1269696,9.61859109 12.1034964,9.926211 12.1269696,10.2106789 C12.4146901,10.186979 12.7037995,10.186979 12.9668662,10.2106789 C12.9916589,10.2338309 12.9916589,10.2338309 13.0149932,10.2338309 C13.3275064,10.2582843 13.8562092,10.3051363 14.0723989,10.4476785 C14.3119923,10.6372096 14.2403921,10.9684609 14.3367156,11.2054605 C14.528182,11.8918686 14.672702,12.4839565 14.6011017,13.0760443 C14.6011017,13.1711181 14.576309,13.2424235 14.576309,13.3130439 C14.7443022,12.9341186 14.8641684,12.5077249 14.8641684,12.0582478 C14.720829,11.3474547 14.4083853,10.8972241 14.1439991,9.9262795 C13.8796824,8.93163495 14.0007986,7.77122772 14.5046393,6.610752 C14.3366461,7.29722866 14.2403921,7.889385 14.4083853,8.60017809 C14.576309,9.31049171 15.0568154,10.2338309 15.224878,10.7552984 C15.3927323,11.2999178 15.3446053,11.3948546 15.4409983,11.7261745 C15.7287882,11.181692 16.1845018,10.5183673 16.3290218,9.95004795 C16.4019416,9.45241744 16.2808948,8.93156645 16.2808948,8.62401504 C16.2574216,8.33947861 16.1375554,7.86554805 16.0646357,7.20283983 C15.9930354,6.23134726 16.0178281,5.14217688 16.5452115,5.04724008 C16.4254842,5.30793956 16.3290218,5.30793956 16.257491,5.82872205 C16.2092251,6.32635256 16.8095282,8.17392143 16.9775214,9.33426016 C17.3135078,8.78977771 17.6976906,8.24447331 18.0583308,7.72369082 C17.9384647,6.46827829 17.625882,4.62091492 18.8513504,3.76867557 C18.5152945,4.28945806 18.3942478,4.57392599 18.3461207,5.11854543 C18.3461207,5.33170801 18.3226475,6.84713505 18.5388372,7.08413458 C18.9711471,6.63397247 19.4035264,6.20826378 19.8591706,5.80557007 C19.9074366,5.73426472 20.0036906,5.61617594 20.0271638,5.56870754 C20.1482106,4.50268914 20.0519566,3.53167604 20.9165069,2.8446514 C20.7719869,3.05788248 20.5557972,3.27104506 20.5076702,3.55551299 C20.4594043,3.83929595 20.43607,4.8816144 20.6521902,5.07094003 C21.1079733,4.64461487 21.5883408,4.19438426 22.0689166,3.79182755 C22.1652401,3.41297079 22.213506,3.08165093 22.3566371,2.77403102 C22.5246303,2.39448929 22.6692197,2.20509516 23.0766674,2.06316943 C22.6208843,2.41825774 22.3814298,2.797183 22.692554,3.38975032 C23.3645962,2.8921198 23.9414261,2.51333154 24.4701289,2.15810624 C24.518256,1.85000685 24.6614565,1.58917037 24.9740391,1.47108159 C24.9024388,1.54238694 24.8060459,1.63663878 24.7579189,1.75486455 C24.7344456,1.8261699 24.7344456,1.9212437 24.7344456,2.01556403 C25.0469588,1.8261699 25.3582219,1.68431267 25.7188622,1.54238694 C25.3347487,1.77924948 24.9740391,2.01556403 24.5898562,2.22879511 C24.2291466,2.48956309 23.8931602,2.77403102 23.5091162,3.05788248 C23.7499597,3.05788248 24.2538698,3.08165093 24.4453362,3.03404553 C24.6614565,3.01034558 24.7813921,2.91595675 24.9504964,2.86848835 C24.7343762,3.01041408 24.6614565,3.22357666 24.3020663,3.27104506 C23.9648299,3.31851346 23.53377,3.31851346 23.1495872,3.34235041 C22.5962305,3.72127567 22.1169742,4.21822121 21.6847337,4.71592022 C22.2602441,4.8816144 23.1495872,4.76352562 23.53377,4.62098341 C23.9413567,4.47892069 23.9413567,4.43145229 24.1575463,4.24205816 C23.7498902,5.09477698 21.9725236,5.09477698 21.2757582,5.09477698 C21.0596379,5.35554496 19.9307709,6.18449533 19.9307709,6.51595218 C20.9633839,6.58725753 22.1405168,6.61088899 23.1248639,6.35025801 C22.0440544,6.91857739 20.675594,6.94234584 19.4501951,7.01296622 C19.0192741,7.22681377 18.4423054,8.22145833 18.1545154,8.60031509 C19.2106016,8.60031509 20.627328,8.71854086 21.3005509,8.69477241 C21.9959274,8.67093547 21.9478004,8.50537828 22.2850368,8.43462091 C21.8760612,8.93177194 20.7237904,8.95560889 20.1950876,8.97924034 C19.7393045,8.97924034 19.2353943,8.95554039 18.8264882,9.02616077 C18.4190405,9.09746612 18.0816651,9.21617137 17.6976212,9.28679175 C17.2900346,9.90271654 16.8823785,10.5184358 16.4735418,11.1581291 C16.9539787,11.1105237 17.3381616,11.0637402 17.9138109,11.0399033 C18.4671675,11.0399033 19.0674706,11.1105237 19.5466575,11.0867552 C20.1950876,11.0867552 20.7719175,10.9924349 21.5648676,10.6610465 C20.7719175,11.2769028 19.9073671,11.5132859 18.8980885,11.5606858 C18.418971,11.6082227 16.7861244,11.3949916 16.0177587,11.8920056 C15.7768457,12.3896362 15.5125985,12.8873352 15.2481429,13.3844177 C15.7287187,13.4081177 16.1844324,13.455723 16.6648693,13.5025065 C17.6024783,13.6688856 18.4422359,13.8345798 19.2821324,13.6450487 C19.5231148,13.5737433 19.7627082,13.5025065 20.0035517,13.3605808 C20.0035517,13.5975803 18.9709388,13.976437 18.7300953,14.000137 C18.2027119,14.0947313 17.6506053,14.0239739 17.1219025,14.0477424 C16.3288829,14.0715793 15.5606561,14.0946628 14.7690255,14.1421312 C14.5045699,14.7111356 14.2155299,15.27877 13.92774,15.8707893 C15.0567459,16.037648 16.9057128,16.3446514 17.5776856,16.2495776 C18.2261157,16.1558737 18.2027814,15.9182577 18.3225086,16.037648 C18.0815263,16.2020407 17.8185985,16.297183 17.5294891,16.3921198 C17.0502328,16.580966 16.6414655,16.534662 16.0892895,16.534662 C15.2962699,16.5102771 14.5280431,16.4396567 13.7597468,16.3921198 C13.7364125,16.4152033 13.7115503,16.4626717 13.6881466,16.5102771 C14.6960363,16.8415969 15.5371134,17.553212 16.1127627,18.4521663 C16.2090167,18.4291513 16.3054097,18.4059993 16.4018721,18.3815459 C16.3536062,18.4521663 16.2573521,18.5010731 16.1608897,18.5472401 C16.2807559,18.7373192 16.3770794,18.9261653 16.4734029,19.1161759 C16.6413961,18.9029449 16.832793,18.6897823 17.0254401,18.4766197 C17.7221361,17.6468474 18.3705662,16.7709766 18.9943425,15.9182577 C19.8355585,14.7585355 20.5075313,13.6925856 21.1312382,12.484025 C21.7327219,11.2768343 22.2601052,9.99758485 22.8122118,8.48147284 C23.4854347,6.58712054 24.1091415,4.9290143 24.9022305,3.60298139 C25.6938611,2.27640051 26.6548738,1.25791901 28,0.570757374 L27.9752767,0.5 L27.9754156,0.5 Z M13.0149932,16.3445144 C13.1829864,16.037511 13.3522991,15.7050952 13.495569,15.3980917 C13.3523685,15.5637859 13.1595132,15.7293431 12.9668662,15.8949688 C12.8236657,16.037511 12.6309492,16.1788202 12.462956,16.3213624 C12.6309492,16.2969775 12.7988035,16.3213624 12.9668662,16.3445144 C12.9916589,16.3445144 13.0149932,16.3445144 13.0149932,16.3445144 L13.0149932,16.3445144 Z" id="path33" fill="url(#linearGradient-2)"></path>
    </g>
</svg>