<?xml version="1.0" encoding="UTF-8"?>
<svg width="28px" height="28px" viewBox="0 0 28 28" version="1.1" xmlns="http://www.w3.org/2000/svg" xmlns:xlink="http://www.w3.org/1999/xlink">
    <title>QX</title>
    <g id="QX" stroke="none" stroke-width="1" fill="none" fill-rule="evenodd">
        <path d="M5.82188338,2.97809836 C6.03496062,3.82793443 5.70158516,6.68786885 4.96092554,10.3606557 C4.75177962,11.397377 4.64327535,11.442623 2.3713688,11.442623 L0,11.442623 L0.257501088,12.9180328 C0.502028839,14.3186885 2.04703537,16.2272787 3.26574281,16.6340984 C3.69111102,16.7757377 3.63921767,17.6330492 2.98976454,21.210623 C2.54985047,23.6314754 2.27741039,25.6998033 2.38394901,25.8064262 C2.49048762,25.9126557 3.94861211,26 5.6245314,26 L8.6713,26 L9.09706134,24.0135082 C9.33136768,22.920918 9.53697542,21.6371148 9.5542732,21.1610492 C9.57196411,20.6845902 9.79290398,19.5314098 10.0456875,18.5985574 L10.5056513,16.9016393 L14.928773,16.8280656 C20.0721115,16.7419016 19.7135757,16.2410492 18.6057313,21.9632787 C18.2184968,23.9627541 17.99166,25.6887869 18.1021299,25.7993443 C18.3800739,26.0771148 24.4618171,26.0531148 24.4618171,25.7741639 C24.4618171,25.6498361 25.2579083,21.1881967 26.2309086,15.8594098 C27.2039088,10.5302295 28,5.59881967 28,4.90045902 C28,3.03121311 26.5131769,2 23.8190472,2 L21.7098971,2 L21.709504,3.27868852 C21.7091108,3.98216393 21.4437471,6.06229508 21.1201999,7.90163934 C20.7966528,9.74098361 20.531289,11.2903607 20.5308959,11.3442623 C20.5308959,11.3981639 18.4728529,11.442623 15.9579911,11.442623 L11.3854794,11.442623 L11.6374767,9.96721311 C12.452045,5.19554098 12.4241327,3.98059016 11.477079,2.97140984 C10.693175,2.13652459 10.214734,2 8.0709883,2 C5.60998554,2 5.57971442,2.01337705 5.82188338,2.97809836" id="Path" fill="#00AAD1"></path>
    </g>
</svg>