<?xml version="1.0" encoding="UTF-8"?>
<svg width="28px" height="28px" viewBox="0 0 28 28" version="1.1" xmlns="http://www.w3.org/2000/svg" xmlns:xlink="http://www.w3.org/1999/xlink">
    <title>R3</title>
    <g id="R3" stroke="none" stroke-width="1" fill="none" fill-rule="evenodd">
        <path d="M3.66522237,10.9698265 C4.76893821,10.5118742 5.09435272,10.4756809 5.88338977,10.5094122 C5.95917019,10.5127368 6.18060869,10.5402862 6.3681208,10.6148295 C6.60936881,10.7107401 6.81923108,10.8621809 6.84479049,10.9026873 C7.08126283,11.2749723 6.42900111,11.5284697 6.13459029,11.7149896 C5.72791289,11.9726563 5.67077671,11.7705736 5.69110199,11.6084042 C5.70197142,11.5204188 5.76298545,11.4507815 5.74115106,11.4571253 C4.65670985,11.2501545 3.3478119,11.9744714 2.91186916,12.6231847 C2.3484159,13.4615269 2.88900323,13.9646759 4.73413309,12.9231189 C4.8629044,12.8870333 5.67858972,12.0984346 5.99502596,11.9235418 C6.82452253,12.2854936 6.34183549,13.1158388 6.16053175,13.3059349 C6.02629708,13.446647 5.00743543,14.8632925 5.18948417,15.024761 C5.36478965,15.1802991 6.27195781,14.5560082 6.45326154,14.3731004 C6.45853389,14.3677631 6.46472316,14.364744 6.47085513,14.3629109 C6.52818233,14.233826 6.60593032,14.0959174 6.70408,13.9492389 C6.94114452,13.5997769 7.14265891,13.3766144 7.30847035,13.2812429 C7.46900945,13.1857635 7.57732176,13.1315453 7.63216561,13.1186602 L7.63216561,13.1186602 L7.83494078,13.0954957 L8.05848059,13.0825567 C8.15995413,13.0825567 8.23395799,13.0941479 8.28053038,13.1186602 C8.31764693,13.1277355 8.33678783,13.1728604 8.33678783,13.2566766 C8.33678783,13.3082351 8.30255579,13.3739906 8.2339771,13.4527211 L8.2339771,13.4527211 L8.05168002,13.6461598 L7.57598457,14.0382847 C7.45670731,14.1310684 7.34285521,14.2240139 7.23322481,14.3207153 C7.11805463,14.4200584 7.02479524,14.5077204 6.95358038,14.5825512 L6.95358038,14.5825512 L6.93976912,14.7927028 C7.03711649,14.7076825 7.15503746,14.6108913 7.29481192,14.5 C7.4347392,14.3877467 7.55812355,14.2898054 7.66360866,14.2071752 L7.66360866,14.2071752 L8.30532568,13.7236144 L8.8564195,13.3637293 C8.91665031,13.3276257 8.99621306,13.2812429 9.09222323,13.2257308 C9.18943688,13.1703085 9.2773093,13.1225239 9.35257394,13.0825567 C9.42109533,13.0555284 9.48147897,13.0322202 9.53227305,13.0167832 C9.582857,13.005138 9.63496917,12.9961346 9.68981302,12.9884071 C9.81713252,12.9884071 9.92149058,13.0477291 10.0009578,13.1650431 C10.0776934,13.2850167 10.116128,13.4127359 10.116128,13.5493866 C10.116128,13.600999 10.0434613,13.6706901 9.89946516,13.758424 C9.75013935,13.846086 9.61307747,13.8898811 9.48696144,13.8898811 C9.4307804,13.8898811 9.39922274,13.8732041 9.39087486,13.8421863 C9.39087486,13.817674 9.35530563,13.7944736 9.28277267,13.7699793 C9.12651258,13.7699793 8.88916153,13.8654227 8.57115887,14.0574776 C8.25447429,14.2484903 8.03374259,14.4238143 7.91184825,14.5825153 C8.02147865,14.6070096 8.12704018,14.6624857 8.22839911,14.7502376 L8.22839911,14.7502376 L8.45199622,14.9771741 L8.56584832,15.12662 L8.68634815,15.2455334 C8.73697031,15.2932461 8.83720218,15.3176326 8.98513349,15.3176326 C9.0948403,15.3176326 9.24290534,15.2672423 9.42927129,15.1680609 C9.61074694,15.0751334 9.94777589,14.8444051 10.4419628,14.4755705 C10.5294913,14.1779365 10.7382265,13.8656024 11.0672515,13.5378672 C11.5156492,13.0902482 11.8280738,12.8671396 12.0022714,12.8671396 C12.048901,12.8671396 12.116047,12.9097126 12.2050465,12.9935109 C12.2888119,13.0773631 12.3380586,13.1547098 12.3517171,13.2256769 C12.3517171,13.3623994 12.243634,13.5378672 12.025634,13.7519365 C11.8062967,13.9673177 11.6363018,14.1259647 11.5170628,14.2290817 C11.3949392,14.3374282 11.2729684,14.4380652 11.1497178,14.529555 C11.0440226,14.6650376 10.9905159,14.8133873 10.9905159,14.9771741 C11.231783,14.9461563 11.4128193,14.8881822 11.5320584,14.804366 C11.6457768,14.7205138 11.7595333,14.6316297 11.8732899,14.5360605 C11.9885938,14.4393412 12.120135,14.3284248 12.2695181,14.2007236 L12.2695181,14.2007236 L13.1384809,13.4243271 C13.4345536,13.1650251 13.6236704,13.0258765 13.7035388,13.0051201 C13.7130328,13.0013282 13.7210942,12.9999804 13.7294229,12.9999804 C13.7801597,12.9999804 13.8226632,13.0387077 13.857029,13.1186422 C13.8993797,13.2179853 13.9214051,13.309565 13.9214051,13.3946931 C13.9214051,13.4604666 13.9185397,13.5068315 13.9144708,13.5301038 C13.9048621,13.5597917 13.8883192,13.5970813 13.8624924,13.6461419 L13.8624924,13.6461419 L13.7678576,13.8009611 C13.7595288,13.8280253 13.7005397,13.9170171 13.5895148,14.0691767 L13.5895148,14.0691767 L12.3696354,15.7728174 L12.3833129,15.7844625 L14.1097959,14.3452635 C14.1696447,14.2066001 14.2515953,14.0728787 14.3558196,13.9440993 C14.5972395,13.6448839 14.7919534,13.4449577 14.939942,13.3456685 C15.0894015,13.2502071 15.2333977,13.2024764 15.3720642,13.2024764 C15.4666225,13.2115158 15.5270253,13.2166914 15.5572267,13.2205192 C15.5832063,13.2282826 15.6134268,13.2398559 15.6517277,13.2566407 C15.6983765,13.2566407 15.7284633,13.29659 15.7421408,13.3753385 C15.7421408,13.4307607 15.7118439,13.5030576 15.6517277,13.5906298 L15.6517277,13.5906298 L15.3789411,13.9078879 L14.9578412,14.3503313 L14.8002821,14.5464297 C14.7455147,14.6108194 14.7178922,14.6792346 14.7178922,14.7514417 L14.7178922,14.7514417 L14.7439674,14.7978964 L14.7754677,14.8224267 L14.8385831,14.7785238 L15.3405638,14.3012888 C15.4926786,14.1542868 15.6585665,14.0046612 15.8367947,13.8537236 C16.0136857,13.7028221 16.2645041,13.5094193 16.5853149,13.2734075 C16.9020759,13.0399297 17.1543079,12.9224719 17.3421257,12.9224899 C17.4421665,12.9224899 17.5244419,12.9535077 17.5887034,13.0167113 C17.6477498,13.0850726 17.6779703,13.1727885 17.6779703,13.281171 C17.6779703,13.4164559 17.5861627,13.6112963 17.4051837,13.8667166 L17.4051837,13.8667166 L16.9104811,14.5464117 L16.9280365,14.5657125 L18.7515994,13.2088561 L18.9611751,13.0721335 C19.0079576,13.0399297 19.0695638,13.0128476 19.146223,12.9883353 L19.146223,12.9883353 L19.1833968,13.0244028 C19.191611,13.0283564 19.2038176,13.0437575 19.221564,13.0721335 L19.221564,13.0721335 L19.3163898,13.2088561 L19.4068029,13.3649693 L19.4629266,13.5197526 C19.4629266,13.5803145 19.4273383,13.6551453 19.3547671,13.745431 L19.3547671,13.745431 L19.0105747,14.1297386 L18.7967773,14.3554171 L18.6430387,14.5412182 L18.5554337,14.7204598 L18.5033216,14.8816947 C18.5033216,14.9255257 18.5238952,14.9745683 18.5675831,15.0301163 C18.600688,15.0634523 18.6473941,15.0791409 18.7075676,15.0791409 C18.7885249,15.0634344 18.8365682,15.053155 18.8529583,15.0493452 C18.8694439,15.0455533 18.8967417,15.0350583 18.9351763,15.0196033 C18.9693893,15.0081559 18.9996479,14.9938151 19.0257804,14.9771381 C19.0503465,14.965493 19.080567,14.9487621 19.1134045,14.9306654 L19.1134045,14.9306654 L19.909223,14.4324763 C19.96613,14.2823474 20.044623,14.1314818 20.1444346,13.9801848 C20.3734187,13.6241814 20.5722205,13.3958432 20.7409546,13.2927622 C20.905448,13.1895554 21.0220891,13.1314734 21.0906678,13.1185883 L21.0906678,13.1185883 L21.293462,13.0954238 L21.5156264,13.0824848 C21.6183417,13.0824848 21.6924792,13.094076 21.7391089,13.1185883 C21.7760154,13.1276636 21.7952327,13.1727885 21.7952327,13.2566048 C21.7952327,13.3081633 21.7608096,13.3739188 21.6924984,13.4526492 L21.6924984,13.4526492 L21.4456724,13.7157611 L21.1933639,13.9608302 C21.1714913,13.9891343 21.0742012,14.0601194 20.8999846,14.1762293 C20.7218901,14.2961311 20.5929087,14.4096712 20.5120279,14.5178919 C20.4310897,14.6250164 20.3912606,14.7488359 20.3912606,14.8868344 C20.3912606,14.9591133 20.4132096,14.9963849 20.4557704,15.0016504 C20.5188284,15.0016504 20.6504842,14.95002 20.8492478,14.8455732 C21.0438279,14.7462661 21.2426871,14.617271 21.4456533,14.4586599 L21.4456533,14.4586599 L22.258626,13.7647498 C22.3023903,13.7247286 22.3738153,13.658991 22.4737606,13.5661354 C22.5751768,13.4758317 22.6589995,13.4023128 22.723452,13.3455966 C22.782231,13.2940022 22.8755859,13.2268989 23.0017019,13.1430826 C23.218212,12.9715684 23.3622845,12.8864223 23.4334039,12.8864223 C23.4677123,12.8864223 23.5074842,12.9057949 23.5541138,12.9445043 C23.6049652,12.9741203 23.6310022,13.0954058 23.6309831,13.3094931 C23.6309831,13.3623455 23.6225779,13.4023128 23.6061687,13.4306888 C23.6006862,13.4578249 23.5883459,13.4874948 23.5692623,13.5197346 C23.5430916,13.5558381 23.5197672,13.585526 23.4979901,13.6100024 C23.4733667,13.6332028 23.4390774,13.661507 23.3964402,13.6924888 C23.3525421,13.7286103 23.3005637,13.7776349 23.237372,13.8421144 C23.1235199,13.937486 22.9878716,14.079474 22.8314587,14.2652212 C22.6754087,14.4572761 22.5751768,14.5979163 22.5328071,14.6907719 C22.4846873,14.7862693 22.4559569,14.8805086 22.4435783,14.9718906 C22.4435783,15.0829148 22.5136661,15.1381933 22.6532305,15.1381933 C22.7712661,15.1381933 22.9248136,15.0829148 23.1113897,14.9718906 L23.1113897,14.9718906 L23.5226326,14.6959116 L23.9160336,14.4083054 L23.9682031,14.7449003 C23.9098252,14.7975011 23.8567197,14.8455552 23.8083899,14.888901 C23.8228124,14.8827011 23.8376361,14.8781005 23.8529756,14.8752252 L23.8529756,14.8752252 L24.0312611,14.8455552 C24.0860285,14.8455552 24.139497,14.8610102 24.190272,14.8945978 C24.2354499,14.9371529 24.2657468,15.0041304 24.2793097,15.097004 L24.2793097,15.097004 L24.2848877,15.2647263 C24.2848877,15.2918264 24.3083076,15.3124211 24.3549373,15.3227184 C24.5878947,15.3227184 24.80855,15.2557768 25.0156042,15.12166 C25.1843574,14.9977148 25.3667309,14.8481251 25.5624954,14.6727471 L25.5624954,14.6727471 L25.465148,14.7204419 L25.3392421,14.761703 L25.1046228,14.7978785 C24.9430139,14.7978785 24.7961332,14.7501657 24.6606187,14.6546684 C24.5372534,14.559243 24.4753416,14.4405811 24.4753416,14.3012708 C24.4753416,14.2586977 24.4796015,14.2303397 24.4878157,14.2187664 C24.516718,13.8988845 24.7180987,13.6061027 25.0924925,13.339181 C25.4597611,13.0721156 25.7189847,12.9289954 25.8669351,12.9096767 L25.8669351,12.9096767 L26.1905349,12.8864403 C26.3467568,12.8864403 26.4826725,12.9109526 26.5962953,12.9586473 C26.6471658,12.9689806 26.6978644,12.9883353 26.7485821,13.0167113 C26.7964916,13.0489691 26.8389952,13.0837607 26.8774298,13.1185883 C26.9322736,13.0554565 27.0021513,13.0115537 27.0857447,12.9883353 C27.0980851,12.9960627 27.1091073,13.0012743 27.1187733,13.0050662 C27.1228422,13.0128655 27.1392705,13.0346822 27.169491,13.0708576 L27.169491,13.0708576 L27.257096,13.2088741 L27.353259,13.3636574 L27.40944,13.5184227 C27.40944,13.5700171 27.3737371,13.6460879 27.3011468,13.745431 L27.3011468,13.745431 L26.9598388,14.1155775 L26.7431187,14.3554171 L26.5963144,14.5579311 L26.4962163,14.7502017 C26.4703321,14.8094158 26.4579345,14.8842645 26.4579154,14.9719266 C26.4579154,15.0105999 26.4729301,15.050693 26.5018898,15.0907861 C26.5319192,15.1306275 26.5799816,15.1512401 26.6485603,15.1512401 L26.6485603,15.1512401 L27.1130998,15.0248329 C27.2378787,14.9771381 27.5177332,14.8120036 27.9494543,14.5295191 L27.9494352,14.529609 L28,14.8869242 C27.8863771,14.9708663 27.7959641,15.0378438 27.7274236,15.0855386 C27.6602394,15.1372408 27.5888526,15.1860318 27.5121743,15.2339602 L27.5121743,15.2339602 L26.9019577,15.6221854 C26.6784179,15.7573984 26.4852513,15.859491 26.3234324,15.9277804 C26.1629697,15.9961417 26.0356502,16.0296574 25.9437662,16.0296574 C25.8285387,16.0296574 25.7313251,15.9833105 25.6504442,15.8917308 C25.5668508,15.8040149 25.5242136,15.6994243 25.5242136,15.5794686 L25.5242136,15.5794686 L25.5242136,15.4802692 C25.5242136,15.4401762 25.5392283,15.3794705 25.5681689,15.3009017 C25.5941868,15.2196194 25.631246,15.1423805 25.6832818,15.0662378 C25.4706305,15.250709 25.2322288,15.4377321 24.9663765,15.629841 C24.6976206,15.81938 24.4454459,15.9148414 24.2080375,15.9148414 C24.0943382,15.9148414 24.0039251,15.9071678 23.9353273,15.8917308 C23.8682769,15.8760782 23.7968137,15.8375306 23.7199444,15.7793588 C23.6389871,15.718725 23.581679,15.6221854 23.547447,15.4919144 L23.547447,15.4919144 L23.5417735,15.4144239 C23.5417735,15.3149909 23.5733694,15.2055302 23.6364083,15.0855386 C23.6504679,15.0547005 23.6654826,15.0273308 23.6815098,15.0031061 C23.6070856,15.0700476 23.5518406,15.1192699 23.5158129,15.15133 C23.4403382,15.2184513 23.3211182,15.3177045 23.1606937,15.4504735 C22.9962195,15.5807984 22.8248682,15.7070799 22.6465827,15.8258855 C22.4683354,15.9497049 22.2764297,16.0115607 22.067981,16.0115607 C21.9377961,16.0115607 21.8405252,15.9793209 21.7774481,15.9148414 C21.7088694,15.8516377 21.6662894,15.8052908 21.6486768,15.7728713 C21.6320001,15.7408112 21.6195833,15.7135853 21.6101084,15.6942846 L21.6101084,15.6942846 L21.5867649,15.4970181 L21.5867649,15.3784102 L21.6101084,15.2158275 L21.6622206,15.049453 L21.7567789,14.8507848 L21.7390898,14.8340359 L21.3961199,15.1746203 C21.3482677,15.2184513 21.2934429,15.268662 21.2301748,15.324192 C21.1660279,15.3808183 21.0961311,15.4377321 21.02058,15.4970001 C20.8121313,15.6917507 20.6092797,15.7898358 20.4119679,15.7898358 C20.2376749,15.7898358 20.0881962,15.7111233 19.9660918,15.5523685 C19.8523161,15.3886356 19.7947597,15.2144617 19.7947405,15.0302062 C19.7947405,14.993905 19.795944,14.9577296 19.7985611,14.9215721 L19.7985611,14.9215721 L19.3929152,15.2158096 L18.688484,15.6878331 C18.4292604,15.859491 18.2015753,15.9445652 18.0027353,15.9445832 C17.8699524,15.9445832 17.7767312,15.9109597 17.7216773,15.8425624 C17.6669098,15.7793588 17.6312642,15.7227146 17.614855,15.6710482 C17.5940903,15.6194718 17.583431,15.5614797 17.5834119,15.4970001 C17.5834119,15.3461345 17.6067745,15.2247591 17.6531559,15.1320652 C17.7041219,15.0120376 17.7697779,14.889548 17.8507351,14.7618109 L17.8507351,14.7618109 L18.1851661,14.2485262 L18.1742393,14.2368811 L16.8649211,15.3642132 C16.7936681,15.4325565 16.7237904,15.4970001 16.655269,15.5576878 C16.5868049,15.6169558 16.5085985,15.6788835 16.4207833,15.7419614 C16.3315164,15.8091366 16.2247132,15.8425445 16.0971836,15.8425445 C15.9916794,15.8425445 15.9066724,15.8129284 15.8422198,15.7535886 C15.7751694,15.6942487 15.7420644,15.6194718 15.7420644,15.5265263 C15.7420644,15.4079004 15.7791618,15.2762277 15.8546175,15.1320472 L15.8546175,15.1320472 L16.0588827,14.7567071 L16.2685348,14.457366 L16.4769835,14.1349681 L16.5086176,14.0795818 C16.5086176,14.0563634 16.4907947,14.0369728 16.4523028,14.0214999 C16.4274693,14.0214999 16.3658822,14.0615031 16.2685348,14.1401977 L16.2685348,14.1401977 L15.9301687,14.4638894 L15.4048444,14.993887 L14.9290916,15.5163009 L14.679534,15.7652337 C14.6424174,15.7898179 14.5835047,15.8077708 14.5025665,15.8207098 C14.3367551,15.8207098 14.2091682,15.7200549 14.1215632,15.5214585 C14.0322772,15.3266361 13.9885129,15.1320472 13.9885129,14.9359488 C13.9885129,14.9044459 13.9893916,14.8732484 13.9912637,14.8421048 L13.9912637,14.8421048 L11.8047876,17.1104449 L11.5320584,17.4032807 C11.4840915,17.4588287 11.4251788,17.4908348 11.3525121,17.5 C11.2853852,17.5 11.2292233,17.4392943 11.1825745,17.3206505 C11.1346649,17.2006948 11.1111686,17.0911622 11.1111686,16.9917292 C11.1111686,16.9194143 11.1373966,16.8383656 11.1880378,16.7454022 L11.1880378,16.7454022 L11.3347848,16.5197776 L12.4340115,14.7734201 L12.4217285,14.7566892 L11.5170628,15.4246853 C11.3990272,15.5097774 11.3006101,15.5756228 11.2197292,15.6221494 C11.1346458,15.6698442 11.0742622,15.6980944 11.0414246,15.7070439 C10.9139332,15.7070439 10.774216,15.6208016 10.6219293,15.4492694 C10.4901398,15.3018542 10.4158876,15.1175807 10.3984086,14.8972036 L10.3984086,14.8972036 L9.51700999,15.6105043 C9.19625654,15.8657808 8.89611491,15.9936438 8.61647047,15.9936438 C8.44372475,15.9936438 8.26549655,15.9315363 8.08453667,15.8091186 C7.92684387,15.6840053 7.71308465,15.426051 7.44148245,15.0364241 L7.44148245,15.0364241 L7.33878634,15.1320472 L7.20013893,15.281619 L7.03572199,15.5162829 C7.02617064,15.5303721 7.01109861,15.55882 6.9919577,15.5987873 C6.96586341,15.6375864 6.9466461,15.6646147 6.93291125,15.6763317 C6.92469709,15.6968724 6.9014109,15.7240264 6.86303357,15.760076 C6.83693928,15.7716673 6.78624072,15.7819646 6.71089967,15.7898179 C6.56690351,15.7898179 6.47230693,15.658217 6.42563904,15.3951591 C6.39931551,15.2610423 6.37969704,15.148221 6.36680272,15.0567851 C6.20943467,15.317417 4.35733232,16.5483693 4.11356276,15.5976911 C3.91787469,14.8341257 4.6606641,14.2332509 4.91532221,13.6636455 C3.75764124,14.6958397 2.37137735,15.5919943 1.14118252,15.9697964 C0.744667765,16.0914054 0.271188225,16.0149033 0.0353080761,15.7290044 C-0.239140425,15.3966147 1.1622337,14.4168236 1.61810055,14.5405173 C2.00659217,14.5188084 1.93915964,14.9477737 2.60674172,14.6767007 C3.1943408,14.4380832 3.92404486,14.0049307 4.46201512,13.5943318 C4.52184478,13.537993 4.61881009,13.4242732 4.57970686,13.4494325 C4.08968438,13.7660077 2.87049271,14.4026626 2.33760377,13.9458424 C1.03976629,12.8333902 2.87427505,11.2980829 3.66522237,10.9698265 Z M26.2165719,13.3030056 L26.0437497,13.3224321 L25.6940939,13.4719859 C25.5475571,13.542917 25.4282798,13.6486578 25.3392612,13.7866383 C25.2581703,13.9272605 25.2187041,14.0691407 25.2187041,14.2123508 L25.2187041,14.2123508 L25.2253709,14.3013067 C25.2336233,14.3696141 25.2953059,14.4108753 25.4090625,14.427696 C25.5187502,14.427696 25.6572257,14.3864169 25.8216999,14.3026186 C25.9875687,14.2187844 26.1122902,14.1142836 26.1973545,13.9917581 L26.1973545,13.9917581 L26.3495458,13.7041699 L26.4003207,13.4887528 C26.4003207,13.4578608 26.389394,13.4255851 26.3701767,13.3946572 C26.3440824,13.3610696 26.3222098,13.3353173 26.3055904,13.3172026 L26.3055904,13.3172026 L26.2165719,13.3030056 Z M19.074989,11.8946446 C19.1297755,11.8946446 19.179156,11.8997843 19.2215258,11.9113755 C19.3108882,11.9113755 19.4013013,11.9396977 19.4945607,11.9965576 L19.4945607,11.9965576 L19.8621158,12.2454365 C19.9814121,12.3305646 20.0566959,12.4027717 20.0854454,12.4609255 C20.0854454,12.4943693 20.0456927,12.5162758 19.9649647,12.527903 L19.9649647,12.527903 L19.5192223,12.5639346 L18.9351572,12.5820852 C18.8377334,12.5820852 18.7006143,12.5846551 18.5225771,12.5885188 C18.3455715,12.5923826 18.2154439,12.5936226 18.1357856,12.5936226 L18.1357856,12.5936226 L17.2900326,12.6234003 L16.7443449,12.6413892 C16.527663,12.6645896 16.4056349,12.6762168 16.3768089,12.6762168 C16.3468368,12.6800266 16.2700439,12.6942596 16.1478631,12.7187898 C15.9436361,12.7381445 15.792763,12.7626388 15.6954729,12.789685 C15.594114,12.818061 15.513386,12.8400035 15.4543968,12.8567703 C15.3953504,12.8723152 15.3239636,12.9044651 15.2403511,12.9522138 L15.2403511,12.9522138 L15.1498807,12.963805 L15.093585,12.963787 C15.0387411,12.963805 15.0044518,12.9380347 14.9908889,12.8864403 L14.9908889,12.8864403 L15.0044518,12.8257885 L15.0292662,12.7368146 C15.3005819,12.5626946 15.5995773,12.4221623 15.924457,12.3176435 C16.2466049,12.2183544 16.5633659,12.1423015 16.8718936,12.0907251 C17.180364,12.0390048 17.3790321,12.0081848 17.4682799,11.9965576 C17.5573176,11.9836006 17.7519359,11.9604181 18.0535485,11.9243146 L18.0535485,11.9243146 L18.961156,11.8946446 Z" id="Combined-Shape" fill="#264796"></path>
    </g>
</svg>