<?xml version="1.0" encoding="UTF-8"?>
<svg width="28px" height="28px" viewBox="0 0 28 28" version="1.1" xmlns="http://www.w3.org/2000/svg" xmlns:xlink="http://www.w3.org/1999/xlink">
    <title>RB</title>
    <g id="RB" stroke="none" stroke-width="1" fill="none" fill-rule="evenodd">
        <path d="M13.6282963,23.0561378 C13.2572216,23.1615648 12.8333159,23.1615648 12.4085716,23.1615648 C7.31792929,23.1615648 3.12876803,19.0656843 3.12876803,14.0267718 C3.12876803,12.241984 3.65917429,10.5617931 4.560236,9.19746809 C6.04495425,10.6672201 7.10618608,12.2942825 8.06007877,13.8694615 C8.69698558,15.0768911 9.54521631,15.4965238 10.6592791,16.0215835 C10.7121101,15.9161565 10.8177721,15.863443 10.9238533,15.863443 C11.0831848,15.863443 11.1892661,16.0215835 11.1892661,16.179724 C11.1892661,16.179724 11.1892661,16.2324375 11.1892661,16.2830756 C11.3481783,16.3885026 11.5603408,16.4939296 11.7729226,16.5993566 L13.5226344,14.9718792 C13.2576409,14.8664522 12.9922281,14.7618553 12.7800656,14.6564283 C12.7272346,14.7618553 12.6207341,14.8137387 12.5154914,14.8137387 C12.3557406,14.8137387 12.2500786,14.7091418 12.2500786,14.5518315 C12.2500786,14.499118 12.2500786,14.499118 12.2500786,14.4468195 C10.1821231,13.4498288 8.6441546,12.1896856 7.37159886,10.877244 C5.67429881,9.09204109 4.40174306,7.25495486 2.22770631,6.10023866 L0,6.10023866 C1.53754923,6.83490713 2.81052427,7.67500259 3.8709175,8.56698143 C2.86377454,10.1417454 2.280118,12.0315451 2.280118,14.0263568 C2.280118,19.5392757 6.8407733,24 12.4089909,24 C12.8333159,24 13.2576409,24 13.6287156,23.9472865 C16.2803276,23.6330808 18.6669462,22.2670956 20.2577457,20.272699 C20.4694889,20.4308395 20.68249,20.58898 20.9470642,20.7450451 L22.2204585,19.9061949 L16.4929094,17.7536578 L22.643945,19.4865622 L24.6066578,18.3314309 C21.5835517,18.2787174 18.7730274,17.9624364 16.7583222,16.9654457 C19.5688465,17.5959323 22.5906947,17.7536578 25.7203013,17.7009443 L28,16.0734668 C23.8645083,16.9123171 19.781009,16.8089654 15.5914284,15.6011207 L13.6291349,17.6482308 L13.6291349,17.6482308 C15.5385975,18.908789 17.5000524,18.908789 19.4623459,19.8534814 C18.0296201,21.5868009 15.9620839,22.7419321 13.6282963,23.0561378 L13.6282963,23.0561378 Z M13.6282963,17.0185742 L15.1134339,15.6019508 L13.9997904,15.0241776 L13.6287156,15.3910968 L13.4698034,15.5492373 C13.5712724,15.5998755 13.6245227,15.745979 13.6287156,15.8493307 L13.6287156,15.8555567 L13.6287156,15.8597074 L13.6287156,15.863858 L13.6287156,15.875895 C13.6224262,16.1353118 13.4123602,16.3885026 13.1511403,16.3885026 C12.9926474,16.3885026 12.8333159,16.2830756 12.7800656,16.179724 L12.1435781,16.7047836 L13.2572216,17.3879838 L13.6282963,17.0185742 L13.6282963,17.0185742 Z M13.6282963,14.4464045 L15.2723461,15.1296046 C15.6962518,14.4464045 15.6962518,14.4464045 16.3855703,14.7087268 C21.6355441,16.7570821 25.5597119,16.5989416 27.7869989,14.4464045 C25.9840369,15.3379682 24.1814942,15.6542492 22.3248626,15.4961087 C22.4313632,15.0237626 22.4313632,14.4987029 22.4313632,14.0263568 C22.4313632,8.93473073 18.6132766,4.6827851 13.6282963,4.10459687 C13.2572216,4.05188337 12.8333159,4 12.4085716,4 C9.59804729,4 7.0529358,5.15513126 5.19672352,6.93991906 C4.66589796,6.57258483 4.08308001,6.3621459 3.34009195,6.46715783 C5.62062924,7.51686209 6.6281915,10.4567812 9.17372228,9.77441112 C7.74141571,9.24976652 6.78752302,8.25194563 5.88562273,7.51727716 C7.58292278,5.88979973 9.86304078,4.84009547 12.4085716,4.84009547 C12.8328966,4.84009547 13.2572216,4.89280897 13.6282963,4.9451074 C18.1361206,5.57476393 21.6359634,9.40707689 21.6359634,14.0267718 C21.6359634,14.499118 21.5827131,14.9714641 21.5294629,15.3910968 C19.4082571,15.1296046 17.2874706,14.1836671 15.1134339,13.0297811 C14.5297773,12.7143302 13.9997904,12.6097333 13.6282963,12.8193421 C13.2572216,12.9770676 12.9922281,13.3975304 12.8861468,14.0794853 L13.6282963,14.4464045 L13.6282963,14.4464045 Z" id="Shape" fill="#172983"></path>
    </g>
</svg>