<?xml version="1.0" encoding="UTF-8"?>
<svg width="28px" height="28px" viewBox="0 0 28 28" version="1.1" xmlns="http://www.w3.org/2000/svg" xmlns:xlink="http://www.w3.org/1999/xlink">
    <title>RC</title>
    <g id="RC" stroke="none" stroke-width="1" fill="none" fill-rule="evenodd">
        <path d="M9.82442793,15.2513702 C9.82442793,15.2513702 7.30358562,14.0491293 7.35174524,13.39146 C7.35794862,13.3255448 7.38823181,13.2637923 7.45026567,13.2110685 C7.45026567,13.2110685 8.76344895,11.7008103 11.3099052,10.6372149 C13.3645598,9.77681571 13.8503582,9.83605517 13.8503582,9.83605517 C13.8145387,10.8205022 14.4244048,11.5961145 15.4068743,11.9537788 C15.4068743,11.9537788 19.2575757,10.6741091 21.4312952,10.4906129 C24.0547268,10.2680647 25.0079137,11.287596 25.0079137,11.287596 C25.0079137,11.287596 27.1879033,11.4188834 27.9116316,11.8854203 C27.9116316,11.8854203 28.0042821,11.9623411 28,12.0021589 C27.9985457,12.0155243 27.9857387,12.0226247 27.9556556,12.0226247 C27.8348564,12.0245738 27.4349048,11.9331738 26.8505192,11.9986087 C25.4532901,12.1557917 22.9347824,12.4777452 22.19131,12.9092396 C22.19131,12.9092396 18.1491041,19.5947512 -1.77635684e-14,19.4989808 C-1.77635684e-14,19.4989808 5.61751886,18.2209795 9.82442793,15.2513702" id="Path" fill="#25407B" fill-rule="nonzero"></path>
        <path d="M14.2052853,8.70577185 C14.3664399,8.69609584 14.7432455,8.76271413 14.8234226,8.98839489 C14.8234226,8.98839489 14.2331671,8.61980154 6.77476371,11.0910128 C4.43598742,11.8635622 0.910810369,9.30109013 0.00880687264,8.5 C0.00880687264,8.5 2.82878369,9.27575151 14.2052853,8.70577185" id="Path" fill="#D42B3F" fill-rule="nonzero"></path>
    </g>
</svg>