<?xml version="1.0" encoding="UTF-8"?>
<svg width="28px" height="28px" viewBox="0 0 28 28" version="1.1" xmlns="http://www.w3.org/2000/svg" xmlns:xlink="http://www.w3.org/1999/xlink">
    <title>RI</title>
    <g id="RI" stroke="none" stroke-width="1" fill="none" fill-rule="evenodd">
        <path d="M5.40596628,14.7597403 C6.07522698,14.7597403 6.27237354,15.0820543 6.27237354,15.0820543 L6.27237354,15.0820543 L6.27237354,15.0615899 C6.29312581,14.8722944 6.4228275,14.7648564 6.61997406,14.7648564 L6.61997406,14.7648564 L7.02983139,14.7648564 C7.24773022,14.7648564 7.37743191,14.8927588 7.37743191,15.1280992 L7.37743191,15.1280992 L7.37743191,18.3256592 C7.30998703,18.2386856 7.18028534,18.1977568 7.02983139,18.1977568 L7.02983139,18.1977568 L6.64072633,18.1977568 C6.49027237,18.1977568 6.36057069,18.2386856 6.27237354,18.3256592 L6.27237354,18.3256592 L6.27237354,17.7935852 C6.15823606,17.9163715 5.89883268,18.1926407 5.38002594,18.1926407 C4.49805447,18.1926407 3.91180285,17.4866194 3.91180285,16.4634002 C3.91180285,15.440181 4.53955901,14.7597403 5.40596628,14.7597403 Z M9.319,14.764 C10.3138781,14.7648564 10.8326848,15.4452971 10.8326848,16.3201495 C10.8326848,16.5145612 10.6822309,16.7038567 10.464332,16.7038567 L8.75745785,16.7038567 C8.84565499,17.087564 9.16731518,17.2819756 9.51491569,17.2819756 C9.73281453,17.2819756 9.94552529,17.195002 10.1219196,17.1336088 C10.3190661,17.0261708 10.4695201,17.0466352 10.5784695,17.2615112 L10.6874189,17.4303424 C10.7756161,17.624754 10.7548638,17.7935852 10.5577173,17.9010232 C10.3190661,18.04939 9.92996109,18.1977568 9.43190661,18.1977568 C8.26459144,18.1977568 7.63683528,17.3638331 7.63683528,16.4685163 C7.63683528,15.5573127 8.21887609,14.8435535 9.16239487,14.7709451 L9.319,14.764 Z M14.9571984,14.7648564 C15.8858625,14.7648564 16.4721141,15.276466 16.4721141,16.0848091 L16.4721141,17.7475403 C16.4721141,17.9828808 16.3424125,18.1107832 16.1037613,18.1107832 L15.7769131,18.1107832 C15.538262,18.1107832 15.4293126,17.9828808 15.4293126,17.7475403 L15.4293126,17.6401023 L15.4293126,17.6401023 L15.4085603,17.6605667 C15.4085603,17.6605667 15.0817121,18.1721763 14.4124514,18.1721763 C13.7639429,18.1721763 13.2866407,17.7475403 13.2866407,17.1898859 C13.2866407,16.3150335 14.3916991,16.0592287 15.2114137,16.0592287 L15.2217899,16.0643447 L15.3307393,16.0643447 L15.3307393,16.023416 C15.3307393,15.7471468 15.0920882,15.6601732 14.8534371,15.6601732 C14.6355383,15.6601732 14.3968872,15.7266824 14.2256809,15.7880756 C14.0077821,15.8955136 13.8573281,15.8545848 13.7483787,15.6397088 L13.6601816,15.491342 C13.5512322,15.2969303 13.5979248,15.1280992 13.8106355,15.0206612 C14.0700389,14.9132231 14.459144,14.7648564 14.9571984,14.7648564 Z M1.19325551,13.9513971 C1.43190661,13.9513971 1.5616083,14.0588351 1.5616083,14.2941755 L1.5616083,14.8927588 L1.88845655,14.8927588 C2.10635538,14.8927588 2.23605707,15.0206612 2.23605707,15.2560016 L2.23605707,15.4043684 C2.23605707,15.6397088 2.10635538,15.7471468 1.88845655,15.7471468 L1.5616083,15.7471468 L1.5616083,16.7499016 C1.5616083,17.0261708 1.73281453,17.1336088 1.92996109,17.1745376 C2.18936446,17.195002 2.27756161,17.2819756 2.27756161,17.517316 L2.27756161,17.8140496 C2.27756161,18.0698544 2.10635538,18.156828 1.82101167,18.156828 C1.34370947,18.156828 0.456549935,17.9214876 0.456549935,16.9647776 L0.456549935,15.7471468 L0.347600519,15.7471468 C0.129701686,15.7471468 -2.10942375e-13,15.6397088 -2.10942375e-13,15.4043684 L-2.10942375e-13,15.2560016 C-2.10942375e-13,15.0206612 0.129701686,14.8927588 0.347600519,14.8927588 L0.477302205,14.8927588 L0.477302205,14.2941755 C0.477302205,14.0588351 0.607003891,13.9513971 0.824902724,13.9513971 L1.19325551,13.9513971 Z M20.2178988,14.7853207 C20.4565499,14.7853207 20.6070039,14.9132231 20.6070039,15.1485636 L20.6070039,15.491342 C20.6070039,15.706218 20.3891051,15.8341204 20.150454,15.8341204 C19.6316472,15.8341204 19.3722438,16.2843369 19.3722438,16.8164109 L19.3722438,17.7526564 C19.3722438,17.9879969 19.2632944,18.1158993 19.0505837,18.1158993 L18.6407263,18.1158993 C18.4228275,18.1158993 18.2931258,17.9879969 18.2931258,17.7526564 L18.2931258,15.174144 C18.2931258,14.9388036 18.4228275,14.8109012 18.6407263,14.8109012 L19.0090791,14.8109012 C19.226978,14.8109012 19.3566796,14.9388036 19.3566796,15.174144 L19.356,15.392 L19.3946615,15.3037399 C19.55393,15.0090988 19.9657588,14.7853207 20.2178988,14.7853207 Z M13.0168612,14.7853207 C13.2347601,14.7853207 13.385214,14.9132231 13.385214,15.1485636 L13.385214,15.491342 C13.385214,15.706218 13.1932555,15.8341204 12.9546044,15.8341204 C12.4357977,15.8341204 12.1763943,16.2843369 12.1763943,16.8164109 L12.1763943,17.7526564 C12.1763943,17.9879969 12.0674449,18.1158993 11.8287938,18.1158993 L11.4189364,18.1158993 C11.2010376,18.1158993 11.0972763,17.9879969 11.0972763,17.7526564 L11.0972763,15.174144 C11.0972763,14.9388036 11.2062257,14.8109012 11.4189364,14.8109012 L11.7872892,14.8109012 C12.0259403,14.8109012 12.1348898,14.9388036 12.1348898,15.174144 L12.134,15.392 L12.1728923,15.3037399 C12.3323476,15.0090988 12.7460441,14.7853207 13.0168612,14.7853207 Z M17.5719844,14.8057851 C17.7898833,14.8057851 17.919585,14.9336875 17.919585,15.1690279 L17.919585,17.7475403 C17.919585,17.9828808 17.7898833,18.1107832 17.5719844,18.1107832 L17.1621271,18.1107832 C16.9442283,18.1107832 16.8404669,17.9828808 16.8404669,17.7475403 L16.8404669,15.1690279 C16.8404669,14.9336875 16.9494163,14.8057851 17.1621271,14.8057851 L17.5719844,14.8057851 Z M3.28923476,14.8057851 C3.52788586,14.8057851 3.65758755,14.9336875 3.65758755,15.1690279 L3.65758755,17.7475403 C3.65758755,17.9828808 3.52788586,18.1107832 3.28923476,18.1107832 L2.9001297,18.1107832 C2.6614786,18.1107832 2.55252918,17.9828808 2.55252918,17.7475403 L2.55252918,15.1690279 C2.55252918,14.9336875 2.6614786,14.8057851 2.9001297,14.8057851 L3.28923476,14.8057851 Z M15.3203632,16.6578119 L15.2114137,16.6578119 C14.8015564,16.6578119 14.2827497,16.7652499 14.2827497,17.1080283 C14.2827497,17.2557556 14.397941,17.3721468 14.5866164,17.3989364 L14.6718547,17.4047619 C15.0402075,17.4047619 15.3203632,17.0415191 15.3203632,16.7447855 L15.3203632,16.6578119 Z M5.63942931,15.6806375 C5.29701686,15.6806375 4.97016861,15.9773711 4.97016861,16.4685163 C4.97016861,16.9801259 5.25032425,17.2768595 5.63942931,17.2768595 L5.63942931,17.2768595 L5.71394904,17.2727191 C6.01250969,17.2393818 6.30869001,17.0021645 6.30869001,16.4685163 C6.30869001,16.0848091 6.07003891,15.6806375 5.63942931,15.6806375 Z M9.3229572,15.5527351 C8.99610895,15.5527351 8.84565499,15.7880756 8.78339818,16.0643447 L9.8002594,16.0643447 C9.8002594,15.7880756 9.62905318,15.5527351 9.3229572,15.5527351 Z M3.0920882,12.7542306 C3.5693904,12.7542306 3.93774319,13.1379378 3.93774319,13.6086187 C3.93774319,14.0242031 3.60619805,14.3831169 3.19610222,14.4358753 L3.0920882,14.4425423 C2.63553826,14.4425423 2.2464332,14.0588351 2.2464332,13.6086187 C2.2464332,13.1379378 2.63553826,12.7542306 3.0920882,12.7542306 Z M26.4695201,8.76367572 C27.4137484,8.76367572 28,9.29063361 28,10.1706021 L28,10.1706021 L28,11.9254231 C28,12.1658796 27.8702983,12.293782 27.6316472,12.293782 L27.6316472,12.293782 L27.309987,12.293782 C27.0661479,12.293782 26.9416342,12.1761118 26.9416342,11.920307 L26.9416342,11.920307 L26.9416342,11.8947265 C26.9416342,11.8537977 26.9468223,11.8282172 26.9468223,11.8282172 L26.9468223,11.8282172 L26.9312581,11.8282172 C26.9312581,11.8282172 26.6044099,12.3756395 25.919585,12.3756395 C25.2607004,12.3756395 24.7989624,11.920307 24.7989624,11.3217237 L24.7989624,11.3217237 L24.8145266,11.3217237 C24.8145266,10.4008264 25.9040208,10.1450216 26.7496757,10.1450216 L26.7496757,10.1450216 L26.848249,10.1450216 L26.848249,10.0836285 C26.848249,9.79201102 26.614786,9.69992129 26.3605707,9.69992129 C26.1426719,9.69992129 25.9143969,9.77154664 25.7431907,9.85340417 C25.5252918,9.95061 25.3592737,9.90968123 25.2503243,9.69480519 L25.2503243,9.69480519 L25.1725032,9.52597403 C25.07393,9.31621409 25.1102464,9.13715073 25.3177691,9.02971271 C25.5771725,8.9120425 25.9766537,8.76367572 26.4695201,8.76367572 Z M21.0998703,8.76367572 C22.0440986,8.76367572 22.6303502,9.29063361 22.6303502,10.1706021 L22.6303502,10.1706021 L22.6303502,11.9254231 C22.6303502,12.1658796 22.5006485,12.293782 22.2619974,12.293782 L22.2619974,12.293782 L21.9403372,12.293782 C21.6964981,12.293782 21.5719844,12.1761118 21.5719844,11.920307 L21.5719844,11.920307 L21.5719844,11.8947265 C21.5719844,11.8537977 21.5771725,11.8282172 21.5771725,11.8282172 L21.5771725,11.8282172 L21.5616083,11.8282172 C21.5616083,11.8282172 21.2347601,12.3756395 20.5499351,12.3756395 C19.8910506,12.3756395 19.4293126,11.920307 19.4293126,11.3217237 L19.4293126,11.3217237 L19.4448768,11.3217237 C19.4448768,10.4008264 20.5343709,10.1450216 21.3800259,10.1450216 L21.3800259,10.1450216 L21.4785992,10.1450216 L21.4785992,10.0836285 C21.4785992,9.79201102 21.2451362,9.69992129 20.9909209,9.69992129 C20.773022,9.69992129 20.5447471,9.77154664 20.3735409,9.85340417 C20.155642,9.95061 19.9896239,9.90968123 19.8806744,9.69480519 L19.8806744,9.69480519 L19.8028534,9.52597403 C19.7042802,9.31621409 19.7405966,9.13715073 19.9481193,9.02971271 C20.2075227,8.9120425 20.6070039,8.76367572 21.0998703,8.76367572 Z M18.7652399,7.5051161 C19.0090791,7.5051161 19.1335927,7.6330185 19.1335927,7.87347501 L19.1335927,7.87347501 L19.1335927,11.9254231 C19.1335927,12.1658796 19.0038911,12.293782 18.7652399,12.293782 L18.7652399,12.293782 L18.4176394,12.293782 C18.1738003,12.293782 18.0492866,12.1812279 18.0492866,11.9612357 L18.0492866,11.9612357 L18.0492866,11.920307 C18.0492866,11.9100748 18.0544747,11.8742621 18.0544747,11.8742621 L18.0544747,11.8742621 L18.0389105,11.8742621 C18.0389105,11.8742621 17.7535668,12.3756395 17.0479896,12.3756395 C16.1141375,12.3756395 15.5019455,11.6338056 15.5019455,10.5645415 L15.5019455,10.5645415 C15.5071336,9.47481307 16.155642,8.76367572 17.0687419,8.76367572 C17.7587549,8.76367572 17.9662776,9.10645415 17.9662776,9.10645415 L17.9662776,9.10645415 L17.9818418,9.10645415 C17.9818418,9.10645415 17.9766537,9.0399449 17.9766537,8.95297127 L17.9766537,8.95297127 L17.9766537,7.87347501 C17.9766537,7.6330185 18.1063554,7.5051161 18.3450065,7.5051161 L18.3450065,7.5051161 Z M9.85732815,8.76367572 C10.8015564,8.76367572 11.387808,9.29063361 11.387808,10.1706021 L11.387808,10.1706021 L11.387808,11.9254231 C11.387808,12.1658796 11.2581064,12.293782 11.0194553,12.293782 L11.0194553,12.293782 L10.6977951,12.293782 C10.4539559,12.293782 10.3294423,12.1761118 10.3294423,11.920307 L10.3294423,11.920307 L10.3294423,11.8947265 C10.3294423,11.8537977 10.3346304,11.8282172 10.3346304,11.8282172 L10.3346304,11.8282172 L10.3190661,11.8282172 C10.3190661,11.8282172 9.9922179,12.3756395 9.307393,12.3756395 C8.64850843,12.3756395 8.18677043,11.920307 8.18677043,11.3217237 L8.18677043,11.3217237 L8.20233463,11.3217237 C8.20233463,10.4008264 9.29182879,10.1450216 10.1374838,10.1450216 L10.1374838,10.1450216 L10.2360571,10.1450216 L10.2360571,10.0836285 C10.2360571,9.79201102 10.002594,9.69992129 9.74837873,9.69992129 C9.5304799,9.69992129 9.307393,9.77666273 9.1309987,9.85340417 C8.91309987,9.95061 8.74189364,9.90968123 8.6381323,9.69480519 L8.6381323,9.69480519 L8.56031128,9.52597403 C8.461738,9.31621409 8.49805447,9.13203463 8.70557717,9.02971271 C8.96498054,8.90692641 9.36446174,8.76367572 9.85732815,8.76367572 Z M23.7924773,7.5 C24.0363165,7.5 24.1608301,7.6279024 24.1608301,7.86835891 L24.1608301,7.86835891 L24.1608301,10.963597 C24.1608301,11.2245179 24.2438392,11.2910272 24.3527886,11.3063754 C24.5084306,11.3268398 24.61738,11.4240457 24.61738,11.6235734 L24.61738,11.6235734 L24.61738,11.9510035 C24.61738,12.1761118 24.5084306,12.3244786 24.2438392,12.3244786 C23.6472114,12.3244786 23.0038911,12.1812279 23.0038911,11.0198741 L23.0038911,11.0198741 L23.0038911,7.86835891 C23.0038911,7.6279024 23.1335927,7.5 23.3722438,7.5 L23.3722438,7.5 Z M13.9559014,8.76367572 C14.6459144,8.76367572 15.1854734,9.08598977 15.1854734,10.058048 L15.1854734,10.058048 L15.1854734,11.9254231 C15.1854734,12.1658796 15.0557717,12.293782 14.8171206,12.293782 L14.8171206,12.293782 L14.3968872,12.293782 C14.153048,12.293782 14.0285344,12.1658796 14.0285344,11.9254231 L14.0285344,11.9254231 L14.0285344,10.272924 C14.0285344,9.95061 13.9040208,9.8175915 13.6498054,9.8175915 C13.1361868,9.8175915 12.9027237,10.2422275 12.9027237,10.7333727 L12.9027237,10.7333727 L12.9027237,11.9254231 C12.9027237,12.1658796 12.773022,12.293782 12.5343709,12.293782 L12.5343709,12.293782 L12.1141375,12.293782 C11.8702983,12.293782 11.7457847,12.1658796 11.7457847,11.9254231 L11.7457847,11.9254231 L11.7561608,11.9254231 L11.7561608,9.21389217 C11.7561608,8.97343566 11.8858625,8.84553325 12.1245136,8.84553325 L12.1245136,8.84553325 L12.4980545,8.84553325 C12.7367056,8.84553325 12.8560311,8.97343566 12.8560311,9.21389217 L12.8560311,9.21389217 L12.8560311,9.27528532 C12.8560311,9.31109799 12.8508431,9.36225895 12.8508431,9.36225895 L12.8508431,9.36225895 L12.8664073,9.36225895 C13.0220493,9.09110586 13.3488975,8.76367572 13.9559014,8.76367572 Z M6.76005188,8.76367572 C7.38261997,8.76367572 7.87029831,9.10645415 7.87029831,10.058048 L7.87029831,10.058048 L7.87029831,11.9254231 C7.87029831,12.1658796 7.74059663,12.293782 7.50194553,12.293782 L7.50194553,12.293782 L7.08171206,12.293782 C6.83787289,12.293782 6.71335927,12.1658796 6.71335927,11.9254231 L6.71335927,11.9254231 L6.71335927,10.2524597 C6.71335927,9.99665486 6.66666667,9.8175915 6.44876783,9.8175915 C5.95071336,9.8175915 5.78988327,10.3189689 5.78988327,10.8356946 L5.78988327,10.8356946 L5.78988327,11.9254231 C5.78988327,12.1658796 5.66018158,12.293782 5.42153048,12.293782 L5.42153048,12.293782 L5.00129702,12.293782 C4.75745785,12.293782 4.63294423,12.1658796 4.63294423,11.9254231 L4.63294423,11.9254231 L4.63294423,10.2524597 C4.63294423,9.99665486 4.58625162,9.8175915 4.36835279,9.8175915 C3.84435798,9.8175915 3.70946822,10.3598977 3.70946822,10.8356946 L3.70946822,10.8356946 L3.70946822,11.9254231 C3.70946822,12.1658796 3.57976654,12.293782 3.34111543,12.293782 L3.34111543,12.293782 L2.92088197,12.293782 C2.6770428,12.293782 2.55252918,12.1658796 2.55252918,11.9254231 L2.55252918,11.9254231 L2.55771725,11.9254231 L2.55771725,9.21389217 C2.55771725,8.97343566 2.68741894,8.84553325 2.92607004,8.84553325 L2.92607004,8.84553325 L3.29961089,8.84553325 C3.538262,8.84553325 3.65758755,8.97343566 3.65758755,9.21389217 L3.65758755,9.21389217 L3.65758755,9.27528532 C3.65758755,9.31109799 3.65239948,9.36225895 3.65239948,9.36225895 L3.65239948,9.36225895 L3.66796368,9.36225895 C3.82879377,9.11668634 4.14526589,8.76367572 4.6848249,8.76367572 C5.12062257,8.76367572 5.46303502,8.95808737 5.64461738,9.34691067 L5.64461738,9.34691067 L5.66018158,9.34691067 C5.84176394,9.06040929 6.2464332,8.76367572 6.76005188,8.76367572 Z M26.848249,10.804998 L26.7392996,10.804998 C26.386511,10.804998 25.9351492,10.8970878 25.9351492,11.2142857 L25.935,11.212 L25.9420918,11.2771555 C25.9651583,11.3863387 26.0453237,11.4724025 26.1769161,11.4980575 L26.2619974,11.5059032 C26.5940337,11.5059032 26.848249,11.178473 26.848249,10.8970878 L26.848249,10.8970878 L26.848249,10.804998 Z M21.4785992,10.804998 L21.3696498,10.804998 C21.0168612,10.804998 20.5654994,10.8970878 20.5654994,11.2142857 L20.565,11.212 L20.572442,11.2771555 C20.5955085,11.3863387 20.6756739,11.4724025 20.8072663,11.4980575 L20.8923476,11.5059032 C21.2243839,11.5059032 21.4785992,11.178473 21.4785992,10.8970878 L21.4785992,10.8970878 L21.4785992,10.804998 Z M10.2360571,10.804998 L10.1271077,10.804998 C9.77431907,10.804998 9.3229572,10.8970878 9.3229572,11.2142857 L9.322,11.212 L9.32989983,11.2771555 C9.35296631,11.3863387 9.43313179,11.4724025 9.56472417,11.4980575 L9.64980545,11.5059032 C9.98184176,11.5059032 10.2360571,11.178473 10.2360571,10.8970878 L10.2360571,10.8970878 L10.2360571,10.804998 Z M17.3333333,9.74085006 C16.9701686,9.74085006 16.6588846,10.0375836 16.6588846,10.5645415 C16.6588846,11.0812672 16.9338521,11.4138135 17.3333333,11.4138135 C17.6809339,11.4138135 18.0077821,11.1631248 18.0077821,10.5645415 C18.0077821,10.1501377 17.7846952,9.74085006 17.3333333,9.74085006 Z" id="Combined-Shape" fill="#525350"></path>
        <path d="M4.75226978,18.4944904 C4.8612192,18.4944904 4.97016861,18.5354191 5.01167315,18.6223928 C5.05836576,18.6633215 5.0998703,18.7298308 5.0998703,18.8577332 C5.07392996,19.1186541 5.20363165,19.220976 5.27107652,19.3079496 C5.3540856,19.3949233 5.48378729,19.435852 5.70168612,19.435852 C5.89364462,19.435852 6.0233463,19.3949233 6.11154345,19.3079496 C6.1997406,19.220976 6.30869001,19.0726092 6.30869001,18.8577332 C6.30869001,18.7298308 6.33463035,18.6684376 6.37613489,18.6019284 C6.4383917,18.5354191 6.52658885,18.4944904 6.63553826,18.4944904 L6.63553826,18.4944904 L7.02464332,18.4944904 C7.24254215,18.4944904 7.37224384,18.6223928 7.37224384,18.8577332 L7.37224384,18.8577332 L7.37224384,18.9856356 L7.36705577,18.9856356 L7.36705577,19.1544667 C7.29961089,19.860488 6.52140078,20.4795356 5.70168612,20.5 C4.85603113,20.4744195 4.07782101,19.860488 4.03631647,19.1544667 C4.02248163,19.0555556 4.01787001,19.0225852 4.0163328,19.011595 L4.0155642,18.8577332 C4.0155642,18.6223928 4.12451362,18.4944904 4.36316472,18.4944904 L4.36316472,18.4944904 Z M17.385214,12.7542306 C17.8417639,12.7542306 18.2049287,13.1379378 18.2049287,13.6086187 C18.2049287,14.0242031 17.8910659,14.3831169 17.487771,14.4358753 L17.385214,14.4425423 C16.9079118,14.4425423 16.539559,14.0588351 16.539559,13.6086187 C16.539559,13.1379378 16.9079118,12.7542306 17.385214,12.7542306 Z" id="Combined-Shape" fill="#F69E25"></path>
    </g>
</svg>