<?xml version="1.0" encoding="UTF-8"?>
<svg width="28px" height="28px" viewBox="0 0 28 28" version="1.1" xmlns="http://www.w3.org/2000/svg" xmlns:xlink="http://www.w3.org/1999/xlink">
    <title>RJ</title>
    <g id="RJ" stroke="none" stroke-width="1" fill="none" fill-rule="evenodd">
        <path d="M23.4710689,16.4823427 C23.4710689,16.4823427 23.9808444,17.0086444 24.1651478,17.7428634 C24.1651478,17.7428634 23.0614661,17.6577263 22.620849,17.9958118 C22.620849,17.9958118 22.6536458,18.2973095 23.1652037,18.8404979 C23.1652037,18.8404979 23.2610985,19.0012732 23.0357991,19.1423474 C22.8236898,19.2767373 21.7556567,19.3474502 21.7167997,18.2360953 C21.7167997,18.2360953 21.0262856,19.0610802 20.0848052,18.9386517 C20.0848052,18.9386517 19.3418877,18.8478858 19.2955445,18.1594016 C19.2955445,18.1594016 20.0099431,18.2955505 20.5785388,18.0355659 C20.5785388,18.0355659 20.5539412,17.5789218 19.9069185,17.128962 C19.9069185,17.128962 20.4141986,16.4784728 21.5713533,16.1706426 C21.5713533,16.1706426 21.3414196,15.1817161 21.6743778,14.1822355 C22.0130398,13.1795886 22.1795189,12.9403605 22.2657886,12.7229444 C22.3609705,12.5132681 22.466134,11.9897809 22.2935946,11.4324456 C22.2935946,11.4324456 24.9804321,11.3779904 24.9897007,14.2160088 C24.9900572,14.2160088 25.0175067,15.7959693 23.4710689,16.4823427 M20.443074,21.3569658 L18.8716822,20.6438551 L20.4220413,20.1432353 L21.9028855,20.8106111 L20.443074,21.3569658 Z M17.7958065,18.7828017 C16.8949655,18.7275682 16.5641462,17.8427763 16.5641462,17.8427763 C16.1142604,18.4292367 15.1820486,18.3338973 15.1820486,18.3338973 C14.4316449,18.1699558 14.3803109,17.5254473 14.3803109,17.5254473 C15.2062897,17.3615057 15.419112,17.0663405 15.419112,17.0663405 C15.2305308,16.5449641 14.3321852,16.2561315 14.3321852,16.2561315 C14.872975,15.4142599 16.0272777,14.9913891 16.0272777,14.9913891 C15.577392,14.5291161 15.4483439,14.0710648 15.3321294,13.3132748 C15.2141324,12.5361355 15.419112,11.3389399 15.419112,11.3389399 C15.6494022,10.2669872 16.0629264,9.74631441 16.4165608,9.29248476 C16.7969317,8.84569121 17.1751637,8.89881391 17.1751637,8.89881391 C17.6778095,8.95404744 18.1309036,9.22036454 18.1309036,9.22036454 C18.7298007,9.567597 19.1590102,10.0766602 19.3550777,10.3429773 C19.5358163,10.6110534 20.1193844,11.9000704 19.3921523,13.5162668 C18.6649201,15.1106513 17.9195072,15.4146117 17.9195072,15.4146117 C19.0417262,16.4819909 19.0356659,16.9607988 19.0356659,16.9607988 C18.1091579,16.9607988 17.8624694,17.4709174 17.8624694,17.4709174 C18.0899077,17.9159519 18.7533288,18.0823561 18.7533288,18.0823561 C18.5629651,18.8176305 17.7958065,18.7828017 17.7958065,18.7828017 M17.2029697,21.1423641 C16.8878358,21.1423641 16.6297396,20.8946928 16.6297396,20.5854553 C16.6297396,20.2642565 16.8881922,20.0208068 17.2029697,20.0208068 C17.5059831,20.0208068 17.755167,20.2642565 17.755167,20.5854553 C17.755167,20.8946928 17.5059831,21.1423641 17.2029697,21.1423641 M14.0220421,21.1423641 L12.5144614,20.5428868 L14.0220421,19.9409469 L15.5595677,20.5428868 L14.0220421,21.1423641 Z M11.4774426,17.8427763 C11.4774426,17.8427763 11.141989,18.7275682 10.2436434,18.7828017 C10.2436434,18.7828017 9.48076264,18.8179823 9.29503326,18.0827079 C9.29503326,18.0827079 9.94241245,17.9159519 10.1801888,17.4712692 C10.1801888,17.4712692 9.93385677,16.9611506 9.00128852,16.9611506 C9.00128852,16.9611506 8.99023744,16.4826945 10.1284983,15.4149635 C10.1284983,15.4149635 9.36597404,15.1110031 8.64480218,13.5166186 C7.92363032,11.9004222 8.49721683,10.6114052 8.68971946,10.3433291 C8.8790137,10.0766602 9.30394542,9.567597 9.90890273,9.22071634 C9.90890273,9.22071634 10.3595015,8.95439925 10.8739112,8.89916572 C10.8739112,8.89916572 11.2393097,8.84604302 11.6161158,9.29283656 C11.9715327,9.74666622 12.4039506,10.267339 12.6214073,11.3392917 C12.6214073,11.3392917 12.8299518,12.5364873 12.7098159,13.3136266 C12.5993051,14.0714166 12.4699006,14.5294679 12.01645,14.9917409 C12.01645,14.9917409 13.1582757,15.4149635 13.7044128,16.2564833 C13.7044128,16.2564833 12.8028588,16.5449641 12.6214073,17.0666924 C12.6214073,17.0666924 12.8356556,17.3618575 13.6580695,17.5257991 C13.6580695,17.5257991 13.6227774,18.1703076 12.8445677,18.3342491 C12.8445677,18.3338973 11.9298238,18.4292367 11.4774426,17.8427763 M10.8468183,21.1423641 C10.54024,21.1423641 10.2707364,20.8946928 10.2707364,20.5854553 C10.2707364,20.2846613 10.54024,20.0391007 10.8468183,20.0391007 C11.1601698,20.0391007 11.3958072,20.2843095 11.3958072,20.5854553 C11.3958072,20.8946928 11.1601698,21.1423641 10.8468183,21.1423641 M7.58960262,21.3569658 L6.11481864,20.8183509 L7.61134829,20.1432353 L9.15921196,20.6544093 L7.58960262,21.3569658 Z M4.98760884,19.1831569 C4.7851246,19.0364538 4.85321349,18.8770857 4.85321349,18.8770857 C5.36833625,18.3448033 5.41325353,18.0394358 5.41325353,18.0394358 C4.96728912,17.699943 3.87501499,17.7875427 3.87501499,17.7875427 C4.05646653,17.0388997 4.56160767,16.5298365 4.56160767,16.5298365 C3.00804021,15.8125042 3.0501056,14.2459124 3.0501056,14.2459124 C3.0501056,11.4205589 5.74264691,11.4651962 5.74264691,11.4651962 C5.5733159,12.0196844 5.68168774,12.5428198 5.76474906,12.767272 C5.85101875,12.9755411 6.03104435,13.2052704 6.36507205,14.2160088 C6.68911813,15.2158413 6.46381877,16.1906956 6.46381877,16.1906956 C7.61206126,16.5076727 8.11791537,17.1581619 8.11791537,17.1581619 C7.46447592,17.6095289 7.46447592,18.0686357 7.46447592,18.0686357 C8.01631677,18.3338973 8.74140998,18.1917677 8.74140998,18.1917677 C8.69007594,18.8865845 7.94109815,18.9678516 7.94109815,18.9678516 C7.01280773,19.0885211 6.3091037,18.2740903 6.3091037,18.2740903 C6.27915884,19.3798164 5.2132647,19.3178985 4.98760884,19.1831569 M27.4494565,14.1343899 C28.021617,13.9437111 27.9538846,13.3136266 27.9538846,13.3136266 C27.8308968,12.576945 27.0509047,12.6817832 27.0509047,12.6817832 C27.5457078,12.1093949 27.1528598,11.6640086 27.1528598,11.6640086 C26.7707065,11.191885 26.1668186,11.4954935 26.1668186,11.4954935 C26.4420261,10.8900355 26.0780535,10.586427 26.0780535,10.586427 C25.5932321,10.1660189 25.0912993,10.600851 25.0912993,10.600851 C25.0763269,10.0098171 24.644622,9.875779 24.644622,9.875779 C24.1330641,9.65695571 23.7608923,10.1107854 23.7608923,10.1107854 C23.3880076,9.09582524 22.6536458,9.61614622 22.4796804,9.68721102 C22.3046456,9.7867721 22.2886038,9.68721102 22.2886038,9.68721102 C22.255094,8.46116733 21.1959731,8.92027407 21.1959731,8.92027407 C21.4857965,8.30813174 20.9860027,7.96336192 20.9860027,7.96336192 C20.4412916,7.63196073 19.9889104,8.09599276 19.9889104,8.09599276 C19.9340115,7.28683911 19.3233504,7.52747437 19.1326302,7.59818736 C18.9479703,7.63899685 18.5501315,7.65342089 18.5501315,7.65342089 C17.2956561,7.50038531 16.8343628,7.57180192 16.8343628,7.57180192 C15.3064624,7.54260202 14.0220421,10.0393688 14.0220421,10.0393688 L14.0220421,10.0608289 L13.9999399,10.0393688 C13.9999399,10.0393688 12.6955564,7.54260202 11.1740727,7.57180192 C11.1740727,7.57180192 10.7074321,7.50073712 9.458304,7.65342089 C9.458304,7.65342089 9.06902092,7.63899685 8.87509235,7.59818736 C8.68294622,7.52712256 8.07478052,7.2864873 8.03128919,8.09599276 C8.03128919,8.09599276 7.57427371,7.63196073 7.02956258,7.96336192 C7.02956258,7.96336192 6.52976874,8.30813174 6.81388835,8.92027407 C6.81388835,8.92027407 5.75441096,8.46116733 5.72018827,9.68721102 C5.72018827,9.68721102 5.71555394,9.7867721 5.5262597,9.68721102 C5.36013707,9.61614622 4.62827062,9.09582524 4.25502942,10.1107854 C4.25502942,10.1107854 3.87501499,9.65695571 3.3709433,9.875779 C3.3709433,9.875779 2.93210862,10.0098171 2.91784917,10.600851 C2.91784917,10.600851 2.41021263,10.1660189 1.92360878,10.586427 C1.92360878,10.586427 1.55607136,10.8900355 1.82700098,11.4954935 C1.82700098,11.4954935 1.2366596,11.191885 0.865557326,11.6640086 C0.865557326,11.6640086 0.468788033,12.1093949 0.971433769,12.6817832 C0.971433769,12.6817832 0.166487619,12.576945 0.0531249639,13.3136266 C0.0531249639,13.3136266 -0.00854717248,13.9437111 0.553988268,14.1343899 C0.553988268,14.1343899 -0.105511456,14.4383502 0.0146244394,14.9614856 C0.0146244394,14.9614856 0.0527684775,15.4821584 0.736865759,15.5831267 C0.736865759,15.5831267 0.166131133,15.9578 0.401768602,16.4823427 C0.401768602,16.4823427 0.629919858,17.0962441 1.36356874,16.9178784 C1.36356874,16.9178784 1.08871777,17.5472593 1.513293,17.8322221 C1.513293,17.8322221 1.91576608,18.1703076 2.41056911,17.8367956 C2.41056911,17.8367956 2.67044765,17.7428634 2.7788195,17.9268579 C2.7788195,17.9268579 2.96526185,18.2227267 2.57027499,18.6568552 C2.57027499,18.6568552 4.70277626,18.4763787 5.27707575,21.8691952 L22.7060493,21.8691952 C23.2835571,18.4763787 25.4424384,18.6568552 25.4424384,18.6568552 C25.0396088,18.2227267 25.2360328,17.9268579 25.2360328,17.9268579 C25.3333536,17.7432152 25.5935886,17.8367956 25.5935886,17.8367956 C26.0919565,18.1703076 26.5036982,17.8322221 26.5036982,17.8322221 C26.914727,17.5472593 26.6437973,16.9178784 26.6437973,16.9178784 C27.3860019,17.0962441 27.6219959,16.4823427 27.6219959,16.4823427 C27.8316098,15.9581518 27.2712133,15.5831267 27.2712133,15.5831267 C27.9545976,15.4821584 27.9856119,14.9614856 27.9856119,14.9614856 C28.1043219,14.4383502 27.4494565,14.1343899 27.4494565,14.1343899 M5.47849053,23.7316558 C5.51556511,24.1323628 5.52661619,24.5 5.52661619,24.5 L22.466134,24.5 C22.466134,24.5 22.4800369,24.1510085 22.5142596,23.7805569 C22.5527601,23.3791463 22.5962515,23.0575957 22.5962515,23.0575957 L5.39364678,23.0575957 C5.39364678,23.0575957 5.44783271,23.3963848 5.47849053,23.7316558 M13.0495474,7.05570261 C13.0495474,7.05570261 12.5051927,7.04514843 12.146924,7.21999598 C12.146924,7.21999598 13.411381,7.55385981 14.0223986,8.9987268 C14.6380505,7.55385981 15.8953778,7.21999598 15.8953778,7.21999598 C15.5599241,7.04479662 14.9913284,7.05570261 14.9913284,7.05570261 C14.9360731,6.8657274 14.7218248,6.71832071 14.7218248,6.71832071 C14.8893733,6.52060578 15.2194797,6.30494874 15.2194797,6.30494874 L14.0223986,3.5 L12.8303083,6.30494874 C12.8303083,6.30494874 13.1568497,6.52060578 13.3208335,6.71832071 C13.320477,6.71796891 13.1008814,6.8657274 13.0495474,7.05570261" id="Shape" fill="#A6844B" fill-rule="nonzero"></path>
    </g>
</svg>