<?xml version="1.0" encoding="UTF-8"?>
<svg width="28px" height="28px" viewBox="0 0 28 28" version="1.1" xmlns="http://www.w3.org/2000/svg" xmlns:xlink="http://www.w3.org/1999/xlink">
    <title>RO</title>
    <g id="RO" stroke="none" stroke-width="1" fill="none" fill-rule="evenodd">
        <path d="M14.0537011,0 C21.7495782,0 28,6.28991608 28,13.9805015 C28,21.7094478 21.7495782,28 14.0537011,28 C6.32394243,28 0,21.7094478 0,13.9805015 C0,6.28991544 6.32394243,0 14.0537011,0 L14.0537011,0 Z M8.36458209,17.6691709 C7.23685947,17.5330054 6.60779162,17.357201 5.69039694,17.4594864 C4.63619493,17.5330054 3.1964927,18.4797843 2.28357566,19.464921 C1.51258098,17.8104533 1.08872733,15.9514148 1.08872733,13.9811434 C1.08872733,6.8850895 6.88524591,1.05418062 14.0537011,1.05418062 C17.1082695,1.05418062 19.9921459,2.17676399 22.2022015,4.00639421 L8.36458209,17.6691709 L8.36458209,17.6691709 Z M13.1414208,18.5130258 L25.0867172,20.6942623 C26.2828416,18.6888302 26.9457954,16.4788247 26.9457954,13.9805022 C26.9457954,10.2221527 25.2625205,6.77769042 22.6612147,4.39124191 L13.1414208,18.5130258 L13.1414208,18.5130258 L13.1414208,18.5130258 Z M13.7366077,20.518463 L19.7434594,25.4377535 L8.60815548,19.9526954 C7.58847622,19.6739669 6.60779162,19.6017284 5.65587482,19.5665678 C4.56778871,19.5326851 3.581991,19.7091281 2.45938212,19.8836514 C4.63619557,24.0664861 8.99365314,26.9445421 14.0537017,26.9445421 C18.4795636,26.9445421 22.4515286,24.6610202 24.7696245,21.148797 L13.7366084,20.518463 L13.7366084,20.518463 L13.7366077,20.518463 Z" id="svg_32" fill="#01185B"></path>
    </g>
</svg>