<?xml version="1.0" encoding="UTF-8"?>
<svg width="28px" height="28px" viewBox="0 0 28 28" version="1.1" xmlns="http://www.w3.org/2000/svg" xmlns:xlink="http://www.w3.org/1999/xlink">
    <title>RQ</title>
    <g id="RQ" stroke="none" stroke-width="1" fill="none" fill-rule="evenodd">
        <circle id="Oval" fill="#F48120" cx="14" cy="14" r="14"></circle>
        <path d="M20.2480469,3.92508594 C19.9221094,3.95653125 19.5241758,4.01275 19.2773437,4.06216016 C19.2322266,4.07121094 19.1091797,4.09532813 19.0039062,4.11578125 C18.8462148,4.14643359 18.5179258,4.21960547 18.4023437,4.24990234 C18.3873047,4.25383984 18.3380859,4.26617188 18.2929687,4.27732813 C18.2070273,4.29851953 17.9776953,4.36296875 17.6435547,4.45979297 C17.3663437,4.54012891 16.7353047,4.75040234 16.5857617,4.81230859 C16.5171016,4.84071875 16.3748047,4.89704688 16.2695312,4.93748828 C15.973207,5.05129297 15.8793906,5.09222656 15.4028984,5.31576172 C14.5362383,5.72233594 13.7409453,6.23773828 12.9335937,6.916 C12.4108633,7.35516797 12.2374766,7.54873438 11.3886172,8.640625 C10.7603672,9.44874219 10.6222266,9.60684375 10.4365898,9.73008203 C10.3094141,9.81454688 10.2646523,9.82917578 10.1335664,9.82917578 C10.0014687,9.82917578 9.92966406,9.80525 9.62464453,9.65967187 C9.02991797,9.37578906 8.66651953,9.34516406 8.04748437,9.52678125 C7.65999609,9.64044922 7.11730469,9.89758984 6.86328125,10.087875 C6.68817187,10.219043 6.6303125,10.2492031 6.50289062,10.2756719 L6.39898437,10.2972461 L6.52047266,10.364457 C6.63143359,10.4258164 6.65902344,10.4648906 6.83837109,10.8144531 C7.05930859,11.2451172 6.98654687,11.1723008 7.78955078,11.7667539 C8.00950391,11.9295586 8.18945312,12.0791563 8.18945312,12.0991992 C8.18945312,12.1667383 7.95082422,12.4292109 7.66592969,12.6750039 C6.65216016,13.5497031 6.248375,14.029668 5.83750781,14.8484492 C5.71694922,15.0886367 5.46125781,15.6989766 5.44274609,15.7907422 C5.43965625,15.805918 5.41575781,15.8860352 5.38961719,15.96875 C5.36347656,16.0514648 5.30569922,16.2667969 5.26126562,16.4472656 C5.21683203,16.6277344 5.17417578,16.8 5.16649219,16.8300781 C5.12922266,16.9756836 5.03967187,17.5252109 4.99933984,17.8554688 C4.96565234,18.1312578 4.95373047,18.4735469 4.95196107,19.2089844 C4.94954687,20.3537852 4.98369922,20.839957 5.14119922,21.9023437 C5.16236328,22.0452148 5.20529297,22.3466797 5.23657422,22.5722656 C5.29850781,23.0190078 5.33569531,23.1729258 5.45958984,23.4951172 L5.54107422,23.7070312 L14.3148359,23.7070312 C19.1403789,23.7070312 23.0948047,23.6969687 23.1024062,23.6846641 C23.1100078,23.6723594 23.0866836,23.5985312 23.0505898,23.5206016 L22.9849375,23.3789062 L14.2763086,23.3789062 C9.48655859,23.3789062 5.5615,23.3689258 5.55395312,23.3567031 C5.53112109,23.3197344 5.58821484,22.4674023 5.64861719,21.9433594 C5.72121484,21.3137969 5.79627344,20.8583594 5.92350391,20.2753906 C6.03490234,19.7648555 6.23596094,19.0375664 6.31870312,18.84575 C6.34000391,18.7963672 6.35742187,18.7435937 6.35742187,18.7284727 C6.35742187,18.6990781 6.58120312,18.087918 6.64204297,17.9511719 C6.66214062,17.9060547 6.70140625,17.8137695 6.72935156,17.7460938 C6.86213281,17.4244219 7.32678516,16.5456484 7.539,16.2148438 C7.97674609,15.5324258 8.49964062,14.8867305 8.99253906,14.4198633 C9.65321875,13.7941289 10.13775,13.5760625 10.7114492,13.6462812 C11.0719766,13.6903867 11.3993086,13.7862813 12.0585937,14.0409609 C13.0121797,14.4093359 13.2846875,14.4518555 14.860125,14.4782969 C15.4384727,14.4879766 15.9183555,14.5000078 15.9265312,14.5050117 C15.934707,14.5100156 15.9844727,14.5216641 16.0371094,14.5309062 C16.6186016,14.6328164 17.128207,14.8004336 17.9375,15.1560117 C18.8013437,15.535543 18.9501758,15.5874687 19.25,15.6141016 C19.4707734,15.6336797 22.3585742,15.678332 26.7421875,15.7299023 L27.2890625,15.7363281 L27.297457,15.6496211 C27.3057969,15.5636797 27.3046211,15.5628047 27.1607383,15.5479023 C27.0809219,15.5396445 26.2404297,15.5198477 25.2929687,15.5039336 C24.3455078,15.4879922 23.1458008,15.4636289 22.6269531,15.449793 C22.1081055,15.435957 21.1421875,15.4172266 20.4804687,15.4081758 C19.1440977,15.3898555 18.9911094,15.373832 18.6436797,15.2154844 C18.5331289,15.1651172 18.3492422,15.0592969 18.2350273,14.9803555 C17.97775,14.8024844 17.4743242,14.3231211 17.4913047,14.2721523 C17.5281094,14.161793 18.1372461,14.1693945 18.6347656,14.2864258 C19.4385352,14.4754805 19.5124727,14.4871562 20.015625,14.5044102 C20.2863281,14.5136797 20.8400391,14.5332031 21.2460937,14.5478047 C21.6521484,14.5624062 22.4458008,14.5868516 23.0097656,14.6021094 C23.5737305,14.6173672 24.3427734,14.6413203 24.71875,14.6553477 C25.0947266,14.669375 25.6915039,14.6878047 26.0449219,14.6962813 C26.3983398,14.7047578 26.8452187,14.7190859 27.0379648,14.7281367 L27.3884297,14.7445977 L27.3797617,14.6388867 L27.3710937,14.5332031 L26.9335937,14.5142812 C26.6929687,14.5038633 26.1577148,14.4766016 25.7441406,14.4536602 C25.3305664,14.4307461 24.8383789,14.4049336 24.6503906,14.3963203 C24.4624023,14.387707 24.1240234,14.3692227 23.8984375,14.3552227 C23.6728516,14.3412227 23.3283203,14.322793 23.1328125,14.3142617 C22.9373047,14.3057305 22.5620117,14.287082 22.2988281,14.2728359 C21.8011445,14.245875 21.5090859,14.2310547 20.9316406,14.2034648 C20.7436523,14.1944687 20.5160156,14.1818906 20.4257812,14.1754922 C20.3355469,14.1690937 20.0463867,14.1517578 19.7832031,14.1369648 C19.2056211,14.1044805 19.0065039,14.0737187 18.4296875,13.9277852 C17.2211211,13.6220273 15.8477266,12.9341133 14.109375,11.7638008 L13.5078125,11.3588125 L13.4996641,11.0729609 C13.4728398,10.1309414 13.9904844,9.11610547 15.0522148,8.02910938 C15.5152266,7.55510547 15.8060273,7.29949609 16.296875,6.93511328 C16.4923828,6.79 16.6646484,6.66189453 16.6796875,6.65049219 C16.939918,6.45307031 17.8298203,5.95792969 18.2792969,5.76042578 C18.3319336,5.73729297 18.4611328,5.67959766 18.5664062,5.63221094 C18.9243359,5.47112891 19.8295781,5.15604688 20.2617187,5.0421875 C20.2767578,5.03822266 20.3567383,5.01555469 20.4394531,4.99184766 C20.522168,4.96811328 20.6996016,4.92365234 20.8337227,4.89302734 C20.9678711,4.86240234 21.0852305,4.83265234 21.0945273,4.82691016 C21.1629961,4.78458203 22.3100664,4.57958594 22.9414062,4.49684375 C23.3662461,4.44117188 23.3691992,4.43996875 23.2543281,4.36983203 C22.8471797,4.12127734 22.3526953,3.96694922 21.7832344,3.91075781 C21.4111133,3.87403516 20.7089531,3.88057031 20.2480469,3.92508594" id="Path" fill="#0254A4"></path>
    </g>
</svg>