<?xml version="1.0" encoding="UTF-8"?>
<svg width="28px" height="28px" viewBox="0 0 28 28" version="1.1" xmlns="http://www.w3.org/2000/svg" xmlns:xlink="http://www.w3.org/1999/xlink">
    <title>RS</title>
    <g id="RS" stroke="none" stroke-width="1" fill="none" fill-rule="evenodd">
        <path d="M0,18.3490633 L5.0678733,18.3490633 C7.84116741,10.3816867 9.23161991,6.3939051 9.23923081,6.38571851 C9.25241817,6.37156818 10.7137797,10.3774217 13.6233153,18.4032791 L18.3400686,18.3951196 L11.879531,1 L7.02963071,1 L0,18.3490633 Z" id="Path" fill="#1DB898" fill-rule="nonzero"></path>
        <path d="M14.9810839,9.34988659 L16.4939278,13.4224848 C14.7899674,14.196665 13.6147231,15.9152724 13.635413,17.8978906 C13.637199,18.0690396 13.6478541,18.2380375 13.6669401,18.4044557 L13.6233153,18.4032791 C12.6928467,15.8366122 11.9104855,13.6810786 11.2762317,11.9366782 C12.2598844,10.797322 13.5287007,9.90635169 14.9810839,9.34988659 Z" id="Combined-Shape" fill="#018B7C" fill-rule="nonzero"></path>
        <path d="M18.5536968,8.69864683 C23.7845619,8.69864683 28,12.610878 28,17.7949869 C28,23.188392 24.1729324,27 18.5536968,27 C12.9344612,27 9.12762127,23.2004668 9.12762127,17.7949869 C9.12762127,15.5250844 9.93270034,13.4990256 11.276608,11.9384572 C11.9108087,13.6819691 12.6930389,15.8371424 13.6233153,18.4032791 L13.6668255,18.4034551 C13.945888,20.841182 16.033915,22.7256114 18.5536968,22.7094255 C19.8625316,22.7098324 21.1160809,22.1844262 22.0300715,21.2523555 C22.9440621,20.3202849 23.4410489,19.0605267 23.408328,17.7587625 C23.3592541,15.0813872 21.1434726,12.9474826 18.4522244,12.9857955 C17.7532545,12.9957461 17.0905575,13.151249 16.49293,13.4229383 L14.9800877,9.35026834 C16.0808631,8.92837772 17.2871101,8.69864683 18.5536968,8.69864683 Z" id="Combined-Shape" fill="#B5BBAF" fill-rule="nonzero"></path>
    </g>
</svg>