<?xml version="1.0" encoding="UTF-8"?>
<svg width="28px" height="28px" viewBox="0 0 28 28" version="1.1" xmlns="http://www.w3.org/2000/svg" xmlns:xlink="http://www.w3.org/1999/xlink">
    <title>S3</title>
    <g id="S3" stroke="none" stroke-width="1" fill="none" fill-rule="evenodd">
        <path d="M13.9997435,0 C21.7319687,0 28,6.26765931 28,13.9999729 C28,21.732003 21.7319687,28 13.9997467,28 C6.26783377,28 0,21.732003 0,13.9999729 C0,6.26765931 6.26783377,0 13.9997467,0 L13.9997467,0" id="path3378" fill="#E31D1A" fill-rule="nonzero"></path>
        <path d="M22.6033823,15.2623604 C22.6033823,15.2623604 22.009557,13.9752037 20.8298082,13.3139104 C19.6494922,12.6526425 18.0417918,12.6007368 18.0417918,12.6007368 C18.0417918,12.6007368 14.2144266,14.5999965 12.2281162,16.5283928 C10.2421721,18.4568115 9.26330379,20.5584456 9.26330379,20.5584456 C9.26330379,20.5584456 8.16959519,19.7234907 8.18392354,19.3209643 C8.19826145,18.9182977 10.0826135,16.5428325 11.8962222,15.1616523 C13.710054,13.7804722 16.4448098,12.6435874 16.4448098,12.6435874 C16.4448098,12.6435874 13.1192747,12.8594783 9.53626575,14.8741653 C5.95334603,16.8891646 3.00283652,20.2707324 3.00283652,20.2707324 C3.00283652,20.2707324 4.35515006,17.4940407 8.73015972,14.7303517 C13.1049463,11.966889 16.3957232,11.6683747 18.7848493,11.9081586 C22.5116993,12.2819363 22.6033823,15.2623604 22.6033823,15.2623604 L22.6033823,15.2623604 L22.6033823,15.2623604 Z M17.994961,10.7637991 C18.2039982,10.6401539 17.8454485,10.0841089 17.394929,10.0623888 C16.9446963,10.0406911 16.3559466,10.3030744 16.3559466,10.3030744 C16.3559466,10.3030744 17.7859238,10.8869887 17.994961,10.7637991 L17.994961,10.7637991 Z M21.320665,9.62383974 C21.5480388,9.53853356 21.2913201,8.9283844 20.8515285,8.8291101 C20.4117306,8.72952993 19.7868749,8.88583964 19.7868749,8.88583964 C19.7868749,8.88583964 21.0932912,9.70922876 21.320665,9.62383974 L21.320665,9.62383974 Z M20.8684536,11.7130032 C20.8684536,11.7130032 20.6148447,11.1464917 19.9225657,10.7076048 C19.2302868,10.2683484 18.5594478,10.0601872 18.5594478,10.0601872 L18.4483003,9.20376718 C18.4483003,9.20376718 14.7020399,8.16166745 10.5762932,9.30811383 C6.45054974,10.4540249 3.38985179,12.9717521 3.38985179,12.9717521 C3.38985179,12.9717521 6.19707777,9.63594077 11.7306002,7.88549132 C17.264317,6.13479017 21.858633,7.58731477 22.0527205,7.84063978 C22.2462409,8.09396479 22.3142281,8.80118343 22.5740438,8.86096212 C22.834143,8.92045405 23.8031628,9.00993728 24.3611624,9.79188725 C24.9194424,10.5733816 24.6297242,11.7428734 24.6297242,11.7428734 C24.6297242,11.7428734 23.6838363,11.1696232 22.5889966,11.2441251 C21.4941569,11.318627 20.8684536,11.7130032 20.8684536,11.7130032 L20.8684536,11.7130032" id="path3380" fill="#FFFFFF"></path>
    </g>
</svg>