<?xml version="1.0" encoding="UTF-8"?>
<svg width="28px" height="28px" viewBox="0 0 28 28" version="1.1" xmlns="http://www.w3.org/2000/svg" xmlns:xlink="http://www.w3.org/1999/xlink">
    <title>S4</title>
    <g id="S4" stroke="none" stroke-width="1" fill="none" fill-rule="evenodd">
        <polyline id="path26026" fill="#002754" fill-rule="nonzero" points="25.4371552 17.975137 24.6231942 15.5395094 26.5 15.3124045"></polyline>
        <polyline id="path26030" fill="#4FC6E0" fill-rule="nonzero" points="15.8392565 15.0772198 17.8392183 14.2542192 24.6231942 15.5394366 25.4371919 17.9750642"></polyline>
        <polyline id="path26034" fill="#002754" fill-rule="nonzero" points="4.43186154 2.08277839e-13 2.67299445 2.84521717 7.80310917 5.32834028"></polyline>
        <polyline id="path26038" fill="#4FC6E0" fill-rule="nonzero" points="1.5 7.94627055 2.67299445 2.84518078 7.80314591 5.32703006"></polyline>
        <polyline id="path26042" fill="#008ABF" fill-rule="nonzero" points="15.8392565 23.3585793 22.6362387 21.1450706 25.4371919 17.9750278 15.8392565 15.0784937"></polyline>
        <polyline id="path26046" fill="#002754" fill-rule="nonzero" points="10.4394993 23.3585793 5.39102314 28 13.3285942 28 15.8392197 23.3585793 15.8392197 15.0784937"></polyline>
        <polyline id="path26050" fill="#008ABF" fill-rule="nonzero" points="10.4394993 23.3585793 9.62939607 20.4594611 15.8392197 15.0784937"></polyline>
        <polyline id="path26054" fill="#008ABF" fill-rule="nonzero" points="1.5 7.94627055 7.80314591 5.32703006 15.0083946 12.4015307 2.53819158 12.4015307"></polyline>
        <polyline id="path26058" fill="#4FC6E0" fill-rule="nonzero" points="15.0083946 12.4015671 2.53822832 12.4015671 9.62939607 20.4595339 15.8392197 15.0772926"></polyline>
    </g>
</svg>