<?xml version="1.0" encoding="UTF-8"?>
<svg width="28px" height="28px" viewBox="0 0 28 28" version="1.1" xmlns="http://www.w3.org/2000/svg" xmlns:xlink="http://www.w3.org/1999/xlink">
    <title>S7</title>
    <g id="S7" stroke="none" stroke-width="1" fill="none" fill-rule="evenodd">
        <path d="M28,14.0030127 C28,21.7373997 21.7363898,28 14.0042475,28 C6.27111732,28 -3.55271368e-15,21.7373997 -3.55271368e-15,14.0030127 C-3.55271368e-15,6.26862576 6.27111732,-1.59872116e-14 14.0042475,-1.59872116e-14 C21.7364886,-1.59872116e-14 28,6.26862576 28,14.0030127" id="Path" fill="#BED600" fill-rule="nonzero"></path>
        <path d="M12.9840685,6.69554266 C10.7788502,6.69554266 9.34824881,6.81743425 8.31266051,7.20187677 C6.57239014,7.87978763 5.37055852,9.30060501 5.37055852,11.1677985 C5.37055852,12.7229535 6.09469986,13.849216 8.19037338,15.1445858 C10.4264104,16.5001111 10.8724917,16.9480677 10.8724917,17.7648599 C10.8724917,18.6587974 9.99662744,19.6763057 7.74300793,19.6763057 C6.95643891,19.6763057 5.77169588,19.5674528 5.01466147,19.3822447 L4.65343042,19.2911717 C4.45192335,19.8313866 3.99448254,21.1092727 3.85500804,21.5729349 L4.21268309,21.6781331 C4.89365845,21.8953451 6.50976491,22.0649463 7.66764034,22.0649463 C11.5194875,22.0649463 13.8176559,19.7378442 13.8176559,17.3010001 C13.8176559,15.8036301 13.1379646,14.665613 10.8402901,13.2319546 C9.68774871,12.5230275 9.10041487,12.0633165 8.7437276,11.7074207 C8.45460446,11.335918 8.4226004,11.0594394 8.4226004,10.767354 C8.4226004,10.4885048 8.48463297,10.1671811 8.66845878,9.93179405 C8.86729885,9.64079516 9.23198713,9.45538955 9.72558067,9.30238301 C10.2329044,9.13406593 11.1728756,9.12962094 12.6368639,9.12962094 L14,9.12962094 L14.9733582,6.69554266 L12.9840685,6.69554266 L12.9840685,6.69554266 Z M23.2857223,6.69554266 L16.4357661,6.69554266 L15.4623091,9.12942339 L17.7328197,9.12942339 C19.2606186,9.12942339 19.5544831,9.09653044 19.9381368,9.09653044 C19.3842887,10.3635511 16.0462845,18.8696876 16.0462845,18.8696876 L18.8713346,18.8696876 C18.8713346,18.8696876 23.0974515,8.28102235 23.5453109,7.1708606 C23.669376,6.92312631 23.6077385,6.69554266 23.2857223,6.69554266 Z" id="Shape" fill="#FFFFFF" fill-rule="nonzero"></path>
    </g>
</svg>