<?xml version="1.0" encoding="UTF-8"?>
<svg width="28px" height="28px" viewBox="0 0 28 28" version="1.1" xmlns="http://www.w3.org/2000/svg" xmlns:xlink="http://www.w3.org/1999/xlink">
    <title>SB</title>
    <g id="SB" stroke="none" stroke-width="1" fill="none" fill-rule="evenodd">
        <g id="Group-9" transform="translate(0.000000, 3.000000)">
            <path d="M9.73670876,9.44727029 L9.82330986,9.44727029 C10.5173426,9.36036318 9.73670876,10.3146583 10.4305885,10.4014124 L10.864512,10.1409971 C10.9511131,10.4014124 10.6910038,10.921937 11.1246213,10.921937 C11.4717907,11.008538 12.1658235,10.7482758 12.3391787,11.0952921 C12.5125339,11.7025708 11.8186541,11.5289096 11.731747,11.876079 C11.2979765,11.9628331 10.7776049,12.3098495 10.5171896,12.4833577 C9.91006395,13.0038823 9.04236997,13.2641446 8.78226068,14.1316856 L8.95576887,14.3051938 C10.3436814,13.6980681 11.4714847,12.8303741 13.0329055,12.5699588 C11.8183481,13.5247129 10.2569273,14.7386583 8.95576887,15.6926473 L8.08822789,13.7848222 L7.91456669,13.9583304 C7.82781259,14.7388113 8.08822789,15.6060462 7.91456669,16.4741993 C7.56755029,16.3874452 7.1337798,16.3006911 6.78691641,16.3006911 L6.61325521,16.6475544 C6.00612953,16.5609533 5.65911313,16.1273359 5.13843554,15.9538277 C4.96492734,16.0404288 4.96492734,16.1271829 4.96492734,16.3006911 L5.39885084,16.5609533 C4.79141915,16.6475544 4.09753936,16.8210626 3.66361587,17.2546801 C3.49010767,17.0811719 3.40350658,17.2546801 3.22999838,17.2546801 L3.40350658,17.4280353 C4.61806395,17.2546801 5.91906942,17.2546801 7.22038089,17.2546801 C7.3940421,17.6881446 7.91441368,17.8616528 8.43493827,17.8616528 C8.69504756,17.7748987 8.52184537,17.2546801 8.78210767,17.5147894 C9.21587816,17.9484069 9.30232625,18.5553796 9.47598745,19.0766692 C9.82300384,18.7298058 9.64949565,17.9482539 9.73624975,17.5147894 C9.90991095,17.6015435 10.0831131,18.1217621 10.4301295,17.8616528 C10.6036377,17.6015435 10.864053,17.3412812 10.6905448,16.9944178 C10.5168836,16.7343085 9.99651204,16.5609533 9.99651204,16.213937 C10.6905448,15.8670736 11.4713317,16.300538 12.1653645,16.4740462 C12.598982,16.1271829 12.0787634,15.7803195 12.0787634,15.3456309 C12.6857361,14.9987676 13.6401842,14.9120135 14.1607088,14.5651501 C13.0327525,14.5651501 11.9049492,14.9120135 10.7772989,15.1721227 C11.8183481,14.1315326 12.9461514,13.0037293 14.2474629,12.2226364 C15.1148508,12.3962976 16.3294082,12.5698058 16.5029164,13.5244069 L16.3294082,13.6977621 L16.6764246,14.1313796 L16.1559,14.6517512 C16.5030694,15.5188331 17.6305667,16.4738932 16.5030694,17.3409752 C15.8956377,17.9481009 15.2017579,18.3815654 14.2476159,18.3815654 C13.3799219,17.9481009 12.5123809,17.2542211 11.5580858,16.9073577 C12.1656705,17.9479479 13.1198126,18.8162539 13.3799219,20.0301993 C13.3799219,20.0301993 13.466829,20.4638167 13.2064137,20.9840353 C12.9463044,21.2452156 12.3390257,21.9389424 11.9051022,22.0256965 C11.5579328,22.1990517 11.5579328,21.7655872 11.2110694,21.9389424 C10.9509601,21.6788331 11.0377142,21.1584615 10.6908508,20.9840353 C10.1703262,20.8974342 10.3436814,22.0256965 9.73655576,21.3319697 C8.78241368,21.592079 7.91471969,22.0256965 6.78706942,21.9389424 C6.78706942,21.1584615 6.61340822,20.2035544 6.96057762,19.5098277 C6.70046833,19.0762102 7.39434811,18.9894561 6.96057762,18.5549206 C5.39915685,19.2497184 4.53161587,20.3770626 3.75067598,21.6788331 C3.40365958,21.6788331 3.31675248,21.9389424 2.88313499,21.8523413 C2.53596559,21.592079 2.01574701,21.3319697 1.84193281,20.9840353 C1.66842461,20.723926 2.18910221,20.1169533 1.58182352,20.1169533 C1.14805303,20.0301993 0.627681441,19.8568441 0.280512042,19.5965818 C0.020402752,19.1631173 0.367113135,18.5549206 0.020402752,18.1213031 C-0.152952439,16.3008441 0.801189637,15.2591829 2.01590002,14.478702 L1.84208581,13.8717293 C2.27600931,14.1318386 2.6230257,13.8717293 2.7097798,13.5248659 C2.883288,13.3508987 2.7965339,12.9172812 3.1437033,12.743926 C3.31690548,12.4835107 3.31690548,11.9629861 3.75082898,11.7894779 C4.87863226,13.0907894 5.39915685,14.9124725 6.96073062,15.8673796 C7.22083991,15.7806255 7.48125521,16.1274889 7.65476341,15.7806255 C7.39450111,14.9992266 6.61356122,14.7389643 6.35345193,13.8717293 C6.26669783,13.1773905 6.17994374,12.5701118 6.26669783,11.7027238 L6.35345193,11.7027238 C6.35345193,11.1821993 6.61356122,10.3146583 6.61356122,10.3146583 C6.61356122,10.3146583 6.78722242,10.1409971 6.78722242,10.054243 C6.96073062,9.62077849 7.307441,9.27345608 7.8281186,9.27345608 C8.34864319,9.01334679 9.12943007,9.44711728 9.56335357,9.27345608 L9.73670876,9.44727029 L9.73670876,9.44727029 Z" id="Path" fill="#E2631C"></path>
            <path d="M25.6120967,3.02762002 C25.1783262,3.28772931 24.5712006,3.7216528 24.918064,4.24217739 C25.1783262,4.41553258 25.3519875,4.32893149 25.7859109,4.24217739 C26.2193754,3.9820681 26.9134082,3.6348987 26.8268071,3.02762002 C26.4796377,2.42018832 25.872206,2.85411182 25.6120967,3.02762002 Z M18.2383044,9.96764187 C18.2383044,10.1411501 17.891135,10.4015654 18.1517033,10.5752266 C18.2383044,10.6619807 18.4118126,10.6619807 18.8457361,10.5752266 C19.1058454,10.3148113 19.9732334,9.88104078 19.5396159,9.44742329 C19.1058454,9.36036318 18.5853208,9.53402439 18.2383044,9.96764187 Z M23.7901077,2.59400253 C23.183135,2.85411182 22.4891022,3.11422111 22.4891022,3.8084069 C22.5757033,4.1555763 22.8362716,4.1555763 22.8362716,4.24217739 C22.6626104,4.15542329 21.9685776,4.41553258 21.8819765,4.76270198 C21.8819765,4.50259269 21.5346541,4.24217739 21.2745448,4.32893149 C20.6672661,4.58904078 19.7131241,5.02296428 19.7997252,5.71684406 C19.9732334,6.41087685 20.9273754,5.63024297 21.3612989,5.54348887 C18.7479656,8.33905171 15.6687306,10.6218932 12.6855831,12.8429206 C11.5296268,13.7488659 10.1371241,14.8267894 8.95592188,15.6929533 C8.89900384,15.6077293 8.84208581,15.4756856 8.78501477,15.3174779 L8.08838089,13.7851282 L7.91471969,13.9586364 C7.82796559,14.7391173 8.08838089,15.6063523 7.91471969,16.4745053 C7.5677033,16.3877512 7.13393281,16.3009971 6.78706942,16.3009971 L6.61340822,16.6478605 C6.00628253,16.5612594 5.65926614,16.1276419 5.13858854,15.9541337 C4.96508035,16.0407348 4.96508035,16.1274889 4.96508035,16.3009971 L5.39900384,16.5612594 C4.79157215,16.6478605 4.09769237,16.8213686 3.66376887,17.2549861 C3.49026068,17.0814779 3.40365958,17.2549861 3.23015139,17.2549861 L3.40365958,17.4283413 C4.61821696,17.2549861 5.91922242,17.2549861 7.2205339,17.2549861 C7.3941951,17.6884506 7.91456669,17.8619588 8.43509128,17.8619588 C8.69520057,17.7752047 8.52199838,17.2549861 8.78226068,17.5150954 C9.183441,17.9161227 9.28824975,18.4644943 9.43896013,18.9567129 L9.49511313,19.0505053 C9.81229346,18.6933905 9.65163772,17.9389206 9.73640275,17.5150954 C9.91006395,17.6018495 10.0832661,18.1220681 10.4302825,17.8619588 C10.6037907,17.6018495 10.864206,17.3415872 10.6906978,16.9947238 C10.5170366,16.7346146 9.99666505,16.5612594 9.99666505,16.214243 C10.6906978,15.8673796 11.4714847,16.3008441 12.1655175,16.4743523 C12.599135,16.1274889 12.0789164,15.7806255 12.0789164,15.345937 C12.6858891,14.9990736 13.6403372,14.9123195 14.1608618,14.5654561 C13.0329055,14.5654561 11.9051022,14.9123195 10.7774519,15.1724288 C11.8028946,14.1471391 12.9134082,13.0392266 14.1902388,12.2596637 C16.296512,10.4713359 18.4130366,8.76134679 20.4936049,7.01800253 C20.6671131,7.19151073 20.8406213,7.36517193 21.1008836,7.36517193 C21.7083153,7.19151073 22.315288,6.84464734 22.6624574,6.23721564 C22.8361186,5.97710635 22.5757033,5.71669105 22.315135,5.71669105 L23.2695831,5.02265827 C23.6164465,4.58888778 23.4430913,4.32862548 23.2695831,4.15527029 C23.7898017,3.89485499 24.4841405,3.5479916 24.4841405,2.85395881 C24.3110913,2.59400253 24.050676,2.59400253 23.7901077,2.59400253 Z M27.7902825,0.109958813 C27.4432661,-0.0633963779 27.3202497,-0.0223909134 26.9732334,0.167182857 C26.8898454,0.250570835 26.9424793,0.198089961 26.7842716,0.338395972 C26.5305885,0.519707447 26.2951131,0.750592693 26.1326213,0.94567466 C25.872206,1.29284406 25.9591131,1.46619925 26.0460202,1.63970745 C26.3928836,1.81306264 26.5665448,1.72646155 26.9134082,1.63970745 C27.2539984,1.43575116 27.7495831,1.01789324 27.9076377,0.596057174 C28.0768618,0.317281218 27.9090148,0.228844059 27.7902825,0.109958813 Z" id="Shape" fill="#EECE39"></path>
        </g>
    </g>
</svg>