<?xml version="1.0" encoding="UTF-8"?>
<svg width="28px" height="28px" viewBox="0 0 28 28" version="1.1" xmlns="http://www.w3.org/2000/svg" xmlns:xlink="http://www.w3.org/1999/xlink">
    <title>SG</title>
    <g id="SG" stroke="none" stroke-width="1" fill="none" fill-rule="evenodd">
        <path d="M22.826439,17.6769238 C23.1831156,18.0826407 22.9328663,18.9046812 22.2062629,19.5172341 C21.4982407,20.1350883 20.6198575,20.2994976 20.249892,19.8858257 C19.8878844,19.4774571 20.1726307,18.6474616 20.8940191,18.0349088 C21.612684,17.4250095 22.4564541,17.2659036 22.826439,17.6769238 Z M23.6888291,13.6754438 C24.0801187,14.062599 23.8884722,15.0437434 23.2150438,15.6960732 C22.5309919,16.3563561 21.6047067,16.5472821 21.2187481,16.1627785 C20.8328088,15.7756252 21.0298444,14.8236491 21.7085072,14.166016 C22.3899129,13.5136881 23.2975588,13.2882905 23.6888291,13.6754438 Z M25.5573346,9.44326271 C26.0124807,9.75882094 26.0124807,10.7797424 25.4482031,11.5381408 C24.8892759,12.3044943 23.9842761,12.6306592 23.5317956,12.3204044 C23.0872923,12.0101495 23.0846268,11.0475667 23.638223,10.2785634 C24.2051661,9.52016303 25.1154775,9.13300974 25.5573346,9.44326271 Z" id="Combined-Shape" fill="#FAD10A" fill-rule="nonzero"></path>
        <path d="M25.8501548,17.0298993 C26.1482673,17.3242422 25.9646946,18.0587738 25.4402452,18.5626063 C24.9238696,19.0611335 24.253126,19.2308461 23.9496824,18.9338496 C23.6569009,18.6395066 23.819304,17.9447501 24.335641,17.4356162 C24.8573283,16.937089 25.5493767,16.7355563 25.8501548,17.0298993 Z M26.2866809,14.0493406 C26.5981017,14.3251219 26.4649612,15.0676085 25.9805718,15.6059127 C25.4961437,16.1389135 24.8333773,16.3430978 24.5113138,16.0726199 C24.194562,15.7994903 24.3170017,15.0888237 24.8014298,14.5505195 C25.2938544,14.0201723 25.9672635,13.7735594 26.2866809,14.0493406 Z M27.766543,10.7001904 C28.1258658,10.9468013 28.067321,11.7449768 27.6122136,12.3522244 C27.1623793,12.9674289 26.4943012,13.2564704 26.1376246,13.0045542 C25.7729708,12.7526379 25.8262038,12.0074978 26.2786264,11.3896435 C26.723149,10.7797424 27.4098664,10.4429708 27.766543,10.7001904 Z" id="Combined-Shape" fill="#FAD700" fill-rule="nonzero"></path>
        <path d="M8.09113364,22.7921357 C7.65194203,20.8961404 10.6756578,18.4804026 12.5761302,19.0160552 C12.916833,19.1115172 13.3374626,19.4615471 13.3932839,19.8937807 C13.4017826,20.058188 13.4075772,20.2252412 13.4172349,20.3923079 C13.3027916,21.8269012 11.1601052,23.8528321 9.25696735,23.6566029 C8.78584753,23.6009178 8.19485687,23.2217176 8.09113364,22.7921357 Z M11.4555523,13.1875232 C12.3232734,12.3363144 13.5875959,12.0154547 14.5085501,12.2143338 C14.8492916,12.2832791 15.2752522,12.688996 15.3550244,13.1185798 C15.3982907,13.3201105 15.3982907,13.4023238 15.4002223,13.5852851 C15.3816023,14.3251219 14.9690272,15.3778633 14.1811555,16.0938332 C13.4491824,16.7673764 12.3818375,17.1890033 11.4555523,17.1492282 C10.9791014,17.1306646 10.3855032,16.7355563 10.2417973,16.3192308 C9.88247448,15.3115697 10.5479064,14.086464 11.4555523,13.1875232 Z M18.6129191,5.4550429 C19.4114335,6.09146077 19.2996558,7.77001341 18.1737468,9.12505474 C17.0425068,10.4774444 15.315061,11.029005 14.5671141,10.3289452 C13.7020392,9.50160135 13.6647799,8.18368531 14.9344142,6.589988 C16.3025565,4.87696367 17.8144047,4.81597336 18.6129191,5.4550429 Z" id="Combined-Shape" fill="#F8B517" fill-rule="nonzero"></path>
        <path d="M18.7007652,18.3716804 C19.1878588,18.9152879 18.8498794,20.0131096 17.891608,20.8324984 C16.9280636,21.6492336 15.7622299,21.8666763 15.2724708,21.320419 C14.7827117,20.7715081 15.1712585,19.6657314 16.1268837,18.8542976 C17.0877626,18.0349088 18.2136716,17.8227695 18.7007652,18.3716804 Z M20.0928392,13.2299518 C20.6118803,13.7364341 20.3829745,14.9191111 19.4779941,15.7994903 C18.5676827,16.666611 17.2235106,16.9901223 16.7044695,16.4730334 C16.1854284,15.9585942 16.4941837,14.6751518 17.3991834,13.7974244 C18.3014983,12.9196989 19.5738174,12.712861 20.0928392,13.2299518 Z M22.7412584,7.85221899 C23.1777845,8.28445258 23.044702,9.38492599 22.3952439,10.4747908 C21.5674475,11.8722588 20.2844857,11.8961258 19.7068999,11.4453286 C19.1399568,10.9839266 19.3049675,9.66070726 20.1168095,8.69282115 C20.9259666,7.72228337 22.2169056,7.34043149 22.7412584,7.85221899 Z" id="Combined-Shape" fill="#F8BF11" fill-rule="nonzero"></path>
        <path d="M4.19436562,20.1483486 C5.36553037,19.803622 7.11161543,19.6895964 7.45764928,21.1268414 C7.99289595,23.3622599 4.8307859,25.4969131 3.15921932,25.8814147 C1.76712601,26.2155346 0.228661258,25.8575497 0.0263719746,24.6297923 C-0.170605597,23.4656769 0.782296101,22.2617865 1.34126197,21.726134 C1.79907354,21.288597 2.29680987,20.9306121 2.90103152,20.6362692 L2.90103152,20.6362692 C3.31866724,20.4135213 3.75783953,20.2491236 4.19436562,20.1483486 Z M7.13510286,11.1668976 C8.69220689,10.838081 10.0772887,11.3631249 10.0870086,13.2405604 C10.1002546,15.1577691 7.97620752,17.1890033 6.09968614,17.6954875 C5.45820525,17.8625541 4.8779539,17.873157 4.36424381,17.7511763 L4.36424381,17.7511763 C4.18542263,17.7193486 4.01249263,17.6663152 3.85005084,17.6000235 C3.55193828,17.4727396 3.2458485,17.2473419 3.02758545,16.881402 C2.54410383,16.1999038 2.47489706,15.2187594 3.03917464,14.1288926 C3.49700553,13.2405585 4.28487719,12.5033753 5.23511337,11.9465094 C5.81803023,11.5593542 6.46215732,11.280929 7.13556642,11.1668956 Z M7.64663032,7.2264078 C7.40972799,4.98568402 10.3802108,0.994812538 13.3320737,2.23317466 L13.3320737,2.23317466 C14.2609278,2.62828873 14.6442209,3.63064654 14.6442209,4.6754349 C14.6442209,4.87696559 14.6250987,5.07584654 14.6096465,5.27737915 C14.6096465,5.27737915 14.611578,5.27737915 14.6096465,5.28526873 C14.5351087,5.78910123 14.3860524,6.27702179 14.1704549,6.68539036 C13.5476132,7.85215549 12.1794709,9.17802846 10.5505139,9.39547109 C10.5319712,9.4008591 10.5080202,9.4008591 10.4813651,9.41144268 C8.93756932,9.65540392 7.83302309,8.95799382 7.64663032,7.2264078 Z" id="Combined-Shape" fill="#F5A11C" fill-rule="nonzero"></path>
    </g>
</svg>