<?xml version="1.0" encoding="UTF-8"?>
<svg width="28px" height="28px" viewBox="0 0 28 28" version="1.1" xmlns="http://www.w3.org/2000/svg" xmlns:xlink="http://www.w3.org/1999/xlink">
    <title>SK</title>
    <g id="SK" stroke="none" stroke-width="1" fill="none" fill-rule="evenodd">
        <path d="M7.53545666,9.00278951 C9.14683633,9.00340997 9.91098265,9.42559385 10.2182298,9.58170587 C10.4171303,9.68299283 10.37233,9.83182581 10.37233,9.83182581 C10.37233,9.83182581 10.220454,10.599996 10.2067915,10.6572991 C10.1837559,10.7564178 10.1198917,10.7269919 10.0329919,10.6729412 C9.57085016,10.3904528 9.04293785,10.0777642 8.19729317,10.0783837 C7.20819233,10.079158 6.70442768,10.8070613 6.96766894,11.8174529 C7.05822266,12.164988 7.68399654,14.6333544 7.79742699,15.1105182 C8.22096423,16.8943458 7.00960961,18.99938 3.66913044,18.9999998 C1.81373232,19.0004641 0.644318374,18.3131376 0.250330248,17.9964223 C0.0412623547,17.8282302 -0.0214897864,17.7329833 0.00615292896,17.6205454 C0.00615292896,17.6205454 0.267646661,16.7630135 0.285280807,16.7010642 C0.319437036,16.5815023 0.392515479,16.551302 0.447165445,16.6061271 C0.778560296,16.9346128 1.76019442,17.8841393 3.18601839,17.8841393 C4.72146002,17.8841393 4.62407505,16.6414381 4.62375732,16.4613208 C4.62121546,15.9923653 3.95318317,13.5582258 3.78637368,12.9080688 C3.26465715,10.8758249 4.53971711,9.00124174 7.53545666,9.00278951 Z M25.1595941,9.00000138 C26.7695439,9.00062225 27.5346435,9.42218664 27.8415729,9.57876328 C28.0411088,9.68051486 27.9955143,9.82888322 27.9955143,9.82888322 C27.9955143,9.82888322 27.8434793,10.5967437 27.8301346,10.6542016 C27.807099,10.7528557 27.7433936,10.7240493 27.6558584,10.6701535 C27.1941932,10.3875102 26.6662809,10.0749765 25.8203185,10.0751313 C24.832012,10.0759057 24.3284062,10.8036541 24.591012,11.8143555 C24.6814069,12.1622003 25.3078162,14.6304118 25.4204523,15.1069561 C25.8444662,16.8915581 24.6332704,18.9964374 21.2927913,18.9969028 C19.4370754,18.9976764 18.3604393,18.3623873 17.9662923,18.0461365 C17.7569067,17.8777895 17.6943134,17.7822329 17.7217973,17.6696402 C17.7217973,17.6696402 17.8997274,16.761155 17.9087828,16.6985863 C17.923875,16.594047 18.0344459,16.5675637 18.1086364,16.6392699 C18.4424143,16.964813 19.3832198,17.8810419 20.8096792,17.8807321 C22.3455974,17.8807321 22.2478947,16.6384955 22.2474181,16.4588428 C22.2450351,15.9889581 21.576844,13.5552832 21.4098756,12.9051262 C20.888318,10.8730372 22.1633779,8.99814428 25.1595941,9.00000138 Z M18.3491598,9.21078495 C18.471169,9.21078495 18.4371717,9.30974882 18.4374894,9.30974882 L18.4374894,9.30974882 L16.5423747,18.759172 C16.5330016,18.8048595 16.516003,18.8206566 16.4673899,18.8206566 C16.2549505,18.8206566 15.35262,18.8208478 14.5301585,18.8210177 L13.1037163,18.8212761 C13.0069668,18.8212761 12.9991823,18.748176 13.004266,18.7212281 C13.004266,18.7212281 13.4017492,16.7298706 13.4104869,16.689139 C13.4189068,16.6482525 13.3761718,16.6510403 13.3761718,16.6510403 L10.5926774,16.65135 C10.5578857,16.65135 10.5321494,16.689139 10.5321494,16.689139 L10.5321494,16.689139 L8.87390423,18.7616499 C8.85341049,18.7910758 8.84197213,18.8212761 8.72631755,18.8212761 L8.72631755,18.8212761 L7.57310795,18.8217407 C7.49462805,18.8217407 7.48493722,18.7658315 7.53037295,18.7114711 L7.53037295,18.7114711 L15.3205349,9.29178355 C15.3205349,9.29178355 15.3793154,9.21155932 15.5218184,9.21155932 C15.6583374,9.21155932 16.3775776,9.21121516 17.169802,9.21098572 Z M14.3338171,11.9624141 C14.3107815,11.9624141 14.288858,11.9907559 14.288858,11.9907559 L14.288858,11.9907559 L11.3787473,15.629188 C11.3787473,15.629188 11.3622252,15.6485471 11.3709628,15.6610918 C11.380336,15.6741012 11.3943162,15.6710037 11.3943162,15.6710037 L13.5834921,15.6710037 C13.5834921,15.6710037 13.6028738,15.6710037 13.6097051,15.6643442 C13.616854,15.6575298 13.6190782,15.6421973 13.6190782,15.6421973 L13.6190782,15.6421973 L14.3487505,11.9938533 C14.3487505,11.9938533 14.3568527,11.9624141 14.3338171,11.9624141 Z" id="Combined-Shape" fill="#2B3087"></path>
    </g>
</svg>