<?xml version="1.0" encoding="UTF-8"?>
<svg width="28px" height="28px" viewBox="0 0 28 28" version="1.1" xmlns="http://www.w3.org/2000/svg" xmlns:xlink="http://www.w3.org/1999/xlink">
    <title>SQ</title>
    <g id="SQ" stroke="none" stroke-width="1" fill="none" fill-rule="evenodd">
        <path d="M16.3334384,-3.37507799e-14 C18.420923,-3.37507799e-14 19.2959468,1.58303865 19.4102998,1.80918703 L19.4233916,1.83595015 L22.0024415,5.76084665 C22.6205182,6.75575065 24,6.61110689 24,6.61110689 L24,6.61110689 L22.2533737,9.39658601 L19.7457728,9.39658601 C17.963422,9.39658601 17.2738963,7.89525496 17.2738963,7.89525496 L17.2738963,7.89525496 L14.9091934,4.25968946 C14.694416,3.99739224 14.4434838,3.67176991 14.1839432,3.85257462 C13.9330109,4.03355318 14.2911166,4.51281606 14.2911166,4.51281606 L14.2911166,4.51281606 L17.4615575,9.5051123 C17.9276976,10.2828333 18.7695904,11.8203253 18.7695904,13.1770126 C18.7695904,14.5335256 17.7124898,16.2881136 17.7124898,16.2881136 L17.7124898,16.2881136 L10.5116378,28 L9.1325864,25.9107494 C8.58638907,25.0606196 9.060707,24.1470338 9.060707,24.1470338 L9.060707,24.1470338 L15.3839417,13.5839536 C16.8439112,11.0516011 14.765865,8.29324264 14.765865,8.29324264 L14.765865,8.29324264 L10.9506616,2.31525648 L14.1120638,2.31525648 C15.7153617,2.31525648 16.4410423,3.63560897 16.4410423,3.63560897 L16.4410423,3.63560897 L18.4381704,6.75575065 C19.1634206,7.89525496 20.1129173,7.93145937 20.1129173,7.93145937 L21.9309925,7.93145937 C20.8024429,7.45215303 20.2919701,6.27644432 20.2919701,6.27644432 L20.2919701,6.27644432 L18.0439097,2.78552258 C17.1662925,1.4651701 16.1453468,1.65497159 16.1453468,1.65497159 L7.09930338,1.65497159 L11.3896855,8.41089609 C12.4015924,9.94821423 11.3896855,11.2325796 11.3896855,11.2325796 L11.3896855,11.2325796 L5.67548877,20.583964 L4.47505983,18.7476662 C3.50225922,17.1773288 4.30528506,16.2152183 4.4249663,16.0857858 L4.43933534,16.0708003 L8.55023417,9.39658601 C9.46357595,8.00378125 8.81020516,7.16286549 8.81020516,7.16286549 L8.81020516,7.16286549 L4.1888335,-3.37507799e-14 Z M10.2611359,2.3604142 L14.4434838,8.91732313 C16.2258345,11.6395206 14.5868121,13.8370797 14.5868121,13.8370797 L14.5868121,13.8370797 L8.22785293,24.3282731 L6.62455504,21.90436 C6.15023711,21.0994313 6.62455504,20.257994 6.62455504,20.257994 L6.62455504,20.257994 L12.0430563,11.1962448 C12.8044614,9.8397314 12.2225396,8.55553986 12.2225396,8.55553986 L12.2225396,8.55553986 L8.33545681,2.3604142 L10.2611359,2.3604142 Z" id="Combined-Shape" fill="#FCB130" transform="translate(14.000000, 14.000000) scale(1, -1) translate(-14.000000, -14.000000) "></path>
    </g>
</svg>