<?xml version="1.0" encoding="UTF-8"?>
<svg width="28px" height="28px" viewBox="0 0 28 28" version="1.1" xmlns="http://www.w3.org/2000/svg" xmlns:xlink="http://www.w3.org/1999/xlink">
    <title>ST</title>
    <defs>
        <radialGradient cx="49.9931075%" cy="49.9923613%" fx="49.9931075%" fy="49.9923613%" r="50.0459579%" gradientTransform="translate(0.499931,0.499924),scale(1.000000,0.989686),translate(-0.499931,-0.499924)" id="radialGradient-1">
            <stop stop-color="#2E8F6F" offset="30%"></stop>
            <stop stop-color="#168B69" offset="45.72%"></stop>
            <stop stop-color="#00835E" offset="68.83%"></stop>
            <stop stop-color="#007952" offset="90%"></stop>
        </radialGradient>
        <linearGradient x1="10.4432377%" y1="27.8397643%" x2="94.3933164%" y2="59.9946064%" id="linearGradient-2">
            <stop stop-color="#55AE58" offset="0%"></stop>
            <stop stop-color="#51AD58" offset="41.47%"></stop>
            <stop stop-color="#45A758" offset="59.06%"></stop>
            <stop stop-color="#2E9E58" offset="72.12%"></stop>
            <stop stop-color="#249B58" offset="75%"></stop>
            <stop stop-color="#139957" offset="81.89%"></stop>
            <stop stop-color="#039056" offset="89.03%"></stop>
            <stop stop-color="#008253" offset="96.26%"></stop>
            <stop stop-color="#007952" offset="100%"></stop>
        </linearGradient>
        <linearGradient x1="43.0460332%" y1="45.0408191%" x2="54.5979429%" y2="53.691742%" id="linearGradient-3">
            <stop stop-color="#C7E0BF" offset="0%"></stop>
            <stop stop-color="#AFD4A6" offset="10.83%"></stop>
            <stop stop-color="#98C98F" offset="22.9%"></stop>
            <stop stop-color="#87C17E" offset="36.23%"></stop>
            <stop stop-color="#78BA72" offset="51.31%"></stop>
            <stop stop-color="#6EB76A" offset="69.59%"></stop>
            <stop stop-color="#6CB669" offset="100%"></stop>
        </linearGradient>
        <linearGradient x1="49.9926307%" y1="-0.170082867%" x2="49.9926307%" y2="99.3732951%" id="linearGradient-4">
            <stop stop-color="#FFFFFF" offset="0%"></stop>
            <stop stop-color="#CFDCD2" offset="26.34%"></stop>
            <stop stop-color="#85B09B" offset="61.94%"></stop>
            <stop stop-color="#4E9779" offset="87.39%"></stop>
            <stop stop-color="#2E8F6F" offset="100%"></stop>
        </linearGradient>
    </defs>
    <g id="ST" stroke="none" stroke-width="1" fill="none" fill-rule="evenodd">
        <path d="M13.654321,-2.48689958e-14 C6.33744856,-2.48689958e-14 0.345679012,5.80912863 0,13.1286307 C0.864197531,11.7925311 2.59259259,10.4564315 5.24279835,9.58506224 C7.14403292,8.94605809 10.0246914,8.53941909 12.962963,8.53941909 C18.9547325,8.53941909 24.7160494,10.2240664 27.3662551,13.1286307 C27.0205761,5.80912863 21.0288066,-2.48689958e-14 13.654321,-2.48689958e-14 Z M14.4032922,18.9377593 C11.4074074,18.9377593 8.87242798,19.4024896 6.4526749,19.4024896 C4.03292181,19.4024896 1.67078189,18.473029 0.403292181,17.3112033 C1.90123457,23.2946058 7.25925926,27.6514523 13.654321,27.6514523 C18.781893,27.6514523 23.9670782,24.340249 23.9670782,22.0746888 C23.9670782,20.0995851 20.1646091,18.9377593 14.4032922,18.9377593 Z" id="Shape" fill="url(#radialGradient-1)" fill-rule="nonzero"></path>
        <path d="M28,18.1244813 C28,15.9170124 27.1934156,14.1742739 25.0041152,12.8381743 C22.2962963,11.2116183 17.6872428,10.1078838 13.1358025,10.1078838 C10.5432099,10.1078838 7.72016461,10.4564315 5.58847737,11.153527 C2.9382716,12.0829876 0.806584362,13.8838174 0.806584362,15.1037344 C0.806584362,16.4979253 3.57201646,17.8340249 6.4526749,17.8340249 C8.2962963,17.8340249 10.4279835,17.4273859 13.9423868,17.4273859 C22.2386831,17.4273859 25.2921811,19.6929461 25.2921811,21.6680498 C25.2921811,24.2240664 21.7777778,26.4896266 18.436214,27.4190871 L18.436214,28 C24.7736626,26.373444 28,22.8298755 28,18.1244813 Z" id="Path" fill="url(#linearGradient-2)" fill-rule="nonzero"></path>
        <path d="M5.12757202,16.7883817 C7.77777778,14.6390041 12.962963,12.3153527 19.2427984,12.3153527 C20.6255144,12.3153527 21.8353909,12.5477178 23.4485597,12.8962656 C21.3744856,11.8506224 17.5720165,10.9792531 13.7695473,10.9792531 C10.5432099,10.9792531 7.60493827,11.4439834 5.58847737,12.2572614 C3.57201646,13.0124481 1.95884774,14.4647303 1.95884774,15.1618257 C1.90123457,15.9170124 4.09053498,16.7883817 5.12757202,16.7883817 Z" id="Path" fill="url(#linearGradient-3)" fill-rule="nonzero"></path>
        <path d="M13.654321,1.39419087 C8.58436214,1.39419087 4.49382716,4.29875519 4.49382716,7.90041494 C4.49382716,8.53941909 4.6090535,9.17842324 4.83950617,9.7593361 C4.95473251,9.70124481 5.06995885,9.64315353 5.24279835,9.64315353 C7.14403292,9.00414938 10.0246914,8.59751037 12.962963,8.59751037 C16.3045267,8.59751037 19.5884774,9.12033195 22.2962963,10.1078838 C22.6419753,9.41078838 22.8148148,8.71369295 22.8148148,7.95850622 C22.872428,4.29875519 18.7242798,1.39419087 13.654321,1.39419087 Z" id="Path" fill="url(#linearGradient-4)" fill-rule="nonzero"></path>
    </g>
</svg>