<?xml version="1.0" encoding="UTF-8"?>
<svg width="28px" height="28px" viewBox="0 0 28 28" version="1.1" xmlns="http://www.w3.org/2000/svg" xmlns:xlink="http://www.w3.org/1999/xlink">
    <title>SU</title>
    <defs>
        <linearGradient x1="25.5080172%" y1="40.1567264%" x2="69.4988445%" y2="57.8343814%" id="linearGradient-1">
            <stop stop-color="#C4161C" offset="0.56%"></stop>
            <stop stop-color="#C93627" offset="30%"></stop>
            <stop stop-color="#EBB39E" offset="50%"></stop>
            <stop stop-color="#C93627" offset="71.91%"></stop>
            <stop stop-color="#C4161C" offset="100%"></stop>
        </linearGradient>
        <linearGradient x1="18.8784259%" y1="35.7103144%" x2="92.4024132%" y2="69.4687398%" id="linearGradient-2">
            <stop stop-color="#FFFFFF" offset="0%"></stop>
            <stop stop-color="#FFFFFF" offset="34.27%"></stop>
            <stop stop-color="#FFFFFF" offset="55%"></stop>
            <stop stop-color="#C2CAE3" offset="91.01%"></stop>
        </linearGradient>
        <linearGradient x1="36.3661084%" y1="42.7327982%" x2="65.807255%" y2="58.4274294%" id="linearGradient-3">
            <stop stop-color="#00529B" offset="10.67%"></stop>
            <stop stop-color="#778EC1" offset="50%"></stop>
            <stop stop-color="#728ABF" offset="51.96%"></stop>
            <stop stop-color="#3C69AA" offset="72.83%"></stop>
            <stop stop-color="#00589F" offset="88.11%"></stop>
            <stop stop-color="#00529B" offset="96.07%"></stop>
        </linearGradient>
        <linearGradient x1="8.47806326%" y1="21.7666613%" x2="87.9929848%" y2="58.6645762%" id="linearGradient-4">
            <stop stop-color="#C4161C" offset="0.56%"></stop>
            <stop stop-color="#C93627" offset="49.44%"></stop>
            <stop stop-color="#EBB39E" offset="100%"></stop>
        </linearGradient>
        <linearGradient x1="18.3300379%" y1="37.364456%" x2="80.07817%" y2="62.0003672%" id="linearGradient-5">
            <stop stop-color="#C2CAE3" offset="7.3%"></stop>
            <stop stop-color="#00529B" offset="50%"></stop>
            <stop stop-color="#00559E" offset="54.5%"></stop>
            <stop stop-color="#1F5FA4" offset="61.55%"></stop>
            <stop stop-color="#486FAE" offset="70.25%"></stop>
            <stop stop-color="#738BBF" offset="80.28%"></stop>
            <stop stop-color="#ABB7D9" offset="91.29%"></stop>
            <stop stop-color="#C2CAE3" offset="94.94%"></stop>
        </linearGradient>
        <linearGradient x1="17.8887199%" y1="38.445124%" x2="78.7385252%" y2="60.3407671%" id="linearGradient-6">
            <stop stop-color="#EBB39E" offset="5.62%"></stop>
            <stop stop-color="#C93627" offset="32.78%"></stop>
            <stop stop-color="#C4161C" offset="51.69%"></stop>
            <stop stop-color="#C93627" offset="74.72%"></stop>
            <stop stop-color="#EBB39E" offset="96.07%"></stop>
        </linearGradient>
        <linearGradient x1="18.5814321%" y1="37.0516256%" x2="81.8992462%" y2="63.1469311%" id="linearGradient-7">
            <stop stop-color="#FFFFFF" offset="0%"></stop>
            <stop stop-color="#FFFFFF" offset="30%"></stop>
            <stop stop-color="#D4D9EC" offset="50.56%"></stop>
            <stop stop-color="#FFFFFF" offset="70%"></stop>
            <stop stop-color="#FFFFFF" offset="100%"></stop>
        </linearGradient>
    </defs>
    <g id="SU" stroke="none" stroke-width="1" fill="none" fill-rule="evenodd">
        <path d="M1.09928596,21.8586258 C6.43556613,17.9284059 9.30431826,16.3679681 15.6429786,16.3107452 L14.2774566,18.1668917 C14.0204012,18.7175337 13.6215573,18.6925201 13.2016321,18.6671638 C8.67018021,18.6308427 5.5049303,18.9714389 5.95079541e-14,23 L1.09928596,21.8586258 L1.09928596,21.8586258 Z" id="path66" fill="url(#linearGradient-1)"></path>
        <path d="M1.09588575,21.852458 C6.46582795,16.8593312 10.9489969,14.6101627 14.8911935,14.1712253 C15.2400544,13.7059037 16.4440666,12.1471792 16.8089085,11.6280612 C7.82284937,13.1066051 3.85039102,19.2352811 1.09588575,21.852458 L1.09588575,21.852458 Z" id="path77" fill="url(#linearGradient-2)"></path>
        <path d="M1.3716423,21.5666862 C1.26521591,21.6694818 0.894593676,22.072098 0.78816729,22.1680406 C3.93947637,19.826356 6.57871472,17.3887288 13.1516491,16.4875537 C13.4790887,16.1137202 14.4352261,14.8465926 14.8857531,14.1708826 C8.89357361,14.9918771 4.97449847,18.3632314 1.3716423,21.5666862 L1.3716423,21.5666862 Z" id="path92" fill="url(#linearGradient-3)"></path>
        <path d="M14.1584495,18.3810493 C14.216253,18.176486 14.3577015,18.0243485 13.6916015,17.6285852 C12.9078545,17.1632637 12.6368582,17.358918 12.8102686,16.8857154 C12.9391363,16.526616 14.6225774,15.8118437 15.8510711,16.2312499 C15.8514111,16.2315925 14.7613057,17.5042025 14.1584495,18.3810493 Z" id="path101" fill="url(#linearGradient-4)"></path>
        <path d="M18.8789527,11.0434967 C17.649779,11.2093403 16.8745325,11.5180699 16.3821829,12.14341 L14.6657599,14.460081 C15.0401224,14.1229113 16.1713703,13.9570677 17.3968038,13.9252011 L17.5685141,13.9286276 C17.6195172,13.9252011 17.6725604,13.9286276 17.7245835,13.9252011 C17.8973138,13.9207466 18.0809249,13.9125229 18.2720163,13.9077258 C20.0102006,13.8391954 22.4236654,13.5921432 23.83271,11.9374761 L25.9438966,8.9954649 L26.1965318,8.64527442 C24.3628018,11.0791325 20.1788507,10.8687441 18.8789527,11.0434967 L18.8789527,11.0434967 Z" id="path120" fill="url(#linearGradient-5)"></path>
        <path d="M19.8983339,13.6178421 C18.5797348,13.8039022 17.0717443,13.8590692 16.6392384,13.8809989 C15.900374,13.9138935 14.9183951,14.1516941 14.6467188,14.4833814 C13.8184291,15.5205894 13.0255015,16.4878963 12.8106086,16.8860581 C13.316559,16.4149114 14.9812989,16.4663092 17.0013601,16.3724226 C19.0193812,16.2795638 21.0639238,15.4003185 22.6763006,13.5479411 L23.9013941,11.8418761 C23.0812649,12.9020418 21.6365182,13.3731885 19.8983339,13.6178421 Z" id="path133" fill="url(#linearGradient-6)"></path>
        <path d="M22.0299218,8.36018785 C21.4930296,8.43317276 20.2822169,8.41364159 19.2754165,9.06193941 C18.266576,9.71023724 17.0520231,11.2484026 16.4549473,12.0580896 C17.0098606,11.459819 17.7466848,11.2895209 18.8279497,11.1661661 C19.9088745,11.0404128 21.4705882,11.0619999 22.5807548,10.9108903 C23.6470588,10.7680044 24.6388983,10.5521335 26.0156409,8.64561708 L27.883373,6.10485155 C25.9472968,8.03740955 23.83305,8.11759015 22.0299218,8.36018785 L22.0299218,8.36018785 Z" id="path146" fill="url(#linearGradient-7)"></path>
    </g>
</svg>