<?xml version="1.0" encoding="UTF-8"?>
<svg width="28px" height="28px" viewBox="0 0 28 28" version="1.1" xmlns="http://www.w3.org/2000/svg" xmlns:xlink="http://www.w3.org/1999/xlink">
    <title>SV</title>
    <g id="SV" stroke="none" stroke-width="1" fill="none" fill-rule="evenodd">
        <path d="M16.5119082,16.6391171 L16.5119082,16.558454 L15.4329519,15.992874 L15.7630941,13.654581 L15.5473029,13.654581 L15.8119699,11.31535 L15.5583691,11.31535 L15.8792894,8.97611898 L15.5749684,8.97611898 L15.8387133,6.67721954 C16.7286216,7.85433859 17.2911544,10.2357771 17.4672917,12.0685186 C18.2179502,10.6559757 17.9597384,7.45477467 17.1786478,6.1303985 C18.5600807,6.90420186 20.0650864,9.02770587 20.9291736,11.199045 C21.4022544,9.15620412 19.8751163,6.24201377 18.2483823,4.99361102 C19.8373067,5.28906321 21.9113005,6.55903866 23.9032197,8.97611898 C23.2466241,5.73458635 20.1397834,3.78178806 18.2889584,3.37753442 C20.3260647,3.16837303 22.3115287,3.83994055 24.1116335,4.73755245 C22.1556794,2.42177003 19.2065323,1.58043474 17.2561114,1.80929295 C17.5853314,1.45193649 17.9053295,1.26153396 18.4023871,1.11052506 C17.5779539,0.714712922 16.296117,0.921998428 15.797215,1.49695777 L15.7734687,1.32254425 C15.7195209,1.00066844 15.5556025,0.317259378 15.1074207,1.27897692e-13 C14.5061562,0.423012503 14.4185486,1.49695777 14.4185486,1.49695777 C13.9159579,0.921998428 12.6359653,0.714712922 11.8133764,1.11052506 C12.3095119,1.26153396 12.6258213,1.45193649 12.95873,1.80929295 C11.0064647,1.58043474 8.05547322,2.42177003 6.10136354,4.73755245 C7.90423491,3.83994055 9.8878545,3.16837303 11.9231164,3.37753442 C10.0741358,3.78178806 6.96729511,5.73458635 6.30701076,8.97611898 C8.30077439,6.55903866 10.3766125,5.28906321 11.9655369,4.99361102 C10.3397251,6.24201377 8.81074261,9.15620412 9.2856678,11.199045 C10.1460663,9.02770587 11.6529163,6.90420186 13.0343492,6.1303985 C12.2523364,7.45477467 11.995969,10.6559757 12.7447831,12.0685186 C12.9199983,10.2357771 13.4843754,7.85433859 14.3733616,6.67721954 L14.6371064,8.97611898 L14.3337076,8.97611898 L14.6527836,11.31535 L14.4001049,11.31535 L14.664772,13.654581 L14.4471364,13.654581 L14.7818894,15.992874 L13.7047776,16.558454 L13.7047776,16.6391171 L16.5119082,16.6391171 Z M25.9744469,21.3163598 C26.0918717,21.1118881 26.2019191,20.9032478 26.3054088,20.6926621 L26.4834929,20.3127603 L26.4687379,20.2602354 L26.4244731,20.2789943 L26.38943,20.3390227 C24.14391,24.348731 19.9369027,27.0481323 15.1074207,27.0481323 C7.92452297,27.0481323 2.10184789,21.0715565 2.10184789,13.697445 C2.10184789,11.4225459 2.65732864,9.27975075 3.63681996,7.4051223 L3.85492127,7.00428043 L3.84016632,6.95456942 L3.7922127,6.97239035 L3.75901405,7.01928752 C3.56535523,7.30723617 3.38368482,7.6101919 3.21031407,7.91596147 C-0.360385633,14.3146118 1.84086958,22.4991065 8.12832582,26.1992935 C14.4130155,29.9004184 22.4065137,27.7131342 25.9744469,21.3163598 Z M17.2956731,23.2876356 L17.3951016,23.2245863 C17.6225417,23.0732065 17.9403105,22.8102952 18.5873184,22.1334945 L19.0538402,21.6416376 C19.6756068,20.9924212 19.9726527,20.7286131 20.283552,20.5253921 L20.2770967,20.6051173 C20.2817076,20.8011474 20.4394012,20.9587219 20.6238382,20.9549702 C20.8101195,20.9493425 20.9595135,20.7842645 20.9576691,20.5882343 C20.9502916,20.4381633 20.8608397,20.3171686 20.7335782,20.2618299 L20.6744076,20.2396643 C20.4870952,20.1828986 19.9728495,20.1587312 18.8237334,21.3010713 L16.1779851,19.4458191 L16.1779851,19.4458191 L16.7360083,19.1045361 C20.0245716,17.1178222 23.8646699,15.2564566 26.5,16.3309089 C23.8247871,13.3235238 18.0406064,16.7417629 16.1757425,17.9614939 L15.4066927,18.4820822 C15.3132062,18.5468003 15.2124576,18.6171461 15.1064063,18.6917126 L14.1370024,18.0269401 C12.3864155,16.8705679 6.43581277,13.2678315 3.7118904,16.3309089 C6.49965518,15.1950593 10.6319654,17.340136 14.0339053,19.4458191 L11.8986564,20.9470989 C11.7243487,21.0691742 11.5537814,21.1883305 11.3890792,21.3029472 C10.0832655,20.0029575 9.59727406,20.211181 9.48015658,20.2618299 C9.35197289,20.3171686 9.26159877,20.4381633 9.25606567,20.5882343 C9.2542213,20.7842645 9.40084869,20.9493425 9.58713002,20.9549702 C9.77525573,20.9587219 9.93387152,20.8011474 9.93663808,20.6051173 L9.92833841,20.5253921 L10.0731518,20.6246712 C10.3406928,20.8189069 10.632336,21.0923007 11.1597445,21.6416376 L11.7705683,22.2824698 C12.4135257,22.9446853 12.6960457,23.1538614 12.9171395,23.2876356 C13.0914324,23.3917473 13.2684919,23.4180097 13.3773097,23.4086303 C13.5543692,23.3992508 13.7314287,23.2679388 13.7397284,23.0615912 C13.7507946,22.8580575 13.6023228,22.6901656 13.4105084,22.6873517 C13.2223827,22.6836 13.0619225,22.8411745 13.0619225,23.0437703 L13.0619225,23.0784742 C12.8286097,22.9040167 12.5786976,22.5907436 12.0807178,22.0373569 C12.899618,21.5571299 13.9416868,20.8649276 15.1064063,20.1183246 L16.9166463,21.2852729 C17.3598162,21.5686168 17.7676268,21.8239227 18.1311726,22.0373569 L17.5425881,22.700014 C17.3885832,22.8693128 17.2670854,22.9912454 17.1490457,23.0784742 L17.1490457,23.0437703 C17.1499679,22.8411745 16.9895077,22.6836 16.7995377,22.6873517 C16.606801,22.6901656 16.4601736,22.8580575 16.472162,23.0615912 C16.4813839,23.2679388 16.6556768,23.3992508 16.8345807,23.4086303 C16.9424763,23.4180097 17.1186136,23.3917473 17.2956731,23.2876356 Z M11.445148,22.4087825 L10.7839415,21.7156423 L10.7839415,21.7156423 C9.50394895,22.5457223 8.48954563,23.0437703 7.86245993,22.7811461 L7.70545797,22.7059934 C7.65704326,22.683131 7.61485331,22.6653101 7.58580448,22.6610893 C7.5479949,22.6563996 7.51295188,22.6648411 7.48805289,22.6920415 C7.46499827,22.7220557 7.45762079,22.7811461 7.4815976,22.8299192 C7.49635255,22.8646231 7.53692869,22.931217 7.6457465,23.0287632 C8.10222799,23.4358306 9.02164628,23.8006906 11.445148,22.4087825 Z M22.5662361,23.0287632 C22.6547659,22.9507263 22.6978503,22.8924987 22.7190975,22.8545608 L22.7313072,22.8299192 C22.7580506,22.7811461 22.7497509,22.7220557 22.7239297,22.6920415 C22.7008751,22.6648411 22.6667543,22.6563996 22.6280225,22.6610893 C22.570847,22.6695308 22.4592627,22.732373 22.3504449,22.7811461 C21.722437,23.0437703 20.7080337,22.5457223 19.4280411,21.7156423 L18.768679,22.4087825 L18.768679,22.4087825 C21.1875698,23.8006906 22.1097546,23.4358306 22.5662361,23.0287632 Z" id="Shape" fill="#A39161" fill-rule="nonzero"></path>
    </g>
</svg>