<?xml version="1.0" encoding="UTF-8"?>
<svg width="28px" height="28px" viewBox="0 0 28 28" version="1.1" xmlns="http://www.w3.org/2000/svg" xmlns:xlink="http://www.w3.org/1999/xlink">
    <title>SX</title>
    <g id="SX" stroke="none" stroke-width="1" fill="none" fill-rule="evenodd">
        <path d="M23.4992237,21.0869052 C22.0785283,16.4073928 16.9779251,13.3634814 12.5197531,10.008389 C13.5665118,9.60807444 14.6727304,9.40568882 15.7773634,9.40568882 C18.1605166,9.40568882 20.5383845,10.3332023 22.3158394,12.1795779 L22.796804,11.7252589 C20.8895944,9.7436099 18.3338753,8.74583826 15.7773634,8.74583826 C14.4618459,8.74583826 13.1481783,9.01953073 11.9177546,9.55013765 C8.50264157,6.91519202 5.59465554,4.03775068 5.23102516,0 C2.9266233,4.42181148 5.59306994,7.81806263 9.54015094,11.0140255 C9.38476236,11.144842 9.22620263,11.2706777 9.07715641,11.4127671 C8.8163256,11.6586709 8.57531477,11.9161096 8.34883859,12.1824617 C6.27381984,10.4716215 4.58145868,8.5366366 3.74399887,6.10119285 C2.85791409,9.34853848 4.47522362,11.8345786 7.13876332,14.0028838 C6.93897804,14.3919256 6.76958335,14.7914537 6.62661527,15.1993709 C5.66495031,14.3887797 4.78362234,13.4528772 4.02174266,12.3329401 C4.13801985,14.2658278 4.94693889,15.7740202 6.18344072,17.006685 C6.11763844,17.4607419 6.07324168,17.9174204 6.07324168,18.3740989 C6.07324168,20.7623542 6.9654046,23.1595229 8.76109389,25.0234631 C10.6664537,27.0011797 13.2221728,28 15.7813273,28 L15.7858198,28 C18.1924927,28 20.605508,27.1160047 22.4820628,25.3370036 L22.4704351,25.3254686 C22.6977041,25.4680823 22.9215376,25.6227553 23.1387645,25.8057413 C23.6850028,26.264517 23.9722603,27.0384061 24.5,27.5433216 C23.6398134,25.4114563 24.1223636,23.1401232 23.4992237,21.0869052 M15.7813274,27.3404116 C13.3955315,27.3404116 11.0184564,26.4113252 9.24337995,24.5678333 C7.56898887,22.830253 6.73839998,20.5998165 6.73839998,18.3740989 C6.73839998,18.1009307 6.75399169,17.8277625 6.77962553,17.5535457 C10.4558336,20.6632587 16.9911384,21.9321012 21.3946072,24.2443309 C15.1669084,21.8314328 12.6304807,23.3026609 7.06926139,18.7731027 C11.0723668,26.4406869 17.3394413,22.7925023 21.8724006,24.9893827 C20.1425136,26.5565605 17.9639025,27.3404116 15.7813274,27.3404116 M7.17232518,15.6392712 C7.30577963,15.222965 7.47675992,14.8171451 7.67363828,14.4212872 C12.1910059,17.8618429 19.1940619,20.547385 22.5415228,24.3387075 C18.1573454,20.2406606 11.8297539,19.2344999 7.17232518,15.6392712 M8.86257224,12.6000786 C9.07160688,12.3541749 9.29570467,12.1158736 9.53460135,11.8893695 C9.70637442,11.7268318 9.88660401,11.5792371 10.0670979,11.432691 C13.5813107,14.1890156 17.9364188,16.8200288 20.7397554,19.8626294 C21.8895779,21.1078778 22.8131885,22.7232927 23.4947312,24.7041552 C20.8420264,19.3881242 13.8968446,16.555774 8.86257224,12.6000786" id="Shape" fill="#C8D409"></path>
    </g>
</svg>