<?xml version="1.0" encoding="UTF-8"?>
<svg width="28px" height="28px" viewBox="0 0 28 28" version="1.1" xmlns="http://www.w3.org/2000/svg" xmlns:xlink="http://www.w3.org/1999/xlink">
    <title>SY</title>
    <g id="SY" stroke="none" stroke-width="1" fill="none" fill-rule="evenodd">
        <path d="M13.2913687,7.10542736e-15 C13.3541956,7.10542736e-15 13.3721461,0.81652363 13.3900967,3.78322615 C13.4080472,7.5120174 13.4080472,7.5664523 13.5247258,7.59366976 C13.5965279,7.60274224 13.8837367,7.59366976 14.7004865,7.53016237 L14.6556102,7.14004552 C14.6286843,6.93137837 14.583808,6.53218904 14.5479069,6.2600145 C14.5120058,5.98783995 14.4402036,5.52514323 14.3953272,5.23482372 C14.3414756,4.9445042 14.2517229,4.39108263 14.1978712,4.01911076 C14.1529949,3.6380664 14.0811927,3.13000725 14.0452916,2.88505016 C14.0183658,2.63102059 13.9734894,2.40420847 13.9555389,2.36791853 C13.9375883,2.33162859 13.9375883,2.25904871 13.9555389,2.21368629 C13.9824647,2.14110641 14.090168,2.11388895 14.4312283,2.12296144 C14.682536,2.12296144 15.176176,2.15925138 15.5262116,2.2046138 C15.8852226,2.25904871 16.3878379,2.35884604 16.6391455,2.43142592 C16.8904532,2.5040058 17.213563,2.57658568 17.3571674,2.59473065 C17.509747,2.60380313 17.6264255,2.64916555 17.6264255,2.67638301 C17.6264255,2.71267295 17.6713019,2.7398904 17.7341288,2.7398904 C17.7879805,2.7398904 17.8687579,2.76710786 17.904659,2.79432531 C17.9315848,2.82154277 18.0572386,2.88505016 18.1739172,2.93041258 C18.299571,2.97577501 18.6855078,3.14815222 19.0355434,3.32052943 C19.3945543,3.49290664 19.6997136,3.65621137 19.7176642,3.67435633 C19.7356147,3.6925013 19.8163922,3.74693621 19.9061449,3.79229864 C20.0228234,3.85580603 20.139502,3.86487852 20.4536366,3.81044361 C20.6780184,3.77415367 21.0639551,3.71064627 21.3152628,3.68342882 C21.5755457,3.64713888 22.0512352,3.58363149 22.374345,3.53826906 C22.7064301,3.49290664 22.9936388,3.47476167 23.0115894,3.50197912 C23.0295399,3.52919658 23.0115894,3.61084894 22.966713,3.6925013 C22.9218366,3.76508118 22.8590097,3.86487852 22.8141334,3.91024094 C22.7782323,3.95560336 22.7154054,3.98282082 22.6795043,3.98282082 C22.6436032,3.98282082 22.6077021,4.01911076 22.6077021,4.04632821 C22.6077021,4.08261815 22.3653697,4.36386518 22.0691857,4.66325718 C21.7730017,4.97172166 21.3780897,5.39812844 21.1806337,5.61586808 C20.9831777,5.83360771 20.8216227,6.01505741 20.8216227,6.02412989 C20.8216227,6.03320238 20.534414,6.34166686 20.1754031,6.71363874 C19.8163922,7.08561061 19.3945543,7.53923485 19.2329994,7.72975703 C19.0804198,7.91120673 18.891939,8.11987388 18.8291121,8.17430878 C18.7124336,8.27410612 18.7034583,8.346686 18.7214089,9.04526732 C18.7393594,9.48981908 18.7752605,9.84364598 18.8201369,9.88900841 C18.8739885,9.9525158 18.9098896,9.93437083 18.990667,9.79828356 C19.053494,9.70755871 19.1342714,9.57147144 19.1791478,9.50796405 C19.2240241,9.44445665 19.3137769,9.31744187 19.3945543,9.22671702 C19.4663565,9.13599217 19.74459,8.77309278 20.0048729,8.41019339 C20.2651558,8.047294 20.4985129,7.73882951 20.5164635,7.72975703 C20.534414,7.71161206 20.6241667,7.59366976 20.7049442,7.47572746 C20.7946969,7.35778515 20.9113755,7.2126254 20.9562518,7.16726297 C21.0011282,7.11282807 21.1626831,6.88601595 21.3152628,6.66827631 C21.4678424,6.44146419 21.6563231,6.18743462 21.7281253,6.10578226 C21.8089028,6.02412989 21.9166061,5.88804262 21.979433,5.80639026 C22.0512352,5.71566541 22.1230373,5.67937547 22.176889,5.69752044 C22.2307406,5.72473789 22.4102461,5.90618759 22.5807763,6.11485474 C22.7513065,6.3144494 22.9128614,6.51404407 22.9487625,6.55940649 C22.9846636,6.60476892 23.0833916,6.74085619 23.164169,6.86787098 C23.2539217,6.99488576 23.3436745,7.10375558 23.3706003,7.10375558 C23.3885508,7.10375558 23.4154767,7.13097303 23.4154767,7.16726297 C23.4154767,7.19448043 23.5231799,7.40314758 23.657809,7.61181473 C23.8014134,7.82955436 23.9450178,8.08358394 23.9809189,8.17430878 C24.0257952,8.27410612 24.0796469,8.346686 24.1065727,8.346686 C24.1334985,8.346686 24.1514491,8.4011209 24.1514491,8.47370078 C24.1514491,8.53720818 24.1783749,8.60071557 24.214276,8.60071557 C24.2501771,8.60071557 24.2771029,8.64607799 24.2771029,8.70958539 C24.2771029,8.76402029 24.3309545,8.90918005 24.3937814,9.03619484 C24.4566083,9.15413714 24.5643116,9.40816671 24.6361138,9.59868889 C24.707916,9.78013859 24.7707429,9.97066077 24.7707429,10.0160232 C24.7707429,10.0613856 24.7976687,10.0886031 24.8335698,10.0886031 C24.8604956,10.0886031 24.8874214,10.1521105 24.8963967,10.2337628 C24.8963967,10.3063427 24.9592236,10.5603723 25.0310258,10.7871844 C25.1297538,11.0865764 25.2374571,11.2589536 25.4169626,11.4222583 C25.5515916,11.5492731 25.6772455,11.6490705 25.695196,11.6490705 C25.7131466,11.6490705 25.8118746,11.7307228 25.9195778,11.8214477 C26.0272811,11.9121725 26.3144899,12.1480571 26.5568222,12.3385793 C26.7991546,12.520029 27.0684128,12.7377686 27.1581655,12.819421 C27.2479183,12.8920009 27.3556215,12.9555083 27.4004979,12.9555083 C27.4453743,12.9555083 27.4902506,13.0099432 27.4992259,13.0643781 C27.5171764,13.1732479 27.2568935,13.1823204 23.0833916,13.2276828 C20.633142,13.2549003 18.4521507,13.2821177 18.2277688,13.2730452 C17.9944117,13.2730452 17.7969557,13.3002627 17.7790052,13.3365526 C17.7610546,13.3637701 17.8238816,13.4454224 17.9136343,13.4998573 C18.003387,13.5633647 18.2367441,13.7538869 18.4162496,13.9262641 C18.595755,14.0986413 18.8201369,14.3435984 19.0714445,14.7246428 L19.4753318,14.6792804 C19.6907383,14.6611354 20.0497493,14.615773 20.2741311,14.579483 C20.4895376,14.5522656 20.9113755,14.4887582 21.1985842,14.4524683 C21.485793,14.4161783 21.9166061,14.3617434 22.1499632,14.3254535 C22.3833203,14.298236 22.7872075,14.2528736 23.0385152,14.2256561 C23.2808476,14.1984387 23.4962541,14.1530763 23.5142047,14.1258588 C23.5231799,14.0986413 23.756537,14.0804964 24.0257952,14.0804964 C24.3040287,14.0804964 24.5194352,14.0623514 24.5194352,14.035134 C24.5194352,14.0079165 24.7438171,13.980699 25.5067153,13.9534816 L25.5067153,14.1712212 C25.5067153,14.2891635 25.4797895,14.579483 25.4528636,14.8153676 C25.4169626,15.0421798 25.3631109,15.513949 25.3182345,15.8587034 C25.2823335,16.1943853 25.201556,16.6298646 25.1566796,16.8203868 C25.102828,17.010909 25.0400011,17.2649385 25.0130753,17.3828808 C24.9861494,17.5008231 24.9412731,17.6822728 24.905372,17.7911426 C24.8694709,17.89094 24.7707429,18.172187 24.6809902,18.4080716 C24.5822622,18.6530287 24.4027567,19.088508 24.01682,19.9050316 L24.1424738,20.8122801 C24.2053007,21.3021943 24.2950534,21.9463407 24.3309545,22.2457327 C24.3668556,22.5360522 24.3937814,22.9080241 24.3937814,23.0622563 C24.4027567,23.3344308 24.3848061,23.3616483 24.2771029,23.3344308 C24.2053007,23.3162859 24.1514491,23.261851 24.1514491,23.225561 C24.1514491,23.1801986 24.0616963,23.0622563 23.953993,22.9533865 C23.8462898,22.8445167 22.8769603,21.8556158 21.8089028,20.7578452 C20.7408453,19.651002 19.8522933,18.7074636 19.8253674,18.6530287 C19.7984416,18.6076663 19.74459,18.5623039 19.6997136,18.5713763 C19.6638125,18.5713763 19.5920103,18.4987965 19.547134,18.4080716 C19.5022576,18.3264192 19.4304554,18.2356944 19.3766038,18.2266219 C19.3317274,18.2084769 19.2419747,18.2266219 19.1881231,18.2719843 C19.1342714,18.3082743 19.0983703,18.3989991 19.0983703,18.453434 C19.0983703,18.5169414 19.0804198,18.5623039 19.053494,18.5623039 C19.0265681,18.5623039 18.9637412,18.6621012 18.9009143,18.7800435 C18.8380874,18.9070583 18.7483347,19.0159281 18.7034583,19.0340731 C18.6496067,19.052218 18.6137056,19.1157254 18.6137056,19.1701603 C18.6137056,19.2336677 18.6855078,19.3425375 18.7662852,19.4241899 C18.8470627,19.4967698 18.9368154,19.5602772 18.9637412,19.5602772 C18.990667,19.5602772 19.1163209,19.6600745 19.25095,19.7870893 C19.3945543,19.9141041 19.6009856,20.0864813 19.7176642,20.1772061 C19.8343427,20.267931 19.9510213,20.3677283 19.9689718,20.4040183 C19.9958976,20.4403082 20.1305267,20.549178 20.2831064,20.6489754 C20.4267107,20.7578452 20.5882656,20.8757875 20.6421173,20.9302224 C20.6959689,20.9755848 20.830598,21.0844546 20.9472766,21.1751795 C21.0639551,21.2659043 21.2075595,21.3838466 21.2614111,21.447354 C21.3062875,21.5017889 21.3780897,21.5471513 21.4139908,21.5471513 C21.4409166,21.5471513 21.6473479,21.7104561 21.8627544,21.9100507 C22.1499632,22.1731528 22.2397159,22.3001676 22.2038148,22.363675 C22.176889,22.4181099 22.1050868,22.4906898 22.0422599,22.5360522 C21.9884082,22.5814146 21.9345566,22.644922 21.9345566,22.6812119 C21.9345566,22.7084294 21.8896802,22.7900818 21.8268533,22.8445167 C21.7730017,22.9080241 21.7101748,22.9533865 21.6922242,22.944314 C21.6742737,22.9352415 21.5486199,23.0350388 21.4050155,23.1620536 C21.2703864,23.2890684 21.0370293,23.4886631 20.8844497,23.6066054 C20.73187,23.7245477 20.6062162,23.8515625 20.5972409,23.8787799 C20.5882656,23.8969249 20.5433893,23.9241424 20.4985129,23.9241424 C20.4626118,23.9241424 20.3728591,23.9695048 20.3010569,24.0330122 C20.23823,24.0874471 20.1036009,24.1872444 20.0048729,24.2326068 C19.9151202,24.2870417 19.8343427,24.3505491 19.8343427,24.3777666 C19.843318,24.4049841 19.8163922,24.423129 19.7804911,24.423129 C19.74459,24.423129 19.6009856,24.4957089 19.4573812,24.5955062 C19.3137769,24.6862311 19.0445187,24.8404633 18.856038,24.9311882 C18.6675572,25.021913 18.4162496,25.1398553 18.299571,25.1942902 C18.1828925,25.2487251 17.904659,25.3485225 17.6802772,25.4211023 C17.4648706,25.4846097 17.2225383,25.5481171 17.1507361,25.5571896 C17.0699586,25.5662621 16.9712306,25.638842 16.9353295,25.7204943 C16.8904532,25.8021467 16.7468488,25.9835964 16.621195,26.1287562 C16.4955411,26.2648434 16.3878379,26.4190757 16.3878379,26.4644381 C16.3878379,26.500728 16.3698873,26.537018 16.3429615,26.537018 C16.3160357,26.537018 16.2532088,26.6186703 16.1993571,26.7093952 C16.1455055,26.8091925 15.9929258,26.9906422 15.8762473,27.135802 C15.7505935,27.2718892 15.6518655,27.417049 15.6518655,27.4624114 C15.6518655,27.4987014 15.6339149,27.5349913 15.6069891,27.5349913 C15.5800633,27.5349913 15.5172364,27.6075712 15.4633847,27.7073685 C15.4185084,27.7980934 15.3377309,27.9069632 15.2838793,27.9523256 C15.2300276,27.9886155 15.1582255,28.0067605 15.1133491,27.997688 C15.0505222,27.9795431 15.0325716,27.2355993 15.0325716,24.5773613 C15.0325716,21.9100507 15.0235964,21.1751795 14.9607694,21.1570345 C14.9158931,21.147962 14.6645854,21.166107 14.386352,21.184252 C14.1170938,21.2114694 13.8478356,21.2386869 13.7850087,21.2386869 C13.7042312,21.2477593 13.6862807,21.2749768 13.7221818,21.3838466 C13.7401323,21.465499 13.7760334,21.7104561 13.8119345,21.9281957 C13.8388603,22.1550078 13.892712,22.5451247 13.928613,22.7991542 C13.9645141,23.0622563 14.0093905,23.3979382 14.027341,23.5521705 C14.0452916,23.7064027 14.0991432,24.0965196 14.1529949,24.423129 C14.2068465,24.7497385 14.2606981,25.2487251 14.3235251,26.0471038 L14.0183658,26.0380313 C13.8478356,26.0380313 13.4170225,26.0017414 13.0669868,25.9745239 C12.7079759,25.9473065 12.2412617,25.8837991 12.0168799,25.8475091 C11.8014733,25.8112192 11.4245119,25.7295668 11.1911548,25.6569869 C10.9488224,25.5844071 10.509034,25.4483198 10.2038747,25.3485225 C9.89871545,25.2396527 9.46790234,25.0763479 9.24352051,24.9674781 C9.02811396,24.8586083 8.7139794,24.6862311 8.55242449,24.5955062 C8.34599321,24.4684914 8.17546302,24.423129 7.96903174,24.423129 C7.80747683,24.423129 7.52026809,24.4503465 7.34076263,24.4866364 C7.15228189,24.5138539 6.74839461,24.5773613 6.44323532,24.6136512 C6.13807604,24.6499411 5.76111457,24.704376 5.60853493,24.7315935 C5.45595529,24.758811 5.30337565,24.7678834 5.25849928,24.758811 C5.21362291,24.740666 5.17772182,24.704376 5.17772182,24.6680861 C5.17772182,24.6408687 5.54570802,24.2326068 5.99447167,23.7699101 C6.44323532,23.3162859 7.35871317,22.3818199 8.03185865,21.7013836 C8.69602886,21.0209472 9.24352051,20.4312357 9.24352051,20.3858733 C9.24352051,20.3405109 9.16274306,20.3132934 9.01913869,20.3132934 C8.88450959,20.3132934 8.7498805,20.2770035 8.70500413,20.2316411 C8.66012777,20.1862786 8.63320195,19.9957564 8.63320195,19.7326544 C8.63320195,19.4967698 8.60627613,19.3153201 8.57037504,19.3153201 C8.53447394,19.3153201 8.44472121,19.4151174 8.37291903,19.5512047 C8.29214157,19.6782195 8.13058666,19.9231766 8.00493283,20.0955538 C7.87030374,20.2588585 7.77157573,20.4403082 7.77157573,20.4856706 C7.77157573,20.5219606 7.74464991,20.567323 7.7177241,20.5763955 C7.69079828,20.585468 7.57411973,20.7124827 7.45744118,20.866715 C7.34076263,21.0209472 7.23305935,21.166107 7.2151088,21.184252 C7.18818299,21.2023969 7.05355389,21.3929191 6.90097425,21.6197312 C6.74839461,21.8374709 6.58683969,22.064283 6.54196333,22.1187179 C6.49708696,22.1640803 6.4163095,22.2910951 6.36245787,22.3818199 C6.30860623,22.4725448 6.23680404,22.5541972 6.20987822,22.5541972 C6.19192768,22.5541972 6.1829524,22.5814146 6.20090295,22.6177045 C6.2188535,22.6539945 6.16500186,22.6721395 6.07524913,22.663067 C5.99447167,22.6539945 5.93164476,22.6358495 5.94062003,22.626777 C5.9495953,22.6177045 5.8508673,22.5088347 5.73418875,22.3818199 C5.6175102,22.2457327 5.42005419,22.027993 5.30337565,21.8919058 C5.1866971,21.7558185 5.01616691,21.5471513 4.93538945,21.429209 C4.85461199,21.3112667 4.74690872,21.1751795 4.70203235,21.1388895 C4.66613126,21.0935271 4.63023017,21.0300197 4.63023017,20.9937298 C4.63023017,20.9574398 4.59432907,20.8939324 4.54945271,20.8576425 C4.50457634,20.8122801 4.38789779,20.6399029 4.28019452,20.4675257 C4.18146651,20.2951484 4.02888687,20.0229739 3.94810941,19.8596692 C3.86733196,19.6963645 3.77757923,19.5602772 3.75065341,19.5602772 C3.72372759,19.5602772 3.70577704,19.5149148 3.70577704,19.4514074 C3.70577704,19.3969725 3.67885122,19.3153201 3.6519254,19.2790302 C3.62499958,19.2518127 3.50832104,18.9977831 3.40959303,18.7256086 C3.30188976,18.4443616 3.21213702,18.190332 3.21213702,18.1449696 C3.21213702,18.0996071 3.18521121,18.0633172 3.14931011,18.0633172 C3.11340902,18.0633172 3.0864832,17.9998098 3.0864832,17.9272299 C3.0864832,17.8455776 3.05058211,17.6913453 3.01468102,17.5643305 C2.97877993,17.4463882 2.92492829,17.3012285 2.89800247,17.2377211 C2.86210138,17.1832862 2.84415083,17.0471989 2.84415083,16.9474016 C2.84415083,16.8385317 2.81722501,16.7568794 2.79029919,16.7568794 C2.77234865,16.7568794 2.66464537,16.6842995 2.55694209,16.5845022 C2.44923882,16.4937773 2.1889559,16.2941827 1.98252462,16.1399504 C1.76711806,15.9857182 1.51581042,15.777051 1.41708241,15.6863262 C1.31835441,15.5865288 1.21962641,15.513949 1.19270059,15.513949 C1.16577477,15.513949 0.995244581,15.3778617 0.806763847,15.2054845 C0.618283113,15.0421798 0.483654017,14.8879475 0.501604563,14.8698025 C0.51955511,14.8516576 1.03114567,14.8244401 1.64146424,14.7972227 C2.25178281,14.7790777 4.23531815,14.7518602 6.03934804,14.7337153 C7.85235319,14.7155703 9.34224852,14.6883529 9.35122379,14.6702079 C9.36019906,14.6520629 9.35122379,14.6067005 9.32429797,14.5522656 C9.29737215,14.5069032 9.19864415,14.3708159 9.09094087,14.2438011 C8.99221287,14.1167863 8.8486085,13.9081192 8.77680632,13.7811044 C8.70500413,13.6540896 8.6152514,13.5542923 8.57935031,13.5633647 C8.53447394,13.5724372 8.50754812,13.5633647 8.5165234,13.5361473 C8.5165234,13.5089298 8.5165234,13.4544949 8.5165234,13.4091325 C8.50754812,13.3546976 8.40882012,13.3456251 8.12161138,13.3637701 C7.9151801,13.381915 7.53821863,13.4272775 7.28691099,13.4635674 C7.04457862,13.4907849 6.64069133,13.5452198 6.39835896,13.5815097 C6.15602659,13.6087272 5.72521348,13.6631621 5.45595529,13.699452 C5.1866971,13.735742 4.75588399,13.7901769 4.50457634,13.8264668 C4.2532687,13.8627567 3.82245559,13.9171916 3.5531974,13.9534816 C3.27496394,13.980699 2.94287883,14.0260615 2.80824974,14.0532789 C2.62874428,14.0804964 2.55694209,14.0714239 2.521041,14.0079165 C2.50309045,13.9625541 2.521041,13.5180023 2.56591736,13.0190157 C2.61079373,12.520029 2.70952173,11.8486651 2.77234865,11.5220557 C2.84415083,11.2045187 2.95185411,10.741822 3.01468102,10.4968649 C3.0864832,10.2609803 3.21213702,9.87993592 3.30188976,9.6531238 C3.39164249,9.43538417 3.51729631,9.14506466 3.58909849,9.01804987 C3.6519254,8.89103508 3.70577704,8.74587533 3.70577704,8.69144042 C3.70577704,8.63700551 3.73270286,8.60071557 3.76860395,8.60071557 C3.79552977,8.60071557 3.82245559,8.53720818 3.82245559,8.47370078 C3.82245559,8.4011209 3.84938141,8.346686 3.87630723,8.346686 C3.89425778,8.346686 3.98401051,8.21059872 4.06478796,8.047294 C4.19941706,7.78419194 4.20839233,7.71161206 4.16351597,7.28520528 C4.14556542,7.0311757 4.10068906,6.56847898 4.06478796,6.2600145 C4.03786215,5.95155001 3.99298578,5.44349087 3.97503523,5.1259539 C3.94810941,4.5906773 3.95708469,4.55438736 4.05581269,4.59974978 C4.1186396,4.63603972 4.27121924,4.78119948 4.40584834,4.92635923 C4.54047744,5.08059148 5.02514218,5.60679559 5.49185638,6.10578226 C5.95857058,6.60476892 6.54196333,7.23077037 6.79327097,7.50294491 C7.04457862,7.77511945 7.50231754,8.25596115 7.8164521,8.57349811 C8.13058666,8.90010757 8.3818943,9.18135459 8.3818943,9.20857205 C8.3818943,9.22671702 8.49857285,9.37187677 8.63320195,9.51703653 C8.76783104,9.66219629 8.91143541,9.78013859 8.95631178,9.78013859 C8.99221287,9.78013859 9.20761942,9.58961641 9.4140507,9.36280429 C9.62945726,9.12691969 9.79998744,8.90918005 9.79998744,8.8819626 C9.80896272,8.84567266 9.66535835,8.69144042 9.48585289,8.53720818 C9.3153227,8.38297593 9.10889142,8.21059872 9.03708923,8.1652363 C8.96528705,8.11987388 8.86655905,8.02914903 8.81270741,7.96564163 C8.76783104,7.90213424 8.70500413,7.85677182 8.67807831,7.85677182 C8.65115249,7.84769933 8.44472121,7.69346709 8.21136411,7.50294491 C7.98698229,7.31242273 7.74464991,7.11282807 7.67284773,7.05839316 C7.61002082,7.00395825 7.38563899,6.81343607 7.17920771,6.64105886 C6.98175171,6.46868165 6.80224624,6.30537692 6.80224624,6.27815947 C6.79327097,6.25094201 6.73941933,6.23279704 6.69454297,6.23279704 C6.64069133,6.23279704 6.58683969,6.20557959 6.58683969,6.17836213 C6.57786442,6.16021716 6.43426005,6.02412989 6.27270513,5.88804262 C6.11115022,5.75195535 5.97652112,5.60679559 5.97652112,5.56143317 C5.97652112,5.51607074 6.17397713,5.28925863 6.4163095,5.04430154 C6.6496666,4.80841693 6.86507316,4.60882227 6.89199898,4.60882227 C6.91892479,4.60882227 7.00867752,4.55438736 7.08945498,4.48180748 C7.17920771,4.41830009 7.38563899,4.25499536 7.55616918,4.12798057 C7.7177241,4.00096579 7.93313065,3.85580603 8.03185865,3.80137112 C8.12161138,3.74693621 8.50754812,3.54734155 8.89348487,3.34774688 C9.27044633,3.14815222 9.62048198,2.98484749 9.66535835,2.98484749 C9.70125944,2.99391998 9.74613581,2.96670252 9.75511108,2.93948507 C9.76408635,2.9213401 9.95256709,2.83061525 10.1679736,2.75803537 C10.3923555,2.68545549 10.6167373,2.6219481 10.6616137,2.6219481 C10.7154653,2.6219481 10.903946,2.55844071 11.0924268,2.47678834 C11.2809075,2.40420847 11.5142646,2.25904871 11.6129926,2.15017889 C11.7027453,2.05038156 11.8283992,1.88707683 11.8822508,1.7872795 C11.9450777,1.69655465 12.0079046,1.61490229 12.0348304,1.61490229 C12.0617563,1.62397478 12.0797068,1.58768484 12.0797068,1.56046738 C12.0797068,1.52417744 12.1963853,1.34272775 12.3399897,1.16127805 C12.4835941,0.979828356 12.6720748,0.743943752 12.743877,0.644146419 C12.8246545,0.544349087 12.9592836,0.362899391 13.0580116,0.235884604 C13.1477643,0.108869817 13.2554676,7.10542736e-15 13.2913687,7.10542736e-15 Z M10.5000587,5.5432882 C10.5449351,5.73381038 10.6167373,6.05134735 10.6616137,6.2600145 C10.70649,6.46868165 10.7962428,6.85879849 10.8590697,7.13097303 C10.9218966,7.40314758 10.9667729,7.68439461 10.9667729,7.75697448 C10.9667729,7.82048188 11.0116493,7.92027921 11.0565257,7.95656915 C11.1103773,8.00193157 11.2270559,8.02007654 11.3078333,8.00193157 C11.397586,7.99285909 11.460413,7.94749666 11.460413,7.91120673 C11.460413,7.87491679 11.5501657,7.84769933 11.6668442,7.84769933 C11.7745475,7.84769933 11.9091766,7.81140939 11.9720035,7.76604697 C12.0258552,7.72975703 12.0707315,7.66624964 12.0707315,7.63903218 C12.0617563,7.61181473 11.9271272,7.36685764 11.756597,7.11282807 C11.5860668,6.84972601 11.4155366,6.63198637 11.3886108,6.62291389 C11.361685,6.6138414 11.3437344,6.56847898 11.3437344,6.52311655 C11.3437344,6.48682662 11.2898828,6.39610177 11.2360311,6.32352189 C11.1732042,6.25094201 11.0565257,6.06949232 10.9667729,5.90618759 C10.8859955,5.74288286 10.7962428,5.60679559 10.7693169,5.60679559 C10.7423911,5.60679559 10.7334158,5.57957814 10.7334158,5.53421571 C10.7423911,5.49792577 10.6795642,5.38905596 10.5898115,5.28018614 C10.509034,5.18038881 10.4282566,5.1259539 10.4282566,5.15317135 C10.4192813,5.18038881 10.4551824,5.35276602 10.5000587,5.5432882 Z M17.1327855,6.01505741 C17.1327855,6.03320238 17.0430328,6.13299971 16.9443048,6.24186953 C16.8455768,6.35981183 16.7647993,6.48682662 16.7647993,6.52311655 C16.7647993,6.56847898 16.7378735,6.6138414 16.7109477,6.62291389 C16.6929971,6.63198637 16.6032444,6.7317837 16.5134917,6.84972601 C16.4327142,6.97674079 16.2801346,7.18540794 16.1814066,7.3305677 C16.0826786,7.47572746 16.0108764,7.61181473 16.0108764,7.63903218 C16.0198517,7.66624964 16.1544808,7.72975703 16.3160357,7.77511945 C16.4775906,7.82048188 16.6840219,7.88398927 16.7737746,7.91120673 C16.8994284,7.95656915 16.9712306,7.95656915 17.0340575,7.89306176 C17.0789339,7.85677182 17.1507361,7.63903218 17.1866372,7.41222006 C17.2315135,7.19448043 17.2853652,6.9132334 17.3212663,6.78621861 C17.3481921,6.66827631 17.4289695,6.34166686 17.5007717,6.06041983 C17.5635986,5.7791728 17.6264255,5.50699826 17.6264255,5.45256335 C17.6264255,5.39812844 17.5994997,5.3618385 17.5725739,5.3618385 C17.5456481,5.3618385 17.4379448,5.49792577 17.3302415,5.67030299 C17.2225383,5.8426802 17.1327855,5.99691244 17.1327855,6.01505741 Z M21.6293973,10.5240823 C21.5037435,10.5603723 21.2614111,10.6148072 21.0729304,10.6510971 C20.8844497,10.6873871 20.6062162,10.7508945 20.4536366,10.7871844 C20.3010569,10.8234743 20.1215515,10.8779092 20.0587245,10.9051267 C19.9869224,10.9323442 19.8253674,10.9686341 19.6907383,10.9958515 C19.547134,11.0139965 19.3407027,11.041214 19.2240241,11.0684314 C19.1073456,11.0865764 18.9727165,11.1319388 18.9278401,11.1591563 C18.8739885,11.1954462 18.856038,11.4222583 18.856038,11.9031 C18.856038,12.2750719 18.8650132,12.5835364 18.8829638,12.5835364 C18.9009143,12.5835364 19.0445187,12.501884 19.1970983,12.4020867 C19.349678,12.2932169 19.5022576,12.2115645 19.5291834,12.2115645 C19.5650845,12.2115645 19.5920103,12.1843471 19.5920103,12.1480571 C19.5920103,12.1117672 19.6189362,12.0845497 19.6548373,12.0845497 C19.6907383,12.0845497 19.8881944,11.9756799 20.1036009,11.8395926 C20.3100322,11.7035054 20.5254387,11.5674181 20.5613398,11.5311282 C20.6062162,11.4948382 20.6869937,11.4676208 20.73187,11.4676208 C20.7857217,11.4676208 20.8575238,11.4131858 20.9024002,11.3587509 C20.9472766,11.2952435 21.0190788,11.2317362 21.0729304,11.2226637 C21.126782,11.2135912 21.2793617,11.1228663 21.422966,11.023069 C21.5665704,10.9232717 21.7011995,10.8416193 21.7191501,10.8416193 C21.7371006,10.8416193 21.8358286,10.7781119 21.9525072,10.6964596 C22.0602104,10.6238797 22.1589384,10.5422273 22.1679137,10.5150099 C22.176889,10.4877924 22.2397159,10.4696474 22.3025428,10.4696474 C22.374345,10.4696474 22.4371719,10.44243 22.4551224,10.40614 C22.473073,10.3698501 22.4371719,10.3426326 22.3833203,10.3517051 C22.3204933,10.3517051 22.176889,10.3789226 22.0602104,10.4152125 C21.9435319,10.4515025 21.7460759,10.4968649 21.6293973,10.5240823 Z M5.77008984,10.5875897 C5.8508673,10.6601696 5.9495953,10.7146045 5.9854964,10.7146045 C6.01242222,10.7146045 6.03934804,10.7327495 6.03934804,10.7599669 C6.03934804,10.7871844 6.12012549,10.8506918 6.22782877,10.9051267 C6.33553205,10.9504891 6.4163095,11.0139965 6.4163095,11.041214 C6.4163095,11.0684314 6.47016114,11.1047214 6.53298805,11.1228663 C6.60479024,11.1410113 6.69454297,11.1863737 6.73941933,11.2317362 C6.7842957,11.2680261 6.90994952,11.3678234 7.0176528,11.4494758 C7.12535607,11.5220557 7.2510099,11.5855631 7.28691099,11.5855631 C7.33178735,11.5855631 7.40358954,11.639998 7.4484659,11.7125778 C7.484367,11.7851577 7.55616918,11.8395926 7.60104555,11.8395926 C7.63694664,11.8395926 7.78952628,11.9303175 7.92415538,12.0573323 C8.05878447,12.1752746 8.19341357,12.2750719 8.21136411,12.2750719 C8.23828993,12.2750719 8.26521575,12.2478544 8.26521575,12.2297095 C8.26521575,12.202492 8.2831663,12.0936222 8.29214157,11.9938249 C8.30111684,11.8940275 8.33701794,11.6127805 8.36394376,11.3859684 L8.41779539,10.9595616 C8.07673502,10.9595616 7.86132846,10.9232717 7.70874882,10.8688368 C7.55616918,10.8144019 7.28691099,10.741822 7.12535607,10.705532 C6.95482589,10.6692421 6.70351824,10.6148072 6.56888915,10.5785173 C6.43426005,10.5512998 6.19192768,10.4968649 6.03934804,10.4787199 C5.89574367,10.4515025 5.73418875,10.4333575 5.68931239,10.4515025 C5.64443602,10.4605749 5.67136184,10.5150099 5.77008984,10.5875897 Z M8.03185865,16.076443 C7.98698229,16.076443 7.94210592,16.112733 7.92415538,16.1490229 C7.90620483,16.1943853 7.78055101,16.2851102 7.64592191,16.3576901 C7.51129282,16.4211974 7.39461427,16.5028498 7.39461427,16.5209948 C7.39461427,16.5482122 7.36768845,16.5754297 7.34076263,16.5754297 C7.30486154,16.5754297 7.09843026,16.693372 6.89199898,16.8294593 C6.67659242,16.974619 6.49708696,17.1197788 6.48811169,17.1469962 C6.47913641,17.1742137 6.44323532,17.1923587 6.4163095,17.1923587 C6.38040841,17.1923587 6.17397713,17.310301 5.9495953,17.4554607 C5.68033711,17.6369104 5.57263384,17.7367077 5.62648548,17.7729977 C5.67136184,17.7911426 5.78804039,17.7911426 5.88676839,17.7548527 C5.99447167,17.7276353 6.20987822,17.6732003 6.38040841,17.6369104 C6.5509386,17.6006205 6.99970225,17.5008231 7.36768845,17.4100983 C7.74464991,17.3193734 8.10366084,17.2286486 8.16648775,17.2195761 C8.23828993,17.2105036 8.36394376,17.2014311 8.46267176,17.2014311 C8.62422667,17.1923587 8.63320195,17.1832862 8.63320195,16.8566767 C8.63320195,16.6661545 8.60627613,16.4937773 8.57037504,16.4756324 C8.53447394,16.4574874 8.5165234,16.3304726 8.5165234,16.1853128 C8.52549867,16.0401531 8.56139976,15.8949933 8.59730085,15.8677759 C8.63320195,15.8496309 8.58832558,15.8224135 8.49857285,15.8224135 C8.40882012,15.8224135 8.29214157,15.8768484 8.22033939,15.9494282 C8.15751248,16.0220081 8.07673502,16.076443 8.03185865,16.076443 Z M19.5112329,16.1218054 C19.5381587,16.2851102 19.5561092,16.4847048 19.5561092,16.5754297 C19.5561092,16.6570821 19.5381587,16.8294593 19.5112329,16.9474016 C19.4663565,17.1560687 19.4663565,17.1651412 19.6638125,17.2014311 C19.7804911,17.2286486 19.9958976,17.2830835 20.1484773,17.3193734 C20.3010569,17.3556634 20.5613398,17.4191708 20.73187,17.4554607 C20.9024002,17.4826782 21.1626831,17.5371131 21.3152628,17.5643305 C21.4678424,17.591548 21.7909522,17.6641279 22.0243093,17.7185628 C22.2666417,17.7729977 22.4820483,17.8183601 22.4999988,17.8183601 C22.5269246,17.8183601 22.5538504,17.7911426 22.5538504,17.7548527 C22.5538504,17.7185628 22.5089741,17.6913453 22.4551224,17.6913453 C22.4102461,17.6913453 22.1948395,17.573403 21.979433,17.4373157 C21.7730017,17.292156 21.584521,17.1469962 21.584521,17.1197788 C21.5755457,17.0925613 21.5396446,17.0744164 21.5037435,17.0744164 C21.4678424,17.0744164 21.2793617,16.956474 21.0729304,16.8203868 C20.8664991,16.6842995 20.6780184,16.5754297 20.6421173,16.5754297 C20.6062162,16.5754297 20.5792904,16.5482122 20.5792904,16.5209948 C20.5792904,16.5028498 20.4985129,16.4393424 20.3908096,16.3849075 C20.2920816,16.3304726 20.2023289,16.2669652 20.2113042,16.2488202 C20.2113042,16.2216028 20.1574525,16.1943853 20.0856504,16.1943853 C20.0228234,16.1943853 19.9599965,16.1762404 19.9599965,16.1490229 C19.9599965,16.1218054 19.843318,16.0310806 19.7086889,15.9585007 L19.4753318,15.8224135 L19.5112329,16.1218054 Z M16.7647993,20.5582505 C16.6929971,20.5582505 16.5314422,20.6217579 16.4057884,20.6943378 C16.2801346,20.7669177 16.163456,20.8394975 16.1455055,20.84857 C16.1275549,20.8576425 16.2891099,21.129817 16.5134917,21.447354 C16.7288982,21.764891 16.9263542,22.027993 16.9532801,22.0370655 C16.9802059,22.046138 17.0071317,22.0915004 17.0071317,22.1277904 C17.0071317,22.1731528 17.0520081,22.2638776 17.114835,22.3364575 C17.1776619,22.3999649 17.2674146,22.5360522 17.312291,22.6358495 C17.3661426,22.7265744 17.4379448,22.7991542 17.4648706,22.7810093 C17.5007717,22.7719368 17.5187223,22.663067 17.509747,22.5451247 C17.5007717,22.4271824 17.4648706,22.3092401 17.4379448,22.2729501 C17.411019,22.2366602 17.3751179,22.1096454 17.3571674,21.9917031 C17.3392168,21.8737608 17.2943404,21.6378762 17.2584393,21.465499 C17.2315135,21.2931218 17.1776619,21.0209472 17.1597113,20.866715 C17.1327855,20.7124827 17.0699586,20.5582505 17.0250822,20.5128881 C16.9802059,20.4675257 16.9353295,20.4312357 16.917379,20.4312357 C16.8994284,20.4312357 16.8814779,20.4584532 16.8814779,20.4947431 C16.8814779,20.5310331 16.8276262,20.5582505 16.7647993,20.5582505 Z M10.8231686,21.0844546 C10.7962428,21.2296144 10.7693169,21.4382815 10.7513664,21.5562238 C10.7334158,21.6741661 10.6885395,21.9554132 10.6346878,22.1822253 C10.5898115,22.3999649 10.5628857,22.644922 10.5718609,22.7265744 C10.5898115,22.7991542 10.6257126,22.8535892 10.6616137,22.8354442 C10.6975147,22.8172992 10.7244406,22.7447193 10.7244406,22.6812119 C10.7244406,22.6086321 10.7423911,22.5451247 10.7693169,22.5360522 C10.7962428,22.5269797 10.8770202,22.4271824 10.9577977,22.3183126 C11.0295999,22.2094427 11.0924268,22.0733555 11.0924268,22.0189206 C11.0924268,21.9735581 11.1193526,21.9281957 11.1373031,21.9281957 C11.1642289,21.9281957 11.2539817,21.8283984 11.3347591,21.6923111 C11.4065613,21.5652963 11.4693882,21.4382815 11.4693882,21.4201366 C11.4693882,21.3929191 11.5232399,21.3112667 11.5860668,21.2477593 C11.657869,21.1751795 11.7206959,21.0935271 11.7206959,21.0663097 C11.7296711,21.0390922 11.5770915,20.9483674 11.3886108,20.8757875 C11.1911548,20.8032076 11.0295999,20.7487727 11.0206246,20.7487727 C11.0116493,20.7487727 10.9757482,20.7669177 10.9308718,20.7941351 C10.8949708,20.8213526 10.8500944,20.9483674 10.8231686,21.0844546 Z" id="Shape" fill="#F68235"></path>
        <path d="M13.2464923,8.71865787 C12.9951846,8.74587533 12.6810501,8.80031023 12.5374457,8.83660017 C12.4028166,8.87289011 12.1963853,8.92732502 12.0797068,8.95454248 C11.9630282,8.99083241 11.7117206,9.08155726 11.5232399,9.16320962 C11.3347591,9.25393447 11.002674,9.44445665 10.7872675,9.59868889 C10.5628857,9.74384865 10.3295286,9.92529835 10.2577264,9.99787822 C10.1948995,10.0704581 10.0692456,10.2246903 9.98846818,10.3426326 C9.90769072,10.4605749 9.81793799,10.5694448 9.79998744,10.5875897 C9.7820369,10.6057347 9.71023471,10.7327495 9.6474078,10.8688368 C9.58458089,11.004924 9.50380343,11.2498811 9.44995179,11.4041134 C9.40507543,11.5583456 9.36917434,11.8668101 9.36917434,12.0845497 C9.36917434,12.3204343 9.4140507,12.6198263 9.47687761,12.801276 C9.53970452,12.9736532 9.65638307,13.2095378 9.73716053,13.3365526 C9.81793799,13.4544949 9.99744345,13.6540896 10.1230973,13.7811044 C10.2487511,13.9081192 10.3744049,14.016989 10.4013307,14.016989 C10.4282566,14.016989 10.5180093,14.0804964 10.607762,14.1530763 C10.6885395,14.2347286 10.8231686,14.3345259 10.8949708,14.3798884 C10.9757482,14.4161783 11.0924268,14.4887582 11.1732042,14.5341206 C11.2450064,14.5704106 11.3347591,14.6339179 11.3706602,14.6702079 C11.4065613,14.7064978 11.6040173,14.8153676 11.8014733,14.915165 C12.0079046,15.0149623 12.1874101,15.1147596 12.2053606,15.1329046 C12.2233112,15.1510496 12.4297424,15.2599194 12.6630995,15.3778617 C12.9054319,15.495804 13.1657148,15.6228188 13.2464923,15.6591087 C13.336245,15.6953987 13.4170225,15.7407611 13.434973,15.7589061 C13.4529236,15.777051 13.6414043,15.8859208 13.8657861,16.0038631 C14.090168,16.1218054 14.386352,16.2941827 14.5299563,16.39398 C14.6735607,16.4937773 14.8081898,16.5754297 14.8171651,16.5754297 C14.8351156,16.5754297 14.9428189,16.6661545 15.0505222,16.7750244 C15.1672007,16.8838942 15.3018298,17.0834888 15.3646567,17.2105036 C15.4185084,17.3375184 15.4633847,17.591548 15.4633847,17.7729977 C15.4633847,17.9544474 15.4364589,18.1994045 15.4095331,18.3354917 C15.373632,18.4625065 15.2479782,18.6621012 15.1133491,18.789116 C14.9876953,18.9070583 14.7992145,19.0431455 14.7004865,19.088508 C14.5927833,19.1338704 14.4132778,19.1973778 14.2965992,19.2427402 C14.1799207,19.2790302 13.9555389,19.3153201 13.8029592,19.3153201 C13.6503796,19.3153201 13.3900967,19.2790302 13.2195665,19.2336677 C13.0490363,19.1883053 12.7708028,19.070363 12.6002726,18.9796382 C12.4297424,18.8889133 12.2233112,18.752826 12.1245832,18.6711737 C12.0348304,18.5985938 11.8283992,18.4262166 11.657869,18.2810568 C11.496314,18.1449696 11.2539817,17.872795 11.1193526,17.6641279 C10.9847235,17.4645332 10.8500944,17.2195761 10.805218,17.1379237 C10.7693169,17.0471989 10.6975147,16.8748217 10.6436631,16.7568794 C10.5987867,16.6389371 10.5359598,16.4393424 10.509034,16.3214001 C10.4821082,16.2034578 10.4192813,16.0673705 10.3654296,16.0310806 C10.311578,15.9857182 10.1679736,15.9494282 10.0512951,15.9494282 C9.92564127,15.9494282 9.79101217,15.9766457 9.73716053,16.0129356 C9.65638307,16.0582981 9.6474078,16.2941827 9.66535835,17.5824755 C9.67433362,18.4171441 9.70125944,19.1429429 9.71023471,19.2064503 C9.72818526,19.2790302 9.81793799,19.3243926 9.99744345,19.3425375 C10.1410478,19.35161 10.3474791,19.3788275 10.4462071,19.4060449 C10.5449351,19.4241899 10.6885395,19.4695523 10.7513664,19.4967698 C10.8231686,19.5330597 11.2270559,19.669147 11.6488937,19.8052343 C12.0707315,19.9413215 12.6720748,20.0864813 12.9772341,20.1227712 C13.4170225,20.1772061 13.6683301,20.1681337 14.2337723,20.0955538 C14.6286843,20.0411189 15.0864233,19.9594665 15.2479782,19.9050316 C15.4185084,19.8596692 15.6877666,19.7780168 15.8403462,19.7145094 C15.9929258,19.6600745 16.262184,19.5421322 16.4506648,19.4514074 C16.6391455,19.3606825 16.917379,19.2064503 17.0699586,19.0975805 C17.2225383,18.9977831 17.4917964,18.752826 17.6713019,18.5623039 C17.8418321,18.3808542 18.0751892,18.0542447 18.1739172,17.8455776 C18.2726452,17.6459829 18.3803485,17.310301 18.4252248,17.1016338 C18.4611259,16.8929667 18.4790765,16.5754297 18.4701012,16.3849075 C18.4521507,16.1943853 18.4162496,15.9585007 18.3893238,15.8587034 C18.3713732,15.7498336 18.3175216,15.5956013 18.2816205,15.495804 C18.2367441,15.4050792 18.1918677,15.3234268 18.1649419,15.3234268 C18.1380161,15.3234268 18.1200656,15.2871368 18.1200656,15.2508469 C18.1200656,15.2054845 17.9944117,15.0331073 17.8418321,14.8698025 C17.6892525,14.7155703 17.5366728,14.579483 17.5187223,14.579483 C17.4917964,14.579483 17.411019,14.5341206 17.3481921,14.4706132 C17.2763899,14.4071058 17.1238103,14.2891635 17.0071317,14.2075112 C16.8904532,14.1258588 16.7737746,14.035134 16.7647993,14.016989 C16.7468488,13.998844 16.6660713,13.9534816 16.5942691,13.9081192 C16.5134917,13.8627567 16.3878379,13.7992493 16.3160357,13.7538869 C16.2352582,13.7085245 16.163456,13.6631621 16.1455055,13.6359446 C16.1275549,13.6177997 15.6249397,13.3546976 15.0325716,13.0553056 C14.4402036,12.7559136 13.7401323,12.3839417 13.4708741,12.220637 C13.2105912,12.0573323 12.9144072,11.8577376 12.8156792,11.7579403 C12.7169512,11.6672154 12.5733468,11.4585483 12.5015446,11.2952435 C12.3938414,11.0502865 12.3848661,10.9323442 12.4117919,10.6510971 C12.4387177,10.4515025 12.5105199,10.2337628 12.5912974,10.124893 C12.6630995,10.0250957 12.8336297,9.87086344 12.9772341,9.78013859 C13.1118632,9.68941374 13.3003439,9.58054392 13.4080472,9.5351815 C13.5157505,9.48981908 13.829885,9.46260162 14.2068465,9.46260162 C14.6645854,9.46260162 14.9069178,9.49889156 15.1582255,9.58961641 C15.3467062,9.66219629 15.5082611,9.74384865 15.5172364,9.78013859 C15.5262116,9.81642853 15.5621127,9.84364598 15.6069891,9.84364598 C15.6518655,9.84364598 15.8223957,9.98880574 15.9929258,10.1702554 C16.1724313,10.3517051 16.3968131,10.6420246 16.4955411,10.8053294 C16.6032444,10.9777066 16.7647993,11.304316 16.8455768,11.5220557 C16.9353295,11.7488678 17.0071317,11.9666074 17.0071317,12.0119698 C17.0071317,12.0482598 17.0520081,12.1026947 17.0968844,12.1208397 C17.1507361,12.1389846 17.2943404,12.1480571 17.4199943,12.1480571 C17.5456481,12.1480571 17.6982277,12.1117672 17.7610546,12.0754772 C17.8508074,12.0028974 17.8597826,11.93939 17.805931,11.5855631 C17.7700299,11.3678234 17.7251535,10.7508945 17.6982277,10.2156179 L17.6533514,9.25393447 C17.2225383,9.14506466 16.818651,9.04526732 16.4865659,8.97268744 C16.1455055,8.90010757 15.8044451,8.80938272 15.7326429,8.78216526 C15.6518655,8.74587533 15.1672007,8.70958539 14.6556102,8.7005129 C14.1350443,8.68236793 13.5067752,8.69144042 13.2464923,8.71865787 Z" id="Path" fill="#034484" fill-rule="nonzero"></path>
    </g>
</svg>