<?xml version="1.0" encoding="UTF-8"?>
<svg width="28px" height="28px" viewBox="0 0 28 28" version="1.1" xmlns="http://www.w3.org/2000/svg" xmlns:xlink="http://www.w3.org/1999/xlink">
    <title>T5</title>
    <g id="T5" stroke="none" stroke-width="1" fill="none" fill-rule="evenodd">
        <path d="M13.1691956,0.00946866084 C13.108434,0.0155576818 12.8598638,0.0397477015 12.6168173,0.0631904323 C9.80985185,0.333930447 7.21337011,1.42796145 4.98018758,3.28087821 C4.57090289,3.62047952 3.60493137,4.58899366 3.24972451,5.01591706 C1.553067,7.05510251 0.470598898,9.49749185 0.121716775,12.0736459 C0.0278677049,12.7666319 0,13.2016094 0,13.9833843 C0,15.5939304 0.209544922,16.9199531 0.698510177,18.3979245 C1.25334654,20.0750623 2.09873388,21.5932213 3.24919975,22.9785289 C3.77973147,23.6173779 4.75202773,24.5489151 5.47732803,25.1132567 C6.84106715,26.1743793 8.5582179,27.024628 10.3314074,27.5167593 C11.7795223,27.91869 13.5367205,28.0828999 15.0751769,27.9600954 C17.551102,27.762479 19.7528266,26.9955945 21.8487432,25.6008212 C22.0653583,25.4566498 22.2483612,25.3293615 22.2554041,25.3179585 C22.2657335,25.301186 21.5127315,24.962415 19.8391634,24.2309022 C19.7708066,24.2010106 19.6363301,24.1405356 19.5403267,24.0965009 C19.4443234,24.0524662 19.3608038,24.0164302 19.3547276,24.0164302 C19.3486515,24.0164302 19.2780299,23.9865664 19.1978522,23.9500599 C19.1176469,23.9135535 18.9744152,23.851141 18.8795442,23.8113686 C18.7846732,23.7715962 18.6417453,23.7089347 18.5619267,23.6720684 C18.482108,23.6352298 17.0931528,23.0241689 15.4753749,22.3141614 C12.0351078,20.8042779 12.4085983,20.9685154 12.2025336,20.8750766 C12.1113912,20.8337543 11.9808918,20.7777077 11.912535,20.7505562 C11.8441782,20.7234047 11.7198931,20.6695722 11.6363459,20.6309346 C11.5527987,20.592297 10.6840457,20.2094083 9.70578378,19.7800492 L7.92712571,18.9994368 L7.46865174,18.6945152 C6.83941002,18.2760334 6.4024788,17.9383141 6.05149763,17.5991834 C5.36224001,16.9332105 5.08176994,16.3915644 4.85606818,15.2904757 C4.81905883,15.1099362 4.72189549,14.548999 4.59125803,13.7619654 C4.46763577,13.0171674 4.37908953,12.6664398 4.27154148,12.4957258 C4.19514756,12.3744159 4.06412343,12.3051948 3.81527702,12.2546282 L3.65845682,12.2227716 L3.67370246,12.1205314 C3.71957748,11.8127037 3.92525553,11.6611147 4.29170328,11.6651003 C4.63492353,11.6688091 4.62163883,11.6562712 4.73537352,12.0830839 C4.81110458,12.3672474 4.90754983,12.5243165 5.07889757,12.6424435 C5.40988264,12.8706434 5.76055999,12.6917092 5.71833067,12.316155 C5.69104319,12.0736459 5.47221853,11.8698021 5.04917962,11.692833 C4.8747938,11.6199031 4.78707613,11.5521489 4.82187596,11.5172755 C4.86073577,11.4783334 5.2043703,11.4232278 5.40828074,11.4232278 C6.23378247,11.4232278 6.93461241,11.9612204 7.78933495,13.2510965 C8.01362815,13.5895907 8.02470333,13.5733441 7.93571519,13.0359327 C7.82662048,12.3770452 7.67836215,11.9118717 7.42385386,11.4299257 C7.20105208,11.0079565 7.06773558,10.8157095 6.27079181,9.76712477 C5.907465,9.28908127 5.83096061,9.13527814 5.81449973,8.84978609 C5.79505602,8.51275877 5.9144802,8.20509715 6.13976768,8.01185377 C6.33014486,7.8485573 6.3342877,7.84825284 7.70418584,7.89450173 C8.38582064,7.91750162 9.50278476,7.95450626 10.1863529,7.97673119 C10.869921,7.99892844 11.7772023,8.03014851 12.2025336,8.04611835 C12.6278649,8.06208819 13.3549328,8.08780046 13.8182401,8.10327211 C14.2815474,8.11871609 15.3752564,8.15580376 16.2487045,8.18563996 C17.1221527,8.21547616 18.4085036,8.25832073 19.1072621,8.28087778 C19.8060207,8.30343484 20.7008735,8.33426743 21.095824,8.34943463 C21.4907744,8.36460182 22.0500574,8.38405901 22.3386751,8.39269435 C23.7463283,8.43484698 25.0476763,8.49604164 25.0991027,8.52250121 C25.2968541,8.62432624 25.3317368,8.77062881 25.2007955,8.94887106 C25.0913142,9.09788601 24.9884613,9.18861243 24.8105679,9.29314984 C24.5360359,9.45442587 24.4014489,9.485812 23.984569,9.48578433 C23.5304312,9.48575665 21.365136,9.41457046 20.5986835,9.37449363 C18.7076993,9.27560239 17.2330703,9.18122257 14.7710926,9.00156877 C11.2956942,8.74790569 9.99036907,8.66277011 9.96512538,8.68806722 C9.95692257,8.69625972 10.0189546,8.80821468 10.1029438,8.93680373 L10.2556764,9.17064981 L10.9252969,9.2183656 C11.2935952,9.24460374 11.8310592,9.28398864 12.1196769,9.30588143 C13.7581966,9.43023585 14.1906535,9.4624523 14.7158548,9.49918017 C15.0348533,9.52151581 15.3642088,9.54670221 15.447756,9.55517149 C15.5313032,9.56364076 15.8544445,9.58849504 16.1658478,9.61038784 C16.477251,9.63230831 17.0676053,9.67570643 17.4777462,9.70681579 C19.0488481,9.82599453 19.3223582,9.8465865 20.0463052,9.90011453 C21.7428799,10.0255484 21.875285,10.0437877 22.0118329,10.1705778 C22.2122633,10.3567357 21.8634364,10.6813636 21.2634708,10.8670787 C20.9103353,10.9763767 20.0926221,10.9887484 19.230553,10.8978283 C19.0716061,10.8810558 18.755121,10.8497804 18.5272649,10.8283027 C18.0563901,10.7839636 17.4209893,10.7223538 16.8148923,10.6623216 C16.5870362,10.6397645 16.1333956,10.5959236 15.8068019,10.5649249 C15.4802082,10.5339263 15.0327818,10.4904728 14.812521,10.4683586 C14.5922602,10.4462444 14.1448338,10.4026525 13.8182401,10.3714878 C12.6608695,10.2610551 12.0868656,10.205728 11.6639648,10.1638522 C10.8463345,10.0828682 10.7769281,10.0775541 10.7661015,10.0951016 C10.7601358,10.1048163 10.8155394,10.2070565 10.8892542,10.3223328 C10.9917757,10.4827231 11.0417383,10.5358913 11.1019475,10.5487336 C11.1765738,10.5646481 11.7527044,10.6310185 12.575389,10.7184789 C12.7804594,10.7402887 12.9917441,10.7646171 13.0449105,10.7725882 C13.0980769,10.7805316 13.3155759,10.8054966 13.5282415,10.8280536 C13.7409071,10.8506107 14.1386195,10.8940642 14.4120467,10.92462 C14.685474,10.9552035 15.0894006,10.9988507 15.3096615,11.0216568 C15.5299223,11.0444353 15.741207,11.0691512 15.779183,11.0765411 C15.817159,11.0839309 16.0284437,11.1088959 16.2487045,11.1319788 C16.4689654,11.1550617 16.872892,11.198792 17.1463192,11.2291264 C17.4197465,11.2594608 17.7739591,11.2984859 17.9334583,11.3158119 C18.2087636,11.3457311 18.3643962,11.3934192 18.4094703,11.4616993 C18.4206283,11.4785825 18.4299359,11.5289553 18.4301845,11.5736266 C18.4304883,11.6353748 18.3967103,11.6875466 18.2891071,11.7915028 C18.0214245,12.0500371 17.5574268,12.1990797 17.0253208,12.1974745 C16.7623887,12.1966718 16.4376731,12.1550451 15.2268047,11.9669773 C14.3025101,11.8233872 12.2637924,11.5107713 11.581108,11.4079222 C11.3304664,11.3701703 11.1036323,11.3344111 11.0770629,11.3284881 C11.034005,11.3188841 11.0287298,11.3431571 11.0287298,11.5512356 C11.0287298,11.7143106 11.0391421,11.7877664 11.0632534,11.7947134 C11.0822552,11.8001658 11.5327749,11.8751438 12.064439,11.9613312 C15.0185581,12.440205 15.3811944,12.5011229 15.467034,12.5329795 C15.5003977,12.545379 15.5476813,12.586037 15.5720688,12.6233461 C15.6886206,12.8016161 15.3947001,13.0648832 14.9489584,13.1815156 C14.8067486,13.218714 14.6907768,13.2252735 14.3706184,13.2141195 C14.0242496,13.2020799 13.8712684,13.1794952 13.2382429,13.0469482 C12.1588681,12.8209625 11.1650567,12.6149599 11.1145141,12.6067397 C11.0772562,12.6006784 11.06886,12.6367143 11.0620658,12.8321995 C11.0576191,12.9601797 11.064082,13.0750131 11.0764552,13.0874126 C11.0888009,13.0997843 11.3037313,13.1536722 11.5540691,13.2071448 C11.8043793,13.2605898 12.1459148,13.3350143 12.3130093,13.3724894 C12.4801037,13.4099923 12.9337444,13.5111254 13.3210996,13.597285 C13.7084549,13.683417 14.0586904,13.7711543 14.099373,13.7922444 C14.3508708,13.9224941 14.091115,14.1840176 13.5941126,14.3009268 C13.184607,14.3972717 12.9950031,14.3814956 12.1196769,14.1782053 C11.5615815,14.0485922 11.0820343,13.9418683 11.0577572,13.9418683 C11.0313812,13.9418683 10.7971728,14.3556449 10.8140203,14.3725004 C10.8197374,14.3782296 11.2463668,14.4960522 11.7620396,14.6343007 C12.2777399,14.7725491 12.7307453,14.9080852 12.7687214,14.9354858 C12.8743361,15.0117092 12.8698894,15.085165 12.7537795,15.1810671 C12.5970698,15.3105141 12.3444948,15.3810914 12.0379249,15.3810914 C11.8312249,15.3810914 11.6600981,15.35513 11.2043032,15.2546889 C10.8888676,15.1851633 10.6228422,15.1233597 10.6131756,15.1173814 C10.57763,15.0953503 10.2079509,15.5365275 10.2373098,15.5659485 C10.2468659,15.5754972 10.4692258,15.6376052 10.7314674,15.7039202 C11.4440078,15.8841829 11.4927551,15.9005126 11.5414749,15.97502 C11.5752805,16.0267214 11.5782081,16.0544264 11.5545387,16.0987656 C11.5217826,16.1600709 11.3691329,16.2467564 11.238164,16.278364 C11.0953742,16.31285 10.7485911,16.2980149 10.344775,16.2401692 C9.75859114,16.1561961 9.80134522,16.1470902 9.60185381,16.3983454 C9.50822569,16.516251 9.43986887,16.6211482 9.44994978,16.6314442 C9.46003068,16.6417125 10.2139718,16.9003852 11.125396,17.2062478 C14.8467685,18.455106 16.8306903,19.1211618 20.4467795,20.3356724 C25.6021812,22.0671686 25.4811828,22.0272578 25.5023665,22.0033445 C25.5544557,21.9445301 25.8775142,21.4434314 26.0602962,21.137984 C26.9483271,19.6537297 27.5654165,17.9419952 27.8463009,16.1837351 C27.9701441,15.4084366 27.9993373,14.9929717 27.9999819,13.997223 C28.0005801,12.9992878 27.9721326,12.5940358 27.8465218,11.8107109 C27.5561642,10.0002789 26.9503433,8.33678607 26.0170449,6.78726862 C24.3600206,4.03624894 21.8072872,1.93061013 18.8034541,0.837132675 C17.7195774,0.442591794 16.6398988,0.194574898 15.4201371,0.0599521802 C15.0418132,0.0182147092 13.4398057,-0.017738192 13.1691956,0.00946866084 M7.7520218,6.69928226 C7.50151824,6.88441618 7.1312867,7.2776839 7.17053318,7.31698576 C7.17945409,7.32592555 8.21588146,7.35612156 9.47370204,7.3840757 C13.4472905,7.47233883 14.3287757,7.49254331 15.447756,7.521051 C16.0477769,7.53635658 17.1414859,7.56115551 17.8782205,7.57618432 C18.614955,7.59118545 19.6962355,7.61615044 20.281066,7.63162208 C22.9316808,7.70172886 23.9285579,7.71612109 24.0407459,7.68584205 C24.4008966,7.58866681 25.0169917,7.11535614 25.1263073,6.85186759 C25.1651671,6.75820738 25.1645595,6.74564186 25.1182702,6.6883497 C25.0832771,6.64503462 25.0229574,6.61984822 24.9186131,6.60501315 C24.8364192,6.59330562 20.9767036,6.5828159 16.3415041,6.5817088 L7.91386863,6.57968836 L7.7520218,6.69928226 M5.12805924,12.1066373 C5.04906915,12.122109 4.97303428,12.2097355 4.98491041,12.2715391 C5.00725411,12.3878117 5.3147631,12.4283037 5.41471595,12.328167 C5.48680132,12.2559291 5.43855107,12.1500355 5.31829832,12.1165458 C5.2614586,12.1007421 5.20873409,12.089422 5.20113889,12.0914148 C5.19354369,12.0934076 5.16064956,12.1002439 5.12805924,12.1066373" id="Shape" fill="#0E8534"></path>
    </g>
</svg>