<?xml version="1.0" encoding="UTF-8"?>
<svg width="28px" height="28px" viewBox="0 0 28 28" version="1.1" xmlns="http://www.w3.org/2000/svg" xmlns:xlink="http://www.w3.org/1999/xlink">
    <title>TC</title>
    <g id="TC" stroke="none" stroke-width="1" fill="none" fill-rule="evenodd">
        <path d="M14.2441372,13.5492708 C14.2221593,13.4518347 14.2104308,13.3983565 14.2104308,13.3983565 L14.2104308,13.3983565 L13.4748936,10.7476515 C12.8345365,12.6954398 10.9576019,17.1811134 8.67706593,17.837559 C6.39480744,18.4939884 4.18707446,16.8630944 4.18707446,16.8630944 C4.18707446,16.8630944 6.086955,15.6176765 7.17963291,14.4397158 C8.27231082,13.2623174 10.0775963,10.5441554 10.3630878,9.68419757 C10.6474906,8.82311496 10.694455,8.41554411 10.694455,8.41554411 L10.694455,8.41554411 L16.7764583,8.41554411 C16.7764583,8.41554411 17.3552101,9.77475096 18.5453565,13.5503084 L21.8265774,13.5512839 L21.8265774,14.9117871 L18.9686009,14.9122319 C20.3391641,19.3531479 24.2237297,22.2745124 24.7835632,22.67866 L24.7835632,22.67866 L24.9148685,22.6866944 L25.1722789,22.8624236 C25.1722789,22.8628896 21.4751244,23.2613976 20.0407602,22.6996298 C17.8404863,22.1690357 16.763279,20.7750933 16.1584621,19.7841902 C15.6082224,18.8812901 14.9597728,16.4974489 14.5671689,14.911653 L12.2813479,14.9117871 L12.9698719,13.5512839 Z" id="Combined-Shape" fill="#0063AD" fill-rule="nonzero"></path>
        <polygon id="path4498" fill="#FFFFFF" fill-rule="nonzero" points="10.6686814 8.44585 16.8750835 8.44585 17.201868 9.30182271 16.2949188 8.87384439 16.1699513 9.58980902 15.5662719 8.84606131 15.1890454 9.39762532 14.8364711 8.86987538 14.2574602 9.34945084 13.8309292 8.86987538 13.2003225 9.34945084 12.6482389 8.77407277 12.3203169 9.90045244 12.0680742 8.86987538 11.6415432 9.34945084 11.314775 8.77407277 10.5591845 9.42143939"></polygon>
        <path d="M13.4812314,10.494133 L14.2826812,13.3795238 C14.2940567,13.4333545 15.3834032,18.3702742 16.2232697,19.7489191 C16.6904923,20.5147615 18.1088009,22.8463226 21.9698919,22.8463226 C22.4296718,22.8463226 22.916964,22.8122566 23.4185892,22.7487845 L24.6523066,22.6700471 C23.8474116,22.0714334 20.1972865,19.1661975 18.89192,14.9118192 C17.5636076,10.5825921 16.8470024,8.7799379 16.7260325,8.48517053 L10.7592626,8.48517053 C10.7356991,8.62979037 10.6572085,9.0265308 10.4336319,9.70507103 C10.1378212,10.5973433 8.31361999,13.3217401 7.23469014,14.4860905 C6.28017531,15.5144019 4.69732883,16.6056389 4.31322831,16.862998 C4.65376082,17.0914491 5.99926645,17.9219205 7.54541894,17.9219205 C7.92836567,17.9219205 8.3038696,17.8703395 8.65415251,17.7694269 C10.7735957,17.1583438 12.6367822,13.0558646 13.4038457,10.7265853 L13.4812314,10.494133 Z M21.9698919,22.9859129 C18.02511,22.9859129 16.5729676,20.6032045 16.0948407,19.8192043 C15.2435176,18.4212929 14.1846573,13.6159129 14.1382129,13.4118383 L13.4680521,10.9986473 C12.6493927,13.3834928 10.8074133,17.2966165 8.69658297,17.9043091 C8.33196698,18.008596 7.94442132,18.0630695 7.54541894,18.0630695 C5.71262112,18.0630695 4.15614946,16.9298927 4.14066259,16.9179857 L4.06103437,16.8596557 L4.14537528,16.8047001 C4.16308849,16.791845 6.0498385,15.5496409 7.12475444,14.3920876 C8.1950877,13.2396282 10.0015107,10.5413112 10.29217,9.6620868 C10.5713562,8.82084925 10.6217983,8.41155903 10.6217983,8.40760609 L10.6299236,8.34461611 L16.8277291,8.34461611 L16.8454423,8.38880551 C16.8535676,8.40583851 17.5781032,10.1223153 19.0348283,14.8721452 C20.4823718,19.594208 24.8536847,22.6417176 24.8972527,22.6706416 L25.064082,22.7852127 L23.4336536,22.8890176 C22.9308745,22.9536144 22.4361395,22.9859129 21.9706232,22.9859129" id="path4502" fill="#0063AD" fill-rule="nonzero"></path>
        <path d="M7.87048083,11.0106026 C7.87048083,11.0106026 -1.05904382,18.0472095 2.48387562,20.6497239 C5.91194119,23.1693903 14.4545044,19.824835 15.0020704,19.6064353 L15.0296914,19.5953489 C15.0296914,19.5953489 7.83437187,23.0430698 3.22284174,22.4790364 C-1.39154851,21.9161277 0.159202919,18.9258715 0.639604835,17.8351968 C1.11888546,16.7451007 3.25838193,14.2820319 6.0634728,12.2770064 C8.86685735,10.2714023 7.87048083,11.0106026 7.87048083,11.0106026 Z M21.8678541,6.13741201 C26.4226206,5.57394097 29.03623,6.70882107 27.6098936,10.1831842 C26.1697929,13.6864714 20.9442967,17.2328391 20.9442967,17.2328391 L20.9442967,17.2328391 L24.068128,13.8321678 C31.8533626,3.88805926 15.6534241,7.91059589 15.6534241,7.91059589 C15.6534241,7.91059589 18.0451796,6.92366188 20.8319234,6.33468954 C20.9855734,6.30239111 21.1254916,6.27459196 21.2452589,6.25016728 C21.4510735,6.21047717 21.6609019,6.17255463 21.8678541,6.1373638 Z" id="Combined-Shape" fill="#03B14D" fill-rule="nonzero"></path>
    </g>
</svg>