<?xml version="1.0" encoding="UTF-8"?>
<svg width="28px" height="28px" viewBox="0 0 28 28" version="1.1" xmlns="http://www.w3.org/2000/svg" xmlns:xlink="http://www.w3.org/1999/xlink">
    <title>TF</title>
    <g id="TF" stroke="none" stroke-width="1" fill="none" fill-rule="evenodd">
        <path d="M22.2394082,23.3333307 C21.9985761,24.2021508 21.7315512,25.0263803 21.4383336,25.8060192 L21.3644835,26 L0,26 L0.362018692,25.7657228 C0.808675773,25.5037752 1.68653896,24.6386987 2.55938522,23.6039996 L2.78411703,23.3335173 L2.78411703,23.3335173 L22.2394082,23.3333307 Z" id="Path" fill="#A7A9AC" fill-rule="nonzero"></path>
        <path d="M4.95905085,20.6668152 L22.9606818,20.6668698 L22.3015327,23.106068 C22.2810219,23.1821582 22.2603138,23.2579124 22.2394082,23.3333307 L2.78416149,23.3334632 L4.95905085,20.6668152 L4.95905085,20.6668152 Z" id="Path" fill="#0097BA" fill-rule="nonzero"></path>
        <polygon id="Path" fill="#8DC63F" fill-rule="nonzero" points="7.12817018 18.0002178 23.6822766 18.0002204 22.9607004 20.6668013 22.9607004 20.6668013 4.95917331 20.6666647"></polygon>
        <polygon id="Path" fill="#5087C7" fill-rule="nonzero" points="9.29550487 15.3333177 24.4043393 15.3333483 23.6823254 18.0000403 23.6823254 18.0000403 7.12838855 17.9999492"></polygon>
        <polygon id="Path" fill="#F7941E" fill-rule="nonzero" points="11.4614568 12.6665169 25.1266955 12.6665386 24.4043393 15.3333483 24.4043393 15.3333483 9.29553311 15.3332829"></polygon>
        <polygon id="Path" fill="#00B5DE" fill-rule="nonzero" points="13.6290802 9.99964437 25.849203 9.9999071 25.1266868 12.6665709 25.1266868 12.6665709 11.4614378 12.6665404"></polygon>
        <polygon id="Path" fill="#9E0040" fill-rule="nonzero" points="15.7993328 7.33313074 26.5710889 7.33312341 25.8491601 10.0000655 25.8491601 10.0000655 13.6288818 9.9998884"></polygon>
        <polygon id="Path" fill="#FFD400" fill-rule="nonzero" points="17.9765185 4.66641654 27.2918722 4.66625758 26.5710889 7.33312341 26.5710889 7.33312341 15.7993112 7.33315732"></polygon>
        <path d="M23.9615888,2.00303943 L25.5547054,2 C26.949289,2.00119752 28,2.01315036 28,2.0293438 L27.669881,3.26448845 C27.5649689,3.65413191 27.4376745,4.12617195 27.2918435,4.66636389 L17.9765046,4.66643352 L18.334729,4.23321554 L18.334729,4.23321554 C19.2919082,3.11695719 20.2765076,2.41355809 21.2760358,2.13186059 L21.3457944,2.1128916 C21.6267426,2.03925492 22.2156296,2.01168729 23.9615888,2.00303943 L23.9615888,2.00303943 Z" id="Path" fill="#005A96" fill-rule="nonzero"></path>
    </g>
</svg>