<?xml version="1.0" encoding="UTF-8"?>
<svg width="28px" height="28px" viewBox="0 0 28 28" version="1.1" xmlns="http://www.w3.org/2000/svg" xmlns:xlink="http://www.w3.org/1999/xlink">
    <title>TG</title>
    <g id="TG" stroke="none" stroke-width="1" fill="none" fill-rule="evenodd">
        <path d="M27.3786736,17.2430858 C27.1228423,16.6994823 26.830304,16.1922667 26.465012,15.7574241 C26.0992631,15.3225313 25.6972642,14.9602129 25.2586092,14.6340306 C25.0392309,14.4527959 24.7833996,14.3078987 24.5275682,14.1991881 L24.5275682,14.1991881 C24.4179045,14.126815 24.2715338,14.0542909 24.1618701,13.9817165 C24.2715338,13.9455803 24.4179045,13.8730059 24.5275682,13.8006831 L24.5275682,13.8006831 C24.7833996,13.6919725 25.0392309,13.546874 25.2586092,13.3657903 C25.6972642,13.0396584 26.0992631,12.6772896 26.465012,12.2424471 C26.830304,11.8075542 27.1228423,11.300238 27.3786736,10.7566848 C27.6345049,10.2131317 27.8173286,9.63334163 27.9269924,9.01731472 C27.9634962,8.5824722 28,8.14762968 28,7.74902403 C28,7.56783965 28,7.38665526 28,7.169234 C27.9634962,6.66191773 27.8538324,6.15460145 27.670958,5.64728518 C27.4883373,5.17620578 27.2689591,4.6688895 26.9764716,4.23455027 C26.6843396,3.76296758 26.3552975,3.36486522 25.9530955,2.96575629 C25.5511474,2.60389081 25.1124416,2.24152204 24.6372828,1.95112374 C24.1253663,1.66173201 23.6137036,1.44431075 23.028881,1.29936324 C22.4438046,1.11817886 21.858982,1.00946823 21.2011518,1.00946823 C20.5798254,0.973231352 19.994952,1.04520182 19.4100786,1.15391245 C18.8617598,1.29936324 18.3133903,1.5167845 17.8382315,1.77044264 C17.3263657,2.02410078 16.8876599,2.35023267 16.485661,2.74883832 C16.1201659,3.11120709 15.7911239,3.54604961 15.5352926,4.01712901 C15.2792582,4.48770512 15.0966376,4.99502139 15.0234268,5.53857455 C14.95047,5.82846956 14.95047,6.0821277 14.95047,6.37202271 C14.95047,6.62568085 14.95047,6.84310211 14.986923,7.06052337 C14.4752604,6.77062836 13.9635977,6.51697022 13.451732,6.37202271 C12.8304056,6.15460145 12.0991616,6.04589082 11.3681714,6.00965394 C10.6736343,6.00965394 10.015601,6.0821277 9.39427457,6.2275785 C8.80945197,6.33578584 8.22457861,6.5532071 7.67620906,6.84310211 C7.20105022,7.09676025 6.68938757,7.42289214 6.21402565,7.82149779 C5.9216905,8.07515592 5.62915228,8.32881406 5.33681714,8.61870908 C5.33681714,8.61870908 4.89816212,9.0535516 4.67878383,9.34344661 C4.42295251,9.59710475 4.16712118,9.92323664 3.91108677,10.2493685 L3.32626418,10.9741061 C3.18009661,11.1915273 3.03392904,11.3727117 2.85125765,11.5538961 C2.63193014,11.8437911 2.37609881,12.0974493 2.12006441,12.3511577 C1.68156169,12.7860506 1.20619977,13.1845556 0.694521889,13.5106875 C0.584847979,13.5832115 0.475174069,13.6555846 0.365505237,13.7281087 C0.292324988,13.7642953 0.219342743,13.8006831 0.146162494,13.8368193 C0.0729822449,13.8730059 1.6342259e-13,13.9093938 1.6342259e-13,13.9817165 L1.6342259e-13,13.9817165 L1.6342259e-13,13.9817165 C1.6342259e-13,14.0904775 0.0729822449,14.126815 0.146162494,14.1630016 C0.219342743,14.1991881 0.292324988,14.2355256 0.365505237,14.2717122 C0.475174069,14.3440853 0.584847979,14.4166094 0.694521889,14.4891335 C1.20619977,14.8153157 1.68156169,15.2138207 2.12006441,15.6486632 C2.37609881,15.9023213 2.63193014,16.1559291 2.85125765,16.4458745 C3.03392904,16.6271595 3.18009661,16.8082432 3.32626418,17.0256645 L3.91108677,17.7503014 C4.16712118,18.0764836 4.42295251,18.4026155 4.67878383,18.6562233 C4.89816212,18.9460177 5.33681714,19.344724 5.33681714,19.344724 C5.62915228,19.6708559 5.9216905,19.9244637 6.21402565,20.1781218 C6.68938757,20.5767778 7.20105022,20.90296 7.67620906,21.1565678 C8.22457861,21.4463622 8.80945197,21.6637834 9.39427457,21.7724941 C10.015601,21.9537791 10.6736343,21.9899656 11.3681714,21.9899656 C12.0991616,21.9537791 12.8304056,21.8450685 13.451732,21.6275969 C13.9635977,21.4826997 14.4752604,21.2290919 14.986923,20.9391465 C14.95047,21.1565678 14.95047,21.3739891 14.95047,21.6275969 C14.95047,21.9175926 14.95047,22.1712004 15.0234268,22.4609947 C15.0966376,23.0045982 15.2792582,23.5120151 15.5352926,23.9828429 C15.7911239,24.4539223 16.1201659,24.8887648 16.485661,25.2510833 C16.8876599,25.6497896 17.3263657,25.9759718 17.8382315,26.2295796 C18.3133903,26.4831874 18.8617598,26.7006087 19.4100786,26.8455058 C19.994952,26.9542165 20.5798254,27.0267909 21.2011518,26.9906043 C21.858982,26.9906043 22.4438046,26.8818937 23.028881,26.7006087 C23.6137036,26.5557115 24.1253663,26.3382902 24.6372828,26.0482945 C25.1124416,25.7585002 25.5511474,25.3961817 25.9530955,25.033662 C26.3552975,24.635157 26.6843396,24.2364507 26.9764716,23.7654216 C27.2689591,23.3307301 27.4883373,22.8235145 27.670958,22.3522841 C27.8538324,21.8450685 27.9634962,21.3376515 28,20.7942494 C28,20.6129643 28,20.4317296 28,20.2506459 C28,19.8519396 27.9634962,19.4172481 27.9269924,18.9824055 C27.8173286,18.366278 27.6345049,17.7864879 27.3786736,17.2430858" id="path16" fill="#FBC707"></path>
        <path d="M25.8434318,17.8226745 C25.6241043,17.3515951 25.3682729,16.9169539 25.0027779,16.5184489 C24.6737358,16.1197426 24.2715338,15.7935604 23.8330819,15.5399526 C23.3576692,15.2500072 22.8825104,15.0327369 22.3708477,14.9240263 C21.858982,14.7427413 21.3106124,14.6702172 20.762446,14.6702172 C20.1776234,14.6702172 19.6292538,14.7427413 19.0443805,14.8876384 C18.5692216,14.9963994 18.1305158,15.1414476 17.6920639,15.3587178 C17.2898619,15.5399526 16.9243668,15.7935604 16.5953248,16.0473695 C16.2663335,16.2646398 15.9372915,16.5184489 15.6449563,16.7720567 C15.3159651,16.989478 15.0234268,17.2068992 14.6946387,17.4241695 C14.4021004,17.6054042 14.0732615,17.7864879 13.7075633,17.9313851 C13.3055644,18.0400957 12.9033624,18.1126198 12.5013635,18.1126198 C11.9530448,18.1126198 11.4046752,18.0039092 10.8930126,17.7864879 C10.3811468,17.5690667 9.94244103,17.2792723 9.57694595,16.8807673 C9.17494705,16.5184489 8.88261191,16.0473695 8.69973745,15.5399526 C8.48040993,15.0689235 8.40745307,14.52532 8.40745307,13.9817165 C8.40745307,13.4745009 8.48040993,12.9308974 8.69973745,12.4598684 C8.88261191,11.9525017 9.17494705,11.5176592 9.57694595,11.1190536 C9.94244103,10.7204479 10.3811468,10.4305529 10.8930126,10.2131317 C11.4046752,9.9957104 11.9530448,9.88699977 12.5013635,9.88699977 C12.9033624,9.88699977 13.3055644,9.95947352 13.7075633,10.0681842 C14.0732615,10.2131317 14.4021004,10.394316 14.6946387,10.5755004 C15.0234268,10.7929217 15.3159651,11.0103429 15.6449563,11.2640011 C15.9372915,11.4814223 16.2663335,11.7350805 16.5953248,11.9887386 C16.9243668,12.2062605 17.2898619,12.4598684 17.6920639,12.6409521 C18.1305158,12.8583733 18.5692216,13.0034718 19.0443805,13.1121825 C19.6292538,13.2570796 20.1776234,13.3296037 20.762446,13.3296037 C21.3106124,13.3296037 21.858982,13.2570796 22.3708477,13.1121825 C22.8825104,12.967084 23.3576692,12.7496627 23.8330819,12.4598684 C24.2715338,12.2062605 24.6737358,11.880028 25.0027779,11.4814223 C25.3682729,11.0828167 25.6241043,10.6479742 25.8434318,10.1768948 C26.0628101,9.66957851 26.2089776,9.16226223 26.2821376,8.61870908 C26.3552975,8.03942234 26.3552975,7.45912902 26.2456338,6.87933899 C26.13597,6.33578584 25.9530955,5.79223268 25.6972642,5.32115328 C25.4414329,4.85007388 25.1124416,4.45146824 24.7469465,4.08909947 C24.3447446,3.69099712 23.9427457,3.40059881 23.4673837,3.14744396 C22.9921741,2.9300227 22.4805115,2.74883832 21.9686457,2.64012769 C21.4569831,2.53141706 20.8721097,2.49467689 20.3239433,2.56765393 C19.8120775,2.64012769 19.2637587,2.78507519 18.7885491,3.03873333 C18.3498941,3.25615459 17.9111883,3.58228649 17.5823494,3.94465525 C17.2166512,4.30652073 16.9608199,4.74136325 16.7414924,5.21244265 C16.558821,5.68352205 16.4125011,6.19083833 16.3759973,6.6981546 C16.3759973,7.20547088 16.4125011,7.74902403 16.5953248,8.25634031 C16.5953248,8.32881406 16.6318286,8.40128782 16.6684847,8.47376157 C16.6684847,8.50999845 16.6684847,8.54623532 16.7049885,8.5824722 C16.7049885,8.61870908 16.7049885,8.65494595 16.7414924,8.69118283 C16.7414924,8.69118283 16.7781993,8.72741971 16.8146523,8.72741971 C16.8146523,8.72741971 16.8511561,8.69118283 16.8511561,8.65494595 C16.8511561,8.5824722 16.8511561,8.50999845 16.8511561,8.43752469 C16.8876599,8.14762968 16.9608199,7.89397154 17.0704836,7.6403134 C17.2898619,7.169234 17.6188532,6.77062836 18.0208521,6.48073334 C18.4595579,6.2275785 18.9714236,6.0821277 19.4830863,6.04589082 C20.0314558,6.00965394 20.5798254,6.0821277 21.0547811,6.33578584 C21.4934869,6.5532071 21.858982,6.91557587 22.1150164,7.35041839 C22.3708477,7.78526091 22.4805115,8.32881406 22.4805115,8.83613034 C22.4805115,9.34344661 22.3341408,9.88699977 22.0418057,10.3218423 C21.7859744,10.7566848 21.3837724,11.1190536 20.9086135,11.3727117 C20.4336578,11.590133 19.8852882,11.6988436 19.3734225,11.6263699 C19.0079274,11.590133 18.6423816,11.4814223 18.3133903,11.3364748 C17.9843483,11.1915273 17.655357,10.9741061 17.3630218,10.7566848 C17.0340306,10.5030267 16.7049885,10.2493685 16.4125011,9.9957104 C16.0834591,9.70581538 15.7546201,9.41592037 15.4256288,9.16226223 C15.0599307,8.87236722 14.6946387,8.61870908 14.2924367,8.43752469 C13.853934,8.18386656 13.4152282,8.00268217 12.9400693,7.85773466 C12.4282036,7.71278716 11.8798341,7.6403134 11.3316676,7.6403134 C10.7833488,7.6403134 10.2349793,7.67655028 9.68660971,7.82149779 C9.21145087,7.93020842 8.77294816,8.07515592 8.33424236,8.29257719 C7.96874728,8.50999845 7.6032522,8.76365659 7.23755403,9.0535516 C6.90871508,9.30720974 6.61617685,9.63334163 6.3236894,9.95947352 C6.03135426,10.2856054 5.77552293,10.6117373 5.51948853,10.9378692 C5.22715338,11.2640011 4.97132206,11.6263699 4.71528765,11.9525017 C4.42295251,12.2786336 4.16712118,12.568579 3.83812991,12.8947612 C3.54559169,13.1845556 3.25325655,13.4381634 2.88776147,13.6919725 C2.81455076,13.7281087 2.7415939,13.7642953 2.66843396,13.8006831 C2.63193014,13.8368193 2.55871943,13.8730059 2.52226638,13.9093938 C2.48576257,13.9093938 2.41260263,13.9455803 2.41260263,13.9817165 L2.41260263,13.9817165 L2.41260263,13.9817165 L2.41260263,13.9817165 L2.41260263,13.9817165 C2.41260263,14.0542909 2.48576257,14.0904775 2.52226638,14.126815 C2.55871943,14.126815 2.63193014,14.1630016 2.66843396,14.1991881 C2.7415939,14.2355256 2.81455076,14.2717122 2.88776147,14.3440853 C3.25325655,14.5615066 3.54559169,14.8153157 3.83812991,15.10511 C4.16712118,15.3950554 4.42295251,15.7212376 4.71528765,16.0473695 C4.97132206,16.3733504 5.22715338,16.7358702 5.51948853,17.0618511 C5.77552293,17.3879829 6.03135426,17.7141652 6.3236894,18.0400957 C6.61617685,18.366278 6.90871508,18.6924099 7.23755403,18.9460177 C7.6032522,19.2360133 7.96874728,19.4896211 8.33424236,19.7070424 C8.77294816,19.9244637 9.21145087,20.0693608 9.68660971,20.1781218 C10.2349793,20.32317 10.7833488,20.3593565 11.3316676,20.3593565 C11.8798341,20.3593565 12.4282036,20.2868324 12.9400693,20.1419353 C13.4152282,19.9970381 13.853934,19.815753 14.2924367,19.5983318 C14.6946387,19.3809105 15.0599307,19.1273027 15.4256288,18.837307 C15.7546201,18.5836992 16.0834591,18.2939049 16.4125011,18.0400957 C16.7049885,17.7503014 17.0340306,17.4966936 17.3630218,17.2430858 C17.655357,17.0256645 17.9843483,16.8082432 18.3133903,16.6633461 C18.6423816,16.5184489 19.0079274,16.4097383 19.3734225,16.3733504 C19.8852882,16.3009773 20.4336578,16.4097383 20.9086135,16.6271595 C21.3837724,16.8445808 21.7859744,17.2430858 22.0418057,17.6777773 C22.3341408,18.1126198 22.4805115,18.6562233 22.4805115,19.1634389 C22.4805115,19.7070424 22.3708477,20.2144593 22.1150164,20.6491509 C21.858982,21.0840437 21.4934869,21.4463622 21.0547811,21.6637834 C20.5798254,21.9175926 20.0314558,21.9899656 19.4830863,21.9537791 C18.9714236,21.9537791 18.4595579,21.7724941 18.0208521,21.5188863 C17.6188532,21.2290919 17.2898619,20.8303856 17.0704836,20.3593565 C16.9608199,20.1057487 16.8876599,19.8519396 16.8511561,19.5621452 C16.8511561,19.4896211 16.8511561,19.4172481 16.8511561,19.344724 C16.8511561,19.3085374 16.8146523,19.2721999 16.8146523,19.2721999 C16.7781993,19.2721999 16.7414924,19.3085374 16.7414924,19.3085374 C16.7049885,19.344724 16.7049885,19.3809105 16.7049885,19.4172481 C16.6684847,19.4534346 16.6684847,19.4896211 16.6684847,19.5258077 C16.6318286,19.5983318 16.5953248,19.6708559 16.5953248,19.743229 C16.4125011,20.2506459 16.3759973,20.7942494 16.3759973,21.301465 C16.4125011,21.8088819 16.558821,22.3160975 16.7414924,22.7871266 C16.9608199,23.258206 17.2166512,23.6930485 17.5823494,24.0554173 C17.9111883,24.4177357 18.3498941,24.7438676 18.7885491,24.9613392 C19.2637587,25.214947 19.8120775,25.3598442 20.3239433,25.4323683 C20.8721097,25.5048924 21.4569831,25.4685548 21.9686457,25.3598442 C22.4805115,25.2510833 22.9921741,25.0700499 23.4673837,24.8525783 C23.9427457,24.5989705 24.3447446,24.2728386 24.7469465,23.9103188 C25.1124416,23.5481514 25.4414329,23.1494954 25.6972642,22.678416 C25.9530955,22.2073869 26.13597,21.6637834 26.2456338,21.1203813 C26.3552975,20.5404402 26.3552975,19.9606502 26.2821376,19.3809105 C26.2089776,18.837307 26.0628101,18.3300914 25.8434318,17.8226745" id="path18" fill="#361D66"></path>
        <path d="M18.057559,13.9817165 L18.057559,13.9817165 L18.057559,13.9817165 L18.0208521,13.9455803 L18.0208521,13.9455803 C17.3630218,13.8006831 16.7781993,13.4381634 16.2663335,13.0757946 C15.6814602,12.6409521 15.1330906,12.2062605 14.5849241,11.8075542 C14.0001015,11.4089486 13.3420682,11.0828167 12.6475311,11.0465798 C12.0991616,11.0103429 11.514339,11.1190536 11.0391801,11.4089486 C10.6004743,11.6626067 10.2349793,12.0249755 9.97914793,12.4598684 C9.68660971,12.9308974 9.57694595,13.4745009 9.57694595,13.9817165 L9.57694595,13.9817165 C9.57694595,14.0181044 9.57694595,14.0181044 9.57694595,14.0181044 C9.57694595,14.52532 9.68660971,15.0689235 9.97914793,15.5399526 C10.2349793,15.9748454 10.6004743,16.3371638 11.0391801,16.5907717 C11.514339,16.8445808 12.0991616,16.989478 12.6475311,16.9532914 C13.3420682,16.9169539 14.0001015,16.5907717 14.5849241,16.1922667 C15.1330906,15.7935604 15.6814602,15.3587178 16.2663335,14.9240263 C16.7781993,14.5615066 17.3630218,14.1991881 18.0208521,14.0542909 L18.0208521,14.0542909 C18.0208521,14.0542909 18.057559,14.0181044 18.057559,13.9817165 L18.057559,13.9817165 L18.057559,13.9817165" id="path20" fill="#C60A8D"></path>
    </g>
</svg>