<?xml version="1.0" encoding="UTF-8"?>
<svg width="28px" height="28px" viewBox="0 0 28 28" version="1.1" xmlns="http://www.w3.org/2000/svg" xmlns:xlink="http://www.w3.org/1999/xlink">
    <title>TK</title>
    <g id="TK" stroke="none" stroke-width="1" fill="none" fill-rule="evenodd">
        <path d="M15.4645747,27.9228897 C22.507028,27.1894538 27.9981589,21.2402695 28.0000004,14.005048 C28.0036665,6.27321974 21.7377924,0.00275564116 14.0050465,9.0677691e-07 C6.27321848,-0.00275201286 0.00275463338,6.26312237 4.03151754e-07,13.9949507 C-0.00183507812,21.726779 6.26403906,27.997243 13.995867,28.0000009 C14.4906379,28.0000009 14.9808191,27.9733765 15.4645747,27.9228897 M16.1869953,0.977610402 C23.3799912,2.18562252 28.2303983,8.99491876 27.0214683,16.186079 C26.0163215,22.171063 21.1365402,26.533125 15.3819599,27.1362131 C14.219845,27.2573815 13.0200944,27.2243356 11.8102464,27.0223883 C10.3755026,26.7818874 9.03806069,26.3155727 7.81995125,25.6693413 C14.1592608,23.5186024 17.5684985,20.2507277 17.8044096,16.9011561 C17.9200704,14.833032 16.9599027,13.337704 15.6958962,12.1186765 L24.6605207,12.7447132 C24.9147907,12.7621541 24.9937337,12.4674946 24.687141,12.3793722 L3.30551103,6.24843529 C5.48195222,3.25043562 8.86181576,1.25666487 12.6152818,0.863785552 C13.7773968,0.741699221 14.9771474,0.772909261 16.1869953,0.977610402 M10.3048211,13.6929476 C11.4770334,18.0990708 10.1395914,22.7163208 6.93964459,25.1626371 C2.58125455,22.4042204 0.0688464789,17.2160103 0.976691413,11.8111658 C1.2759406,10.0248501 1.92400787,8.38356917 2.83552457,6.94423558 C6.24292638,7.89338796 9.23909005,9.68888317 10.3048211,13.6929476" id="path106" fill="#FFFFFF" fill-rule="nonzero" transform="translate(14.000000, 14.000000) scale(-1, 1) rotate(-180.000000) translate(-14.000000, -14.000000) "></path>
        <path d="M16.1869953,0.978770712 C23.3799912,2.18678283 28.2303983,8.99607907 27.0214683,16.1872393 C26.0163215,22.1722234 21.1365402,26.5342853 15.3819599,27.1373734 C14.219845,27.2585418 13.0200944,27.2254959 11.8102464,27.0235486 C10.3755026,26.7830477 9.03806069,26.316733 7.81995125,25.6705016 C14.1592608,23.5197627 17.5684985,20.251888 17.8044096,16.9023164 C17.9200704,14.8341923 16.9599027,13.3388643 15.6958962,12.1198368 L24.6605207,12.7458735 C24.9147907,12.7633144 24.9937337,12.4686549 24.687141,12.3805325 L3.30551103,6.2495956 C5.48195222,3.25159593 8.86181576,1.25782518 12.6152818,0.864945862 C13.7773968,0.742859532 14.9771474,0.774069571 16.1869953,0.978770712 M10.3048211,13.6941079 C11.4770334,18.1002312 10.1395914,22.7174811 6.93964459,25.1637974 C2.58125455,22.4053807 0.0688464789,17.2171706 0.976691413,11.8123262 C1.2759406,10.0260104 1.92400787,8.38472948 2.83552457,6.94539589 C6.24292638,7.89454827 9.23909005,9.69004348 10.3048211,13.6941079" id="path342" fill="#C70A0C" fill-rule="nonzero" transform="translate(13.999171, 14.000580) scale(-1, 1) rotate(-180.000000) translate(-13.999171, -14.000580) "></path>
    </g>
</svg>