<?xml version="1.0" encoding="UTF-8"?>
<svg width="28px" height="28px" viewBox="0 0 28 28" version="1.1" xmlns="http://www.w3.org/2000/svg" xmlns:xlink="http://www.w3.org/1999/xlink">
    <title>TN</title>
    <g id="TN" stroke="none" stroke-width="1" fill="none" fill-rule="evenodd">
        <path d="M18.8208359,0.500446907 C18.886246,0.496578651 18.9595568,0.518130363 18.9944667,0.55312887 C19.2485374,0.819559608 19.5966259,1.24258103 19.8682066,1.8313296 C20.5941674,3.40197048 20.2259964,4.95179646 20.0847032,5.51193835 C19.7560723,6.81419595 19.2867913,6.97144977 18.1200654,9.52982219 C17.8426418,10.1380594 17.634542,10.6449299 17.5029868,10.9730869 C17.5029868,10.9730869 17.0226999,11.9978616 16.6318376,12.4234987 C16.5546683,12.5073109 16.5164511,12.5494934 16.4574718,12.5970176 C16.3251632,12.7048499 16.2533223,12.7166389 16.1625565,12.8290025 C16.1087218,12.8973417 16.0754655,12.9660493 16.0717908,12.9752594 C16.038167,13.050672 16.0407393,13.1116431 16.0030734,13.1727983 C15.9570842,13.2501635 15.8747703,13.3048717 15.787863,13.3262392 C15.6711904,13.3547906 15.5118174,13.4211035 15.4151721,13.4971792 C15.3418429,13.5556636 15.2512609,13.6713429 15.2025708,13.7674967 C15.1000459,13.9734905 15.102067,14.1587063 15.158474,14.3828809 C15.201891,14.5576893 15.3309474,14.8039314 15.5130301,14.8689549 C15.6588617,14.9203475 15.7644733,14.8916119 15.9213842,14.9982652 C16.0250299,15.068999 16.027051,15.1249966 16.1119372,15.1509692 C16.2338095,15.1879939 16.2953795,15.0859457 16.4814126,15.0391582 C16.6602983,14.9943969 16.8488853,15.0249746 16.9837478,15.0918402 C17.0375826,15.1191021 17.0835167,15.1561269 17.1373514,15.2113877 C17.1873277,15.258212 17.2424486,15.3199199 17.3175968,15.4050215 C17.4602313,15.5662357 17.4899966,15.6272068 17.5807624,15.736439 C17.595645,15.7539382 17.6094253,15.7705165 17.6222868,15.7870947 C17.7843239,15.9573348 17.8984609,15.9905834 18.0584953,16.14384 C18.170648,16.2504197 18.2782624,16.3907821 18.4564866,16.8008172 C18.5757499,17.0749661 18.6672506,17.3290552 18.7352331,17.5428408 C19.4800084,19.0731782 20.9234413,21.4275093 20.8334105,24.0008206 C20.7659976,25.9320934 20.4386529,27.3019718 20.2247654,27.3883629 C19.4067527,27.7210697 18.5900446,27.2817832 17.8180579,26.4467557 C15.8676964,24.3367694 15.5118358,21.0928499 15.0049623,18.9055353 C14.953755,18.6832948 14.8779086,18.2596103 15.2318216,17.5415514 C15.3381315,17.326458 15.4586441,17.0989493 15.5345273,16.9976378 C15.577889,16.9403508 15.6019585,16.8917213 15.6440341,16.8279871 C15.7820201,16.6232827 15.8022311,16.405021 15.8040685,16.379601 C15.7949919,16.4029947 15.6841989,16.5888552 15.5616468,16.7415592 C15.3705426,16.9800464 15.3043975,17.0938284 15.2323728,17.1951399 C15.213448,17.2224019 15.1926858,17.2509533 15.1713723,17.2802415 C14.9652569,17.5577244 14.9172833,17.7981457 13.6118548,19.1647453 C13.3039678,19.4870447 12.4542055,20.3298825 12.130756,20.6183991 C11.5117482,21.1707492 11.3017375,21.3475101 11.0476485,21.5456937 C10.9212563,21.6451263 10.1674227,22.2319224 9.37404912,22.6945842 C8.5962196,23.148828 7.64404265,23.659493 5.80386785,23.7538048 C5.25614975,23.7817483 3.82820586,23.8161942 3.17030106,23.2073123 C3.02972437,23.0773389 2.94538938,22.9889585 2.95641356,22.7504713 C3.00242115,21.7335068 4.15814125,20.3480633 4.85946294,19.7892108 C5.11419504,19.5864773 5.40199968,19.2765011 7.0367021,18.3557088 C7.87933543,17.880687 7.90072235,17.8306391 9.68647443,17.0846367 C10.4999304,16.7447828 11.0690354,16.5101454 11.4851799,16.3399422 C12.4963363,15.8642756 12.7640401,15.741523 13.2248877,15.6446324 L13.2248877,15.6446324 L13.2713564,15.6343062 C13.370917,15.6107189 13.4210469,15.5880131 13.6870398,15.5101644 C13.8263119,15.4685346 13.8134504,15.3626918 13.8134504,15.3633549 C13.8160411,15.3756965 13.2759113,15.5064804 13.2612124,15.5101644 C13.2495451,15.5134801 11.5240769,15.8461501 9.12905505,15.4361149 C6.96736,15.0657018 4.73308907,14.4932183 2.91494427,13.2104494 C2.08203059,12.6223639 1.40661572,11.8848165 0.836867627,11.0426419 C0.411021858,10.4136082 -0.322067857,9.316055 0.156289765,8.54080123 C0.224345713,8.43096118 0.320347963,8.3491752 0.434999454,8.28801991 C0.766864073,8.10184628 1.27245142,8.0969649 1.75663349,8.0963202 C2.71660086,8.09503078 3.43210701,8.33123386 3.48079714,8.3478121 C5.20755148,8.93265557 6.5849495,9.7553231 8.28965548,10.6247965 C9.60287439,11.29476 10.618569,11.7425015 11.5305628,12.1440817 C12.4743063,12.5599745 13.0661027,12.7978354 13.4115822,12.9284351 C13.102409,12.794575 12.6642345,12.5723345 12.2338321,12.2311727 C11.8812237,11.9517373 11.6109291,11.6411163 11.3918602,11.3441632 C11.2200851,11.1134678 11.0794717,10.8912273 10.9556334,10.6982197 C10.8837924,10.5870534 10.8358373,10.5163196 10.7871471,10.451296 C10.5926989,10.1926571 10.4287877,10.0184934 10.3813837,9.96912713 C9.99897324,9.57143357 8.97743581,8.33611523 8.39602046,7.56476656 C7.97792837,7.00981918 7.70375696,6.6465531 7.50930877,6.33204547 C7.42047224,6.18908578 7.34863132,6.05655196 7.28763085,5.9213472 C7.0905736,5.48727362 6.6634233,4.54566642 6.80343041,3.49165876 C6.82952098,3.29476453 6.87490386,3.0939652 6.94545862,2.89121333 C7.0083332,2.71187361 7.43484042,1.48698113 8.28588888,1.37517011 C8.90750575,1.29329203 9.42799412,1.84694998 9.95043009,2.41878874 C10.3198872,2.82233995 10.8449138,3.48125131 12.3564761,6.94742974 C12.7771405,7.91176754 12.9780746,8.39719683 13.1952143,8.92355595 C13.5802338,9.85670825 13.6418222,10.0496974 13.9198889,10.6897832 C14.3528636,11.6859697 14.798755,12.6139275 14.9064245,12.7679209 C14.9239162,12.7516742 14.6919123,12.285752 14.5570498,11.724947 C14.3198645,10.7398127 14.4857969,9.88658592 14.6783158,9.10680077 C15.0490774,7.60505168 15.3796375,6.94092738 16.1146748,4.91281918 C16.1146748,4.91281918 17.2833483,1.68448323 18.5576703,0.622020667 C18.701591,0.501754746 18.8208359,0.500446907 18.8208359,0.500446907 Z M23.6834371,7.39463697 C25.0316394,7.27833141 26.6501546,7.98274083 26.755803,8.81646052 C26.8562701,9.60796096 25.5696378,10.3364088 24.026969,11.2104321 C21.0835675,12.8772267 18.0863865,13.6548567 18.085082,13.6511727 C18.085082,13.6511727 18.0630336,13.6591855 18.0630336,13.6585408 C18.0630336,13.6585408 17.9158975,13.6961181 17.6948627,13.8040609 C17.5360593,13.8813339 17.4141135,13.9651461 17.3325346,14.0275908 C17.4673603,13.954094 17.5847127,13.9034382 17.6708851,13.8702817 C17.838765,13.8052582 17.9807565,13.7855485 18.0902633,13.7708123 C18.3028647,13.7407873 18.7902989,13.6886579 19.1331877,13.7070782 L19.1331877,13.7070782 C20.0723928,13.7571076 21.5204375,13.8909677 23.3930234,14.6902599 C23.702858,14.8222043 23.8571231,14.8877804 23.9848198,14.9430412 C24.7159619,15.261454 25.6026736,15.6045683 26.538002,16.4148942 C26.738293,16.5883947 27.0811818,16.9789412 27.583517,17.7951248 L27.583517,17.7951248 C27.7600693,18.0812284 28.1574175,18.7752304 27.9331489,19.1878812 C27.3614532,20.0437789 24.8802222,19.3711628 24.6164136,19.2737196 C24.6164136,19.2737196 18.8625073,17.4672072 17.3924326,15.3045942 C17.3924326,15.3027522 17.3887579,15.2972261 17.3814084,15.288016 C17.3327918,15.2184795 17.1597305,14.989184 16.943877,14.9416597 C16.7701359,14.9029772 16.7306326,14.895609 16.7306326,14.895609 C16.6249842,14.861071 16.5931794,14.7682329 16.594484,14.7078144 C16.5963213,14.6169288 16.6327011,14.5493265 16.7078493,14.5005127 C16.8433916,14.4143059 16.9431605,14.4588829 17.0047121,14.4069378 C17.0607517,14.3601503 17.077288,14.2678648 17.0662638,14.2359977 C17.0352124,14.1508961 17.0280467,14.1529223 16.9975464,14.0657945 C16.9714559,13.9922976 17.0140827,13.9462469 16.9993838,13.893565 C16.969545,13.7896747 16.9144241,13.8493563 16.8036311,13.7434398 C16.7271232,13.6856186 16.6383786,13.4808957 16.5942819,13.4315294 C16.4626899,13.2872619 16.306514,13.298314 16.2649895,13.2268434 C16.1664701,13.0572296 16.5261157,12.7518031 16.6189025,12.6582282 C16.7122406,12.5653164 17.1095705,11.9239411 17.5373822,11.4541138 C18.1933394,10.7327946 18.4915068,10.649627 19.800169,9.63264412 C21.2631147,8.49545053 21.4971213,8.12829778 22.4395786,7.74230109 C22.8219891,7.58569198 23.182388,7.4381088 23.6834371,7.39463697 Z" id="Combined-Shape" fill="#2DCCD3" fill-rule="nonzero"></path>
    </g>
</svg>