<?xml version="1.0" encoding="UTF-8"?>
<svg width="28px" height="28px" viewBox="0 0 28 28" version="1.1" xmlns="http://www.w3.org/2000/svg" xmlns:xlink="http://www.w3.org/1999/xlink">
    <title>TO</title>
    <g id="TO" stroke="none" stroke-width="1" fill="none" fill-rule="evenodd">
        <path d="M27.9982426,14.002192 C27.9982426,6.20351388 21.8139024,-7.10542736e-15 13.9986819,-7.10542736e-15 C6.18346148,-7.10542736e-15 -9.59232693e-14,6.20439083 -9.59232693e-14,14.0039459 C-9.59232693e-14,21.801747 6.1860976,28 13.9995606,28 C21.8147811,28.0017531 27.9973639,21.801747 27.9973639,14.0039459 L28,14.002192 L27.9982426,14.002192 Z" id="Path" fill="#00D66C" fill-rule="nonzero"></path>
        <path d="M20.1839008,16.0226749 L19.3965793,16.0226749 C18.6092578,16.0226749 18.2735917,16.4418549 18.1593598,17.2547836 C17.960772,18.7429604 16.7815472,19.7505711 15.2350228,19.7505711 C13.4371881,19.7505711 12.2860819,18.4333986 12.2860819,16.5234109 L12.2860819,12.0369567 C12.2860819,11.8571828 12.2597207,11.6993326 12.2157853,11.5581443 C12.3844971,11.6344386 12.5865997,11.6739012 12.8185784,11.6739012 L16.9502589,11.6739012 C17.7393378,11.6739012 18.1874784,11.224028 18.1874784,10.4400386 L18.1874784,10.0761061 C18.1874784,9.2894858 17.7393378,8.84136655 16.9502589,8.84136655 L14.6199278,8.84136655 L14.6199278,6.31313209 C14.6199278,5.52914264 14.1682724,5.07926949 13.3827083,5.07926949 L12.8185784,5.07926949 C12.0330143,5.07926949 11.5831163,5.53001958 11.5831163,6.31313209 L11.5831163,10.4391616 C11.5831163,10.6163046 11.6059627,10.7750318 11.6534128,10.917097 C11.4829437,10.8416797 11.280841,10.8030941 11.0488624,10.8030941 L6.91718186,10.8030941 C6.13073906,10.8030941 5.67996234,11.2520903 5.67996234,12.0369567 L5.67996234,12.402643 C5.67996234,13.1883864 6.13073906,13.6373826 6.91718186,13.6373826 L9.25102777,13.6373826 L9.25102777,16.5225339 C9.25102777,20.1416888 11.583995,22.6672925 15.2385376,22.6672925 C18.6408913,22.6672925 20.8886239,20.5056213 21.3104033,17.2530297 C21.4211204,16.4392241 20.8868665,16.0217979 20.1830221,16.0217979 L20.1839008,16.0226749 Z" id="Path" fill="#FFFFFF" fill-rule="nonzero"></path>
    </g>
</svg>