<?xml version="1.0" encoding="UTF-8"?>
<svg width="28px" height="28px" viewBox="0 0 28 28" version="1.1" xmlns="http://www.w3.org/2000/svg" xmlns:xlink="http://www.w3.org/1999/xlink">
    <title>TP</title>
    <g id="TP" stroke="none" stroke-width="1" fill="none" fill-rule="evenodd">
        <path d="M14.5545143,6 L22.3972174,6 C25.4911035,6 28,8.55761589 28,11.7145695 C28,14.8701987 25.4911035,17.4284768 22.3972174,17.4284768 L19.0356803,17.4284768 L19.0356803,22 L14.5545143,22 L14.5545143,6 Z M19.0356803,10.5708609 L22.3972174,10.5708609 C23.0153321,10.5708609 23.5181714,11.0827815 23.5181714,11.7145695 C23.5181714,12.3450331 23.0153321,12.8569536 22.3972174,12.8569536 L19.0356803,12.8569536 L19.0356803,10.5715232 L19.0356803,10.5708609 Z" id="path961" fill="#ED1C24"></path>
        <path d="M3.34961202,22 L3.34961202,10.5708609 L2.77111667e-13,10.5708609 L2.77111667e-13,6 L14.5551772,6 L14.5551772,22 L13.6992241,19.0900662 L13.6992241,19.1430464 L8.67215611,19.1430464 L7.83077809,22 L3.34961202,22 Z M10.0163734,14.5715232 L12.3695819,14.5715232 L11.1923152,10.5715232 L10.0163734,14.5715232 Z" id="path968" fill="#BFD730"></path>
        <polygon id="path975" fill="#46A41A" points="3.34961289 22 7.83077897 22 7.83077897 10.5708609 11.1916535 10.5708609 11.1916535 6 7.83144147 6"></polygon>
        <polygon id="path982" fill="#BA141A" points="14.5545143 22 19.0356803 22 14.5545143 6"></polygon>
    </g>
</svg>