<?xml version="1.0" encoding="UTF-8"?>
<svg width="28px" height="28px" viewBox="0 0 28 28" version="1.1" xmlns="http://www.w3.org/2000/svg" xmlns:xlink="http://www.w3.org/1999/xlink">
    <title>TR</title>
    <g id="TR" stroke="none" stroke-width="1" fill="none" fill-rule="evenodd">
        <path d="M12.3575419,26.5 C19.1620112,26.5 24.7150838,20.9224684 24.7150838,14 C24.7150838,7.11708861 19.2011173,1.5 12.3575419,1.5 C5.55307263,1.5 4.97379915e-14,7.07753165 4.97379915e-14,14 C4.97379915e-14,20.9224684 5.51396648,26.5 12.3575419,26.5" id="path3341" fill="#FFE900" fill-rule="nonzero"></path>
        <path d="M26.0446927,9.68829114 L26.4357542,11.2705696 L27.6871508,10.9541139 L28,12.3781646 L26.7486034,12.6946203 L27.452514,15.5427215 L27.9608939,15.4240506 L28,16.4920886 L26.2011173,16.9272152 L25.2625698,13.0506329 L24.5643952,13.2385955 C24.6387835,13.4994674 24.6759777,13.7695122 24.6759777,14.039557 C24.6759777,15.3053797 23.7765363,16.8085443 21.8994413,16.8085443 C20.0223464,16.8085443 19.122905,15.3053797 19.122905,14.039557 L19.122905,14.039557 L19.1266104,13.8980217 C19.1908714,12.6644506 20.0918684,11.2705696 21.8994413,11.2705696 C22.6814127,11.2705696 23.301851,11.5320019 23.7607563,11.9360566 L24.9106145,11.6265823 L24.6759777,10.6376582 L26.0446927,9.68829114 Z M6.02234637,11.2705696 C6.72625698,11.2705696 7.89944134,11.5079114 8.01675978,12.8924051 L8.01675978,12.8924051 L6.49162011,12.8924051 C6.49162011,12.7737342 6.45251397,12.4968354 6.02234637,12.5363924 C5.70949721,12.5363924 5.59217877,12.7341772 5.59217877,12.8924051 C5.59217877,13.1297468 5.98324022,13.2879747 6.37430168,13.4066456 C7.23463687,13.6439873 8.17318436,13.9208861 8.17318436,15.028481 C8.17318436,16.1756329 7.19553073,16.8481013 6.06145251,16.8481013 C5.27932961,16.8481013 4.10614525,16.4920886 3.94972067,15.1075949 L3.94972067,15.1075949 L5.47486034,15.1075949 C5.55307263,15.5822785 5.98324022,15.5822785 6.06145251,15.5822785 C6.33519553,15.5822785 6.60893855,15.4240506 6.60893855,15.1867089 C6.60893855,14.8306962 6.21787709,14.7911392 5.24022346,14.3955696 C4.57541899,14.1977848 4.02793296,13.7626582 4.02793296,13.0506329 C4.02793296,11.943038 4.96648045,11.2705696 6.02234637,11.2705696 Z M16.3072626,11.2705696 C18.1843575,11.2705696 19.0837989,12.7737342 19.0837989,14.039557 C19.0837989,15.3053797 18.1843575,16.8085443 16.3072626,16.8085443 C14.4301676,16.8085443 13.5307263,15.3053797 13.5307263,14.039557 L13.5307263,14.039557 L13.5344316,13.8980217 C13.5986926,12.6644506 14.4996896,11.2705696 16.3072626,11.2705696 Z M10.8324022,11.2705696 C12.2011173,11.2705696 13.2960894,12.1803797 13.5698324,13.4462025 L13.5698324,13.4462025 L12.0055866,13.4462025 C11.8100559,13.0901899 11.4972067,12.6946203 10.9497207,12.7737342 C10.5977654,12.7341772 10.2849162,12.8924051 10.0502793,13.1297468 C9.81564246,13.3670886 9.69832402,13.7231013 9.69832402,14.0791139 C9.69832402,14.8306962 10.1675978,15.3844937 10.9106145,15.3844937 C11.5363128,15.3844937 11.849162,14.9889241 12.0055866,14.6724684 L12.0055866,14.6724684 L13.5698324,14.6724684 C13.2960894,15.8591772 12.2793296,16.8085443 10.8715084,16.8085443 C9.34636872,16.8085443 8.13407821,15.5822785 8.13407821,14.039557 C8.13407821,12.4968354 9.30726257,11.2705696 10.8324022,11.2705696 Z M21.8603352,12.7341772 C21.1564246,12.7341772 20.6089385,13.2879747 20.6089385,14.039557 L20.6089385,14.039557 L20.6156886,14.1780739 C20.6825681,14.8582007 21.237081,15.3449367 21.8603352,15.3449367 C22.5642458,15.3449367 23.1117318,14.7911392 23.1117318,14.039557 C23.1117318,13.2879747 22.5642458,12.7341772 21.8603352,12.7341772 Z M16.3072626,12.7341772 C15.603352,12.7341772 15.0558659,13.2879747 15.0558659,14.039557 L15.0558659,14.039557 L15.0626159,14.1780739 C15.1294955,14.8582007 15.6840084,15.3449367 16.3072626,15.3449367 C17.0111732,15.3449367 17.5586592,14.7911392 17.5586592,14.039557 C17.5586592,13.2879747 16.972067,12.7341772 16.3072626,12.7341772 Z" id="Combined-Shape" fill="#1D1D1B" fill-rule="nonzero"></path>
    </g>
</svg>