<?xml version="1.0" encoding="UTF-8"?>
<svg width="28px" height="28px" viewBox="0 0 28 28" version="1.1" xmlns="http://www.w3.org/2000/svg" xmlns:xlink="http://www.w3.org/1999/xlink">
    <title>TS</title>
    <g id="TS" stroke="none" stroke-width="1" fill="none" fill-rule="evenodd">
        <path d="M21.08564,0 C17.602949,1.10096111 14.3604435,4.01678222 11.0278685,7.20064272 C6.76457424,7.43868837 2.17114493,9.13512066 1.69077376,9.3434106 C6.58455514,11.8428899 7.75521971,13.0030053 7.75521971,13.0030053 C7.75521971,13.0030053 6.16378001,17.585503 5.86354803,20.5610736 C6.97440638,17.9425715 9.07615038,14.3127325 10.3371247,12.5869015 C8.5057096,11.128872 5.20324782,9.61133097 5.20324782,9.61133097 C5.20324782,9.61133097 7.8452893,8.48025709 13.1593955,8.21245574 C13.1593955,8.21245574 15.3812323,3.98726456 21.08564,0 Z M17.9930404,3.77873657 C17.5126692,4.82018627 16.6120633,7.05234029 16.4619473,8.7186598 C20.184824,9.01621686 22.7369159,9.84901955 22.7369159,9.84901955 C22.7369159,9.84901955 18.954113,11.2775315 16.8524891,12.9140953 C17.2427907,13.8365222 18.0832001,16.5144166 18.5635712,18.597316 C17.7529449,17.8534234 15.2908324,15.8600292 13.5194637,14.8185795 C11.1776542,15.7112506 4.66283024,22.0786146 1,28 C2.59122953,26.3634362 7.21459197,21.1563067 13.5194637,17.4070878 C14.8104612,18.1509805 20.785408,22.0488589 20.785408,22.0488589 C20.785408,22.0488589 19.4643873,15.1455352 18.9840161,13.5684828 C20.8454544,12.2889874 24.0277033,10.5632755 27,9.67060434 C22.8567986,8.00428482 17.7227115,7.58770494 17.7227115,7.58770494 C17.7227115,7.58770494 17.6027388,6.27821585 17.9930404,3.77873657 Z" id="XMLID_10_" fill="#3FBBEF" fill-rule="nonzero"></path>
    </g>
</svg>