<?xml version="1.0" encoding="UTF-8"?>
<svg width="28px" height="28px" viewBox="0 0 28 28" version="1.1" xmlns="http://www.w3.org/2000/svg" xmlns:xlink="http://www.w3.org/1999/xlink">
    <title>TU</title>
    <g id="TU" stroke="none" stroke-width="1" fill="none" fill-rule="evenodd">
        <path d="M6.73866465,6 L6.40839736,6.3875 L12.8652743,6.3875 L12.5137972,6 L6.73866465,6 Z M4.09652635,6.653125 L3.81776864,6.965625 L13.4258197,6.965625 L13.144032,6.653125 L4.09652635,6.653125 Z M3.85412834,7.2125 L4.26014501,7.615625 L8.8505573,7.615625 L9.24445406,7.2125 L3.85412834,7.2125 Z M14.3408722,7.88125 L5.5872741,7.8875 L5.90239152,8.215625 L14.6438697,8.215625 L14.3408722,7.88125 Z M6.00541067,8.459375 C6.00541067,8.459375 6.04903349,8.589584 6.05692025,8.675 C6.06875218,8.784821 6.05692015,8.9 6.05692025,8.9 L7.59917758,8.9 L8.01731414,8.459375 L6.00541067,8.459375 Z M6.00541067,9.128125 L5.75695271,9.478125 L15.8770696,9.478125 L15.5468023,9.128125 L6.00541067,9.128125 Z M5.52970458,9.690625 L5.11762796,10.09375 L6.58716589,10.09375 L6.87501353,9.690625 L5.52970458,9.690625 Z M4.84796018,10.365625 L4.57526242,10.684375 L17.03755,10.684375 L16.7557624,10.365625 L4.84796018,10.365625 Z M4.40558381,10.940625 C4.40558381,10.940625 4.31021096,11.0520841 4.25105508,11.1375 C4.19189736,11.226984 4.14197598,11.378125 4.14197598,11.378125 L6.14478952,11.378125 C6.14478952,11.378125 6.16051718,11.2269841 6.1841792,11.1375 C6.21178543,11.052084 6.23568878,10.940625 6.23568878,10.940625 L4.40558381,10.940625 Z M4.0298669,11.60625 C4.0298669,11.60625 3.99143906,11.6761412 3.94805757,11.765625 C3.90467608,11.851041 3.87533817,11.93125 3.87533817,11.93125 L18.2707499,11.93125 L17.9586625,11.60625 L4.0298669,11.60625 Z M3.78140894,12.184375 C3.78140894,12.184375 3.7232626,12.2992557 3.69959961,12.396875 C3.67199339,12.494494 3.64809003,12.60625 3.64809003,12.60625 L6.17508928,12.60625 C6.17508928,12.60625 6.16662377,12.5007427 6.15084948,12.403125 C6.13113088,12.309574 6.13266953,12.184375 6.13266962,12.184375 L3.78140894,12.184375 Z M3.59658046,12.85 C3.59658046,12.85 3.56084595,12.9323922 3.54507088,13.021875 C3.52535229,13.107292 3.5178011,13.1875 3.5178011,13.1875 L19.47365,13.1875 L19.1948923,12.85 L3.59658046,12.85 Z M3.50265123,13.440625 C3.50265123,13.440625 3.49144294,13.558631 3.48750135,13.65625 C3.47961275,13.753868 3.47538145,13.8625 3.47538145,13.8625 L6.73866465,13.8625 L6.43869711,13.440625 L3.50265123,13.440625 Z M3.4814414,14.11875 C3.4814414,14.11875 3.49053133,14.214286 3.49053133,14.2875 C3.49053133,14.356648 3.4935613,14.434375 3.4935613,14.434375 L20.70079,14.434375 L20.4371821,14.11875 L3.4814414,14.11875 Z M3.52689103,14.696875 C3.52689103,14.696875 3.53838554,14.8414677 3.55416081,14.91875 C3.56993607,15.000099 3.61173043,15.128125 3.61173033,15.128125 L8.51120009,15.128125 C8.51120009,15.128125 8.24662945,15.0063483 8.04155394,14.925 C7.83647844,14.847719 7.59917777,14.696875 7.59917758,14.696875 L3.52689103,14.696875 Z M13.8257764,14.70625 L13.4167298,15.128125 L16.307326,15.128125 L15.9043394,14.70625 L13.8257764,14.70625 Z M3.67838978,15.4 C3.67838978,15.4 3.69228908,15.478026 3.72383941,15.559375 C3.7593323,15.636656 3.78140894,15.696875 3.78140894,15.696875 L21.9551997,15.696875 L21.6309923,15.4 L3.67838978,15.4 Z M0.381776864,15.953125 L0.0363597013,16.340625 L17.5647657,16.340625 L17.9253328,15.953125 L0.381776864,15.953125 Z M0,16.628125 L0.299967536,16.946875 L23.1459799,16.946875 L22.8308625,16.628125 L0,16.628125 Z M4.59344227,17.2125 L4.89037983,17.58125 L18.6979764,17.58125 L18.3222595,17.2125 L4.59344227,17.2125 Z M0.536305595,17.21875 L0.893842658,17.56875 L2.13613245,17.56875 L1.76950546,17.21875 L0.536305595,17.21875 Z M1.22713992,17.89375 L1.53316741,18.196875 L2.72394762,18.196875 L2.47245969,17.89375 L1.22713992,17.89375 Z M5.22973704,17.903125 C5.22973704,17.903125 5.32477141,17.982751 5.41153555,18.04375 C5.49435325,18.104773 5.59636393,18.196875 5.59636403,18.196875 L24.3791797,18.196875 L24.109512,17.903125 L5.22973704,17.903125 Z M1.76950546,18.475 L2.1664322,18.853125 L3.39054215,18.853125 L3.01785521,18.475 L1.76950546,18.475 Z M6.00541067,18.475 C6.00541067,18.475 6.16729773,18.57271 6.34476788,18.65 C6.52618049,18.73134 6.84168409,18.853125 6.8416838,18.853125 L10.2928255,18.853125 L11.0594092,18.475 L6.00541067,18.475 Z M16.0831079,18.475 C16.0831079,18.475 16.1345234,18.553615 16.2133968,18.659375 C16.2883279,18.765125 16.3679255,18.85 16.3679255,18.85 L19.9432962,18.84688 L19.5675793,18.475 L16.0831079,18.475 L16.0831079,18.475 Z M2.43609999,19.159375 L2.73606753,19.453125 L3.94502759,19.453125 L3.64506006,19.159375 L2.43609999,19.159375 Z M16.6557732,19.159375 L17.0890596,19.459375 L25.5760199,19.459375 C25.5760199,19.459375 25.5236455,19.36975 25.4881506,19.325 C25.4526568,19.28433 25.3427128,19.159375 25.3427118,19.159375 L16.6557732,19.159375 Z M17.4314468,19.725 C17.4314468,19.725 17.5866504,19.831439 17.779894,19.925 C17.9770818,20.02262 18.3495293,20.134375 18.3495293,20.134375 L25.6790391,20.134375 C25.6790391,20.134375 25.5988189,20.02975 25.5396602,19.96875 C25.4805035,19.90773 25.2912013,19.725 25.2912023,19.725 L17.4314468,19.725 Z M3.00270533,19.73437 L3.3844822,20.118745 L4.61162212,20.118745 L4.21469538,19.73437 L3.00270533,19.73437 Z M3.64809003,20.39062 L3.89351802,20.681245 L5.13883779,20.681245 L4.86614003,20.39062 L3.64809003,20.39062 Z M22.4490856,20.424995 C22.4490856,20.424995 22.6601745,20.488995 22.9914511,20.549995 C23.3227258,20.611005 23.9095336,20.73437 23.9095336,20.73437 L26.8243697,20.73437 L26.5547019,20.424995 L22.4490856,20.424995 Z M4.1995455,20.978125 L4.61162212,21.384375 L5.15398766,21.384375 L5.15398766,20.978125 L4.1995455,20.978125 Z M24.8154962,21.00625 L25.4820907,21.421875 L26.8849692,21.421875 L26.5183422,21.00625 L24.8154962,21.00625 Z M4.83887025,21.65625 L5.16307759,21.975 L5.16307759,21.65625 L4.83887025,21.65625 Z M26.1426253,21.709375 C26.1426253,21.709375 26.2642606,21.785855 26.4062331,21.846875 C26.5521518,21.907885 26.8334596,22 26.8334596,22 L28,22 L27.7788118,21.709375 L26.1426253,21.709375 Z" id="path16213" fill="#D40000"></path>
    </g>
</svg>