<?xml version="1.0" encoding="UTF-8"?>
<svg width="28px" height="28px" viewBox="0 0 28 28" version="1.1" xmlns="http://www.w3.org/2000/svg" xmlns:xlink="http://www.w3.org/1999/xlink">
    <title>TX</title>
    <defs>
        <linearGradient x1="49.5752345%" y1="49.8598131%" x2="57.0297446%" y2="56.635514%" id="linearGradient-1">
            <stop stop-color="#55B031" offset="25%"></stop>
            <stop stop-color="#C5D300" offset="100%"></stop>
        </linearGradient>
        <linearGradient x1="49.3311074%" y1="49.2071006%" x2="66.9544914%" y2="65.739645%" id="linearGradient-2">
            <stop stop-color="#55B031" offset="25%"></stop>
            <stop stop-color="#C5D300" offset="100%"></stop>
        </linearGradient>
        <linearGradient x1="48.2560408%" y1="50.0087336%" x2="51.5930772%" y2="49.650655%" id="linearGradient-3">
            <stop stop-color="#55B031" offset="25%"></stop>
            <stop stop-color="#C5D300" offset="100%"></stop>
        </linearGradient>
        <linearGradient x1="50.519422%" y1="49.6244131%" x2="42.9947521%" y2="56.4319249%" id="linearGradient-4">
            <stop stop-color="#55B031" offset="25%"></stop>
            <stop stop-color="#C5D300" offset="100%"></stop>
        </linearGradient>
        <linearGradient x1="50.9397664%" y1="49.2071006%" x2="33.3163825%" y2="65.739645%" id="linearGradient-5">
            <stop stop-color="#55B031" offset="25%"></stop>
            <stop stop-color="#C5D300" offset="100%"></stop>
        </linearGradient>
        <linearGradient x1="51.782524%" y1="50.0087336%" x2="48.4462747%" y2="49.6550218%" id="linearGradient-6">
            <stop stop-color="#55B031" offset="25%"></stop>
            <stop stop-color="#C5D300" offset="100%"></stop>
        </linearGradient>
    </defs>
    <g id="TX" stroke="none" stroke-width="1" fill="none" fill-rule="evenodd">
        <path d="M2.75862069,20.3003096 C2.75862069,20.3003096 10.8965517,21.4582043 13.9310345,25 L15.5862069,23.8421053 C15.5862069,23.7739938 10.3448276,17.9845201 2.75862069,20.3003096 Z" id="Path" fill="#009FE3" fill-rule="nonzero"></path>
        <path d="M14.0689655,22.4798762 C14.0689655,22.4798762 19.5862069,18.3250774 25.2413793,20.5727554 C25.2413793,20.5727554 20.5517241,20.3003096 15.5862069,23.8421053 L14.0689655,22.4798762 Z" id="Path" fill="#F9B000" fill-rule="nonzero"></path>
        <path d="M15.9310345,18.7337461 L21.5862069,4.15789474 C21.5862069,4.15789474 22.137931,11.1733746 20.7586207,13.8297214 C20.7586207,13.8297214 20.137931,15.3962848 18.0689655,16.622291 C18.137931,16.622291 16.8275862,17.371517 15.9310345,18.7337461 Z" id="Path" fill="url(#linearGradient-1)" fill-rule="nonzero"></path>
        <path d="M19.5862069,15.1919505 L16.5517241,17.1671827 L16.6896552,16.8947368 L19.5862069,15.1919505 L19.5862069,15.1919505 Z M19.9310345,14.374613 L16.8965517,16.3498452 L17.0344828,16.0773994 C17.0344828,16.0092879 18.9655172,14.7832817 19.9310345,14.374613 Z M20.2758621,13.3529412 L17.2413793,15.3281734 L17.3793103,15.0557276 L20.2758621,13.3529412 L20.2758621,13.3529412 Z M20.6896552,12.2631579 L17.6551724,14.3065015 L17.7931034,14.0340557 L20.6896552,12.2631579 L20.6896552,12.2631579 Z M20.8275862,11.377709 L18,13.5572755 L18.137931,13.2848297 C18.0689655,13.2848297 19.3793103,12.2631579 20.8275862,11.377709 L20.8275862,11.377709 Z M20.8965517,10.628483 L18.3448276,12.6037152 L18.4827586,12.3312693 L20.8965517,10.628483 Z M20.6896552,9.94736842 L18.7586207,11.5820433 L18.8965517,11.3095975 C18.8965517,11.3095975 19.6551724,10.628483 20.6896552,9.94736842 Z M21.0344828,9.0619195 L19.1034483,10.6965944 L19.2413793,10.4241486 C19.2413793,10.3560372 20.0689655,9.6749226 21.0344828,9.0619195 Z M21.0344828,8.04024768 C21.0344828,8.04024768 19.862069,9.0619195 19.5862069,9.53869969 L19.7241379,9.26625387 C19.7241379,9.19814241 20.2068966,8.65325077 21.0344828,8.04024768 L21.0344828,8.04024768 Z M21.1724138,7.29102167 L19.9310345,8.51702786 L20.0689655,8.24458204 C20.0689655,8.24458204 20.2758621,7.97213622 21.1724138,7.29102167 Z" id="Shape" fill="#2BA937" fill-rule="nonzero"></path>
        <path d="M17.3793103,19.619195 L28,8.10835913 C28,8.10835913 25.9310345,14.8513932 23.7241379,16.8266254 C23.7241379,16.8266254 22.5517241,18.0526316 20.2068966,18.4613003 C20.2068966,18.4613003 18.6896552,18.5975232 17.3793103,19.619195 L17.3793103,19.619195 Z" id="Path" fill="url(#linearGradient-2)" fill-rule="nonzero"></path>
        <path d="M22.0689655,17.5758514 C22.0689655,17.5758514 18.9655172,18.0526316 18.5517241,18.3250774 L18.7586207,18.120743 L22.0689655,17.5758514 Z M22.6896552,16.9628483 C22.6896552,16.9628483 19.5862069,17.4396285 19.1724138,17.7120743 L19.3793103,17.5077399 L22.6896552,16.9628483 Z M23.4482759,16.1455108 C23.4482759,16.1455108 20.3448276,16.622291 19.9310345,16.8947368 L20.137931,16.6904025 L23.4482759,16.1455108 Z M24.2068966,15.2600619 C24.2068966,15.2600619 21.1034483,15.8049536 20.6206897,16.0773994 L20.8275862,15.873065 C20.8275862,15.9411765 23.1724138,15.3962848 24.2068966,15.2600619 Z M24.6206897,14.5108359 L21.1724138,15.5325077 L21.3793103,15.3281734 L24.6206897,14.5108359 Z M25.0344828,13.8297214 L21.9310345,14.7832817 L22.137931,14.5789474 C22.137931,14.5108359 23.862069,14.0340557 25.0344828,13.8297214 Z M25.0344828,13.1486068 C25.0344828,13.1486068 23.1034483,13.6934985 22.6206897,13.9659443 L22.8275862,13.7616099 C22.8275862,13.7616099 23.862069,13.3529412 25.0344828,13.1486068 Z M25.7241379,12.3993808 C25.7241379,12.3993808 23.7931034,12.9442724 23.3103448,13.2167183 L23.5172414,13.0123839 C23.5172414,13.0123839 24.6206897,12.6037152 25.7241379,12.3993808 L25.7241379,12.3993808 Z M26.0689655,11.4458204 L24.137931,12.2631579 L24.3448276,12.0588235 C24.4137931,12.0588235 25.1034483,11.7182663 26.0689655,11.4458204 L26.0689655,11.4458204 Z M26.4827586,10.7647059 C26.4827586,10.7647059 25.3103448,11.2414861 24.8965517,11.5139319 L25.1034483,11.3095975 C25.1034483,11.3095975 25.3793103,11.1733746 26.4827586,10.7647059 L26.4827586,10.7647059 Z M21.5862069,6.20123839 L20.3448276,7.42724458 L20.4827586,7.15479876 C20.4827586,7.15479876 20.6896552,7.01857585 21.5862069,6.20123839 L21.5862069,6.20123839 Z M21.4482759,5.52012384 C21.4482759,5.52012384 21.1724138,5.92879257 20.8275862,6.3374613 L20.9655172,6.06501548 C20.9655172,5.99690402 21.2413793,5.7244582 21.4482759,5.52012384 Z" id="Shape" fill="#2BA937" fill-rule="nonzero"></path>
        <path d="M14,18.5975232 L14,3 C14,3 17.0344828,9.33436533 16.7586207,12.3312693 C16.7586207,12.3312693 16.6896552,14.0340557 15.3103448,15.873065 C15.3103448,15.873065 14.2758621,16.9628483 14,18.5975232 Z" id="Path" fill="url(#linearGradient-3)" fill-rule="nonzero"></path>
        <path d="M16.0689655,13.9659443 C16.0689655,13.9659443 14.137931,16.3498452 14,16.8947368 L14,16.622291 C14,16.5541796 15.3793103,14.7151703 16.0689655,13.9659443 Z M16.0689655,13.0804954 C16.0689655,13.0804954 14.137931,15.4643963 14,16.0092879 L14,15.7368421 C14,15.6687307 15.3793103,13.8297214 16.0689655,13.0804954 L16.0689655,13.0804954 Z M16.0689655,11.9907121 C16.0689655,11.9907121 14.137931,14.374613 14,14.9195046 L14,14.6470588 L16.0689655,11.9907121 Z M16.0689655,10.9009288 L14,13.8978328 L14,13.625387 C14,13.5572755 15.3793103,11.5820433 16.0689655,10.9009288 L16.0689655,10.9009288 Z M15.862069,10.0154799 C15.862069,10.0154799 14.137931,12.5356037 14,13.0804954 L14,12.8080495 C14,12.7399381 14.8965517,11.3095975 15.862069,10.0154799 Z M15.6551724,9.26625387 L14,11.9907121 L14,11.7182663 L15.6551724,9.26625387 Z M15.2413793,8.72136223 L14,10.9009288 L14,10.628483 C14,10.628483 14.5517241,9.6749226 15.2413793,8.72136223 L15.2413793,8.72136223 Z M15.2413793,7.6996904 L14,9.87925697 L14,9.60681115 C14,9.60681115 14.5517241,8.65325077 15.2413793,7.6996904 L15.2413793,7.6996904 Z M14.8275862,6.81424149 C14.8275862,6.81424149 14.137931,8.17647059 14,8.72136223 L14,8.44891641 C14,8.38080495 14.2758621,7.63157895 14.8275862,6.81424149 L14.8275862,6.81424149 Z M14.6896552,5.99690402 C14.6896552,5.99690402 14.137931,7.08668731 14,7.63157895 L14,7.35913313 C14,7.35913313 14.137931,7.01857585 14.6896552,5.99690402 Z M14.6896552,4.83900929 C14.6896552,4.83900929 14.137931,5.92879257 14,6.47368421 L14,6.20123839 C14,6.20123839 14.137931,5.99690402 14.6896552,4.83900929 L14.6896552,4.83900929 Z M14.2758621,4.29411765 L14,5.24767802 L14,4.9752322 C14,4.90712074 14.2068966,4.56656347 14.2758621,4.29411765 Z" id="Shape" fill="#2BA937" fill-rule="nonzero"></path>
        <path d="M12.0689655,18.7337461 L6.4137931,4.22600619 C6.4137931,4.22600619 5.86206897,11.2414861 7.24137931,13.8978328 C7.24137931,13.8978328 7.86206897,15.4643963 9.93103448,16.6904025 C9.86206897,16.622291 11.2413793,17.371517 12.0689655,18.7337461 Z" id="Path" fill="url(#linearGradient-4)" fill-rule="nonzero"></path>
        <path d="M8.4137931,15.1919505 L11.4482759,17.1671827 L11.3103448,16.8947368 C11.3103448,16.8947368 9.37931034,15.6006192 8.4137931,15.1919505 L8.4137931,15.1919505 Z M8.13793103,14.374613 L11.1724138,16.3498452 L11.0344828,16.0092879 L8.13793103,14.374613 L8.13793103,14.374613 Z M7.72413793,13.3529412 L10.7586207,15.3281734 L10.6206897,15.0557276 L7.72413793,13.3529412 Z M7.37931034,12.2631579 L10.4137931,14.3065015 L10.2758621,14.0340557 C10.2068966,14.0340557 8.27586207,12.7399381 7.37931034,12.2631579 L7.37931034,12.2631579 Z M7.17241379,11.377709 C7.17241379,11.377709 9.72413793,13.1486068 10,13.5572755 L9.86206897,13.2848297 C9.93103448,13.2848297 8.62068966,12.2631579 7.17241379,11.377709 L7.17241379,11.377709 Z M7.10344828,10.628483 L9.65517241,12.6037152 L9.51724138,12.3312693 C9.5862069,12.3312693 8.13793103,11.2414861 7.10344828,10.628483 L7.10344828,10.628483 Z M7.37931034,9.94736842 L9.31034483,11.5820433 L9.17241379,11.3095975 L7.37931034,9.94736842 L7.37931034,9.94736842 Z M6.96551724,9.0619195 L8.89655172,10.6965944 L8.75862069,10.4241486 C8.82758621,10.3560372 7.93103448,9.6749226 6.96551724,9.0619195 Z M6.96551724,8.04024768 C6.96551724,8.04024768 8.13793103,9.0619195 8.4137931,9.53869969 L8.27586207,9.26625387 C8.34482759,9.19814241 7.86206897,8.65325077 6.96551724,8.04024768 L6.96551724,8.04024768 Z M6.82758621,7.29102167 L8.06896552,8.51702786 L7.93103448,8.24458204 C8,8.24458204 7.72413793,7.97213622 6.82758621,7.29102167 L6.82758621,7.29102167 Z" id="Shape" fill="#2BA937" fill-rule="nonzero"></path>
        <path d="M10.6206897,19.619195 L-1.25233157e-13,8.10835913 C-1.25233157e-13,8.10835913 2.06896552,14.8513932 4.27586207,16.8266254 C4.27586207,16.8266254 5.44827586,18.0526316 7.79310345,18.4613003 C7.79310345,18.4613003 9.31034483,18.5975232 10.6206897,19.619195 Z" id="Path" fill="url(#linearGradient-5)" fill-rule="nonzero"></path>
        <path d="M5.93103448,17.5758514 C5.93103448,17.5758514 9.03448276,18.0526316 9.44827586,18.3250774 L9.24137931,18.120743 L5.93103448,17.5758514 L5.93103448,17.5758514 Z M5.31034483,16.9628483 C5.31034483,16.9628483 8.4137931,17.4396285 8.82758621,17.7120743 L8.62068966,17.5077399 L5.31034483,16.9628483 Z M4.62068966,16.1455108 C4.62068966,16.1455108 7.72413793,16.622291 8.13793103,16.8947368 L7.93103448,16.6904025 L4.62068966,16.1455108 Z M3.86206897,15.2600619 C3.86206897,15.2600619 6.96551724,15.8049536 7.44827586,16.0773994 L7.17241379,15.9411765 L3.86206897,15.2600619 Z M3.37931034,14.5108359 L6.82758621,15.5325077 L6.62068966,15.3281734 L3.37931034,14.5108359 L3.37931034,14.5108359 Z M3.03448276,13.8297214 L6.13793103,14.7832817 L5.93103448,14.5789474 C5.93103448,14.5108359 4.20689655,14.0340557 3.03448276,13.8297214 L3.03448276,13.8297214 Z M3.03448276,13.1486068 C3.03448276,13.1486068 4.96551724,13.6934985 5.44827586,13.9659443 L5.24137931,13.7616099 C5.17241379,13.7616099 4.20689655,13.3529412 3.03448276,13.1486068 Z M2.34482759,12.3993808 C2.34482759,12.3993808 4.27586207,12.9442724 4.75862069,13.2167183 L4.55172414,13.0123839 C4.48275862,13.0123839 3.44827586,12.6037152 2.34482759,12.3993808 L2.34482759,12.3993808 Z M1.93103448,11.4458204 L3.86206897,12.2631579 L3.65517241,12.0588235 C3.65517241,12.0588235 2.96551724,11.7182663 1.93103448,11.4458204 Z M1.51724138,10.7647059 C1.51724138,10.7647059 2.68965517,11.2414861 3.10344828,11.5139319 L2.89655172,11.3095975 C2.96551724,11.3095975 2.62068966,11.1733746 1.51724138,10.7647059 L1.51724138,10.7647059 Z M6.4137931,6.20123839 L7.65517241,7.42724458 L7.51724138,7.15479876 C7.51724138,7.15479876 7.31034483,7.01857585 6.4137931,6.20123839 L6.4137931,6.20123839 Z M6.62068966,5.52012384 C6.81445972,5.80205585 7.02158641,6.07480472 7.24137931,6.3374613 L7.10344828,6.06501548 C7.10344828,5.99690402 6.75862069,5.7244582 6.62068966,5.52012384 L6.62068966,5.52012384 Z" id="Shape" fill="#2BA937" fill-rule="nonzero"></path>
        <path d="M14,18.5975232 L14,3 C14,3 10.9655172,9.33436533 11.2413793,12.3312693 C11.2413793,12.3312693 11.3103448,14.0340557 12.6896552,15.873065 C12.7586207,15.873065 13.7241379,16.9628483 14,18.5975232 Z" id="Path" fill="url(#linearGradient-6)" fill-rule="nonzero"></path>
        <path d="M11.9310345,13.9659443 C11.9310345,13.9659443 13.862069,16.3498452 14,16.8947368 L14,16.622291 C14,16.5541796 12.6206897,14.7151703 11.9310345,13.9659443 Z M11.9310345,13.0804954 C11.9310345,13.0804954 13.862069,15.4643963 14,16.0092879 L14,15.7368421 C14,15.6687307 12.6206897,13.8297214 11.9310345,13.0804954 L11.9310345,13.0804954 Z M11.9310345,11.9907121 C11.9310345,11.9907121 13.862069,14.374613 14,14.9195046 L14,14.6470588 L11.9310345,11.9907121 Z M12,10.9009288 L14.0689655,13.8978328 L14.0689655,13.625387 C14,13.5572755 12.6896552,11.5820433 12,10.9009288 L12,10.9009288 Z M12.137931,10.0154799 C12.137931,10.0154799 13.862069,12.5356037 14,13.0804954 L14,12.8080495 C14,12.7399381 13.1724138,11.3095975 12.137931,10.0154799 Z M12.3448276,9.26625387 L14,11.9907121 L14,11.7182663 C14,11.7182663 13.1034483,10.1517028 12.3448276,9.26625387 Z M12.8275862,8.72136223 L14.0689655,10.9009288 L14.0689655,10.628483 C14,10.628483 13.5172414,9.6749226 12.8275862,8.72136223 L12.8275862,8.72136223 Z M12.8275862,7.6996904 L14.0689655,9.87925697 L14.0689655,9.60681115 C14,9.60681115 13.5172414,8.65325077 12.8275862,7.6996904 L12.8275862,7.6996904 Z M13.1724138,6.81424149 C13.1724138,6.81424149 13.862069,8.17647059 14,8.72136223 L14,8.44891641 C14,8.38080495 13.7241379,7.63157895 13.1724138,6.81424149 L13.1724138,6.81424149 Z M13.3103448,5.99690402 C13.3103448,5.99690402 13.862069,7.08668731 14,7.63157895 L14,7.35913313 C14,7.35913313 13.9310345,7.01857585 13.3103448,5.99690402 Z M13.3103448,4.83900929 C13.3103448,4.83900929 13.862069,5.92879257 14,6.47368421 L14,6.20123839 C14,6.20123839 13.862069,5.99690402 13.3103448,4.83900929 L13.3103448,4.83900929 Z M13.7241379,4.29411765 L14,5.24767802 L14,4.9752322 C14,4.90712074 13.7931034,4.56656347 13.7241379,4.29411765 Z" id="Shape" fill="#2BA937" fill-rule="nonzero"></path>
    </g>
</svg>