<?xml version="1.0" encoding="UTF-8"?>
<svg width="28px" height="28px" viewBox="0 0 28 28" version="1.1" xmlns="http://www.w3.org/2000/svg" xmlns:xlink="http://www.w3.org/1999/xlink">
    <title>U2</title>
    <g id="U2" stroke="none" stroke-width="1" fill="none" fill-rule="evenodd">
        <path d="M25.3333333,14.9 L12.4266667,14.9 C11.84,14.9 11.5733333,15.1571429 11.5733333,15.62 C11.5733333,16.7514286 12.2133333,17.8314286 13.4933333,18.86 C14.7733333,19.8885714 16.16,20.4028571 17.6533333,20.4028571 C18.5066667,20.4028571 19.52,20.2485714 20.5866667,19.94 C21.6533333,19.6314286 22.56,19.22 23.2533333,18.7571429 C23.8933333,18.3457143 24.3733333,18.14 24.7466667,18.14 C25.2266667,18.14 25.7066667,18.3971429 26.1333333,18.9628571 C26.6133333,19.5285714 26.8266667,20.0942857 26.8266667,20.7114286 C26.8266667,21.9971429 26.0266667,23.18 24.3733333,24.3628571 C21.4933333,26.4714286 18.1333333,27.5 14.3466667,27.5 C10.5066667,27.5 7.30666667,26.42 4.69333333,24.26 C3.41333333,23.18 2.4,21.9457143 1.6,20.4542857 C0.533333333,18.4485714 0,16.3914286 0,14.18 C0,11.2485714 0.906666667,8.57428571 2.77333333,6.20857143 C4.37333333,4.15142857 6.4,2.66 8.90666667,1.63142857 C10.7733333,0.86 12.8,0.5 14.9333333,0.5 C18.4,0.5 21.3333333,1.42571429 23.7866667,3.32857143 C25.0133333,4.25428571 25.9733333,5.38571429 26.72,6.72285714 C27.5733333,8.21428571 28,9.65428571 28,11.0428571 C28,12.1742857 27.7333333,13.1 27.2533333,13.8714286 C26.72,14.54 26.08,14.9 25.3333333,14.9 Z M13.1733333,9.96285714 L15.9466667,9.96285714 C17.12,9.96285714 17.7066667,9.44857143 17.7066667,8.42 C17.7066667,7.49428571 17.44,6.67142857 16.8533333,6.10571429 C16.2666667,5.48857143 15.5733333,5.23142857 14.6133333,5.23142857 C13.6,5.23142857 12.8,5.64285714 12.2133333,6.41428571 C11.68,7.13428571 11.4133333,7.85428571 11.4133333,8.62571429 C11.4133333,9.14 11.52,9.5 11.7866667,9.75714286 C12.0533333,9.86 12.48,9.96285714 13.1733333,9.96285714 Z" id="Combined-Shape" fill="#FF6600" fill-rule="nonzero"></path>
    </g>
</svg>