<?xml version="1.0" encoding="UTF-8"?>
<svg width="28px" height="28px" viewBox="0 0 28 28" version="1.1" xmlns="http://www.w3.org/2000/svg" xmlns:xlink="http://www.w3.org/1999/xlink">
    <title>U6</title>
    <g id="U6" stroke="none" stroke-width="1" fill="none" fill-rule="evenodd">
        <path d="M11.8347671,10.7919747 C9.75378208,12.2514028 7.58403029,14.0746552 5.686846,15.7840406 C7.73193307,17.5258967 13.400414,17.9564099 18.5123479,17.9564099 C18.921102,17.9564099 19.3275015,17.9539833 19.7272356,17.9486079 L19.7272356,17.9486079 L19.4856315,17.6346261 C17.734593,15.421979 14.7210272,12.927737 11.8345853,10.7917382 Z M13.3895631,9.76341922 L13.8990969,10.0327052 C18.6262173,12.5580578 22.6238339,15.3325829 24.8301997,17.7663533 L24.8302252,17.7662285 L25.0668781,17.7525712 C26.8516378,17.6477346 28,17.541252 28,17.541252 C27.0907906,17.8008082 26.1764708,18.0413109 25.260991,18.2647751 C25.0064269,18.3266774 24.7518226,18.387215 24.4972328,18.4463447 L25.2609001,18.265116 C26.7058295,20.0267199 27.132219,21.5809859 26.1093589,22.6860199 C23.4177948,25.5960451 15.0389919,24.9356356 15.0389919,24.9356356 C15.0389919,24.9356356 21.4618256,23.6750982 20.969992,20.4721123 C20.9112071,20.0889212 20.7669882,19.6800049 20.5510517,19.2511227 L20.5512837,19.2511227 L20.5509702,19.2511227 L19.7808049,19.381667 C16.4533214,19.9273269 13.2542526,20.209168 10.4343386,20.209168 C7.03069362,20.209168 4.17867031,19.7982121 2.32263858,18.9439033 L2.32263858,18.9439033 L2.15127273,19.111597 C0.915637283,20.3232283 0.147597717,21.1300706 0.147597717,21.1300706 C0.679013106,20.3026389 1.23232469,19.4834609 1.80214621,18.677531 C2.20172669,18.1118826 2.60938092,17.5526385 3.02349064,17.0014576 L2.40752045,17.8339215 L2.40752045,17.8339215 L1.80214621,18.677531 C0.758129728,18.0831625 0.124992968,17.3127718 0.0183932361,16.355178 C-0.431510243,12.3213049 7.52142987,8.60100641 7.52142987,8.60100641 C7.52142987,8.60100641 4.32705591,12.1491715 4.92509731,14.5811677 L4.92509731,14.5811677 L5.45556698,13.9435377 C6.87499633,12.2578176 8.33078752,10.6914925 9.76566133,9.30173157 C10.0999514,9.53633051 10.4412651,9.77863321 10.7869876,10.0274152 L10.2720107,9.65893918 L10.2720107,9.65893918 L9.76567073,9.30120938 L9.51406389,9.12541531 C6.59503854,7.08838225 4.2661485,5.67080032 4.2661485,5.67080032 C6.44667595,6.49132069 8.61779782,7.42203728 10.7019181,8.41764295 L10.7019181,8.41764295 C14.298237,5.10829349 17.6841204,2.999699 19.9483075,3 C20.7481708,3 21.408521,3.2633713 21.8882089,3.82971081 C24.913668,7.40283319 21.525702,14.5091708 21.525702,14.5091708 C21.525702,14.5091708 21.5088974,8.09227917 18.2055786,7.944071 C18.1589457,7.94170581 18.1121623,7.94047714 18.0647425,7.94047714 C16.8161484,7.94047714 15.1736516,8.6611221 13.3901212,9.76308441 C13.0981573,9.61014074 12.8037375,9.45830083 12.5070765,9.3076252 L13.3895631,9.76341922 L13.3895631,9.76341922 Z" id="Combined-Shape" fill="#A20A29" fill-rule="nonzero"></path>
    </g>
</svg>