<?xml version="1.0" encoding="UTF-8"?>
<svg width="28px" height="28px" viewBox="0 0 28 28" version="1.1" xmlns="http://www.w3.org/2000/svg" xmlns:xlink="http://www.w3.org/1999/xlink">
    <title>U8</title>
    <g id="U8" stroke="none" stroke-width="1" fill="none" fill-rule="evenodd">
        <path d="M20.3164138,1.50494617 C23.1368516,2.92468015 25.4473369,5.33139496 26.7509097,8.2109929 C28.0826327,11.1198749 28.3587216,14.4918787 27.5347857,17.5818879 C26.760654,20.5395766 24.9741963,23.2141862 22.5554408,25.0764347 C20.2460382,26.8736075 17.3606383,27.9104797 14.4362612,27.9918242 C11.3256593,28.1002837 8.19015534,27.126318 5.69019724,25.2673233 C3.14909647,23.3996519 1.2662783,20.6491206 0.466161785,17.5938184 C-0.302556386,14.7001208 -0.118497105,11.558051 1.0031818,8.78148952 C2.11403369,5.99516669 4.1549263,3.59604404 6.7133503,2.03965118 C8.38720704,1.01796332 10.2786868,0.354191591 12.2243017,0.111242461 C14.9797774,-0.239081506 17.8391924,0.241393781 20.3164138,1.50494617 Z M12.3347373,1.30104244 C9.45799897,1.66329694 6.72850812,3.05266228 4.73092358,5.15677527 C2.72684283,7.24245017 1.46657811,10.028773 1.23596266,12.9159631 C0.984775874,15.8074916 1.75132864,18.7771108 3.38837353,21.1740643 C5.10445565,23.7217764 7.76248819,25.6165627 10.7355869,26.38554 C13.7335878,27.1805477 17.0185046,26.8389005 19.7826419,25.4256741 C22.5327041,24.0406471 24.7500771,21.6274247 25.8901619,18.7630111 C27.0129235,15.9842804 27.1082012,12.8075037 26.1597546,9.96478193 C25.2015636,7.04722319 23.1444305,4.51578003 20.4993904,2.96481014 C18.0643944,1.51687671 15.1410999,0.932280367 12.3347373,1.30104244 Z M24.6981074,18.4257023 C24.4458379,18.8411019 24.274771,19.2988007 24.0225015,19.7142003 C22.6312299,22.1599605 20.3185792,24.0612544 17.6497196,24.9430296 C15.1930696,25.7651521 12.4581652,25.7326143 10.0275,24.8302318 C7.0414089,23.7543142 4.56743563,21.3747143 3.34723087,18.4430558 C10.1119508,18.445225 16.8777534,18.4430558 23.643556,18.4441404 C23.9943513,18.4408866 24.347312,18.4636631 24.6981074,18.4257023 Z M15.536286,2.56784861 C18.4812345,2.94745663 21.2421237,4.53204894 23.0718895,6.8726035 C24.5108,8.6882144 25.3769613,10.9495936 25.5155471,13.2630333 C25.6259827,14.9875383 25.345563,16.7359043 24.6937766,18.3367655 L24.830197,18.3562882 C24.6861977,18.3573728 24.5421983,18.3584574 24.3992817,18.359542 L24.5237924,18.3259196 C21.5972499,15.0753904 18.6901959,11.8064231 15.7733977,8.54721714 C14.2229689,10.443088 12.6779537,12.3432973 11.1286076,14.2402528 C11.2726069,15.1155204 11.4220198,15.9897034 11.5671018,16.864971 C10.3674684,15.6100954 9.17108304,14.3530506 7.97361501,13.0970903 C6.42643436,14.8769096 4.88466721,16.6599827 3.33423845,18.4365482 C2.28293515,15.881244 2.17033418,12.9485009 3.05598413,10.3292056 C3.96761892,7.579759 5.96303805,5.21751256 8.51063503,3.84875451 C10.6392265,2.69040777 13.1370192,2.2446395 15.536286,2.56784861 Z" id="Combined-Shape" fill="#F28B08" fill-rule="nonzero"></path>
    </g>
</svg>