<?xml version="1.0" encoding="UTF-8"?>
<svg width="28px" height="28px" viewBox="0 0 28 28" version="1.1" xmlns="http://www.w3.org/2000/svg" xmlns:xlink="http://www.w3.org/1999/xlink">
    <title>UA</title>
    <g id="UA" stroke="none" stroke-width="1" fill="none" fill-rule="evenodd">
        <path d="M28,0 L28,27.9952344 L22.2001385,27.9952344 C23.4284326,24.7781465 23.7019917,20.7992511 22.8340199,17.3112076 C21.7887791,12.8819675 18.8898691,8.66990043 14.780358,6.0696111 C10.8967713,3.59560888 5.96420109,2.62479789 1.11567205,3.62284061 L0.000680495303,3.89754063 L0.000680495303,0 L28,0 Z M2.5069447,3.74674496 L3.12551493,3.81754744 L3.21329882,3.77397668 C4.02615046,3.71406689 4.88357454,3.7426602 5.64198656,3.90979491 C5.39360577,3.97821462 4.96557423,4.11743681 4.6661563,4.24134116 C4.83662037,4.30533572 5.05301788,4.41392222 5.20068536,4.50957365 C5.52255963,4.39213684 6.19897197,4.21274785 6.52833169,4.14705131 C6.82298616,4.23317164 7.57935669,4.58343971 8.0485582,4.92689984 C7.49123255,4.98612884 6.73384127,5.09573653 6.12309674,5.2373415 C6.26736174,5.36328823 6.38951065,5.51272232 6.49873015,5.67577227 C7.09076106,5.56786656 7.95703158,5.46847077 8.70659716,5.43987746 C9.08495255,5.76733895 9.39559865,6.16253936 9.6058717,6.57169603 C8.78213214,6.51689218 7.68755544,6.53050804 7.01692732,6.60335291 C7.08599759,6.72351289 7.18092669,7.03021019 7.22141616,7.21402434 C8.05468266,7.1786231 9.41261104,7.24023487 9.98252585,7.32295124 C10.1693218,7.77159391 10.2768401,8.25665901 10.3200515,8.76316909 C9.36905934,8.57561059 8.24862382,8.41766658 7.37350686,8.37545741 C7.38303379,8.65696536 7.37146537,8.92621905 7.34560655,9.19002638 C8.38642412,9.29827249 9.3959389,9.48651179 10.3721094,9.73840524 C10.3588398,10.2347034 10.286367,10.8528636 10.1560522,11.3307804 C9.3816485,11.054038 8.14246655,10.6870905 7.09484403,10.4743426 C6.99004776,10.9042635 6.85020597,11.3277168 6.66579174,11.7334695 C7.69163841,12.0765892 8.70421543,12.5231895 9.67358099,13.0041699 C9.51400484,13.4640456 9.28263643,13.9797464 9.06828041,14.3616713 C8.09721361,13.8156753 7.09722577,13.2815931 6.10812584,12.8591609 C5.80836766,13.4065186 5.42763054,13.9906391 5.07003026,14.4702579 C6.0349726,15.0571015 6.94581556,15.6929623 7.85121456,16.375117 C7.57969694,16.7730406 7.18943288,17.2502766 6.95500225,17.5345077 C6.08669024,16.8121862 4.30515354,15.3940941 4.30515354,15.3940941 C3.78117215,16.0251893 3.333066,16.496979 2.6726453,17.008595 C3.40383751,17.7567867 4.36027366,18.8266531 4.95774853,19.567356 C4.65016466,19.8900519 4.34836499,20.1463705 3.98464025,20.3972428 C3.25923226,19.5060846 2.38649703,18.379372 1.87850728,17.6723683 C1.16534821,18.2319803 0.729831213,18.5352736 0.00102074296,18.9117522 L0.00102074296,19.9594928 L1.15854325,22.275551 C0.895872067,22.4440473 0.681856294,22.5465067 0.344670871,22.691856 L0.000680495303,22.0165092 L0.000680495303,23.2337673 C4.46438944,21.250617 9.00805658,16.8772019 10.328898,12.1283295 C10.8127301,10.4869373 10.8967713,8.37477661 10.1060358,6.84469407 C9.64193795,5.83814143 8.70421543,4.89932772 7.70831055,4.38907327 C6.21870633,3.56599438 4.26126159,3.4458344 2.5069447,3.74674496 Z M7.60861799,3.92987831 L7.71341426,3.91183729 C8.66678818,4.0697813 9.57763115,4.38771168 10.3952463,4.83363118 C9.95156332,4.83737554 9.49290948,4.83056761 9.04990704,4.86733044 C9.23466151,5.03242277 9.43030391,5.22610842 9.59090081,5.40413582 C10.1904172,5.39256234 10.7712199,5.4054974 11.342836,5.44328142 C11.910369,5.85992681 12.4870888,6.41783678 12.8096436,6.99344737 C12.1461607,6.84094971 11.2346372,6.71057782 10.4211051,6.64011573 C10.5265818,6.88213769 10.6341001,7.13164837 10.7235852,7.39034976 C11.6276232,7.52310442 12.5224746,7.68819675 13.3945293,7.90877372 C13.6820386,8.50412731 13.9004776,9.13147817 13.9943859,9.79491107 C13.0331863,9.45213173 12.0481693,9.12637222 11.0372936,8.9207727 C11.0628121,9.247213 11.0651939,9.58250362 11.0672354,9.91302868 C12.1094139,10.2142796 13.1260739,10.5642073 14.1124518,11.0108076 C14.1168751,11.680708 14.0457633,12.3189516 13.8953738,12.9251979 C12.9045727,12.4306017 11.8930164,11.9411114 10.8406304,11.5840354 C10.7072534,12.1746234 10.5323661,12.7478512 10.3282175,13.3057612 C11.3377322,13.8241852 12.3387408,14.3517998 13.2941562,14.9757467 C13.1141652,15.4887244 12.8511538,16.0459535 12.5462919,16.5446345 C11.6082291,15.9026466 10.6688054,15.2786997 9.68991287,14.7354268 C9.35681042,15.4281338 8.93456309,16.138201 8.43507953,16.7849545 C9.30713426,17.4718747 10.2002843,18.1877287 11.040696,18.9478342 C10.764415,19.3644796 10.393545,19.8458004 9.97674164,20.2862735 C9.36327513,19.63952 8.3384492,18.7184069 7.48578858,17.999149 C6.88320999,18.7272573 6.17039116,19.5312739 5.45246862,20.1337758 C6.00026734,20.7097268 7.62665111,22.6700706 7.62665111,22.6700706 C7.30171461,22.9944686 6.89579916,23.328738 6.48001653,23.6276062 C6.48001653,23.6276062 4.81926774,21.4967237 4.41029006,20.9830653 C3.42833534,21.762233 2.64304376,22.3075483 1.49334694,22.9185601 C1.9485983,23.6946643 3.07924125,25.7986554 3.07924125,25.7986554 C2.78866975,25.9766828 2.4855091,26.1438175 2.18234844,26.2551272 C1.64849987,25.3687346 1.00611231,24.0847587 0.664163416,23.3522253 C0.333782946,23.5339971 0.00102074296,23.6514339 0.00102074296,23.6514339 L0.00102074296,27.4825972 C3.4630406,26.3572462 6.65320258,24.3686495 9.3530677,21.4899158 C11.8133985,18.8222279 13.7599553,15.9421326 14.3376958,12.5003829 C14.7987314,9.75712705 13.8902701,7.17215556 11.7126852,5.4255808 C10.392184,4.29376223 8.75525257,3.89992341 7.04244589,3.69874904 C7.2367273,3.7624032 7.42250252,3.84886393 7.60861799,3.92987831 Z M0.000340247652,4.34788529 C0.00102074296,4.34720449 0.000340247652,4.53408221 0.000340247652,4.53408221 C0.428712041,4.44319632 0.983655961,4.35537401 1.49266645,4.35707599 C1.16058474,4.55790997 0.841092195,4.80129351 0.552562186,5.03889031 C0.675391589,5.06544124 0.805706439,5.10731002 0.925473613,5.15768871 C1.38787017,4.82716365 1.83529583,4.54089014 2.20820726,4.33733299 C2.69237967,4.34141775 3.3174146,4.43128244 3.72503129,4.59467279 C3.05100069,4.83703515 2.23440633,5.21147136 1.70872371,5.56582419 C1.80535404,5.61756446 1.90776858,5.703004 1.98330356,5.78129521 C2.6304546,5.4357927 3.55967093,5.03650753 4.32250617,4.79278359 C4.68418942,4.93745213 5.07343273,5.19411114 5.29391321,5.41026296 C4.31876344,5.64139222 3.38478364,5.89668964 2.44535987,6.27929538 C2.53586575,6.3861799 2.63487781,6.54786827 2.68183199,6.64828525 C3.3609663,6.40660369 4.69269561,6.01855161 5.7372559,5.81907923 C5.92881533,6.02365756 6.157802,6.34941707 6.27484719,6.65407199 C5.12072716,6.77423198 3.80464924,6.97506595 2.91558213,7.22832099 C2.97138274,7.37775508 3.006088,7.52378521 3.02990534,7.6633478 C4.12414179,7.45332312 5.32827823,7.29640031 6.50587535,7.24942558 C6.61067162,7.58777976 6.66953447,7.9503021 6.6719162,8.32167475 C5.4980618,8.2474683 4.15374333,8.29886818 3.08468521,8.4057527 C3.08468521,8.5449749 3.06495085,8.82341928 3.04691772,8.99565994 C4.13060649,8.96264148 5.34222838,8.97455536 6.6361902,9.12024509 C6.58991652,9.47153434 6.50587535,9.92562335 6.39291313,10.3170794 C5.18333273,10.0410178 4.08161083,9.90656114 2.86284374,9.82622756 C2.81929204,10.061782 2.71789824,10.3500979 2.60459577,10.5962046 C3.74340466,10.8031657 4.88085256,11.1190537 5.97917198,11.5139137 C5.82776178,11.8689473 5.65185374,12.2158114 5.45927357,12.5548464 C4.63723524,12.1678155 3.17825331,11.6221598 2.22113667,11.3542677 C2.06326176,11.6735597 1.79854909,12.1085865 1.53485716,12.4312824 C2.22249766,12.7665731 3.54095731,13.5110203 4.44533557,14.0958216 C4.22927831,14.3854991 3.98600124,14.6857289 3.73115575,14.9515786 C2.85569854,14.2690835 1.98704629,13.6277764 1.0360541,13.0225513 C0.732212946,13.3714577 0.355218548,13.7486171 5.81756865e-14,14.0468045 L5.81756865e-14,14.157093 L2.18507042,16.4840439 C1.94247384,16.7049613 1.69545405,16.9088588 1.43652559,17.0967577 L5.81756865e-14,15.2596375 L5.81756865e-14,18.5015743 C2.21841469,17.1992171 4.46370894,15.0615267 5.72636798,12.796528 C6.75629762,10.9832355 7.53614524,8.52863586 6.53819887,6.44370692 C6.36229084,6.12135137 6.17515463,5.80818654 5.88968685,5.52599779 C4.37456406,3.99387286 2.0506726,3.86554336 0.000340247652,4.34788529 Z M13.0621073,5.62811676 C13.7058559,5.96238618 14.2985673,6.43383542 14.8310549,6.99821292 C15.0273778,7.21266275 15.2390118,7.42949536 15.3754511,7.6636882 C14.8433038,7.51289252 14.3278286,7.32975917 13.7779884,7.21062037 C13.9641039,7.50302102 14.0964602,7.78827334 14.2332398,8.12220237 C14.8470465,8.29886818 15.4560898,8.51093524 16.0522037,8.7230023 C16.4343018,9.44872777 16.7133049,10.2275551 16.846682,11.052336 C16.1590415,10.7078547 15.4693595,10.372564 14.7613041,10.09446 C14.816084,10.4988512 14.8313951,10.9137946 14.816084,11.3151221 C15.5938901,11.6698153 16.4652644,12.1477321 17.0042166,12.4939154 C17.0242913,13.0633989 16.9674699,14.0757382 16.8004083,14.7207897 C16.1797966,14.2684027 15.285966,13.6880266 14.560558,13.3139307 C14.4618862,13.8732023 14.195132,14.7442771 13.9185107,15.3586929 C14.6748812,15.8723513 15.4319322,16.398264 16.1481535,17.0157433 C15.9290341,17.6213088 15.6476493,18.2030465 15.3434679,18.769126 C14.6255453,18.1519871 13.8950336,17.561399 13.1352606,16.9912348 C12.7041668,17.8439282 12.2274799,18.6125436 11.5765861,19.4121351 C12.3067576,20.0857799 13.0029043,20.7447877 13.7004119,21.4667688 C13.3588033,21.9617054 12.9763649,22.453238 12.52996,22.9148158 C11.8657966,22.2023658 11.1825793,21.4711939 10.4888144,20.7883584 C9.7657881,21.6219896 8.94953398,22.4968088 8.09823436,23.2136839 C8.4905399,23.623181 9.3387773,24.6133946 9.95564629,25.5028508 C9.53135747,25.8663943 9.13564945,26.2084929 8.71204112,26.5196154 L6.91757501,24.202536 C5.80972865,25.0671432 4.63281203,25.7795932 3.4558954,26.4226023 L4.39736065,27.9942133 L7.31600501,27.9942133 C11.7763115,24.9473236 15.8051839,20.4227725 17.0467476,15.3719683 C17.7963132,12.2835503 17.0845151,9.11752191 14.9569465,6.81780274 C13.8198389,5.59237512 12.5595616,5.18253766 11.669814,4.90749723 C11.8974396,5.0589737 12.1590901,5.2873798 12.4169978,5.54914475 L13.0621073,5.62811676 Z M0.00136099061,5.8313335 L0.303160658,5.62198962 C0.55494392,5.67985703 0.841432443,5.80716535 1.03367237,5.93175049 C0.68525877,6.13632882 0.326977993,6.33784359 0.00510371478,6.55842056 L0.00510371478,6.89677474 C0.435176747,6.63432899 0.941125005,6.32729129 1.34159649,6.12407455 C1.50287388,6.2275551 1.64815962,6.38107395 1.7607816,6.5342524 C1.18270084,6.76504127 0.376313903,7.1581993 0.000680495303,7.35699089 L0.000680495303,7.70589737 C0.642047319,7.39273253 1.35180392,7.0792273 2.02685526,6.86954302 C2.11361841,7.02340226 2.20174255,7.21640711 2.23270509,7.39443452 C1.51546304,7.53331631 0.684238028,7.83626925 0.00476346712,8.09973619 L0.00476346712,8.41834737 C0.723706755,8.16781551 1.68966984,7.91422007 2.32287072,7.81244149 C2.36982489,8.01633903 2.37594935,8.27980597 2.37662985,8.4656625 C1.42325593,8.55722917 0.781548856,8.66853885 0.00646470538,8.82478087 L0.00646470538,9.18866479 C0.697167438,9.09641733 1.84244103,9.01233938 2.33852211,9.03072079 C2.29088744,9.28023147 2.23644781,9.53893286 2.14083822,9.76563697 C1.57058316,9.7132159 0.647151034,9.67100672 0.00442321947,9.68836695 C0,9.68836695 0,10.1741128 0,10.1761552 C0.62877766,10.2108757 1.31845965,10.3650753 1.87068159,10.4695771 C1.79582711,10.6625819 1.65530483,10.9308144 1.53485716,11.1248404 C1.10444388,10.9791507 0.469882007,10.7793379 0,10.7044507 L0,11.6619862 C0.302480162,11.7981448 0.741059385,12.0156582 0.889747609,12.1123309 C0.7897148,12.2597226 0.591010171,12.5000425 0.457292844,12.6208833 C0.256546729,12.4871075 0,12.3380138 0,12.3380138 L0,13.5620798 C0.504927515,13.0654412 1.00134884,12.5449749 1.39569587,11.9962556 C2.37254688,10.5873543 3.14218706,8.76010552 2.44093665,6.99821292 C2.01698808,6.03182708 0.98671819,5.42524041 0.00136099061,5.29180495 L0.00136099061,5.8313335 Z M16.3543436,7.98876691 C16.558152,8.33495022 16.7524334,8.68998383 16.9137108,9.05250617 L17.6918571,9.41128415 C18.2440791,10.3119734 18.6843595,11.2592971 18.9252549,12.2913795 C18.4958623,12.0204238 18.0589844,11.7389158 17.6210856,11.5009786 C17.6901559,11.9690239 17.7058073,12.3911156 17.717716,12.8833291 C18.2097141,13.2281508 18.7238283,13.5916943 19.200175,14.0151476 C19.2457682,14.8804357 19.1831626,15.7334695 19.0521673,16.5340822 C18.5295469,16.0255297 17.9854909,15.5772275 17.4502813,15.2031316 C17.3199665,15.9431538 17.0518513,16.7805293 16.7412052,17.5229342 C17.2883234,17.9593226 17.8871593,18.5277849 18.4114809,19.1020339 C18.1828345,19.7658072 17.9106364,20.3812441 17.5833181,20.9796613 C17.0535526,20.4091567 16.4754718,19.8165263 15.8980715,19.308995 C15.5435335,19.9993192 14.8235694,21.1151391 14.19241,21.9736193 C14.7694701,22.5652285 15.3033186,23.1844098 15.8317232,23.8052932 C15.4574508,24.3301847 15.0287388,24.8305676 14.5877778,25.3166539 C14.0525683,24.6995149 13.5510432,24.0656965 12.9920163,23.4638754 C12.1454802,24.4503447 11.4370846,25.2165773 10.4255283,26.0665475 C11.0230032,26.7919326 11.9280619,27.9959152 11.9280619,27.9959152 L12.4380932,27.9959152 C13.3839816,27.1554761 14.2958453,26.2091737 15.1246886,25.252319 C17.1658343,22.7534678 18.7803094,20.0844183 19.3437595,16.9834057 C19.954504,13.7312569 19.1025239,10.5652285 16.951138,8.21274785 L16.3543436,7.98876691 Z M18.3863026,9.64105183 C19.3189214,10.7885286 20.061682,12.019743 20.4444606,13.3898392 L20.4373154,13.4044762 L19.7176917,12.8595013 C19.8098988,13.4160497 19.8823715,13.9331121 19.9024461,14.5131478 C20.241673,14.7694664 20.612543,15.104757 20.9020937,15.4560463 C20.9514296,16.4006468 20.9514296,17.4078802 20.7894718,18.3361416 C20.4665767,17.9062207 20.1787272,17.5937367 19.6737997,17.0902902 C19.5625387,17.7772105 19.304631,18.8600119 18.9943252,19.581993 C19.4376678,20.060931 19.8878155,20.6668369 20.1732833,21.109012 C20.0069022,21.6784954 19.6860486,22.4430261 19.3437595,23.0816101 C18.9375038,22.557059 18.6496543,22.1325845 18.1195484,21.5082972 C17.5935256,22.479789 16.9759761,23.4672794 16.2927588,24.3740958 C16.7558359,24.9204323 17.1825064,25.4902561 17.5856999,26.0665475 C17.2046225,26.6030125 16.7922424,27.1326696 16.3454972,27.6333929 C15.9239303,27.0530168 15.4744632,26.4767254 15.035884,25.9034976 C14.4237785,26.6173092 13.80759,27.3423538 13.0624476,27.9955748 L16.4982684,27.9955748 C18.7108989,25.4276232 20.315847,22.5853119 20.971164,19.3712875 C21.6468958,16.1337758 21.1123668,12.7066633 19.0269889,10.2656795 C18.832027,10.0495277 18.6295797,9.77687005 18.3958295,9.61722407 L18.3863026,9.64105183 Z M21.3280838,14.1189686 C21.4628219,14.7371288 21.5196432,15.2487448 21.5975599,16.062633 C21.8520652,16.3393754 22.1576076,16.8101438 22.1576076,16.8101438 C22.1895909,17.7564463 22.136172,18.7102374 21.9384881,19.6888775 L21.4168884,19.0458684 C21.2603745,19.9455366 21.0378526,20.7822313 20.7108746,21.6989192 L21.2875943,22.7013871 C21.11679,23.3032082 20.7887913,24.1337758 20.468278,24.7955068 C20.2518805,24.4452387 20.0507941,24.0588886 19.8282721,23.7528721 C19.3090542,24.7631691 18.6867413,25.7462344 18.0130509,26.6938984 L18.8197781,27.9952344 L19.0065741,27.9952344 C20.9521101,25.1079908 22.2555989,21.9222194 22.3893162,18.3004 C22.4560048,16.7842737 21.9803385,15.4628542 21.4087225,14.198281 L21.3280838,14.1189686 Z M22.6846512,20.7529572 L22.5308592,20.5432729 C22.3654989,21.5358693 22.1249438,22.4580036 21.7812937,23.3770743 L22.0211683,24.0415284 C21.8262064,24.7080248 21.5774853,25.4221768 21.2576525,26.1710493 C21.1838188,25.9429836 21.0405745,25.6720279 20.9119609,25.4620032 C20.4812074,26.3204834 19.9701554,27.2344481 19.4577425,27.9952344 L20.7459201,27.9952344 C21.4495522,26.6404561 21.9956497,25.1988767 22.4019054,23.7127053 C22.7404518,22.3215046 23.0490564,20.836014 22.8779119,19.3123989 L22.8721276,19.3123989 C22.8061196,19.7995064 22.7727753,20.2917199 22.6846512,20.7529572 Z M21.7836754,27.2804017 C21.7343395,27.1830483 21.6867048,27.0880776 21.6468958,26.9845971 C21.4543157,27.3729895 21.1620429,27.9952344 21.1620429,27.9952344 L21.8224636,27.9952344 C22.391698,26.6530508 22.7925097,24.714152 22.9514053,22.8603523 C22.6812487,24.2804868 22.1923128,26.0308059 21.7836754,27.2804017 Z M2.45454656,26.8991575 C1.64849987,27.2667858 0.845515414,27.5728023 0.000340247652,27.842056 L0.000340247652,27.9928517 L3.06529109,27.9928517 L2.45454656,26.8991575 Z M7.9549901,28 L9.7511579,28 C9.7514977,28 9.36293488,27.4155391 9.16525099,27.104757 C8.8460987,27.3331631 8.44154424,27.6929623 7.9549901,28 Z" id="Globe" fill="#005DAA" fill-rule="nonzero"></path>
    </g>
</svg>