<?xml version="1.0" encoding="UTF-8"?>
<svg width="28px" height="28px" viewBox="0 0 28 28" version="1.1" xmlns="http://www.w3.org/2000/svg" xmlns:xlink="http://www.w3.org/1999/xlink">
    <title>UL</title>
    <g id="UL" stroke="none" stroke-width="1" fill="none" fill-rule="evenodd">
        <path d="M27.5128875,3.16552634 C27.6628135,3.07866297 27.8280261,3.01761565 28,3 C27.9053409,3.15277018 27.7712894,3.27456111 27.6810398,3.43036847 C27.443804,3.81943129 27.3173958,4.26741541 27.2292041,4.71418466 C27.1433641,5.13787134 27.1107331,5.57340302 26.9799154,5.98645956 C26.8064716,6.57050937 26.5271977,7.12206134 26.1553225,7.59738008 C25.6808508,8.19479348 25.0858505,8.67557915 24.4664504,9.10260673 C23.7147627,9.63198728 22.9207429,10.1136841 22.2701817,10.7785229 C21.8065871,11.2535379 21.4338299,11.8312097 21.2306949,12.4750919 C20.8350079,13.6635406 20.4998793,14.88145 19.9480929,16.0070291 C19.5535817,16.8200823 19.0320745,17.5663176 18.4076769,18.2077701 C17.5983706,19.0505877 16.6285552,19.7044926 15.6399257,20.2994763 C13.4574737,21.5890631 11.0615977,22.4555707 8.6192741,23.0463023 C5.88973931,23.6947403 3.08671139,24.0039253 0.286623201,23.9996732 C0.190788161,24.0011918 0.0949531219,23.9975472 -4.97379915e-14,23.9860059 C2.47524856,23.6406785 4.93109494,23.0459986 7.2384852,22.0440327 C9.35097168,21.1340935 11.3338163,19.8706264 12.9897635,18.2308526 C13.3545833,17.8691245 13.7064684,17.4925141 14.0336599,17.094036 C14.7777043,16.1683034 15.305091,15.086156 15.807784,14.0079569 C16.0688316,13.4524566 16.3201781,12.8902745 16.6253215,12.3581605 C17.0877403,11.5511816 17.7186053,10.8471632 18.4685292,10.3174789 C19.3754344,9.67177435 20.417273,9.27451114 21.4479406,8.8951673 C22.0497024,8.67345313 22.6532279,8.455991 23.2432308,8.20208272 C23.6342142,8.03108946 24.0272555,7.85797017 24.3864899,7.62137381 C25.0688001,7.18037521 25.6773232,6.58174693 26.0259746,5.82275553 C26.2655622,5.31007947 26.3802115,4.7485048 26.5848163,4.22125027 C26.3608093,4.32572928 26.2023581,4.54015422 26.128277,4.77796545 C26.0306781,5.08927645 25.7252407,5.2736333 25.4265646,5.32313935 C25.5609101,5.20256328 25.6799689,5.05586746 25.7302382,4.87606638 C25.8531187,4.46452842 26.2129411,4.11768241 26.6400832,4.09308125 C26.8426302,3.71039651 27.1407183,3.37600294 27.5128875,3.16552634 M26.962571,3.8734931 C26.8646782,3.93362928 26.8540951,4.09520728 26.9449326,4.16688474 C27.0431195,4.25678528 27.2274402,4.18207064 27.229498,4.04266406 C27.2462545,3.90386491 27.0742806,3.79240039 26.962571,3.8734931 L26.962571,3.8734931 Z" id="path5" fill="#DC001C" fill-rule="nonzero"></path>
        <path d="M17.185391,10.1958238 C17.933845,9.88238674 18.7116963,9.65095358 19.495427,9.45232198 C19.3584358,9.53098496 19.2082159,9.57957984 19.0668151,9.64730897 C18.180782,10.0530763 17.4014608,10.6805578 16.7494298,11.4164666 C16.0177322,12.2459206 15.4359606,13.206277 14.9629588,14.2140135 C14.3047544,15.7234922 13.2476292,17.030391 11.9712006,18.0247639 C10.1859055,19.4203483 8.03020503,20.2580027 5.82688104,20.6072784 C5.35093954,20.6774373 4.87205832,20.7381809 4.39111929,20.7509371 C5.01228321,20.5486608 5.63462302,20.3460809 6.23638476,20.0867057 C7.86205276,19.4015178 9.37630517,18.3974259 10.5789467,17.0683557 C11.2536136,16.3069346 11.8868304,15.5017781 12.4189207,14.6264626 C12.704662,14.1645075 12.9745287,13.6900999 13.3011322,13.256998 C13.677417,12.7507 14.1133783,12.2948192 14.5716814,11.8677916 C15.335422,11.1522319 16.2285105,10.5894424 17.185391,10.1958238 Z" id="path8" fill="#01742F" fill-rule="nonzero"></path>
        <path d="M22.3963478,11.4182889 C22.5500954,11.1400832 22.7114863,10.8603588 22.9269682,10.6280145 C22.8167285,11.1446389 22.6979636,11.6615671 22.6535737,12.1897327 C22.5718494,13.0176681 22.6218247,13.850463 22.6503401,14.6796133 C22.7032551,15.6648746 22.6376992,16.6814189 22.2643541,17.6007735 C21.891597,18.5101053 21.3489237,19.3550489 20.6301609,20.0113836 C19.645941,20.9055296 18.3783315,21.4133461 17.0924957,21.6101554 C16.5706945,21.6863887 16.040956,21.7331612 15.5141573,21.6964113 C15.7890216,21.5138768 16.0865218,21.369307 16.3684414,21.1977063 C17.2144943,20.7017347 18.0405571,20.155346 18.7604958,19.4753213 C19.4845501,18.7904371 20.0895455,17.9758653 20.5704845,17.0929569 C21.0434863,16.2252344 21.2645536,15.24544 21.4803294,14.283565 C21.699045,13.3034668 21.9180545,12.3045382 22.3963478,11.4182889 L22.3963478,11.4182889 Z" id="path11" fill="#FF3C00" fill-rule="nonzero"></path>
    </g>
</svg>