<?xml version="1.0" encoding="UTF-8"?>
<svg width="28px" height="28px" viewBox="0 0 28 28" version="1.1" xmlns="http://www.w3.org/2000/svg" xmlns:xlink="http://www.w3.org/1999/xlink">
    <title>UM</title>
    <defs>
        <linearGradient x1="0.00931090459%" y1="50.0277238%" x2="100.016773%" y2="50.0277238%" id="linearGradient-1">
            <stop stop-color="#3DB94D" offset="0%"></stop>
            <stop stop-color="#FFFFFF" offset="100%"></stop>
        </linearGradient>
        <linearGradient x1="-0.0160783639%" y1="50.2052269%" x2="99.9951876%" y2="50.2052269%" id="linearGradient-2">
            <stop stop-color="#EF2C30" offset="0%"></stop>
            <stop stop-color="#EF2C30" offset="3.37%"></stop>
            <stop stop-color="#FFFFFF" offset="100%"></stop>
        </linearGradient>
        <linearGradient x1="0.0101509133%" y1="49.9980038%" x2="99.9834463%" y2="49.9980038%" id="linearGradient-3">
            <stop stop-color="#231F20" offset="0%"></stop>
            <stop stop-color="#FFFFFF" offset="100%"></stop>
        </linearGradient>
    </defs>
    <g id="UM" stroke="none" stroke-width="1" fill="none" fill-rule="evenodd">
        <polygon id="path2979" fill="#FDE449" fill-rule="nonzero" points="10.4048706 17.091235 17.2127726 17.1323588 19.7080866 19.7608243 15.117726 19.8081988 10.3647319 17.2144418 10.4048706 17.091235 10.4048706 17.091235"></polygon>
        <path d="M7.10102631,11.7314947 C6.77064189,11.6462863 2.92628489,10.030781 1.64440612,10.0740432 C-0.132889379,10.2859127 0.115138812,12.5820983 0.115138812,12.5820983 C0.115138812,12.5820983 0.551546892,11.8862845 1.4908877,12.1702028 C2.43038842,12.4552727 9.58162805,16.4939537 9.58162805,16.4939537 L17.193263,16.6199569 L16.4023233,15.2608993 C16.4020035,15.2608993 7.4320504,11.8162096 7.10102631,11.7314947" id="path2991" fill="#FDE449" fill-rule="nonzero"></path>
        <path d="M25.2486621,11.9417193 L7.35193297,11.9417193 C7.35193297,11.9417193 7.13220974,12.2095171 7.13220974,12.9803407 C7.23439544,13.0153781 23.2644366,12.9931713 23.2644366,12.9931713 L25.2486621,11.9417193" id="path2995" fill="#FDE449" fill-rule="nonzero"></path>
        <polygon id="path2999" fill="#FDE449" fill-rule="nonzero" points="21.2998806 10.7767658 7.99671032 10.9101712 7.14836116 11.9603072 25.3508478 11.9603072 27.143815 11.0935831 27.9337952 10.7108033"></polygon>
        <polygon id="path3019" fill="url(#linearGradient-1)" fill-rule="nonzero" points="27.8618334 10.7111323 7.99671032 10.9098422 7.14820124 11.9604717 25.3534065 11.9604717 27.9342749 10.7111323"></polygon>
        <path d="M10.1789106,17.1968408 L10.1789106,17.0053687 L17.3397452,17.0053687 L20.307608,20 L15.0731097,20 L10.0936759,17.3667642 L10.1789106,17.0053687 L10.1789106,17.1968408 L10.2641453,17.026424 L15.1631419,19.6167267 L19.3972118,19.6167267 L17.1878259,17.387984 L10.1790706,17.387984 L10.1790706,17.1968408 L10.2643053,17.026424 L10.1789106,17.1968408 L10.1789106,17.1968408 L10.1789106,17.1968408 Z M13.4538103,17.8452801 L15.3571188,18.6845335 L15.4268417,17.4980312 L17.4934235,18.6643007 L17.452965,18.1421936 L17.8238079,18.1115975 L17.9199168,19.3408686 L15.7629831,18.1240991 L15.6964585,19.2507253 L13.307488,18.1974639 L13.4538103,17.8452801 L13.4538103,17.8452801 Z" id="path3079" fill="#272525" fill-rule="nonzero"></path>
        <polyline id="path3083" fill="#272525" fill-rule="nonzero" points="14.163673 17.9864168 14.163673 17.636207 14.7430451 17.636207 14.7430451 17.9864168"></polyline>
        <polyline id="path3087" fill="#272525" fill-rule="nonzero" points="16.4971529 17.9513794 16.4971529 17.601334 17.076525 17.601334 17.076525 17.9513794"></polyline>
        <line x1="21.9830376" y1="13.9317797" x2="23.4297887" y2="12.8796697" id="path3099_2_" fill="#FDE449" fill-rule="nonzero"></line>
        <path d="M23.4297887,12.8796697 L7.10438453,12.8969417 C7.10438453,12.8969417 7.18722051,13.6771415 7.39319105,13.9372081 L21.9830376,13.9317797" id="path3099" fill="#FDE449" fill-rule="nonzero"></path>
        <path d="M21.9843169,13.9324377 L23.4280297,12.8804922 L7.10438453,12.8952968 L7.10438453,12.8952968 L7.10438453,12.8985867 C7.11030138,12.9536925 7.1945766,13.6866822 7.39191173,13.9360566 L7.39191173,13.9360566 L8.30646571,13.9360566 L21.9843169,13.9324377" id="path3121" fill="url(#linearGradient-2)" fill-rule="nonzero"></path>
        <path d="M22.1482298,13.9003612 L7.39287122,13.9176331 C7.39287122,13.9176331 7.61083538,14.8853572 8.86680792,15.253826 L20.5772247,15.253826 L22.1482298,13.9003612" id="path3133" fill="#FDE449" fill-rule="nonzero"></path>
        <path d="M22.1448716,13.9003612 L21.2610213,13.9003612 L7.39319105,13.9176331 L7.39319105,13.9220745 C7.41110153,13.9933008 7.66072887,14.8973653 8.86568852,15.253826 L8.86568852,15.253826 L20.5773846,15.253826 L22.1448716,13.9003612" id="path3153" fill="url(#linearGradient-3)" fill-rule="nonzero"></path>
        <path d="M16.5085069,15.1955947 L17.4117069,16.7474405 L9.56483697,16.7474405 L9.53685184,16.7308265 C9.53573244,16.730333 9.06878059,16.4620417 8.35667902,16.056726 C7.28860663,15.4477656 5.67202572,14.5320219 4.26589298,13.7539606 C3.56290657,13.3659169 2.9125322,13.0111012 2.41023913,12.7487317 C2.15901264,12.6166422 1.9445666,12.5084045 1.78049379,12.4294469 C1.61802014,12.3513118 1.49696447,12.3019633 1.46290257,12.2945611 C1.36567424,12.2718607 1.27516234,12.2616621 1.18992764,12.2616621 C0.880012336,12.2616621 0.642378622,12.394574 0.47750624,12.5315983 C0.395949581,12.5998638 0.333582725,12.6686227 0.29200482,12.7196161 L0.246429041,12.7804793 L0.235554819,12.7957773 L0.233156094,12.7998897 L0.0246269126,13.1361174 L0.00463753548,12.7377106 C0.00431770545,12.7360656 0,12.6508572 0,12.5135039 C0.000319830033,12.3073917 0.010074646,11.9839945 0.0591685561,11.6485892 C0.109221956,11.3120325 0.195576065,10.9631386 0.365565728,10.6979727 L0.468870829,10.76887 L0.361727768,10.7045525 C0.600001142,10.2816359 1.09014067,9.99722402 1.86524875,10 C1.95528091,10 2.04883119,10.0036393 2.14701901,10.0112061 L2.13774394,10.1383607 L2.14174182,10.0108771 C2.44813899,10.0218983 2.9093339,10.1372093 3.44616861,10.3030202 C5.05187529,10.8004531 7.29420365,11.7596233 7.29628255,11.7606103 L7.24846796,11.8782242 L7.12565322,11.8596363 C7.16962985,11.5543336 7.29052561,11.2181059 7.57421485,10.9531044 C7.85790409,10.688103 8.29431217,10.5025526 8.9432473,10.4666927 L8.94788484,10.4666927 L8.9528422,10.4666927 C9.42555099,10.4778784 11.7022611,10.4823197 14.5220426,10.4823197 C17.3427835,10.4823197 20.7099541,10.4778784 23.3718995,10.474095 C24.7028722,10.4721211 25.8572987,10.4704761 26.679102,10.4691601 C27.5012251,10.4675152 27.9888059,10.4666927 27.9899254,10.4666927 L28,10.721002 L25.3043126,10.9322136 L9.01360991,10.9670865 L9.00897237,10.9667575 C8.93285283,10.9601777 8.86009149,10.9572168 8.79100821,10.9572168 C8.08162519,10.9608357 7.7259742,11.2488664 7.51600578,11.6020372 C7.30827617,11.9558659 7.26749784,12.3921066 7.26797759,12.6529956 C7.26797759,12.724222 7.27085606,12.7831112 7.27357461,12.8220965 C7.27645308,12.8620688 7.27917164,12.8813147 7.27917164,12.8813147 L7.03306243,12.9137202 C7.03226285,12.9096078 7.0199494,12.8092659 7.0199494,12.6528311 C7.02058906,12.3667744 7.05944841,11.8912193 7.30347872,11.4702767 C7.54511031,11.0485115 8.01286174,10.6983017 8.79084829,10.7020851 C8.86680792,10.7020851 8.94612577,10.7057039 9.02800226,10.7119548 L9.01840736,10.8391094 L9.01792762,10.7119548 L25.2943978,10.6769173 L27.98113,10.4670217 L27.9904051,10.5938474 L27.9908848,10.721331 C27.9908848,10.721331 20.1640043,10.736958 14.5220426,10.736958 C11.700502,10.736958 9.42826955,10.7328456 8.94724518,10.721331 L8.95012365,10.5938474 L8.95684008,10.721002 C8.34548497,10.7555459 7.97288298,10.9256338 7.74100621,11.1416157 C7.51024884,11.3584201 7.41062178,11.6291788 7.37128269,11.8968122 L7.34777518,12.0588397 L7.2009732,11.9963316 C7.20065337,11.9960026 6.95294501,11.8902324 6.56211271,11.7296852 C5.976344,11.4898516 5.07074526,11.1289496 4.20864341,10.8256208 C3.34926011,10.5214696 2.52026066,10.2758785 2.13390598,10.2663378 L2.13102751,10.2660088 L2.12814904,10.2660088 C2.03619791,10.2586066 1.94824465,10.2553167 1.86492892,10.2553167 C1.14099364,10.2577841 0.764873524,10.5033751 0.575534145,10.8330231 L0.573615165,10.836313 L0.571536269,10.8396029 C0.43544859,11.0481825 0.349574226,11.3691123 0.303838532,11.6864231 C0.257143347,12.0032404 0.247388531,12.3156164 0.247388531,12.5135039 C0.247388531,12.6455934 0.251706236,12.724222 0.251706236,12.7247155 L0.127772098,12.7316242 L0.0235075074,12.6628653 C0.0281450429,12.6551341 0.126972523,12.4954094 0.321109353,12.3340399 C0.514126778,12.1718478 0.807410919,12.0063658 1.18944789,12.0063658 C1.29355257,12.0063658 1.40309436,12.018374 1.51839308,12.0463381 C1.62361716,12.0723283 1.80016334,12.1550693 2.06834082,12.2888037 C3.92143604,13.2142526 9.65550879,16.5074423 9.65726785,16.5082648 L9.59681998,16.6199569 L9.59681998,16.4923088 L16.9735398,16.4923088 L16.2951803,15.3265328 L16.5085069,15.1955947 L16.5085069,15.1955947 L16.5085069,15.1955947 Z" id="path3177" fill="#272525" fill-rule="nonzero"></path>
        <path d="M14.1641528,17.9865813 L14.743365,17.9865813 L14.743365,17.6363714 L14.1641528,17.6363714 L14.1641528,17.9865813 L14.1641528,17.9865813 Z M14.7121815,17.9545048 L14.1950164,17.9545048 L14.1950164,17.6689415 L14.7121815,17.6689415 L14.7121815,17.9545048 Z" id="path3179" fill="#FDE449" fill-rule="nonzero"></path>
        <path d="M16.4971529,17.9515439 L17.076525,17.9515439 L17.076525,17.601334 L16.4971529,17.601334 L16.4971529,17.9515439 Z M17.0453416,17.9194673 L16.5281765,17.9194673 L16.5281765,17.633904 L17.0453416,17.633904 L17.0453416,17.9194673 Z" id="path3181" fill="#FDE449" fill-rule="nonzero"></path>
        <path d="M1.71572821,10.8993146 C1.71572821,11.0267982 1.6154615,11.130101 1.49152736,11.130101 C1.36791305,11.130101 1.26748642,11.0267982 1.26748642,10.8993146 C1.26748642,10.7710085 1.36791305,10.6677054 1.49152736,10.6677054 C1.6154615,10.6675411 1.71572821,10.770844 1.71572821,10.8993146" id="path3193" fill="#272525" fill-rule="nonzero"></path>
    </g>
</svg>