<?xml version="1.0" encoding="UTF-8"?>
<svg width="28px" height="28px" viewBox="0 0 28 28" version="1.1" xmlns="http://www.w3.org/2000/svg" xmlns:xlink="http://www.w3.org/1999/xlink">
    <title>UN</title>
    <g id="UN" stroke="none" stroke-width="1" fill="none" fill-rule="evenodd">
        <path d="M24.5645172,16.2583637 L21.8987129,25 L18.9132656,23.8556135 L24.5645172,16.2583637 Z M25.945411,11.7094273 L24.9013647,15.1619676 L18.5755126,23.7079507 L17.371192,23.2465045 L25.945411,11.7094273 Z M26.9405601,8.48576439 L26.2016687,10.8908218 L17.0343445,23.1172996 L16.1994696,22.8035162 L26.9405601,8.48576439 Z M28,5 L27.6314598,6.17853352 L15.4931764,22.5727931 L15.0114482,22.4251304 L28,5 Z" id="Combined-Shape" fill="#CF4044" fill-rule="nonzero"></path>
        <path d="M14.9634564,13.9188316 L7.88241382,23.4587698 L1.97175609e-13,24.8523372 L14.9634564,13.9188316 Z M19.5715672,10.5641179 L10.3236531,22.9973236 L8.31615031,23.3572516 L15.846323,13.2801901 L19.5715672,10.5641179 Z M24.2267641,7.16049098 L12.7150896,22.591251 L10.9819546,22.8681187 L20.9198629,9.56554843 L24.2267641,7.16049098 Z M27.0854408,5.06552536 L14.2725568,22.3143833 L13.6631524,22.4159014 L25.8965138,5.93304416 L27.0854408,5.06552536 Z" id="Combined-Shape" fill="#255398" fill-rule="nonzero"></path>
    </g>
</svg>