<?xml version="1.0" encoding="UTF-8"?>
<svg width="28px" height="28px" viewBox="0 0 28 28" version="1.1" xmlns="http://www.w3.org/2000/svg" xmlns:xlink="http://www.w3.org/1999/xlink">
    <title>UP</title>
    <g id="UP" stroke="none" stroke-width="1" fill="none" fill-rule="evenodd">
        <path d="M14.902503,0.0363546737 C16.3445557,-0.168539248 17.6378517,0.50279818 18.288231,1.79372646 L18.288231,1.79372646 L18.5945185,2.40164817 L18.5945185,6.19291 L14.6582931,6.19291 L14.1091076,5.92926802 C13.4098535,5.59359931 12.8887137,5.08136451 12.5512644,4.39803604 C12.3114006,3.91211714 12.2852411,3.7877805 12.2856465,3.13479178 C12.2862252,2.19200612 12.492549,1.66021545 13.1130786,1.0024786 C13.6160954,0.469239357 14.2449074,0.129788233 14.902503,0.0363546737 Z M14.8335371,1.52243918 C13.6648882,1.9312613 13.3465459,3.47842769 14.2584382,4.31755924 C14.6761701,4.70199689 15.0073871,4.78456608 16.1317535,4.78456608 L17.1594363,4.78456608 L17.1594363,3.84829905 C17.1594363,2.71116193 17.0593906,2.34933825 16.6280459,1.92603031 C16.1306874,1.43793854 15.4881806,1.29340222 14.8335371,1.52243918 Z" id="Combined-Shape" fill="#F58026"></path>
        <path d="M19.0658815,4.32182451 C19.1058998,6.77451581 19.1414899,7.00918614 19.5954679,7.81282742 C19.8842884,8.32401603 20.6184765,9.03398232 21.1428145,9.309052 C21.9340778,9.72415131 22.3227801,9.7741274 24.7620918,9.7741274 L27,9.7741274 L27,7.73677685 C27,6.60744598 26.9600637,5.48736994 26.9104509,5.22380843 C26.6487739,3.83502037 25.6092823,2.66625587 24.2349656,2.21558582 C23.7660628,2.06179466 23.5360396,2.04835504 21.3768559,2.04835504 L19.0287334,2.04835504 L19.0658815,4.32182451" id="Path" fill="#FCB040"></path>
        <path d="M15.948965,6.66249211 C15.530987,6.81121322 15.1444169,7.1574244 14.9451455,7.56125696 C14.6817464,8.09530097 14.7354595,8.83238794 15.0725808,9.30969582 C15.3569731,9.7124017 16.053111,10.096276 16.4975764,10.0955527 C17.5332137,10.0940227 18.323903,9.32772262 18.323903,8.32554508 C18.323903,7.0970668 17.1121196,6.24851947 15.948965,6.66249211" id="Path" fill="#EBA9C4"></path>
        <path d="M26.9179953,10.2569882 L26.9178016,15.8855242 C26.915485,19.4847138 26.8914125,20.3514101 26.7935942,20.8143366 C26.4030058,22.6626472 25.6271594,24.0886155 24.3005694,25.3962829 C23.0872279,26.5923291 21.6861776,27.3595144 19.947596,27.7799251 C18.7966601,28.0582139 17.1746892,28.0742288 16.036792,27.818554 C13.6775169,27.2884534 11.688903,25.9382942 10.3923267,23.986249 C8.99652475,21.8847584 8.57174042,19.3705829 9.20268456,16.9453342 C10.1258934,13.3969513 13.2645412,10.7284212 16.9655772,10.3451907 C17.3202475,10.3084128 19.7046161,10.2735664 22.2642287,10.2676916 L22.2642287,10.2676916 L26.9179953,10.2569882 Z M24.6305563,12.5908152 L20.8744951,12.6003115 C18.8086328,12.605462 16.943682,12.6386185 16.7299777,12.6739478 C15.2872691,12.91232 13.6949019,13.8518062 12.7059252,15.0481742 C12.2398925,15.6118337 11.6488847,16.7595937 11.4434629,17.4998998 C11.2409933,18.2296634 11.2406653,20.0677534 11.4428889,20.7994484 C11.7559008,21.9318374 12.4802483,23.1293321 13.3262908,23.9131761 C16.6028704,26.9488413 21.9809845,26.0020318 23.927202,22.0468387 C24.5811074,20.7180863 24.5667566,20.8369506 24.6004606,16.4738206 L24.6305563,12.5908152 Z" id="Combined-Shape" fill="#FFCF06"></path>
        <path d="M4.4897106,13.4830615 C4.95951551,13.4774281 5.1532106,13.517747 5.55650971,13.704936 C6.08273385,13.9492636 6.4660238,14.3176863 6.76484892,14.8665381 C6.91795169,15.147724 6.9496055,15.3312111 6.94848712,15.9306023 C6.94714536,16.5818205 6.92229794,16.6989142 6.70244335,17.0912386 C5.89961736,18.5235646 3.89230638,18.8156954 2.72906975,17.6694644 C2.5221719,17.4655362 2.28321021,17.1538495 2.19808933,16.9768006 C1.9774967,16.5179219 1.93296815,15.6132018 2.10591605,15.1024156 C2.32601666,14.4520826 3.05044616,13.7455768 3.69131287,13.5562149 C3.81472994,13.5197589 4.17399251,13.4868439 4.4897106,13.4830615 Z M4.22294932,14.9009821 C3.92428821,14.9573964 3.46596396,15.4338995 3.45554936,15.6986681 C3.42143541,16.5707952 3.85286212,17.0146247 4.6346949,16.9116949 C5.64819096,16.7782643 5.84779039,15.4162751 4.91482295,15.0005319 C4.56367884,14.844085 4.54112754,14.840866 4.22294932,14.9009821 Z" id="Combined-Shape" fill="#2CA444"></path>
    </g>
</svg>