<?xml version="1.0" encoding="UTF-8"?>
<svg width="28px" height="28px" viewBox="0 0 28 28" version="1.1" xmlns="http://www.w3.org/2000/svg" xmlns:xlink="http://www.w3.org/1999/xlink">
    <title>US</title>
    <g id="US" stroke="none" stroke-width="1" fill="none" fill-rule="evenodd">
        <path d="M7.38112675,11.6457879 L28,11.6457879 L28,9.82654951 L7.38112675,9.82654951 L7.38112675,11.6457879 Z M7.38112675,6 L7.38112675,7.94467486 L28,7.94467486 L28,6 L7.38112675,6 L7.38112675,6 Z M0,15.4723374 L28,15.4723374 L28,13.5904628 L0,13.5904628 L0,15.4723374 Z M0,19.2360867 L28,19.2360867 L28,17.354376 L0,17.354376 L0,19.2360867 Z M0,23 L28,23 L28,21.1182893 L0,21.1182893 L0,23 Z M5.550953,6 L0,6 L0,11.6457879 L5.550953,11.6457879 L5.550953,6 Z" id="path5" fill="#0E2E62" fill-rule="nonzero"></path>
    </g>
</svg>