<?xml version="1.0" encoding="UTF-8"?>
<svg width="28px" height="28px" viewBox="0 0 28 28" version="1.1" xmlns="http://www.w3.org/2000/svg" xmlns:xlink="http://www.w3.org/1999/xlink">
    <title>UT</title>
    <g id="UT" stroke="none" stroke-width="1" fill="none" fill-rule="evenodd">
        <path d="M23.3333333,1 L19.3059361,10.6177473 C18.2191781,13.1521536 17.1324201,15.68656 15.8538813,18.2209664 C14.3196347,21.2102662 12.0182648,22.6399313 9.5890411,22.6399313 C6.456621,22.6399313 4.34703196,20.6254032 4.34703196,17.5061338 C4.34703196,16.1414535 4.66666667,14.9067427 5.62557078,12.5023058 L7.41552511,8.14832567 L10.3561644,1.06498478 L5.75342466,1.06498478 L1.7260274,10.7477168 C0.575342466,13.347108 0,15.7515448 0,17.8960425 C0,23.1598096 3.7716895,26.9939115 9.20547945,26.9939115 C12.5821913,27.1077988 15.8189428,25.6187525 17.9634703,22.9648552 C19.4569208,20.8901775 20.6615865,18.6159203 21.543379,16.2064382 L28,1 L23.3333333,1 Z" id="Path" fill="" fill-rule="nonzero"></path>
    </g>
</svg>