<?xml version="1.0" encoding="UTF-8"?>
<svg width="28px" height="28px" viewBox="0 0 28 28" version="1.1" xmlns="http://www.w3.org/2000/svg" xmlns:xlink="http://www.w3.org/1999/xlink">
    <title>UU</title>
    <defs>
        <linearGradient x1="-52.4999975%" y1="98.0726757%" x2="78.0045076%" y2="40.8647815%" id="linearGradient-1">
            <stop stop-color="#20294E" offset="0%"></stop>
            <stop stop-color="#005695" offset="50.0051%"></stop>
            <stop stop-color="#26B5E3" offset="100%"></stop>
        </linearGradient>
        <linearGradient x1="78.6502107%" y1="70.2526157%" x2="9.6203065%" y2="6.99631616%" id="linearGradient-2">
            <stop stop-color="#20294E" offset="0%"></stop>
            <stop stop-color="#005695" offset="29.5092%"></stop>
            <stop stop-color="#26B5E3" offset="90.3858%"></stop>
            <stop stop-color="#26B5E3" offset="100%"></stop>
        </linearGradient>
    </defs>
    <g id="UU" stroke="none" stroke-width="1" fill="none" fill-rule="evenodd">
        <path d="M19.7980094,3.58866321 C17.7433818,4.28661641 15.0377827,5.43625677 12.2480069,6.49583094 L12.2480069,6.49583094 C13.7947649,7.21348861 15.3183735,7.88750925 16.5305267,8.43416878 L16.5305267,8.43416878 C20.4616076,6.823707 23.4758564,5.91961469 23.4758564,5.91961469 L23.4758564,5.91961469 C23.4758564,5.91961469 22.9855229,7.19236813 20.8656586,10.3964392 L20.8656586,10.3964392 C21.8884129,10.8523544 23.1566839,11.3898797 23.9753089,11.6473941 L23.9753089,11.6473941 C26.9664083,7.52305626 28.8758299,3.75541332 27.5956343,2.4671835 L27.5956343,2.4671835 C27.3746689,2.24415199 27.0933761,2 26.2593189,2 L26.2593189,2 C25.2372665,2 23.3853665,2.36656703 19.7980094,3.58866321" id="path36571" fill="url(#linearGradient-1)" fill-rule="nonzero"></path>
        <path d="M1.16115372,2.87806565 C1.08680594,2.88205441 1.02295712,2.88803755 0.957024419,2.88404879 L0.957024419,2.88404879 C0.873549695,2.88006003 0.719924785,3.00650372 0.719924785,3.00650372 L0.719924785,3.00650372 C-2.84849043,5.10949757 7.76556533,22.1591723 12.4766895,25.3147002 L12.4766895,25.3147002 C13.1304668,25.7523269 14.3222762,26.2265307 15.3716876,25.8810642 L15.3716876,25.8810642 C15.493738,25.8409771 15.7596044,25.6397442 15.7715291,25.6256838 L15.7715291,25.6256838 C15.7918708,25.6053411 18.9008191,21.9797579 18.9008191,21.9755497 L18.9008191,21.9755497 C18.8615276,21.6870826 18.5711258,21.8586791 18.5360517,21.8840077 L18.5360517,21.8840077 C17.3224946,22.7691135 16.2597568,22.2737893 12.9880666,18.939565 L12.9880666,18.939565 C9.50382605,15.3928595 6.12621163,9.18593035 6.12621163,9.18593035 L6.12621163,9.18593035 L21.8217723,16.2765493 C22.8627646,16.7465249 23.4470956,16.4791783 23.7501339,16.2825324 L23.7501339,16.2825324 C23.8336086,16.2282853 26.6759966,12.7949204 26.6759966,12.7949204 L26.6759966,12.7949204 C26.6948867,12.5564125 26.4304799,12.6886199 26.4304799,12.6886199 L26.4304799,12.6886199 C25.5150516,13.2641381 24.8177832,12.8350074 23.3376658,12.2383288 L23.3376658,12.2383288 C22.3387608,11.8358829 11.8173008,7.17120775 8.06930556,5.38765373 L8.06930556,5.38765373 C3.25927441,3.09962131 1.93698944,2.87096566 1.3519565,2.87096566 L1.3519565,2.87096566 C1.27830467,2.87096566 1.21586765,2.87296004 1.16114577,2.87894318" id="path36615" fill="url(#linearGradient-2)" fill-rule="nonzero"></path>
    </g>
</svg>