<?xml version="1.0" encoding="UTF-8"?>
<svg width="28px" height="28px" viewBox="0 0 28 28" version="1.1" xmlns="http://www.w3.org/2000/svg" xmlns:xlink="http://www.w3.org/1999/xlink">
    <title>UX</title>
    <g id="UX" stroke="none" stroke-width="1" fill="none" fill-rule="evenodd">
        <path d="M11.2120466,18.8148863 C10.7982149,16.1373644 11.5283318,13.3815474 12.1676551,11.4526383 C13.4815432,8.20481669 12.8484849,4.98398218 9.21449289,6.58099788 C8.18029409,7.05916267 6.59957944,8.70765882 5.87092031,10.0852772 C3.62352992,14.3342379 4.37914615,20.7569913 7.13117801,20.797515 C8.25128107,20.7543804 9.75370075,19.6673621 11.2120466,18.8148863 L11.2120466,18.8148863 Z M3.41049577,23.742549 C2.40953728,23.4221591 1.10016925,22.0127578 0.595063468,20.7120502 C-0.212281544,18.3534028 -0.209207865,15.1054608 0.672267673,12.4762874 C1.91270244,8.88993121 4.6147408,5.73359402 7.2384607,4.71924754 C9.6473659,3.79236868 13.3706103,3.73960365 15.8094426,6.39305404 C17.7047838,4.58182262 20.5189039,3.98983979 22.0825637,4.01282505 C25.9701941,3.84037943 28,5.41318536 28,8.35499975 C28,9.40936447 27.2077543,10.9343094 26.2587968,11.7065431 C25.1418547,12.6154718 18.1975563,17.0001728 17.8644358,17.0001728 L17.8450837,14.9310873 L19.8947007,13.4777935 C22.5365183,11.6045694 23.4329218,10.6310836 23.7255548,9.317517 C24.4735456,5.95994655 21.0074896,5.02120052 18.4427891,7.88674052 C15.8646667,10.7672919 14.9013108,16.7779008 16.5598705,19.6347564 C17.83494,21.831047 20.3640703,21.1501179 24.3625998,18.7656027 L25.9020183,17.7736793 L26.9896528,19.2975955 C25.4427942,20.6369738 23.8441643,21.7945476 22.2238084,22.8242802 C20.778922,23.6292511 19.4012798,23.9876378 17.7519193,23.9876378 C14.6839266,23.9385414 12.7452523,23.1340946 11.8405911,21.0042513 C11.7698786,20.9978873 11.0523356,21.5874969 10.1494804,22.1975423 C8.08462862,23.5881154 5.54554408,24.4613682 3.41049577,23.742549 L3.41049577,23.742549 Z" id="path3445" fill="#0970CB" fill-rule="nonzero"></path>
    </g>
</svg>