<?xml version="1.0" encoding="UTF-8"?>
<svg width="28px" height="28px" viewBox="0 0 28 28" version="1.1" xmlns="http://www.w3.org/2000/svg" xmlns:xlink="http://www.w3.org/1999/xlink">
    <title>V7</title>
    <g id="V7" stroke="none" stroke-width="1" fill="none" fill-rule="evenodd">
        <path d="M5.7036528,8.29743566 L5.7036528,10.3682929 L5.134,9.8 L9.33372601,14.0001309 L8.81677091,13.4818112 L8.81677091,5.18679726 L9.33372601,4.66690666 L9.333137,4.66736483 L14.0014398,-1.77635684e-15 L18.666863,4.66736483 L18.666863,4.66690666 L19.1838181,5.18679726 L19.1838181,13.4818112 L18.666274,14.0001309 L23.3345768,9.33420604 L28,14.0001309 L23.3345768,18.6660558 L18.788,14.122 L19.1838181,14.5208069 L19.1838181,22.8171954 L18.666863,23.3355151 L14.0014398,28 L9.333137,23.3355151 L13.768,18.899 L12.9609851,19.7037425 L12.9609851,17.6300054 L14,18.663 L15.0367898,17.6300054 L15.036,19.701 L16.073,20.739 L16.0735142,16.5946095 L17.1116783,15.5563337 L17.1116783,21.7775451 L16.456,21.122 L18.147,22.815 L18.1470283,14.5208069 L18.666863,14.0002618 L18.1470283,13.4818112 L18.1470283,5.18679726 L17.111,6.223 L17.1116783,12.4435354 L16.0735142,11.4066341 L16.073,7.261 L15.036,8.299 L15.0367898,10.3682929 L14,9.337 L12.9609851,10.3682929 L12.9609851,8.29743566 L14,9.333 L11.9270094,7.26053437 L11.9270094,11.4065686 L10.8888453,12.4434699 L10.888,6.222 L9.499,4.833 L9.8506811,5.18679726 L9.8506811,13.4818112 L9.33372601,14.0002618 L9.8506811,14.5208069 L9.8506811,22.8171954 L9.33372601,23.335646 L8.81677091,22.8171954 L8.81677091,14.5208069 L9.2,14.133 L5.703,17.631 L5.7036528,19.7037425 L4.66830281,18.6660558 L1.50990331e-14,14.0001309 L4.66830281,9.33420604 L5.7036528,8.29743566 Z M7.77998111,15.5563337 L7.77998111,21.7775451 L6.74181696,20.7406438 L6.74181696,16.5946095 L7.77998111,15.5563337 Z M10.8888453,15.5562683 L11.9270094,16.5945441 L11.9270094,20.7405783 L10.8888453,21.7774796 L10.8888453,15.5562683 Z M20.2206079,15.5562683 L21.2602119,16.5945441 L21.2602119,20.7405783 L20.2206079,21.7774796 L20.2206079,15.5562683 Z M22.294122,17.6300054 L23.3322862,18.6654667 L22.294122,19.7037425 L22.294122,17.6300054 Z M20.2206079,6.22081863 L21.2602119,7.26053437 L21.2602119,11.4065686 L20.2206079,12.4434699 L20.2206079,6.22081863 Z M7.77998111,6.22088408 L7.77998111,12.4435354 L6.74181696,11.4066341 L6.74181696,7.26059983 L7.77998111,6.22088408 Z M22.294122,8.29743566 L23.3322862,9.33571145 L22.294122,10.3682929 L22.294122,8.29743566 Z" id="Combined-Shape" fill="#ED164A" fill-rule="nonzero"></path>
    </g>
</svg>