<?xml version="1.0" encoding="UTF-8"?>
<svg width="28px" height="28px" viewBox="0 0 28 28" version="1.1" xmlns="http://www.w3.org/2000/svg" xmlns:xlink="http://www.w3.org/1999/xlink">
    <title>VB</title>
    <g id="VB" stroke="none" stroke-width="1" fill="none" fill-rule="evenodd">
        <path d="M4.35323383,9.60546875 C6.75745849,9.60546875 8.70646766,11.5729674 8.70646766,14 C8.70646766,16.4270326 6.75745849,18.3945312 4.35323383,18.3945312 C1.94900917,18.3945312 0,16.4270326 0,14 C0,11.5729674 1.94900917,9.60546875 4.35323383,9.60546875 Z M5.46766169,11.0820312 C4.89064777,11.0820312 4.42288557,11.5542309 4.42288557,12.1367188 C4.42288557,12.7192066 4.89064777,13.1914062 5.46766169,13.1914062 C6.04467561,13.1914062 6.51243781,12.7192066 6.51243781,12.1367188 C6.51243781,11.5542309 6.04467561,11.0820312 5.46766169,11.0820312 Z" id="Combined-Shape" fill="#37AC49"></path>
        <path d="M14,9.5 C16.461926,9.5 18.4577114,11.5147186 18.4577114,14 C18.4577114,16.4852814 16.461926,18.5 14,18.5 C11.538074,18.5 9.54228856,16.4852814 9.54228856,14 C9.54228856,11.5147186 11.538074,9.5 14,9.5 Z M14,9.78125 C11.6919443,9.78125 9.82089552,11.6700487 9.82089552,14 C9.82089552,16.3299513 11.6919443,18.21875 14,18.21875 C16.3080557,18.21875 18.1791045,16.3299513 18.1791045,14 C18.1791045,11.6700487 16.3080557,9.78125 14,9.78125 Z M15.1492537,11.0820312 C15.7262676,11.0820312 16.1940299,11.5542309 16.1940299,12.1367188 C16.1940299,12.7192066 15.7262676,13.1914062 15.1492537,13.1914062 C14.5722398,13.1914062 14.1044776,12.7192066 14.1044776,12.1367188 C14.1044776,11.5542309 14.5722398,11.0820312 15.1492537,11.0820312 Z" id="Combined-Shape" fill="#AFAEB1"></path>
        <path d="M23.6467662,9.60546875 C26.0509908,9.60546875 28,11.5729674 28,14 C28,16.4270326 26.0509908,18.3945312 23.6467662,18.3945312 C21.2425415,18.3945312 19.2935323,16.4270326 19.2935323,14 C19.2935323,11.5729674 21.2425415,9.60546875 23.6467662,9.60546875 Z M24.7960199,11.0820312 C24.219006,11.0820312 23.7512438,11.5542309 23.7512438,12.1367188 C23.7512438,12.7192066 24.219006,13.1914062 24.7960199,13.1914062 C25.3730338,13.1914062 25.840796,12.7192066 25.840796,12.1367188 C25.840796,11.5542309 25.3730338,11.0820312 24.7960199,11.0820312 Z" id="Combined-Shape" fill="#DE2B29"></path>
    </g>
</svg>