<?xml version="1.0" encoding="UTF-8"?>
<svg width="28px" height="28px" viewBox="0 0 28 28" version="1.1" xmlns="http://www.w3.org/2000/svg" xmlns:xlink="http://www.w3.org/1999/xlink">
    <title>VH</title>
    <g id="VH" stroke="none" stroke-width="1" fill="none" fill-rule="evenodd">
        <path d="M1.36883348,13.1355079 C3.09088601,10.7746302 6.09157089,9.66625422 8.96734867,10.3299696 C11.8443755,10.9936849 14.0302498,13.2968304 14.5065622,16.1646048 C15.1556627,20.0703301 12.4655802,23.7553629 8.49561619,24.4031098 C5.58111721,24.8780696 2.66162195,23.5793003 1.10194864,21.1115566 C-0.459390098,18.6454508 -0.353635421,15.4959761 1.36883348,13.1355079 Z M5.79262657,17.5063662 C4.92244044,17.1513747 3.92068551,17.3450437 3.2536816,17.9993417 C2.58667769,18.6532303 2.3851609,19.6383624 2.74447699,20.4957467 C3.10420944,21.3514932 3.95316135,21.9112087 4.89454452,21.9128465 C5.51283467,21.9128465 6.10655974,21.67291 6.54373459,21.2442178 C6.98132579,20.8142973 7.22697642,20.2320621 7.22864185,19.6240317 C7.22864185,18.6982696 6.66281269,17.8617672 5.79262657,17.5063662 Z" id="Combined-Shape" fill="#FCD722"></path>
        <path d="M21.2074117,13.004075 C22.7346091,12.7514456 24.3009441,13.1064371 25.5595914,13.9908449 C26.8203203,14.8756622 27.6692723,16.2157858 27.9211682,17.7176414 C28.3067148,20.0031807 27.2558298,22.2919955 25.2556507,23.5170642 C23.2567208,24.7437706 20.7048688,24.665566 18.7875448,23.3188913 C16.8698045,21.9722165 15.9654771,19.6240317 16.4959159,17.3675633 C17.0259383,15.1090477 18.8849723,13.3881373 21.2074117,13.004075 Z M24.0178214,18.6917184 C22.3490625,18.6917184 21.5130177,20.6767228 22.6938061,21.8362797 C23.8729292,22.9974745 25.8914279,22.1753028 25.8914279,20.5342348 L25.8914279,20.5342348 C25.888097,19.5171658 25.0520522,18.6933562 24.0178214,18.6917184 Z" id="Combined-Shape" fill="#04107F"></path>
        <path d="M15.9721388,3.55810764 C17.7154255,3.27354122 19.4641249,4.05067369 20.3992627,5.52714349 C21.3327351,7.00320385 21.2706979,8.88748396 20.2414634,10.302946 C19.2118126,11.7167702 17.4181466,12.3804856 15.6956777,11.987006 C13.9732088,11.5918886 12.662517,10.2149147 12.374398,8.49850827 C11.9809406,6.15892189 13.5909931,3.94667387 15.9721388,3.55810764 Z M18.0539238,5.05996323 C17.2861615,5.06160102 16.6632914,5.67413536 16.661626,6.42915763 C16.661626,7.64931294 18.1613439,8.26020948 19.0394408,7.39832126 C19.9162886,6.53479524 19.2946676,5.05996323 18.0539238,5.05996323 Z" id="Combined-Shape" fill="#CC1212"></path>
    </g>
</svg>