<?xml version="1.0" encoding="UTF-8"?>
<svg width="28px" height="28px" viewBox="0 0 28 28" version="1.1" xmlns="http://www.w3.org/2000/svg" xmlns:xlink="http://www.w3.org/1999/xlink">
    <title>VI</title>
    <g id="VI" stroke="none" stroke-width="1" fill="none" fill-rule="evenodd">
        <path d="M13.9986527,0 C21.7301381,0 28,6.26850383 28,14 C28,21.7301584 21.7301381,28 13.9986527,28 C6.26851655,28 0,21.7301584 0,14 C0,6.26850383 6.26851655,0 13.9986527,0" id="path21690" fill="#004A95"></path>
        <path d="M14.0013573,27 C21.1592237,27 27,21.1602676 27,14.0006729 C27,6.83973237 21.1592237,1 14.0013573,1 C6.84077625,1 1,6.83973237 1,14.0006729 C1,21.1602676 6.84077625,27 14.0013573,27 M14,26.1345625 C20.680407,26.1345625 26.1318894,20.6841559 26.1318894,14.0006729 C26.1318894,7.31718993 20.680407,1.8667833 14,1.8667833 C7.31688229,1.8667833 1.86675715,7.31718993 1.86675715,14.0006729 C1.86675715,20.6841559 7.31688229,26.1345625 14,26.1345625" id="path21694" fill="#FFFFFF"></path>
        <path d="M12.2008363,10.2590827 C12.3493826,9.78524646 11.8349248,9.57664105 11.4811427,9.55040384 L14.7582401,8.50459641 L14.3086014,10.2314357 L14.9202708,10.2314357 L15.7371835,7.36351265 C15.9140535,6.70867884 15.5468024,6.15331147 14.0912094,6 L19.7906831,6.01566401 C23.6943006,6.01566401 23.3810406,10.3314112 19.655648,10.5952714 C21.6540416,10.7624847 25,12.1536052 25,14.1871066 C25,15.9263987 22.6748428,18 17.0428829,18 L8.33906895,18 C9.12762357,17.7912771 9.93103282,17.6796711 10.2159386,16.7483675 L12.06445,10.9006021 C10.4603338,10.9432865 8.10682231,11.4296931 6.72009805,12.1687993 C5.69929679,12.710304 4.84187731,13.5875667 4.99175559,14.9372559 C5.12813035,16.1902589 6.51485843,17.0246806 7.63152775,17.2899114 L7.63152775,17.4293211 C5.8896856,17.2484018 3.45650417,16.6778012 3.08788277,15.2161927 C2.05492911,11.1518919 10.4333306,10.2608449 12.2008286,10.2608449 M19.7906755,8.65970924 C19.4112528,9.64885212 18.0771876,10.1213177 17.0023762,10.2470214 L17.9813196,6.76847619 C19.4909151,6.65530373 20.2524665,7.4633707 19.7906755,8.65970924 M22.7977179,14.4784963 C22.5114572,16.1487102 19.2316653,17.0535807 18.0218263,17.1917372 C22.0888294,16.1625337 22.9327454,12.6259533 18.5389787,11.0400117 C22.5654713,11.8053551 23.0002591,13.3788438 22.7977179,14.4784963 M19.0291241,11.875804 C20.7831224,13.4340986 19.0966416,16.9140536 15.0579928,17.3312644 L16.8524941,10.984757 C17.9543126,11.1656762 18.5389787,11.4295756 19.0291241,11.875804 M12.1873251,17.4155367 L14.1587155,10.8314063 L14.7447289,10.8314063 L12.8530085,17.4155367 L12.1873251,17.4155367 Z" id="path21698" fill="#FFFFFF"></path>
    </g>
</svg>