<?xml version="1.0" encoding="UTF-8"?>
<svg width="28px" height="28px" viewBox="0 0 28 28" version="1.1" xmlns="http://www.w3.org/2000/svg" xmlns:xlink="http://www.w3.org/1999/xlink">
    <title>VJ</title>
    <g id="VJ" stroke="none" stroke-width="1" fill="none" fill-rule="evenodd">
        <path d="M15.3420733,9.01673183 C15.0324423,9.07222605 14.632728,9.25902933 14.4810302,9.4191424 C14.3898529,9.51536244 14.377519,9.55050784 14.3023128,9.92901841 C14.2578727,10.1526018 14.1964497,10.4560303 14.1658203,10.6032915 C14.1351908,10.7505526 14.0978885,10.934453 14.0828746,11.0119589 C14.0678881,11.0894648 13.8815407,11.9962837 13.6687754,13.027112 C13.2325792,15.1405425 13.2093883,15.3134229 13.3171657,15.6482202 C13.4312057,16.0024644 13.6830783,16.2890671 13.9814693,16.4040858 C14.3122127,16.53159 14.7837695,16.5061399 15.0811486,16.3447304 C15.3339783,16.2075027 15.6306738,15.8837817 15.7779413,15.5844117 C15.8443963,15.4493542 15.8918993,15.3317707 15.8835035,15.3231182 C15.8751078,15.3144376 15.7883061,15.3225545 15.6905927,15.3410996 C15.2469579,15.4253414 14.9827242,15.1984042 15.0221322,14.7669641 C15.0358334,14.6168564 15.4259214,12.5557634 15.5436533,12.0113621 C15.5653127,11.9112245 15.5911016,11.7690646 15.6009742,11.6954199 L15.6189143,11.5615461 L16.096679,11.5615461 C16.4555632,11.5615461 16.576823,11.5527809 16.5839881,11.5263161 C16.5892115,11.5069537 16.6081908,11.3896239 16.6261036,11.2656145 C16.6440164,11.1416051 16.6824126,10.9208119 16.7114012,10.77496 C16.7404171,10.629108 16.7641549,10.492754 16.7641549,10.4719824 C16.7641549,10.4419947 16.6764508,10.4341877 16.3402652,10.4341877 C16.0713824,10.4341877 15.9163755,10.4237033 15.9163755,10.4055528 C15.9163755,10.389798 15.9770054,10.1266162 16.0511177,9.82073564 C16.12523,9.51482695 16.1940096,9.22281294 16.2039641,9.17179998 C16.2355508,9.00971403 16.2026241,8.99632664 15.7831374,9.00063879 C15.5781388,9.00275259 15.3796764,9.00999586 15.3420733,9.01673183 M26.568314,9.01647818 C26.3635343,9.04452122 25.9592255,9.21170846 25.7785665,9.34313027 C25.6083269,9.46691421 25.5062105,9.83178375 25.2286311,11.3078904 C25.1776276,11.5791611 25.0854931,12.048424 25.023906,12.3506969 C24.9623189,12.6529699 24.8945786,12.9890636 24.8733568,13.0975719 C24.8521349,13.2060801 24.8089255,13.415346 24.7773116,13.5626072 C24.6301808,14.2482666 24.4756935,15.0486628 24.4599412,15.2071412 C24.3689827,16.1220771 25.409591,16.7733239 26.2694034,16.3395445 C26.5017223,16.2223556 26.6778417,16.0677666 26.8571333,15.8237217 C26.9822218,15.653406 27.1212303,15.3490475 27.0890694,15.3158749 C27.0811112,15.3076734 27.0269354,15.3157058 26.9686847,15.3336872 C26.5422516,15.4653627 26.2538152,15.2487126 26.2538152,14.7967828 C26.2538152,14.6840751 26.3051469,14.3363133 26.378767,13.950193 C26.7262745,12.1273954 26.8250271,11.6416167 26.855848,11.6033429 C26.8830043,11.5696349 26.9728963,11.5615461 27.3203764,11.5615461 C27.6320038,11.5615461 27.7589519,11.5517944 27.7790798,11.5263161 C27.7999735,11.4998796 27.9385717,10.8082452 27.9512884,10.6669027 C27.952355,10.6551781 27.9637864,10.670933 27.9767218,10.7019353 C27.9927749,10.7404346 28.0001588,10.6957912 27.9999974,10.5610155 C27.999858,10.4525073 27.9935407,10.3795954 27.9859654,10.3989578 C27.975792,10.4249434 27.864979,10.4341877 27.5642361,10.4341877 C27.2014685,10.4341877 27.1562901,10.4289737 27.1562901,10.3871487 C27.1562901,10.3383059 27.2435293,9.94829624 27.3784357,9.39400231 C27.4370692,9.15302946 27.4490475,9.06300989 27.4261848,9.03465683 C27.4031033,9.00596556 27.3055266,8.99782039 27.023052,9.00103337 C26.8180534,9.00334445 26.6134378,9.01030589 26.568314,9.01647818 M11.0758283,10.2834317 C10.3604118,10.3484239 9.76513391,10.5657504 9.27087849,10.942429 C9.06664569,11.0980609 8.64428744,11.5376179 8.49994615,11.7447418 C7.74689922,12.8252866 7.63463681,14.7722627 8.27547603,15.6370875 C8.58360284,16.0529137 9.11324621,16.3488734 9.70928986,16.4382729 C9.95848232,16.4756731 10.8484867,16.4760958 11.1322466,16.4389775 C11.4448311,16.3980826 11.75438,16.3053292 12.0740202,16.1567997 C12.1341852,16.1288413 12.2049611,16.0984871 12.2312696,16.0893555 C12.2993655,16.0657374 12.2936498,15.9014813 12.2088992,15.4470149 C12.1702842,15.2399192 12.1339391,15.055117 12.1281414,15.0363746 C12.1208395,15.0127565 12.0625068,15.0280885 11.9379106,15.0862884 C11.6973874,15.198686 11.3738911,15.2759383 10.9998563,15.3102663 C10.1259324,15.3904779 9.60071939,15.1228148 9.44798235,14.5194526 C9.40441743,14.3474177 9.40455417,14.0870825 9.44820114,14.0142833 C9.45974188,13.9950337 10.0312273,13.9853666 11.1589654,13.9853666 L12.8523911,13.9853666 L12.8690186,13.9078607 C12.8781527,13.8652466 12.902246,13.7732823 12.9225381,13.703527 C13.2197805,12.681633 13.2253868,11.8777419 12.9394663,11.2718995 C12.750849,10.8722792 12.4412728,10.5847746 12.0260523,10.4237315 C11.7852283,10.3303016 11.3184573,10.2613918 11.0758283,10.2834317 M22.2610475,10.2845309 C21.766081,10.3239039 21.3869322,10.427649 20.9812834,10.6347729 C20.1859295,11.0408192 19.6352831,11.6582452 19.2994257,12.5205053 C19.0937708,13.0484754 18.9963856,13.7995216 19.055566,14.4011364 C19.1432428,15.2928768 19.4794831,15.8622774 20.114634,16.1947353 C20.4537184,16.3722379 20.6709961,16.4249983 21.2334567,16.4664005 C22.059905,16.5272779 22.7992507,16.4025357 23.3823042,16.1038139 C23.4727157,16.0575077 23.4775836,16.0478124 23.4699263,15.929017 C23.4654959,15.8598254 23.4316395,15.6494321 23.39472,15.4614733 C23.3578006,15.2735145 23.3276087,15.0927989 23.3276087,15.0598519 C23.3276087,14.981585 23.3156304,14.9832479 23.0780607,15.0941236 C22.7012911,15.2699633 22.5557465,15.2959207 21.9465486,15.2959207 C21.4722571,15.2959207 21.3805601,15.2886492 21.2563194,15.2411311 C20.92935,15.1161352 20.7136312,14.8522206 20.6329554,14.4784731 C20.5736929,14.2039332 20.5861908,14.0676637 20.6748795,14.0216675 C20.7274965,13.9943573 21.1197449,13.9860994 22.3787794,13.9857893 L24.0143101,13.9853666 L24.0782764,13.8362734 C24.1760992,13.6083216 24.2791728,13.1357893 24.3151897,12.7502328 C24.3693109,12.1706578 24.2737579,11.5408591 24.0739555,11.160291 C23.905849,10.8400649 23.5509849,10.5447816 23.1771962,10.4140925 C22.9194439,10.3239602 22.50395,10.2651967 22.2610475,10.2845309 M6.69641844,10.3996342 C6.27920156,10.4071875 6.26842655,10.4089067 6.25581925,10.4700941 C6.24870884,10.5045912 6.18654747,10.8055114 6.1176859,11.1387867 C6.04882433,11.472062 5.89206717,12.2710773 5.76935793,12.9143761 C5.6466487,13.557675 5.50531566,14.2742522 5.45529667,14.5067698 C5.33368134,15.0721682 5.0866767,16.3355142 5.0866767,16.3921358 C5.0866767,16.4326643 5.17336898,16.4373711 5.92026268,16.4373711 L6.75384866,16.4373711 L6.7707769,16.3598652 C6.78010247,16.3172228 6.7983981,16.2379695 6.81147031,16.1837154 C6.83676696,16.0786456 6.97249371,15.425116 7.12750061,14.6617816 C7.17946129,14.4060122 7.3751616,13.4104138 7.56243882,12.4493408 C7.74968868,11.4882678 7.9146775,10.6599976 7.92908975,10.608731 C7.94347466,10.5574643 7.94850664,10.497348 7.94024763,10.4751672 C7.91522446,10.4079484 7.72764642,10.3751141 7.41793344,10.3837384 C7.25630839,10.3882197 6.93163621,10.3953784 6.69641844,10.3996342 M0,10.6679173 C0,10.9070582 0.0367553413,11.3348343 0.150658612,12.4211568 C0.173439267,12.6381733 0.204068718,12.9108531 0.218781793,13.027112 C0.24454335,13.2307129 0.297543239,13.7849223 0.356231455,14.4644939 C0.371628224,14.6427574 0.396350566,14.8773889 0.411145685,14.9858971 C0.425968152,15.0944054 0.480499514,15.6017167 0.532378146,16.1132555 C0.679426859,17.563743 0.709564051,17.8518112 0.727695592,17.9804428 L0.744596486,18.1002247 L1.50040554,18.0999992 L2.25618724,18.0997737 L2.54333835,17.5170422 C2.70127145,17.1965342 3.06505088,16.4578608 3.35173707,15.875552 C3.83729592,14.8893107 4.15939741,14.2410233 4.71802937,13.1257558 C5.10456211,12.3541072 5.98354531,10.5360445 6.00230585,10.4694177 L6.02019126,10.4060037 L5.14208318,10.4060037 L4.26394776,10.4060037 L4.18663575,10.5821535 C4.14411003,10.6790499 4.06584085,10.8534241 4.01273157,10.9696829 C3.95962229,11.0859418 3.87949346,11.2635007 3.83469788,11.3642584 C3.73969189,11.5779491 3.23345817,12.703391 3.11211631,12.970744 C3.06636357,13.0715017 2.94923327,13.3314987 2.85176598,13.5485152 C2.75432604,13.7655317 2.63470709,14.0318701 2.5860008,14.1403784 C1.91168796,15.6419634 1.95703049,15.5517747 1.9358907,15.4332611 C1.92517039,15.3732293 1.90337425,15.0831318 1.88745788,14.7886094 C1.87156885,14.4940871 1.83962671,13.9677516 1.81646319,13.6189751 C1.79332701,13.2701986 1.76217795,12.6614251 1.7472461,12.2661451 C1.73234159,11.870865 1.70950624,11.4333091 1.69654342,11.2937985 C1.6835806,11.1542879 1.67190312,10.8974756 1.67059043,10.7230733 L1.66821117,10.4060037 L0.834105587,10.4060037 L0,10.4060037 L0,10.6679173 M17.4885688,10.4976016 C17.4593614,10.6436509 17.2877544,11.4670734 17.228656,11.7447418 C17.1989564,11.8842524 17.1312708,12.2076633 17.0782435,12.4634328 C17.0251889,12.7192022 16.9575033,13.0426131 16.927831,13.1821237 C16.8981314,13.3216343 16.8304458,13.6450453 16.7774186,13.9008147 C16.3404293,16.0083548 16.3131909,16.1172576 16.1320396,16.4826627 C15.6723517,17.4098868 14.8937347,17.7918076 13.9336655,17.5610373 C13.7234982,17.5105035 13.329773,17.334692 13.0722122,17.1763545 L12.8397565,17.0334336 L12.8314975,17.1881636 C12.8196559,17.4101404 12.8909241,17.7590578 12.9932319,17.9800483 C13.1671088,18.3556841 13.5651549,18.6961463 14.0160368,18.8549347 C14.8495134,19.1484425 15.8864844,18.9878221 16.6153833,18.4522705 C17.1201949,18.0813414 17.6594921,17.3291679 17.8561495,16.7216908 C18.0447941,16.1389875 18.3140051,14.8690183 18.7200368,12.6466285 C18.7596637,12.429612 18.8519075,11.9413249 18.925008,11.5615461 C19.0659855,10.8291013 19.1217475,10.4664865 19.0992403,10.4289455 C19.091665,10.4163191 18.7302922,10.4060037 18.2961744,10.4060037 L17.5068918,10.4060037 L17.4885688,10.4976016 M10.610917,11.3618909 C10.2723522,11.4718647 9.93873727,11.7602148 9.77333823,12.0858241 C9.69359227,12.2428369 9.57156672,12.5816927 9.5333346,12.7523184 L9.5159688,12.8298243 L10.5239239,12.8298243 L11.5318789,12.8298243 L11.581351,12.5045532 C11.6218256,12.238412 11.6256269,12.1410647 11.6021899,11.9690298 C11.5748696,11.7682191 11.5007572,11.5740879 11.4123967,11.4717802 C11.2754667,11.313189 10.9135742,11.2635853 10.610917,11.3618909 M21.7824623,11.3624546 C21.5546011,11.4326608 21.4619743,11.4877041 21.2820536,11.6598235 C21.0815128,11.8516718 20.9252205,12.1238724 20.7902048,12.516475 L20.6824274,12.8298243 L21.6861163,12.8298243 L22.6898324,12.8298243 L22.7228138,12.7551931 C22.8004813,12.5795507 22.8326149,11.9690298 22.7763059,11.7386541 C22.6897504,11.3844099 22.2506827,11.2182091 21.7824623,11.3624546" id="Shape" fill="#EF3D37"></path>
    </g>
</svg>