<?xml version="1.0" encoding="UTF-8"?>
<svg width="28px" height="28px" viewBox="0 0 28 28" version="1.1" xmlns="http://www.w3.org/2000/svg" xmlns:xlink="http://www.w3.org/1999/xlink">
    <title>VN</title>
    <g id="VN" stroke="none" stroke-width="1" fill="none" fill-rule="evenodd">
        <path d="M14.0006997,20.8660735 C13.756394,21.0057567 12.0089387,22.4990806 8.53133308,22.4990806 C5.6015684,22.500551 2.47309797,20.9873773 1.49042781,21.0167843 C1.14494615,21.0020808 0.867831573,21.0728046 0.649968469,21.1693331 C0.239765971,21.3430182 -0.158586232,21.0893828 0.0638346777,20.6648193 C0.835015373,19.1953886 2.142194,18.2911235 3.38100554,17.9143464 C4.2843626,17.6395748 5.1093254,17.546759 5.53775912,18.0264606 C6.47849018,19.0795986 8.1794632,20.3799391 9.83303505,20.5508672 C9.96612297,20.5646885 10.5668417,20.615195 10.5732227,20.4442669 C10.5797859,20.3395045 10.3754139,20.2715008 10.1684895,20.2558783 C8.47936681,20.1327365 5.43566427,18.3104219 3.76294965,14.7815826 C3.13488404,13.4573488 2.63626012,12.1735498 1.54329835,11.6148169 C1.3008231,11.4971889 1.29353061,11.0459753 1.80218171,10.9237525 C2.1586021,10.8382884 4.40560022,10.6204929 6.97529098,11.9842422 C8.15485105,12.6100598 8.31984361,13.1715496 8.32348986,13.6613599 C8.31342622,17.3592894 10.1694011,18.8268822 10.8867997,19.2606354 C11.2860635,19.5014051 11.6598035,19.6043296 11.6999122,19.4784309 C11.7317804,19.3727495 11.6269873,19.30107 11.5349196,19.2450129 C9.30979897,17.8831015 8.72184206,15.7878531 8.7045224,13.6549271 C8.6881143,11.5449753 9.46294124,9.71898471 10.0126126,8.22290387 C10.0937415,8.0115411 10.354448,7.12014159 10.1329387,6.29490781 C9.96703453,5.67919887 10.1019456,5.5 10.4228151,5.5 C10.7755892,5.5 11.2450432,6.07527432 11.4027433,6.27285257 C11.5294503,6.42080651 11.9387412,6.92440128 12.5586028,8.15857607 C13.7846524,10.6021135 13.7928565,13.1550082 13.7928565,13.4674575 C13.7928565,15.2217685 13.3443684,15.4248606 12.6132964,15.7887721 C11.883136,16.1526837 11.5358312,16.6213576 11.5349196,17.165387 C11.5334611,17.7241199 11.9195984,18.305827 12.6132964,18.510757 C13.1502132,18.6688196 13.4911298,18.6090867 13.4628714,18.4684845 C13.4409939,18.3572893 13.2030837,18.3297202 13.1337978,18.3104219 C12.4018142,18.1100867 11.9168637,17.7323906 11.9168637,17.165387 C11.9168637,16.4577812 12.7819352,15.938564 13.9988693,15.938564 C15.2167149,15.938564 16.0817864,16.4577812 16.0817864,17.165387 C16.0817864,17.7323906 15.5977475,18.1110057 14.8657639,18.3104219 C14.7964853,18.329757 14.5585678,18.3572525 14.5366904,18.4684845 C14.5084684,18.6100056 14.8493558,18.6697386 15.3871769,18.510757 C16.0799633,18.306746 16.4655537,17.7250389 16.4646421,17.165387 C16.4639128,16.6222766 16.116433,16.1526837 15.3871769,15.7887721 C14.6561049,15.4248606 14.2067052,15.2217685 14.2067052,13.4683765 C14.2067052,13.1559272 14.2158208,10.6021135 15.4409663,8.15857607 C16.0608205,6.92532025 16.4701188,6.42080651 16.5968257,6.27285257 C16.7545258,6.07527432 17.2239798,5.5 17.5767539,5.5 C17.8976234,5.5 18.0325345,5.67919887 17.8666304,6.29490781 C17.6469441,7.12014159 17.905864,8.0115411 17.9860449,8.22290387 C18.5366278,9.72082264 19.3123663,11.5449753 19.2959582,13.6549271 C19.277727,15.7887721 18.6906816,17.8840205 16.4655609,19.2459319 C16.3744048,19.30107 16.2668406,19.3727495 16.3005684,19.4784309 C16.3397291,19.6052486 16.7134983,19.5032063 17.112762,19.2615543 C17.8310722,18.8278012 19.686099,17.3592894 19.6769834,13.6613599 C19.6799004,13.1715496 19.8447107,12.6100598 21.0251896,11.9842422 C23.5948731,10.6204929 25.8418712,10.8392074 26.1973873,10.9237525 C26.7060384,11.0459753 26.6996575,11.4981079 26.4571749,11.6148169 C25.3633016,12.1735498 24.8646777,13.4582678 24.2375309,14.7815826 C22.564809,18.3104219 19.5202022,20.1336555 17.8310722,20.2567973 C17.6241551,20.2715008 17.4190539,20.3404234 17.4263391,20.4451859 C17.4329023,20.615195 18.033446,20.5646518 18.166534,20.5508672 C19.8201058,20.3808581 21.5210788,19.0805175 22.4618099,18.0264606 C22.8911479,17.547678 23.7152064,17.6395748 24.6194677,17.9152654 C25.8573677,18.2911235 27.1645464,19.1953886 27.935727,20.6657383 C28.1590668,21.0903018 27.7607073,21.3430182 27.3495933,21.1702521 C27.1317302,21.0737604 26.8546156,21.0029998 26.5091339,21.0167843 C25.5273826,20.9882595 22.3989049,22.5009186 19.4673244,22.5 C15.9906303,22.5 14.2440792,21.0057567 14.0006997,20.8660735" id="path8401" fill="#D99E09" fill-rule="nonzero"></path>
    </g>
</svg>