<?xml version="1.0" encoding="UTF-8"?>
<svg width="28px" height="28px" viewBox="0 0 28 28" version="1.1" xmlns="http://www.w3.org/2000/svg" xmlns:xlink="http://www.w3.org/1999/xlink">
    <title>VS</title>
    <g id="VS" stroke="none" stroke-width="1" fill="none" fill-rule="evenodd">
        <path d="M16.2859985,24 C12.7120816,24 11.8415952,23.4077805 10.4277023,21.8370544 L10.4277023,21.8370544 L4.4408921e-14,10.2595897 C0.00194305013,10.2595897 0.00453378363,10.2595897 0.00712451713,10.2595897 L0.00712451713,10.2595897 C0.0148967176,10.2602455 0.0226689181,10.2602455 0.031088802,10.2602455 L0.031088802,10.2602455 C0.0453378363,10.2609013 0.0602345539,10.2609013 0.0757789549,10.2615572 L0.0757789549,10.2615572 C0.397029909,10.2674597 0.709213296,10.2595897 1.01427217,10.2405704 L1.01427217,10.2405704 C1.0401795,10.2392588 1.06608684,10.2372912 1.09264185,10.2353237 L1.09264185,10.2353237 C4.1762624,10.0182422 6.4554602,8.57540399 8.65434526,7.13125414 L8.65434526,7.13125414 C11.2891212,5.40181583 13.8092572,3.67172168 17.4621915,4.05341796 L17.4621915,4.05341796 C17.4673729,4.0540738 17.4732021,4.05472963 17.4783836,4.05472963 L17.4783836,4.05472963 C17.4848604,4.05538547 17.4913372,4.05604131 17.4978141,4.05669714 L17.4978141,4.05669714 C17.5088247,4.05800881 17.5198353,4.05932048 17.5308459,4.06063215 L17.5308459,4.06063215 C17.5334367,4.06063215 17.5360274,4.06063215 17.5392658,4.06128799 L17.5392658,4.06128799 C17.6830515,4.07768388 17.8287803,4.09670311 17.9770998,4.11965735 L17.9770998,4.11965735 C17.9978256,4.12293653 18.0191992,4.12621571 18.0399251,4.13015072 L18.0399251,4.13015072 C18.4505563,4.19573428 18.8754366,4.28820709 19.3158613,4.40953666 L19.3158613,4.40953666 L28,24 L16.2859985,24 L16.2859985,24 Z" id="path5303-1" fill="#E2062E" transform="translate(14.000000, 14.000000) scale(-1, 1) rotate(-180.000000) translate(-14.000000, -14.000000) "></path>
        <path d="M23.5716592,14.7333994 C23.4868127,14.8822741 23.2666004,14.9852403 22.8747519,14.8134113 C22.4582915,14.6297774 22.2866554,14.5497655 22.2737017,14.5445188 C22.2613958,14.5392721 21.7646226,14.2775937 21.8144942,14.9609743 L21.9718813,16.5723623 C21.9718813,16.5723623 22.0340589,17.1593351 21.5813282,17.1554001 C21.5813282,17.1554001 21.3416854,17.1842568 20.9543707,16.8399432 C20.9543707,16.8399432 20.7658948,16.6615559 20.6201661,16.6241733 C20.5372626,16.6031865 20.4394624,16.593349 20.2982674,16.6418808 C20.1570725,16.6897568 20.0307742,16.6681142 19.9316787,16.63729 C19.9316787,16.63729 19.4970831,16.5212071 19.4653466,15.9198059 L19.2911198,14.4920519 C19.2911198,14.4920519 19.1985011,13.9326242 19.2470773,13.8290022 C19.2470773,13.8290022 19.2924152,13.6033948 19.6920358,13.7443994 C19.6920358,13.7443994 20.0307742,13.8421189 20.0689875,14.4271242 C20.0689875,14.4271242 20.16614,15.5748364 20.3274132,15.7978205 C20.3274132,15.7978205 20.5171844,16.15853 20.7924499,16.3146189 C20.7924499,16.3146189 21.1823553,16.5074345 21.1771738,16.1834518 L21.0366265,14.8730924 C21.0366265,14.8730924 20.900613,14.2238152 21.1881844,14.1254399 C21.1881844,14.1254399 21.2192732,14.1103557 21.1473804,14.0710055 C21.1473804,14.0710055 19.2820522,13.2662953 16.8804423,11.9152741 C17.0456015,13.2892496 17.3273438,15.2069127 17.3273438,15.2069127 C17.3681479,15.5177787 16.9924915,15.5177787 16.9924915,15.5177787 C16.623312,15.5322071 16.5727927,15.0947648 16.5417039,14.9039167 C16.5093197,14.7124127 16.2327589,13.1607058 16.2327589,13.1607058 C16.105813,12.4543709 15.6919433,12.485851 15.6919433,12.485851 C15.2839028,12.4405984 15.526784,13.558798 15.526784,13.558798 C15.6362425,13.957546 15.6751035,14.2966129 15.9859915,14.5622263 C16.2910504,14.8258722 16.3201962,15.1662509 16.0896209,15.1767442 C15.7074877,15.1924843 15.3156392,14.7766846 15.3156392,14.7766846 C14.6336286,14.0933039 14.634924,12.4458451 14.634924,12.4458451 C14.6219703,11.9224883 14.970424,11.7677111 14.970424,11.7677111 C15.4037242,11.5650579 15.9989452,11.9185533 15.9989452,11.9185533 C16.1388448,12.0129936 16.1187666,11.8805148 16.1187666,11.8805148 L16.0883255,11.4607801 C14.3272744,10.4311183 12.3699752,9.1450248 10.6814647,7.69300492 C10.6814647,7.69300492 9.90618769,7.11652548 10.1950545,6.73745254 C10.5027041,6.33476952 10.9282321,6.70203742 11.1037543,6.86599631 C11.1037543,6.86599631 12.8343642,8.66364151 16.030034,10.6737774 L15.9270523,9.32144456 C15.8817145,8.71282918 15.6880572,6.8253345 15.6880572,6.8253345 C15.5986769,6.08620785 15.7165552,5.94061236 15.75995,5.88421051 C15.8240707,5.80354274 16.1090514,5.55760441 16.43095,5.76747178 C16.8247415,6.02455931 16.6291411,6.64170055 16.5637251,6.93092402 C16.4976614,7.222115 16.506729,7.69956327 16.506729,7.69956327 C16.5365224,8.08847375 16.7586778,10.7157509 16.7586778,10.7157509 C16.7625639,10.8174054 16.7748699,10.9630009 16.7923573,11.1413882 C18.0164789,11.8693656 19.4213042,12.6091481 20.9932317,13.2859704 C20.9932317,13.2859704 21.6732993,13.5594538 22.2523282,13.7443994 C22.2523282,13.7443994 22.4433948,13.8171972 22.6882191,13.8893391 C23.0152992,13.9870586 23.4375888,14.1326541 23.5612963,14.316288 C23.6344845,14.423845 23.6603918,14.5773106 23.5716592,14.7333994 M19.0488862,16.9934087 C19.0488862,16.9934087 19.4102935,17.2964047 19.2451343,17.5187329 C19.2451343,17.5187329 19.0916333,17.7502429 18.6635146,17.4433119 C18.6635146,17.4433119 18.280086,17.1252316 18.5151951,16.90028 C18.5151951,16.90028 18.7379982,16.6871335 19.0488862,16.9934087 M18.0151835,13.1154531 C18.0151835,13.1154531 18.4471884,13.2092376 18.523615,13.706361 C18.523615,13.706361 18.7794499,15.5590964 18.7911082,15.6220566 C18.8014712,15.6850168 18.9135204,16.1716467 18.5754297,16.0955698 C18.5754297,16.0955698 18.16156,16.0135904 18.0864287,15.5991023 L17.7638824,13.7765354 L17.7049432,13.4066441 C17.7049432,13.4066441 17.619449,13.012487 18.0151835,13.1154531 M12.4800814,14.8061972 C12.812343,15.0757456 12.7145428,15.2993855 12.7145428,15.2993855 C12.5901876,15.6614067 12.1387523,15.2757754 12.1387523,15.2757754 C11.7579145,14.9990128 11.8906896,14.7314319 11.8906896,14.7314319 C12.0571442,14.4415526 12.4800814,14.8061972 12.4800814,14.8061972 M12.8997803,13.419105 C12.8997803,13.419105 12.7339733,12.2097443 12.7074183,11.9401959 C12.7074183,11.9401959 12.4859106,10.9203716 13.0273739,11.1040055 C13.0273739,11.1040055 13.4632648,11.225991 13.5319192,11.8470672 L13.6193565,12.7219518 C13.6193565,12.7219518 13.6459115,13.3699173 14.1536953,13.6479916 C14.1536953,13.6479916 14.6990447,13.8965533 14.5332377,14.2382436 C14.5332377,14.2382436 14.4302561,14.5071362 14.1077097,14.364164 C13.8622377,14.2520161 13.7314057,14.2402111 13.7314057,14.2402111 C13.7314057,14.2402111 13.4043256,14.1975818 13.3576924,14.1916793 C13.3576924,14.1916793 12.955481,14.1746275 12.8997803,13.419105 M11.8906896,13.6270049 C11.3848488,13.5102661 11.3187851,12.9272283 11.3187851,12.9272283 L11.0091925,10.6062264 C10.9599685,10.1458298 11.5500081,10.480306 11.5500081,10.480306 C11.7922417,10.6272131 11.8349888,10.9302091 11.8349888,10.9302091 L11.9289029,11.5125911 L12.2158266,13.0833172 C12.3097407,13.7384969 11.8906896,13.6270049 11.8906896,13.6270049 M12.6141519,18.2735996 C12.6141519,18.2735996 13.1394231,19.2560413 13.5545881,19.5787124 C13.5545881,19.5787124 14.0079665,19.8567866 14.0215679,20.3145598 C14.0215679,20.3145598 14.0545997,20.6201792 13.8097754,20.8097157 C13.8097754,20.8097157 13.1698642,21.3389749 12.6510698,20.4391686 C12.6510698,20.4391686 10.2015313,15.7460095 9.35759987,11.0154678 C9.35759987,11.0154678 9.29283153,10.8606906 9.27663945,11.2928862 C9.27663945,11.2928862 8.91587981,15.2633145 8.90163077,15.4069425 C8.88738174,15.552538 8.89774467,15.9080009 8.57001689,15.9329226 C8.57001689,15.9329226 8.18334991,16.0044087 7.95536536,15.41678 L6.86920034,12.7055559 C6.86920034,12.7055559 6.68979205,12.366489 6.97865883,12.238601 C6.97865883,12.238601 7.30120515,12.0529996 7.51299762,12.5107728 L8.01430455,13.6020831 C8.11469547,13.8237555 8.18853138,13.7922754 8.18853138,13.7922754 C8.2461752,13.7804704 8.27078717,13.558798 8.27078717,13.558798 C8.27078717,13.558798 8.71250723,8.22882255 8.71639333,8.18684908 C8.7215748,8.14618727 8.7604358,7.71792667 9.1147186,7.71858175 C9.37249659,7.71989418 9.45216164,8.01108515 9.50332863,8.25243263 C9.5551433,8.49312427 10.0324859,11.0279286 10.8291365,13.7627628 C11.3505216,15.5551613 12.022817,17.3449365 12.6141519,18.2735996" id="path5319" fill="#FFFFFF" fill-rule="nonzero" transform="translate(15.221043, 13.324536) scale(-1, 1) rotate(-180.000000) translate(-15.221043, -13.324536) "></path>
    </g>
</svg>