<?xml version="1.0" encoding="UTF-8"?>
<svg width="28px" height="28px" viewBox="0 0 28 28" version="1.1" xmlns="http://www.w3.org/2000/svg" xmlns:xlink="http://www.w3.org/1999/xlink">
    <title>VT</title>
    <g id="VT" stroke="none" stroke-width="1" fill="none" fill-rule="evenodd">
        <path d="M11.0342459,8.50381129 C10.9210191,8.50941061 10.6183949,8.53400258 10.3617475,8.558482 C8.7100914,8.71599441 7.61457776,9.14179564 7.29043352,9.75228987 C7.18170837,9.95707288 7.19845221,9.97795073 7.4718983,9.97817583 C7.78327879,9.9784572 9.21342215,10.057129 9.48338222,10.0888397 C9.60415745,10.1029927 9.80178964,10.1226607 9.92256486,10.1325087 C11.0005386,10.2203814 12.0692896,10.4566782 12.3104558,10.6604764 C12.4082013,10.7430592 12.4124559,10.7536107 12.3975512,10.8761485 C12.3632949,11.1580839 12.0069806,12.1493597 11.6741076,12.8887508 C10.9702899,14.452226 9.81114972,16.3266743 9.11713135,17.0236625 L8.95172419,17.1897568 L8.64113972,17.2159526 C8.22602978,17.2509553 7.12368136,17.2238873 6.69731737,17.1682036 C5.83698603,17.0559078 5.13050586,16.854642 4.58375093,16.5660943 L4.37788407,16.4574563 L4.36986899,16.2251551 C4.35131352,15.6883805 4.6124076,14.8863559 5.00267627,14.2812077 C5.41833518,13.6367237 5.91557228,13.1962629 6.4512653,12.9980078 C6.63014988,12.9318008 6.6979487,12.9220934 6.98553098,12.9214181 C7.268145,12.920771 7.33830443,12.9301125 7.47961144,12.9871749 C7.72047567,13.0844173 7.96630815,13.2525656 8.12046126,13.425441 C8.34194655,13.6738649 8.36412527,13.8992444 8.2242456,14.4799412 C8.13520132,14.8494961 8.08453063,15.1234686 8.10187834,15.1412795 C8.10992087,15.1494956 8.35322805,15.1643521 8.64256707,15.1742564 C9.16470032,15.1921798 9.1691196,15.191814 9.23560087,15.1278017 C9.34484755,15.0226246 9.54382473,14.7003404 9.74466844,14.3033799 C10.2527204,13.299189 10.5599836,12.2802543 10.4298757,12.0310425 C10.3487093,11.875556 9.92174139,11.7350948 9.26379091,11.6474191 C8.94104656,11.6043972 8.68390513,11.5963499 7.65802939,11.5971096 C6.26859277,11.5981226 6.09390788,11.6158772 5.56101464,11.8100524 C3.12322162,12.6983178 0.00255449754,16.3299382 0,18.2815671 C0,18.3683987 0.00782468918,18.4994902 0.0176239518,18.5729003 C0.0335992202,18.6922867 0.05105673,18.7188764 0.183497744,18.8254323 C0.543462813,19.1150491 1.07901859,19.309562 1.86696714,19.4369113 C2.23453556,19.4963091 2.34869559,19.5010361 3.38972314,19.4998544 C4.35079199,19.498757 4.60131824,19.4894436 5.10528031,19.4360953 C5.72332008,19.370648 6.42194986,19.2839008 6.72476629,19.2349701 C6.82289616,19.2191289 7.10081642,19.1746157 7.34236687,19.1360677 C7.58391732,19.0975196 7.8803656,19.0476041 8.00114082,19.0251506 C8.12191605,19.002697 8.36278028,18.9578462 8.53639466,18.9255165 C9.04131745,18.8314818 9.26944538,18.7350554 9.70983577,18.4294565 C11.1392655,17.4376179 13.3353982,14.7004811 14.7902456,12.0975309 C15.3730959,11.0547639 15.6983381,10.2581698 15.7090431,9.84733755 C15.713133,9.69013465 15.7038278,9.63450728 15.6662503,9.59187932 C15.6398444,9.56194127 15.6182147,9.50530096 15.6182147,9.46604947 C15.6182147,9.39249866 15.5367189,9.26433342 15.4427612,9.19013546 C14.9485435,8.79989973 13.5801328,8.53256758 11.9369035,8.5052463 C11.5536617,8.49885914 11.1474727,8.49821198 11.0342459,8.50381129 M22.5502734,8.74047383 C21.2591039,8.79683277 20.2581243,8.92111507 19.902057,9.06922963 C19.3585685,9.29531255 18.8656958,9.68152465 18.0457967,10.5237293 C17.0940605,11.5013867 16.177651,12.6534388 15.4248371,13.8187155 C14.857715,14.69657 14.262101,15.7279415 13.9959289,16.2930222 C13.6140596,17.103713 13.5129104,17.603262 13.6660479,17.9221135 C13.7863565,18.1725914 14.0653198,18.3197775 14.5888804,18.4090007 C14.9191732,18.4652753 16.2694127,18.4718031 17.127905,18.4212686 C17.6563241,18.3901488 18.9985211,18.3362659 20.7099884,18.2774027 C21.7383894,18.2420623 22.6078887,18.166345 22.9745239,18.0802449 C23.6967871,17.9106054 24.0670456,17.5653893 24.4217679,16.7309224 C24.4842691,16.5839052 24.5439979,16.4277997 24.5545108,16.3839899 L24.5736153,16.3043615 L23.4240822,16.3234385 C20.0024103,16.3801914 18.1113173,16.0897586 17.6631588,15.438606 C17.5821022,15.3208234 17.580867,15.3136484 17.5835295,14.9768453 C17.5857254,14.6996933 17.6003008,14.5812354 17.6602493,14.3533235 C17.747674,14.0208536 17.9258724,13.5076862 18.0608387,13.1996957 C18.7612527,11.6013302 19.7092009,10.2359694 20.3262251,9.93675778 C20.6312923,9.78881204 21.1804353,9.69761916 21.7667716,9.69753475 C22.6983603,9.6974222 23.8593945,9.91343198 24.5382336,10.2132064 C24.7360031,10.3005163 24.7452808,10.308845 24.7637265,10.4154571 C24.7931243,10.5851248 24.7896108,11.0731656 24.7572211,11.3195074 C24.6809131,11.9001198 24.4290967,12.5714187 24.0583168,13.1826164 C23.8137744,13.585739 23.7892351,13.6077986 23.5646755,13.626538 C23.2034753,13.656673 22.7731037,13.5507643 22.4529945,13.3529312 C22.1499585,13.1656777 22.1305521,13.1416485 22.0800186,12.8911143 C22.0412333,12.6989086 22.0396413,12.6324766 22.0685724,12.413231 C22.1022522,12.1577728 22.2043348,11.7789045 22.2802859,11.6273009 C22.3343877,11.5193101 22.3188516,11.5117412 21.9546594,11.4687474 C21.2887487,11.3901319 21.1017393,11.4842229 20.7707328,12.0644696 C20.2833773,12.9188295 20.1428938,13.361485 20.1891452,13.8971059 C20.2104181,14.1434477 20.2318283,14.177128 20.4200455,14.2606675 C20.7495423,14.406925 21.2024219,14.5104139 21.8902917,14.5966546 C22.5740991,14.6823888 23.8172879,14.6826702 24.4611571,14.5972455 C25.3639244,14.4774651 25.7777443,14.3369758 26.0246473,14.0664078 C26.4598773,13.5894249 27.4329962,11.7055788 27.8073719,10.6151754 C28.0067334,10.0345629 28.0481538,9.71661182 27.9464281,9.54792891 C27.7709472,9.25687705 27.1382497,9.02806481 26.1037001,8.88155407 C25.2357655,8.7586505 23.611421,8.69413175 22.5502734,8.74047383" id="Shape" fill="#FC2502"></path>
    </g>
</svg>