<?xml version="1.0" encoding="UTF-8"?>
<svg width="28px" height="28px" viewBox="0 0 28 28" version="1.1" xmlns="http://www.w3.org/2000/svg" xmlns:xlink="http://www.w3.org/1999/xlink">
    <title>VW</title>
    <g id="VW" stroke="none" stroke-width="1" fill="none" fill-rule="evenodd">
        <path d="M25.2988004,1.0658141e-13 C26.7890043,1.0658141e-13 27.9990631,1.16500427 28,2.56939299 L28,2.56939299 L28,25.4578311 C28,26.8678524 26.7894728,28 25.2997373,28 C23.7917315,28 22.5732403,26.8678524 22.5732403,25.4578311 L22.5732403,25.4578311 L22.5732403,9.6856822 C22.5732403,9.33599316 22.357744,8.30570131 21.5491643,9.09097615 L21.5491643,9.09097615 L15.4993391,15.5829883 L4.64769362,27.2217659 C3.67374391,28.2506496 2.00036808,28.2506496 0.921012565,27.2442962 C0.349010357,26.7087322 0.0267028058,25.9976196 -5.32907052e-15,25.3010578 L-5.32907052e-15,25.3010578 L-5.32907052e-15,25.0804486 C0.0267028058,24.5148442 0.242199133,23.9450153 0.646957453,23.5089602 L0.646957453,23.5089602 L15.4988707,7.63495549 L21.8724088,0.783397314 C22.3301042,0.272710509 22.9784671,0.0281628753 23.6282354,1.0658141e-13 L23.6282354,1.0658141e-13 Z M19.2522545,22.5082393 C20.6557915,22.5082393 21.7894895,23.7530384 21.7890212,25.2437933 C21.7890212,26.7307931 20.655323,27.9770003 19.251786,27.9770003 L19.251786,27.9770003 L11.7445499,27.9770003 C10.3382021,27.9770003 9.18342284,26.7307931 9.18342284,25.2437933 C9.18342284,23.7530384 10.3382021,22.5082393 11.7445499,22.5082393 L11.7445499,22.5082393 Z" id="Combined-Shape" fill="#003B79" fill-rule="nonzero"></path>
    </g>
</svg>