<?xml version="1.0" encoding="UTF-8"?>
<svg width="28px" height="28px" viewBox="0 0 28 28" version="1.1" xmlns="http://www.w3.org/2000/svg" xmlns:xlink="http://www.w3.org/1999/xlink">
    <title>VY</title>
    <g id="VY" stroke="none" stroke-width="1" fill="none" fill-rule="evenodd">
        <circle id="Oval" fill="#F7CE46" cx="14" cy="14" r="14"></circle>
        <g id="Group-4" transform="translate(6.000000, 5.000000)" fill-rule="nonzero">
            <path d="M0.183331044,6.76039457 C0.564229921,6.02219232 1.50355576,5.73455187 2.27996026,5.89297884 C2.89681419,6.00758558 3.33614003,6.55477659 3.49007262,7.13792266 C4.20018498,9.53455187 4.91254453,11.9300575 5.61816251,14.3289339 C5.65636475,14.4693833 5.72265689,14.6019676 5.79906138,14.7255631 C6.54288161,12.2705069 7.26422992,9.80870917 7.99231981,7.34803502 C8.12939846,6.82106872 8.38333104,6.26713614 8.90018498,6.01994513 C9.73052206,5.64129344 10.8732187,5.90983277 11.3440052,6.72106872 C11.6440052,7.25927097 11.5676007,7.91769794 11.3507468,8.47050693 C10.3406344,11.2828665 9.34962318,14.1019676 8.34288161,16.9154507 C8.13164565,17.4570238 7.92939846,18.0334283 7.50805015,18.453653 C7.07209509,18.8682597 6.43389284,18.9098328 5.86310633,18.9143272 C5.22939846,18.9176979 4.52378048,18.859271 4.03726363,18.4030912 C3.59119621,17.9750013 3.35748835,17.3828665 3.14625239,16.8154507 C2.14737599,13.9929788 1.15636475,11.1682597 0.152993966,8.34915861 C-0.0335228881,7.84129344 -0.0784667084,7.25028221 0.183331044,6.76039457 Z" id="Path" fill="#595E60"></path>
            <path d="M13.4354065,0.13455187 C14.0039458,-0.0452234106 14.6309121,-0.0452234106 15.1994515,0.136799061 C15.906193,0.363765353 16.4657436,0.996349623 16.5893391,1.73005749 C16.6668672,2.36039457 16.6387773,3.05702378 16.2522604,3.59073165 C15.4994515,4.64466423 13.86462,4.78848445 12.8376537,4.07050693 C11.517429,3.08736086 11.7882155,0.617697938 13.4354065,0.13455187 Z" id="Path" fill="#FFFFFF"></path>
        </g>
    </g>
</svg>