<?xml version="1.0" encoding="UTF-8"?>
<svg width="28px" height="28px" viewBox="0 0 28 28" version="1.1" xmlns="http://www.w3.org/2000/svg" xmlns:xlink="http://www.w3.org/1999/xlink">
    <title>W3</title>
    <g id="W3" stroke="none" stroke-width="1" fill="none" fill-rule="evenodd">
        <path d="M28,9.816 L27.9733715,9.84209094 C27.6380801,10.1605643 26.8411575,10.8940943 26.458507,11.0467799 C26.458507,11.0467799 23.1790613,12.4724257 22.2996953,12.6761524 L21.979886,13.0068264 C21.979886,13.0068264 24.9091701,12.1176918 25.4559766,11.8608118 L25.508,11.833 L24.6498403,12.4868231 C24.6498403,12.4868231 22.0806056,13.2724991 21.4702562,13.4142773 L21.04327,13.8217308 C21.04327,13.8217308 23.6990213,13.0831671 23.8531154,13.0068264 C23.8531154,13.0068264 23.2221058,13.5054516 23.0998627,13.5996814 C23.0998627,13.5996814 20.7815688,14.1890474 20.6167142,14.2544849 L20.2650539,14.5602918 L22.6259593,13.9491142 C22.6259593,13.9491142 18.9655868,16.2402683 17.5770186,16.5203357 C17.5770186,16.5203357 14.4228308,17.4477925 12.8939438,17.6406108 C11.3654897,17.8334317 10.7912971,18.7861892 10.2024686,19.2699834 C9.61407044,19.7533414 7.68316333,21.7648642 6.42372584,22 L12.6963776,14.4970349 C12.6963776,14.4970349 13.2671277,13.5085071 15.04308,13.464009 C16.8190324,13.4190773 20.2719389,12.8288391 21.0936298,12.5998091 C21.8627109,12.3851496 26.5786652,10.9072117 27.903887,9.89598159 L28,9.816 Z M0.209622828,5 L0.222618396,5.02661159 C0.434557118,5.45602593 3.23090305,10.9531333 8.03139152,12.0789335 C8.03139152,12.0789335 10.0716271,12.6674272 10.9346385,12.8371255 C10.9346385,12.8371255 12.5831867,13.2825326 11.6414043,14.7142842 L6.12156464,21.7557029 C6.12156464,21.7557029 6.05872316,20.7379441 6.68628773,19.4758907 C6.68628773,19.4758907 8.63312167,17.0682591 3.67284909,12.9322276 C3.67284909,12.9322276 0.795428744,10.6471793 0.502734463,9.18881603 L2.69448221,11.071647 L2.64240118,10.7531872 C2.64240118,10.7531872 0.183355492,8.44632726 0.183355492,8.34075811 L0.157536616,7.70427723 L2.53781141,10.1694935 C2.53781141,10.1694935 2.39663193,9.72408642 2.17151778,9.49636741 L-8.8817842e-16,7.01501178 L0.0632717984,6.3253102 L2.35444814,9.18881603 L2.32862926,8.89696788 C2.32862926,8.89696788 0.439473033,6.50547818 0.0632769829,5.61466662 L0.209622828,5 Z" id="Combined-Shape" fill="#949599" fill-rule="nonzero"></path>
    </g>
</svg>