<?xml version="1.0" encoding="UTF-8"?>
<svg width="28px" height="28px" viewBox="0 0 28 28" version="1.1" xmlns="http://www.w3.org/2000/svg" xmlns:xlink="http://www.w3.org/1999/xlink">
    <title>W5</title>
    <g id="W5" stroke="none" stroke-width="1" fill="none" fill-rule="evenodd">
        <path d="M2.70639359,22.0834114 C4.64328758,22.4365527 6.38001433,21.9322766 7.61499023,20.5270759 L7.77320379,20.3386761 L10.5402888,16.8829093 L12.377148,14.7595676 C14.303884,12.5575835 17.8203177,11.5902834 22.6107564,10.7128602 C25.2726622,10.219312 27.0349227,8.40823906 27.9096724,5.78423141 L28,5.5 L22.9331898,5.96735988 C19.2885317,6.39090477 16.1551322,7.6763454 14.025178,10.4620025 L13.8084376,10.7555517 L8.09676063,18.7714477 C5.63413359,22.2272144 1.25488166,21.8868057 0.861670228,18.9961399 C0.467335332,16.1122149 3.04567888,14.4023069 6.78905174,13.1125734 C7.6425827,12.7350904 8.17511331,12.1491529 8.34279964,11.3438 L8.37313209,11.167862 L8.50008322,10.327513 C8.6417715,9.65290753 8.31771708,8.97034068 7.74896625,8.87738678 L7.6395119,8.86701334 L5.88466544,8.82319836 C5.35944731,8.80672092 4.99848858,9.05362494 4.82515372,9.44708798 L4.78254996,9.55794201 L4.27249856,11.7239753 C1.90087188,12.8081154 0.134790804,15.5482374 0.010086606,18.0299632 C-0.114617592,20.5083187 0.924584057,21.6812123 2.70639359,22.0834114 Z M6.65067075,22.0480224 C7.36047357,21.9034329 7.99656609,21.5631927 8.52782619,21.0199306 L8.70098752,20.8313138 L11.0568857,18.1271426 C12.3668416,16.6097861 14.389127,15.9949194 16.9900267,15.6542766 L17.3482687,15.609466 C20.0484725,15.2971087 22.0148544,14.0358435 22.5007753,11.5805359 L22.5431533,11.3391898 L19.8839205,11.8773277 C18.0751485,12.2357119 16.5011789,12.5660095 14.8429501,13.5501615 C13.2559675,14.4943839 10.7310878,17.1255828 9.41301546,19.0212014 L9.24811314,19.2640854 C7.98534267,21.1717226 7.6550451,21.2256487 6.65067075,22.0480224 Z M11.0053091,22.3849778 C12.4710099,22.7657064 13.5629942,21.5282808 14.2785865,20.2690944 L14.4431005,19.9672892 C15.1486342,18.6168888 15.9462916,18.8741614 17.2607413,19.3594967 C16.2159223,17.2541303 13.4297385,17.2372784 11.3805451,18.5966665 C9.32011724,19.9504373 9.40999414,21.9726676 11.0053091,22.3849778 Z" id="Shape" fill="#004846"></path>
    </g>
</svg>