<?xml version="1.0" encoding="UTF-8"?>
<svg width="28px" height="28px" viewBox="0 0 28 28" version="1.1" xmlns="http://www.w3.org/2000/svg" xmlns:xlink="http://www.w3.org/1999/xlink">
    <title>WA</title>
    <g id="WA" stroke="none" stroke-width="1" fill="none" fill-rule="evenodd">
        <path d="M24.8415961,18.3437307 L24.8415961,22 L3.16485288,22 L3.16485288,18.3437307 L24.8415961,18.3437307 Z M3.16485288,11.0305395 C4.90931076,11.0305395 6.32648126,12.4631548 6.32648126,14.2270013 C6.32648126,15.9957427 4.90931076,17.4299897 3.16485288,17.4299897 C1.4171705,17.4299897 9.98617133e-15,15.9957427 9.76956297e-15,14.2270013 C9.55355408e-15,12.4631548 1.4171705,11.0305395 3.16485288,11.0305395 Z M10.3909714,11.0305395 C12.1354293,11.0305395 13.5493753,12.4631548 13.5493753,14.2270013 C13.5493753,15.9957427 12.1354293,17.4299897 10.3909714,17.4299897 C8.64490125,17.4299897 7.22773075,15.9957427 7.22773075,14.2270013 C7.22773075,12.4631548 8.64490125,11.0305395 10.3909714,11.0305395 Z M17.6170899,11.0305395 C19.36316,11.0305395 20.7803305,12.4631548 20.7803305,14.2270013 C20.7803305,15.9957427 19.36316,17.4299897 17.6170899,17.4299897 C15.8694075,17.4299897 14.4570738,15.9957427 14.4570738,14.2270013 C14.4570738,12.4631548 15.8694075,11.0305395 17.6170899,11.0305395 Z M24.8399839,11.0305395 C26.5828295,11.0305395 28,12.4631548 28,14.2270013 C28,15.9957427 26.5828295,17.4299897 24.8399839,17.4299897 C23.095526,17.4299897 21.6831923,15.9957427 21.6831923,14.2270013 C21.6831923,12.4631548 23.095526,11.0305395 24.8399839,11.0305395 Z M14.9020557,6 L14.9020557,7.82911365 L16.712616,7.82911365 L16.712616,9.65496393 L14.9020557,9.65496393 L14.9020557,11.4840776 L13.0963322,11.4840776 L13.0963322,9.65496393 L11.2938332,9.65496393 L11.2938332,7.82911365 L13.0963322,7.82911365 L13.0963322,6 L14.9020557,6 Z" id="Combined-Shape" fill="#00AAE7" fill-rule="nonzero"></path>
    </g>
</svg>