<?xml version="1.0" encoding="UTF-8"?>
<svg width="28px" height="28px" viewBox="0 0 28 28" version="1.1" xmlns="http://www.w3.org/2000/svg" xmlns:xlink="http://www.w3.org/1999/xlink">
    <title>WF</title>
    <g id="WF" stroke="none" stroke-width="1" fill="none" fill-rule="evenodd">
        <path d="M16.7695302,12.6079619 C16.4424132,12.7888709 15.9204825,13.2817885 15.3177135,13.9612044 C16.0766772,14.7347325 16.9459344,15.7335543 17.8831842,17 C19.3644562,15.0043289 20.3328794,13.6104825 21.0330962,13.0935642 C21.7333131,12.5784542 24.0047222,11.906518 28,11.2271021 C21.9924375,11.7772268 17.6663608,12.1150442 16.7695302,12.6079619" id="path8" fill="#559E3C" fill-rule="nonzero"></path>
        <path d="M13.4468958,12.3070495 C12.4765089,11.598126 6.97426756,11.1717033 -7.10542736e-15,11 C3.337362,11.5003151 7.61197379,12.2221431 8.84508524,13.0012603 C9.82275418,13.6178799 10.8905071,14.7846242 12.7080599,16.8947916 L17.8849842,17 C16.0288942,14.4929176 14.4356105,13.0289597 13.4468958,12.3070495" id="path10" fill="#1F664F" fill-rule="nonzero"></path>
    </g>
</svg>