<?xml version="1.0" encoding="UTF-8"?>
<svg width="28px" height="28px" viewBox="0 0 28 28" version="1.1" xmlns="http://www.w3.org/2000/svg" xmlns:xlink="http://www.w3.org/1999/xlink">
    <title>WG</title>
    <g id="WG" stroke="none" stroke-width="1" fill="none" fill-rule="evenodd">
        <path d="M18.3041944,19.1788242 L18.6090884,19.4105653 L18.5786472,20.3878913 L19.5949824,22.3727731 L20.0675767,23.6826022 L20.2047835,24.151114 L20.2352248,25.9344847 L19.7626305,26 L19.0512024,25.0579337 L18.5786081,25.2292278 L18.2381342,24.9924441 L18.2026194,23.6473554 L17.9993523,23.4458443 L17.9332662,20.5239387 L18.070434,19.4810974 L18.3041944,19.1788242 Z M12.6432103,19.2090541 L13.0853113,19.2442622 L12.6076305,20.6901129 L11.5608019,22.8412334 L10.7782271,23.6120184 L10.2700659,23.7480401 L10.0667989,23.5817885 L10.2395726,21.5616987 L12.0334092,19.4105653 L12.6432103,19.2090541 Z M6.43847234,17.5970034 L6.43847234,18.3375586 L5.18838976,19.0126114 L2.4036247,20.1209293 L0.746995016,20.5894411 L1.19904087e-14,20.0503971 L0.0355148185,19.1436033 L0.437014395,18.9773131 L1.90053714,18.4030094 L4.64464878,17.9999871 L6.13866483,17.8992638 L6.43847234,17.5970034 Z M12.9175851,10.035208 L15.3212228,10.3374683 L16.9168659,11.1787855 L18.4413752,12.9268837 L18.7767626,14.7757568 L18.9495363,15.8135425 L18.7462693,16.4885953 L18.6446683,16.9268901 L17.8976603,17.5314237 L15.3212488,17.833684 L13.6595456,17.7984759 L12.2722431,17.0276909 L12.0689761,16.5541364 L11.7285021,16.2871357 L10.5088998,13.73298 L10.3056328,12.7909265 L10.4428397,11.4105653 L11.3880282,10.4030094 L12.9175851,10.035208 Z M12.7804042,11.6826086 L12.1706031,12.1158609 L11.865709,13.2292085 L12.40945,14.2669942 L13.2530115,15.5113209 L15.285682,16.5894089 L16.7492047,16.2166165 L16.881325,15.1737881 L16.4747909,13.5969712 L15.6617227,12.317372 L15.0519216,11.9848818 L12.7804042,11.6826086 Z M26.6127105,14.1007943 L27.4969124,14.367795 L28,14.5693061 L27.9644852,15.1436098 L27.5935179,15.5113725 L25.4947873,15.5465805 L23.2893431,15.4105718 L21.9325339,15.2090606 L21.2210797,15.0075494 L21.3226807,14.4382755 L24.6816671,14.1360023 L26.6127105,14.1007943 Z M24.5444862,8.45338724 L24.8493933,9.32493435 L23.9296115,9.9999871 L21.8969411,11.4810974 L21.25156,11.5818208 L20.2403114,11.9495706 L19.2900363,12.1158222 L18.7462953,11.6826086 L21.0178127,10.0654766 L22.237415,9.49621562 L23.426524,8.72040083 L24.5444862,8.45338724 Z M5.25444992,9.76321631 L7.42432728,10.4735416 L9.2232374,11.3450758 L9.6602648,11.6826086 L9.49256461,11.9143497 L7.32268725,11.9495577 L5.28494323,11.6120249 L3.62831354,11.0074914 L2.81524535,10.4382304 L2.84573866,10.130979 L5.25444992,9.76321631 Z M14.2388534,2 L15.0163417,2.16623866 L15.2551887,2.43325225 L15.1891025,3.04281548 L15.0824279,7.8135941 L14.8130877,7.84880214 L14.0660927,6.03017186 L13.7967525,4.31732045 L13.8983535,2.60448193 L14.2388534,2 Z" id="Combined-Shape" fill="#F35C17" fill-rule="nonzero"></path>
    </g>
</svg>