<?xml version="1.0" encoding="UTF-8"?>
<svg width="28px" height="28px" viewBox="0 0 28 28" version="1.1" xmlns="http://www.w3.org/2000/svg" xmlns:xlink="http://www.w3.org/1999/xlink">
    <title>WI</title>
    <g id="WI" stroke="none" stroke-width="1" fill="none" fill-rule="evenodd">
        <path d="M25.2038487,11.7934211 C27.3883849,11.7934211 28.057043,13.9092105 27.9962559,15.4605263 L27.9962559,15.4605263 L23.3802359,15.4605263 C23.3460432,16.5776316 23.9539141,17.5684211 25.3026278,17.5684211 C26.1384503,17.5684211 26.7235261,17.1460526 26.9020882,16.3171053 L26.9020882,16.3171053 L27.901276,16.3171053 C27.6277341,17.7302632 26.6475422,18.5 25.2646358,18.5 C23.2966537,18.5 22.3658513,17.0868421 22.3050642,15.1289474 C22.3050642,13.2065789 23.5208061,11.7934211 25.2038487,11.7934211 Z M1.12076204,11.9394737 L2.5188652,17.1855263 L2.54166036,17.1855263 L3.78399659,11.9394737 L4.89336105,11.9394737 L6.18128759,17.1855263 L6.20408275,17.1855263 L7.58698914,11.9394737 L8.6393657,11.9394737 L6.67138354,18.35 L5.59621182,18.35 L4.34247801,13.2539474 L4.31968285,13.2539474 L3.07734662,18.35 L1.97937974,18.35 L9.76996262e-15,11.9394737 L1.12076204,11.9394737 Z M10.6225446,9.5 L10.6225446,12.8828947 L10.6453398,12.8828947 C10.9796688,12.1171053 11.8496841,11.7934211 12.5905268,11.7934211 C14.2127824,11.7934211 14.7142759,12.7565789 14.7142759,14.1342105 L14.7142759,14.1342105 L14.7142759,18.35 L13.6998913,18.35 L13.6998913,14.0118421 C13.6998913,13.2302632 13.2211929,12.7210526 12.4461574,12.7210526 C11.2152188,12.7210526 10.6187454,13.5776316 10.6187454,14.7302632 L10.6187454,14.7302632 L10.6187454,18.35 L9.60816,18.35 L9.60816,9.5 L10.6225446,9.5 Z M17.3091249,11.9394737 L17.3091249,18.35 L16.2947403,18.35 L16.2947403,11.9394737 L17.3091249,11.9394737 Z M20.2876925,9.5 L20.2876925,11.9434211 L21.5186312,11.9434211 L21.5186312,12.8710526 L20.2876925,12.8710526 L20.2876925,16.85 C20.2876925,17.3315789 20.4168651,17.4184211 21.0513304,17.4184211 L21.0513304,17.4184211 L21.5186312,17.4184211 L21.5186312,18.35 L20.7435957,18.35 C19.6950184,18.35 19.2771071,18.125 19.2771071,16.9486842 L19.2771071,16.9486842 L19.2771071,12.8710526 L18.2285297,12.8710526 L18.2285297,11.9434211 L19.2771071,11.9434211 L19.2771071,9.5 L20.2876925,9.5 Z M25.1468608,12.725 C24.0830867,12.725 23.4524206,13.5539474 23.3802359,14.5328947 L23.3802359,14.5328947 L26.9248833,14.5328947 C26.8754938,13.5302632 26.1498479,12.725 25.1468608,12.725 Z M17.3091249,9.5 L17.3091249,10.7907895 L16.2947403,10.7907895 L16.2947403,9.5 L17.3091249,9.5 Z" id="Combined-Shape" fill="#BDBEC0"></path>
    </g>
</svg>