<?xml version="1.0" encoding="UTF-8"?>
<svg width="28px" height="28px" viewBox="0 0 28 28" version="1.1" xmlns="http://www.w3.org/2000/svg" xmlns:xlink="http://www.w3.org/1999/xlink">
    <title>WO</title>
    <g id="WO" stroke="none" stroke-width="1" fill="none" fill-rule="evenodd">
        <path d="M5.24535809,17.6677116 C5.30802462,17.7795591 5.37367385,17.8944221 5.4403183,18.0062696 C6.09284753,18.7186618 6.85377019,19.3833339 7.72413793,20 L7.72413793,20 L5.98806366,20 C4.89885623,19.5818342 3.91214515,19.1203631 3.03580902,18.6175549 C2.62001867,18.3102315 2.2420469,17.9921675 1.8938992,17.6677116 L1.8938992,17.6677116 Z M6.35013263,17.6677116 L9.62732095,17.6865204 L9.62732095,17.6865204 L9.67374005,17.8087774 C10.1034546,18.58465 10.6094065,19.3148158 11.1962865,20 L11.1962865,20 L8.82891247,20 C7.95854175,19.3833339 7.19662684,18.7186618 6.54509284,18.0062696 C6.47745316,17.8944221 6.41279915,17.7795591 6.35013263,17.6677116 L6.35013263,17.6677116 Z M10.7320955,17.6677116 L13.7122016,17.677116 L13.7122016,20 L12.3196286,20 C11.725788,19.3087699 11.2122101,18.5739034 10.7785146,17.7899687 C10.7635803,17.75168 10.7460286,17.7070084 10.7320955,17.6677116 L10.7320955,17.6677116 Z M21.9005305,17.6677116 C21.837864,17.7795591 21.7722147,17.8944221 21.7055703,18.0062696 C21.0530411,18.7186618 20.2921184,19.3833339 19.4217507,20 L19.4217507,20 L17.0543767,20 C17.6402585,19.3148158 18.1462133,18.58465 18.5769231,17.8087774 C18.5918425,17.7684725 18.609409,17.7268253 18.6233422,17.6865204 L18.6233422,17.6865204 Z M26.1061008,17.6677116 C25.7579531,17.9921675 25.3799813,18.3102315 24.964191,18.6175549 C24.0888501,19.1203631 23.1011438,19.5818342 22.0119363,20 L22.0119363,20 L20.2758621,20 C21.1462298,19.3833339 21.9081477,18.7186618 22.5596817,18.0062696 C22.6273214,17.8944221 22.6919754,17.7795591 22.7546419,17.6677116 L22.7546419,17.6677116 Z M17.5185676,17.6676966 C17.5046404,17.7069934 17.4860817,17.751665 17.4721485,17.7899536 C17.0374608,18.5738884 16.5248751,19.3087549 15.9310345,19.999985 L15.9310345,19.999985 L14.5384615,19.999985 L14.5384615,17.6771009 Z M4.08488064,14.4796238 C4.23806515,15.3764143 4.51690355,16.2543539 4.92970822,17.1128527 C2.82490684,17.1236059 1.88439858,17.1293842 1.48771452,17.131105 L1.29973475,17.1316614 C1.09581751,16.9109908 0.908492308,16.6822701 0.733421751,16.4545455 C0.389251989,15.8056336 0.150198833,15.1476785 0.0278514589,14.4796238 L0.0278514589,14.4796238 Z M27.9628647,14.4796238 C27.8405144,15.1476785 27.610748,15.8056336 27.2665782,16.4545455 C27.0905154,16.6822701 26.9051747,16.9109908 26.7002653,17.1316614 C26.470487,17.1316614 25.6326616,17.1259436 23.0702918,17.1128527 C23.4830964,16.2543539 23.7619319,15.3764143 23.9151194,14.4796238 L23.9151194,14.4796238 Z M8.86604775,14.4796238 C8.96651204,15.3582736 9.14488912,16.2194237 9.40450928,17.0658307 L9.40450928,17.0658307 L6.03448276,17.1034483 C5.62366557,16.2469658 5.34283968,15.374395 5.18965517,14.4796238 L5.18965517,14.4796238 Z M23.061008,14.4796088 C22.9108062,15.361283 22.6356129,16.2308293 22.234748,17.0752201 L22.234748,17.0752201 L18.8461538,17.0658307 C19.105774,16.2194237 19.2841481,15.3582736 19.3846154,14.4796088 L19.3846154,14.4796088 Z M13.7122016,14.4796238 L13.7122016,17.0658307 L10.5092838,17.0658307 C10.2496637,16.2194237 10.0712895,15.3582736 9.97082228,14.4796238 L9.97082228,14.4796238 L13.7122016,14.4796238 Z M18.2891247,14.4796238 C18.1886574,15.3582736 18.0019917,16.2194237 17.7413793,17.0658307 L17.7413793,17.0658307 L14.5477454,17.0658307 L14.5477454,14.4796238 Z M9.21883289,11.2351097 C9.01292817,12.0422199 8.87499883,12.8667606 8.81034483,13.6990596 L8.81034483,13.6990596 L5.13395225,13.7178683 C5.24734854,12.8775072 5.47247448,12.0432251 5.81167109,11.2351097 L5.81167109,11.2351097 Z M22.438992,11.2351097 C22.7781886,12.0432251 23.0033116,12.8775072 23.1167109,13.7178683 L23.1167109,13.7178683 L19.4403183,13.6990596 C19.3756643,12.8667606 19.237735,12.0422199 19.0318302,11.2351097 L19.0318302,11.2351097 Z M4.70689655,11.2350947 C4.36869517,12.0411967 4.14257401,12.8701041 4.02917772,13.7084489 L4.02917772,13.7084489 L-4.4408921e-16,13.7084489 C0.10842313,12.9638139 0.351454218,12.2282764 0.733421751,11.5078219 C0.802056658,11.4191529 0.874333793,11.3331712 0.946949602,11.2444991 L0.946949602,11.2444991 Z M23.2931034,11.2351097 L27.0530504,11.2445141 C27.1266585,11.3331862 27.1979433,11.4191679 27.2665782,11.507837 C27.649538,12.2282914 27.8915769,12.963829 28,13.7084639 L28,13.7084639 L23.9708223,13.7084639 C23.857426,12.8701191 23.6303096,12.0412118 23.2931034,11.2351097 L23.2931034,11.2351097 Z M13.7122016,11.2351097 L13.7122016,13.6990596 L9.91511936,13.6990596 C9.97977337,12.8657525 10.1167075,12.0432251 10.3236074,11.2351097 L10.3236074,11.2351097 L13.7122016,11.2351097 Z M17.9270557,11.2351097 C18.1339556,12.0432251 18.2708868,12.8657525 18.3355438,13.6990596 L18.3355438,13.6990596 L14.5384615,13.6990596 L14.5384615,11.2351097 Z M7.46419098,8 C6.70124817,8.5632642 6.02719533,9.16478997 5.4403183,9.80564263 C5.30304849,10.0333643 5.17805114,10.2604088 5.0596817,10.492163 L5.0596817,10.492163 L1.64323607,10.492163 C2.05703597,10.0830646 2.5175669,9.69010859 3.03580902,9.30721003 C3.8564452,8.83563937 4.7678905,8.39700665 5.77453581,8 L5.77453581,8 Z M10.862069,8 C10.413454,8.56729379 10.0199003,9.16008928 9.67374005,9.78683386 C9.58620775,10.0206014 9.50596881,10.255371 9.43236074,10.492163 L9.43236074,10.492163 L6.15517241,10.492163 C6.27354186,10.2604088 6.40782302,10.0333643 6.54509284,9.80564263 C7.13197284,9.16478997 7.80701793,8.5632642 8.56896552,8 L8.56896552,8 Z M13.7122016,8 L13.7122016,10.492163 L10.5371353,10.492163 C10.6117386,10.255371 10.6919745,10.0206014 10.7785146,9.78683386 C11.1256671,9.16008928 11.5182315,8.56729379 11.9668435,8 L11.9668435,8 L13.7122016,8 Z M16.2838196,8 C16.7324316,8.56729379 17.1259883,9.16008928 17.4721485,9.78683386 C17.5596808,10.0206014 17.6399198,10.255371 17.7135279,10.492163 L17.7135279,10.492163 L14.5384615,10.492163 L14.5384615,8 Z M19.6816976,8 C20.4446375,8.5632642 21.1186933,9.16478997 21.7055703,9.80564263 C21.8428401,10.0333643 21.9771213,10.2604088 22.0954907,10.492163 L22.0954907,10.492163 L18.8183024,10.492163 C18.7436991,10.255371 18.6634631,10.0206014 18.5769231,9.78683386 C18.2297706,9.16008928 17.8362109,8.56729379 17.3885942,8 L17.3885942,8 Z M22.2161804,8 C23.2228227,8.39700665 24.14455,8.83563937 24.964191,9.30721003 C25.4824331,9.69010859 25.942964,10.0830646 26.3567639,10.492163 L26.3567639,10.492163 L22.9403183,10.492163 C22.8209536,10.2604088 22.6979467,10.0333643 22.5596817,9.80564263 C21.9737999,9.16478997 21.2987489,8.5632642 20.535809,8 L20.535809,8 Z" id="Combined-Shape" fill="#31338F"></path>
    </g>
</svg>