<?xml version="1.0" encoding="UTF-8"?>
<svg width="28px" height="28px" viewBox="0 0 28 28" version="1.1" xmlns="http://www.w3.org/2000/svg" xmlns:xlink="http://www.w3.org/1999/xlink">
    <title>WS</title>
    <g id="WS" stroke="none" stroke-width="1" fill="none" fill-rule="evenodd">
        <path d="M10.0112994,11.8011204 L7.41242938,7.96918768 C7.41242938,7.96918768 6.23728814,9.26890756 5.98870056,9.56022409 C5.71751412,9.85154062 5.46892655,10.0308123 5.03954802,9.9859944 C4.49717514,9.89635854 2.05649718,9.40336134 2.05649718,9.40336134 C2.05649718,9.40336134 1.87570621,12.3613445 1.83050847,12.6526611 C1.8079096,12.9439776 1.69491525,13.32493 1.17514124,13.7731092 L10.0112994,11.8011204 Z" id="Path" fill="#00AC9D" fill-rule="nonzero"></path>
        <path d="M19.8870056,9.62745098 L22.960452,4.09243697 C22.960452,4.09243697 20.9491525,4.96638655 20.2711864,5.25770308 C19.6158192,5.54901961 19.3446328,5.50420168 19.2316384,5.03361345 C19.1412429,4.58543417 18.6440678,1.20168067 18.6214689,1 C18.440678,1.20168067 15.0734463,4.58543417 14.5988701,5.03361345 C14.1016949,5.50420168 13.7853107,5.54901961 13.3785311,5.25770308 C12.9491525,4.96638655 11.6836158,4.11484594 11.6836158,4.11484594 L10.079096,11.8235294 L19.8870056,9.62745098 Z" id="Path" fill="#00AC9D" fill-rule="nonzero"></path>
        <path d="M25.559322,12.6526611 C25.7627119,12.3613445 28,9.40336134 28,9.40336134 C28,9.40336134 25.2655367,9.91876751 24.6327684,9.9859944 C24.1355932,10.0532213 24.0677966,9.85154062 24.0451977,9.56022409 C24.0225989,9.40336134 23.9322034,7.767507 23.9322034,7.767507 L19.9548023,9.69467787 L10.7570621,20.4509804 L17.559322,21.5042017 C17.559322,21.5042017 17.5819209,20.4733894 17.6045198,19.7114846 C17.6497175,18.9495798 18.079096,18.8151261 18.3502825,18.6582633 C18.5988701,18.5014006 26.3728814,14.0644258 26.3728814,14.0644258 L25.6045198,13.6386555 C25.0847458,13.3697479 25.3559322,12.9439776 25.559322,12.6526611" id="Path" fill="#00AC9D" fill-rule="nonzero"></path>
        <path d="M0,13.9971989 C0,13.9971989 3.27683616,17.8291317 3.41242938,18.0084034 C4.18079096,18.9271709 4.18079096,19.2857143 3.38983051,20.2492997 C2.75706215,21.0112045 2.37288136,21.5042017 2.37288136,21.5042017 C2.37288136,21.5042017 6.93785311,20.7422969 7.5480226,20.6302521 C8.13559322,20.5406162 8.72316384,20.697479 8.56497175,21.4817927 C8.47457627,22.0196078 7.93220339,25 7.93220339,25 L10.6440678,20.4285714 L15.4350282,12.3389356 L1.01694915,13.8851541 L0,13.9971989 Z" id="Path" fill="#00467F" fill-rule="nonzero"></path>
        <polygon id="Path" fill="#FFFFFF" fill-rule="nonzero" points="19.9548023 9.69467787 10.7570621 20.4509804 10.6440678 20.4285714 15.4350282 12.3389356 1.03954802 13.8851541 1.17514124 13.7731092 10.0112994 11.8235294 10.1016949 11.8011204 19.8870056 9.62745098"></polygon>
    </g>
</svg>