<?xml version="1.0" encoding="UTF-8"?>
<svg width="28px" height="28px" viewBox="0 0 28 28" version="1.1" xmlns="http://www.w3.org/2000/svg" xmlns:xlink="http://www.w3.org/1999/xlink">
    <title>WU</title>
    <defs>
        <linearGradient x1="49.9998791%" y1="100%" x2="49.9998791%" y2="-2.21310333e-10%" id="linearGradient-1">
            <stop stop-color="#161998" offset="0%"></stop>
            <stop stop-color="#441E93" offset="12.9%"></stop>
            <stop stop-color="#6E228F" offset="26.6%"></stop>
            <stop stop-color="#90258C" offset="40.7%"></stop>
            <stop stop-color="#AB2889" offset="54.9%"></stop>
            <stop stop-color="#BE2A87" offset="69.4%"></stop>
            <stop stop-color="#C92B86" offset="84.2%"></stop>
            <stop stop-color="#CD2B86" offset="100%"></stop>
        </linearGradient>
    </defs>
    <g id="WU" stroke="none" stroke-width="1" fill="none" fill-rule="evenodd">
        <path d="M20.5758883,12.1145667 L23.2807209,12.1145667 L20.0774823,16.3285167 L17.3717882,16.3285167 L20.5758883,12.1145667 Z M20.3725628,11.7029 L16.9675065,16.184 C16.8860901,16.2908167 16.8727361,16.4258 16.9323983,16.5451833 C16.9899067,16.6632667 17.1118159,16.73975 17.2408328,16.73975 L20.2805925,16.73975 L23.7132184,12.2246333 C23.7881731,12.12345 23.7991579,11.99215 23.7457418,11.8812167 C23.6908181,11.7707167 23.5790321,11.7029 23.4530306,11.7029 L20.3725628,11.7029 Z M10.6480458,9.5124 C10.6654922,9.48293333 10.6980157,9.46321667 10.7344161,9.46321667 L12.5083451,9.46321667 L12.7631482,7.99031667 C12.7717637,7.9446 12.8116103,7.91231667 12.8589955,7.91231667 L14.5192001,7.91101667 C14.5495697,7.91101667 14.5743392,7.92033333 14.5917856,7.94005 C14.6098781,7.9628 14.6189244,7.99313333 14.6146166,8.02 L14.4494146,8.97311667 L22.2544008,8.97875 C22.2966167,8.97875 22.3267709,9.00453333 22.3416326,9.02901667 C22.3506789,9.04721667 22.3631714,9.08426667 22.3375403,9.11936667 L21.6327933,10.0449667 L27.4172321,10.04345 C27.4508325,10.04345 27.4749559,10.0646833 27.4844329,10.08375 C27.4936946,10.0974 27.5012331,10.126 27.4835714,10.1522167 L22.676129,16.4821333 C22.6214206,16.5510333 22.6237899,16.7261 22.6619134,16.8010667 C22.7015447,16.8764667 22.8387463,16.9839333 22.9246858,16.9839333 L26.3062649,16.9874 C26.3454654,16.9874 26.3685118,17.0077667 26.3790658,17.0199 C26.3973737,17.0411333 26.405343,17.0695167 26.4010353,17.0970333 L26.143863,18.5762167 C26.1356783,18.6210667 26.0954009,18.6535667 26.0478003,18.6535667 L13.1825071,18.6535667 L12.9709969,18.6522667 C12.9867201,18.7255 12.9929663,18.80155 12.9929663,18.8791167 C12.9929663,19.5445 12.4568676,20.084 11.7943365,20.084 C11.1322363,20.084 10.5957067,19.5445 10.5957067,18.8791167 C10.5957067,18.2135167 11.1322363,17.6746667 11.7943365,17.6746667 C12.2464343,17.6746667 12.6405929,17.92665 12.8456415,18.2986667 L18.0890276,11.3854833 C18.173244,11.20695 18.1312435,11.1430333 18.0857968,11.03795 C18.051981,10.95865 17.9255488,10.8771833 17.7877009,10.8784833 L14.117503,10.8784833 L13.1797071,16.26395 C13.1706608,16.3062 13.1303834,16.3358833 13.0853675,16.3358833 L11.4240859,16.3358833 C11.3855316,16.3358833 11.361839,16.3150833 11.3506389,16.3027333 C11.3405157,16.2906 11.3222078,16.26395 11.3293156,16.2256 L12.3478817,10.3799333 L8.20447799,18.5484833 C8.167216,18.6141333 8.0982921,18.6563833 8.02053732,18.6563833 L6.60932034,18.6633167 C6.55891974,18.6633167 6.51756539,18.6271333 6.51304226,18.5838 L6.12383758,12.6497333 L3.06253922,18.55 C3.0259234,18.615 2.9552764,18.6570333 2.8794601,18.6570333 L1.44799673,18.6561667 C1.39888845,18.6561667 1.35710333,18.6197667 1.35301097,18.5729667 L0.419307434,9.56505 C0.417153562,9.53688333 0.426845986,9.50915 0.443646188,9.49008333 C0.461092552,9.47253333 0.486077468,9.463 0.516231677,9.463 L2.44028559,9.463 C2.49284006,9.463 2.53699444,9.5059 2.53699444,9.56245 L2.8256133,15.4391 L5.65537041,9.5137 C5.6706629,9.48293333 5.70490947,9.463 5.74087913,9.463 L7.49499253,9.45541667 C7.54345465,9.45541667 7.58674748,9.49225 7.5897629,9.53558333 L7.87493556,15.4577333 L10.6480458,9.5124 Z M12.7773638,7.5 C12.5792075,7.5 12.4107747,7.64235 12.3752358,7.83995 L12.163941,9.05111667 L10.6719538,9.05111667 C10.5196751,9.05111667 10.3835504,9.13366667 10.306011,9.27666667 L8.20577031,13.7818167 L7.9972755,9.42638333 C7.97939836,9.21556667 7.8019193,9.05111667 7.5897629,9.05111667 L5.68013994,9.05111667 C5.5276458,9.05111667 5.38699795,9.13648333 5.31419707,9.27753333 L3.15472495,13.7998 L2.94149161,9.46148333 C2.94149161,9.23485 2.75798172,9.05133333 2.53311747,9.05133333 L0.408968848,9.05133333 C0.292875144,9.05133333 0.185181541,9.09683333 0.107211373,9.17938333 C0.0318258506,9.26258333 -0.00694384646,9.3785 0.00102548015,9.49961667 L0.953252317,18.6995 C0.976083361,18.9077167 1.15097777,19.0648 1.35990336,19.0648 L2.93890697,19.06545 C3.13275545,19.06545 3.30915757,18.9590667 3.40048175,18.7861667 L5.81195691,14.1399667 L6.10919125,18.6995 C6.13309923,18.9077167 6.30734748,19.0648 6.51498075,19.0648 L8.08235344,19.06545 C8.27534038,19.06545 8.4534656,18.9577667 8.54457439,18.784 L11.4751327,13.0055 L10.9075874,16.2643833 C10.8860487,16.3844167 10.9194337,16.5066167 10.996327,16.6013 C11.073651,16.6938167 11.188237,16.74755 11.3090692,16.74755 L13.1665684,16.74755 C13.3595554,16.74755 13.5236804,16.61235 13.5667579,16.4177833 L14.4603994,11.2890667 L17.6513608,11.2890667 L12.8292721,17.6363167 C12.5406532,17.39365 12.1755719,17.2612667 11.7977827,17.2612667 C10.9110336,17.2612667 10.1871172,17.9879667 10.1871172,18.8804167 C10.1871172,19.7735167 10.9110336,20.5 11.7977827,20.5 C12.6125925,20.5 13.3061393,19.87405 13.3998328,19.0652333 L26.1302936,19.0645833 C26.3308191,19.0645833 26.4992519,18.9213667 26.5319907,18.7242 L26.8234096,17.0573833 C26.843656,16.9375667 26.8098402,16.8147167 26.732947,16.7226333 C26.6562691,16.63055 26.5423293,16.5776833 26.4206355,16.5776833 L23.1191804,16.57465 L27.9326537,10.2399667 C28.0145009,10.1171167 28.021824,9.96891667 27.9541924,9.84151667 C27.8880686,9.7126 27.7556054,9.63178333 27.6108652,9.63178333 L22.4598802,9.63178333 L22.7864072,9.203 C22.8721313,9.0743 22.8805314,8.91765 22.8083767,8.78071667 C22.7364374,8.64638333 22.5983742,8.56101667 22.4484647,8.56101667 L14.9353282,8.56101667 L15.0382833,7.97991667 C15.0576681,7.86096667 15.0219138,7.73486667 14.9432975,7.6417 C14.866835,7.55026667 14.7569876,7.5 14.6340015,7.5 L12.7773638,7.5 Z" id="Shape" fill="url(#linearGradient-1)" fill-rule="nonzero"></path>
    </g>
</svg>