<?xml version="1.0" encoding="UTF-8"?>
<svg width="28px" height="28px" viewBox="0 0 28 28" version="1.1" xmlns="http://www.w3.org/2000/svg" xmlns:xlink="http://www.w3.org/1999/xlink">
    <title>WW</title>
    <g id="WW" stroke="none" stroke-width="1" fill="none" fill-rule="evenodd">
        <path d="M28,14 C28,21.7312113 21.7318173,28 13.9996985,28 C6.26798174,28 1.77635684e-14,21.7312113 1.77635684e-14,14 C1.77635684e-14,6.26858771 6.26798174,-3.55271368e-15 13.9996985,-3.55271368e-15 C21.7318173,-3.55271368e-15 28,6.26858771 28,14" id="Path" fill="#991782" fill-rule="nonzero"></path>
        <path d="M17.3394062,14.5964867 C17.1594165,16.1650407 15.7907514,17.448467 13.9134723,17.448467 C12.0383036,17.448467 10.6731559,16.174689 10.5062308,14.5967882 L10.5062308,14.5967882 L13.0239757,14.6929698 C13.1795446,15.0699574 13.521535,15.3323714 13.9195021,15.3323714 C14.3174692,15.3323714 14.6594596,15.0699574 14.8150286,14.6929698 L14.8150286,14.6929698 Z M6.68042036,11.1696279 C6.8210153,11.1696279 6.94251586,11.2563622 6.99437218,11.3775691 L6.99437218,11.3775691 L7.01768743,11.453248 L7.6815689,13.6769826 L8.26163609,11.4647054 C8.26294254,11.4542531 8.26545496,11.4428962 8.26857036,11.4326449 C8.31238694,11.2925434 8.44182674,11.1909346 8.59639073,11.1909346 L8.59639073,11.1909346 L10.2639332,11.1909346 C10.453671,11.1909346 10.606426,11.3446041 10.606426,11.5345552 C10.606426,11.5677212 10.6020042,11.5989777 10.593864,11.6291287 C10.591854,11.6338524 10.5906481,11.639179 10.5901456,11.6429982 L10.5901456,11.6429982 L9.84496224,14.092865 L6.50133517,14.2413083 C6.50133517,14.2413083 6.34365578,14.2553787 6.30426106,14.263821 C6.26536882,14.2720623 6.17502225,14.3013087 6.17271083,14.3414095 C6.17261033,14.3416105 6.17230884,14.341912 6.17230884,14.3422135 L6.17230884,14.342917 C6.17502225,14.3838219 6.26536882,14.4129678 6.30426106,14.4213096 C6.34365578,14.4297518 6.50133517,14.4438223 6.50133517,14.4438223 L6.50133517,14.4438223 L9.70185488,14.5660342 L8.93998909,17.0741929 C8.93928561,17.0754995 8.93928561,17.0786151 8.93928561,17.0796201 L8.93928561,17.0796201 L8.92370862,17.1276606 C8.87557068,17.2562043 8.74904528,17.3482652 8.60463146,17.3482652 L8.60463146,17.3482652 L6.98271456,17.3482652 C6.84121515,17.3482652 6.71790565,17.2609279 6.66614983,17.1378115 C6.66474287,17.1324848 6.66293393,17.1276606 6.66162747,17.123138 L6.66162747,17.123138 L6.65338674,17.1024343 C6.65278376,17.0990172 6.65107532,17.0948966 6.65037184,17.0898714 L6.65037184,17.0898714 L5.9144342,14.728749 L5.15106096,17.10756 C5.10724438,17.247159 4.97830706,17.3482652 4.82454705,17.3482652 L4.82454705,17.3482652 L3.21428777,17.3482652 C3.06414563,17.3482652 2.93530881,17.2511791 2.88887932,17.1177108 L2.88887932,17.1177108 L2.88274902,17.0948966 L1.24656158,11.6346564 C1.23520544,11.6044049 1.23068309,11.5709373 1.23068309,11.5345552 C1.23068309,11.3446041 1.38404112,11.1909346 1.57367847,11.1909346 L1.57367847,11.1909346 L3.27518879,11.1909346 C3.42834582,11.1909346 3.55919258,11.2925434 3.60220519,11.4326449 L3.60220519,11.4326449 L3.61175238,11.4647054 L4.16790134,13.6527613 L4.83570219,11.4107352 C4.8783128,11.2703322 5.00845608,11.1696279 5.16101014,11.1696279 L5.16101014,11.1696279 Z M22.7022138,11.1696279 C22.8442157,11.1696279 22.9639073,11.2543521 23.0155626,11.3775691 L23.0155626,11.3775691 L23.0400838,11.4542531 L23.7051713,13.6769826 L24.283731,11.4647054 C24.284736,11.4542531 24.2879519,11.4428962 24.2909668,11.4313383 C24.3341804,11.2925434 24.4649266,11.1909346 24.6188876,11.1909346 L24.6188876,11.1909346 L26.287234,11.1909346 C26.4762684,11.1909346 26.6293249,11.3446041 26.6293249,11.5345552 C26.6293249,11.5677212 26.6243001,11.5989777 26.6157579,11.6291287 C26.6144514,11.6338524 26.6140494,11.639179 26.612743,11.6429982 L26.612743,11.6429982 L24.96329,17.0741929 C24.9619835,17.0754995 24.9619835,17.0786151 24.9619835,17.0796201 L24.9619835,17.0796201 L24.9468085,17.1276606 C24.8972636,17.2562043 24.7729491,17.3482652 24.6267264,17.3482652 L24.6267264,17.3482652 L23.005915,17.3482652 C22.8625061,17.3482652 22.7424125,17.2609279 22.6886467,17.1378115 C22.6866368,17.1324848 22.6853303,17.1286657 22.6846269,17.123138 L22.6779941,17.1024343 L22.6779941,17.1024343 L22.6721653,17.0898714 L21.9364286,14.728749 L21.1740604,17.10756 C21.1304448,17.247159 21.000201,17.3482652 20.84624,17.3482652 L20.84624,17.3482652 L19.2362822,17.3482652 C19.0860396,17.3482652 18.9589112,17.2511791 18.9121802,17.1156003 L18.9121802,17.1156003 L18.9063514,17.0938916 L18.1491085,14.5657327 L21.338473,14.4438223 C21.338473,14.4438223 21.4961524,14.4297518 21.5354466,14.4213096 C21.5744394,14.4129678 21.6647859,14.3838219 21.6670974,14.3437211 L21.6670974,14.3437211 C21.6647859,14.3013087 21.5744394,14.2720623 21.5354466,14.263821 C21.4961524,14.2553787 21.338473,14.2413083 21.338473,14.2413083 L21.338473,14.2413083 L18.0060011,14.0933675 L17.268958,11.6374705 C17.2590088,11.6044049 17.253381,11.5699323 17.253381,11.5345552 C17.253381,11.3446041 17.406538,11.1909346 17.5965774,11.1909346 L17.5965774,11.1909346 L19.2975852,11.1909346 C19.4508427,11.1909346 19.58179,11.2925434 19.6248026,11.4313383 C19.6274155,11.4428962 19.6317369,11.4542531 19.6336463,11.4647054 L19.6336463,11.4647054 L20.1904988,13.6555754 L20.8561892,11.4107352 C20.9008097,11.2703322 21.030953,11.1696279 21.1848135,11.1696279 L21.1848135,11.1696279 Z M13.9352801,11.0457074 C15.8633101,11.0457074 17.253381,12.3955664 17.3538777,14.0334676 C17.3538777,14.0334676 17.3543802,14.045528 17.3549832,14.0644226 L17.3549832,14.0644226 L14.8702013,13.954271 C14.7781463,13.5737658 14.5066041,13.2759747 14.1621012,13.1789891 C14.1474287,13.0122542 14.0577856,12.0074229 14.031757,11.9425983 C14.0034169,11.871844 13.9381945,11.8705375 13.9288483,11.8705375 L13.9288483,11.8705375 L13.9100554,11.8705375 C13.9007092,11.8705375 13.8355873,11.871844 13.8071468,11.9425983 C13.7811181,12.0074229 13.6915755,13.0122542 13.676903,13.1789891 C13.3322997,13.2759747 13.0607575,13.5737658 12.9688029,13.954271 L12.9688029,13.954271 L10.4947742,14.0640206 C10.59105,12.4189836 11.9933816,11.0457074 13.9352801,11.0457074 Z" id="Combined-Shape" fill="#FFFFFF" fill-rule="nonzero"></path>
    </g>
</svg>