<?xml version="1.0" encoding="UTF-8"?>
<svg width="28px" height="28px" viewBox="0 0 28 28" version="1.1" xmlns="http://www.w3.org/2000/svg" xmlns:xlink="http://www.w3.org/1999/xlink">
    <title>WY</title>
    <g id="WY" stroke="none" stroke-width="1" fill="none" fill-rule="evenodd">
        <path d="M2.1809676,4.90301419 L2.07527394,5.10134378 C-0.208260327,9.83483277 12.8445675,17.3587379 12.8445675,21.8194362 L12.8445675,21.8194362 L12.8375317,22.0672096 C12.5998693,26.1940268 6.42064637,25.9985358 6.42064637,25.9985358 L6.42064637,25.9985358 L6.41435597,25.5315686 C6.18929085,17.2637058 5.5067062e-14,16.3458727 5.5067062e-14,10.2127277 C5.5067062e-14,10.2127277 0.0731355503,7.01770064 2.1809676,4.90301419 L2.1809676,4.90301419 Z M8.49136486,2.25671385 L8.79154809,2.26000221 C8.99458111,2.26443947 9.20343586,2.27347235 9.41811235,2.28773427 L9.41811235,2.28773427 C9.26755431,2.3324424 7.27293283,2.96298534 7.32556236,5.05062508 L7.32556236,5.05062508 L7.34225441,5.28240272 C7.79215188,9.06767406 16.8146926,12.839303 17.7806713,17.6906098 L17.7806713,17.6906098 L17.7806713,19.2373153 L17.7219364,19.4565975 C16.8204915,22.4344537 11.9429262,24.6219038 11.9429262,24.6219038 L11.9429262,24.6219038 L12.1036534,24.5209863 C13.0237431,23.8966466 13.1589412,22.9322602 13.1589412,21.5723484 L13.1589412,21.5723484 L13.1516109,21.4009599 C12.7966673,17.1820202 -0.317161651,9.45255761 2.50734864,4.55858877 C2.50734864,4.55858877 3.99625746,2.25564495 8.49136486,2.25671385 L8.49136486,2.25671385 Z" id="Combined-Shape" fill="#A7A9AC" fill-rule="nonzero"></path>
        <path d="M24.8453472,6.78451822 L24.7635996,7.06722544 C23.5169082,10.9487881 18.0455687,11.6517473 17.0220264,12.6547252 L17.0220264,12.6547252 L16.8832808,12.8019691 C16.4065523,13.350447 16.2753889,13.9839364 16.2753889,14.3918273 L16.2753889,14.3918273 L16.1055873,14.2040277 C14.4611166,12.4037535 12.7485088,11.0523983 12.7485088,11.0523983 L12.7485088,11.0523983 C12.7776225,10.958451 13.0266679,10.2163771 13.7920549,9.77845216 L13.7920549,9.77845216 L14.0554408,9.64196717 C16.0510299,8.70950562 19.4221159,9.24051417 21.889361,8.46599881 C22.344548,8.32266649 24.0353982,7.6926461 24.8453472,6.78451822 L24.8453472,6.78451822 Z M26.4816187,4.25694913 L26.4958091,4.26229735 L26.4433857,4.38610187 C25.9271243,5.56057824 24.6452125,7.2519896 21.7310826,8.27132357 L21.7310826,8.27132357 L21.5663809,8.32435398 C19.0781771,9.06092061 13.4560195,8.02696931 12.5509337,10.8769767 L12.5509337,10.8769767 L12.4089213,10.7790783 C10.9610331,9.75613211 8.71404624,7.45411545 8.71404624,7.45411545 L8.71404624,7.45411545 L8.72186948,7.44597265 C8.81490054,7.34974959 9.72231718,6.42776375 10.6199368,6.12882637 L10.6199368,6.12882637 L10.8856311,6.04744182 C12.1390314,5.70040299 13.58451,5.80130133 15.3551908,5.90313145 L15.3551908,5.90313145 L15.7084804,5.92301273 C17.6155224,6.02768763 19.891136,6.09975721 22.6927605,5.61753647 C24.4567463,5.31375754 25.6509298,4.83134803 26.4816187,4.25694913 L26.4816187,4.25694913 Z M28,2 L27.9441477,2.12430448 C27.3289839,3.45032056 26.0758834,4.77216105 22.5584967,5.37686654 L22.5584967,5.37686654 L22.0394779,5.46090425 C19.3036758,5.87576855 17.0814852,5.76816753 15.2209271,5.66246152 L15.2209271,5.66246152 L14.8466286,5.64080432 C13.1226135,5.54126371 11.7134043,5.4737763 10.4867646,5.88708679 L10.4867646,5.88708679 L10.3371303,5.94318221 C9.4390065,6.31475778 8.5514015,7.28725097 8.5514015,7.28725097 L8.5514015,7.28725097 L8.42492348,7.14604917 C6.6389318,5.06190996 7.87464903,2.42186765 10.1330942,2.39362904 L10.1330942,2.39362904 L10.2318607,2.39517387 C11.6048723,2.44626102 17.5492014,3.67399307 20.8239835,3.67399307 C24.1860356,3.67399307 26.54493,3.18088713 28,2 L28,2 Z" id="Combined-Shape" fill="#B5985A" fill-rule="nonzero"></path>
    </g>
</svg>