<?xml version="1.0" encoding="UTF-8"?>
<svg width="28px" height="28px" viewBox="0 0 28 28" version="1.1" xmlns="http://www.w3.org/2000/svg" xmlns:xlink="http://www.w3.org/1999/xlink">
    <title>XC</title>
    <g id="XC" stroke="none" stroke-width="1" fill="none" fill-rule="evenodd">
        <path d="M15.1275719,2.75170606 C15.5010724,4.52041317 15.4477152,7.00970465 16.3147699,8.52948261 C16.7816456,9.14525471 17.6753789,9.36798079 18.7425232,9.36798079 C20.0097571,9.36798079 21.5170984,9.04044244 22.8643681,8.64739641 C24.5451203,8.16263965 26.0124437,7.71718749 26.946195,7.7957967 C27.4264099,7.8351013 27.7732318,8.01852278 27.9466428,8.42467033 C27.9866607,8.52948261 28,8.64739641 28,8.76531022 C27.7999104,9.72172221 26.1058189,10.8353526 23.9448517,12.1324045 C21.2102944,13.7438932 17.7554147,15.1981635 16.3547879,16.8489568 C16.1146804,17.1633936 15.967948,17.517135 15.9145908,17.883978 C15.527751,19.5085682 16.8616814,21.6179152 18.4090406,23.3473177 C19.8897033,24.998111 21.2636516,26.3999751 21.1969551,27.3170825 C21.1435979,27.500504 21.0102049,27.670824 20.7834367,27.8018393 C20.5566685,27.9459562 20.2765431,28.0114638 19.9697392,27.9983623 C18.7425232,27.9590577 16.9150386,26.8192242 14.9141431,25.364954 C12.3930146,23.5438407 10.0186186,21.0676508 8.11109815,20.3077618 C7.93768721,20.2553556 7.76427626,20.216051 7.59086531,20.216051 C6.19023842,20.1767464 4.96302248,21.8275397 4.17600356,23.4390284 C3.46902046,24.9326033 2.93544831,26.2165537 2.33517964,26.0986399 C2.21512591,26.0724368 2.09507218,25.9938276 1.96167914,25.8497107 C1.62819655,25.4697662 1.52148212,24.8146895 1.54816073,23.9761913 C1.58817864,23.1507947 1.77492889,22.1681796 2.01503636,21.0807523 C2.46857268,19.0500145 3.32228812,16.8358552 3.73580653,15.0409451 C3.82918166,14.6347975 3.90921748,14.254853 3.94923539,13.8880101 C4.14932495,12.1848106 2.86875179,11.3987186 1.69489307,11.0973833 C0.654427376,10.8615557 -0.199288062,10.7305403 0.0408194048,9.94444829 C0.0541587085,9.91824522 0.0674980122,9.89204216 0.0808373159,9.86583909 C0.45433782,9.07974704 1.38808908,8.67359948 2.64198363,8.34606113 C2.81539458,8.30675653 2.98880553,8.25435039 3.17555578,8.21504579 C4.34941451,7.95301511 5.73670209,7.84820283 7.07063246,7.61237522 C7.67090113,7.50756295 8.24449119,7.3765476 8.77806334,7.19312613 C10.0186186,6.65596323 10.8189768,5.47682516 11.3258704,4.28458555 C11.5392992,3.79982879 11.6993709,3.30197049 11.8194246,2.8434168 C12.0061748,2.12283242 12.1395679,1.49395879 12.366336,1.03540509 C12.5931042,0.616155999 12.9132475,0.341023783 13.420141,0.262414578 C14.4072495,0.157602305 14.8074286,1.21882657 15.1275719,2.75170606 Z M24.2916736,0.0265869639 C25.9324079,-0.183037582 27.4664279,0.865085148 27.7198746,2.52897998 C28,4.35009322 26.2525512,5.89607425 24.5051024,6.07949573 L24.5051024,6.07949573 L24.4784238,6.07949573 C23.1044755,6.11880033 21.7438666,5.46372362 21.4370626,4.06185947 C21.2636516,3.22336129 21.3303481,2.3062539 21.7705452,1.54636492 C22.2374208,0.707866738 23.3579223,0.144500771 24.2916736,0.0265869639 Z" id="Combined-Shape" fill="#EB2227" fill-rule="nonzero"></path>
    </g>
</svg>