<?xml version="1.0" encoding="UTF-8"?>
<svg width="28px" height="28px" viewBox="0 0 28 28" version="1.1" xmlns="http://www.w3.org/2000/svg" xmlns:xlink="http://www.w3.org/1999/xlink">
    <title>Y7</title>
    <g id="Y7" stroke="none" stroke-width="1" fill="none" fill-rule="evenodd">
        <path d="M14.1047382,12.6253264 C11.8004988,15.8681462 15.5012469,19.3929504 15.8503741,23.4817232 C15.9201995,24.3981723 15.7805486,26.2310705 14.3142145,27.5 C14.7331671,26.3720627 14.5935162,25.3146214 13.6159601,23.1997389 C12.4289277,20.6618799 12.638404,21.2258486 12.0099751,19.8159269 C11.6608479,19.04047 11.1720698,17.1370757 11.9401496,14.9516971 C12.4987531,13.4007833 13.3366584,13.0483029 14.1047382,12.6253264 Z M23.8104738,3.53133159 C24.5785536,2.96736292 26.1845387,2.19190601 28,2.75587467 C26.882793,2.96736292 26.0448878,3.60182768 24.7182045,5.50522193 C23.1820449,7.83159269 23.5311721,7.40861619 22.6234414,8.67754569 C22.1346633,9.38250653 20.80798,10.7924282 18.5037406,11.2154047 C16.8279302,11.5678851 16.0598504,11.0039164 15.361596,10.5104439 C19.2718204,10.9334204 20.4588529,5.85770235 23.8104738,3.53133159 Z M-1.44773082e-13,3.17885117 C0.698254364,4.09530026 1.67581047,4.51827676 3.98004988,4.65926893 C6.77306733,4.94125326 6.21446384,4.87075718 7.75062344,5.01174935 C8.65835411,5.08224543 10.4738155,5.57571802 12.0099751,7.3381201 C13.0573566,8.67754569 12.9875312,9.59399478 12.9177057,10.4399478 C11.3117207,6.77415144 6.42394015,8.25456919 2.72319202,6.4921671 C1.81546135,6.13968668 0.349127182,5.08224543 -1.44773082e-13,3.17885117 Z" id="Combined-Shape" fill="#34345D"></path>
        <path d="M14.8029925,12.343342 C13.5461347,16.2206266 21.3665835,18.8289817 19.1321696,23.6932115 C18.9226933,22.4947781 18.5037406,21.8603133 17.9451372,21.2258486 C16.1296758,19.2519582 14.5935162,18.4060052 13.9650873,16.2206266 C13.8254364,15.5861619 13.3366584,13.964752 14.8029925,12.343342 Z M3.63092269,9.45300261 C6.21446384,8.88903394 7.75062344,7.97258486 9.91521197,8.53655352 C10.4738155,8.67754569 12.0798005,9.10052219 12.7780549,11.1449086 C10.1246883,8.11357702 3.91022444,13.6827676 0.907730673,9.24151436 C2.02493766,9.73498695 2.79301746,9.66449086 3.63092269,9.45300261 Z M22.3441397,0.570496084 C21.3665835,1.345953 21.0174564,2.05091384 20.80798,2.82637076 C20.0399002,5.43472585 20.0399002,7.19712794 18.5037406,8.81853786 C18.084788,9.24151436 16.8977556,10.5104439 14.8029925,10.0169713 C18.713217,9.24151436 17.0374065,1.06396867 22.3441397,0.570496084 Z" id="Combined-Shape" fill="#006EAE"></path>
        <path d="M15.2917706,11.9203655 C15.2917706,12.6958225 15.5710723,13.118799 16.4089776,13.8237598 C17.0374065,14.3172324 18.0149626,14.7402089 19.4812968,15.5861619 C21.2967581,16.6436031 21.7855362,17.7715405 21.7157107,19.3224543 C20.3890274,17.2075718 18.4339152,17.348564 17.0374065,16.3616188 C16.1995012,15.727154 15.0822943,14.3172324 15.0124688,13.4007833 C15.0124688,13.118799 15.0822943,12.272846 15.2917706,11.9203655 Z M8.2394015,11.2154047 C9.21695761,10.7924282 10.9625935,10.5104439 11.8004988,10.9334204 C12.0798005,11.0744125 12.7082294,11.5678851 12.9875312,11.9203655 C12.2892768,11.5678851 11.8004988,11.497389 10.7531172,11.9203655 C9.98503741,12.2023499 9.14713217,12.8368146 7.680798,13.6827676 C5.86533666,14.7402089 4.6084788,14.5992167 3.35162095,13.8237598 C5.86533666,13.6827676 6.7032419,11.9203655 8.2394015,11.2154047 Z M17.1770574,0.5 C16.0598504,2.75587467 17.1770574,4.3772846 16.967581,6.0691906 C16.8977556,7.12663185 16.2693267,8.74804178 15.4314214,9.31201044 C15.2219451,9.45300261 14.4538653,9.80548303 14.0349127,9.80548303 C14.7331671,9.45300261 15.0124688,9.03002611 15.1521197,7.90208877 C15.2917706,7.12663185 15.1521197,6.0691906 15.1521197,4.3772846 C15.1521197,2.26240209 15.9201995,1.20496084 17.1770574,0.5 Z" id="Combined-Shape" fill="#0081C2"></path>
        <path d="M12.4987531,11.9908616 C12.8478803,12.0613577 13.3366584,12.1318538 13.6159601,12.4138381 C12.3329177,12.2287859 11.3706359,13.5010199 11.150113,13.8219699 L11.1022444,13.8942559 C8.93765586,17.0665796 7.89027431,16.7140992 6.63341646,16.573107 C8.86783042,15.7976501 8.58852868,14.2467363 10.1945137,12.9073107 C11.1022444,12.1318538 12.0099751,12.0613577 12.4987531,11.9908616 Z M15.5012469,11.0039164 C16.0598504,12.4138381 18.0149626,12.4843342 18.0149626,12.4843342 C21.6532353,12.818263 22.0327298,13.7848991 22.4781915,14.8447762 L22.553616,15.0221932 C20.7381546,13.4712794 19.5511222,14.4582245 17.59601,13.7532637 C16.4089776,13.3302872 15.9201995,12.5548303 15.7107232,12.2023499 C15.5710723,11.8498695 15.4314214,11.3563969 15.5012469,11.0039164 Z M13.1970075,1.90992167 C12.7780549,4.30678851 14.244389,4.8002611 14.5935162,6.9151436 C14.8029925,8.18407311 14.3840399,9.03002611 14.1745636,9.38250653 C13.9650873,9.66449086 13.6159601,10.0169713 13.2668329,10.1579634 C14.1745636,8.95953003 13.2668329,7.19712794 13.2668329,7.19712794 C11.6608479,3.67232376 12.4289277,2.96736292 13.1970075,1.90992167 Z" id="Combined-Shape" fill="#64BEE6"></path>
    </g>
</svg>