<?xml version="1.0" encoding="UTF-8"?>
<svg width="28px" height="28px" viewBox="0 0 28 28" version="1.1" xmlns="http://www.w3.org/2000/svg" xmlns:xlink="http://www.w3.org/1999/xlink">
    <title>Y8</title>
    <g id="Y8" stroke="none" stroke-width="1" fill="none" fill-rule="evenodd">
        <path d="M24.7880071,0.116874149 C24.675744,0.539958537 24.6288536,0.732219792 24.5189392,1.22001249 C24.4510222,1.5214913 24.3868799,1.81132205 24.3764505,1.86408084 C24.2950283,2.27538015 23.8992696,3.67621511 23.6408549,4.46776141 C22.8452831,6.90488864 21.7705776,9.04409999 20.3914617,10.9358521 C19.7209311,11.8555817 19.1370514,12.4987182 18.2526759,13.29158 C17.2914916,14.1533161 16.1377686,15.0071588 15.2189172,15.5368023 C15.1343355,15.5855596 15.0022202,15.6633138 14.9253277,15.7095496 C14.8484352,15.7558129 14.6030782,15.8865177 14.38009,15.9999834 C14.1571017,16.1134764 13.9054535,16.2466204 13.8208718,16.2958711 C13.6666674,16.385657 13.0374071,16.6706641 12.2271,17.0177484 C11.7730707,17.2122022 11.6241789,17.2733476 10.9828395,17.5288646 C10.2158159,17.8343996 9.89543977,17.9763414 9.15139998,18.3402537 C8.58787582,18.6158601 7.8300513,19.031572 7.57666954,19.2040727 C7.19436004,19.4643311 6.44321818,20.0783886 6.07950267,20.427967 C5.6209158,20.8687564 5.33879023,21.2423434 5.04120228,21.8027925 C4.83792647,22.1856158 4.77216241,22.2726609 4.63957178,22.3342722 C4.57593275,22.3638446 4.43579268,22.3962124 4.32814318,22.4061612 C4.22049368,22.4161374 3.94368068,22.4552749 3.71300318,22.4931516 C3.48232568,22.5310283 3.24325991,22.5683294 3.18174591,22.5760308 C3.06140216,22.5911322 3,22.62572 3,22.6784788 C3,22.703803 3.34403102,22.7121348 4.47493795,22.7141629 C6.41693492,22.7176711 7.46572066,22.7824616 8.62014271,22.9702555 C10.7837019,23.3222457 12.1985798,23.969137 12.6087384,24.7939008 C12.7056789,24.9888205 12.7159405,25.0304246 12.7161642,25.2290991 C12.7163879,25.4222648 12.7053434,25.4708303 12.6245084,25.6319022 C12.252852,26.3726356 10.9035424,26.5166329 10.3829941,25.8711119 C10.2134671,25.660899 10.1747133,25.3944191 10.2836211,25.187961 C10.4350014,24.9009805 10.8886392,24.7333035 11.458175,24.7537219 C11.6927111,24.7621633 11.7098232,24.7591211 11.7098232,24.708966 C11.7098232,24.670267 11.6823935,24.648588 11.61196,24.6316229 C11.5581352,24.6186319 11.4208751,24.5827012 11.3069624,24.5517037 C11.0291148,24.4761695 10.8065739,24.4619452 10.5061619,24.5005071 C10.2017795,24.5395897 9.92054866,24.6181112 9.6966377,24.726534 C8.83423939,25.1441095 8.5386087,26.0460519 9.011903,26.8156176 C9.1176232,26.9875153 9.44306022,27.3076036 9.62914007,27.4227411 C10.002586,27.6538383 10.513991,27.836233 11.0588652,27.9326788 C11.5273223,28.0155855 12.5598348,28.0236432 12.9261227,27.947232 C13.2863151,27.872109 13.5811349,27.774978 13.8971212,27.6273356 C14.1873834,27.4917249 14.6037772,27.2052653 14.6037772,27.1411873 C14.6037772,27.1218927 14.6210571,27.1060787 14.6421676,27.1060787 C14.6886106,27.1060787 14.8651838,26.921793 14.9917628,26.7412072 C15.3321869,26.2555522 15.4588218,25.5475704 15.3078888,24.9736918 C15.2413139,24.7205044 15.0172072,24.2472101 14.8446605,23.9953656 C14.2677989,23.1533353 12.7771749,22.4914797 10.7451718,22.1751463 C10.0091009,22.0605843 9.20027565,22.0387134 7.64151089,22.0912255 C6.852482,22.1178105 5.39012646,22.2287273 5.12502908,22.2821164 C4.92004766,22.3233642 4.91154754,22.3162383 5.0271659,22.2001964 C5.08722593,22.1399006 5.14622345,22.0905677 5.15824664,22.0905677 C5.17026983,22.0905677 5.46025242,21.9343469 5.80266171,21.7434012 C6.5509236,21.3260997 6.74639831,21.229051 7.43180407,20.9345884 C8.05494089,20.6668204 8.85781043,20.388117 9.66867679,20.1580338 C9.89935429,20.0925581 10.1950409,20.0086374 10.3257582,19.9715007 C10.4564754,19.9343639 10.752162,19.8521973 10.9828395,19.7889141 C13.4484884,19.1123135 15.1278485,18.4908012 16.3373536,17.8072666 C16.7471487,17.575676 17.7344204,16.9321558 17.9865998,16.732248 C18.1021902,16.6406258 18.2974133,16.4925449 18.4204413,16.4031701 C18.6719776,16.2204466 19.6448775,15.2771194 19.904858,14.9639103 C20.0854296,14.7463523 20.6130519,14.0651746 20.7958603,13.8136043 C21.826807,12.3948998 22.3900516,11.3357774 23.0477201,9.57919746 C23.6294188,8.02559497 24.0147761,6.77415646 24.1913213,5.86552676 C24.2074268,5.78262009 24.2468796,5.59145512 24.2789787,5.44071572 C24.5083141,4.36350456 24.7416199,2.90593677 24.8098166,2.1244489 C24.8269287,1.92848768 24.8481789,1.37042301 24.8570426,0.884274737 C24.8729523,0.0110550898 24.8585804,-0.14897534 24.7880071,0.116874149 M24.8522612,4.84460991 C24.7834215,5.47538579 24.758033,5.62171263 24.5823266,6.39996646 C24.4400336,7.0302216 24.1849462,8.00514923 23.9835438,8.68846464 C23.8969209,8.98240647 23.8140447,9.26607061 23.7993653,9.3188294 C23.7847137,9.37158819 23.7554946,9.46408737 23.73444,9.52438313 C23.7133855,9.58467889 23.6493829,9.78201047 23.5921749,9.96289775 C23.1508399,11.3585254 22.5373776,12.6252571 21.7671105,13.7313828 C21.4952465,14.1217978 20.6549933,15.2231547 20.3716374,15.5605095 C19.377711,16.7438138 17.9867396,17.8889947 16.5190995,18.7323132 C15.489467,19.3239516 13.7017583,20.1460021 13.058937,20.323436 C12.9576906,20.3513639 12.8981618,20.3825533 12.8981618,20.4076583 C12.8981618,20.478725 13.0199315,20.4984034 13.2934731,20.4715718 C13.4374438,20.4574571 13.8131825,20.4279396 14.1284418,20.4059864 C14.8172588,20.3580513 15.2472696,20.2923563 16.0996859,20.1048365 C16.5728683,20.0007167 17.0875727,19.8431529 17.6156984,19.6407236 C18.4610405,19.3166887 19.4976353,18.7013431 20.2431011,18.0810093 C20.543625,17.8309463 21.360447,16.9698133 21.6262154,16.6228386 C22.2643952,15.7897156 22.891139,14.6588412 23.3350184,13.5395326 C23.6654884,12.7062452 24.1320441,11.305328 24.3298955,10.5521518 C24.5275792,9.79968809 24.7242562,8.66927962 24.8091176,7.79773181 C24.825279,7.63191847 24.8445161,7.46541995 24.8518698,7.4277351 C24.8847518,7.25942771 24.9772467,5.58654924 24.9772467,5.15979229 C24.9772467,4.71116443 24.9745343,4.68701872 24.9233658,4.68701872 C24.8783767,4.68701872 24.8666052,4.71308293 24.8522612,4.84460991 M24.92756,9.37364373 C24.8992915,9.43278839 24.8558682,9.66344708 24.7238088,10.4562267 C24.5250068,11.6496991 24.2662286,12.7470819 23.9902823,13.5669398 C22.9285507,16.7215592 21.2821005,18.6713048 18.5183045,20.04698 C18.3414517,20.1349844 18.1401332,20.2392412 18.0709299,20.2786253 L17.9451059,20.3502128 L18.2666563,20.3588735 C18.8744985,20.3752082 19.4954544,20.2657166 20.2692446,20.0057048 C21.2021883,19.6922217 21.7759182,19.3376826 22.4892009,18.6338666 C23.0158167,18.1142268 23.2720225,17.7499034 23.6818176,16.9380209 C24.4370697,15.4416446 24.7423189,14.3031784 24.9235895,12.3062103 C25.02341,11.2067171 25.0261501,9.16726779 24.92756,9.37364373" id="Shape" fill="#FC0A00"></path>
    </g>
</svg>