<?xml version="1.0" encoding="UTF-8"?>
<svg width="28px" height="28px" viewBox="0 0 28 28" version="1.1" xmlns="http://www.w3.org/2000/svg" xmlns:xlink="http://www.w3.org/1999/xlink">
    <title>YC</title>
    <g id="YC" stroke="none" stroke-width="1" fill="none" fill-rule="evenodd">
        <g id="yamal-airlines-vector-logo" transform="translate(0.000000, 11.500000)">
            <polygon id="Path" fill="#0079BB" points="15.9613977 0.591680532 14.428619 0.591680532 14.1863561 1.09018303 15.4442596 1.09018303"></polygon>
            <polygon id="Path" fill="#0079BB" points="7.79434276 0.955074875 7.74309484 1.09018303 8.20432612 1.09018303 8.34409318 0.7640599 7.99933444 0.7640599 7.92945092 0.782695507 7.878203 0.801331115 7.84559068 0.852579035"></polygon>
            <polygon id="Path" fill="#0079BB" points="19.837604 0.591680532 17.652579 0.591680532 17.5640599 1.09018303 19.3204659 1.09018303"></polygon>
            <polygon id="Path" fill="#0079BB" points="21.5101498 0.591680532 21.4402662 1.09018303 26.8678869 1.09018303 27.9580699 0.591680532"></polygon>
            <polygon id="Path" fill="#0079BB" points="9.55074875 1.09018303 10.0492512 1.09018303 10.2915141 0.591680532 9.77437604 0.591680532"></polygon>
            <polygon id="Path" fill="#0079BB" points="12.0153078 1.09018303 12.1364393 1.09018303 12.718802 0.591680532 11.912812 0.591680532"></polygon>
            <polygon id="Path" fill="#0079BB" points="0.861896839 1.09018303 6.37803661 1.09018303 6.58768719 0.591680532 6.60166389 0.591680532 0.00465890183 0.591680532"></polygon>
            <polygon id="Path" fill="#0079BB" points="7.53344426 1.5374376 7.51480865 1.60732113 7.53344426 1.60732113 7.56605657 1.60732113 7.67321131 1.60732113 7.96206323 1.60732113 8.12046589 1.2625624 7.65457571 1.2625624"></polygon>
            <polygon id="Path" fill="#0079BB" points="16.2036606 1.5374376 16.2362729 1.2625624 15.9613977 1.5374376"></polygon>
            <polygon id="Path" fill="#0079BB" points="20.0472546 1.76106489 20.1124792 1.281198 19.6139767 1.76106489"></polygon>
            <polygon id="Path" fill="#0079BB" points="21.3377704 1.76106489 25.5261231 1.76106489 26.6116473 1.2625624 21.4076539 1.2625624"></polygon>
            <polygon id="Path" fill="#0079BB" points="9.23860233 1.76106489 9.74176373 1.76106489 9.97936772 1.2625624 9.48086522 1.2625624"></polygon>
            <polygon id="Path" fill="#0079BB" points="14.1164725 1.2625624 13.8928453 1.76106489 14.7547421 1.76106489 15.2718802 1.2625624"></polygon>
            <polygon id="Path" fill="#0079BB" points="6.15440932 1.62595674 6.31281198 1.2625624 1.09018303 1.2625624 1.96605657 1.76106489 6.121797 1.76106489 6.13577371 1.69118136"></polygon>
            <polygon id="Path" fill="#0079BB" points="11.2885191 1.2625624 11.0835275 1.76106489 11.4282862 1.76106489"></polygon>
            <polygon id="Path" fill="#0079BB" points="17.5454243 1.2625624 17.4615641 1.76106489 18.6309484 1.76106489 19.1480865 1.2625624"></polygon>
            <polygon id="Path" fill="#0079BB" points="7.43094842 2.31081531 7.36106489 2.39933444 7.50083195 2.39933444 7.58469218 2.39933444 7.62196339 2.39933444 7.65457571 2.32945092 7.6359401 2.31081531 7.62196339 2.31081531 7.55207987 2.2921797"></polygon>
            <polygon id="Path" fill="#0079BB" points="6.17304493 1.96605657 6.15440932 1.91480865 2.17570715 1.91480865 3.03760399 2.43194676 5.61863561 2.43194676 5.8608985 2.41331115 6.03327787 2.39933444 6.19168053 2.36206323 6.41530782 2.18968386 6.39667221 2.18968386 6.34542429 2.17570715 6.31281198 2.13843594 6.25690516 2.10582363 6.20565724 2.0359401"></polygon>
            <polygon id="Path" fill="#0079BB" points="17.3590682 2.38069884 17.4242928 2.39933444 17.5640599 2.39933444 17.6665557 2.39933444 17.7690516 2.39933444 17.8575707 2.38069884 17.9274542 2.36206323 17.9787022 2.34342762 18.0485857 2.31081531 18.0625624 2.2921797 18.081198 2.2921797 18.081198 2.278203 18.4585691 1.91480865 17.4429285 1.91480865"></polygon>
            <polygon id="Path" fill="#0079BB" points="11.0136439 1.91480865 10.8272879 2.38069884 11.0835275 2.41331115 11.0648918 2.41331115 11.6006656 2.41331115 11.4795341 1.91480865"></polygon>
            <polygon id="Path" fill="#0079BB" points="11.7916805 2.43194676 11.9640599 2.43194676 11.9640599 2.38069884 12.0851913 2.38069884 12.1364393 2.38069884 12.1876872 2.38069884 12.2575707 2.34342762 12.290183 2.32945092 12.3088186 2.31081531 12.4625624 1.91480865 12.3227953 1.91480865"></polygon>
            <polygon id="Path" fill="#0079BB" points="13.5993344 2.41331115 13.6878536 2.39933444 13.808985 2.39933444 13.9114809 2.39933444 13.9953411 2.38069884 14.0652246 2.36206323 14.1164725 2.34342762 14.1863561 2.2921797 14.2049917 2.278203 14.5823627 1.91480865 13.8229617 1.91480865"></polygon>
            <polygon id="Path" fill="#0079BB" points="15.1693844 2.2921797 15.0296173 2.43194676 15.7890183 2.43194676 15.8076539 2.38069884 15.9427621 2.38069884 15.9800333 2.38069884 16.0126456 2.36206323 16.0452579 2.32945092 16.0638935 2.31081531 16.0312812 2.31081531 15.9287854 2.2921797 15.6166389 2.2921797"></polygon>
            <polygon id="Path" fill="#0079BB" points="19.0828619 2.25956739 18.9058236 2.43194676 19.6652246 2.43194676 19.6652246 2.38069884 19.8189684 2.38069884 19.837604 2.38069884 19.8748752 2.36206323 19.9074875 2.34342762 19.9400998 2.2921797 19.9400998 2.25956739 19.977371 2.12445923 20.0099834 1.91480865 19.4415973 1.91480865"></polygon>
            <polygon id="Path" fill="#0079BB" points="21.2352745 2.38069884 21.2539101 2.39933444 21.356406 2.39933444 21.547421 2.39933444 21.547421 2.43194676 24.1797005 2.43194676 25.2698835 1.91480865 21.3051581 1.91480865"></polygon>
            <polygon id="Path" fill="#0079BB" points="8.96372712 2.38069884 9.13610649 2.38069884 9.25723794 2.38069884 9.32712146 2.38069884 9.37836938 2.36206323 9.4296173 2.32945092 9.46222962 2.2921797 9.49950083 2.25956739 9.53211314 2.22695507 9.55074875 2.18968386 9.6718802 1.91480865 9.1733777 1.91480865"></polygon>
            <polygon id="Path" fill="#0079BB" points="12.5324459 1.76106489 12.5836938 1.65856905 12.481198 1.76106489"></polygon>
            <path d="M7.50083195,2.39933444 L7.36106489,2.39933444 L7.36106489,2.38069884 L7.43094842,2.31081531 L7.55207987,2.2921797 L7.58469218,2.2921797 L7.61730449,2.31081531 L7.6359401,2.31081531 L7.65457571,2.32945092 L7.62196339,2.38069884 L7.62196339,2.39933444 L7.58935108,2.39933444 L7.55673877,2.41797005 L7.50083195,2.39933444 Z M7.72445923,1.12745424 L7.79434276,0.955074875 L7.84559068,0.852579035 L7.878203,0.801331115 L7.8968386,0.782695507 L7.92945092,0.782695507 L7.99933444,0.7640599 L8.34409318,0.7640599 L8.19034942,1.12279534 L8.12046589,1.2625624 L7.96672213,1.60732113 L7.67321131,1.60732113 L7.57071547,1.60732113 L7.53810316,1.60732113 L7.51946755,1.60732113 L7.53810316,1.5374376 L7.65923461,1.2625624 L7.72445923,1.12745424 Z M15.9613977,1.5374376 L16.2549085,1.281198 L16.2036606,1.5374376 L15.9613977,1.5374376 Z M21.5101498,0.628951747 L21.6126456,0.027953411 L20.4246256,0.027953411 L19.8049917,0.628951747 L19.2878536,1.12745424 L19.1480865,1.2672213 L18.6309484,1.76572379 L18.4911814,1.88685524 L18.0765391,2.2828619 L18.0765391,2.3014975 L18.0579035,2.3014975 L18.0579035,2.32013311 L18.0299501,2.32945092 L17.9600666,2.36206323 L17.8575707,2.38069884 L17.7690516,2.39933444 L17.6665557,2.39933444 L17.5640599,2.39933444 L17.4242928,2.39933444 L17.3544093,2.38069884 L17.4382696,1.88219634 L17.4569052,1.76106489 L17.5454243,1.2625624 L17.5640599,1.12279534 L17.6339434,0.624292845 L17.7364393,0.0232945092 L16.562396,0.0232945092 L15.9241265,0.624292845 L15.4069884,1.12279534 L15.2672213,1.2625624 L14.7500832,1.76106489 L14.6103161,1.88219634 L14.1956739,2.278203 L14.144426,2.32945092 L14.0745424,2.36206323 L13.9720466,2.38069884 L13.8835275,2.39933444 L13.7950083,2.39933444 L13.6738769,2.39933444 L13.5900166,2.41797005 L13.5900166,2.38535774 L13.8322795,1.88685524 L13.8835275,1.76572379 L14.1071547,1.2672213 L14.1770383,1.12745424 L14.4006656,0.628951747 L14.6755408,0.027953411 L13.3663894,0.027953411 L12.6582363,0.628951747 L12.0712146,1.12745424 L12.0386023,1.17870216 L12.0199667,1.12745424 L11.8988353,0.628951747 L11.7777038,0.027953411 L10.5384359,0.027953411 L10.2635607,0.628951747 L10.0212978,1.12745424 L9.97004992,1.2672213 L9.72778702,1.76572379 L9.6765391,1.88685524 L9.53677205,2.19434276 L9.51813644,2.22695507 L9.44825291,2.2968386 L9.4156406,2.32945092 L9.36439268,2.36206323 L9.31314476,2.38069884 L9.24326123,2.38069884 L9.12212978,2.38069884 L8.94975042,2.38069884 L9.1733777,1.88219634 L9.22462562,1.76106489 L9.46688852,1.2625624 L9.51813644,1.12279534 L9.74176373,0.624292845 L10.0166389,0.0232945092 L7.878203,0.0232945092 L7.6359401,0.0419301165 L7.53344426,0.0419301165 L7.41231281,0.0605657238 L7.22129784,0.111813644 L7.04891847,0.163061564 L6.96039933,0.214309484 L6.89051581,0.246921797 L6.82063228,0.298169717 L6.76938436,0.33078203 L6.69950083,0.400665557 L6.64825291,0.451913478 L6.57836938,0.573044925 L6.55973378,0.591680532 L6.55973378,0.624292845 L6.33610649,1.12279534 L6.28485857,1.2625624 L6.13111481,1.62129784 L6.1124792,1.69118136 L6.09384359,1.76106489 L6.09384359,1.83094842 L6.1124792,1.84958403 L6.1124792,1.88219634 L6.14509151,1.96605657 L6.17770383,2.0359401 L6.22895175,2.10582363 L6.28019967,2.13843594 L6.31281198,2.17104825 L6.3640599,2.18968386 L6.38269551,2.18968386 L6.15906822,2.36206323 L5.79567388,2.38069884 L5.6046589,2.39933444 L5.38103161,3.00033278 L7.29584027,3.00033278 L8.82861897,3.00033278 L10.8086522,3.00033278 L11.0835275,2.41797005 L10.8599002,2.38535774 L10.8272879,2.38535774 L11.0369384,1.88685524 L11.0881864,1.76572379 L11.3118136,1.2672213 L11.4329451,1.76572379 L11.4655574,1.88685524 L11.6053245,2.38535774 L11.6379368,2.5577371 L11.8289517,2.38535774 L12.3787022,1.88685524 L12.5836938,1.66322795 L12.481198,1.88685524 L12.3088186,2.31547421 L12.290183,2.33410982 L12.2575707,2.35274542 L12.2063228,2.38535774 L12.1550749,2.38535774 L12.103827,2.38535774 L12.0851913,2.38535774 L11.9640599,2.38535774 L11.7078203,3.00499168 L13.4642263,3.00499168 L14.997005,3.00499168 L15.1181364,2.47387687 L15.0156406,2.45524126 L15.0668885,2.38535774 L15.1693844,2.2968386 L15.6166389,2.2968386 L15.9287854,2.2968386 L16.0312812,2.31547421 L16.0638935,2.31547421 L16.0452579,2.33410982 L16.0126456,2.36672213 L15.9800333,2.38535774 L15.947421,2.38535774 L15.8076539,2.38535774 L15.7051581,3.00499168 L17.4475874,3.00499168 L18.8778702,3.00499168 L18.9990017,2.47387687 L18.9291181,2.47387687 L18.8965058,2.45524126 L18.8965058,2.43660566 L18.9477537,2.38535774 L19.0875208,2.26422629 L19.4835275,1.88685524 L19.6232945,1.76572379 L20.121797,1.28585691 L20.0519135,1.76572379 L20.0193012,1.88685524 L19.9866889,2.12911814 L19.9540765,2.26422629 L19.9540765,2.2968386 L19.9214642,2.34808652 L19.9028286,2.36672213 L19.884193,2.36672213 L19.8515807,2.38535774 L19.8329451,2.38535774 L19.6792013,2.38535774 L19.5906822,3.00499168 L21.4682196,3.00499168 L21.5567388,2.40399334 L21.3657238,2.40399334 L21.263228,2.40399334 L21.2445923,2.38535774 L21.3331115,1.88685524 L21.3517471,1.76572379 L21.4216306,1.2672213 L21.4402662,1.12745424 L21.5101498,0.628951747 Z" id="Shape" fill="#FFFFFF"></path>
            <path d="M16.3387687,1.70981697 L15.565391,1.70981697 L16.4785358,0.81530782 L16.3387687,1.70981697 Z M17.5454243,0.195673877 L16.6136439,0.195673877 L14.3214642,2.39467554 L14.3028286,2.42728785 L14.2702163,2.44592346 L14.2189684,2.47853577 L14.1490849,2.51114809 L14.046589,2.52978369 L13.9440932,2.5484193 L13.8043261,2.56705491 L13.7018303,2.82329451 L14.8712146,2.82329451 L14.9224626,2.58103161 L14.852579,2.5484193 L14.8013311,2.51580699 L14.7826955,2.49717138 L14.7826955,2.47853577 L14.7826955,2.44592346 L14.8013311,2.42728785 L14.8199667,2.39467554 L14.8386023,2.37603993 L15.0948419,2.13377704 L16.2688852,2.13377704 L16.2362729,2.2875208 L16.2176373,2.32013311 L16.1990017,2.37138103 L16.1803661,2.40399334 L16.1477537,2.45524126 L16.1151414,2.47387687 L16.0965058,2.49251248 L16.0266223,2.52512479 L15.9753744,2.5437604 L15.9427621,2.5437604 L15.8915141,2.81863561 L17.4429285,2.81863561 L17.4941764,2.5437604 L17.3730449,2.5437604 L17.2845258,2.52512479 L17.2332779,2.49251248 L17.2006656,2.45990017 L17.2006656,2.42728785 L17.2006656,2.39467554 L17.2006656,2.36206323 L17.5454243,0.195673877 Z" id="Shape" fill="#C31F26" fill-rule="nonzero"></path>
            <polygon id="Path" fill="#C31F26" fill-rule="nonzero" points="21.0815308 2.36206323 21.4262895 0.195673877 20.4945092 0.195673877 18.2023295 2.39933444 18.1697171 2.43194676 18.1324459 2.45058236 18.081198 2.48319468 18.0113145 2.51580699 17.9274542 2.5344426 17.8063228 2.5530782 17.6665557 2.56705491 17.652579 2.82795341 18.7381032 2.82795341 18.8033278 2.58569052 18.7194676 2.5530782 18.6821963 2.51580699 18.6682196 2.50183028 18.6682196 2.48319468 18.6682196 2.45058236 18.6682196 2.43194676 18.6821963 2.39933444 18.7194676 2.38069884 18.9757072 2.13843594 20.3547421 0.81530782 20.1497504 2.13843594 20.1124792 2.2921797 20.0985025 2.32945092 20.0798669 2.38069884 20.0612313 2.41331115 20.0099834 2.46455907 19.9960067 2.48319468 19.9587354 2.50183028 19.8888519 2.5344426 19.8562396 2.5530782 19.8189684 2.5530782 19.7677205 2.82795341 21.3191348 2.82795341 21.356406 2.5530782 21.2539101 2.5530782 21.165391 2.5344426 21.1141431 2.50183028 21.0815308 2.46455907 21.0628952 2.43194676 21.0628952 2.39933444"></polygon>
            <path d="M8.06921797,1.76106489 L7.46356073,1.76106489 L7.43094842,1.76106489 L7.39833611,1.74242928 L7.3797005,1.72379368 L7.36106489,1.69118136 L7.34242928,1.65856905 L7.34242928,1.60732113 L7.36106489,1.5374376 L7.3936772,1.46755408 L7.60332779,0.969051581 L7.67321131,0.81530782 L7.70582363,0.7640599 L7.73843594,0.71281198 L7.77104825,0.66156406 L7.84093178,0.628951747 L7.91081531,0.61031614 L7.99933444,0.61031614 L8.60499168,0.61031614 L8.06921797,1.76106489 Z M8.77271215,2.39933444 L9.78835275,0.200332779 L7.8921797,0.200332779 L7.71980033,0.200332779 L7.56605657,0.218968386 L7.42628952,0.237603993 L7.30515807,0.270216306 L7.20266223,0.288851913 L7.10016639,0.340099834 L7.03028286,0.372712146 L6.96039933,0.405324459 L6.85790349,0.489184692 L6.78801997,0.577703827 L6.75540765,0.628951747 L6.73677205,0.66156406 L6.54575707,1.10881864 L6.30349418,1.69118136 L6.28485857,1.74242928 L6.28485857,1.7936772 L6.28485857,1.84492512 L6.31747088,1.89617304 L6.33610649,1.92878536 L6.38735441,1.98003328 L6.47587354,2.0312812 L6.57836938,2.08252912 L6.66688852,2.11514143 L6.75540765,2.13377704 L6.28951747,2.47853577 L6.27088186,2.49717138 L6.21963394,2.52978369 L6.04725458,2.5484193 L5.90748752,2.5484193 L5.73510815,2.56705491 L5.64658902,2.82329451 L7.03494176,2.82329451 L7.1374376,2.56705491 L7.06755408,2.5484193 L7.03494176,2.52978369 L7.01630616,2.51114809 L7.01630616,2.49251248 L7.03494176,2.45990017 L7.34242928,2.16638935 L7.8921797,2.16638935 L7.75241265,2.47387687 L7.71980033,2.50648918 L7.70116473,2.52512479 L7.68252912,2.5437604 L7.6312812,2.56239601 L7.58003328,2.56239601 L7.50083195,2.56239601 L7.46821963,2.56239601 L7.36572379,2.81863561 L8.86589018,2.81863561 L8.96838602,2.5437604 L8.86589018,2.5437604 L8.81464226,2.51114809 L8.76339434,2.49251248 L8.74475874,2.45990017 L8.74475874,2.44126456 L8.76339434,2.40865225 L8.77271215,2.39933444 Z" id="Shape" fill="#C31F26" fill-rule="nonzero"></path>
            <polygon id="Path" fill="#C31F26" fill-rule="nonzero" points="13.4269551 2.36206323 14.428619 0.195673877 13.4269551 0.195673877 11.9454243 1.46755408 11.6519135 0.195673877 10.6549085 0.195673877 9.69051581 2.24093178 9.6718802 2.2921797 9.58336106 2.39933444 9.53211314 2.45058236 9.44825291 2.50183028 9.35973378 2.5344426 9.25723794 2.5530782 9.1547421 2.82795341 10.7061564 2.82795341 10.8412646 2.5530782 10.7387687 2.5344426 10.6875208 2.51580699 10.6362729 2.50183028 10.6176373 2.46455907 10.6176373 2.45058236 10.6176373 2.43194676 10.6362729 2.41331115 11.344426 0.7640599 11.7404326 2.25956739 12.9797005 1.12745424 12.4625624 2.36206323 12.4439268 2.39933444 12.4299501 2.43194676 12.3926789 2.46455907 12.3414309 2.50183028 12.2715474 2.51580699 12.1876872 2.5344426 12.0851913 2.5530782 11.9640599 2.82795341 13.4455907 2.82795341 13.5294509 2.56705491 13.4642263 2.5530782 13.4269551 2.51580699 13.4129784 2.48319468 13.4129784 2.45058236 13.4269551 2.39933444"></polygon>
            <polygon id="Path" fill="#182F6B" fill-rule="nonzero" points="20.1311148 4.56106489 6.79267887 4.56106489 5.63727121 3.22396007 13.4642263 3.22396007 21.3051581 3.22396007"></polygon>
            <path d="M8.1530782,3.53144759 L8.32545757,3.70382696 L8.1530782,3.87620632 L7.98069884,3.70382696 L8.1530782,3.53144759 Z M6.46655574,4.23494176 L6.46655574,4.42595674 L9.05224626,4.42595674 L9.05224626,4.0625624 L9.05224626,3.70382696 L8.86123128,3.87620632 L9.05224626,4.0672213 L8.86123128,4.23960067 L8.68885191,4.0672213 L8.51647255,4.23960067 L8.32545757,4.0672213 L8.86123128,3.53610649 L8.68885191,3.36372712 L8.51647255,3.53610649 L8.32545757,3.34509151 L8.1530782,3.53610649 L7.98069884,3.34509151 L7.78968386,3.53610649 L7.61730449,3.34509151 L7.44492512,3.53610649 L7.98069884,4.0672213 L7.78968386,4.23960067 L7.61730449,4.0672213 L7.44492512,4.23960067 L6.46655574,4.23960067 L6.46655574,4.23494176 Z" id="Shape" fill="#FFFFFF" fill-rule="nonzero"></path>
            <path d="M9.9281198,3.53144759 L10.1004992,3.70382696 L9.9281198,3.87620632 L9.75574043,3.70382696 L9.9281198,3.53144759 Z M10.6362729,3.87620632 L10.8272879,4.0672213 L10.6362729,4.23960067 L10.4638935,4.0672213 L10.2915141,4.23960067 L10.1004992,4.0672213 L10.6362729,3.53610649 L10.4638935,3.36372712 L10.2915141,3.53610649 L10.1004992,3.34509151 L9.9281198,3.53610649 L9.75574043,3.34509151 L9.56472546,3.53610649 L9.39234609,3.34509151 L9.21996672,3.53610649 L9.75574043,4.0672213 L9.56472546,4.23960067 L9.39234609,4.0672213 L9.21996672,4.23960067 L9.04758735,4.0672213 L9.21996672,3.87620632 L9.04758735,3.70382696 L9.04758735,4.0625624 L9.04758735,4.42595674 L10.822629,4.42595674 L10.822629,4.0625624 L10.822629,3.70382696 L10.6362729,3.87620632 Z" id="Shape" fill="#FFFFFF" fill-rule="nonzero"></path>
            <path d="M11.7031614,3.53144759 L11.8755408,3.70382696 L11.7031614,3.87620632 L11.530782,3.70382696 L11.7031614,3.53144759 Z M12.4113145,3.87620632 L12.6023295,4.0672213 L12.4113145,4.23960067 L12.2389351,4.0672213 L12.0665557,4.23960067 L11.8755408,4.0672213 L12.4113145,3.53610649 L12.2389351,3.36372712 L12.0665557,3.53610649 L11.8755408,3.34509151 L11.7031614,3.53610649 L11.530782,3.34509151 L11.3397671,3.53610649 L11.1673877,3.34509151 L10.9950083,3.53610649 L11.530782,4.0672213 L11.3584027,4.23960067 L11.3397671,4.23960067 L11.1673877,4.0672213 L10.9950083,4.23960067 L10.822629,4.0672213 L10.9950083,3.87620632 L10.822629,3.70382696 L10.822629,4.0625624 L10.822629,4.42595674 L12.5976705,4.42595674 L12.5976705,4.0625624 L12.5976705,3.70382696 L12.4113145,3.87620632 Z" id="Shape" fill="#FFFFFF" fill-rule="nonzero"></path>
            <path d="M13.478203,3.53144759 L13.669218,3.70382696 L13.478203,3.87620632 L13.3058236,3.70382696 L13.478203,3.53144759 Z M14.1863561,3.87620632 L14.377371,4.0672213 L14.1863561,4.23960067 L14.0139767,4.0672213 L13.8415973,4.23960067 L13.669218,4.0672213 L14.1863561,3.53610649 L14.0139767,3.36372712 L13.8415973,3.53610649 L13.6505824,3.34509151 L13.478203,3.53610649 L13.3058236,3.34509151 L13.1334443,3.53610649 L12.9424293,3.34509151 L12.7700499,3.53610649 L13.3058236,4.0672213 L13.1334443,4.23960067 L12.9424293,4.0672213 L12.7700499,4.23960067 L12.5976705,4.0672213 L12.7700499,3.87620632 L12.5976705,3.70382696 L12.5976705,4.0625624 L12.5976705,4.42595674 L14.3727121,4.42595674 L14.3727121,4.0625624 L14.3727121,3.70382696 L14.1863561,3.87620632 Z" id="Shape" fill="#FFFFFF" fill-rule="nonzero"></path>
            <path d="M15.2532446,3.53144759 L15.4442596,3.70382696 L15.2532446,3.87620632 L15.0808652,3.70382696 L15.2532446,3.53144759 Z M15.9613977,3.87620632 L16.1524126,4.0672213 L15.9613977,4.23960067 L15.7890183,4.0672213 L15.6166389,4.23960067 L15.4442596,4.0672213 L15.9613977,3.53610649 L15.7890183,3.36372712 L15.6166389,3.53610649 L15.4442596,3.34509151 L15.2532446,3.53610649 L15.0808652,3.34509151 L14.9084859,3.53610649 L14.7174709,3.34509151 L14.5450915,3.53610649 L15.0808652,4.0672213 L14.9084859,4.23960067 L14.7174709,4.0672213 L14.5450915,4.23960067 L14.3727121,4.0672213 L14.5450915,3.87620632 L14.3727121,3.70382696 L14.3727121,4.0625624 L14.3727121,4.42595674 L16.1477537,4.42595674 L16.1477537,4.0625624 L16.1477537,3.70382696 L15.9613977,3.87620632 Z" id="Shape" fill="#FFFFFF" fill-rule="nonzero"></path>
            <path d="M17.0282862,3.53144759 L17.2193012,3.70382696 L17.0282862,3.87620632 L16.8559068,3.70382696 L17.0282862,3.53144759 Z M17.7364393,3.87620632 L17.9274542,4.0672213 L17.7364393,4.23960067 L17.5640599,4.0672213 L17.3916805,4.23960067 L17.2193012,4.0672213 L17.7550749,3.53610649 L17.5640599,3.36372712 L17.3916805,3.53610649 L17.2193012,3.34509151 L17.0282862,3.53610649 L16.8559068,3.34509151 L16.6835275,3.53610649 L16.4925125,3.34509151 L16.3201331,3.53610649 L16.8559068,4.0672213 L16.6835275,4.23960067 L16.4925125,4.0672213 L16.3201331,4.23960067 L16.1477537,4.0672213 L16.3201331,3.87620632 L16.1477537,3.70382696 L16.1477537,4.0625624 L16.1477537,4.42595674 L17.9227953,4.42595674 L17.9227953,4.0625624 L17.9227953,3.70382696 L17.7364393,3.87620632 Z" id="Shape" fill="#FFFFFF" fill-rule="nonzero"></path>
            <path d="M18.8033278,3.53144759 L18.9943428,3.70382696 L18.8033278,3.87620632 L18.6309484,3.70382696 L18.8033278,3.53144759 Z M20.5457571,4.23494176 L19.5301165,4.23494176 L19.5114809,4.23494176 L19.3391015,4.0625624 L19.1667221,4.23494176 L18.9943428,4.0625624 L19.5301165,3.53144759 L19.3391015,3.35906822 L19.1667221,3.53144759 L18.9943428,3.34043261 L18.8033278,3.53144759 L18.6309484,3.34043261 L18.4585691,3.53144759 L18.2675541,3.34043261 L18.0951747,3.53144759 L18.6309484,4.0625624 L18.4585691,4.23494176 L18.2675541,4.0625624 L18.0951747,4.23494176 L17.9227953,4.0625624 L18.0951747,3.87154742 L17.9227953,3.69916805 L17.9227953,4.05790349 L17.9227953,4.42129784 L20.5457571,4.42129784 L20.5457571,4.23494176 Z" id="Shape" fill="#FFFFFF" fill-rule="nonzero"></path>
            <rect id="Rectangle" fill="#FFFFFF" fill-rule="nonzero" x="5.25058236" y="4.23960067" width="15.8728785" height="1"></rect>
            <polygon id="Path" fill="#C31F26" fill-rule="nonzero" points="20.2708819 4.40732113 6.65291181 4.40732113 6.56905158 4.28618968 13.4642263 4.28618968 20.3733777 4.28618968"></polygon>
        </g>
    </g>
</svg>