<?xml version="1.0" encoding="UTF-8"?>
<svg width="28px" height="28px" viewBox="0 0 28 28" version="1.1" xmlns="http://www.w3.org/2000/svg" xmlns:xlink="http://www.w3.org/1999/xlink">
    <title>YM</title>
    <g id="YM" stroke="none" stroke-width="1" fill="none" fill-rule="evenodd">
        <path d="M10.2524395,14.5767331 C10.0474722,14.1972862 9.9179997,13.7691105 9.88425984,13.3129039 C10.7205655,13.2934702 11.5446424,13.3066147 12.3510035,13.3387525 L10.2524395,14.5767079 L10.2524395,14.5767331 Z M11.6070596,10.2742913 C12.1485705,9.99961636 13.7486457,9.37654439 17.7188831,8.84833257 C17.7188831,8.84833257 22.9859614,8.17178975 27.2817808,6.20555023 L28,4 C23.9787315,6.13483436 20.2315954,6.68719674 17.7188831,7.16581815 C15.3710686,7.60218864 12.9384892,7.83976981 10.976564,8.73795066 C9.76870774,9.30367133 8.83666331,10.3799311 8.44529323,11.6972249 C7.52675089,11.7520039 6.62971349,11.8455559 5.78033633,11.9908681 C2.52325564,12.3940315 0,15.2295593 0,18.6683228 C0,20.7246804 0.902936497,22.5654439 2.32503626,23.7986573 L2.33389413,23.8214871 L2.33020335,23.8033742 L2.33020335,23.8038081 L2.28929723,23.6119243 C2.03161327,22.2286568 2.69121063,21.3192749 2.69121063,21.3192749 C3.44949324,20.0985645 4.6839231,19.5289571 6.57921134,19.5289571 C11.0158892,19.5289571 15.7583296,21.5594472 20.3438812,23.5226679 L21.4458798,24 L21.9819099,22.4170941 C17.0210124,20.3046745 11.6881398,17.86326 6.57921134,17.86326 C4.8606314,17.86326 3.03365945,18.2746183 1.75748075,19.8118206 C1.67355861,19.4435811 1.62927543,19.0615493 1.62927543,18.6682977 C1.62927543,16.0785522 3.54143052,13.9376802 5.99721258,13.6427415 C6.75085712,13.5254603 7.50534438,13.4431031 8.25646073,13.3887706 C8.33912185,14.7155548 8.95232613,15.8965928 9.88226067,16.710253 L9.88533632,16.7077373 L9.89025736,16.7150957 L17.703794,12.1021934 C15.5550416,11.851235 12.8664637,11.6145092 10.22343,11.6377981 C10.5291925,11.0449081 11.0141915,10.5649911 11.6071518,10.2743668" id="path5078" fill="#0164C8" fill-rule="nonzero"></path>
    </g>
</svg>