<?xml version="1.0" encoding="UTF-8"?>
<svg width="28px" height="28px" viewBox="0 0 28 28" version="1.1" xmlns="http://www.w3.org/2000/svg" xmlns:xlink="http://www.w3.org/1999/xlink">
    <title>YN</title>
    <g id="YN" stroke="none" stroke-width="1" fill="none" fill-rule="evenodd">
        <path d="M26.531476,2.25905608 C26.2650735,2.40331552 25.3572652,2.59131698 24.5142236,2.67648003 C22.9877316,2.83091618 22.9777125,2.83520112 21.9970863,3.76074678 C20.7731374,4.91589347 18.2679872,6.12835114 14.5793227,7.350807 C10.1073738,8.83285841 9.14821725,9.34954999 5.18205751,12.4120278 C2.69623003,14.331678 2.4600639,14.4725452 1.87859425,14.3832758 C1.35741853,14.3032903 1.1473738,14.379705 0.626198083,14.8397997 L0,15.3923776 L1.25239617,15.3129278 C2.59371246,15.2279433 4.06635144,14.6860777 6.14998083,13.5107562 C7.43619169,12.7853526 7.60383387,12.7482165 7.60383387,13.1888505 C7.60383387,14.0092368 5.89789137,15.6633997 3.79386581,16.8828204 C3.32189137,17.156342 2.97676677,17.4209366 3.02686262,17.470749 C3.19933546,17.6428605 11.7292268,12.9767463 12.7442045,12.1549317 C13.3038466,11.7019785 14.3687412,10.5828967 15.1108754,9.66806339 L16.4600639,8.00479499 L19.5023131,6.46650382 C21.1755144,5.62040797 23.0106326,4.73592626 23.5802939,4.5011476 C24.1497764,4.26619041 24.9547093,3.81627238 25.3687157,3.50132976 C25.782722,3.18638713 26.3831565,2.79413717 26.7028754,2.6295243 C27.0225942,2.46491144 27.284345,2.25191453 27.284345,2.15621768 C27.284345,1.92251026 27.1084728,1.94643447 26.531476,2.25905608 M22.9311949,3.73450156 C22.7156038,3.97213684 22.690377,4.1110401 22.8365495,4.25690638 C22.9825431,4.40259413 23.2412524,4.3556384 23.8093035,4.08033141 C24.2347604,3.87394044 24.5419553,3.63880471 24.4918594,3.55792659 C24.320639,3.28154837 23.2299808,3.40491875 22.9311949,3.73450156 M24.9584665,6.18423382 C24.9584665,6.33509919 24.8294696,6.65486236 24.6718466,6.89499718 C24.4442684,7.24136265 24.3174185,7.29545994 24.0574569,7.15637813 C23.5860192,6.90463828 23.449508,6.94070314 23.7060703,7.24921836 C23.8286262,7.39651296 24.0333035,7.51702671 24.1610479,7.51702671 C24.2887923,7.51702671 24.4485623,7.77805059 24.5163706,8.09727814 C24.584,8.4165057 24.7995911,8.85178354 24.9955016,9.06495898 C25.1914121,9.27795589 25.3842812,9.76001093 25.424,10.1361924 C25.5535335,11.3604336 25.6515783,12.0542358 25.8233355,12.9624632 C25.9251374,13.5000438 25.9276422,13.9772783 25.8299553,14.1618875 C25.7406773,14.3307853 25.6778786,14.6923266 25.6904026,14.9653126 C25.7655463,16.6059065 24.6217508,19.7831848 23.6250224,20.7030172 C23.3743642,20.9342251 23.1693291,21.2345275 23.1693291,21.3702171 C23.1693291,21.5057281 22.8875399,21.7342579 22.543131,21.8779817 C22.198722,22.021527 21.9169329,22.2320244 21.9169329,22.3457537 C21.9169329,22.4594829 21.7956294,22.5060816 21.6474888,22.4493062 C21.4993482,22.3925309 20.9726262,22.5848173 20.4766773,22.8765498 C19.9809073,23.1682824 19.4379042,23.407346 19.2700831,23.407703 C19.102262,23.4080601 18.6875399,23.5769579 18.3488562,23.7831704 C17.7858147,24.125608 17.5510799,24.1493536 15.6295463,24.0586559 C14.0053674,23.9818842 13.3630671,23.8760106 12.8087923,23.5939191 C12.4139297,23.3928843 11.9360511,23.22845 11.7465815,23.22845 C11.5571118,23.22845 11.2703131,23.0275937 11.1091118,22.7821027 C10.9479105,22.5366117 10.6770351,22.3328989 10.5070671,22.3291495 C10.1884217,22.3225436 9.21405751,20.9631484 9.21405751,20.5255496 C9.21405751,20.3900385 9.05303514,20.178827 8.85623003,20.0561708 C8.65763578,19.9324433 8.49840256,19.6398181 8.49840256,19.3989691 C8.49840256,19.1600841 8.40894569,18.9094154 8.29980831,18.8421063 C8.186377,18.772119 8.14111182,18.473602 8.1942492,18.1466973 C8.34883067,17.1968703 8.13216613,17.0474332 7.12738658,17.4107599 C6.65129712,17.5828714 6.16769329,17.7521263 6.05247284,17.7869414 C5.82471565,17.8556788 6.11795527,19.0606379 6.62284984,20.1309786 C6.76884345,20.4403865 6.89032588,20.8019278 6.8931885,20.9344037 C6.8958722,21.0668795 7.13740575,21.4096742 7.42992971,21.6960506 C7.72227476,21.982427 7.96166134,22.3073678 7.96166134,22.4180619 C7.96166134,22.6326657 9.42732268,23.8724398 10.4664537,24.5369616 C11.6177636,25.273256 13.6820703,25.9008203 15.2076677,25.9784847 C17.934492,26.1173879 20.0383387,25.5881986 22.0385942,24.2605834 C22.4499169,23.9874189 22.8383387,23.7640667 22.9016741,23.7640667 C22.9961406,23.7640667 24.12777,22.6264168 25.3878594,21.2645221 C25.9523323,20.6546332 26.5203834,18.5530518 26.0408946,18.8487122 C25.8915016,18.9408383 25.4952077,18.4314668 25.4952077,18.1474114 C25.4952077,18.0113648 26.3974696,17.6287559 26.7506454,17.6150084 C27.0993482,17.6014395 28,16.899603 28,16.6414358 C28,16.3457754 27.825738,16.3980873 27.1850479,16.885677 C26.6742492,17.2743562 26.5778147,17.2948882 26.3795783,17.0567173 C26.2046006,16.8462199 26.2022748,16.7382039 26.3690224,16.5718056 C26.53577,16.4054074 26.6146709,16.4079069 26.7234505,16.5835892 C26.8288307,16.7537367 26.948524,16.715708 27.2081278,16.4298672 C27.9196677,15.6460814 27.8176869,10.8017854 27.0472843,8.79822187 C26.4511438,7.24743297 25.6290351,5.91035495 25.2715655,5.91035495 C25.0992716,5.91035495 24.9584665,6.03354699 24.9584665,6.18423382 M24.9432588,7.03265068 C24.6858019,7.59647652 24.8958466,7.95533972 25.3758722,7.77162319 C25.7406773,7.63182723 25.7557061,7.33938051 25.4214952,6.88339215 C25.1778147,6.55095272 25.1608179,6.55613035 24.9432588,7.03265068 M25.0971246,8.15226812 C24.9314505,8.31777368 25.1638594,8.94533792 25.390901,8.94533792 C25.6721534,8.94533792 26.0319489,8.57451262 26.0319489,8.28474399 C26.0319489,8.05835666 25.2958978,7.9539114 25.0971246,8.15226812 M25.8827348,9.101738 C25.6923706,9.22225176 25.7043578,9.27581343 25.9421342,9.36686827 C26.4135719,9.54737109 26.5654696,9.50184367 26.4545431,9.21314627 C26.3375335,8.90891598 26.2228498,8.88659862 25.8827348,9.101738 M25.6741214,10.1951102 C25.6741214,10.5730771 26.1054824,10.6698452 26.5468626,10.3907889 C26.8941342,10.1713646 26.6313099,9.83803242 26.1108498,9.83803242 C25.7934569,9.83803242 25.6741214,9.93551466 25.6741214,10.1951102 M26.239131,10.8880197 C26.0637955,10.9988924 26.1240895,11.063702 26.4627732,11.1283331 C26.7781981,11.1885007 26.9265176,11.1390454 26.9265176,10.9737184 C26.9265176,10.7003753 26.6001789,10.6596684 26.239131,10.8880197 M26.0319489,11.8082092 C26.0319489,12.1161888 26.0865176,12.142434 26.3897764,11.9804992 C26.5865815,11.8753398 26.7476038,11.7117982 26.7476038,11.6171726 C26.7476038,11.5223684 26.5865815,11.4448825 26.3897764,11.4448825 C26.1491374,11.4448825 26.0319489,11.563968 26.0319489,11.8082092 M26.7923323,12.098692 C26.4808435,12.2242048 26.5121534,12.5161159 26.8370607,12.5161159 C26.9846645,12.5161159 27.1054313,12.3956022 27.1054313,12.2483076 C27.1054313,12.101013 27.0852141,11.9869266 27.0607029,11.9946038 C27.0361917,12.002281 26.9154249,12.0492367 26.7923323,12.098692 M26.2108626,13.1410021 C26.2108626,13.6537658 26.3579297,13.6957225 26.8476166,13.3229332 C27.1481917,13.0940464 27.1587476,13.0344144 26.9265176,12.8792641 C26.4738658,12.5771762 26.2108626,12.6732302 26.2108626,13.1410021 M26.3115911,14.0479797 C25.9473227,14.4114849 26.0090479,14.9990564 26.4395144,15.2652579 C26.851016,15.5196759 27.1279744,15.1368885 27.0626709,14.4045219 C27.0066709,13.778386 26.7186198,13.6418037 26.3115911,14.0479797 M25.9145815,15.8271199 C25.7209968,16.3307781 25.9482173,16.479501 26.3793994,16.1311716 L26.8057508,15.7865915 L26.4078466,15.6828604 C26.1555783,15.6169796 25.9752332,15.6696485 25.9145815,15.8271199 M25.6741214,17.3161343 C25.6741214,17.5728732 25.7566006,17.6508947 25.9500064,17.5768011 C26.2554121,17.4598581 26.2178403,17.1306324 25.8866709,17.0204739 C25.7685879,16.9811953 25.6741214,17.1127785 25.6741214,17.3161343 M7.20127796,17.7226674 C6.56130351,17.9560177 6.57615335,18.1693717 7.23920767,18.2664969 C7.73927157,18.3396978 7.96166134,18.1588379 7.96166134,17.6791039 C7.96166134,17.4818184 7.8439361,17.4884243 7.20127796,17.7226674 M26.3233994,18.1749064 C26.1856358,18.634287 26.4461342,19.7062346 26.7173674,19.7963967 C26.8885879,19.8533506 26.9326006,19.6344619 26.8918083,18.9311972 C26.8374185,17.9958319 26.5085751,17.5580545 26.3233994,18.1749064 M6.88817891,18.8542469 C6.88817891,19.1424087 7.0520639,19.1850795 7.49970607,19.0136822 C7.93536102,18.8469268 7.83516933,18.5864386 7.33546326,18.5864386 C7.05707348,18.5864386 6.88817891,18.6876701 6.88817891,18.8542469 M25.2402556,18.9219132 C25.1847923,19.0113612 25.2597572,19.1306251 25.4068243,19.1870434 C25.5538914,19.2432832 25.6741214,19.2163238 25.6741214,19.1270544 C25.6741214,18.8849556 25.3561917,18.7346259 25.2402556,18.9219132 M7.63353355,19.2784553 C7.44316933,19.3989691 7.45515655,19.4525308 7.69293291,19.5435856 C8.10926518,19.7030209 8.14057508,19.69213 8.14057508,19.3898636 C8.14057508,19.0893827 7.98617252,19.0554603 7.63353355,19.2784553 M25.0287796,19.7615816 C25.0885367,19.9169105 25.1373802,20.0874151 25.1373802,20.1404412 C25.1373802,20.1936458 25.2572524,20.1377631 25.4037827,20.0163566 C25.7106198,19.7621172 25.6018403,19.4791331 25.1971374,19.4791331 C25.0180447,19.4791331 24.9586454,19.5789363 25.0287796,19.7615816 M7.42492013,20.0934854 C7.42492013,20.4696669 7.71100319,20.5839318 7.94591693,20.3014832 C8.10282428,20.1127676 8.0835016,20.0311754 7.8621853,19.9463694 C7.45891374,19.7919332 7.42492013,19.8033597 7.42492013,20.0934854 M24.5358722,20.2825581 C24.4793355,20.4298527 24.5110032,20.5503665 24.6061853,20.5503665 C24.7015463,20.5503665 24.7795527,20.4298527 24.7795527,20.2825581 C24.7795527,20.1352635 24.747885,20.0147498 24.7092396,20.0147498 C24.6705942,20.0147498 24.5925879,20.1352635 24.5358722,20.2825581 M8.22949521,20.5510806 C7.91281789,20.9001242 7.91782748,20.9074443 8.47067093,20.9074443 C9.07110543,20.9074443 9.18847284,20.7210497 8.79396805,20.3943235 C8.60986581,20.2418513 8.47603834,20.2789873 8.22949521,20.5510806 M23.7291502,21.0429553 C23.4945942,21.4801971 23.7289712,21.7265808 24.1537125,21.4893026 C24.3866581,21.3591477 24.3902364,21.2898746 24.1787604,21.0009987 C23.9391949,20.6742725 23.9263131,20.6753437 23.7291502,21.0429553 M8.14325115,21.3984263 C8.14486901,21.4719843 8.21911821,21.6476666 8.30857508,21.7887123 C8.44329712,22.0011736 8.51933546,22.0049229 8.75317572,21.8113867 C9.16235144,21.4725199 9.09955272,21.2645221 8.58785942,21.2645221 C8.34185304,21.2645221 8.14182748,21.3248682 8.14325115,21.3984263 M9.1267476,21.9763567 C8.80577636,22.3303993 8.80774441,22.3505742 9.21065815,22.778532 C9.72646645,23.3264678 9.98732268,23.189707 9.83184665,22.4526985 C9.66563578,21.6646278 9.50676038,21.5573259 9.1267476,21.9763567 M23.5271565,22.0897289 C23.5271565,22.3270071 23.5756422,22.3393263 23.7955272,22.1572166 C23.943131,22.0349174 24.0638978,21.904584 24.0638978,21.8676265 C24.0638978,21.8304904 23.943131,21.8001388 23.7955272,21.8001388 C23.6479233,21.8001388 23.5271565,21.9304722 23.5271565,22.0897289 M22.493393,22.377355 C22.0325112,22.5989218 22.0546965,22.9295759 22.5365112,23.0227732 C22.8641022,23.0861545 23.1616358,22.7828169 23.1666454,22.3803902 C23.1698658,22.1154385 23.0392588,22.1149029 22.493393,22.377355 M10.2152588,23.1589984 C10.1342109,23.3696743 10.1809073,23.4175227 10.3895208,23.3375373 C10.5464281,23.2775482 10.708345,23.22845 10.7494952,23.22845 C10.7906454,23.22845 10.8242812,23.1481075 10.8242812,23.0499111 C10.8242812,22.7590712 10.3353099,22.8467338 10.2152588,23.1589984 M20.3373035,23.281119 C20.1771757,23.4735839 20.2287029,23.6178433 20.5725751,23.9402846 C20.9507987,24.2948628 21.0284473,24.3130738 21.1221981,24.0690111 C21.3989776,23.3494994 20.7892396,22.737468 20.3373035,23.281119 M21.5591054,23.4069889 C21.5591054,23.802274 21.6936486,23.8463731 22.0958466,23.5828497 C22.3343387,23.4264496 22.3343387,23.3875282 22.0958466,23.2311281 C21.6936486,22.9676047 21.5591054,23.0117038 21.5591054,23.4069889 M10.4664537,23.744963 C10.4664537,23.8326256 10.5938403,23.9531394 10.7494952,24.0127714 C11.1493674,24.1659578 11.1821086,24.1538171 11.1821086,23.8533361 C11.1821086,23.7046132 11.0230543,23.5855278 10.8242812,23.5855278 C10.627476,23.5855278 10.4664537,23.6573004 10.4664537,23.744963 M11.5399361,24.0359814 C11.5399361,24.4750086 11.5512077,24.479115 11.9856102,24.1950596 C12.475655,23.8745823 12.4289585,23.5855278 11.8872077,23.5855278 C11.6352971,23.5855278 11.5399361,23.7090767 11.5399361,24.0359814 M18.6186581,24.0013449 C18.3490351,24.1980948 18.3289968,24.3050396 18.5012907,24.626231 C18.832639,25.2441542 19.2332268,25.1141779 19.2332268,24.3889528 C19.2332268,23.7101479 19.1174696,23.6373041 18.6186581,24.0013449 M19.5910543,24.2600478 C19.5910543,24.8654732 19.6885623,24.93796 20.1277955,24.6599749 C20.3575208,24.5144657 20.3381981,24.4319807 19.9936102,24.0874006 L19.5910543,23.6847954 L19.5910543,24.2600478 M12.2926262,24.3341414 C12.1273099,24.4991113 12.205853,24.6003429 12.6416869,24.7833453 C13.3013419,25.0600806 13.3485751,25.0377632 13.2117061,24.5150013 C13.0993482,24.0866865 12.6325623,23.9949175 12.2926262,24.3341414 M13.574901,24.3944876 C13.6364473,24.5548155 13.686901,24.7999494 13.686901,24.9392097 C13.686901,25.2991442 14.1136102,25.2525455 14.4759105,24.8529754 C14.8108371,24.483757 14.7532268,24.4114487 13.9774569,24.2259468 C13.5480639,24.1234655 13.4813291,24.1513176 13.574901,24.3944876 M16.2391054,24.4451926 C15.9680511,24.616947 16.4305431,25.3709168 16.8071565,25.3709168 C17.0109393,25.3709168 17.2547987,24.8690439 17.2626813,24.4335876 C17.2658914,24.2577268 16.5217891,24.2661181 16.2391054,24.4451926 M17.5292524,24.8486905 C17.3791438,25.3207474 17.4274505,25.3596688 18.0210863,25.2459396 C18.4349137,25.1666683 18.4814313,25.1013231 18.3279233,24.8153037 C18.0887157,24.369135 17.6763195,24.3864533 17.5292524,24.8486905 M14.7961661,24.8710079 C14.4243834,25.2420117 14.5585687,25.3709168 15.3162684,25.3709168 C15.9127668,25.3709168 16.0306709,25.3177122 15.9424665,25.0884683 C15.8827093,24.9331394 15.8338658,24.7724544 15.8338658,24.7313905 C15.8338658,24.5605287 14.9940447,24.6735439 14.7961661,24.8710079" id="Shape" fill="#000000"></path>
        <path d="M17.36,15.9204957 C13.1317316,18.2809585 9.64219808,20.2420298 9.60569968,20.2786303 C9.4822492,20.4016436 9.75920767,20.9935 10.179655,21.5051925 L10.5974185,22.0138498 L18.0863898,17.8451451 C25.4928818,13.7225033 25.5758978,13.6701914 25.6039872,13.0940464 C25.6197316,12.7737476 25.5614058,12.4675534 25.4744537,12.4139917 C25.3875016,12.36043 25.3162939,12.160645 25.3162939,11.9699654 C25.3162939,11.7792859 25.2558211,11.6246712 25.1821086,11.6260897 C25.1083962,11.6275278 21.5884473,13.5600329 17.36,15.9204957" id="Path" fill="#FF7700"></path>
        <path d="M18.2492013,18.5780472 C14.5099042,20.6326729 11.4585304,22.3989583 11.4683469,22.503225 C11.5138147,22.98528 11.5601534,23.0499111 11.8600128,23.0499111 C12.035885,23.0499111 12.4659936,23.1954203 12.81577,23.3734236 L13.4516294,23.6969361 L19.1604089,20.5060888 C22.3001661,18.7510514 24.9275144,17.2575735 24.9992588,17.1870507 C25.0708243,17.1167063 25.1679744,16.7576646 25.2152077,16.3895174 C25.2624409,16.0213702 25.345099,15.6492951 25.3987732,15.5625252 C25.5114888,15.3805941 25.3338275,14.8356933 25.1629649,14.8399531 C25.0996294,14.8414066 21.9884984,16.5236001 18.2492013,18.5780472" id="Path" fill="#FF0000"></path>
        <path d="M8.5080639,17.4259357 L8.50312971,18.0751032 C8.50054952,18.4320024 8.6005623,18.9206634 8.72544409,19.1609768 L8.95248562,19.5976829 L17.0002045,15.107251 C24.2775208,11.0467408 25.0534696,10.5707561 25.1049968,10.1338714 C25.1416741,9.82303516 25.0101725,9.47077791 24.7355399,9.14530149 L24.3091885,8.63967932 L16.4087157,13.0328075 L8.5080639,17.4259357 Z" id="Path" fill="#FFCC01"></path>
    </g>
</svg>