<?xml version="1.0" encoding="UTF-8"?>
<svg width="28px" height="28px" viewBox="0 0 28 28" version="1.1" xmlns="http://www.w3.org/2000/svg" xmlns:xlink="http://www.w3.org/1999/xlink">
    <title>YQ</title>
    <g id="YQ" stroke="none" stroke-width="1" fill="none" fill-rule="evenodd">
        <path d="M19.1562328,1.53836754 L19.1614791,1.53686819 C19.1614791,1.53686819 18.5612133,1.79499453 17.5258255,3.53042971 C17.5258255,3.53042971 18.0246671,2.53462853 18.3278191,2.0098745 C16.4990355,3.09692389 14.4734494,4.61740163 13.1492274,6.55328049 C13.1492274,6.55328049 13.175003,6.47343238 13.3176285,5.59275662 C13.3196659,5.57643865 13.3196659,5.56301693 13.3269496,5.54811084 C13.3269496,5.54811084 12.4422274,6.59051196 11.2856119,8.337892 C11.150782,8.55605055 9.72250496,10.9038195 9.38451084,12.6775807 C9.38451084,12.6775807 9.43995353,12.0247418 9.51655715,11.2819867 C8.14628227,13.799755 6.79772097,16.9477244 6.21830029,20.3255598 C6.21830029,20.3255598 9.07332378,12.9826918 16.6640265,5.36054911 C16.6640265,5.36054911 4.25881759,18.8718158 5.60165126,28 C5.52067233,27.2041602 5.39363802,24.4310094 7.18320684,22.2090512 C7.39631102,22.1228883 7.78481987,22.0378799 8.15479605,22.3574448 C8.15479605,22.3574448 8.07715591,22.0830105 7.87677528,21.9734852 C7.87677528,21.9734852 8.46001863,21.8083238 8.87509006,21.8249741 C8.87509006,21.8249741 8.09402047,21.7114605 7.7907869,21.6125831 C7.86516211,21.5936662 8.16593043,21.5170292 8.39105016,21.5258729 C8.39105016,21.5258729 8.12440826,21.4866898 7.91185418,21.4424189 C8.06800799,21.3001276 8.22829518,21.1596306 8.41029848,21.0267853 C11.9516577,18.399984 15.5715254,15.0715548 16.145142,14.3760218 C16.145142,14.3760218 15.3213533,14.8596411 14.637325,14.9935809 C14.637325,14.9935809 17.1631075,13.8237172 18.6247011,9.05348634 C18.9405895,8.02107343 19.2586961,7.04392421 19.5693305,6.13194943 L17.8492802,6.73124386 C18.855551,6.13530548 19.4952711,5.60305968 19.8837799,5.23230684 C20.8904455,2.40310766 21.823533,0.406577418 22.5,0 C22.5,0 21.0193134,0.521083109 19.156243,1.53835005" id="path3394" fill="#E51F04" fill-rule="nonzero"></path>
    </g>
</svg>