<?xml version="1.0" encoding="UTF-8"?>
<svg width="28px" height="28px" viewBox="0 0 28 28" version="1.1" xmlns="http://www.w3.org/2000/svg" xmlns:xlink="http://www.w3.org/1999/xlink">
    <title>YW</title>
    <g id="YW" stroke="none" stroke-width="1" fill="none" fill-rule="evenodd">
        <path d="M13.5486641,25.9855662 C13.7130942,25.8189992 13.7940485,25.7985655 13.9300184,25.8893758 C14.0150231,25.946139 14.2559815,26.0146407 14.4650732,26.0414871 C14.6885961,26.0702084 14.7969375,26.2509866 14.6685587,26.3810339 C14.608366,26.4420088 14.6377113,26.4436392 14.1196897,26.3506007 C13.6856266,26.2726158 13.4687291,26.2165591 13.4331608,26.1731104 C13.4076245,26.1419436 13.4297541,26.1060216 13.5486641,25.9855662 Z M11.2256139,24.314896 L11.586287,24.3150591 C11.7846491,24.3151406 11.9938213,24.3283736 12.0510902,24.3444868 C12.1934442,24.384539 12.3779384,24.56654 12.6579791,24.9432315 C12.9432505,25.3269063 12.9740174,25.4047825 12.9133687,25.5897453 C12.8893078,25.6631109 12.8505742,25.7305257 12.8272643,25.7395741 C12.7458003,25.7712572 12.5494768,25.6146081 11.9822066,25.0652357 C11.6677509,24.7607142 11.3688799,24.4673062 11.3180487,24.4132331 L11.3180487,24.4132331 L11.2256139,24.314896 Z M10.5488757,22.5376827 C10.5309573,22.4891256 10.540453,22.4869518 10.7018787,22.5028477 C10.7965668,22.5121678 11.0994614,22.5280909 11.3750225,22.5382262 C11.6505837,22.5483615 11.8877331,22.56404 11.9020034,22.5730613 C11.932207,22.5921091 12.0676673,23.1844411 12.0676673,23.2974241 C12.0676673,23.4232868 11.9693043,23.590343 11.833388,23.6953373 C11.6452457,23.8406827 11.2012847,24.1007501 11.1816228,24.0771644 C11.1675939,24.0602903 10.6113483,22.7069399 10.5488757,22.5376827 Z M17.5933746,0.025100585 C17.846672,-0.00780523725 18.0356726,-0.00837585845 18.1184241,0.0234974112 L18.1184241,0.0234974112 L18.1909557,0.0514306773 L18.1757466,0.274842461 C18.1666265,0.408938442 18.1282416,0.601455165 18.079771,0.756392405 C17.7586362,1.78266821 17.1240114,5.04591496 16.8704458,6.97475047 C16.7713318,7.72862258 16.7477268,8.43999701 16.783939,9.58170133 C16.8329461,11.1263457 16.9242544,12.4266827 17.0972948,14.0437145 C17.2630661,15.592625 17.2834253,15.8831527 17.2830766,16.6930272 C17.2827816,17.3825007 17.2771754,17.4780661 17.2232327,17.7119936 C17.1555562,18.005456 17.0199886,18.3142979 16.8711432,18.5140425 C16.7276894,18.7065049 16.4477828,18.9890982 16.4005729,18.9890982 C16.2985619,18.9890982 16.2337019,18.704956 16.2014865,18.1172162 C16.1887183,17.8842669 16.1643087,17.6672135 16.1472219,17.6349054 C16.1056181,17.5561597 15.9838648,17.5573825 15.9097506,17.6372694 C15.8785813,17.6709089 15.8407597,17.7539479 15.8257652,17.8217975 C15.8033941,17.9229061 15.7427187,18.8948099 15.7425845,19.154361 C15.7425309,19.2229442 15.7356908,19.2255799 15.4407629,19.2701699 C15.1052237,19.3209009 14.8672428,19.3279657 14.7689066,19.2900873 C14.6952216,19.2617193 14.5915475,18.994587 14.346351,18.2012062 C14.1976933,17.7203084 14.1079677,17.5115154 14.0382794,17.4844245 C13.9111076,17.4349978 13.8364569,17.5061624 13.7985549,17.7129447 C13.7890861,17.7647353 13.8121814,18.0648821 13.8499225,18.3799465 C13.9751093,19.425406 13.9740095,19.4294276 13.4400813,19.8654093 C13.2433554,20.02608 13.0731582,20.157513 13.0618654,20.157513 C13.0505726,20.157513 12.903739,20.0576 12.7355536,19.9354871 C12.3567476,19.6604476 12.2014913,19.5597194 12.1562932,19.5597194 C12.0653604,19.5597194 12.1321786,19.7244116 12.4539571,20.2933752 C12.5511398,20.4652409 12.6307529,20.6190641 12.6308334,20.6352317 C12.6310748,20.6860713 12.2381863,21.0529264 12.1381335,21.095261 C12.0732198,21.1227596 11.9481672,21.1357208 11.7482224,21.1357208 C11.5863406,21.1357208 11.4476346,21.1459648 11.4400167,21.1584641 C11.4158752,21.1980544 11.5003703,21.2924514 11.6640761,21.4087766 C11.8580391,21.5465952 11.960372,21.6882995 11.960372,21.8190804 C11.960372,21.950269 11.9036396,21.9930656 11.6653099,22.0417042 C11.0969132,22.1576762 10.5659088,22.1718602 10.4590695,22.0739307 C10.427015,22.0445573 10.2724562,21.8367154 10.1155636,21.6120808 C9.95869792,21.3874463 9.75738514,21.1131949 9.66816911,21.0026302 C9.44955496,20.7316667 9.04325453,20.3692407 8.62080615,20.0683874 C8.42383883,19.9281233 8.16509624,19.7119122 8.02622932,19.5715666 C7.80176757,19.3447583 7.76619919,19.2937828 7.61799757,18.9862723 C7.42290791,18.5815388 7.28181461,18.1684906 7.30574146,18.0720013 C7.32105786,18.010184 7.33264575,18.0052929 7.43567605,18.0170586 C7.49788049,18.0241506 7.72963832,18.115613 7.95069343,18.2203084 C8.41839359,18.4418181 8.72472164,18.5543392 8.860021,18.5543392 C9.04258393,18.5543392 8.99132361,18.4686645 8.56045255,18.0537142 C7.95401959,17.4697242 7.57325543,17.0705882 7.39884694,16.8361444 C7.21797391,16.5929783 7.16397756,16.4418724 7.0758613,15.932199 C7.00821162,15.5409974 6.97435996,14.7953585 7.02285743,14.7649797 C7.0758613,14.7318022 7.24010356,14.858154 8.15138927,15.6332206 C8.55117151,15.9732565 8.86766579,16.1906088 8.96280988,16.1904458 C9.0040381,16.1903915 9.03644128,16.1753379 9.03628033,16.1563716 C9.0359048,16.1097165 8.88024616,15.9046733 8.39280367,15.3086187 C7.84868244,14.6432744 7.66759482,14.3867394 7.50944156,14.0573007 C7.36429786,13.7548987 7.33404059,13.6477578 7.29404627,13.2946248 C7.26622997,13.0488772 7.28527488,12.3861958 7.32017267,12.3861958 C7.34082702,12.3861958 8.11571359,13.0541759 8.69019938,13.5672458 C9.17672986,14.0017331 9.55347044,14.2899783 9.58850236,14.2545183 C9.61111484,14.2316119 9.38391707,13.7975051 9.14859168,13.4139389 C8.69154057,12.6690065 8.25428545,11.8652187 8.0425382,11.3808156 C7.88722827,11.0254273 7.88666497,10.8936138 8.03913157,10.5861848 C8.10034354,10.4627948 8.18727954,10.3031024 8.23231674,10.2313128 L8.23231674,10.2313128 L8.31423669,10.1007764 L8.6124103,10.489451 C9.00060465,10.9954289 9.30019992,11.3440785 9.57734365,11.612352 C10.0840456,12.1028688 10.4314141,12.344785 10.4314141,12.2071566 C10.4314141,12.1285739 10.124335,11.4862447 9.73758916,10.7558495 C9.52788052,10.3598113 9.21621453,9.75424631 9.0450249,9.41016173 L9.0450249,9.41016173 L8.73370762,8.78457069 L8.88746177,8.43195396 C8.97201046,8.23802428 9.06624254,8.03656782 9.09687535,7.98426088 C9.16119887,7.87440271 9.25175609,7.76688138 9.27997476,7.76688138 C9.31581138,7.76688138 9.64456414,8.23729062 10.001616,8.79943401 C10.7466209,9.97238664 11.1566766,10.4569527 11.4042605,10.4569527 C11.5803053,10.4569527 11.5483581,10.3558169 11.0352452,9.2885379 C10.5768261,8.33502988 10.3772032,7.86945733 10.2023655,7.34603466 C9.9797278,6.67960345 9.94928276,6.37187559 10.0786809,6.09577645 C10.195445,5.84660519 10.7003766,5.202238 10.7347379,5.25856646 C10.7424632,5.27122882 10.8056333,5.4280953 10.8751338,5.60716167 C11.1429965,6.29731442 11.7988658,7.63191588 12.1664058,8.23479076 C12.328985,8.50146106 12.5333288,8.74508914 12.5944067,8.74508914 C12.6875926,8.74508914 12.6121909,8.39225503 12.3098596,7.41363968 C11.7463447,5.58955393 11.6244573,5.1523494 11.5148283,4.56194667 L11.5148283,4.56194667 L11.4419212,4.16938646 L11.7599712,3.85834357 C12.1320445,3.49450462 12.375256,3.3046508 12.4545741,3.31611757 C12.5353406,3.32782889 12.6328184,3.5949883 12.9631001,4.70998212 C13.4831872,6.46567484 13.742815,7.12319349 14.0037839,7.34562707 C14.184201,7.49942307 14.2079669,7.41741665 14.135167,6.89209191 C14.0047764,5.95135494 13.8939404,4.21769906 13.8729105,2.78978745 L13.8729105,2.78978745 L13.8570308,1.71191118 L14.3638937,1.37464688 C14.6426737,1.18916782 14.9266039,1.00444959 14.9948705,0.96420721 L14.9948705,0.96420721 L15.1190111,0.891004663 L15.1347299,0.951952441 C15.1496976,1.00993842 15.1723637,1.80217802 15.2332538,4.39749908 C15.2706194,5.99021153 15.3070193,6.37144083 15.4289336,6.44635524 C15.561631,6.52795407 15.592693,6.34598025 15.8900083,3.74536057 C16.0499319,2.34630609 16.1973556,1.72487244 16.5746327,0.859566152 C16.7517235,0.453365378 16.8605746,0.270467699 16.9692111,0.196531496 C17.0648917,0.131399162 17.3249754,0.0599628228 17.5933746,0.025100585 Z" id="Combined-Shape" fill="#0062AC"></path>
        <path d="M15.0613131,26.5702084 C15.1533993,26.5702084 15.1792575,26.6584916 15.1791239,26.972768 C15.179016,27.3101682 15.1474176,28.0143419 15.13304,27.9997775 C15.1171871,27.9837458 15.0006108,27.1919953 14.978052,26.9471173 C14.967537,26.8331289 14.9672151,26.7016686 14.9773277,26.6550136 C14.9918126,26.5882509 15.0096773,26.5702084 15.0613131,26.5702084 Z M13.0012704,26.1949298 C13.0556959,26.2012882 13.0754383,26.220173 13.0812054,26.2713116 C13.0908083,26.3567145 12.9156756,26.7255532 12.7243413,27.0229284 C12.5857158,27.2383515 12.5236723,27.2964733 12.5236723,27.2109073 C12.5236723,27.1283574 12.7888794,26.4008969 12.8569851,26.2966363 C12.9157561,26.2066955 12.9422312,26.188028 13.0012704,26.1949298 Z M17.5430263,24.4508669 C17.5669531,24.4508126 17.6695543,24.5394491 17.7710288,24.6478671 C18.2422965,25.1514267 19.4973831,26.6140375 19.6253596,26.8088096 C19.6477575,26.842911 19.6603379,26.8766048 19.6533368,26.8836968 C19.637028,26.9002176 18.9395549,26.3985057 18.2505582,25.8746483 C17.6287016,25.4018207 17.2827011,25.1513724 17.1691827,25.0919191 C17.0784109,25.0443673 17.0032505,24.9750776 17.0032505,24.9389111 C17.0032505,24.9004621 17.3301793,24.5560514 17.4190198,24.5009185 C17.4632791,24.4734472 17.5190726,24.4509213 17.5430263,24.4508669 Z M14.7543413,20.5678984 C15.6678534,20.4593173 16.5497133,20.951546 16.964356,21.8014455 C17.1362967,22.1538992 17.1769079,22.3336449 17.1760628,22.7388946 C17.175218,23.1385469 17.1201487,23.3743493 16.9416094,23.7430521 C16.8497646,23.9326614 16.78241,24.0229825 16.5742035,24.2355525 C16.1040355,24.715608 15.5750966,24.9398621 14.9129237,24.9398621 C14.4700624,24.9398621 14.0855698,24.8049781 13.7072198,24.5168959 C12.9296776,23.9248085 12.6619491,22.7753057 13.0788181,21.8189718 C13.3708758,21.1488994 14.0344167,20.6534644 14.7543413,20.5678984 Z M18.0258551,22.8956796 C18.0604578,22.830194 18.1527049,22.8340797 18.5559475,22.9179882 C19.4919111,23.112733 20.4711415,23.4114397 20.7921154,23.6000707 C20.9064653,23.6672953 21,23.7292213 21,23.7376991 C21,23.7594914 18.5120905,23.7186241 18.2436377,23.6924027 C17.9777063,23.666453 17.9152605,23.623602 17.9152605,23.4671975 C17.9152605,23.3449215 17.9885163,22.9663551 18.0258551,22.8956796 Z M20.5574069,20.6587902 C20.9304727,20.5791749 20.9297216,20.5791749 20.7854094,20.6632736 C20.2881226,20.9531492 18.994812,21.530482 18.3212927,21.7632954 C18.0715897,21.8495951 18.0249431,21.8423944 17.9557644,21.7068855 C17.9051479,21.6077061 17.9037799,21.505266 17.9525456,21.4642628 C18.0586874,21.3750285 19.968785,20.7843812 20.5574069,20.6587902 Z M18.3975796,18.9315198 C18.6584681,18.7328078 18.7199751,18.6946849 18.7199751,18.7317481 C18.7199751,18.8519861 17.812713,20.2957664 17.5581818,20.5805607 C17.4200659,20.7351176 17.3838537,20.7306884 17.1915001,20.5358349 C17.0358146,20.3781261 16.9823548,20.2346284 17.0438618,20.1395521 C17.1407494,19.9897504 17.9130341,19.3005759 18.3975796,18.9315198 Z" id="Combined-Shape" fill="#E4312B"></path>
    </g>
</svg>