<?xml version="1.0" encoding="UTF-8"?>
<svg width="28px" height="28px" viewBox="0 0 28 28" version="1.1" xmlns="http://www.w3.org/2000/svg" xmlns:xlink="http://www.w3.org/1999/xlink">
    <title>Z7</title>
    <g id="Z7" stroke="none" stroke-width="1" fill="none" fill-rule="evenodd">
        <path d="M17.6868713,10.6314947 C17.6868713,10.6508458 17.6997105,10.6572962 17.7168295,10.6680468 L17.7446479,10.6895481 L17.7446479,10.6895481 C17.2824349,10.8927349 16.8202218,11.0959217 16.3868971,11.2700818 C15.4046944,11.7054822 14.4513799,12.1699092 13.4980655,12.6633629 C13.4402889,12.6923896 13.3825123,12.6923896 13.3247356,12.6923896 C13.0647408,12.7214163 12.7758576,12.750443 12.5158628,12.7794697 C11.9669848,12.8665497 11.4469951,12.9246031 10.8981171,13.0407099 C10.0603559,13.1858433 9.22259479,13.3309768 8.38483363,13.5051369 C7.11374774,13.7954038 5.84266185,14.0856707 4.54268765,14.4049643 C4.48491101,14.4049643 4.4560227,14.433991 4.39824607,14.433991 C4.22491617,14.4630176 4.10936291,14.4049643 4.05158628,14.2308041 C3.99380965,14.056644 4.02269796,13.9115105 4.19602786,13.8244305 C4.42713438,13.7083237 4.65824091,13.6212437 4.88934743,13.5341636 C6.56486974,12.8955764 8.26928037,12.3150426 10.0025793,11.8215889 C11.2447769,11.4732687 12.5158628,11.1830018 13.7869487,10.9798149 C14.5958215,10.8346815 15.4046944,10.7476014 16.2135672,10.6895481 C16.7046686,10.6605214 17.1957699,10.6605214 17.6868713,10.6314947 Z M20.8934743,10.8637082 C23.2623162,11.4152153 25.6022698,12.1699092 27.7977818,13.21487 L27.7977818,13.2438967 L27.7977818,13.2438967 C27.5377869,13.1858433 27.2777921,13.1568166 27.0177973,13.0987633 C25.9489296,12.9246031 24.8800619,12.750443 23.7823059,12.6053095 C23.2334279,12.5182295 22.6556616,12.5182295 22.0778953,12.4601761 C21.9334537,12.4601761 21.962342,12.4311494 21.9334537,12.4021227 C21.6156822,11.9376957 21.2979108,11.5022954 20.9801393,11.0378683 C20.951251,11.0088416 20.9223627,10.9217616 20.8934743,10.8637082 Z M19.4779469,11.5022954 C19.6801651,11.7925622 19.8823833,12.0538024 20.1134898,12.3440693 L17.6290947,12.3440693 L17.6290947,12.3440693 C17.6290947,12.3440693 17.6868713,12.3150426 17.6868713,12.3150426 C18.2646376,12.0538024 18.8712922,11.7635356 19.4779469,11.5022954 Z" id="Combined-Shape" fill="#F9BF31" fill-rule="nonzero"></path>
        <path d="M20.9223627,10.9217616 C21.1534692,11.2700818 21.3845757,11.5893754 21.6156822,11.908669 C22.4534434,13.0697366 23.060098,14.3469109 23.608976,15.6531119 C24.0423007,16.669046 24.3600722,17.6849801 24.6489554,18.7299409 C24.6489554,18.7589676 24.6778437,18.7879943 24.6778437,18.8460477 C24.706732,19.0202078 24.6489554,19.1653413 24.4756255,19.2233947 C24.3022956,19.281448 24.157854,19.2524213 24.0711891,19.0782612 C23.9267475,18.817021 23.8111942,18.5267541 23.6667526,18.2364872 C22.6845499,16.204619 21.5290173,14.2598308 20.1712664,12.4601761 C19.9401599,12.1699092 19.7379417,11.8796423 19.5068352,11.5893754 C19.5068352,11.5603487 19.4779469,11.5603487 19.4490586,11.5022954 C19.9401599,11.2991085 20.4312613,11.0959217 20.9223627,10.9217616 Z M12.4003095,3.54898254 L12.8336343,3.81022274 L12.8336343,3.81022274 C14.1624968,4.7100501 15.4913593,5.63890415 16.7624452,6.65483827 C17.6290947,7.35147881 18.4668558,8.10617273 19.217952,8.88989333 C19.304617,8.9769734 19.3623936,9.06405347 19.4490586,9.12210684 L18.4090792,9.00600009 L18.4090792,9.00600009 L17.3690998,8.91892002 L17.3690998,8.91892002 C17.2824349,8.91892002 17.2246582,8.88989333 17.1668816,8.83183995 C16.6757802,8.33838624 16.1846789,7.81590584 15.6646892,7.32245212 C14.5380449,6.21943793 13.3247356,5.17447713 12.1114264,4.1875697 C12.0536497,4.15854301 11.9958731,4.10048963 11.9669848,4.04243625 C11.8514315,3.89730281 11.8514315,3.75216936 11.9669848,3.63606261 C12.082538,3.49092916 12.2269796,3.46190247 12.4003095,3.54898254 Z" id="Combined-Shape" fill="#279AD6" fill-rule="nonzero"></path>
        <path d="M18.5535208,10.4283079 C19.2757287,10.5444146 19.76683,10.6605214 20.5179262,10.8056548 C20.6045912,10.8056548 20.9801393,10.8927349 21.0668042,10.8927349 C20.7490328,11.0088416 20.1712664,11.2410551 19.853495,11.3861886 C17.2535466,12.4021227 14.826928,13.7373504 12.4580861,15.2467382 C10.6958989,16.3787791 8.96259995,17.5979001 7.28707764,18.9041011 L3.12716018,22.2421703 L3.12716018,22.2421703 C2.28939902,22.9388109 1.48052618,23.6644781 0.642765025,24.3611186 C0.584988393,24.419172 0.498323446,24.4481987 0.411658499,24.4772254 C0.26721692,24.5352788 0.151663657,24.4772254 0.0649987103,24.3611186 C-0.0216662368,24.2450119 -0.0216662368,24.1289051 0.0649987103,24.0127984 C0.180551973,23.8676649 0.324993552,23.7225315 0.46943513,23.577398 C1.76940934,22.1550903 3.06938354,20.7327825 4.48491101,19.3975548 C6.73819964,17.2495798 9.13592984,15.3047916 11.7647666,13.6502703 C13.5558421,12.5182295 15.4913593,11.5893754 17.4557648,10.8056548 C17.6868713,10.7185747 17.9179778,10.602468 18.1490843,10.5444146 C18.206861,10.5153879 18.5246324,10.4283079 18.5535208,10.4283079 Z M27.0755739,8.454493 C27.2200155,8.48351968 27.3355687,8.57059975 27.3355687,8.7157332 C27.3644571,8.86086664 27.3066804,8.9769734 27.1622388,9.03502678 C26.902244,9.12210684 26.6711375,9.18016022 26.4111426,9.2382136 C25.3711633,9.52848049 24.3022956,9.81874738 23.2623162,10.1090143 C23.1178746,10.138041 23.0023214,10.138041 22.8867681,10.1090143 C22.3667784,9.93485414 21.8467888,9.81874738 21.3556874,9.64458725 C21.3267991,9.67361394 21.2401341,9.67361394 21.1823575,9.64458725 C21.4423523,9.58653387 21.7312355,9.47042711 21.962342,9.41237374 C22.8289915,9.20918691 23.695641,9.00600009 24.5622904,8.83183995 C25.3133866,8.68670651 26.0644828,8.57059975 26.8155791,8.454493 L27.0755739,8.454493 L27.0755739,8.454493 Z" id="Combined-Shape" fill="#279AD6" fill-rule="nonzero"></path>
        <path d="M11.6781016,9.87680076 C11.071447,9.87680076 10.435904,9.87680076 9.82924942,9.87680076 C9.77147279,9.87680076 9.68480784,9.87680076 9.62703121,9.84777407 C9.51147795,9.81874738 9.424813,9.73166732 9.39592468,9.58653387 C9.36703637,9.44140043 9.424813,9.32529367 9.56925458,9.26724029 C9.68480784,9.2382136 9.8003611,9.20918691 9.91591437,9.18016022 C10.4070157,9.12210684 10.9270054,9.03502678 11.4181068,9.00600009 C11.8225432,8.94794671 12.2558679,8.91892002 12.6603044,8.88989333 C13.2091824,8.86086664 13.7580604,8.80281326 14.3069384,8.77378658 C14.9713696,8.74475989 15.6646892,8.74475989 16.3291205,8.77378658 C16.9646634,8.80281326 17.571318,8.86086664 18.1779727,8.91892002 C18.9579572,9.00600009 19.7379417,9.12210684 20.5179262,9.29626698 C21.3556874,9.47042711 22.1356719,9.73166732 22.9445448,10.0219342 C24.0423007,10.4283079 25.1111684,10.9507883 26.1222595,11.5603487 C26.7000258,11.908669 27.2489038,12.2569893 27.7977818,12.6053095 C27.8266701,12.6343362 27.8555584,12.6633629 27.8844467,12.6633629 C28,12.7794697 28.0288883,12.8955764 27.9711117,13.0407099 C27.9133351,13.1858433 27.8266701,13.2438967 27.6533402,13.21487 C27.5666753,13.21487 27.4800103,13.1858433 27.4222337,13.1568166 C26.3244777,12.6053095 25.1689451,12.1699092 24.0134124,11.7635356 C22.9156564,11.3861886 21.8179004,11.066895 20.6912561,10.8056548 C19.9401599,10.6314947 19.217952,10.5153879 18.4668558,10.3702545 C17.9468661,10.2831744 17.3979881,10.1960943 16.8491101,10.138041 C16.4157854,10.0799876 16.011349,10.0509609 15.5780242,10.0219342 C15.0291462,9.96388083 14.4802682,9.93485414 13.9602786,9.90582745 C13.2958473,9.87680076 12.6603044,9.87680076 11.9958731,9.84777407 C11.9380965,9.87680076 11.8225432,9.87680076 11.6781016,9.87680076 C11.6781016,9.87680076 11.6781016,9.87680076 11.6781016,9.87680076 Z" id="XMLID_42_" fill="#F9BF31" fill-rule="nonzero"></path>
    </g>
</svg>