<?xml version="1.0" encoding="UTF-8"?>
<svg width="28px" height="28px" viewBox="0 0 28 28" version="1.1" xmlns="http://www.w3.org/2000/svg" xmlns:xlink="http://www.w3.org/1999/xlink">
    <title>ZB</title>
    <g id="ZB" stroke="none" stroke-width="1" fill="none" fill-rule="evenodd">
        <path d="M14.035443,6.49805132 L19.9898734,17.0209484 L14.035443,27.4736928 C14,27.5087691 13.964557,27.5087691 13.964557,27.4736928 L13.964557,27.4736928 L8.01012658,17.0209484 L13.964557,6.49805132 L13.964557,6.49805132 L14.035443,6.49805132 Z M26.4405063,5.62114323 L26.4759494,27.2983111 C26.4759494,27.3333875 26.4405063,27.3684638 26.4050633,27.3684638 L26.4050633,27.3684638 L20.0607595,27.3684638 C20.0253165,27.3684638 19.9898734,27.3333875 19.9898734,27.2983111 L19.9898734,27.2983111 L19.9898734,16.985872 L26.4405063,5.62114323 L26.4405063,5.62114323 Z M1.48860759,5.62114323 C1.48860759,5.5860669 1.52405063,5.5860669 1.55949367,5.62114323 L1.55949367,5.62114323 L7.97468354,16.985872 L7.97468354,27.2983111 C7.97468354,27.3333875 7.93924051,27.3684638 7.90379747,27.3684638 L7.90379747,27.3684638 L1.55949367,27.3684638 C1.52405063,27.3684638 1.48860759,27.3333875 1.48860759,27.2983111 L1.48860759,27.2983111 Z M14,0.570152647 C15.0632911,0.570152647 15.9139241,1.41198441 15.9139241,2.46427411 C15.9139241,3.51656382 15.0632911,4.35839558 14,4.35839558 C12.9367089,4.35839558 12.0860759,3.51656382 12.0860759,2.46427411 C12.0860759,1.41198441 12.9367089,0.570152647 14,0.570152647 Z M26.0860759,0.535076323 C27.1493671,0.535076323 28,1.37690809 28,2.42919779 C28,3.4814875 27.1493671,4.32331926 26.0860759,4.32331926 C25.0227848,4.32331926 24.1721519,3.4814875 24.1721519,2.42919779 C24.1721519,1.37690809 25.0227848,0.535076323 26.0860759,0.535076323 Z M1.91392405,0.5 C2.97721519,0.5 3.8278481,1.34183176 3.8278481,2.39412147 C3.8278481,3.44641117 2.97721519,4.28824294 1.91392405,4.28824294 C0.850632911,4.28824294 -1.29007915e-13,3.44641117 -1.29007915e-13,2.39412147 C-1.29007915e-13,1.34183176 0.850632911,0.5 1.91392405,0.5 Z" id="Combined-Shape" fill="#731472" fill-rule="nonzero"></path>
    </g>
</svg>