<?xml version="1.0" encoding="UTF-8"?>
<svg width="28px" height="28px" viewBox="0 0 28 28" version="1.1" xmlns="http://www.w3.org/2000/svg" xmlns:xlink="http://www.w3.org/1999/xlink">
    <title>ZE</title>
    <g id="ZE" stroke="none" stroke-width="1" fill="none" fill-rule="evenodd">
        <path d="M25.9798103,12.2470967 C25.7472149,12.2293181 25.3444696,12.1943346 25.0408351,12.1650861 C17.0695718,11.3254818 15.0340753,10.7152776 14.4703465,0.528193679 C14.4703465,0.528193679 14.4313896,0 13.9994267,0 C13.5628805,0 13.5267881,0.528193679 13.5267881,0.528193679 C12.9653509,10.7152776 10.9281357,11.3254818 2.9562995,12.1650861 C2.65495665,12.1943346 2.25278424,12.2293181 2.01732433,12.2470967 C1.76868783,12.2665957 1.5,12.3692522 1.5,12.5527723 C1.5,12.7546443 1.75207387,12.8555804 2.01732433,12.8882699 C10.8135567,13.9796407 12.7808786,14.7326465 13.5462666,27.4339553 C13.55486,27.7161174 13.6854801,28 13.9994267,28 C14.3110816,28 14.4411288,27.7155439 14.4531596,27.4339553 C15.216256,14.73322 17.183578,13.9796407 25.9798103,12.8882699 C26.2421963,12.8555804 26.5,12.7546443 26.5,12.5527723 C26.500572,12.3686787 26.227301,12.2660222 25.9798103,12.2470967 L25.9798103,12.2470967 Z" id="Path" fill="#D12149" fill-rule="nonzero"></path>
    </g>
</svg>