<?xml version="1.0" encoding="UTF-8"?>
<svg width="28px" height="28px" viewBox="0 0 28 28" version="1.1" xmlns="http://www.w3.org/2000/svg" xmlns:xlink="http://www.w3.org/1999/xlink">
    <title>ZH</title>
    <g id="ZH" stroke="none" stroke-width="1" fill="none" fill-rule="evenodd">
        <path d="M21.5089899,2.90996249 C20.8829777,3.23708723 19.5931723,3.39170811 19.0631908,2.84243402 C18.488027,3.73184567 19.5964905,4.57244461 20.8747305,4.10128752 C21.6229983,3.83030695 22.4073678,3.48120939 23.228663,3.36892103 C24.0868653,3.24849002 25.1157149,3.36892103 25.4849291,3.73836288 C22.294992,3.92957941 18.2074763,5.65796147 15.1627327,7.78671819 C12.7965103,9.44348195 11.3221756,10.9375161 9.54259842,13.2924719 C9.30302871,13.6252996 9.33912416,13.8759174 9.76742456,13.6545823 C11.855466,12.5991655 14.5465413,11.726838 16.8668195,11.1515197 C18.7210754,10.6950225 20.7024724,10.2653651 22.5895243,10.774768 C23.5429052,11.03516 24.4273418,11.6495383 24.7694603,12.5950941 C25.2141494,13.8132807 24.8737133,15.2552265 23.4034462,15.4806329 C22.6732215,15.5896612 22.1924277,15.3113676 21.9224939,14.9313589 C21.7928649,14.7490622 21.7280349,14.7425635 21.6263196,14.7742921 L19.7384218,15.3463502 C19.6317494,15.3797289 19.4915005,15.5261855 19.5694166,15.712535 C19.7433571,16.1446382 20.1486605,16.7069251 20.5941767,17.0356753 C21.7953155,17.9234584 23.3681127,18.0211239 24.7366986,17.4905625 C26.6253925,16.7606419 27.6246429,14.8019617 27.3440892,12.7244851 C27.0848126,10.822785 25.6883909,9.24900527 23.8858323,8.63870141 C22.0726506,8.02188035 19.589083,8.29530679 17.5970287,9.01708166 C17.0711396,9.20913405 16.9480319,9.28806223 17.2499842,9.03742595 C18.6644739,7.89737493 21.4983326,6.57504887 23.8751657,5.90047361 C25.5021449,5.43988345 27.005208,5.33165099 27.4441656,5.68808002 C27.8872034,2.99377934 25.6317832,1.23611458 22.8741986,1.93510237 C23.8440086,1.32479851 23.0785156,-0.00484050489 21.6854182,1.3252782e-05 C19.3848126,0.0130579006 17.1901206,1.05139058 15.0314525,1.28492421 C13.8196378,1.41838963 12.3912504,1.17508173 11.4353817,0.684394614 C11.2491388,2.57145346 13.5636452,3.95725516 15.769063,3.50073633 C17.315601,3.18094305 18.7513991,2.43393522 20.187194,2.11900903 C21.4556568,1.83501565 22.1079095,2.59994347 21.508993,2.90996249 M9.37442662,24.8614053 C8.1404142,26.69232 7.46930368,26.610946 6.35920126,26.4897007 C6.10485067,26.4620434 6.10817505,26.5043605 5.99416043,26.6866387 L5.70119233,27.1545356 C5.57323336,27.357158 5.58224557,27.3831837 5.87682143,27.507686 C7.98453544,28.3832736 9.90279729,28.2294825 11.4583818,25.9062521 L18.5930729,15.247892 C19.3036157,14.1875865 19.6153639,13.6171539 20.6130657,13.5715797 C21.23084,13.542297 21.6706342,13.9450929 21.7912167,14.4479785 C21.846991,14.692915 21.9930863,14.7075748 22.1390759,14.6684994 L23.9957886,14.116801 C24.0991584,14.088311 24.1737998,13.9385757 24.1795592,13.7644464 C24.2050035,13.2151723 23.8751657,12.4201475 23.3738845,12.0311756 C21.9561108,10.937513 19.8048534,11.3150821 18.2074763,11.6194167 C15.6426776,12.1125497 12.497052,13.1215781 9.79366506,14.4504213 C9.08890027,14.8019617 8.29796914,15.1608119 7.8639467,15.8061045 C7.11732089,16.9111699 5.03091835,20.1091674 4.22849338,21.1881886 C2.8796609,22.984935 2.31932148,22.9255307 1.18706485,22.8091525 C1.01804718,22.7904368 0.997538048,22.8124127 0.912205119,22.9523737 L0.575849085,23.4935175 C0.462590147,23.6774272 0.472407787,23.7091527 0.630774383,23.7766997 C2.77630668,24.7051683 4.64773493,24.6978368 6.26404758,22.2932509 L9.64924281,17.2513043 C10.1505675,16.502668 10.9800384,16.0567408 11.6076833,15.8435483 L6.79650764,23.0101371 C5.56669967,24.8418692 4.91934803,24.7564423 3.81413733,24.6408784 C3.56146603,24.6124068 3.55813854,24.656334 3.45069493,24.8304849 L3.14959471,25.3089549 C3.05524958,25.4586902 3.00357091,25.5156487 3.27182231,25.6279555 C5.56669967,26.5832825 7.37988447,26.3074133 8.88130243,24.0566186 L14.8074287,15.1632547 C15.118418,14.6929119 15.8634112,14.3202315 16.5714475,14.1713135 L9.3744204,24.8614023 L9.37442662,24.8614053 Z" id="path526" fill="#CC0327"></path>
    </g>
</svg>