<?xml version="1.0" encoding="UTF-8"?>
<svg width="28px" height="28px" viewBox="0 0 28 28" version="1.1" xmlns="http://www.w3.org/2000/svg" xmlns:xlink="http://www.w3.org/1999/xlink">
    <title>ZI</title>
    <g id="ZI" stroke="none" stroke-width="1" fill="none" fill-rule="evenodd">
        <path d="M24.1061307,11.2717313 C22.8074825,10.9565158 21.2934306,11.6773607 20.1612119,12.3402585 C18.4803154,13.3257693 16.4155105,15.384328 15.0541919,16.9041024 C14.5424523,17.4769974 11.6695719,20.2518803 10.8826633,20.168042 C10.1721214,20.0924231 10.5863275,19.0140326 10.5053955,18.4419596 C10.4614016,18.1255112 10.373414,17.629057 10.0795684,17.5111081 C9.55869797,17.3011014 8.99839915,18.3651079 8.7763548,18.7477228 C8.42689434,19.3448651 8.08199929,20.0837927 7.39428436,20.2572229 C6.62107198,20.4520236 6.04002134,19.2807535 5.73413969,18.6297738 C5.46561129,18.0498923 3.91213091,11.3288564 0.671528519,11.804351 C0.539547018,11.8236667 -2.66453526e-14,11.9227109 -2.66453526e-14,12.0899765 C-2.66453526e-14,12.3566974 -2.66453526e-14,12.7467098 -2.66453526e-14,13.0138416 C-2.66453526e-14,13.5283785 -2.66453526e-14,14.0429154 -2.66453526e-14,14.5578633 C1.8543816,14.0396277 2.95173722,15.4081644 3.91918653,17.4687779 C4.47741017,18.6585419 4.90531246,20.0225579 5.28050516,21.3043795 C5.40792126,21.737133 5.42410767,22.3770164 5.70882248,22.705794 C6.11389778,23.1734801 6.61650658,22.9351164 6.96804222,22.5056507 C7.54203723,21.8028886 7.93590656,20.6875106 8.77137436,20.3402392 C9.63963002,19.9794058 9.48191628,21.6685007 9.55122732,22.2586565 C9.59314597,22.5981194 9.72014704,23.0542983 10.0791533,22.9947073 C10.5954583,22.9100471 10.970236,22.2533139 11.3105656,21.855493 C11.7202063,21.3750667 12.141468,20.9086135 12.56522,20.4491468 C14.3548559,18.5134687 17.2621843,15.9457157 19.370983,14.5233417 C20.2068659,13.960721 21.1813708,13.35988 22.1674967,13.35988 C22.3434721,13.35988 22.5194474,13.3841273 22.6883671,13.4437183 C22.8855093,13.5115287 22.8552117,13.491802 22.9710068,13.2854941 C23.2789636,12.7409562 23.5848453,12.1943634 23.8923871,11.6490036 C23.9650184,11.5228352 24.0368196,11.3978997 24.1061307,11.2717313" id="path5" fill="#0E417B"></path>
        <path d="M26.2614135,8.10272629 C24.84448,7.8002509 23.1959564,8.49479356 21.9624689,9.1354989 C20.1309143,10.0856661 17.8830784,12.0731267 16.4018143,13.5402967 C15.8415155,14.092643 15.3277007,14.6910183 14.7537057,15.2265148 C14.1701648,15.7685868 13.2118463,16.7701256 12.3552117,16.6912189 C11.5795091,16.6180659 11.8642239,15.4007669 11.7762362,14.8496535 C11.727677,14.5434793 11.6326337,14.064286 11.3109807,13.9500358 C10.7461164,13.7482485 10.1351832,14.7752675 9.89197201,15.1443204 C9.51013874,15.7209141 9.29930037,16.6102575 8.55182023,16.777934 C7.71137199,16.9669811 7.07719673,15.8347533 6.74599787,15.2063771 C6.45215226,14.6458113 5.66939405,10.894459 4.3732361,9.76921771 C3.34311633,8.87535363 2.05359896,8.45575122 0.731708763,8.73521218 C0.590596466,8.76480216 0.000415036167,8.84864045 0.000415036167,9.01015244 C0.000415036167,9.26906479 0.000415036167,9.5271552 0.000415036167,9.78606756 C0.000415036167,10.2825217 0.000415036167,10.7797978 0.000415036167,11.276252 C2.01915095,10.7765101 3.71374363,12.0969631 4.76669038,14.0852455 C5.37305822,15.2335013 5.8432942,16.5506665 6.25085972,17.7872812 C6.3894818,18.2056507 6.40815843,18.8225197 6.71819044,19.141023 C7.15563856,19.5914483 7.70431638,19.361304 8.08863987,18.9474552 C8.71617455,18.2689404 9.14200166,17.1926048 10.0517609,16.8568407 C10.9984584,16.5083364 10.8249733,18.1394842 10.9038302,18.7090914 C10.947824,19.0354032 11.0864461,19.4771981 11.4778252,19.419662 C12.0401992,19.3382895 12.4498399,18.7033378 12.8204672,18.31949 C13.2674612,17.8555026 13.7256611,17.4058992 14.1884264,16.9624605 C16.1353611,15.0929489 18.8044587,12.6164317 21.103759,11.2429633 C22.0135183,10.6996583 23.0760109,10.1197768 24.1480493,10.1197768 C24.3402111,10.1197768 24.5323728,10.1427912 24.717479,10.1999164 C24.9303925,10.2664938 24.8980197,10.2467672 25.0254358,10.0486787 C25.3612,9.5214016 25.6940591,8.99535745 26.0298233,8.4693133 C26.10619,8.34684365 26.1825566,8.22396302 26.2614135,8.10272629" id="path7" fill="#45A6D9"></path>
        <path d="M28,5.07345174 C26.4905135,4.76974344 24.7311751,5.46551902 23.4163406,6.10499144 C21.4623503,7.0563916 19.7212736,8.40643459 18.1404008,9.87360459 C17.5431638,10.4259509 16.9969762,11.0255591 16.3835527,11.5606446 C15.7609985,12.1014838 14.7400095,13.1042554 13.8252698,13.0245268 C12.9989328,12.9509629 13.3019092,11.7348967 13.2093561,11.1825504 C13.1583067,10.8776092 13.0566228,10.3984158 12.714218,10.2837546 C12.1099253,10.0819674 11.4595636,11.1089864 11.200166,11.4780392 C10.7950907,12.054222 10.5705561,12.9439763 9.77202656,13.110009 C8.87347326,13.2990561 8.19986956,12.1680612 7.84584371,11.5384521 C7.53124629,10.9791192 6.04500178,7.86271864 4.66293134,6.73829928 C3.56557571,5.8444352 2.19056089,5.4248328 0.780683031,5.70429375 C0.630439938,5.73388373 0.000830072335,5.81772202 0.000830072335,5.98046693 C0.000830072335,6.23855734 0.000830072335,6.49623677 0.000830072335,6.75432718 C0.000830072335,7.25160329 0.000830072335,7.74805746 0.000830072335,8.24533357 C2.15362267,7.74559163 4.61229693,8.42985999 5.73496976,10.4185535 C6.38325626,11.5668092 6.88337484,12.8839744 7.31833274,14.1205891 C7.46650065,14.5389586 7.48476224,15.1554166 7.81596111,15.473098 C8.28329183,15.9247562 8.8693229,15.6946119 9.27688841,15.2795302 C9.94592672,14.6010154 10.4020515,13.5246798 11.371991,13.1901486 C12.3788687,12.8416443 12.1962528,14.4727921 12.2796751,15.0411664 C12.3282343,15.369122 12.474327,15.810506 12.8930985,15.7529699 C13.4928258,15.6715974 13.9281987,15.0366457 14.3237282,14.6527979 C14.7985296,14.1888105 15.2866121,13.7392071 15.7821653,13.2945354 C17.8565161,11.4262568 20.0533025,9.5859242 22.5003557,8.21245581 C23.4727855,7.66915084 24.6045891,7.08926936 25.750504,7.08926936 C25.9542867,7.08926936 26.1601447,7.11228379 26.3572868,7.1694089 C26.5838966,7.23598636 26.5494486,7.21667067 26.6835053,7.0181712 C27.0400213,6.49089414 27.3965374,5.96484999 27.7555437,5.43757293 C27.8352306,5.31633619 27.9190679,5.19468848 28,5.07345174" id="path9" fill="#0E417B"></path>
    </g>
</svg>