<?xml version="1.0" encoding="UTF-8"?>
<svg width="28px" height="28px" viewBox="0 0 28 28" version="1.1" xmlns="http://www.w3.org/2000/svg" xmlns:xlink="http://www.w3.org/1999/xlink">
    <title>ZY</title>
    <g id="ZY" stroke="none" stroke-width="1" fill="none" fill-rule="evenodd">
        <path d="M22.4138381,9.9284398 L23.4795065,13.7988859 L24.4635303,9.9284398 L28,9.9284398 L25.6452184,16.5426737 C25.5506833,16.8287811 25.0694142,17.9127904 25.0694142,17.9127904 C24.1885187,20.0119476 21.2923092,19.3562112 19.4144994,19.3411057 L19.4144994,16.9145245 L21.7134198,16.9145245 L18.8043183,9.9284398 L22.4138381,9.9284398 Z M8.04021445,8.82488256 L8.04021445,11.1275134 L7.78668891,11.0906393 C6.4760893,10.8254127 4.30178335,10.8960514 4.30178335,10.8960514 C4.30178335,10.8960514 3.68730536,10.8765031 3.78184044,11.2496868 C3.96661376,11.9756174 6.4760893,11.1261813 7.60191587,12.011159 C8.98556508,13.0965016 8.34100811,14.5439205 7.90700601,15.232977 C7.3183106,16.1712673 5.63816531,16.5249027 4.06544606,16.5249027 C1.52589071,16.5249027 0.262558871,16.1179556 0.262558871,16.1179556 L0.262558871,13.9939186 C3.10720401,14.6492114 4.50374479,14.5781291 4.57249729,14.1707363 C4.52952659,13.9916976 4.32756514,13.8850737 3.70019665,13.8459782 C2.32514162,13.7602348 1.74504027,13.653611 1.74504027,13.653611 C1.74504027,13.653611 -0.381998139,13.3968253 0.0605974292,10.6659212 C0.632104716,7.35569434 8.04021445,8.82488256 8.04021445,8.82488256 Z M13.0849486,8.50678752 L13.0849486,12.6313543 L14.4041418,9.9284398 L18.3230492,9.9284398 L16.1831191,13.2155643 L17.9492061,16.3312033 L14.3654686,16.3312033 L13.0849486,14.1183135 L13.0849486,16.3485295 L9.69887502,16.3485295 L9.69887502,8.50678752 L13.0849486,8.50678752 Z" id="Combined-Shape" fill="#000000" fill-rule="nonzero"></path>
        <path d="M14.1635072,17.6440095 C14.2408541,17.6142433 14.9842433,17.3690088 15.6760679,17.5915862 C16.3850806,17.8017237 16.2862486,18.6911447 16.2862486,18.6911447 L16.2862486,18.6911447 L14.769391,18.6911447 C14.769391,18.6911447 14.6361824,19.2113799 16.2217934,18.8284232 L16.2217934,18.8284232 L16.0198319,19.3606537 C15.9081087,19.3828671 15.8436531,19.3939738 15.7319295,19.4104114 C15.1260463,19.4992647 14.8037672,19.5570193 14.1635072,19.4104114 C13.7552879,19.3162268 13.5447325,18.9088349 13.5705148,18.4685676 C13.5920002,18.0656181 13.8068525,17.7843975 14.1635072,17.6440095 Z M18.9117446,17.5915862 L18.9117446,18.1353679 C18.3445346,18.0309654 17.8589687,18.065174 17.8589687,18.065174 C17.8589687,18.065174 17.7343538,18.0771684 17.7558391,18.170465 C17.8031071,18.3526136 18.469149,18.1353679 18.7527539,18.3570568 C19.0965175,18.6293917 18.9246359,19.0341182 18.8172099,19.2069379 C18.6711101,19.4419546 18.1253854,19.4814942 17.730057,19.4814942 C17.094094,19.4814942 16.7374387,19.3793127 16.7374387,19.3793127 L16.7374387,18.9234955 C17.3261345,19.0212345 17.9277208,18.9674783 17.9277208,18.9674783 C17.9277208,18.9674783 17.9878796,18.9710323 17.9878796,18.8675183 C17.9706915,18.7831075 17.8031071,18.8102078 17.6441159,18.800434 C17.3003523,18.7786654 17.1456584,18.7711127 17.1456584,18.7711127 C17.1456584,18.7711127 16.5096954,18.6911447 16.6386068,18.0123059 C16.780409,17.1824169 18.9117446,17.5915862 18.9117446,17.5915862 Z M1.52159348,17.5089528 C1.82238683,17.5702613 1.93411042,17.706651 1.9727835,17.8839131 L1.9727835,17.5915862 L3.03415469,17.5915862 L3.03415469,19.4104114 L1.9727835,19.4104114 L1.9727835,18.8266458 L1.95650996,18.9579465 C1.92095615,19.2230217 1.84571385,19.4866985 1.34111778,19.4566153 C0.692263544,19.4179642 0.301232347,19.1451845 0.301232347,18.4152555 C0.301232347,17.8594782 0.795392681,17.361456 1.52159348,17.5089528 Z M6.9573589,17.5067314 L6.9573589,18.5152155 L6.89743896,18.5156659 C6.71063676,18.5197074 6.15381106,18.5529037 6.1967817,18.8057653 L6.1967817,19.4104114 L6.1409201,19.4104114 L6.1409201,19.4170753 L5.0494699,19.4170753 L5.0494699,17.5986946 L5.08384614,17.5986946 L5.08384614,17.5915862 L6.13662287,17.5915862 L6.13662287,17.5986946 L6.1409201,17.5986946 L6.1409201,17.9154563 C6.17529595,17.7995022 6.33858392,17.3805595 6.9573589,17.5067314 Z M4.58538818,17.5915862 L4.58538818,19.4104114 L3.49393838,19.4104114 L3.49393838,17.5915862 L4.58538818,17.5915862 Z M8.40976057,17.0207039 L8.40976057,19.4104114 L7.3183106,19.4104114 L7.3183106,17.0207039 L8.40976057,17.0207039 Z M9.96958892,17.5915862 L9.96958892,19.4104114 L8.87384192,19.4104114 L8.87384192,17.5915862 L9.96958892,17.5915862 Z M11.5380112,17.9270066 C11.8216165,17.4494208 13.0634633,17.3010364 13.1708894,18.2020077 L13.1708894,18.2020077 L13.1708894,19.4104114 L12.0923303,19.4104114 L12.0922537,18.460788 C12.090792,18.4232965 12.0708454,18.2554183 11.8302104,18.2704246 C11.8302104,18.2704246 11.5938727,18.2793103 11.5938727,18.4681236 L11.5938727,18.4681236 L11.5938727,19.4104114 L10.4422642,19.4104114 L10.4422642,17.5915862 L11.5380112,17.5915862 Z M1.64620797,18.2219997 C1.47002911,18.2219997 1.32822649,18.3717175 1.32822649,18.5565324 C1.32822649,18.7413469 1.47002911,18.8915091 1.64620797,18.8915091 C1.82238683,18.8915091 1.96418944,18.7413469 1.96418944,18.5565324 C1.96418944,18.3717175 1.82238683,18.2219997 1.64620797,18.2219997 Z M15.0229172,17.9678795 C14.8467379,17.9678795 14.7006385,18.1358119 14.6963409,18.3237363 L14.6963409,18.3237363 L15.3537892,18.3237363 C15.3494923,18.1358119 15.2033929,17.9678795 15.0229172,17.9678795 Z M4.58538818,17.0207039 L4.58538818,17.4494208 L3.49393838,17.4494208 L3.49393838,17.0207039 L4.58538818,17.0207039 Z M9.96958892,17.0207039 L9.96958892,17.4494208 L8.87813895,17.4494208 L8.87813895,17.0207039 L9.96958892,17.0207039 Z" id="Combined-Shape" fill="#01A0E9" fill-rule="nonzero"></path>
    </g>
</svg>