<svg version="1" xmlns="http://www.w3.org/2000/svg" width="666.667" height="666.667" viewBox="0 0 500.000000 500.000000"><path d="M376.8 120.4c-.1.2-3 .6-6.3.9-3.3.2-8.8 1.4-12.2 2.6-13.1 4.4-17.2 7.7-46.5 37.5-15.3 15.4-28.5 29.5-29.3 31.3-3.5 7.4-1.6 17.2 4.5 22.7 6.4 5.8 15.6 6.9 22.5 2.6 1.7-1 14.3-13.3 28.1-27.3 27.3-27.9 30.2-30.1 39.6-30.3 9.5-.2 17.5 4.5 22.1 13.1l2.2 4V257c0 74.5-.1 79.7-1.8 83.1-5.6 11.2-17.1 16.2-29.7 13-5.2-1.4-7.3-3.5-163.1-162.3-50.8-51.7-56.5-57.2-64.1-61.5-10.8-6.2-19.7-8.3-32.7-7.9-7.3.2-12.6 1-17.1 2.4-16.6 5.4-31.7 19.3-38.9 35.6-2 4.7-2.4 6.1-3.9 13.6-.4 1.9-.7 40.4-.7 85.5 0 76.7.1 82.4 1.8 88C57 364.9 68.8 379 85.5 387c9.5 4.6 17.2 6.3 27.7 6.2 12.4-.2 26.1-4.7 35.8-11.9 7.1-5.3 56.2-55.8 58.1-59.8 7.6-16-8.3-32.7-24.7-26-2.7 1.1-11.7 9.5-30 28-28.1 28.5-30.9 30.6-40.4 30.8-10.1.1-20.4-7.8-23.1-17.7-.8-2.9-1.2-26.6-1.2-80.3 0-86.7-.5-81.7 8.3-89.6 2.6-2.3 6.4-4.8 8.4-5.4 4.6-1.4 13-.9 17.6 1 3.2 1.4 21.6 19.3 55 53.7 21.9 22.5 106 107.8 135 137 26 26.2 30.3 30.1 36.5 33.2 10.6 5.4 17.5 7.1 29 7.1 24.2.1 45.4-13.1 56-34.8 7.1-14.3 6.8-11.2 7-99.5 0-59.5-.3-81.2-1.2-86.2-5.1-27.6-27.2-48.8-53.5-51.3-3.5-.4-6.8-.8-7.5-1-.6-.2-1.3-.2-1.5-.1z"/></svg>